<svg xmlns="http://www.w3.org/2000/svg" xmlns:xlink="http://www.w3.org/1999/xlink" width="800" height="600" style="background-color: white;"><g class="y axis" transform="translate(149,45)" fill="none" font-size="10" font-family="sans-serif" text-anchor="end" style="font-size: 13px;"><path class="domain" stroke="currentColor" d="M0.5,0.5V525.5"></path><g class="tick" opacity="1" transform="translate(0,40.66901408450705)" style="font-size: 13px;"><line stroke="currentColor" x2="0"></line><text fill="currentColor" x="-3" dy="0.32em">object (simple)    </text></g><g class="tick" opacity="1" transform="translate(0,114.61267605633802)" style="font-size: 13px;"><line stroke="currentColor" x2="0"></line><text fill="currentColor" x="-3" dy="0.32em">object (hierarchical)    </text></g><g class="tick" opacity="1" transform="translate(0,188.556338028169)" style="font-size: 13px;"><line stroke="currentColor" x2="0"></line><text fill="currentColor" x="-3" dy="0.32em">object (recursive)    </text></g><g class="tick" opacity="1" transform="translate(0,262.5)" style="font-size: 13px;"><line stroke="currentColor" x2="0"></line><text fill="currentColor" x="-3" dy="0.32em">object (union)    </text></g><g class="tick" opacity="1" transform="translate(0,336.443661971831)" style="font-size: 13px;"><line stroke="currentColor" x2="0"></line><text fill="currentColor" x="-3" dy="0.32em">array (hierarchical)    </text></g><g class="tick" opacity="1" transform="translate(0,410.38732394366195)" style="font-size: 13px;"><line stroke="currentColor" x2="0"></line><text fill="currentColor" x="-3" dy="0.32em">array (recursive)    </text></g><g class="tick" opacity="1" transform="translate(0,484.33098591549293)" style="font-size: 13px;"><line stroke="currentColor" x2="0"></line><text fill="currentColor" x="-3" dy="0.32em">array (union)    </text></g></g><g class="x axis" transform="translate(149,570)" fill="none" font-size="10" font-family="sans-serif" text-anchor="middle" style="font-size: 13px;"><path class="domain" stroke="currentColor" d="M0.5,0.5H485.5"></path><g class="tick" opacity="1" transform="translate(0.5,0)" style="font-size: 13px;"><line stroke="currentColor" y2="6"></line><text fill="currentColor" y="9" dy="0.71em">0x</text></g><g class="tick" opacity="1" transform="translate(75.08831361833695,0)" style="font-size: 13px;"><line stroke="currentColor" y2="6"></line><text fill="currentColor" y="9" dy="0.71em">1x</text></g><g class="tick" opacity="1" transform="translate(149.6766272366739,0)" style="font-size: 13px;"><line stroke="currentColor" y2="6"></line><text fill="currentColor" y="9" dy="0.71em">2x</text></g><g class="tick" opacity="1" transform="translate(224.26494085501082,0)" style="font-size: 13px;"><line stroke="currentColor" y2="6"></line><text fill="currentColor" y="9" dy="0.71em">3x</text></g><g class="tick" opacity="1" transform="translate(298.8532544733478,0)" style="font-size: 13px;"><line stroke="currentColor" y2="6"></line><text fill="currentColor" y="9" dy="0.71em">4x</text></g><g class="tick" opacity="1" transform="translate(373.44156809168476,0)" style="font-size: 13px;"><line stroke="currentColor" y2="6"></line><text fill="currentColor" y="9" dy="0.71em">5x</text></g><g class="tick" opacity="1" transform="translate(448.02988171002164,0)" style="font-size: 13px;"><line stroke="currentColor" y2="6"></line><text fill="currentColor" y="9" dy="0.71em">6x</text></g></g><text transform="translate(400, 30)" style="text-anchor: middle; font-size: 20px; font-weight: bold;">stringify benchmark</text><rect x="680" y="145" width="200" height="5" fill="gray"></rect><rect x="675" y="35" width="200" height="110" fill="none" stroke="black"></rect><rect x="685" y="45" width="10" height="10" style="fill: #4472c4;"></rect><text x="700" y="55" style="font-size: 12px;">TSON.stringify()</text><rect x="685" y="65" width="10" height="10" style="fill: #ed7d31;"></rect><text x="700" y="75" style="font-size: 12px;">TSON.assertStringify()</text><rect x="685" y="85" width="10" height="10" style="fill: #a5a5a5;"></rect><text x="700" y="95" style="font-size: 12px;">TSON.isStringify()</text><rect x="685" y="105" width="10" height="10" style="fill: #ffc000;"></rect><text x="700" y="115" style="font-size: 12px;">JSON.stringify()</text><rect x="685" y="125" width="10" height="10" style="fill: #5b9bd5;"></rect><text x="700" y="135" style="font-size: 12px;">fast-json-stringify</text><g style="font-size: 13px;"><g style="font-size: 13px;"><rect x="150" y="53.05327011574397" width="440.9090909090908" height="12.519174452656534" fill="#4472c4"></rect><rect x="150" y="66.23134848696137" width="342.2731998192692" height="12.519174452656534" fill="#ed7d31"></rect><rect x="150" y="79.40942685817878" width="407.50363384719935" height="12.519174452656534" fill="#a5a5a5"></rect><rect x="150" y="92.58750522939619" width="74.58831361833695" height="12.519174452656534" fill="#ffc000"></rect><rect x="150" y="105.76558360061358" width="283.37468427305635" height="12.519174452656534" fill="#5b9bd5"></rect><text class="label" x="599.4090909090908" y="61.55327011574397" font-size="10px">5.91x</text><text class="label" x="500.7731998192692" y="74.73134848696137" font-size="10px">4.59x</text><text class="label" x="566.0036338471994" y="87.90942685817878" font-size="10px">5.46x</text><text class="label" x="233.08831361833694" y="101.08750522939619" font-size="10px">1x</text><text class="label" x="441.87468427305635" y="114.26558360061358" font-size="10px">3.8x</text><text class="label" x="595.9090909090908" y="63.05327011574397" font-size="8px"></text><text class="label" x="497.2731998192692" y="76.23134848696137" font-size="8px"></text><text class="label" x="562.5036338471994" y="89.40942685817878" font-size="8px"></text><text class="label" x="229.58831361833694" y="102.58750522939619" font-size="8px"></text><text class="label" x="438.37468427305635" y="115.76558360061358" font-size="8px"></text></g><g style="font-size: 13px;"><rect x="150" y="126.99693208757495" width="229.75154642718854" height="12.519174452656534" fill="#4472c4"></rect><rect x="150" y="140.17501045879237" width="201.6823127635542" height="12.519174452656534" fill="#ed7d31"></rect><rect x="150" y="153.35308883000977" width="206.3170126459615" height="12.519174452656534" fill="#a5a5a5"></rect><rect x="150" y="166.53116720122716" width="74.58831361833695" height="12.519174452656534" fill="#ffc000"></rect><rect x="150" y="179.70924557244456" width="197.34524897293173" height="12.519174452656534" fill="#5b9bd5"></rect><text class="label" x="388.25154642718854" y="135.49693208757495" font-size="10px">3.08x</text><text class="label" x="360.1823127635542" y="148.67501045879237" font-size="10px">2.7x</text><text class="label" x="364.81701264596154" y="161.85308883000977" font-size="10px">2.77x</text><text class="label" x="233.08831361833694" y="175.03116720122716" font-size="10px">1x</text><text class="label" x="355.8452489729317" y="188.20924557244456" font-size="10px">2.65x</text><text class="label" x="384.75154642718854" y="136.99693208757495" font-size="8px"></text><text class="label" x="356.6823127635542" y="150.17501045879237" font-size="8px"></text><text class="label" x="361.31701264596154" y="163.35308883000977" font-size="8px"></text><text class="label" x="229.58831361833694" y="176.53116720122716" font-size="8px"></text><text class="label" x="352.3452489729317" y="189.70924557244456" font-size="8px"></text></g><g style="font-size: 13px;"><rect x="150" y="200.94059405940592" width="287.98949496583344" height="12.519174452656534" fill="#4472c4"></rect><rect x="150" y="214.11867243062332" width="247.3070746065142" height="12.519174452656534" fill="#ed7d31"></rect><rect x="150" y="227.29675080184074" width="261.9172336174836" height="12.519174452656534" fill="#a5a5a5"></rect><rect x="150" y="240.47482917305814" width="74.58831361833695" height="12.519174452656534" fill="#ffc000"></rect><rect x="150" y="253.65290754427554" width="77.21627568271457" height="12.519174452656534" fill="#5b9bd5"></rect><text class="label" x="446.48949496583344" y="209.44059405940592" font-size="10px">3.86x</text><text class="label" x="405.8070746065142" y="222.61867243062332" font-size="10px">3.32x</text><text class="label" x="420.4172336174836" y="235.79675080184074" font-size="10px">3.51x</text><text class="label" x="233.08831361833694" y="248.97482917305814" font-size="10px">1x</text><text class="label" x="235.71627568271458" y="262.15290754427554" font-size="10px">1.04x</text><text class="label" x="442.98949496583344" y="210.94059405940592" font-size="8px"></text><text class="label" x="402.3070746065142" y="224.11867243062332" font-size="8px"></text><text class="label" x="416.9172336174836" y="237.29675080184074" font-size="8px"></text><text class="label" x="229.58831361833694" y="250.47482917305814" font-size="8px"></text><text class="label" x="232.21627568271458" y="263.65290754427554" font-size="8px"></text></g><g style="font-size: 13px;"><rect x="150" y="274.8842560312369" width="131.33528633114975" height="12.519174452656534" fill="#4472c4"></rect><rect x="150" y="288.0623344024543" width="104.46325245204268" height="12.519174452656534" fill="#ed7d31"></rect><rect x="150" y="301.2404127736717" width="122.13653736590646" height="12.519174452656534" fill="#a5a5a5"></rect><rect x="150" y="314.4184911448891" width="74.58831361833695" height="12.519174452656534" fill="#ffc000"></rect><rect x="150" y="327.5965695161065" width="125.86945790225029" height="12.519174452656534" fill="#5b9bd5"></rect><text class="label" x="289.83528633114975" y="283.3842560312369" font-size="10px">1.76x</text><text class="label" x="262.9632524520427" y="296.5623344024543" font-size="10px">1.4x</text><text class="label" x="280.63653736590646" y="309.7404127736717" font-size="10px">1.64x</text><text class="label" x="233.08831361833694" y="322.9184911448891" font-size="10px">1x</text><text class="label" x="284.3694579022503" y="336.0965695161065" font-size="10px">1.69x</text><text class="label" x="286.33528633114975" y="284.8842560312369" font-size="8px"></text><text class="label" x="259.4632524520427" y="298.0623344024543" font-size="8px"></text><text class="label" x="277.13653736590646" y="311.2404127736717" font-size="8px"></text><text class="label" x="229.58831361833694" y="324.4184911448891" font-size="8px"></text><text class="label" x="280.8694579022503" y="337.5965695161065" font-size="8px"></text></g><g style="font-size: 13px;"><rect x="150" y="348.8279180030679" width="147.44799915112333" height="12.519174452656534" fill="#4472c4"></rect><rect x="150" y="362.0059963742853" width="129.34924171585362" height="12.519174452656534" fill="#ed7d31"></rect><rect x="150" y="375.1840747455027" width="138.85880277395435" height="12.519174452656534" fill="#a5a5a5"></rect><rect x="150" y="388.3621531167201" width="74.58831361833695" height="12.519174452656534" fill="#ffc000"></rect><rect x="150" y="401.5402314879375" width="189.7388770548291" height="12.519174452656534" fill="#5b9bd5"></rect><text class="label" x="305.9479991511233" y="357.3279180030679" font-size="10px">1.98x</text><text class="label" x="287.8492417158536" y="370.5059963742853" font-size="10px">1.73x</text><text class="label" x="297.3588027739544" y="383.6840747455027" font-size="10px">1.86x</text><text class="label" x="233.08831361833694" y="396.8621531167201" font-size="10px">1x</text><text class="label" x="348.2388770548291" y="410.0402314879375" font-size="10px">2.54x</text><text class="label" x="302.4479991511233" y="358.8279180030679" font-size="8px"></text><text class="label" x="284.3492417158536" y="372.0059963742853" font-size="8px"></text><text class="label" x="293.8588027739544" y="385.1840747455027" font-size="8px"></text><text class="label" x="229.58831361833694" y="398.3621531167201" font-size="8px"></text><text class="label" x="344.7388770548291" y="411.5402314879375" font-size="8px"></text></g><g style="font-size: 13px;"><rect x="150" y="422.7715799748988" width="149.28098855411835" height="12.519174452656534" fill="#4472c4"></rect><rect x="150" y="435.9496583461163" width="128.21369380412474" height="12.519174452656534" fill="#ed7d31"></rect><rect x="150" y="449.1277367173337" width="136.66770382487627" height="12.519174452656534" fill="#a5a5a5"></rect><rect x="150" y="462.30581508855107" width="74.58831361833695" height="12.519174452656534" fill="#ffc000"></rect><rect x="150" y="475.48389345976847" width="76.77837138691602" height="12.519174452656534" fill="#5b9bd5"></rect><text class="label" x="307.7809885541184" y="431.2715799748988" font-size="10px">2x</text><text class="label" x="286.7136938041248" y="444.4496583461163" font-size="10px">1.72x</text><text class="label" x="295.1677038248763" y="457.6277367173337" font-size="10px">1.83x</text><text class="label" x="233.08831361833694" y="470.80581508855107" font-size="10px">1x</text><text class="label" x="235.27837138691604" y="483.98389345976847" font-size="10px">1.03x</text><text class="label" x="304.2809885541184" y="432.7715799748988" font-size="8px"></text><text class="label" x="283.2136938041248" y="445.9496583461163" font-size="8px"></text><text class="label" x="291.6677038248763" y="459.1277367173337" font-size="8px"></text><text class="label" x="229.58831361833694" y="472.30581508855107" font-size="8px"></text><text class="label" x="231.77837138691604" y="485.48389345976847" font-size="8px"></text></g><g style="font-size: 13px;"><rect x="150" y="496.71524194672986" width="96.41840523656262" height="12.519174452656534" fill="#4472c4"></rect><rect x="150" y="509.89332031794726" width="84.20770177960173" height="12.519174452656534" fill="#ed7d31"></rect><rect x="150" y="523.0713986891647" width="88.11347418011397" height="12.519174452656534" fill="#a5a5a5"></rect><rect x="150" y="536.2494770603821" width="81.23600733144038" height="12.519174452656534" fill="#ffc000"></rect><rect x="150" y="549.4275554315994" width="74.58831361833695" height="12.519174452656534" fill="#5b9bd5"></rect><text class="label" x="254.91840523656262" y="505.21524194672986" font-size="10px">1.29x</text><text class="label" x="242.70770177960173" y="518.3933203179472" font-size="10px">1.13x</text><text class="label" x="246.61347418011397" y="531.5713986891647" font-size="10px">1.18x</text><text class="label" x="239.73600733144036" y="544.7494770603821" font-size="10px">1.09x</text><text class="label" x="233.08831361833694" y="557.9275554315994" font-size="10px">1x</text><text class="label" x="251.41840523656262" y="506.71524194672986" font-size="8px"></text><text class="label" x="239.20770177960173" y="519.8933203179472" font-size="8px"></text><text class="label" x="243.11347418011397" y="533.0713986891647" font-size="8px"></text><text class="label" x="236.23600733144036" y="546.2494770603821" font-size="8px"></text><text class="label" x="229.58831361833694" y="559.4275554315994" font-size="8px"></text></g></g></svg>