<svg xmlns="http://www.w3.org/2000/svg" xmlns:xlink="http://www.w3.org/1999/xlink" width="800" height="750" style="background-color: white;"><g class="y axis" transform="translate(149,45)" fill="none" font-size="10" font-family="sans-serif" text-anchor="end" style="font-size: 13px;"><path class="domain" stroke="#000" d="M0,0.5H0.5V675.5H0"></path><g class="tick" opacity="1" transform="translate(0,40.796703296703306)" style="font-size: 13px;"><line stroke="#000" x2="0"></line><text fill="#000" x="-3" dy="0.32em">object (simple)    </text></g><g class="tick" opacity="1" transform="translate(0,114.97252747252747)" style="font-size: 13px;"><line stroke="#000" x2="0"></line><text fill="#000" x="-3" dy="0.32em">object (hierarchical)    </text></g><g class="tick" opacity="1" transform="translate(0,189.14835164835165)" style="font-size: 13px;"><line stroke="#000" x2="0"></line><text fill="#000" x="-3" dy="0.32em">object (recursive)    </text></g><g class="tick" opacity="1" transform="translate(0,263.3241758241758)" style="font-size: 13px;"><line stroke="#000" x2="0"></line><text fill="#000" x="-3" dy="0.32em">object (union, explicit)    </text></g><g class="tick" opacity="1" transform="translate(0,337.5)" style="font-size: 13px;"><line stroke="#000" x2="0"></line><text fill="#000" x="-3" dy="0.32em">object (union, implicit)    </text></g><g class="tick" opacity="1" transform="translate(0,411.6758241758242)" style="font-size: 13px;"><line stroke="#000" x2="0"></line><text fill="#000" x="-3" dy="0.32em">array (recursive)    </text></g><g class="tick" opacity="1" transform="translate(0,485.85164835164835)" style="font-size: 13px;"><line stroke="#000" x2="0"></line><text fill="#000" x="-3" dy="0.32em">array (union, explicit)    </text></g><g class="tick" opacity="1" transform="translate(0,560.0274725274727)" style="font-size: 13px;"><line stroke="#000" x2="0"></line><text fill="#000" x="-3" dy="0.32em">array (union, implicit)    </text></g><g class="tick" opacity="1" transform="translate(0,634.2032967032968)" style="font-size: 13px;"><line stroke="#000" x2="0"></line><text fill="#000" x="-3" dy="0.32em">ultimate union    </text></g></g><g class="x axis" transform="translate(149,720)" fill="none" font-size="10" font-family="sans-serif" text-anchor="middle" style="font-size: 13px;"><path class="domain" stroke="#000" d="M0.5,0V0.5H485.5V0"></path><g class="tick" opacity="1" transform="translate(0.5,0)" style="font-size: 13px;"><line stroke="#000" y2="6"></line><text fill="#000" y="9" dy="0.71em">0x</text></g><g class="tick" opacity="1" transform="translate(79.66394608662056,0)" style="font-size: 13px;"><line stroke="#000" y2="6"></line><text fill="#000" y="9" dy="0.71em">100x</text></g><g class="tick" opacity="1" transform="translate(158.8278921732411,0)" style="font-size: 13px;"><line stroke="#000" y2="6"></line><text fill="#000" y="9" dy="0.71em">200x</text></g><g class="tick" opacity="1" transform="translate(237.99183825986168,0)" style="font-size: 13px;"><line stroke="#000" y2="6"></line><text fill="#000" y="9" dy="0.71em">300x</text></g><g class="tick" opacity="1" transform="translate(317.1557843464822,0)" style="font-size: 13px;"><line stroke="#000" y2="6"></line><text fill="#000" y="9" dy="0.71em">400x</text></g><g class="tick" opacity="1" transform="translate(396.3197304331028,0)" style="font-size: 13px;"><line stroke="#000" y2="6"></line><text fill="#000" y="9" dy="0.71em">500x</text></g><g class="tick" opacity="1" transform="translate(475.48367651972336,0)" style="font-size: 13px;"><line stroke="#000" y2="6"></line><text fill="#000" y="9" dy="0.71em">600x</text></g></g><text transform="translate(400, 30)" style="text-anchor: middle; font-size: 20px; font-weight: bold;">assert (throw) benchmark</text><rect x="680" y="145" width="200" height="5" fill="gray"></rect><rect x="675" y="35" width="200" height="110" fill="none" stroke="black"></rect><rect x="685" y="45" width="10" height="10" style="fill: #4472c4;"></rect><text x="700" y="55" style="font-size: 12px;">typescript-json</text><rect x="685" y="65" width="10" height="10" style="fill: #ed7d31;"></rect><text x="700" y="75" style="font-size: 12px;">typebox</text><rect x="685" y="85" width="10" height="10" style="fill: #a5a5a5;"></rect><text x="700" y="95" style="font-size: 12px;">io-ts</text><rect x="685" y="105" width="10" height="10" style="fill: #ffc000;"></rect><text x="700" y="115" style="font-size: 12px;">zod</text><rect x="685" y="125" width="10" height="10" style="fill: #5b9bd5;"></rect><text x="700" y="135" style="font-size: 12px;">class-validator</text><g style="font-size: 13px;"><g style="font-size: 13px;"><rect x="150" y="53.07855510825809" width="281.18570772321846" height="12.55848112283756" fill="#4472c4"></rect><rect x="150" y="66.2980089217713" width="17.188134344056895" height="12.55848112283756" fill="#ed7d31"></rect><rect x="150" y="79.51746273528452" width="65.25911533671596" height="12.55848112283756" fill="#a5a5a5"></rect><rect x="150" y="92.73691654879775" width="0" height="12.55848112283756" fill="#ffc000"></rect><rect x="150" y="105.95637036231096" width="0.7916394608662056" height="12.55848112283756" fill="#5b9bd5"></rect><text class="label" x="439.68570772321846" y="61.57855510825809" font-size="10px">355x</text><text class="label" x="175.6881343440569" y="74.7980089217713" font-size="10px">22x</text><text class="label" x="223.75911533671598" y="88.01746273528452" font-size="10px">82x</text><text class="label" x="158.5" y="101.23691654879775" font-size="10px"></text><text class="label" x="159.2916394608662" y="114.45637036231096" font-size="10px">1x</text><text class="label" x="436.18570772321846" y="63.07855510825809" font-size="8px"></text><text class="label" x="172.1881343440569" y="76.2980089217713" font-size="8px"></text><text class="label" x="220.25911533671598" y="89.51746273528452" font-size="8px"></text><text class="label" x="155" y="102.73691654879775" font-size="8px">Failed</text><text class="label" x="155.7916394608662" y="115.95637036231096" font-size="8px"></text></g><g style="font-size: 13px;"><rect x="150" y="127.25437928408226" width="440.9090909090908" height="12.55848112283756" fill="#4472c4"></rect><rect x="150" y="140.4738330975955" width="12.211190596555046" height="12.55848112283756" fill="#ed7d31"></rect><rect x="150" y="153.69328691110871" width="48.28970826819495" height="12.55848112283756" fill="#a5a5a5"></rect><rect x="150" y="166.91274072462193" width="6.126409827703468" height="12.55848112283756" fill="#ffc000"></rect><rect x="150" y="180.13219453813514" width="0.7916394608662056" height="12.55848112283756" fill="#5b9bd5"></rect><text class="label" x="599.4090909090908" y="135.75437928408226" font-size="10px">557x</text><text class="label" x="170.71119059655504" y="148.9738330975955" font-size="10px">15x</text><text class="label" x="206.78970826819494" y="162.19328691110871" font-size="10px">61x</text><text class="label" x="164.62640982770347" y="175.41274072462193" font-size="10px">8x</text><text class="label" x="159.2916394608662" y="188.63219453813514" font-size="10px">1x</text><text class="label" x="595.9090909090908" y="137.25437928408226" font-size="8px"></text><text class="label" x="167.21119059655504" y="150.4738330975955" font-size="8px"></text><text class="label" x="203.28970826819494" y="163.69328691110871" font-size="8px"></text><text class="label" x="161.12640982770347" y="176.91274072462193" font-size="8px"></text><text class="label" x="155.7916394608662" y="190.13219453813514" font-size="8px"></text></g><g style="font-size: 13px;"><rect x="150" y="201.43020345990644" width="48.42439488773513" height="12.55848112283756" fill="#4472c4"></rect><rect x="150" y="214.64965727341965" width="0" height="12.55848112283756" fill="#ed7d31"></rect><rect x="150" y="227.8691110869329" width="0" height="12.55848112283756" fill="#a5a5a5"></rect><rect x="150" y="241.0885649004461" width="0" height="12.55848112283756" fill="#ffc000"></rect><rect x="150" y="254.3080187139593" width="0.7916394608662056" height="12.55848112283756" fill="#5b9bd5"></rect><text class="label" x="206.92439488773513" y="209.93020345990644" font-size="10px">61x</text><text class="label" x="158.5" y="223.14965727341965" font-size="10px"></text><text class="label" x="158.5" y="236.3691110869329" font-size="10px"></text><text class="label" x="158.5" y="249.5885649004461" font-size="10px"></text><text class="label" x="159.2916394608662" y="262.8080187139593" font-size="10px">1x</text><text class="label" x="203.42439488773513" y="211.43020345990644" font-size="8px"></text><text class="label" x="155" y="224.64965727341965" font-size="8px">Failed</text><text class="label" x="155" y="237.8691110869329" font-size="8px">Failed</text><text class="label" x="155" y="251.0885649004461" font-size="8px">Failed</text><text class="label" x="155.7916394608662" y="264.3080187139593" font-size="8px"></text></g><g style="font-size: 13px;"><rect x="150" y="275.6060276357306" width="126.28942237097226" height="12.55848112283756" fill="#4472c4"></rect><rect x="150" y="288.82548144924385" width="2.830870993615046" height="12.55848112283756" fill="#ed7d31"></rect><rect x="150" y="302.04493526275706" width="23.434053810800737" height="12.55848112283756" fill="#a5a5a5"></rect><rect x="150" y="315.2643890762703" width="0.7916394608662056" height="12.55848112283756" fill="#ffc000"></rect><rect x="150" y="328.4838428897835" width="2.0205515062331143" height="12.55848112283756" fill="#5b9bd5"></rect><text class="label" x="284.78942237097226" y="284.1060276357306" font-size="10px">160x</text><text class="label" x="161.33087099361504" y="297.32548144924385" font-size="10px">4x</text><text class="label" x="181.93405381080075" y="310.54493526275706" font-size="10px">30x</text><text class="label" x="159.2916394608662" y="323.7643890762703" font-size="10px">1x</text><text class="label" x="160.52055150623312" y="336.9838428897835" font-size="10px">3x</text><text class="label" x="281.28942237097226" y="285.6060276357306" font-size="8px"></text><text class="label" x="157.83087099361504" y="298.82548144924385" font-size="8px"></text><text class="label" x="178.43405381080075" y="312.04493526275706" font-size="8px"></text><text class="label" x="155.7916394608662" y="325.2643890762703" font-size="8px"></text><text class="label" x="157.02055150623312" y="338.4838428897835" font-size="8px"></text></g><g style="font-size: 13px;"><rect x="150" y="349.7818518115548" width="485" height="12.55848112283756" fill="#4472c4"></rect><rect x="150" y="363.001305625068" width="0" height="12.55848112283756" fill="#ed7d31"></rect><rect x="150" y="376.22075943858124" width="0" height="12.55848112283756" fill="#a5a5a5"></rect><rect x="150" y="389.44021325209445" width="0" height="12.55848112283756" fill="#ffc000"></rect><rect x="150" y="402.65966706560766" width="0" height="12.55848112283756" fill="#5b9bd5"></rect><text class="label" x="643.5" y="358.2818518115548" font-size="10px">Infinity</text><text class="label" x="158.5" y="371.501305625068" font-size="10px"></text><text class="label" x="158.5" y="384.72075943858124" font-size="10px"></text><text class="label" x="158.5" y="397.94021325209445" font-size="10px"></text><text class="label" x="158.5" y="411.15966706560766" font-size="10px"></text><text class="label" x="640" y="359.7818518115548" font-size="8px"></text><text class="label" x="155" y="373.001305625068" font-size="8px">Failed</text><text class="label" x="155" y="386.22075943858124" font-size="8px">Failed</text><text class="label" x="155" y="399.44021325209445" font-size="8px">Failed</text><text class="label" x="155" y="412.65966706560766" font-size="8px">Failed</text></g><g style="font-size: 13px;"><rect x="150" y="423.95767598737893" width="155.0836363826913" height="12.55848112283756" fill="#4472c4"></rect><rect x="150" y="437.1771298008922" width="2.7739831281290948" height="12.55848112283756" fill="#ed7d31"></rect><rect x="150" y="450.3965836144054" width="12.655849696407962" height="12.55848112283756" fill="#a5a5a5"></rect><rect x="150" y="463.6160374279186" width="1.2462263373956948" height="12.55848112283756" fill="#ffc000"></rect><rect x="150" y="476.83549124143184" width="0.7916394608662056" height="12.55848112283756" fill="#5b9bd5"></rect><text class="label" x="313.58363638269134" y="432.45767598737893" font-size="10px">196x</text><text class="label" x="161.2739831281291" y="445.6771298008922" font-size="10px">4x</text><text class="label" x="171.15584969640796" y="458.8965836144054" font-size="10px">16x</text><text class="label" x="159.74622633739568" y="472.1160374279186" font-size="10px">2x</text><text class="label" x="159.2916394608662" y="485.33549124143184" font-size="10px">1x</text><text class="label" x="310.08363638269134" y="433.95767598737893" font-size="8px"></text><text class="label" x="157.7739831281291" y="447.1771298008922" font-size="8px"></text><text class="label" x="167.65584969640796" y="460.3965836144054" font-size="8px"></text><text class="label" x="156.24622633739568" y="473.6160374279186" font-size="8px"></text><text class="label" x="155.7916394608662" y="486.83549124143184" font-size="8px"></text></g><g style="font-size: 13px;"><rect x="150" y="498.13350016320317" width="31.66412160825724" height="12.55848112283756" fill="#4472c4"></rect><rect x="150" y="511.3529539767164" width="1.2277048649252216" height="12.55848112283756" fill="#ed7d31"></rect><rect x="150" y="524.5724077902296" width="4.9855222548140485" height="12.55848112283756" fill="#a5a5a5"></rect><rect x="150" y="537.7918616037427" width="0.7916394608662056" height="12.55848112283756" fill="#ffc000"></rect><rect x="150" y="551.011315417256" width="2.4597975242211554" height="12.55848112283756" fill="#5b9bd5"></rect><text class="label" x="190.16412160825723" y="506.63350016320317" font-size="10px">40x</text><text class="label" x="159.72770486492522" y="519.8529539767164" font-size="10px">2x</text><text class="label" x="163.48552225481404" y="533.0724077902296" font-size="10px">6x</text><text class="label" x="159.2916394608662" y="546.2918616037427" font-size="10px">1x</text><text class="label" x="160.95979752422116" y="559.511315417256" font-size="10px">3x</text><text class="label" x="186.66412160825723" y="508.13350016320317" font-size="8px"></text><text class="label" x="156.22770486492522" y="521.3529539767164" font-size="8px"></text><text class="label" x="159.98552225481404" y="534.5724077902296" font-size="8px"></text><text class="label" x="155.7916394608662" y="547.7918616037427" font-size="8px"></text><text class="label" x="157.45979752422116" y="561.011315417256" font-size="8px"></text></g><g style="font-size: 13px;"><rect x="150" y="572.3093243390274" width="485" height="12.55848112283756" fill="#4472c4"></rect><rect x="150" y="585.5287781525407" width="0" height="12.55848112283756" fill="#ed7d31"></rect><rect x="150" y="598.7482319660538" width="0" height="12.55848112283756" fill="#a5a5a5"></rect><rect x="150" y="611.9676857795671" width="0" height="12.55848112283756" fill="#ffc000"></rect><rect x="150" y="625.1871395930804" width="0" height="12.55848112283756" fill="#5b9bd5"></rect><text class="label" x="643.5" y="580.8093243390274" font-size="10px">Infinity</text><text class="label" x="158.5" y="594.0287781525407" font-size="10px"></text><text class="label" x="158.5" y="607.2482319660538" font-size="10px"></text><text class="label" x="158.5" y="620.4676857795671" font-size="10px"></text><text class="label" x="158.5" y="633.6871395930804" font-size="10px"></text><text class="label" x="640" y="582.3093243390274" font-size="8px"></text><text class="label" x="155" y="595.5287781525407" font-size="8px">Failed</text><text class="label" x="155" y="608.7482319660538" font-size="8px">Failed</text><text class="label" x="155" y="621.9676857795671" font-size="8px">Failed</text><text class="label" x="155" y="635.1871395930804" font-size="8px">Failed</text></g><g style="font-size: 13px;"><rect x="150" y="646.4851485148515" width="485" height="12.55848112283756" fill="#4472c4"></rect><rect x="150" y="659.7046023283648" width="0" height="12.55848112283756" fill="#ed7d31"></rect><rect x="150" y="672.9240561418779" width="0" height="12.55848112283756" fill="#a5a5a5"></rect><rect x="150" y="686.1435099553912" width="0" height="12.55848112283756" fill="#ffc000"></rect><rect x="150" y="699.3629637689045" width="0" height="12.55848112283756" fill="#5b9bd5"></rect><text class="label" x="643.5" y="654.9851485148515" font-size="10px">Infinity</text><text class="label" x="158.5" y="668.2046023283648" font-size="10px"></text><text class="label" x="158.5" y="681.4240561418779" font-size="10px"></text><text class="label" x="158.5" y="694.6435099553912" font-size="10px"></text><text class="label" x="158.5" y="707.8629637689045" font-size="10px"></text><text class="label" x="640" y="656.4851485148515" font-size="8px"></text><text class="label" x="155" y="669.7046023283648" font-size="8px">Failed</text><text class="label" x="155" y="682.9240561418779" font-size="8px">Failed</text><text class="label" x="155" y="696.1435099553912" font-size="8px">Failed</text><text class="label" x="155" y="709.3629637689045" font-size="8px">Failed</text></g></g></svg>