<svg xmlns="http://www.w3.org/2000/svg" xmlns:xlink="http://www.w3.org/1999/xlink" width="800" height="869" style="background-color: white;"><g class="y axis" transform="translate(149,45)" fill="none" font-size="10" font-family="sans-serif" text-anchor="end" style="font-size: 13px;"><path class="domain" stroke="currentColor" d="M0.5,0.5V675.5"></path><g class="tick" opacity="1" transform="translate(0,40.796703296703306)" style="font-size: 13px;"><line stroke="currentColor" x2="0"></line><text fill="currentColor" x="-3" dy="0.32em">object (simple)    </text></g><g class="tick" opacity="1" transform="translate(0,114.97252747252747)" style="font-size: 13px;"><line stroke="currentColor" x2="0"></line><text fill="currentColor" x="-3" dy="0.32em">object (hierarchical)    </text></g><g class="tick" opacity="1" transform="translate(0,189.14835164835165)" style="font-size: 13px;"><line stroke="currentColor" x2="0"></line><text fill="currentColor" x="-3" dy="0.32em">object (recursive)    </text></g><g class="tick" opacity="1" transform="translate(0,263.3241758241758)" style="font-size: 13px;"><line stroke="currentColor" x2="0"></line><text fill="currentColor" x="-3" dy="0.32em">object (union, explicit)    </text></g><g class="tick" opacity="1" transform="translate(0,337.5)" style="font-size: 13px;"><line stroke="currentColor" x2="0"></line><text fill="currentColor" x="-3" dy="0.32em">object (union, implicit)    </text></g><g class="tick" opacity="1" transform="translate(0,411.6758241758242)" style="font-size: 13px;"><line stroke="currentColor" x2="0"></line><text fill="currentColor" x="-3" dy="0.32em">array (recursive)    </text></g><g class="tick" opacity="1" transform="translate(0,485.85164835164835)" style="font-size: 13px;"><line stroke="currentColor" x2="0"></line><text fill="currentColor" x="-3" dy="0.32em">array (union, explicit)    </text></g><g class="tick" opacity="1" transform="translate(0,560.0274725274727)" style="font-size: 13px;"><line stroke="currentColor" x2="0"></line><text fill="currentColor" x="-3" dy="0.32em">array (union, implicit)    </text></g><g class="tick" opacity="1" transform="translate(0,634.2032967032968)" style="font-size: 13px;"><line stroke="currentColor" x2="0"></line><text fill="currentColor" x="-3" dy="0.32em">ultimate union    </text></g></g><g class="x axis" transform="translate(149,720)" fill="none" font-size="10" font-family="sans-serif" text-anchor="middle" style="font-size: 13px;"><path class="domain" stroke="currentColor" d="M0.5,0.5H485.5"></path><g class="tick" opacity="1" transform="translate(0.5,0)" style="font-size: 13px;"><line stroke="currentColor" y2="6"></line><text fill="currentColor" y="9" dy="0.71em">0x</text></g><g class="tick" opacity="1" transform="translate(133.02227616332073,0)" style="font-size: 13px;"><line stroke="currentColor" y2="6"></line><text fill="currentColor" y="9" dy="0.71em">200x</text></g><g class="tick" opacity="1" transform="translate(265.54455232664145,0)" style="font-size: 13px;"><line stroke="currentColor" y2="6"></line><text fill="currentColor" y="9" dy="0.71em">400x</text></g><g class="tick" opacity="1" transform="translate(398.0668284899622,0)" style="font-size: 13px;"><line stroke="currentColor" y2="6"></line><text fill="currentColor" y="9" dy="0.71em">600x</text></g></g><text transform="translate(400, 30)" style="text-anchor: middle; font-size: 20px; font-weight: bold;">assert-error benchmark</text><rect x="650" y="145" width="230" height="5" fill="gray"></rect><rect x="645" y="35" width="230" height="110" fill="none" stroke="black"></rect><rect x="655" y="45" width="10" height="10" style="fill: #4472c4;"></rect><text x="670" y="55" style="font-size: 12px;">typia</text><rect x="655" y="65" width="10" height="10" style="fill: #ed7d31;"></rect><text x="670" y="75" style="font-size: 12px;">typebox</text><rect x="655" y="85" width="10" height="10" style="fill: #a5a5a5;"></rect><text x="670" y="95" style="font-size: 12px;">io-ts</text><rect x="655" y="105" width="10" height="10" style="fill: #ffc000;"></rect><text x="670" y="115" style="font-size: 12px;">zod</text><rect x="655" y="125" width="10" height="10" style="fill: #5b9bd5;"></rect><text x="670" y="135" style="font-size: 12px;">class-validator</text><text x="20" y="784" style="font-size: 12px;">  - CPU: 11th Gen Intel(R) Core(TM) i5-1135G7 @ 2.40GHz</text><text x="20" y="801" style="font-size: 12px;">  - OS: win32</text><text x="20" y="818" style="font-size: 12px;">  - RAM: 16 GB</text><text x="20" y="835" style="font-size: 12px;">  - NodeJS version: v16.20.0</text><text x="20" y="852" style="font-size: 12px;">  - Typia version: v4.1.1</text><g style="font-size: 13px;"><g style="font-size: 13px;"><rect x="150" y="53.07855510825809" width="87.97074822898614" height="12.55848112283756" fill="#4472c4"></rect><rect x="150" y="66.2980089217713" width="4.972197783324811" height="12.55848112283756" fill="#ed7d31"></rect><rect x="150" y="79.51746273528452" width="24.970849395167946" height="12.55848112283756" fill="#a5a5a5"></rect><rect x="150" y="92.73691654879775" width="10.925604481216203" height="12.55848112283756" fill="#ffc000"></rect><rect x="150" y="105.95637036231096" width="0.6626113808166038" height="12.55848112283756" fill="#5b9bd5"></rect><text class="label" x="246.47074822898614" y="61.57855510825809" font-size="10px">133x</text><text class="label" x="163.47219778332482" y="74.7980089217713" font-size="10px">8x</text><text class="label" x="183.47084939516793" y="88.01746273528452" font-size="10px">38x</text><text class="label" x="169.4256044812162" y="101.23691654879775" font-size="10px">16x</text><text class="label" x="159.1626113808166" y="114.45637036231096" font-size="10px">1x</text><text class="label" x="242.97074822898614" y="63.07855510825809" font-size="8px"></text><text class="label" x="159.97219778332482" y="76.2980089217713" font-size="8px"></text><text class="label" x="179.97084939516793" y="89.51746273528452" font-size="8px"></text><text class="label" x="165.9256044812162" y="102.73691654879775" font-size="8px"></text><text class="label" x="155.6626113808166" y="115.95637036231096" font-size="8px"></text></g><g style="font-size: 13px;"><rect x="150" y="127.25437928408226" width="196.76180233082806" height="12.55848112283756" fill="#4472c4"></rect><rect x="150" y="140.4738330975955" width="5.3820271294662545" height="12.55848112283756" fill="#ed7d31"></rect><rect x="150" y="153.69328691110871" width="18.543053005917823" height="12.55848112283756" fill="#a5a5a5"></rect><rect x="150" y="166.91274072462193" width="3.523278098586393" height="12.55848112283756" fill="#ffc000"></rect><rect x="150" y="180.13219453813514" width="0.6626113808166038" height="12.55848112283756" fill="#5b9bd5"></rect><text class="label" x="355.26180233082806" y="135.75437928408226" font-size="10px">297x</text><text class="label" x="163.88202712946625" y="148.9738330975955" font-size="10px">8x</text><text class="label" x="177.0430530059178" y="162.19328691110871" font-size="10px">28x</text><text class="label" x="162.0232780985864" y="175.41274072462193" font-size="10px">5x</text><text class="label" x="159.1626113808166" y="188.63219453813514" font-size="10px">1x</text><text class="label" x="351.76180233082806" y="137.25437928408226" font-size="8px"></text><text class="label" x="160.38202712946625" y="150.4738330975955" font-size="8px"></text><text class="label" x="173.5430530059178" y="163.69328691110871" font-size="8px"></text><text class="label" x="158.5232780985864" y="176.91274072462193" font-size="8px"></text><text class="label" x="155.6626113808166" y="190.13219453813514" font-size="8px"></text></g><g style="font-size: 13px;"><rect x="150" y="201.43020345990644" width="192.78741659971337" height="12.55848112283756" fill="#4472c4"></rect><rect x="150" y="214.64965727341965" width="4.4596928565161855" height="12.55848112283756" fill="#ed7d31"></rect><rect x="150" y="227.8691110869329" width="15.838323579173757" height="12.55848112283756" fill="#a5a5a5"></rect><rect x="150" y="241.0885649004461" width="0.7689656298410774" height="12.55848112283756" fill="#ffc000"></rect><rect x="150" y="254.3080187139593" width="0.6626113808166038" height="12.55848112283756" fill="#5b9bd5"></rect><text class="label" x="351.28741659971337" y="209.93020345990644" font-size="10px">291x</text><text class="label" x="162.9596928565162" y="223.14965727341965" font-size="10px">7x</text><text class="label" x="174.33832357917376" y="236.3691110869329" font-size="10px">24x</text><text class="label" x="159.2689656298411" y="249.5885649004461" font-size="10px">1x</text><text class="label" x="159.1626113808166" y="262.8080187139593" font-size="10px">1x</text><text class="label" x="347.78741659971337" y="211.43020345990644" font-size="8px"></text><text class="label" x="159.4596928565162" y="224.64965727341965" font-size="8px"></text><text class="label" x="170.83832357917376" y="237.8691110869329" font-size="8px"></text><text class="label" x="155.7689656298411" y="251.0885649004461" font-size="8px"></text><text class="label" x="155.6626113808166" y="264.3080187139593" font-size="8px"></text></g><g style="font-size: 13px;"><rect x="150" y="275.6060276357306" width="86.5801363208881" height="12.55848112283756" fill="#4472c4"></rect><rect x="150" y="288.82548144924385" width="3.1421195170796907" height="12.55848112283756" fill="#ed7d31"></rect><rect x="150" y="302.04493526275706" width="16.951213994599502" height="12.55848112283756" fill="#a5a5a5"></rect><rect x="150" y="315.2643890762703" width="0.6626113808166038" height="12.55848112283756" fill="#ffc000"></rect><rect x="150" y="328.4838428897835" width="0" height="12.55848112283756" fill="#5b9bd5"></rect><text class="label" x="245.0801363208881" y="284.1060276357306" font-size="10px">131x</text><text class="label" x="161.6421195170797" y="297.32548144924385" font-size="10px">5x</text><text class="label" x="175.4512139945995" y="310.54493526275706" font-size="10px">26x</text><text class="label" x="159.1626113808166" y="323.7643890762703" font-size="10px">1x</text><text class="label" x="158.5" y="336.9838428897835" font-size="10px"></text><text class="label" x="241.5801363208881" y="285.6060276357306" font-size="8px"></text><text class="label" x="158.1421195170797" y="298.82548144924385" font-size="8px"></text><text class="label" x="171.9512139945995" y="312.04493526275706" font-size="8px"></text><text class="label" x="155.6626113808166" y="325.2643890762703" font-size="8px"></text><text class="label" x="155" y="338.4838428897835" font-size="8px">Failed</text></g><g style="font-size: 13px;"><rect x="150" y="349.7818518115548" width="485" height="12.55848112283756" fill="#4472c4"></rect><rect x="150" y="363.001305625068" width="0" height="12.55848112283756" fill="#ed7d31"></rect><rect x="150" y="376.22075943858124" width="0" height="12.55848112283756" fill="#a5a5a5"></rect><rect x="150" y="389.44021325209445" width="0" height="12.55848112283756" fill="#ffc000"></rect><rect x="150" y="402.65966706560766" width="0" height="12.55848112283756" fill="#5b9bd5"></rect><text class="label" x="643.5" y="358.2818518115548" font-size="10px">Infinity</text><text class="label" x="158.5" y="371.501305625068" font-size="10px"></text><text class="label" x="158.5" y="384.72075943858124" font-size="10px"></text><text class="label" x="158.5" y="397.94021325209445" font-size="10px"></text><text class="label" x="158.5" y="411.15966706560766" font-size="10px"></text><text class="label" x="640" y="359.7818518115548" font-size="8px"></text><text class="label" x="155" y="373.001305625068" font-size="8px">Failed</text><text class="label" x="155" y="386.22075943858124" font-size="8px">Failed</text><text class="label" x="155" y="399.44021325209445" font-size="8px">Failed</text><text class="label" x="155" y="412.65966706560766" font-size="8px">Failed</text></g><g style="font-size: 13px;"><rect x="150" y="423.95767598737893" width="195.33663275691973" height="12.55848112283756" fill="#4472c4"></rect><rect x="150" y="437.1771298008922" width="6.302666873729715" height="12.55848112283756" fill="#ed7d31"></rect><rect x="150" y="450.3965836144054" width="20.42607163423204" height="12.55848112283756" fill="#a5a5a5"></rect><rect x="150" y="463.6160374279186" width="1.2646898036297531" height="12.55848112283756" fill="#ffc000"></rect><rect x="150" y="476.83549124143184" width="0.6626113808166038" height="12.55848112283756" fill="#5b9bd5"></rect><text class="label" x="353.8366327569197" y="432.45767598737893" font-size="10px">295x</text><text class="label" x="164.80266687372972" y="445.6771298008922" font-size="10px">10x</text><text class="label" x="178.92607163423204" y="458.8965836144054" font-size="10px">31x</text><text class="label" x="159.76468980362975" y="472.1160374279186" font-size="10px">2x</text><text class="label" x="159.1626113808166" y="485.33549124143184" font-size="10px">1x</text><text class="label" x="350.3366327569197" y="433.95767598737893" font-size="8px"></text><text class="label" x="161.30266687372972" y="447.1771298008922" font-size="8px"></text><text class="label" x="175.42607163423204" y="460.3965836144054" font-size="8px"></text><text class="label" x="156.26468980362975" y="473.6160374279186" font-size="8px"></text><text class="label" x="155.6626113808166" y="486.83549124143184" font-size="8px"></text></g><g style="font-size: 13px;"><rect x="150" y="498.13350016320317" width="440.9090909090908" height="12.55848112283756" fill="#4472c4"></rect><rect x="150" y="511.3529539767164" width="5.408936446688394" height="12.55848112283756" fill="#ed7d31"></rect><rect x="150" y="524.5724077902296" width="22.82983359484459" height="12.55848112283756" fill="#a5a5a5"></rect><rect x="150" y="537.7918616037427" width="0.6626113808166038" height="12.55848112283756" fill="#ffc000"></rect><rect x="150" y="551.011315417256" width="0" height="12.55848112283756" fill="#5b9bd5"></rect><text class="label" x="599.4090909090908" y="506.63350016320317" font-size="10px">665x</text><text class="label" x="163.9089364466884" y="519.8529539767164" font-size="10px">8x</text><text class="label" x="181.3298335948446" y="533.0724077902296" font-size="10px">34x</text><text class="label" x="159.1626113808166" y="546.2918616037427" font-size="10px">1x</text><text class="label" x="158.5" y="559.511315417256" font-size="10px"></text><text class="label" x="595.9090909090908" y="508.13350016320317" font-size="8px"></text><text class="label" x="160.4089364466884" y="521.3529539767164" font-size="8px"></text><text class="label" x="177.8298335948446" y="534.5724077902296" font-size="8px"></text><text class="label" x="155.6626113808166" y="547.7918616037427" font-size="8px"></text><text class="label" x="155" y="561.011315417256" font-size="8px">Failed</text></g><g style="font-size: 13px;"><rect x="150" y="572.3093243390274" width="485" height="12.55848112283756" fill="#4472c4"></rect><rect x="150" y="585.5287781525407" width="0" height="12.55848112283756" fill="#ed7d31"></rect><rect x="150" y="598.7482319660538" width="0" height="12.55848112283756" fill="#a5a5a5"></rect><rect x="150" y="611.9676857795671" width="0" height="12.55848112283756" fill="#ffc000"></rect><rect x="150" y="625.1871395930804" width="0" height="12.55848112283756" fill="#5b9bd5"></rect><text class="label" x="643.5" y="580.8093243390274" font-size="10px">Infinity</text><text class="label" x="158.5" y="594.0287781525407" font-size="10px"></text><text class="label" x="158.5" y="607.2482319660538" font-size="10px"></text><text class="label" x="158.5" y="620.4676857795671" font-size="10px"></text><text class="label" x="158.5" y="633.6871395930804" font-size="10px"></text><text class="label" x="640" y="582.3093243390274" font-size="8px"></text><text class="label" x="155" y="595.5287781525407" font-size="8px">Failed</text><text class="label" x="155" y="608.7482319660538" font-size="8px">Failed</text><text class="label" x="155" y="621.9676857795671" font-size="8px">Failed</text><text class="label" x="155" y="635.1871395930804" font-size="8px">Failed</text></g><g style="font-size: 13px;"><rect x="150" y="646.4851485148515" width="485" height="12.55848112283756" fill="#4472c4"></rect><rect x="150" y="659.7046023283648" width="0" height="12.55848112283756" fill="#ed7d31"></rect><rect x="150" y="672.9240561418779" width="0" height="12.55848112283756" fill="#a5a5a5"></rect><rect x="150" y="686.1435099553912" width="0" height="12.55848112283756" fill="#ffc000"></rect><rect x="150" y="699.3629637689045" width="0" height="12.55848112283756" fill="#5b9bd5"></rect><text class="label" x="643.5" y="654.9851485148515" font-size="10px">Infinity</text><text class="label" x="158.5" y="668.2046023283648" font-size="10px"></text><text class="label" x="158.5" y="681.4240561418779" font-size="10px"></text><text class="label" x="158.5" y="694.6435099553912" font-size="10px"></text><text class="label" x="158.5" y="707.8629637689045" font-size="10px"></text><text class="label" x="640" y="656.4851485148515" font-size="8px"></text><text class="label" x="155" y="669.7046023283648" font-size="8px">Failed</text><text class="label" x="155" y="682.9240561418779" font-size="8px">Failed</text><text class="label" x="155" y="696.1435099553912" font-size="8px">Failed</text><text class="label" x="155" y="709.3629637689045" font-size="8px">Failed</text></g></g></svg>