<svg xmlns="http://www.w3.org/2000/svg" xmlns:xlink="http://www.w3.org/1999/xlink" width="800" height="345" style="background-color: white;"><g class="y axis" transform="translate(149,45)" fill="none" font-size="10" font-family="sans-serif" text-anchor="end" style="font-size: 13px;"><path class="domain" stroke="#000" d="M0,0.5H0.5V270.5H0"></path><g class="tick" opacity="1" transform="translate(0,16.318681318681314)" style="font-size: 13px;"><line stroke="#000" x2="0"></line><text fill="#000" x="-3" dy="0.32em">object (simple)    </text></g><g class="tick" opacity="1" transform="translate(0,45.989010989010985)" style="font-size: 13px;"><line stroke="#000" x2="0"></line><text fill="#000" x="-3" dy="0.32em">object (hierarchical)    </text></g><g class="tick" opacity="1" transform="translate(0,75.65934065934066)" style="font-size: 13px;"><line stroke="#000" x2="0"></line><text fill="#000" x="-3" dy="0.32em">object (recursive)    </text></g><g class="tick" opacity="1" transform="translate(0,105.32967032967034)" style="font-size: 13px;"><line stroke="#000" x2="0"></line><text fill="#000" x="-3" dy="0.32em">object (union, explicit)    </text></g><g class="tick" opacity="1" transform="translate(0,135)" style="font-size: 13px;"><line stroke="#000" x2="0"></line><text fill="#000" x="-3" dy="0.32em">object (union, implicit)    </text></g><g class="tick" opacity="1" transform="translate(0,164.67032967032966)" style="font-size: 13px;"><line stroke="#000" x2="0"></line><text fill="#000" x="-3" dy="0.32em">array (recursive)    </text></g><g class="tick" opacity="1" transform="translate(0,194.34065934065936)" style="font-size: 13px;"><line stroke="#000" x2="0"></line><text fill="#000" x="-3" dy="0.32em">array (union, explicit)    </text></g><g class="tick" opacity="1" transform="translate(0,224.01098901098902)" style="font-size: 13px;"><line stroke="#000" x2="0"></line><text fill="#000" x="-3" dy="0.32em">array (union, implicit)    </text></g><g class="tick" opacity="1" transform="translate(0,253.6813186813187)" style="font-size: 13px;"><line stroke="#000" x2="0"></line><text fill="#000" x="-3" dy="0.32em">ultimate union    </text></g></g><g class="x axis" transform="translate(149,315)" fill="none" font-size="10" font-family="sans-serif" text-anchor="middle" style="font-size: 13px;"><path class="domain" stroke="#000" d="M0.5,0V0.5H485.5V0"></path><g class="tick" opacity="1" transform="translate(0.5,0)" style="font-size: 13px;"><line stroke="#000" y2="6"></line><text fill="#000" y="9" dy="0.71em">0x</text></g><g class="tick" opacity="1" transform="translate(96.57999772177797,0)" style="font-size: 13px;"><line stroke="#000" y2="6"></line><text fill="#000" y="9" dy="0.71em">5x</text></g><g class="tick" opacity="1" transform="translate(192.65999544355594,0)" style="font-size: 13px;"><line stroke="#000" y2="6"></line><text fill="#000" y="9" dy="0.71em">10x</text></g><g class="tick" opacity="1" transform="translate(288.73999316533394,0)" style="font-size: 13px;"><line stroke="#000" y2="6"></line><text fill="#000" y="9" dy="0.71em">15x</text></g><g class="tick" opacity="1" transform="translate(384.8199908871119,0)" style="font-size: 13px;"><line stroke="#000" y2="6"></line><text fill="#000" y="9" dy="0.71em">20x</text></g><g class="tick" opacity="1" transform="translate(480.8999886088899,0)" style="font-size: 13px;"><line stroke="#000" y2="6"></line><text fill="#000" y="9" dy="0.71em">25x</text></g></g><text transform="translate(400, 30)" style="text-anchor: middle; font-size: 20px; font-weight: bold;">assertEquals (throw) benchmark</text><rect x="680" y="85" width="200" height="5" fill="gray"></rect><rect x="675" y="35" width="200" height="50" fill="none" stroke="black"></rect><rect x="685" y="45" width="10" height="10" style="fill: #4472c4;"></rect><text x="700" y="55" style="font-size: 12px;">typescript-json</text><rect x="685" y="65" width="10" height="10" style="fill: #ed7d31;"></rect><text x="700" y="75" style="font-size: 12px;">typebox</text><g style="font-size: 13px;"><g style="font-size: 13px;"><rect x="150" y="48.618332886625566" width="128.74232751429196" height="12.37469847225945" fill="#4472c4"></rect><rect x="150" y="61.644331278477615" width="19.215999544355594" height="12.37469847225945" fill="#ed7d31"></rect><text class="label" x="287.24232751429196" y="57.118332886625566" font-size="10px">6.7x</text><text class="label" x="177.71599954435558" y="70.14433127847761" font-size="10px">1x</text><text class="label" x="283.74232751429196" y="58.618332886625566" font-size="8px"></text><text class="label" x="174.21599954435558" y="71.64433127847761" font-size="8px"></text></g><g style="font-size: 13px;"><rect x="150" y="78.28866255695525" width="193.6994957803112" height="12.37469847225945" fill="#4472c4"></rect><rect x="150" y="91.31466094880729" width="19.215999544355594" height="12.37469847225945" fill="#ed7d31"></rect><text class="label" x="352.19949578031117" y="86.78866255695525" font-size="10px">10.08x</text><text class="label" x="177.71599954435558" y="99.81466094880729" font-size="10px">1x</text><text class="label" x="348.69949578031117" y="88.28866255695525" font-size="8px"></text><text class="label" x="174.21599954435558" y="101.31466094880729" font-size="8px"></text></g><g style="font-size: 13px;"><rect x="150" y="107.95899222728491" width="366.1124906096232" height="12.37469847225945" fill="#4472c4"></rect><rect x="150" y="120.98499061913697" width="19.215999544355594" height="12.37469847225945" fill="#ed7d31"></rect><text class="label" x="524.6124906096231" y="116.45899222728491" font-size="10px">19.05x</text><text class="label" x="177.71599954435558" y="129.48499061913697" font-size="10px">1x</text><text class="label" x="521.1124906096231" y="117.95899222728491" font-size="8px"></text><text class="label" x="174.21599954435558" y="130.98499061913697" font-size="8px"></text></g><g style="font-size: 13px;"><rect x="150" y="137.6293218976146" width="414.5885496099517" height="12.37469847225945" fill="#4472c4"></rect><rect x="150" y="150.65532028946666" width="19.215999544355594" height="12.37469847225945" fill="#ed7d31"></rect><text class="label" x="573.0885496099518" y="146.1293218976146" font-size="10px">21.58x</text><text class="label" x="177.71599954435558" y="159.15532028946666" font-size="10px">1x</text><text class="label" x="569.5885496099518" y="147.6293218976146" font-size="8px"></text><text class="label" x="174.21599954435558" y="160.65532028946666" font-size="8px"></text></g><g style="font-size: 13px;"><rect x="150" y="167.29965156794424" width="440.9090909090909" height="12.37469847225945" fill="#4472c4"></rect><rect x="150" y="180.3256499597963" width="19.215999544355594" height="12.37469847225945" fill="#ed7d31"></rect><text class="label" x="599.4090909090909" y="175.79965156794424" font-size="10px">22.94x</text><text class="label" x="177.71599954435558" y="188.8256499597963" font-size="10px">1x</text><text class="label" x="595.9090909090909" y="177.29965156794424" font-size="8px"></text><text class="label" x="174.21599954435558" y="190.3256499597963" font-size="8px"></text></g><g style="font-size: 13px;"><rect x="150" y="196.9699812382739" width="306.1613103004626" height="12.37469847225945" fill="#4472c4"></rect><rect x="150" y="209.99597963012596" width="19.215999544355594" height="12.37469847225945" fill="#ed7d31"></rect><text class="label" x="464.6613103004626" y="205.4699812382739" font-size="10px">15.93x</text><text class="label" x="177.71599954435558" y="218.49597963012596" font-size="10px">1x</text><text class="label" x="461.1613103004626" y="206.9699812382739" font-size="8px"></text><text class="label" x="174.21599954435558" y="219.99597963012596" font-size="8px"></text></g><g style="font-size: 13px;"><rect x="150" y="226.6403109086036" width="241.2893407250797" height="12.37469847225945" fill="#4472c4"></rect><rect x="150" y="239.66630930045565" width="19.215999544355594" height="12.37469847225945" fill="#ed7d31"></rect><text class="label" x="399.7893407250797" y="235.1403109086036" font-size="10px">12.56x</text><text class="label" x="177.71599954435558" y="248.16630930045565" font-size="10px">1x</text><text class="label" x="396.2893407250797" y="236.6403109086036" font-size="8px"></text><text class="label" x="174.21599954435558" y="249.66630930045565" font-size="8px"></text></g><g style="font-size: 13px;"><rect x="150" y="256.31064057893326" width="137.13267974652015" height="12.37469847225945" fill="#4472c4"></rect><rect x="150" y="269.3366389707853" width="19.215999544355594" height="12.37469847225945" fill="#ed7d31"></rect><text class="label" x="295.6326797465201" y="264.81064057893326" font-size="10px">7.14x</text><text class="label" x="177.71599954435558" y="277.8366389707853" font-size="10px">1x</text><text class="label" x="292.1326797465201" y="266.31064057893326" font-size="8px"></text><text class="label" x="174.21599954435558" y="279.3366389707853" font-size="8px"></text></g><g style="font-size: 13px;"><rect x="150" y="285.9809702492629" width="312.57564695373026" height="12.37469847225945" fill="#4472c4"></rect><rect x="150" y="299.006968641115" width="19.215999544355594" height="12.37469847225945" fill="#ed7d31"></rect><text class="label" x="471.07564695373026" y="294.4809702492629" font-size="10px">16.27x</text><text class="label" x="177.71599954435558" y="307.506968641115" font-size="10px">1x</text><text class="label" x="467.57564695373026" y="295.9809702492629" font-size="8px"></text><text class="label" x="174.21599954435558" y="309.006968641115" font-size="8px"></text></g></g></svg>