<svg xmlns="http://www.w3.org/2000/svg" xmlns:xlink="http://www.w3.org/1999/xlink" width="800" height="345" style="background-color: white;"><g class="y axis" transform="translate(149,45)" fill="none" font-size="10" font-family="sans-serif" text-anchor="end" style="font-size: 13px;"><path class="domain" stroke="#000" d="M0,0.5H0.5V270.5H0"></path><g class="tick" opacity="1" transform="translate(0,16.318681318681314)" style="font-size: 13px;"><line stroke="#000" x2="0"></line><text fill="#000" x="-3" dy="0.32em">object (simple)    </text></g><g class="tick" opacity="1" transform="translate(0,45.989010989010985)" style="font-size: 13px;"><line stroke="#000" x2="0"></line><text fill="#000" x="-3" dy="0.32em">object (hierarchical)    </text></g><g class="tick" opacity="1" transform="translate(0,75.65934065934066)" style="font-size: 13px;"><line stroke="#000" x2="0"></line><text fill="#000" x="-3" dy="0.32em">object (recursive)    </text></g><g class="tick" opacity="1" transform="translate(0,105.32967032967034)" style="font-size: 13px;"><line stroke="#000" x2="0"></line><text fill="#000" x="-3" dy="0.32em">object (union, explicit)    </text></g><g class="tick" opacity="1" transform="translate(0,135)" style="font-size: 13px;"><line stroke="#000" x2="0"></line><text fill="#000" x="-3" dy="0.32em">object (union, implicit)    </text></g><g class="tick" opacity="1" transform="translate(0,164.67032967032966)" style="font-size: 13px;"><line stroke="#000" x2="0"></line><text fill="#000" x="-3" dy="0.32em">array (recursive)    </text></g><g class="tick" opacity="1" transform="translate(0,194.34065934065936)" style="font-size: 13px;"><line stroke="#000" x2="0"></line><text fill="#000" x="-3" dy="0.32em">array (union, explicit)    </text></g><g class="tick" opacity="1" transform="translate(0,224.01098901098902)" style="font-size: 13px;"><line stroke="#000" x2="0"></line><text fill="#000" x="-3" dy="0.32em">array (union, implicit)    </text></g><g class="tick" opacity="1" transform="translate(0,253.6813186813187)" style="font-size: 13px;"><line stroke="#000" x2="0"></line><text fill="#000" x="-3" dy="0.32em">ultimate union    </text></g></g><g class="x axis" transform="translate(149,315)" fill="none" font-size="10" font-family="sans-serif" text-anchor="middle" style="font-size: 13px;"><path class="domain" stroke="#000" d="M0.5,0V0.5H485.5V0"></path><g class="tick" opacity="1" transform="translate(0.5,0)" style="font-size: 13px;"><line stroke="#000" y2="6"></line><text fill="#000" y="9" dy="0.71em">0x</text></g><g class="tick" opacity="1" transform="translate(89.8566188896594,0)" style="font-size: 13px;"><line stroke="#000" y2="6"></line><text fill="#000" y="9" dy="0.71em">0.5x</text></g><g class="tick" opacity="1" transform="translate(179.2132377793188,0)" style="font-size: 13px;"><line stroke="#000" y2="6"></line><text fill="#000" y="9" dy="0.71em">1x</text></g><g class="tick" opacity="1" transform="translate(268.56985666897816,0)" style="font-size: 13px;"><line stroke="#000" y2="6"></line><text fill="#000" y="9" dy="0.71em">1.5x</text></g><g class="tick" opacity="1" transform="translate(357.9264755586376,0)" style="font-size: 13px;"><line stroke="#000" y2="6"></line><text fill="#000" y="9" dy="0.71em">2x</text></g><g class="tick" opacity="1" transform="translate(447.283094448297,0)" style="font-size: 13px;"><line stroke="#000" y2="6"></line><text fill="#000" y="9" dy="0.71em">2.5x</text></g></g><text transform="translate(400, 30)" style="text-anchor: middle; font-size: 20px; font-weight: bold;">equals benchmark</text><rect x="680" y="85" width="200" height="5" fill="gray"></rect><rect x="675" y="35" width="200" height="50" fill="none" stroke="black"></rect><rect x="685" y="45" width="10" height="10" style="fill: #4472c4;"></rect><text x="700" y="55" style="font-size: 12px;">typescript-json</text><rect x="685" y="65" width="10" height="10" style="fill: #ed7d31;"></rect><text x="700" y="75" style="font-size: 12px;">typebox</text><g style="font-size: 13px;"><g style="font-size: 13px;"><rect x="150" y="48.618332886625566" width="178.7132377793188" height="12.37469847225945" fill="#4472c4"></rect><rect x="150" y="61.644331278477615" width="440.9090909090908" height="12.37469847225945" fill="#ed7d31"></rect><text class="label" x="337.2132377793188" y="57.118332886625566" font-size="10px">1x</text><text class="label" x="599.4090909090908" y="70.14433127847761" font-size="10px">2.47x</text></g><g style="font-size: 13px;"><rect x="150" y="78.28866255695525" width="178.7132377793188" height="12.37469847225945" fill="#4472c4"></rect><rect x="150" y="91.31466094880729" width="371.16161744492257" height="12.37469847225945" fill="#ed7d31"></rect><text class="label" x="337.2132377793188" y="86.78866255695525" font-size="10px">1x</text><text class="label" x="529.6616174449225" y="99.81466094880729" font-size="10px">2.08x</text></g><g style="font-size: 13px;"><rect x="150" y="107.95899222728491" width="178.7132377793188" height="12.37469847225945" fill="#4472c4"></rect><rect x="150" y="120.98499061913697" width="280.34698181573657" height="12.37469847225945" fill="#ed7d31"></rect><text class="label" x="337.2132377793188" y="116.45899222728491" font-size="10px">1x</text><text class="label" x="438.84698181573657" y="129.48499061913697" font-size="10px">1.57x</text></g><g style="font-size: 13px;"><rect x="150" y="137.6293218976146" width="178.7132377793188" height="12.37469847225945" fill="#4472c4"></rect><rect x="150" y="150.65532028946666" width="212.3228469432767" height="12.37469847225945" fill="#ed7d31"></rect><text class="label" x="337.2132377793188" y="146.1293218976146" font-size="10px">1x</text><text class="label" x="370.82284694327666" y="159.15532028946666" font-size="10px">1.19x</text></g><g style="font-size: 13px;"><rect x="150" y="167.29965156794424" width="178.7132377793188" height="12.37469847225945" fill="#4472c4"></rect><rect x="150" y="180.3256499597963" width="217.17187354867198" height="12.37469847225945" fill="#ed7d31"></rect><text class="label" x="337.2132377793188" y="175.79965156794424" font-size="10px">1x</text><text class="label" x="375.671873548672" y="188.8256499597963" font-size="10px">1.22x</text></g><g style="font-size: 13px;"><rect x="150" y="196.9699812382739" width="178.7132377793188" height="12.37469847225945" fill="#4472c4"></rect><rect x="150" y="209.99597963012596" width="351.0648738464404" height="12.37469847225945" fill="#ed7d31"></rect><text class="label" x="337.2132377793188" y="205.4699812382739" font-size="10px">1x</text><text class="label" x="509.5648738464404" y="218.49597963012596" font-size="10px">1.96x</text></g><g style="font-size: 13px;"><rect x="150" y="226.6403109086036" width="197.77412635068873" height="12.37469847225945" fill="#4472c4"></rect><rect x="150" y="239.66630930045565" width="178.7132377793188" height="12.37469847225945" fill="#ed7d31"></rect><text class="label" x="356.27412635068873" y="235.1403109086036" font-size="10px">1.11x</text><text class="label" x="337.2132377793188" y="248.16630930045565" font-size="10px">1x</text></g><g style="font-size: 13px;"><rect x="150" y="256.31064057893326" width="178.7132377793188" height="12.37469847225945" fill="#4472c4"></rect><rect x="150" y="269.3366389707853" width="249.10685417092088" height="12.37469847225945" fill="#ed7d31"></rect><text class="label" x="337.2132377793188" y="264.81064057893326" font-size="10px">1x</text><text class="label" x="407.6068541709209" y="277.8366389707853" font-size="10px">1.39x</text></g><g style="font-size: 13px;"><rect x="150" y="285.9809702492629" width="280.5812877488374" height="12.37469847225945" fill="#4472c4"></rect><rect x="150" y="299.006968641115" width="178.7132377793188" height="12.37469847225945" fill="#ed7d31"></rect><text class="label" x="439.0812877488374" y="294.4809702492629" font-size="10px">1.57x</text><text class="label" x="337.2132377793188" y="307.506968641115" font-size="10px">1x</text></g></g></svg>