<svg xmlns="http://www.w3.org/2000/svg" xmlns:xlink="http://www.w3.org/1999/xlink" width="800" height="345" style="background-color: white;"><g class="y axis" transform="translate(149,45)" fill="none" font-size="10" font-family="sans-serif" text-anchor="end" style="font-size: 13px;"><path class="domain" stroke="#000" d="M0,0.5H0.5V270.5H0"></path><g class="tick" opacity="1" transform="translate(0,16.318681318681314)" style="font-size: 13px;"><line stroke="#000" x2="0"></line><text fill="#000" x="-3" dy="0.32em">object (simple)    </text></g><g class="tick" opacity="1" transform="translate(0,45.989010989010985)" style="font-size: 13px;"><line stroke="#000" x2="0"></line><text fill="#000" x="-3" dy="0.32em">object (hierarchical)    </text></g><g class="tick" opacity="1" transform="translate(0,75.65934065934066)" style="font-size: 13px;"><line stroke="#000" x2="0"></line><text fill="#000" x="-3" dy="0.32em">object (recursive)    </text></g><g class="tick" opacity="1" transform="translate(0,105.32967032967034)" style="font-size: 13px;"><line stroke="#000" x2="0"></line><text fill="#000" x="-3" dy="0.32em">object (union, explicit)    </text></g><g class="tick" opacity="1" transform="translate(0,135)" style="font-size: 13px;"><line stroke="#000" x2="0"></line><text fill="#000" x="-3" dy="0.32em">object (union, implicit)    </text></g><g class="tick" opacity="1" transform="translate(0,164.67032967032966)" style="font-size: 13px;"><line stroke="#000" x2="0"></line><text fill="#000" x="-3" dy="0.32em">array (recursive)    </text></g><g class="tick" opacity="1" transform="translate(0,194.34065934065936)" style="font-size: 13px;"><line stroke="#000" x2="0"></line><text fill="#000" x="-3" dy="0.32em">array (union, explicit)    </text></g><g class="tick" opacity="1" transform="translate(0,224.01098901098902)" style="font-size: 13px;"><line stroke="#000" x2="0"></line><text fill="#000" x="-3" dy="0.32em">array (union, implicit)    </text></g><g class="tick" opacity="1" transform="translate(0,253.6813186813187)" style="font-size: 13px;"><line stroke="#000" x2="0"></line><text fill="#000" x="-3" dy="0.32em">ultimate union    </text></g></g><g class="x axis" transform="translate(149,315)" fill="none" font-size="10" font-family="sans-serif" text-anchor="middle" style="font-size: 13px;"><path class="domain" stroke="#000" d="M0.5,0V0.5H485.5V0"></path><g class="tick" opacity="1" transform="translate(0.5,0)" style="font-size: 13px;"><line stroke="#000" y2="6"></line><text fill="#000" y="9" dy="0.71em">0x</text></g><g class="tick" opacity="1" transform="translate(92.29739776290297,0)" style="font-size: 13px;"><line stroke="#000" y2="6"></line><text fill="#000" y="9" dy="0.71em">0.5x</text></g><g class="tick" opacity="1" transform="translate(184.09479552580595,0)" style="font-size: 13px;"><line stroke="#000" y2="6"></line><text fill="#000" y="9" dy="0.71em">1x</text></g><g class="tick" opacity="1" transform="translate(275.89219328870894,0)" style="font-size: 13px;"><line stroke="#000" y2="6"></line><text fill="#000" y="9" dy="0.71em">1.5x</text></g><g class="tick" opacity="1" transform="translate(367.6895910516119,0)" style="font-size: 13px;"><line stroke="#000" y2="6"></line><text fill="#000" y="9" dy="0.71em">2x</text></g><g class="tick" opacity="1" transform="translate(459.48698881451486,0)" style="font-size: 13px;"><line stroke="#000" y2="6"></line><text fill="#000" y="9" dy="0.71em">2.5x</text></g></g><text transform="translate(400, 30)" style="text-anchor: middle; font-size: 20px; font-weight: bold;">equals benchmark</text><rect x="680" y="85" width="200" height="5" fill="gray"></rect><rect x="675" y="35" width="200" height="50" fill="none" stroke="black"></rect><rect x="685" y="45" width="10" height="10" style="fill: #4472c4;"></rect><text x="700" y="55" style="font-size: 12px;">typescript-json</text><rect x="685" y="65" width="10" height="10" style="fill: #ed7d31;"></rect><text x="700" y="75" style="font-size: 12px;">typebox</text><g style="font-size: 13px;"><g style="font-size: 13px;"><rect x="150" y="48.618332886625566" width="183.59479552580595" height="12.37469847225945" fill="#4472c4"></rect><rect x="150" y="61.644331278477615" width="440.9090909090908" height="12.37469847225945" fill="#ed7d31"></rect><text class="label" x="342.0947955258059" y="57.118332886625566" font-size="10px">1x</text><text class="label" x="599.4090909090908" y="70.14433127847761" font-size="10px">2.4x</text><text class="label" x="338.5947955258059" y="58.618332886625566" font-size="8px"></text><text class="label" x="595.9090909090908" y="71.64433127847761" font-size="8px"></text></g><g style="font-size: 13px;"><rect x="150" y="78.28866255695525" width="183.59479552580595" height="12.37469847225945" fill="#4472c4"></rect><rect x="150" y="91.31466094880729" width="368.05743368016056" height="12.37469847225945" fill="#ed7d31"></rect><text class="label" x="342.0947955258059" y="86.78866255695525" font-size="10px">1x</text><text class="label" x="526.5574336801606" y="99.81466094880729" font-size="10px">2x</text><text class="label" x="338.5947955258059" y="88.28866255695525" font-size="8px"></text><text class="label" x="523.0574336801606" y="101.31466094880729" font-size="8px"></text></g><g style="font-size: 13px;"><rect x="150" y="107.95899222728491" width="183.59479552580595" height="12.37469847225945" fill="#4472c4"></rect><rect x="150" y="120.98499061913697" width="286.08545291977543" height="12.37469847225945" fill="#ed7d31"></rect><text class="label" x="342.0947955258059" y="116.45899222728491" font-size="10px">1x</text><text class="label" x="444.58545291977543" y="129.48499061913697" font-size="10px">1.56x</text><text class="label" x="338.5947955258059" y="117.95899222728491" font-size="8px"></text><text class="label" x="441.08545291977543" y="130.98499061913697" font-size="8px"></text></g><g style="font-size: 13px;"><rect x="150" y="137.6293218976146" width="183.59479552580595" height="12.37469847225945" fill="#4472c4"></rect><rect x="150" y="150.65532028946666" width="207.1012252730899" height="12.37469847225945" fill="#ed7d31"></rect><text class="label" x="342.0947955258059" y="146.1293218976146" font-size="10px">1x</text><text class="label" x="365.6012252730899" y="159.15532028946666" font-size="10px">1.13x</text><text class="label" x="338.5947955258059" y="147.6293218976146" font-size="8px"></text><text class="label" x="362.1012252730899" y="160.65532028946666" font-size="8px"></text></g><g style="font-size: 13px;"><rect x="150" y="167.29965156794424" width="183.59479552580595" height="12.37469847225945" fill="#4472c4"></rect><rect x="150" y="180.3256499597963" width="215.37963460612232" height="12.37469847225945" fill="#ed7d31"></rect><text class="label" x="342.0947955258059" y="175.79965156794424" font-size="10px">1x</text><text class="label" x="373.8796346061223" y="188.8256499597963" font-size="10px">1.17x</text><text class="label" x="338.5947955258059" y="177.29965156794424" font-size="8px"></text><text class="label" x="370.3796346061223" y="190.3256499597963" font-size="8px"></text></g><g style="font-size: 13px;"><rect x="150" y="196.9699812382739" width="183.59479552580595" height="12.37469847225945" fill="#4472c4"></rect><rect x="150" y="209.99597963012596" width="336.7560493323743" height="12.37469847225945" fill="#ed7d31"></rect><text class="label" x="342.0947955258059" y="205.4699812382739" font-size="10px">1x</text><text class="label" x="495.2560493323743" y="218.49597963012596" font-size="10px">1.83x</text><text class="label" x="338.5947955258059" y="206.9699812382739" font-size="8px"></text><text class="label" x="491.7560493323743" y="219.99597963012596" font-size="8px"></text></g><g style="font-size: 13px;"><rect x="150" y="226.6403109086036" width="216.57366220015845" height="12.37469847225945" fill="#4472c4"></rect><rect x="150" y="239.66630930045565" width="183.59479552580595" height="12.37469847225945" fill="#ed7d31"></rect><text class="label" x="375.0736622001584" y="235.1403109086036" font-size="10px">1.18x</text><text class="label" x="342.0947955258059" y="248.16630930045565" font-size="10px">1x</text><text class="label" x="371.5736622001584" y="236.6403109086036" font-size="8px"></text><text class="label" x="338.5947955258059" y="249.66630930045565" font-size="8px"></text></g><g style="font-size: 13px;"><rect x="150" y="256.31064057893326" width="206.17236517299312" height="12.37469847225945" fill="#4472c4"></rect><rect x="150" y="269.3366389707853" width="183.59479552580595" height="12.37469847225945" fill="#ed7d31"></rect><text class="label" x="364.6723651729931" y="264.81064057893326" font-size="10px">1.12x</text><text class="label" x="342.0947955258059" y="277.8366389707853" font-size="10px">1x</text><text class="label" x="361.1723651729931" y="266.31064057893326" font-size="8px"></text><text class="label" x="338.5947955258059" y="279.3366389707853" font-size="8px"></text></g><g style="font-size: 13px;"><rect x="150" y="285.9809702492629" width="299.7032139368147" height="12.37469847225945" fill="#4472c4"></rect><rect x="150" y="299.006968641115" width="183.59479552580595" height="12.37469847225945" fill="#ed7d31"></rect><text class="label" x="458.2032139368147" y="294.4809702492629" font-size="10px">1.63x</text><text class="label" x="342.0947955258059" y="307.506968641115" font-size="10px">1x</text><text class="label" x="454.7032139368147" y="295.9809702492629" font-size="8px"></text><text class="label" x="338.5947955258059" y="309.006968641115" font-size="8px"></text></g></g></svg>