<svg xmlns="http://www.w3.org/2000/svg" xmlns:xlink="http://www.w3.org/1999/xlink" width="800" height="1004" style="background-color: white;"><g class="y axis" transform="translate(149,45)" fill="none" font-size="10" font-family="sans-serif" text-anchor="end" style="font-size: 13px;"><path class="domain" stroke="currentColor" d="M0.5,0.5V810.5"></path><g class="tick" opacity="1" transform="translate(0,48.95604395604397)" style="font-size: 13px;"><line stroke="currentColor" x2="0"></line><text fill="currentColor" x="-3" dy="0.32em">object (simple)    </text></g><g class="tick" opacity="1" transform="translate(0,137.967032967033)" style="font-size: 13px;"><line stroke="currentColor" x2="0"></line><text fill="currentColor" x="-3" dy="0.32em">object (hierarchical)    </text></g><g class="tick" opacity="1" transform="translate(0,226.97802197802199)" style="font-size: 13px;"><line stroke="currentColor" x2="0"></line><text fill="currentColor" x="-3" dy="0.32em">object (recursive)    </text></g><g class="tick" opacity="1" transform="translate(0,315.989010989011)" style="font-size: 13px;"><line stroke="currentColor" x2="0"></line><text fill="currentColor" x="-3" dy="0.32em">object (union, explicit)    </text></g><g class="tick" opacity="1" transform="translate(0,405)" style="font-size: 13px;"><line stroke="currentColor" x2="0"></line><text fill="currentColor" x="-3" dy="0.32em">object (union, implicit)    </text></g><g class="tick" opacity="1" transform="translate(0,494.010989010989)" style="font-size: 13px;"><line stroke="currentColor" x2="0"></line><text fill="currentColor" x="-3" dy="0.32em">array (recursive)    </text></g><g class="tick" opacity="1" transform="translate(0,583.021978021978)" style="font-size: 13px;"><line stroke="currentColor" x2="0"></line><text fill="currentColor" x="-3" dy="0.32em">array (union, explicit)    </text></g><g class="tick" opacity="1" transform="translate(0,672.0329670329671)" style="font-size: 13px;"><line stroke="currentColor" x2="0"></line><text fill="currentColor" x="-3" dy="0.32em">array (union, implicit)    </text></g><g class="tick" opacity="1" transform="translate(0,761.043956043956)" style="font-size: 13px;"><line stroke="currentColor" x2="0"></line><text fill="currentColor" x="-3" dy="0.32em">ultimate union    </text></g></g><g class="x axis" transform="translate(149,855)" fill="none" font-size="10" font-family="sans-serif" text-anchor="middle" style="font-size: 13px;"><path class="domain" stroke="currentColor" d="M0.5,0.5H485.5"></path><g class="tick" opacity="1" transform="translate(0.5,0)" style="font-size: 13px;"><line stroke="currentColor" y2="6"></line><text fill="currentColor" y="9" dy="0.71em">0x</text></g><g class="tick" opacity="1" transform="translate(76.42436274136553,0)" style="font-size: 13px;"><line stroke="currentColor" y2="6"></line><text fill="currentColor" y="9" dy="0.71em">5,000x</text></g><g class="tick" opacity="1" transform="translate(152.34872548273106,0)" style="font-size: 13px;"><line stroke="currentColor" y2="6"></line><text fill="currentColor" y="9" dy="0.71em">10,000x</text></g><g class="tick" opacity="1" transform="translate(228.27308822409657,0)" style="font-size: 13px;"><line stroke="currentColor" y2="6"></line><text fill="currentColor" y="9" dy="0.71em">15,000x</text></g><g class="tick" opacity="1" transform="translate(304.1974509654621,0)" style="font-size: 13px;"><line stroke="currentColor" y2="6"></line><text fill="currentColor" y="9" dy="0.71em">20,000x</text></g><g class="tick" opacity="1" transform="translate(380.12181370682765,0)" style="font-size: 13px;"><line stroke="currentColor" y2="6"></line><text fill="currentColor" y="9" dy="0.71em">25,000x</text></g><g class="tick" opacity="1" transform="translate(456.04617644819314,0)" style="font-size: 13px;"><line stroke="currentColor" y2="6"></line><text fill="currentColor" y="9" dy="0.71em">30,000x</text></g></g><text transform="translate(400, 30)" style="text-anchor: middle; font-size: 20px; font-weight: bold;">is benchmark</text><rect x="650" y="165" width="230" height="5" fill="gray"></rect><rect x="645" y="35" width="230" height="130" fill="none" stroke="black"></rect><rect x="655" y="45" width="10" height="10" style="fill: #4472c4;"></rect><text x="670" y="55" style="font-size: 12px;">typia</text><rect x="655" y="65" width="10" height="10" style="fill: #ed7d31;"></rect><text x="670" y="75" style="font-size: 12px;">typebox</text><rect x="655" y="85" width="10" height="10" style="fill: #a5a5a5;"></rect><text x="670" y="95" style="font-size: 12px;">ajv</text><rect x="655" y="105" width="10" height="10" style="fill: #ffc000;"></rect><text x="670" y="115" style="font-size: 12px;">io-ts</text><rect x="655" y="125" width="10" height="10" style="fill: #5b9bd5;"></rect><text x="670" y="135" style="font-size: 12px;">zod</text><rect x="655" y="145" width="10" height="10" style="fill: #70ad47;"></rect><text x="670" y="155" style="font-size: 12px;">class-validator</text><text x="20" y="919" style="font-size: 12px;">  - CPU: 11th Gen Intel(R) Core(TM) i5-1135G7 @ 2.40GHz</text><text x="20" y="936" style="font-size: 12px;">  - OS: win32</text><text x="20" y="953" style="font-size: 12px;">  - RAM: 16 GB</text><text x="20" y="970" style="font-size: 12px;">  - NodeJS version: v16.20.0</text><text x="20" y="987" style="font-size: 12px;">  - Typia version: v4.1.8</text><g style="font-size: 13px;"><g style="font-size: 13px;"><rect x="150" y="54.563164108618665" width="440.9090909090908" height="12.579238942875305" fill="#4472c4"></rect><rect x="150" y="67.80446825901373" width="440.6109500616823" height="12.579238942875305" fill="#ed7d31"></rect><rect x="150" y="81.04577240940878" width="13.947903998267122" height="12.579238942875305" fill="#a5a5a5"></rect><rect x="150" y="94.28707655980384" width="1.4275835064531015" height="12.579238942875305" fill="#ffc000"></rect><rect x="150" y="107.5283807101989" width="0.17480156160685054" height="12.579238942875305" fill="#5b9bd5"></rect><rect x="150" y="120.76968486059396" width="0.015184872548273104" height="12.579238942875305" fill="#70ad47"></rect><text class="label" x="599.4090909090908" y="63.063164108618665" font-size="10px">29,036x</text><text class="label" x="599.1109500616823" y="76.30446825901373" font-size="10px">29,016x</text><text class="label" x="172.44790399826712" y="89.54577240940878" font-size="10px">919x</text><text class="label" x="159.9275835064531" y="102.78707655980384" font-size="10px">94x</text><text class="label" x="158.67480156160684" y="116.0283807101989" font-size="10px">12x</text><text class="label" x="158.51518487254828" y="129.26968486059394" font-size="10px">1x</text><text class="label" x="595.9090909090908" y="64.56316410861866" font-size="8px"></text><text class="label" x="595.6109500616823" y="77.80446825901373" font-size="8px"></text><text class="label" x="168.94790399826712" y="91.04577240940878" font-size="8px"></text><text class="label" x="156.4275835064531" y="104.28707655980384" font-size="8px"></text><text class="label" x="155.17480156160684" y="117.5283807101989" font-size="8px"></text><text class="label" x="155.01518487254828" y="130.76968486059394" font-size="8px"></text></g><g style="font-size: 13px;"><rect x="150" y="143.57415311960767" width="36.293093531342464" height="12.579238942875305" fill="#4472c4"></rect><rect x="150" y="156.81545727000272" width="42.07489916207247" height="12.579238942875305" fill="#ed7d31"></rect><rect x="150" y="170.05676142039778" width="8.241706717930525" height="12.579238942875305" fill="#a5a5a5"></rect><rect x="150" y="183.29806557079286" width="1.203309485007812" height="12.579238942875305" fill="#ffc000"></rect><rect x="150" y="196.5393697211879" width="0.061036817099501185" height="12.579238942875305" fill="#5b9bd5"></rect><rect x="150" y="209.78067387158296" width="0.015184872548273104" height="12.579238942875305" fill="#70ad47"></rect><text class="label" x="194.79309353134246" y="152.07415311960767" font-size="10px">2,390x</text><text class="label" x="200.57489916207248" y="165.31545727000272" font-size="10px">2,771x</text><text class="label" x="166.74170671793053" y="178.55676142039778" font-size="10px">543x</text><text class="label" x="159.70330948500782" y="191.79806557079286" font-size="10px">79x</text><text class="label" x="158.5610368170995" y="205.0393697211879" font-size="10px">4x</text><text class="label" x="158.51518487254828" y="218.28067387158296" font-size="10px">1x</text><text class="label" x="191.29309353134246" y="153.57415311960767" font-size="8px"></text><text class="label" x="197.07489916207248" y="166.81545727000272" font-size="8px"></text><text class="label" x="163.24170671793053" y="180.05676142039778" font-size="8px"></text><text class="label" x="156.20330948500782" y="193.29806557079286" font-size="8px"></text><text class="label" x="155.0610368170995" y="206.5393697211879" font-size="8px"></text><text class="label" x="155.01518487254828" y="219.78067387158296" font-size="8px"></text></g><g style="font-size: 13px;"><rect x="150" y="232.5851421305967" width="28.5850684073279" height="12.579238942875305" fill="#4472c4"></rect><rect x="150" y="245.82644628099175" width="31.885951961285837" height="12.579238942875305" fill="#ed7d31"></rect><rect x="150" y="259.0677504313868" width="4.988868371526873" height="12.579238942875305" fill="#a5a5a5"></rect><rect x="150" y="272.3090545817819" width="1.4468672659959643" height="12.579238942875305" fill="#ffc000"></rect><rect x="150" y="285.5503587321769" width="0.015184872548273104" height="12.579238942875305" fill="#5b9bd5"></rect><rect x="150" y="298.791662882572" width="0.01953270818766591" height="12.579238942875305" fill="#70ad47"></rect><text class="label" x="187.0850684073279" y="241.0851421305967" font-size="10px">1,882x</text><text class="label" x="190.38595196128583" y="254.32644628099175" font-size="10px">2,100x</text><text class="label" x="163.48886837152688" y="267.5677504313868" font-size="10px">329x</text><text class="label" x="159.94686726599596" y="280.8090545817819" font-size="10px">95x</text><text class="label" x="158.51518487254828" y="294.0503587321769" font-size="10px">1x</text><text class="label" x="158.51953270818765" y="307.291662882572" font-size="10px">1x</text><text class="label" x="183.5850684073279" y="242.5851421305967" font-size="8px"></text><text class="label" x="186.88595196128583" y="255.82644628099175" font-size="8px"></text><text class="label" x="159.98886837152688" y="269.0677504313868" font-size="8px"></text><text class="label" x="156.44686726599596" y="282.3090545817819" font-size="8px"></text><text class="label" x="155.01518487254828" y="295.5503587321769" font-size="8px"></text><text class="label" x="155.01953270818765" y="308.791662882572" font-size="8px"></text></g><g style="font-size: 13px;"><rect x="150" y="321.59613114158566" width="8.31105867436351" height="12.579238942875305" fill="#4472c4"></rect><rect x="150" y="334.83743529198074" width="6.733171082367568" height="12.579238942875305" fill="#ed7d31"></rect><rect x="150" y="348.07873944237576" width="0.46734817313528554" height="12.579238942875305" fill="#a5a5a5"></rect><rect x="150" y="361.32004359277084" width="1.5695617239989985" height="12.579238942875305" fill="#ffc000"></rect><rect x="150" y="374.5613477431659" width="0.015184872548273104" height="12.579238942875305" fill="#5b9bd5"></rect><rect x="150" y="387.80265189356095" width="0" height="12.579238942875305" fill="#70ad47"></rect><text class="label" x="166.81105867436352" y="330.09613114158566" font-size="10px">547x</text><text class="label" x="165.23317108236756" y="343.33743529198074" font-size="10px">443x</text><text class="label" x="158.9673481731353" y="356.57873944237576" font-size="10px">31x</text><text class="label" x="160.069561723999" y="369.82004359277084" font-size="10px">103x</text><text class="label" x="158.51518487254828" y="383.0613477431659" font-size="10px">1x</text><text class="label" x="158.5" y="396.30265189356095" font-size="10px"></text><text class="label" x="163.31105867436352" y="331.59613114158566" font-size="8px"></text><text class="label" x="161.73317108236756" y="344.83743529198074" font-size="8px"></text><text class="label" x="155.4673481731353" y="358.07873944237576" font-size="8px"></text><text class="label" x="156.569561723999" y="371.32004359277084" font-size="8px"></text><text class="label" x="155.01518487254828" y="384.5613477431659" font-size="8px"></text><text class="label" x="155" y="397.80265189356095" font-size="8px">Failed</text></g><g style="font-size: 13px;"><rect x="150" y="410.6071201525747" width="485" height="12.579238942875305" fill="#4472c4"></rect><rect x="150" y="423.84842430296976" width="0" height="12.579238942875305" fill="#ed7d31"></rect><rect x="150" y="437.08972845336484" width="0" height="12.579238942875305" fill="#a5a5a5"></rect><rect x="150" y="450.33103260375987" width="0" height="12.579238942875305" fill="#ffc000"></rect><rect x="150" y="463.57233675415495" width="0" height="12.579238942875305" fill="#5b9bd5"></rect><rect x="150" y="476.81364090454997" width="0" height="12.579238942875305" fill="#70ad47"></rect><text class="label" x="643.5" y="419.1071201525747" font-size="10px">Infinity</text><text class="label" x="158.5" y="432.34842430296976" font-size="10px"></text><text class="label" x="158.5" y="445.58972845336484" font-size="10px"></text><text class="label" x="158.5" y="458.83103260375987" font-size="10px"></text><text class="label" x="158.5" y="472.07233675415495" font-size="10px"></text><text class="label" x="158.5" y="485.31364090454997" font-size="10px"></text><text class="label" x="640" y="420.6071201525747" font-size="8px"></text><text class="label" x="155" y="433.84842430296976" font-size="8px">Failed</text><text class="label" x="155" y="447.08972845336484" font-size="8px">Failed</text><text class="label" x="155" y="460.33103260375987" font-size="8px">Failed</text><text class="label" x="155" y="473.57233675415495" font-size="8px">Failed</text><text class="label" x="155" y="486.81364090454997" font-size="8px">Failed</text></g><g style="font-size: 13px;"><rect x="150" y="499.6181091635637" width="17.9189271640908" height="12.579238942875305" fill="#4472c4"></rect><rect x="150" y="512.8594133139588" width="20.36873647002606" height="12.579238942875305" fill="#ed7d31"></rect><rect x="150" y="526.1007174643538" width="4.883033403597686" height="12.579238942875305" fill="#a5a5a5"></rect><rect x="150" y="539.3420216147489" width="1.4049325629137814" height="12.579238942875305" fill="#ffc000"></rect><rect x="150" y="552.583325765144" width="0.01661791182199493" height="12.579238942875305" fill="#5b9bd5"></rect><rect x="150" y="565.824629915539" width="0.015184872548273104" height="12.579238942875305" fill="#70ad47"></rect><text class="label" x="176.4189271640908" y="508.1181091635637" font-size="10px">1,180x</text><text class="label" x="178.86873647002605" y="521.3594133139588" font-size="10px">1,341x</text><text class="label" x="163.3830334035977" y="534.6007174643538" font-size="10px">322x</text><text class="label" x="159.90493256291379" y="547.8420216147489" font-size="10px">93x</text><text class="label" x="158.51661791182198" y="561.083325765144" font-size="10px">1x</text><text class="label" x="158.51518487254828" y="574.324629915539" font-size="10px">1x</text><text class="label" x="172.9189271640908" y="509.6181091635637" font-size="8px"></text><text class="label" x="175.36873647002605" y="522.8594133139588" font-size="8px"></text><text class="label" x="159.8830334035977" y="536.1007174643538" font-size="8px"></text><text class="label" x="156.40493256291379" y="549.3420216147489" font-size="8px"></text><text class="label" x="155.01661791182198" y="562.583325765144" font-size="8px"></text><text class="label" x="155.01518487254828" y="575.824629915539" font-size="8px"></text></g><g style="font-size: 13px;"><rect x="150" y="588.6290981745527" width="18.610553670715223" height="12.579238942875305" fill="#4472c4"></rect><rect x="150" y="601.8704023249478" width="12.657202769303263" height="12.579238942875305" fill="#ed7d31"></rect><rect x="150" y="615.1117064753429" width="1.8640136413842299" height="12.579238942875305" fill="#a5a5a5"></rect><rect x="150" y="628.353010625738" width="2.0971960992824203" height="12.579238942875305" fill="#ffc000"></rect><rect x="150" y="641.5943147761329" width="0.015184872548273104" height="12.579238942875305" fill="#5b9bd5"></rect><rect x="150" y="654.835618926528" width="0" height="12.579238942875305" fill="#70ad47"></rect><text class="label" x="177.11055367071523" y="597.1290981745527" font-size="10px">1,226x</text><text class="label" x="171.15720276930327" y="610.3704023249478" font-size="10px">834x</text><text class="label" x="160.36401364138422" y="623.6117064753429" font-size="10px">123x</text><text class="label" x="160.59719609928243" y="636.853010625738" font-size="10px">138x</text><text class="label" x="158.51518487254828" y="650.0943147761329" font-size="10px">1x</text><text class="label" x="158.5" y="663.335618926528" font-size="10px"></text><text class="label" x="173.61055367071523" y="598.6290981745527" font-size="8px"></text><text class="label" x="167.65720276930327" y="611.8704023249478" font-size="8px"></text><text class="label" x="156.86401364138422" y="625.1117064753429" font-size="8px"></text><text class="label" x="157.09719609928243" y="638.353010625738" font-size="8px"></text><text class="label" x="155.01518487254828" y="651.5943147761329" font-size="8px"></text><text class="label" x="155" y="664.835618926528" font-size="8px">Failed</text></g><g style="font-size: 13px;"><rect x="150" y="677.6400871855418" width="485" height="12.579238942875305" fill="#4472c4"></rect><rect x="150" y="690.8813913359369" width="0" height="12.579238942875305" fill="#ed7d31"></rect><rect x="150" y="704.122695486332" width="0" height="12.579238942875305" fill="#a5a5a5"></rect><rect x="150" y="717.363999636727" width="0" height="12.579238942875305" fill="#ffc000"></rect><rect x="150" y="730.605303787122" width="0" height="12.579238942875305" fill="#5b9bd5"></rect><rect x="150" y="743.8466079375171" width="0" height="12.579238942875305" fill="#70ad47"></rect><text class="label" x="643.5" y="686.1400871855418" font-size="10px">Infinity</text><text class="label" x="158.5" y="699.3813913359369" font-size="10px"></text><text class="label" x="158.5" y="712.622695486332" font-size="10px"></text><text class="label" x="158.5" y="725.863999636727" font-size="10px"></text><text class="label" x="158.5" y="739.105303787122" font-size="10px"></text><text class="label" x="158.5" y="752.3466079375171" font-size="10px"></text><text class="label" x="640" y="687.6400871855418" font-size="8px"></text><text class="label" x="155" y="700.8813913359369" font-size="8px">Failed</text><text class="label" x="155" y="714.122695486332" font-size="8px">Failed</text><text class="label" x="155" y="727.363999636727" font-size="8px">Failed</text><text class="label" x="155" y="740.605303787122" font-size="8px">Failed</text><text class="label" x="155" y="753.8466079375171" font-size="8px">Failed</text></g><g style="font-size: 13px;"><rect x="150" y="766.6510761965307" width="485" height="12.579238942875305" fill="#4472c4"></rect><rect x="150" y="779.8923803469257" width="0" height="12.579238942875305" fill="#ed7d31"></rect><rect x="150" y="793.1336844973208" width="0" height="12.579238942875305" fill="#a5a5a5"></rect><rect x="150" y="806.3749886477159" width="0" height="12.579238942875305" fill="#ffc000"></rect><rect x="150" y="819.6162927981109" width="0" height="12.579238942875305" fill="#5b9bd5"></rect><rect x="150" y="832.8575969485059" width="0" height="12.579238942875305" fill="#70ad47"></rect><text class="label" x="643.5" y="775.1510761965307" font-size="10px">Infinity</text><text class="label" x="158.5" y="788.3923803469257" font-size="10px"></text><text class="label" x="158.5" y="801.6336844973208" font-size="10px"></text><text class="label" x="158.5" y="814.8749886477159" font-size="10px"></text><text class="label" x="158.5" y="828.1162927981109" font-size="10px"></text><text class="label" x="158.5" y="841.3575969485059" font-size="10px"></text><text class="label" x="640" y="776.6510761965307" font-size="8px"></text><text class="label" x="155" y="789.8923803469257" font-size="8px">Failed</text><text class="label" x="155" y="803.1336844973208" font-size="8px">Failed</text><text class="label" x="155" y="816.3749886477159" font-size="8px">Failed</text><text class="label" x="155" y="829.6162927981109" font-size="8px">Failed</text><text class="label" x="155" y="842.8575969485059" font-size="8px">Failed</text></g></g></svg>