<svg xmlns="http://www.w3.org/2000/svg" xmlns:xlink="http://www.w3.org/1999/xlink" width="800" height="885" style="background-color: white;"><g class="y axis" transform="translate(149,45)" fill="none" font-size="10" font-family="sans-serif" text-anchor="end" style="font-size: 13px;"><path class="domain" stroke="currentColor" d="M0.5,0.5V810.5"></path><g class="tick" opacity="1" transform="translate(0,48.95604395604397)" style="font-size: 13px;"><line stroke="currentColor" x2="0"></line><text fill="currentColor" x="-3" dy="0.32em">object (simple)    </text></g><g class="tick" opacity="1" transform="translate(0,137.967032967033)" style="font-size: 13px;"><line stroke="currentColor" x2="0"></line><text fill="currentColor" x="-3" dy="0.32em">object (hierarchical)    </text></g><g class="tick" opacity="1" transform="translate(0,226.97802197802199)" style="font-size: 13px;"><line stroke="currentColor" x2="0"></line><text fill="currentColor" x="-3" dy="0.32em">object (recursive)    </text></g><g class="tick" opacity="1" transform="translate(0,315.989010989011)" style="font-size: 13px;"><line stroke="currentColor" x2="0"></line><text fill="currentColor" x="-3" dy="0.32em">object (union, explicit)    </text></g><g class="tick" opacity="1" transform="translate(0,405)" style="font-size: 13px;"><line stroke="currentColor" x2="0"></line><text fill="currentColor" x="-3" dy="0.32em">object (union, implicit)    </text></g><g class="tick" opacity="1" transform="translate(0,494.010989010989)" style="font-size: 13px;"><line stroke="currentColor" x2="0"></line><text fill="currentColor" x="-3" dy="0.32em">array (recursive)    </text></g><g class="tick" opacity="1" transform="translate(0,583.021978021978)" style="font-size: 13px;"><line stroke="currentColor" x2="0"></line><text fill="currentColor" x="-3" dy="0.32em">array (union, explicit)    </text></g><g class="tick" opacity="1" transform="translate(0,672.0329670329671)" style="font-size: 13px;"><line stroke="currentColor" x2="0"></line><text fill="currentColor" x="-3" dy="0.32em">array (union, implicit)    </text></g><g class="tick" opacity="1" transform="translate(0,761.043956043956)" style="font-size: 13px;"><line stroke="currentColor" x2="0"></line><text fill="currentColor" x="-3" dy="0.32em">ultimate union    </text></g></g><g class="x axis" transform="translate(149,855)" fill="none" font-size="10" font-family="sans-serif" text-anchor="middle" style="font-size: 13px;"><path class="domain" stroke="currentColor" d="M0.5,0.5H485.5"></path><g class="tick" opacity="1" transform="translate(0.5,0)" style="font-size: 13px;"><line stroke="currentColor" y2="6"></line><text fill="currentColor" y="9" dy="0.71em">0x</text></g><g class="tick" opacity="1" transform="translate(132.5580014984185,0)" style="font-size: 13px;"><line stroke="currentColor" y2="6"></line><text fill="currentColor" y="9" dy="0.71em">5,000x</text></g><g class="tick" opacity="1" transform="translate(264.616002996837,0)" style="font-size: 13px;"><line stroke="currentColor" y2="6"></line><text fill="currentColor" y="9" dy="0.71em">10,000x</text></g><g class="tick" opacity="1" transform="translate(396.6740044952555,0)" style="font-size: 13px;"><line stroke="currentColor" y2="6"></line><text fill="currentColor" y="9" dy="0.71em">15,000x</text></g></g><text transform="translate(400, 30)" style="text-anchor: middle; font-size: 20px; font-weight: bold;">is benchmark</text><rect x="650" y="165" width="230" height="5" fill="gray"></rect><rect x="645" y="35" width="230" height="130" fill="none" stroke="black"></rect><rect x="655" y="45" width="10" height="10" style="fill: #4472c4;"></rect><text x="670" y="55" style="font-size: 12px;">typia</text><rect x="655" y="65" width="10" height="10" style="fill: #ed7d31;"></rect><text x="670" y="75" style="font-size: 12px;">typebox</text><rect x="655" y="85" width="10" height="10" style="fill: #a5a5a5;"></rect><text x="670" y="95" style="font-size: 12px;">ajv</text><rect x="655" y="105" width="10" height="10" style="fill: #ffc000;"></rect><text x="670" y="115" style="font-size: 12px;">io-ts</text><rect x="655" y="125" width="10" height="10" style="fill: #5b9bd5;"></rect><text x="670" y="135" style="font-size: 12px;">zod</text><rect x="655" y="145" width="10" height="10" style="fill: #70ad47;"></rect><text x="670" y="155" style="font-size: 12px;">class-validator</text><g style="font-size: 13px;"><g style="font-size: 13px;"><rect x="150" y="54.563164108618665" width="440.9090909090908" height="12.579238942875305" fill="#4472c4"></rect><rect x="150" y="67.80446825901373" width="70.51154053363396" height="12.579238942875305" fill="#ed7d31"></rect><rect x="150" y="81.04577240940878" width="108.70264775628232" height="12.579238942875305" fill="#a5a5a5"></rect><rect x="150" y="94.28707655980384" width="6.223328733559948" height="12.579238942875305" fill="#ffc000"></rect><rect x="150" y="107.5283807101989" width="1.0374755269785634" height="12.579238942875305" fill="#5b9bd5"></rect><rect x="150" y="120.76968486059396" width="0.026411600299683702" height="12.579238942875305" fill="#70ad47"></rect><text class="label" x="599.4090909090908" y="63.063164108618665" font-size="10px">16,694x</text><text class="label" x="229.01154053363396" y="76.30446825901373" font-size="10px">2,670x</text><text class="label" x="267.2026477562823" y="89.54577240940878" font-size="10px">4,116x</text><text class="label" x="164.72332873355995" y="102.78707655980384" font-size="10px">236x</text><text class="label" x="159.53747552697857" y="116.0283807101989" font-size="10px">39x</text><text class="label" x="158.5264116002997" y="129.26968486059394" font-size="10px">1x</text><text class="label" x="595.9090909090908" y="64.56316410861866" font-size="8px"></text><text class="label" x="225.51154053363396" y="77.80446825901373" font-size="8px"></text><text class="label" x="263.7026477562823" y="91.04577240940878" font-size="8px"></text><text class="label" x="161.22332873355995" y="104.28707655980384" font-size="8px"></text><text class="label" x="156.03747552697857" y="117.5283807101989" font-size="8px"></text><text class="label" x="155.0264116002997" y="130.76968486059394" font-size="8px"></text></g><g style="font-size: 13px;"><rect x="150" y="143.57415311960767" width="125.10108992834311" height="12.579238942875305" fill="#4472c4"></rect><rect x="150" y="156.81545727000272" width="71.8043657003373" height="12.579238942875305" fill="#ed7d31"></rect><rect x="150" y="170.05676142039778" width="24.053409778463486" height="12.579238942875305" fill="#a5a5a5"></rect><rect x="150" y="183.29806557079286" width="5.28562212626131" height="12.579238942875305" fill="#ffc000"></rect><rect x="150" y="196.5393697211879" width="0.2852912677192486" height="12.579238942875305" fill="#5b9bd5"></rect><rect x="150" y="209.78067387158296" width="0.026411600299683702" height="12.579238942875305" fill="#70ad47"></rect><text class="label" x="283.60108992834313" y="152.07415311960767" font-size="10px">4,737x</text><text class="label" x="230.3043657003373" y="165.31545727000272" font-size="10px">2,719x</text><text class="label" x="182.55340977846348" y="178.55676142039778" font-size="10px">911x</text><text class="label" x="163.7856221262613" y="191.79806557079286" font-size="10px">200x</text><text class="label" x="158.78529126771926" y="205.0393697211879" font-size="10px">11x</text><text class="label" x="158.5264116002997" y="218.28067387158296" font-size="10px">1x</text><text class="label" x="280.10108992834313" y="153.57415311960767" font-size="8px"></text><text class="label" x="226.8043657003373" y="166.81545727000272" font-size="8px"></text><text class="label" x="179.05340977846348" y="180.05676142039778" font-size="8px"></text><text class="label" x="160.2856221262613" y="193.29806557079286" font-size="8px"></text><text class="label" x="155.28529126771926" y="206.5393697211879" font-size="8px"></text><text class="label" x="155.0264116002997" y="219.78067387158296" font-size="8px"></text></g><g style="font-size: 13px;"><rect x="150" y="232.5851421305967" width="105.4303864843761" height="12.579238942875305" fill="#4472c4"></rect><rect x="150" y="245.82644628099175" width="71.1663782245021" height="12.579238942875305" fill="#ed7d31"></rect><rect x="150" y="259.0677504313868" width="20.298878420495587" height="12.579238942875305" fill="#a5a5a5"></rect><rect x="150" y="272.3090545817819" width="4.61403235304015" height="12.579238942875305" fill="#ffc000"></rect><rect x="150" y="285.5503587321769" width="0.07284422555783313" height="12.579238942875305" fill="#5b9bd5"></rect><rect x="150" y="298.791662882572" width="0.026411600299683702" height="12.579238942875305" fill="#70ad47"></rect><text class="label" x="263.9303864843761" y="241.0851421305967" font-size="10px">3,992x</text><text class="label" x="229.6663782245021" y="254.32644628099175" font-size="10px">2,695x</text><text class="label" x="178.79887842049558" y="267.5677504313868" font-size="10px">769x</text><text class="label" x="163.11403235304016" y="280.8090545817819" font-size="10px">175x</text><text class="label" x="158.57284422555784" y="294.0503587321769" font-size="10px">3x</text><text class="label" x="158.5264116002997" y="307.291662882572" font-size="10px">1x</text><text class="label" x="260.4303864843761" y="242.5851421305967" font-size="8px"></text><text class="label" x="226.1663782245021" y="255.82644628099175" font-size="8px"></text><text class="label" x="175.29887842049558" y="269.0677504313868" font-size="8px"></text><text class="label" x="159.61403235304016" y="282.3090545817819" font-size="8px"></text><text class="label" x="155.07284422555784" y="295.5503587321769" font-size="8px"></text><text class="label" x="155.0264116002997" y="308.791662882572" font-size="8px"></text></g><g style="font-size: 13px;"><rect x="150" y="321.59613114158566" width="15.352384994051091" height="12.579238942875305" fill="#4472c4"></rect><rect x="150" y="334.83743529198074" width="7.308209190325349" height="12.579238942875305" fill="#ed7d31"></rect><rect x="150" y="348.07873944237576" width="3.1380962533353043" height="12.579238942875305" fill="#a5a5a5"></rect><rect x="150" y="361.32004359277084" width="2.3311728693603953" height="12.579238942875305" fill="#ffc000"></rect><rect x="150" y="374.5613477431659" width="0.026411600299683702" height="12.579238942875305" fill="#5b9bd5"></rect><rect x="150" y="387.80265189356095" width="0.05457106250341073" height="12.579238942875305" fill="#70ad47"></rect><text class="label" x="173.85238499405108" y="330.09613114158566" font-size="10px">581x</text><text class="label" x="165.80820919032536" y="343.33743529198074" font-size="10px">277x</text><text class="label" x="161.6380962533353" y="356.57873944237576" font-size="10px">119x</text><text class="label" x="160.8311728693604" y="369.82004359277084" font-size="10px">88x</text><text class="label" x="158.5264116002997" y="383.0613477431659" font-size="10px">1x</text><text class="label" x="158.5545710625034" y="396.30265189356095" font-size="10px">2x</text><text class="label" x="170.35238499405108" y="331.59613114158566" font-size="8px"></text><text class="label" x="162.30820919032536" y="344.83743529198074" font-size="8px"></text><text class="label" x="158.1380962533353" y="358.07873944237576" font-size="8px"></text><text class="label" x="157.3311728693604" y="371.32004359277084" font-size="8px"></text><text class="label" x="155.0264116002997" y="384.5613477431659" font-size="8px"></text><text class="label" x="155.0545710625034" y="397.80265189356095" font-size="8px"></text></g><g style="font-size: 13px;"><rect x="150" y="410.6071201525747" width="485" height="12.579238942875305" fill="#4472c4"></rect><rect x="150" y="423.84842430296976" width="0" height="12.579238942875305" fill="#ed7d31"></rect><rect x="150" y="437.08972845336484" width="0" height="12.579238942875305" fill="#a5a5a5"></rect><rect x="150" y="450.33103260375987" width="0" height="12.579238942875305" fill="#ffc000"></rect><rect x="150" y="463.57233675415495" width="0" height="12.579238942875305" fill="#5b9bd5"></rect><rect x="150" y="476.81364090454997" width="0" height="12.579238942875305" fill="#70ad47"></rect><text class="label" x="643.5" y="419.1071201525747" font-size="10px">Infinity</text><text class="label" x="158.5" y="432.34842430296976" font-size="10px"></text><text class="label" x="158.5" y="445.58972845336484" font-size="10px"></text><text class="label" x="158.5" y="458.83103260375987" font-size="10px"></text><text class="label" x="158.5" y="472.07233675415495" font-size="10px"></text><text class="label" x="158.5" y="485.31364090454997" font-size="10px"></text><text class="label" x="640" y="420.6071201525747" font-size="8px"></text><text class="label" x="155" y="433.84842430296976" font-size="8px">Failed</text><text class="label" x="155" y="447.08972845336484" font-size="8px">Failed</text><text class="label" x="155" y="460.33103260375987" font-size="8px">Failed</text><text class="label" x="155" y="473.57233675415495" font-size="8px">Failed</text><text class="label" x="155" y="486.81364090454997" font-size="8px">Failed</text></g><g style="font-size: 13px;"><rect x="150" y="499.6181091635637" width="58.59811573993164" height="12.579238942875305" fill="#4472c4"></rect><rect x="150" y="512.8594133139588" width="47.138769518484985" height="12.579238942875305" fill="#ed7d31"></rect><rect x="150" y="526.1007174643538" width="22.309880271248343" height="12.579238942875305" fill="#a5a5a5"></rect><rect x="150" y="539.3420216147489" width="4.519407013607436" height="12.579238942875305" fill="#ffc000"></rect><rect x="150" y="552.583325765144" width="0.09181325767417985" height="12.579238942875305" fill="#5b9bd5"></rect><rect x="150" y="565.824629915539" width="0.026411600299683702" height="12.579238942875305" fill="#70ad47"></rect><text class="label" x="217.09811573993164" y="508.1181091635637" font-size="10px">2,219x</text><text class="label" x="205.638769518485" y="521.3594133139588" font-size="10px">1,785x</text><text class="label" x="180.80988027124835" y="534.6007174643538" font-size="10px">845x</text><text class="label" x="163.01940701360743" y="547.8420216147489" font-size="10px">171x</text><text class="label" x="158.59181325767418" y="561.083325765144" font-size="10px">3x</text><text class="label" x="158.5264116002997" y="574.324629915539" font-size="10px">1x</text><text class="label" x="213.59811573993164" y="509.6181091635637" font-size="8px"></text><text class="label" x="202.138769518485" y="522.8594133139588" font-size="8px"></text><text class="label" x="177.30988027124835" y="536.1007174643538" font-size="8px"></text><text class="label" x="159.51940701360743" y="549.3420216147489" font-size="8px"></text><text class="label" x="155.09181325767418" y="562.583325765144" font-size="8px"></text><text class="label" x="155.0264116002997" y="575.824629915539" font-size="8px"></text></g><g style="font-size: 13px;"><rect x="150" y="588.6290981745527" width="32.444686468965585" height="12.579238942875305" fill="#4472c4"></rect><rect x="150" y="601.8704023249478" width="12.183278833771785" height="12.579238942875305" fill="#ed7d31"></rect><rect x="150" y="615.1117064753429" width="6.850703174023493" height="12.579238942875305" fill="#a5a5a5"></rect><rect x="150" y="628.353010625738" width="2.890231890168167" height="12.579238942875305" fill="#ffc000"></rect><rect x="150" y="641.5943147761329" width="0.026411600299683702" height="12.579238942875305" fill="#5b9bd5"></rect><rect x="150" y="654.835618926528" width="0.2076177415199711" height="12.579238942875305" fill="#70ad47"></rect><text class="label" x="190.94468646896559" y="597.1290981745527" font-size="10px">1,228x</text><text class="label" x="170.6832788337718" y="610.3704023249478" font-size="10px">461x</text><text class="label" x="165.3507031740235" y="623.6117064753429" font-size="10px">259x</text><text class="label" x="161.39023189016817" y="636.853010625738" font-size="10px">109x</text><text class="label" x="158.5264116002997" y="650.0943147761329" font-size="10px">1x</text><text class="label" x="158.70761774151998" y="663.335618926528" font-size="10px">8x</text><text class="label" x="187.44468646896559" y="598.6290981745527" font-size="8px"></text><text class="label" x="167.1832788337718" y="611.8704023249478" font-size="8px"></text><text class="label" x="161.8507031740235" y="625.1117064753429" font-size="8px"></text><text class="label" x="157.89023189016817" y="638.353010625738" font-size="8px"></text><text class="label" x="155.0264116002997" y="651.5943147761329" font-size="8px"></text><text class="label" x="155.20761774151998" y="664.835618926528" font-size="8px"></text></g><g style="font-size: 13px;"><rect x="150" y="677.6400871855418" width="485" height="12.579238942875305" fill="#4472c4"></rect><rect x="150" y="690.8813913359369" width="0" height="12.579238942875305" fill="#ed7d31"></rect><rect x="150" y="704.122695486332" width="0" height="12.579238942875305" fill="#a5a5a5"></rect><rect x="150" y="717.363999636727" width="0" height="12.579238942875305" fill="#ffc000"></rect><rect x="150" y="730.605303787122" width="0" height="12.579238942875305" fill="#5b9bd5"></rect><rect x="150" y="743.8466079375171" width="0" height="12.579238942875305" fill="#70ad47"></rect><text class="label" x="643.5" y="686.1400871855418" font-size="10px">Infinity</text><text class="label" x="158.5" y="699.3813913359369" font-size="10px"></text><text class="label" x="158.5" y="712.622695486332" font-size="10px"></text><text class="label" x="158.5" y="725.863999636727" font-size="10px"></text><text class="label" x="158.5" y="739.105303787122" font-size="10px"></text><text class="label" x="158.5" y="752.3466079375171" font-size="10px"></text><text class="label" x="640" y="687.6400871855418" font-size="8px"></text><text class="label" x="155" y="700.8813913359369" font-size="8px">Failed</text><text class="label" x="155" y="714.122695486332" font-size="8px">Failed</text><text class="label" x="155" y="727.363999636727" font-size="8px">Failed</text><text class="label" x="155" y="740.605303787122" font-size="8px">Failed</text><text class="label" x="155" y="753.8466079375171" font-size="8px">Failed</text></g><g style="font-size: 13px;"><rect x="150" y="766.6510761965307" width="485" height="12.579238942875305" fill="#4472c4"></rect><rect x="150" y="779.8923803469257" width="0" height="12.579238942875305" fill="#ed7d31"></rect><rect x="150" y="793.1336844973208" width="0" height="12.579238942875305" fill="#a5a5a5"></rect><rect x="150" y="806.3749886477159" width="0" height="12.579238942875305" fill="#ffc000"></rect><rect x="150" y="819.6162927981109" width="0" height="12.579238942875305" fill="#5b9bd5"></rect><rect x="150" y="832.8575969485059" width="0" height="12.579238942875305" fill="#70ad47"></rect><text class="label" x="643.5" y="775.1510761965307" font-size="10px">Infinity</text><text class="label" x="158.5" y="788.3923803469257" font-size="10px"></text><text class="label" x="158.5" y="801.6336844973208" font-size="10px"></text><text class="label" x="158.5" y="814.8749886477159" font-size="10px"></text><text class="label" x="158.5" y="828.1162927981109" font-size="10px"></text><text class="label" x="158.5" y="841.3575969485059" font-size="10px"></text><text class="label" x="640" y="776.6510761965307" font-size="8px"></text><text class="label" x="155" y="789.8923803469257" font-size="8px">Failed</text><text class="label" x="155" y="803.1336844973208" font-size="8px">Failed</text><text class="label" x="155" y="816.3749886477159" font-size="8px">Failed</text><text class="label" x="155" y="829.6162927981109" font-size="8px">Failed</text><text class="label" x="155" y="842.8575969485059" font-size="8px">Failed</text></g></g></svg>