<svg xmlns="http://www.w3.org/2000/svg" xmlns:xlink="http://www.w3.org/1999/xlink" width="800" height="885" style="background-color: white;"><g class="y axis" transform="translate(149,45)" fill="none" font-size="10" font-family="sans-serif" text-anchor="end" style="font-size: 13px;"><path class="domain" stroke="#000" d="M0,0.5H0.5V810.5H0"></path><g class="tick" opacity="1" transform="translate(0,48.95604395604397)" style="font-size: 13px;"><line stroke="#000" x2="0"></line><text fill="#000" x="-3" dy="0.32em">object (simple)    </text></g><g class="tick" opacity="1" transform="translate(0,137.967032967033)" style="font-size: 13px;"><line stroke="#000" x2="0"></line><text fill="#000" x="-3" dy="0.32em">object (hierarchical)    </text></g><g class="tick" opacity="1" transform="translate(0,226.97802197802199)" style="font-size: 13px;"><line stroke="#000" x2="0"></line><text fill="#000" x="-3" dy="0.32em">object (recursive)    </text></g><g class="tick" opacity="1" transform="translate(0,315.989010989011)" style="font-size: 13px;"><line stroke="#000" x2="0"></line><text fill="#000" x="-3" dy="0.32em">object (union, explicit)    </text></g><g class="tick" opacity="1" transform="translate(0,405)" style="font-size: 13px;"><line stroke="#000" x2="0"></line><text fill="#000" x="-3" dy="0.32em">object (union, implicit)    </text></g><g class="tick" opacity="1" transform="translate(0,494.010989010989)" style="font-size: 13px;"><line stroke="#000" x2="0"></line><text fill="#000" x="-3" dy="0.32em">array (recursive)    </text></g><g class="tick" opacity="1" transform="translate(0,583.021978021978)" style="font-size: 13px;"><line stroke="#000" x2="0"></line><text fill="#000" x="-3" dy="0.32em">array (union, explicit)    </text></g><g class="tick" opacity="1" transform="translate(0,672.0329670329671)" style="font-size: 13px;"><line stroke="#000" x2="0"></line><text fill="#000" x="-3" dy="0.32em">array (union, implicit)    </text></g><g class="tick" opacity="1" transform="translate(0,761.043956043956)" style="font-size: 13px;"><line stroke="#000" x2="0"></line><text fill="#000" x="-3" dy="0.32em">ultimate union    </text></g></g><g class="x axis" transform="translate(149,855)" fill="none" font-size="10" font-family="sans-serif" text-anchor="middle" style="font-size: 13px;"><path class="domain" stroke="#000" d="M0.5,0V0.5H485.5V0"></path><g class="tick" opacity="1" transform="translate(0.5,0)" style="font-size: 13px;"><line stroke="#000" y2="6"></line><text fill="#000" y="9" dy="0.71em">0x</text></g><g class="tick" opacity="1" transform="translate(70.62043318291116,0)" style="font-size: 13px;"><line stroke="#000" y2="6"></line><text fill="#000" y="9" dy="0.71em">2,000x</text></g><g class="tick" opacity="1" transform="translate(140.7408663658223,0)" style="font-size: 13px;"><line stroke="#000" y2="6"></line><text fill="#000" y="9" dy="0.71em">4,000x</text></g><g class="tick" opacity="1" transform="translate(210.86129954873346,0)" style="font-size: 13px;"><line stroke="#000" y2="6"></line><text fill="#000" y="9" dy="0.71em">6,000x</text></g><g class="tick" opacity="1" transform="translate(280.9817327316446,0)" style="font-size: 13px;"><line stroke="#000" y2="6"></line><text fill="#000" y="9" dy="0.71em">8,000x</text></g><g class="tick" opacity="1" transform="translate(351.10216591455577,0)" style="font-size: 13px;"><line stroke="#000" y2="6"></line><text fill="#000" y="9" dy="0.71em">10,000x</text></g><g class="tick" opacity="1" transform="translate(421.2225990974669,0)" style="font-size: 13px;"><line stroke="#000" y2="6"></line><text fill="#000" y="9" dy="0.71em">12,000x</text></g></g><text transform="translate(400, 30)" style="text-anchor: middle; font-size: 20px; font-weight: bold;">is benchmark</text><rect x="680" y="165" width="200" height="5" fill="gray"></rect><rect x="675" y="35" width="200" height="130" fill="none" stroke="black"></rect><rect x="685" y="45" width="10" height="10" style="fill: #4472c4;"></rect><text x="700" y="55" style="font-size: 12px;">typescript-json</text><rect x="685" y="65" width="10" height="10" style="fill: #ed7d31;"></rect><text x="700" y="75" style="font-size: 12px;">typebox</text><rect x="685" y="85" width="10" height="10" style="fill: #a5a5a5;"></rect><text x="700" y="95" style="font-size: 12px;">ajv</text><rect x="685" y="105" width="10" height="10" style="fill: #ffc000;"></rect><text x="700" y="115" style="font-size: 12px;">io-ts</text><rect x="685" y="125" width="10" height="10" style="fill: #5b9bd5;"></rect><text x="700" y="135" style="font-size: 12px;">zod</text><rect x="685" y="145" width="10" height="10" style="fill: #70ad47;"></rect><text x="700" y="155" style="font-size: 12px;">class-validator</text><g style="font-size: 13px;"><g style="font-size: 13px;"><rect x="150" y="54.563164108618665" width="249.3336443018469" height="12.579238942875305" fill="#4472c4"></rect><rect x="150" y="67.80446825901373" width="440.9090909090909" height="12.579238942875305" fill="#ed7d31"></rect><rect x="150" y="81.04577240940878" width="145.95776630581392" height="12.579238942875305" fill="#a5a5a5"></rect><rect x="150" y="94.28707655980384" width="11.786334228828778" height="12.579238942875305" fill="#ffc000"></rect><rect x="150" y="107.5283807101989" width="1.0387855256855723" height="12.579238942875305" fill="#5b9bd5"></rect><rect x="150" y="120.76968486059396" width="0.03506021659145558" height="12.579238942875305" fill="#70ad47"></rect><text class="label" x="407.8336443018469" y="63.063164108618665" font-size="10px">7,112x</text><text class="label" x="599.4090909090909" y="76.30446825901373" font-size="10px">12,576x</text><text class="label" x="304.45776630581395" y="89.54577240940878" font-size="10px">4,163x</text><text class="label" x="170.28633422882876" y="102.78707655980384" font-size="10px">336x</text><text class="label" x="159.53878552568557" y="116.0283807101989" font-size="10px">30x</text><text class="label" x="158.53506021659146" y="129.26968486059394" font-size="10px">1x</text></g><g style="font-size: 13px;"><rect x="150" y="143.57415311960767" width="114.68189319178879" height="12.579238942875305" fill="#4472c4"></rect><rect x="150" y="156.81545727000272" width="137.14140921140557" height="12.579238942875305" fill="#ed7d31"></rect><rect x="150" y="170.05676142039778" width="30.55881343058747" height="12.579238942875305" fill="#a5a5a5"></rect><rect x="150" y="183.29806557079286" width="6.604646592459768" height="12.579238942875305" fill="#ffc000"></rect><rect x="150" y="196.5393697211879" width="0.30597610306723066" height="12.579238942875305" fill="#5b9bd5"></rect><rect x="150" y="209.78067387158296" width="0.03506021659145558" height="12.579238942875305" fill="#70ad47"></rect><text class="label" x="273.1818931917888" y="152.07415311960767" font-size="10px">3,271x</text><text class="label" x="295.6414092114056" y="165.31545727000272" font-size="10px">3,912x</text><text class="label" x="189.05881343058746" y="178.55676142039778" font-size="10px">872x</text><text class="label" x="165.10464659245977" y="191.79806557079286" font-size="10px">188x</text><text class="label" x="158.80597610306722" y="205.0393697211879" font-size="10px">9x</text><text class="label" x="158.53506021659146" y="218.28067387158296" font-size="10px">1x</text></g><g style="font-size: 13px;"><rect x="150" y="232.5851421305967" width="104.2090463772856" height="12.579238942875305" fill="#4472c4"></rect><rect x="150" y="245.82644628099175" width="98.54787543966509" height="12.579238942875305" fill="#ed7d31"></rect><rect x="150" y="259.0677504313868" width="46.46051218180298" height="12.579238942875305" fill="#a5a5a5"></rect><rect x="150" y="272.3090545817819" width="6.687305874248351" height="12.579238942875305" fill="#ffc000"></rect><rect x="150" y="285.5503587321769" width="0.08903518490587228" height="12.579238942875305" fill="#5b9bd5"></rect><rect x="150" y="298.791662882572" width="0.03506021659145558" height="12.579238942875305" fill="#70ad47"></rect><text class="label" x="262.70904637728563" y="241.0851421305967" font-size="10px">2,972x</text><text class="label" x="257.04787543966506" y="254.32644628099175" font-size="10px">2,811x</text><text class="label" x="204.96051218180298" y="267.5677504313868" font-size="10px">1,325x</text><text class="label" x="165.18730587424835" y="280.8090545817819" font-size="10px">191x</text><text class="label" x="158.58903518490587" y="294.0503587321769" font-size="10px">3x</text><text class="label" x="158.53506021659146" y="307.291662882572" font-size="10px">1x</text></g><g style="font-size: 13px;"><rect x="150" y="321.59613114158566" width="21.107214343414388" height="12.579238942875305" fill="#4472c4"></rect><rect x="150" y="334.83743529198074" width="13.025317556181818" height="12.579238942875305" fill="#ed7d31"></rect><rect x="150" y="348.07873944237576" width="6.677094756500006" height="12.579238942875305" fill="#a5a5a5"></rect><rect x="150" y="361.32004359277084" width="3.547282892225498" height="12.579238942875305" fill="#ffc000"></rect><rect x="150" y="374.5613477431659" width="0.03506021659145558" height="12.579238942875305" fill="#5b9bd5"></rect><rect x="150" y="387.80265189356095" width="0.10503548068950024" height="12.579238942875305" fill="#70ad47"></rect><text class="label" x="179.6072143434144" y="330.09613114158566" font-size="10px">602x</text><text class="label" x="171.52531755618182" y="343.33743529198074" font-size="10px">372x</text><text class="label" x="165.1770947565" y="356.57873944237576" font-size="10px">190x</text><text class="label" x="162.0472828922255" y="369.82004359277084" font-size="10px">101x</text><text class="label" x="158.53506021659146" y="383.0613477431659" font-size="10px">1x</text><text class="label" x="158.6050354806895" y="396.30265189356095" font-size="10px">3x</text></g><g style="font-size: 13px;"><rect x="150" y="410.6071201525747" width="485" height="12.579238942875305" fill="#4472c4"></rect><rect x="150" y="423.84842430296976" width="0" height="12.579238942875305" fill="#ed7d31"></rect><rect x="150" y="437.08972845336484" width="0" height="12.579238942875305" fill="#a5a5a5"></rect><rect x="150" y="450.33103260375987" width="0" height="12.579238942875305" fill="#ffc000"></rect><rect x="150" y="463.57233675415495" width="0" height="12.579238942875305" fill="#5b9bd5"></rect><rect x="150" y="476.81364090454997" width="0" height="12.579238942875305" fill="#70ad47"></rect><text class="label" x="643.5" y="419.1071201525747" font-size="10px">Infinity</text><text class="label" x="158.5" y="432.34842430296976" font-size="10px"></text><text class="label" x="158.5" y="445.58972845336484" font-size="10px"></text><text class="label" x="158.5" y="458.83103260375987" font-size="10px"></text><text class="label" x="158.5" y="472.07233675415495" font-size="10px"></text><text class="label" x="158.5" y="485.31364090454997" font-size="10px"></text></g><g style="font-size: 13px;"><rect x="150" y="499.6181091635637" width="84.24352038574614" height="12.579238942875305" fill="#4472c4"></rect><rect x="150" y="512.8594133139588" width="74.80311178815505" height="12.579238942875305" fill="#ed7d31"></rect><rect x="150" y="526.1007174643538" width="26.15075993719948" height="12.579238942875305" fill="#a5a5a5"></rect><rect x="150" y="539.3420216147489" width="6.661769185840176" height="12.579238942875305" fill="#ffc000"></rect><rect x="150" y="552.583325765144" width="0.1134462427361512" height="12.579238942875305" fill="#5b9bd5"></rect><rect x="150" y="565.824629915539" width="0.03506021659145558" height="12.579238942875305" fill="#70ad47"></rect><text class="label" x="242.74352038574614" y="508.1181091635637" font-size="10px">2,403x</text><text class="label" x="233.30311178815504" y="521.3594133139588" font-size="10px">2,134x</text><text class="label" x="184.6507599371995" y="534.6007174643538" font-size="10px">746x</text><text class="label" x="165.16176918584017" y="547.8420216147489" font-size="10px">190x</text><text class="label" x="158.61344624273616" y="561.083325765144" font-size="10px">3x</text><text class="label" x="158.53506021659146" y="574.324629915539" font-size="10px">1x</text></g><g style="font-size: 13px;"><rect x="150" y="588.6290981745527" width="49.875152575486325" height="12.579238942875305" fill="#4472c4"></rect><rect x="150" y="601.8704023249478" width="24.202392360418976" height="12.579238942875305" fill="#ed7d31"></rect><rect x="150" y="615.1117064753429" width="9.931830154523436" height="12.579238942875305" fill="#a5a5a5"></rect><rect x="150" y="628.353010625738" width="4.538244055271398" height="12.579238942875305" fill="#ffc000"></rect><rect x="150" y="641.5943147761329" width="0.03506021659145558" height="12.579238942875305" fill="#5b9bd5"></rect><rect x="150" y="654.835618926528" width="0.44553865865360653" height="12.579238942875305" fill="#70ad47"></rect><text class="label" x="208.3751525754863" y="597.1290981745527" font-size="10px">1,423x</text><text class="label" x="182.70239236041897" y="610.3704023249478" font-size="10px">690x</text><text class="label" x="168.43183015452342" y="623.6117064753429" font-size="10px">283x</text><text class="label" x="163.0382440552714" y="636.853010625738" font-size="10px">129x</text><text class="label" x="158.53506021659146" y="650.0943147761329" font-size="10px">1x</text><text class="label" x="158.94553865865362" y="663.335618926528" font-size="10px">13x</text></g><g style="font-size: 13px;"><rect x="150" y="677.6400871855418" width="485" height="12.579238942875305" fill="#4472c4"></rect><rect x="150" y="690.8813913359369" width="0" height="12.579238942875305" fill="#ed7d31"></rect><rect x="150" y="704.122695486332" width="0" height="12.579238942875305" fill="#a5a5a5"></rect><rect x="150" y="717.363999636727" width="0" height="12.579238942875305" fill="#ffc000"></rect><rect x="150" y="730.605303787122" width="0" height="12.579238942875305" fill="#5b9bd5"></rect><rect x="150" y="743.8466079375171" width="0" height="12.579238942875305" fill="#70ad47"></rect><text class="label" x="643.5" y="686.1400871855418" font-size="10px">Infinity</text><text class="label" x="158.5" y="699.3813913359369" font-size="10px"></text><text class="label" x="158.5" y="712.622695486332" font-size="10px"></text><text class="label" x="158.5" y="725.863999636727" font-size="10px"></text><text class="label" x="158.5" y="739.105303787122" font-size="10px"></text><text class="label" x="158.5" y="752.3466079375171" font-size="10px"></text></g><g style="font-size: 13px;"><rect x="150" y="766.6510761965307" width="485" height="12.579238942875305" fill="#4472c4"></rect><rect x="150" y="779.8923803469257" width="0" height="12.579238942875305" fill="#ed7d31"></rect><rect x="150" y="793.1336844973208" width="0" height="12.579238942875305" fill="#a5a5a5"></rect><rect x="150" y="806.3749886477159" width="0" height="12.579238942875305" fill="#ffc000"></rect><rect x="150" y="819.6162927981109" width="0" height="12.579238942875305" fill="#5b9bd5"></rect><rect x="150" y="832.8575969485059" width="0" height="12.579238942875305" fill="#70ad47"></rect><text class="label" x="643.5" y="775.1510761965307" font-size="10px">Infinity</text><text class="label" x="158.5" y="788.3923803469257" font-size="10px"></text><text class="label" x="158.5" y="801.6336844973208" font-size="10px"></text><text class="label" x="158.5" y="814.8749886477159" font-size="10px"></text><text class="label" x="158.5" y="828.1162927981109" font-size="10px"></text><text class="label" x="158.5" y="841.3575969485059" font-size="10px"></text></g></g></svg>