<svg xmlns="http://www.w3.org/2000/svg" xmlns:xlink="http://www.w3.org/1999/xlink" width="800" height="1004" style="background-color: white;"><g class="y axis" transform="translate(149,45)" fill="none" font-size="10" font-family="sans-serif" text-anchor="end" style="font-size: 13px;"><path class="domain" stroke="currentColor" d="M0.5,0.5V810.5"></path><g class="tick" opacity="1" transform="translate(0,48.95604395604397)" style="font-size: 13px;"><line stroke="currentColor" x2="0"></line><text fill="currentColor" x="-3" dy="0.32em">object (simple)    </text></g><g class="tick" opacity="1" transform="translate(0,137.967032967033)" style="font-size: 13px;"><line stroke="currentColor" x2="0"></line><text fill="currentColor" x="-3" dy="0.32em">object (hierarchical)    </text></g><g class="tick" opacity="1" transform="translate(0,226.97802197802199)" style="font-size: 13px;"><line stroke="currentColor" x2="0"></line><text fill="currentColor" x="-3" dy="0.32em">object (recursive)    </text></g><g class="tick" opacity="1" transform="translate(0,315.989010989011)" style="font-size: 13px;"><line stroke="currentColor" x2="0"></line><text fill="currentColor" x="-3" dy="0.32em">object (union, explicit)    </text></g><g class="tick" opacity="1" transform="translate(0,405)" style="font-size: 13px;"><line stroke="currentColor" x2="0"></line><text fill="currentColor" x="-3" dy="0.32em">object (union, implicit)    </text></g><g class="tick" opacity="1" transform="translate(0,494.010989010989)" style="font-size: 13px;"><line stroke="currentColor" x2="0"></line><text fill="currentColor" x="-3" dy="0.32em">array (recursive)    </text></g><g class="tick" opacity="1" transform="translate(0,583.021978021978)" style="font-size: 13px;"><line stroke="currentColor" x2="0"></line><text fill="currentColor" x="-3" dy="0.32em">array (union, explicit)    </text></g><g class="tick" opacity="1" transform="translate(0,672.0329670329671)" style="font-size: 13px;"><line stroke="currentColor" x2="0"></line><text fill="currentColor" x="-3" dy="0.32em">array (union, implicit)    </text></g><g class="tick" opacity="1" transform="translate(0,761.043956043956)" style="font-size: 13px;"><line stroke="currentColor" x2="0"></line><text fill="currentColor" x="-3" dy="0.32em">ultimate union    </text></g></g><g class="x axis" transform="translate(149,855)" fill="none" font-size="10" font-family="sans-serif" text-anchor="middle" style="font-size: 13px;"><path class="domain" stroke="currentColor" d="M0.5,0.5H485.5"></path><g class="tick" opacity="1" transform="translate(0.5,0)" style="font-size: 13px;"><line stroke="currentColor" y2="6"></line><text fill="currentColor" y="9" dy="0.71em">0x</text></g><g class="tick" opacity="1" transform="translate(91.04705996251872,0)" style="font-size: 13px;"><line stroke="currentColor" y2="6"></line><text fill="currentColor" y="9" dy="0.71em">5,000x</text></g><g class="tick" opacity="1" transform="translate(181.59411992503743,0)" style="font-size: 13px;"><line stroke="currentColor" y2="6"></line><text fill="currentColor" y="9" dy="0.71em">10,000x</text></g><g class="tick" opacity="1" transform="translate(272.1411798875562,0)" style="font-size: 13px;"><line stroke="currentColor" y2="6"></line><text fill="currentColor" y="9" dy="0.71em">15,000x</text></g><g class="tick" opacity="1" transform="translate(362.68823985007486,0)" style="font-size: 13px;"><line stroke="currentColor" y2="6"></line><text fill="currentColor" y="9" dy="0.71em">20,000x</text></g><g class="tick" opacity="1" transform="translate(453.23529981259355,0)" style="font-size: 13px;"><line stroke="currentColor" y2="6"></line><text fill="currentColor" y="9" dy="0.71em">25,000x</text></g></g><text transform="translate(400, 30)" style="text-anchor: middle; font-size: 20px; font-weight: bold;">is benchmark</text><rect x="650" y="165" width="230" height="5" fill="gray"></rect><rect x="645" y="35" width="230" height="130" fill="none" stroke="black"></rect><rect x="655" y="45" width="10" height="10" style="fill: #4472c4;"></rect><text x="670" y="55" style="font-size: 12px;">typia</text><rect x="655" y="65" width="10" height="10" style="fill: #ed7d31;"></rect><text x="670" y="75" style="font-size: 12px;">typebox</text><rect x="655" y="85" width="10" height="10" style="fill: #a5a5a5;"></rect><text x="670" y="95" style="font-size: 12px;">ajv</text><rect x="655" y="105" width="10" height="10" style="fill: #ffc000;"></rect><text x="670" y="115" style="font-size: 12px;">io-ts</text><rect x="655" y="125" width="10" height="10" style="fill: #5b9bd5;"></rect><text x="670" y="135" style="font-size: 12px;">zod</text><rect x="655" y="145" width="10" height="10" style="fill: #70ad47;"></rect><text x="670" y="155" style="font-size: 12px;">class-validator</text><text x="20" y="919" style="font-size: 12px;">  - CPU: 11th Gen Intel(R) Core(TM) i5-1135G7 @ 2.40GHz</text><text x="20" y="936" style="font-size: 12px;">  - OS: win32</text><text x="20" y="953" style="font-size: 12px;">  - RAM: 16 GB</text><text x="20" y="970" style="font-size: 12px;">  - NodeJS version: v16.20.0</text><text x="20" y="987" style="font-size: 12px;">  - Typia version: v4.1.1</text><g style="font-size: 13px;"><g style="font-size: 13px;"><rect x="150" y="54.563164108618665" width="440.9090909090909" height="12.579238942875305" fill="#4472c4"></rect><rect x="150" y="67.80446825901373" width="430.1690420958768" height="12.579238942875305" fill="#ed7d31"></rect><rect x="150" y="81.04577240940878" width="17.558609662655478" height="12.579238942875305" fill="#a5a5a5"></rect><rect x="150" y="94.28707655980384" width="1.8768091882256457" height="12.579238942875305" fill="#ffc000"></rect><rect x="150" y="107.5283807101989" width="0.20563255768051933" height="12.579238942875305" fill="#5b9bd5"></rect><rect x="150" y="120.76968486059396" width="0.01810941199250374" height="12.579238942875305" fill="#70ad47"></rect><text class="label" x="599.4090909090909" y="63.063164108618665" font-size="10px">24,347x</text><text class="label" x="588.6690420958769" y="76.30446825901373" font-size="10px">23,754x</text><text class="label" x="176.05860966265547" y="89.54577240940878" font-size="10px">970x</text><text class="label" x="160.37680918822565" y="102.78707655980384" font-size="10px">104x</text><text class="label" x="158.70563255768053" y="116.0283807101989" font-size="10px">11x</text><text class="label" x="158.5181094119925" y="129.26968486059394" font-size="10px">1x</text><text class="label" x="595.9090909090909" y="64.56316410861866" font-size="8px"></text><text class="label" x="585.1690420958769" y="77.80446825901373" font-size="8px"></text><text class="label" x="172.55860966265547" y="91.04577240940878" font-size="8px"></text><text class="label" x="156.87680918822565" y="104.28707655980384" font-size="8px"></text><text class="label" x="155.20563255768053" y="117.5283807101989" font-size="8px"></text><text class="label" x="155.0181094119925" y="130.76968486059394" font-size="8px"></text></g><g style="font-size: 13px;"><rect x="150" y="143.57415311960767" width="37.174562739797835" height="12.579238942875305" fill="#4472c4"></rect><rect x="150" y="156.81545727000272" width="45.190139969822894" height="12.579238942875305" fill="#ed7d31"></rect><rect x="150" y="170.05676142039778" width="8.84218726968326" height="12.579238942875305" fill="#a5a5a5"></rect><rect x="150" y="183.29806557079286" width="1.315243965464592" height="12.579238942875305" fill="#ffc000"></rect><rect x="150" y="196.5393697211879" width="0.06476707610550161" height="12.579238942875305" fill="#5b9bd5"></rect><rect x="150" y="209.78067387158296" width="0.01810941199250374" height="12.579238942875305" fill="#70ad47"></rect><text class="label" x="195.67456273979784" y="152.07415311960767" font-size="10px">2,053x</text><text class="label" x="203.6901399698229" y="165.31545727000272" font-size="10px">2,495x</text><text class="label" x="167.34218726968325" y="178.55676142039778" font-size="10px">488x</text><text class="label" x="159.8152439654646" y="191.79806557079286" font-size="10px">73x</text><text class="label" x="158.5647670761055" y="205.0393697211879" font-size="10px">4x</text><text class="label" x="158.5181094119925" y="218.28067387158296" font-size="10px">1x</text><text class="label" x="192.17456273979784" y="153.57415311960767" font-size="8px"></text><text class="label" x="200.1901399698229" y="166.81545727000272" font-size="8px"></text><text class="label" x="163.84218726968325" y="180.05676142039778" font-size="8px"></text><text class="label" x="156.3152439654646" y="193.29806557079286" font-size="8px"></text><text class="label" x="155.0647670761055" y="206.5393697211879" font-size="8px"></text><text class="label" x="155.0181094119925" y="219.78067387158296" font-size="8px"></text></g><g style="font-size: 13px;"><rect x="150" y="232.5851421305967" width="33.899574086084456" height="12.579238942875305" fill="#4472c4"></rect><rect x="150" y="245.82644628099175" width="38.581045607098375" height="12.579238942875305" fill="#ed7d31"></rect><rect x="150" y="259.0677504313868" width="5.906009899199788" height="12.579238942875305" fill="#a5a5a5"></rect><rect x="150" y="272.3090545817819" width="1.8194890039152074" height="12.579238942875305" fill="#ffc000"></rect><rect x="150" y="285.5503587321769" width="0.01810941199250374" height="12.579238942875305" fill="#5b9bd5"></rect><rect x="150" y="298.791662882572" width="0.022984451979276493" height="12.579238942875305" fill="#70ad47"></rect><text class="label" x="192.39957408608444" y="241.0851421305967" font-size="10px">1,872x</text><text class="label" x="197.08104560709836" y="254.32644628099175" font-size="10px">2,130x</text><text class="label" x="164.40600989919977" y="267.5677504313868" font-size="10px">326x</text><text class="label" x="160.3194890039152" y="280.8090545817819" font-size="10px">100x</text><text class="label" x="158.5181094119925" y="294.0503587321769" font-size="10px">1x</text><text class="label" x="158.52298445197928" y="307.291662882572" font-size="10px">1x</text><text class="label" x="188.89957408608444" y="242.5851421305967" font-size="8px"></text><text class="label" x="193.58104560709836" y="255.82644628099175" font-size="8px"></text><text class="label" x="160.90600989919977" y="269.0677504313868" font-size="8px"></text><text class="label" x="156.8194890039152" y="282.3090545817819" font-size="8px"></text><text class="label" x="155.0181094119925" y="295.5503587321769" font-size="8px"></text><text class="label" x="155.02298445197928" y="308.791662882572" font-size="8px"></text></g><g style="font-size: 13px;"><rect x="150" y="321.59613114158566" width="11.21840291693142" height="12.579238942875305" fill="#4472c4"></rect><rect x="150" y="334.83743529198074" width="8.481116800335007" height="12.579238942875305" fill="#ed7d31"></rect><rect x="150" y="348.07873944237576" width="0.6182588954840396" height="12.579238942875305" fill="#a5a5a5"></rect><rect x="150" y="361.32004359277084" width="2.0447732710060547" height="12.579238942875305" fill="#ffc000"></rect><rect x="150" y="374.5613477431659" width="0.01810941199250374" height="12.579238942875305" fill="#5b9bd5"></rect><rect x="150" y="387.80265189356095" width="0" height="12.579238942875305" fill="#70ad47"></rect><text class="label" x="169.7184029169314" y="330.09613114158566" font-size="10px">619x</text><text class="label" x="166.981116800335" y="343.33743529198074" font-size="10px">468x</text><text class="label" x="159.11825889548405" y="356.57873944237576" font-size="10px">34x</text><text class="label" x="160.54477327100605" y="369.82004359277084" font-size="10px">113x</text><text class="label" x="158.5181094119925" y="383.0613477431659" font-size="10px">1x</text><text class="label" x="158.5" y="396.30265189356095" font-size="10px"></text><text class="label" x="166.2184029169314" y="331.59613114158566" font-size="8px"></text><text class="label" x="163.481116800335" y="344.83743529198074" font-size="8px"></text><text class="label" x="155.61825889548405" y="358.07873944237576" font-size="8px"></text><text class="label" x="157.04477327100605" y="371.32004359277084" font-size="8px"></text><text class="label" x="155.0181094119925" y="384.5613477431659" font-size="8px"></text><text class="label" x="155" y="397.80265189356095" font-size="8px">Failed</text></g><g style="font-size: 13px;"><rect x="150" y="410.6071201525747" width="485" height="12.579238942875305" fill="#4472c4"></rect><rect x="150" y="423.84842430296976" width="0" height="12.579238942875305" fill="#ed7d31"></rect><rect x="150" y="437.08972845336484" width="0" height="12.579238942875305" fill="#a5a5a5"></rect><rect x="150" y="450.33103260375987" width="0" height="12.579238942875305" fill="#ffc000"></rect><rect x="150" y="463.57233675415495" width="0" height="12.579238942875305" fill="#5b9bd5"></rect><rect x="150" y="476.81364090454997" width="0" height="12.579238942875305" fill="#70ad47"></rect><text class="label" x="643.5" y="419.1071201525747" font-size="10px">Infinity</text><text class="label" x="158.5" y="432.34842430296976" font-size="10px"></text><text class="label" x="158.5" y="445.58972845336484" font-size="10px"></text><text class="label" x="158.5" y="458.83103260375987" font-size="10px"></text><text class="label" x="158.5" y="472.07233675415495" font-size="10px"></text><text class="label" x="158.5" y="485.31364090454997" font-size="10px"></text><text class="label" x="640" y="420.6071201525747" font-size="8px"></text><text class="label" x="155" y="433.84842430296976" font-size="8px">Failed</text><text class="label" x="155" y="447.08972845336484" font-size="8px">Failed</text><text class="label" x="155" y="460.33103260375987" font-size="8px">Failed</text><text class="label" x="155" y="473.57233675415495" font-size="8px">Failed</text><text class="label" x="155" y="486.81364090454997" font-size="8px">Failed</text></g><g style="font-size: 13px;"><rect x="150" y="499.6181091635637" width="21.200992524722942" height="12.579238942875305" fill="#4472c4"></rect><rect x="150" y="512.8594133139588" width="24.338759243788314" height="12.579238942875305" fill="#ed7d31"></rect><rect x="150" y="526.1007174643538" width="6.344478170526873" height="12.579238942875305" fill="#a5a5a5"></rect><rect x="150" y="539.3420216147489" width="1.711251905781884" height="12.579238942875305" fill="#ffc000"></rect><rect x="150" y="552.583325765144" width="0.01810941199250374" height="12.579238942875305" fill="#5b9bd5"></rect><rect x="150" y="565.824629915539" width="0.01939383240428961" height="12.579238942875305" fill="#70ad47"></rect><text class="label" x="179.70099252472295" y="508.1181091635637" font-size="10px">1,171x</text><text class="label" x="182.8387592437883" y="521.3594133139588" font-size="10px">1,344x</text><text class="label" x="164.84447817052688" y="534.6007174643538" font-size="10px">350x</text><text class="label" x="160.2112519057819" y="547.8420216147489" font-size="10px">94x</text><text class="label" x="158.5181094119925" y="561.083325765144" font-size="10px">1x</text><text class="label" x="158.5193938324043" y="574.324629915539" font-size="10px">1x</text><text class="label" x="176.20099252472295" y="509.6181091635637" font-size="8px"></text><text class="label" x="179.3387592437883" y="522.8594133139588" font-size="8px"></text><text class="label" x="161.34447817052688" y="536.1007174643538" font-size="8px"></text><text class="label" x="156.7112519057819" y="549.3420216147489" font-size="8px"></text><text class="label" x="155.0181094119925" y="562.583325765144" font-size="8px"></text><text class="label" x="155.0193938324043" y="575.824629915539" font-size="8px"></text></g><g style="font-size: 13px;"><rect x="150" y="588.6290981745527" width="22.98903459272667" height="12.579238942875305" fill="#4472c4"></rect><rect x="150" y="601.8704023249478" width="15.873756433054059" height="12.579238942875305" fill="#ed7d31"></rect><rect x="150" y="615.1117064753429" width="2.2271459013702257" height="12.579238942875305" fill="#a5a5a5"></rect><rect x="150" y="628.353010625738" width="2.7139020366850057" height="12.579238942875305" fill="#ffc000"></rect><rect x="150" y="641.5943147761329" width="0.01810941199250374" height="12.579238942875305" fill="#5b9bd5"></rect><rect x="150" y="654.835618926528" width="0" height="12.579238942875305" fill="#70ad47"></rect><text class="label" x="181.48903459272668" y="597.1290981745527" font-size="10px">1,269x</text><text class="label" x="174.37375643305407" y="610.3704023249478" font-size="10px">877x</text><text class="label" x="160.72714590137022" y="623.6117064753429" font-size="10px">123x</text><text class="label" x="161.213902036685" y="636.853010625738" font-size="10px">150x</text><text class="label" x="158.5181094119925" y="650.0943147761329" font-size="10px">1x</text><text class="label" x="158.5" y="663.335618926528" font-size="10px"></text><text class="label" x="177.98903459272668" y="598.6290981745527" font-size="8px"></text><text class="label" x="170.87375643305407" y="611.8704023249478" font-size="8px"></text><text class="label" x="157.22714590137022" y="625.1117064753429" font-size="8px"></text><text class="label" x="157.713902036685" y="638.353010625738" font-size="8px"></text><text class="label" x="155.0181094119925" y="651.5943147761329" font-size="8px"></text><text class="label" x="155" y="664.835618926528" font-size="8px">Failed</text></g><g style="font-size: 13px;"><rect x="150" y="677.6400871855418" width="485" height="12.579238942875305" fill="#4472c4"></rect><rect x="150" y="690.8813913359369" width="0" height="12.579238942875305" fill="#ed7d31"></rect><rect x="150" y="704.122695486332" width="0" height="12.579238942875305" fill="#a5a5a5"></rect><rect x="150" y="717.363999636727" width="0" height="12.579238942875305" fill="#ffc000"></rect><rect x="150" y="730.605303787122" width="0" height="12.579238942875305" fill="#5b9bd5"></rect><rect x="150" y="743.8466079375171" width="0" height="12.579238942875305" fill="#70ad47"></rect><text class="label" x="643.5" y="686.1400871855418" font-size="10px">Infinity</text><text class="label" x="158.5" y="699.3813913359369" font-size="10px"></text><text class="label" x="158.5" y="712.622695486332" font-size="10px"></text><text class="label" x="158.5" y="725.863999636727" font-size="10px"></text><text class="label" x="158.5" y="739.105303787122" font-size="10px"></text><text class="label" x="158.5" y="752.3466079375171" font-size="10px"></text><text class="label" x="640" y="687.6400871855418" font-size="8px"></text><text class="label" x="155" y="700.8813913359369" font-size="8px">Failed</text><text class="label" x="155" y="714.122695486332" font-size="8px">Failed</text><text class="label" x="155" y="727.363999636727" font-size="8px">Failed</text><text class="label" x="155" y="740.605303787122" font-size="8px">Failed</text><text class="label" x="155" y="753.8466079375171" font-size="8px">Failed</text></g><g style="font-size: 13px;"><rect x="150" y="766.6510761965307" width="485" height="12.579238942875305" fill="#4472c4"></rect><rect x="150" y="779.8923803469257" width="0" height="12.579238942875305" fill="#ed7d31"></rect><rect x="150" y="793.1336844973208" width="0" height="12.579238942875305" fill="#a5a5a5"></rect><rect x="150" y="806.3749886477159" width="0" height="12.579238942875305" fill="#ffc000"></rect><rect x="150" y="819.6162927981109" width="0" height="12.579238942875305" fill="#5b9bd5"></rect><rect x="150" y="832.8575969485059" width="0" height="12.579238942875305" fill="#70ad47"></rect><text class="label" x="643.5" y="775.1510761965307" font-size="10px">Infinity</text><text class="label" x="158.5" y="788.3923803469257" font-size="10px"></text><text class="label" x="158.5" y="801.6336844973208" font-size="10px"></text><text class="label" x="158.5" y="814.8749886477159" font-size="10px"></text><text class="label" x="158.5" y="828.1162927981109" font-size="10px"></text><text class="label" x="158.5" y="841.3575969485059" font-size="10px"></text><text class="label" x="640" y="776.6510761965307" font-size="8px"></text><text class="label" x="155" y="789.8923803469257" font-size="8px">Failed</text><text class="label" x="155" y="803.1336844973208" font-size="8px">Failed</text><text class="label" x="155" y="816.3749886477159" font-size="8px">Failed</text><text class="label" x="155" y="829.6162927981109" font-size="8px">Failed</text><text class="label" x="155" y="842.8575969485059" font-size="8px">Failed</text></g></g></svg>