<svg xmlns="http://www.w3.org/2000/svg" xmlns:xlink="http://www.w3.org/1999/xlink" width="800" height="555" style="background-color: white;"><g class="y axis" transform="translate(149,45)" fill="none" font-size="10" font-family="sans-serif" text-anchor="end" style="font-size: 13px;"><path class="domain" stroke="currentColor" d="M0.5,0.5V480.5"></path><g class="tick" opacity="1" transform="translate(0,32.592592592592595)" style="font-size: 13px;"><line stroke="currentColor" x2="0"></line><text fill="currentColor" x="-3" dy="0.32em">object (simple)    </text></g><g class="tick" opacity="1" transform="translate(0,91.85185185185186)" style="font-size: 13px;"><line stroke="currentColor" x2="0"></line><text fill="currentColor" x="-3" dy="0.32em">object (hierarchical)    </text></g><g class="tick" opacity="1" transform="translate(0,151.11111111111111)" style="font-size: 13px;"><line stroke="currentColor" x2="0"></line><text fill="currentColor" x="-3" dy="0.32em">object (recursive)    </text></g><g class="tick" opacity="1" transform="translate(0,210.37037037037035)" style="font-size: 13px;"><line stroke="currentColor" x2="0"></line><text fill="currentColor" x="-3" dy="0.32em">object (union, explicit)    </text></g><g class="tick" opacity="1" transform="translate(0,269.6296296296296)" style="font-size: 13px;"><line stroke="currentColor" x2="0"></line><text fill="currentColor" x="-3" dy="0.32em">array (simple)    </text></g><g class="tick" opacity="1" transform="translate(0,328.8888888888889)" style="font-size: 13px;"><line stroke="currentColor" x2="0"></line><text fill="currentColor" x="-3" dy="0.32em">array (hierarchical)    </text></g><g class="tick" opacity="1" transform="translate(0,388.14814814814815)" style="font-size: 13px;"><line stroke="currentColor" x2="0"></line><text fill="currentColor" x="-3" dy="0.32em">array (recursive)    </text></g><g class="tick" opacity="1" transform="translate(0,447.40740740740745)" style="font-size: 13px;"><line stroke="currentColor" x2="0"></line><text fill="currentColor" x="-3" dy="0.32em">array (union, explicit)    </text></g></g><g class="x axis" transform="translate(149,525)" fill="none" font-size="10" font-family="sans-serif" text-anchor="middle" style="font-size: 13px;"><path class="domain" stroke="currentColor" d="M0.5,0.5H485.5"></path><g class="tick" opacity="1" transform="translate(0.5,0)" style="font-size: 13px;"><line stroke="currentColor" y2="6"></line><text fill="currentColor" y="9" dy="0.71em">0x</text></g><g class="tick" opacity="1" transform="translate(73.38099556589101,0)" style="font-size: 13px;"><line stroke="currentColor" y2="6"></line><text fill="currentColor" y="9" dy="0.71em">200,000x</text></g><g class="tick" opacity="1" transform="translate(146.26199113178203,0)" style="font-size: 13px;"><line stroke="currentColor" y2="6"></line><text fill="currentColor" y="9" dy="0.71em">400,000x</text></g><g class="tick" opacity="1" transform="translate(219.14298669767305,0)" style="font-size: 13px;"><line stroke="currentColor" y2="6"></line><text fill="currentColor" y="9" dy="0.71em">600,000x</text></g><g class="tick" opacity="1" transform="translate(292.02398226356405,0)" style="font-size: 13px;"><line stroke="currentColor" y2="6"></line><text fill="currentColor" y="9" dy="0.71em">800,000x</text></g><g class="tick" opacity="1" transform="translate(364.9049778294551,0)" style="font-size: 13px;"><line stroke="currentColor" y2="6"></line><text fill="currentColor" y="9" dy="0.71em">1,000,000x</text></g><g class="tick" opacity="1" transform="translate(437.7859733953461,0)" style="font-size: 13px;"><line stroke="currentColor" y2="6"></line><text fill="currentColor" y="9" dy="0.71em">1,200,000x</text></g></g><text transform="translate(400, 30)" style="text-anchor: middle; font-size: 20px; font-weight: bold;">optimizer benchmark</text><rect x="650" y="125" width="230" height="5" fill="gray"></rect><rect x="645" y="35" width="230" height="90" fill="none" stroke="black"></rect><rect x="655" y="45" width="10" height="10" style="fill: #4472c4;"></rect><text x="670" y="55" style="font-size: 12px;">typia</text><rect x="655" y="65" width="10" height="10" style="fill: #ed7d31;"></rect><text x="670" y="75" style="font-size: 12px;">typebox</text><rect x="655" y="85" width="10" height="10" style="fill: #a5a5a5;"></rect><text x="670" y="95" style="font-size: 12px;">ajv</text><rect x="655" y="105" width="10" height="10" style="fill: #ffc000;"></rect><text x="670" y="115" style="font-size: 12px;">class-validator</text><g style="font-size: 13px;"><g style="font-size: 13px;"><rect x="150" y="51.584362139917694" width="440.9090909090908" height="12.510288065843621" fill="#4472c4"></rect><rect x="150" y="64.75308641975309" width="0.02328611677718375" height="12.510288065843621" fill="#ed7d31"></rect><rect x="150" y="77.92181069958848" width="0.0003644049778294551" height="12.510288065843621" fill="#a5a5a5"></rect><rect x="150" y="91.09053497942386" width="0.019888512342652882" height="12.510288065843621" fill="#ffc000"></rect><text class="label" x="599.4090909090908" y="60.084362139917694" font-size="10px">1,209,943x</text><text class="label" x="158.52328611677717" y="73.25308641975309" font-size="10px">64x</text><text class="label" x="158.50036440497783" y="86.42181069958848" font-size="10px">1x</text><text class="label" x="158.51988851234265" y="99.59053497942386" font-size="10px">55x</text><text class="label" x="595.9090909090908" y="61.584362139917694" font-size="8px"></text><text class="label" x="155.02328611677717" y="74.75308641975309" font-size="8px"></text><text class="label" x="155.00036440497783" y="87.92181069958848" font-size="8px"></text><text class="label" x="155.01988851234265" y="101.09053497942386" font-size="8px"></text></g><g style="font-size: 13px;"><rect x="150" y="110.84362139917695" width="19.860801155587126" height="12.510288065843621" fill="#4472c4"></rect><rect x="150" y="124.01234567901236" width="0.009130157382404119" height="12.510288065843621" fill="#ed7d31"></rect><rect x="150" y="137.18106995884773" width="0.0003644049778294551" height="12.510288065843621" fill="#a5a5a5"></rect><rect x="150" y="150.34979423868313" width="0.006848132342554207" height="12.510288065843621" fill="#ffc000"></rect><text class="label" x="178.36080115558713" y="119.34362139917695" font-size="10px">54,502x</text><text class="label" x="158.5091301573824" y="132.51234567901236" font-size="10px">25x</text><text class="label" x="158.50036440497783" y="145.68106995884773" font-size="10px">1x</text><text class="label" x="158.50684813234255" y="158.84979423868313" font-size="10px">19x</text><text class="label" x="174.86080115558713" y="120.84362139917695" font-size="8px"></text><text class="label" x="155.0091301573824" y="134.01234567901236" font-size="8px"></text><text class="label" x="155.00036440497783" y="147.18106995884773" font-size="8px"></text><text class="label" x="155.00684813234255" y="160.34979423868313" font-size="8px"></text></g><g style="font-size: 13px;"><rect x="150" y="170.10288065843622" width="6.159248170974154" height="12.510288065843621" fill="#4472c4"></rect><rect x="150" y="183.2716049382716" width="0.025572865348670277" height="12.510288065843621" fill="#ed7d31"></rect><rect x="150" y="196.440329218107" width="0.0003644049778294551" height="12.510288065843621" fill="#a5a5a5"></rect><rect x="150" y="209.6090534979424" width="0.003740931834287578" height="12.510288065843621" fill="#ffc000"></rect><text class="label" x="164.65924817097417" y="178.60288065843622" font-size="10px">16,902x</text><text class="label" x="158.52557286534866" y="191.7716049382716" font-size="10px">70x</text><text class="label" x="158.50036440497783" y="204.940329218107" font-size="10px">1x</text><text class="label" x="158.5037409318343" y="218.1090534979424" font-size="10px">10x</text><text class="label" x="161.15924817097417" y="180.10288065843622" font-size="8px"></text><text class="label" x="155.02557286534866" y="193.2716049382716" font-size="8px"></text><text class="label" x="155.00036440497783" y="206.440329218107" font-size="8px"></text><text class="label" x="155.0037409318343" y="219.6090534979424" font-size="8px"></text></g><g style="font-size: 13px;"><rect x="150" y="229.36213991769546" width="1.8374466612116394" height="12.510288065843621" fill="#4472c4"></rect><rect x="150" y="242.53086419753086" width="0.009630815913748822" height="12.510288065843621" fill="#ed7d31"></rect><rect x="150" y="255.69958847736626" width="0.0003644049778294551" height="12.510288065843621" fill="#a5a5a5"></rect><rect x="150" y="268.86831275720164" width="0.0058344551241914415" height="12.510288065843621" fill="#ffc000"></rect><text class="label" x="160.33744666121163" y="237.86213991769546" font-size="10px">5,042x</text><text class="label" x="158.50963081591374" y="251.03086419753086" font-size="10px">26x</text><text class="label" x="158.50036440497783" y="264.19958847736626" font-size="10px">1x</text><text class="label" x="158.5058344551242" y="277.36831275720164" font-size="10px">16x</text><text class="label" x="156.83744666121163" y="239.36213991769546" font-size="8px"></text><text class="label" x="155.00963081591374" y="252.53086419753086" font-size="8px"></text><text class="label" x="155.00036440497783" y="265.69958847736626" font-size="8px"></text><text class="label" x="155.0058344551242" y="278.86831275720164" font-size="8px"></text></g><g style="font-size: 13px;"><rect x="150" y="288.6213991769547" width="3.9650211417008494" height="12.510288065843621" fill="#4472c4"></rect><rect x="150" y="301.7901234567901" width="0.0291858359395773" height="12.510288065843621" fill="#ed7d31"></rect><rect x="150" y="314.9588477366255" width="0.0003644049778294551" height="12.510288065843621" fill="#a5a5a5"></rect><rect x="150" y="328.12757201646093" width="0.0033183440909854457" height="12.510288065843621" fill="#ffc000"></rect><text class="label" x="162.46502114170084" y="297.1213991769547" font-size="10px">10,881x</text><text class="label" x="158.5291858359396" y="310.2901234567901" font-size="10px">80x</text><text class="label" x="158.50036440497783" y="323.4588477366255" font-size="10px">1x</text><text class="label" x="158.50331834409099" y="336.62757201646093" font-size="10px">9x</text><text class="label" x="158.96502114170084" y="298.6213991769547" font-size="8px"></text><text class="label" x="155.0291858359396" y="311.7901234567901" font-size="8px"></text><text class="label" x="155.00036440497783" y="324.9588477366255" font-size="8px"></text><text class="label" x="155.00331834409099" y="338.12757201646093" font-size="8px"></text></g><g style="font-size: 13px;"><rect x="150" y="347.880658436214" width="1.085447602742494" height="12.510288065843621" fill="#4472c4"></rect><rect x="150" y="361.04938271604937" width="0.02636501164059408" height="12.510288065843621" fill="#ed7d31"></rect><rect x="150" y="374.2181069958848" width="0.0004836056484455325" height="12.510288065843621" fill="#a5a5a5"></rect><rect x="150" y="387.38683127572017" width="0.0003644049778294551" height="12.510288065843621" fill="#ffc000"></rect><text class="label" x="159.5854476027425" y="356.380658436214" font-size="10px">2,979x</text><text class="label" x="158.5263650116406" y="369.54938271604937" font-size="10px">72x</text><text class="label" x="158.50048360564844" y="382.7181069958848" font-size="10px">1x</text><text class="label" x="158.50036440497783" y="395.88683127572017" font-size="10px">1x</text><text class="label" x="156.0854476027425" y="357.880658436214" font-size="8px"></text><text class="label" x="155.0263650116406" y="371.04938271604937" font-size="8px"></text><text class="label" x="155.00048360564844" y="384.2181069958848" font-size="8px"></text><text class="label" x="155.00036440497783" y="397.38683127572017" font-size="8px"></text></g><g style="font-size: 13px;"><rect x="150" y="407.13991769547323" width="0.6155958771724503" height="12.510288065843621" fill="#4472c4"></rect><rect x="150" y="420.3086419753086" width="0.03471693812871826" height="12.510288065843621" fill="#ed7d31"></rect><rect x="150" y="433.47736625514403" width="0.00040160130235370616" height="12.510288065843621" fill="#a5a5a5"></rect><rect x="150" y="446.6460905349794" width="0.0003644049778294551" height="12.510288065843621" fill="#ffc000"></rect><text class="label" x="159.11559587717244" y="415.63991769547323" font-size="10px">1,689x</text><text class="label" x="158.53471693812872" y="428.8086419753086" font-size="10px">95x</text><text class="label" x="158.50040160130234" y="441.97736625514403" font-size="10px">1x</text><text class="label" x="158.50036440497783" y="455.1460905349794" font-size="10px">1x</text><text class="label" x="155.61559587717244" y="417.13991769547323" font-size="8px"></text><text class="label" x="155.03471693812872" y="430.3086419753086" font-size="8px"></text><text class="label" x="155.00040160130234" y="443.47736625514403" font-size="8px"></text><text class="label" x="155.00036440497783" y="456.6460905349794" font-size="8px"></text></g><g style="font-size: 13px;"><rect x="150" y="466.3991769547325" width="0.48484009228505" height="12.510288065843621" fill="#4472c4"></rect><rect x="150" y="479.5679012345679" width="0.013370817291862763" height="12.510288065843621" fill="#ed7d31"></rect><rect x="150" y="492.73662551440333" width="0.0003644049778294551" height="12.510288065843621" fill="#a5a5a5"></rect><rect x="150" y="505.9053497942387" width="0.0019034104645378244" height="12.510288065843621" fill="#ffc000"></rect><text class="label" x="158.98484009228505" y="474.8991769547325" font-size="10px">1,330x</text><text class="label" x="158.51337081729187" y="488.0679012345679" font-size="10px">37x</text><text class="label" x="158.50036440497783" y="501.23662551440333" font-size="10px">1x</text><text class="label" x="158.50190341046454" y="514.4053497942386" font-size="10px">5x</text><text class="label" x="155.48484009228505" y="476.3991769547325" font-size="8px"></text><text class="label" x="155.01337081729187" y="489.5679012345679" font-size="8px"></text><text class="label" x="155.00036440497783" y="502.73662551440333" font-size="8px"></text><text class="label" x="155.00190341046454" y="515.9053497942386" font-size="8px"></text></g></g></svg>