<svg xmlns="http://www.w3.org/2000/svg" xmlns:xlink="http://www.w3.org/1999/xlink" width="800" height="390" style="background-color: white;"><g class="y axis" transform="translate(149,45)" fill="none" font-size="10" font-family="sans-serif" text-anchor="end" style="font-size: 13px;"><path class="domain" stroke="#000" d="M0,0.5H0.5V315.5H0"></path><g class="tick" opacity="1" transform="translate(0,24.40140845070425)" style="font-size: 13px;"><line stroke="#000" x2="0"></line><text fill="#000" x="-3" dy="0.32em">object (hierarchical)    </text></g><g class="tick" opacity="1" transform="translate(0,68.76760563380283)" style="font-size: 13px;"><line stroke="#000" x2="0"></line><text fill="#000" x="-3" dy="0.32em">object (recursive)    </text></g><g class="tick" opacity="1" transform="translate(0,113.13380281690142)" style="font-size: 13px;"><line stroke="#000" x2="0"></line><text fill="#000" x="-3" dy="0.32em">object (union)    </text></g><g class="tick" opacity="1" transform="translate(0,157.5)" style="font-size: 13px;"><line stroke="#000" x2="0"></line><text fill="#000" x="-3" dy="0.32em">array (hierarchical)    </text></g><g class="tick" opacity="1" transform="translate(0,201.8661971830986)" style="font-size: 13px;"><line stroke="#000" x2="0"></line><text fill="#000" x="-3" dy="0.32em">array (recursive)    </text></g><g class="tick" opacity="1" transform="translate(0,246.23239436619718)" style="font-size: 13px;"><line stroke="#000" x2="0"></line><text fill="#000" x="-3" dy="0.32em">array (union)    </text></g><g class="tick" opacity="1" transform="translate(0,290.59859154929575)" style="font-size: 13px;"><line stroke="#000" x2="0"></line><text fill="#000" x="-3" dy="0.32em">ultimate union    </text></g></g><g class="x axis" transform="translate(149,360)" fill="none" font-size="10" font-family="sans-serif" text-anchor="middle" style="font-size: 13px;"><path class="domain" stroke="#000" d="M0.5,0V0.5H485.5V0"></path><g class="tick" opacity="1" transform="translate(0.5,0)" style="font-size: 13px;"><line stroke="#000" y2="6"></line><text fill="#000" y="9" dy="0.71em">0x</text></g><g class="tick" opacity="1" transform="translate(103.23154811929852,0)" style="font-size: 13px;"><line stroke="#000" y2="6"></line><text fill="#000" y="9" dy="0.71em">5,000x</text></g><g class="tick" opacity="1" transform="translate(205.96309623859705,0)" style="font-size: 13px;"><line stroke="#000" y2="6"></line><text fill="#000" y="9" dy="0.71em">10,000x</text></g><g class="tick" opacity="1" transform="translate(308.6946443578956,0)" style="font-size: 13px;"><line stroke="#000" y2="6"></line><text fill="#000" y="9" dy="0.71em">15,000x</text></g><g class="tick" opacity="1" transform="translate(411.4261924771941,0)" style="font-size: 13px;"><line stroke="#000" y2="6"></line><text fill="#000" y="9" dy="0.71em">20,000x</text></g></g><text transform="translate(400, 30)" style="text-anchor: middle; font-size: 20px; font-weight: bold;">optimizer benchmark</text><rect x="680" y="105" width="200" height="5" fill="gray"></rect><rect x="675" y="35" width="200" height="70" fill="none" stroke="black"></rect><rect x="685" y="45" width="10" height="10" style="fill: #4472c4;"></rect><text x="700" y="55" style="font-size: 12px;">typescript-json</text><rect x="685" y="65" width="10" height="10" style="fill: #ed7d31;"></rect><text x="700" y="75" style="font-size: 12px;">typebox</text><rect x="685" y="85" width="10" height="10" style="fill: #a5a5a5;"></rect><text x="700" y="95" style="font-size: 12px;">ajv</text><g style="font-size: 13px;"><g style="font-size: 13px;"><rect x="150" y="50.091202955437566" width="440.9090909090908" height="12.437081505425995" fill="#4472c4"></rect><rect x="150" y="63.18286769799125" width="0.7402129460470296" height="12.437081505425995" fill="#ed7d31"></rect><rect x="150" y="76.27453244054493" width="0.020546309623859706" height="12.437081505425995" fill="#a5a5a5"></rect><text class="label" x="599.4090909090908" y="58.591202955437566" font-size="10px">21,459x</text><text class="label" x="159.24021294604702" y="71.68286769799124" font-size="10px">36x</text><text class="label" x="158.52054630962385" y="84.77453244054493" font-size="10px">1x</text></g><g style="font-size: 13px;"><rect x="150" y="94.45740013853616" width="196.8401742359215" height="12.437081505425995" fill="#4472c4"></rect><rect x="150" y="107.54906488108983" width="1.7314891152373835" height="12.437081505425995" fill="#ed7d31"></rect><rect x="150" y="120.64072962364352" width="0.020546309623859706" height="12.437081505425995" fill="#a5a5a5"></rect><text class="label" x="355.3401742359215" y="102.95740013853616" font-size="10px">9,580x</text><text class="label" x="160.2314891152374" y="116.04906488108983" font-size="10px">84x</text><text class="label" x="158.52054630962385" y="129.14072962364352" font-size="10px">1x</text></g><g style="font-size: 13px;"><rect x="150" y="138.82359732163474" width="90.83914780772749" height="12.437081505425995" fill="#4472c4"></rect><rect x="150" y="151.91526206418843" width="0.41128338669161213" height="12.437081505425995" fill="#ed7d31"></rect><rect x="150" y="165.00692680674211" width="0.020546309623859706" height="12.437081505425995" fill="#a5a5a5"></rect><text class="label" x="249.3391478077275" y="147.32359732163474" font-size="10px">4,421x</text><text class="label" x="158.91128338669162" y="160.41526206418843" font-size="10px">20x</text><text class="label" x="158.52054630962385" y="173.50692680674211" font-size="10px">1x</text></g><g style="font-size: 13px;"><rect x="150" y="183.18979450473333" width="19.644947143365474" height="12.437081505425995" fill="#4472c4"></rect><rect x="150" y="196.281459247287" width="3.017545963367957" height="12.437081505425995" fill="#ed7d31"></rect><rect x="150" y="209.37312398984068" width="0.020546309623859706" height="12.437081505425995" fill="#a5a5a5"></rect><text class="label" x="178.14494714336547" y="191.68979450473333" font-size="10px">956x</text><text class="label" x="161.51754596336795" y="204.781459247287" font-size="10px">147x</text><text class="label" x="158.52054630962385" y="217.87312398984068" font-size="10px">1x</text></g><g style="font-size: 13px;"><rect x="150" y="227.55599168783192" width="16.685911041140038" height="12.437081505425995" fill="#4472c4"></rect><rect x="150" y="240.64765643038558" width="1.7095321062501794" height="12.437081505425995" fill="#ed7d31"></rect><rect x="150" y="253.73932117293927" width="0.020546309623859706" height="12.437081505425995" fill="#a5a5a5"></rect><text class="label" x="175.18591104114003" y="236.05599168783192" font-size="10px">812x</text><text class="label" x="160.20953210625018" y="249.14765643038558" font-size="10px">83x</text><text class="label" x="158.52054630962385" y="262.2393211729393" font-size="10px">1x</text></g><g style="font-size: 13px;"><rect x="150" y="271.92218887093054" width="13.82491260063716" height="12.437081505425995" fill="#4472c4"></rect><rect x="150" y="285.0138536134842" width="0.7682295156090446" height="12.437081505425995" fill="#ed7d31"></rect><rect x="150" y="298.10551835603786" width="0.020546309623859706" height="12.437081505425995" fill="#a5a5a5"></rect><text class="label" x="172.32491260063716" y="280.42218887093054" font-size="10px">673x</text><text class="label" x="159.26822951560905" y="293.5138536134842" font-size="10px">37x</text><text class="label" x="158.52054630962385" y="306.60551835603786" font-size="10px">1x</text></g><g style="font-size: 13px;"><rect x="150" y="316.28838605402905" width="12.127132101173027" height="12.437081505425995" fill="#4472c4"></rect><rect x="150" y="329.38005079658274" width="0.23058569829380793" height="12.437081505425995" fill="#ed7d31"></rect><rect x="150" y="342.4717155391364" width="0.020546309623859706" height="12.437081505425995" fill="#a5a5a5"></rect><text class="label" x="170.62713210117303" y="324.78838605402905" font-size="10px">590x</text><text class="label" x="158.7305856982938" y="337.88005079658274" font-size="10px">11x</text><text class="label" x="158.52054630962385" y="350.9717155391364" font-size="10px">1x</text></g></g></svg>