<svg xmlns="http://www.w3.org/2000/svg" xmlns:xlink="http://www.w3.org/1999/xlink" width="800" height="390" style="background-color: white;"><g class="y axis" transform="translate(149,45)" fill="none" font-size="10" font-family="sans-serif" text-anchor="end" style="font-size: 13px;"><path class="domain" stroke="currentColor" d="M0.5,0.5V315.5"></path><g class="tick" opacity="1" transform="translate(0,24.40140845070425)" style="font-size: 13px;"><line stroke="currentColor" x2="0"></line><text fill="currentColor" x="-3" dy="0.32em">object (hierarchical)    </text></g><g class="tick" opacity="1" transform="translate(0,68.76760563380283)" style="font-size: 13px;"><line stroke="currentColor" x2="0"></line><text fill="currentColor" x="-3" dy="0.32em">object (recursive)    </text></g><g class="tick" opacity="1" transform="translate(0,113.13380281690142)" style="font-size: 13px;"><line stroke="currentColor" x2="0"></line><text fill="currentColor" x="-3" dy="0.32em">object (union)    </text></g><g class="tick" opacity="1" transform="translate(0,157.5)" style="font-size: 13px;"><line stroke="currentColor" x2="0"></line><text fill="currentColor" x="-3" dy="0.32em">array (hierarchical)    </text></g><g class="tick" opacity="1" transform="translate(0,201.8661971830986)" style="font-size: 13px;"><line stroke="currentColor" x2="0"></line><text fill="currentColor" x="-3" dy="0.32em">array (recursive)    </text></g><g class="tick" opacity="1" transform="translate(0,246.23239436619718)" style="font-size: 13px;"><line stroke="currentColor" x2="0"></line><text fill="currentColor" x="-3" dy="0.32em">array (union)    </text></g><g class="tick" opacity="1" transform="translate(0,290.59859154929575)" style="font-size: 13px;"><line stroke="currentColor" x2="0"></line><text fill="currentColor" x="-3" dy="0.32em">ultimate union    </text></g></g><g class="x axis" transform="translate(149,360)" fill="none" font-size="10" font-family="sans-serif" text-anchor="middle" style="font-size: 13px;"><path class="domain" stroke="currentColor" d="M0.5,0.5H485.5"></path><g class="tick" opacity="1" transform="translate(0.5,0)" style="font-size: 13px;"><line stroke="currentColor" y2="6"></line><text fill="currentColor" y="9" dy="0.71em">0x</text></g><g class="tick" opacity="1" transform="translate(107.18555148588646,0)" style="font-size: 13px;"><line stroke="currentColor" y2="6"></line><text fill="currentColor" y="9" dy="0.71em">10,000x</text></g><g class="tick" opacity="1" transform="translate(213.87110297177293,0)" style="font-size: 13px;"><line stroke="currentColor" y2="6"></line><text fill="currentColor" y="9" dy="0.71em">20,000x</text></g><g class="tick" opacity="1" transform="translate(320.5566544576595,0)" style="font-size: 13px;"><line stroke="currentColor" y2="6"></line><text fill="currentColor" y="9" dy="0.71em">30,000x</text></g><g class="tick" opacity="1" transform="translate(427.24220594354586,0)" style="font-size: 13px;"><line stroke="currentColor" y2="6"></line><text fill="currentColor" y="9" dy="0.71em">40,000x</text></g></g><text transform="translate(400, 30)" style="text-anchor: middle; font-size: 20px; font-weight: bold;">optimizer benchmark</text><rect x="650" y="105" width="230" height="5" fill="gray"></rect><rect x="645" y="35" width="230" height="70" fill="none" stroke="black"></rect><rect x="655" y="45" width="10" height="10" style="fill: #4472c4;"></rect><text x="670" y="55" style="font-size: 12px;">typia</text><rect x="655" y="65" width="10" height="10" style="fill: #ed7d31;"></rect><text x="670" y="75" style="font-size: 12px;">typebox</text><rect x="655" y="85" width="10" height="10" style="fill: #a5a5a5;"></rect><text x="670" y="95" style="font-size: 12px;">ajv</text><g style="font-size: 13px;"><g style="font-size: 13px;"><rect x="150" y="50.091202955437566" width="440.9090909090908" height="12.437081505425995" fill="#4472c4"></rect><rect x="150" y="63.18286769799125" width="0.3304425684190827" height="12.437081505425995" fill="#ed7d31"></rect><rect x="150" y="76.27453244054493" width="0.010668555148588648" height="12.437081505425995" fill="#a5a5a5"></rect><text class="label" x="599.4090909090908" y="58.591202955437566" font-size="10px">41,328x</text><text class="label" x="158.83044256841907" y="71.68286769799124" font-size="10px">31x</text><text class="label" x="158.51066855514858" y="84.77453244054493" font-size="10px">1x</text><text class="label" x="595.9090909090908" y="60.091202955437566" font-size="8px"></text><text class="label" x="155.33044256841907" y="73.18286769799124" font-size="8px"></text><text class="label" x="155.01066855514858" y="86.27453244054493" font-size="8px"></text></g><g style="font-size: 13px;"><rect x="150" y="94.45740013853616" width="125.5231981488011" height="12.437081505425995" fill="#4472c4"></rect><rect x="150" y="107.54906488108983" width="0.7787769585210059" height="12.437081505425995" fill="#ed7d31"></rect><rect x="150" y="120.64072962364352" width="0.010668555148588648" height="12.437081505425995" fill="#a5a5a5"></rect><text class="label" x="284.0231981488011" y="102.95740013853616" font-size="10px">11,766x</text><text class="label" x="159.278776958521" y="116.04906488108983" font-size="10px">73x</text><text class="label" x="158.51066855514858" y="129.14072962364352" font-size="10px">1x</text><text class="label" x="280.5231981488011" y="104.45740013853616" font-size="8px"></text><text class="label" x="155.778776958521" y="117.54906488108983" font-size="8px"></text><text class="label" x="155.01066855514858" y="130.64072962364352" font-size="8px"></text></g><g style="font-size: 13px;"><rect x="150" y="138.82359732163474" width="31.93314901109314" height="12.437081505425995" fill="#4472c4"></rect><rect x="150" y="151.91526206418843" width="0.1935568823879548" height="12.437081505425995" fill="#ed7d31"></rect><rect x="150" y="165.00692680674211" width="0.010668555148588648" height="12.437081505425995" fill="#a5a5a5"></rect><text class="label" x="190.43314901109315" y="147.32359732163474" font-size="10px">2,993x</text><text class="label" x="158.69355688238795" y="160.41526206418843" font-size="10px">18x</text><text class="label" x="158.51066855514858" y="173.50692680674211" font-size="10px">1x</text><text class="label" x="186.93314901109315" y="148.82359732163474" font-size="8px"></text><text class="label" x="155.19355688238795" y="161.91526206418843" font-size="8px"></text><text class="label" x="155.01066855514858" y="175.00692680674211" font-size="8px"></text></g><g style="font-size: 13px;"><rect x="150" y="183.18979450473333" width="12.353846563514626" height="12.437081505425995" fill="#4472c4"></rect><rect x="150" y="196.281459247287" width="1.2706439655753126" height="12.437081505425995" fill="#ed7d31"></rect><rect x="150" y="209.37312398984068" width="0.010668555148588648" height="12.437081505425995" fill="#a5a5a5"></rect><text class="label" x="170.85384656351462" y="191.68979450473333" font-size="10px">1,158x</text><text class="label" x="159.77064396557532" y="204.781459247287" font-size="10px">119x</text><text class="label" x="158.51066855514858" y="217.87312398984068" font-size="10px">1x</text><text class="label" x="167.35384656351462" y="193.18979450473333" font-size="8px"></text><text class="label" x="156.27064396557532" y="206.281459247287" font-size="8px"></text><text class="label" x="155.01066855514858" y="219.37312398984068" font-size="8px"></text></g><g style="font-size: 13px;"><rect x="150" y="227.55599168783192" width="7.878006136277129" height="12.437081505425995" fill="#4472c4"></rect><rect x="150" y="240.64765643038558" width="0.7475142672741117" height="12.437081505425995" fill="#ed7d31"></rect><rect x="150" y="253.73932117293927" width="0.010668555148588648" height="12.437081505425995" fill="#a5a5a5"></rect><text class="label" x="166.37800613627712" y="236.05599168783192" font-size="10px">738x</text><text class="label" x="159.2475142672741" y="249.14765643038558" font-size="10px">70x</text><text class="label" x="158.51066855514858" y="262.2393211729393" font-size="10px">1x</text><text class="label" x="162.87800613627712" y="237.55599168783192" font-size="8px"></text><text class="label" x="155.7475142672741" y="250.64765643038558" font-size="8px"></text><text class="label" x="155.01066855514858" y="263.7393211729393" font-size="8px"></text></g><g style="font-size: 13px;"><rect x="150" y="271.92218887093054" width="7.241484802868473" height="12.437081505425995" fill="#4472c4"></rect><rect x="150" y="285.0138536134842" width="0.36198737571977213" height="12.437081505425995" fill="#ed7d31"></rect><rect x="150" y="298.10551835603786" width="0.010668555148588648" height="12.437081505425995" fill="#a5a5a5"></rect><text class="label" x="165.74148480286848" y="280.42218887093054" font-size="10px">679x</text><text class="label" x="158.86198737571976" y="293.5138536134842" font-size="10px">34x</text><text class="label" x="158.51066855514858" y="306.60551835603786" font-size="10px">1x</text><text class="label" x="162.24148480286848" y="281.92218887093054" font-size="8px"></text><text class="label" x="155.36198737571976" y="295.0138536134842" font-size="8px"></text><text class="label" x="155.01066855514858" y="308.10551835603786" font-size="8px"></text></g><g style="font-size: 13px;"><rect x="150" y="316.28838605402905" width="6.232493132955455" height="12.437081505425995" fill="#4472c4"></rect><rect x="150" y="329.38005079658274" width="0.1275554371781283" height="12.437081505425995" fill="#ed7d31"></rect><rect x="150" y="342.4717155391364" width="0.010668555148588648" height="12.437081505425995" fill="#a5a5a5"></rect><text class="label" x="164.73249313295545" y="324.78838605402905" font-size="10px">584x</text><text class="label" x="158.62755543717813" y="337.88005079658274" font-size="10px">12x</text><text class="label" x="158.51066855514858" y="350.9717155391364" font-size="10px">1x</text><text class="label" x="161.23249313295545" y="326.28838605402905" font-size="8px"></text><text class="label" x="155.12755543717813" y="339.38005079658274" font-size="8px"></text><text class="label" x="155.01066855514858" y="352.4717155391364" font-size="8px"></text></g></g></svg>