<svg xmlns="http://www.w3.org/2000/svg" xmlns:xlink="http://www.w3.org/1999/xlink" width="800" height="390" style="background-color: white;"><g class="y axis" transform="translate(149,45)" fill="none" font-size="10" font-family="sans-serif" text-anchor="end" style="font-size: 13px;"><path class="domain" stroke="currentColor" d="M0.5,0.5V315.5"></path><g class="tick" opacity="1" transform="translate(0,24.40140845070425)" style="font-size: 13px;"><line stroke="currentColor" x2="0"></line><text fill="currentColor" x="-3" dy="0.32em">object (hierarchical)    </text></g><g class="tick" opacity="1" transform="translate(0,68.76760563380283)" style="font-size: 13px;"><line stroke="currentColor" x2="0"></line><text fill="currentColor" x="-3" dy="0.32em">object (recursive)    </text></g><g class="tick" opacity="1" transform="translate(0,113.13380281690142)" style="font-size: 13px;"><line stroke="currentColor" x2="0"></line><text fill="currentColor" x="-3" dy="0.32em">object (union)    </text></g><g class="tick" opacity="1" transform="translate(0,157.5)" style="font-size: 13px;"><line stroke="currentColor" x2="0"></line><text fill="currentColor" x="-3" dy="0.32em">array (hierarchical)    </text></g><g class="tick" opacity="1" transform="translate(0,201.8661971830986)" style="font-size: 13px;"><line stroke="currentColor" x2="0"></line><text fill="currentColor" x="-3" dy="0.32em">array (recursive)    </text></g><g class="tick" opacity="1" transform="translate(0,246.23239436619718)" style="font-size: 13px;"><line stroke="currentColor" x2="0"></line><text fill="currentColor" x="-3" dy="0.32em">array (union)    </text></g><g class="tick" opacity="1" transform="translate(0,290.59859154929575)" style="font-size: 13px;"><line stroke="currentColor" x2="0"></line><text fill="currentColor" x="-3" dy="0.32em">ultimate union    </text></g></g><g class="x axis" transform="translate(149,360)" fill="none" font-size="10" font-family="sans-serif" text-anchor="middle" style="font-size: 13px;"><path class="domain" stroke="currentColor" d="M0.5,0.5H485.5"></path><g class="tick" opacity="1" transform="translate(0.5,0)" style="font-size: 13px;"><line stroke="currentColor" y2="6"></line><text fill="currentColor" y="9" dy="0.71em">0x</text></g><g class="tick" opacity="1" transform="translate(113.96849371307844,0)" style="font-size: 13px;"><line stroke="currentColor" y2="6"></line><text fill="currentColor" y="9" dy="0.71em">10,000x</text></g><g class="tick" opacity="1" transform="translate(227.4369874261569,0)" style="font-size: 13px;"><line stroke="currentColor" y2="6"></line><text fill="currentColor" y="9" dy="0.71em">20,000x</text></g><g class="tick" opacity="1" transform="translate(340.90548113923535,0)" style="font-size: 13px;"><line stroke="currentColor" y2="6"></line><text fill="currentColor" y="9" dy="0.71em">30,000x</text></g><g class="tick" opacity="1" transform="translate(454.3739748523138,0)" style="font-size: 13px;"><line stroke="currentColor" y2="6"></line><text fill="currentColor" y="9" dy="0.71em">40,000x</text></g></g><text transform="translate(400, 30)" style="text-anchor: middle; font-size: 20px; font-weight: bold;">optimizer benchmark</text><rect x="680" y="105" width="200" height="5" fill="gray"></rect><rect x="675" y="35" width="200" height="70" fill="none" stroke="black"></rect><rect x="685" y="45" width="10" height="10" style="fill: #4472c4;"></rect><text x="700" y="55" style="font-size: 12px;">typia</text><rect x="685" y="65" width="10" height="10" style="fill: #ed7d31;"></rect><text x="700" y="75" style="font-size: 12px;">typebox</text><rect x="685" y="85" width="10" height="10" style="fill: #a5a5a5;"></rect><text x="700" y="95" style="font-size: 12px;">ajv</text><g style="font-size: 13px;"><g style="font-size: 13px;"><rect x="150" y="50.091202955437566" width="440.9090909090909" height="12.437081505425995" fill="#4472c4"></rect><rect x="150" y="63.18286769799125" width="0.37553294891780953" height="12.437081505425995" fill="#ed7d31"></rect><rect x="150" y="76.27453244054493" width="0.011346849371307845" height="12.437081505425995" fill="#a5a5a5"></rect><text class="label" x="599.4090909090909" y="58.591202955437566" font-size="10px">38,857x</text><text class="label" x="158.87553294891782" y="71.68286769799124" font-size="10px">33x</text><text class="label" x="158.5113468493713" y="84.77453244054493" font-size="10px">1x</text><text class="label" x="595.9090909090909" y="60.091202955437566" font-size="8px"></text><text class="label" x="155.37553294891782" y="73.18286769799124" font-size="8px"></text><text class="label" x="155.0113468493713" y="86.27453244054493" font-size="8px"></text></g><g style="font-size: 13px;"><rect x="150" y="94.45740013853616" width="133.00327480855265" height="12.437081505425995" fill="#4472c4"></rect><rect x="150" y="107.54906488108983" width="0.8524450619180298" height="12.437081505425995" fill="#ed7d31"></rect><rect x="150" y="120.64072962364352" width="0.011346849371307845" height="12.437081505425995" fill="#a5a5a5"></rect><text class="label" x="291.50327480855265" y="102.95740013853616" font-size="10px">11,722x</text><text class="label" x="159.35244506191802" y="116.04906488108983" font-size="10px">75x</text><text class="label" x="158.5113468493713" y="129.14072962364352" font-size="10px">1x</text><text class="label" x="288.00327480855265" y="104.45740013853616" font-size="8px"></text><text class="label" x="155.85244506191802" y="117.54906488108983" font-size="8px"></text><text class="label" x="155.0113468493713" y="130.64072962364352" font-size="8px"></text></g><g style="font-size: 13px;"><rect x="150" y="138.82359732163474" width="35.03178845524914" height="12.437081505425995" fill="#4472c4"></rect><rect x="150" y="151.91526206418843" width="0.2143320421607482" height="12.437081505425995" fill="#ed7d31"></rect><rect x="150" y="165.00692680674211" width="0.011346849371307845" height="12.437081505425995" fill="#a5a5a5"></rect><text class="label" x="193.53178845524914" y="147.32359732163474" font-size="10px">3,087x</text><text class="label" x="158.71433204216075" y="160.41526206418843" font-size="10px">19x</text><text class="label" x="158.5113468493713" y="173.50692680674211" font-size="10px">1x</text><text class="label" x="190.03178845524914" y="148.82359732163474" font-size="8px"></text><text class="label" x="155.21433204216075" y="161.91526206418843" font-size="8px"></text><text class="label" x="155.0113468493713" y="175.00692680674211" font-size="8px"></text></g><g style="font-size: 13px;"><rect x="150" y="183.18979450473333" width="11.39906328568029" height="12.437081505425995" fill="#4472c4"></rect><rect x="150" y="196.281459247287" width="1.445385764974717" height="12.437081505425995" fill="#ed7d31"></rect><rect x="150" y="209.37312398984068" width="0.011346849371307845" height="12.437081505425995" fill="#a5a5a5"></rect><text class="label" x="169.89906328568028" y="191.68979450473333" font-size="10px">1,005x</text><text class="label" x="159.94538576497473" y="204.781459247287" font-size="10px">127x</text><text class="label" x="158.5113468493713" y="217.87312398984068" font-size="10px">1x</text><text class="label" x="166.39906328568028" y="193.18979450473333" font-size="8px"></text><text class="label" x="156.44538576497473" y="206.281459247287" font-size="8px"></text><text class="label" x="155.0113468493713" y="219.37312398984068" font-size="8px"></text></g><g style="font-size: 13px;"><rect x="150" y="227.55599168783192" width="9.956220441687927" height="12.437081505425995" fill="#4472c4"></rect><rect x="150" y="240.64765643038558" width="0.8358857573349774" height="12.437081505425995" fill="#ed7d31"></rect><rect x="150" y="253.73932117293927" width="0.011346849371307845" height="12.437081505425995" fill="#a5a5a5"></rect><text class="label" x="168.45622044168792" y="236.05599168783192" font-size="10px">877x</text><text class="label" x="159.33588575733498" y="249.14765643038558" font-size="10px">74x</text><text class="label" x="158.5113468493713" y="262.2393211729393" font-size="10px">1x</text><text class="label" x="164.95622044168792" y="237.55599168783192" font-size="8px"></text><text class="label" x="155.83588575733498" y="250.64765643038558" font-size="8px"></text><text class="label" x="155.0113468493713" y="263.7393211729393" font-size="8px"></text></g><g style="font-size: 13px;"><rect x="150" y="271.92218887093054" width="7.850269911975867" height="12.437081505425995" fill="#4472c4"></rect><rect x="150" y="285.0138536134842" width="0.39384769450670265" height="12.437081505425995" fill="#ed7d31"></rect><rect x="150" y="298.10551835603786" width="0.011346849371307845" height="12.437081505425995" fill="#a5a5a5"></rect><text class="label" x="166.35026991197586" y="280.42218887093054" font-size="10px">692x</text><text class="label" x="158.8938476945067" y="293.5138536134842" font-size="10px">35x</text><text class="label" x="158.5113468493713" y="306.60551835603786" font-size="10px">1x</text><text class="label" x="162.85026991197586" y="281.92218887093054" font-size="8px"></text><text class="label" x="155.3938476945067" y="295.0138536134842" font-size="8px"></text><text class="label" x="155.0113468493713" y="308.10551835603786" font-size="8px"></text></g><g style="font-size: 13px;"><rect x="150" y="316.28838605402905" width="7.212953429182999" height="12.437081505425995" fill="#4472c4"></rect><rect x="150" y="329.38005079658274" width="0.13859499006018966" height="12.437081505425995" fill="#ed7d31"></rect><rect x="150" y="342.4717155391364" width="0.011346849371307845" height="12.437081505425995" fill="#a5a5a5"></rect><text class="label" x="165.712953429183" y="324.78838605402905" font-size="10px">636x</text><text class="label" x="158.6385949900602" y="337.88005079658274" font-size="10px">12x</text><text class="label" x="158.5113468493713" y="350.9717155391364" font-size="10px">1x</text><text class="label" x="162.212953429183" y="326.28838605402905" font-size="8px"></text><text class="label" x="155.1385949900602" y="339.38005079658274" font-size="8px"></text><text class="label" x="155.0113468493713" y="352.4717155391364" font-size="8px"></text></g></g></svg>