<svg xmlns="http://www.w3.org/2000/svg" xmlns:xlink="http://www.w3.org/1999/xlink" width="800" height="555" style="background-color: white;"><g class="y axis" transform="translate(149,45)" fill="none" font-size="10" font-family="sans-serif" text-anchor="end" style="font-size: 13px;"><path class="domain" stroke="currentColor" d="M0.5,0.5V480.5"></path><g class="tick" opacity="1" transform="translate(0,32.592592592592595)" style="font-size: 13px;"><line stroke="currentColor" x2="0"></line><text fill="currentColor" x="-3" dy="0.32em">object (simple)    </text></g><g class="tick" opacity="1" transform="translate(0,91.85185185185186)" style="font-size: 13px;"><line stroke="currentColor" x2="0"></line><text fill="currentColor" x="-3" dy="0.32em">object (hierarchical)    </text></g><g class="tick" opacity="1" transform="translate(0,151.11111111111111)" style="font-size: 13px;"><line stroke="currentColor" x2="0"></line><text fill="currentColor" x="-3" dy="0.32em">object (recursive)    </text></g><g class="tick" opacity="1" transform="translate(0,210.37037037037035)" style="font-size: 13px;"><line stroke="currentColor" x2="0"></line><text fill="currentColor" x="-3" dy="0.32em">object (union, explicit)    </text></g><g class="tick" opacity="1" transform="translate(0,269.6296296296296)" style="font-size: 13px;"><line stroke="currentColor" x2="0"></line><text fill="currentColor" x="-3" dy="0.32em">array (simple)    </text></g><g class="tick" opacity="1" transform="translate(0,328.8888888888889)" style="font-size: 13px;"><line stroke="currentColor" x2="0"></line><text fill="currentColor" x="-3" dy="0.32em">array (hierarchical)    </text></g><g class="tick" opacity="1" transform="translate(0,388.14814814814815)" style="font-size: 13px;"><line stroke="currentColor" x2="0"></line><text fill="currentColor" x="-3" dy="0.32em">array (recursive)    </text></g><g class="tick" opacity="1" transform="translate(0,447.40740740740745)" style="font-size: 13px;"><line stroke="currentColor" x2="0"></line><text fill="currentColor" x="-3" dy="0.32em">array (union, explicit)    </text></g></g><g class="x axis" transform="translate(149,525)" fill="none" font-size="10" font-family="sans-serif" text-anchor="middle" style="font-size: 13px;"><path class="domain" stroke="currentColor" d="M0.5,0.5H485.5"></path><g class="tick" opacity="1" transform="translate(0.5,0)" style="font-size: 13px;"><line stroke="currentColor" y2="6"></line><text fill="currentColor" y="9" dy="0.71em">0x</text></g><g class="tick" opacity="1" transform="translate(75.76538766589074,0)" style="font-size: 13px;"><line stroke="currentColor" y2="6"></line><text fill="currentColor" y="9" dy="0.71em">200,000x</text></g><g class="tick" opacity="1" transform="translate(151.03077533178148,0)" style="font-size: 13px;"><line stroke="currentColor" y2="6"></line><text fill="currentColor" y="9" dy="0.71em">400,000x</text></g><g class="tick" opacity="1" transform="translate(226.29616299767224,0)" style="font-size: 13px;"><line stroke="currentColor" y2="6"></line><text fill="currentColor" y="9" dy="0.71em">600,000x</text></g><g class="tick" opacity="1" transform="translate(301.56155066356297,0)" style="font-size: 13px;"><line stroke="currentColor" y2="6"></line><text fill="currentColor" y="9" dy="0.71em">800,000x</text></g><g class="tick" opacity="1" transform="translate(376.82693832945375,0)" style="font-size: 13px;"><line stroke="currentColor" y2="6"></line><text fill="currentColor" y="9" dy="0.71em">1,000,000x</text></g><g class="tick" opacity="1" transform="translate(452.0923259953445,0)" style="font-size: 13px;"><line stroke="currentColor" y2="6"></line><text fill="currentColor" y="9" dy="0.71em">1,200,000x</text></g></g><text transform="translate(400, 30)" style="text-anchor: middle; font-size: 20px; font-weight: bold;">optimizer benchmark</text><rect x="650" y="125" width="230" height="5" fill="gray"></rect><rect x="645" y="35" width="230" height="90" fill="none" stroke="black"></rect><rect x="655" y="45" width="10" height="10" style="fill: #4472c4;"></rect><text x="670" y="55" style="font-size: 12px;">typia</text><rect x="655" y="65" width="10" height="10" style="fill: #ed7d31;"></rect><text x="670" y="75" style="font-size: 12px;">typebox</text><rect x="655" y="85" width="10" height="10" style="fill: #a5a5a5;"></rect><text x="670" y="95" style="font-size: 12px;">ajv</text><rect x="655" y="105" width="10" height="10" style="fill: #ffc000;"></rect><text x="670" y="115" style="font-size: 12px;">class-validator</text><g style="font-size: 13px;"><g style="font-size: 13px;"><rect x="150" y="51.584362139917694" width="440.9090909090908" height="12.510288065843621" fill="#4472c4"></rect><rect x="150" y="64.75308641975309" width="0.02271445241931663" height="12.510288065843621" fill="#ed7d31"></rect><rect x="150" y="77.92181069958848" width="0.0003763269383294537" height="12.510288065843621" fill="#a5a5a5"></rect><rect x="150" y="91.09053497942386" width="0.018830111005434944" height="12.510288065843621" fill="#ffc000"></rect><text class="label" x="599.4090909090908" y="60.084362139917694" font-size="10px">1,171,612x</text><text class="label" x="158.5227144524193" y="73.25308641975309" font-size="10px">60x</text><text class="label" x="158.50037632693832" y="86.42181069958848" font-size="10px">1x</text><text class="label" x="158.51883011100543" y="99.59053497942386" font-size="10px">50x</text><text class="label" x="595.9090909090908" y="61.584362139917694" font-size="8px"></text><text class="label" x="155.0227144524193" y="74.75308641975309" font-size="8px"></text><text class="label" x="155.00037632693832" y="87.92181069958848" font-size="8px"></text><text class="label" x="155.01883011100543" y="101.09053497942386" font-size="8px"></text></g><g style="font-size: 13px;"><rect x="150" y="110.84362139917695" width="20.232602463963886" height="12.510288065843621" fill="#4472c4"></rect><rect x="150" y="124.01234567901236" width="0.009575272022942076" height="12.510288065843621" fill="#ed7d31"></rect><rect x="150" y="137.18106995884773" width="0.0003763269383294537" height="12.510288065843621" fill="#a5a5a5"></rect><rect x="150" y="150.34979423868313" width="0.006880054639869415" height="12.510288065843621" fill="#ffc000"></rect><text class="label" x="178.73260246396387" y="119.34362139917695" font-size="10px">53,763x</text><text class="label" x="158.50957527202294" y="132.51234567901236" font-size="10px">25x</text><text class="label" x="158.50037632693832" y="145.68106995884773" font-size="10px">1x</text><text class="label" x="158.50688005463988" y="158.84979423868313" font-size="10px">18x</text><text class="label" x="175.23260246396387" y="120.84362139917695" font-size="8px"></text><text class="label" x="155.00957527202294" y="134.01234567901236" font-size="8px"></text><text class="label" x="155.00037632693832" y="147.18106995884773" font-size="8px"></text><text class="label" x="155.00688005463988" y="160.34979423868313" font-size="8px"></text></g><g style="font-size: 13px;"><rect x="150" y="170.10288065843622" width="6.199287318690365" height="12.510288065843621" fill="#4472c4"></rect><rect x="150" y="183.2716049382716" width="0.02620199253602784" height="12.510288065843621" fill="#ed7d31"></rect><rect x="150" y="196.440329218107" width="0.0003763269383294537" height="12.510288065843621" fill="#a5a5a5"></rect><rect x="150" y="209.6090534979424" width="0.003960358848209073" height="12.510288065843621" fill="#ffc000"></rect><text class="label" x="164.69928731869035" y="178.60288065843622" font-size="10px">16,473x</text><text class="label" x="158.52620199253602" y="191.7716049382716" font-size="10px">70x</text><text class="label" x="158.50037632693832" y="204.940329218107" font-size="10px">1x</text><text class="label" x="158.50396035884822" y="218.1090534979424" font-size="10px">11x</text><text class="label" x="161.19928731869035" y="180.10288065843622" font-size="8px"></text><text class="label" x="155.02620199253602" y="193.2716049382716" font-size="8px"></text><text class="label" x="155.00037632693832" y="206.440329218107" font-size="8px"></text><text class="label" x="155.00396035884822" y="219.6090534979424" font-size="8px"></text></g><g style="font-size: 13px;"><rect x="150" y="229.36213991769546" width="1.8737218446359392" height="12.510288065843621" fill="#4472c4"></rect><rect x="150" y="242.53086419753086" width="0.010230331278530028" height="12.510288065843621" fill="#ed7d31"></rect><rect x="150" y="255.69958847736626" width="0.0003763269383294537" height="12.510288065843621" fill="#a5a5a5"></rect><rect x="150" y="268.86831275720164" width="0.006339747634677758" height="12.510288065843621" fill="#ffc000"></rect><text class="label" x="160.37372184463595" y="237.86213991769546" font-size="10px">4,979x</text><text class="label" x="158.51023033127854" y="251.03086419753086" font-size="10px">27x</text><text class="label" x="158.50037632693832" y="264.19958847736626" font-size="10px">1x</text><text class="label" x="158.50633974763468" y="277.36831275720164" font-size="10px">17x</text><text class="label" x="156.87372184463595" y="239.36213991769546" font-size="8px"></text><text class="label" x="155.01023033127854" y="252.53086419753086" font-size="8px"></text><text class="label" x="155.00037632693832" y="265.69958847736626" font-size="8px"></text><text class="label" x="155.00633974763468" y="278.86831275720164" font-size="8px"></text></g><g style="font-size: 13px;"><rect x="150" y="288.6213991769547" width="4.058432902548919" height="12.510288065843621" fill="#4472c4"></rect><rect x="150" y="301.7901234567901" width="0.02931875014332103" height="12.510288065843621" fill="#ed7d31"></rect><rect x="150" y="314.9588477366255" width="0.0003763269383294537" height="12.510288065843621" fill="#a5a5a5"></rect><rect x="150" y="328.12757201646093" width="0.005950121033119364" height="12.510288065843621" fill="#ffc000"></rect><text class="label" x="162.55843290254893" y="297.1213991769547" font-size="10px">10,784x</text><text class="label" x="158.52931875014332" y="310.2901234567901" font-size="10px">78x</text><text class="label" x="158.50037632693832" y="323.4588477366255" font-size="10px">1x</text><text class="label" x="158.50595012103312" y="336.62757201646093" font-size="10px">16x</text><text class="label" x="159.05843290254893" y="298.6213991769547" font-size="8px"></text><text class="label" x="155.02931875014332" y="311.7901234567901" font-size="8px"></text><text class="label" x="155.00037632693832" y="324.9588477366255" font-size="8px"></text><text class="label" x="155.00595012103312" y="338.12757201646093" font-size="8px"></text></g><g style="font-size: 13px;"><rect x="150" y="347.880658436214" width="0.5826647463439226" height="12.510288065843621" fill="#4472c4"></rect><rect x="150" y="361.04938271604937" width="0.028506593398014347" height="12.510288065843621" fill="#ed7d31"></rect><rect x="150" y="374.2181069958848" width="0.0003763269383294537" height="12.510288065843621" fill="#a5a5a5"></rect><rect x="150" y="387.38683127572017" width="0.00041529228014292545" height="12.510288065843621" fill="#ffc000"></rect><text class="label" x="159.0826647463439" y="356.380658436214" font-size="10px">1,548x</text><text class="label" x="158.52850659339802" y="369.54938271604937" font-size="10px">76x</text><text class="label" x="158.50037632693832" y="382.7181069958848" font-size="10px">1x</text><text class="label" x="158.50041529228014" y="395.88683127572017" font-size="10px">1x</text><text class="label" x="155.5826647463439" y="357.880658436214" font-size="8px"></text><text class="label" x="155.02850659339802" y="371.04938271604937" font-size="8px"></text><text class="label" x="155.00037632693832" y="384.2181069958848" font-size="8px"></text><text class="label" x="155.00041529228014" y="397.38683127572017" font-size="8px"></text></g><g style="font-size: 13px;"><rect x="150" y="407.13991769547323" width="0.6992451639047353" height="12.510288065843621" fill="#4472c4"></rect><rect x="150" y="420.3086419753086" width="0.033550634781341" height="12.510288065843621" fill="#ed7d31"></rect><rect x="150" y="433.47736625514403" width="0.00044182644610852554" height="12.510288065843621" fill="#a5a5a5"></rect><rect x="150" y="446.6460905349794" width="0.0003763269383294537" height="12.510288065843621" fill="#ffc000"></rect><text class="label" x="159.19924516390475" y="415.63991769547323" font-size="10px">1,858x</text><text class="label" x="158.53355063478134" y="428.8086419753086" font-size="10px">89x</text><text class="label" x="158.50044182644612" y="441.97736625514403" font-size="10px">1x</text><text class="label" x="158.50037632693832" y="455.1460905349794" font-size="10px">1x</text><text class="label" x="155.69924516390475" y="417.13991769547323" font-size="8px"></text><text class="label" x="155.03355063478134" y="430.3086419753086" font-size="8px"></text><text class="label" x="155.00044182644612" y="443.47736625514403" font-size="8px"></text><text class="label" x="155.00037632693832" y="456.6460905349794" font-size="8px"></text></g><g style="font-size: 13px;"><rect x="150" y="466.3991769547325" width="0.47126107738973566" height="12.510288065843621" fill="#4472c4"></rect><rect x="150" y="479.5679012345679" width="0.013224747271174729" height="12.510288065843621" fill="#ed7d31"></rect><rect x="150" y="492.73662551440333" width="0.0003763269383294537" height="12.510288065843621" fill="#a5a5a5"></rect><rect x="150" y="505.9053497942387" width="0.0020368888500766624" height="12.510288065843621" fill="#ffc000"></rect><text class="label" x="158.97126107738973" y="474.8991769547325" font-size="10px">1,252x</text><text class="label" x="158.51322474727118" y="488.0679012345679" font-size="10px">35x</text><text class="label" x="158.50037632693832" y="501.23662551440333" font-size="10px">1x</text><text class="label" x="158.50203688885009" y="514.4053497942386" font-size="10px">5x</text><text class="label" x="155.47126107738973" y="476.3991769547325" font-size="8px"></text><text class="label" x="155.01322474727118" y="489.5679012345679" font-size="8px"></text><text class="label" x="155.00037632693832" y="502.73662551440333" font-size="8px"></text><text class="label" x="155.00203688885009" y="515.9053497942386" font-size="8px"></text></g></g></svg>