<svg xmlns="http://www.w3.org/2000/svg" xmlns:xlink="http://www.w3.org/1999/xlink" width="800" height="390" style="background-color: white;"><g class="y axis" transform="translate(149,45)" fill="none" font-size="10" font-family="sans-serif" text-anchor="end" style="font-size: 13px;"><path class="domain" stroke="#000" d="M0,0.5H0.5V315.5H0"></path><g class="tick" opacity="1" transform="translate(0,24.40140845070425)" style="font-size: 13px;"><line stroke="#000" x2="0"></line><text fill="#000" x="-3" dy="0.32em">object (hierarchical)    </text></g><g class="tick" opacity="1" transform="translate(0,68.76760563380283)" style="font-size: 13px;"><line stroke="#000" x2="0"></line><text fill="#000" x="-3" dy="0.32em">object (recursive)    </text></g><g class="tick" opacity="1" transform="translate(0,113.13380281690142)" style="font-size: 13px;"><line stroke="#000" x2="0"></line><text fill="#000" x="-3" dy="0.32em">object (union)    </text></g><g class="tick" opacity="1" transform="translate(0,157.5)" style="font-size: 13px;"><line stroke="#000" x2="0"></line><text fill="#000" x="-3" dy="0.32em">array (hierarchical)    </text></g><g class="tick" opacity="1" transform="translate(0,201.8661971830986)" style="font-size: 13px;"><line stroke="#000" x2="0"></line><text fill="#000" x="-3" dy="0.32em">array (recursive)    </text></g><g class="tick" opacity="1" transform="translate(0,246.23239436619718)" style="font-size: 13px;"><line stroke="#000" x2="0"></line><text fill="#000" x="-3" dy="0.32em">array (union)    </text></g><g class="tick" opacity="1" transform="translate(0,290.59859154929575)" style="font-size: 13px;"><line stroke="#000" x2="0"></line><text fill="#000" x="-3" dy="0.32em">ultimate union    </text></g></g><g class="x axis" transform="translate(149,360)" fill="none" font-size="10" font-family="sans-serif" text-anchor="middle" style="font-size: 13px;"><path class="domain" stroke="#000" d="M0.5,0V0.5H485.5V0"></path><g class="tick" opacity="1" transform="translate(0.5,0)" style="font-size: 13px;"><line stroke="#000" y2="6"></line><text fill="#000" y="9" dy="0.71em">0x</text></g><g class="tick" opacity="1" transform="translate(114.94468598358361,0)" style="font-size: 13px;"><line stroke="#000" y2="6"></line><text fill="#000" y="9" dy="0.71em">10,000x</text></g><g class="tick" opacity="1" transform="translate(229.38937196716722,0)" style="font-size: 13px;"><line stroke="#000" y2="6"></line><text fill="#000" y="9" dy="0.71em">20,000x</text></g><g class="tick" opacity="1" transform="translate(343.8340579507508,0)" style="font-size: 13px;"><line stroke="#000" y2="6"></line><text fill="#000" y="9" dy="0.71em">30,000x</text></g><g class="tick" opacity="1" transform="translate(458.27874393433444,0)" style="font-size: 13px;"><line stroke="#000" y2="6"></line><text fill="#000" y="9" dy="0.71em">40,000x</text></g></g><text transform="translate(400, 30)" style="text-anchor: middle; font-size: 20px; font-weight: bold;">optimizer benchmark</text><rect x="680" y="105" width="200" height="5" fill="gray"></rect><rect x="675" y="35" width="200" height="70" fill="none" stroke="black"></rect><rect x="685" y="45" width="10" height="10" style="fill: #4472c4;"></rect><text x="700" y="55" style="font-size: 12px;">typescript-json</text><rect x="685" y="65" width="10" height="10" style="fill: #ed7d31;"></rect><text x="700" y="75" style="font-size: 12px;">typebox</text><rect x="685" y="85" width="10" height="10" style="fill: #a5a5a5;"></rect><text x="700" y="95" style="font-size: 12px;">ajv</text><g style="font-size: 13px;"><g style="font-size: 13px;"><rect x="150" y="50.091202955437566" width="440.9090909090909" height="12.437081505425995" fill="#4472c4"></rect><rect x="150" y="63.18286769799125" width="0.4248442437720322" height="12.437081505425995" fill="#ed7d31"></rect><rect x="150" y="76.27453244054493" width="0.01144446859835836" height="12.437081505425995" fill="#a5a5a5"></rect><text class="label" x="599.4090909090909" y="58.591202955437566" font-size="10px">38,526x</text><text class="label" x="158.92484424377204" y="71.68286769799124" font-size="10px">37x</text><text class="label" x="158.51144446859837" y="84.77453244054493" font-size="10px">1x</text><text class="label" x="595.9090909090909" y="60.091202955437566" font-size="8px"></text><text class="label" x="155.42484424377204" y="73.18286769799124" font-size="8px"></text><text class="label" x="155.01144446859837" y="86.27453244054493" font-size="8px"></text></g><g style="font-size: 13px;"><rect x="150" y="94.45740013853616" width="138.25415731473643" height="12.437081505425995" fill="#4472c4"></rect><rect x="150" y="107.54906488108983" width="0.9442584188901323" height="12.437081505425995" fill="#ed7d31"></rect><rect x="150" y="120.64072962364352" width="0.01144446859835836" height="12.437081505425995" fill="#a5a5a5"></rect><text class="label" x="296.7541573147364" y="102.95740013853616" font-size="10px">12,080x</text><text class="label" x="159.44425841889014" y="116.04906488108983" font-size="10px">83x</text><text class="label" x="158.51144446859837" y="129.14072962364352" font-size="10px">1x</text><text class="label" x="293.2541573147364" y="104.45740013853616" font-size="8px"></text><text class="label" x="155.94425841889014" y="117.54906488108983" font-size="8px"></text><text class="label" x="155.01144446859837" y="130.64072962364352" font-size="8px"></text></g><g style="font-size: 13px;"><rect x="150" y="138.82359732163474" width="37.29747540615724" height="12.437081505425995" fill="#4472c4"></rect><rect x="150" y="151.91526206418843" width="0.24311988387591218" height="12.437081505425995" fill="#ed7d31"></rect><rect x="150" y="165.00692680674211" width="0.01144446859835836" height="12.437081505425995" fill="#a5a5a5"></rect><text class="label" x="195.79747540615725" y="147.32359732163474" font-size="10px">3,259x</text><text class="label" x="158.74311988387592" y="160.41526206418843" font-size="10px">21x</text><text class="label" x="158.51144446859837" y="173.50692680674211" font-size="10px">1x</text><text class="label" x="192.29747540615725" y="148.82359732163474" font-size="8px"></text><text class="label" x="155.24311988387592" y="161.91526206418843" font-size="8px"></text><text class="label" x="155.01144446859837" y="175.00692680674211" font-size="8px"></text></g><g style="font-size: 13px;"><rect x="150" y="183.18979450473333" width="21.289483406260526" height="12.437081505425995" fill="#4472c4"></rect><rect x="150" y="196.281459247287" width="1.6147576720065444" height="12.437081505425995" fill="#ed7d31"></rect><rect x="150" y="209.37312398984068" width="0.01144446859835836" height="12.437081505425995" fill="#a5a5a5"></rect><text class="label" x="179.78948340626053" y="191.68979450473333" font-size="10px">1,860x</text><text class="label" x="160.11475767200653" y="204.781459247287" font-size="10px">141x</text><text class="label" x="158.51144446859837" y="217.87312398984068" font-size="10px">1x</text><text class="label" x="176.28948340626053" y="193.18979450473333" font-size="8px"></text><text class="label" x="156.61475767200653" y="206.281459247287" font-size="8px"></text><text class="label" x="155.01144446859837" y="219.37312398984068" font-size="8px"></text></g><g style="font-size: 13px;"><rect x="150" y="227.55599168783192" width="9.691549916596712" height="12.437081505425995" fill="#4472c4"></rect><rect x="150" y="240.64765643038558" width="0.9198201077737943" height="12.437081505425995" fill="#ed7d31"></rect><rect x="150" y="253.73932117293927" width="0.01144446859835836" height="12.437081505425995" fill="#a5a5a5"></rect><text class="label" x="168.1915499165967" y="236.05599168783192" font-size="10px">847x</text><text class="label" x="159.4198201077738" y="249.14765643038558" font-size="10px">80x</text><text class="label" x="158.51144446859837" y="262.2393211729393" font-size="10px">1x</text><text class="label" x="164.6915499165967" y="237.55599168783192" font-size="8px"></text><text class="label" x="155.9198201077738" y="250.64765643038558" font-size="8px"></text><text class="label" x="155.01144446859837" y="263.7393211729393" font-size="8px"></text></g><g style="font-size: 13px;"><rect x="150" y="271.92218887093054" width="8.016764003120594" height="12.437081505425995" fill="#4472c4"></rect><rect x="150" y="285.0138536134842" width="0.44185683694323163" height="12.437081505425995" fill="#ed7d31"></rect><rect x="150" y="298.10551835603786" width="0.01144446859835836" height="12.437081505425995" fill="#a5a5a5"></rect><text class="label" x="166.51676400312058" y="280.42218887093054" font-size="10px">700x</text><text class="label" x="158.94185683694323" y="293.5138536134842" font-size="10px">39x</text><text class="label" x="158.51144446859837" y="306.60551835603786" font-size="10px">1x</text><text class="label" x="163.01676400312058" y="281.92218887093054" font-size="8px"></text><text class="label" x="155.44185683694323" y="295.0138536134842" font-size="8px"></text><text class="label" x="155.01144446859837" y="308.10551835603786" font-size="8px"></text></g><g style="font-size: 13px;"><rect x="150" y="316.28838605402905" width="9.060389832462132" height="12.437081505425995" fill="#4472c4"></rect><rect x="150" y="329.38005079658274" width="0.1744333453937727" height="12.437081505425995" fill="#ed7d31"></rect><rect x="150" y="342.4717155391364" width="0.01144446859835836" height="12.437081505425995" fill="#a5a5a5"></rect><text class="label" x="167.56038983246214" y="324.78838605402905" font-size="10px">792x</text><text class="label" x="158.67443334539377" y="337.88005079658274" font-size="10px">15x</text><text class="label" x="158.51144446859837" y="350.9717155391364" font-size="10px">1x</text><text class="label" x="164.06038983246214" y="326.28838605402905" font-size="8px"></text><text class="label" x="155.17443334539377" y="339.38005079658274" font-size="8px"></text><text class="label" x="155.01144446859837" y="352.4717155391364" font-size="8px"></text></g></g></svg>