<svg xmlns="http://www.w3.org/2000/svg" xmlns:xlink="http://www.w3.org/1999/xlink" width="800" height="390" style="background-color: white;"><g class="y axis" transform="translate(149,45)" fill="none" font-size="10" font-family="sans-serif" text-anchor="end" style="font-size: 13px;"><path class="domain" stroke="#000" d="M0,0.5H0.5V315.5H0"></path><g class="tick" opacity="1" transform="translate(0,24.40140845070425)" style="font-size: 13px;"><line stroke="#000" x2="0"></line><text fill="#000" x="-3" dy="0.32em">object (hierarchical)    </text></g><g class="tick" opacity="1" transform="translate(0,68.76760563380283)" style="font-size: 13px;"><line stroke="#000" x2="0"></line><text fill="#000" x="-3" dy="0.32em">object (recursive)    </text></g><g class="tick" opacity="1" transform="translate(0,113.13380281690142)" style="font-size: 13px;"><line stroke="#000" x2="0"></line><text fill="#000" x="-3" dy="0.32em">object (union)    </text></g><g class="tick" opacity="1" transform="translate(0,157.5)" style="font-size: 13px;"><line stroke="#000" x2="0"></line><text fill="#000" x="-3" dy="0.32em">array (hierarchical)    </text></g><g class="tick" opacity="1" transform="translate(0,201.8661971830986)" style="font-size: 13px;"><line stroke="#000" x2="0"></line><text fill="#000" x="-3" dy="0.32em">array (recursive)    </text></g><g class="tick" opacity="1" transform="translate(0,246.23239436619718)" style="font-size: 13px;"><line stroke="#000" x2="0"></line><text fill="#000" x="-3" dy="0.32em">array (union)    </text></g><g class="tick" opacity="1" transform="translate(0,290.59859154929575)" style="font-size: 13px;"><line stroke="#000" x2="0"></line><text fill="#000" x="-3" dy="0.32em">ultimate union    </text></g></g><g class="x axis" transform="translate(149,360)" fill="none" font-size="10" font-family="sans-serif" text-anchor="middle" style="font-size: 13px;"><path class="domain" stroke="#000" d="M0.5,0V0.5H485.5V0"></path><g class="tick" opacity="1" transform="translate(0.5,0)" style="font-size: 13px;"><line stroke="#000" y2="6"></line><text fill="#000" y="9" dy="0.71em">0x</text></g><g class="tick" opacity="1" transform="translate(104.15847847430078,0)" style="font-size: 13px;"><line stroke="#000" y2="6"></line><text fill="#000" y="9" dy="0.71em">10,000x</text></g><g class="tick" opacity="1" transform="translate(207.81695694860156,0)" style="font-size: 13px;"><line stroke="#000" y2="6"></line><text fill="#000" y="9" dy="0.71em">20,000x</text></g><g class="tick" opacity="1" transform="translate(311.4754354229023,0)" style="font-size: 13px;"><line stroke="#000" y2="6"></line><text fill="#000" y="9" dy="0.71em">30,000x</text></g><g class="tick" opacity="1" transform="translate(415.1339138972031,0)" style="font-size: 13px;"><line stroke="#000" y2="6"></line><text fill="#000" y="9" dy="0.71em">40,000x</text></g></g><text transform="translate(400, 30)" style="text-anchor: middle; font-size: 20px; font-weight: bold;">optimizer benchmark</text><rect x="680" y="105" width="200" height="5" fill="gray"></rect><rect x="675" y="35" width="200" height="70" fill="none" stroke="black"></rect><rect x="685" y="45" width="10" height="10" style="fill: #4472c4;"></rect><text x="700" y="55" style="font-size: 12px;">typia</text><rect x="685" y="65" width="10" height="10" style="fill: #ed7d31;"></rect><text x="700" y="75" style="font-size: 12px;">typebox</text><rect x="685" y="85" width="10" height="10" style="fill: #a5a5a5;"></rect><text x="700" y="95" style="font-size: 12px;">ajv</text><g style="font-size: 13px;"><g style="font-size: 13px;"><rect x="150" y="50.091202955437566" width="440.9090909090909" height="12.437081505425995" fill="#4472c4"></rect><rect x="150" y="63.18286769799125" width="0.38897828139182034" height="12.437081505425995" fill="#ed7d31"></rect><rect x="150" y="76.27453244054493" width="0.010365847847430078" height="12.437081505425995" fill="#a5a5a5"></rect><text class="label" x="599.4090909090909" y="58.591202955437566" font-size="10px">42,535x</text><text class="label" x="158.88897828139181" y="71.68286769799124" font-size="10px">38x</text><text class="label" x="158.51036584784742" y="84.77453244054493" font-size="10px">1x</text><text class="label" x="595.9090909090909" y="60.091202955437566" font-size="8px"></text><text class="label" x="155.38897828139181" y="73.18286769799124" font-size="8px"></text><text class="label" x="155.01036584784742" y="86.27453244054493" font-size="8px"></text></g><g style="font-size: 13px;"><rect x="150" y="94.45740013853616" width="119.02087037418882" height="12.437081505425995" fill="#4472c4"></rect><rect x="150" y="107.54906488108983" width="0.8651944887836409" height="12.437081505425995" fill="#ed7d31"></rect><rect x="150" y="120.64072962364352" width="0.010365847847430078" height="12.437081505425995" fill="#a5a5a5"></rect><text class="label" x="277.5208703741888" y="102.95740013853616" font-size="10px">11,482x</text><text class="label" x="159.36519448878363" y="116.04906488108983" font-size="10px">83x</text><text class="label" x="158.51036584784742" y="129.14072962364352" font-size="10px">1x</text><text class="label" x="274.0208703741888" y="104.45740013853616" font-size="8px"></text><text class="label" x="155.86519448878363" y="117.54906488108983" font-size="8px"></text><text class="label" x="155.01036584784742" y="130.64072962364352" font-size="8px"></text></g><g style="font-size: 13px;"><rect x="150" y="138.82359732163474" width="41.156854683921054" height="12.437081505425995" fill="#4472c4"></rect><rect x="150" y="151.91526206418843" width="0.22537446927610735" height="12.437081505425995" fill="#ed7d31"></rect><rect x="150" y="165.00692680674211" width="0.010365847847430078" height="12.437081505425995" fill="#a5a5a5"></rect><text class="label" x="199.65685468392104" y="147.32359732163474" font-size="10px">3,970x</text><text class="label" x="158.72537446927612" y="160.41526206418843" font-size="10px">22x</text><text class="label" x="158.51036584784742" y="173.50692680674211" font-size="10px">1x</text><text class="label" x="196.15685468392104" y="148.82359732163474" font-size="8px"></text><text class="label" x="155.22537446927612" y="161.91526206418843" font-size="8px"></text><text class="label" x="155.01036584784742" y="175.00692680674211" font-size="8px"></text></g><g style="font-size: 13px;"><rect x="150" y="183.18979450473333" width="9.774194359074647" height="12.437081505425995" fill="#4472c4"></rect><rect x="150" y="196.281459247287" width="1.491186445279599" height="12.437081505425995" fill="#ed7d31"></rect><rect x="150" y="209.37312398984068" width="0.010365847847430078" height="12.437081505425995" fill="#a5a5a5"></rect><text class="label" x="168.27419435907464" y="191.68979450473333" font-size="10px">943x</text><text class="label" x="159.9911864452796" y="204.781459247287" font-size="10px">144x</text><text class="label" x="158.51036584784742" y="217.87312398984068" font-size="10px">1x</text><text class="label" x="164.77419435907464" y="193.18979450473333" font-size="8px"></text><text class="label" x="156.4911864452796" y="206.281459247287" font-size="8px"></text><text class="label" x="155.01036584784742" y="219.37312398984068" font-size="8px"></text></g><g style="font-size: 13px;"><rect x="150" y="227.55599168783192" width="8.950596404411609" height="12.437081505425995" fill="#4472c4"></rect><rect x="150" y="240.64765643038558" width="0.8376098975169415" height="12.437081505425995" fill="#ed7d31"></rect><rect x="150" y="253.73932117293927" width="0.010365847847430078" height="12.437081505425995" fill="#a5a5a5"></rect><text class="label" x="167.4505964044116" y="236.05599168783192" font-size="10px">863x</text><text class="label" x="159.33760989751696" y="249.14765643038558" font-size="10px">81x</text><text class="label" x="158.51036584784742" y="262.2393211729393" font-size="10px">1x</text><text class="label" x="163.9505964044116" y="237.55599168783192" font-size="8px"></text><text class="label" x="155.83760989751696" y="250.64765643038558" font-size="8px"></text><text class="label" x="155.01036584784742" y="263.7393211729393" font-size="8px"></text></g><g style="font-size: 13px;"><rect x="150" y="271.92218887093054" width="7.084075128092917" height="12.437081505425995" fill="#4472c4"></rect><rect x="150" y="285.0138536134842" width="0.41036752944675475" height="12.437081505425995" fill="#ed7d31"></rect><rect x="150" y="298.10551835603786" width="0.010365847847430078" height="12.437081505425995" fill="#a5a5a5"></rect><text class="label" x="165.5840751280929" y="280.42218887093054" font-size="10px">683x</text><text class="label" x="158.91036752944675" y="293.5138536134842" font-size="10px">40x</text><text class="label" x="158.51036584784742" y="306.60551835603786" font-size="10px">1x</text><text class="label" x="162.0840751280929" y="281.92218887093054" font-size="8px"></text><text class="label" x="155.41036752944675" y="295.0138536134842" font-size="8px"></text><text class="label" x="155.01036584784742" y="308.10551835603786" font-size="8px"></text></g><g style="font-size: 13px;"><rect x="150" y="316.28838605402905" width="6.668326284768078" height="12.437081505425995" fill="#4472c4"></rect><rect x="150" y="329.38005079658274" width="0.13185449657073411" height="12.437081505425995" fill="#ed7d31"></rect><rect x="150" y="342.4717155391364" width="0.010365847847430078" height="12.437081505425995" fill="#a5a5a5"></rect><text class="label" x="165.16832628476809" y="324.78838605402905" font-size="10px">643x</text><text class="label" x="158.63185449657072" y="337.88005079658274" font-size="10px">13x</text><text class="label" x="158.51036584784742" y="350.9717155391364" font-size="10px">1x</text><text class="label" x="161.66832628476809" y="326.28838605402905" font-size="8px"></text><text class="label" x="155.13185449657072" y="339.38005079658274" font-size="8px"></text><text class="label" x="155.01036584784742" y="352.4717155391364" font-size="8px"></text></g></g></svg>