<svg xmlns="http://www.w3.org/2000/svg" xmlns:xlink="http://www.w3.org/1999/xlink" width="800" height="674" style="background-color: white;"><g class="y axis" transform="translate(149,45)" fill="none" font-size="10" font-family="sans-serif" text-anchor="end" style="font-size: 13px;"><path class="domain" stroke="currentColor" d="M0.5,0.5V480.5"></path><g class="tick" opacity="1" transform="translate(0,32.592592592592595)" style="font-size: 13px;"><line stroke="currentColor" x2="0"></line><text fill="currentColor" x="-3" dy="0.32em">object (simple)    </text></g><g class="tick" opacity="1" transform="translate(0,91.85185185185186)" style="font-size: 13px;"><line stroke="currentColor" x2="0"></line><text fill="currentColor" x="-3" dy="0.32em">object (hierarchical)    </text></g><g class="tick" opacity="1" transform="translate(0,151.11111111111111)" style="font-size: 13px;"><line stroke="currentColor" x2="0"></line><text fill="currentColor" x="-3" dy="0.32em">object (recursive)    </text></g><g class="tick" opacity="1" transform="translate(0,210.37037037037035)" style="font-size: 13px;"><line stroke="currentColor" x2="0"></line><text fill="currentColor" x="-3" dy="0.32em">object (union, explicit)    </text></g><g class="tick" opacity="1" transform="translate(0,269.6296296296296)" style="font-size: 13px;"><line stroke="currentColor" x2="0"></line><text fill="currentColor" x="-3" dy="0.32em">array (simple)    </text></g><g class="tick" opacity="1" transform="translate(0,328.8888888888889)" style="font-size: 13px;"><line stroke="currentColor" x2="0"></line><text fill="currentColor" x="-3" dy="0.32em">array (hierarchical)    </text></g><g class="tick" opacity="1" transform="translate(0,388.14814814814815)" style="font-size: 13px;"><line stroke="currentColor" x2="0"></line><text fill="currentColor" x="-3" dy="0.32em">array (recursive)    </text></g><g class="tick" opacity="1" transform="translate(0,447.40740740740745)" style="font-size: 13px;"><line stroke="currentColor" x2="0"></line><text fill="currentColor" x="-3" dy="0.32em">array (union, explicit)    </text></g></g><g class="x axis" transform="translate(149,525)" fill="none" font-size="10" font-family="sans-serif" text-anchor="middle" style="font-size: 13px;"><path class="domain" stroke="currentColor" d="M0.5,0.5H485.5"></path><g class="tick" opacity="1" transform="translate(0.5,0)" style="font-size: 13px;"><line stroke="currentColor" y2="6"></line><text fill="currentColor" y="9" dy="0.71em">0x</text></g><g class="tick" opacity="1" transform="translate(80.82450791964553,0)" style="font-size: 13px;"><line stroke="currentColor" y2="6"></line><text fill="currentColor" y="9" dy="0.71em">1,000,000x</text></g><g class="tick" opacity="1" transform="translate(161.14901583929105,0)" style="font-size: 13px;"><line stroke="currentColor" y2="6"></line><text fill="currentColor" y="9" dy="0.71em">2,000,000x</text></g><g class="tick" opacity="1" transform="translate(241.47352375893658,0)" style="font-size: 13px;"><line stroke="currentColor" y2="6"></line><text fill="currentColor" y="9" dy="0.71em">3,000,000x</text></g><g class="tick" opacity="1" transform="translate(321.7980316785821,0)" style="font-size: 13px;"><line stroke="currentColor" y2="6"></line><text fill="currentColor" y="9" dy="0.71em">4,000,000x</text></g><g class="tick" opacity="1" transform="translate(402.1225395982276,0)" style="font-size: 13px;"><line stroke="currentColor" y2="6"></line><text fill="currentColor" y="9" dy="0.71em">5,000,000x</text></g><g class="tick" opacity="1" transform="translate(482.44704751787316,0)" style="font-size: 13px;"><line stroke="currentColor" y2="6"></line><text fill="currentColor" y="9" dy="0.71em">6,000,000x</text></g></g><text transform="translate(400, 30)" style="text-anchor: middle; font-size: 20px; font-weight: bold;">optimizer benchmark</text><rect x="650" y="125" width="230" height="5" fill="gray"></rect><rect x="645" y="35" width="230" height="90" fill="none" stroke="black"></rect><rect x="655" y="45" width="10" height="10" style="fill: #4472c4;"></rect><text x="670" y="55" style="font-size: 12px;">typia</text><rect x="655" y="65" width="10" height="10" style="fill: #ed7d31;"></rect><text x="670" y="75" style="font-size: 12px;">typebox</text><rect x="655" y="85" width="10" height="10" style="fill: #a5a5a5;"></rect><text x="670" y="95" style="font-size: 12px;">ajv</text><rect x="655" y="105" width="10" height="10" style="fill: #ffc000;"></rect><text x="670" y="115" style="font-size: 12px;">class-validator</text><text x="20" y="589" style="font-size: 12px;">  - CPU: 11th Gen Intel(R) Core(TM) i5-1135G7 @ 2.40GHz</text><text x="20" y="606" style="font-size: 12px;">  - OS: win32</text><text x="20" y="623" style="font-size: 12px;">  - RAM: 16 GB</text><text x="20" y="640" style="font-size: 12px;">  - NodeJS version: v16.20.0</text><text x="20" y="657" style="font-size: 12px;">  - Typia version: v4.1.1</text><g style="font-size: 13px;"><g style="font-size: 13px;"><rect x="150" y="51.584362139917694" width="440.9090909090909" height="12.510288065843621" fill="#4472c4"></rect><rect x="150" y="64.75308641975309" width="0.02112847798675316" height="12.510288065843621" fill="#ed7d31"></rect><rect x="150" y="77.92181069958848" width="0.00008032450791964554" height="12.510288065843621" fill="#a5a5a5"></rect><rect x="150" y="91.09053497942386" width="0.020096632013885098" height="12.510288065843621" fill="#ffc000"></rect><text class="label" x="599.4090909090909" y="60.084362139917694" font-size="10px">5,489,098x</text><text class="label" x="158.52112847798676" y="73.25308641975309" font-size="10px">263x</text><text class="label" x="158.5000803245079" y="86.42181069958848" font-size="10px">1x</text><text class="label" x="158.5200966320139" y="99.59053497942386" font-size="10px">250x</text><text class="label" x="595.9090909090909" y="61.584362139917694" font-size="8px"></text><text class="label" x="155.02112847798676" y="74.75308641975309" font-size="8px"></text><text class="label" x="155.0000803245079" y="87.92181069958848" font-size="8px"></text><text class="label" x="155.0200966320139" y="101.09053497942386" font-size="8px"></text></g><g style="font-size: 13px;"><rect x="150" y="110.84362139917695" width="25.164765080879864" height="12.510288065843621" fill="#4472c4"></rect><rect x="150" y="124.01234567901236" width="0.009119596427898943" height="12.510288065843621" fill="#ed7d31"></rect><rect x="150" y="137.18106995884773" width="0.00008032450791964554" height="12.510288065843621" fill="#a5a5a5"></rect><rect x="150" y="150.34979423868313" width="0.009778428794984676" height="12.510288065843621" fill="#ffc000"></rect><text class="label" x="183.66476508087987" y="119.34362139917695" font-size="10px">313,289x</text><text class="label" x="158.5091195964279" y="132.51234567901236" font-size="10px">114x</text><text class="label" x="158.5000803245079" y="145.68106995884773" font-size="10px">1x</text><text class="label" x="158.509778428795" y="158.84979423868313" font-size="10px">122x</text><text class="label" x="180.16476508087987" y="120.84362139917695" font-size="8px"></text><text class="label" x="155.0091195964279" y="134.01234567901236" font-size="8px"></text><text class="label" x="155.0000803245079" y="147.18106995884773" font-size="8px"></text><text class="label" x="155.009778428795" y="160.34979423868313" font-size="8px"></text></g><g style="font-size: 13px;"><rect x="150" y="170.10288065843622" width="6.322482763046053" height="12.510288065843621" fill="#4472c4"></rect><rect x="150" y="183.2716049382716" width="0.01847500928396165" height="12.510288065843621" fill="#ed7d31"></rect><rect x="150" y="196.440329218107" width="0.00008032450791964554" height="12.510288065843621" fill="#a5a5a5"></rect><rect x="150" y="209.6090534979424" width="0.0037284722759672556" height="12.510288065843621" fill="#ffc000"></rect><text class="label" x="164.82248276304605" y="178.60288065843622" font-size="10px">78,712x</text><text class="label" x="158.51847500928397" y="191.7716049382716" font-size="10px">230x</text><text class="label" x="158.5000803245079" y="204.940329218107" font-size="10px">1x</text><text class="label" x="158.50372847227598" y="218.1090534979424" font-size="10px">46x</text><text class="label" x="161.32248276304605" y="180.10288065843622" font-size="8px"></text><text class="label" x="155.01847500928397" y="193.2716049382716" font-size="8px"></text><text class="label" x="155.0000803245079" y="206.440329218107" font-size="8px"></text><text class="label" x="155.00372847227598" y="219.6090534979424" font-size="8px"></text></g><g style="font-size: 13px;"><rect x="150" y="229.36213991769546" width="2.0595314633814352" height="12.510288065843621" fill="#4472c4"></rect><rect x="150" y="242.53086419753086" width="0.010250817181213723" height="12.510288065843621" fill="#ed7d31"></rect><rect x="150" y="255.69958847736626" width="0.00008032450791964554" height="12.510288065843621" fill="#a5a5a5"></rect><rect x="150" y="268.86831275720164" width="0.006623547075297088" height="12.510288065843621" fill="#ffc000"></rect><text class="label" x="160.55953146338143" y="237.86213991769546" font-size="10px">25,640x</text><text class="label" x="158.5102508171812" y="251.03086419753086" font-size="10px">128x</text><text class="label" x="158.5000803245079" y="264.19958847736626" font-size="10px">1x</text><text class="label" x="158.5066235470753" y="277.36831275720164" font-size="10px">82x</text><text class="label" x="157.05953146338143" y="239.36213991769546" font-size="8px"></text><text class="label" x="155.0102508171812" y="252.53086419753086" font-size="8px"></text><text class="label" x="155.0000803245079" y="265.69958847736626" font-size="8px"></text><text class="label" x="155.0066235470753" y="278.86831275720164" font-size="8px"></text></g><g style="font-size: 13px;"><rect x="150" y="288.6213991769547" width="2.1110964315065295" height="12.510288065843621" fill="#4472c4"></rect><rect x="150" y="301.7901234567901" width="0.015329172974689236" height="12.510288065843621" fill="#ed7d31"></rect><rect x="150" y="314.9588477366255" width="0.00008032450791964554" height="12.510288065843621" fill="#a5a5a5"></rect><rect x="150" y="328.12757201646093" width="0.003237930866944065" height="12.510288065843621" fill="#ffc000"></rect><text class="label" x="160.61109643150652" y="297.1213991769547" font-size="10px">26,282x</text><text class="label" x="158.5153291729747" y="310.2901234567901" font-size="10px">191x</text><text class="label" x="158.5000803245079" y="323.4588477366255" font-size="10px">1x</text><text class="label" x="158.50323793086693" y="336.62757201646093" font-size="10px">40x</text><text class="label" x="157.11109643150652" y="298.6213991769547" font-size="8px"></text><text class="label" x="155.0153291729747" y="311.7901234567901" font-size="8px"></text><text class="label" x="155.0000803245079" y="324.9588477366255" font-size="8px"></text><text class="label" x="155.00323793086693" y="338.12757201646093" font-size="8px"></text></g><g style="font-size: 13px;"><rect x="150" y="347.880658436214" width="0.5607534280925345" height="12.510288065843621" fill="#4472c4"></rect><rect x="150" y="361.04938271604937" width="0.01712523300634126" height="12.510288065843621" fill="#ed7d31"></rect><rect x="150" y="374.2181069958848" width="0.00008032450791964554" height="12.510288065843621" fill="#a5a5a5"></rect><rect x="150" y="387.38683127572017" width="0.000387950390998264" height="12.510288065843621" fill="#ffc000"></rect><text class="label" x="159.06075342809254" y="356.380658436214" font-size="10px">6,981x</text><text class="label" x="158.51712523300634" y="369.54938271604937" font-size="10px">213x</text><text class="label" x="158.5000803245079" y="382.7181069958848" font-size="10px">1x</text><text class="label" x="158.500387950391" y="395.88683127572017" font-size="10px">5x</text><text class="label" x="155.56075342809254" y="357.880658436214" font-size="8px"></text><text class="label" x="155.01712523300634" y="371.04938271604937" font-size="8px"></text><text class="label" x="155.0000803245079" y="384.2181069958848" font-size="8px"></text><text class="label" x="155.000387950391" y="397.38683127572017" font-size="8px"></text></g><g style="font-size: 13px;"><rect x="150" y="407.13991769547323" width="0.5094041370637659" height="12.510288065843621" fill="#4472c4"></rect><rect x="150" y="420.3086419753086" width="0.020713295367255045" height="12.510288065843621" fill="#ed7d31"></rect><rect x="150" y="433.47736625514403" width="0.00008032450791964554" height="12.510288065843621" fill="#a5a5a5"></rect><rect x="150" y="446.6460905349794" width="0.00030730160607796636" height="12.510288065843621" fill="#ffc000"></rect><text class="label" x="159.00940413706377" y="415.63991769547323" font-size="10px">6,342x</text><text class="label" x="158.52071329536724" y="428.8086419753086" font-size="10px">258x</text><text class="label" x="158.5000803245079" y="441.97736625514403" font-size="10px">1x</text><text class="label" x="158.50030730160609" y="455.1460905349794" font-size="10px">4x</text><text class="label" x="155.50940413706377" y="417.13991769547323" font-size="8px"></text><text class="label" x="155.02071329536724" y="430.3086419753086" font-size="8px"></text><text class="label" x="155.0000803245079" y="443.47736625514403" font-size="8px"></text><text class="label" x="155.00030730160609" y="456.6460905349794" font-size="8px"></text></g><g style="font-size: 13px;"><rect x="150" y="466.3991769547325" width="0.6876184695046915" height="12.510288065843621" fill="#4472c4"></rect><rect x="150" y="479.5679012345679" width="0.016146018871341834" height="12.510288065843621" fill="#ed7d31"></rect><rect x="150" y="492.73662551440333" width="0.00008032450791964554" height="12.510288065843621" fill="#a5a5a5"></rect><rect x="150" y="505.9053497942387" width="0.002513547616668953" height="12.510288065843621" fill="#ffc000"></rect><text class="label" x="159.18761846950468" y="474.8991769547325" font-size="10px">8,561x</text><text class="label" x="158.51614601887135" y="488.0679012345679" font-size="10px">201x</text><text class="label" x="158.5000803245079" y="501.23662551440333" font-size="10px">1x</text><text class="label" x="158.50251354761667" y="514.4053497942386" font-size="10px">31x</text><text class="label" x="155.68761846950468" y="476.3991769547325" font-size="8px"></text><text class="label" x="155.01614601887135" y="489.5679012345679" font-size="8px"></text><text class="label" x="155.0000803245079" y="502.73662551440333" font-size="8px"></text><text class="label" x="155.00251354761667" y="515.9053497942386" font-size="8px"></text></g></g></svg>