<svg xmlns="http://www.w3.org/2000/svg" xmlns:xlink="http://www.w3.org/1999/xlink" width="800" height="674" style="background-color: white;"><g class="y axis" transform="translate(149,45)" fill="none" font-size="10" font-family="sans-serif" text-anchor="end" style="font-size: 13px;"><path class="domain" stroke="currentColor" d="M0.5,0.5V480.5"></path><g class="tick" opacity="1" transform="translate(0,32.592592592592595)" style="font-size: 13px;"><line stroke="currentColor" x2="0"></line><text fill="currentColor" x="-3" dy="0.32em">object (simple)    </text></g><g class="tick" opacity="1" transform="translate(0,91.85185185185186)" style="font-size: 13px;"><line stroke="currentColor" x2="0"></line><text fill="currentColor" x="-3" dy="0.32em">object (hierarchical)    </text></g><g class="tick" opacity="1" transform="translate(0,151.11111111111111)" style="font-size: 13px;"><line stroke="currentColor" x2="0"></line><text fill="currentColor" x="-3" dy="0.32em">object (recursive)    </text></g><g class="tick" opacity="1" transform="translate(0,210.37037037037035)" style="font-size: 13px;"><line stroke="currentColor" x2="0"></line><text fill="currentColor" x="-3" dy="0.32em">object (union, explicit)    </text></g><g class="tick" opacity="1" transform="translate(0,269.6296296296296)" style="font-size: 13px;"><line stroke="currentColor" x2="0"></line><text fill="currentColor" x="-3" dy="0.32em">array (simple)    </text></g><g class="tick" opacity="1" transform="translate(0,328.8888888888889)" style="font-size: 13px;"><line stroke="currentColor" x2="0"></line><text fill="currentColor" x="-3" dy="0.32em">array (hierarchical)    </text></g><g class="tick" opacity="1" transform="translate(0,388.14814814814815)" style="font-size: 13px;"><line stroke="currentColor" x2="0"></line><text fill="currentColor" x="-3" dy="0.32em">array (recursive)    </text></g><g class="tick" opacity="1" transform="translate(0,447.40740740740745)" style="font-size: 13px;"><line stroke="currentColor" x2="0"></line><text fill="currentColor" x="-3" dy="0.32em">array (union, explicit)    </text></g></g><g class="x axis" transform="translate(149,525)" fill="none" font-size="10" font-family="sans-serif" text-anchor="middle" style="font-size: 13px;"><path class="domain" stroke="currentColor" d="M0.5,0.5H485.5"></path><g class="tick" opacity="1" transform="translate(0.5,0)" style="font-size: 13px;"><line stroke="currentColor" y2="6"></line><text fill="currentColor" y="9" dy="0.71em">0x</text></g><g class="tick" opacity="1" transform="translate(73.38191466646467,0)" style="font-size: 13px;"><line stroke="currentColor" y2="6"></line><text fill="currentColor" y="9" dy="0.71em">200,000x</text></g><g class="tick" opacity="1" transform="translate(146.26382933292933,0)" style="font-size: 13px;"><line stroke="currentColor" y2="6"></line><text fill="currentColor" y="9" dy="0.71em">400,000x</text></g><g class="tick" opacity="1" transform="translate(219.145743999394,0)" style="font-size: 13px;"><line stroke="currentColor" y2="6"></line><text fill="currentColor" y="9" dy="0.71em">600,000x</text></g><g class="tick" opacity="1" transform="translate(292.02765866585867,0)" style="font-size: 13px;"><line stroke="currentColor" y2="6"></line><text fill="currentColor" y="9" dy="0.71em">800,000x</text></g><g class="tick" opacity="1" transform="translate(364.90957333232336,0)" style="font-size: 13px;"><line stroke="currentColor" y2="6"></line><text fill="currentColor" y="9" dy="0.71em">1,000,000x</text></g><g class="tick" opacity="1" transform="translate(437.791487998788,0)" style="font-size: 13px;"><line stroke="currentColor" y2="6"></line><text fill="currentColor" y="9" dy="0.71em">1,200,000x</text></g></g><text transform="translate(400, 30)" style="text-anchor: middle; font-size: 20px; font-weight: bold;">optimizer benchmark</text><rect x="650" y="125" width="230" height="5" fill="gray"></rect><rect x="645" y="35" width="230" height="90" fill="none" stroke="black"></rect><rect x="655" y="45" width="10" height="10" style="fill: #4472c4;"></rect><text x="670" y="55" style="font-size: 12px;">typia</text><rect x="655" y="65" width="10" height="10" style="fill: #ed7d31;"></rect><text x="670" y="75" style="font-size: 12px;">typebox</text><rect x="655" y="85" width="10" height="10" style="fill: #a5a5a5;"></rect><text x="670" y="95" style="font-size: 12px;">ajv</text><rect x="655" y="105" width="10" height="10" style="fill: #ffc000;"></rect><text x="670" y="115" style="font-size: 12px;">class-validator</text><text x="20" y="589" style="font-size: 12px;">  - CPU: 11th Gen Intel(R) Core(TM) i5-1135G7 @ 2.40GHz</text><text x="20" y="606" style="font-size: 12px;">  - OS: win32</text><text x="20" y="623" style="font-size: 12px;">  - RAM: 16 GB</text><text x="20" y="640" style="font-size: 12px;">  - NodeJS version: v16.20.0</text><text x="20" y="657" style="font-size: 12px;">  - Typia version: v3.7.3</text><g style="font-size: 13px;"><g style="font-size: 13px;"><rect x="150" y="51.584362139917694" width="440.9090909090908" height="12.510288065843621" fill="#4472c4"></rect><rect x="150" y="64.75308641975309" width="0.023617320022668607" height="12.510288065843621" fill="#ed7d31"></rect><rect x="150" y="77.92181069958848" width="0.00036440957333232335" height="12.510288065843621" fill="#a5a5a5"></rect><rect x="150" y="91.09053497942386" width="0.019488117923820932" height="12.510288065843621" fill="#ffc000"></rect><text class="label" x="599.4090909090908" y="60.084362139917694" font-size="10px">1,209,927x</text><text class="label" x="158.52361732002268" y="73.25308641975309" font-size="10px">65x</text><text class="label" x="158.50036440957334" y="86.42181069958848" font-size="10px">1x</text><text class="label" x="158.51948811792383" y="99.59053497942386" font-size="10px">53x</text><text class="label" x="595.9090909090908" y="61.584362139917694" font-size="8px"></text><text class="label" x="155.02361732002268" y="74.75308641975309" font-size="8px"></text><text class="label" x="155.00036440957334" y="87.92181069958848" font-size="8px"></text><text class="label" x="155.01948811792383" y="101.09053497942386" font-size="8px"></text></g><g style="font-size: 13px;"><rect x="150" y="110.84362139917695" width="20.448203203944427" height="12.510288065843621" fill="#4472c4"></rect><rect x="150" y="124.01234567901236" width="0.00859161345544314" height="12.510288065843621" fill="#ed7d31"></rect><rect x="150" y="137.18106995884773" width="0.00036440957333232335" height="12.510288065843621" fill="#a5a5a5"></rect><rect x="150" y="150.34979423868313" width="0.006964630214691896" height="12.510288065843621" fill="#ffc000"></rect><text class="label" x="178.94820320394442" y="119.34362139917695" font-size="10px">56,113x</text><text class="label" x="158.50859161345545" y="132.51234567901236" font-size="10px">24x</text><text class="label" x="158.50036440957334" y="145.68106995884773" font-size="10px">1x</text><text class="label" x="158.5069646302147" y="158.84979423868313" font-size="10px">19x</text><text class="label" x="175.44820320394442" y="120.84362139917695" font-size="8px"></text><text class="label" x="155.00859161345545" y="134.01234567901236" font-size="8px"></text><text class="label" x="155.00036440957334" y="147.18106995884773" font-size="8px"></text><text class="label" x="155.0069646302147" y="160.34979423868313" font-size="8px"></text></g><g style="font-size: 13px;"><rect x="150" y="170.10288065843622" width="6.043735139699157" height="12.510288065843621" fill="#4472c4"></rect><rect x="150" y="183.2716049382716" width="0.02488183106571578" height="12.510288065843621" fill="#ed7d31"></rect><rect x="150" y="196.440329218107" width="0.00036440957333232335" height="12.510288065843621" fill="#a5a5a5"></rect><rect x="150" y="209.6090534979424" width="0.0038091662966021444" height="12.510288065843621" fill="#ffc000"></rect><text class="label" x="164.54373513969915" y="178.60288065843622" font-size="10px">16,585x</text><text class="label" x="158.52488183106573" y="191.7716049382716" font-size="10px">68x</text><text class="label" x="158.50036440957334" y="204.940329218107" font-size="10px">1x</text><text class="label" x="158.5038091662966" y="218.1090534979424" font-size="10px">10x</text><text class="label" x="161.04373513969915" y="180.10288065843622" font-size="8px"></text><text class="label" x="155.02488183106573" y="193.2716049382716" font-size="8px"></text><text class="label" x="155.00036440957334" y="206.440329218107" font-size="8px"></text><text class="label" x="155.0038091662966" y="219.6090534979424" font-size="8px"></text></g><g style="font-size: 13px;"><rect x="150" y="229.36213991769546" width="1.7750393642009998" height="12.510288065843621" fill="#4472c4"></rect><rect x="150" y="242.53086419753086" width="0.009236791606325144" height="12.510288065843621" fill="#ed7d31"></rect><rect x="150" y="255.69958847736626" width="0.00036440957333232335" height="12.510288065843621" fill="#a5a5a5"></rect><rect x="150" y="268.86831275720164" width="0.005935389825497574" height="12.510288065843621" fill="#ffc000"></rect><text class="label" x="160.275039364201" y="237.86213991769546" font-size="10px">4,871x</text><text class="label" x="158.50923679160633" y="251.03086419753086" font-size="10px">25x</text><text class="label" x="158.50036440957334" y="264.19958847736626" font-size="10px">1x</text><text class="label" x="158.5059353898255" y="277.36831275720164" font-size="10px">16x</text><text class="label" x="156.775039364201" y="239.36213991769546" font-size="8px"></text><text class="label" x="155.00923679160633" y="252.53086419753086" font-size="8px"></text><text class="label" x="155.00036440957334" y="265.69958847736626" font-size="8px"></text><text class="label" x="155.0059353898255" y="278.86831275720164" font-size="8px"></text></g><g style="font-size: 13px;"><rect x="150" y="288.6213991769547" width="1.6202963373885415" height="12.510288065843621" fill="#4472c4"></rect><rect x="150" y="301.7901234567901" width="0.008511603300383763" height="12.510288065843621" fill="#ed7d31"></rect><rect x="150" y="314.9588477366255" width="0.00036440957333232335" height="12.510288065843621" fill="#a5a5a5"></rect><rect x="150" y="328.12757201646093" width="0.002491195065240024" height="12.510288065843621" fill="#ffc000"></rect><text class="label" x="160.12029633738854" y="297.1213991769547" font-size="10px">4,446x</text><text class="label" x="158.50851160330038" y="310.2901234567901" font-size="10px">23x</text><text class="label" x="158.50036440957334" y="323.4588477366255" font-size="10px">1x</text><text class="label" x="158.50249119506523" y="336.62757201646093" font-size="10px">7x</text><text class="label" x="156.62029633738854" y="298.6213991769547" font-size="8px"></text><text class="label" x="155.00851160330038" y="311.7901234567901" font-size="8px"></text><text class="label" x="155.00036440957334" y="324.9588477366255" font-size="8px"></text><text class="label" x="155.00249119506523" y="338.12757201646093" font-size="8px"></text></g><g style="font-size: 13px;"><rect x="150" y="347.880658436214" width="1.1062071277150907" height="12.510288065843621" fill="#4472c4"></rect><rect x="150" y="361.04938271604937" width="0.030405372820585266" height="12.510288065843621" fill="#ed7d31"></rect><rect x="150" y="374.2181069958848" width="0.00036440957333232335" height="12.510288065843621" fill="#a5a5a5"></rect><rect x="150" y="387.38683127572017" width="0.0007151354588428137" height="12.510288065843621" fill="#ffc000"></rect><text class="label" x="159.6062071277151" y="356.380658436214" font-size="10px">3,036x</text><text class="label" x="158.53040537282058" y="369.54938271604937" font-size="10px">83x</text><text class="label" x="158.50036440957334" y="382.7181069958848" font-size="10px">1x</text><text class="label" x="158.50071513545885" y="395.88683127572017" font-size="10px">2x</text><text class="label" x="156.1062071277151" y="357.880658436214" font-size="8px"></text><text class="label" x="155.03040537282058" y="371.04938271604937" font-size="8px"></text><text class="label" x="155.00036440957334" y="384.2181069958848" font-size="8px"></text><text class="label" x="155.00071513545885" y="397.38683127572017" font-size="8px"></text></g><g style="font-size: 13px;"><rect x="150" y="407.13991769547323" width="0.691353972759365" height="12.510288065843621" fill="#4472c4"></rect><rect x="150" y="420.3086419753086" width="0.03396953930694534" height="12.510288065843621" fill="#ed7d31"></rect><rect x="150" y="433.47736625514403" width="0.0004501954415506756" height="12.510288065843621" fill="#a5a5a5"></rect><rect x="150" y="446.6460905349794" width="0.00036440957333232335" height="12.510288065843621" fill="#ffc000"></rect><text class="label" x="159.19135397275937" y="415.63991769547323" font-size="10px">1,897x</text><text class="label" x="158.53396953930695" y="428.8086419753086" font-size="10px">93x</text><text class="label" x="158.50045019544154" y="441.97736625514403" font-size="10px">1x</text><text class="label" x="158.50036440957334" y="455.1460905349794" font-size="10px">1x</text><text class="label" x="155.69135397275937" y="417.13991769547323" font-size="8px"></text><text class="label" x="155.03396953930695" y="430.3086419753086" font-size="8px"></text><text class="label" x="155.00045019544154" y="443.47736625514403" font-size="8px"></text><text class="label" x="155.00036440957334" y="456.6460905349794" font-size="8px"></text></g><g style="font-size: 13px;"><rect x="150" y="466.3991769547325" width="0.47046897978856167" height="12.510288065843621" fill="#4472c4"></rect><rect x="150" y="479.5679012345679" width="0.013697129828808123" height="12.510288065843621" fill="#ed7d31"></rect><rect x="150" y="492.73662551440333" width="0.00036440957333232335" height="12.510288065843621" fill="#a5a5a5"></rect><rect x="150" y="505.9053497942387" width="0.0020240503851312462" height="12.510288065843621" fill="#ffc000"></rect><text class="label" x="158.97046897978856" y="474.8991769547325" font-size="10px">1,291x</text><text class="label" x="158.5136971298288" y="488.0679012345679" font-size="10px">38x</text><text class="label" x="158.50036440957334" y="501.23662551440333" font-size="10px">1x</text><text class="label" x="158.50202405038513" y="514.4053497942386" font-size="10px">6x</text><text class="label" x="155.47046897978856" y="476.3991769547325" font-size="8px"></text><text class="label" x="155.0136971298288" y="489.5679012345679" font-size="8px"></text><text class="label" x="155.00036440957334" y="502.73662551440333" font-size="8px"></text><text class="label" x="155.00202405038513" y="515.9053497942386" font-size="8px"></text></g></g></svg>