<svg xmlns="http://www.w3.org/2000/svg" xmlns:xlink="http://www.w3.org/1999/xlink" width="800" height="390" style="background-color: white;"><g class="y axis" transform="translate(149,45)" fill="none" font-size="10" font-family="sans-serif" text-anchor="end" style="font-size: 13px;"><path class="domain" stroke="#000" d="M0,0.5H0.5V315.5H0"></path><g class="tick" opacity="1" transform="translate(0,24.40140845070425)" style="font-size: 13px;"><line stroke="#000" x2="0"></line><text fill="#000" x="-3" dy="0.32em">object (hierarchical)    </text></g><g class="tick" opacity="1" transform="translate(0,68.76760563380283)" style="font-size: 13px;"><line stroke="#000" x2="0"></line><text fill="#000" x="-3" dy="0.32em">object (recursive)    </text></g><g class="tick" opacity="1" transform="translate(0,113.13380281690142)" style="font-size: 13px;"><line stroke="#000" x2="0"></line><text fill="#000" x="-3" dy="0.32em">object (union)    </text></g><g class="tick" opacity="1" transform="translate(0,157.5)" style="font-size: 13px;"><line stroke="#000" x2="0"></line><text fill="#000" x="-3" dy="0.32em">array (hierarchical)    </text></g><g class="tick" opacity="1" transform="translate(0,201.8661971830986)" style="font-size: 13px;"><line stroke="#000" x2="0"></line><text fill="#000" x="-3" dy="0.32em">array (recursive)    </text></g><g class="tick" opacity="1" transform="translate(0,246.23239436619718)" style="font-size: 13px;"><line stroke="#000" x2="0"></line><text fill="#000" x="-3" dy="0.32em">array (union)    </text></g><g class="tick" opacity="1" transform="translate(0,290.59859154929575)" style="font-size: 13px;"><line stroke="#000" x2="0"></line><text fill="#000" x="-3" dy="0.32em">ultimate union    </text></g></g><g class="x axis" transform="translate(149,360)" fill="none" font-size="10" font-family="sans-serif" text-anchor="middle" style="font-size: 13px;"><path class="domain" stroke="#000" d="M0.5,0V0.5H485.5V0"></path><g class="tick" opacity="1" transform="translate(0.5,0)" style="font-size: 13px;"><line stroke="#000" y2="6"></line><text fill="#000" y="9" dy="0.71em">0x</text></g><g class="tick" opacity="1" transform="translate(106.97562204176639,0)" style="font-size: 13px;"><line stroke="#000" y2="6"></line><text fill="#000" y="9" dy="0.71em">10,000x</text></g><g class="tick" opacity="1" transform="translate(213.45124408353277,0)" style="font-size: 13px;"><line stroke="#000" y2="6"></line><text fill="#000" y="9" dy="0.71em">20,000x</text></g><g class="tick" opacity="1" transform="translate(319.9268661252991,0)" style="font-size: 13px;"><line stroke="#000" y2="6"></line><text fill="#000" y="9" dy="0.71em">30,000x</text></g><g class="tick" opacity="1" transform="translate(426.40248816706554,0)" style="font-size: 13px;"><line stroke="#000" y2="6"></line><text fill="#000" y="9" dy="0.71em">40,000x</text></g></g><text transform="translate(400, 30)" style="text-anchor: middle; font-size: 20px; font-weight: bold;">optimizer benchmark</text><rect x="680" y="105" width="200" height="5" fill="gray"></rect><rect x="675" y="35" width="200" height="70" fill="none" stroke="black"></rect><rect x="685" y="45" width="10" height="10" style="fill: #4472c4;"></rect><text x="700" y="55" style="font-size: 12px;">typescript-json</text><rect x="685" y="65" width="10" height="10" style="fill: #ed7d31;"></rect><text x="700" y="75" style="font-size: 12px;">typebox</text><rect x="685" y="85" width="10" height="10" style="fill: #a5a5a5;"></rect><text x="700" y="95" style="font-size: 12px;">ajv</text><g style="font-size: 13px;"><g style="font-size: 13px;"><rect x="150" y="50.091202955437566" width="440.9090909090909" height="12.437081505425995" fill="#4472c4"></rect><rect x="150" y="63.18286769799125" width="0.3760071887327768" height="12.437081505425995" fill="#ed7d31"></rect><rect x="150" y="76.27453244054493" width="0.010647562204176638" height="12.437081505425995" fill="#a5a5a5"></rect><text class="label" x="599.4090909090909" y="58.591202955437566" font-size="10px">41,409x</text><text class="label" x="158.87600718873279" y="71.68286769799124" font-size="10px">35x</text><text class="label" x="158.51064756220418" y="84.77453244054493" font-size="10px">1x</text><text class="label" x="595.9090909090909" y="60.091202955437566" font-size="8px"></text><text class="label" x="155.37600718873279" y="73.18286769799124" font-size="8px"></text><text class="label" x="155.01064756220418" y="86.27453244054493" font-size="8px"></text></g><g style="font-size: 13px;"><rect x="150" y="94.45740013853616" width="108.08272070962505" height="12.437081505425995" fill="#4472c4"></rect><rect x="150" y="107.54906488108983" width="0.8886783213442969" height="12.437081505425995" fill="#ed7d31"></rect><rect x="150" y="120.64072962364352" width="0.010647562204176638" height="12.437081505425995" fill="#a5a5a5"></rect><text class="label" x="266.58272070962505" y="102.95740013853616" font-size="10px">10,151x</text><text class="label" x="159.3886783213443" y="116.04906488108983" font-size="10px">83x</text><text class="label" x="158.51064756220418" y="129.14072962364352" font-size="10px">1x</text><text class="label" x="263.08272070962505" y="104.45740013853616" font-size="8px"></text><text class="label" x="155.8886783213443" y="117.54906488108983" font-size="8px"></text><text class="label" x="155.01064756220418" y="130.64072962364352" font-size="8px"></text></g><g style="font-size: 13px;"><rect x="150" y="138.82359732163474" width="50.4876358245028" height="12.437081505425995" fill="#4472c4"></rect><rect x="150" y="151.91526206418843" width="0.22527731288851455" height="12.437081505425995" fill="#ed7d31"></rect><rect x="150" y="165.00692680674211" width="0.010647562204176638" height="12.437081505425995" fill="#a5a5a5"></rect><text class="label" x="208.9876358245028" y="147.32359732163474" font-size="10px">4,742x</text><text class="label" x="158.72527731288852" y="160.41526206418843" font-size="10px">21x</text><text class="label" x="158.51064756220418" y="173.50692680674211" font-size="10px">1x</text><text class="label" x="205.4876358245028" y="148.82359732163474" font-size="8px"></text><text class="label" x="155.22527731288852" y="161.91526206418843" font-size="8px"></text><text class="label" x="155.01064756220418" y="175.00692680674211" font-size="8px"></text></g><g style="font-size: 13px;"><rect x="150" y="183.18979450473333" width="7.038965619974518" height="12.437081505425995" fill="#4472c4"></rect><rect x="150" y="196.281459247287" width="1.5316265249711152" height="12.437081505425995" fill="#ed7d31"></rect><rect x="150" y="209.37312398984068" width="0.010647562204176638" height="12.437081505425995" fill="#a5a5a5"></rect><text class="label" x="165.5389656199745" y="191.68979450473333" font-size="10px">661x</text><text class="label" x="160.0316265249711" y="204.781459247287" font-size="10px">144x</text><text class="label" x="158.51064756220418" y="217.87312398984068" font-size="10px">1x</text><text class="label" x="162.0389656199745" y="193.18979450473333" font-size="8px"></text><text class="label" x="156.5316265249711" y="206.281459247287" font-size="8px"></text><text class="label" x="155.01064756220418" y="219.37312398984068" font-size="8px"></text></g><g style="font-size: 13px;"><rect x="150" y="227.55599168783192" width="9.015956993442185" height="12.437081505425995" fill="#4472c4"></rect><rect x="150" y="240.64765643038558" width="0.8996439314734359" height="12.437081505425995" fill="#ed7d31"></rect><rect x="150" y="253.73932117293927" width="0.010647562204176638" height="12.437081505425995" fill="#a5a5a5"></rect><text class="label" x="167.5159569934422" y="236.05599168783192" font-size="10px">847x</text><text class="label" x="159.39964393147343" y="249.14765643038558" font-size="10px">84x</text><text class="label" x="158.51064756220418" y="262.2393211729393" font-size="10px">1x</text><text class="label" x="164.0159569934422" y="237.55599168783192" font-size="8px"></text><text class="label" x="155.89964393147343" y="250.64765643038558" font-size="8px"></text><text class="label" x="155.01064756220418" y="263.7393211729393" font-size="8px"></text></g><g style="font-size: 13px;"><rect x="150" y="271.92218887093054" width="7.122266880938735" height="12.437081505425995" fill="#4472c4"></rect><rect x="150" y="285.0138536134842" width="0.40630196543372504" height="12.437081505425995" fill="#ed7d31"></rect><rect x="150" y="298.10551835603786" width="0.010647562204176638" height="12.437081505425995" fill="#a5a5a5"></rect><text class="label" x="165.62226688093872" y="280.42218887093054" font-size="10px">669x</text><text class="label" x="158.90630196543373" y="293.5138536134842" font-size="10px">38x</text><text class="label" x="158.51064756220418" y="306.60551835603786" font-size="10px">1x</text><text class="label" x="162.12226688093872" y="281.92218887093054" font-size="8px"></text><text class="label" x="155.40630196543373" y="295.0138536134842" font-size="8px"></text><text class="label" x="155.01064756220418" y="308.10551835603786" font-size="8px"></text></g><g style="font-size: 13px;"><rect x="150" y="316.28838605402905" width="6.686307066241072" height="12.437081505425995" fill="#4472c4"></rect><rect x="150" y="329.38005079658274" width="0.13234623016783836" height="12.437081505425995" fill="#ed7d31"></rect><rect x="150" y="342.4717155391364" width="0.010647562204176638" height="12.437081505425995" fill="#a5a5a5"></rect><text class="label" x="165.18630706624108" y="324.78838605402905" font-size="10px">628x</text><text class="label" x="158.63234623016783" y="337.88005079658274" font-size="10px">12x</text><text class="label" x="158.51064756220418" y="350.9717155391364" font-size="10px">1x</text><text class="label" x="161.68630706624108" y="326.28838605402905" font-size="8px"></text><text class="label" x="155.13234623016783" y="339.38005079658274" font-size="8px"></text><text class="label" x="155.01064756220418" y="352.4717155391364" font-size="8px"></text></g></g></svg>