<svg xmlns="http://www.w3.org/2000/svg" xmlns:xlink="http://www.w3.org/1999/xlink" width="800" height="674" style="background-color: white;"><g class="y axis" transform="translate(149,45)" fill="none" font-size="10" font-family="sans-serif" text-anchor="end" style="font-size: 13px;"><path class="domain" stroke="currentColor" d="M0.5,0.5V480.5"></path><g class="tick" opacity="1" transform="translate(0,32.592592592592595)" style="font-size: 13px;"><line stroke="currentColor" x2="0"></line><text fill="currentColor" x="-3" dy="0.32em">object (simple)    </text></g><g class="tick" opacity="1" transform="translate(0,91.85185185185186)" style="font-size: 13px;"><line stroke="currentColor" x2="0"></line><text fill="currentColor" x="-3" dy="0.32em">object (hierarchical)    </text></g><g class="tick" opacity="1" transform="translate(0,151.11111111111111)" style="font-size: 13px;"><line stroke="currentColor" x2="0"></line><text fill="currentColor" x="-3" dy="0.32em">object (recursive)    </text></g><g class="tick" opacity="1" transform="translate(0,210.37037037037035)" style="font-size: 13px;"><line stroke="currentColor" x2="0"></line><text fill="currentColor" x="-3" dy="0.32em">object (union, explicit)    </text></g><g class="tick" opacity="1" transform="translate(0,269.6296296296296)" style="font-size: 13px;"><line stroke="currentColor" x2="0"></line><text fill="currentColor" x="-3" dy="0.32em">array (simple)    </text></g><g class="tick" opacity="1" transform="translate(0,328.8888888888889)" style="font-size: 13px;"><line stroke="currentColor" x2="0"></line><text fill="currentColor" x="-3" dy="0.32em">array (hierarchical)    </text></g><g class="tick" opacity="1" transform="translate(0,388.14814814814815)" style="font-size: 13px;"><line stroke="currentColor" x2="0"></line><text fill="currentColor" x="-3" dy="0.32em">array (recursive)    </text></g><g class="tick" opacity="1" transform="translate(0,447.40740740740745)" style="font-size: 13px;"><line stroke="currentColor" x2="0"></line><text fill="currentColor" x="-3" dy="0.32em">array (union, explicit)    </text></g></g><g class="x axis" transform="translate(149,525)" fill="none" font-size="10" font-family="sans-serif" text-anchor="middle" style="font-size: 13px;"><path class="domain" stroke="currentColor" d="M0.5,0.5H485.5"></path><g class="tick" opacity="1" transform="translate(0.5,0)" style="font-size: 13px;"><line stroke="currentColor" y2="6"></line><text fill="currentColor" y="9" dy="0.71em">0x</text></g><g class="tick" opacity="1" transform="translate(69.33899464416794,0)" style="font-size: 13px;"><line stroke="currentColor" y2="6"></line><text fill="currentColor" y="9" dy="0.71em">200,000x</text></g><g class="tick" opacity="1" transform="translate(138.17798928833588,0)" style="font-size: 13px;"><line stroke="currentColor" y2="6"></line><text fill="currentColor" y="9" dy="0.71em">400,000x</text></g><g class="tick" opacity="1" transform="translate(207.01698393250382,0)" style="font-size: 13px;"><line stroke="currentColor" y2="6"></line><text fill="currentColor" y="9" dy="0.71em">600,000x</text></g><g class="tick" opacity="1" transform="translate(275.85597857667176,0)" style="font-size: 13px;"><line stroke="currentColor" y2="6"></line><text fill="currentColor" y="9" dy="0.71em">800,000x</text></g><g class="tick" opacity="1" transform="translate(344.6949732208397,0)" style="font-size: 13px;"><line stroke="currentColor" y2="6"></line><text fill="currentColor" y="9" dy="0.71em">1,000,000x</text></g><g class="tick" opacity="1" transform="translate(413.53396786500764,0)" style="font-size: 13px;"><line stroke="currentColor" y2="6"></line><text fill="currentColor" y="9" dy="0.71em">1,200,000x</text></g><g class="tick" opacity="1" transform="translate(482.3729625091756,0)" style="font-size: 13px;"><line stroke="currentColor" y2="6"></line><text fill="currentColor" y="9" dy="0.71em">1,400,000x</text></g></g><text transform="translate(400, 30)" style="text-anchor: middle; font-size: 20px; font-weight: bold;">optimizer benchmark</text><rect x="650" y="125" width="230" height="5" fill="gray"></rect><rect x="645" y="35" width="230" height="90" fill="none" stroke="black"></rect><rect x="655" y="45" width="10" height="10" style="fill: #4472c4;"></rect><text x="670" y="55" style="font-size: 12px;">typia</text><rect x="655" y="65" width="10" height="10" style="fill: #ed7d31;"></rect><text x="670" y="75" style="font-size: 12px;">typebox</text><rect x="655" y="85" width="10" height="10" style="fill: #a5a5a5;"></rect><text x="670" y="95" style="font-size: 12px;">ajv</text><rect x="655" y="105" width="10" height="10" style="fill: #ffc000;"></rect><text x="670" y="115" style="font-size: 12px;">class-validator</text><text x="20" y="589" style="font-size: 12px;">  - CPU: 11th Gen Intel(R) Core(TM) i5-1135G7 @ 2.40GHz</text><text x="20" y="606" style="font-size: 12px;">  - OS: win32</text><text x="20" y="623" style="font-size: 12px;">  - RAM: 16 GB</text><text x="20" y="640" style="font-size: 12px;">  - NodeJS version: v16.20.0</text><text x="20" y="657" style="font-size: 12px;">  - Typia version: v3.8.6</text><g style="font-size: 13px;"><g style="font-size: 13px;"><rect x="150" y="51.584362139917694" width="440.9090909090909" height="12.510288065843621" fill="#4472c4"></rect><rect x="150" y="64.75308641975309" width="0.021914017748061468" height="12.510288065843621" fill="#ed7d31"></rect><rect x="150" y="77.92181069958848" width="0.00034419497322083967" height="12.510288065843621" fill="#a5a5a5"></rect><rect x="150" y="91.09053497942386" width="0.021384867301047182" height="12.510288065843621" fill="#ffc000"></rect><text class="label" x="599.4090909090909" y="60.084362139917694" font-size="10px">1,280,986x</text><text class="label" x="158.52191401774806" y="73.25308641975309" font-size="10px">64x</text><text class="label" x="158.50034419497322" y="86.42181069958848" font-size="10px">1x</text><text class="label" x="158.52138486730104" y="99.59053497942386" font-size="10px">62x</text><text class="label" x="595.9090909090909" y="61.584362139917694" font-size="8px"></text><text class="label" x="155.02191401774806" y="74.75308641975309" font-size="8px"></text><text class="label" x="155.00034419497322" y="87.92181069958848" font-size="8px"></text><text class="label" x="155.02138486730104" y="101.09053497942386" font-size="8px"></text></g><g style="font-size: 13px;"><rect x="150" y="110.84362139917695" width="20.26925750606303" height="12.510288065843621" fill="#4472c4"></rect><rect x="150" y="124.01234567901236" width="0.008186435332452195" height="12.510288065843621" fill="#ed7d31"></rect><rect x="150" y="137.18106995884773" width="0.00034419497322083967" height="12.510288065843621" fill="#a5a5a5"></rect><rect x="150" y="150.34979423868313" width="0.010843957302860658" height="12.510288065843621" fill="#ffc000"></rect><text class="label" x="178.76925750606304" y="119.34362139917695" font-size="10px">58,889x</text><text class="label" x="158.50818643533245" y="132.51234567901236" font-size="10px">24x</text><text class="label" x="158.50034419497322" y="145.68106995884773" font-size="10px">1x</text><text class="label" x="158.51084395730285" y="158.84979423868313" font-size="10px">32x</text><text class="label" x="175.26925750606304" y="120.84362139917695" font-size="8px"></text><text class="label" x="155.00818643533245" y="134.01234567901236" font-size="8px"></text><text class="label" x="155.00034419497322" y="147.18106995884773" font-size="8px"></text><text class="label" x="155.01084395730285" y="160.34979423868313" font-size="8px"></text></g><g style="font-size: 13px;"><rect x="150" y="170.10288065843622" width="6.287472406375387" height="12.510288065843621" fill="#4472c4"></rect><rect x="150" y="183.2716049382716" width="0.024483284334974195" height="12.510288065843621" fill="#ed7d31"></rect><rect x="150" y="196.440329218107" width="0.00034419497322083967" height="12.510288065843621" fill="#a5a5a5"></rect><rect x="150" y="209.6090534979424" width="0.003775911918012318" height="12.510288065843621" fill="#ffc000"></rect><text class="label" x="164.7874724063754" y="178.60288065843622" font-size="10px">18,267x</text><text class="label" x="158.52448328433496" y="191.7716049382716" font-size="10px">71x</text><text class="label" x="158.50034419497322" y="204.940329218107" font-size="10px">1x</text><text class="label" x="158.503775911918" y="218.1090534979424" font-size="10px">11x</text><text class="label" x="161.2874724063754" y="180.10288065843622" font-size="8px"></text><text class="label" x="155.02448328433496" y="193.2716049382716" font-size="8px"></text><text class="label" x="155.00034419497322" y="206.440329218107" font-size="8px"></text><text class="label" x="155.003775911918" y="219.6090534979424" font-size="8px"></text></g><g style="font-size: 13px;"><rect x="150" y="229.36213991769546" width="1.7861151518057774" height="12.510288065843621" fill="#4472c4"></rect><rect x="150" y="242.53086419753086" width="0.00975647493651543" height="12.510288065843621" fill="#ed7d31"></rect><rect x="150" y="255.69958847736626" width="0.00034419497322083967" height="12.510288065843621" fill="#a5a5a5"></rect><rect x="150" y="268.86831275720164" width="0.0055039365240896025" height="12.510288065843621" fill="#ffc000"></rect><text class="label" x="160.28611515180577" y="237.86213991769546" font-size="10px">5,189x</text><text class="label" x="158.50975647493652" y="251.03086419753086" font-size="10px">28x</text><text class="label" x="158.50034419497322" y="264.19958847736626" font-size="10px">1x</text><text class="label" x="158.5055039365241" y="277.36831275720164" font-size="10px">16x</text><text class="label" x="156.78611515180577" y="239.36213991769546" font-size="8px"></text><text class="label" x="155.00975647493652" y="252.53086419753086" font-size="8px"></text><text class="label" x="155.00034419497322" y="265.69958847736626" font-size="8px"></text><text class="label" x="155.0055039365241" y="278.86831275720164" font-size="8px"></text></g><g style="font-size: 13px;"><rect x="150" y="288.6213991769547" width="5.875544994011241" height="12.510288065843621" fill="#4472c4"></rect><rect x="150" y="301.7901234567901" width="0.03526893487162487" height="12.510288065843621" fill="#ed7d31"></rect><rect x="150" y="314.9588477366255" width="0.00034419497322083967" height="12.510288065843621" fill="#a5a5a5"></rect><rect x="150" y="328.12757201646093" width="0.008206324802864609" height="12.510288065843621" fill="#ffc000"></rect><text class="label" x="164.37554499401125" y="297.1213991769547" font-size="10px">17,070x</text><text class="label" x="158.53526893487162" y="310.2901234567901" font-size="10px">102x</text><text class="label" x="158.50034419497322" y="323.4588477366255" font-size="10px">1x</text><text class="label" x="158.50820632480287" y="336.62757201646093" font-size="10px">24x</text><text class="label" x="160.87554499401125" y="298.6213991769547" font-size="8px"></text><text class="label" x="155.03526893487162" y="311.7901234567901" font-size="8px"></text><text class="label" x="155.00034419497322" y="324.9588477366255" font-size="8px"></text><text class="label" x="155.00820632480287" y="338.12757201646093" font-size="8px"></text></g><g style="font-size: 13px;"><rect x="150" y="347.880658436214" width="0.5532830887812722" height="12.510288065843621" fill="#4472c4"></rect><rect x="150" y="361.04938271604937" width="0.016550117559048914" height="12.510288065843621" fill="#ed7d31"></rect><rect x="150" y="374.2181069958848" width="0.0004468801109544349" height="12.510288065843621" fill="#a5a5a5"></rect><rect x="150" y="387.38683127572017" width="0.00034419497322083967" height="12.510288065843621" fill="#ffc000"></rect><text class="label" x="159.05328308878128" y="356.380658436214" font-size="10px">1,607x</text><text class="label" x="158.51655011755904" y="369.54938271604937" font-size="10px">48x</text><text class="label" x="158.50044688011096" y="382.7181069958848" font-size="10px">1x</text><text class="label" x="158.50034419497322" y="395.88683127572017" font-size="10px">1x</text><text class="label" x="155.55328308878128" y="357.880658436214" font-size="8px"></text><text class="label" x="155.01655011755904" y="371.04938271604937" font-size="8px"></text><text class="label" x="155.00044688011096" y="384.2181069958848" font-size="8px"></text><text class="label" x="155.00034419497322" y="397.38683127572017" font-size="8px"></text></g><g style="font-size: 13px;"><rect x="150" y="407.13991769547323" width="0.6237151016261112" height="12.510288065843621" fill="#4472c4"></rect><rect x="150" y="420.3086419753086" width="0.02852937008271275" height="12.510288065843621" fill="#ed7d31"></rect><rect x="150" y="433.47736625514403" width="0.0003942439998875987" height="12.510288065843621" fill="#a5a5a5"></rect><rect x="150" y="446.6460905349794" width="0.00034419497322083967" height="12.510288065843621" fill="#ffc000"></rect><text class="label" x="159.12371510162612" y="415.63991769547323" font-size="10px">1,812x</text><text class="label" x="158.5285293700827" y="428.8086419753086" font-size="10px">83x</text><text class="label" x="158.5003942439999" y="441.97736625514403" font-size="10px">1x</text><text class="label" x="158.50034419497322" y="455.1460905349794" font-size="10px">1x</text><text class="label" x="155.62371510162612" y="417.13991769547323" font-size="8px"></text><text class="label" x="155.0285293700827" y="430.3086419753086" font-size="8px"></text><text class="label" x="155.0003942439999" y="443.47736625514403" font-size="8px"></text><text class="label" x="155.00034419497322" y="456.6460905349794" font-size="8px"></text></g><g style="font-size: 13px;"><rect x="150" y="466.3991769547325" width="0.4579107755553709" height="12.510288065843621" fill="#4472c4"></rect><rect x="150" y="479.5679012345679" width="0.01311245601782237" height="12.510288065843621" fill="#ed7d31"></rect><rect x="150" y="492.73662551440333" width="0.00034419497322083967" height="12.510288065843621" fill="#a5a5a5"></rect><rect x="150" y="505.9053497942387" width="0.0019739294096808597" height="12.510288065843621" fill="#ffc000"></rect><text class="label" x="158.95791077555538" y="474.8991769547325" font-size="10px">1,330x</text><text class="label" x="158.51311245601784" y="488.0679012345679" font-size="10px">38x</text><text class="label" x="158.50034419497322" y="501.23662551440333" font-size="10px">1x</text><text class="label" x="158.50197392940967" y="514.4053497942386" font-size="10px">6x</text><text class="label" x="155.45791077555538" y="476.3991769547325" font-size="8px"></text><text class="label" x="155.01311245601784" y="489.5679012345679" font-size="8px"></text><text class="label" x="155.00034419497322" y="502.73662551440333" font-size="8px"></text><text class="label" x="155.00197392940967" y="515.9053497942386" font-size="8px"></text></g></g></svg>