<svg xmlns="http://www.w3.org/2000/svg" xmlns:xlink="http://www.w3.org/1999/xlink" width="800" height="674" style="background-color: white;"><g class="y axis" transform="translate(149,45)" fill="none" font-size="10" font-family="sans-serif" text-anchor="end" style="font-size: 13px;"><path class="domain" stroke="currentColor" d="M0.5,0.5V480.5"></path><g class="tick" opacity="1" transform="translate(0,32.592592592592595)" style="font-size: 13px;"><line stroke="currentColor" x2="0"></line><text fill="currentColor" x="-3" dy="0.32em">object (simple)    </text></g><g class="tick" opacity="1" transform="translate(0,91.85185185185186)" style="font-size: 13px;"><line stroke="currentColor" x2="0"></line><text fill="currentColor" x="-3" dy="0.32em">object (hierarchical)    </text></g><g class="tick" opacity="1" transform="translate(0,151.11111111111111)" style="font-size: 13px;"><line stroke="currentColor" x2="0"></line><text fill="currentColor" x="-3" dy="0.32em">object (recursive)    </text></g><g class="tick" opacity="1" transform="translate(0,210.37037037037035)" style="font-size: 13px;"><line stroke="currentColor" x2="0"></line><text fill="currentColor" x="-3" dy="0.32em">object (union, explicit)    </text></g><g class="tick" opacity="1" transform="translate(0,269.6296296296296)" style="font-size: 13px;"><line stroke="currentColor" x2="0"></line><text fill="currentColor" x="-3" dy="0.32em">array (simple)    </text></g><g class="tick" opacity="1" transform="translate(0,328.8888888888889)" style="font-size: 13px;"><line stroke="currentColor" x2="0"></line><text fill="currentColor" x="-3" dy="0.32em">array (hierarchical)    </text></g><g class="tick" opacity="1" transform="translate(0,388.14814814814815)" style="font-size: 13px;"><line stroke="currentColor" x2="0"></line><text fill="currentColor" x="-3" dy="0.32em">array (recursive)    </text></g><g class="tick" opacity="1" transform="translate(0,447.40740740740745)" style="font-size: 13px;"><line stroke="currentColor" x2="0"></line><text fill="currentColor" x="-3" dy="0.32em">array (union, explicit)    </text></g></g><g class="x axis" transform="translate(149,525)" fill="none" font-size="10" font-family="sans-serif" text-anchor="middle" style="font-size: 13px;"><path class="domain" stroke="currentColor" d="M0.5,0.5H485.5"></path><g class="tick" opacity="1" transform="translate(0.5,0)" style="font-size: 13px;"><line stroke="currentColor" y2="6"></line><text fill="currentColor" y="9" dy="0.71em">0x</text></g><g class="tick" opacity="1" transform="translate(78.29988037860366,0)" style="font-size: 13px;"><line stroke="currentColor" y2="6"></line><text fill="currentColor" y="9" dy="0.71em">1,000,000x</text></g><g class="tick" opacity="1" transform="translate(156.09976075720732,0)" style="font-size: 13px;"><line stroke="currentColor" y2="6"></line><text fill="currentColor" y="9" dy="0.71em">2,000,000x</text></g><g class="tick" opacity="1" transform="translate(233.89964113581098,0)" style="font-size: 13px;"><line stroke="currentColor" y2="6"></line><text fill="currentColor" y="9" dy="0.71em">3,000,000x</text></g><g class="tick" opacity="1" transform="translate(311.69952151441464,0)" style="font-size: 13px;"><line stroke="currentColor" y2="6"></line><text fill="currentColor" y="9" dy="0.71em">4,000,000x</text></g><g class="tick" opacity="1" transform="translate(389.49940189301833,0)" style="font-size: 13px;"><line stroke="currentColor" y2="6"></line><text fill="currentColor" y="9" dy="0.71em">5,000,000x</text></g><g class="tick" opacity="1" transform="translate(467.29928227162196,0)" style="font-size: 13px;"><line stroke="currentColor" y2="6"></line><text fill="currentColor" y="9" dy="0.71em">6,000,000x</text></g></g><text transform="translate(400, 30)" style="text-anchor: middle; font-size: 20px; font-weight: bold;">optimizer benchmark</text><rect x="650" y="125" width="230" height="5" fill="gray"></rect><rect x="645" y="35" width="230" height="90" fill="none" stroke="black"></rect><rect x="655" y="45" width="10" height="10" style="fill: #4472c4;"></rect><text x="670" y="55" style="font-size: 12px;">typia</text><rect x="655" y="65" width="10" height="10" style="fill: #ed7d31;"></rect><text x="670" y="75" style="font-size: 12px;">typebox</text><rect x="655" y="85" width="10" height="10" style="fill: #a5a5a5;"></rect><text x="670" y="95" style="font-size: 12px;">ajv</text><rect x="655" y="105" width="10" height="10" style="fill: #ffc000;"></rect><text x="670" y="115" style="font-size: 12px;">class-validator</text><text x="20" y="589" style="font-size: 12px;">  - CPU: 11th Gen Intel(R) Core(TM) i5-1135G7 @ 2.40GHz</text><text x="20" y="606" style="font-size: 12px;">  - OS: win32</text><text x="20" y="623" style="font-size: 12px;">  - RAM: 16 GB</text><text x="20" y="640" style="font-size: 12px;">  - NodeJS version: v16.20.0</text><text x="20" y="657" style="font-size: 12px;">  - Typia version: v4.1.1</text><g style="font-size: 13px;"><g style="font-size: 13px;"><rect x="150" y="51.584362139917694" width="440.9090909090908" height="12.510288065843621" fill="#4472c4"></rect><rect x="150" y="64.75308641975309" width="0.020477205441883015" height="12.510288065843621" fill="#ed7d31"></rect><rect x="150" y="77.92181069958848" width="0.00007779988037860366" height="12.510288065843621" fill="#a5a5a5"></rect><rect x="150" y="91.09053497942386" width="0.01819662922007828" height="12.510288065843621" fill="#ffc000"></rect><text class="label" x="599.4090909090908" y="60.084362139917694" font-size="10px">5,667,221x</text><text class="label" x="158.5204772054419" y="73.25308641975309" font-size="10px">263x</text><text class="label" x="158.5000777998804" y="86.42181069958848" font-size="10px">1x</text><text class="label" x="158.51819662922009" y="99.59053497942386" font-size="10px">234x</text><text class="label" x="595.9090909090908" y="61.584362139917694" font-size="8px"></text><text class="label" x="155.0204772054419" y="74.75308641975309" font-size="8px"></text><text class="label" x="155.0000777998804" y="87.92181069958848" font-size="8px"></text><text class="label" x="155.01819662922009" y="101.09053497942386" font-size="8px"></text></g><g style="font-size: 13px;"><rect x="150" y="110.84362139917695" width="21.826315137034776" height="12.510288065843621" fill="#4472c4"></rect><rect x="150" y="124.01234567901236" width="0.009505904150276778" height="12.510288065843621" fill="#ed7d31"></rect><rect x="150" y="137.18106995884773" width="0.00007779988037860366" height="12.510288065843621" fill="#a5a5a5"></rect><rect x="150" y="150.34979423868313" width="0.008910696449272686" height="12.510288065843621" fill="#ffc000"></rect><text class="label" x="180.32631513703478" y="119.34362139917695" font-size="10px">280,544x</text><text class="label" x="158.50950590415027" y="132.51234567901236" font-size="10px">122x</text><text class="label" x="158.5000777998804" y="145.68106995884773" font-size="10px">1x</text><text class="label" x="158.50891069644928" y="158.84979423868313" font-size="10px">115x</text><text class="label" x="176.82631513703478" y="120.84362139917695" font-size="8px"></text><text class="label" x="155.00950590415027" y="134.01234567901236" font-size="8px"></text><text class="label" x="155.0000777998804" y="147.18106995884773" font-size="8px"></text><text class="label" x="155.00891069644928" y="160.34979423868313" font-size="8px"></text></g><g style="font-size: 13px;"><rect x="150" y="170.10288065843622" width="6.126505125796636" height="12.510288065843621" fill="#4472c4"></rect><rect x="150" y="183.2716049382716" width="0.01786690178689189" height="12.510288065843621" fill="#ed7d31"></rect><rect x="150" y="196.440329218107" width="0.00007779988037860366" height="12.510288065843621" fill="#a5a5a5"></rect><rect x="150" y="209.6090534979424" width="0.0036421855972849563" height="12.510288065843621" fill="#ffc000"></rect><text class="label" x="164.62650512579663" y="178.60288065843622" font-size="10px">78,747x</text><text class="label" x="158.5178669017869" y="191.7716049382716" font-size="10px">230x</text><text class="label" x="158.5000777998804" y="204.940329218107" font-size="10px">1x</text><text class="label" x="158.50364218559727" y="218.1090534979424" font-size="10px">47x</text><text class="label" x="161.12650512579663" y="180.10288065843622" font-size="8px"></text><text class="label" x="155.0178669017869" y="193.2716049382716" font-size="8px"></text><text class="label" x="155.0000777998804" y="206.440329218107" font-size="8px"></text><text class="label" x="155.00364218559727" y="219.6090534979424" font-size="8px"></text></g><g style="font-size: 13px;"><rect x="150" y="229.36213991769546" width="1.9064312408444977" height="12.510288065843621" fill="#4472c4"></rect><rect x="150" y="242.53086419753086" width="0.009713903022606288" height="12.510288065843621" fill="#ed7d31"></rect><rect x="150" y="255.69958847736626" width="0.00007779988037860366" height="12.510288065843621" fill="#a5a5a5"></rect><rect x="150" y="268.86831275720164" width="0.0061950046259298995" height="12.510288065843621" fill="#ffc000"></rect><text class="label" x="160.40643124084448" y="237.86213991769546" font-size="10px">24,504x</text><text class="label" x="158.5097139030226" y="251.03086419753086" font-size="10px">125x</text><text class="label" x="158.5000777998804" y="264.19958847736626" font-size="10px">1x</text><text class="label" x="158.50619500462594" y="277.36831275720164" font-size="10px">80x</text><text class="label" x="156.90643124084448" y="239.36213991769546" font-size="8px"></text><text class="label" x="155.0097139030226" y="252.53086419753086" font-size="8px"></text><text class="label" x="155.0000777998804" y="265.69958847736626" font-size="8px"></text><text class="label" x="155.00619500462594" y="278.86831275720164" font-size="8px"></text></g><g style="font-size: 13px;"><rect x="150" y="288.6213991769547" width="5.147016065419405" height="12.510288065843621" fill="#4472c4"></rect><rect x="150" y="301.7901234567901" width="0.07993736550148971" height="12.510288065843621" fill="#ed7d31"></rect><rect x="150" y="314.9588477366255" width="0.00007779988037860366" height="12.510288065843621" fill="#a5a5a5"></rect><rect x="150" y="328.12757201646093" width="0.007918871620701423" height="12.510288065843621" fill="#ffc000"></rect><text class="label" x="163.6470160654194" y="297.1213991769547" font-size="10px">66,157x</text><text class="label" x="158.57993736550148" y="310.2901234567901" font-size="10px">1,027x</text><text class="label" x="158.5000777998804" y="323.4588477366255" font-size="10px">1x</text><text class="label" x="158.5079188716207" y="336.62757201646093" font-size="10px">102x</text><text class="label" x="160.1470160654194" y="298.6213991769547" font-size="8px"></text><text class="label" x="155.07993736550148" y="311.7901234567901" font-size="8px"></text><text class="label" x="155.0000777998804" y="324.9588477366255" font-size="8px"></text><text class="label" x="155.0079188716207" y="338.12757201646093" font-size="8px"></text></g><g style="font-size: 13px;"><rect x="150" y="347.880658436214" width="0.7530992860719673" height="12.510288065843621" fill="#4472c4"></rect><rect x="150" y="361.04938271604937" width="0.026665134257947542" height="12.510288065843621" fill="#ed7d31"></rect><rect x="150" y="374.2181069958848" width="0.00007779988037860366" height="12.510288065843621" fill="#a5a5a5"></rect><rect x="150" y="387.38683127572017" width="0.000510076646897621" height="12.510288065843621" fill="#ffc000"></rect><text class="label" x="159.25309928607197" y="356.380658436214" font-size="10px">9,680x</text><text class="label" x="158.52666513425794" y="369.54938271604937" font-size="10px">343x</text><text class="label" x="158.5000777998804" y="382.7181069958848" font-size="10px">1x</text><text class="label" x="158.5005100766469" y="395.88683127572017" font-size="10px">7x</text><text class="label" x="155.75309928607197" y="357.880658436214" font-size="8px"></text><text class="label" x="155.02666513425794" y="371.04938271604937" font-size="8px"></text><text class="label" x="155.0000777998804" y="384.2181069958848" font-size="8px"></text><text class="label" x="155.0005100766469" y="397.38683127572017" font-size="8px"></text></g><g style="font-size: 13px;"><rect x="150" y="407.13991769547323" width="0.5286062747255592" height="12.510288065843621" fill="#4472c4"></rect><rect x="150" y="420.3086419753086" width="0.02358925383473696" height="12.510288065843621" fill="#ed7d31"></rect><rect x="150" y="433.47736625514403" width="0.00007779988037860366" height="12.510288065843621" fill="#a5a5a5"></rect><rect x="150" y="446.6460905349794" width="0.0003678550718275083" height="12.510288065843621" fill="#ffc000"></rect><text class="label" x="159.02860627472555" y="415.63991769547323" font-size="10px">6,794x</text><text class="label" x="158.52358925383473" y="428.8086419753086" font-size="10px">303x</text><text class="label" x="158.5000777998804" y="441.97736625514403" font-size="10px">1x</text><text class="label" x="158.50036785507183" y="455.1460905349794" font-size="10px">5x</text><text class="label" x="155.52860627472555" y="417.13991769547323" font-size="8px"></text><text class="label" x="155.02358925383473" y="430.3086419753086" font-size="8px"></text><text class="label" x="155.0000777998804" y="443.47736625514403" font-size="8px"></text><text class="label" x="155.00036785507183" y="456.6460905349794" font-size="8px"></text></g><g style="font-size: 13px;"><rect x="150" y="466.3991769547325" width="0.5369578488889933" height="12.510288065843621" fill="#4472c4"></rect><rect x="150" y="479.5679012345679" width="0.01543481612325327" height="12.510288065843621" fill="#ed7d31"></rect><rect x="150" y="492.73662551440333" width="0.00007779988037860366" height="12.510288065843621" fill="#a5a5a5"></rect><rect x="150" y="505.9053497942387" width="0.0023864699561170046" height="12.510288065843621" fill="#ffc000"></rect><text class="label" x="159.036957848889" y="474.8991769547325" font-size="10px">6,902x</text><text class="label" x="158.51543481612325" y="488.0679012345679" font-size="10px">198x</text><text class="label" x="158.5000777998804" y="501.23662551440333" font-size="10px">1x</text><text class="label" x="158.50238646995612" y="514.4053497942386" font-size="10px">31x</text><text class="label" x="155.536957848889" y="476.3991769547325" font-size="8px"></text><text class="label" x="155.01543481612325" y="489.5679012345679" font-size="8px"></text><text class="label" x="155.0000777998804" y="502.73662551440333" font-size="8px"></text><text class="label" x="155.00238646995612" y="515.9053497942386" font-size="8px"></text></g></g></svg>