<svg xmlns="http://www.w3.org/2000/svg" xmlns:xlink="http://www.w3.org/1999/xlink" width="800" height="674" style="background-color: white;"><g class="y axis" transform="translate(149,45)" fill="none" font-size="10" font-family="sans-serif" text-anchor="end" style="font-size: 13px;"><path class="domain" stroke="currentColor" d="M0.5,0.5V480.5"></path><g class="tick" opacity="1" transform="translate(0,32.592592592592595)" style="font-size: 13px;"><line stroke="currentColor" x2="0"></line><text fill="currentColor" x="-3" dy="0.32em">object (simple)    </text></g><g class="tick" opacity="1" transform="translate(0,91.85185185185186)" style="font-size: 13px;"><line stroke="currentColor" x2="0"></line><text fill="currentColor" x="-3" dy="0.32em">object (hierarchical)    </text></g><g class="tick" opacity="1" transform="translate(0,151.11111111111111)" style="font-size: 13px;"><line stroke="currentColor" x2="0"></line><text fill="currentColor" x="-3" dy="0.32em">object (recursive)    </text></g><g class="tick" opacity="1" transform="translate(0,210.37037037037035)" style="font-size: 13px;"><line stroke="currentColor" x2="0"></line><text fill="currentColor" x="-3" dy="0.32em">object (union, explicit)    </text></g><g class="tick" opacity="1" transform="translate(0,269.6296296296296)" style="font-size: 13px;"><line stroke="currentColor" x2="0"></line><text fill="currentColor" x="-3" dy="0.32em">array (simple)    </text></g><g class="tick" opacity="1" transform="translate(0,328.8888888888889)" style="font-size: 13px;"><line stroke="currentColor" x2="0"></line><text fill="currentColor" x="-3" dy="0.32em">array (hierarchical)    </text></g><g class="tick" opacity="1" transform="translate(0,388.14814814814815)" style="font-size: 13px;"><line stroke="currentColor" x2="0"></line><text fill="currentColor" x="-3" dy="0.32em">array (recursive)    </text></g><g class="tick" opacity="1" transform="translate(0,447.40740740740745)" style="font-size: 13px;"><line stroke="currentColor" x2="0"></line><text fill="currentColor" x="-3" dy="0.32em">array (union, explicit)    </text></g></g><g class="x axis" transform="translate(149,525)" fill="none" font-size="10" font-family="sans-serif" text-anchor="middle" style="font-size: 13px;"><path class="domain" stroke="currentColor" d="M0.5,0.5H485.5"></path><g class="tick" opacity="1" transform="translate(0.5,0)" style="font-size: 13px;"><line stroke="currentColor" y2="6"></line><text fill="currentColor" y="9" dy="0.71em">0x</text></g><g class="tick" opacity="1" transform="translate(149.80447530649872,0)" style="font-size: 13px;"><line stroke="currentColor" y2="6"></line><text fill="currentColor" y="9" dy="0.71em">500,000x</text></g><g class="tick" opacity="1" transform="translate(299.10895061299743,0)" style="font-size: 13px;"><line stroke="currentColor" y2="6"></line><text fill="currentColor" y="9" dy="0.71em">1,000,000x</text></g><g class="tick" opacity="1" transform="translate(448.4134259194961,0)" style="font-size: 13px;"><line stroke="currentColor" y2="6"></line><text fill="currentColor" y="9" dy="0.71em">1,500,000x</text></g></g><text transform="translate(400, 30)" style="text-anchor: middle; font-size: 20px; font-weight: bold;">optimizer benchmark</text><rect x="650" y="125" width="230" height="5" fill="gray"></rect><rect x="645" y="35" width="230" height="90" fill="none" stroke="black"></rect><rect x="655" y="45" width="10" height="10" style="fill: #4472c4;"></rect><text x="670" y="55" style="font-size: 12px;">typia</text><rect x="655" y="65" width="10" height="10" style="fill: #ed7d31;"></rect><text x="670" y="75" style="font-size: 12px;">typebox</text><rect x="655" y="85" width="10" height="10" style="fill: #a5a5a5;"></rect><text x="670" y="95" style="font-size: 12px;">ajv</text><rect x="655" y="105" width="10" height="10" style="fill: #ffc000;"></rect><text x="670" y="115" style="font-size: 12px;">class-validator</text><text x="20" y="589" style="font-size: 12px;">  - CPU: 11th Gen Intel(R) Core(TM) i5-1135G7 @ 2.40GHz</text><text x="20" y="606" style="font-size: 12px;">  - OS: win32</text><text x="20" y="623" style="font-size: 12px;">  - RAM: 16 GB</text><text x="20" y="640" style="font-size: 12px;">  - NodeJS version: v16.20.0</text><text x="20" y="657" style="font-size: 12px;">  - Typia version: v3.8.6</text><g style="font-size: 13px;"><g style="font-size: 13px;"><rect x="150" y="51.584362139917694" width="440.9090909090909" height="12.510288065843621" fill="#4472c4"></rect><rect x="150" y="64.75308641975309" width="0.019196947945825188" height="12.510288065843621" fill="#ed7d31"></rect><rect x="150" y="77.92181069958848" width="0.0002986089506129974" height="12.510288065843621" fill="#a5a5a5"></rect><rect x="150" y="91.09053497942386" width="0.0163742408183937" height="12.510288065843621" fill="#ffc000"></rect><text class="label" x="599.4090909090909" y="60.084362139917694" font-size="10px">1,476,543x</text><text class="label" x="158.51919694794583" y="73.25308641975309" font-size="10px">64x</text><text class="label" x="158.5002986089506" y="86.42181069958848" font-size="10px">1x</text><text class="label" x="158.5163742408184" y="99.59053497942386" font-size="10px">55x</text><text class="label" x="595.9090909090909" y="61.584362139917694" font-size="8px"></text><text class="label" x="155.01919694794583" y="74.75308641975309" font-size="8px"></text><text class="label" x="155.0002986089506" y="87.92181069958848" font-size="8px"></text><text class="label" x="155.0163742408184" y="101.09053497942386" font-size="8px"></text></g><g style="font-size: 13px;"><rect x="150" y="110.84362139917695" width="17.760510097533796" height="12.510288065843621" fill="#4472c4"></rect><rect x="150" y="124.01234567901236" width="0.007614307431574776" height="12.510288065843621" fill="#ed7d31"></rect><rect x="150" y="137.18106995884773" width="0.0002986089506129974" height="12.510288065843621" fill="#a5a5a5"></rect><rect x="150" y="150.34979423868313" width="0.007124833704746526" height="12.510288065843621" fill="#ffc000"></rect><text class="label" x="176.2605100975338" y="119.34362139917695" font-size="10px">59,477x</text><text class="label" x="158.50761430743157" y="132.51234567901236" font-size="10px">25x</text><text class="label" x="158.5002986089506" y="145.68106995884773" font-size="10px">1x</text><text class="label" x="158.50712483370475" y="158.84979423868313" font-size="10px">24x</text><text class="label" x="172.7605100975338" y="120.84362139917695" font-size="8px"></text><text class="label" x="155.00761430743157" y="134.01234567901236" font-size="8px"></text><text class="label" x="155.0002986089506" y="147.18106995884773" font-size="8px"></text><text class="label" x="155.00712483370475" y="160.34979423868313" font-size="8px"></text></g><g style="font-size: 13px;"><rect x="150" y="170.10288065843622" width="5.135275703254751" height="12.510288065843621" fill="#4472c4"></rect><rect x="150" y="183.2716049382716" width="0.02050459477752024" height="12.510288065843621" fill="#ed7d31"></rect><rect x="150" y="196.440329218107" width="0.0002986089506129974" height="12.510288065843621" fill="#a5a5a5"></rect><rect x="150" y="209.6090534979424" width="0.0028968268411378416" height="12.510288065843621" fill="#ffc000"></rect><text class="label" x="163.63527570325476" y="178.60288065843622" font-size="10px">17,197x</text><text class="label" x="158.52050459477752" y="191.7716049382716" font-size="10px">69x</text><text class="label" x="158.5002986089506" y="204.940329218107" font-size="10px">1x</text><text class="label" x="158.50289682684115" y="218.1090534979424" font-size="10px">10x</text><text class="label" x="160.13527570325476" y="180.10288065843622" font-size="8px"></text><text class="label" x="155.02050459477752" y="193.2716049382716" font-size="8px"></text><text class="label" x="155.0002986089506" y="206.440329218107" font-size="8px"></text><text class="label" x="155.00289682684115" y="219.6090534979424" font-size="8px"></text></g><g style="font-size: 13px;"><rect x="150" y="229.36213991769546" width="1.407801049321906" height="12.510288065843621" fill="#4472c4"></rect><rect x="150" y="242.53086419753086" width="0.0076397508353388275" height="12.510288065843621" fill="#ed7d31"></rect><rect x="150" y="255.69958847736626" width="0.0002986089506129974" height="12.510288065843621" fill="#a5a5a5"></rect><rect x="150" y="268.86831275720164" width="0.0047974989743545925" height="12.510288065843621" fill="#ffc000"></rect><text class="label" x="159.9078010493219" y="237.86213991769546" font-size="10px">4,715x</text><text class="label" x="158.50763975083535" y="251.03086419753086" font-size="10px">26x</text><text class="label" x="158.5002986089506" y="264.19958847736626" font-size="10px">1x</text><text class="label" x="158.50479749897434" y="277.36831275720164" font-size="10px">16x</text><text class="label" x="156.4078010493219" y="239.36213991769546" font-size="8px"></text><text class="label" x="155.00763975083535" y="252.53086419753086" font-size="8px"></text><text class="label" x="155.0002986089506" y="265.69958847736626" font-size="8px"></text><text class="label" x="155.00479749897434" y="278.86831275720164" font-size="8px"></text></g><g style="font-size: 13px;"><rect x="150" y="288.6213991769547" width="1.4134957080225128" height="12.510288065843621" fill="#4472c4"></rect><rect x="150" y="301.7901234567901" width="0.012781009414475263" height="12.510288065843621" fill="#ed7d31"></rect><rect x="150" y="314.9588477366255" width="0.0002986089506129974" height="12.510288065843621" fill="#a5a5a5"></rect><rect x="150" y="328.12757201646093" width="0.002346139192516751" height="12.510288065843621" fill="#ffc000"></rect><text class="label" x="159.9134957080225" y="297.1213991769547" font-size="10px">4,734x</text><text class="label" x="158.51278100941448" y="310.2901234567901" font-size="10px">43x</text><text class="label" x="158.5002986089506" y="323.4588477366255" font-size="10px">1x</text><text class="label" x="158.50234613919253" y="336.62757201646093" font-size="10px">8x</text><text class="label" x="156.4134957080225" y="298.6213991769547" font-size="8px"></text><text class="label" x="155.01278100941448" y="311.7901234567901" font-size="8px"></text><text class="label" x="155.0002986089506" y="324.9588477366255" font-size="8px"></text><text class="label" x="155.00234613919253" y="338.12757201646093" font-size="8px"></text></g><g style="font-size: 13px;"><rect x="150" y="347.880658436214" width="0.5040364765862889" height="12.510288065843621" fill="#4472c4"></rect><rect x="150" y="361.04938271604937" width="0.03015595388724957" height="12.510288065843621" fill="#ed7d31"></rect><rect x="150" y="374.2181069958848" width="0.0002986089506129974" height="12.510288065843621" fill="#a5a5a5"></rect><rect x="150" y="387.38683127572017" width="0.0003026377999416743" height="12.510288065843621" fill="#ffc000"></rect><text class="label" x="159.0040364765863" y="356.380658436214" font-size="10px">1,688x</text><text class="label" x="158.53015595388726" y="369.54938271604937" font-size="10px">101x</text><text class="label" x="158.5002986089506" y="382.7181069958848" font-size="10px">1x</text><text class="label" x="158.50030263779993" y="395.88683127572017" font-size="10px">1x</text><text class="label" x="155.5040364765863" y="357.880658436214" font-size="8px"></text><text class="label" x="155.03015595388726" y="371.04938271604937" font-size="8px"></text><text class="label" x="155.0002986089506" y="384.2181069958848" font-size="8px"></text><text class="label" x="155.00030263779993" y="397.38683127572017" font-size="8px"></text></g><g style="font-size: 13px;"><rect x="150" y="407.13991769547323" width="0.5404951031486939" height="12.510288065843621" fill="#4472c4"></rect><rect x="150" y="420.3086419753086" width="0.02945151849798458" height="12.510288065843621" fill="#ed7d31"></rect><rect x="150" y="433.47736625514403" width="0.0003862037051470003" height="12.510288065843621" fill="#a5a5a5"></rect><rect x="150" y="446.6460905349794" width="0.0002986089506129974" height="12.510288065843621" fill="#ffc000"></rect><text class="label" x="159.0404951031487" y="415.63991769547323" font-size="10px">1,810x</text><text class="label" x="158.52945151849798" y="428.8086419753086" font-size="10px">99x</text><text class="label" x="158.50038620370515" y="441.97736625514403" font-size="10px">1x</text><text class="label" x="158.5002986089506" y="455.1460905349794" font-size="10px">1x</text><text class="label" x="155.5404951031487" y="417.13991769547323" font-size="8px"></text><text class="label" x="155.02945151849798" y="430.3086419753086" font-size="8px"></text><text class="label" x="155.00038620370515" y="443.47736625514403" font-size="8px"></text><text class="label" x="155.0002986089506" y="456.6460905349794" font-size="8px"></text></g><g style="font-size: 13px;"><rect x="150" y="466.3991769547325" width="0.47928884349192286" height="12.510288065843621" fill="#4472c4"></rect><rect x="150" y="479.5679012345679" width="0.012018887890389417" height="12.510288065843621" fill="#ed7d31"></rect><rect x="150" y="492.73662551440333" width="0.0002986089506129974" height="12.510288065843621" fill="#a5a5a5"></rect><rect x="150" y="505.9053497942387" width="0.0017515505461653984" height="12.510288065843621" fill="#ffc000"></rect><text class="label" x="158.97928884349193" y="474.8991769547325" font-size="10px">1,605x</text><text class="label" x="158.51201888789038" y="488.0679012345679" font-size="10px">40x</text><text class="label" x="158.5002986089506" y="501.23662551440333" font-size="10px">1x</text><text class="label" x="158.50175155054617" y="514.4053497942386" font-size="10px">6x</text><text class="label" x="155.47928884349193" y="476.3991769547325" font-size="8px"></text><text class="label" x="155.01201888789038" y="489.5679012345679" font-size="8px"></text><text class="label" x="155.0002986089506" y="502.73662551440333" font-size="8px"></text><text class="label" x="155.00175155054617" y="515.9053497942386" font-size="8px"></text></g></g></svg>