<svg xmlns="http://www.w3.org/2000/svg" xmlns:xlink="http://www.w3.org/1999/xlink" width="800" height="914" style="background-color: white;"><g class="y axis" transform="translate(149,45)" fill="none" font-size="10" font-family="sans-serif" text-anchor="end" style="font-size: 13px;"><path class="domain" stroke="currentColor" d="M0.5,0.5V720.5"></path><g class="tick" opacity="1" transform="translate(0,48.88888888888886)" style="font-size: 13px;"><line stroke="currentColor" x2="0"></line><text fill="currentColor" x="-3" dy="0.32em">object (simple)    </text></g><g class="tick" opacity="1" transform="translate(0,137.77777777777774)" style="font-size: 13px;"><line stroke="currentColor" x2="0"></line><text fill="currentColor" x="-3" dy="0.32em">object (hierarchical)    </text></g><g class="tick" opacity="1" transform="translate(0,226.66666666666663)" style="font-size: 13px;"><line stroke="currentColor" x2="0"></line><text fill="currentColor" x="-3" dy="0.32em">object (recursive)    </text></g><g class="tick" opacity="1" transform="translate(0,315.5555555555555)" style="font-size: 13px;"><line stroke="currentColor" x2="0"></line><text fill="currentColor" x="-3" dy="0.32em">object (union, explicit)    </text></g><g class="tick" opacity="1" transform="translate(0,404.4444444444444)" style="font-size: 13px;"><line stroke="currentColor" x2="0"></line><text fill="currentColor" x="-3" dy="0.32em">array (simple)    </text></g><g class="tick" opacity="1" transform="translate(0,493.3333333333333)" style="font-size: 13px;"><line stroke="currentColor" x2="0"></line><text fill="currentColor" x="-3" dy="0.32em">array (hierarchical)    </text></g><g class="tick" opacity="1" transform="translate(0,582.2222222222222)" style="font-size: 13px;"><line stroke="currentColor" x2="0"></line><text fill="currentColor" x="-3" dy="0.32em">array (recursive)    </text></g><g class="tick" opacity="1" transform="translate(0,671.1111111111111)" style="font-size: 13px;"><line stroke="currentColor" x2="0"></line><text fill="currentColor" x="-3" dy="0.32em">array (union, explicit)    </text></g></g><g class="x axis" transform="translate(149,765)" fill="none" font-size="10" font-family="sans-serif" text-anchor="middle" style="font-size: 13px;"><path class="domain" stroke="currentColor" d="M0.5,0.5H485.5"></path><g class="tick" opacity="1" transform="translate(0.5,0)" style="font-size: 13px;"><line stroke="currentColor" y2="6"></line><text fill="currentColor" y="9" dy="0.71em">0x</text></g><g class="tick" opacity="1" transform="translate(127.07957656827816,0)" style="font-size: 13px;"><line stroke="currentColor" y2="6"></line><text fill="currentColor" y="9" dy="0.71em">10x</text></g><g class="tick" opacity="1" transform="translate(253.6591531365563,0)" style="font-size: 13px;"><line stroke="currentColor" y2="6"></line><text fill="currentColor" y="9" dy="0.71em">20x</text></g><g class="tick" opacity="1" transform="translate(380.2387297048345,0)" style="font-size: 13px;"><line stroke="currentColor" y2="6"></line><text fill="currentColor" y="9" dy="0.71em">30x</text></g></g><text transform="translate(400, 30)" style="text-anchor: middle; font-size: 20px; font-weight: bold;">server benchmark</text><rect x="650" y="165" width="230" height="5" fill="gray"></rect><rect x="645" y="35" width="230" height="130" fill="none" stroke="black"></rect><rect x="655" y="45" width="10" height="10" style="fill: #4472c4;"></rect><text x="670" y="55" style="font-size: 12px;">fastify-class-transformer</text><rect x="655" y="65" width="10" height="10" style="fill: #ed7d31;"></rect><text x="670" y="75" style="font-size: 12px;">fastify-pure</text><rect x="655" y="85" width="10" height="10" style="fill: #a5a5a5;"></rect><text x="670" y="95" style="font-size: 12px;">fastify-typia</text><rect x="655" y="105" width="10" height="10" style="fill: #ffc000;"></rect><text x="670" y="115" style="font-size: 12px;">express-typia</text><rect x="655" y="125" width="10" height="10" style="fill: #5b9bd5;"></rect><text x="670" y="135" style="font-size: 12px;">express-pure</text><rect x="655" y="145" width="10" height="10" style="fill: #70ad47;"></rect><text x="670" y="155" style="font-size: 12px;">express-class-transformer</text><text x="20" y="829" style="font-size: 12px;">  - CPU: 11th Gen Intel(R) Core(TM) i5-1135G7 @ 2.40GHz</text><text x="20" y="846" style="font-size: 12px;">  - OS: win32</text><text x="20" y="863" style="font-size: 12px;">  - RAM: 16 GB</text><text x="20" y="880" style="font-size: 12px;">  - NodeJS version: v16.20.0</text><text x="20" y="897" style="font-size: 12px;">  - Typia version: v3.8.6</text><g style="font-size: 13px;"><g style="font-size: 13px;"><rect x="150" y="54.55004591368224" width="14.32814007267025" height="12.56198347107438" fill="#4472c4"></rect><rect x="150" y="67.77318640955001" width="306.7612209170978" height="12.56198347107438" fill="#ed7d31"></rect><rect x="150" y="80.99632690541777" width="352.33833058775247" height="12.56198347107438" fill="#a5a5a5"></rect><rect x="150" y="94.21946740128556" width="183.86514525905625" height="12.56198347107438" fill="#ffc000"></rect><rect x="150" y="107.44260789715332" width="122.28448765515483" height="12.56198347107438" fill="#5b9bd5"></rect><rect x="150" y="120.66574839302109" width="12.657957656827815" height="12.56198347107438" fill="#70ad47"></rect><text class="label" x="172.82814007267024" y="63.05004591368224" font-size="10px">1.13x</text><text class="label" x="465.2612209170978" y="76.27318640955001" font-size="10px">24.23x</text><text class="label" x="510.83833058775247" y="89.49632690541777" font-size="10px">27.84x</text><text class="label" x="342.36514525905625" y="102.71946740128556" font-size="10px">14.53x</text><text class="label" x="280.78448765515486" y="115.94260789715332" font-size="10px">9.66x</text><text class="label" x="171.15795765682782" y="129.1657483930211" font-size="10px">1x</text><text class="label" x="169.32814007267024" y="64.55004591368224" font-size="8px"></text><text class="label" x="461.7612209170978" y="77.77318640955001" font-size="8px"></text><text class="label" x="507.33833058775247" y="90.99632690541777" font-size="8px"></text><text class="label" x="338.86514525905625" y="104.21946740128556" font-size="8px"></text><text class="label" x="277.28448765515486" y="117.44260789715332" font-size="8px"></text><text class="label" x="167.65795765682782" y="130.6657483930211" font-size="8px"></text></g><g style="font-size: 13px;"><rect x="150" y="143.4389348025711" width="12.657957656827815" height="12.56198347107438" fill="#4472c4"></rect><rect x="150" y="156.66207529843888" width="201.1070456870076" height="12.56198347107438" fill="#ed7d31"></rect><rect x="150" y="169.88521579430665" width="248.13588391191053" height="12.56198347107438" fill="#a5a5a5"></rect><rect x="150" y="183.10835629017444" width="196.599974211865" height="12.56198347107438" fill="#ffc000"></rect><rect x="150" y="196.3314967860422" width="135.18049618080028" height="12.56198347107438" fill="#5b9bd5"></rect><rect x="150" y="209.55463728190998" width="14.342968184072818" height="12.56198347107438" fill="#70ad47"></rect><text class="label" x="171.15795765682782" y="151.9389348025711" font-size="10px">1x</text><text class="label" x="359.6070456870076" y="165.16207529843888" font-size="10px">15.89x</text><text class="label" x="406.6358839119105" y="178.38521579430665" font-size="10px">19.6x</text><text class="label" x="355.099974211865" y="191.60835629017444" font-size="10px">15.53x</text><text class="label" x="293.6804961808003" y="204.8314967860422" font-size="10px">10.68x</text><text class="label" x="172.84296818407282" y="218.05463728190998" font-size="10px">1.13x</text><text class="label" x="167.65795765682782" y="153.4389348025711" font-size="8px"></text><text class="label" x="356.1070456870076" y="166.66207529843888" font-size="8px"></text><text class="label" x="403.1358839119105" y="179.88521579430665" font-size="8px"></text><text class="label" x="351.599974211865" y="193.10835629017444" font-size="8px"></text><text class="label" x="290.1804961808003" y="206.3314967860422" font-size="8px"></text><text class="label" x="169.34296818407282" y="219.55463728190998" font-size="8px"></text></g><g style="font-size: 13px;"><rect x="150" y="232.32782369146003" width="12.657957656827815" height="12.56198347107438" fill="#4472c4"></rect><rect x="150" y="245.5509641873278" width="141.34953707430765" height="12.56198347107438" fill="#ed7d31"></rect><rect x="150" y="258.77410468319556" width="266.028028396237" height="12.56198347107438" fill="#a5a5a5"></rect><rect x="150" y="271.9972451790633" width="227.37830733804364" height="12.56198347107438" fill="#ffc000"></rect><rect x="150" y="285.2203856749311" width="145.58487057705443" height="12.56198347107438" fill="#5b9bd5"></rect><rect x="150" y="298.44352617079886" width="12.785678154817385" height="12.56198347107438" fill="#70ad47"></rect><text class="label" x="171.15795765682782" y="240.82782369146003" font-size="10px">1x</text><text class="label" x="299.84953707430765" y="254.0509641873278" font-size="10px">11.17x</text><text class="label" x="424.528028396237" y="267.27410468319556" font-size="10px">21.02x</text><text class="label" x="385.87830733804367" y="280.4972451790633" font-size="10px">17.96x</text><text class="label" x="304.0848705770544" y="293.7203856749311" font-size="10px">11.5x</text><text class="label" x="171.2856781548174" y="306.94352617079886" font-size="10px">1.01x</text><text class="label" x="167.65795765682782" y="242.32782369146003" font-size="8px"></text><text class="label" x="296.34953707430765" y="255.5509641873278" font-size="8px"></text><text class="label" x="421.028028396237" y="268.77410468319556" font-size="8px"></text><text class="label" x="382.37830733804367" y="281.9972451790633" font-size="8px"></text><text class="label" x="300.5848705770544" y="295.2203856749311" font-size="8px"></text><text class="label" x="167.7856781548174" y="308.44352617079886" font-size="8px"></text></g><g style="font-size: 13px;"><rect x="150" y="321.2167125803489" width="13.337209493655333" height="12.56198347107438" fill="#4472c4"></rect><rect x="150" y="334.43985307621665" width="248.6105452475523" height="12.56198347107438" fill="#ed7d31"></rect><rect x="150" y="347.6629935720844" width="440.9090909090909" height="12.56198347107438" fill="#a5a5a5"></rect><rect x="150" y="360.8861340679522" width="376.08920152196725" height="12.56198347107438" fill="#ffc000"></rect><rect x="150" y="374.10927456381995" width="246.9559134603907" height="12.56198347107438" fill="#5b9bd5"></rect><rect x="150" y="387.3324150596877" width="12.657957656827815" height="12.56198347107438" fill="#70ad47"></rect><text class="label" x="171.83720949365534" y="329.7167125803489" font-size="10px">1.05x</text><text class="label" x="407.1105452475523" y="342.93985307621665" font-size="10px">19.64x</text><text class="label" x="599.4090909090909" y="356.1629935720844" font-size="10px">34.83x</text><text class="label" x="534.5892015219672" y="369.3861340679522" font-size="10px">29.71x</text><text class="label" x="405.45591346039066" y="382.60927456381995" font-size="10px">19.51x</text><text class="label" x="171.15795765682782" y="395.8324150596877" font-size="10px">1x</text><text class="label" x="168.33720949365534" y="331.2167125803489" font-size="8px"></text><text class="label" x="403.6105452475523" y="344.43985307621665" font-size="8px"></text><text class="label" x="595.9090909090909" y="357.6629935720844" font-size="8px"></text><text class="label" x="531.0892015219672" y="370.8861340679522" font-size="8px"></text><text class="label" x="401.95591346039066" y="384.10927456381995" font-size="8px"></text><text class="label" x="167.65795765682782" y="397.3324150596877" font-size="8px"></text></g><g style="font-size: 13px;"><rect x="150" y="410.1056014692378" width="12.657957656827815" height="12.56198347107438" fill="#4472c4"></rect><rect x="150" y="423.32874196510556" width="219.98694834450998" height="12.56198347107438" fill="#ed7d31"></rect><rect x="150" y="436.55188246097333" width="199.50813777250679" height="12.56198347107438" fill="#a5a5a5"></rect><rect x="150" y="449.7750229568411" width="214.69291701768736" height="12.56198347107438" fill="#ffc000"></rect><rect x="150" y="462.99816345270887" width="165.75780958548395" height="12.56198347107438" fill="#5b9bd5"></rect><rect x="150" y="476.22130394857663" width="13.454001921899296" height="12.56198347107438" fill="#70ad47"></rect><text class="label" x="171.15795765682782" y="418.6056014692378" font-size="10px">1x</text><text class="label" x="378.48694834451" y="431.82874196510556" font-size="10px">17.38x</text><text class="label" x="358.00813777250676" y="445.05188246097333" font-size="10px">15.76x</text><text class="label" x="373.19291701768736" y="458.2750229568411" font-size="10px">16.96x</text><text class="label" x="324.257809585484" y="471.49816345270887" font-size="10px">13.1x</text><text class="label" x="171.9540019218993" y="484.72130394857663" font-size="10px">1.06x</text><text class="label" x="167.65795765682782" y="420.1056014692378" font-size="8px"></text><text class="label" x="374.98694834451" y="433.32874196510556" font-size="8px"></text><text class="label" x="354.50813777250676" y="446.55188246097333" font-size="8px"></text><text class="label" x="369.69291701768736" y="459.7750229568411" font-size="8px"></text><text class="label" x="320.757809585484" y="472.99816345270887" font-size="8px"></text><text class="label" x="168.4540019218993" y="486.22130394857663" font-size="8px"></text></g><g style="font-size: 13px;"><rect x="150" y="498.9944903581267" width="12.657957656827815" height="12.56198347107438" fill="#4472c4"></rect><rect x="150" y="512.2176308539945" width="132.2834281322113" height="12.56198347107438" fill="#ed7d31"></rect><rect x="150" y="525.4407713498622" width="294.7890750267928" height="12.56198347107438" fill="#a5a5a5"></rect><rect x="150" y="538.66391184573" width="310.97363403319054" height="12.56198347107438" fill="#ffc000"></rect><rect x="150" y="551.8870523415978" width="190.74700641571724" height="12.56198347107438" fill="#5b9bd5"></rect><rect x="150" y="565.1101928374655" width="12.658319431772224" height="12.56198347107438" fill="#70ad47"></rect><text class="label" x="171.15795765682782" y="507.4944903581267" font-size="10px">1x</text><text class="label" x="290.78342813221127" y="520.7176308539945" font-size="10px">10.45x</text><text class="label" x="453.2890750267928" y="533.9407713498622" font-size="10px">23.29x</text><text class="label" x="469.47363403319054" y="547.16391184573" font-size="10px">24.57x</text><text class="label" x="349.24700641571724" y="560.3870523415978" font-size="10px">15.07x</text><text class="label" x="171.1583194317722" y="573.6101928374655" font-size="10px">1x</text><text class="label" x="167.65795765682782" y="508.9944903581267" font-size="8px"></text><text class="label" x="287.28342813221127" y="522.2176308539945" font-size="8px"></text><text class="label" x="449.7890750267928" y="535.4407713498622" font-size="8px"></text><text class="label" x="465.97363403319054" y="548.66391184573" font-size="8px"></text><text class="label" x="345.74700641571724" y="561.8870523415978" font-size="8px"></text><text class="label" x="167.6583194317722" y="575.1101928374655" font-size="8px"></text></g><g style="font-size: 13px;"><rect x="150" y="587.8833792470156" width="13.983441262952345" height="12.56198347107438" fill="#4472c4"></rect><rect x="150" y="601.1065197428833" width="166.1354994113957" height="12.56198347107438" fill="#ed7d31"></rect><rect x="150" y="614.3296602387511" width="263.22993888613536" height="12.56198347107438" fill="#a5a5a5"></rect><rect x="150" y="627.5528007346188" width="257.8624222751925" height="12.56198347107438" fill="#ffc000"></rect><rect x="150" y="640.7759412304866" width="163.626727963432" height="12.56198347107438" fill="#5b9bd5"></rect><rect x="150" y="653.9990817263545" width="12.657957656827815" height="12.56198347107438" fill="#70ad47"></rect><text class="label" x="172.48344126295234" y="596.3833792470156" font-size="10px">1.1x</text><text class="label" x="324.6354994113957" y="609.6065197428833" font-size="10px">13.12x</text><text class="label" x="421.72993888613536" y="622.8296602387511" font-size="10px">20.8x</text><text class="label" x="416.3624222751925" y="636.0528007346188" font-size="10px">20.37x</text><text class="label" x="322.126727963432" y="649.2759412304866" font-size="10px">12.93x</text><text class="label" x="171.15795765682782" y="662.4990817263545" font-size="10px">1x</text><text class="label" x="168.98344126295234" y="597.8833792470156" font-size="8px"></text><text class="label" x="321.1354994113957" y="611.1065197428833" font-size="8px"></text><text class="label" x="418.22993888613536" y="624.3296602387511" font-size="8px"></text><text class="label" x="412.8624222751925" y="637.5528007346188" font-size="8px"></text><text class="label" x="318.626727963432" y="650.7759412304866" font-size="8px"></text><text class="label" x="167.65795765682782" y="663.9990817263545" font-size="8px"></text></g><g style="font-size: 13px;"><rect x="150" y="676.7722681359045" width="12.657957656827815" height="12.56198347107438" fill="#4472c4"></rect><rect x="150" y="689.9954086317722" width="259.3339569133009" height="12.56198347107438" fill="#ed7d31"></rect><rect x="150" y="703.21854912764" width="320.35447967143415" height="12.56198347107438" fill="#a5a5a5"></rect><rect x="150" y="716.4416896235077" width="251.81857802077138" height="12.56198347107438" fill="#ffc000"></rect><rect x="150" y="729.6648301193756" width="290.13783295124836" height="12.56198347107438" fill="#5b9bd5"></rect><rect x="150" y="742.8879706152434" width="15.96818973151025" height="12.56198347107438" fill="#70ad47"></rect><text class="label" x="171.15795765682782" y="685.2722681359045" font-size="10px">1x</text><text class="label" x="417.8339569133009" y="698.4954086317722" font-size="10px">20.49x</text><text class="label" x="478.85447967143415" y="711.71854912764" font-size="10px">25.31x</text><text class="label" x="410.3185780207714" y="724.9416896235077" font-size="10px">19.89x</text><text class="label" x="448.63783295124836" y="738.1648301193756" font-size="10px">22.92x</text><text class="label" x="174.46818973151025" y="751.3879706152434" font-size="10px">1.26x</text><text class="label" x="167.65795765682782" y="686.7722681359045" font-size="8px"></text><text class="label" x="414.3339569133009" y="699.9954086317722" font-size="8px"></text><text class="label" x="475.35447967143415" y="713.21854912764" font-size="8px"></text><text class="label" x="406.8185780207714" y="726.4416896235077" font-size="8px"></text><text class="label" x="445.13783295124836" y="739.6648301193756" font-size="8px"></text><text class="label" x="170.96818973151025" y="752.8879706152434" font-size="8px"></text></g></g></svg>