<svg xmlns="http://www.w3.org/2000/svg" xmlns:xlink="http://www.w3.org/1999/xlink" width="800" height="914" style="background-color: white;"><g class="y axis" transform="translate(149,45)" fill="none" font-size="10" font-family="sans-serif" text-anchor="end" style="font-size: 13px;"><path class="domain" stroke="currentColor" d="M0.5,0.5V720.5"></path><g class="tick" opacity="1" transform="translate(0,48.88888888888886)" style="font-size: 13px;"><line stroke="currentColor" x2="0"></line><text fill="currentColor" x="-3" dy="0.32em">object (simple)    </text></g><g class="tick" opacity="1" transform="translate(0,137.77777777777774)" style="font-size: 13px;"><line stroke="currentColor" x2="0"></line><text fill="currentColor" x="-3" dy="0.32em">object (hierarchical)    </text></g><g class="tick" opacity="1" transform="translate(0,226.66666666666663)" style="font-size: 13px;"><line stroke="currentColor" x2="0"></line><text fill="currentColor" x="-3" dy="0.32em">object (recursive)    </text></g><g class="tick" opacity="1" transform="translate(0,315.5555555555555)" style="font-size: 13px;"><line stroke="currentColor" x2="0"></line><text fill="currentColor" x="-3" dy="0.32em">object (union, explicit)    </text></g><g class="tick" opacity="1" transform="translate(0,404.4444444444444)" style="font-size: 13px;"><line stroke="currentColor" x2="0"></line><text fill="currentColor" x="-3" dy="0.32em">array (simple)    </text></g><g class="tick" opacity="1" transform="translate(0,493.3333333333333)" style="font-size: 13px;"><line stroke="currentColor" x2="0"></line><text fill="currentColor" x="-3" dy="0.32em">array (hierarchical)    </text></g><g class="tick" opacity="1" transform="translate(0,582.2222222222222)" style="font-size: 13px;"><line stroke="currentColor" x2="0"></line><text fill="currentColor" x="-3" dy="0.32em">array (recursive)    </text></g><g class="tick" opacity="1" transform="translate(0,671.1111111111111)" style="font-size: 13px;"><line stroke="currentColor" x2="0"></line><text fill="currentColor" x="-3" dy="0.32em">array (union, explicit)    </text></g></g><g class="x axis" transform="translate(149,765)" fill="none" font-size="10" font-family="sans-serif" text-anchor="middle" style="font-size: 13px;"><path class="domain" stroke="currentColor" d="M0.5,0.5H485.5"></path><g class="tick" opacity="1" transform="translate(0.5,0)" style="font-size: 13px;"><line stroke="currentColor" y2="6"></line><text fill="currentColor" y="9" dy="0.71em">0x</text></g><g class="tick" opacity="1" transform="translate(114.52240267553597,0)" style="font-size: 13px;"><line stroke="currentColor" y2="6"></line><text fill="currentColor" y="9" dy="0.71em">10x</text></g><g class="tick" opacity="1" transform="translate(228.54480535107194,0)" style="font-size: 13px;"><line stroke="currentColor" y2="6"></line><text fill="currentColor" y="9" dy="0.71em">20x</text></g><g class="tick" opacity="1" transform="translate(342.5672080266079,0)" style="font-size: 13px;"><line stroke="currentColor" y2="6"></line><text fill="currentColor" y="9" dy="0.71em">30x</text></g><g class="tick" opacity="1" transform="translate(456.5896107021439,0)" style="font-size: 13px;"><line stroke="currentColor" y2="6"></line><text fill="currentColor" y="9" dy="0.71em">40x</text></g></g><text transform="translate(400, 30)" style="text-anchor: middle; font-size: 20px; font-weight: bold;">server-stringify benchmark</text><rect x="650" y="165" width="230" height="5" fill="gray"></rect><rect x="645" y="35" width="230" height="130" fill="none" stroke="black"></rect><rect x="655" y="45" width="10" height="10" style="fill: #4472c4;"></rect><text x="670" y="55" style="font-size: 12px;">fastify-class-transformer</text><rect x="655" y="65" width="10" height="10" style="fill: #ed7d31;"></rect><text x="670" y="75" style="font-size: 12px;">fastify-pure</text><rect x="655" y="85" width="10" height="10" style="fill: #a5a5a5;"></rect><text x="670" y="95" style="font-size: 12px;">fastify-typia</text><rect x="655" y="105" width="10" height="10" style="fill: #ffc000;"></rect><text x="670" y="115" style="font-size: 12px;">express-typia</text><rect x="655" y="125" width="10" height="10" style="fill: #5b9bd5;"></rect><text x="670" y="135" style="font-size: 12px;">express-pure</text><rect x="655" y="145" width="10" height="10" style="fill: #70ad47;"></rect><text x="670" y="155" style="font-size: 12px;">express-class-transformer</text><text x="20" y="829" style="font-size: 12px;">  - CPU: 11th Gen Intel(R) Core(TM) i5-1135G7 @ 2.40GHz</text><text x="20" y="846" style="font-size: 12px;">  - OS: win32</text><text x="20" y="863" style="font-size: 12px;">  - RAM: 16 GB</text><text x="20" y="880" style="font-size: 12px;">  - NodeJS version: v16.20.0</text><text x="20" y="897" style="font-size: 12px;">  - Typia version: v4.1.1</text><g style="font-size: 13px;"><g style="font-size: 13px;"><rect x="150" y="54.55004591368224" width="11.853229104018386" height="12.56198347107438" fill="#4472c4"></rect><rect x="150" y="67.77318640955001" width="270.9813371543419" height="12.56198347107438" fill="#ed7d31"></rect><rect x="150" y="80.99632690541777" width="292.9546268003358" height="12.56198347107438" fill="#a5a5a5"></rect><rect x="150" y="94.21946740128556" width="155.75051695289488" height="12.56198347107438" fill="#ffc000"></rect><rect x="150" y="107.44260789715332" width="109.92930422323526" height="12.56198347107438" fill="#5b9bd5"></rect><rect x="150" y="120.66574839302109" width="11.402240267553596" height="12.56198347107438" fill="#70ad47"></rect><text class="label" x="170.3532291040184" y="63.05004591368224" font-size="10px">1.04x</text><text class="label" x="429.4813371543419" y="76.27318640955001" font-size="10px">23.77x</text><text class="label" x="451.4546268003358" y="89.49632690541777" font-size="10px">25.69x</text><text class="label" x="314.2505169528949" y="102.71946740128556" font-size="10px">13.66x</text><text class="label" x="268.42930422323525" y="115.94260789715332" font-size="10px">9.64x</text><text class="label" x="169.9022402675536" y="129.1657483930211" font-size="10px">1x</text><text class="label" x="166.8532291040184" y="64.55004591368224" font-size="8px"></text><text class="label" x="425.9813371543419" y="77.77318640955001" font-size="8px"></text><text class="label" x="447.9546268003358" y="90.99632690541777" font-size="8px"></text><text class="label" x="310.7505169528949" y="104.21946740128556" font-size="8px"></text><text class="label" x="264.92930422323525" y="117.44260789715332" font-size="8px"></text><text class="label" x="166.4022402675536" y="130.6657483930211" font-size="8px"></text></g><g style="font-size: 13px;"><rect x="150" y="143.4389348025711" width="11.556475638937552" height="12.56198347107438" fill="#4472c4"></rect><rect x="150" y="156.66207529843888" width="181.9698115233359" height="12.56198347107438" fill="#ed7d31"></rect><rect x="150" y="169.88521579430665" width="210.98093866080845" height="12.56198347107438" fill="#a5a5a5"></rect><rect x="150" y="183.10835629017444" width="170.48659780961373" height="12.56198347107438" fill="#ffc000"></rect><rect x="150" y="196.3314967860422" width="112.38621308179464" height="12.56198347107438" fill="#5b9bd5"></rect><rect x="150" y="209.55463728190998" width="11.402240267553596" height="12.56198347107438" fill="#70ad47"></rect><text class="label" x="170.05647563893754" y="151.9389348025711" font-size="10px">1.01x</text><text class="label" x="340.4698115233359" y="165.16207529843888" font-size="10px">15.96x</text><text class="label" x="369.4809386608084" y="178.38521579430665" font-size="10px">18.5x</text><text class="label" x="328.9865978096137" y="191.60835629017444" font-size="10px">14.95x</text><text class="label" x="270.8862130817946" y="204.8314967860422" font-size="10px">9.86x</text><text class="label" x="169.9022402675536" y="218.05463728190998" font-size="10px">1x</text><text class="label" x="166.55647563893754" y="153.4389348025711" font-size="8px"></text><text class="label" x="336.9698115233359" y="166.66207529843888" font-size="8px"></text><text class="label" x="365.9809386608084" y="179.88521579430665" font-size="8px"></text><text class="label" x="325.4865978096137" y="193.10835629017444" font-size="8px"></text><text class="label" x="267.3862130817946" y="206.3314967860422" font-size="8px"></text><text class="label" x="166.4022402675536" y="219.55463728190998" font-size="8px"></text></g><g style="font-size: 13px;"><rect x="150" y="232.32782369146003" width="11.693774571676515" height="12.56198347107438" fill="#4472c4"></rect><rect x="150" y="245.5509641873278" width="122.91484475875792" height="12.56198347107438" fill="#ed7d31"></rect><rect x="150" y="258.77410468319556" width="276.42752254811757" height="12.56198347107438" fill="#a5a5a5"></rect><rect x="150" y="271.9972451790633" width="220.9060923597344" height="12.56198347107438" fill="#ffc000"></rect><rect x="150" y="285.2203856749311" width="139.55838644640178" height="12.56198347107438" fill="#5b9bd5"></rect><rect x="150" y="298.44352617079886" width="11.402240267553596" height="12.56198347107438" fill="#70ad47"></rect><text class="label" x="170.19377457167653" y="240.82782369146003" font-size="10px">1.03x</text><text class="label" x="281.4148447587579" y="254.0509641873278" font-size="10px">10.78x</text><text class="label" x="434.92752254811757" y="267.27410468319556" font-size="10px">24.24x</text><text class="label" x="379.40609235973443" y="280.4972451790633" font-size="10px">19.37x</text><text class="label" x="298.05838644640176" y="293.7203856749311" font-size="10px">12.24x</text><text class="label" x="169.9022402675536" y="306.94352617079886" font-size="10px">1x</text><text class="label" x="166.69377457167653" y="242.32782369146003" font-size="8px"></text><text class="label" x="277.9148447587579" y="255.5509641873278" font-size="8px"></text><text class="label" x="431.42752254811757" y="268.77410468319556" font-size="8px"></text><text class="label" x="375.90609235973443" y="281.9972451790633" font-size="8px"></text><text class="label" x="294.55838644640176" y="295.2203856749311" font-size="8px"></text><text class="label" x="166.4022402675536" y="308.44352617079886" font-size="8px"></text></g><g style="font-size: 13px;"><rect x="150" y="321.2167125803489" width="11.567944455224568" height="12.56198347107438" fill="#4472c4"></rect><rect x="150" y="334.43985307621665" width="238.73110642434233" height="12.56198347107438" fill="#ed7d31"></rect><rect x="150" y="347.6629935720844" width="440.9090909090908" height="12.56198347107438" fill="#a5a5a5"></rect><rect x="150" y="360.8861340679522" width="372.2379017491789" height="12.56198347107438" fill="#ffc000"></rect><rect x="150" y="374.10927456381995" width="234.51652113318247" height="12.56198347107438" fill="#5b9bd5"></rect><rect x="150" y="387.3324150596877" width="11.402240267553596" height="12.56198347107438" fill="#70ad47"></rect><text class="label" x="170.06794445522456" y="329.7167125803489" font-size="10px">1.01x</text><text class="label" x="397.23110642434233" y="342.93985307621665" font-size="10px">20.94x</text><text class="label" x="599.4090909090908" y="356.1629935720844" font-size="10px">38.67x</text><text class="label" x="530.737901749179" y="369.3861340679522" font-size="10px">32.65x</text><text class="label" x="393.01652113318244" y="382.60927456381995" font-size="10px">20.57x</text><text class="label" x="169.9022402675536" y="395.8324150596877" font-size="10px">1x</text><text class="label" x="166.56794445522456" y="331.2167125803489" font-size="8px"></text><text class="label" x="393.73110642434233" y="344.43985307621665" font-size="8px"></text><text class="label" x="595.9090909090908" y="357.6629935720844" font-size="8px"></text><text class="label" x="527.237901749179" y="370.8861340679522" font-size="8px"></text><text class="label" x="389.51652113318244" y="384.10927456381995" font-size="8px"></text><text class="label" x="166.4022402675536" y="397.3324150596877" font-size="8px"></text></g><g style="font-size: 13px;"><rect x="150" y="410.1056014692378" width="11.463197413993665" height="12.56198347107438" fill="#4472c4"></rect><rect x="150" y="423.32874196510556" width="178.3661317544134" height="12.56198347107438" fill="#ed7d31"></rect><rect x="150" y="436.55188246097333" width="201.12594682823251" height="12.56198347107438" fill="#a5a5a5"></rect><rect x="150" y="449.7750229568411" width="173.09497890870222" height="12.56198347107438" fill="#ffc000"></rect><rect x="150" y="462.99816345270887" width="165.5266187083758" height="12.56198347107438" fill="#5b9bd5"></rect><rect x="150" y="476.22130394857663" width="11.402240267553596" height="12.56198347107438" fill="#70ad47"></rect><text class="label" x="169.96319741399367" y="418.6056014692378" font-size="10px">1.01x</text><text class="label" x="336.8661317544134" y="431.82874196510556" font-size="10px">15.64x</text><text class="label" x="359.6259468282325" y="445.05188246097333" font-size="10px">17.64x</text><text class="label" x="331.5949789087022" y="458.2750229568411" font-size="10px">15.18x</text><text class="label" x="324.0266187083758" y="471.49816345270887" font-size="10px">14.52x</text><text class="label" x="169.9022402675536" y="484.72130394857663" font-size="10px">1x</text><text class="label" x="166.46319741399367" y="420.1056014692378" font-size="8px"></text><text class="label" x="333.3661317544134" y="433.32874196510556" font-size="8px"></text><text class="label" x="356.1259468282325" y="446.55188246097333" font-size="8px"></text><text class="label" x="328.0949789087022" y="459.7750229568411" font-size="8px"></text><text class="label" x="320.5266187083758" y="472.99816345270887" font-size="8px"></text><text class="label" x="166.4022402675536" y="486.22130394857663" font-size="8px"></text></g><g style="font-size: 13px;"><rect x="150" y="498.9944903581267" width="11.402240267553596" height="12.56198347107438" fill="#4472c4"></rect><rect x="150" y="512.2176308539945" width="108.57800760704781" height="12.56198347107438" fill="#ed7d31"></rect><rect x="150" y="525.4407713498622" width="261.9790230167957" height="12.56198347107438" fill="#a5a5a5"></rect><rect x="150" y="538.66391184573" width="269.0130029038584" height="12.56198347107438" fill="#ffc000"></rect><rect x="150" y="551.8870523415978" width="175.7972586363749" height="12.56198347107438" fill="#5b9bd5"></rect><rect x="150" y="565.1101928374655" width="11.410974170526659" height="12.56198347107438" fill="#70ad47"></rect><text class="label" x="169.9022402675536" y="507.4944903581267" font-size="10px">1x</text><text class="label" x="267.0780076070478" y="520.7176308539945" font-size="10px">9.52x</text><text class="label" x="420.4790230167957" y="533.9407713498622" font-size="10px">22.98x</text><text class="label" x="427.5130029038584" y="547.16391184573" font-size="10px">23.59x</text><text class="label" x="334.29725863637486" y="560.3870523415978" font-size="10px">15.42x</text><text class="label" x="169.91097417052666" y="573.6101928374655" font-size="10px">1x</text><text class="label" x="166.4022402675536" y="508.9944903581267" font-size="8px"></text><text class="label" x="263.5780076070478" y="522.2176308539945" font-size="8px"></text><text class="label" x="416.9790230167957" y="535.4407713498622" font-size="8px"></text><text class="label" x="424.0130029038584" y="548.66391184573" font-size="8px"></text><text class="label" x="330.79725863637486" y="561.8870523415978" font-size="8px"></text><text class="label" x="166.41097417052666" y="575.1101928374655" font-size="8px"></text></g><g style="font-size: 13px;"><rect x="150" y="587.8833792470156" width="11.521192494278717" height="12.56198347107438" fill="#4472c4"></rect><rect x="150" y="601.1065197428833" width="151.0683788946808" height="12.56198347107438" fill="#ed7d31"></rect><rect x="150" y="614.3296602387511" width="231.77192271883715" height="12.56198347107438" fill="#a5a5a5"></rect><rect x="150" y="627.5528007346188" width="226.03160534621986" height="12.56198347107438" fill="#ffc000"></rect><rect x="150" y="640.7759412304866" width="162.90051517662113" height="12.56198347107438" fill="#5b9bd5"></rect><rect x="150" y="653.9990817263545" width="11.402240267553596" height="12.56198347107438" fill="#70ad47"></rect><text class="label" x="170.02119249427872" y="596.3833792470156" font-size="10px">1.01x</text><text class="label" x="309.5683788946808" y="609.6065197428833" font-size="10px">13.25x</text><text class="label" x="390.2719227188371" y="622.8296602387511" font-size="10px">20.33x</text><text class="label" x="384.53160534621986" y="636.0528007346188" font-size="10px">19.82x</text><text class="label" x="321.4005151766211" y="649.2759412304866" font-size="10px">14.29x</text><text class="label" x="169.9022402675536" y="662.4990817263545" font-size="10px">1x</text><text class="label" x="166.52119249427872" y="597.8833792470156" font-size="8px"></text><text class="label" x="306.0683788946808" y="611.1065197428833" font-size="8px"></text><text class="label" x="386.7719227188371" y="624.3296602387511" font-size="8px"></text><text class="label" x="381.03160534621986" y="637.5528007346188" font-size="8px"></text><text class="label" x="317.9005151766211" y="650.7759412304866" font-size="8px"></text><text class="label" x="166.4022402675536" y="663.9990817263545" font-size="8px"></text></g><g style="font-size: 13px;"><rect x="150" y="676.7722681359045" width="11.402240267553596" height="12.56198347107438" fill="#4472c4"></rect><rect x="150" y="689.9954086317722" width="50.85440647082665" height="12.56198347107438" fill="#ed7d31"></rect><rect x="150" y="703.21854912764" width="227.6867291436104" height="12.56198347107438" fill="#a5a5a5"></rect><rect x="150" y="716.4416896235077" width="218.91390627944563" height="12.56198347107438" fill="#ffc000"></rect><rect x="150" y="729.6648301193756" width="204.70997189088092" height="12.56198347107438" fill="#5b9bd5"></rect><rect x="150" y="742.8879706152434" width="11.66657110563034" height="12.56198347107438" fill="#70ad47"></rect><text class="label" x="169.9022402675536" y="685.2722681359045" font-size="10px">1x</text><text class="label" x="209.35440647082666" y="698.4954086317722" font-size="10px">4.46x</text><text class="label" x="386.18672914361036" y="711.71854912764" font-size="10px">19.97x</text><text class="label" x="377.41390627944565" y="724.9416896235077" font-size="10px">19.2x</text><text class="label" x="363.2099718908809" y="738.1648301193756" font-size="10px">17.95x</text><text class="label" x="170.16657110563034" y="751.3879706152434" font-size="10px">1.02x</text><text class="label" x="166.4022402675536" y="686.7722681359045" font-size="8px"></text><text class="label" x="205.85440647082666" y="699.9954086317722" font-size="8px"></text><text class="label" x="382.68672914361036" y="713.21854912764" font-size="8px"></text><text class="label" x="373.91390627944565" y="726.4416896235077" font-size="8px"></text><text class="label" x="359.7099718908809" y="739.6648301193756" font-size="8px"></text><text class="label" x="166.66657110563034" y="752.8879706152434" font-size="8px"></text></g></g></svg>