<svg xmlns="http://www.w3.org/2000/svg" xmlns:xlink="http://www.w3.org/1999/xlink" width="800" height="555" style="background-color: white;"><g class="y axis" transform="translate(149,45)" fill="none" font-size="10" font-family="sans-serif" text-anchor="end" style="font-size: 13px;"><path class="domain" stroke="currentColor" d="M0.5,0.5V480.5"></path><g class="tick" opacity="1" transform="translate(0,32.592592592592595)" style="font-size: 13px;"><line stroke="currentColor" x2="0"></line><text fill="currentColor" x="-3" dy="0.32em">object (simple)    </text></g><g class="tick" opacity="1" transform="translate(0,91.85185185185186)" style="font-size: 13px;"><line stroke="currentColor" x2="0"></line><text fill="currentColor" x="-3" dy="0.32em">object (hierarchical)    </text></g><g class="tick" opacity="1" transform="translate(0,151.11111111111111)" style="font-size: 13px;"><line stroke="currentColor" x2="0"></line><text fill="currentColor" x="-3" dy="0.32em">object (recursive)    </text></g><g class="tick" opacity="1" transform="translate(0,210.37037037037035)" style="font-size: 13px;"><line stroke="currentColor" x2="0"></line><text fill="currentColor" x="-3" dy="0.32em">object (union, explicit)    </text></g><g class="tick" opacity="1" transform="translate(0,269.6296296296296)" style="font-size: 13px;"><line stroke="currentColor" x2="0"></line><text fill="currentColor" x="-3" dy="0.32em">array (simple)    </text></g><g class="tick" opacity="1" transform="translate(0,328.8888888888889)" style="font-size: 13px;"><line stroke="currentColor" x2="0"></line><text fill="currentColor" x="-3" dy="0.32em">array (hierarchical)    </text></g><g class="tick" opacity="1" transform="translate(0,388.14814814814815)" style="font-size: 13px;"><line stroke="currentColor" x2="0"></line><text fill="currentColor" x="-3" dy="0.32em">array (recursive)    </text></g><g class="tick" opacity="1" transform="translate(0,447.40740740740745)" style="font-size: 13px;"><line stroke="currentColor" x2="0"></line><text fill="currentColor" x="-3" dy="0.32em">array (union, explicit)    </text></g></g><g class="x axis" transform="translate(149,525)" fill="none" font-size="10" font-family="sans-serif" text-anchor="middle" style="font-size: 13px;"><path class="domain" stroke="currentColor" d="M0.5,0.5H485.5"></path><g class="tick" opacity="1" transform="translate(0.5,0)" style="font-size: 13px;"><line stroke="currentColor" y2="6"></line><text fill="currentColor" y="9" dy="0.71em">0x</text></g><g class="tick" opacity="1" transform="translate(73.93902898525758,0)" style="font-size: 13px;"><line stroke="currentColor" y2="6"></line><text fill="currentColor" y="9" dy="0.71em">5x</text></g><g class="tick" opacity="1" transform="translate(147.37805797051516,0)" style="font-size: 13px;"><line stroke="currentColor" y2="6"></line><text fill="currentColor" y="9" dy="0.71em">10x</text></g><g class="tick" opacity="1" transform="translate(220.81708695577274,0)" style="font-size: 13px;"><line stroke="currentColor" y2="6"></line><text fill="currentColor" y="9" dy="0.71em">15x</text></g><g class="tick" opacity="1" transform="translate(294.2561159410303,0)" style="font-size: 13px;"><line stroke="currentColor" y2="6"></line><text fill="currentColor" y="9" dy="0.71em">20x</text></g><g class="tick" opacity="1" transform="translate(367.69514492628787,0)" style="font-size: 13px;"><line stroke="currentColor" y2="6"></line><text fill="currentColor" y="9" dy="0.71em">25x</text></g><g class="tick" opacity="1" transform="translate(441.1341739115455,0)" style="font-size: 13px;"><line stroke="currentColor" y2="6"></line><text fill="currentColor" y="9" dy="0.71em">30x</text></g></g><text transform="translate(400, 30)" style="text-anchor: middle; font-size: 20px; font-weight: bold;">server benchmark</text><rect x="650" y="125" width="230" height="5" fill="gray"></rect><rect x="645" y="35" width="230" height="90" fill="none" stroke="black"></rect><rect x="655" y="45" width="10" height="10" style="fill: #4472c4;"></rect><text x="670" y="55" style="font-size: 12px;">express-typia</text><rect x="655" y="65" width="10" height="10" style="fill: #ed7d31;"></rect><text x="670" y="75" style="font-size: 12px;">fastify</text><rect x="655" y="85" width="10" height="10" style="fill: #a5a5a5;"></rect><text x="670" y="95" style="font-size: 12px;">express-pure</text><rect x="655" y="105" width="10" height="10" style="fill: #ffc000;"></rect><text x="670" y="115" style="font-size: 12px;">express-class-transformer</text><g style="font-size: 13px;"><g style="font-size: 13px;"><rect x="150" y="51.584362139917694" width="200.80519286885036" height="12.510288065843621" fill="#4472c4"></rect><rect x="150" y="64.75308641975309" width="331.7216360912124" height="12.510288065843621" fill="#ed7d31"></rect><rect x="150" y="77.92181069958848" width="143.057077852101" height="12.510288065843621" fill="#a5a5a5"></rect><rect x="150" y="91.09053497942386" width="14.687805797051517" height="12.510288065843621" fill="#ffc000"></rect><text class="label" x="359.3051928688503" y="60.084362139917694" font-size="10px">13.67x</text><text class="label" x="490.2216360912124" y="73.25308641975309" font-size="10px">22.58x</text><text class="label" x="301.557077852101" y="86.42181069958848" font-size="10px">9.74x</text><text class="label" x="173.1878057970515" y="99.59053497942386" font-size="10px">1x</text><text class="label" x="355.8051928688503" y="61.584362139917694" font-size="8px"></text><text class="label" x="486.7216360912124" y="74.75308641975309" font-size="8px"></text><text class="label" x="298.057077852101" y="87.92181069958848" font-size="8px"></text><text class="label" x="169.6878057970515" y="101.09053497942386" font-size="8px"></text></g><g style="font-size: 13px;"><rect x="150" y="110.84362139917695" width="206.21927225750696" height="12.510288065843621" fill="#4472c4"></rect><rect x="150" y="124.01234567901236" width="278.9509510856762" height="12.510288065843621" fill="#ed7d31"></rect><rect x="150" y="137.18106995884773" width="136.42323332139608" height="12.510288065843621" fill="#a5a5a5"></rect><rect x="150" y="150.34979423868313" width="14.687805797051517" height="12.510288065843621" fill="#ffc000"></rect><text class="label" x="364.719272257507" y="119.34362139917695" font-size="10px">14.04x</text><text class="label" x="437.4509510856762" y="132.51234567901236" font-size="10px">18.99x</text><text class="label" x="294.9232333213961" y="145.68106995884773" font-size="10px">9.29x</text><text class="label" x="173.1878057970515" y="158.84979423868313" font-size="10px">1x</text><text class="label" x="361.219272257507" y="120.84362139917695" font-size="8px"></text><text class="label" x="433.9509510856762" y="134.01234567901236" font-size="8px"></text><text class="label" x="291.4232333213961" y="147.18106995884773" font-size="8px"></text><text class="label" x="169.6878057970515" y="160.34979423868313" font-size="8px"></text></g><g style="font-size: 13px;"><rect x="150" y="170.10288065843622" width="250.90178477491037" height="12.510288065843621" fill="#4472c4"></rect><rect x="150" y="183.2716049382716" width="174.42692507965432" height="12.510288065843621" fill="#ed7d31"></rect><rect x="150" y="196.440329218107" width="170.43038178594162" height="12.510288065843621" fill="#a5a5a5"></rect><rect x="150" y="209.6090534979424" width="14.687805797051517" height="12.510288065843621" fill="#ffc000"></rect><text class="label" x="409.40178477491037" y="178.60288065843622" font-size="10px">17.08x</text><text class="label" x="332.9269250796543" y="191.7716049382716" font-size="10px">11.88x</text><text class="label" x="328.9303817859416" y="204.940329218107" font-size="10px">11.6x</text><text class="label" x="173.1878057970515" y="218.1090534979424" font-size="10px">1x</text><text class="label" x="405.90178477491037" y="180.10288065843622" font-size="8px"></text><text class="label" x="329.4269250796543" y="193.2716049382716" font-size="8px"></text><text class="label" x="325.4303817859416" y="206.440329218107" font-size="8px"></text><text class="label" x="169.6878057970515" y="219.6090534979424" font-size="8px"></text></g><g style="font-size: 13px;"><rect x="150" y="229.36213991769546" width="440.9090909090909" height="12.510288065843621" fill="#4472c4"></rect><rect x="150" y="242.53086419753086" width="283.2411458261448" height="12.510288065843621" fill="#ed7d31"></rect><rect x="150" y="255.69958847736626" width="295.27930297526416" height="12.510288065843621" fill="#a5a5a5"></rect><rect x="150" y="268.86831275720164" width="14.687805797051517" height="12.510288065843621" fill="#ffc000"></rect><text class="label" x="599.4090909090909" y="237.86213991769546" font-size="10px">30.02x</text><text class="label" x="441.7411458261448" y="251.03086419753086" font-size="10px">19.28x</text><text class="label" x="453.77930297526416" y="264.19958847736626" font-size="10px">20.1x</text><text class="label" x="173.1878057970515" y="277.36831275720164" font-size="10px">1x</text><text class="label" x="595.9090909090909" y="239.36213991769546" font-size="8px"></text><text class="label" x="438.2411458261448" y="252.53086419753086" font-size="8px"></text><text class="label" x="450.27930297526416" y="265.69958847736626" font-size="8px"></text><text class="label" x="169.6878057970515" y="278.86831275720164" font-size="8px"></text></g><g style="font-size: 13px;"><rect x="150" y="288.6213991769547" width="204.32561531549675" height="12.510288065843621" fill="#4472c4"></rect><rect x="150" y="301.7901234567901" width="190.34924209977078" height="12.510288065843621" fill="#ed7d31"></rect><rect x="150" y="314.9588477366255" width="191.56935961434806" height="12.510288065843621" fill="#a5a5a5"></rect><rect x="150" y="328.12757201646093" width="14.687805797051517" height="12.510288065843621" fill="#ffc000"></rect><text class="label" x="362.82561531549675" y="297.1213991769547" font-size="10px">13.91x</text><text class="label" x="348.8492420997708" y="310.2901234567901" font-size="10px">12.96x</text><text class="label" x="350.06935961434806" y="323.4588477366255" font-size="10px">13.04x</text><text class="label" x="173.1878057970515" y="336.62757201646093" font-size="10px">1x</text><text class="label" x="359.32561531549675" y="298.6213991769547" font-size="8px"></text><text class="label" x="345.3492420997708" y="311.7901234567901" font-size="8px"></text><text class="label" x="346.56935961434806" y="324.9588477366255" font-size="8px"></text><text class="label" x="169.6878057970515" y="338.12757201646093" font-size="8px"></text></g><g style="font-size: 13px;"><rect x="150" y="347.880658436214" width="318.0778327224059" height="12.510288065843621" fill="#4472c4"></rect><rect x="150" y="361.04938271604937" width="148.30480975427855" height="12.510288065843621" fill="#ed7d31"></rect><rect x="150" y="374.2181069958848" width="210.38887522797745" height="12.510288065843621" fill="#a5a5a5"></rect><rect x="150" y="387.38683127572017" width="14.687805797051517" height="12.510288065843621" fill="#ffc000"></rect><text class="label" x="476.5778327224059" y="356.380658436214" font-size="10px">21.66x</text><text class="label" x="306.80480975427855" y="369.54938271604937" font-size="10px">10.1x</text><text class="label" x="368.88887522797745" y="382.7181069958848" font-size="10px">14.32x</text><text class="label" x="173.1878057970515" y="395.88683127572017" font-size="10px">1x</text><text class="label" x="473.0778327224059" y="357.880658436214" font-size="8px"></text><text class="label" x="303.30480975427855" y="371.04938271604937" font-size="8px"></text><text class="label" x="365.38887522797745" y="384.2181069958848" font-size="8px"></text><text class="label" x="169.6878057970515" y="397.38683127572017" font-size="8px"></text></g><g style="font-size: 13px;"><rect x="150" y="407.13991769547323" width="284.68189742232914" height="12.510288065843621" fill="#4472c4"></rect><rect x="150" y="420.3086419753086" width="205.9071045475574" height="12.510288065843621" fill="#ed7d31"></rect><rect x="150" y="433.47736625514403" width="201.10572058741133" height="12.510288065843621" fill="#a5a5a5"></rect><rect x="150" y="446.6460905349794" width="14.687805797051517" height="12.510288065843621" fill="#ffc000"></rect><text class="label" x="443.18189742232914" y="415.63991769547323" font-size="10px">19.38x</text><text class="label" x="364.4071045475574" y="428.8086419753086" font-size="10px">14.02x</text><text class="label" x="359.6057205874113" y="441.97736625514403" font-size="10px">13.69x</text><text class="label" x="173.1878057970515" y="455.1460905349794" font-size="10px">1x</text><text class="label" x="439.68189742232914" y="417.13991769547323" font-size="8px"></text><text class="label" x="360.9071045475574" y="430.3086419753086" font-size="8px"></text><text class="label" x="356.1057205874113" y="443.47736625514403" font-size="8px"></text><text class="label" x="169.6878057970515" y="456.6460905349794" font-size="8px"></text></g><g style="font-size: 13px;"><rect x="150" y="466.3991769547325" width="237.0489773577397" height="12.510288065843621" fill="#4472c4"></rect><rect x="150" y="479.5679012345679" width="221.22469353279612" height="12.510288065843621" fill="#ed7d31"></rect><rect x="150" y="492.73662551440333" width="232.21403727113346" height="12.510288065843621" fill="#a5a5a5"></rect><rect x="150" y="505.9053497942387" width="14.687805797051517" height="12.510288065843621" fill="#ffc000"></rect><text class="label" x="395.54897735773966" y="474.8991769547325" font-size="10px">16.14x</text><text class="label" x="379.7246935327961" y="488.0679012345679" font-size="10px">15.06x</text><text class="label" x="390.71403727113346" y="501.23662551440333" font-size="10px">15.81x</text><text class="label" x="173.1878057970515" y="514.4053497942386" font-size="10px">1x</text><text class="label" x="392.04897735773966" y="476.3991769547325" font-size="8px"></text><text class="label" x="376.2246935327961" y="489.5679012345679" font-size="8px"></text><text class="label" x="387.21403727113346" y="502.73662551440333" font-size="8px"></text><text class="label" x="169.6878057970515" y="515.9053497942386" font-size="8px"></text></g></g></svg>