<svg xmlns="http://www.w3.org/2000/svg" xmlns:xlink="http://www.w3.org/1999/xlink" width="800" height="674" style="background-color: white;"><g class="y axis" transform="translate(149,45)" fill="none" font-size="10" font-family="sans-serif" text-anchor="end" style="font-size: 13px;"><path class="domain" stroke="currentColor" d="M0.5,0.5V480.5"></path><g class="tick" opacity="1" transform="translate(0,32.592592592592595)" style="font-size: 13px;"><line stroke="currentColor" x2="0"></line><text fill="currentColor" x="-3" dy="0.32em">object (simple)    </text></g><g class="tick" opacity="1" transform="translate(0,91.85185185185186)" style="font-size: 13px;"><line stroke="currentColor" x2="0"></line><text fill="currentColor" x="-3" dy="0.32em">object (hierarchical)    </text></g><g class="tick" opacity="1" transform="translate(0,151.11111111111111)" style="font-size: 13px;"><line stroke="currentColor" x2="0"></line><text fill="currentColor" x="-3" dy="0.32em">object (recursive)    </text></g><g class="tick" opacity="1" transform="translate(0,210.37037037037035)" style="font-size: 13px;"><line stroke="currentColor" x2="0"></line><text fill="currentColor" x="-3" dy="0.32em">object (union, explicit)    </text></g><g class="tick" opacity="1" transform="translate(0,269.6296296296296)" style="font-size: 13px;"><line stroke="currentColor" x2="0"></line><text fill="currentColor" x="-3" dy="0.32em">array (simple)    </text></g><g class="tick" opacity="1" transform="translate(0,328.8888888888889)" style="font-size: 13px;"><line stroke="currentColor" x2="0"></line><text fill="currentColor" x="-3" dy="0.32em">array (hierarchical)    </text></g><g class="tick" opacity="1" transform="translate(0,388.14814814814815)" style="font-size: 13px;"><line stroke="currentColor" x2="0"></line><text fill="currentColor" x="-3" dy="0.32em">array (recursive)    </text></g><g class="tick" opacity="1" transform="translate(0,447.40740740740745)" style="font-size: 13px;"><line stroke="currentColor" x2="0"></line><text fill="currentColor" x="-3" dy="0.32em">array (union, explicit)    </text></g></g><g class="x axis" transform="translate(149,525)" fill="none" font-size="10" font-family="sans-serif" text-anchor="middle" style="font-size: 13px;"><path class="domain" stroke="currentColor" d="M0.5,0.5H485.5"></path><g class="tick" opacity="1" transform="translate(0.5,0)" style="font-size: 13px;"><line stroke="currentColor" y2="6"></line><text fill="currentColor" y="9" dy="0.71em">0x</text></g><g class="tick" opacity="1" transform="translate(74.0907049099707,0)" style="font-size: 13px;"><line stroke="currentColor" y2="6"></line><text fill="currentColor" y="9" dy="0.71em">5x</text></g><g class="tick" opacity="1" transform="translate(147.6814098199414,0)" style="font-size: 13px;"><line stroke="currentColor" y2="6"></line><text fill="currentColor" y="9" dy="0.71em">10x</text></g><g class="tick" opacity="1" transform="translate(221.2721147299121,0)" style="font-size: 13px;"><line stroke="currentColor" y2="6"></line><text fill="currentColor" y="9" dy="0.71em">15x</text></g><g class="tick" opacity="1" transform="translate(294.8628196398828,0)" style="font-size: 13px;"><line stroke="currentColor" y2="6"></line><text fill="currentColor" y="9" dy="0.71em">20x</text></g><g class="tick" opacity="1" transform="translate(368.45352454985346,0)" style="font-size: 13px;"><line stroke="currentColor" y2="6"></line><text fill="currentColor" y="9" dy="0.71em">25x</text></g><g class="tick" opacity="1" transform="translate(442.0442294598242,0)" style="font-size: 13px;"><line stroke="currentColor" y2="6"></line><text fill="currentColor" y="9" dy="0.71em">30x</text></g></g><text transform="translate(400, 30)" style="text-anchor: middle; font-size: 20px; font-weight: bold;">server benchmark</text><rect x="650" y="125" width="230" height="5" fill="gray"></rect><rect x="645" y="35" width="230" height="90" fill="none" stroke="black"></rect><rect x="655" y="45" width="10" height="10" style="fill: #4472c4;"></rect><text x="670" y="55" style="font-size: 12px;">express-typia</text><rect x="655" y="65" width="10" height="10" style="fill: #ed7d31;"></rect><text x="670" y="75" style="font-size: 12px;">fastify</text><rect x="655" y="85" width="10" height="10" style="fill: #a5a5a5;"></rect><text x="670" y="95" style="font-size: 12px;">express-pure</text><rect x="655" y="105" width="10" height="10" style="fill: #ffc000;"></rect><text x="670" y="115" style="font-size: 12px;">express-class-transformer</text><text x="20" y="589" style="font-size: 12px;">  - CPU: 11th Gen Intel(R) Core(TM) i5-1135G7 @ 2.40GHz</text><text x="20" y="606" style="font-size: 12px;">  - OS: win32</text><text x="20" y="623" style="font-size: 12px;">  - RAM: 16 GB</text><text x="20" y="640" style="font-size: 12px;">  - NodeJS version: v16.20.0</text><text x="20" y="657" style="font-size: 12px;">  - Typia version: v3.7.3</text><g style="font-size: 13px;"><g style="font-size: 13px;"><rect x="150" y="51.584362139917694" width="181.18197579441508" height="12.510288065843621" fill="#4472c4"></rect><rect x="150" y="64.75308641975309" width="314.9493658163865" height="12.510288065843621" fill="#ed7d31"></rect><rect x="150" y="77.92181069958848" width="134.3627794454263" height="12.510288065843621" fill="#a5a5a5"></rect><rect x="150" y="91.09053497942386" width="14.71814098199414" height="12.510288065843621" fill="#ffc000"></rect><text class="label" x="339.68197579441505" y="60.084362139917694" font-size="10px">12.31x</text><text class="label" x="473.4493658163865" y="73.25308641975309" font-size="10px">21.4x</text><text class="label" x="292.8627794454263" y="86.42181069958848" font-size="10px">9.13x</text><text class="label" x="173.21814098199414" y="99.59053497942386" font-size="10px">1x</text><text class="label" x="336.18197579441505" y="61.584362139917694" font-size="8px"></text><text class="label" x="469.9493658163865" y="74.75308641975309" font-size="8px"></text><text class="label" x="289.3627794454263" y="87.92181069958848" font-size="8px"></text><text class="label" x="169.71814098199414" y="101.09053497942386" font-size="8px"></text></g><g style="font-size: 13px;"><rect x="150" y="110.84362139917695" width="202.6386093495978" height="12.510288065843621" fill="#4472c4"></rect><rect x="150" y="124.01234567901236" width="289.20995400199365" height="12.510288065843621" fill="#ed7d31"></rect><rect x="150" y="137.18106995884773" width="137.76580370243707" height="12.510288065843621" fill="#a5a5a5"></rect><rect x="150" y="150.34979423868313" width="14.71814098199414" height="12.510288065843621" fill="#ffc000"></rect><text class="label" x="361.1386093495978" y="119.34362139917695" font-size="10px">13.77x</text><text class="label" x="447.70995400199365" y="132.51234567901236" font-size="10px">19.65x</text><text class="label" x="296.2658037024371" y="145.68106995884773" font-size="10px">9.36x</text><text class="label" x="173.21814098199414" y="158.84979423868313" font-size="10px">1x</text><text class="label" x="357.6386093495978" y="120.84362139917695" font-size="8px"></text><text class="label" x="444.20995400199365" y="134.01234567901236" font-size="8px"></text><text class="label" x="292.7658037024371" y="147.18106995884773" font-size="8px"></text><text class="label" x="169.71814098199414" y="160.34979423868313" font-size="8px"></text></g><g style="font-size: 13px;"><rect x="150" y="170.10288065843622" width="247.31921164629253" height="12.510288065843621" fill="#4472c4"></rect><rect x="150" y="183.2716049382716" width="167.52065836299496" height="12.510288065843621" fill="#ed7d31"></rect><rect x="150" y="196.440329218107" width="162.93155452583403" height="12.510288065843621" fill="#a5a5a5"></rect><rect x="150" y="209.6090534979424" width="14.71814098199414" height="12.510288065843621" fill="#ffc000"></rect><text class="label" x="405.8192116462925" y="178.60288065843622" font-size="10px">16.8x</text><text class="label" x="326.02065836299494" y="191.7716049382716" font-size="10px">11.38x</text><text class="label" x="321.43155452583403" y="204.940329218107" font-size="10px">11.07x</text><text class="label" x="173.21814098199414" y="218.1090534979424" font-size="10px">1x</text><text class="label" x="402.3192116462925" y="180.10288065843622" font-size="8px"></text><text class="label" x="322.52065836299494" y="193.2716049382716" font-size="8px"></text><text class="label" x="317.93155452583403" y="206.440329218107" font-size="8px"></text><text class="label" x="169.71814098199414" y="219.6090534979424" font-size="8px"></text></g><g style="font-size: 13px;"><rect x="150" y="229.36213991769546" width="440.9090909090908" height="12.510288065843621" fill="#4472c4"></rect><rect x="150" y="242.53086419753086" width="293.51138515849715" height="12.510288065843621" fill="#ed7d31"></rect><rect x="150" y="255.69958847736626" width="289.6272424184023" height="12.510288065843621" fill="#a5a5a5"></rect><rect x="150" y="268.86831275720164" width="14.71814098199414" height="12.510288065843621" fill="#ffc000"></rect><text class="label" x="599.4090909090908" y="237.86213991769546" font-size="10px">29.96x</text><text class="label" x="452.01138515849715" y="251.03086419753086" font-size="10px">19.94x</text><text class="label" x="448.1272424184023" y="264.19958847736626" font-size="10px">19.68x</text><text class="label" x="173.21814098199414" y="277.36831275720164" font-size="10px">1x</text><text class="label" x="595.9090909090908" y="239.36213991769546" font-size="8px"></text><text class="label" x="448.51138515849715" y="252.53086419753086" font-size="8px"></text><text class="label" x="444.6272424184023" y="265.69958847736626" font-size="8px"></text><text class="label" x="169.71814098199414" y="278.86831275720164" font-size="8px"></text></g><g style="font-size: 13px;"><rect x="150" y="288.6213991769547" width="206.66516502341995" height="12.510288065843621" fill="#4472c4"></rect><rect x="150" y="301.7901234567901" width="192.87979247287623" height="12.510288065843621" fill="#ed7d31"></rect><rect x="150" y="314.9588477366255" width="171.67529997841552" height="12.510288065843621" fill="#a5a5a5"></rect><rect x="150" y="328.12757201646093" width="14.71814098199414" height="12.510288065843621" fill="#ffc000"></rect><text class="label" x="365.16516502341995" y="297.1213991769547" font-size="10px">14.04x</text><text class="label" x="351.37979247287626" y="310.2901234567901" font-size="10px">13.1x</text><text class="label" x="330.1752999784155" y="323.4588477366255" font-size="10px">11.66x</text><text class="label" x="173.21814098199414" y="336.62757201646093" font-size="10px">1x</text><text class="label" x="361.66516502341995" y="298.6213991769547" font-size="8px"></text><text class="label" x="347.87979247287626" y="311.7901234567901" font-size="8px"></text><text class="label" x="326.6752999784155" y="324.9588477366255" font-size="8px"></text><text class="label" x="169.71814098199414" y="338.12757201646093" font-size="8px"></text></g><g style="font-size: 13px;"><rect x="150" y="347.880658436214" width="309.4838590625581" height="12.510288065843621" fill="#4472c4"></rect><rect x="150" y="361.04938271604937" width="149.66461276132617" height="12.510288065843621" fill="#ed7d31"></rect><rect x="150" y="374.2181069958848" width="219.19443408916933" height="12.510288065843621" fill="#a5a5a5"></rect><rect x="150" y="387.38683127572017" width="14.71814098199414" height="12.510288065843621" fill="#ffc000"></rect><text class="label" x="467.9838590625581" y="356.380658436214" font-size="10px">21.03x</text><text class="label" x="308.16461276132617" y="369.54938271604937" font-size="10px">10.17x</text><text class="label" x="377.69443408916936" y="382.7181069958848" font-size="10px">14.89x</text><text class="label" x="173.21814098199414" y="395.88683127572017" font-size="10px">1x</text><text class="label" x="464.4838590625581" y="357.880658436214" font-size="8px"></text><text class="label" x="304.66461276132617" y="371.04938271604937" font-size="8px"></text><text class="label" x="374.19443408916936" y="384.2181069958848" font-size="8px"></text><text class="label" x="169.71814098199414" y="397.38683127572017" font-size="8px"></text></g><g style="font-size: 13px;"><rect x="150" y="407.13991769547323" width="257.5412458059606" height="12.510288065843621" fill="#4472c4"></rect><rect x="150" y="420.3086419753086" width="183.02036767773902" height="12.510288065843621" fill="#ed7d31"></rect><rect x="150" y="433.47736625514403" width="185.0235388820961" height="12.510288065843621" fill="#a5a5a5"></rect><rect x="150" y="446.6460905349794" width="14.71814098199414" height="12.510288065843621" fill="#ffc000"></rect><text class="label" x="416.0412458059606" y="415.63991769547323" font-size="10px">17.5x</text><text class="label" x="341.52036767773905" y="428.8086419753086" font-size="10px">12.44x</text><text class="label" x="343.5235388820961" y="441.97736625514403" font-size="10px">12.57x</text><text class="label" x="173.21814098199414" y="455.1460905349794" font-size="10px">1x</text><text class="label" x="412.5412458059606" y="417.13991769547323" font-size="8px"></text><text class="label" x="338.02036767773905" y="430.3086419753086" font-size="8px"></text><text class="label" x="340.0235388820961" y="443.47736625514403" font-size="8px"></text><text class="label" x="169.71814098199414" y="456.6460905349794" font-size="8px"></text></g><g style="font-size: 13px;"><rect x="150" y="466.3991769547325" width="250.65708742719357" height="12.510288065843621" fill="#4472c4"></rect><rect x="150" y="479.5679012345679" width="224.43663413518348" height="12.510288065843621" fill="#ed7d31"></rect><rect x="150" y="492.73662551440333" width="238.09105003203692" height="12.510288065843621" fill="#a5a5a5"></rect><rect x="150" y="505.9053497942387" width="14.71814098199414" height="12.510288065843621" fill="#ffc000"></rect><text class="label" x="409.1570874271936" y="474.8991769547325" font-size="10px">17.03x</text><text class="label" x="382.93663413518345" y="488.0679012345679" font-size="10px">15.25x</text><text class="label" x="396.59105003203695" y="501.23662551440333" font-size="10px">16.18x</text><text class="label" x="173.21814098199414" y="514.4053497942386" font-size="10px">1x</text><text class="label" x="405.6570874271936" y="476.3991769547325" font-size="8px"></text><text class="label" x="379.43663413518345" y="489.5679012345679" font-size="8px"></text><text class="label" x="393.09105003203695" y="502.73662551440333" font-size="8px"></text><text class="label" x="169.71814098199414" y="515.9053497942386" font-size="8px"></text></g></g></svg>