<svg xmlns="http://www.w3.org/2000/svg" xmlns:xlink="http://www.w3.org/1999/xlink" width="800" height="794" style="background-color: white;"><g class="y axis" transform="translate(149,45)" fill="none" font-size="10" font-family="sans-serif" text-anchor="end" style="font-size: 13px;"><path class="domain" stroke="currentColor" d="M0.5,0.5V600.5"></path><g class="tick" opacity="1" transform="translate(0,40.740740740740726)" style="font-size: 13px;"><line stroke="currentColor" x2="0"></line><text fill="currentColor" x="-3" dy="0.32em">object (simple)    </text></g><g class="tick" opacity="1" transform="translate(0,114.81481481481481)" style="font-size: 13px;"><line stroke="currentColor" x2="0"></line><text fill="currentColor" x="-3" dy="0.32em">object (hierarchical)    </text></g><g class="tick" opacity="1" transform="translate(0,188.88888888888889)" style="font-size: 13px;"><line stroke="currentColor" x2="0"></line><text fill="currentColor" x="-3" dy="0.32em">object (recursive)    </text></g><g class="tick" opacity="1" transform="translate(0,262.96296296296293)" style="font-size: 13px;"><line stroke="currentColor" x2="0"></line><text fill="currentColor" x="-3" dy="0.32em">object (union, explicit)    </text></g><g class="tick" opacity="1" transform="translate(0,337.037037037037)" style="font-size: 13px;"><line stroke="currentColor" x2="0"></line><text fill="currentColor" x="-3" dy="0.32em">array (simple)    </text></g><g class="tick" opacity="1" transform="translate(0,411.1111111111111)" style="font-size: 13px;"><line stroke="currentColor" x2="0"></line><text fill="currentColor" x="-3" dy="0.32em">array (hierarchical)    </text></g><g class="tick" opacity="1" transform="translate(0,485.18518518518516)" style="font-size: 13px;"><line stroke="currentColor" x2="0"></line><text fill="currentColor" x="-3" dy="0.32em">array (recursive)    </text></g><g class="tick" opacity="1" transform="translate(0,559.2592592592592)" style="font-size: 13px;"><line stroke="currentColor" x2="0"></line><text fill="currentColor" x="-3" dy="0.32em">array (union, explicit)    </text></g></g><g class="x axis" transform="translate(149,645)" fill="none" font-size="10" font-family="sans-serif" text-anchor="middle" style="font-size: 13px;"><path class="domain" stroke="currentColor" d="M0.5,0.5H485.5"></path><g class="tick" opacity="1" transform="translate(0.5,0)" style="font-size: 13px;"><line stroke="currentColor" y2="6"></line><text fill="currentColor" y="9" dy="0.71em">0x</text></g><g class="tick" opacity="1" transform="translate(85.57372092956085,0)" style="font-size: 13px;"><line stroke="currentColor" y2="6"></line><text fill="currentColor" y="9" dy="0.71em">50x</text></g><g class="tick" opacity="1" transform="translate(170.6474418591217,0)" style="font-size: 13px;"><line stroke="currentColor" y2="6"></line><text fill="currentColor" y="9" dy="0.71em">100x</text></g><g class="tick" opacity="1" transform="translate(255.72116278868256,0)" style="font-size: 13px;"><line stroke="currentColor" y2="6"></line><text fill="currentColor" y="9" dy="0.71em">150x</text></g><g class="tick" opacity="1" transform="translate(340.7948837182434,0)" style="font-size: 13px;"><line stroke="currentColor" y2="6"></line><text fill="currentColor" y="9" dy="0.71em">200x</text></g><g class="tick" opacity="1" transform="translate(425.86860464780426,0)" style="font-size: 13px;"><line stroke="currentColor" y2="6"></line><text fill="currentColor" y="9" dy="0.71em">250x</text></g></g><text transform="translate(400, 30)" style="text-anchor: middle; font-size: 20px; font-weight: bold;">server-assert benchmark</text><rect x="650" y="145" width="230" height="5" fill="gray"></rect><rect x="645" y="35" width="230" height="110" fill="none" stroke="black"></rect><rect x="655" y="45" width="10" height="10" style="fill: #4472c4;"></rect><text x="670" y="55" style="font-size: 12px;">fastify-class-transformer</text><rect x="655" y="65" width="10" height="10" style="fill: #ed7d31;"></rect><text x="670" y="75" style="font-size: 12px;">fastify-pure</text><rect x="655" y="85" width="10" height="10" style="fill: #a5a5a5;"></rect><text x="670" y="95" style="font-size: 12px;">fastify-typia</text><rect x="655" y="105" width="10" height="10" style="fill: #ffc000;"></rect><text x="670" y="115" style="font-size: 12px;">express-typia</text><rect x="655" y="125" width="10" height="10" style="fill: #5b9bd5;"></rect><text x="670" y="135" style="font-size: 12px;">express-class-transformer</text><text x="20" y="709" style="font-size: 12px;">  - CPU: 11th Gen Intel(R) Core(TM) i5-1135G7 @ 2.40GHz</text><text x="20" y="726" style="font-size: 12px;">  - OS: win32</text><text x="20" y="743" style="font-size: 12px;">  - RAM: 16 GB</text><text x="20" y="760" style="font-size: 12px;">  - NodeJS version: v16.20.0</text><text x="20" y="777" style="font-size: 12px;">  - Typia version: v4.1.1</text><g style="font-size: 13px;"><g style="font-size: 13px;"><rect x="150" y="53.06747341400805" width="1.7014744185912172" height="12.541254125412543" fill="#4472c4"></rect><rect x="150" y="66.26879354602124" width="26.035192567759385" height="12.541254125412543" fill="#ed7d31"></rect><rect x="150" y="79.47011367803445" width="25.617282335892977" height="12.541254125412543" fill="#a5a5a5"></rect><rect x="150" y="92.67143381004766" width="73.8565932530055" height="12.541254125412543" fill="#ffc000"></rect><rect x="150" y="105.87275394206085" width="47.512263738300305" height="12.541254125412543" fill="#5b9bd5"></rect><text class="label" x="160.2014744185912" y="61.56747341400805" font-size="10px">1x</text><text class="label" x="184.5351925677594" y="74.76879354602124" font-size="10px">15x</text><text class="label" x="184.11728233589298" y="87.97011367803445" font-size="10px">15x</text><text class="label" x="232.35659325300549" y="101.17143381004766" font-size="10px">43x</text><text class="label" x="206.0122637383003" y="114.37275394206085" font-size="10px">28x</text><text class="label" x="156.7014744185912" y="63.06747341400805" font-size="8px"></text><text class="label" x="181.0351925677594" y="76.26879354602124" font-size="8px"></text><text class="label" x="180.61728233589298" y="89.47011367803445" font-size="8px"></text><text class="label" x="228.85659325300549" y="102.67143381004766" font-size="8px"></text><text class="label" x="202.5122637383003" y="115.87275394206085" font-size="8px"></text></g><g style="font-size: 13px;"><rect x="150" y="127.14154748808213" width="1.7014744185912172" height="12.541254125412543" fill="#4472c4"></rect><rect x="150" y="140.34286762009532" width="23.504777415860104" height="12.541254125412543" fill="#ed7d31"></rect><rect x="150" y="153.54418775210854" width="23.814878679998056" height="12.541254125412543" fill="#a5a5a5"></rect><rect x="150" y="166.74550788412174" width="218.4681729048683" height="12.541254125412543" fill="#ffc000"></rect><rect x="150" y="179.94682801613493" width="133.67129701325993" height="12.541254125412543" fill="#5b9bd5"></rect><text class="label" x="160.2014744185912" y="135.64154748808213" font-size="10px">1x</text><text class="label" x="182.0047774158601" y="148.84286762009532" font-size="10px">14x</text><text class="label" x="182.31487867999806" y="162.04418775210854" font-size="10px">14x</text><text class="label" x="376.9681729048683" y="175.24550788412174" font-size="10px">128x</text><text class="label" x="292.17129701325996" y="188.44682801613493" font-size="10px">79x</text><text class="label" x="156.7014744185912" y="137.14154748808213" font-size="8px"></text><text class="label" x="178.5047774158601" y="150.34286762009532" font-size="8px"></text><text class="label" x="178.81487867999806" y="163.54418775210854" font-size="8px"></text><text class="label" x="373.4681729048683" y="176.74550788412174" font-size="8px"></text><text class="label" x="288.67129701325996" y="189.94682801613493" font-size="8px"></text></g><g style="font-size: 13px;"><rect x="150" y="201.2156215621562" width="1.7014744185912172" height="12.541254125412543" fill="#4472c4"></rect><rect x="150" y="214.4169416941694" width="26.011089978017377" height="12.541254125412543" fill="#ed7d31"></rect><rect x="150" y="227.61826182618262" width="28.4389063590128" height="12.541254125412543" fill="#a5a5a5"></rect><rect x="150" y="240.8195819581958" width="304.6970584819749" height="12.541254125412543" fill="#ffc000"></rect><rect x="150" y="254.020902090209" width="194.9737149271659" height="12.541254125412543" fill="#5b9bd5"></rect><text class="label" x="160.2014744185912" y="209.7156215621562" font-size="10px">1x</text><text class="label" x="184.51108997801737" y="222.9169416941694" font-size="10px">15x</text><text class="label" x="186.9389063590128" y="236.11826182618262" font-size="10px">17x</text><text class="label" x="463.1970584819749" y="249.3195819581958" font-size="10px">179x</text><text class="label" x="353.47371492716593" y="262.520902090209" font-size="10px">115x</text><text class="label" x="156.7014744185912" y="211.2156215621562" font-size="8px"></text><text class="label" x="181.01108997801737" y="224.4169416941694" font-size="8px"></text><text class="label" x="183.4389063590128" y="237.61826182618262" font-size="8px"></text><text class="label" x="459.6970584819749" y="250.8195819581958" font-size="8px"></text><text class="label" x="349.97371492716593" y="264.020902090209" font-size="8px"></text></g><g style="font-size: 13px;"><rect x="150" y="275.28969563623025" width="1.7014744185912172" height="12.541254125412543" fill="#4472c4"></rect><rect x="150" y="288.49101576824347" width="11.134018095143414" height="12.541254125412543" fill="#ed7d31"></rect><rect x="150" y="301.6923359002567" width="19.37961830014882" height="12.541254125412543" fill="#a5a5a5"></rect><rect x="150" y="314.89365603226986" width="314.32479954836464" height="12.541254125412543" fill="#ffc000"></rect><rect x="150" y="328.0949761642831" width="191.56415916995223" height="12.541254125412543" fill="#5b9bd5"></rect><text class="label" x="160.2014744185912" y="283.78969563623025" font-size="10px">1x</text><text class="label" x="169.6340180951434" y="296.99101576824347" font-size="10px">7x</text><text class="label" x="177.87961830014882" y="310.1923359002567" font-size="10px">11x</text><text class="label" x="472.82479954836464" y="323.39365603226986" font-size="10px">185x</text><text class="label" x="350.06415916995223" y="336.5949761642831" font-size="10px">113x</text><text class="label" x="156.7014744185912" y="285.28969563623025" font-size="8px"></text><text class="label" x="166.1340180951434" y="298.49101576824347" font-size="8px"></text><text class="label" x="174.37961830014882" y="311.6923359002567" font-size="8px"></text><text class="label" x="469.32479954836464" y="324.89365603226986" font-size="8px"></text><text class="label" x="346.56415916995223" y="338.0949761642831" font-size="8px"></text></g><g style="font-size: 13px;"><rect x="150" y="349.3637697103044" width="1.7014744185912172" height="12.541254125412543" fill="#4472c4"></rect><rect x="150" y="362.56508984231755" width="19.395762397241157" height="12.541254125412543" fill="#ed7d31"></rect><rect x="150" y="375.76640997433077" width="11.39741261333474" height="12.541254125412543" fill="#a5a5a5"></rect><rect x="150" y="388.967730106344" width="217.26943251521863" height="12.541254125412543" fill="#ffc000"></rect><rect x="150" y="402.16905023835716" width="194.29578678951853" height="12.541254125412543" fill="#5b9bd5"></rect><text class="label" x="160.2014744185912" y="357.8637697103044" font-size="10px">1x</text><text class="label" x="177.89576239724116" y="371.06508984231755" font-size="10px">11x</text><text class="label" x="169.89741261333475" y="384.26640997433077" font-size="10px">7x</text><text class="label" x="375.7694325152186" y="397.467730106344" font-size="10px">128x</text><text class="label" x="352.7957867895185" y="410.66905023835716" font-size="10px">114x</text><text class="label" x="156.7014744185912" y="359.3637697103044" font-size="8px"></text><text class="label" x="174.39576239724116" y="372.56508984231755" font-size="8px"></text><text class="label" x="166.39741261333475" y="385.76640997433077" font-size="8px"></text><text class="label" x="372.2694325152186" y="398.967730106344" font-size="8px"></text><text class="label" x="349.2957867895185" y="412.16905023835716" font-size="8px"></text></g><g style="font-size: 13px;"><rect x="150" y="423.4378437843784" width="2.3313252855579734" height="12.541254125412543" fill="#4472c4"></rect><rect x="150" y="436.6391639163916" width="1.7014744185912172" height="12.541254125412543" fill="#ed7d31"></rect><rect x="150" y="449.84048404840485" width="2.496294022887001" height="12.541254125412543" fill="#a5a5a5"></rect><rect x="150" y="463.041804180418" width="3.358626823818404" height="12.541254125412543" fill="#ffc000"></rect><rect x="150" y="476.24312431243123" width="8.331446515112724" height="12.541254125412543" fill="#5b9bd5"></rect><text class="label" x="160.83132528555797" y="431.9378437843784" font-size="10px">1x</text><text class="label" x="160.2014744185912" y="445.1391639163916" font-size="10px">1x</text><text class="label" x="160.996294022887" y="458.34048404840485" font-size="10px">1x</text><text class="label" x="161.8586268238184" y="471.541804180418" font-size="10px">2x</text><text class="label" x="166.83144651511273" y="484.74312431243123" font-size="10px">5x</text><text class="label" x="157.33132528555797" y="433.4378437843784" font-size="8px"></text><text class="label" x="156.7014744185912" y="446.6391639163916" font-size="8px"></text><text class="label" x="157.496294022887" y="459.84048404840485" font-size="8px"></text><text class="label" x="158.3586268238184" y="473.041804180418" font-size="8px"></text><text class="label" x="163.33144651511273" y="486.24312431243123" font-size="8px"></text></g><g style="font-size: 13px;"><rect x="150" y="497.51191785845253" width="1.7648820490505508" height="12.541254125412543" fill="#4472c4"></rect><rect x="150" y="510.7132379904657" width="1.796032237677777" height="12.541254125412543" fill="#ed7d31"></rect><rect x="150" y="523.9145581224789" width="1.7014744185912172" height="12.541254125412543" fill="#a5a5a5"></rect><rect x="150" y="537.1158782544921" width="3.539725708621099" height="12.541254125412543" fill="#ffc000"></rect><rect x="150" y="550.3171983865053" width="2.7108877032294703" height="12.541254125412543" fill="#5b9bd5"></rect><text class="label" x="160.26488204905056" y="506.01191785845253" font-size="10px">1x</text><text class="label" x="160.29603223767776" y="519.2132379904657" font-size="10px">1x</text><text class="label" x="160.2014744185912" y="532.4145581224789" font-size="10px">1x</text><text class="label" x="162.0397257086211" y="545.6158782544921" font-size="10px">2x</text><text class="label" x="161.21088770322947" y="558.8171983865053" font-size="10px">2x</text><text class="label" x="156.76488204905056" y="507.51191785845253" font-size="8px"></text><text class="label" x="156.79603223767776" y="520.7132379904657" font-size="8px"></text><text class="label" x="156.7014744185912" y="533.9145581224789" font-size="8px"></text><text class="label" x="158.5397257086211" y="547.1158782544921" font-size="8px"></text><text class="label" x="157.71088770322947" y="560.3171983865053" font-size="8px"></text></g><g style="font-size: 13px;"><rect x="150" y="571.5859919325266" width="1.7014744185912172" height="12.541254125412543" fill="#4472c4"></rect><rect x="150" y="584.7873120645397" width="9.831740602730012" height="12.541254125412543" fill="#ed7d31"></rect><rect x="150" y="597.9886321965529" width="16.16719717256532" height="12.541254125412543" fill="#a5a5a5"></rect><rect x="150" y="611.1899523285662" width="440.9090909090908" height="12.541254125412543" fill="#ffc000"></rect><rect x="150" y="624.3912724605793" width="305.66947316127573" height="12.541254125412543" fill="#5b9bd5"></rect><text class="label" x="160.2014744185912" y="580.0859919325266" font-size="10px">1x</text><text class="label" x="168.33174060273" y="593.2873120645397" font-size="10px">6x</text><text class="label" x="174.66719717256532" y="606.4886321965529" font-size="10px">10x</text><text class="label" x="599.4090909090908" y="619.6899523285662" font-size="10px">259x</text><text class="label" x="464.16947316127573" y="632.8912724605793" font-size="10px">180x</text><text class="label" x="156.7014744185912" y="581.5859919325266" font-size="8px"></text><text class="label" x="164.83174060273" y="594.7873120645397" font-size="8px"></text><text class="label" x="171.16719717256532" y="607.9886321965529" font-size="8px"></text><text class="label" x="595.9090909090908" y="621.1899523285662" font-size="8px"></text><text class="label" x="460.66947316127573" y="634.3912724605793" font-size="8px"></text></g></g></svg>