<svg xmlns="http://www.w3.org/2000/svg" xmlns:xlink="http://www.w3.org/1999/xlink" width="800" height="914" style="background-color: white;"><g class="y axis" transform="translate(149,45)" fill="none" font-size="10" font-family="sans-serif" text-anchor="end" style="font-size: 13px;"><path class="domain" stroke="currentColor" d="M0.5,0.5V720.5"></path><g class="tick" opacity="1" transform="translate(0,48.88888888888886)" style="font-size: 13px;"><line stroke="currentColor" x2="0"></line><text fill="currentColor" x="-3" dy="0.32em">object (simple)    </text></g><g class="tick" opacity="1" transform="translate(0,137.77777777777774)" style="font-size: 13px;"><line stroke="currentColor" x2="0"></line><text fill="currentColor" x="-3" dy="0.32em">object (hierarchical)    </text></g><g class="tick" opacity="1" transform="translate(0,226.66666666666663)" style="font-size: 13px;"><line stroke="currentColor" x2="0"></line><text fill="currentColor" x="-3" dy="0.32em">object (recursive)    </text></g><g class="tick" opacity="1" transform="translate(0,315.5555555555555)" style="font-size: 13px;"><line stroke="currentColor" x2="0"></line><text fill="currentColor" x="-3" dy="0.32em">object (union, explicit)    </text></g><g class="tick" opacity="1" transform="translate(0,404.4444444444444)" style="font-size: 13px;"><line stroke="currentColor" x2="0"></line><text fill="currentColor" x="-3" dy="0.32em">array (simple)    </text></g><g class="tick" opacity="1" transform="translate(0,493.3333333333333)" style="font-size: 13px;"><line stroke="currentColor" x2="0"></line><text fill="currentColor" x="-3" dy="0.32em">array (hierarchical)    </text></g><g class="tick" opacity="1" transform="translate(0,582.2222222222222)" style="font-size: 13px;"><line stroke="currentColor" x2="0"></line><text fill="currentColor" x="-3" dy="0.32em">array (recursive)    </text></g><g class="tick" opacity="1" transform="translate(0,671.1111111111111)" style="font-size: 13px;"><line stroke="currentColor" x2="0"></line><text fill="currentColor" x="-3" dy="0.32em">array (union, explicit)    </text></g></g><g class="x axis" transform="translate(149,765)" fill="none" font-size="10" font-family="sans-serif" text-anchor="middle" style="font-size: 13px;"><path class="domain" stroke="currentColor" d="M0.5,0.5H485.5"></path><g class="tick" opacity="1" transform="translate(0.5,0)" style="font-size: 13px;"><line stroke="currentColor" y2="6"></line><text fill="currentColor" y="9" dy="0.71em">0x</text></g><g class="tick" opacity="1" transform="translate(126.30331218887972,0)" style="font-size: 13px;"><line stroke="currentColor" y2="6"></line><text fill="currentColor" y="9" dy="0.71em">10x</text></g><g class="tick" opacity="1" transform="translate(252.10662437775943,0)" style="font-size: 13px;"><line stroke="currentColor" y2="6"></line><text fill="currentColor" y="9" dy="0.71em">20x</text></g><g class="tick" opacity="1" transform="translate(377.9099365666392,0)" style="font-size: 13px;"><line stroke="currentColor" y2="6"></line><text fill="currentColor" y="9" dy="0.71em">30x</text></g></g><text transform="translate(400, 30)" style="text-anchor: middle; font-size: 20px; font-weight: bold;">server benchmark</text><rect x="650" y="165" width="230" height="5" fill="gray"></rect><rect x="645" y="35" width="230" height="130" fill="none" stroke="black"></rect><rect x="655" y="45" width="10" height="10" style="fill: #4472c4;"></rect><text x="670" y="55" style="font-size: 12px;">fastify-class-transformer</text><rect x="655" y="65" width="10" height="10" style="fill: #ed7d31;"></rect><text x="670" y="75" style="font-size: 12px;">fastify-pure</text><rect x="655" y="85" width="10" height="10" style="fill: #a5a5a5;"></rect><text x="670" y="95" style="font-size: 12px;">fastify-typia</text><rect x="655" y="105" width="10" height="10" style="fill: #ffc000;"></rect><text x="670" y="115" style="font-size: 12px;">express-typia</text><rect x="655" y="125" width="10" height="10" style="fill: #5b9bd5;"></rect><text x="670" y="135" style="font-size: 12px;">express-pure</text><rect x="655" y="145" width="10" height="10" style="fill: #70ad47;"></rect><text x="670" y="155" style="font-size: 12px;">express-class-transformer</text><text x="20" y="829" style="font-size: 12px;">  - CPU: 11th Gen Intel(R) Core(TM) i5-1135G7 @ 2.40GHz</text><text x="20" y="846" style="font-size: 12px;">  - OS: win32</text><text x="20" y="863" style="font-size: 12px;">  - RAM: 16 GB</text><text x="20" y="880" style="font-size: 12px;">  - NodeJS version: v16.20.0</text><text x="20" y="897" style="font-size: 12px;">  - Typia version: v3.8.6</text><g style="font-size: 13px;"><g style="font-size: 13px;"><rect x="150" y="54.55004591368224" width="13.148517503477414" height="12.56198347107438" fill="#4472c4"></rect><rect x="150" y="67.77318640955001" width="304.10397500970424" height="12.56198347107438" fill="#ed7d31"></rect><rect x="150" y="80.99632690541777" width="376.55244769451906" height="12.56198347107438" fill="#a5a5a5"></rect><rect x="150" y="94.21946740128556" width="172.94383012270444" height="12.56198347107438" fill="#ffc000"></rect><rect x="150" y="107.44260789715332" width="121.66980957935517" height="12.56198347107438" fill="#5b9bd5"></rect><rect x="150" y="120.66574839302109" width="12.580331218887972" height="12.56198347107438" fill="#70ad47"></rect><text class="label" x="171.64851750347742" y="63.05004591368224" font-size="10px">1.05x</text><text class="label" x="462.60397500970424" y="76.27318640955001" font-size="10px">24.17x</text><text class="label" x="535.0524476945191" y="89.49632690541777" font-size="10px">29.93x</text><text class="label" x="331.4438301227044" y="102.71946740128556" font-size="10px">13.75x</text><text class="label" x="280.16980957935516" y="115.94260789715332" font-size="10px">9.67x</text><text class="label" x="171.08033121888798" y="129.1657483930211" font-size="10px">1x</text><text class="label" x="168.14851750347742" y="64.55004591368224" font-size="8px"></text><text class="label" x="459.10397500970424" y="77.77318640955001" font-size="8px"></text><text class="label" x="531.5524476945191" y="90.99632690541777" font-size="8px"></text><text class="label" x="327.9438301227044" y="104.21946740128556" font-size="8px"></text><text class="label" x="276.66980957935516" y="117.44260789715332" font-size="8px"></text><text class="label" x="167.58033121888798" y="130.6657483930211" font-size="8px"></text></g><g style="font-size: 13px;"><rect x="150" y="143.4389348025711" width="12.935945660587102" height="12.56198347107438" fill="#4472c4"></rect><rect x="150" y="156.66207529843888" width="187.52610133235396" height="12.56198347107438" fill="#ed7d31"></rect><rect x="150" y="169.88521579430665" width="214.6423734146431" height="12.56198347107438" fill="#a5a5a5"></rect><rect x="150" y="183.10835629017444" width="169.78508872976062" height="12.56198347107438" fill="#ffc000"></rect><rect x="150" y="196.3314967860422" width="119.05122089211686" height="12.56198347107438" fill="#5b9bd5"></rect><rect x="150" y="209.55463728190998" width="12.580331218887972" height="12.56198347107438" fill="#70ad47"></rect><text class="label" x="171.4359456605871" y="151.9389348025711" font-size="10px">1.03x</text><text class="label" x="346.02610133235396" y="165.16207529843888" font-size="10px">14.91x</text><text class="label" x="373.1423734146431" y="178.38521579430665" font-size="10px">17.06x</text><text class="label" x="328.2850887297606" y="191.60835629017444" font-size="10px">13.5x</text><text class="label" x="277.5512208921169" y="204.8314967860422" font-size="10px">9.46x</text><text class="label" x="171.08033121888798" y="218.05463728190998" font-size="10px">1x</text><text class="label" x="167.9359456605871" y="153.4389348025711" font-size="8px"></text><text class="label" x="342.52610133235396" y="166.66207529843888" font-size="8px"></text><text class="label" x="369.6423734146431" y="179.88521579430665" font-size="8px"></text><text class="label" x="324.7850887297606" y="193.10835629017444" font-size="8px"></text><text class="label" x="274.0512208921169" y="206.3314967860422" font-size="8px"></text><text class="label" x="167.58033121888798" y="219.55463728190998" font-size="8px"></text></g><g style="font-size: 13px;"><rect x="150" y="232.32782369146003" width="12.580331218887972" height="12.56198347107438" fill="#4472c4"></rect><rect x="150" y="245.5509641873278" width="148.50664577692848" height="12.56198347107438" fill="#ed7d31"></rect><rect x="150" y="258.77410468319556" width="279.63662374263566" height="12.56198347107438" fill="#a5a5a5"></rect><rect x="150" y="271.9972451790633" width="218.28336516090226" height="12.56198347107438" fill="#ffc000"></rect><rect x="150" y="285.2203856749311" width="146.65901063383507" height="12.56198347107438" fill="#5b9bd5"></rect><rect x="150" y="298.44352617079886" width="12.842412396179782" height="12.56198347107438" fill="#70ad47"></rect><text class="label" x="171.08033121888798" y="240.82782369146003" font-size="10px">1x</text><text class="label" x="307.0066457769285" y="254.0509641873278" font-size="10px">11.8x</text><text class="label" x="438.13662374263566" y="267.27410468319556" font-size="10px">22.23x</text><text class="label" x="376.78336516090224" y="280.4972451790633" font-size="10px">17.35x</text><text class="label" x="305.15901063383507" y="293.7203856749311" font-size="10px">11.66x</text><text class="label" x="171.34241239617978" y="306.94352617079886" font-size="10px">1.02x</text><text class="label" x="167.58033121888798" y="242.32782369146003" font-size="8px"></text><text class="label" x="303.5066457769285" y="255.5509641873278" font-size="8px"></text><text class="label" x="434.63662374263566" y="268.77410468319556" font-size="8px"></text><text class="label" x="373.28336516090224" y="281.9972451790633" font-size="8px"></text><text class="label" x="301.65901063383507" y="295.2203856749311" font-size="8px"></text><text class="label" x="167.84241239617978" y="308.44352617079886" font-size="8px"></text></g><g style="font-size: 13px;"><rect x="150" y="321.2167125803489" width="12.580331218887972" height="12.56198347107438" fill="#4472c4"></rect><rect x="150" y="334.43985307621665" width="237.73511507155118" height="12.56198347107438" fill="#ed7d31"></rect><rect x="150" y="347.6629935720844" width="440.9090909090909" height="12.56198347107438" fill="#a5a5a5"></rect><rect x="150" y="360.8861340679522" width="386.68871893656274" height="12.56198347107438" fill="#ffc000"></rect><rect x="150" y="374.10927456381995" width="251.61115657667" height="12.56198347107438" fill="#5b9bd5"></rect><rect x="150" y="387.3324150596877" width="12.981222900839297" height="12.56198347107438" fill="#70ad47"></rect><text class="label" x="171.08033121888798" y="329.7167125803489" font-size="10px">1x</text><text class="label" x="396.23511507155115" y="342.93985307621665" font-size="10px">18.9x</text><text class="label" x="599.4090909090909" y="356.1629935720844" font-size="10px">35.05x</text><text class="label" x="545.1887189365627" y="369.3861340679522" font-size="10px">30.74x</text><text class="label" x="410.11115657667" y="382.60927456381995" font-size="10px">20x</text><text class="label" x="171.4812229008393" y="395.8324150596877" font-size="10px">1.03x</text><text class="label" x="167.58033121888798" y="331.2167125803489" font-size="8px"></text><text class="label" x="392.73511507155115" y="344.43985307621665" font-size="8px"></text><text class="label" x="595.9090909090909" y="357.6629935720844" font-size="8px"></text><text class="label" x="541.6887189365627" y="370.8861340679522" font-size="8px"></text><text class="label" x="406.61115657667" y="384.10927456381995" font-size="8px"></text><text class="label" x="167.9812229008393" y="397.3324150596877" font-size="8px"></text></g><g style="font-size: 13px;"><rect x="150" y="410.1056014692378" width="12.580331218887972" height="12.56198347107438" fill="#4472c4"></rect><rect x="150" y="423.32874196510556" width="169.9877997713242" height="12.56198347107438" fill="#ed7d31"></rect><rect x="150" y="436.55188246097333" width="189.5134714152461" height="12.56198347107438" fill="#a5a5a5"></rect><rect x="150" y="449.7750229568411" width="177.79410288367998" height="12.56198347107438" fill="#ffc000"></rect><rect x="150" y="462.99816345270887" width="156.11642684306108" height="12.56198347107438" fill="#5b9bd5"></rect><rect x="150" y="476.22130394857663" width="12.716354872523254" height="12.56198347107438" fill="#70ad47"></rect><text class="label" x="171.08033121888798" y="418.6056014692378" font-size="10px">1x</text><text class="label" x="328.4877997713242" y="431.82874196510556" font-size="10px">13.51x</text><text class="label" x="348.0134714152461" y="445.05188246097333" font-size="10px">15.06x</text><text class="label" x="336.29410288368" y="458.2750229568411" font-size="10px">14.13x</text><text class="label" x="314.61642684306105" y="471.49816345270887" font-size="10px">12.41x</text><text class="label" x="171.21635487252325" y="484.72130394857663" font-size="10px">1.01x</text><text class="label" x="167.58033121888798" y="420.1056014692378" font-size="8px"></text><text class="label" x="324.9877997713242" y="433.32874196510556" font-size="8px"></text><text class="label" x="344.5134714152461" y="446.55188246097333" font-size="8px"></text><text class="label" x="332.79410288368" y="459.7750229568411" font-size="8px"></text><text class="label" x="311.11642684306105" y="472.99816345270887" font-size="8px"></text><text class="label" x="167.71635487252325" y="486.22130394857663" font-size="8px"></text></g><g style="font-size: 13px;"><rect x="150" y="498.9944903581267" width="13.49468194953055" height="12.56198347107438" fill="#4472c4"></rect><rect x="150" y="512.2176308539945" width="136.2980335708813" height="12.56198347107438" fill="#ed7d31"></rect><rect x="150" y="525.4407713498622" width="288.51024254774563" height="12.56198347107438" fill="#a5a5a5"></rect><rect x="150" y="538.66391184573" width="288.1774499649627" height="12.56198347107438" fill="#ffc000"></rect><rect x="150" y="551.8870523415978" width="192.570968156138" height="12.56198347107438" fill="#5b9bd5"></rect><rect x="150" y="565.1101928374655" width="12.580331218887972" height="12.56198347107438" fill="#70ad47"></rect><text class="label" x="171.99468194953056" y="507.4944903581267" font-size="10px">1.07x</text><text class="label" x="294.79803357088133" y="520.7176308539945" font-size="10px">10.83x</text><text class="label" x="447.01024254774563" y="533.9407713498622" font-size="10px">22.93x</text><text class="label" x="446.6774499649627" y="547.16391184573" font-size="10px">22.91x</text><text class="label" x="351.070968156138" y="560.3870523415978" font-size="10px">15.31x</text><text class="label" x="171.08033121888798" y="573.6101928374655" font-size="10px">1x</text><text class="label" x="168.49468194953056" y="508.9944903581267" font-size="8px"></text><text class="label" x="291.29803357088133" y="522.2176308539945" font-size="8px"></text><text class="label" x="443.51024254774563" y="535.4407713498622" font-size="8px"></text><text class="label" x="443.1774499649627" y="548.66391184573" font-size="8px"></text><text class="label" x="347.570968156138" y="561.8870523415978" font-size="8px"></text><text class="label" x="167.58033121888798" y="575.1101928374655" font-size="8px"></text></g><g style="font-size: 13px;"><rect x="150" y="587.8833792470156" width="12.580331218887972" height="12.56198347107438" fill="#4472c4"></rect><rect x="150" y="601.1065197428833" width="151.94473163444036" height="12.56198347107438" fill="#ed7d31"></rect><rect x="150" y="614.3296602387511" width="217.93316137514373" height="12.56198347107438" fill="#a5a5a5"></rect><rect x="150" y="627.5528007346188" width="215.25986067495262" height="12.56198347107438" fill="#ffc000"></rect><rect x="150" y="640.7759412304866" width="149.46429086484608" height="12.56198347107438" fill="#5b9bd5"></rect><rect x="150" y="653.9990817263545" width="12.597037347336569" height="12.56198347107438" fill="#70ad47"></rect><text class="label" x="171.08033121888798" y="596.3833792470156" font-size="10px">1x</text><text class="label" x="310.44473163444036" y="609.6065197428833" font-size="10px">12.08x</text><text class="label" x="376.43316137514375" y="622.8296602387511" font-size="10px">17.32x</text><text class="label" x="373.7598606749526" y="636.0528007346188" font-size="10px">17.11x</text><text class="label" x="307.9642908648461" y="649.2759412304866" font-size="10px">11.88x</text><text class="label" x="171.09703734733657" y="662.4990817263545" font-size="10px">1x</text><text class="label" x="167.58033121888798" y="597.8833792470156" font-size="8px"></text><text class="label" x="306.94473163444036" y="611.1065197428833" font-size="8px"></text><text class="label" x="372.93316137514375" y="624.3296602387511" font-size="8px"></text><text class="label" x="370.2598606749526" y="637.5528007346188" font-size="8px"></text><text class="label" x="304.4642908648461" y="650.7759412304866" font-size="8px"></text><text class="label" x="167.59703734733657" y="663.9990817263545" font-size="8px"></text></g><g style="font-size: 13px;"><rect x="150" y="676.7722681359045" width="12.580331218887972" height="12.56198347107438" fill="#4472c4"></rect><rect x="150" y="689.9954086317722" width="188.01603443064698" height="12.56198347107438" fill="#ed7d31"></rect><rect x="150" y="703.21854912764" width="225.51854349995915" height="12.56198347107438" fill="#a5a5a5"></rect><rect x="150" y="716.4416896235077" width="218.18914118945" height="12.56198347107438" fill="#ffc000"></rect><rect x="150" y="729.6648301193756" width="205.11054118975824" height="12.56198347107438" fill="#5b9bd5"></rect><rect x="150" y="742.8879706152434" width="12.655853300623528" height="12.56198347107438" fill="#70ad47"></rect><text class="label" x="171.08033121888798" y="685.2722681359045" font-size="10px">1x</text><text class="label" x="346.516034430647" y="698.4954086317722" font-size="10px">14.95x</text><text class="label" x="384.01854349995915" y="711.71854912764" font-size="10px">17.93x</text><text class="label" x="376.68914118944997" y="724.9416896235077" font-size="10px">17.34x</text><text class="label" x="363.61054118975824" y="738.1648301193756" font-size="10px">16.3x</text><text class="label" x="171.15585330062353" y="751.3879706152434" font-size="10px">1.01x</text><text class="label" x="167.58033121888798" y="686.7722681359045" font-size="8px"></text><text class="label" x="343.016034430647" y="699.9954086317722" font-size="8px"></text><text class="label" x="380.51854349995915" y="713.21854912764" font-size="8px"></text><text class="label" x="373.18914118944997" y="726.4416896235077" font-size="8px"></text><text class="label" x="360.11054118975824" y="739.6648301193756" font-size="8px"></text><text class="label" x="167.65585330062353" y="752.8879706152434" font-size="8px"></text></g></g></svg>