<svg xmlns="http://www.w3.org/2000/svg" xmlns:xlink="http://www.w3.org/1999/xlink" width="800" height="674" style="background-color: white;"><g class="y axis" transform="translate(149,45)" fill="none" font-size="10" font-family="sans-serif" text-anchor="end" style="font-size: 13px;"><path class="domain" stroke="currentColor" d="M0.5,0.5V480.5"></path><g class="tick" opacity="1" transform="translate(0,32.592592592592595)" style="font-size: 13px;"><line stroke="currentColor" x2="0"></line><text fill="currentColor" x="-3" dy="0.32em">object (simple)    </text></g><g class="tick" opacity="1" transform="translate(0,91.85185185185186)" style="font-size: 13px;"><line stroke="currentColor" x2="0"></line><text fill="currentColor" x="-3" dy="0.32em">object (hierarchical)    </text></g><g class="tick" opacity="1" transform="translate(0,151.11111111111111)" style="font-size: 13px;"><line stroke="currentColor" x2="0"></line><text fill="currentColor" x="-3" dy="0.32em">object (recursive)    </text></g><g class="tick" opacity="1" transform="translate(0,210.37037037037035)" style="font-size: 13px;"><line stroke="currentColor" x2="0"></line><text fill="currentColor" x="-3" dy="0.32em">object (union, explicit)    </text></g><g class="tick" opacity="1" transform="translate(0,269.6296296296296)" style="font-size: 13px;"><line stroke="currentColor" x2="0"></line><text fill="currentColor" x="-3" dy="0.32em">array (simple)    </text></g><g class="tick" opacity="1" transform="translate(0,328.8888888888889)" style="font-size: 13px;"><line stroke="currentColor" x2="0"></line><text fill="currentColor" x="-3" dy="0.32em">array (hierarchical)    </text></g><g class="tick" opacity="1" transform="translate(0,388.14814814814815)" style="font-size: 13px;"><line stroke="currentColor" x2="0"></line><text fill="currentColor" x="-3" dy="0.32em">array (recursive)    </text></g><g class="tick" opacity="1" transform="translate(0,447.40740740740745)" style="font-size: 13px;"><line stroke="currentColor" x2="0"></line><text fill="currentColor" x="-3" dy="0.32em">array (union, explicit)    </text></g></g><g class="x axis" transform="translate(149,525)" fill="none" font-size="10" font-family="sans-serif" text-anchor="middle" style="font-size: 13px;"><path class="domain" stroke="currentColor" d="M0.5,0.5H485.5"></path><g class="tick" opacity="1" transform="translate(0.5,0)" style="font-size: 13px;"><line stroke="currentColor" y2="6"></line><text fill="currentColor" y="9" dy="0.71em">0x</text></g><g class="tick" opacity="1" transform="translate(73.42210780635638,0)" style="font-size: 13px;"><line stroke="currentColor" y2="6"></line><text fill="currentColor" y="9" dy="0.71em">5x</text></g><g class="tick" opacity="1" transform="translate(146.34421561271276,0)" style="font-size: 13px;"><line stroke="currentColor" y2="6"></line><text fill="currentColor" y="9" dy="0.71em">10x</text></g><g class="tick" opacity="1" transform="translate(219.2663234190691,0)" style="font-size: 13px;"><line stroke="currentColor" y2="6"></line><text fill="currentColor" y="9" dy="0.71em">15x</text></g><g class="tick" opacity="1" transform="translate(292.1884312254255,0)" style="font-size: 13px;"><line stroke="currentColor" y2="6"></line><text fill="currentColor" y="9" dy="0.71em">20x</text></g><g class="tick" opacity="1" transform="translate(365.11053903178185,0)" style="font-size: 13px;"><line stroke="currentColor" y2="6"></line><text fill="currentColor" y="9" dy="0.71em">25x</text></g><g class="tick" opacity="1" transform="translate(438.0326468381382,0)" style="font-size: 13px;"><line stroke="currentColor" y2="6"></line><text fill="currentColor" y="9" dy="0.71em">30x</text></g></g><text transform="translate(400, 30)" style="text-anchor: middle; font-size: 20px; font-weight: bold;">server benchmark</text><rect x="650" y="125" width="230" height="5" fill="gray"></rect><rect x="645" y="35" width="230" height="90" fill="none" stroke="black"></rect><rect x="655" y="45" width="10" height="10" style="fill: #4472c4;"></rect><text x="670" y="55" style="font-size: 12px;">express-typia</text><rect x="655" y="65" width="10" height="10" style="fill: #ed7d31;"></rect><text x="670" y="75" style="font-size: 12px;">fastify</text><rect x="655" y="85" width="10" height="10" style="fill: #a5a5a5;"></rect><text x="670" y="95" style="font-size: 12px;">express-pure</text><rect x="655" y="105" width="10" height="10" style="fill: #ffc000;"></rect><text x="670" y="115" style="font-size: 12px;">express-class-transformer</text><text x="20" y="589" style="font-size: 12px;">  - CPU: 11th Gen Intel(R) Core(TM) i5-1135G7 @ 2.40GHz</text><text x="20" y="606" style="font-size: 12px;">  - OS: win32</text><text x="20" y="623" style="font-size: 12px;">  - RAM: 16 GB</text><text x="20" y="640" style="font-size: 12px;">  - NodeJS version: v16.20.0</text><text x="20" y="657" style="font-size: 12px;">  - Typia version: v3.7.3</text><g style="font-size: 13px;"><g style="font-size: 13px;"><rect x="150" y="51.584362139917694" width="199.122985718133" height="12.510288065843621" fill="#4472c4"></rect><rect x="150" y="64.75308641975309" width="364.98095949558757" height="12.510288065843621" fill="#ed7d31"></rect><rect x="150" y="77.92181069958848" width="139.76193233520644" height="12.510288065843621" fill="#a5a5a5"></rect><rect x="150" y="91.09053497942386" width="14.584421561271274" height="12.510288065843621" fill="#ffc000"></rect><text class="label" x="357.622985718133" y="60.084362139917694" font-size="10px">13.65x</text><text class="label" x="523.4809594955875" y="73.25308641975309" font-size="10px">25.03x</text><text class="label" x="298.26193233520644" y="86.42181069958848" font-size="10px">9.58x</text><text class="label" x="173.08442156127128" y="99.59053497942386" font-size="10px">1x</text><text class="label" x="354.122985718133" y="61.584362139917694" font-size="8px"></text><text class="label" x="519.9809594955875" y="74.75308641975309" font-size="8px"></text><text class="label" x="294.76193233520644" y="87.92181069958848" font-size="8px"></text><text class="label" x="169.58442156127128" y="101.09053497942386" font-size="8px"></text></g><g style="font-size: 13px;"><rect x="150" y="110.84362139917695" width="198.46092666851774" height="12.510288065843621" fill="#4472c4"></rect><rect x="150" y="124.01234567901236" width="272.98819517775104" height="12.510288065843621" fill="#ed7d31"></rect><rect x="150" y="137.18106995884773" width="138.62585350211717" height="12.510288065843621" fill="#a5a5a5"></rect><rect x="150" y="150.34979423868313" width="14.584421561271274" height="12.510288065843621" fill="#ffc000"></rect><text class="label" x="356.96092666851774" y="119.34362139917695" font-size="10px">13.61x</text><text class="label" x="431.48819517775104" y="132.51234567901236" font-size="10px">18.72x</text><text class="label" x="297.12585350211714" y="145.68106995884773" font-size="10px">9.51x</text><text class="label" x="173.08442156127128" y="158.84979423868313" font-size="10px">1x</text><text class="label" x="353.46092666851774" y="120.84362139917695" font-size="8px"></text><text class="label" x="427.98819517775104" y="134.01234567901236" font-size="8px"></text><text class="label" x="293.62585350211714" y="147.18106995884773" font-size="8px"></text><text class="label" x="169.58442156127128" y="160.34979423868313" font-size="8px"></text></g><g style="font-size: 13px;"><rect x="150" y="170.10288065843622" width="244.64290423820637" height="12.510288065843621" fill="#4472c4"></rect><rect x="150" y="183.2716049382716" width="170.35374161314974" height="12.510288065843621" fill="#ed7d31"></rect><rect x="150" y="196.440329218107" width="169.40252207200643" height="12.510288065843621" fill="#a5a5a5"></rect><rect x="150" y="209.6090534979424" width="14.584421561271274" height="12.510288065843621" fill="#ffc000"></rect><text class="label" x="403.14290423820637" y="178.60288065843622" font-size="10px">16.77x</text><text class="label" x="328.85374161314974" y="191.7716049382716" font-size="10px">11.68x</text><text class="label" x="327.90252207200643" y="204.940329218107" font-size="10px">11.62x</text><text class="label" x="173.08442156127128" y="218.1090534979424" font-size="10px">1x</text><text class="label" x="399.64290423820637" y="180.10288065843622" font-size="8px"></text><text class="label" x="325.35374161314974" y="193.2716049382716" font-size="8px"></text><text class="label" x="324.40252207200643" y="206.440329218107" font-size="8px"></text><text class="label" x="169.58442156127128" y="219.6090534979424" font-size="8px"></text></g><g style="font-size: 13px;"><rect x="150" y="229.36213991769546" width="440.9090909090909" height="12.510288065843621" fill="#4472c4"></rect><rect x="150" y="242.53086419753086" width="284.6378818645942" height="12.510288065843621" fill="#ed7d31"></rect><rect x="150" y="255.69958847736626" width="285.963088745074" height="12.510288065843621" fill="#a5a5a5"></rect><rect x="150" y="268.86831275720164" width="14.584421561271274" height="12.510288065843621" fill="#ffc000"></rect><text class="label" x="599.4090909090909" y="237.86213991769546" font-size="10px">30.23x</text><text class="label" x="443.1378818645942" y="251.03086419753086" font-size="10px">19.52x</text><text class="label" x="444.463088745074" y="264.19958847736626" font-size="10px">19.61x</text><text class="label" x="173.08442156127128" y="277.36831275720164" font-size="10px">1x</text><text class="label" x="595.9090909090909" y="239.36213991769546" font-size="8px"></text><text class="label" x="439.6378818645942" y="252.53086419753086" font-size="8px"></text><text class="label" x="440.963088745074" y="265.69958847736626" font-size="8px"></text><text class="label" x="169.58442156127128" y="278.86831275720164" font-size="8px"></text></g><g style="font-size: 13px;"><rect x="150" y="288.6213991769547" width="208.43199804277756" height="12.510288065843621" fill="#4472c4"></rect><rect x="150" y="301.7901234567901" width="213.24488498784015" height="12.510288065843621" fill="#ed7d31"></rect><rect x="150" y="314.9588477366255" width="194.20627400202594" height="12.510288065843621" fill="#a5a5a5"></rect><rect x="150" y="328.12757201646093" width="14.584421561271274" height="12.510288065843621" fill="#ffc000"></rect><text class="label" x="366.93199804277754" y="297.1213991769547" font-size="10px">14.29x</text><text class="label" x="371.7448849878401" y="310.2901234567901" font-size="10px">14.62x</text><text class="label" x="352.7062740020259" y="323.4588477366255" font-size="10px">13.32x</text><text class="label" x="173.08442156127128" y="336.62757201646093" font-size="10px">1x</text><text class="label" x="363.43199804277754" y="298.6213991769547" font-size="8px"></text><text class="label" x="368.2448849878401" y="311.7901234567901" font-size="8px"></text><text class="label" x="349.2062740020259" y="324.9588477366255" font-size="8px"></text><text class="label" x="169.58442156127128" y="338.12757201646093" font-size="8px"></text></g><g style="font-size: 13px;"><rect x="150" y="347.880658436214" width="332.8962770476546" height="12.510288065843621" fill="#4472c4"></rect><rect x="150" y="361.04938271604937" width="157.1604708311684" height="12.510288065843621" fill="#ed7d31"></rect><rect x="150" y="374.2181069958848" width="219.00781769009959" height="12.510288065843621" fill="#a5a5a5"></rect><rect x="150" y="387.38683127572017" width="14.584421561271274" height="12.510288065843621" fill="#ffc000"></rect><text class="label" x="491.3962770476546" y="356.380658436214" font-size="10px">22.83x</text><text class="label" x="315.66047083116837" y="369.54938271604937" font-size="10px">10.78x</text><text class="label" x="377.5078176900996" y="382.7181069958848" font-size="10px">15.02x</text><text class="label" x="173.08442156127128" y="395.88683127572017" font-size="10px">1x</text><text class="label" x="487.8962770476546" y="357.880658436214" font-size="8px"></text><text class="label" x="312.16047083116837" y="371.04938271604937" font-size="8px"></text><text class="label" x="374.0078176900996" y="384.2181069958848" font-size="8px"></text><text class="label" x="169.58442156127128" y="397.38683127572017" font-size="8px"></text></g><g style="font-size: 13px;"><rect x="150" y="407.13991769547323" width="260.001165820091" height="12.510288065843621" fill="#4472c4"></rect><rect x="150" y="420.3086419753086" width="184.31584098706838" height="12.510288065843621" fill="#ed7d31"></rect><rect x="150" y="433.47736625514403" width="185.15715979072436" height="12.510288065843621" fill="#a5a5a5"></rect><rect x="150" y="446.6460905349794" width="14.584421561271274" height="12.510288065843621" fill="#ffc000"></rect><text class="label" x="418.501165820091" y="415.63991769547323" font-size="10px">17.83x</text><text class="label" x="342.8158409870684" y="428.8086419753086" font-size="10px">12.64x</text><text class="label" x="343.65715979072434" y="441.97736625514403" font-size="10px">12.7x</text><text class="label" x="173.08442156127128" y="455.1460905349794" font-size="10px">1x</text><text class="label" x="415.001165820091" y="417.13991769547323" font-size="8px"></text><text class="label" x="339.3158409870684" y="430.3086419753086" font-size="8px"></text><text class="label" x="340.15715979072434" y="443.47736625514403" font-size="8px"></text><text class="label" x="169.58442156127128" y="456.6460905349794" font-size="8px"></text></g><g style="font-size: 13px;"><rect x="150" y="466.3991769547325" width="252.1975692549676" height="12.510288065843621" fill="#4472c4"></rect><rect x="150" y="479.5679012345679" width="222.99450238597333" height="12.510288065843621" fill="#ed7d31"></rect><rect x="150" y="492.73662551440333" width="235.64136287444845" height="12.510288065843621" fill="#a5a5a5"></rect><rect x="150" y="505.9053497942387" width="14.584421561271274" height="12.510288065843621" fill="#ffc000"></rect><text class="label" x="410.69756925496756" y="474.8991769547325" font-size="10px">17.29x</text><text class="label" x="381.4945023859733" y="488.0679012345679" font-size="10px">15.29x</text><text class="label" x="394.1413628744484" y="501.23662551440333" font-size="10px">16.16x</text><text class="label" x="173.08442156127128" y="514.4053497942386" font-size="10px">1x</text><text class="label" x="407.19756925496756" y="476.3991769547325" font-size="8px"></text><text class="label" x="377.9945023859733" y="489.5679012345679" font-size="8px"></text><text class="label" x="390.6413628744484" y="502.73662551440333" font-size="8px"></text><text class="label" x="169.58442156127128" y="515.9053497942386" font-size="8px"></text></g></g></svg>