<svg xmlns="http://www.w3.org/2000/svg" xmlns:xlink="http://www.w3.org/1999/xlink" width="800" height="794" style="background-color: white;"><g class="y axis" transform="translate(149,45)" fill="none" font-size="10" font-family="sans-serif" text-anchor="end" style="font-size: 13px;"><path class="domain" stroke="currentColor" d="M0.5,0.5V600.5"></path><g class="tick" opacity="1" transform="translate(0,40.740740740740726)" style="font-size: 13px;"><line stroke="currentColor" x2="0"></line><text fill="currentColor" x="-3" dy="0.32em">object (simple)    </text></g><g class="tick" opacity="1" transform="translate(0,114.81481481481481)" style="font-size: 13px;"><line stroke="currentColor" x2="0"></line><text fill="currentColor" x="-3" dy="0.32em">object (hierarchical)    </text></g><g class="tick" opacity="1" transform="translate(0,188.88888888888889)" style="font-size: 13px;"><line stroke="currentColor" x2="0"></line><text fill="currentColor" x="-3" dy="0.32em">object (recursive)    </text></g><g class="tick" opacity="1" transform="translate(0,262.96296296296293)" style="font-size: 13px;"><line stroke="currentColor" x2="0"></line><text fill="currentColor" x="-3" dy="0.32em">object (union, explicit)    </text></g><g class="tick" opacity="1" transform="translate(0,337.037037037037)" style="font-size: 13px;"><line stroke="currentColor" x2="0"></line><text fill="currentColor" x="-3" dy="0.32em">array (simple)    </text></g><g class="tick" opacity="1" transform="translate(0,411.1111111111111)" style="font-size: 13px;"><line stroke="currentColor" x2="0"></line><text fill="currentColor" x="-3" dy="0.32em">array (hierarchical)    </text></g><g class="tick" opacity="1" transform="translate(0,485.18518518518516)" style="font-size: 13px;"><line stroke="currentColor" x2="0"></line><text fill="currentColor" x="-3" dy="0.32em">array (recursive)    </text></g><g class="tick" opacity="1" transform="translate(0,559.2592592592592)" style="font-size: 13px;"><line stroke="currentColor" x2="0"></line><text fill="currentColor" x="-3" dy="0.32em">array (union, explicit)    </text></g></g><g class="x axis" transform="translate(149,645)" fill="none" font-size="10" font-family="sans-serif" text-anchor="middle" style="font-size: 13px;"><path class="domain" stroke="currentColor" d="M0.5,0.5H485.5"></path><g class="tick" opacity="1" transform="translate(0.5,0)" style="font-size: 13px;"><line stroke="currentColor" y2="6"></line><text fill="currentColor" y="9" dy="0.71em">0x</text></g><g class="tick" opacity="1" transform="translate(82.46563550214047,0)" style="font-size: 13px;"><line stroke="currentColor" y2="6"></line><text fill="currentColor" y="9" dy="0.71em">5,000x</text></g><g class="tick" opacity="1" transform="translate(164.43127100428094,0)" style="font-size: 13px;"><line stroke="currentColor" y2="6"></line><text fill="currentColor" y="9" dy="0.71em">10,000x</text></g><g class="tick" opacity="1" transform="translate(246.39690650642143,0)" style="font-size: 13px;"><line stroke="currentColor" y2="6"></line><text fill="currentColor" y="9" dy="0.71em">15,000x</text></g><g class="tick" opacity="1" transform="translate(328.3625420085619,0)" style="font-size: 13px;"><line stroke="currentColor" y2="6"></line><text fill="currentColor" y="9" dy="0.71em">20,000x</text></g><g class="tick" opacity="1" transform="translate(410.32817751070235,0)" style="font-size: 13px;"><line stroke="currentColor" y2="6"></line><text fill="currentColor" y="9" dy="0.71em">25,000x</text></g></g><text transform="translate(400, 30)" style="text-anchor: middle; font-size: 20px; font-weight: bold;">server-performance benchmark</text><rect x="650" y="145" width="230" height="5" fill="gray"></rect><rect x="645" y="35" width="230" height="110" fill="none" stroke="black"></rect><rect x="655" y="45" width="10" height="10" style="fill: #4472c4;"></rect><text x="670" y="55" style="font-size: 12px;">fastify-class-transformer</text><rect x="655" y="65" width="10" height="10" style="fill: #ed7d31;"></rect><text x="670" y="75" style="font-size: 12px;">fastify-pure</text><rect x="655" y="85" width="10" height="10" style="fill: #a5a5a5;"></rect><text x="670" y="95" style="font-size: 12px;">fastify-typia</text><rect x="655" y="105" width="10" height="10" style="fill: #ffc000;"></rect><text x="670" y="115" style="font-size: 12px;">express-typia</text><rect x="655" y="125" width="10" height="10" style="fill: #5b9bd5;"></rect><text x="670" y="135" style="font-size: 12px;">express-class-transformer</text><text x="20" y="709" style="font-size: 12px;">  - CPU: 11th Gen Intel(R) Core(TM) i5-1135G7 @ 2.40GHz</text><text x="20" y="726" style="font-size: 12px;">  - OS: win32</text><text x="20" y="743" style="font-size: 12px;">  - RAM: 16 GB</text><text x="20" y="760" style="font-size: 12px;">  - NodeJS version: v16.20.0</text><text x="20" y="777" style="font-size: 12px;">  - Typia version: v4.1.1</text><g style="font-size: 13px;"><g style="font-size: 13px;"><rect x="150" y="53.06747341400805" width="0.045173086785060816" height="12.541254125412543" fill="#4472c4"></rect><rect x="150" y="66.26879354602124" width="0.635974486451749" height="12.541254125412543" fill="#ed7d31"></rect><rect x="150" y="79.47011367803445" width="0.7408699416982705" height="12.541254125412543" fill="#a5a5a5"></rect><rect x="150" y="92.67143381004766" width="0.02574687242883025" height="12.541254125412543" fill="#ffc000"></rect><rect x="150" y="105.87275394206085" width="0.016393127100428093" height="12.541254125412543" fill="#5b9bd5"></rect><text class="label" x="158.54517308678507" y="61.56747341400805" font-size="10px">3x</text><text class="label" x="159.13597448645174" y="74.76879354602124" font-size="10px">39x</text><text class="label" x="159.24086994169826" y="87.97011367803445" font-size="10px">45x</text><text class="label" x="158.52574687242884" y="101.17143381004766" font-size="10px">2x</text><text class="label" x="158.51639312710043" y="114.37275394206085" font-size="10px">1x</text><text class="label" x="155.04517308678507" y="63.06747341400805" font-size="8px"></text><text class="label" x="155.63597448645174" y="76.26879354602124" font-size="8px"></text><text class="label" x="155.74086994169826" y="89.47011367803445" font-size="8px"></text><text class="label" x="155.02574687242884" y="102.67143381004766" font-size="8px"></text><text class="label" x="155.01639312710043" y="115.87275394206085" font-size="8px"></text></g><g style="font-size: 13px;"><rect x="150" y="127.14154748808213" width="0.10050091138696855" height="12.541254125412543" fill="#4472c4"></rect><rect x="150" y="140.34286762009532" width="1.1329875280574042" height="12.541254125412543" fill="#ed7d31"></rect><rect x="150" y="153.54418775210854" width="1.297679595811593" height="12.541254125412543" fill="#a5a5a5"></rect><rect x="150" y="166.74550788412174" width="0.026972312946532368" height="12.541254125412543" fill="#ffc000"></rect><rect x="150" y="179.94682801613493" width="0.016393127100428093" height="12.541254125412543" fill="#5b9bd5"></rect><text class="label" x="158.60050091138697" y="135.64154748808213" font-size="10px">6x</text><text class="label" x="159.6329875280574" y="148.84286762009532" font-size="10px">69x</text><text class="label" x="159.7976795958116" y="162.04418775210854" font-size="10px">79x</text><text class="label" x="158.52697231294653" y="175.24550788412174" font-size="10px">2x</text><text class="label" x="158.51639312710043" y="188.44682801613493" font-size="10px">1x</text><text class="label" x="155.10050091138697" y="137.14154748808213" font-size="8px"></text><text class="label" x="156.1329875280574" y="150.34286762009532" font-size="8px"></text><text class="label" x="156.2976795958116" y="163.54418775210854" font-size="8px"></text><text class="label" x="155.02697231294653" y="176.74550788412174" font-size="8px"></text><text class="label" x="155.01639312710043" y="189.94682801613493" font-size="8px"></text></g><g style="font-size: 13px;"><rect x="150" y="201.2156215621562" width="0.0925131727259797" height="12.541254125412543" fill="#4472c4"></rect><rect x="150" y="214.4169416941694" width="0.8770869654743627" height="12.541254125412543" fill="#ed7d31"></rect><rect x="150" y="227.61826182618262" width="1.3841370459523914" height="12.541254125412543" fill="#a5a5a5"></rect><rect x="150" y="240.8195819581958" width="0.025362801419665737" height="12.541254125412543" fill="#ffc000"></rect><rect x="150" y="254.020902090209" width="0.016393127100428093" height="12.541254125412543" fill="#5b9bd5"></rect><text class="label" x="158.59251317272597" y="209.7156215621562" font-size="10px">6x</text><text class="label" x="159.37708696547438" y="222.9169416941694" font-size="10px">54x</text><text class="label" x="159.8841370459524" y="236.11826182618262" font-size="10px">84x</text><text class="label" x="158.52536280141967" y="249.3195819581958" font-size="10px">2x</text><text class="label" x="158.51639312710043" y="262.520902090209" font-size="10px">1x</text><text class="label" x="155.09251317272597" y="211.2156215621562" font-size="8px"></text><text class="label" x="155.87708696547438" y="224.4169416941694" font-size="8px"></text><text class="label" x="156.3841370459524" y="237.61826182618262" font-size="8px"></text><text class="label" x="155.02536280141967" y="250.8195819581958" font-size="8px"></text><text class="label" x="155.01639312710043" y="264.020902090209" font-size="8px"></text></g><g style="font-size: 13px;"><rect x="150" y="275.28969563623025" width="0.016393127100428093" height="12.541254125412543" fill="#4472c4"></rect><rect x="150" y="288.49101576824347" width="58.68477361387229" height="12.541254125412543" fill="#ed7d31"></rect><rect x="150" y="301.6923359002567" width="104.40788518772361" height="12.541254125412543" fill="#a5a5a5"></rect><rect x="150" y="314.89365603226986" width="3.2453740157409103" height="12.541254125412543" fill="#ffc000"></rect><rect x="150" y="328.0949761642831" width="2.041578939543852" height="12.541254125412543" fill="#5b9bd5"></rect><text class="label" x="158.51639312710043" y="283.78969563623025" font-size="10px">1x</text><text class="label" x="217.1847736138723" y="296.99101576824347" font-size="10px">3,580x</text><text class="label" x="262.9078851877236" y="310.1923359002567" font-size="10px">6,369x</text><text class="label" x="161.7453740157409" y="323.39365603226986" font-size="10px">198x</text><text class="label" x="160.54157893954385" y="336.5949761642831" font-size="10px">125x</text><text class="label" x="155.01639312710043" y="285.28969563623025" font-size="8px"></text><text class="label" x="213.6847736138723" y="298.49101576824347" font-size="8px"></text><text class="label" x="259.4078851877236" y="311.6923359002567" font-size="8px"></text><text class="label" x="158.2453740157409" y="324.89365603226986" font-size="8px"></text><text class="label" x="157.04157893954385" y="338.0949761642831" font-size="8px"></text></g><g style="font-size: 13px;"><rect x="150" y="349.3637697103044" width="0.016393127100428093" height="12.541254125412543" fill="#4472c4"></rect><rect x="150" y="362.56508984231755" width="112.50421964705751" height="12.541254125412543" fill="#ed7d31"></rect><rect x="150" y="375.76640997433077" width="119.73142304073659" height="12.541254125412543" fill="#a5a5a5"></rect><rect x="150" y="388.967730106344" width="2.724218747118546" height="12.541254125412543" fill="#ffc000"></rect><rect x="150" y="402.16905023835716" width="1.300919426285174" height="12.541254125412543" fill="#5b9bd5"></rect><text class="label" x="158.51639312710043" y="357.8637697103044" font-size="10px">1x</text><text class="label" x="271.00421964705754" y="371.06508984231755" font-size="10px">6,863x</text><text class="label" x="278.23142304073656" y="384.26640997433077" font-size="10px">7,304x</text><text class="label" x="161.22421874711856" y="397.467730106344" font-size="10px">166x</text><text class="label" x="159.80091942628516" y="410.66905023835716" font-size="10px">79x</text><text class="label" x="155.01639312710043" y="359.3637697103044" font-size="8px"></text><text class="label" x="267.50421964705754" y="372.56508984231755" font-size="8px"></text><text class="label" x="274.73142304073656" y="385.76640997433077" font-size="8px"></text><text class="label" x="157.72421874711856" y="398.967730106344" font-size="8px"></text><text class="label" x="156.30091942628516" y="412.16905023835716" font-size="8px"></text></g><g style="font-size: 13px;"><rect x="150" y="423.4378437843784" width="0.01691271548793023" height="12.541254125412543" fill="#4472c4"></rect><rect x="150" y="436.6391639163916" width="0.03232002930097232" height="12.541254125412543" fill="#ed7d31"></rect><rect x="150" y="449.84048404840485" width="0.01835858562445841" height="12.541254125412543" fill="#a5a5a5"></rect><rect x="150" y="463.041804180418" width="0.02020314023307609" height="12.541254125412543" fill="#ffc000"></rect><rect x="150" y="476.24312431243123" width="0.016393127100428093" height="12.541254125412543" fill="#5b9bd5"></rect><text class="label" x="158.51691271548793" y="431.9378437843784" font-size="10px">1x</text><text class="label" x="158.53232002930096" y="445.1391639163916" font-size="10px">2x</text><text class="label" x="158.51835858562447" y="458.34048404840485" font-size="10px">1x</text><text class="label" x="158.52020314023306" y="471.541804180418" font-size="10px">1x</text><text class="label" x="158.51639312710043" y="484.74312431243123" font-size="10px">1x</text><text class="label" x="155.01691271548793" y="433.4378437843784" font-size="8px"></text><text class="label" x="155.03232002930096" y="446.6391639163916" font-size="8px"></text><text class="label" x="155.01835858562447" y="459.84048404840485" font-size="8px"></text><text class="label" x="155.02020314023306" y="473.041804180418" font-size="8px"></text><text class="label" x="155.01639312710043" y="486.24312431243123" font-size="8px"></text></g><g style="font-size: 13px;"><rect x="150" y="497.51191785845253" width="0.01685090289011174" height="12.541254125412543" fill="#4472c4"></rect><rect x="150" y="510.7132379904657" width="0.016393127100428093" height="12.541254125412543" fill="#ed7d31"></rect><rect x="150" y="523.9145581224789" width="0.01661093219693285" height="12.541254125412543" fill="#a5a5a5"></rect><rect x="150" y="537.1158782544921" width="0.0338318722547425" height="12.541254125412543" fill="#ffc000"></rect><rect x="150" y="550.3171983865053" width="0.025381476328233656" height="12.541254125412543" fill="#5b9bd5"></rect><text class="label" x="158.5168509028901" y="506.01191785845253" font-size="10px">1x</text><text class="label" x="158.51639312710043" y="519.2132379904657" font-size="10px">1x</text><text class="label" x="158.51661093219693" y="532.4145581224789" font-size="10px">1x</text><text class="label" x="158.53383187225475" y="545.6158782544921" font-size="10px">2x</text><text class="label" x="158.52538147632822" y="558.8171983865053" font-size="10px">2x</text><text class="label" x="155.0168509028901" y="507.51191785845253" font-size="8px"></text><text class="label" x="155.01639312710043" y="520.7132379904657" font-size="8px"></text><text class="label" x="155.01661093219693" y="533.9145581224789" font-size="8px"></text><text class="label" x="155.03383187225475" y="547.1158782544921" font-size="8px"></text><text class="label" x="155.02538147632822" y="560.3171983865053" font-size="8px"></text></g><g style="font-size: 13px;"><rect x="150" y="571.5859919325266" width="0.016393127100428093" height="12.541254125412543" fill="#4472c4"></rect><rect x="150" y="584.7873120645397" width="157.0066716244585" height="12.541254125412543" fill="#ed7d31"></rect><rect x="150" y="597.9886321965529" width="440.9090909090909" height="12.541254125412543" fill="#a5a5a5"></rect><rect x="150" y="611.1899523285662" width="4.599895940102087" height="12.541254125412543" fill="#ffc000"></rect><rect x="150" y="624.3912724605793" width="2.9941001367770035" height="12.541254125412543" fill="#5b9bd5"></rect><text class="label" x="158.51639312710043" y="580.0859919325266" font-size="10px">1x</text><text class="label" x="315.5066716244585" y="593.2873120645397" font-size="10px">9,578x</text><text class="label" x="599.4090909090909" y="606.4886321965529" font-size="10px">26,896x</text><text class="label" x="163.0998959401021" y="619.6899523285662" font-size="10px">281x</text><text class="label" x="161.494100136777" y="632.8912724605793" font-size="10px">183x</text><text class="label" x="155.01639312710043" y="581.5859919325266" font-size="8px"></text><text class="label" x="312.0066716244585" y="594.7873120645397" font-size="8px"></text><text class="label" x="595.9090909090909" y="607.9886321965529" font-size="8px"></text><text class="label" x="159.5998959401021" y="621.1899523285662" font-size="8px"></text><text class="label" x="157.994100136777" y="634.3912724605793" font-size="8px"></text></g></g></svg>