<svg xmlns="http://www.w3.org/2000/svg" xmlns:xlink="http://www.w3.org/1999/xlink" width="800" height="914" style="background-color: white;"><g class="y axis" transform="translate(149,45)" fill="none" font-size="10" font-family="sans-serif" text-anchor="end" style="font-size: 13px;"><path class="domain" stroke="currentColor" d="M0.5,0.5V720.5"></path><g class="tick" opacity="1" transform="translate(0,48.88888888888886)" style="font-size: 13px;"><line stroke="currentColor" x2="0"></line><text fill="currentColor" x="-3" dy="0.32em">object (simple)    </text></g><g class="tick" opacity="1" transform="translate(0,137.77777777777774)" style="font-size: 13px;"><line stroke="currentColor" x2="0"></line><text fill="currentColor" x="-3" dy="0.32em">object (hierarchical)    </text></g><g class="tick" opacity="1" transform="translate(0,226.66666666666663)" style="font-size: 13px;"><line stroke="currentColor" x2="0"></line><text fill="currentColor" x="-3" dy="0.32em">object (recursive)    </text></g><g class="tick" opacity="1" transform="translate(0,315.5555555555555)" style="font-size: 13px;"><line stroke="currentColor" x2="0"></line><text fill="currentColor" x="-3" dy="0.32em">object (union, explicit)    </text></g><g class="tick" opacity="1" transform="translate(0,404.4444444444444)" style="font-size: 13px;"><line stroke="currentColor" x2="0"></line><text fill="currentColor" x="-3" dy="0.32em">array (simple)    </text></g><g class="tick" opacity="1" transform="translate(0,493.3333333333333)" style="font-size: 13px;"><line stroke="currentColor" x2="0"></line><text fill="currentColor" x="-3" dy="0.32em">array (hierarchical)    </text></g><g class="tick" opacity="1" transform="translate(0,582.2222222222222)" style="font-size: 13px;"><line stroke="currentColor" x2="0"></line><text fill="currentColor" x="-3" dy="0.32em">array (recursive)    </text></g><g class="tick" opacity="1" transform="translate(0,671.1111111111111)" style="font-size: 13px;"><line stroke="currentColor" x2="0"></line><text fill="currentColor" x="-3" dy="0.32em">array (union, explicit)    </text></g></g><g class="x axis" transform="translate(149,765)" fill="none" font-size="10" font-family="sans-serif" text-anchor="middle" style="font-size: 13px;"><path class="domain" stroke="currentColor" d="M0.5,0.5H485.5"></path><g class="tick" opacity="1" transform="translate(0.5,0)" style="font-size: 13px;"><line stroke="currentColor" y2="6"></line><text fill="currentColor" y="9" dy="0.71em">0x</text></g><g class="tick" opacity="1" transform="translate(103.82156453613996,0)" style="font-size: 13px;"><line stroke="currentColor" y2="6"></line><text fill="currentColor" y="9" dy="0.71em">50x</text></g><g class="tick" opacity="1" transform="translate(207.14312907227992,0)" style="font-size: 13px;"><line stroke="currentColor" y2="6"></line><text fill="currentColor" y="9" dy="0.71em">100x</text></g><g class="tick" opacity="1" transform="translate(310.46469360841985,0)" style="font-size: 13px;"><line stroke="currentColor" y2="6"></line><text fill="currentColor" y="9" dy="0.71em">150x</text></g><g class="tick" opacity="1" transform="translate(413.78625814455984,0)" style="font-size: 13px;"><line stroke="currentColor" y2="6"></line><text fill="currentColor" y="9" dy="0.71em">200x</text></g></g><text transform="translate(400, 30)" style="text-anchor: middle; font-size: 20px; font-weight: bold;">stringify benchmark</text><rect x="650" y="165" width="230" height="5" fill="gray"></rect><rect x="645" y="35" width="230" height="130" fill="none" stroke="black"></rect><rect x="655" y="45" width="10" height="10" style="fill: #4472c4;"></rect><text x="670" y="55" style="font-size: 12px;">typia.stringify</text><rect x="655" y="65" width="10" height="10" style="fill: #ed7d31;"></rect><text x="670" y="75" style="font-size: 12px;">typia.isStringify</text><rect x="655" y="85" width="10" height="10" style="fill: #a5a5a5;"></rect><text x="670" y="95" style="font-size: 12px;">typia.assertStringify</text><rect x="655" y="105" width="10" height="10" style="fill: #ffc000;"></rect><text x="670" y="115" style="font-size: 12px;">fast-json-stringify</text><rect x="655" y="125" width="10" height="10" style="fill: #5b9bd5;"></rect><text x="670" y="135" style="font-size: 12px;">JSON.stringify</text><rect x="655" y="145" width="10" height="10" style="fill: #70ad47;"></rect><text x="670" y="155" style="font-size: 12px;">class-transformer</text><text x="20" y="829" style="font-size: 12px;">  - CPU: 11th Gen Intel(R) Core(TM) i5-1135G7 @ 2.40GHz</text><text x="20" y="846" style="font-size: 12px;">  - OS: win32</text><text x="20" y="863" style="font-size: 12px;">  - RAM: 16 GB</text><text x="20" y="880" style="font-size: 12px;">  - NodeJS version: v16.20.0</text><text x="20" y="897" style="font-size: 12px;">  - Typia version: v3.7.3</text><g style="font-size: 13px;"><g style="font-size: 13px;"><rect x="150" y="54.55004591368224" width="440.9090909090908" height="12.56198347107438" fill="#4472c4"></rect><rect x="150" y="67.77318640955001" width="330.5573527757123" height="12.56198347107438" fill="#ed7d31"></rect><rect x="150" y="80.99632690541777" width="273.0233326193503" height="12.56198347107438" fill="#a5a5a5"></rect><rect x="150" y="94.21946740128556" width="145.3756524789485" height="12.56198347107438" fill="#ffc000"></rect><rect x="150" y="107.44260789715332" width="30.636237369077907" height="12.56198347107438" fill="#5b9bd5"></rect><rect x="150" y="120.66574839302109" width="2.0664312907227993" height="12.56198347107438" fill="#70ad47"></rect><text class="label" x="599.4090909090908" y="63.05004591368224" font-size="10px">213x</text><text class="label" x="489.0573527757123" y="76.27318640955001" font-size="10px">160x</text><text class="label" x="431.5233326193503" y="89.49632690541777" font-size="10px">132x</text><text class="label" x="303.8756524789485" y="102.71946740128556" font-size="10px">70x</text><text class="label" x="189.13623736907792" y="115.94260789715332" font-size="10px">15x</text><text class="label" x="160.5664312907228" y="129.1657483930211" font-size="10px">1x</text><text class="label" x="595.9090909090908" y="64.55004591368224" font-size="8px"></text><text class="label" x="485.5573527757123" y="77.77318640955001" font-size="8px"></text><text class="label" x="428.0233326193503" y="90.99632690541777" font-size="8px"></text><text class="label" x="300.3756524789485" y="104.21946740128556" font-size="8px"></text><text class="label" x="185.63623736907792" y="117.44260789715332" font-size="8px"></text><text class="label" x="157.0664312907228" y="130.6657483930211" font-size="8px"></text></g><g style="font-size: 13px;"><rect x="150" y="143.4389348025711" width="90.7816477558377" height="12.56198347107438" fill="#4472c4"></rect><rect x="150" y="156.66207529843888" width="88.17479768436355" height="12.56198347107438" fill="#ed7d31"></rect><rect x="150" y="169.88521579430665" width="86.74380729797468" height="12.56198347107438" fill="#a5a5a5"></rect><rect x="150" y="183.10835629017444" width="103.2046560095514" height="12.56198347107438" fill="#ffc000"></rect><rect x="150" y="196.3314967860422" width="24.139195858932627" height="12.56198347107438" fill="#5b9bd5"></rect><rect x="150" y="209.55463728190998" width="2.0664312907227993" height="12.56198347107438" fill="#70ad47"></rect><text class="label" x="249.2816477558377" y="151.9389348025711" font-size="10px">44x</text><text class="label" x="246.67479768436357" y="165.16207529843888" font-size="10px">43x</text><text class="label" x="245.24380729797468" y="178.38521579430665" font-size="10px">42x</text><text class="label" x="261.7046560095514" y="191.60835629017444" font-size="10px">50x</text><text class="label" x="182.63919585893262" y="204.8314967860422" font-size="10px">12x</text><text class="label" x="160.5664312907228" y="218.05463728190998" font-size="10px">1x</text><text class="label" x="245.7816477558377" y="153.4389348025711" font-size="8px"></text><text class="label" x="243.17479768436357" y="166.66207529843888" font-size="8px"></text><text class="label" x="241.74380729797468" y="179.88521579430665" font-size="8px"></text><text class="label" x="258.2046560095514" y="193.10835629017444" font-size="8px"></text><text class="label" x="179.13919585893262" y="206.3314967860422" font-size="8px"></text><text class="label" x="157.0664312907228" y="219.55463728190998" font-size="8px"></text></g><g style="font-size: 13px;"><rect x="150" y="232.32782369146003" width="151.8420586892989" height="12.56198347107438" fill="#4472c4"></rect><rect x="150" y="245.5509641873278" width="143.6558576351358" height="12.56198347107438" fill="#ed7d31"></rect><rect x="150" y="258.77410468319556" width="139.4281036784742" height="12.56198347107438" fill="#a5a5a5"></rect><rect x="150" y="271.9972451790633" width="30.987155619844998" height="12.56198347107438" fill="#ffc000"></rect><rect x="150" y="285.2203856749311" width="30.859417233186495" height="12.56198347107438" fill="#5b9bd5"></rect><rect x="150" y="298.44352617079886" width="2.0664312907227993" height="12.56198347107438" fill="#70ad47"></rect><text class="label" x="310.34205868929894" y="240.82782369146003" font-size="10px">73x</text><text class="label" x="302.1558576351358" y="254.0509641873278" font-size="10px">70x</text><text class="label" x="297.9281036784742" y="267.27410468319556" font-size="10px">67x</text><text class="label" x="189.487155619845" y="280.4972451790633" font-size="10px">15x</text><text class="label" x="189.3594172331865" y="293.7203856749311" font-size="10px">15x</text><text class="label" x="160.5664312907228" y="306.94352617079886" font-size="10px">1x</text><text class="label" x="306.84205868929894" y="242.32782369146003" font-size="8px"></text><text class="label" x="298.6558576351358" y="255.5509641873278" font-size="8px"></text><text class="label" x="294.4281036784742" y="268.77410468319556" font-size="8px"></text><text class="label" x="185.987155619845" y="281.9972451790633" font-size="8px"></text><text class="label" x="185.8594172331865" y="295.2203856749311" font-size="8px"></text><text class="label" x="157.0664312907228" y="308.44352617079886" font-size="8px"></text></g><g style="font-size: 13px;"><rect x="150" y="321.2167125803489" width="109.92359250754524" height="12.56198347107438" fill="#4472c4"></rect><rect x="150" y="334.43985307621665" width="94.6462186947776" height="12.56198347107438" fill="#ed7d31"></rect><rect x="150" y="347.6629935720844" width="94.1840190587006" height="12.56198347107438" fill="#a5a5a5"></rect><rect x="150" y="360.8861340679522" width="69.97959770178097" height="12.56198347107438" fill="#ffc000"></rect><rect x="150" y="374.10927456381995" width="48.34151419951736" height="12.56198347107438" fill="#5b9bd5"></rect><rect x="150" y="387.3324150596877" width="2.0664312907227993" height="12.56198347107438" fill="#70ad47"></rect><text class="label" x="268.4235925075452" y="329.7167125803489" font-size="10px">53x</text><text class="label" x="253.1462186947776" y="342.93985307621665" font-size="10px">46x</text><text class="label" x="252.68401905870058" y="356.1629935720844" font-size="10px">46x</text><text class="label" x="228.47959770178096" y="369.3861340679522" font-size="10px">34x</text><text class="label" x="206.84151419951735" y="382.60927456381995" font-size="10px">23x</text><text class="label" x="160.5664312907228" y="395.8324150596877" font-size="10px">1x</text><text class="label" x="264.9235925075452" y="331.2167125803489" font-size="8px"></text><text class="label" x="249.6462186947776" y="344.43985307621665" font-size="8px"></text><text class="label" x="249.18401905870058" y="357.6629935720844" font-size="8px"></text><text class="label" x="224.97959770178096" y="370.8861340679522" font-size="8px"></text><text class="label" x="203.34151419951735" y="384.10927456381995" font-size="8px"></text><text class="label" x="157.0664312907228" y="397.3324150596877" font-size="8px"></text></g><g style="font-size: 13px;"><rect x="150" y="410.1056014692378" width="54.90631600075825" height="12.56198347107438" fill="#4472c4"></rect><rect x="150" y="423.32874196510556" width="51.10544023933989" height="12.56198347107438" fill="#ed7d31"></rect><rect x="150" y="436.55188246097333" width="50.72501764851965" height="12.56198347107438" fill="#a5a5a5"></rect><rect x="150" y="449.7750229568411" width="81.81294634202402" height="12.56198347107438" fill="#ffc000"></rect><rect x="150" y="462.99816345270887" width="30.866276535921667" height="12.56198347107438" fill="#5b9bd5"></rect><rect x="150" y="476.22130394857663" width="2.0664312907227993" height="12.56198347107438" fill="#70ad47"></rect><text class="label" x="213.40631600075824" y="418.6056014692378" font-size="10px">27x</text><text class="label" x="209.60544023933988" y="431.82874196510556" font-size="10px">25x</text><text class="label" x="209.22501764851967" y="445.05188246097333" font-size="10px">25x</text><text class="label" x="240.31294634202402" y="458.2750229568411" font-size="10px">40x</text><text class="label" x="189.36627653592166" y="471.49816345270887" font-size="10px">15x</text><text class="label" x="160.5664312907228" y="484.72130394857663" font-size="10px">1x</text><text class="label" x="209.90631600075824" y="420.1056014692378" font-size="8px"></text><text class="label" x="206.10544023933988" y="433.32874196510556" font-size="8px"></text><text class="label" x="205.72501764851967" y="446.55188246097333" font-size="8px"></text><text class="label" x="236.81294634202402" y="459.7750229568411" font-size="8px"></text><text class="label" x="185.86627653592166" y="472.99816345270887" font-size="8px"></text><text class="label" x="157.0664312907228" y="486.22130394857663" font-size="8px"></text></g><g style="font-size: 13px;"><rect x="150" y="498.9944903581267" width="82.03208452651451" height="12.56198347107438" fill="#4472c4"></rect><rect x="150" y="512.2176308539945" width="81.00799405654463" height="12.56198347107438" fill="#ed7d31"></rect><rect x="150" y="525.4407713498622" width="79.98776255373838" height="12.56198347107438" fill="#a5a5a5"></rect><rect x="150" y="538.66391184573" width="106.66432547553192" height="12.56198347107438" fill="#ffc000"></rect><rect x="150" y="551.8870523415978" width="36.21653373078527" height="12.56198347107438" fill="#5b9bd5"></rect><rect x="150" y="565.1101928374655" width="2.0664312907227993" height="12.56198347107438" fill="#70ad47"></rect><text class="label" x="240.5320845265145" y="507.4944903581267" font-size="10px">40x</text><text class="label" x="239.50799405654465" y="520.7176308539945" font-size="10px">39x</text><text class="label" x="238.48776255373838" y="533.9407713498622" font-size="10px">39x</text><text class="label" x="265.16432547553194" y="547.16391184573" font-size="10px">52x</text><text class="label" x="194.71653373078527" y="560.3870523415978" font-size="10px">18x</text><text class="label" x="160.5664312907228" y="573.6101928374655" font-size="10px">1x</text><text class="label" x="237.0320845265145" y="508.9944903581267" font-size="8px"></text><text class="label" x="236.00799405654465" y="522.2176308539945" font-size="8px"></text><text class="label" x="234.98776255373838" y="535.4407713498622" font-size="8px"></text><text class="label" x="261.66432547553194" y="548.66391184573" font-size="8px"></text><text class="label" x="191.21653373078527" y="561.8870523415978" font-size="8px"></text><text class="label" x="157.0664312907228" y="575.1101928374655" font-size="8px"></text></g><g style="font-size: 13px;"><rect x="150" y="587.8833792470156" width="71.65928960570298" height="12.56198347107438" fill="#4472c4"></rect><rect x="150" y="601.1065197428833" width="69.18814382497273" height="12.56198347107438" fill="#ed7d31"></rect><rect x="150" y="614.3296602387511" width="69.17680621141028" height="12.56198347107438" fill="#a5a5a5"></rect><rect x="150" y="627.5528007346188" width="33.29697251400061" height="12.56198347107438" fill="#ffc000"></rect><rect x="150" y="640.7759412304866" width="30.701892381848154" height="12.56198347107438" fill="#5b9bd5"></rect><rect x="150" y="653.9990817263545" width="2.0664312907227993" height="12.56198347107438" fill="#70ad47"></rect><text class="label" x="230.15928960570298" y="596.3833792470156" font-size="10px">35x</text><text class="label" x="227.6881438249727" y="609.6065197428833" font-size="10px">33x</text><text class="label" x="227.67680621141028" y="622.8296602387511" font-size="10px">33x</text><text class="label" x="191.7969725140006" y="636.0528007346188" font-size="10px">16x</text><text class="label" x="189.20189238184815" y="649.2759412304866" font-size="10px">15x</text><text class="label" x="160.5664312907228" y="662.4990817263545" font-size="10px">1x</text><text class="label" x="226.65928960570298" y="597.8833792470156" font-size="8px"></text><text class="label" x="224.1881438249727" y="611.1065197428833" font-size="8px"></text><text class="label" x="224.17680621141028" y="624.3296602387511" font-size="8px"></text><text class="label" x="188.2969725140006" y="637.5528007346188" font-size="8px"></text><text class="label" x="185.70189238184815" y="650.7759412304866" font-size="8px"></text><text class="label" x="157.0664312907228" y="663.9990817263545" font-size="8px"></text></g><g style="font-size: 13px;"><rect x="150" y="676.7722681359045" width="63.021927618428855" height="12.56198347107438" fill="#4472c4"></rect><rect x="150" y="689.9954086317722" width="55.90791885370125" height="12.56198347107438" fill="#ed7d31"></rect><rect x="150" y="703.21854912764" width="59.615864007624275" height="12.56198347107438" fill="#a5a5a5"></rect><rect x="150" y="716.4416896235077" width="40.88888125150943" height="12.56198347107438" fill="#ffc000"></rect><rect x="150" y="729.6648301193756" width="46.00241153675583" height="12.56198347107438" fill="#5b9bd5"></rect><rect x="150" y="742.8879706152434" width="2.0664312907227993" height="12.56198347107438" fill="#70ad47"></rect><text class="label" x="221.52192761842886" y="685.2722681359045" font-size="10px">30x</text><text class="label" x="214.40791885370123" y="698.4954086317722" font-size="10px">27x</text><text class="label" x="218.11586400762428" y="711.71854912764" font-size="10px">29x</text><text class="label" x="199.38888125150942" y="724.9416896235077" font-size="10px">20x</text><text class="label" x="204.50241153675583" y="738.1648301193756" font-size="10px">22x</text><text class="label" x="160.5664312907228" y="751.3879706152434" font-size="10px">1x</text><text class="label" x="218.02192761842886" y="686.7722681359045" font-size="8px"></text><text class="label" x="210.90791885370123" y="699.9954086317722" font-size="8px"></text><text class="label" x="214.61586400762428" y="713.21854912764" font-size="8px"></text><text class="label" x="195.88888125150942" y="726.4416896235077" font-size="8px"></text><text class="label" x="201.00241153675583" y="739.6648301193756" font-size="8px"></text><text class="label" x="157.0664312907228" y="752.8879706152434" font-size="8px"></text></g></g></svg>