<svg xmlns="http://www.w3.org/2000/svg" xmlns:xlink="http://www.w3.org/1999/xlink" width="800" height="600" style="background-color: white;"><g class="y axis" transform="translate(149,45)" fill="none" font-size="10" font-family="sans-serif" text-anchor="end" style="font-size: 13px;"><path class="domain" stroke="#000" d="M0,0.5H0.5V525.5H0"></path><g class="tick" opacity="1" transform="translate(0,40.66901408450705)" style="font-size: 13px;"><line stroke="#000" x2="0"></line><text fill="#000" x="-3" dy="0.32em">object (simple)    </text></g><g class="tick" opacity="1" transform="translate(0,114.61267605633802)" style="font-size: 13px;"><line stroke="#000" x2="0"></line><text fill="#000" x="-3" dy="0.32em">object (hierarchical)    </text></g><g class="tick" opacity="1" transform="translate(0,188.556338028169)" style="font-size: 13px;"><line stroke="#000" x2="0"></line><text fill="#000" x="-3" dy="0.32em">object (recursive)    </text></g><g class="tick" opacity="1" transform="translate(0,262.5)" style="font-size: 13px;"><line stroke="#000" x2="0"></line><text fill="#000" x="-3" dy="0.32em">object (union)    </text></g><g class="tick" opacity="1" transform="translate(0,336.443661971831)" style="font-size: 13px;"><line stroke="#000" x2="0"></line><text fill="#000" x="-3" dy="0.32em">array (hierarchical)    </text></g><g class="tick" opacity="1" transform="translate(0,410.38732394366195)" style="font-size: 13px;"><line stroke="#000" x2="0"></line><text fill="#000" x="-3" dy="0.32em">array (recursive)    </text></g><g class="tick" opacity="1" transform="translate(0,484.33098591549293)" style="font-size: 13px;"><line stroke="#000" x2="0"></line><text fill="#000" x="-3" dy="0.32em">array (union)    </text></g></g><g class="x axis" transform="translate(149,570)" fill="none" font-size="10" font-family="sans-serif" text-anchor="middle" style="font-size: 13px;"><path class="domain" stroke="#000" d="M0.5,0V0.5H485.5V0"></path><g class="tick" opacity="1" transform="translate(0.5,0)" style="font-size: 13px;"><line stroke="#000" y2="6"></line><text fill="#000" y="9" dy="0.71em">0x</text></g><g class="tick" opacity="1" transform="translate(136.45012236213725,0)" style="font-size: 13px;"><line stroke="#000" y2="6"></line><text fill="#000" y="9" dy="0.71em">2x</text></g><g class="tick" opacity="1" transform="translate(272.4002447242745,0)" style="font-size: 13px;"><line stroke="#000" y2="6"></line><text fill="#000" y="9" dy="0.71em">4x</text></g><g class="tick" opacity="1" transform="translate(408.3503670864117,0)" style="font-size: 13px;"><line stroke="#000" y2="6"></line><text fill="#000" y="9" dy="0.71em">6x</text></g></g><text transform="translate(400, 30)" style="text-anchor: middle; font-size: 20px; font-weight: bold;">stringify benchmark</text><rect x="680" y="145" width="200" height="5" fill="gray"></rect><rect x="675" y="35" width="200" height="110" fill="none" stroke="black"></rect><rect x="685" y="45" width="10" height="10" style="fill: #4472c4;"></rect><text x="700" y="55" style="font-size: 12px;">TSON.stringify()</text><rect x="685" y="65" width="10" height="10" style="fill: #ed7d31;"></rect><text x="700" y="75" style="font-size: 12px;">TSON.assertStringify()</text><rect x="685" y="85" width="10" height="10" style="fill: #a5a5a5;"></rect><text x="700" y="95" style="font-size: 12px;">TSON.isStringify()</text><rect x="685" y="105" width="10" height="10" style="fill: #ffc000;"></rect><text x="700" y="115" style="font-size: 12px;">JSON.stringify()</text><rect x="685" y="125" width="10" height="10" style="fill: #5b9bd5;"></rect><text x="700" y="135" style="font-size: 12px;">fast-json-stringify</text><g style="font-size: 13px;"><g style="font-size: 13px;"><rect x="150" y="53.05327011574397" width="440.9090909090909" height="12.519174452656534" fill="#4472c4"></rect><rect x="150" y="66.23134848696137" width="361.6503562798625" height="12.519174452656534" fill="#ed7d31"></rect><rect x="150" y="79.40942685817878" width="382.2656489599239" height="12.519174452656534" fill="#a5a5a5"></rect><rect x="150" y="92.58750522939619" width="67.97506118106863" height="12.519174452656534" fill="#ffc000"></rect><rect x="150" y="105.76558360061358" width="303.6425294114698" height="12.519174452656534" fill="#5b9bd5"></rect><text class="label" x="599.4090909090909" y="61.55327011574397" font-size="10px">6.49x</text><text class="label" x="520.1503562798625" y="74.73134848696137" font-size="10px">5.32x</text><text class="label" x="540.765648959924" y="87.90942685817878" font-size="10px">5.62x</text><text class="label" x="226.4750611810686" y="101.08750522939619" font-size="10px">1x</text><text class="label" x="462.1425294114698" y="114.26558360061358" font-size="10px">4.47x</text><text class="label" x="595.9090909090909" y="63.05327011574397" font-size="8px"></text><text class="label" x="516.6503562798625" y="76.23134848696137" font-size="8px"></text><text class="label" x="537.265648959924" y="89.40942685817878" font-size="8px"></text><text class="label" x="222.9750611810686" y="102.58750522939619" font-size="8px"></text><text class="label" x="458.6425294114698" y="115.76558360061358" font-size="8px"></text></g><g style="font-size: 13px;"><rect x="150" y="126.99693208757495" width="229.14557055769234" height="12.519174452656534" fill="#4472c4"></rect><rect x="150" y="140.17501045879237" width="193.3900014889599" height="12.519174452656534" fill="#ed7d31"></rect><rect x="150" y="153.35308883000977" width="206.27804328148977" height="12.519174452656534" fill="#a5a5a5"></rect><rect x="150" y="166.53116720122716" width="67.97506118106863" height="12.519174452656534" fill="#ffc000"></rect><rect x="150" y="179.70924557244456" width="193.6249098266827" height="12.519174452656534" fill="#5b9bd5"></rect><text class="label" x="387.64557055769234" y="135.49693208757495" font-size="10px">3.37x</text><text class="label" x="351.8900014889599" y="148.67501045879237" font-size="10px">2.85x</text><text class="label" x="364.7780432814898" y="161.85308883000977" font-size="10px">3.03x</text><text class="label" x="226.4750611810686" y="175.03116720122716" font-size="10px">1x</text><text class="label" x="352.1249098266827" y="188.20924557244456" font-size="10px">2.85x</text><text class="label" x="384.14557055769234" y="136.99693208757495" font-size="8px"></text><text class="label" x="348.3900014889599" y="150.17501045879237" font-size="8px"></text><text class="label" x="361.2780432814898" y="163.35308883000977" font-size="8px"></text><text class="label" x="222.9750611810686" y="176.53116720122716" font-size="8px"></text><text class="label" x="348.6249098266827" y="189.70924557244456" font-size="8px"></text></g><g style="font-size: 13px;"><rect x="150" y="200.94059405940592" width="291.6710249681954" height="12.519174452656534" fill="#4472c4"></rect><rect x="150" y="214.11867243062332" width="279.40376408387914" height="12.519174452656534" fill="#ed7d31"></rect><rect x="150" y="227.29675080184074" width="286.8605941837104" height="12.519174452656534" fill="#a5a5a5"></rect><rect x="150" y="240.47482917305814" width="67.97506118106863" height="12.519174452656534" fill="#ffc000"></rect><rect x="150" y="253.65290754427554" width="70.01670497003542" height="12.519174452656534" fill="#5b9bd5"></rect><text class="label" x="450.1710249681954" y="209.44059405940592" font-size="10px">4.29x</text><text class="label" x="437.90376408387914" y="222.61867243062332" font-size="10px">4.11x</text><text class="label" x="445.3605941837104" y="235.79675080184074" font-size="10px">4.22x</text><text class="label" x="226.4750611810686" y="248.97482917305814" font-size="10px">1x</text><text class="label" x="228.51670497003542" y="262.15290754427554" font-size="10px">1.03x</text><text class="label" x="446.6710249681954" y="210.94059405940592" font-size="8px"></text><text class="label" x="434.40376408387914" y="224.11867243062332" font-size="8px"></text><text class="label" x="441.8605941837104" y="237.29675080184074" font-size="8px"></text><text class="label" x="222.9750611810686" y="250.47482917305814" font-size="8px"></text><text class="label" x="225.01670497003542" y="263.65290754427554" font-size="8px"></text></g><g style="font-size: 13px;"><rect x="150" y="274.8842560312369" width="145.58977395720797" height="12.519174452656534" fill="#4472c4"></rect><rect x="150" y="288.0623344024543" width="114.11864322643508" height="12.519174452656534" fill="#ed7d31"></rect><rect x="150" y="301.2404127736717" width="135.5331867874063" height="12.519174452656534" fill="#a5a5a5"></rect><rect x="150" y="314.4184911448891" width="67.97506118106863" height="12.519174452656534" fill="#ffc000"></rect><rect x="150" y="327.5965695161065" width="136.16451440408005" height="12.519174452656534" fill="#5b9bd5"></rect><text class="label" x="304.08977395720797" y="283.3842560312369" font-size="10px">2.14x</text><text class="label" x="272.6186432264351" y="296.5623344024543" font-size="10px">1.68x</text><text class="label" x="294.0331867874063" y="309.7404127736717" font-size="10px">1.99x</text><text class="label" x="226.4750611810686" y="322.9184911448891" font-size="10px">1x</text><text class="label" x="294.66451440408" y="336.0965695161065" font-size="10px">2x</text><text class="label" x="300.58977395720797" y="284.8842560312369" font-size="8px"></text><text class="label" x="269.1186432264351" y="298.0623344024543" font-size="8px"></text><text class="label" x="290.5331867874063" y="311.2404127736717" font-size="8px"></text><text class="label" x="222.9750611810686" y="324.4184911448891" font-size="8px"></text><text class="label" x="291.16451440408" y="337.5965695161065" font-size="8px"></text></g><g style="font-size: 13px;"><rect x="150" y="348.8279180030679" width="141.38623484522216" height="12.519174452656534" fill="#4472c4"></rect><rect x="150" y="362.0059963742853" width="124.67181689416932" height="12.519174452656534" fill="#ed7d31"></rect><rect x="150" y="375.1840747455027" width="140.8825094069617" height="12.519174452656534" fill="#a5a5a5"></rect><rect x="150" y="388.3621531167201" width="67.97506118106863" height="12.519174452656534" fill="#ffc000"></rect><rect x="150" y="401.5402314879375" width="192.05249083484858" height="12.519174452656534" fill="#5b9bd5"></rect><text class="label" x="299.88623484522213" y="357.3279180030679" font-size="10px">2.08x</text><text class="label" x="283.1718168941693" y="370.5059963742853" font-size="10px">1.83x</text><text class="label" x="299.38250940696173" y="383.6840747455027" font-size="10px">2.07x</text><text class="label" x="226.4750611810686" y="396.8621531167201" font-size="10px">1x</text><text class="label" x="350.5524908348486" y="410.0402314879375" font-size="10px">2.83x</text><text class="label" x="296.38623484522213" y="358.8279180030679" font-size="8px"></text><text class="label" x="279.6718168941693" y="372.0059963742853" font-size="8px"></text><text class="label" x="295.88250940696173" y="385.1840747455027" font-size="8px"></text><text class="label" x="222.9750611810686" y="398.3621531167201" font-size="8px"></text><text class="label" x="347.0524908348486" y="411.5402314879375" font-size="8px"></text></g><g style="font-size: 13px;"><rect x="150" y="422.7715799748988" width="142.1101234824756" height="12.519174452656534" fill="#4472c4"></rect><rect x="150" y="435.9496583461163" width="128.3904251446692" height="12.519174452656534" fill="#ed7d31"></rect><rect x="150" y="449.1277367173337" width="135.10463047256113" height="12.519174452656534" fill="#a5a5a5"></rect><rect x="150" y="462.30581508855107" width="67.97506118106863" height="12.519174452656534" fill="#ffc000"></rect><rect x="150" y="475.48389345976847" width="68.56906493047246" height="12.519174452656534" fill="#5b9bd5"></rect><text class="label" x="300.6101234824756" y="431.2715799748988" font-size="10px">2.09x</text><text class="label" x="286.89042514466917" y="444.4496583461163" font-size="10px">1.89x</text><text class="label" x="293.6046304725611" y="457.6277367173337" font-size="10px">1.99x</text><text class="label" x="226.4750611810686" y="470.80581508855107" font-size="10px">1x</text><text class="label" x="227.06906493047245" y="483.98389345976847" font-size="10px">1.01x</text><text class="label" x="297.1101234824756" y="432.7715799748988" font-size="8px"></text><text class="label" x="283.39042514466917" y="445.9496583461163" font-size="8px"></text><text class="label" x="290.1046304725611" y="459.1277367173337" font-size="8px"></text><text class="label" x="222.9750611810686" y="472.30581508855107" font-size="8px"></text><text class="label" x="223.56906493047245" y="485.48389345976847" font-size="8px"></text></g><g style="font-size: 13px;"><rect x="150" y="496.71524194672986" width="94.87589475255456" height="12.519174452656534" fill="#4472c4"></rect><rect x="150" y="509.89332031794726" width="76.37376123173308" height="12.519174452656534" fill="#ed7d31"></rect><rect x="150" y="523.0713986891647" width="82.81373139783494" height="12.519174452656534" fill="#a5a5a5"></rect><rect x="150" y="536.2494770603821" width="77.78435274956138" height="12.519174452656534" fill="#ffc000"></rect><rect x="150" y="549.4275554315994" width="67.97506118106863" height="12.519174452656534" fill="#5b9bd5"></rect><text class="label" x="253.37589475255456" y="505.21524194672986" font-size="10px">1.4x</text><text class="label" x="234.87376123173308" y="518.3933203179472" font-size="10px">1.12x</text><text class="label" x="241.31373139783494" y="531.5713986891647" font-size="10px">1.22x</text><text class="label" x="236.28435274956138" y="544.7494770603821" font-size="10px">1.14x</text><text class="label" x="226.4750611810686" y="557.9275554315994" font-size="10px">1x</text><text class="label" x="249.87589475255456" y="506.71524194672986" font-size="8px"></text><text class="label" x="231.37376123173308" y="519.8933203179472" font-size="8px"></text><text class="label" x="237.81373139783494" y="533.0713986891647" font-size="8px"></text><text class="label" x="232.78435274956138" y="546.2494770603821" font-size="8px"></text><text class="label" x="222.9750611810686" y="559.4275554315994" font-size="8px"></text></g></g></svg>