<svg xmlns="http://www.w3.org/2000/svg" xmlns:xlink="http://www.w3.org/1999/xlink" width="800" height="705" style="background-color: white;"><g class="y axis" transform="translate(149,45)" fill="none" font-size="10" font-family="sans-serif" text-anchor="end" style="font-size: 13px;"><path class="domain" stroke="currentColor" d="M0.5,0.5V630.5"></path><g class="tick" opacity="1" transform="translate(0,48.8028169014085)" style="font-size: 13px;"><line stroke="currentColor" x2="0"></line><text fill="currentColor" x="-3" dy="0.32em">object (simple)    </text></g><g class="tick" opacity="1" transform="translate(0,137.53521126760566)" style="font-size: 13px;"><line stroke="currentColor" x2="0"></line><text fill="currentColor" x="-3" dy="0.32em">object (hierarchical)    </text></g><g class="tick" opacity="1" transform="translate(0,226.26760563380284)" style="font-size: 13px;"><line stroke="currentColor" x2="0"></line><text fill="currentColor" x="-3" dy="0.32em">object (recursive)    </text></g><g class="tick" opacity="1" transform="translate(0,315)" style="font-size: 13px;"><line stroke="currentColor" x2="0"></line><text fill="currentColor" x="-3" dy="0.32em">object (union)    </text></g><g class="tick" opacity="1" transform="translate(0,403.7323943661972)" style="font-size: 13px;"><line stroke="currentColor" x2="0"></line><text fill="currentColor" x="-3" dy="0.32em">array (simple)    </text></g><g class="tick" opacity="1" transform="translate(0,492.46478873239437)" style="font-size: 13px;"><line stroke="currentColor" x2="0"></line><text fill="currentColor" x="-3" dy="0.32em">array (hierarchical)    </text></g><g class="tick" opacity="1" transform="translate(0,581.1971830985915)" style="font-size: 13px;"><line stroke="currentColor" x2="0"></line><text fill="currentColor" x="-3" dy="0.32em">array (union)    </text></g></g><g class="x axis" transform="translate(149,675)" fill="none" font-size="10" font-family="sans-serif" text-anchor="middle" style="font-size: 13px;"><path class="domain" stroke="currentColor" d="M0.5,0.5H485.5"></path><g class="tick" opacity="1" transform="translate(0.5,0)" style="font-size: 13px;"><line stroke="currentColor" y2="6"></line><text fill="currentColor" y="9" dy="0.71em">0x</text></g><g class="tick" opacity="1" transform="translate(75.20524584837085,0)" style="font-size: 13px;"><line stroke="currentColor" y2="6"></line><text fill="currentColor" y="9" dy="0.71em">5x</text></g><g class="tick" opacity="1" transform="translate(149.9104916967417,0)" style="font-size: 13px;"><line stroke="currentColor" y2="6"></line><text fill="currentColor" y="9" dy="0.71em">10x</text></g><g class="tick" opacity="1" transform="translate(224.6157375451125,0)" style="font-size: 13px;"><line stroke="currentColor" y2="6"></line><text fill="currentColor" y="9" dy="0.71em">15x</text></g><g class="tick" opacity="1" transform="translate(299.3209833934834,0)" style="font-size: 13px;"><line stroke="currentColor" y2="6"></line><text fill="currentColor" y="9" dy="0.71em">20x</text></g><g class="tick" opacity="1" transform="translate(374.0262292418542,0)" style="font-size: 13px;"><line stroke="currentColor" y2="6"></line><text fill="currentColor" y="9" dy="0.71em">25x</text></g><g class="tick" opacity="1" transform="translate(448.731475090225,0)" style="font-size: 13px;"><line stroke="currentColor" y2="6"></line><text fill="currentColor" y="9" dy="0.71em">30x</text></g></g><text transform="translate(400, 30)" style="text-anchor: middle; font-size: 20px; font-weight: bold;">stringify (server) benchmark</text><rect x="650" y="165" width="230" height="5" fill="gray"></rect><rect x="645" y="35" width="230" height="130" fill="none" stroke="black"></rect><rect x="655" y="45" width="10" height="10" style="fill: #4472c4;"></rect><text x="670" y="55" style="font-size: 12px;">express (pure)</text><rect x="655" y="65" width="10" height="10" style="fill: #ed7d31;"></rect><text x="670" y="75" style="font-size: 12px;">express (class-transformer)</text><rect x="655" y="85" width="10" height="10" style="fill: #a5a5a5;"></rect><text x="670" y="95" style="font-size: 12px;">express (typia.stringify)</text><rect x="655" y="105" width="10" height="10" style="fill: #ffc000;"></rect><text x="670" y="115" style="font-size: 12px;">express (typia.isStringify)</text><rect x="655" y="125" width="10" height="10" style="fill: #5b9bd5;"></rect><text x="670" y="135" style="font-size: 12px;">express (typia.assertStringify)</text><rect x="655" y="145" width="10" height="10" style="fill: #70ad47;"></rect><text x="670" y="155" style="font-size: 12px;">fastify</text><g style="font-size: 13px;"><g style="font-size: 13px;"><rect x="150" y="54.533232452566686" width="135.09526492187769" height="12.539867302991501" fill="#4472c4"></rect><rect x="150" y="67.73309277150511" width="14.941049169674168" height="12.539867302991501" fill="#ed7d31"></rect><rect x="150" y="80.93295309044353" width="193.7295430235266" height="12.539867302991501" fill="#a5a5a5"></rect><rect x="150" y="94.13281340938195" width="192.32419137045335" height="12.539867302991501" fill="#ffc000"></rect><rect x="150" y="107.33267372832037" width="173.13647761535415" height="12.539867302991501" fill="#5b9bd5"></rect><rect x="150" y="120.53253404725879" width="305.4444053251401" height="12.539867302991501" fill="#70ad47"></rect><text class="label" x="293.5952649218777" y="63.033232452566686" font-size="10px">9.04x</text><text class="label" x="173.44104916967416" y="76.23309277150511" font-size="10px">1x</text><text class="label" x="352.2295430235266" y="89.43295309044353" font-size="10px">12.97x</text><text class="label" x="350.8241913704534" y="102.63281340938195" font-size="10px">12.87x</text><text class="label" x="331.6364776153541" y="115.83267372832037" font-size="10px">11.59x</text><text class="label" x="463.9444053251401" y="129.0325340472588" font-size="10px">20.44x</text><text class="label" x="290.0952649218777" y="64.5332324525667" font-size="8px"></text><text class="label" x="169.94104916967416" y="77.73309277150511" font-size="8px"></text><text class="label" x="348.7295430235266" y="90.93295309044353" font-size="8px"></text><text class="label" x="347.3241913704534" y="104.13281340938195" font-size="8px"></text><text class="label" x="328.1364776153541" y="117.33267372832037" font-size="8px"></text><text class="label" x="460.4444053251401" y="130.5325340472588" font-size="8px"></text></g><g style="font-size: 13px;"><rect x="150" y="143.26562681876385" width="115.13380932733398" height="12.539867302991501" fill="#4472c4"></rect><rect x="150" y="156.46548713770227" width="14.941049169674168" height="12.539867302991501" fill="#ed7d31"></rect><rect x="150" y="169.6653474566407" width="139.8994673340412" height="12.539867302991501" fill="#a5a5a5"></rect><rect x="150" y="182.86520777557914" width="137.54418154537063" height="12.539867302991501" fill="#ffc000"></rect><rect x="150" y="196.06506809451756" width="136.05385490771818" height="12.539867302991501" fill="#5b9bd5"></rect><rect x="150" y="209.26492841345595" width="200.7438940606479" height="12.539867302991501" fill="#70ad47"></rect><text class="label" x="273.633809327334" y="151.76562681876385" font-size="10px">7.71x</text><text class="label" x="173.44104916967416" y="164.96548713770227" font-size="10px">1x</text><text class="label" x="298.3994673340412" y="178.1653474566407" font-size="10px">9.36x</text><text class="label" x="296.04418154537063" y="191.36520777557914" font-size="10px">9.21x</text><text class="label" x="294.5538549077182" y="204.56506809451756" font-size="10px">9.11x</text><text class="label" x="359.2438940606479" y="217.76492841345595" font-size="10px">13.44x</text><text class="label" x="270.133809327334" y="153.26562681876385" font-size="8px"></text><text class="label" x="169.94104916967416" y="166.46548713770227" font-size="8px"></text><text class="label" x="294.8994673340412" y="179.6653474566407" font-size="8px"></text><text class="label" x="292.54418154537063" y="192.86520777557914" font-size="8px"></text><text class="label" x="291.0538549077182" y="206.06506809451756" font-size="8px"></text><text class="label" x="355.7438940606479" y="219.26492841345595" font-size="8px"></text></g><g style="font-size: 13px;"><rect x="150" y="231.99802118496103" width="96.61973503583388" height="12.539867302991501" fill="#4472c4"></rect><rect x="150" y="245.19788150389945" width="14.941049169674168" height="12.539867302991501" fill="#ed7d31"></rect><rect x="150" y="258.3977418228379" width="115.11847264776694" height="12.539867302991501" fill="#a5a5a5"></rect><rect x="150" y="271.5976021417763" width="117.45417307803356" height="12.539867302991501" fill="#ffc000"></rect><rect x="150" y="284.7974624607147" width="110.96033880828433" height="12.539867302991501" fill="#5b9bd5"></rect><rect x="150" y="297.99732277965313" width="116.09354894228036" height="12.539867302991501" fill="#70ad47"></rect><text class="label" x="255.11973503583388" y="240.49802118496103" font-size="10px">6.47x</text><text class="label" x="173.44104916967416" y="253.69788150389945" font-size="10px">1x</text><text class="label" x="273.6184726477669" y="266.8977418228379" font-size="10px">7.7x</text><text class="label" x="275.9541730780336" y="280.0976021417763" font-size="10px">7.86x</text><text class="label" x="269.46033880828435" y="293.2974624607147" font-size="10px">7.43x</text><text class="label" x="274.59354894228034" y="306.49732277965313" font-size="10px">7.77x</text><text class="label" x="251.61973503583388" y="241.99802118496103" font-size="8px"></text><text class="label" x="169.94104916967416" y="255.19788150389945" font-size="8px"></text><text class="label" x="270.1184726477669" y="268.3977418228379" font-size="8px"></text><text class="label" x="272.4541730780336" y="281.5976021417763" font-size="8px"></text><text class="label" x="265.96033880828435" y="294.7974624607147" font-size="8px"></text><text class="label" x="271.09354894228034" y="307.99732277965313" font-size="8px"></text></g><g style="font-size: 13px;"><rect x="150" y="320.73041555115816" width="200.7551106515917" height="12.539867302991501" fill="#4472c4"></rect><rect x="150" y="333.9302758700966" width="14.941049169674168" height="12.539867302991501" fill="#ed7d31"></rect><rect x="150" y="347.13013618903506" width="440.9090909090908" height="12.539867302991501" fill="#a5a5a5"></rect><rect x="150" y="360.3299965079735" width="416.49377002636504" height="12.539867302991501" fill="#ffc000"></rect><rect x="150" y="373.5298568269119" width="368.7188880551102" height="12.539867302991501" fill="#5b9bd5"></rect><rect x="150" y="386.72971714585026" width="282.4191095364324" height="12.539867302991501" fill="#70ad47"></rect><text class="label" x="359.25511065159174" y="329.23041555115816" font-size="10px">13.44x</text><text class="label" x="173.44104916967416" y="342.4302758700966" font-size="10px">1x</text><text class="label" x="599.4090909090908" y="355.63013618903506" font-size="10px">29.51x</text><text class="label" x="574.993770026365" y="368.8299965079735" font-size="10px">27.88x</text><text class="label" x="527.2188880551103" y="382.0298568269119" font-size="10px">24.68x</text><text class="label" x="440.9191095364324" y="395.22971714585026" font-size="10px">18.9x</text><text class="label" x="355.75511065159174" y="330.73041555115816" font-size="8px"></text><text class="label" x="169.94104916967416" y="343.9302758700966" font-size="8px"></text><text class="label" x="595.9090909090908" y="357.13013618903506" font-size="8px"></text><text class="label" x="571.493770026365" y="370.3299965079735" font-size="8px"></text><text class="label" x="523.7188880551103" y="383.5298568269119" font-size="8px"></text><text class="label" x="437.4191095364324" y="396.72971714585026" font-size="8px"></text></g><g style="font-size: 13px;"><rect x="150" y="409.46280991735534" width="138.19953430569655" height="12.539867302991501" fill="#4472c4"></rect><rect x="150" y="422.66267023629376" width="14.941049169674168" height="12.539867302991501" fill="#ed7d31"></rect><rect x="150" y="435.8625305552322" width="190.11071264380936" height="12.539867302991501" fill="#a5a5a5"></rect><rect x="150" y="449.06239087417066" width="187.88716692938274" height="12.539867302991501" fill="#ffc000"></rect><rect x="150" y="462.2622511931091" width="178.53668992224266" height="12.539867302991501" fill="#5b9bd5"></rect><rect x="150" y="475.4621115120475" width="197.69570423683749" height="12.539867302991501" fill="#70ad47"></rect><text class="label" x="296.69953430569655" y="417.96280991735534" font-size="10px">9.25x</text><text class="label" x="173.44104916967416" y="431.16267023629376" font-size="10px">1x</text><text class="label" x="348.6107126438094" y="444.3625305552322" font-size="10px">12.72x</text><text class="label" x="346.3871669293827" y="457.56239087417066" font-size="10px">12.58x</text><text class="label" x="337.03668992224266" y="470.7622511931091" font-size="10px">11.95x</text><text class="label" x="356.1957042368375" y="483.9621115120475" font-size="10px">13.23x</text><text class="label" x="293.19953430569655" y="419.46280991735534" font-size="8px"></text><text class="label" x="169.94104916967416" y="432.66267023629376" font-size="8px"></text><text class="label" x="345.1107126438094" y="445.8625305552322" font-size="8px"></text><text class="label" x="342.8871669293827" y="459.06239087417066" font-size="8px"></text><text class="label" x="333.53668992224266" y="472.2622511931091" font-size="8px"></text><text class="label" x="352.6957042368375" y="485.4621115120475" font-size="8px"></text></g><g style="font-size: 13px;"><rect x="150" y="498.1952042835525" width="0" height="12.539867302991501" fill="#4472c4"></rect><rect x="150" y="511.39506460249095" width="14.941049169674168" height="12.539867302991501" fill="#ed7d31"></rect><rect x="150" y="524.5949249214294" width="297.860897720974" height="12.539867302991501" fill="#a5a5a5"></rect><rect x="150" y="537.7947852403679" width="285.416182209546" height="12.539867302991501" fill="#ffc000"></rect><rect x="150" y="550.9946455593063" width="221.7452391835946" height="12.539867302991501" fill="#5b9bd5"></rect><rect x="150" y="564.1945058782446" width="178.8828843932002" height="12.539867302991501" fill="#70ad47"></rect><text class="label" x="158.5" y="506.6952042835525" font-size="10px"></text><text class="label" x="173.44104916967416" y="519.895064602491" font-size="10px">1x</text><text class="label" x="456.360897720974" y="533.0949249214294" font-size="10px">19.94x</text><text class="label" x="443.916182209546" y="546.2947852403679" font-size="10px">19.1x</text><text class="label" x="380.2452391835946" y="559.4946455593063" font-size="10px">14.84x</text><text class="label" x="337.3828843932002" y="572.6945058782446" font-size="10px">11.97x</text><text class="label" x="155" y="508.1952042835525" font-size="8px">Failed</text><text class="label" x="169.94104916967416" y="521.395064602491" font-size="8px"></text><text class="label" x="452.860897720974" y="534.5949249214294" font-size="8px"></text><text class="label" x="440.416182209546" y="547.7947852403679" font-size="8px"></text><text class="label" x="376.7452391835946" y="560.9946455593063" font-size="8px"></text><text class="label" x="333.8828843932002" y="574.1945058782446" font-size="8px"></text></g><g style="font-size: 13px;"><rect x="150" y="586.9275986497497" width="196.36510011480263" height="12.539867302991501" fill="#4472c4"></rect><rect x="150" y="600.1274589686881" width="14.941049169674168" height="12.539867302991501" fill="#ed7d31"></rect><rect x="150" y="613.3273192876266" width="201.21217947736568" height="12.539867302991501" fill="#a5a5a5"></rect><rect x="150" y="626.5271796065649" width="186.31507548548285" height="12.539867302991501" fill="#ffc000"></rect><rect x="150" y="639.7270399255034" width="173.74848675778048" height="12.539867302991501" fill="#5b9bd5"></rect><rect x="150" y="652.9269002444418" width="171.28173117299596" height="12.539867302991501" fill="#70ad47"></rect><text class="label" x="354.86510011480266" y="595.4275986497497" font-size="10px">13.14x</text><text class="label" x="173.44104916967416" y="608.6274589686881" font-size="10px">1x</text><text class="label" x="359.7121794773657" y="621.8273192876266" font-size="10px">13.47x</text><text class="label" x="344.81507548548285" y="635.0271796065649" font-size="10px">12.47x</text><text class="label" x="332.2484867577805" y="648.2270399255034" font-size="10px">11.63x</text><text class="label" x="329.78173117299593" y="661.4269002444418" font-size="10px">11.46x</text><text class="label" x="351.36510011480266" y="596.9275986497497" font-size="8px"></text><text class="label" x="169.94104916967416" y="610.1274589686881" font-size="8px"></text><text class="label" x="356.2121794773657" y="623.3273192876266" font-size="8px"></text><text class="label" x="341.31507548548285" y="636.5271796065649" font-size="8px"></text><text class="label" x="328.7484867577805" y="649.7270399255034" font-size="8px"></text><text class="label" x="326.28173117299593" y="662.9269002444418" font-size="8px"></text></g></g></svg>