<svg xmlns="http://www.w3.org/2000/svg" xmlns:xlink="http://www.w3.org/1999/xlink" width="800" height="675" style="background-color: white;"><g class="y axis" transform="translate(149,45)" fill="none" font-size="10" font-family="sans-serif" text-anchor="end" style="font-size: 13px;"><path class="domain" stroke="#000" d="M0,0.5H0.5V600.5H0"></path><g class="tick" opacity="1" transform="translate(0,40.740740740740726)" style="font-size: 13px;"><line stroke="#000" x2="0"></line><text fill="#000" x="-3" dy="0.32em">object (simple)    </text></g><g class="tick" opacity="1" transform="translate(0,114.81481481481481)" style="font-size: 13px;"><line stroke="#000" x2="0"></line><text fill="#000" x="-3" dy="0.32em">object (hierarchical)    </text></g><g class="tick" opacity="1" transform="translate(0,188.88888888888889)" style="font-size: 13px;"><line stroke="#000" x2="0"></line><text fill="#000" x="-3" dy="0.32em">object (recursive)    </text></g><g class="tick" opacity="1" transform="translate(0,262.96296296296293)" style="font-size: 13px;"><line stroke="#000" x2="0"></line><text fill="#000" x="-3" dy="0.32em">object (union)    </text></g><g class="tick" opacity="1" transform="translate(0,337.037037037037)" style="font-size: 13px;"><line stroke="#000" x2="0"></line><text fill="#000" x="-3" dy="0.32em">array (simple)    </text></g><g class="tick" opacity="1" transform="translate(0,411.1111111111111)" style="font-size: 13px;"><line stroke="#000" x2="0"></line><text fill="#000" x="-3" dy="0.32em">array (hierarchical)    </text></g><g class="tick" opacity="1" transform="translate(0,485.18518518518516)" style="font-size: 13px;"><line stroke="#000" x2="0"></line><text fill="#000" x="-3" dy="0.32em">array (recursive)    </text></g><g class="tick" opacity="1" transform="translate(0,559.2592592592592)" style="font-size: 13px;"><line stroke="#000" x2="0"></line><text fill="#000" x="-3" dy="0.32em">array (union)    </text></g></g><g class="x axis" transform="translate(149,645)" fill="none" font-size="10" font-family="sans-serif" text-anchor="middle" style="font-size: 13px;"><path class="domain" stroke="#000" d="M0.5,0V0.5H485.5V0"></path><g class="tick" opacity="1" transform="translate(0.5,0)" style="font-size: 13px;"><line stroke="#000" y2="6"></line><text fill="#000" y="9" dy="0.71em">0x</text></g><g class="tick" opacity="1" transform="translate(108.66272245050828,0)" style="font-size: 13px;"><line stroke="#000" y2="6"></line><text fill="#000" y="9" dy="0.71em">2x</text></g><g class="tick" opacity="1" transform="translate(216.82544490101657,0)" style="font-size: 13px;"><line stroke="#000" y2="6"></line><text fill="#000" y="9" dy="0.71em">4x</text></g><g class="tick" opacity="1" transform="translate(324.9881673515248,0)" style="font-size: 13px;"><line stroke="#000" y2="6"></line><text fill="#000" y="9" dy="0.71em">6x</text></g><g class="tick" opacity="1" transform="translate(433.15088980203313,0)" style="font-size: 13px;"><line stroke="#000" y2="6"></line><text fill="#000" y="9" dy="0.71em">8x</text></g></g><text transform="translate(400, 30)" style="text-anchor: middle; font-size: 20px; font-weight: bold;">stringify benchmark</text><rect x="680" y="145" width="200" height="5" fill="gray"></rect><rect x="675" y="35" width="200" height="110" fill="none" stroke="black"></rect><rect x="685" y="45" width="10" height="10" style="fill: #4472c4;"></rect><text x="700" y="55" style="font-size: 12px;">typia.stringify()</text><rect x="685" y="65" width="10" height="10" style="fill: #ed7d31;"></rect><text x="700" y="75" style="font-size: 12px;">typia.assertStringify()</text><rect x="685" y="85" width="10" height="10" style="fill: #a5a5a5;"></rect><text x="700" y="95" style="font-size: 12px;">typia.isStringify()</text><rect x="685" y="105" width="10" height="10" style="fill: #ffc000;"></rect><text x="700" y="115" style="font-size: 12px;">fast-json-stringify</text><rect x="685" y="125" width="10" height="10" style="fill: #5b9bd5;"></rect><text x="700" y="135" style="font-size: 12px;">JSON.stringify</text><g style="font-size: 13px;"><g style="font-size: 13px;"><rect x="150" y="53.06747341400805" width="440.9090909090908" height="12.541254125412543" fill="#4472c4"></rect><rect x="150" y="66.26879354602124" width="311.8181390898591" height="12.541254125412543" fill="#ed7d31"></rect><rect x="150" y="79.47011367803445" width="394.07499378963627" height="12.541254125412543" fill="#a5a5a5"></rect><rect x="150" y="92.67143381004766" width="244.25550249259257" height="12.541254125412543" fill="#ffc000"></rect><rect x="150" y="105.87275394206085" width="54.08136122525414" height="12.541254125412543" fill="#5b9bd5"></rect><text class="label" x="599.4090909090908" y="61.56747341400805" font-size="10px">8.15x</text><text class="label" x="470.3181390898591" y="74.76879354602124" font-size="10px">5.77x</text><text class="label" x="552.5749937896362" y="87.97011367803445" font-size="10px">7.29x</text><text class="label" x="402.75550249259254" y="101.17143381004766" font-size="10px">4.52x</text><text class="label" x="212.58136122525414" y="114.37275394206085" font-size="10px">1x</text><text class="label" x="595.9090909090908" y="63.06747341400805" font-size="8px"></text><text class="label" x="466.8181390898591" y="76.26879354602124" font-size="8px"></text><text class="label" x="549.0749937896362" y="89.47011367803445" font-size="8px"></text><text class="label" x="399.25550249259254" y="102.67143381004766" font-size="8px"></text><text class="label" x="209.08136122525414" y="115.87275394206085" font-size="8px"></text></g><g style="font-size: 13px;"><rect x="150" y="127.14154748808213" width="180.75320334606576" height="12.541254125412543" fill="#4472c4"></rect><rect x="150" y="140.34286762009532" width="155.4407652760725" height="12.541254125412543" fill="#ed7d31"></rect><rect x="150" y="153.54418775210854" width="159.272723680816" height="12.541254125412543" fill="#a5a5a5"></rect><rect x="150" y="166.74550788412174" width="160.1818802100223" height="12.541254125412543" fill="#ffc000"></rect><rect x="150" y="179.94682801613493" width="54.08136122525414" height="12.541254125412543" fill="#5b9bd5"></rect><text class="label" x="339.2532033460658" y="135.64154748808213" font-size="10px">3.34x</text><text class="label" x="313.9407652760725" y="148.84286762009532" font-size="10px">2.87x</text><text class="label" x="317.772723680816" y="162.04418775210854" font-size="10px">2.95x</text><text class="label" x="318.6818802100223" y="175.24550788412174" font-size="10px">2.96x</text><text class="label" x="212.58136122525414" y="188.44682801613493" font-size="10px">1x</text><text class="label" x="335.7532033460658" y="137.14154748808213" font-size="8px"></text><text class="label" x="310.4407652760725" y="150.34286762009532" font-size="8px"></text><text class="label" x="314.272723680816" y="163.54418775210854" font-size="8px"></text><text class="label" x="315.1818802100223" y="176.74550788412174" font-size="8px"></text><text class="label" x="209.08136122525414" y="189.94682801613493" font-size="8px"></text></g><g style="font-size: 13px;"><rect x="150" y="201.2156215621562" width="287.2701724173302" height="12.541254125412543" fill="#4472c4"></rect><rect x="150" y="214.4169416941694" width="261.0411079792613" height="12.541254125412543" fill="#ed7d31"></rect><rect x="150" y="227.61826182618262" width="275.77202182535683" height="12.541254125412543" fill="#a5a5a5"></rect><rect x="150" y="240.8195819581958" width="62.74228645128021" height="12.541254125412543" fill="#ffc000"></rect><rect x="150" y="254.020902090209" width="54.08136122525414" height="12.541254125412543" fill="#5b9bd5"></rect><text class="label" x="445.7701724173302" y="209.7156215621562" font-size="10px">5.31x</text><text class="label" x="419.5411079792613" y="222.9169416941694" font-size="10px">4.83x</text><text class="label" x="434.27202182535683" y="236.11826182618262" font-size="10px">5.1x</text><text class="label" x="221.24228645128022" y="249.3195819581958" font-size="10px">1.16x</text><text class="label" x="212.58136122525414" y="262.520902090209" font-size="10px">1x</text><text class="label" x="442.2701724173302" y="211.2156215621562" font-size="8px"></text><text class="label" x="416.0411079792613" y="224.4169416941694" font-size="8px"></text><text class="label" x="430.77202182535683" y="237.61826182618262" font-size="8px"></text><text class="label" x="217.74228645128022" y="250.8195819581958" font-size="8px"></text><text class="label" x="209.08136122525414" y="264.020902090209" font-size="8px"></text></g><g style="font-size: 13px;"><rect x="150" y="275.28969563623025" width="102.47772132092211" height="12.541254125412543" fill="#4472c4"></rect><rect x="150" y="288.49101576824347" width="82.61106487791673" height="12.541254125412543" fill="#ed7d31"></rect><rect x="150" y="301.6923359002567" width="93.74021569559035" height="12.541254125412543" fill="#a5a5a5"></rect><rect x="150" y="314.89365603226986" width="104.224681281963" height="12.541254125412543" fill="#ffc000"></rect><rect x="150" y="328.0949761642831" width="54.08136122525414" height="12.541254125412543" fill="#5b9bd5"></rect><text class="label" x="260.9777213209221" y="283.78969563623025" font-size="10px">1.89x</text><text class="label" x="241.11106487791673" y="296.99101576824347" font-size="10px">1.53x</text><text class="label" x="252.24021569559034" y="310.1923359002567" font-size="10px">1.73x</text><text class="label" x="262.724681281963" y="323.39365603226986" font-size="10px">1.93x</text><text class="label" x="212.58136122525414" y="336.5949761642831" font-size="10px">1x</text><text class="label" x="257.4777213209221" y="285.28969563623025" font-size="8px"></text><text class="label" x="237.61106487791673" y="298.49101576824347" font-size="8px"></text><text class="label" x="248.74021569559034" y="311.6923359002567" font-size="8px"></text><text class="label" x="259.224681281963" y="324.89365603226986" font-size="8px"></text><text class="label" x="209.08136122525414" y="338.0949761642831" font-size="8px"></text></g><g style="font-size: 13px;"><rect x="150" y="349.3637697103044" width="72.676515891712" height="12.541254125412543" fill="#4472c4"></rect><rect x="150" y="362.56508984231755" width="54.08136122525414" height="12.541254125412543" fill="#ed7d31"></rect><rect x="150" y="375.76640997433077" width="60.5475796215906" height="12.541254125412543" fill="#a5a5a5"></rect><rect x="150" y="388.967730106344" width="89.42696885783813" height="12.541254125412543" fill="#ffc000"></rect><rect x="150" y="402.16905023835716" width="58.96898649672363" height="12.541254125412543" fill="#5b9bd5"></rect><text class="label" x="231.176515891712" y="357.8637697103044" font-size="10px">1.34x</text><text class="label" x="212.58136122525414" y="371.06508984231755" font-size="10px">1x</text><text class="label" x="219.04757962159061" y="384.26640997433077" font-size="10px">1.12x</text><text class="label" x="247.92696885783812" y="397.467730106344" font-size="10px">1.65x</text><text class="label" x="217.46898649672363" y="410.66905023835716" font-size="10px">1.09x</text><text class="label" x="227.676515891712" y="359.3637697103044" font-size="8px"></text><text class="label" x="209.08136122525414" y="372.56508984231755" font-size="8px"></text><text class="label" x="215.54757962159061" y="385.76640997433077" font-size="8px"></text><text class="label" x="244.42696885783812" y="398.967730106344" font-size="8px"></text><text class="label" x="213.96898649672363" y="412.16905023835716" font-size="8px"></text></g><g style="font-size: 13px;"><rect x="150" y="423.4378437843784" width="110.33680620921876" height="12.541254125412543" fill="#4472c4"></rect><rect x="150" y="436.6391639163916" width="100.89799185234656" height="12.541254125412543" fill="#ed7d31"></rect><rect x="150" y="449.84048404840485" width="105.39406808287096" height="12.541254125412543" fill="#a5a5a5"></rect><rect x="150" y="463.041804180418" width="152.35971855175907" height="12.541254125412543" fill="#ffc000"></rect><rect x="150" y="476.24312431243123" width="54.08136122525414" height="12.541254125412543" fill="#5b9bd5"></rect><text class="label" x="268.83680620921876" y="431.9378437843784" font-size="10px">2.04x</text><text class="label" x="259.39799185234654" y="445.1391639163916" font-size="10px">1.87x</text><text class="label" x="263.89406808287094" y="458.34048404840485" font-size="10px">1.95x</text><text class="label" x="310.8597185517591" y="471.541804180418" font-size="10px">2.82x</text><text class="label" x="212.58136122525414" y="484.74312431243123" font-size="10px">1x</text><text class="label" x="265.33680620921876" y="433.4378437843784" font-size="8px"></text><text class="label" x="255.89799185234656" y="446.6391639163916" font-size="8px"></text><text class="label" x="260.39406808287094" y="459.84048404840485" font-size="8px"></text><text class="label" x="307.3597185517591" y="473.041804180418" font-size="8px"></text><text class="label" x="209.08136122525414" y="486.24312431243123" font-size="8px"></text></g><g style="font-size: 13px;"><rect x="150" y="497.51191785845253" width="104.62928892669115" height="12.541254125412543" fill="#4472c4"></rect><rect x="150" y="510.7132379904657" width="93.71737490291405" height="12.541254125412543" fill="#ed7d31"></rect><rect x="150" y="523.9145581224789" width="100.19146681611787" height="12.541254125412543" fill="#a5a5a5"></rect><rect x="150" y="537.1158782544921" width="54.08136122525414" height="12.541254125412543" fill="#ffc000"></rect><rect x="150" y="550.3171983865053" width="54.091538372643164" height="12.541254125412543" fill="#5b9bd5"></rect><text class="label" x="263.1292889266912" y="506.01191785845253" font-size="10px">1.93x</text><text class="label" x="252.21737490291406" y="519.2132379904657" font-size="10px">1.73x</text><text class="label" x="258.6914668161179" y="532.4145581224789" font-size="10px">1.85x</text><text class="label" x="212.58136122525414" y="545.6158782544921" font-size="10px">1x</text><text class="label" x="212.59153837264316" y="558.8171983865053" font-size="10px">1x</text><text class="label" x="259.6292889266912" y="507.51191785845253" font-size="8px"></text><text class="label" x="248.71737490291406" y="520.7132379904657" font-size="8px"></text><text class="label" x="255.19146681611787" y="533.9145581224789" font-size="8px"></text><text class="label" x="209.08136122525414" y="547.1158782544921" font-size="8px"></text><text class="label" x="209.09153837264316" y="560.3171983865053" font-size="8px"></text></g><g style="font-size: 13px;"><rect x="150" y="571.5859919325266" width="64.93347388809869" height="12.541254125412543" fill="#4472c4"></rect><rect x="150" y="584.7873120645397" width="54.08136122525414" height="12.541254125412543" fill="#ed7d31"></rect><rect x="150" y="597.9886321965529" width="56.38133870666049" height="12.541254125412543" fill="#a5a5a5"></rect><rect x="150" y="611.1899523285662" width="55.15844215335909" height="12.541254125412543" fill="#ffc000"></rect><rect x="150" y="624.3912724605793" width="63.018864836171005" height="12.541254125412543" fill="#5b9bd5"></rect><text class="label" x="223.4334738880987" y="580.0859919325266" font-size="10px">1.2x</text><text class="label" x="212.58136122525414" y="593.2873120645397" font-size="10px">1x</text><text class="label" x="214.8813387066605" y="606.4886321965529" font-size="10px">1.04x</text><text class="label" x="213.6584421533591" y="619.6899523285662" font-size="10px">1.02x</text><text class="label" x="221.51886483617102" y="632.8912724605793" font-size="10px">1.17x</text><text class="label" x="219.9334738880987" y="581.5859919325266" font-size="8px"></text><text class="label" x="209.08136122525414" y="594.7873120645397" font-size="8px"></text><text class="label" x="211.3813387066605" y="607.9886321965529" font-size="8px"></text><text class="label" x="210.1584421533591" y="621.1899523285662" font-size="8px"></text><text class="label" x="218.01886483617102" y="634.3912724605793" font-size="8px"></text></g></g></svg>