<svg xmlns="http://www.w3.org/2000/svg" xmlns:xlink="http://www.w3.org/1999/xlink" width="800" height="914" style="background-color: white;"><g class="y axis" transform="translate(149,45)" fill="none" font-size="10" font-family="sans-serif" text-anchor="end" style="font-size: 13px;"><path class="domain" stroke="currentColor" d="M0.5,0.5V720.5"></path><g class="tick" opacity="1" transform="translate(0,48.88888888888886)" style="font-size: 13px;"><line stroke="currentColor" x2="0"></line><text fill="currentColor" x="-3" dy="0.32em">object (simple)    </text></g><g class="tick" opacity="1" transform="translate(0,137.77777777777774)" style="font-size: 13px;"><line stroke="currentColor" x2="0"></line><text fill="currentColor" x="-3" dy="0.32em">object (hierarchical)    </text></g><g class="tick" opacity="1" transform="translate(0,226.66666666666663)" style="font-size: 13px;"><line stroke="currentColor" x2="0"></line><text fill="currentColor" x="-3" dy="0.32em">object (recursive)    </text></g><g class="tick" opacity="1" transform="translate(0,315.5555555555555)" style="font-size: 13px;"><line stroke="currentColor" x2="0"></line><text fill="currentColor" x="-3" dy="0.32em">object (union, explicit)    </text></g><g class="tick" opacity="1" transform="translate(0,404.4444444444444)" style="font-size: 13px;"><line stroke="currentColor" x2="0"></line><text fill="currentColor" x="-3" dy="0.32em">array (simple)    </text></g><g class="tick" opacity="1" transform="translate(0,493.3333333333333)" style="font-size: 13px;"><line stroke="currentColor" x2="0"></line><text fill="currentColor" x="-3" dy="0.32em">array (hierarchical)    </text></g><g class="tick" opacity="1" transform="translate(0,582.2222222222222)" style="font-size: 13px;"><line stroke="currentColor" x2="0"></line><text fill="currentColor" x="-3" dy="0.32em">array (recursive)    </text></g><g class="tick" opacity="1" transform="translate(0,671.1111111111111)" style="font-size: 13px;"><line stroke="currentColor" x2="0"></line><text fill="currentColor" x="-3" dy="0.32em">array (union, explicit)    </text></g></g><g class="x axis" transform="translate(149,765)" fill="none" font-size="10" font-family="sans-serif" text-anchor="middle" style="font-size: 13px;"><path class="domain" stroke="currentColor" d="M0.5,0.5H485.5"></path><g class="tick" opacity="1" transform="translate(0.5,0)" style="font-size: 13px;"><line stroke="currentColor" y2="6"></line><text fill="currentColor" y="9" dy="0.71em">0x</text></g><g class="tick" opacity="1" transform="translate(91.97213433711983,0)" style="font-size: 13px;"><line stroke="currentColor" y2="6"></line><text fill="currentColor" y="9" dy="0.71em">50x</text></g><g class="tick" opacity="1" transform="translate(183.44426867423965,0)" style="font-size: 13px;"><line stroke="currentColor" y2="6"></line><text fill="currentColor" y="9" dy="0.71em">100x</text></g><g class="tick" opacity="1" transform="translate(274.9164030113595,0)" style="font-size: 13px;"><line stroke="currentColor" y2="6"></line><text fill="currentColor" y="9" dy="0.71em">150x</text></g><g class="tick" opacity="1" transform="translate(366.3885373484793,0)" style="font-size: 13px;"><line stroke="currentColor" y2="6"></line><text fill="currentColor" y="9" dy="0.71em">200x</text></g><g class="tick" opacity="1" transform="translate(457.8606716855991,0)" style="font-size: 13px;"><line stroke="currentColor" y2="6"></line><text fill="currentColor" y="9" dy="0.71em">250x</text></g></g><text transform="translate(400, 30)" style="text-anchor: middle; font-size: 20px; font-weight: bold;">stringify benchmark</text><rect x="650" y="165" width="230" height="5" fill="gray"></rect><rect x="645" y="35" width="230" height="130" fill="none" stroke="black"></rect><rect x="655" y="45" width="10" height="10" style="fill: #4472c4;"></rect><text x="670" y="55" style="font-size: 12px;">typia.stringify</text><rect x="655" y="65" width="10" height="10" style="fill: #ed7d31;"></rect><text x="670" y="75" style="font-size: 12px;">typia.isStringify</text><rect x="655" y="85" width="10" height="10" style="fill: #a5a5a5;"></rect><text x="670" y="95" style="font-size: 12px;">typia.assertStringify</text><rect x="655" y="105" width="10" height="10" style="fill: #ffc000;"></rect><text x="670" y="115" style="font-size: 12px;">fast-json-stringify</text><rect x="655" y="125" width="10" height="10" style="fill: #5b9bd5;"></rect><text x="670" y="135" style="font-size: 12px;">JSON.stringify</text><rect x="655" y="145" width="10" height="10" style="fill: #70ad47;"></rect><text x="670" y="155" style="font-size: 12px;">class-transformer</text><text x="20" y="829" style="font-size: 12px;">  - CPU: 11th Gen Intel(R) Core(TM) i5-1135G7 @ 2.40GHz</text><text x="20" y="846" style="font-size: 12px;">  - OS: win32</text><text x="20" y="863" style="font-size: 12px;">  - RAM: 16 GB</text><text x="20" y="880" style="font-size: 12px;">  - NodeJS version: v16.20.0</text><text x="20" y="897" style="font-size: 12px;">  - Typia version: v4.1.1</text><g style="font-size: 13px;"><g style="font-size: 13px;"><rect x="150" y="54.55004591368224" width="440.9090909090908" height="12.56198347107438" fill="#4472c4"></rect><rect x="150" y="67.77318640955001" width="334.8770121717253" height="12.56198347107438" fill="#ed7d31"></rect><rect x="150" y="80.99632690541777" width="333.84334462156824" height="12.56198347107438" fill="#a5a5a5"></rect><rect x="150" y="94.21946740128556" width="151.23676657251198" height="12.56198347107438" fill="#ffc000"></rect><rect x="150" y="107.44260789715332" width="29.24566330435126" height="12.56198347107438" fill="#5b9bd5"></rect><rect x="150" y="120.66574839302109" width="1.8294426867423965" height="12.56198347107438" fill="#70ad47"></rect><text class="label" x="599.4090909090908" y="63.05004591368224" font-size="10px">241x</text><text class="label" x="493.3770121717253" y="76.27318640955001" font-size="10px">183x</text><text class="label" x="492.34334462156824" y="89.49632690541777" font-size="10px">182x</text><text class="label" x="309.736766572512" y="102.71946740128556" font-size="10px">83x</text><text class="label" x="187.74566330435127" y="115.94260789715332" font-size="10px">16x</text><text class="label" x="160.3294426867424" y="129.1657483930211" font-size="10px">1x</text><text class="label" x="595.9090909090908" y="64.55004591368224" font-size="8px"></text><text class="label" x="489.8770121717253" y="77.77318640955001" font-size="8px"></text><text class="label" x="488.84334462156824" y="90.99632690541777" font-size="8px"></text><text class="label" x="306.236766572512" y="104.21946740128556" font-size="8px"></text><text class="label" x="184.24566330435127" y="117.44260789715332" font-size="8px"></text><text class="label" x="156.8294426867424" y="130.6657483930211" font-size="8px"></text></g><g style="font-size: 13px;"><rect x="150" y="143.4389348025711" width="81.54551054763854" height="12.56198347107438" fill="#4472c4"></rect><rect x="150" y="156.66207529843888" width="78.65761004688879" height="12.56198347107438" fill="#ed7d31"></rect><rect x="150" y="169.88521579430665" width="76.49938490690523" height="12.56198347107438" fill="#a5a5a5"></rect><rect x="150" y="183.10835629017444" width="53.829338235872385" height="12.56198347107438" fill="#ffc000"></rect><rect x="150" y="196.3314967860422" width="22.355841912039114" height="12.56198347107438" fill="#5b9bd5"></rect><rect x="150" y="209.55463728190998" width="1.8294426867423965" height="12.56198347107438" fill="#70ad47"></rect><text class="label" x="240.04551054763854" y="151.9389348025711" font-size="10px">45x</text><text class="label" x="237.1576100468888" y="165.16207529843888" font-size="10px">43x</text><text class="label" x="234.99938490690522" y="178.38521579430665" font-size="10px">42x</text><text class="label" x="212.3293382358724" y="191.60835629017444" font-size="10px">29x</text><text class="label" x="180.85584191203912" y="204.8314967860422" font-size="10px">12x</text><text class="label" x="160.3294426867424" y="218.05463728190998" font-size="10px">1x</text><text class="label" x="236.54551054763854" y="153.4389348025711" font-size="8px"></text><text class="label" x="233.6576100468888" y="166.66207529843888" font-size="8px"></text><text class="label" x="231.49938490690522" y="179.88521579430665" font-size="8px"></text><text class="label" x="208.8293382358724" y="193.10835629017444" font-size="8px"></text><text class="label" x="177.35584191203912" y="206.3314967860422" font-size="8px"></text><text class="label" x="156.8294426867424" y="219.55463728190998" font-size="8px"></text></g><g style="font-size: 13px;"><rect x="150" y="232.32782369146003" width="133.17864732468382" height="12.56198347107438" fill="#4472c4"></rect><rect x="150" y="245.5509641873278" width="121.60523817459531" height="12.56198347107438" fill="#ed7d31"></rect><rect x="150" y="258.77410468319556" width="118.88095862926887" height="12.56198347107438" fill="#a5a5a5"></rect><rect x="150" y="271.9972451790633" width="30.93879932521966" height="12.56198347107438" fill="#ffc000"></rect><rect x="150" y="285.2203856749311" width="28.48149288242139" height="12.56198347107438" fill="#5b9bd5"></rect><rect x="150" y="298.44352617079886" width="1.8294426867423965" height="12.56198347107438" fill="#70ad47"></rect><text class="label" x="291.6786473246838" y="240.82782369146003" font-size="10px">73x</text><text class="label" x="280.10523817459534" y="254.0509641873278" font-size="10px">66x</text><text class="label" x="277.3809586292689" y="267.27410468319556" font-size="10px">65x</text><text class="label" x="189.43879932521966" y="280.4972451790633" font-size="10px">17x</text><text class="label" x="186.98149288242138" y="293.7203856749311" font-size="10px">16x</text><text class="label" x="160.3294426867424" y="306.94352617079886" font-size="10px">1x</text><text class="label" x="288.1786473246838" y="242.32782369146003" font-size="8px"></text><text class="label" x="276.60523817459534" y="255.5509641873278" font-size="8px"></text><text class="label" x="273.8809586292689" y="268.77410468319556" font-size="8px"></text><text class="label" x="185.93879932521966" y="281.9972451790633" font-size="8px"></text><text class="label" x="183.48149288242138" y="295.2203856749311" font-size="8px"></text><text class="label" x="156.8294426867424" y="308.44352617079886" font-size="8px"></text></g><g style="font-size: 13px;"><rect x="150" y="321.2167125803489" width="95.84771188309301" height="12.56198347107438" fill="#4472c4"></rect><rect x="150" y="334.43985307621665" width="86.71101856899602" height="12.56198347107438" fill="#ed7d31"></rect><rect x="150" y="347.6629935720844" width="83.62369565759448" height="12.56198347107438" fill="#a5a5a5"></rect><rect x="150" y="360.8861340679522" width="62.43272261845266" height="12.56198347107438" fill="#ffc000"></rect><rect x="150" y="374.10927456381995" width="44.15369566386795" height="12.56198347107438" fill="#5b9bd5"></rect><rect x="150" y="387.3324150596877" width="1.8294426867423965" height="12.56198347107438" fill="#70ad47"></rect><text class="label" x="254.347711883093" y="329.7167125803489" font-size="10px">52x</text><text class="label" x="245.21101856899602" y="342.93985307621665" font-size="10px">47x</text><text class="label" x="242.12369565759448" y="356.1629935720844" font-size="10px">46x</text><text class="label" x="220.93272261845266" y="369.3861340679522" font-size="10px">34x</text><text class="label" x="202.65369566386795" y="382.60927456381995" font-size="10px">24x</text><text class="label" x="160.3294426867424" y="395.8324150596877" font-size="10px">1x</text><text class="label" x="250.847711883093" y="331.2167125803489" font-size="8px"></text><text class="label" x="241.71101856899602" y="344.43985307621665" font-size="8px"></text><text class="label" x="238.62369565759448" y="357.6629935720844" font-size="8px"></text><text class="label" x="217.43272261845266" y="370.8861340679522" font-size="8px"></text><text class="label" x="199.15369566386795" y="384.10927456381995" font-size="8px"></text><text class="label" x="156.8294426867424" y="397.3324150596877" font-size="8px"></text></g><g style="font-size: 13px;"><rect x="150" y="410.1056014692378" width="47.968671493657496" height="12.56198347107438" fill="#4472c4"></rect><rect x="150" y="423.32874196510556" width="46.316843926253966" height="12.56198347107438" fill="#ed7d31"></rect><rect x="150" y="436.55188246097333" width="45.658460790143884" height="12.56198347107438" fill="#a5a5a5"></rect><rect x="150" y="449.7750229568411" width="68.74626709000742" height="12.56198347107438" fill="#ffc000"></rect><rect x="150" y="462.99816345270887" width="31.907166264939157" height="12.56198347107438" fill="#5b9bd5"></rect><rect x="150" y="476.22130394857663" width="1.8294426867423965" height="12.56198347107438" fill="#70ad47"></rect><text class="label" x="206.4686714936575" y="418.6056014692378" font-size="10px">26x</text><text class="label" x="204.81684392625397" y="431.82874196510556" font-size="10px">25x</text><text class="label" x="204.1584607901439" y="445.05188246097333" font-size="10px">25x</text><text class="label" x="227.24626709000742" y="458.2750229568411" font-size="10px">38x</text><text class="label" x="190.40716626493915" y="471.49816345270887" font-size="10px">17x</text><text class="label" x="160.3294426867424" y="484.72130394857663" font-size="10px">1x</text><text class="label" x="202.9686714936575" y="420.1056014692378" font-size="8px"></text><text class="label" x="201.31684392625397" y="433.32874196510556" font-size="8px"></text><text class="label" x="200.6584607901439" y="446.55188246097333" font-size="8px"></text><text class="label" x="223.74626709000742" y="459.7750229568411" font-size="8px"></text><text class="label" x="186.90716626493915" y="472.99816345270887" font-size="8px"></text><text class="label" x="156.8294426867424" y="486.22130394857663" font-size="8px"></text></g><g style="font-size: 13px;"><rect x="150" y="498.9944903581267" width="80.96022747864446" height="12.56198347107438" fill="#4472c4"></rect><rect x="150" y="512.2176308539945" width="78.5428448592225" height="12.56198347107438" fill="#ed7d31"></rect><rect x="150" y="525.4407713498622" width="79.92198736382517" height="12.56198347107438" fill="#a5a5a5"></rect><rect x="150" y="538.66391184573" width="107.64928775620879" height="12.56198347107438" fill="#ffc000"></rect><rect x="150" y="551.8870523415978" width="36.269971830814676" height="12.56198347107438" fill="#5b9bd5"></rect><rect x="150" y="565.1101928374655" width="1.8294426867423965" height="12.56198347107438" fill="#70ad47"></rect><text class="label" x="239.46022747864447" y="507.4944903581267" font-size="10px">44x</text><text class="label" x="237.0428448592225" y="520.7176308539945" font-size="10px">43x</text><text class="label" x="238.42198736382517" y="533.9407713498622" font-size="10px">44x</text><text class="label" x="266.14928775620876" y="547.16391184573" font-size="10px">59x</text><text class="label" x="194.76997183081468" y="560.3870523415978" font-size="10px">20x</text><text class="label" x="160.3294426867424" y="573.6101928374655" font-size="10px">1x</text><text class="label" x="235.96022747864447" y="508.9944903581267" font-size="8px"></text><text class="label" x="233.5428448592225" y="522.2176308539945" font-size="8px"></text><text class="label" x="234.92198736382517" y="535.4407713498622" font-size="8px"></text><text class="label" x="262.64928775620876" y="548.66391184573" font-size="8px"></text><text class="label" x="191.26997183081468" y="561.8870523415978" font-size="8px"></text><text class="label" x="156.8294426867424" y="575.1101928374655" font-size="8px"></text></g><g style="font-size: 13px;"><rect x="150" y="587.8833792470156" width="67.97834214057961" height="12.56198347107438" fill="#4472c4"></rect><rect x="150" y="601.1065197428833" width="64.99514443739137" height="12.56198347107438" fill="#ed7d31"></rect><rect x="150" y="614.3296602387511" width="64.81493831167413" height="12.56198347107438" fill="#a5a5a5"></rect><rect x="150" y="627.5528007346188" width="118.78202151646869" height="12.56198347107438" fill="#ffc000"></rect><rect x="150" y="640.7759412304866" width="32.70605351588593" height="12.56198347107438" fill="#5b9bd5"></rect><rect x="150" y="653.9990817263545" width="1.8294426867423965" height="12.56198347107438" fill="#70ad47"></rect><text class="label" x="226.47834214057963" y="596.3833792470156" font-size="10px">37x</text><text class="label" x="223.4951444373914" y="609.6065197428833" font-size="10px">36x</text><text class="label" x="223.31493831167413" y="622.8296602387511" font-size="10px">35x</text><text class="label" x="277.2820215164687" y="636.0528007346188" font-size="10px">65x</text><text class="label" x="191.2060535158859" y="649.2759412304866" font-size="10px">18x</text><text class="label" x="160.3294426867424" y="662.4990817263545" font-size="10px">1x</text><text class="label" x="222.97834214057963" y="597.8833792470156" font-size="8px"></text><text class="label" x="219.9951444373914" y="611.1065197428833" font-size="8px"></text><text class="label" x="219.81493831167413" y="624.3296602387511" font-size="8px"></text><text class="label" x="273.7820215164687" y="637.5528007346188" font-size="8px"></text><text class="label" x="187.7060535158859" y="650.7759412304866" font-size="8px"></text><text class="label" x="156.8294426867424" y="663.9990817263545" font-size="8px"></text></g><g style="font-size: 13px;"><rect x="150" y="676.7722681359045" width="55.198620745682234" height="12.56198347107438" fill="#4472c4"></rect><rect x="150" y="689.9954086317722" width="52.74009418218346" height="12.56198347107438" fill="#ed7d31"></rect><rect x="150" y="703.21854912764" width="52.613248003875476" height="12.56198347107438" fill="#a5a5a5"></rect><rect x="150" y="716.4416896235077" width="10.949898631831955" height="12.56198347107438" fill="#ffc000"></rect><rect x="150" y="729.6648301193756" width="44.47466084479506" height="12.56198347107438" fill="#5b9bd5"></rect><rect x="150" y="742.8879706152434" width="1.8294426867423965" height="12.56198347107438" fill="#70ad47"></rect><text class="label" x="213.69862074568223" y="685.2722681359045" font-size="10px">30x</text><text class="label" x="211.24009418218347" y="698.4954086317722" font-size="10px">29x</text><text class="label" x="211.11324800387547" y="711.71854912764" font-size="10px">29x</text><text class="label" x="169.44989863183196" y="724.9416896235077" font-size="10px">6x</text><text class="label" x="202.97466084479507" y="738.1648301193756" font-size="10px">24x</text><text class="label" x="160.3294426867424" y="751.3879706152434" font-size="10px">1x</text><text class="label" x="210.19862074568223" y="686.7722681359045" font-size="8px"></text><text class="label" x="207.74009418218347" y="699.9954086317722" font-size="8px"></text><text class="label" x="207.61324800387547" y="713.21854912764" font-size="8px"></text><text class="label" x="165.94989863183196" y="726.4416896235077" font-size="8px"></text><text class="label" x="199.47466084479507" y="739.6648301193756" font-size="8px"></text><text class="label" x="156.8294426867424" y="752.8879706152434" font-size="8px"></text></g></g></svg>