<svg xmlns="http://www.w3.org/2000/svg" xmlns:xlink="http://www.w3.org/1999/xlink" width="800" height="675" style="background-color: white;"><g class="y axis" transform="translate(149,45)" fill="none" font-size="10" font-family="sans-serif" text-anchor="end" style="font-size: 13px;"><path class="domain" stroke="currentColor" d="M0.5,0.5V600.5"></path><g class="tick" opacity="1" transform="translate(0,40.740740740740726)" style="font-size: 13px;"><line stroke="currentColor" x2="0"></line><text fill="currentColor" x="-3" dy="0.32em">object (simple)    </text></g><g class="tick" opacity="1" transform="translate(0,114.81481481481481)" style="font-size: 13px;"><line stroke="currentColor" x2="0"></line><text fill="currentColor" x="-3" dy="0.32em">object (hierarchical)    </text></g><g class="tick" opacity="1" transform="translate(0,188.88888888888889)" style="font-size: 13px;"><line stroke="currentColor" x2="0"></line><text fill="currentColor" x="-3" dy="0.32em">object (recursive)    </text></g><g class="tick" opacity="1" transform="translate(0,262.96296296296293)" style="font-size: 13px;"><line stroke="currentColor" x2="0"></line><text fill="currentColor" x="-3" dy="0.32em">object (union)    </text></g><g class="tick" opacity="1" transform="translate(0,337.037037037037)" style="font-size: 13px;"><line stroke="currentColor" x2="0"></line><text fill="currentColor" x="-3" dy="0.32em">array (simple)    </text></g><g class="tick" opacity="1" transform="translate(0,411.1111111111111)" style="font-size: 13px;"><line stroke="currentColor" x2="0"></line><text fill="currentColor" x="-3" dy="0.32em">array (hierarchical)    </text></g><g class="tick" opacity="1" transform="translate(0,485.18518518518516)" style="font-size: 13px;"><line stroke="currentColor" x2="0"></line><text fill="currentColor" x="-3" dy="0.32em">array (recursive)    </text></g><g class="tick" opacity="1" transform="translate(0,559.2592592592592)" style="font-size: 13px;"><line stroke="currentColor" x2="0"></line><text fill="currentColor" x="-3" dy="0.32em">array (union)    </text></g></g><g class="x axis" transform="translate(149,645)" fill="none" font-size="10" font-family="sans-serif" text-anchor="middle" style="font-size: 13px;"><path class="domain" stroke="currentColor" d="M0.5,0.5H485.5"></path><g class="tick" opacity="1" transform="translate(0.5,0)" style="font-size: 13px;"><line stroke="currentColor" y2="6"></line><text fill="currentColor" y="9" dy="0.71em">0x</text></g><g class="tick" opacity="1" transform="translate(105.94061678910508,0)" style="font-size: 13px;"><line stroke="currentColor" y2="6"></line><text fill="currentColor" y="9" dy="0.71em">0.5x</text></g><g class="tick" opacity="1" transform="translate(211.38123357821016,0)" style="font-size: 13px;"><line stroke="currentColor" y2="6"></line><text fill="currentColor" y="9" dy="0.71em">1x</text></g><g class="tick" opacity="1" transform="translate(316.8218503673152,0)" style="font-size: 13px;"><line stroke="currentColor" y2="6"></line><text fill="currentColor" y="9" dy="0.71em">1.5x</text></g><g class="tick" opacity="1" transform="translate(422.2624671564203,0)" style="font-size: 13px;"><line stroke="currentColor" y2="6"></line><text fill="currentColor" y="9" dy="0.71em">2x</text></g></g><text transform="translate(400, 30)" style="text-anchor: middle; font-size: 20px; font-weight: bold;">stringify (server) benchmark</text><rect x="680" y="145" width="200" height="5" fill="gray"></rect><rect x="675" y="35" width="200" height="110" fill="none" stroke="black"></rect><rect x="685" y="45" width="10" height="10" style="fill: #4472c4;"></rect><text x="700" y="55" style="font-size: 12px;">express (pure)</text><rect x="685" y="65" width="10" height="10" style="fill: #ed7d31;"></rect><text x="700" y="75" style="font-size: 12px;">express (typia.stringify)</text><rect x="685" y="85" width="10" height="10" style="fill: #a5a5a5;"></rect><text x="700" y="95" style="font-size: 12px;">express (typia.isStringify)</text><rect x="685" y="105" width="10" height="10" style="fill: #ffc000;"></rect><text x="700" y="115" style="font-size: 12px;">express (typia.assertStringify)</text><rect x="685" y="125" width="10" height="10" style="fill: #5b9bd5;"></rect><text x="700" y="135" style="font-size: 12px;">fastify</text><g style="font-size: 13px;"><g style="font-size: 13px;"><rect x="150" y="53.06747341400805" width="210.88123357821016" height="12.541254125412543" fill="#4472c4"></rect><rect x="150" y="66.26879354602124" width="292.6873337197825" height="12.541254125412543" fill="#ed7d31"></rect><rect x="150" y="79.47011367803445" width="294.7495430110909" height="12.541254125412543" fill="#a5a5a5"></rect><rect x="150" y="92.67143381004766" width="267.17164084260315" height="12.541254125412543" fill="#ffc000"></rect><rect x="150" y="105.87275394206085" width="440.9090909090908" height="12.541254125412543" fill="#5b9bd5"></rect><text class="label" x="369.3812335782102" y="61.56747341400805" font-size="10px">1x</text><text class="label" x="451.1873337197825" y="74.76879354602124" font-size="10px">1.39x</text><text class="label" x="453.2495430110909" y="87.97011367803445" font-size="10px">1.4x</text><text class="label" x="425.67164084260315" y="101.17143381004766" font-size="10px">1.27x</text><text class="label" x="599.4090909090908" y="114.37275394206085" font-size="10px">2.09x</text><text class="label" x="365.8812335782102" y="63.06747341400805" font-size="8px"></text><text class="label" x="447.6873337197825" y="76.26879354602124" font-size="8px"></text><text class="label" x="449.7495430110909" y="89.47011367803445" font-size="8px"></text><text class="label" x="422.17164084260315" y="102.67143381004766" font-size="8px"></text><text class="label" x="595.9090909090908" y="115.87275394206085" font-size="8px"></text></g><g style="font-size: 13px;"><rect x="150" y="127.14154748808213" width="210.88123357821016" height="12.541254125412543" fill="#4472c4"></rect><rect x="150" y="140.34286762009532" width="233.0540236251854" height="12.541254125412543" fill="#ed7d31"></rect><rect x="150" y="153.54418775210854" width="234.39760396816644" height="12.541254125412543" fill="#a5a5a5"></rect><rect x="150" y="166.74550788412174" width="235.6370773346249" height="12.541254125412543" fill="#ffc000"></rect><rect x="150" y="179.94682801613493" width="361.28058265324" height="12.541254125412543" fill="#5b9bd5"></rect><text class="label" x="369.3812335782102" y="135.64154748808213" font-size="10px">1x</text><text class="label" x="391.55402362518544" y="148.84286762009532" font-size="10px">1.11x</text><text class="label" x="392.89760396816644" y="162.04418775210854" font-size="10px">1.11x</text><text class="label" x="394.1370773346249" y="175.24550788412174" font-size="10px">1.12x</text><text class="label" x="519.78058265324" y="188.44682801613493" font-size="10px">1.71x</text><text class="label" x="365.8812335782102" y="137.14154748808213" font-size="8px"></text><text class="label" x="388.05402362518544" y="150.34286762009532" font-size="8px"></text><text class="label" x="389.39760396816644" y="163.54418775210854" font-size="8px"></text><text class="label" x="390.6370773346249" y="176.74550788412174" font-size="8px"></text><text class="label" x="516.28058265324" y="189.94682801613493" font-size="8px"></text></g><g style="font-size: 13px;"><rect x="150" y="201.2156215621562" width="210.88123357821016" height="12.541254125412543" fill="#4472c4"></rect><rect x="150" y="214.4169416941694" width="259.3614704079498" height="12.541254125412543" fill="#ed7d31"></rect><rect x="150" y="227.61826182618262" width="276.82848388985917" height="12.541254125412543" fill="#a5a5a5"></rect><rect x="150" y="240.8195819581958" width="264.3170236787921" height="12.541254125412543" fill="#ffc000"></rect><rect x="150" y="254.020902090209" width="298.8839664709007" height="12.541254125412543" fill="#5b9bd5"></rect><text class="label" x="369.3812335782102" y="209.7156215621562" font-size="10px">1x</text><text class="label" x="417.8614704079498" y="222.9169416941694" font-size="10px">1.23x</text><text class="label" x="435.32848388985917" y="236.11826182618262" font-size="10px">1.31x</text><text class="label" x="422.8170236787921" y="249.3195819581958" font-size="10px">1.25x</text><text class="label" x="457.3839664709007" y="262.520902090209" font-size="10px">1.42x</text><text class="label" x="365.8812335782102" y="211.2156215621562" font-size="8px"></text><text class="label" x="414.3614704079498" y="224.4169416941694" font-size="8px"></text><text class="label" x="431.82848388985917" y="237.61826182618262" font-size="8px"></text><text class="label" x="419.3170236787921" y="250.8195819581958" font-size="8px"></text><text class="label" x="453.8839664709007" y="264.020902090209" font-size="8px"></text></g><g style="font-size: 13px;"><rect x="150" y="275.28969563623025" width="210.88123357821016" height="12.541254125412543" fill="#4472c4"></rect><rect x="150" y="288.49101576824347" width="321.04932068124293" height="12.541254125412543" fill="#ed7d31"></rect><rect x="150" y="301.6923359002567" width="309.53483356289894" height="12.541254125412543" fill="#a5a5a5"></rect><rect x="150" y="314.89365603226986" width="274.32618354089084" height="12.541254125412543" fill="#ffc000"></rect><rect x="150" y="328.0949761642831" width="216.601105460312" height="12.541254125412543" fill="#5b9bd5"></rect><text class="label" x="369.3812335782102" y="283.78969563623025" font-size="10px">1x</text><text class="label" x="479.54932068124293" y="296.99101576824347" font-size="10px">1.52x</text><text class="label" x="468.03483356289894" y="310.1923359002567" font-size="10px">1.47x</text><text class="label" x="432.82618354089084" y="323.39365603226986" font-size="10px">1.3x</text><text class="label" x="375.101105460312" y="336.5949761642831" font-size="10px">1.03x</text><text class="label" x="365.8812335782102" y="285.28969563623025" font-size="8px"></text><text class="label" x="476.04932068124293" y="298.49101576824347" font-size="8px"></text><text class="label" x="464.53483356289894" y="311.6923359002567" font-size="8px"></text><text class="label" x="429.32618354089084" y="324.89365603226986" font-size="8px"></text><text class="label" x="371.601105460312" y="338.0949761642831" font-size="8px"></text></g><g style="font-size: 13px;"><rect x="150" y="349.3637697103044" width="236.20505562939442" height="12.541254125412543" fill="#4472c4"></rect><rect x="150" y="362.56508984231755" width="232.5561322148243" height="12.541254125412543" fill="#ed7d31"></rect><rect x="150" y="375.76640997433077" width="212.79952400997973" height="12.541254125412543" fill="#a5a5a5"></rect><rect x="150" y="388.967730106344" width="210.88123357821016" height="12.541254125412543" fill="#ffc000"></rect><rect x="150" y="402.16905023835716" width="242.76336715029925" height="12.541254125412543" fill="#5b9bd5"></rect><text class="label" x="394.70505562939445" y="357.8637697103044" font-size="10px">1.12x</text><text class="label" x="391.0561322148243" y="371.06508984231755" font-size="10px">1.1x</text><text class="label" x="371.29952400997973" y="384.26640997433077" font-size="10px">1.01x</text><text class="label" x="369.3812335782102" y="397.467730106344" font-size="10px">1x</text><text class="label" x="401.26336715029925" y="410.66905023835716" font-size="10px">1.15x</text><text class="label" x="391.20505562939445" y="359.3637697103044" font-size="8px"></text><text class="label" x="387.5561322148243" y="372.56508984231755" font-size="8px"></text><text class="label" x="367.79952400997973" y="385.76640997433077" font-size="8px"></text><text class="label" x="365.8812335782102" y="398.967730106344" font-size="8px"></text><text class="label" x="397.76336715029925" y="412.16905023835716" font-size="8px"></text></g><g style="font-size: 13px;"><rect x="150" y="423.4378437843784" width="248.0281998806685" height="12.541254125412543" fill="#4472c4"></rect><rect x="150" y="436.6391639163916" width="339.58718220618056" height="12.541254125412543" fill="#ed7d31"></rect><rect x="150" y="449.84048404840485" width="316.0577226935908" height="12.541254125412543" fill="#a5a5a5"></rect><rect x="150" y="463.041804180418" width="229.55915265209458" height="12.541254125412543" fill="#ffc000"></rect><rect x="150" y="476.24312431243123" width="210.88123357821016" height="12.541254125412543" fill="#5b9bd5"></rect><text class="label" x="406.52819988066847" y="431.9378437843784" font-size="10px">1.18x</text><text class="label" x="498.08718220618056" y="445.1391639163916" font-size="10px">1.61x</text><text class="label" x="474.5577226935908" y="458.34048404840485" font-size="10px">1.5x</text><text class="label" x="388.05915265209455" y="471.541804180418" font-size="10px">1.09x</text><text class="label" x="369.3812335782102" y="484.74312431243123" font-size="10px">1x</text><text class="label" x="403.02819988066847" y="433.4378437843784" font-size="8px"></text><text class="label" x="494.58718220618056" y="446.6391639163916" font-size="8px"></text><text class="label" x="471.0577226935908" y="459.84048404840485" font-size="8px"></text><text class="label" x="384.55915265209455" y="473.041804180418" font-size="8px"></text><text class="label" x="365.8812335782102" y="486.24312431243123" font-size="8px"></text></g><g style="font-size: 13px;"><rect x="150" y="497.51191785845253" width="230.96189532269898" height="12.541254125412543" fill="#4472c4"></rect><rect x="150" y="510.7132379904657" width="268.6997374755333" height="12.541254125412543" fill="#ed7d31"></rect><rect x="150" y="523.9145581224789" width="271.2480527952751" height="12.541254125412543" fill="#a5a5a5"></rect><rect x="150" y="537.1158782544921" width="258.3610819319027" height="12.541254125412543" fill="#ffc000"></rect><rect x="150" y="550.3171983865053" width="210.88123357821016" height="12.541254125412543" fill="#5b9bd5"></rect><text class="label" x="389.461895322699" y="506.01191785845253" font-size="10px">1.1x</text><text class="label" x="427.1997374755333" y="519.2132379904657" font-size="10px">1.27x</text><text class="label" x="429.7480527952751" y="532.4145581224789" font-size="10px">1.29x</text><text class="label" x="416.8610819319027" y="545.6158782544921" font-size="10px">1.23x</text><text class="label" x="369.3812335782102" y="558.8171983865053" font-size="10px">1x</text><text class="label" x="385.961895322699" y="507.51191785845253" font-size="8px"></text><text class="label" x="423.6997374755333" y="520.7132379904657" font-size="8px"></text><text class="label" x="426.2480527952751" y="533.9145581224789" font-size="8px"></text><text class="label" x="413.3610819319027" y="547.1158782544921" font-size="8px"></text><text class="label" x="365.8812335782102" y="560.3171983865053" font-size="8px"></text></g><g style="font-size: 13px;"><rect x="150" y="571.5859919325266" width="281.47843856161825" height="12.541254125412543" fill="#4472c4"></rect><rect x="150" y="584.7873120645397" width="257.92087427178444" height="12.541254125412543" fill="#ed7d31"></rect><rect x="150" y="597.9886321965529" width="230.93340463808096" height="12.541254125412543" fill="#a5a5a5"></rect><rect x="150" y="611.1899523285662" width="223.69453815278197" height="12.541254125412543" fill="#ffc000"></rect><rect x="150" y="624.3912724605793" width="210.88123357821016" height="12.541254125412543" fill="#5b9bd5"></rect><text class="label" x="439.97843856161825" y="580.0859919325266" font-size="10px">1.33x</text><text class="label" x="416.42087427178444" y="593.2873120645397" font-size="10px">1.22x</text><text class="label" x="389.43340463808096" y="606.4886321965529" font-size="10px">1.1x</text><text class="label" x="382.194538152782" y="619.6899523285662" font-size="10px">1.06x</text><text class="label" x="369.3812335782102" y="632.8912724605793" font-size="10px">1x</text><text class="label" x="436.47843856161825" y="581.5859919325266" font-size="8px"></text><text class="label" x="412.92087427178444" y="594.7873120645397" font-size="8px"></text><text class="label" x="385.93340463808096" y="607.9886321965529" font-size="8px"></text><text class="label" x="378.694538152782" y="621.1899523285662" font-size="8px"></text><text class="label" x="365.8812335782102" y="634.3912724605793" font-size="8px"></text></g></g></svg>