<svg xmlns="http://www.w3.org/2000/svg" xmlns:xlink="http://www.w3.org/1999/xlink" width="800" height="914" style="background-color: white;"><g class="y axis" transform="translate(149,45)" fill="none" font-size="10" font-family="sans-serif" text-anchor="end" style="font-size: 13px;"><path class="domain" stroke="currentColor" d="M0.5,0.5V720.5"></path><g class="tick" opacity="1" transform="translate(0,48.88888888888886)" style="font-size: 13px;"><line stroke="currentColor" x2="0"></line><text fill="currentColor" x="-3" dy="0.32em">object (simple)    </text></g><g class="tick" opacity="1" transform="translate(0,137.77777777777774)" style="font-size: 13px;"><line stroke="currentColor" x2="0"></line><text fill="currentColor" x="-3" dy="0.32em">object (hierarchical)    </text></g><g class="tick" opacity="1" transform="translate(0,226.66666666666663)" style="font-size: 13px;"><line stroke="currentColor" x2="0"></line><text fill="currentColor" x="-3" dy="0.32em">object (recursive)    </text></g><g class="tick" opacity="1" transform="translate(0,315.5555555555555)" style="font-size: 13px;"><line stroke="currentColor" x2="0"></line><text fill="currentColor" x="-3" dy="0.32em">object (union, explicit)    </text></g><g class="tick" opacity="1" transform="translate(0,404.4444444444444)" style="font-size: 13px;"><line stroke="currentColor" x2="0"></line><text fill="currentColor" x="-3" dy="0.32em">array (simple)    </text></g><g class="tick" opacity="1" transform="translate(0,493.3333333333333)" style="font-size: 13px;"><line stroke="currentColor" x2="0"></line><text fill="currentColor" x="-3" dy="0.32em">array (hierarchical)    </text></g><g class="tick" opacity="1" transform="translate(0,582.2222222222222)" style="font-size: 13px;"><line stroke="currentColor" x2="0"></line><text fill="currentColor" x="-3" dy="0.32em">array (recursive)    </text></g><g class="tick" opacity="1" transform="translate(0,671.1111111111111)" style="font-size: 13px;"><line stroke="currentColor" x2="0"></line><text fill="currentColor" x="-3" dy="0.32em">array (union, explicit)    </text></g></g><g class="x axis" transform="translate(149,765)" fill="none" font-size="10" font-family="sans-serif" text-anchor="middle" style="font-size: 13px;"><path class="domain" stroke="currentColor" d="M0.5,0.5H485.5"></path><g class="tick" opacity="1" transform="translate(0.5,0)" style="font-size: 13px;"><line stroke="currentColor" y2="6"></line><text fill="currentColor" y="9" dy="0.71em">0x</text></g><g class="tick" opacity="1" transform="translate(100.01195413977914,0)" style="font-size: 13px;"><line stroke="currentColor" y2="6"></line><text fill="currentColor" y="9" dy="0.71em">50x</text></g><g class="tick" opacity="1" transform="translate(199.52390827955827,0)" style="font-size: 13px;"><line stroke="currentColor" y2="6"></line><text fill="currentColor" y="9" dy="0.71em">100x</text></g><g class="tick" opacity="1" transform="translate(299.0358624193374,0)" style="font-size: 13px;"><line stroke="currentColor" y2="6"></line><text fill="currentColor" y="9" dy="0.71em">150x</text></g><g class="tick" opacity="1" transform="translate(398.54781655911654,0)" style="font-size: 13px;"><line stroke="currentColor" y2="6"></line><text fill="currentColor" y="9" dy="0.71em">200x</text></g></g><text transform="translate(400, 30)" style="text-anchor: middle; font-size: 20px; font-weight: bold;">stringify benchmark</text><rect x="650" y="165" width="230" height="5" fill="gray"></rect><rect x="645" y="35" width="230" height="130" fill="none" stroke="black"></rect><rect x="655" y="45" width="10" height="10" style="fill: #4472c4;"></rect><text x="670" y="55" style="font-size: 12px;">typia.stringify</text><rect x="655" y="65" width="10" height="10" style="fill: #ed7d31;"></rect><text x="670" y="75" style="font-size: 12px;">typia.isStringify</text><rect x="655" y="85" width="10" height="10" style="fill: #a5a5a5;"></rect><text x="670" y="95" style="font-size: 12px;">typia.assertStringify</text><rect x="655" y="105" width="10" height="10" style="fill: #ffc000;"></rect><text x="670" y="115" style="font-size: 12px;">fast-json-stringify</text><rect x="655" y="125" width="10" height="10" style="fill: #5b9bd5;"></rect><text x="670" y="135" style="font-size: 12px;">JSON.stringify</text><rect x="655" y="145" width="10" height="10" style="fill: #70ad47;"></rect><text x="670" y="155" style="font-size: 12px;">class-transformer</text><text x="20" y="829" style="font-size: 12px;">  - CPU: 11th Gen Intel(R) Core(TM) i5-1135G7 @ 2.40GHz</text><text x="20" y="846" style="font-size: 12px;">  - OS: win32</text><text x="20" y="863" style="font-size: 12px;">  - RAM: 16 GB</text><text x="20" y="880" style="font-size: 12px;">  - NodeJS version: v16.20.0</text><text x="20" y="897" style="font-size: 12px;">  - Typia version: v3.8.6</text><g style="font-size: 13px;"><g style="font-size: 13px;"><rect x="150" y="54.55004591368224" width="440.9090909090908" height="12.56198347107438" fill="#4472c4"></rect><rect x="150" y="67.77318640955001" width="332.28249871251006" height="12.56198347107438" fill="#ed7d31"></rect><rect x="150" y="80.99632690541777" width="269.6191049909571" height="12.56198347107438" fill="#a5a5a5"></rect><rect x="150" y="94.21946740128556" width="159.40462885411165" height="12.56198347107438" fill="#ffc000"></rect><rect x="150" y="107.44260789715332" width="33.059162859993336" height="12.56198347107438" fill="#5b9bd5"></rect><rect x="150" y="120.66574839302109" width="1.9902390827955825" height="12.56198347107438" fill="#70ad47"></rect><text class="label" x="599.4090909090908" y="63.05004591368224" font-size="10px">222x</text><text class="label" x="490.78249871251006" y="76.27318640955001" font-size="10px">167x</text><text class="label" x="428.1191049909571" y="89.49632690541777" font-size="10px">135x</text><text class="label" x="317.90462885411165" y="102.71946740128556" font-size="10px">80x</text><text class="label" x="191.55916285999334" y="115.94260789715332" font-size="10px">17x</text><text class="label" x="160.49023908279557" y="129.1657483930211" font-size="10px">1x</text><text class="label" x="595.9090909090908" y="64.55004591368224" font-size="8px"></text><text class="label" x="487.28249871251006" y="77.77318640955001" font-size="8px"></text><text class="label" x="424.6191049909571" y="90.99632690541777" font-size="8px"></text><text class="label" x="314.40462885411165" y="104.21946740128556" font-size="8px"></text><text class="label" x="188.05916285999334" y="117.44260789715332" font-size="8px"></text><text class="label" x="156.99023908279557" y="130.6657483930211" font-size="8px"></text></g><g style="font-size: 13px;"><rect x="150" y="143.4389348025711" width="91.14671361255265" height="12.56198347107438" fill="#4472c4"></rect><rect x="150" y="156.66207529843888" width="85.71354457190493" height="12.56198347107438" fill="#ed7d31"></rect><rect x="150" y="169.88521579430665" width="84.40297131048509" height="12.56198347107438" fill="#a5a5a5"></rect><rect x="150" y="183.10835629017444" width="62.329040966487675" height="12.56198347107438" fill="#ffc000"></rect><rect x="150" y="196.3314967860422" width="24.579291458366573" height="12.56198347107438" fill="#5b9bd5"></rect><rect x="150" y="209.55463728190998" width="1.9902390827955825" height="12.56198347107438" fill="#70ad47"></rect><text class="label" x="249.64671361255265" y="151.9389348025711" font-size="10px">46x</text><text class="label" x="244.21354457190495" y="165.16207529843888" font-size="10px">43x</text><text class="label" x="242.9029713104851" y="178.38521579430665" font-size="10px">42x</text><text class="label" x="220.82904096648767" y="191.60835629017444" font-size="10px">31x</text><text class="label" x="183.07929145836658" y="204.8314967860422" font-size="10px">12x</text><text class="label" x="160.49023908279557" y="218.05463728190998" font-size="10px">1x</text><text class="label" x="246.14671361255265" y="153.4389348025711" font-size="8px"></text><text class="label" x="240.71354457190495" y="166.66207529843888" font-size="8px"></text><text class="label" x="239.4029713104851" y="179.88521579430665" font-size="8px"></text><text class="label" x="217.32904096648767" y="193.10835629017444" font-size="8px"></text><text class="label" x="179.57929145836658" y="206.3314967860422" font-size="8px"></text><text class="label" x="156.99023908279557" y="219.55463728190998" font-size="8px"></text></g><g style="font-size: 13px;"><rect x="150" y="232.32782369146003" width="143.28998489678324" height="12.56198347107438" fill="#4472c4"></rect><rect x="150" y="245.5509641873278" width="137.12036726734638" height="12.56198347107438" fill="#ed7d31"></rect><rect x="150" y="258.77410468319556" width="129.84202208068547" height="12.56198347107438" fill="#a5a5a5"></rect><rect x="150" y="271.9972451790633" width="30.93402752654203" height="12.56198347107438" fill="#ffc000"></rect><rect x="150" y="285.2203856749311" width="31.207453506941896" height="12.56198347107438" fill="#5b9bd5"></rect><rect x="150" y="298.44352617079886" width="1.9902390827955825" height="12.56198347107438" fill="#70ad47"></rect><text class="label" x="301.78998489678327" y="240.82782369146003" font-size="10px">72x</text><text class="label" x="295.6203672673464" y="254.0509641873278" font-size="10px">69x</text><text class="label" x="288.34202208068547" y="267.27410468319556" font-size="10px">65x</text><text class="label" x="189.43402752654202" y="280.4972451790633" font-size="10px">16x</text><text class="label" x="189.7074535069419" y="293.7203856749311" font-size="10px">16x</text><text class="label" x="160.49023908279557" y="306.94352617079886" font-size="10px">1x</text><text class="label" x="298.28998489678327" y="242.32782369146003" font-size="8px"></text><text class="label" x="292.1203672673464" y="255.5509641873278" font-size="8px"></text><text class="label" x="284.84202208068547" y="268.77410468319556" font-size="8px"></text><text class="label" x="185.93402752654202" y="281.9972451790633" font-size="8px"></text><text class="label" x="186.2074535069419" y="295.2203856749311" font-size="8px"></text><text class="label" x="156.99023908279557" y="308.44352617079886" font-size="8px"></text></g><g style="font-size: 13px;"><rect x="150" y="321.2167125803489" width="110.70161073329504" height="12.56198347107438" fill="#4472c4"></rect><rect x="150" y="334.43985307621665" width="96.43391979888847" height="12.56198347107438" fill="#ed7d31"></rect><rect x="150" y="347.6629935720844" width="96.41966026933869" height="12.56198347107438" fill="#a5a5a5"></rect><rect x="150" y="360.8861340679522" width="69.87877905362569" height="12.56198347107438" fill="#ffc000"></rect><rect x="150" y="374.10927456381995" width="51.00911165010528" height="12.56198347107438" fill="#5b9bd5"></rect><rect x="150" y="387.3324150596877" width="1.9902390827955825" height="12.56198347107438" fill="#70ad47"></rect><text class="label" x="269.20161073329507" y="329.7167125803489" font-size="10px">56x</text><text class="label" x="254.93391979888847" y="342.93985307621665" font-size="10px">48x</text><text class="label" x="254.9196602693387" y="356.1629935720844" font-size="10px">48x</text><text class="label" x="228.3787790536257" y="369.3861340679522" font-size="10px">35x</text><text class="label" x="209.5091116501053" y="382.60927456381995" font-size="10px">26x</text><text class="label" x="160.49023908279557" y="395.8324150596877" font-size="10px">1x</text><text class="label" x="265.70161073329507" y="331.2167125803489" font-size="8px"></text><text class="label" x="251.43391979888847" y="344.43985307621665" font-size="8px"></text><text class="label" x="251.4196602693387" y="357.6629935720844" font-size="8px"></text><text class="label" x="224.8787790536257" y="370.8861340679522" font-size="8px"></text><text class="label" x="206.0091116501053" y="384.10927456381995" font-size="8px"></text><text class="label" x="156.99023908279557" y="397.3324150596877" font-size="8px"></text></g><g style="font-size: 13px;"><rect x="150" y="410.1056014692378" width="53.9235404102865" height="12.56198347107438" fill="#4472c4"></rect><rect x="150" y="423.32874196510556" width="51.50150961913125" height="12.56198347107438" fill="#ed7d31"></rect><rect x="150" y="436.55188246097333" width="50.688354693848446" height="12.56198347107438" fill="#a5a5a5"></rect><rect x="150" y="449.7750229568411" width="75.01826477736103" height="12.56198347107438" fill="#ffc000"></rect><rect x="150" y="462.99816345270887" width="35.43910368782442" height="12.56198347107438" fill="#5b9bd5"></rect><rect x="150" y="476.22130394857663" width="1.9902390827955825" height="12.56198347107438" fill="#70ad47"></rect><text class="label" x="212.4235404102865" y="418.6056014692378" font-size="10px">27x</text><text class="label" x="210.00150961913124" y="431.82874196510556" font-size="10px">26x</text><text class="label" x="209.18835469384845" y="445.05188246097333" font-size="10px">25x</text><text class="label" x="233.51826477736103" y="458.2750229568411" font-size="10px">38x</text><text class="label" x="193.93910368782443" y="471.49816345270887" font-size="10px">18x</text><text class="label" x="160.49023908279557" y="484.72130394857663" font-size="10px">1x</text><text class="label" x="208.9235404102865" y="420.1056014692378" font-size="8px"></text><text class="label" x="206.50150961913124" y="433.32874196510556" font-size="8px"></text><text class="label" x="205.68835469384845" y="446.55188246097333" font-size="8px"></text><text class="label" x="230.01826477736103" y="459.7750229568411" font-size="8px"></text><text class="label" x="190.43910368782443" y="472.99816345270887" font-size="8px"></text><text class="label" x="156.99023908279557" y="486.22130394857663" font-size="8px"></text></g><g style="font-size: 13px;"><rect x="150" y="498.9944903581267" width="89.54187963017428" height="12.56198347107438" fill="#4472c4"></rect><rect x="150" y="512.2176308539945" width="88.57939856985006" height="12.56198347107438" fill="#ed7d31"></rect><rect x="150" y="525.4407713498622" width="90.51479362158227" height="12.56198347107438" fill="#a5a5a5"></rect><rect x="150" y="538.66391184573" width="123.14274467029932" height="12.56198347107438" fill="#ffc000"></rect><rect x="150" y="551.8870523415978" width="40.79510388413856" height="12.56198347107438" fill="#5b9bd5"></rect><rect x="150" y="565.1101928374655" width="1.9902390827955825" height="12.56198347107438" fill="#70ad47"></rect><text class="label" x="248.04187963017426" y="507.4944903581267" font-size="10px">45x</text><text class="label" x="247.07939856985007" y="520.7176308539945" font-size="10px">45x</text><text class="label" x="249.01479362158227" y="533.9407713498622" font-size="10px">45x</text><text class="label" x="281.6427446702993" y="547.16391184573" font-size="10px">62x</text><text class="label" x="199.29510388413857" y="560.3870523415978" font-size="10px">20x</text><text class="label" x="160.49023908279557" y="573.6101928374655" font-size="10px">1x</text><text class="label" x="244.54187963017426" y="508.9944903581267" font-size="8px"></text><text class="label" x="243.57939856985007" y="522.2176308539945" font-size="8px"></text><text class="label" x="245.51479362158227" y="535.4407713498622" font-size="8px"></text><text class="label" x="278.1427446702993" y="548.66391184573" font-size="8px"></text><text class="label" x="195.79510388413857" y="561.8870523415978" font-size="8px"></text><text class="label" x="156.99023908279557" y="575.1101928374655" font-size="8px"></text></g><g style="font-size: 13px;"><rect x="150" y="587.8833792470156" width="67.67467818565778" height="12.56198347107438" fill="#4472c4"></rect><rect x="150" y="601.1065197428833" width="68.05349408206924" height="12.56198347107438" fill="#ed7d31"></rect><rect x="150" y="614.3296602387511" width="68.66601768519698" height="12.56198347107438" fill="#a5a5a5"></rect><rect x="150" y="627.5528007346188" width="33.35260311103233" height="12.56198347107438" fill="#ffc000"></rect><rect x="150" y="640.7759412304866" width="33.99143306363739" height="12.56198347107438" fill="#5b9bd5"></rect><rect x="150" y="653.9990817263545" width="1.9902390827955825" height="12.56198347107438" fill="#70ad47"></rect><text class="label" x="226.1746781856578" y="596.3833792470156" font-size="10px">34x</text><text class="label" x="226.55349408206922" y="609.6065197428833" font-size="10px">34x</text><text class="label" x="227.16601768519698" y="622.8296602387511" font-size="10px">35x</text><text class="label" x="191.85260311103232" y="636.0528007346188" font-size="10px">17x</text><text class="label" x="192.49143306363737" y="649.2759412304866" font-size="10px">17x</text><text class="label" x="160.49023908279557" y="662.4990817263545" font-size="10px">1x</text><text class="label" x="222.6746781856578" y="597.8833792470156" font-size="8px"></text><text class="label" x="223.05349408206922" y="611.1065197428833" font-size="8px"></text><text class="label" x="223.66601768519698" y="624.3296602387511" font-size="8px"></text><text class="label" x="188.35260311103232" y="637.5528007346188" font-size="8px"></text><text class="label" x="188.99143306363737" y="650.7759412304866" font-size="8px"></text><text class="label" x="156.99023908279557" y="663.9990817263545" font-size="8px"></text></g><g style="font-size: 13px;"><rect x="150" y="676.7722681359045" width="61.60297390522221" height="12.56198347107438" fill="#4472c4"></rect><rect x="150" y="689.9954086317722" width="57.805806319512435" height="12.56198347107438" fill="#ed7d31"></rect><rect x="150" y="703.21854912764" width="59.26950332161701" height="12.56198347107438" fill="#a5a5a5"></rect><rect x="150" y="716.4416896235077" width="43.48613211674321" height="12.56198347107438" fill="#ffc000"></rect><rect x="150" y="729.6648301193756" width="48.43970306109707" height="12.56198347107438" fill="#5b9bd5"></rect><rect x="150" y="742.8879706152434" width="1.9902390827955825" height="12.56198347107438" fill="#70ad47"></rect><text class="label" x="220.1029739052222" y="685.2722681359045" font-size="10px">31x</text><text class="label" x="216.30580631951244" y="698.4954086317722" font-size="10px">29x</text><text class="label" x="217.769503321617" y="711.71854912764" font-size="10px">30x</text><text class="label" x="201.9861321167432" y="724.9416896235077" font-size="10px">22x</text><text class="label" x="206.93970306109708" y="738.1648301193756" font-size="10px">24x</text><text class="label" x="160.49023908279557" y="751.3879706152434" font-size="10px">1x</text><text class="label" x="216.6029739052222" y="686.7722681359045" font-size="8px"></text><text class="label" x="212.80580631951244" y="699.9954086317722" font-size="8px"></text><text class="label" x="214.269503321617" y="713.21854912764" font-size="8px"></text><text class="label" x="198.4861321167432" y="726.4416896235077" font-size="8px"></text><text class="label" x="203.43970306109708" y="739.6648301193756" font-size="8px"></text><text class="label" x="156.99023908279557" y="752.8879706152434" font-size="8px"></text></g></g></svg>