<svg xmlns="http://www.w3.org/2000/svg" xmlns:xlink="http://www.w3.org/1999/xlink" width="800" height="795" style="background-color: white;"><g class="y axis" transform="translate(149,45)" fill="none" font-size="10" font-family="sans-serif" text-anchor="end" style="font-size: 13px;"><path class="domain" stroke="currentColor" d="M0.5,0.5V720.5"></path><g class="tick" opacity="1" transform="translate(0,48.88888888888886)" style="font-size: 13px;"><line stroke="currentColor" x2="0"></line><text fill="currentColor" x="-3" dy="0.32em">object (simple)    </text></g><g class="tick" opacity="1" transform="translate(0,137.77777777777774)" style="font-size: 13px;"><line stroke="currentColor" x2="0"></line><text fill="currentColor" x="-3" dy="0.32em">object (hierarchical)    </text></g><g class="tick" opacity="1" transform="translate(0,226.66666666666663)" style="font-size: 13px;"><line stroke="currentColor" x2="0"></line><text fill="currentColor" x="-3" dy="0.32em">object (recursive)    </text></g><g class="tick" opacity="1" transform="translate(0,315.5555555555555)" style="font-size: 13px;"><line stroke="currentColor" x2="0"></line><text fill="currentColor" x="-3" dy="0.32em">object (union, explicit)    </text></g><g class="tick" opacity="1" transform="translate(0,404.4444444444444)" style="font-size: 13px;"><line stroke="currentColor" x2="0"></line><text fill="currentColor" x="-3" dy="0.32em">array (simple)    </text></g><g class="tick" opacity="1" transform="translate(0,493.3333333333333)" style="font-size: 13px;"><line stroke="currentColor" x2="0"></line><text fill="currentColor" x="-3" dy="0.32em">array (hierarchical)    </text></g><g class="tick" opacity="1" transform="translate(0,582.2222222222222)" style="font-size: 13px;"><line stroke="currentColor" x2="0"></line><text fill="currentColor" x="-3" dy="0.32em">array (recursive)    </text></g><g class="tick" opacity="1" transform="translate(0,671.1111111111111)" style="font-size: 13px;"><line stroke="currentColor" x2="0"></line><text fill="currentColor" x="-3" dy="0.32em">array (union, explicit)    </text></g></g><g class="x axis" transform="translate(149,765)" fill="none" font-size="10" font-family="sans-serif" text-anchor="middle" style="font-size: 13px;"><path class="domain" stroke="currentColor" d="M0.5,0.5H485.5"></path><g class="tick" opacity="1" transform="translate(0.5,0)" style="font-size: 13px;"><line stroke="currentColor" y2="6"></line><text fill="currentColor" y="9" dy="0.71em">0x</text></g><g class="tick" opacity="1" transform="translate(104.0728720126385,0)" style="font-size: 13px;"><line stroke="currentColor" y2="6"></line><text fill="currentColor" y="9" dy="0.71em">50x</text></g><g class="tick" opacity="1" transform="translate(207.645744025277,0)" style="font-size: 13px;"><line stroke="currentColor" y2="6"></line><text fill="currentColor" y="9" dy="0.71em">100x</text></g><g class="tick" opacity="1" transform="translate(311.21861603791547,0)" style="font-size: 13px;"><line stroke="currentColor" y2="6"></line><text fill="currentColor" y="9" dy="0.71em">150x</text></g><g class="tick" opacity="1" transform="translate(414.791488050554,0)" style="font-size: 13px;"><line stroke="currentColor" y2="6"></line><text fill="currentColor" y="9" dy="0.71em">200x</text></g></g><text transform="translate(400, 30)" style="text-anchor: middle; font-size: 20px; font-weight: bold;">stringify benchmark</text><rect x="650" y="165" width="230" height="5" fill="gray"></rect><rect x="645" y="35" width="230" height="130" fill="none" stroke="black"></rect><rect x="655" y="45" width="10" height="10" style="fill: #4472c4;"></rect><text x="670" y="55" style="font-size: 12px;">typia.stringify</text><rect x="655" y="65" width="10" height="10" style="fill: #ed7d31;"></rect><text x="670" y="75" style="font-size: 12px;">typia.isStringify</text><rect x="655" y="85" width="10" height="10" style="fill: #a5a5a5;"></rect><text x="670" y="95" style="font-size: 12px;">typia.assertStringify</text><rect x="655" y="105" width="10" height="10" style="fill: #ffc000;"></rect><text x="670" y="115" style="font-size: 12px;">fast-json-stringify</text><rect x="655" y="125" width="10" height="10" style="fill: #5b9bd5;"></rect><text x="670" y="135" style="font-size: 12px;">JSON.stringify</text><rect x="655" y="145" width="10" height="10" style="fill: #70ad47;"></rect><text x="670" y="155" style="font-size: 12px;">class-transformer</text><g style="font-size: 13px;"><g style="font-size: 13px;"><rect x="150" y="54.55004591368224" width="440.9090909090909" height="12.56198347107438" fill="#4472c4"></rect><rect x="150" y="67.77318640955001" width="331.62148093544255" height="12.56198347107438" fill="#ed7d31"></rect><rect x="150" y="80.99632690541777" width="191.2418764049348" height="12.56198347107438" fill="#a5a5a5"></rect><rect x="150" y="94.21946740128556" width="145.92722646581754" height="12.56198347107438" fill="#ffc000"></rect><rect x="150" y="107.44260789715332" width="30.07128573623821" height="12.56198347107438" fill="#5b9bd5"></rect><rect x="150" y="120.66574839302109" width="2.07145744025277" height="12.56198347107438" fill="#70ad47"></rect><text class="label" x="599.4090909090909" y="63.05004591368224" font-size="10px">213x</text><text class="label" x="490.12148093544255" y="76.27318640955001" font-size="10px">160x</text><text class="label" x="349.7418764049348" y="89.49632690541777" font-size="10px">92x</text><text class="label" x="304.4272264658175" y="102.71946740128556" font-size="10px">70x</text><text class="label" x="188.57128573623822" y="115.94260789715332" font-size="10px">15x</text><text class="label" x="160.57145744025277" y="129.1657483930211" font-size="10px">1x</text><text class="label" x="595.9090909090909" y="64.55004591368224" font-size="8px"></text><text class="label" x="486.62148093544255" y="77.77318640955001" font-size="8px"></text><text class="label" x="346.2418764049348" y="90.99632690541777" font-size="8px"></text><text class="label" x="300.9272264658175" y="104.21946740128556" font-size="8px"></text><text class="label" x="185.07128573623822" y="117.44260789715332" font-size="8px"></text><text class="label" x="157.07145744025277" y="130.6657483930211" font-size="8px"></text></g><g style="font-size: 13px;"><rect x="150" y="143.4389348025711" width="93.62781175411902" height="12.56198347107438" fill="#4472c4"></rect><rect x="150" y="156.66207529843888" width="87.3811602737439" height="12.56198347107438" fill="#ed7d31"></rect><rect x="150" y="169.88521579430665" width="78.86699402170211" height="12.56198347107438" fill="#a5a5a5"></rect><rect x="150" y="183.10835629017444" width="103.95095777036492" height="12.56198347107438" fill="#ffc000"></rect><rect x="150" y="196.3314967860422" width="24.42618761832916" height="12.56198347107438" fill="#5b9bd5"></rect><rect x="150" y="209.55463728190998" width="2.07145744025277" height="12.56198347107438" fill="#70ad47"></rect><text class="label" x="252.12781175411902" y="151.9389348025711" font-size="10px">45x</text><text class="label" x="245.8811602737439" y="165.16207529843888" font-size="10px">42x</text><text class="label" x="237.3669940217021" y="178.38521579430665" font-size="10px">38x</text><text class="label" x="262.45095777036494" y="191.60835629017444" font-size="10px">50x</text><text class="label" x="182.92618761832915" y="204.8314967860422" font-size="10px">12x</text><text class="label" x="160.57145744025277" y="218.05463728190998" font-size="10px">1x</text><text class="label" x="248.62781175411902" y="153.4389348025711" font-size="8px"></text><text class="label" x="242.3811602737439" y="166.66207529843888" font-size="8px"></text><text class="label" x="233.8669940217021" y="179.88521579430665" font-size="8px"></text><text class="label" x="258.95095777036494" y="193.10835629017444" font-size="8px"></text><text class="label" x="179.42618761832915" y="206.3314967860422" font-size="8px"></text><text class="label" x="157.07145744025277" y="219.55463728190998" font-size="8px"></text></g><g style="font-size: 13px;"><rect x="150" y="232.32782369146003" width="165.2455737311788" height="12.56198347107438" fill="#4472c4"></rect><rect x="150" y="245.5509641873278" width="157.37016698990098" height="12.56198347107438" fill="#ed7d31"></rect><rect x="150" y="258.77410468319556" width="136.63138719335623" height="12.56198347107438" fill="#a5a5a5"></rect><rect x="150" y="271.9972451790633" width="30.09513268390095" height="12.56198347107438" fill="#ffc000"></rect><rect x="150" y="285.2203856749311" width="31.486983843289032" height="12.56198347107438" fill="#5b9bd5"></rect><rect x="150" y="298.44352617079886" width="2.07145744025277" height="12.56198347107438" fill="#70ad47"></rect><text class="label" x="323.7455737311788" y="240.82782369146003" font-size="10px">80x</text><text class="label" x="315.870166989901" y="254.0509641873278" font-size="10px">76x</text><text class="label" x="295.1313871933562" y="267.27410468319556" font-size="10px">66x</text><text class="label" x="188.59513268390094" y="280.4972451790633" font-size="10px">15x</text><text class="label" x="189.98698384328904" y="293.7203856749311" font-size="10px">15x</text><text class="label" x="160.57145744025277" y="306.94352617079886" font-size="10px">1x</text><text class="label" x="320.2455737311788" y="242.32782369146003" font-size="8px"></text><text class="label" x="312.370166989901" y="255.5509641873278" font-size="8px"></text><text class="label" x="291.6313871933562" y="268.77410468319556" font-size="8px"></text><text class="label" x="185.09513268390094" y="281.9972451790633" font-size="8px"></text><text class="label" x="186.48698384328904" y="295.2203856749311" font-size="8px"></text><text class="label" x="157.07145744025277" y="308.44352617079886" font-size="8px"></text></g><g style="font-size: 13px;"><rect x="150" y="321.2167125803489" width="106.53822444091291" height="12.56198347107438" fill="#4472c4"></rect><rect x="150" y="334.43985307621665" width="90.96431587473313" height="12.56198347107438" fill="#ed7d31"></rect><rect x="150" y="347.6629935720844" width="75.72045032525399" height="12.56198347107438" fill="#a5a5a5"></rect><rect x="150" y="360.8861340679522" width="65.44177723584599" height="12.56198347107438" fill="#ffc000"></rect><rect x="150" y="374.10927456381995" width="48.082340509549034" height="12.56198347107438" fill="#5b9bd5"></rect><rect x="150" y="387.3324150596877" width="2.07145744025277" height="12.56198347107438" fill="#70ad47"></rect><text class="label" x="265.0382244409129" y="329.7167125803489" font-size="10px">51x</text><text class="label" x="249.46431587473313" y="342.93985307621665" font-size="10px">44x</text><text class="label" x="234.22045032525398" y="356.1629935720844" font-size="10px">37x</text><text class="label" x="223.941777235846" y="369.3861340679522" font-size="10px">32x</text><text class="label" x="206.58234050954903" y="382.60927456381995" font-size="10px">23x</text><text class="label" x="160.57145744025277" y="395.8324150596877" font-size="10px">1x</text><text class="label" x="261.5382244409129" y="331.2167125803489" font-size="8px"></text><text class="label" x="245.96431587473313" y="344.43985307621665" font-size="8px"></text><text class="label" x="230.72045032525398" y="357.6629935720844" font-size="8px"></text><text class="label" x="220.441777235846" y="370.8861340679522" font-size="8px"></text><text class="label" x="203.08234050954903" y="384.10927456381995" font-size="8px"></text><text class="label" x="157.07145744025277" y="397.3324150596877" font-size="8px"></text></g><g style="font-size: 13px;"><rect x="150" y="410.1056014692378" width="43.69794268461336" height="12.56198347107438" fill="#4472c4"></rect><rect x="150" y="423.32874196510556" width="31.88082872156501" height="12.56198347107438" fill="#ed7d31"></rect><rect x="150" y="436.55188246097333" width="43.28349871465063" height="12.56198347107438" fill="#a5a5a5"></rect><rect x="150" y="449.7750229568411" width="135.6493093449966" height="12.56198347107438" fill="#ffc000"></rect><rect x="150" y="462.99816345270887" width="41.47489332862426" height="12.56198347107438" fill="#5b9bd5"></rect><rect x="150" y="476.22130394857663" width="2.07145744025277" height="12.56198347107438" fill="#70ad47"></rect><text class="label" x="202.19794268461337" y="418.6056014692378" font-size="10px">21x</text><text class="label" x="190.38082872156502" y="431.82874196510556" font-size="10px">15x</text><text class="label" x="201.78349871465062" y="445.05188246097333" font-size="10px">21x</text><text class="label" x="294.1493093449966" y="458.2750229568411" font-size="10px">65x</text><text class="label" x="199.97489332862426" y="471.49816345270887" font-size="10px">20x</text><text class="label" x="160.57145744025277" y="484.72130394857663" font-size="10px">1x</text><text class="label" x="198.69794268461337" y="420.1056014692378" font-size="8px"></text><text class="label" x="186.88082872156502" y="433.32874196510556" font-size="8px"></text><text class="label" x="198.28349871465062" y="446.55188246097333" font-size="8px"></text><text class="label" x="290.6493093449966" y="459.7750229568411" font-size="8px"></text><text class="label" x="196.47489332862426" y="472.99816345270887" font-size="8px"></text><text class="label" x="157.07145744025277" y="486.22130394857663" font-size="8px"></text></g><g style="font-size: 13px;"><rect x="150" y="498.9944903581267" width="85.46785691267597" height="12.56198347107438" fill="#4472c4"></rect><rect x="150" y="512.2176308539945" width="92.22689814174163" height="12.56198347107438" fill="#ed7d31"></rect><rect x="150" y="525.4407713498622" width="64.08830173639554" height="12.56198347107438" fill="#a5a5a5"></rect><rect x="150" y="538.66391184573" width="133.3768358551297" height="12.56198347107438" fill="#ffc000"></rect><rect x="150" y="551.8870523415978" width="34.63654160281486" height="12.56198347107438" fill="#5b9bd5"></rect><rect x="150" y="565.1101928374655" width="2.07145744025277" height="12.56198347107438" fill="#70ad47"></rect><text class="label" x="243.96785691267598" y="507.4944903581267" font-size="10px">41x</text><text class="label" x="250.72689814174163" y="520.7176308539945" font-size="10px">45x</text><text class="label" x="222.58830173639552" y="533.9407713498622" font-size="10px">31x</text><text class="label" x="291.8768358551297" y="547.16391184573" font-size="10px">64x</text><text class="label" x="193.13654160281487" y="560.3870523415978" font-size="10px">17x</text><text class="label" x="160.57145744025277" y="573.6101928374655" font-size="10px">1x</text><text class="label" x="240.46785691267598" y="508.9944903581267" font-size="8px"></text><text class="label" x="247.22689814174163" y="522.2176308539945" font-size="8px"></text><text class="label" x="219.08830173639552" y="535.4407713498622" font-size="8px"></text><text class="label" x="288.3768358551297" y="548.66391184573" font-size="8px"></text><text class="label" x="189.63654160281487" y="561.8870523415978" font-size="8px"></text><text class="label" x="157.07145744025277" y="575.1101928374655" font-size="8px"></text></g><g style="font-size: 13px;"><rect x="150" y="587.8833792470156" width="69.1409200122814" height="12.56198347107438" fill="#4472c4"></rect><rect x="150" y="601.1065197428833" width="68.35802598834407" height="12.56198347107438" fill="#ed7d31"></rect><rect x="150" y="614.3296602387511" width="63.48881561607714" height="12.56198347107438" fill="#a5a5a5"></rect><rect x="150" y="627.5528007346188" width="32.171489426393194" height="12.56198347107438" fill="#ffc000"></rect><rect x="150" y="640.7759412304866" width="32.943696936277675" height="12.56198347107438" fill="#5b9bd5"></rect><rect x="150" y="653.9990817263545" width="2.07145744025277" height="12.56198347107438" fill="#70ad47"></rect><text class="label" x="227.6409200122814" y="596.3833792470156" font-size="10px">33x</text><text class="label" x="226.85802598834408" y="609.6065197428833" font-size="10px">33x</text><text class="label" x="221.98881561607715" y="622.8296602387511" font-size="10px">31x</text><text class="label" x="190.67148942639318" y="636.0528007346188" font-size="10px">16x</text><text class="label" x="191.44369693627766" y="649.2759412304866" font-size="10px">16x</text><text class="label" x="160.57145744025277" y="662.4990817263545" font-size="10px">1x</text><text class="label" x="224.1409200122814" y="597.8833792470156" font-size="8px"></text><text class="label" x="223.35802598834408" y="611.1065197428833" font-size="8px"></text><text class="label" x="218.48881561607715" y="624.3296602387511" font-size="8px"></text><text class="label" x="187.17148942639318" y="637.5528007346188" font-size="8px"></text><text class="label" x="187.94369693627766" y="650.7759412304866" font-size="8px"></text><text class="label" x="157.07145744025277" y="663.9990817263545" font-size="8px"></text></g><g style="font-size: 13px;"><rect x="150" y="676.7722681359045" width="59.162971040053876" height="12.56198347107438" fill="#4472c4"></rect><rect x="150" y="689.9954086317722" width="57.4594849158992" height="12.56198347107438" fill="#ed7d31"></rect><rect x="150" y="703.21854912764" width="54.304533170955615" height="12.56198347107438" fill="#a5a5a5"></rect><rect x="150" y="716.4416896235077" width="42.6758575219379" height="12.56198347107438" fill="#ffc000"></rect><rect x="150" y="729.6648301193756" width="47.030714966405604" height="12.56198347107438" fill="#5b9bd5"></rect><rect x="150" y="742.8879706152434" width="2.07145744025277" height="12.56198347107438" fill="#70ad47"></rect><text class="label" x="217.6629710400539" y="685.2722681359045" font-size="10px">29x</text><text class="label" x="215.9594849158992" y="698.4954086317722" font-size="10px">28x</text><text class="label" x="212.8045331709556" y="711.71854912764" font-size="10px">26x</text><text class="label" x="201.1758575219379" y="724.9416896235077" font-size="10px">21x</text><text class="label" x="205.5307149664056" y="738.1648301193756" font-size="10px">23x</text><text class="label" x="160.57145744025277" y="751.3879706152434" font-size="10px">1x</text><text class="label" x="214.1629710400539" y="686.7722681359045" font-size="8px"></text><text class="label" x="212.4594849158992" y="699.9954086317722" font-size="8px"></text><text class="label" x="209.3045331709556" y="713.21854912764" font-size="8px"></text><text class="label" x="197.6758575219379" y="726.4416896235077" font-size="8px"></text><text class="label" x="202.0307149664056" y="739.6648301193756" font-size="8px"></text><text class="label" x="157.07145744025277" y="752.8879706152434" font-size="8px"></text></g></g></svg>