<svg xmlns="http://www.w3.org/2000/svg" xmlns:xlink="http://www.w3.org/1999/xlink" width="800" height="914" style="background-color: white;"><g class="y axis" transform="translate(149,45)" fill="none" font-size="10" font-family="sans-serif" text-anchor="end" style="font-size: 13px;"><path class="domain" stroke="currentColor" d="M0.5,0.5V720.5"></path><g class="tick" opacity="1" transform="translate(0,48.88888888888886)" style="font-size: 13px;"><line stroke="currentColor" x2="0"></line><text fill="currentColor" x="-3" dy="0.32em">object (simple)    </text></g><g class="tick" opacity="1" transform="translate(0,137.77777777777774)" style="font-size: 13px;"><line stroke="currentColor" x2="0"></line><text fill="currentColor" x="-3" dy="0.32em">object (hierarchical)    </text></g><g class="tick" opacity="1" transform="translate(0,226.66666666666663)" style="font-size: 13px;"><line stroke="currentColor" x2="0"></line><text fill="currentColor" x="-3" dy="0.32em">object (recursive)    </text></g><g class="tick" opacity="1" transform="translate(0,315.5555555555555)" style="font-size: 13px;"><line stroke="currentColor" x2="0"></line><text fill="currentColor" x="-3" dy="0.32em">object (union, explicit)    </text></g><g class="tick" opacity="1" transform="translate(0,404.4444444444444)" style="font-size: 13px;"><line stroke="currentColor" x2="0"></line><text fill="currentColor" x="-3" dy="0.32em">array (simple)    </text></g><g class="tick" opacity="1" transform="translate(0,493.3333333333333)" style="font-size: 13px;"><line stroke="currentColor" x2="0"></line><text fill="currentColor" x="-3" dy="0.32em">array (hierarchical)    </text></g><g class="tick" opacity="1" transform="translate(0,582.2222222222222)" style="font-size: 13px;"><line stroke="currentColor" x2="0"></line><text fill="currentColor" x="-3" dy="0.32em">array (recursive)    </text></g><g class="tick" opacity="1" transform="translate(0,671.1111111111111)" style="font-size: 13px;"><line stroke="currentColor" x2="0"></line><text fill="currentColor" x="-3" dy="0.32em">array (union, explicit)    </text></g></g><g class="x axis" transform="translate(149,765)" fill="none" font-size="10" font-family="sans-serif" text-anchor="middle" style="font-size: 13px;"><path class="domain" stroke="currentColor" d="M0.5,0.5H485.5"></path><g class="tick" opacity="1" transform="translate(0.5,0)" style="font-size: 13px;"><line stroke="currentColor" y2="6"></line><text fill="currentColor" y="9" dy="0.71em">0x</text></g><g class="tick" opacity="1" transform="translate(113.87153116339294,0)" style="font-size: 13px;"><line stroke="currentColor" y2="6"></line><text fill="currentColor" y="9" dy="0.71em">50x</text></g><g class="tick" opacity="1" transform="translate(227.2430623267859,0)" style="font-size: 13px;"><line stroke="currentColor" y2="6"></line><text fill="currentColor" y="9" dy="0.71em">100x</text></g><g class="tick" opacity="1" transform="translate(340.61459349017883,0)" style="font-size: 13px;"><line stroke="currentColor" y2="6"></line><text fill="currentColor" y="9" dy="0.71em">150x</text></g><g class="tick" opacity="1" transform="translate(453.9861246535718,0)" style="font-size: 13px;"><line stroke="currentColor" y2="6"></line><text fill="currentColor" y="9" dy="0.71em">200x</text></g></g><text transform="translate(400, 30)" style="text-anchor: middle; font-size: 20px; font-weight: bold;">stringify benchmark</text><rect x="650" y="165" width="230" height="5" fill="gray"></rect><rect x="645" y="35" width="230" height="130" fill="none" stroke="black"></rect><rect x="655" y="45" width="10" height="10" style="fill: #4472c4;"></rect><text x="670" y="55" style="font-size: 12px;">typia.stringify</text><rect x="655" y="65" width="10" height="10" style="fill: #ed7d31;"></rect><text x="670" y="75" style="font-size: 12px;">typia.isStringify</text><rect x="655" y="85" width="10" height="10" style="fill: #a5a5a5;"></rect><text x="670" y="95" style="font-size: 12px;">typia.assertStringify</text><rect x="655" y="105" width="10" height="10" style="fill: #ffc000;"></rect><text x="670" y="115" style="font-size: 12px;">fast-json-stringify</text><rect x="655" y="125" width="10" height="10" style="fill: #5b9bd5;"></rect><text x="670" y="135" style="font-size: 12px;">JSON.stringify</text><rect x="655" y="145" width="10" height="10" style="fill: #70ad47;"></rect><text x="670" y="155" style="font-size: 12px;">class-transformer</text><text x="20" y="829" style="font-size: 12px;">  - CPU: 11th Gen Intel(R) Core(TM) i5-1135G7 @ 2.40GHz</text><text x="20" y="846" style="font-size: 12px;">  - OS: win32</text><text x="20" y="863" style="font-size: 12px;">  - RAM: 16 GB</text><text x="20" y="880" style="font-size: 12px;">  - NodeJS version: v16.20.0</text><text x="20" y="897" style="font-size: 12px;">  - Typia version: v3.8.6</text><g style="font-size: 13px;"><g style="font-size: 13px;"><rect x="150" y="54.55004591368224" width="440.9090909090909" height="12.56198347107438" fill="#4472c4"></rect><rect x="150" y="67.77318640955001" width="378.151857179165" height="12.56198347107438" fill="#ed7d31"></rect><rect x="150" y="80.99632690541777" width="317.1336171889461" height="12.56198347107438" fill="#a5a5a5"></rect><rect x="150" y="94.21946740128556" width="178.21706012002622" height="12.56198347107438" fill="#ffc000"></rect><rect x="150" y="107.44260789715332" width="36.44673199403761" height="12.56198347107438" fill="#5b9bd5"></rect><rect x="150" y="120.66574839302109" width="2.267430623267859" height="12.56198347107438" fill="#70ad47"></rect><text class="label" x="599.4090909090909" y="63.05004591368224" font-size="10px">194x</text><text class="label" x="536.6518571791651" y="76.27318640955001" font-size="10px">167x</text><text class="label" x="475.6336171889461" y="89.49632690541777" font-size="10px">140x</text><text class="label" x="336.7170601200262" y="102.71946740128556" font-size="10px">79x</text><text class="label" x="194.9467319940376" y="115.94260789715332" font-size="10px">16x</text><text class="label" x="160.76743062326787" y="129.1657483930211" font-size="10px">1x</text><text class="label" x="595.9090909090909" y="64.55004591368224" font-size="8px"></text><text class="label" x="533.1518571791651" y="77.77318640955001" font-size="8px"></text><text class="label" x="472.1336171889461" y="90.99632690541777" font-size="8px"></text><text class="label" x="333.2170601200262" y="104.21946740128556" font-size="8px"></text><text class="label" x="191.4467319940376" y="117.44260789715332" font-size="8px"></text><text class="label" x="157.26743062326787" y="130.6657483930211" font-size="8px"></text></g><g style="font-size: 13px;"><rect x="150" y="143.4389348025711" width="97.60085347856325" height="12.56198347107438" fill="#4472c4"></rect><rect x="150" y="156.66207529843888" width="84.31598093753057" height="12.56198347107438" fill="#ed7d31"></rect><rect x="150" y="169.88521579430665" width="92.75988001524354" height="12.56198347107438" fill="#a5a5a5"></rect><rect x="150" y="183.10835629017444" width="69.77715345754046" height="12.56198347107438" fill="#ffc000"></rect><rect x="150" y="196.3314967860422" width="27.479522352540734" height="12.56198347107438" fill="#5b9bd5"></rect><rect x="150" y="209.55463728190998" width="2.267430623267859" height="12.56198347107438" fill="#70ad47"></rect><text class="label" x="256.10085347856324" y="151.9389348025711" font-size="10px">43x</text><text class="label" x="242.81598093753058" y="165.16207529843888" font-size="10px">37x</text><text class="label" x="251.25988001524354" y="178.38521579430665" font-size="10px">41x</text><text class="label" x="228.27715345754046" y="191.60835629017444" font-size="10px">31x</text><text class="label" x="185.97952235254073" y="204.8314967860422" font-size="10px">12x</text><text class="label" x="160.76743062326787" y="218.05463728190998" font-size="10px">1x</text><text class="label" x="252.60085347856324" y="153.4389348025711" font-size="8px"></text><text class="label" x="239.31598093753058" y="166.66207529843888" font-size="8px"></text><text class="label" x="247.75988001524354" y="179.88521579430665" font-size="8px"></text><text class="label" x="224.77715345754046" y="193.10835629017444" font-size="8px"></text><text class="label" x="182.47952235254073" y="206.3314967860422" font-size="8px"></text><text class="label" x="157.26743062326787" y="219.55463728190998" font-size="8px"></text></g><g style="font-size: 13px;"><rect x="150" y="232.32782369146003" width="170.3480913916799" height="12.56198347107438" fill="#4472c4"></rect><rect x="150" y="245.5509641873278" width="153.04846506245678" height="12.56198347107438" fill="#ed7d31"></rect><rect x="150" y="258.77410468319556" width="155.5581039230667" height="12.56198347107438" fill="#a5a5a5"></rect><rect x="150" y="271.9972451790633" width="33.48291528295449" height="12.56198347107438" fill="#ffc000"></rect><rect x="150" y="285.2203856749311" width="29.74887782228459" height="12.56198347107438" fill="#5b9bd5"></rect><rect x="150" y="298.44352617079886" width="2.267430623267859" height="12.56198347107438" fill="#70ad47"></rect><text class="label" x="328.8480913916799" y="240.82782369146003" font-size="10px">75x</text><text class="label" x="311.5484650624568" y="254.0509641873278" font-size="10px">67x</text><text class="label" x="314.0581039230667" y="267.27410468319556" font-size="10px">69x</text><text class="label" x="191.98291528295448" y="280.4972451790633" font-size="10px">15x</text><text class="label" x="188.24887782228458" y="293.7203856749311" font-size="10px">13x</text><text class="label" x="160.76743062326787" y="306.94352617079886" font-size="10px">1x</text><text class="label" x="325.3480913916799" y="242.32782369146003" font-size="8px"></text><text class="label" x="308.0484650624568" y="255.5509641873278" font-size="8px"></text><text class="label" x="310.5581039230667" y="268.77410468319556" font-size="8px"></text><text class="label" x="188.48291528295448" y="281.9972451790633" font-size="8px"></text><text class="label" x="184.74887782228458" y="295.2203856749311" font-size="8px"></text><text class="label" x="157.26743062326787" y="308.44352617079886" font-size="8px"></text></g><g style="font-size: 13px;"><rect x="150" y="321.2167125803489" width="128.9151427694534" height="12.56198347107438" fill="#4472c4"></rect><rect x="150" y="334.43985307621665" width="109.09223943872001" height="12.56198347107438" fill="#ed7d31"></rect><rect x="150" y="347.6629935720844" width="111.67818716369668" height="12.56198347107438" fill="#a5a5a5"></rect><rect x="150" y="360.8861340679522" width="84.3764519823396" height="12.56198347107438" fill="#ffc000"></rect><rect x="150" y="374.10927456381995" width="51.76324762198432" height="12.56198347107438" fill="#5b9bd5"></rect><rect x="150" y="387.3324150596877" width="2.267430623267859" height="12.56198347107438" fill="#70ad47"></rect><text class="label" x="287.4151427694534" y="329.7167125803489" font-size="10px">57x</text><text class="label" x="267.59223943872" y="342.93985307621665" font-size="10px">48x</text><text class="label" x="270.1781871636967" y="356.1629935720844" font-size="10px">49x</text><text class="label" x="242.8764519823396" y="369.3861340679522" font-size="10px">37x</text><text class="label" x="210.2632476219843" y="382.60927456381995" font-size="10px">23x</text><text class="label" x="160.76743062326787" y="395.8324150596877" font-size="10px">1x</text><text class="label" x="283.9151427694534" y="331.2167125803489" font-size="8px"></text><text class="label" x="264.09223943872" y="344.43985307621665" font-size="8px"></text><text class="label" x="266.6781871636967" y="357.6629935720844" font-size="8px"></text><text class="label" x="239.3764519823396" y="370.8861340679522" font-size="8px"></text><text class="label" x="206.7632476219843" y="384.10927456381995" font-size="8px"></text><text class="label" x="157.26743062326787" y="397.3324150596877" font-size="8px"></text></g><g style="font-size: 13px;"><rect x="150" y="410.1056014692378" width="60.46277560588068" height="12.56198347107438" fill="#4472c4"></rect><rect x="150" y="423.32874196510556" width="57.91120838235464" height="12.56198347107438" fill="#ed7d31"></rect><rect x="150" y="436.55188246097333" width="55.49962513462617" height="12.56198347107438" fill="#a5a5a5"></rect><rect x="150" y="449.7750229568411" width="83.50678296489163" height="12.56198347107438" fill="#ffc000"></rect><rect x="150" y="462.99816345270887" width="37.011807141851484" height="12.56198347107438" fill="#5b9bd5"></rect><rect x="150" y="476.22130394857663" width="2.267430623267859" height="12.56198347107438" fill="#70ad47"></rect><text class="label" x="218.96277560588067" y="418.6056014692378" font-size="10px">27x</text><text class="label" x="216.41120838235463" y="431.82874196510556" font-size="10px">26x</text><text class="label" x="213.99962513462617" y="445.05188246097333" font-size="10px">24x</text><text class="label" x="242.0067829648916" y="458.2750229568411" font-size="10px">37x</text><text class="label" x="195.51180714185148" y="471.49816345270887" font-size="10px">16x</text><text class="label" x="160.76743062326787" y="484.72130394857663" font-size="10px">1x</text><text class="label" x="215.46277560588067" y="420.1056014692378" font-size="8px"></text><text class="label" x="212.91120838235463" y="433.32874196510556" font-size="8px"></text><text class="label" x="210.49962513462617" y="446.55188246097333" font-size="8px"></text><text class="label" x="238.5067829648916" y="459.7750229568411" font-size="8px"></text><text class="label" x="192.01180714185148" y="472.99816345270887" font-size="8px"></text><text class="label" x="157.26743062326787" y="486.22130394857663" font-size="8px"></text></g><g style="font-size: 13px;"><rect x="150" y="498.9944903581267" width="104.80509841473605" height="12.56198347107438" fill="#4472c4"></rect><rect x="150" y="512.2176308539945" width="102.00308071498293" height="12.56198347107438" fill="#ed7d31"></rect><rect x="150" y="525.4407713498622" width="100.81528230161712" height="12.56198347107438" fill="#a5a5a5"></rect><rect x="150" y="538.66391184573" width="138.86570515275335" height="12.56198347107438" fill="#ffc000"></rect><rect x="150" y="551.8870523415978" width="45.32516905818308" height="12.56198347107438" fill="#5b9bd5"></rect><rect x="150" y="565.1101928374655" width="2.267430623267859" height="12.56198347107438" fill="#70ad47"></rect><text class="label" x="263.30509841473605" y="507.4944903581267" font-size="10px">46x</text><text class="label" x="260.50308071498296" y="520.7176308539945" font-size="10px">45x</text><text class="label" x="259.3152823016171" y="533.9407713498622" font-size="10px">44x</text><text class="label" x="297.3657051527533" y="547.16391184573" font-size="10px">61x</text><text class="label" x="203.82516905818306" y="560.3870523415978" font-size="10px">20x</text><text class="label" x="160.76743062326787" y="573.6101928374655" font-size="10px">1x</text><text class="label" x="259.80509841473605" y="508.9944903581267" font-size="8px"></text><text class="label" x="257.00308071498296" y="522.2176308539945" font-size="8px"></text><text class="label" x="255.81528230161712" y="535.4407713498622" font-size="8px"></text><text class="label" x="293.8657051527533" y="548.66391184573" font-size="8px"></text><text class="label" x="200.32516905818306" y="561.8870523415978" font-size="8px"></text><text class="label" x="157.26743062326787" y="575.1101928374655" font-size="8px"></text></g><g style="font-size: 13px;"><rect x="150" y="587.8833792470156" width="75.97976740250945" height="12.56198347107438" fill="#4472c4"></rect><rect x="150" y="601.1065197428833" width="80.96432413298557" height="12.56198347107438" fill="#ed7d31"></rect><rect x="150" y="614.3296602387511" width="80.31589940995093" height="12.56198347107438" fill="#a5a5a5"></rect><rect x="150" y="627.5528007346188" width="37.90987934078315" height="12.56198347107438" fill="#ffc000"></rect><rect x="150" y="640.7759412304866" width="37.87696958765655" height="12.56198347107438" fill="#5b9bd5"></rect><rect x="150" y="653.9990817263545" width="2.267430623267859" height="12.56198347107438" fill="#70ad47"></rect><text class="label" x="234.47976740250945" y="596.3833792470156" font-size="10px">34x</text><text class="label" x="239.46432413298555" y="609.6065197428833" font-size="10px">36x</text><text class="label" x="238.81589940995093" y="622.8296602387511" font-size="10px">35x</text><text class="label" x="196.40987934078316" y="636.0528007346188" font-size="10px">17x</text><text class="label" x="196.37696958765656" y="649.2759412304866" font-size="10px">17x</text><text class="label" x="160.76743062326787" y="662.4990817263545" font-size="10px">1x</text><text class="label" x="230.97976740250945" y="597.8833792470156" font-size="8px"></text><text class="label" x="235.96432413298555" y="611.1065197428833" font-size="8px"></text><text class="label" x="235.31589940995093" y="624.3296602387511" font-size="8px"></text><text class="label" x="192.90987934078316" y="637.5528007346188" font-size="8px"></text><text class="label" x="192.87696958765656" y="650.7759412304866" font-size="8px"></text><text class="label" x="157.26743062326787" y="663.9990817263545" font-size="8px"></text></g><g style="font-size: 13px;"><rect x="150" y="676.7722681359045" width="71.01206301159901" height="12.56198347107438" fill="#4472c4"></rect><rect x="150" y="689.9954086317722" width="63.906569501412704" height="12.56198347107438" fill="#ed7d31"></rect><rect x="150" y="703.21854912764" width="64.63502100742133" height="12.56198347107438" fill="#a5a5a5"></rect><rect x="150" y="716.4416896235077" width="49.367252630436745" height="12.56198347107438" fill="#ffc000"></rect><rect x="150" y="729.6648301193756" width="54.63877926088813" height="12.56198347107438" fill="#5b9bd5"></rect><rect x="150" y="742.8879706152434" width="2.267430623267859" height="12.56198347107438" fill="#70ad47"></rect><text class="label" x="229.51206301159903" y="685.2722681359045" font-size="10px">31x</text><text class="label" x="222.40656950141272" y="698.4954086317722" font-size="10px">28x</text><text class="label" x="223.13502100742133" y="711.71854912764" font-size="10px">29x</text><text class="label" x="207.86725263043675" y="724.9416896235077" font-size="10px">22x</text><text class="label" x="213.13877926088813" y="738.1648301193756" font-size="10px">24x</text><text class="label" x="160.76743062326787" y="751.3879706152434" font-size="10px">1x</text><text class="label" x="226.01206301159903" y="686.7722681359045" font-size="8px"></text><text class="label" x="218.90656950141272" y="699.9954086317722" font-size="8px"></text><text class="label" x="219.63502100742133" y="713.21854912764" font-size="8px"></text><text class="label" x="204.36725263043675" y="726.4416896235077" font-size="8px"></text><text class="label" x="209.63877926088813" y="739.6648301193756" font-size="8px"></text><text class="label" x="157.26743062326787" y="752.8879706152434" font-size="8px"></text></g></g></svg>