<svg xmlns="http://www.w3.org/2000/svg" xmlns:xlink="http://www.w3.org/1999/xlink" width="800" height="600" style="background-color: white;"><g class="y axis" transform="translate(149,45)" fill="none" font-size="10" font-family="sans-serif" text-anchor="end" style="font-size: 13px;"><path class="domain" stroke="#000" d="M0,0.5H0.5V525.5H0"></path><g class="tick" opacity="1" transform="translate(0,40.66901408450705)" style="font-size: 13px;"><line stroke="#000" x2="0"></line><text fill="#000" x="-3" dy="0.32em">object (simple)    </text></g><g class="tick" opacity="1" transform="translate(0,114.61267605633802)" style="font-size: 13px;"><line stroke="#000" x2="0"></line><text fill="#000" x="-3" dy="0.32em">object (hierarchical)    </text></g><g class="tick" opacity="1" transform="translate(0,188.556338028169)" style="font-size: 13px;"><line stroke="#000" x2="0"></line><text fill="#000" x="-3" dy="0.32em">object (recursive)    </text></g><g class="tick" opacity="1" transform="translate(0,262.5)" style="font-size: 13px;"><line stroke="#000" x2="0"></line><text fill="#000" x="-3" dy="0.32em">object (union)    </text></g><g class="tick" opacity="1" transform="translate(0,336.443661971831)" style="font-size: 13px;"><line stroke="#000" x2="0"></line><text fill="#000" x="-3" dy="0.32em">array (hierarchical)    </text></g><g class="tick" opacity="1" transform="translate(0,410.38732394366195)" style="font-size: 13px;"><line stroke="#000" x2="0"></line><text fill="#000" x="-3" dy="0.32em">array (recursive)    </text></g><g class="tick" opacity="1" transform="translate(0,484.33098591549293)" style="font-size: 13px;"><line stroke="#000" x2="0"></line><text fill="#000" x="-3" dy="0.32em">array (union)    </text></g></g><g class="x axis" transform="translate(149,570)" fill="none" font-size="10" font-family="sans-serif" text-anchor="middle" style="font-size: 13px;"><path class="domain" stroke="#000" d="M0.5,0V0.5H485.5V0"></path><g class="tick" opacity="1" transform="translate(0.5,0)" style="font-size: 13px;"><line stroke="#000" y2="6"></line><text fill="#000" y="9" dy="0.71em">0x</text></g><g class="tick" opacity="1" transform="translate(123.151552438534,0)" style="font-size: 13px;"><line stroke="#000" y2="6"></line><text fill="#000" y="9" dy="0.71em">2x</text></g><g class="tick" opacity="1" transform="translate(245.803104877068,0)" style="font-size: 13px;"><line stroke="#000" y2="6"></line><text fill="#000" y="9" dy="0.71em">4x</text></g><g class="tick" opacity="1" transform="translate(368.45465731560205,0)" style="font-size: 13px;"><line stroke="#000" y2="6"></line><text fill="#000" y="9" dy="0.71em">6x</text></g></g><text transform="translate(400, 30)" style="text-anchor: middle; font-size: 20px; font-weight: bold;">stringify benchmark</text><rect x="680" y="145" width="200" height="5" fill="gray"></rect><rect x="675" y="35" width="200" height="110" fill="none" stroke="black"></rect><rect x="685" y="45" width="10" height="10" style="fill: #4472c4;"></rect><text x="700" y="55" style="font-size: 12px;">TSON.stringify()</text><rect x="685" y="65" width="10" height="10" style="fill: #ed7d31;"></rect><text x="700" y="75" style="font-size: 12px;">TSON.assertStringify()</text><rect x="685" y="85" width="10" height="10" style="fill: #a5a5a5;"></rect><text x="700" y="95" style="font-size: 12px;">TSON.isStringify()</text><rect x="685" y="105" width="10" height="10" style="fill: #ffc000;"></rect><text x="700" y="115" style="font-size: 12px;">JSON.stringify()</text><rect x="685" y="125" width="10" height="10" style="fill: #5b9bd5;"></rect><text x="700" y="135" style="font-size: 12px;">fast-json-stringify</text><g style="font-size: 13px;"><g style="font-size: 13px;"><rect x="150" y="53.05327011574397" width="440.9090909090908" height="12.519174452656534" fill="#4472c4"></rect><rect x="150" y="66.23134848696137" width="348.9001071517771" height="12.519174452656534" fill="#ed7d31"></rect><rect x="150" y="79.40942685817878" width="416.4419407605374" height="12.519174452656534" fill="#a5a5a5"></rect><rect x="150" y="92.58750522939619" width="61.325776219267" height="12.519174452656534" fill="#ffc000"></rect><rect x="150" y="105.76558360061358" width="277.5585928142892" height="12.519174452656534" fill="#5b9bd5"></rect><text class="label" x="599.4090909090908" y="61.55327011574397" font-size="10px">7.19x</text><text class="label" x="507.4001071517771" y="74.73134848696137" font-size="10px">5.69x</text><text class="label" x="574.9419407605374" y="87.90942685817878" font-size="10px">6.79x</text><text class="label" x="219.825776219267" y="101.08750522939619" font-size="10px">1x</text><text class="label" x="436.0585928142892" y="114.26558360061358" font-size="10px">4.53x</text><text class="label" x="595.9090909090908" y="63.05327011574397" font-size="8px"></text><text class="label" x="503.9001071517771" y="76.23134848696137" font-size="8px"></text><text class="label" x="571.4419407605374" y="89.40942685817878" font-size="8px"></text><text class="label" x="216.325776219267" y="102.58750522939619" font-size="8px"></text><text class="label" x="432.5585928142892" y="115.76558360061358" font-size="8px"></text></g><g style="font-size: 13px;"><rect x="150" y="126.99693208757495" width="211.1761691890229" height="12.519174452656534" fill="#4472c4"></rect><rect x="150" y="140.17501045879237" width="181.2882353295774" height="12.519174452656534" fill="#ed7d31"></rect><rect x="150" y="153.35308883000977" width="191.58669476449762" height="12.519174452656534" fill="#a5a5a5"></rect><rect x="150" y="166.53116720122716" width="61.325776219267" height="12.519174452656534" fill="#ffc000"></rect><rect x="150" y="179.70924557244456" width="185.96251062997945" height="12.519174452656534" fill="#5b9bd5"></rect><text class="label" x="369.67616918902286" y="135.49693208757495" font-size="10px">3.44x</text><text class="label" x="339.7882353295774" y="148.67501045879237" font-size="10px">2.96x</text><text class="label" x="350.0866947644976" y="161.85308883000977" font-size="10px">3.12x</text><text class="label" x="219.825776219267" y="175.03116720122716" font-size="10px">1x</text><text class="label" x="344.4625106299794" y="188.20924557244456" font-size="10px">3.03x</text><text class="label" x="366.17616918902286" y="136.99693208757495" font-size="8px"></text><text class="label" x="336.2882353295774" y="150.17501045879237" font-size="8px"></text><text class="label" x="346.5866947644976" y="163.35308883000977" font-size="8px"></text><text class="label" x="216.325776219267" y="176.53116720122716" font-size="8px"></text><text class="label" x="340.9625106299794" y="189.70924557244456" font-size="8px"></text></g><g style="font-size: 13px;"><rect x="150" y="200.94059405940592" width="292.56142318967636" height="12.519174452656534" fill="#4472c4"></rect><rect x="150" y="214.11867243062332" width="265.63970373214045" height="12.519174452656534" fill="#ed7d31"></rect><rect x="150" y="227.29675080184074" width="278.02656033818414" height="12.519174452656534" fill="#a5a5a5"></rect><rect x="150" y="240.47482917305814" width="62.706108134840925" height="12.519174452656534" fill="#ffc000"></rect><rect x="150" y="253.65290754427554" width="61.325776219267" height="12.519174452656534" fill="#5b9bd5"></rect><text class="label" x="451.06142318967636" y="209.44059405940592" font-size="10px">4.77x</text><text class="label" x="424.13970373214045" y="222.61867243062332" font-size="10px">4.33x</text><text class="label" x="436.52656033818414" y="235.79675080184074" font-size="10px">4.53x</text><text class="label" x="221.20610813484092" y="248.97482917305814" font-size="10px">1.02x</text><text class="label" x="219.825776219267" y="262.15290754427554" font-size="10px">1x</text><text class="label" x="447.56142318967636" y="210.94059405940592" font-size="8px"></text><text class="label" x="420.63970373214045" y="224.11867243062332" font-size="8px"></text><text class="label" x="433.02656033818414" y="237.29675080184074" font-size="8px"></text><text class="label" x="217.70610813484092" y="250.47482917305814" font-size="8px"></text><text class="label" x="216.325776219267" y="263.65290754427554" font-size="8px"></text></g><g style="font-size: 13px;"><rect x="150" y="274.8842560312369" width="134.15787710399988" height="12.519174452656534" fill="#4472c4"></rect><rect x="150" y="288.0623344024543" width="106.25831437829878" height="12.519174452656534" fill="#ed7d31"></rect><rect x="150" y="301.2404127736717" width="120.6938384175433" height="12.519174452656534" fill="#a5a5a5"></rect><rect x="150" y="314.4184911448891" width="61.325776219267" height="12.519174452656534" fill="#ffc000"></rect><rect x="150" y="327.5965695161065" width="123.6590061739904" height="12.519174452656534" fill="#5b9bd5"></rect><text class="label" x="292.6578771039999" y="283.3842560312369" font-size="10px">2.19x</text><text class="label" x="264.7583143782988" y="296.5623344024543" font-size="10px">1.73x</text><text class="label" x="279.1938384175433" y="309.7404127736717" font-size="10px">1.97x</text><text class="label" x="219.825776219267" y="322.9184911448891" font-size="10px">1x</text><text class="label" x="282.1590061739904" y="336.0965695161065" font-size="10px">2.02x</text><text class="label" x="289.1578771039999" y="284.8842560312369" font-size="8px"></text><text class="label" x="261.2583143782988" y="298.0623344024543" font-size="8px"></text><text class="label" x="275.6938384175433" y="311.2404127736717" font-size="8px"></text><text class="label" x="216.325776219267" y="324.4184911448891" font-size="8px"></text><text class="label" x="278.6590061739904" y="337.5965695161065" font-size="8px"></text></g><g style="font-size: 13px;"><rect x="150" y="348.8279180030679" width="127.95791238341641" height="12.519174452656534" fill="#4472c4"></rect><rect x="150" y="362.0059963742853" width="116.00931511654346" height="12.519174452656534" fill="#ed7d31"></rect><rect x="150" y="375.1840747455027" width="121.9051756160485" height="12.519174452656534" fill="#a5a5a5"></rect><rect x="150" y="388.3621531167201" width="61.325776219267" height="12.519174452656534" fill="#ffc000"></rect><rect x="150" y="401.5402314879375" width="173.76708878847487" height="12.519174452656534" fill="#5b9bd5"></rect><text class="label" x="286.45791238341644" y="357.3279180030679" font-size="10px">2.09x</text><text class="label" x="274.50931511654346" y="370.5059963742853" font-size="10px">1.89x</text><text class="label" x="280.4051756160485" y="383.6840747455027" font-size="10px">1.99x</text><text class="label" x="219.825776219267" y="396.8621531167201" font-size="10px">1x</text><text class="label" x="332.2670887884749" y="410.0402314879375" font-size="10px">2.83x</text><text class="label" x="282.95791238341644" y="358.8279180030679" font-size="8px"></text><text class="label" x="271.00931511654346" y="372.0059963742853" font-size="8px"></text><text class="label" x="276.9051756160485" y="385.1840747455027" font-size="8px"></text><text class="label" x="216.325776219267" y="398.3621531167201" font-size="8px"></text><text class="label" x="328.7670887884749" y="411.5402314879375" font-size="8px"></text></g><g style="font-size: 13px;"><rect x="150" y="422.7715799748988" width="129.73272686722402" height="12.519174452656534" fill="#4472c4"></rect><rect x="150" y="435.9496583461163" width="118.12592787076439" height="12.519174452656534" fill="#ed7d31"></rect><rect x="150" y="449.1277367173337" width="124.59242592488968" height="12.519174452656534" fill="#a5a5a5"></rect><rect x="150" y="462.30581508855107" width="61.892836730582836" height="12.519174452656534" fill="#ffc000"></rect><rect x="150" y="475.48389345976847" width="61.325776219267" height="12.519174452656534" fill="#5b9bd5"></rect><text class="label" x="288.232726867224" y="431.2715799748988" font-size="10px">2.12x</text><text class="label" x="276.6259278707644" y="444.4496583461163" font-size="10px">1.93x</text><text class="label" x="283.09242592488965" y="457.6277367173337" font-size="10px">2.03x</text><text class="label" x="220.39283673058284" y="470.80581508855107" font-size="10px">1.01x</text><text class="label" x="219.825776219267" y="483.98389345976847" font-size="10px">1x</text><text class="label" x="284.732726867224" y="432.7715799748988" font-size="8px"></text><text class="label" x="273.1259278707644" y="445.9496583461163" font-size="8px"></text><text class="label" x="279.59242592488965" y="459.1277367173337" font-size="8px"></text><text class="label" x="216.89283673058284" y="472.30581508855107" font-size="8px"></text><text class="label" x="216.325776219267" y="485.48389345976847" font-size="8px"></text></g><g style="font-size: 13px;"><rect x="150" y="496.71524194672986" width="84.74944471656283" height="12.519174452656534" fill="#4472c4"></rect><rect x="150" y="509.89332031794726" width="70.64680991030184" height="12.519174452656534" fill="#ed7d31"></rect><rect x="150" y="523.0713986891647" width="72.5848990191101" height="12.519174452656534" fill="#a5a5a5"></rect><rect x="150" y="536.2494770603821" width="70.21959946526384" height="12.519174452656534" fill="#ffc000"></rect><rect x="150" y="549.4275554315994" width="61.325776219267" height="12.519174452656534" fill="#5b9bd5"></rect><text class="label" x="243.24944471656283" y="505.21524194672986" font-size="10px">1.38x</text><text class="label" x="229.14680991030184" y="518.3933203179472" font-size="10px">1.15x</text><text class="label" x="231.08489901911008" y="531.5713986891647" font-size="10px">1.18x</text><text class="label" x="228.71959946526385" y="544.7494770603821" font-size="10px">1.15x</text><text class="label" x="219.825776219267" y="557.9275554315994" font-size="10px">1x</text><text class="label" x="239.74944471656283" y="506.71524194672986" font-size="8px"></text><text class="label" x="225.64680991030184" y="519.8933203179472" font-size="8px"></text><text class="label" x="227.58489901911008" y="533.0713986891647" font-size="8px"></text><text class="label" x="225.21959946526385" y="546.2494770603821" font-size="8px"></text><text class="label" x="216.325776219267" y="559.4275554315994" font-size="8px"></text></g></g></svg>