<svg xmlns="http://www.w3.org/2000/svg" xmlns:xlink="http://www.w3.org/1999/xlink" width="800" height="914" style="background-color: white;"><g class="y axis" transform="translate(149,45)" fill="none" font-size="10" font-family="sans-serif" text-anchor="end" style="font-size: 13px;"><path class="domain" stroke="currentColor" d="M0.5,0.5V720.5"></path><g class="tick" opacity="1" transform="translate(0,48.88888888888886)" style="font-size: 13px;"><line stroke="currentColor" x2="0"></line><text fill="currentColor" x="-3" dy="0.32em">object (simple)    </text></g><g class="tick" opacity="1" transform="translate(0,137.77777777777774)" style="font-size: 13px;"><line stroke="currentColor" x2="0"></line><text fill="currentColor" x="-3" dy="0.32em">object (hierarchical)    </text></g><g class="tick" opacity="1" transform="translate(0,226.66666666666663)" style="font-size: 13px;"><line stroke="currentColor" x2="0"></line><text fill="currentColor" x="-3" dy="0.32em">object (recursive)    </text></g><g class="tick" opacity="1" transform="translate(0,315.5555555555555)" style="font-size: 13px;"><line stroke="currentColor" x2="0"></line><text fill="currentColor" x="-3" dy="0.32em">object (union, explicit)    </text></g><g class="tick" opacity="1" transform="translate(0,404.4444444444444)" style="font-size: 13px;"><line stroke="currentColor" x2="0"></line><text fill="currentColor" x="-3" dy="0.32em">array (simple)    </text></g><g class="tick" opacity="1" transform="translate(0,493.3333333333333)" style="font-size: 13px;"><line stroke="currentColor" x2="0"></line><text fill="currentColor" x="-3" dy="0.32em">array (hierarchical)    </text></g><g class="tick" opacity="1" transform="translate(0,582.2222222222222)" style="font-size: 13px;"><line stroke="currentColor" x2="0"></line><text fill="currentColor" x="-3" dy="0.32em">array (recursive)    </text></g><g class="tick" opacity="1" transform="translate(0,671.1111111111111)" style="font-size: 13px;"><line stroke="currentColor" x2="0"></line><text fill="currentColor" x="-3" dy="0.32em">array (union, explicit)    </text></g></g><g class="x axis" transform="translate(149,765)" fill="none" font-size="10" font-family="sans-serif" text-anchor="middle" style="font-size: 13px;"><path class="domain" stroke="currentColor" d="M0.5,0.5H485.5"></path><g class="tick" opacity="1" transform="translate(0.5,0)" style="font-size: 13px;"><line stroke="currentColor" y2="6"></line><text fill="currentColor" y="9" dy="0.71em">0x</text></g><g class="tick" opacity="1" transform="translate(99.509808565816,0)" style="font-size: 13px;"><line stroke="currentColor" y2="6"></line><text fill="currentColor" y="9" dy="0.71em">50x</text></g><g class="tick" opacity="1" transform="translate(198.519617131632,0)" style="font-size: 13px;"><line stroke="currentColor" y2="6"></line><text fill="currentColor" y="9" dy="0.71em">100x</text></g><g class="tick" opacity="1" transform="translate(297.529425697448,0)" style="font-size: 13px;"><line stroke="currentColor" y2="6"></line><text fill="currentColor" y="9" dy="0.71em">150x</text></g><g class="tick" opacity="1" transform="translate(396.539234263264,0)" style="font-size: 13px;"><line stroke="currentColor" y2="6"></line><text fill="currentColor" y="9" dy="0.71em">200x</text></g></g><text transform="translate(400, 30)" style="text-anchor: middle; font-size: 20px; font-weight: bold;">stringify benchmark</text><rect x="650" y="165" width="230" height="5" fill="gray"></rect><rect x="645" y="35" width="230" height="130" fill="none" stroke="black"></rect><rect x="655" y="45" width="10" height="10" style="fill: #4472c4;"></rect><text x="670" y="55" style="font-size: 12px;">typia.stringify</text><rect x="655" y="65" width="10" height="10" style="fill: #ed7d31;"></rect><text x="670" y="75" style="font-size: 12px;">typia.isStringify</text><rect x="655" y="85" width="10" height="10" style="fill: #a5a5a5;"></rect><text x="670" y="95" style="font-size: 12px;">typia.assertStringify</text><rect x="655" y="105" width="10" height="10" style="fill: #ffc000;"></rect><text x="670" y="115" style="font-size: 12px;">fast-json-stringify</text><rect x="655" y="125" width="10" height="10" style="fill: #5b9bd5;"></rect><text x="670" y="135" style="font-size: 12px;">JSON.stringify</text><rect x="655" y="145" width="10" height="10" style="fill: #70ad47;"></rect><text x="670" y="155" style="font-size: 12px;">class-transformer</text><text x="20" y="829" style="font-size: 12px;">  - CPU: 11th Gen Intel(R) Core(TM) i5-1135G7 @ 2.40GHz</text><text x="20" y="846" style="font-size: 12px;">  - OS: win32</text><text x="20" y="863" style="font-size: 12px;">  - RAM: 16 GB</text><text x="20" y="880" style="font-size: 12px;">  - NodeJS version: v16.20.0</text><text x="20" y="897" style="font-size: 12px;">  - Typia version: v3.7.3</text><g style="font-size: 13px;"><g style="font-size: 13px;"><rect x="150" y="54.55004591368224" width="440.9090909090909" height="12.56198347107438" fill="#4472c4"></rect><rect x="150" y="67.77318640955001" width="332.36881171668597" height="12.56198347107438" fill="#ed7d31"></rect><rect x="150" y="80.99632690541777" width="269.5669684100686" height="12.56198347107438" fill="#a5a5a5"></rect><rect x="150" y="94.21946740128556" width="153.7094965675757" height="12.56198347107438" fill="#ffc000"></rect><rect x="150" y="107.44260789715332" width="30.110843249867635" height="12.56198347107438" fill="#5b9bd5"></rect><rect x="150" y="120.66574839302109" width="1.98019617131632" height="12.56198347107438" fill="#70ad47"></rect><text class="label" x="599.4090909090909" y="63.05004591368224" font-size="10px">223x</text><text class="label" x="490.86881171668597" y="76.27318640955001" font-size="10px">168x</text><text class="label" x="428.0669684100686" y="89.49632690541777" font-size="10px">136x</text><text class="label" x="312.2094965675757" y="102.71946740128556" font-size="10px">78x</text><text class="label" x="188.61084324986763" y="115.94260789715332" font-size="10px">15x</text><text class="label" x="160.48019617131632" y="129.1657483930211" font-size="10px">1x</text><text class="label" x="595.9090909090909" y="64.55004591368224" font-size="8px"></text><text class="label" x="487.36881171668597" y="77.77318640955001" font-size="8px"></text><text class="label" x="424.5669684100686" y="90.99632690541777" font-size="8px"></text><text class="label" x="308.7094965675757" y="104.21946740128556" font-size="8px"></text><text class="label" x="185.11084324986763" y="117.44260789715332" font-size="8px"></text><text class="label" x="156.98019617131632" y="130.6657483930211" font-size="8px"></text></g><g style="font-size: 13px;"><rect x="150" y="143.4389348025711" width="93.3612349867433" height="12.56198347107438" fill="#4472c4"></rect><rect x="150" y="156.66207529843888" width="89.73140873161772" height="12.56198347107438" fill="#ed7d31"></rect><rect x="150" y="169.88521579430665" width="88.26234453597877" height="12.56198347107438" fill="#a5a5a5"></rect><rect x="150" y="183.10835629017444" width="103.10855147407477" height="12.56198347107438" fill="#ffc000"></rect><rect x="150" y="196.3314967860422" width="24.07281409927624" height="12.56198347107438" fill="#5b9bd5"></rect><rect x="150" y="209.55463728190998" width="1.98019617131632" height="12.56198347107438" fill="#70ad47"></rect><text class="label" x="251.86123498674328" y="151.9389348025711" font-size="10px">47x</text><text class="label" x="248.2314087316177" y="165.16207529843888" font-size="10px">45x</text><text class="label" x="246.76234453597877" y="178.38521579430665" font-size="10px">45x</text><text class="label" x="261.6085514740748" y="191.60835629017444" font-size="10px">52x</text><text class="label" x="182.57281409927623" y="204.8314967860422" font-size="10px">12x</text><text class="label" x="160.48019617131632" y="218.05463728190998" font-size="10px">1x</text><text class="label" x="248.36123498674328" y="153.4389348025711" font-size="8px"></text><text class="label" x="244.7314087316177" y="166.66207529843888" font-size="8px"></text><text class="label" x="243.26234453597877" y="179.88521579430665" font-size="8px"></text><text class="label" x="258.1085514740748" y="193.10835629017444" font-size="8px"></text><text class="label" x="179.07281409927623" y="206.3314967860422" font-size="8px"></text><text class="label" x="156.98019617131632" y="219.55463728190998" font-size="8px"></text></g><g style="font-size: 13px;"><rect x="150" y="232.32782369146003" width="145.60612899373461" height="12.56198347107438" fill="#4472c4"></rect><rect x="150" y="245.5509641873278" width="139.063238322115" height="12.56198347107438" fill="#ed7d31"></rect><rect x="150" y="258.77410468319556" width="136.93430499116482" height="12.56198347107438" fill="#a5a5a5"></rect><rect x="150" y="271.9972451790633" width="28.21431346069175" height="12.56198347107438" fill="#ffc000"></rect><rect x="150" y="285.2203856749311" width="28.98747612314788" height="12.56198347107438" fill="#5b9bd5"></rect><rect x="150" y="298.44352617079886" width="1.98019617131632" height="12.56198347107438" fill="#70ad47"></rect><text class="label" x="304.1061289937346" y="240.82782369146003" font-size="10px">74x</text><text class="label" x="297.563238322115" y="254.0509641873278" font-size="10px">70x</text><text class="label" x="295.4343049911648" y="267.27410468319556" font-size="10px">69x</text><text class="label" x="186.71431346069176" y="280.4972451790633" font-size="10px">14x</text><text class="label" x="187.48747612314787" y="293.7203856749311" font-size="10px">15x</text><text class="label" x="160.48019617131632" y="306.94352617079886" font-size="10px">1x</text><text class="label" x="300.6061289937346" y="242.32782369146003" font-size="8px"></text><text class="label" x="294.063238322115" y="255.5509641873278" font-size="8px"></text><text class="label" x="291.9343049911648" y="268.77410468319556" font-size="8px"></text><text class="label" x="183.21431346069176" y="281.9972451790633" font-size="8px"></text><text class="label" x="183.98747612314787" y="295.2203856749311" font-size="8px"></text><text class="label" x="156.98019617131632" y="308.44352617079886" font-size="8px"></text></g><g style="font-size: 13px;"><rect x="150" y="321.2167125803489" width="102.73296307209164" height="12.56198347107438" fill="#4472c4"></rect><rect x="150" y="334.43985307621665" width="92.71092060965518" height="12.56198347107438" fill="#ed7d31"></rect><rect x="150" y="347.6629935720844" width="91.3099865986538" height="12.56198347107438" fill="#a5a5a5"></rect><rect x="150" y="360.8861340679522" width="69.00237467618804" height="12.56198347107438" fill="#ffc000"></rect><rect x="150" y="374.10927456381995" width="45.842793810444114" height="12.56198347107438" fill="#5b9bd5"></rect><rect x="150" y="387.3324150596877" width="1.98019617131632" height="12.56198347107438" fill="#70ad47"></rect><text class="label" x="261.23296307209165" y="329.7167125803489" font-size="10px">52x</text><text class="label" x="251.21092060965518" y="342.93985307621665" font-size="10px">47x</text><text class="label" x="249.80998659865378" y="356.1629935720844" font-size="10px">46x</text><text class="label" x="227.50237467618803" y="369.3861340679522" font-size="10px">35x</text><text class="label" x="204.3427938104441" y="382.60927456381995" font-size="10px">23x</text><text class="label" x="160.48019617131632" y="395.8324150596877" font-size="10px">1x</text><text class="label" x="257.73296307209165" y="331.2167125803489" font-size="8px"></text><text class="label" x="247.71092060965518" y="344.43985307621665" font-size="8px"></text><text class="label" x="246.30998659865378" y="357.6629935720844" font-size="8px"></text><text class="label" x="224.00237467618803" y="370.8861340679522" font-size="8px"></text><text class="label" x="200.8427938104441" y="384.10927456381995" font-size="8px"></text><text class="label" x="156.98019617131632" y="397.3324150596877" font-size="8px"></text></g><g style="font-size: 13px;"><rect x="150" y="410.1056014692378" width="51.99236226917848" height="12.56198347107438" fill="#4472c4"></rect><rect x="150" y="423.32874196510556" width="48.37130176896801" height="12.56198347107438" fill="#ed7d31"></rect><rect x="150" y="436.55188246097333" width="48.254677342165884" height="12.56198347107438" fill="#a5a5a5"></rect><rect x="150" y="449.7750229568411" width="77.95900981161732" height="12.56198347107438" fill="#ffc000"></rect><rect x="150" y="462.99816345270887" width="32.478415206704895" height="12.56198347107438" fill="#5b9bd5"></rect><rect x="150" y="476.22130394857663" width="1.98019617131632" height="12.56198347107438" fill="#70ad47"></rect><text class="label" x="210.49236226917847" y="418.6056014692378" font-size="10px">26x</text><text class="label" x="206.871301768968" y="431.82874196510556" font-size="10px">24x</text><text class="label" x="206.75467734216588" y="445.05188246097333" font-size="10px">24x</text><text class="label" x="236.4590098116173" y="458.2750229568411" font-size="10px">39x</text><text class="label" x="190.97841520670488" y="471.49816345270887" font-size="10px">16x</text><text class="label" x="160.48019617131632" y="484.72130394857663" font-size="10px">1x</text><text class="label" x="206.99236226917847" y="420.1056014692378" font-size="8px"></text><text class="label" x="203.371301768968" y="433.32874196510556" font-size="8px"></text><text class="label" x="203.25467734216588" y="446.55188246097333" font-size="8px"></text><text class="label" x="232.9590098116173" y="459.7750229568411" font-size="8px"></text><text class="label" x="187.47841520670488" y="472.99816345270887" font-size="8px"></text><text class="label" x="156.98019617131632" y="486.22130394857663" font-size="8px"></text></g><g style="font-size: 13px;"><rect x="150" y="498.9944903581267" width="84.16519576940613" height="12.56198347107438" fill="#4472c4"></rect><rect x="150" y="512.2176308539945" width="84.78353973539657" height="12.56198347107438" fill="#ed7d31"></rect><rect x="150" y="525.4407713498622" width="82.69096225790106" height="12.56198347107438" fill="#a5a5a5"></rect><rect x="150" y="538.66391184573" width="101.6114346394447" height="12.56198347107438" fill="#ffc000"></rect><rect x="150" y="551.8870523415978" width="35.35983177598066" height="12.56198347107438" fill="#5b9bd5"></rect><rect x="150" y="565.1101928374655" width="1.98019617131632" height="12.56198347107438" fill="#70ad47"></rect><text class="label" x="242.66519576940613" y="507.4944903581267" font-size="10px">43x</text><text class="label" x="243.28353973539657" y="520.7176308539945" font-size="10px">43x</text><text class="label" x="241.19096225790105" y="533.9407713498622" font-size="10px">42x</text><text class="label" x="260.1114346394447" y="547.16391184573" font-size="10px">51x</text><text class="label" x="193.85983177598067" y="560.3870523415978" font-size="10px">18x</text><text class="label" x="160.48019617131632" y="573.6101928374655" font-size="10px">1x</text><text class="label" x="239.16519576940613" y="508.9944903581267" font-size="8px"></text><text class="label" x="239.78353973539657" y="522.2176308539945" font-size="8px"></text><text class="label" x="237.69096225790105" y="535.4407713498622" font-size="8px"></text><text class="label" x="256.6114346394447" y="548.66391184573" font-size="8px"></text><text class="label" x="190.35983177598067" y="561.8870523415978" font-size="8px"></text><text class="label" x="156.98019617131632" y="575.1101928374655" font-size="8px"></text></g><g style="font-size: 13px;"><rect x="150" y="587.8833792470156" width="69.94698386321333" height="12.56198347107438" fill="#4472c4"></rect><rect x="150" y="601.1065197428833" width="67.36117351511002" height="12.56198347107438" fill="#ed7d31"></rect><rect x="150" y="614.3296602387511" width="68.24587479235046" height="12.56198347107438" fill="#a5a5a5"></rect><rect x="150" y="627.5528007346188" width="31.842670825850497" height="12.56198347107438" fill="#ffc000"></rect><rect x="150" y="640.7759412304866" width="30.305697196458343" height="12.56198347107438" fill="#5b9bd5"></rect><rect x="150" y="653.9990817263545" width="1.98019617131632" height="12.56198347107438" fill="#70ad47"></rect><text class="label" x="228.44698386321335" y="596.3833792470156" font-size="10px">35x</text><text class="label" x="225.86117351511" y="609.6065197428833" font-size="10px">34x</text><text class="label" x="226.74587479235046" y="622.8296602387511" font-size="10px">34x</text><text class="label" x="190.3426708258505" y="636.0528007346188" font-size="10px">16x</text><text class="label" x="188.80569719645834" y="649.2759412304866" font-size="10px">15x</text><text class="label" x="160.48019617131632" y="662.4990817263545" font-size="10px">1x</text><text class="label" x="224.94698386321335" y="597.8833792470156" font-size="8px"></text><text class="label" x="222.36117351511" y="611.1065197428833" font-size="8px"></text><text class="label" x="223.24587479235046" y="624.3296602387511" font-size="8px"></text><text class="label" x="186.8426708258505" y="637.5528007346188" font-size="8px"></text><text class="label" x="185.30569719645834" y="650.7759412304866" font-size="8px"></text><text class="label" x="156.98019617131632" y="663.9990817263545" font-size="8px"></text></g><g style="font-size: 13px;"><rect x="150" y="676.7722681359045" width="59.15058017094286" height="12.56198347107438" fill="#4472c4"></rect><rect x="150" y="689.9954086317722" width="52.469755451954114" height="12.56198347107438" fill="#ed7d31"></rect><rect x="150" y="703.21854912764" width="55.74006520872778" height="12.56198347107438" fill="#a5a5a5"></rect><rect x="150" y="716.4416896235077" width="39.890387873930045" height="12.56198347107438" fill="#ffc000"></rect><rect x="150" y="729.6648301193756" width="44.509587489372954" height="12.56198347107438" fill="#5b9bd5"></rect><rect x="150" y="742.8879706152434" width="1.98019617131632" height="12.56198347107438" fill="#70ad47"></rect><text class="label" x="217.65058017094287" y="685.2722681359045" font-size="10px">30x</text><text class="label" x="210.96975545195411" y="698.4954086317722" font-size="10px">26x</text><text class="label" x="214.24006520872777" y="711.71854912764" font-size="10px">28x</text><text class="label" x="198.39038787393005" y="724.9416896235077" font-size="10px">20x</text><text class="label" x="203.00958748937296" y="738.1648301193756" font-size="10px">22x</text><text class="label" x="160.48019617131632" y="751.3879706152434" font-size="10px">1x</text><text class="label" x="214.15058017094287" y="686.7722681359045" font-size="8px"></text><text class="label" x="207.46975545195411" y="699.9954086317722" font-size="8px"></text><text class="label" x="210.74006520872777" y="713.21854912764" font-size="8px"></text><text class="label" x="194.89038787393005" y="726.4416896235077" font-size="8px"></text><text class="label" x="199.50958748937296" y="739.6648301193756" font-size="8px"></text><text class="label" x="156.98019617131632" y="752.8879706152434" font-size="8px"></text></g></g></svg>