<svg xmlns="http://www.w3.org/2000/svg" xmlns:xlink="http://www.w3.org/1999/xlink" width="800" height="675" style="background-color: white;"><g class="y axis" transform="translate(149,45)" fill="none" font-size="10" font-family="sans-serif" text-anchor="end" style="font-size: 13px;"><path class="domain" stroke="#000" d="M0,0.5H0.5V600.5H0"></path><g class="tick" opacity="1" transform="translate(0,40.740740740740726)" style="font-size: 13px;"><line stroke="#000" x2="0"></line><text fill="#000" x="-3" dy="0.32em">object (simple)    </text></g><g class="tick" opacity="1" transform="translate(0,114.81481481481481)" style="font-size: 13px;"><line stroke="#000" x2="0"></line><text fill="#000" x="-3" dy="0.32em">object (hierarchical)    </text></g><g class="tick" opacity="1" transform="translate(0,188.88888888888889)" style="font-size: 13px;"><line stroke="#000" x2="0"></line><text fill="#000" x="-3" dy="0.32em">object (recursive)    </text></g><g class="tick" opacity="1" transform="translate(0,262.96296296296293)" style="font-size: 13px;"><line stroke="#000" x2="0"></line><text fill="#000" x="-3" dy="0.32em">object (union)    </text></g><g class="tick" opacity="1" transform="translate(0,337.037037037037)" style="font-size: 13px;"><line stroke="#000" x2="0"></line><text fill="#000" x="-3" dy="0.32em">array (simple)    </text></g><g class="tick" opacity="1" transform="translate(0,411.1111111111111)" style="font-size: 13px;"><line stroke="#000" x2="0"></line><text fill="#000" x="-3" dy="0.32em">array (hierarchical)    </text></g><g class="tick" opacity="1" transform="translate(0,485.18518518518516)" style="font-size: 13px;"><line stroke="#000" x2="0"></line><text fill="#000" x="-3" dy="0.32em">array (recursive)    </text></g><g class="tick" opacity="1" transform="translate(0,559.2592592592592)" style="font-size: 13px;"><line stroke="#000" x2="0"></line><text fill="#000" x="-3" dy="0.32em">array (union)    </text></g></g><g class="x axis" transform="translate(149,645)" fill="none" font-size="10" font-family="sans-serif" text-anchor="middle" style="font-size: 13px;"><path class="domain" stroke="#000" d="M0.5,0V0.5H485.5V0"></path><g class="tick" opacity="1" transform="translate(0.5,0)" style="font-size: 13px;"><line stroke="#000" y2="6"></line><text fill="#000" y="9" dy="0.71em">0x</text></g><g class="tick" opacity="1" transform="translate(118.46598475899772,0)" style="font-size: 13px;"><line stroke="#000" y2="6"></line><text fill="#000" y="9" dy="0.71em">2x</text></g><g class="tick" opacity="1" transform="translate(236.43196951799544,0)" style="font-size: 13px;"><line stroke="#000" y2="6"></line><text fill="#000" y="9" dy="0.71em">4x</text></g><g class="tick" opacity="1" transform="translate(354.3979542769932,0)" style="font-size: 13px;"><line stroke="#000" y2="6"></line><text fill="#000" y="9" dy="0.71em">6x</text></g><g class="tick" opacity="1" transform="translate(472.3639390359909,0)" style="font-size: 13px;"><line stroke="#000" y2="6"></line><text fill="#000" y="9" dy="0.71em">8x</text></g></g><text transform="translate(400, 30)" style="text-anchor: middle; font-size: 20px; font-weight: bold;">stringify benchmark</text><rect x="680" y="145" width="200" height="5" fill="gray"></rect><rect x="675" y="35" width="200" height="110" fill="none" stroke="black"></rect><rect x="685" y="45" width="10" height="10" style="fill: #4472c4;"></rect><text x="700" y="55" style="font-size: 12px;">TSON.stringify()</text><rect x="685" y="65" width="10" height="10" style="fill: #ed7d31;"></rect><text x="700" y="75" style="font-size: 12px;">TSON.assertStringify()</text><rect x="685" y="85" width="10" height="10" style="fill: #a5a5a5;"></rect><text x="700" y="95" style="font-size: 12px;">TSON.isStringify()</text><rect x="685" y="105" width="10" height="10" style="fill: #ffc000;"></rect><text x="700" y="115" style="font-size: 12px;">fast-json-stringify</text><rect x="685" y="125" width="10" height="10" style="fill: #5b9bd5;"></rect><text x="700" y="135" style="font-size: 12px;">JSON.stringify</text><g style="font-size: 13px;"><g style="font-size: 13px;"><rect x="150" y="53.06747341400805" width="440.9090909090909" height="12.541254125412543" fill="#4472c4"></rect><rect x="150" y="66.26879354602124" width="328.5452258042789" height="12.541254125412543" fill="#ed7d31"></rect><rect x="150" y="79.47011367803445" width="411.2836261157608" height="12.541254125412543" fill="#a5a5a5"></rect><rect x="150" y="92.67143381004766" width="247.95880720998883" height="12.541254125412543" fill="#ffc000"></rect><rect x="150" y="105.87275394206085" width="58.98299237949886" height="12.541254125412543" fill="#5b9bd5"></rect><text class="label" x="599.4090909090909" y="61.56747341400805" font-size="10px">7.48x</text><text class="label" x="487.0452258042789" y="74.76879354602124" font-size="10px">5.57x</text><text class="label" x="569.7836261157609" y="87.97011367803445" font-size="10px">6.97x</text><text class="label" x="406.45880720998883" y="101.17143381004766" font-size="10px">4.2x</text><text class="label" x="217.48299237949885" y="114.37275394206085" font-size="10px">1x</text><text class="label" x="595.9090909090909" y="63.06747341400805" font-size="8px"></text><text class="label" x="483.5452258042789" y="76.26879354602124" font-size="8px"></text><text class="label" x="566.2836261157609" y="89.47011367803445" font-size="8px"></text><text class="label" x="402.95880720998883" y="102.67143381004766" font-size="8px"></text><text class="label" x="213.98299237949885" y="115.87275394206085" font-size="8px"></text></g><g style="font-size: 13px;"><rect x="150" y="127.14154748808213" width="201.8610568115545" height="12.541254125412543" fill="#4472c4"></rect><rect x="150" y="140.34286762009532" width="176.31052637131765" height="12.541254125412543" fill="#ed7d31"></rect><rect x="150" y="153.54418775210854" width="181.8857544767098" height="12.541254125412543" fill="#a5a5a5"></rect><rect x="150" y="166.74550788412174" width="179.7362591077018" height="12.541254125412543" fill="#ffc000"></rect><rect x="150" y="179.94682801613493" width="58.98299237949886" height="12.541254125412543" fill="#5b9bd5"></rect><text class="label" x="360.3610568115545" y="135.64154748808213" font-size="10px">3.42x</text><text class="label" x="334.8105263713177" y="148.84286762009532" font-size="10px">2.99x</text><text class="label" x="340.3857544767098" y="162.04418775210854" font-size="10px">3.08x</text><text class="label" x="338.2362591077018" y="175.24550788412174" font-size="10px">3.05x</text><text class="label" x="217.48299237949885" y="188.44682801613493" font-size="10px">1x</text><text class="label" x="356.8610568115545" y="137.14154748808213" font-size="8px"></text><text class="label" x="331.3105263713177" y="150.34286762009532" font-size="8px"></text><text class="label" x="336.8857544767098" y="163.54418775210854" font-size="8px"></text><text class="label" x="334.7362591077018" y="176.74550788412174" font-size="8px"></text><text class="label" x="213.98299237949885" y="189.94682801613493" font-size="8px"></text></g><g style="font-size: 13px;"><rect x="150" y="201.2156215621562" width="266.08914174434466" height="12.541254125412543" fill="#4472c4"></rect><rect x="150" y="214.4169416941694" width="236.63774373707284" height="12.541254125412543" fill="#ed7d31"></rect><rect x="150" y="227.61826182618262" width="253.6400636289515" height="12.541254125412543" fill="#a5a5a5"></rect><rect x="150" y="240.8195819581958" width="60.033701750692586" height="12.541254125412543" fill="#ffc000"></rect><rect x="150" y="254.020902090209" width="58.98299237949886" height="12.541254125412543" fill="#5b9bd5"></rect><text class="label" x="424.58914174434466" y="209.7156215621562" font-size="10px">4.51x</text><text class="label" x="395.1377437370728" y="222.9169416941694" font-size="10px">4.01x</text><text class="label" x="412.1400636289515" y="236.11826182618262" font-size="10px">4.3x</text><text class="label" x="218.5337017506926" y="249.3195819581958" font-size="10px">1.02x</text><text class="label" x="217.48299237949885" y="262.520902090209" font-size="10px">1x</text><text class="label" x="421.08914174434466" y="211.2156215621562" font-size="8px"></text><text class="label" x="391.6377437370728" y="224.4169416941694" font-size="8px"></text><text class="label" x="408.6400636289515" y="237.61826182618262" font-size="8px"></text><text class="label" x="215.0337017506926" y="250.8195819581958" font-size="8px"></text><text class="label" x="213.98299237949885" y="264.020902090209" font-size="8px"></text></g><g style="font-size: 13px;"><rect x="150" y="275.28969563623025" width="124.26036261785826" height="12.541254125412543" fill="#4472c4"></rect><rect x="150" y="288.49101576824347" width="97.83900166835083" height="12.541254125412543" fill="#ed7d31"></rect><rect x="150" y="301.6923359002567" width="113.19684505208485" height="12.541254125412543" fill="#a5a5a5"></rect><rect x="150" y="314.89365603226986" width="126.62236721418634" height="12.541254125412543" fill="#ffc000"></rect><rect x="150" y="328.0949761642831" width="58.98299237949886" height="12.541254125412543" fill="#5b9bd5"></rect><text class="label" x="282.7603626178583" y="283.78969563623025" font-size="10px">2.11x</text><text class="label" x="256.3390016683508" y="296.99101576824347" font-size="10px">1.66x</text><text class="label" x="271.6968450520849" y="310.1923359002567" font-size="10px">1.92x</text><text class="label" x="285.12236721418634" y="323.39365603226986" font-size="10px">2.15x</text><text class="label" x="217.48299237949885" y="336.5949761642831" font-size="10px">1x</text><text class="label" x="279.2603626178583" y="285.28969563623025" font-size="8px"></text><text class="label" x="252.83900166835082" y="298.49101576824347" font-size="8px"></text><text class="label" x="268.1968450520849" y="311.6923359002567" font-size="8px"></text><text class="label" x="281.62236721418634" y="324.89365603226986" font-size="8px"></text><text class="label" x="213.98299237949885" y="338.0949761642831" font-size="8px"></text></g><g style="font-size: 13px;"><rect x="150" y="349.3637697103044" width="76.3479647629334" height="12.541254125412543" fill="#4472c4"></rect><rect x="150" y="362.56508984231755" width="58.98299237949886" height="12.541254125412543" fill="#ed7d31"></rect><rect x="150" y="375.76640997433077" width="67.62859436400248" height="12.541254125412543" fill="#a5a5a5"></rect><rect x="150" y="388.967730106344" width="94.51925877701123" height="12.541254125412543" fill="#ffc000"></rect><rect x="150" y="402.16905023835716" width="64.46597927925643" height="12.541254125412543" fill="#5b9bd5"></rect><text class="label" x="234.8479647629334" y="357.8637697103044" font-size="10px">1.29x</text><text class="label" x="217.48299237949885" y="371.06508984231755" font-size="10px">1x</text><text class="label" x="226.12859436400248" y="384.26640997433077" font-size="10px">1.15x</text><text class="label" x="253.01925877701123" y="397.467730106344" font-size="10px">1.6x</text><text class="label" x="222.96597927925643" y="410.66905023835716" font-size="10px">1.09x</text><text class="label" x="231.3479647629334" y="359.3637697103044" font-size="8px"></text><text class="label" x="213.98299237949885" y="372.56508984231755" font-size="8px"></text><text class="label" x="222.62859436400248" y="385.76640997433077" font-size="8px"></text><text class="label" x="249.51925877701123" y="398.967730106344" font-size="8px"></text><text class="label" x="219.46597927925643" y="412.16905023835716" font-size="8px"></text></g><g style="font-size: 13px;"><rect x="150" y="423.4378437843784" width="117.3496420496342" height="12.541254125412543" fill="#4472c4"></rect><rect x="150" y="436.6391639163916" width="104.63732410107717" height="12.541254125412543" fill="#ed7d31"></rect><rect x="150" y="449.84048404840485" width="110.57435282599708" height="12.541254125412543" fill="#a5a5a5"></rect><rect x="150" y="463.041804180418" width="159.03678729374732" height="12.541254125412543" fill="#ffc000"></rect><rect x="150" y="476.24312431243123" width="58.98299237949886" height="12.541254125412543" fill="#5b9bd5"></rect><text class="label" x="275.8496420496342" y="431.9378437843784" font-size="10px">1.99x</text><text class="label" x="263.1373241010772" y="445.1391639163916" font-size="10px">1.77x</text><text class="label" x="269.0743528259971" y="458.34048404840485" font-size="10px">1.87x</text><text class="label" x="317.53678729374735" y="471.541804180418" font-size="10px">2.7x</text><text class="label" x="217.48299237949885" y="484.74312431243123" font-size="10px">1x</text><text class="label" x="272.3496420496342" y="433.4378437843784" font-size="8px"></text><text class="label" x="259.6373241010772" y="446.6391639163916" font-size="8px"></text><text class="label" x="265.5743528259971" y="459.84048404840485" font-size="8px"></text><text class="label" x="314.03678729374735" y="473.041804180418" font-size="8px"></text><text class="label" x="213.98299237949885" y="486.24312431243123" font-size="8px"></text></g><g style="font-size: 13px;"><rect x="150" y="497.51191785845253" width="126.15918941438423" height="12.541254125412543" fill="#4472c4"></rect><rect x="150" y="510.7132379904657" width="116.41609857878146" height="12.541254125412543" fill="#ed7d31"></rect><rect x="150" y="523.9145581224789" width="122.54933793616114" height="12.541254125412543" fill="#a5a5a5"></rect><rect x="150" y="537.1158782544921" width="59.65414344014175" height="12.541254125412543" fill="#ffc000"></rect><rect x="150" y="550.3171983865053" width="58.98299237949886" height="12.541254125412543" fill="#5b9bd5"></rect><text class="label" x="284.65918941438423" y="506.01191785845253" font-size="10px">2.14x</text><text class="label" x="274.91609857878143" y="519.2132379904657" font-size="10px">1.97x</text><text class="label" x="281.0493379361611" y="532.4145581224789" font-size="10px">2.08x</text><text class="label" x="218.15414344014175" y="545.6158782544921" font-size="10px">1.01x</text><text class="label" x="217.48299237949885" y="558.8171983865053" font-size="10px">1x</text><text class="label" x="281.15918941438423" y="507.51191785845253" font-size="8px"></text><text class="label" x="271.41609857878143" y="520.7132379904657" font-size="8px"></text><text class="label" x="277.5493379361611" y="533.9145581224789" font-size="8px"></text><text class="label" x="214.65414344014175" y="547.1158782544921" font-size="8px"></text><text class="label" x="213.98299237949885" y="560.3171983865053" font-size="8px"></text></g><g style="font-size: 13px;"><rect x="150" y="571.5859919325266" width="73.12724609999225" height="12.541254125412543" fill="#4472c4"></rect><rect x="150" y="584.7873120645397" width="61.75329305019998" height="12.541254125412543" fill="#ed7d31"></rect><rect x="150" y="597.9886321965529" width="66.64700426100273" height="12.541254125412543" fill="#a5a5a5"></rect><rect x="150" y="611.1899523285662" width="58.98299237949886" height="12.541254125412543" fill="#ffc000"></rect><rect x="150" y="624.3912724605793" width="68.90205747868785" height="12.541254125412543" fill="#5b9bd5"></rect><text class="label" x="231.62724609999225" y="580.0859919325266" font-size="10px">1.24x</text><text class="label" x="220.25329305019997" y="593.2873120645397" font-size="10px">1.05x</text><text class="label" x="225.14700426100273" y="606.4886321965529" font-size="10px">1.13x</text><text class="label" x="217.48299237949885" y="619.6899523285662" font-size="10px">1x</text><text class="label" x="227.40205747868785" y="632.8912724605793" font-size="10px">1.17x</text><text class="label" x="228.12724609999225" y="581.5859919325266" font-size="8px"></text><text class="label" x="216.75329305019997" y="594.7873120645397" font-size="8px"></text><text class="label" x="221.64700426100273" y="607.9886321965529" font-size="8px"></text><text class="label" x="213.98299237949885" y="621.1899523285662" font-size="8px"></text><text class="label" x="223.90205747868785" y="634.3912724605793" font-size="8px"></text></g></g></svg>