<svg xmlns="http://www.w3.org/2000/svg" xmlns:xlink="http://www.w3.org/1999/xlink" width="800" height="675" style="background-color: white;"><g class="y axis" transform="translate(149,45)" fill="none" font-size="10" font-family="sans-serif" text-anchor="end" style="font-size: 13px;"><path class="domain" stroke="#000" d="M0,0.5H0.5V600.5H0"></path><g class="tick" opacity="1" transform="translate(0,40.740740740740726)" style="font-size: 13px;"><line stroke="#000" x2="0"></line><text fill="#000" x="-3" dy="0.32em">object (simple)    </text></g><g class="tick" opacity="1" transform="translate(0,114.81481481481481)" style="font-size: 13px;"><line stroke="#000" x2="0"></line><text fill="#000" x="-3" dy="0.32em">object (hierarchical)    </text></g><g class="tick" opacity="1" transform="translate(0,188.88888888888889)" style="font-size: 13px;"><line stroke="#000" x2="0"></line><text fill="#000" x="-3" dy="0.32em">object (recursive)    </text></g><g class="tick" opacity="1" transform="translate(0,262.96296296296293)" style="font-size: 13px;"><line stroke="#000" x2="0"></line><text fill="#000" x="-3" dy="0.32em">object (union)    </text></g><g class="tick" opacity="1" transform="translate(0,337.037037037037)" style="font-size: 13px;"><line stroke="#000" x2="0"></line><text fill="#000" x="-3" dy="0.32em">array (simple)    </text></g><g class="tick" opacity="1" transform="translate(0,411.1111111111111)" style="font-size: 13px;"><line stroke="#000" x2="0"></line><text fill="#000" x="-3" dy="0.32em">array (hierarchical)    </text></g><g class="tick" opacity="1" transform="translate(0,485.18518518518516)" style="font-size: 13px;"><line stroke="#000" x2="0"></line><text fill="#000" x="-3" dy="0.32em">array (recursive)    </text></g><g class="tick" opacity="1" transform="translate(0,559.2592592592592)" style="font-size: 13px;"><line stroke="#000" x2="0"></line><text fill="#000" x="-3" dy="0.32em">array (union)    </text></g></g><g class="x axis" transform="translate(149,645)" fill="none" font-size="10" font-family="sans-serif" text-anchor="middle" style="font-size: 13px;"><path class="domain" stroke="#000" d="M0.5,0V0.5H485.5V0"></path><g class="tick" opacity="1" transform="translate(0.5,0)" style="font-size: 13px;"><line stroke="#000" y2="6"></line><text fill="#000" y="9" dy="0.71em">0x</text></g><g class="tick" opacity="1" transform="translate(110.07316000399675,0)" style="font-size: 13px;"><line stroke="#000" y2="6"></line><text fill="#000" y="9" dy="0.71em">0.5x</text></g><g class="tick" opacity="1" transform="translate(219.6463200079935,0)" style="font-size: 13px;"><line stroke="#000" y2="6"></line><text fill="#000" y="9" dy="0.71em">1x</text></g><g class="tick" opacity="1" transform="translate(329.21948001199024,0)" style="font-size: 13px;"><line stroke="#000" y2="6"></line><text fill="#000" y="9" dy="0.71em">1.5x</text></g><g class="tick" opacity="1" transform="translate(438.792640015987,0)" style="font-size: 13px;"><line stroke="#000" y2="6"></line><text fill="#000" y="9" dy="0.71em">2x</text></g></g><text transform="translate(400, 30)" style="text-anchor: middle; font-size: 20px; font-weight: bold;">stringify (server) benchmark</text><rect x="680" y="145" width="200" height="5" fill="gray"></rect><rect x="675" y="35" width="200" height="110" fill="none" stroke="black"></rect><rect x="685" y="45" width="10" height="10" style="fill: #4472c4;"></rect><text x="700" y="55" style="font-size: 12px;">express (pure)</text><rect x="685" y="65" width="10" height="10" style="fill: #ed7d31;"></rect><text x="700" y="75" style="font-size: 12px;">express (TSON.stringify)</text><rect x="685" y="85" width="10" height="10" style="fill: #a5a5a5;"></rect><text x="700" y="95" style="font-size: 12px;">express (TSON.isStringify)</text><rect x="685" y="105" width="10" height="10" style="fill: #ffc000;"></rect><text x="700" y="115" style="font-size: 12px;">express (TSON.assertStringify)</text><rect x="685" y="125" width="10" height="10" style="fill: #5b9bd5;"></rect><text x="700" y="135" style="font-size: 12px;">fastify</text><g style="font-size: 13px;"><g style="font-size: 13px;"><rect x="150" y="53.06747341400805" width="219.1463200079935" height="12.541254125412543" fill="#4472c4"></rect><rect x="150" y="66.26879354602124" width="304.9119615022045" height="12.541254125412543" fill="#ed7d31"></rect><rect x="150" y="79.47011367803445" width="304.32576723102756" height="12.541254125412543" fill="#a5a5a5"></rect><rect x="150" y="92.67143381004766" width="276.5451248999913" height="12.541254125412543" fill="#ffc000"></rect><rect x="150" y="105.87275394206085" width="440.9090909090909" height="12.541254125412543" fill="#5b9bd5"></rect><text class="label" x="377.6463200079935" y="61.56747341400805" font-size="10px">1x</text><text class="label" x="463.4119615022045" y="74.76879354602124" font-size="10px">1.39x</text><text class="label" x="462.82576723102756" y="87.97011367803445" font-size="10px">1.39x</text><text class="label" x="435.0451248999913" y="101.17143381004766" font-size="10px">1.26x</text><text class="label" x="599.4090909090909" y="114.37275394206085" font-size="10px">2.01x</text><text class="label" x="374.1463200079935" y="63.06747341400805" font-size="8px"></text><text class="label" x="459.9119615022045" y="76.26879354602124" font-size="8px"></text><text class="label" x="459.32576723102756" y="89.47011367803445" font-size="8px"></text><text class="label" x="431.5451248999913" y="102.67143381004766" font-size="8px"></text><text class="label" x="595.9090909090909" y="115.87275394206085" font-size="8px"></text></g><g style="font-size: 13px;"><rect x="150" y="127.14154748808213" width="219.1463200079935" height="12.541254125412543" fill="#4472c4"></rect><rect x="150" y="140.34286762009532" width="233.86577495570546" height="12.541254125412543" fill="#ed7d31"></rect><rect x="150" y="153.54418775210854" width="231.55035681566517" height="12.541254125412543" fill="#a5a5a5"></rect><rect x="150" y="166.74550788412174" width="232.59657277547709" height="12.541254125412543" fill="#ffc000"></rect><rect x="150" y="179.94682801613493" width="314.16065066275985" height="12.541254125412543" fill="#5b9bd5"></rect><text class="label" x="377.6463200079935" y="135.64154748808213" font-size="10px">1x</text><text class="label" x="392.36577495570543" y="148.84286762009532" font-size="10px">1.07x</text><text class="label" x="390.05035681566517" y="162.04418775210854" font-size="10px">1.06x</text><text class="label" x="391.09657277547706" y="175.24550788412174" font-size="10px">1.06x</text><text class="label" x="472.66065066275985" y="188.44682801613493" font-size="10px">1.43x</text><text class="label" x="374.1463200079935" y="137.14154748808213" font-size="8px"></text><text class="label" x="388.86577495570543" y="150.34286762009532" font-size="8px"></text><text class="label" x="386.55035681566517" y="163.54418775210854" font-size="8px"></text><text class="label" x="387.59657277547706" y="176.74550788412174" font-size="8px"></text><text class="label" x="469.16065066275985" y="189.94682801613493" font-size="8px"></text></g><g style="font-size: 13px;"><rect x="150" y="201.2156215621562" width="219.1463200079935" height="12.541254125412543" fill="#4472c4"></rect><rect x="150" y="214.4169416941694" width="254.8128086078633" height="12.541254125412543" fill="#ed7d31"></rect><rect x="150" y="227.61826182618262" width="257.80043584723813" height="12.541254125412543" fill="#a5a5a5"></rect><rect x="150" y="240.8195819581958" width="250.7988757445683" height="12.541254125412543" fill="#ffc000"></rect><rect x="150" y="254.020902090209" width="265.3637687258205" height="12.541254125412543" fill="#5b9bd5"></rect><text class="label" x="377.6463200079935" y="209.7156215621562" font-size="10px">1x</text><text class="label" x="413.3128086078633" y="222.9169416941694" font-size="10px">1.16x</text><text class="label" x="416.30043584723813" y="236.11826182618262" font-size="10px">1.18x</text><text class="label" x="409.2988757445683" y="249.3195819581958" font-size="10px">1.14x</text><text class="label" x="423.8637687258205" y="262.520902090209" font-size="10px">1.21x</text><text class="label" x="374.1463200079935" y="211.2156215621562" font-size="8px"></text><text class="label" x="409.8128086078633" y="224.4169416941694" font-size="8px"></text><text class="label" x="412.80043584723813" y="237.61826182618262" font-size="8px"></text><text class="label" x="405.7988757445683" y="250.8195819581958" font-size="8px"></text><text class="label" x="420.3637687258205" y="264.020902090209" font-size="8px"></text></g><g style="font-size: 13px;"><rect x="150" y="275.28969563623025" width="219.1463200079935" height="12.541254125412543" fill="#4472c4"></rect><rect x="150" y="288.49101576824347" width="340.0262058783775" height="12.541254125412543" fill="#ed7d31"></rect><rect x="150" y="301.6923359002567" width="324.53401564084714" height="12.541254125412543" fill="#a5a5a5"></rect><rect x="150" y="314.89365603226986" width="295.5735142264819" height="12.541254125412543" fill="#ffc000"></rect><rect x="150" y="328.0949761642831" width="221.5169073316222" height="12.541254125412543" fill="#5b9bd5"></rect><text class="label" x="377.6463200079935" y="283.78969563623025" font-size="10px">1x</text><text class="label" x="498.5262058783775" y="296.99101576824347" font-size="10px">1.55x</text><text class="label" x="483.03401564084714" y="310.1923359002567" font-size="10px">1.48x</text><text class="label" x="454.0735142264819" y="323.39365603226986" font-size="10px">1.35x</text><text class="label" x="380.0169073316222" y="336.5949761642831" font-size="10px">1.01x</text><text class="label" x="374.1463200079935" y="285.28969563623025" font-size="8px"></text><text class="label" x="495.0262058783775" y="298.49101576824347" font-size="8px"></text><text class="label" x="479.53401564084714" y="311.6923359002567" font-size="8px"></text><text class="label" x="450.5735142264819" y="324.89365603226986" font-size="8px"></text><text class="label" x="376.5169073316222" y="338.0949761642831" font-size="8px"></text></g><g style="font-size: 13px;"><rect x="150" y="349.3637697103044" width="255.0138745492227" height="12.541254125412543" fill="#4472c4"></rect><rect x="150" y="362.56508984231755" width="264.05208044685185" height="12.541254125412543" fill="#ed7d31"></rect><rect x="150" y="375.76640997433077" width="238.29168377771416" height="12.541254125412543" fill="#a5a5a5"></rect><rect x="150" y="388.967730106344" width="219.1463200079935" height="12.541254125412543" fill="#ffc000"></rect><rect x="150" y="402.16905023835716" width="237.9266119414304" height="12.541254125412543" fill="#5b9bd5"></rect><text class="label" x="413.5138745492227" y="357.8637697103044" font-size="10px">1.16x</text><text class="label" x="422.55208044685185" y="371.06508984231755" font-size="10px">1.2x</text><text class="label" x="396.7916837777142" y="384.26640997433077" font-size="10px">1.09x</text><text class="label" x="377.6463200079935" y="397.467730106344" font-size="10px">1x</text><text class="label" x="396.4266119414304" y="410.66905023835716" font-size="10px">1.09x</text><text class="label" x="410.0138745492227" y="359.3637697103044" font-size="8px"></text><text class="label" x="419.05208044685185" y="372.56508984231755" font-size="8px"></text><text class="label" x="393.2916837777142" y="385.76640997433077" font-size="8px"></text><text class="label" x="374.1463200079935" y="398.967730106344" font-size="8px"></text><text class="label" x="392.9266119414304" y="412.16905023835716" font-size="8px"></text></g><g style="font-size: 13px;"><rect x="150" y="423.4378437843784" width="261.91492228113134" height="12.541254125412543" fill="#4472c4"></rect><rect x="150" y="436.6391639163916" width="382.2174046555671" height="12.541254125412543" fill="#ed7d31"></rect><rect x="150" y="449.84048404840485" width="351.00934650810825" height="12.541254125412543" fill="#a5a5a5"></rect><rect x="150" y="463.041804180418" width="250.88116285538166" height="12.541254125412543" fill="#ffc000"></rect><rect x="150" y="476.24312431243123" width="219.1463200079935" height="12.541254125412543" fill="#5b9bd5"></rect><text class="label" x="420.41492228113134" y="431.9378437843784" font-size="10px">1.2x</text><text class="label" x="540.7174046555672" y="445.1391639163916" font-size="10px">1.74x</text><text class="label" x="509.50934650810825" y="458.34048404840485" font-size="10px">1.6x</text><text class="label" x="409.38116285538166" y="471.541804180418" font-size="10px">1.14x</text><text class="label" x="377.6463200079935" y="484.74312431243123" font-size="10px">1x</text><text class="label" x="416.91492228113134" y="433.4378437843784" font-size="8px"></text><text class="label" x="537.2174046555672" y="446.6391639163916" font-size="8px"></text><text class="label" x="506.00934650810825" y="459.84048404840485" font-size="8px"></text><text class="label" x="405.88116285538166" y="473.041804180418" font-size="8px"></text><text class="label" x="374.1463200079935" y="486.24312431243123" font-size="8px"></text></g><g style="font-size: 13px;"><rect x="150" y="497.51191785845253" width="224.25004291388404" height="12.541254125412543" fill="#4472c4"></rect><rect x="150" y="510.7132379904657" width="274.5228271701551" height="12.541254125412543" fill="#ed7d31"></rect><rect x="150" y="523.9145581224789" width="268.04627332314845" height="12.541254125412543" fill="#a5a5a5"></rect><rect x="150" y="537.1158782544921" width="256.7352225570759" height="12.541254125412543" fill="#ffc000"></rect><rect x="150" y="550.3171983865053" width="219.1463200079935" height="12.541254125412543" fill="#5b9bd5"></rect><text class="label" x="382.75004291388404" y="506.01191785845253" font-size="10px">1.02x</text><text class="label" x="433.0228271701551" y="519.2132379904657" font-size="10px">1.25x</text><text class="label" x="426.54627332314845" y="532.4145581224789" font-size="10px">1.22x</text><text class="label" x="415.2352225570759" y="545.6158782544921" font-size="10px">1.17x</text><text class="label" x="377.6463200079935" y="558.8171983865053" font-size="10px">1x</text><text class="label" x="379.25004291388404" y="507.51191785845253" font-size="8px"></text><text class="label" x="429.5228271701551" y="520.7132379904657" font-size="8px"></text><text class="label" x="423.04627332314845" y="533.9145581224789" font-size="8px"></text><text class="label" x="411.7352225570759" y="547.1158782544921" font-size="8px"></text><text class="label" x="374.1463200079935" y="560.3171983865053" font-size="8px"></text></g><g style="font-size: 13px;"><rect x="150" y="571.5859919325266" width="303.582036405483" height="12.541254125412543" fill="#4472c4"></rect><rect x="150" y="584.7873120645397" width="269.76454413576596" height="12.541254125412543" fill="#ed7d31"></rect><rect x="150" y="597.9886321965529" width="247.63632024165085" height="12.541254125412543" fill="#a5a5a5"></rect><rect x="150" y="611.1899523285662" width="235.6043301140182" height="12.541254125412543" fill="#ffc000"></rect><rect x="150" y="624.3912724605793" width="219.1463200079935" height="12.541254125412543" fill="#5b9bd5"></rect><text class="label" x="462.082036405483" y="580.0859919325266" font-size="10px">1.39x</text><text class="label" x="428.26454413576596" y="593.2873120645397" font-size="10px">1.23x</text><text class="label" x="406.1363202416509" y="606.4886321965529" font-size="10px">1.13x</text><text class="label" x="394.10433011401824" y="619.6899523285662" font-size="10px">1.08x</text><text class="label" x="377.6463200079935" y="632.8912724605793" font-size="10px">1x</text><text class="label" x="458.582036405483" y="581.5859919325266" font-size="8px"></text><text class="label" x="424.76454413576596" y="594.7873120645397" font-size="8px"></text><text class="label" x="402.6363202416509" y="607.9886321965529" font-size="8px"></text><text class="label" x="390.60433011401824" y="621.1899523285662" font-size="8px"></text><text class="label" x="374.1463200079935" y="634.3912724605793" font-size="8px"></text></g></g></svg>