<svg xmlns="http://www.w3.org/2000/svg" xmlns:xlink="http://www.w3.org/1999/xlink" width="800" height="914" style="background-color: white;"><g class="y axis" transform="translate(149,45)" fill="none" font-size="10" font-family="sans-serif" text-anchor="end" style="font-size: 13px;"><path class="domain" stroke="currentColor" d="M0.5,0.5V720.5"></path><g class="tick" opacity="1" transform="translate(0,48.88888888888886)" style="font-size: 13px;"><line stroke="currentColor" x2="0"></line><text fill="currentColor" x="-3" dy="0.32em">object (simple)    </text></g><g class="tick" opacity="1" transform="translate(0,137.77777777777774)" style="font-size: 13px;"><line stroke="currentColor" x2="0"></line><text fill="currentColor" x="-3" dy="0.32em">object (hierarchical)    </text></g><g class="tick" opacity="1" transform="translate(0,226.66666666666663)" style="font-size: 13px;"><line stroke="currentColor" x2="0"></line><text fill="currentColor" x="-3" dy="0.32em">object (recursive)    </text></g><g class="tick" opacity="1" transform="translate(0,315.5555555555555)" style="font-size: 13px;"><line stroke="currentColor" x2="0"></line><text fill="currentColor" x="-3" dy="0.32em">object (union, explicit)    </text></g><g class="tick" opacity="1" transform="translate(0,404.4444444444444)" style="font-size: 13px;"><line stroke="currentColor" x2="0"></line><text fill="currentColor" x="-3" dy="0.32em">array (simple)    </text></g><g class="tick" opacity="1" transform="translate(0,493.3333333333333)" style="font-size: 13px;"><line stroke="currentColor" x2="0"></line><text fill="currentColor" x="-3" dy="0.32em">array (hierarchical)    </text></g><g class="tick" opacity="1" transform="translate(0,582.2222222222222)" style="font-size: 13px;"><line stroke="currentColor" x2="0"></line><text fill="currentColor" x="-3" dy="0.32em">array (recursive)    </text></g><g class="tick" opacity="1" transform="translate(0,671.1111111111111)" style="font-size: 13px;"><line stroke="currentColor" x2="0"></line><text fill="currentColor" x="-3" dy="0.32em">array (union, explicit)    </text></g></g><g class="x axis" transform="translate(149,765)" fill="none" font-size="10" font-family="sans-serif" text-anchor="middle" style="font-size: 13px;"><path class="domain" stroke="currentColor" d="M0.5,0.5H485.5"></path><g class="tick" opacity="1" transform="translate(0.5,0)" style="font-size: 13px;"><line stroke="currentColor" y2="6"></line><text fill="currentColor" y="9" dy="0.71em">0x</text></g><g class="tick" opacity="1" transform="translate(104.29969552077186,0)" style="font-size: 13px;"><line stroke="currentColor" y2="6"></line><text fill="currentColor" y="9" dy="0.71em">50x</text></g><g class="tick" opacity="1" transform="translate(208.09939104154373,0)" style="font-size: 13px;"><line stroke="currentColor" y2="6"></line><text fill="currentColor" y="9" dy="0.71em">100x</text></g><g class="tick" opacity="1" transform="translate(311.8990865623156,0)" style="font-size: 13px;"><line stroke="currentColor" y2="6"></line><text fill="currentColor" y="9" dy="0.71em">150x</text></g><g class="tick" opacity="1" transform="translate(415.69878208308745,0)" style="font-size: 13px;"><line stroke="currentColor" y2="6"></line><text fill="currentColor" y="9" dy="0.71em">200x</text></g></g><text transform="translate(400, 30)" style="text-anchor: middle; font-size: 20px; font-weight: bold;">stringify benchmark</text><rect x="650" y="165" width="230" height="5" fill="gray"></rect><rect x="645" y="35" width="230" height="130" fill="none" stroke="black"></rect><rect x="655" y="45" width="10" height="10" style="fill: #4472c4;"></rect><text x="670" y="55" style="font-size: 12px;">typia.stringify</text><rect x="655" y="65" width="10" height="10" style="fill: #ed7d31;"></rect><text x="670" y="75" style="font-size: 12px;">typia.isStringify</text><rect x="655" y="85" width="10" height="10" style="fill: #a5a5a5;"></rect><text x="670" y="95" style="font-size: 12px;">typia.assertStringify</text><rect x="655" y="105" width="10" height="10" style="fill: #ffc000;"></rect><text x="670" y="115" style="font-size: 12px;">fast-json-stringify</text><rect x="655" y="125" width="10" height="10" style="fill: #5b9bd5;"></rect><text x="670" y="135" style="font-size: 12px;">JSON.stringify</text><rect x="655" y="145" width="10" height="10" style="fill: #70ad47;"></rect><text x="670" y="155" style="font-size: 12px;">class-transformer</text><text x="20" y="829" style="font-size: 12px;">  - CPU: 11th Gen Intel(R) Core(TM) i5-1135G7 @ 2.40GHz</text><text x="20" y="846" style="font-size: 12px;">  - OS: win32</text><text x="20" y="863" style="font-size: 12px;">  - RAM: 16 GB</text><text x="20" y="880" style="font-size: 12px;">  - NodeJS version: v16.20.0</text><text x="20" y="897" style="font-size: 12px;">  - Typia version: v3.8.6</text><g style="font-size: 13px;"><g style="font-size: 13px;"><rect x="150" y="54.55004591368224" width="440.9090909090909" height="12.56198347107438" fill="#4472c4"></rect><rect x="150" y="67.77318640955001" width="351.3160046975883" height="12.56198347107438" fill="#ed7d31"></rect><rect x="150" y="80.99632690541777" width="275.77759402194437" height="12.56198347107438" fill="#a5a5a5"></rect><rect x="150" y="94.21946740128556" width="156.54079379499964" height="12.56198347107438" fill="#ffc000"></rect><rect x="150" y="107.44260789715332" width="30.00274285898849" height="12.56198347107438" fill="#5b9bd5"></rect><rect x="150" y="120.66574839302109" width="2.075993910415437" height="12.56198347107438" fill="#70ad47"></rect><text class="label" x="599.4090909090909" y="63.05004591368224" font-size="10px">212x</text><text class="label" x="509.8160046975883" y="76.27318640955001" font-size="10px">169x</text><text class="label" x="434.27759402194437" y="89.49632690541777" font-size="10px">133x</text><text class="label" x="315.0407937949997" y="102.71946740128556" font-size="10px">75x</text><text class="label" x="188.50274285898848" y="115.94260789715332" font-size="10px">14x</text><text class="label" x="160.57599391041543" y="129.1657483930211" font-size="10px">1x</text><text class="label" x="595.9090909090909" y="64.55004591368224" font-size="8px"></text><text class="label" x="506.3160046975883" y="77.77318640955001" font-size="8px"></text><text class="label" x="430.77759402194437" y="90.99632690541777" font-size="8px"></text><text class="label" x="311.5407937949997" y="104.21946740128556" font-size="8px"></text><text class="label" x="185.00274285898848" y="117.44260789715332" font-size="8px"></text><text class="label" x="157.07599391041543" y="130.6657483930211" font-size="8px"></text></g><g style="font-size: 13px;"><rect x="150" y="143.4389348025711" width="98.4217801662137" height="12.56198347107438" fill="#4472c4"></rect><rect x="150" y="156.66207529843888" width="93.51474194348917" height="12.56198347107438" fill="#ed7d31"></rect><rect x="150" y="169.88521579430665" width="91.64284700405254" height="12.56198347107438" fill="#a5a5a5"></rect><rect x="150" y="183.10835629017444" width="65.84137715196455" height="12.56198347107438" fill="#ffc000"></rect><rect x="150" y="196.3314967860422" width="24.545057986438408" height="12.56198347107438" fill="#5b9bd5"></rect><rect x="150" y="209.55463728190998" width="2.075993910415437" height="12.56198347107438" fill="#70ad47"></rect><text class="label" x="256.9217801662137" y="151.9389348025711" font-size="10px">47x</text><text class="label" x="252.01474194348918" y="165.16207529843888" font-size="10px">45x</text><text class="label" x="250.14284700405256" y="178.38521579430665" font-size="10px">44x</text><text class="label" x="224.34137715196454" y="191.60835629017444" font-size="10px">32x</text><text class="label" x="183.0450579864384" y="204.8314967860422" font-size="10px">12x</text><text class="label" x="160.57599391041543" y="218.05463728190998" font-size="10px">1x</text><text class="label" x="253.4217801662137" y="153.4389348025711" font-size="8px"></text><text class="label" x="248.51474194348918" y="166.66207529843888" font-size="8px"></text><text class="label" x="246.64284700405256" y="179.88521579430665" font-size="8px"></text><text class="label" x="220.84137715196454" y="193.10835629017444" font-size="8px"></text><text class="label" x="179.5450579864384" y="206.3314967860422" font-size="8px"></text><text class="label" x="157.07599391041543" y="219.55463728190998" font-size="8px"></text></g><g style="font-size: 13px;"><rect x="150" y="232.32782369146003" width="148.45937297945304" height="12.56198347107438" fill="#4472c4"></rect><rect x="150" y="245.5509641873278" width="147.31733234749638" height="12.56198347107438" fill="#ed7d31"></rect><rect x="150" y="258.77410468319556" width="136.86911754768437" height="12.56198347107438" fill="#a5a5a5"></rect><rect x="150" y="271.9972451790633" width="29.869911359780293" height="12.56198347107438" fill="#ffc000"></rect><rect x="150" y="285.2203856749311" width="30.68804551478246" height="12.56198347107438" fill="#5b9bd5"></rect><rect x="150" y="298.44352617079886" width="2.075993910415437" height="12.56198347107438" fill="#70ad47"></rect><text class="label" x="306.95937297945306" y="240.82782369146003" font-size="10px">72x</text><text class="label" x="305.8173323474964" y="254.0509641873278" font-size="10px">71x</text><text class="label" x="295.36911754768437" y="267.27410468319556" font-size="10px">66x</text><text class="label" x="188.3699113597803" y="280.4972451790633" font-size="10px">14x</text><text class="label" x="189.18804551478246" y="293.7203856749311" font-size="10px">15x</text><text class="label" x="160.57599391041543" y="306.94352617079886" font-size="10px">1x</text><text class="label" x="303.45937297945306" y="242.32782369146003" font-size="8px"></text><text class="label" x="302.3173323474964" y="255.5509641873278" font-size="8px"></text><text class="label" x="291.86911754768437" y="268.77410468319556" font-size="8px"></text><text class="label" x="184.8699113597803" y="281.9972451790633" font-size="8px"></text><text class="label" x="185.68804551478246" y="295.2203856749311" font-size="8px"></text><text class="label" x="157.07599391041543" y="308.44352617079886" font-size="8px"></text></g><g style="font-size: 13px;"><rect x="150" y="321.2167125803489" width="111.17632842962664" height="12.56198347107438" fill="#4472c4"></rect><rect x="150" y="334.43985307621665" width="96.95322941016778" height="12.56198347107438" fill="#ed7d31"></rect><rect x="150" y="347.6629935720844" width="95.15675603828177" height="12.56198347107438" fill="#a5a5a5"></rect><rect x="150" y="360.8861340679522" width="71.66413145814569" height="12.56198347107438" fill="#ffc000"></rect><rect x="150" y="374.10927456381995" width="47.9740595549384" height="12.56198347107438" fill="#5b9bd5"></rect><rect x="150" y="387.3324150596877" width="2.075993910415437" height="12.56198347107438" fill="#70ad47"></rect><text class="label" x="269.67632842962666" y="329.7167125803489" font-size="10px">54x</text><text class="label" x="255.45322941016778" y="342.93985307621665" font-size="10px">47x</text><text class="label" x="253.65675603828177" y="356.1629935720844" font-size="10px">46x</text><text class="label" x="230.16413145814568" y="369.3861340679522" font-size="10px">35x</text><text class="label" x="206.4740595549384" y="382.60927456381995" font-size="10px">23x</text><text class="label" x="160.57599391041543" y="395.8324150596877" font-size="10px">1x</text><text class="label" x="266.17632842962666" y="331.2167125803489" font-size="8px"></text><text class="label" x="251.95322941016778" y="344.43985307621665" font-size="8px"></text><text class="label" x="250.15675603828177" y="357.6629935720844" font-size="8px"></text><text class="label" x="226.66413145814568" y="370.8861340679522" font-size="8px"></text><text class="label" x="202.9740595549384" y="384.10927456381995" font-size="8px"></text><text class="label" x="157.07599391041543" y="397.3324150596877" font-size="8px"></text></g><g style="font-size: 13px;"><rect x="150" y="410.1056014692378" width="55.50022596885511" height="12.56198347107438" fill="#4472c4"></rect><rect x="150" y="423.32874196510556" width="52.75869584623235" height="12.56198347107438" fill="#ed7d31"></rect><rect x="150" y="436.55188246097333" width="52.514156274142145" height="12.56198347107438" fill="#a5a5a5"></rect><rect x="150" y="449.7750229568411" width="83.32412497378215" height="12.56198347107438" fill="#ffc000"></rect><rect x="150" y="462.99816345270887" width="35.86181945395594" height="12.56198347107438" fill="#5b9bd5"></rect><rect x="150" y="476.22130394857663" width="2.075993910415437" height="12.56198347107438" fill="#70ad47"></rect><text class="label" x="214.00022596885512" y="418.6056014692378" font-size="10px">27x</text><text class="label" x="211.25869584623234" y="431.82874196510556" font-size="10px">25x</text><text class="label" x="211.01415627414215" y="445.05188246097333" font-size="10px">25x</text><text class="label" x="241.82412497378215" y="458.2750229568411" font-size="10px">40x</text><text class="label" x="194.36181945395595" y="471.49816345270887" font-size="10px">17x</text><text class="label" x="160.57599391041543" y="484.72130394857663" font-size="10px">1x</text><text class="label" x="210.50022596885512" y="420.1056014692378" font-size="8px"></text><text class="label" x="207.75869584623234" y="433.32874196510556" font-size="8px"></text><text class="label" x="207.51415627414215" y="446.55188246097333" font-size="8px"></text><text class="label" x="238.32412497378215" y="459.7750229568411" font-size="8px"></text><text class="label" x="190.86181945395595" y="472.99816345270887" font-size="8px"></text><text class="label" x="157.07599391041543" y="486.22130394857663" font-size="8px"></text></g><g style="font-size: 13px;"><rect x="150" y="498.9944903581267" width="92.05736858001057" height="12.56198347107438" fill="#4472c4"></rect><rect x="150" y="512.2176308539945" width="91.55464086661334" height="12.56198347107438" fill="#ed7d31"></rect><rect x="150" y="525.4407713498622" width="89.12535596036703" height="12.56198347107438" fill="#a5a5a5"></rect><rect x="150" y="538.66391184573" width="127.74924809575586" height="12.56198347107438" fill="#ffc000"></rect><rect x="150" y="551.8870523415978" width="38.422521927309845" height="12.56198347107438" fill="#5b9bd5"></rect><rect x="150" y="565.1101928374655" width="2.075993910415437" height="12.56198347107438" fill="#70ad47"></rect><text class="label" x="250.55736858001057" y="507.4944903581267" font-size="10px">44x</text><text class="label" x="250.05464086661334" y="520.7176308539945" font-size="10px">44x</text><text class="label" x="247.62535596036702" y="533.9407713498622" font-size="10px">43x</text><text class="label" x="286.2492480957559" y="547.16391184573" font-size="10px">62x</text><text class="label" x="196.92252192730984" y="560.3870523415978" font-size="10px">19x</text><text class="label" x="160.57599391041543" y="573.6101928374655" font-size="10px">1x</text><text class="label" x="247.05736858001057" y="508.9944903581267" font-size="8px"></text><text class="label" x="246.55464086661334" y="522.2176308539945" font-size="8px"></text><text class="label" x="244.12535596036702" y="535.4407713498622" font-size="8px"></text><text class="label" x="282.7492480957559" y="548.66391184573" font-size="8px"></text><text class="label" x="193.42252192730984" y="561.8870523415978" font-size="8px"></text><text class="label" x="157.07599391041543" y="575.1101928374655" font-size="8px"></text></g><g style="font-size: 13px;"><rect x="150" y="587.8833792470156" width="75.38017154317781" height="12.56198347107438" fill="#4472c4"></rect><rect x="150" y="601.1065197428833" width="72.80807137145356" height="12.56198347107438" fill="#ed7d31"></rect><rect x="150" y="614.3296602387511" width="73.21197807537851" height="12.56198347107438" fill="#a5a5a5"></rect><rect x="150" y="627.5528007346188" width="34.00091721849775" height="12.56198347107438" fill="#ffc000"></rect><rect x="150" y="640.7759412304866" width="34.305744143816995" height="12.56198347107438" fill="#5b9bd5"></rect><rect x="150" y="653.9990817263545" width="2.075993910415437" height="12.56198347107438" fill="#70ad47"></rect><text class="label" x="233.88017154317782" y="596.3833792470156" font-size="10px">36x</text><text class="label" x="231.30807137145356" y="609.6065197428833" font-size="10px">35x</text><text class="label" x="231.7119780753785" y="622.8296602387511" font-size="10px">35x</text><text class="label" x="192.50091721849776" y="636.0528007346188" font-size="10px">16x</text><text class="label" x="192.80574414381698" y="649.2759412304866" font-size="10px">17x</text><text class="label" x="160.57599391041543" y="662.4990817263545" font-size="10px">1x</text><text class="label" x="230.38017154317782" y="597.8833792470156" font-size="8px"></text><text class="label" x="227.80807137145356" y="611.1065197428833" font-size="8px"></text><text class="label" x="228.2119780753785" y="624.3296602387511" font-size="8px"></text><text class="label" x="189.00091721849776" y="637.5528007346188" font-size="8px"></text><text class="label" x="189.30574414381698" y="650.7759412304866" font-size="8px"></text><text class="label" x="157.07599391041543" y="663.9990817263545" font-size="8px"></text></g><g style="font-size: 13px;"><rect x="150" y="676.7722681359045" width="66.47454614343468" height="12.56198347107438" fill="#4472c4"></rect><rect x="150" y="689.9954086317722" width="62.13097689240463" height="12.56198347107438" fill="#ed7d31"></rect><rect x="150" y="703.21854912764" width="62.69682583560131" height="12.56198347107438" fill="#a5a5a5"></rect><rect x="150" y="716.4416896235077" width="44.25672662241312" height="12.56198347107438" fill="#ffc000"></rect><rect x="150" y="729.6648301193756" width="49.05824973173596" height="12.56198347107438" fill="#5b9bd5"></rect><rect x="150" y="742.8879706152434" width="2.075993910415437" height="12.56198347107438" fill="#70ad47"></rect><text class="label" x="224.97454614343468" y="685.2722681359045" font-size="10px">32x</text><text class="label" x="220.63097689240465" y="698.4954086317722" font-size="10px">30x</text><text class="label" x="221.19682583560132" y="711.71854912764" font-size="10px">30x</text><text class="label" x="202.7567266224131" y="724.9416896235077" font-size="10px">21x</text><text class="label" x="207.55824973173597" y="738.1648301193756" font-size="10px">24x</text><text class="label" x="160.57599391041543" y="751.3879706152434" font-size="10px">1x</text><text class="label" x="221.47454614343468" y="686.7722681359045" font-size="8px"></text><text class="label" x="217.13097689240465" y="699.9954086317722" font-size="8px"></text><text class="label" x="217.69682583560132" y="713.21854912764" font-size="8px"></text><text class="label" x="199.2567266224131" y="726.4416896235077" font-size="8px"></text><text class="label" x="204.05824973173597" y="739.6648301193756" font-size="8px"></text><text class="label" x="157.07599391041543" y="752.8879706152434" font-size="8px"></text></g></g></svg>