<svg xmlns="http://www.w3.org/2000/svg" xmlns:xlink="http://www.w3.org/1999/xlink" width="800" height="600" style="background-color: white;"><g class="y axis" transform="translate(149,45)" fill="none" font-size="10" font-family="sans-serif" text-anchor="end" style="font-size: 13px;"><path class="domain" stroke="#000" d="M0,0.5H0.5V525.5H0"></path><g class="tick" opacity="1" transform="translate(0,40.66901408450705)" style="font-size: 13px;"><line stroke="#000" x2="0"></line><text fill="#000" x="-3" dy="0.32em">object (simple)    </text></g><g class="tick" opacity="1" transform="translate(0,114.61267605633802)" style="font-size: 13px;"><line stroke="#000" x2="0"></line><text fill="#000" x="-3" dy="0.32em">object (hierarchical)    </text></g><g class="tick" opacity="1" transform="translate(0,188.556338028169)" style="font-size: 13px;"><line stroke="#000" x2="0"></line><text fill="#000" x="-3" dy="0.32em">object (recursive)    </text></g><g class="tick" opacity="1" transform="translate(0,262.5)" style="font-size: 13px;"><line stroke="#000" x2="0"></line><text fill="#000" x="-3" dy="0.32em">object (union)    </text></g><g class="tick" opacity="1" transform="translate(0,336.443661971831)" style="font-size: 13px;"><line stroke="#000" x2="0"></line><text fill="#000" x="-3" dy="0.32em">array (hierarchical)    </text></g><g class="tick" opacity="1" transform="translate(0,410.38732394366195)" style="font-size: 13px;"><line stroke="#000" x2="0"></line><text fill="#000" x="-3" dy="0.32em">array (recursive)    </text></g><g class="tick" opacity="1" transform="translate(0,484.33098591549293)" style="font-size: 13px;"><line stroke="#000" x2="0"></line><text fill="#000" x="-3" dy="0.32em">array (union)    </text></g></g><g class="x axis" transform="translate(149,570)" fill="none" font-size="10" font-family="sans-serif" text-anchor="middle" style="font-size: 13px;"><path class="domain" stroke="#000" d="M0.5,0V0.5H485.5V0"></path><g class="tick" opacity="1" transform="translate(0.5,0)" style="font-size: 13px;"><line stroke="#000" y2="6"></line><text fill="#000" y="9" dy="0.71em">0x</text></g><g class="tick" opacity="1" transform="translate(83.60007960118988,0)" style="font-size: 13px;"><line stroke="#000" y2="6"></line><text fill="#000" y="9" dy="0.71em">1x</text></g><g class="tick" opacity="1" transform="translate(166.70015920237975,0)" style="font-size: 13px;"><line stroke="#000" y2="6"></line><text fill="#000" y="9" dy="0.71em">2x</text></g><g class="tick" opacity="1" transform="translate(249.8002388035696,0)" style="font-size: 13px;"><line stroke="#000" y2="6"></line><text fill="#000" y="9" dy="0.71em">3x</text></g><g class="tick" opacity="1" transform="translate(332.9003184047595,0)" style="font-size: 13px;"><line stroke="#000" y2="6"></line><text fill="#000" y="9" dy="0.71em">4x</text></g><g class="tick" opacity="1" transform="translate(416.00039800594936,0)" style="font-size: 13px;"><line stroke="#000" y2="6"></line><text fill="#000" y="9" dy="0.71em">5x</text></g></g><text transform="translate(400, 30)" style="text-anchor: middle; font-size: 20px; font-weight: bold;">stringify benchmark</text><rect x="680" y="145" width="200" height="5" fill="gray"></rect><rect x="675" y="35" width="200" height="110" fill="none" stroke="black"></rect><rect x="685" y="45" width="10" height="10" style="fill: #4472c4;"></rect><text x="700" y="55" style="font-size: 12px;">TSON.stringify()</text><rect x="685" y="65" width="10" height="10" style="fill: #ed7d31;"></rect><text x="700" y="75" style="font-size: 12px;">TSON.assertStringify()</text><rect x="685" y="85" width="10" height="10" style="fill: #a5a5a5;"></rect><text x="700" y="95" style="font-size: 12px;">TSON.isStringify()</text><rect x="685" y="105" width="10" height="10" style="fill: #ffc000;"></rect><text x="700" y="115" style="font-size: 12px;">JSON.stringify()</text><rect x="685" y="125" width="10" height="10" style="fill: #5b9bd5;"></rect><text x="700" y="135" style="font-size: 12px;">fast-json-stringify</text><g style="font-size: 13px;"><g style="font-size: 13px;"><rect x="150" y="53.05327011574397" width="440.9090909090909" height="12.519174452656534" fill="#4472c4"></rect><rect x="150" y="66.23134848696137" width="351.9338663301588" height="12.519174452656534" fill="#ed7d31"></rect><rect x="150" y="79.40942685817878" width="380.96275348544236" height="12.519174452656534" fill="#a5a5a5"></rect><rect x="150" y="92.58750522939619" width="83.10007960118988" height="12.519174452656534" fill="#ffc000"></rect><rect x="150" y="105.76558360061358" width="318.6403173141852" height="12.519174452656534" fill="#5b9bd5"></rect><text class="label" x="599.4090909090909" y="61.55327011574397" font-size="10px">5.31x</text><text class="label" x="510.4338663301588" y="74.73134848696137" font-size="10px">4.24x</text><text class="label" x="539.4627534854424" y="87.90942685817878" font-size="10px">4.58x</text><text class="label" x="241.60007960118986" y="101.08750522939619" font-size="10px">1x</text><text class="label" x="477.1403173141852" y="114.26558360061358" font-size="10px">3.83x</text></g><g style="font-size: 13px;"><rect x="150" y="126.99693208757495" width="254.08259979507505" height="12.519174452656534" fill="#4472c4"></rect><rect x="150" y="140.17501045879237" width="215.17119015885618" height="12.519174452656534" fill="#ed7d31"></rect><rect x="150" y="153.35308883000977" width="225.64098344611247" height="12.519174452656534" fill="#a5a5a5"></rect><rect x="150" y="166.53116720122716" width="83.10007960118988" height="12.519174452656534" fill="#ffc000"></rect><rect x="150" y="179.70924557244456" width="222.4092090309188" height="12.519174452656534" fill="#5b9bd5"></rect><text class="label" x="412.58259979507505" y="135.49693208757495" font-size="10px">3.06x</text><text class="label" x="373.6711901588562" y="148.67501045879237" font-size="10px">2.59x</text><text class="label" x="384.1409834461125" y="161.85308883000977" font-size="10px">2.72x</text><text class="label" x="241.60007960118986" y="175.03116720122716" font-size="10px">1x</text><text class="label" x="380.90920903091876" y="188.20924557244456" font-size="10px">2.68x</text></g><g style="font-size: 13px;"><rect x="150" y="200.94059405940592" width="311.0092777611118" height="12.519174452656534" fill="#4472c4"></rect><rect x="150" y="214.11867243062332" width="280.9915088047684" height="12.519174452656534" fill="#ed7d31"></rect><rect x="150" y="227.29675080184074" width="289.9780125889269" height="12.519174452656534" fill="#a5a5a5"></rect><rect x="150" y="240.47482917305814" width="85.62180429443659" height="12.519174452656534" fill="#ffc000"></rect><rect x="150" y="253.65290754427554" width="83.10007960118988" height="12.519174452656534" fill="#5b9bd5"></rect><text class="label" x="469.5092777611118" y="209.44059405940592" font-size="10px">3.74x</text><text class="label" x="439.4915088047684" y="222.61867243062332" font-size="10px">3.38x</text><text class="label" x="448.4780125889269" y="235.79675080184074" font-size="10px">3.49x</text><text class="label" x="244.12180429443657" y="248.97482917305814" font-size="10px">1.03x</text><text class="label" x="241.60007960118986" y="262.15290754427554" font-size="10px">1x</text></g><g style="font-size: 13px;"><rect x="150" y="274.8842560312369" width="161.05409519349791" height="12.519174452656534" fill="#4472c4"></rect><rect x="150" y="288.0623344024543" width="125.19637283585351" height="12.519174452656534" fill="#ed7d31"></rect><rect x="150" y="301.2404127736717" width="150.21562321843655" height="12.519174452656534" fill="#a5a5a5"></rect><rect x="150" y="314.4184911448891" width="83.10007960118988" height="12.519174452656534" fill="#ffc000"></rect><rect x="150" y="327.5965695161065" width="150.45922709581646" height="12.519174452656534" fill="#5b9bd5"></rect><text class="label" x="319.5540951934979" y="283.3842560312369" font-size="10px">1.94x</text><text class="label" x="283.6963728358535" y="296.5623344024543" font-size="10px">1.51x</text><text class="label" x="308.7156232184366" y="309.7404127736717" font-size="10px">1.81x</text><text class="label" x="241.60007960118986" y="322.9184911448891" font-size="10px">1x</text><text class="label" x="308.95922709581646" y="336.0965695161065" font-size="10px">1.81x</text></g><g style="font-size: 13px;"><rect x="150" y="348.8279180030679" width="147.696087393372" height="12.519174452656534" fill="#4472c4"></rect><rect x="150" y="362.0059963742853" width="132.3326674774752" height="12.519174452656534" fill="#ed7d31"></rect><rect x="150" y="375.1840747455027" width="146.4653245290792" height="12.519174452656534" fill="#a5a5a5"></rect><rect x="150" y="388.3621531167201" width="83.10007960118988" height="12.519174452656534" fill="#ffc000"></rect><rect x="150" y="401.5402314879375" width="192.82623583366322" height="12.519174452656534" fill="#5b9bd5"></rect><text class="label" x="306.196087393372" y="357.3279180030679" font-size="10px">1.78x</text><text class="label" x="290.8326674774752" y="370.5059963742853" font-size="10px">1.59x</text><text class="label" x="304.9653245290792" y="383.6840747455027" font-size="10px">1.76x</text><text class="label" x="241.60007960118986" y="396.8621531167201" font-size="10px">1x</text><text class="label" x="351.3262358336632" y="410.0402314879375" font-size="10px">2.32x</text></g><g style="font-size: 13px;"><rect x="150" y="422.7715799748988" width="140.78051206912022" height="12.519174452656534" fill="#4472c4"></rect><rect x="150" y="435.9496583461163" width="147.4579915765529" height="12.519174452656534" fill="#ed7d31"></rect><rect x="150" y="449.1277367173337" width="160.29766910463147" height="12.519174452656534" fill="#a5a5a5"></rect><rect x="150" y="462.30581508855107" width="83.10007960118988" height="12.519174452656534" fill="#ffc000"></rect><rect x="150" y="475.48389345976847" width="85.56218801737911" height="12.519174452656534" fill="#5b9bd5"></rect><text class="label" x="299.2805120691202" y="431.2715799748988" font-size="10px">1.69x</text><text class="label" x="305.9579915765529" y="444.4496583461163" font-size="10px">1.77x</text><text class="label" x="318.7976691046315" y="457.6277367173337" font-size="10px">1.93x</text><text class="label" x="241.60007960118986" y="470.80581508855107" font-size="10px">1x</text><text class="label" x="244.06218801737913" y="483.98389345976847" font-size="10px">1.03x</text></g><g style="font-size: 13px;"><rect x="150" y="496.71524194672986" width="109.38111186122251" height="12.519174452656534" fill="#4472c4"></rect><rect x="150" y="509.89332031794726" width="93.67547958067576" height="12.519174452656534" fill="#ed7d31"></rect><rect x="150" y="523.0713986891647" width="100.67605328771707" height="12.519174452656534" fill="#a5a5a5"></rect><rect x="150" y="536.2494770603821" width="98.26059880651232" height="12.519174452656534" fill="#ffc000"></rect><rect x="150" y="549.4275554315994" width="83.10007960118988" height="12.519174452656534" fill="#5b9bd5"></rect><text class="label" x="267.8811118612225" y="505.21524194672986" font-size="10px">1.32x</text><text class="label" x="252.17547958067576" y="518.3933203179472" font-size="10px">1.13x</text><text class="label" x="259.1760532877171" y="531.5713986891647" font-size="10px">1.21x</text><text class="label" x="256.76059880651235" y="544.7494770603821" font-size="10px">1.18x</text><text class="label" x="241.60007960118986" y="557.9275554315994" font-size="10px">1x</text></g></g></svg>