<svg xmlns="http://www.w3.org/2000/svg" xmlns:xlink="http://www.w3.org/1999/xlink" width="800" height="675" style="background-color: white;"><g class="y axis" transform="translate(149,45)" fill="none" font-size="10" font-family="sans-serif" text-anchor="end" style="font-size: 13px;"><path class="domain" stroke="#000" d="M0,0.5H0.5V600.5H0"></path><g class="tick" opacity="1" transform="translate(0,40.740740740740726)" style="font-size: 13px;"><line stroke="#000" x2="0"></line><text fill="#000" x="-3" dy="0.32em">object (simple)    </text></g><g class="tick" opacity="1" transform="translate(0,114.81481481481481)" style="font-size: 13px;"><line stroke="#000" x2="0"></line><text fill="#000" x="-3" dy="0.32em">object (hierarchical)    </text></g><g class="tick" opacity="1" transform="translate(0,188.88888888888889)" style="font-size: 13px;"><line stroke="#000" x2="0"></line><text fill="#000" x="-3" dy="0.32em">object (recursive)    </text></g><g class="tick" opacity="1" transform="translate(0,262.96296296296293)" style="font-size: 13px;"><line stroke="#000" x2="0"></line><text fill="#000" x="-3" dy="0.32em">object (union)    </text></g><g class="tick" opacity="1" transform="translate(0,337.037037037037)" style="font-size: 13px;"><line stroke="#000" x2="0"></line><text fill="#000" x="-3" dy="0.32em">array (simple)    </text></g><g class="tick" opacity="1" transform="translate(0,411.1111111111111)" style="font-size: 13px;"><line stroke="#000" x2="0"></line><text fill="#000" x="-3" dy="0.32em">array (hierarchical)    </text></g><g class="tick" opacity="1" transform="translate(0,485.18518518518516)" style="font-size: 13px;"><line stroke="#000" x2="0"></line><text fill="#000" x="-3" dy="0.32em">array (recursive)    </text></g><g class="tick" opacity="1" transform="translate(0,559.2592592592592)" style="font-size: 13px;"><line stroke="#000" x2="0"></line><text fill="#000" x="-3" dy="0.32em">array (union)    </text></g></g><g class="x axis" transform="translate(149,645)" fill="none" font-size="10" font-family="sans-serif" text-anchor="middle" style="font-size: 13px;"><path class="domain" stroke="#000" d="M0.5,0V0.5H485.5V0"></path><g class="tick" opacity="1" transform="translate(0.5,0)" style="font-size: 13px;"><line stroke="#000" y2="6"></line><text fill="#000" y="9" dy="0.71em">0x</text></g><g class="tick" opacity="1" transform="translate(113.40026752232751,0)" style="font-size: 13px;"><line stroke="#000" y2="6"></line><text fill="#000" y="9" dy="0.71em">0.5x</text></g><g class="tick" opacity="1" transform="translate(226.30053504465502,0)" style="font-size: 13px;"><line stroke="#000" y2="6"></line><text fill="#000" y="9" dy="0.71em">1x</text></g><g class="tick" opacity="1" transform="translate(339.20080256698253,0)" style="font-size: 13px;"><line stroke="#000" y2="6"></line><text fill="#000" y="9" dy="0.71em">1.5x</text></g><g class="tick" opacity="1" transform="translate(452.10107008931004,0)" style="font-size: 13px;"><line stroke="#000" y2="6"></line><text fill="#000" y="9" dy="0.71em">2x</text></g></g><text transform="translate(400, 30)" style="text-anchor: middle; font-size: 20px; font-weight: bold;">stringify (server) benchmark</text><rect x="680" y="145" width="200" height="5" fill="gray"></rect><rect x="675" y="35" width="200" height="110" fill="none" stroke="black"></rect><rect x="685" y="45" width="10" height="10" style="fill: #4472c4;"></rect><text x="700" y="55" style="font-size: 12px;">express (pure)</text><rect x="685" y="65" width="10" height="10" style="fill: #ed7d31;"></rect><text x="700" y="75" style="font-size: 12px;">express (TSON.stringify)</text><rect x="685" y="85" width="10" height="10" style="fill: #a5a5a5;"></rect><text x="700" y="95" style="font-size: 12px;">express (TSON.isStringify)</text><rect x="685" y="105" width="10" height="10" style="fill: #ffc000;"></rect><text x="700" y="115" style="font-size: 12px;">express (TSON.assertStringify)</text><rect x="685" y="125" width="10" height="10" style="fill: #5b9bd5;"></rect><text x="700" y="135" style="font-size: 12px;">fastify</text><g style="font-size: 13px;"><g style="font-size: 13px;"><rect x="150" y="53.06747341400805" width="229.76051216658348" height="12.541254125412543" fill="#4472c4"></rect><rect x="150" y="66.26879354602124" width="226.41580556405773" height="12.541254125412543" fill="#ed7d31"></rect><rect x="150" y="79.47011367803445" width="231.1655654287974" height="12.541254125412543" fill="#a5a5a5"></rect><rect x="150" y="92.67143381004766" width="225.80053504465502" height="12.541254125412543" fill="#ffc000"></rect><rect x="150" y="105.87275394206085" width="438.1640368480033" height="12.541254125412543" fill="#5b9bd5"></rect><text class="label" x="388.26051216658345" y="61.56747341400805" font-size="10px">1.02x</text><text class="label" x="384.91580556405773" y="74.76879354602124" font-size="10px">1x</text><text class="label" x="389.66556542879744" y="87.97011367803445" font-size="10px">1.02x</text><text class="label" x="384.300535044655" y="101.17143381004766" font-size="10px">1x</text><text class="label" x="596.6640368480033" y="114.37275394206085" font-size="10px">1.94x</text><text class="label" x="384.76051216658345" y="63.06747341400805" font-size="8px"></text><text class="label" x="381.41580556405773" y="76.26879354602124" font-size="8px"></text><text class="label" x="386.16556542879744" y="89.47011367803445" font-size="8px"></text><text class="label" x="380.800535044655" y="102.67143381004766" font-size="8px"></text><text class="label" x="593.1640368480033" y="115.87275394206085" font-size="8px"></text></g><g style="font-size: 13px;"><rect x="150" y="127.14154748808213" width="226.9038606265921" height="12.541254125412543" fill="#4472c4"></rect><rect x="150" y="140.34286762009532" width="225.80053504465502" height="12.541254125412543" fill="#ed7d31"></rect><rect x="150" y="153.54418775210854" width="226.66125828552026" height="12.541254125412543" fill="#a5a5a5"></rect><rect x="150" y="166.74550788412174" width="234.58540740853311" height="12.541254125412543" fill="#ffc000"></rect><rect x="150" y="179.94682801613493" width="423.1833364365391" height="12.541254125412543" fill="#5b9bd5"></rect><text class="label" x="385.40386062659206" y="135.64154748808213" font-size="10px">1x</text><text class="label" x="384.300535044655" y="148.84286762009532" font-size="10px">1x</text><text class="label" x="385.16125828552026" y="162.04418775210854" font-size="10px">1x</text><text class="label" x="393.0854074085331" y="175.24550788412174" font-size="10px">1.04x</text><text class="label" x="581.6833364365391" y="188.44682801613493" font-size="10px">1.87x</text><text class="label" x="381.90386062659206" y="137.14154748808213" font-size="8px"></text><text class="label" x="380.800535044655" y="150.34286762009532" font-size="8px"></text><text class="label" x="381.66125828552026" y="163.54418775210854" font-size="8px"></text><text class="label" x="389.5854074085331" y="176.74550788412174" font-size="8px"></text><text class="label" x="578.1833364365391" y="189.94682801613493" font-size="8px"></text></g><g style="font-size: 13px;"><rect x="150" y="201.2156215621562" width="226.61102771800975" height="12.541254125412543" fill="#4472c4"></rect><rect x="150" y="214.4169416941694" width="225.80053504465502" height="12.541254125412543" fill="#ed7d31"></rect><rect x="150" y="227.61826182618262" width="226.76006959762944" height="12.541254125412543" fill="#a5a5a5"></rect><rect x="150" y="240.8195819581958" width="230.12411814087275" height="12.541254125412543" fill="#ffc000"></rect><rect x="150" y="254.020902090209" width="435.6440797995335" height="12.541254125412543" fill="#5b9bd5"></rect><text class="label" x="385.1110277180097" y="209.7156215621562" font-size="10px">1x</text><text class="label" x="384.300535044655" y="222.9169416941694" font-size="10px">1x</text><text class="label" x="385.26006959762947" y="236.11826182618262" font-size="10px">1x</text><text class="label" x="388.6241181408727" y="249.3195819581958" font-size="10px">1.02x</text><text class="label" x="594.1440797995335" y="262.520902090209" font-size="10px">1.93x</text><text class="label" x="381.6110277180097" y="211.2156215621562" font-size="8px"></text><text class="label" x="380.800535044655" y="224.4169416941694" font-size="8px"></text><text class="label" x="381.76006959762947" y="237.61826182618262" font-size="8px"></text><text class="label" x="385.1241181408727" y="250.8195819581958" font-size="8px"></text><text class="label" x="590.6440797995335" y="264.020902090209" font-size="8px"></text></g><g style="font-size: 13px;"><rect x="150" y="275.28969563623025" width="225.80053504465502" height="12.541254125412543" fill="#4472c4"></rect><rect x="150" y="288.49101576824347" width="229.00315861961803" height="12.541254125412543" fill="#ed7d31"></rect><rect x="150" y="301.6923359002567" width="227.66674465891174" height="12.541254125412543" fill="#a5a5a5"></rect><rect x="150" y="314.89365603226986" width="230.41593948460084" height="12.541254125412543" fill="#ffc000"></rect><rect x="150" y="328.0949761642831" width="433.7329195371803" height="12.541254125412543" fill="#5b9bd5"></rect><text class="label" x="384.300535044655" y="283.78969563623025" font-size="10px">1x</text><text class="label" x="387.50315861961803" y="296.99101576824347" font-size="10px">1.01x</text><text class="label" x="386.16674465891174" y="310.1923359002567" font-size="10px">1.01x</text><text class="label" x="388.9159394846008" y="323.39365603226986" font-size="10px">1.02x</text><text class="label" x="592.2329195371804" y="336.5949761642831" font-size="10px">1.92x</text><text class="label" x="380.800535044655" y="285.28969563623025" font-size="8px"></text><text class="label" x="384.00315861961803" y="298.49101576824347" font-size="8px"></text><text class="label" x="382.66674465891174" y="311.6923359002567" font-size="8px"></text><text class="label" x="385.4159394846008" y="324.89365603226986" font-size="8px"></text><text class="label" x="588.7329195371804" y="338.0949761642831" font-size="8px"></text></g><g style="font-size: 13px;"><rect x="150" y="349.3637697103044" width="229.03316368741065" height="12.541254125412543" fill="#4472c4"></rect><rect x="150" y="362.56508984231755" width="225.80053504465502" height="12.541254125412543" fill="#ed7d31"></rect><rect x="150" y="375.76640997433077" width="235.25944704724492" height="12.541254125412543" fill="#a5a5a5"></rect><rect x="150" y="388.967730106344" width="235.36306872821908" height="12.541254125412543" fill="#ffc000"></rect><rect x="150" y="402.16905023835716" width="440.9090909090908" height="12.541254125412543" fill="#5b9bd5"></rect><text class="label" x="387.53316368741065" y="357.8637697103044" font-size="10px">1.01x</text><text class="label" x="384.300535044655" y="371.06508984231755" font-size="10px">1x</text><text class="label" x="393.7594470472449" y="384.26640997433077" font-size="10px">1.04x</text><text class="label" x="393.8630687282191" y="397.467730106344" font-size="10px">1.04x</text><text class="label" x="599.4090909090908" y="410.66905023835716" font-size="10px">1.95x</text><text class="label" x="384.03316368741065" y="359.3637697103044" font-size="8px"></text><text class="label" x="380.800535044655" y="372.56508984231755" font-size="8px"></text><text class="label" x="390.2594470472449" y="385.76640997433077" font-size="8px"></text><text class="label" x="390.3630687282191" y="398.967730106344" font-size="8px"></text><text class="label" x="595.9090909090908" y="412.16905023835716" font-size="8px"></text></g><g style="font-size: 13px;"><rect x="150" y="423.4378437843784" width="229.20107075624458" height="12.541254125412543" fill="#4472c4"></rect><rect x="150" y="436.6391639163916" width="225.80053504465502" height="12.541254125412543" fill="#ed7d31"></rect><rect x="150" y="449.84048404840485" width="229.49574235710006" height="12.541254125412543" fill="#a5a5a5"></rect><rect x="150" y="463.041804180418" width="229.34730651576294" height="12.541254125412543" fill="#ffc000"></rect><rect x="150" y="476.24312431243123" width="430.92206207653925" height="12.541254125412543" fill="#5b9bd5"></rect><text class="label" x="387.7010707562446" y="431.9378437843784" font-size="10px">1.02x</text><text class="label" x="384.300535044655" y="445.1391639163916" font-size="10px">1x</text><text class="label" x="387.9957423571001" y="458.34048404840485" font-size="10px">1.02x</text><text class="label" x="387.84730651576297" y="471.541804180418" font-size="10px">1.02x</text><text class="label" x="589.4220620765393" y="484.74312431243123" font-size="10px">1.91x</text><text class="label" x="384.2010707562446" y="433.4378437843784" font-size="8px"></text><text class="label" x="380.800535044655" y="446.6391639163916" font-size="8px"></text><text class="label" x="384.4957423571001" y="459.84048404840485" font-size="8px"></text><text class="label" x="384.34730651576297" y="473.041804180418" font-size="8px"></text><text class="label" x="585.9220620765393" y="486.24312431243123" font-size="8px"></text></g><g style="font-size: 13px;"><rect x="150" y="497.51191785845253" width="225.80053504465502" height="12.541254125412543" fill="#4472c4"></rect><rect x="150" y="510.7132379904657" width="229.27246613949836" height="12.541254125412543" fill="#ed7d31"></rect><rect x="150" y="523.9145581224789" width="227.07908027723994" height="12.541254125412543" fill="#a5a5a5"></rect><rect x="150" y="537.1158782544921" width="229.946723911778" height="12.541254125412543" fill="#ffc000"></rect><rect x="150" y="550.3171983865053" width="432.8075154429628" height="12.541254125412543" fill="#5b9bd5"></rect><text class="label" x="384.300535044655" y="506.01191785845253" font-size="10px">1x</text><text class="label" x="387.77246613949836" y="519.2132379904657" font-size="10px">1.02x</text><text class="label" x="385.57908027723994" y="532.4145581224789" font-size="10px">1.01x</text><text class="label" x="388.446723911778" y="545.6158782544921" font-size="10px">1.02x</text><text class="label" x="591.3075154429628" y="558.8171983865053" font-size="10px">1.92x</text><text class="label" x="380.800535044655" y="507.51191785845253" font-size="8px"></text><text class="label" x="384.27246613949836" y="520.7132379904657" font-size="8px"></text><text class="label" x="382.07908027723994" y="533.9145581224789" font-size="8px"></text><text class="label" x="384.946723911778" y="547.1158782544921" font-size="8px"></text><text class="label" x="587.8075154429628" y="560.3171983865053" font-size="8px"></text></g><g style="font-size: 13px;"><rect x="150" y="571.5859919325266" width="226.87708966482828" height="12.541254125412543" fill="#4472c4"></rect><rect x="150" y="584.7873120645397" width="225.80053504465502" height="12.541254125412543" fill="#ed7d31"></rect><rect x="150" y="597.9886321965529" width="228.37308518713596" height="12.541254125412543" fill="#a5a5a5"></rect><rect x="150" y="611.1899523285662" width="229.1902257894926" height="12.541254125412543" fill="#ffc000"></rect><rect x="150" y="624.3912724605793" width="430.11031101702577" height="12.541254125412543" fill="#5b9bd5"></rect><text class="label" x="385.3770896648283" y="580.0859919325266" font-size="10px">1x</text><text class="label" x="384.300535044655" y="593.2873120645397" font-size="10px">1x</text><text class="label" x="386.873085187136" y="606.4886321965529" font-size="10px">1.01x</text><text class="label" x="387.6902257894926" y="619.6899523285662" font-size="10px">1.02x</text><text class="label" x="588.6103110170258" y="632.8912724605793" font-size="10px">1.9x</text><text class="label" x="381.8770896648283" y="581.5859919325266" font-size="8px"></text><text class="label" x="380.800535044655" y="594.7873120645397" font-size="8px"></text><text class="label" x="383.373085187136" y="607.9886321965529" font-size="8px"></text><text class="label" x="384.1902257894926" y="621.1899523285662" font-size="8px"></text><text class="label" x="585.1103110170258" y="634.3912724605793" font-size="8px"></text></g></g></svg>