<svg xmlns="http://www.w3.org/2000/svg" xmlns:xlink="http://www.w3.org/1999/xlink" width="800" height="795" style="background-color: white;"><g class="y axis" transform="translate(149,45)" fill="none" font-size="10" font-family="sans-serif" text-anchor="end" style="font-size: 13px;"><path class="domain" stroke="currentColor" d="M0.5,0.5V720.5"></path><g class="tick" opacity="1" transform="translate(0,48.88888888888886)" style="font-size: 13px;"><line stroke="currentColor" x2="0"></line><text fill="currentColor" x="-3" dy="0.32em">object (simple)    </text></g><g class="tick" opacity="1" transform="translate(0,137.77777777777774)" style="font-size: 13px;"><line stroke="currentColor" x2="0"></line><text fill="currentColor" x="-3" dy="0.32em">object (hierarchical)    </text></g><g class="tick" opacity="1" transform="translate(0,226.66666666666663)" style="font-size: 13px;"><line stroke="currentColor" x2="0"></line><text fill="currentColor" x="-3" dy="0.32em">object (recursive)    </text></g><g class="tick" opacity="1" transform="translate(0,315.5555555555555)" style="font-size: 13px;"><line stroke="currentColor" x2="0"></line><text fill="currentColor" x="-3" dy="0.32em">object (union, explicit)    </text></g><g class="tick" opacity="1" transform="translate(0,404.4444444444444)" style="font-size: 13px;"><line stroke="currentColor" x2="0"></line><text fill="currentColor" x="-3" dy="0.32em">array (simple)    </text></g><g class="tick" opacity="1" transform="translate(0,493.3333333333333)" style="font-size: 13px;"><line stroke="currentColor" x2="0"></line><text fill="currentColor" x="-3" dy="0.32em">array (hierarchical)    </text></g><g class="tick" opacity="1" transform="translate(0,582.2222222222222)" style="font-size: 13px;"><line stroke="currentColor" x2="0"></line><text fill="currentColor" x="-3" dy="0.32em">array (recursive)    </text></g><g class="tick" opacity="1" transform="translate(0,671.1111111111111)" style="font-size: 13px;"><line stroke="currentColor" x2="0"></line><text fill="currentColor" x="-3" dy="0.32em">array (union, explicit)    </text></g></g><g class="x axis" transform="translate(149,765)" fill="none" font-size="10" font-family="sans-serif" text-anchor="middle" style="font-size: 13px;"><path class="domain" stroke="currentColor" d="M0.5,0.5H485.5"></path><g class="tick" opacity="1" transform="translate(0.5,0)" style="font-size: 13px;"><line stroke="currentColor" y2="6"></line><text fill="currentColor" y="9" dy="0.71em">0x</text></g><g class="tick" opacity="1" transform="translate(99.96790448806884,0)" style="font-size: 13px;"><line stroke="currentColor" y2="6"></line><text fill="currentColor" y="9" dy="0.71em">50x</text></g><g class="tick" opacity="1" transform="translate(199.43580897613768,0)" style="font-size: 13px;"><line stroke="currentColor" y2="6"></line><text fill="currentColor" y="9" dy="0.71em">100x</text></g><g class="tick" opacity="1" transform="translate(298.9037134642065,0)" style="font-size: 13px;"><line stroke="currentColor" y2="6"></line><text fill="currentColor" y="9" dy="0.71em">150x</text></g><g class="tick" opacity="1" transform="translate(398.37161795227536,0)" style="font-size: 13px;"><line stroke="currentColor" y2="6"></line><text fill="currentColor" y="9" dy="0.71em">200x</text></g></g><text transform="translate(400, 30)" style="text-anchor: middle; font-size: 20px; font-weight: bold;">stringify benchmark</text><rect x="650" y="165" width="230" height="5" fill="gray"></rect><rect x="645" y="35" width="230" height="130" fill="none" stroke="black"></rect><rect x="655" y="45" width="10" height="10" style="fill: #4472c4;"></rect><text x="670" y="55" style="font-size: 12px;">typia.stringify</text><rect x="655" y="65" width="10" height="10" style="fill: #ed7d31;"></rect><text x="670" y="75" style="font-size: 12px;">typia.isStringify</text><rect x="655" y="85" width="10" height="10" style="fill: #a5a5a5;"></rect><text x="670" y="95" style="font-size: 12px;">typia.assertStringify</text><rect x="655" y="105" width="10" height="10" style="fill: #ffc000;"></rect><text x="670" y="115" style="font-size: 12px;">fast-json-stringify</text><rect x="655" y="125" width="10" height="10" style="fill: #5b9bd5;"></rect><text x="670" y="135" style="font-size: 12px;">JSON.stringify</text><rect x="655" y="145" width="10" height="10" style="fill: #70ad47;"></rect><text x="670" y="155" style="font-size: 12px;">class-transformer</text><g style="font-size: 13px;"><g style="font-size: 13px;"><rect x="150" y="54.55004591368224" width="440.9090909090909" height="12.56198347107438" fill="#4472c4"></rect><rect x="150" y="67.77318640955001" width="336.27643276335243" height="12.56198347107438" fill="#ed7d31"></rect><rect x="150" y="80.99632690541777" width="191.45235256178097" height="12.56198347107438" fill="#a5a5a5"></rect><rect x="150" y="94.21946740128556" width="150.8333313679221" height="12.56198347107438" fill="#ffc000"></rect><rect x="150" y="107.44260789715332" width="30.126137144294624" height="12.56198347107438" fill="#5b9bd5"></rect><rect x="150" y="120.66574839302109" width="1.989358089761377" height="12.56198347107438" fill="#70ad47"></rect><text class="label" x="599.4090909090909" y="63.05004591368224" font-size="10px">222x</text><text class="label" x="494.77643276335243" y="76.27318640955001" font-size="10px">169x</text><text class="label" x="349.95235256178097" y="89.49632690541777" font-size="10px">96x</text><text class="label" x="309.33333136792214" y="102.71946740128556" font-size="10px">76x</text><text class="label" x="188.62613714429463" y="115.94260789715332" font-size="10px">15x</text><text class="label" x="160.48935808976137" y="129.1657483930211" font-size="10px">1x</text><text class="label" x="595.9090909090909" y="64.55004591368224" font-size="8px"></text><text class="label" x="491.27643276335243" y="77.77318640955001" font-size="8px"></text><text class="label" x="346.45235256178097" y="90.99632690541777" font-size="8px"></text><text class="label" x="305.83333136792214" y="104.21946740128556" font-size="8px"></text><text class="label" x="185.12613714429463" y="117.44260789715332" font-size="8px"></text><text class="label" x="156.98935808976137" y="130.6657483930211" font-size="8px"></text></g><g style="font-size: 13px;"><rect x="150" y="143.4389348025711" width="92.10505305441397" height="12.56198347107438" fill="#4472c4"></rect><rect x="150" y="156.66207529843888" width="86.98940213508861" height="12.56198347107438" fill="#ed7d31"></rect><rect x="150" y="169.88521579430665" width="78.80066487208107" height="12.56198347107438" fill="#a5a5a5"></rect><rect x="150" y="183.10835629017444" width="99.94880953512443" height="12.56198347107438" fill="#ffc000"></rect><rect x="150" y="196.3314967860422" width="23.357214002970757" height="12.56198347107438" fill="#5b9bd5"></rect><rect x="150" y="209.55463728190998" width="1.989358089761377" height="12.56198347107438" fill="#70ad47"></rect><text class="label" x="250.605053054414" y="151.9389348025711" font-size="10px">46x</text><text class="label" x="245.4894021350886" y="165.16207529843888" font-size="10px">44x</text><text class="label" x="237.3006648720811" y="178.38521579430665" font-size="10px">40x</text><text class="label" x="258.44880953512444" y="191.60835629017444" font-size="10px">50x</text><text class="label" x="181.85721400297075" y="204.8314967860422" font-size="10px">12x</text><text class="label" x="160.48935808976137" y="218.05463728190998" font-size="10px">1x</text><text class="label" x="247.105053054414" y="153.4389348025711" font-size="8px"></text><text class="label" x="241.9894021350886" y="166.66207529843888" font-size="8px"></text><text class="label" x="233.8006648720811" y="179.88521579430665" font-size="8px"></text><text class="label" x="254.94880953512444" y="193.10835629017444" font-size="8px"></text><text class="label" x="178.35721400297075" y="206.3314967860422" font-size="8px"></text><text class="label" x="156.98935808976137" y="219.55463728190998" font-size="8px"></text></g><g style="font-size: 13px;"><rect x="150" y="232.32782369146003" width="146.62191421830406" height="12.56198347107438" fill="#4472c4"></rect><rect x="150" y="245.5509641873278" width="132.71165550743157" height="12.56198347107438" fill="#ed7d31"></rect><rect x="150" y="258.77410468319556" width="120.48647504051962" height="12.56198347107438" fill="#a5a5a5"></rect><rect x="150" y="271.9972451790633" width="28.750464399300025" height="12.56198347107438" fill="#ffc000"></rect><rect x="150" y="285.2203856749311" width="29.128329382584546" height="12.56198347107438" fill="#5b9bd5"></rect><rect x="150" y="298.44352617079886" width="1.989358089761377" height="12.56198347107438" fill="#70ad47"></rect><text class="label" x="305.121914218304" y="240.82782369146003" font-size="10px">74x</text><text class="label" x="291.2116555074316" y="254.0509641873278" font-size="10px">67x</text><text class="label" x="278.9864750405196" y="267.27410468319556" font-size="10px">61x</text><text class="label" x="187.25046439930003" y="280.4972451790633" font-size="10px">14x</text><text class="label" x="187.62832938258455" y="293.7203856749311" font-size="10px">15x</text><text class="label" x="160.48935808976137" y="306.94352617079886" font-size="10px">1x</text><text class="label" x="301.621914218304" y="242.32782369146003" font-size="8px"></text><text class="label" x="287.7116555074316" y="255.5509641873278" font-size="8px"></text><text class="label" x="275.4864750405196" y="268.77410468319556" font-size="8px"></text><text class="label" x="183.75046439930003" y="281.9972451790633" font-size="8px"></text><text class="label" x="184.12832938258455" y="295.2203856749311" font-size="8px"></text><text class="label" x="156.98935808976137" y="308.44352617079886" font-size="8px"></text></g><g style="font-size: 13px;"><rect x="150" y="321.2167125803489" width="106.84689618976887" height="12.56198347107438" fill="#4472c4"></rect><rect x="150" y="334.43985307621665" width="92.02431179881798" height="12.56198347107438" fill="#ed7d31"></rect><rect x="150" y="347.6629935720844" width="76.12427929110152" height="12.56198347107438" fill="#a5a5a5"></rect><rect x="150" y="360.8861340679522" width="67.05224299259748" height="12.56198347107438" fill="#ffc000"></rect><rect x="150" y="374.10927456381995" width="46.39012864178545" height="12.56198347107438" fill="#5b9bd5"></rect><rect x="150" y="387.3324150596877" width="1.989358089761377" height="12.56198347107438" fill="#70ad47"></rect><text class="label" x="265.34689618976887" y="329.7167125803489" font-size="10px">54x</text><text class="label" x="250.52431179881796" y="342.93985307621665" font-size="10px">46x</text><text class="label" x="234.62427929110152" y="356.1629935720844" font-size="10px">38x</text><text class="label" x="225.55224299259748" y="369.3861340679522" font-size="10px">34x</text><text class="label" x="204.89012864178545" y="382.60927456381995" font-size="10px">23x</text><text class="label" x="160.48935808976137" y="395.8324150596877" font-size="10px">1x</text><text class="label" x="261.84689618976887" y="331.2167125803489" font-size="8px"></text><text class="label" x="247.02431179881796" y="344.43985307621665" font-size="8px"></text><text class="label" x="231.12427929110152" y="357.6629935720844" font-size="8px"></text><text class="label" x="222.05224299259748" y="370.8861340679522" font-size="8px"></text><text class="label" x="201.39012864178545" y="384.10927456381995" font-size="8px"></text><text class="label" x="156.98935808976137" y="397.3324150596877" font-size="8px"></text></g><g style="font-size: 13px;"><rect x="150" y="410.1056014692378" width="55.850880776567735" height="12.56198347107438" fill="#4472c4"></rect><rect x="150" y="423.32874196510556" width="50.90222880560937" height="12.56198347107438" fill="#ed7d31"></rect><rect x="150" y="436.55188246097333" width="48.71451131833199" height="12.56198347107438" fill="#a5a5a5"></rect><rect x="150" y="449.7750229568411" width="80.33900008406214" height="12.56198347107438" fill="#ffc000"></rect><rect x="150" y="462.99816345270887" width="36.70443222805106" height="12.56198347107438" fill="#5b9bd5"></rect><rect x="150" y="476.22130394857663" width="1.989358089761377" height="12.56198347107438" fill="#70ad47"></rect><text class="label" x="214.35088077656775" y="418.6056014692378" font-size="10px">28x</text><text class="label" x="209.40222880560935" y="431.82874196510556" font-size="10px">26x</text><text class="label" x="207.214511318332" y="445.05188246097333" font-size="10px">24x</text><text class="label" x="238.83900008406215" y="458.2750229568411" font-size="10px">40x</text><text class="label" x="195.20443222805108" y="471.49816345270887" font-size="10px">18x</text><text class="label" x="160.48935808976137" y="484.72130394857663" font-size="10px">1x</text><text class="label" x="210.85088077656775" y="420.1056014692378" font-size="8px"></text><text class="label" x="205.90222880560935" y="433.32874196510556" font-size="8px"></text><text class="label" x="203.714511318332" y="446.55188246097333" font-size="8px"></text><text class="label" x="235.33900008406215" y="459.7750229568411" font-size="8px"></text><text class="label" x="191.70443222805108" y="472.99816345270887" font-size="8px"></text><text class="label" x="156.98935808976137" y="486.22130394857663" font-size="8px"></text></g><g style="font-size: 13px;"><rect x="150" y="498.9944903581267" width="84.17642590904109" height="12.56198347107438" fill="#4472c4"></rect><rect x="150" y="512.2176308539945" width="83.26331891508389" height="12.56198347107438" fill="#ed7d31"></rect><rect x="150" y="525.4407713498622" width="76.11581470945025" height="12.56198347107438" fill="#a5a5a5"></rect><rect x="150" y="538.66391184573" width="109.45911388343286" height="12.56198347107438" fill="#ffc000"></rect><rect x="150" y="551.8870523415978" width="35.775106981573984" height="12.56198347107438" fill="#5b9bd5"></rect><rect x="150" y="565.1101928374655" width="1.989358089761377" height="12.56198347107438" fill="#70ad47"></rect><text class="label" x="242.6764259090411" y="507.4944903581267" font-size="10px">42x</text><text class="label" x="241.7633189150839" y="520.7176308539945" font-size="10px">42x</text><text class="label" x="234.61581470945026" y="533.9407713498622" font-size="10px">38x</text><text class="label" x="267.95911388343285" y="547.16391184573" font-size="10px">55x</text><text class="label" x="194.27510698157397" y="560.3870523415978" font-size="10px">18x</text><text class="label" x="160.48935808976137" y="573.6101928374655" font-size="10px">1x</text><text class="label" x="239.1764259090411" y="508.9944903581267" font-size="8px"></text><text class="label" x="238.2633189150839" y="522.2176308539945" font-size="8px"></text><text class="label" x="231.11581470945026" y="535.4407713498622" font-size="8px"></text><text class="label" x="264.45911388343285" y="548.66391184573" font-size="8px"></text><text class="label" x="190.77510698157397" y="561.8870523415978" font-size="8px"></text><text class="label" x="156.98935808976137" y="575.1101928374655" font-size="8px"></text></g><g style="font-size: 13px;"><rect x="150" y="587.8833792470156" width="71.21636271682038" height="12.56198347107438" fill="#4472c4"></rect><rect x="150" y="601.1065197428833" width="67.46114990880403" height="12.56198347107438" fill="#ed7d31"></rect><rect x="150" y="614.3296602387511" width="63.61810399185309" height="12.56198347107438" fill="#a5a5a5"></rect><rect x="150" y="627.5528007346188" width="31.5659125793986" height="12.56198347107438" fill="#ffc000"></rect><rect x="150" y="640.7759412304866" width="32.2054844480467" height="12.56198347107438" fill="#5b9bd5"></rect><rect x="150" y="653.9990817263545" width="1.989358089761377" height="12.56198347107438" fill="#70ad47"></rect><text class="label" x="229.71636271682038" y="596.3833792470156" font-size="10px">36x</text><text class="label" x="225.96114990880403" y="609.6065197428833" font-size="10px">34x</text><text class="label" x="222.1181039918531" y="622.8296602387511" font-size="10px">32x</text><text class="label" x="190.0659125793986" y="636.0528007346188" font-size="10px">16x</text><text class="label" x="190.7054844480467" y="649.2759412304866" font-size="10px">16x</text><text class="label" x="160.48935808976137" y="662.4990817263545" font-size="10px">1x</text><text class="label" x="226.21636271682038" y="597.8833792470156" font-size="8px"></text><text class="label" x="222.46114990880403" y="611.1065197428833" font-size="8px"></text><text class="label" x="218.6181039918531" y="624.3296602387511" font-size="8px"></text><text class="label" x="186.5659125793986" y="637.5528007346188" font-size="8px"></text><text class="label" x="187.2054844480467" y="650.7759412304866" font-size="8px"></text><text class="label" x="156.98935808976137" y="663.9990817263545" font-size="8px"></text></g><g style="font-size: 13px;"><rect x="150" y="676.7722681359045" width="60.86357106209994" height="12.56198347107438" fill="#4472c4"></rect><rect x="150" y="689.9954086317722" width="58.60509307087986" height="12.56198347107438" fill="#ed7d31"></rect><rect x="150" y="703.21854912764" width="53.54571662326366" height="12.56198347107438" fill="#a5a5a5"></rect><rect x="150" y="716.4416896235077" width="40.51359728568835" height="12.56198347107438" fill="#ffc000"></rect><rect x="150" y="729.6648301193756" width="45.65105360321235" height="12.56198347107438" fill="#5b9bd5"></rect><rect x="150" y="742.8879706152434" width="1.989358089761377" height="12.56198347107438" fill="#70ad47"></rect><text class="label" x="219.36357106209994" y="685.2722681359045" font-size="10px">31x</text><text class="label" x="217.10509307087986" y="698.4954086317722" font-size="10px">29x</text><text class="label" x="212.04571662326367" y="711.71854912764" font-size="10px">27x</text><text class="label" x="199.01359728568835" y="724.9416896235077" font-size="10px">20x</text><text class="label" x="204.15105360321235" y="738.1648301193756" font-size="10px">23x</text><text class="label" x="160.48935808976137" y="751.3879706152434" font-size="10px">1x</text><text class="label" x="215.86357106209994" y="686.7722681359045" font-size="8px"></text><text class="label" x="213.60509307087986" y="699.9954086317722" font-size="8px"></text><text class="label" x="208.54571662326367" y="713.21854912764" font-size="8px"></text><text class="label" x="195.51359728568835" y="726.4416896235077" font-size="8px"></text><text class="label" x="200.65105360321235" y="739.6648301193756" font-size="8px"></text><text class="label" x="156.98935808976137" y="752.8879706152434" font-size="8px"></text></g></g></svg>