<svg xmlns="http://www.w3.org/2000/svg" xmlns:xlink="http://www.w3.org/1999/xlink" width="800" height="600" style="background-color: white;"><g class="y axis" transform="translate(149,45)" fill="none" font-size="10" font-family="sans-serif" text-anchor="end" style="font-size: 13px;"><path class="domain" stroke="currentColor" d="M0.5,0.5V525.5"></path><g class="tick" opacity="1" transform="translate(0,40.66901408450705)" style="font-size: 13px;"><line stroke="currentColor" x2="0"></line><text fill="currentColor" x="-3" dy="0.32em">object (simple)    </text></g><g class="tick" opacity="1" transform="translate(0,114.61267605633802)" style="font-size: 13px;"><line stroke="currentColor" x2="0"></line><text fill="currentColor" x="-3" dy="0.32em">object (hierarchical)    </text></g><g class="tick" opacity="1" transform="translate(0,188.556338028169)" style="font-size: 13px;"><line stroke="currentColor" x2="0"></line><text fill="currentColor" x="-3" dy="0.32em">object (recursive)    </text></g><g class="tick" opacity="1" transform="translate(0,262.5)" style="font-size: 13px;"><line stroke="currentColor" x2="0"></line><text fill="currentColor" x="-3" dy="0.32em">object (union)    </text></g><g class="tick" opacity="1" transform="translate(0,336.443661971831)" style="font-size: 13px;"><line stroke="currentColor" x2="0"></line><text fill="currentColor" x="-3" dy="0.32em">array (hierarchical)    </text></g><g class="tick" opacity="1" transform="translate(0,410.38732394366195)" style="font-size: 13px;"><line stroke="currentColor" x2="0"></line><text fill="currentColor" x="-3" dy="0.32em">array (recursive)    </text></g><g class="tick" opacity="1" transform="translate(0,484.33098591549293)" style="font-size: 13px;"><line stroke="currentColor" x2="0"></line><text fill="currentColor" x="-3" dy="0.32em">array (union)    </text></g></g><g class="x axis" transform="translate(149,570)" fill="none" font-size="10" font-family="sans-serif" text-anchor="middle" style="font-size: 13px;"><path class="domain" stroke="currentColor" d="M0.5,0.5H485.5"></path><g class="tick" opacity="1" transform="translate(0.5,0)" style="font-size: 13px;"><line stroke="currentColor" y2="6"></line><text fill="currentColor" y="9" dy="0.71em">0x</text></g><g class="tick" opacity="1" transform="translate(75.08229172951452,0)" style="font-size: 13px;"><line stroke="currentColor" y2="6"></line><text fill="currentColor" y="9" dy="0.71em">1x</text></g><g class="tick" opacity="1" transform="translate(149.66458345902905,0)" style="font-size: 13px;"><line stroke="currentColor" y2="6"></line><text fill="currentColor" y="9" dy="0.71em">2x</text></g><g class="tick" opacity="1" transform="translate(224.24687518854356,0)" style="font-size: 13px;"><line stroke="currentColor" y2="6"></line><text fill="currentColor" y="9" dy="0.71em">3x</text></g><g class="tick" opacity="1" transform="translate(298.8291669180581,0)" style="font-size: 13px;"><line stroke="currentColor" y2="6"></line><text fill="currentColor" y="9" dy="0.71em">4x</text></g><g class="tick" opacity="1" transform="translate(373.41145864757254,0)" style="font-size: 13px;"><line stroke="currentColor" y2="6"></line><text fill="currentColor" y="9" dy="0.71em">5x</text></g><g class="tick" opacity="1" transform="translate(447.9937503770871,0)" style="font-size: 13px;"><line stroke="currentColor" y2="6"></line><text fill="currentColor" y="9" dy="0.71em">6x</text></g></g><text transform="translate(400, 30)" style="text-anchor: middle; font-size: 20px; font-weight: bold;">stringify benchmark</text><rect x="680" y="145" width="200" height="5" fill="gray"></rect><rect x="675" y="35" width="200" height="110" fill="none" stroke="black"></rect><rect x="685" y="45" width="10" height="10" style="fill: #4472c4;"></rect><text x="700" y="55" style="font-size: 12px;">TSON.stringify()</text><rect x="685" y="65" width="10" height="10" style="fill: #ed7d31;"></rect><text x="700" y="75" style="font-size: 12px;">TSON.assertStringify()</text><rect x="685" y="85" width="10" height="10" style="fill: #a5a5a5;"></rect><text x="700" y="95" style="font-size: 12px;">TSON.isStringify()</text><rect x="685" y="105" width="10" height="10" style="fill: #ffc000;"></rect><text x="700" y="115" style="font-size: 12px;">JSON.stringify()</text><rect x="685" y="125" width="10" height="10" style="fill: #5b9bd5;"></rect><text x="700" y="135" style="font-size: 12px;">fast-json-stringify</text><g style="font-size: 13px;"><g style="font-size: 13px;"><rect x="150" y="53.05327011574397" width="440.9090909090909" height="12.519174452656534" fill="#4472c4"></rect><rect x="150" y="66.23134848696137" width="368.7096698946071" height="12.519174452656534" fill="#ed7d31"></rect><rect x="150" y="79.40942685817878" width="346.7894701169218" height="12.519174452656534" fill="#a5a5a5"></rect><rect x="150" y="92.58750522939619" width="74.58229172951452" height="12.519174452656534" fill="#ffc000"></rect><rect x="150" y="105.76558360061358" width="322.08896933088846" height="12.519174452656534" fill="#5b9bd5"></rect><text class="label" x="599.4090909090909" y="61.55327011574397" font-size="10px">5.91x</text><text class="label" x="527.209669894607" y="74.73134848696137" font-size="10px">4.94x</text><text class="label" x="505.2894701169218" y="87.90942685817878" font-size="10px">4.65x</text><text class="label" x="233.0822917295145" y="101.08750522939619" font-size="10px">1x</text><text class="label" x="480.58896933088846" y="114.26558360061358" font-size="10px">4.32x</text><text class="label" x="595.9090909090909" y="63.05327011574397" font-size="8px"></text><text class="label" x="523.709669894607" y="76.23134848696137" font-size="8px"></text><text class="label" x="501.7894701169218" y="89.40942685817878" font-size="8px"></text><text class="label" x="229.5822917295145" y="102.58750522939619" font-size="8px"></text><text class="label" x="477.08896933088846" y="115.76558360061358" font-size="8px"></text></g><g style="font-size: 13px;"><rect x="150" y="126.99693208757495" width="221.3085748840417" height="12.519174452656534" fill="#4472c4"></rect><rect x="150" y="140.17501045879237" width="208.9561563626282" height="12.519174452656534" fill="#ed7d31"></rect><rect x="150" y="153.35308883000977" width="217.38843491224327" height="12.519174452656534" fill="#a5a5a5"></rect><rect x="150" y="166.53116720122716" width="74.58229172951452" height="12.519174452656534" fill="#ffc000"></rect><rect x="150" y="179.70924557244456" width="206.2993419432005" height="12.519174452656534" fill="#5b9bd5"></rect><text class="label" x="379.8085748840417" y="135.49693208757495" font-size="10px">2.97x</text><text class="label" x="367.45615636262824" y="148.67501045879237" font-size="10px">2.8x</text><text class="label" x="375.88843491224327" y="161.85308883000977" font-size="10px">2.91x</text><text class="label" x="233.0822917295145" y="175.03116720122716" font-size="10px">1x</text><text class="label" x="364.7993419432005" y="188.20924557244456" font-size="10px">2.77x</text><text class="label" x="376.3085748840417" y="136.99693208757495" font-size="8px"></text><text class="label" x="363.95615636262824" y="150.17501045879237" font-size="8px"></text><text class="label" x="372.38843491224327" y="163.35308883000977" font-size="8px"></text><text class="label" x="229.5822917295145" y="176.53116720122716" font-size="8px"></text><text class="label" x="361.2993419432005" y="189.70924557244456" font-size="8px"></text></g><g style="font-size: 13px;"><rect x="150" y="200.94059405940592" width="289.9290413863982" height="12.519174452656534" fill="#4472c4"></rect><rect x="150" y="214.11867243062332" width="281.30255296870314" height="12.519174452656534" fill="#ed7d31"></rect><rect x="150" y="227.29675080184074" width="293.1232340051798" height="12.519174452656534" fill="#a5a5a5"></rect><rect x="150" y="240.47482917305814" width="78.36875196304493" height="12.519174452656534" fill="#ffc000"></rect><rect x="150" y="253.65290754427554" width="74.58229172951452" height="12.519174452656534" fill="#5b9bd5"></rect><text class="label" x="448.4290413863982" y="209.44059405940592" font-size="10px">3.89x</text><text class="label" x="439.80255296870314" y="222.61867243062332" font-size="10px">3.77x</text><text class="label" x="451.6232340051798" y="235.79675080184074" font-size="10px">3.93x</text><text class="label" x="236.86875196304493" y="248.97482917305814" font-size="10px">1.05x</text><text class="label" x="233.0822917295145" y="262.15290754427554" font-size="10px">1x</text><text class="label" x="444.9290413863982" y="210.94059405940592" font-size="8px"></text><text class="label" x="436.30255296870314" y="224.11867243062332" font-size="8px"></text><text class="label" x="448.1232340051798" y="237.29675080184074" font-size="8px"></text><text class="label" x="233.36875196304493" y="250.47482917305814" font-size="8px"></text><text class="label" x="229.5822917295145" y="263.65290754427554" font-size="8px"></text></g><g style="font-size: 13px;"><rect x="150" y="274.8842560312369" width="142.91961186116458" height="12.519174452656534" fill="#4472c4"></rect><rect x="150" y="288.0623344024543" width="105.76252406440858" height="12.519174452656534" fill="#ed7d31"></rect><rect x="150" y="301.2404127736717" width="126.8153480875913" height="12.519174452656534" fill="#a5a5a5"></rect><rect x="150" y="314.4184911448891" width="74.58229172951452" height="12.519174452656534" fill="#ffc000"></rect><rect x="150" y="327.5965695161065" width="140.18202047332412" height="12.519174452656534" fill="#5b9bd5"></rect><text class="label" x="301.4196118611646" y="283.3842560312369" font-size="10px">1.92x</text><text class="label" x="264.2625240644086" y="296.5623344024543" font-size="10px">1.42x</text><text class="label" x="285.3153480875913" y="309.7404127736717" font-size="10px">1.7x</text><text class="label" x="233.0822917295145" y="322.9184911448891" font-size="10px">1x</text><text class="label" x="298.6820204733241" y="336.0965695161065" font-size="10px">1.88x</text><text class="label" x="297.9196118611646" y="284.8842560312369" font-size="8px"></text><text class="label" x="260.7625240644086" y="298.0623344024543" font-size="8px"></text><text class="label" x="281.8153480875913" y="311.2404127736717" font-size="8px"></text><text class="label" x="229.5822917295145" y="324.4184911448891" font-size="8px"></text><text class="label" x="295.1820204733241" y="337.5965695161065" font-size="8px"></text></g><g style="font-size: 13px;"><rect x="150" y="348.8279180030679" width="125.43696642453565" height="12.519174452656534" fill="#4472c4"></rect><rect x="150" y="362.0059963742853" width="110.00348998106954" height="12.519174452656534" fill="#ed7d31"></rect><rect x="150" y="375.1840747455027" width="126.68127069752813" height="12.519174452656534" fill="#a5a5a5"></rect><rect x="150" y="388.3621531167201" width="74.58229172951452" height="12.519174452656534" fill="#ffc000"></rect><rect x="150" y="401.5402314879375" width="169.15716720649496" height="12.519174452656534" fill="#5b9bd5"></rect><text class="label" x="283.9369664245356" y="357.3279180030679" font-size="10px">1.68x</text><text class="label" x="268.50348998106955" y="370.5059963742853" font-size="10px">1.47x</text><text class="label" x="285.18127069752813" y="383.6840747455027" font-size="10px">1.7x</text><text class="label" x="233.0822917295145" y="396.8621531167201" font-size="10px">1x</text><text class="label" x="327.65716720649493" y="410.0402314879375" font-size="10px">2.27x</text><text class="label" x="280.4369664245356" y="358.8279180030679" font-size="8px"></text><text class="label" x="265.00348998106955" y="372.0059963742853" font-size="8px"></text><text class="label" x="281.68127069752813" y="385.1840747455027" font-size="8px"></text><text class="label" x="229.5822917295145" y="398.3621531167201" font-size="8px"></text><text class="label" x="324.15716720649493" y="411.5402314879375" font-size="8px"></text></g><g style="font-size: 13px;"><rect x="150" y="422.7715799748988" width="130.04459929071172" height="12.519174452656534" fill="#4472c4"></rect><rect x="150" y="435.9496583461163" width="114.58173442467397" height="12.519174452656534" fill="#ed7d31"></rect><rect x="150" y="449.1277367173337" width="128.26641425027356" height="12.519174452656534" fill="#a5a5a5"></rect><rect x="150" y="462.30581508855107" width="74.58229172951452" height="12.519174452656534" fill="#ffc000"></rect><rect x="150" y="475.48389345976847" width="75.54907246674709" height="12.519174452656534" fill="#5b9bd5"></rect><text class="label" x="288.54459929071174" y="431.2715799748988" font-size="10px">1.74x</text><text class="label" x="273.081734424674" y="444.4496583461163" font-size="10px">1.54x</text><text class="label" x="286.76641425027356" y="457.6277367173337" font-size="10px">1.72x</text><text class="label" x="233.0822917295145" y="470.80581508855107" font-size="10px">1x</text><text class="label" x="234.04907246674708" y="483.98389345976847" font-size="10px">1.01x</text><text class="label" x="285.04459929071174" y="432.7715799748988" font-size="8px"></text><text class="label" x="269.581734424674" y="445.9496583461163" font-size="8px"></text><text class="label" x="283.26641425027356" y="459.1277367173337" font-size="8px"></text><text class="label" x="229.5822917295145" y="472.30581508855107" font-size="8px"></text><text class="label" x="230.54907246674708" y="485.48389345976847" font-size="8px"></text></g><g style="font-size: 13px;"><rect x="150" y="496.71524194672986" width="98.75652375490255" height="12.519174452656534" fill="#4472c4"></rect><rect x="150" y="509.89332031794726" width="79.9904467451638" height="12.519174452656534" fill="#ed7d31"></rect><rect x="150" y="523.0713986891647" width="85.61290412056684" height="12.519174452656534" fill="#a5a5a5"></rect><rect x="150" y="536.2494770603821" width="85.94119729893458" height="12.519174452656534" fill="#ffc000"></rect><rect x="150" y="549.4275554315994" width="74.58229172951452" height="12.519174452656534" fill="#5b9bd5"></rect><text class="label" x="257.25652375490256" y="505.21524194672986" font-size="10px">1.32x</text><text class="label" x="238.4904467451638" y="518.3933203179472" font-size="10px">1.07x</text><text class="label" x="244.11290412056684" y="531.5713986891647" font-size="10px">1.15x</text><text class="label" x="244.44119729893458" y="544.7494770603821" font-size="10px">1.15x</text><text class="label" x="233.0822917295145" y="557.9275554315994" font-size="10px">1x</text><text class="label" x="253.75652375490256" y="506.71524194672986" font-size="8px"></text><text class="label" x="234.9904467451638" y="519.8933203179472" font-size="8px"></text><text class="label" x="240.61290412056684" y="533.0713986891647" font-size="8px"></text><text class="label" x="240.94119729893458" y="546.2494770603821" font-size="8px"></text><text class="label" x="229.5822917295145" y="559.4275554315994" font-size="8px"></text></g></g></svg>