<svg xmlns="http://www.w3.org/2000/svg" xmlns:xlink="http://www.w3.org/1999/xlink" width="800" height="675" style="background-color: white;"><g class="y axis" transform="translate(149,45)" fill="none" font-size="10" font-family="sans-serif" text-anchor="end" style="font-size: 13px;"><path class="domain" stroke="currentColor" d="M0.5,0.5V600.5"></path><g class="tick" opacity="1" transform="translate(0,40.740740740740726)" style="font-size: 13px;"><line stroke="currentColor" x2="0"></line><text fill="currentColor" x="-3" dy="0.32em">object (simple)    </text></g><g class="tick" opacity="1" transform="translate(0,114.81481481481481)" style="font-size: 13px;"><line stroke="currentColor" x2="0"></line><text fill="currentColor" x="-3" dy="0.32em">object (hierarchical)    </text></g><g class="tick" opacity="1" transform="translate(0,188.88888888888889)" style="font-size: 13px;"><line stroke="currentColor" x2="0"></line><text fill="currentColor" x="-3" dy="0.32em">object (recursive)    </text></g><g class="tick" opacity="1" transform="translate(0,262.96296296296293)" style="font-size: 13px;"><line stroke="currentColor" x2="0"></line><text fill="currentColor" x="-3" dy="0.32em">object (union)    </text></g><g class="tick" opacity="1" transform="translate(0,337.037037037037)" style="font-size: 13px;"><line stroke="currentColor" x2="0"></line><text fill="currentColor" x="-3" dy="0.32em">array (simple)    </text></g><g class="tick" opacity="1" transform="translate(0,411.1111111111111)" style="font-size: 13px;"><line stroke="currentColor" x2="0"></line><text fill="currentColor" x="-3" dy="0.32em">array (hierarchical)    </text></g><g class="tick" opacity="1" transform="translate(0,485.18518518518516)" style="font-size: 13px;"><line stroke="currentColor" x2="0"></line><text fill="currentColor" x="-3" dy="0.32em">array (recursive)    </text></g><g class="tick" opacity="1" transform="translate(0,559.2592592592592)" style="font-size: 13px;"><line stroke="currentColor" x2="0"></line><text fill="currentColor" x="-3" dy="0.32em">array (union)    </text></g></g><g class="x axis" transform="translate(149,645)" fill="none" font-size="10" font-family="sans-serif" text-anchor="middle" style="font-size: 13px;"><path class="domain" stroke="currentColor" d="M0.5,0.5H485.5"></path><g class="tick" opacity="1" transform="translate(0.5,0)" style="font-size: 13px;"><line stroke="currentColor" y2="6"></line><text fill="currentColor" y="9" dy="0.71em">0x</text></g><g class="tick" opacity="1" transform="translate(132.80924832744077,0)" style="font-size: 13px;"><line stroke="currentColor" y2="6"></line><text fill="currentColor" y="9" dy="0.71em">2x</text></g><g class="tick" opacity="1" transform="translate(265.11849665488154,0)" style="font-size: 13px;"><line stroke="currentColor" y2="6"></line><text fill="currentColor" y="9" dy="0.71em">4x</text></g><g class="tick" opacity="1" transform="translate(397.4277449823224,0)" style="font-size: 13px;"><line stroke="currentColor" y2="6"></line><text fill="currentColor" y="9" dy="0.71em">6x</text></g></g><text transform="translate(400, 30)" style="text-anchor: middle; font-size: 20px; font-weight: bold;">stringify benchmark</text><rect x="680" y="145" width="200" height="5" fill="gray"></rect><rect x="675" y="35" width="200" height="110" fill="none" stroke="black"></rect><rect x="685" y="45" width="10" height="10" style="fill: #4472c4;"></rect><text x="700" y="55" style="font-size: 12px;">typia.stringify()</text><rect x="685" y="65" width="10" height="10" style="fill: #ed7d31;"></rect><text x="700" y="75" style="font-size: 12px;">typia.assertStringify()</text><rect x="685" y="85" width="10" height="10" style="fill: #a5a5a5;"></rect><text x="700" y="95" style="font-size: 12px;">typia.isStringify()</text><rect x="685" y="105" width="10" height="10" style="fill: #ffc000;"></rect><text x="700" y="115" style="font-size: 12px;">fast-json-stringify</text><rect x="685" y="125" width="10" height="10" style="fill: #5b9bd5;"></rect><text x="700" y="135" style="font-size: 12px;">JSON.stringify</text><g style="font-size: 13px;"><g style="font-size: 13px;"><rect x="150" y="53.06747341400805" width="440.9090909090908" height="12.541254125412543" fill="#4472c4"></rect><rect x="150" y="66.26879354602124" width="284.5302179436019" height="12.541254125412543" fill="#ed7d31"></rect><rect x="150" y="79.47011367803445" width="428.276558961721" height="12.541254125412543" fill="#a5a5a5"></rect><rect x="150" y="92.67143381004766" width="295.31209304402904" height="12.541254125412543" fill="#ffc000"></rect><rect x="150" y="105.87275394206085" width="66.15462416372038" height="12.541254125412543" fill="#5b9bd5"></rect><text class="label" x="599.4090909090908" y="61.56747341400805" font-size="10px">6.66x</text><text class="label" x="443.0302179436019" y="74.76879354602124" font-size="10px">4.3x</text><text class="label" x="586.776558961721" y="87.97011367803445" font-size="10px">6.47x</text><text class="label" x="453.81209304402904" y="101.17143381004766" font-size="10px">4.46x</text><text class="label" x="224.65462416372037" y="114.37275394206085" font-size="10px">1x</text><text class="label" x="595.9090909090908" y="63.06747341400805" font-size="8px"></text><text class="label" x="439.5302179436019" y="76.26879354602124" font-size="8px"></text><text class="label" x="583.276558961721" y="89.47011367803445" font-size="8px"></text><text class="label" x="450.31209304402904" y="102.67143381004766" font-size="8px"></text><text class="label" x="221.15462416372037" y="115.87275394206085" font-size="8px"></text></g><g style="font-size: 13px;"><rect x="150" y="127.14154748808213" width="239.77105558415928" height="12.541254125412543" fill="#4472c4"></rect><rect x="150" y="140.34286762009532" width="210.4610262609679" height="12.541254125412543" fill="#ed7d31"></rect><rect x="150" y="153.54418775210854" width="219.49423542782517" height="12.541254125412543" fill="#a5a5a5"></rect><rect x="150" y="166.74550788412174" width="267.3898279603011" height="12.541254125412543" fill="#ffc000"></rect><rect x="150" y="179.94682801613493" width="66.15462416372038" height="12.541254125412543" fill="#5b9bd5"></rect><text class="label" x="398.2710555841593" y="135.64154748808213" font-size="10px">3.62x</text><text class="label" x="368.9610262609679" y="148.84286762009532" font-size="10px">3.18x</text><text class="label" x="377.9942354278252" y="162.04418775210854" font-size="10px">3.32x</text><text class="label" x="425.8898279603011" y="175.24550788412174" font-size="10px">4.04x</text><text class="label" x="224.65462416372037" y="188.44682801613493" font-size="10px">1x</text><text class="label" x="394.7710555841593" y="137.14154748808213" font-size="8px"></text><text class="label" x="365.4610262609679" y="150.34286762009532" font-size="8px"></text><text class="label" x="374.4942354278252" y="163.54418775210854" font-size="8px"></text><text class="label" x="422.3898279603011" y="176.74550788412174" font-size="8px"></text><text class="label" x="221.15462416372037" y="189.94682801613493" font-size="8px"></text></g><g style="font-size: 13px;"><rect x="150" y="201.2156215621562" width="317.92175459936414" height="12.541254125412543" fill="#4472c4"></rect><rect x="150" y="214.4169416941694" width="277.24335235222765" height="12.541254125412543" fill="#ed7d31"></rect><rect x="150" y="227.61826182618262" width="290.56214220998675" height="12.541254125412543" fill="#a5a5a5"></rect><rect x="150" y="240.8195819581958" width="67.31350779754253" height="12.541254125412543" fill="#ffc000"></rect><rect x="150" y="254.020902090209" width="66.15462416372038" height="12.541254125412543" fill="#5b9bd5"></rect><text class="label" x="476.42175459936414" y="209.7156215621562" font-size="10px">4.81x</text><text class="label" x="435.74335235222765" y="222.9169416941694" font-size="10px">4.19x</text><text class="label" x="449.06214220998675" y="236.11826182618262" font-size="10px">4.39x</text><text class="label" x="225.8135077975425" y="249.3195819581958" font-size="10px">1.02x</text><text class="label" x="224.65462416372037" y="262.520902090209" font-size="10px">1x</text><text class="label" x="472.92175459936414" y="211.2156215621562" font-size="8px"></text><text class="label" x="432.24335235222765" y="224.4169416941694" font-size="8px"></text><text class="label" x="445.56214220998675" y="237.61826182618262" font-size="8px"></text><text class="label" x="222.3135077975425" y="250.8195819581958" font-size="8px"></text><text class="label" x="221.15462416372037" y="264.020902090209" font-size="8px"></text></g><g style="font-size: 13px;"><rect x="150" y="275.28969563623025" width="126.56533782093734" height="12.541254125412543" fill="#4472c4"></rect><rect x="150" y="288.49101576824347" width="103.5005026997646" height="12.541254125412543" fill="#ed7d31"></rect><rect x="150" y="301.6923359002567" width="117.81515860956002" height="12.541254125412543" fill="#a5a5a5"></rect><rect x="150" y="314.89365603226986" width="136.72051570033233" height="12.541254125412543" fill="#ffc000"></rect><rect x="150" y="328.0949761642831" width="66.15462416372038" height="12.541254125412543" fill="#5b9bd5"></rect><text class="label" x="285.0653378209373" y="283.78969563623025" font-size="10px">1.91x</text><text class="label" x="262.0005026997646" y="296.99101576824347" font-size="10px">1.56x</text><text class="label" x="276.31515860956" y="310.1923359002567" font-size="10px">1.78x</text><text class="label" x="295.2205157003323" y="323.39365603226986" font-size="10px">2.07x</text><text class="label" x="224.65462416372037" y="336.5949761642831" font-size="10px">1x</text><text class="label" x="281.5653378209373" y="285.28969563623025" font-size="8px"></text><text class="label" x="258.5005026997646" y="298.49101576824347" font-size="8px"></text><text class="label" x="272.81515860956" y="311.6923359002567" font-size="8px"></text><text class="label" x="291.7205157003323" y="324.89365603226986" font-size="8px"></text><text class="label" x="221.15462416372037" y="338.0949761642831" font-size="8px"></text></g><g style="font-size: 13px;"><rect x="150" y="349.3637697103044" width="90.4802423125903" height="12.541254125412543" fill="#4472c4"></rect><rect x="150" y="362.56508984231755" width="66.15462416372038" height="12.541254125412543" fill="#ed7d31"></rect><rect x="150" y="375.76640997433077" width="77.3820222253842" height="12.541254125412543" fill="#a5a5a5"></rect><rect x="150" y="388.967730106344" width="101.76105622577126" height="12.541254125412543" fill="#ffc000"></rect><rect x="150" y="402.16905023835716" width="73.0536298457985" height="12.541254125412543" fill="#5b9bd5"></rect><text class="label" x="248.9802423125903" y="357.8637697103044" font-size="10px">1.37x</text><text class="label" x="224.65462416372037" y="371.06508984231755" font-size="10px">1x</text><text class="label" x="235.88202222538422" y="384.26640997433077" font-size="10px">1.17x</text><text class="label" x="260.26105622577126" y="397.467730106344" font-size="10px">1.54x</text><text class="label" x="231.5536298457985" y="410.66905023835716" font-size="10px">1.1x</text><text class="label" x="245.4802423125903" y="359.3637697103044" font-size="8px"></text><text class="label" x="221.15462416372037" y="372.56508984231755" font-size="8px"></text><text class="label" x="232.38202222538422" y="385.76640997433077" font-size="8px"></text><text class="label" x="256.76105622577126" y="398.967730106344" font-size="8px"></text><text class="label" x="228.0536298457985" y="412.16905023835716" font-size="8px"></text></g><g style="font-size: 13px;"><rect x="150" y="423.4378437843784" width="131.97260065681425" height="12.541254125412543" fill="#4472c4"></rect><rect x="150" y="436.6391639163916" width="119.85068834730585" height="12.541254125412543" fill="#ed7d31"></rect><rect x="150" y="449.84048404840485" width="125.43727038422419" height="12.541254125412543" fill="#a5a5a5"></rect><rect x="150" y="463.041804180418" width="178.10421449524824" height="12.541254125412543" fill="#ffc000"></rect><rect x="150" y="476.24312431243123" width="66.15462416372038" height="12.541254125412543" fill="#5b9bd5"></rect><text class="label" x="290.4726006568143" y="431.9378437843784" font-size="10px">1.99x</text><text class="label" x="278.35068834730583" y="445.1391639163916" font-size="10px">1.81x</text><text class="label" x="283.9372703842242" y="458.34048404840485" font-size="10px">1.9x</text><text class="label" x="336.60421449524824" y="471.541804180418" font-size="10px">2.69x</text><text class="label" x="224.65462416372037" y="484.74312431243123" font-size="10px">1x</text><text class="label" x="286.9726006568143" y="433.4378437843784" font-size="8px"></text><text class="label" x="274.85068834730583" y="446.6391639163916" font-size="8px"></text><text class="label" x="280.4372703842242" y="459.84048404840485" font-size="8px"></text><text class="label" x="333.10421449524824" y="473.041804180418" font-size="8px"></text><text class="label" x="221.15462416372037" y="486.24312431243123" font-size="8px"></text></g><g style="font-size: 13px;"><rect x="150" y="497.51191785845253" width="127.13361194647196" height="12.541254125412543" fill="#4472c4"></rect><rect x="150" y="510.7132379904657" width="117.89603630816327" height="12.541254125412543" fill="#ed7d31"></rect><rect x="150" y="523.9145581224789" width="125.57242645084295" height="12.541254125412543" fill="#a5a5a5"></rect><rect x="150" y="537.1158782544921" width="66.15462416372038" height="12.541254125412543" fill="#ffc000"></rect><rect x="150" y="550.3171983865053" width="66.75405440601922" height="12.541254125412543" fill="#5b9bd5"></rect><text class="label" x="285.63361194647194" y="506.01191785845253" font-size="10px">1.92x</text><text class="label" x="276.3960363081633" y="519.2132379904657" font-size="10px">1.78x</text><text class="label" x="284.07242645084295" y="532.4145581224789" font-size="10px">1.9x</text><text class="label" x="224.65462416372037" y="545.6158782544921" font-size="10px">1x</text><text class="label" x="225.25405440601924" y="558.8171983865053" font-size="10px">1.01x</text><text class="label" x="282.13361194647194" y="507.51191785845253" font-size="8px"></text><text class="label" x="272.8960363081633" y="520.7132379904657" font-size="8px"></text><text class="label" x="280.57242645084295" y="533.9145581224789" font-size="8px"></text><text class="label" x="221.15462416372037" y="547.1158782544921" font-size="8px"></text><text class="label" x="221.75405440601924" y="560.3171983865053" font-size="8px"></text></g><g style="font-size: 13px;"><rect x="150" y="571.5859919325266" width="89.18956284329781" height="12.541254125412543" fill="#4472c4"></rect><rect x="150" y="584.7873120645397" width="74.68513788659082" height="12.541254125412543" fill="#ed7d31"></rect><rect x="150" y="597.9886321965529" width="79.3141262788511" height="12.541254125412543" fill="#a5a5a5"></rect><rect x="150" y="611.1899523285662" width="66.15462416372038" height="12.541254125412543" fill="#ffc000"></rect><rect x="150" y="624.3912724605793" width="73.28641584051279" height="12.541254125412543" fill="#5b9bd5"></rect><text class="label" x="247.6895628432978" y="580.0859919325266" font-size="10px">1.35x</text><text class="label" x="233.18513788659084" y="593.2873120645397" font-size="10px">1.13x</text><text class="label" x="237.81412627885112" y="606.4886321965529" font-size="10px">1.2x</text><text class="label" x="224.65462416372037" y="619.6899523285662" font-size="10px">1x</text><text class="label" x="231.7864158405128" y="632.8912724605793" font-size="10px">1.11x</text><text class="label" x="244.1895628432978" y="581.5859919325266" font-size="8px"></text><text class="label" x="229.68513788659084" y="594.7873120645397" font-size="8px"></text><text class="label" x="234.31412627885112" y="607.9886321965529" font-size="8px"></text><text class="label" x="221.15462416372037" y="621.1899523285662" font-size="8px"></text><text class="label" x="228.2864158405128" y="634.3912724605793" font-size="8px"></text></g></g></svg>