<svg xmlns="http://www.w3.org/2000/svg" xmlns:xlink="http://www.w3.org/1999/xlink" width="800" height="600" style="background-color: white;"><g class="y axis" transform="translate(149,45)" fill="none" font-size="10" font-family="sans-serif" text-anchor="end" style="font-size: 13px;"><path class="domain" stroke="#000" d="M0,0.5H0.5V525.5H0"></path><g class="tick" opacity="1" transform="translate(0,40.66901408450705)" style="font-size: 13px;"><line stroke="#000" x2="0"></line><text fill="#000" x="-3" dy="0.32em">object (simple)    </text></g><g class="tick" opacity="1" transform="translate(0,114.61267605633802)" style="font-size: 13px;"><line stroke="#000" x2="0"></line><text fill="#000" x="-3" dy="0.32em">object (hierarchical)    </text></g><g class="tick" opacity="1" transform="translate(0,188.556338028169)" style="font-size: 13px;"><line stroke="#000" x2="0"></line><text fill="#000" x="-3" dy="0.32em">object (recursive)    </text></g><g class="tick" opacity="1" transform="translate(0,262.5)" style="font-size: 13px;"><line stroke="#000" x2="0"></line><text fill="#000" x="-3" dy="0.32em">object (union)    </text></g><g class="tick" opacity="1" transform="translate(0,336.443661971831)" style="font-size: 13px;"><line stroke="#000" x2="0"></line><text fill="#000" x="-3" dy="0.32em">array (hierarchical)    </text></g><g class="tick" opacity="1" transform="translate(0,410.38732394366195)" style="font-size: 13px;"><line stroke="#000" x2="0"></line><text fill="#000" x="-3" dy="0.32em">array (recursive)    </text></g><g class="tick" opacity="1" transform="translate(0,484.33098591549293)" style="font-size: 13px;"><line stroke="#000" x2="0"></line><text fill="#000" x="-3" dy="0.32em">array (union)    </text></g></g><g class="x axis" transform="translate(149,570)" fill="none" font-size="10" font-family="sans-serif" text-anchor="middle" style="font-size: 13px;"><path class="domain" stroke="#000" d="M0.5,0V0.5H485.5V0"></path><g class="tick" opacity="1" transform="translate(0.5,0)" style="font-size: 13px;"><line stroke="#000" y2="6"></line><text fill="#000" y="9" dy="0.71em">0x</text></g><g class="tick" opacity="1" transform="translate(124.65257911877012,0)" style="font-size: 13px;"><line stroke="#000" y2="6"></line><text fill="#000" y="9" dy="0.71em">2x</text></g><g class="tick" opacity="1" transform="translate(248.80515823754024,0)" style="font-size: 13px;"><line stroke="#000" y2="6"></line><text fill="#000" y="9" dy="0.71em">4x</text></g><g class="tick" opacity="1" transform="translate(372.9577373563103,0)" style="font-size: 13px;"><line stroke="#000" y2="6"></line><text fill="#000" y="9" dy="0.71em">6x</text></g></g><text transform="translate(400, 30)" style="text-anchor: middle; font-size: 20px; font-weight: bold;">stringify benchmark</text><rect x="680" y="145" width="200" height="5" fill="gray"></rect><rect x="675" y="35" width="200" height="110" fill="none" stroke="black"></rect><rect x="685" y="45" width="10" height="10" style="fill: #4472c4;"></rect><text x="700" y="55" style="font-size: 12px;">TSON.stringify()</text><rect x="685" y="65" width="10" height="10" style="fill: #ed7d31;"></rect><text x="700" y="75" style="font-size: 12px;">TSON.assertStringify()</text><rect x="685" y="85" width="10" height="10" style="fill: #a5a5a5;"></rect><text x="700" y="95" style="font-size: 12px;">TSON.isStringify()</text><rect x="685" y="105" width="10" height="10" style="fill: #ffc000;"></rect><text x="700" y="115" style="font-size: 12px;">JSON.stringify()</text><rect x="685" y="125" width="10" height="10" style="fill: #5b9bd5;"></rect><text x="700" y="135" style="font-size: 12px;">fast-json-stringify</text><g style="font-size: 13px;"><g style="font-size: 13px;"><rect x="150" y="53.05327011574397" width="440.9090909090909" height="12.519174452656534" fill="#4472c4"></rect><rect x="150" y="66.23134848696137" width="332.08565882691437" height="12.519174452656534" fill="#ed7d31"></rect><rect x="150" y="79.40942685817878" width="372.2778058656997" height="12.519174452656534" fill="#a5a5a5"></rect><rect x="150" y="92.58750522939619" width="62.07628955938506" height="12.519174452656534" fill="#ffc000"></rect><rect x="150" y="105.76558360061358" width="290.87055581638174" height="12.519174452656534" fill="#5b9bd5"></rect><text class="label" x="599.4090909090909" y="61.55327011574397" font-size="10px">7.1x</text><text class="label" x="490.58565882691437" y="74.73134848696137" font-size="10px">5.35x</text><text class="label" x="530.7778058656997" y="87.90942685817878" font-size="10px">6x</text><text class="label" x="220.57628955938506" y="101.08750522939619" font-size="10px">1x</text><text class="label" x="449.37055581638174" y="114.26558360061358" font-size="10px">4.69x</text><text class="label" x="595.9090909090909" y="63.05327011574397" font-size="8px"></text><text class="label" x="487.08565882691437" y="76.23134848696137" font-size="8px"></text><text class="label" x="527.2778058656997" y="89.40942685817878" font-size="8px"></text><text class="label" x="217.07628955938506" y="102.58750522939619" font-size="8px"></text><text class="label" x="445.87055581638174" y="115.76558360061358" font-size="8px"></text></g><g style="font-size: 13px;"><rect x="150" y="126.99693208757495" width="207.35718025042152" height="12.519174452656534" fill="#4472c4"></rect><rect x="150" y="140.17501045879237" width="179.294199761797" height="12.519174452656534" fill="#ed7d31"></rect><rect x="150" y="153.35308883000977" width="193.2974246222309" height="12.519174452656534" fill="#a5a5a5"></rect><rect x="150" y="166.53116720122716" width="62.07628955938506" height="12.519174452656534" fill="#ffc000"></rect><rect x="150" y="179.70924557244456" width="190.3175474807685" height="12.519174452656534" fill="#5b9bd5"></rect><text class="label" x="365.8571802504215" y="135.49693208757495" font-size="10px">3.34x</text><text class="label" x="337.794199761797" y="148.67501045879237" font-size="10px">2.89x</text><text class="label" x="351.7974246222309" y="161.85308883000977" font-size="10px">3.11x</text><text class="label" x="220.57628955938506" y="175.03116720122716" font-size="10px">1x</text><text class="label" x="348.8175474807685" y="188.20924557244456" font-size="10px">3.07x</text><text class="label" x="362.3571802504215" y="136.99693208757495" font-size="8px"></text><text class="label" x="334.294199761797" y="150.17501045879237" font-size="8px"></text><text class="label" x="348.2974246222309" y="163.35308883000977" font-size="8px"></text><text class="label" x="217.07628955938506" y="176.53116720122716" font-size="8px"></text><text class="label" x="345.3175474807685" y="189.70924557244456" font-size="8px"></text></g><g style="font-size: 13px;"><rect x="150" y="200.94059405940592" width="300.9571614726882" height="12.519174452656534" fill="#4472c4"></rect><rect x="150" y="214.11867243062332" width="259.35981423204885" height="12.519174452656534" fill="#ed7d31"></rect><rect x="150" y="227.29675080184074" width="272.9609240713846" height="12.519174452656534" fill="#a5a5a5"></rect><rect x="150" y="240.47482917305814" width="63.40171729703593" height="12.519174452656534" fill="#ffc000"></rect><rect x="150" y="253.65290754427554" width="62.07628955938506" height="12.519174452656534" fill="#5b9bd5"></rect><text class="label" x="459.4571614726882" y="209.44059405940592" font-size="10px">4.85x</text><text class="label" x="417.85981423204885" y="222.61867243062332" font-size="10px">4.18x</text><text class="label" x="431.4609240713846" y="235.79675080184074" font-size="10px">4.4x</text><text class="label" x="221.90171729703593" y="248.97482917305814" font-size="10px">1.02x</text><text class="label" x="220.57628955938506" y="262.15290754427554" font-size="10px">1x</text><text class="label" x="455.9571614726882" y="210.94059405940592" font-size="8px"></text><text class="label" x="414.35981423204885" y="224.11867243062332" font-size="8px"></text><text class="label" x="427.9609240713846" y="237.29675080184074" font-size="8px"></text><text class="label" x="218.40171729703593" y="250.47482917305814" font-size="8px"></text><text class="label" x="217.07628955938506" y="263.65290754427554" font-size="8px"></text></g><g style="font-size: 13px;"><rect x="150" y="274.8842560312369" width="139.36716534373568" height="12.519174452656534" fill="#4472c4"></rect><rect x="150" y="288.0623344024543" width="108.72933463003436" height="12.519174452656534" fill="#ed7d31"></rect><rect x="150" y="301.2404127736717" width="126.69064203351556" height="12.519174452656534" fill="#a5a5a5"></rect><rect x="150" y="314.4184911448891" width="62.07628955938506" height="12.519174452656534" fill="#ffc000"></rect><rect x="150" y="327.5965695161065" width="131.31339650833286" height="12.519174452656534" fill="#5b9bd5"></rect><text class="label" x="297.8671653437357" y="283.3842560312369" font-size="10px">2.25x</text><text class="label" x="267.2293346300344" y="296.5623344024543" font-size="10px">1.75x</text><text class="label" x="285.1906420335156" y="309.7404127736717" font-size="10px">2.04x</text><text class="label" x="220.57628955938506" y="322.9184911448891" font-size="10px">1x</text><text class="label" x="289.81339650833286" y="336.0965695161065" font-size="10px">2.12x</text><text class="label" x="294.3671653437357" y="284.8842560312369" font-size="8px"></text><text class="label" x="263.7293346300344" y="298.0623344024543" font-size="8px"></text><text class="label" x="281.6906420335156" y="311.2404127736717" font-size="8px"></text><text class="label" x="217.07628955938506" y="324.4184911448891" font-size="8px"></text><text class="label" x="286.31339650833286" y="337.5965695161065" font-size="8px"></text></g><g style="font-size: 13px;"><rect x="150" y="348.8279180030679" width="127.1776686977883" height="12.519174452656534" fill="#4472c4"></rect><rect x="150" y="362.0059963742853" width="115.35818275933212" height="12.519174452656534" fill="#ed7d31"></rect><rect x="150" y="375.1840747455027" width="126.50988411274466" height="12.519174452656534" fill="#a5a5a5"></rect><rect x="150" y="388.3621531167201" width="62.07628955938506" height="12.519174452656534" fill="#ffc000"></rect><rect x="150" y="401.5402314879375" width="174.4443475773024" height="12.519174452656534" fill="#5b9bd5"></rect><text class="label" x="285.6776686977883" y="357.3279180030679" font-size="10px">2.05x</text><text class="label" x="273.8581827593321" y="370.5059963742853" font-size="10px">1.86x</text><text class="label" x="285.00988411274466" y="383.6840747455027" font-size="10px">2.04x</text><text class="label" x="220.57628955938506" y="396.8621531167201" font-size="10px">1x</text><text class="label" x="332.94434757730244" y="410.0402314879375" font-size="10px">2.81x</text><text class="label" x="282.1776686977883" y="358.8279180030679" font-size="8px"></text><text class="label" x="270.3581827593321" y="372.0059963742853" font-size="8px"></text><text class="label" x="281.50988411274466" y="385.1840747455027" font-size="8px"></text><text class="label" x="217.07628955938506" y="398.3621531167201" font-size="8px"></text><text class="label" x="329.44434757730244" y="411.5402314879375" font-size="8px"></text></g><g style="font-size: 13px;"><rect x="150" y="422.7715799748988" width="146.14197034135015" height="12.519174452656534" fill="#4472c4"></rect><rect x="150" y="435.9496583461163" width="125.25987628269145" height="12.519174452656534" fill="#ed7d31"></rect><rect x="150" y="449.1277367173337" width="137.18078100256724" height="12.519174452656534" fill="#a5a5a5"></rect><rect x="150" y="462.30581508855107" width="62.07628955938506" height="12.519174452656534" fill="#ffc000"></rect><rect x="150" y="475.48389345976847" width="64.30622585914855" height="12.519174452656534" fill="#5b9bd5"></rect><text class="label" x="304.64197034135015" y="431.2715799748988" font-size="10px">2.35x</text><text class="label" x="283.75987628269144" y="444.4496583461163" font-size="10px">2.02x</text><text class="label" x="295.68078100256724" y="457.6277367173337" font-size="10px">2.21x</text><text class="label" x="220.57628955938506" y="470.80581508855107" font-size="10px">1x</text><text class="label" x="222.80622585914855" y="483.98389345976847" font-size="10px">1.04x</text><text class="label" x="301.14197034135015" y="432.7715799748988" font-size="8px"></text><text class="label" x="280.25987628269144" y="445.9496583461163" font-size="8px"></text><text class="label" x="292.18078100256724" y="459.1277367173337" font-size="8px"></text><text class="label" x="217.07628955938506" y="472.30581508855107" font-size="8px"></text><text class="label" x="219.30622585914855" y="485.48389345976847" font-size="8px"></text></g><g style="font-size: 13px;"><rect x="150" y="496.71524194672986" width="84.06952777437037" height="12.519174452656534" fill="#4472c4"></rect><rect x="150" y="509.89332031794726" width="71.62431645207086" height="12.519174452656534" fill="#ed7d31"></rect><rect x="150" y="523.0713986891647" width="75.86085876168785" height="12.519174452656534" fill="#a5a5a5"></rect><rect x="150" y="536.2494770603821" width="68.76363651496189" height="12.519174452656534" fill="#ffc000"></rect><rect x="150" y="549.4275554315994" width="62.07628955938506" height="12.519174452656534" fill="#5b9bd5"></rect><text class="label" x="242.56952777437039" y="505.21524194672986" font-size="10px">1.35x</text><text class="label" x="230.12431645207084" y="518.3933203179472" font-size="10px">1.15x</text><text class="label" x="234.36085876168784" y="531.5713986891647" font-size="10px">1.22x</text><text class="label" x="227.2636365149619" y="544.7494770603821" font-size="10px">1.11x</text><text class="label" x="220.57628955938506" y="557.9275554315994" font-size="10px">1x</text><text class="label" x="239.06952777437039" y="506.71524194672986" font-size="8px"></text><text class="label" x="226.62431645207084" y="519.8933203179472" font-size="8px"></text><text class="label" x="230.86085876168784" y="533.0713986891647" font-size="8px"></text><text class="label" x="223.7636365149619" y="546.2494770603821" font-size="8px"></text><text class="label" x="217.07628955938506" y="559.4275554315994" font-size="8px"></text></g></g></svg>