<svg xmlns="http://www.w3.org/2000/svg" xmlns:xlink="http://www.w3.org/1999/xlink" width="800" height="345" style="background-color: white;"><g class="y axis" transform="translate(149,45)" fill="none" font-size="10" font-family="sans-serif" text-anchor="end" style="font-size: 13px;"><path class="domain" stroke="#000" d="M0,0.5H0.5V270.5H0"></path><g class="tick" opacity="1" transform="translate(0,16.318681318681314)" style="font-size: 13px;"><line stroke="#000" x2="0"></line><text fill="#000" x="-3" dy="0.32em">object (simple)    </text></g><g class="tick" opacity="1" transform="translate(0,45.989010989010985)" style="font-size: 13px;"><line stroke="#000" x2="0"></line><text fill="#000" x="-3" dy="0.32em">object (hierarchical)    </text></g><g class="tick" opacity="1" transform="translate(0,75.65934065934066)" style="font-size: 13px;"><line stroke="#000" x2="0"></line><text fill="#000" x="-3" dy="0.32em">object (recursive)    </text></g><g class="tick" opacity="1" transform="translate(0,105.32967032967034)" style="font-size: 13px;"><line stroke="#000" x2="0"></line><text fill="#000" x="-3" dy="0.32em">object (union, explicit)    </text></g><g class="tick" opacity="1" transform="translate(0,135)" style="font-size: 13px;"><line stroke="#000" x2="0"></line><text fill="#000" x="-3" dy="0.32em">object (union, implicit)    </text></g><g class="tick" opacity="1" transform="translate(0,164.67032967032966)" style="font-size: 13px;"><line stroke="#000" x2="0"></line><text fill="#000" x="-3" dy="0.32em">array (recursive)    </text></g><g class="tick" opacity="1" transform="translate(0,194.34065934065936)" style="font-size: 13px;"><line stroke="#000" x2="0"></line><text fill="#000" x="-3" dy="0.32em">array (union, explicit)    </text></g><g class="tick" opacity="1" transform="translate(0,224.01098901098902)" style="font-size: 13px;"><line stroke="#000" x2="0"></line><text fill="#000" x="-3" dy="0.32em">array (union, implicit)    </text></g><g class="tick" opacity="1" transform="translate(0,253.6813186813187)" style="font-size: 13px;"><line stroke="#000" x2="0"></line><text fill="#000" x="-3" dy="0.32em">ultimate union    </text></g></g><g class="x axis" transform="translate(149,315)" fill="none" font-size="10" font-family="sans-serif" text-anchor="middle" style="font-size: 13px;"><path class="domain" stroke="#000" d="M0.5,0V0.5H485.5V0"></path><g class="tick" opacity="1" transform="translate(0.5,0)" style="font-size: 13px;"><line stroke="#000" y2="6"></line><text fill="#000" y="9" dy="0.71em">0x</text></g><g class="tick" opacity="1" transform="translate(70.91799394767729,0)" style="font-size: 13px;"><line stroke="#000" y2="6"></line><text fill="#000" y="9" dy="0.71em">5x</text></g><g class="tick" opacity="1" transform="translate(141.33598789535458,0)" style="font-size: 13px;"><line stroke="#000" y2="6"></line><text fill="#000" y="9" dy="0.71em">10x</text></g><g class="tick" opacity="1" transform="translate(211.75398184303188,0)" style="font-size: 13px;"><line stroke="#000" y2="6"></line><text fill="#000" y="9" dy="0.71em">15x</text></g><g class="tick" opacity="1" transform="translate(282.17197579070915,0)" style="font-size: 13px;"><line stroke="#000" y2="6"></line><text fill="#000" y="9" dy="0.71em">20x</text></g><g class="tick" opacity="1" transform="translate(352.58996973838646,0)" style="font-size: 13px;"><line stroke="#000" y2="6"></line><text fill="#000" y="9" dy="0.71em">25x</text></g><g class="tick" opacity="1" transform="translate(423.00796368606376,0)" style="font-size: 13px;"><line stroke="#000" y2="6"></line><text fill="#000" y="9" dy="0.71em">30x</text></g></g><text transform="translate(400, 30)" style="text-anchor: middle; font-size: 20px; font-weight: bold;">validateEquals benchmark</text><rect x="680" y="85" width="200" height="5" fill="gray"></rect><rect x="675" y="35" width="200" height="50" fill="none" stroke="black"></rect><rect x="685" y="45" width="10" height="10" style="fill: #4472c4;"></rect><text x="700" y="55" style="font-size: 12px;">typescript-json</text><rect x="685" y="65" width="10" height="10" style="fill: #ed7d31;"></rect><text x="700" y="75" style="font-size: 12px;">typebox</text><g style="font-size: 13px;"><g style="font-size: 13px;"><rect x="150" y="48.618332886625566" width="109.64712598035213" height="12.37469847225945" fill="#4472c4"></rect><rect x="150" y="61.644331278477615" width="14.083598789535458" height="12.37469847225945" fill="#ed7d31"></rect><text class="label" x="268.14712598035214" y="57.118332886625566" font-size="10px">7.79x</text><text class="label" x="172.58359878953547" y="70.14433127847761" font-size="10px">1x</text><text class="label" x="264.64712598035214" y="58.618332886625566" font-size="8px"></text><text class="label" x="169.08359878953547" y="71.64433127847761" font-size="8px"></text></g><g style="font-size: 13px;"><rect x="150" y="78.28866255695525" width="132.92945400207634" height="12.37469847225945" fill="#4472c4"></rect><rect x="150" y="91.31466094880729" width="14.083598789535458" height="12.37469847225945" fill="#ed7d31"></rect><text class="label" x="291.42945400207634" y="86.78866255695525" font-size="10px">9.44x</text><text class="label" x="172.58359878953547" y="99.81466094880729" font-size="10px">1x</text><text class="label" x="287.92945400207634" y="88.28866255695525" font-size="8px"></text><text class="label" x="169.08359878953547" y="101.31466094880729" font-size="8px"></text></g><g style="font-size: 13px;"><rect x="150" y="107.95899222728491" width="243.37578386900458" height="12.37469847225945" fill="#4472c4"></rect><rect x="150" y="120.98499061913697" width="14.083598789535458" height="12.37469847225945" fill="#ed7d31"></rect><text class="label" x="401.8757838690046" y="116.45899222728491" font-size="10px">17.28x</text><text class="label" x="172.58359878953547" y="129.48499061913697" font-size="10px">1x</text><text class="label" x="398.3757838690046" y="117.95899222728491" font-size="8px"></text><text class="label" x="169.08359878953547" y="130.98499061913697" font-size="8px"></text></g><g style="font-size: 13px;"><rect x="150" y="137.6293218976146" width="217.09862868790432" height="12.37469847225945" fill="#4472c4"></rect><rect x="150" y="150.65532028946666" width="14.083598789535458" height="12.37469847225945" fill="#ed7d31"></rect><text class="label" x="375.59862868790435" y="146.1293218976146" font-size="10px">15.41x</text><text class="label" x="172.58359878953547" y="159.15532028946666" font-size="10px">1x</text><text class="label" x="372.09862868790435" y="147.6293218976146" font-size="8px"></text><text class="label" x="169.08359878953547" y="160.65532028946666" font-size="8px"></text></g><g style="font-size: 13px;"><rect x="150" y="167.29965156794424" width="229.33569101676355" height="12.37469847225945" fill="#4472c4"></rect><rect x="150" y="180.3256499597963" width="14.083598789535458" height="12.37469847225945" fill="#ed7d31"></rect><text class="label" x="387.8356910167636" y="175.79965156794424" font-size="10px">16.28x</text><text class="label" x="172.58359878953547" y="188.8256499597963" font-size="10px">1x</text><text class="label" x="384.3356910167636" y="177.29965156794424" font-size="8px"></text><text class="label" x="169.08359878953547" y="190.3256499597963" font-size="8px"></text></g><g style="font-size: 13px;"><rect x="150" y="196.9699812382739" width="175.54902746149173" height="12.37469847225945" fill="#4472c4"></rect><rect x="150" y="209.99597963012596" width="14.083598789535458" height="12.37469847225945" fill="#ed7d31"></rect><text class="label" x="334.04902746149173" y="205.4699812382739" font-size="10px">12.46x</text><text class="label" x="172.58359878953547" y="218.49597963012596" font-size="10px">1x</text><text class="label" x="330.54902746149173" y="206.9699812382739" font-size="8px"></text><text class="label" x="169.08359878953547" y="219.99597963012596" font-size="8px"></text></g><g style="font-size: 13px;"><rect x="150" y="226.6403109086036" width="300.6421626449259" height="12.37469847225945" fill="#4472c4"></rect><rect x="150" y="239.66630930045565" width="14.083598789535458" height="12.37469847225945" fill="#ed7d31"></rect><text class="label" x="459.1421626449259" y="235.1403109086036" font-size="10px">21.35x</text><text class="label" x="172.58359878953547" y="248.16630930045565" font-size="10px">1x</text><text class="label" x="455.6421626449259" y="236.6403109086036" font-size="8px"></text><text class="label" x="169.08359878953547" y="249.66630930045565" font-size="8px"></text></g><g style="font-size: 13px;"><rect x="150" y="256.31064057893326" width="440.9090909090909" height="12.37469847225945" fill="#4472c4"></rect><rect x="150" y="269.3366389707853" width="14.083598789535458" height="12.37469847225945" fill="#ed7d31"></rect><text class="label" x="599.4090909090909" y="264.81064057893326" font-size="10px">31.31x</text><text class="label" x="172.58359878953547" y="277.8366389707853" font-size="10px">1x</text><text class="label" x="595.9090909090909" y="266.31064057893326" font-size="8px"></text><text class="label" x="169.08359878953547" y="279.3366389707853" font-size="8px"></text></g><g style="font-size: 13px;"><rect x="150" y="285.9809702492629" width="485" height="12.37469847225945" fill="#4472c4"></rect><rect x="150" y="299.006968641115" width="0" height="12.37469847225945" fill="#ed7d31"></rect><text class="label" x="643.5" y="294.4809702492629" font-size="10px">Infinity</text><text class="label" x="158.5" y="307.506968641115" font-size="10px"></text><text class="label" x="640" y="295.9809702492629" font-size="8px"></text><text class="label" x="155" y="309.006968641115" font-size="8px">Failed</text></g></g></svg>