<svg xmlns="http://www.w3.org/2000/svg" xmlns:xlink="http://www.w3.org/1999/xlink" width="800" height="1004" style="background-color: white;"><g class="y axis" transform="translate(149,45)" fill="none" font-size="10" font-family="sans-serif" text-anchor="end" style="font-size: 13px;"><path class="domain" stroke="currentColor" d="M0.5,0.5V810.5"></path><g class="tick" opacity="1" transform="translate(0,48.95604395604397)" style="font-size: 13px;"><line stroke="currentColor" x2="0"></line><text fill="currentColor" x="-3" dy="0.32em">object (simple)    </text></g><g class="tick" opacity="1" transform="translate(0,137.967032967033)" style="font-size: 13px;"><line stroke="currentColor" x2="0"></line><text fill="currentColor" x="-3" dy="0.32em">object (hierarchical)    </text></g><g class="tick" opacity="1" transform="translate(0,226.97802197802199)" style="font-size: 13px;"><line stroke="currentColor" x2="0"></line><text fill="currentColor" x="-3" dy="0.32em">object (recursive)    </text></g><g class="tick" opacity="1" transform="translate(0,315.989010989011)" style="font-size: 13px;"><line stroke="currentColor" x2="0"></line><text fill="currentColor" x="-3" dy="0.32em">object (union, explicit)    </text></g><g class="tick" opacity="1" transform="translate(0,405)" style="font-size: 13px;"><line stroke="currentColor" x2="0"></line><text fill="currentColor" x="-3" dy="0.32em">object (union, implicit)    </text></g><g class="tick" opacity="1" transform="translate(0,494.010989010989)" style="font-size: 13px;"><line stroke="currentColor" x2="0"></line><text fill="currentColor" x="-3" dy="0.32em">array (recursive)    </text></g><g class="tick" opacity="1" transform="translate(0,583.021978021978)" style="font-size: 13px;"><line stroke="currentColor" x2="0"></line><text fill="currentColor" x="-3" dy="0.32em">array (union, explicit)    </text></g><g class="tick" opacity="1" transform="translate(0,672.0329670329671)" style="font-size: 13px;"><line stroke="currentColor" x2="0"></line><text fill="currentColor" x="-3" dy="0.32em">array (union, implicit)    </text></g><g class="tick" opacity="1" transform="translate(0,761.043956043956)" style="font-size: 13px;"><line stroke="currentColor" x2="0"></line><text fill="currentColor" x="-3" dy="0.32em">ultimate union    </text></g></g><g class="x axis" transform="translate(149,855)" fill="none" font-size="10" font-family="sans-serif" text-anchor="middle" style="font-size: 13px;"><path class="domain" stroke="currentColor" d="M0.5,0.5H485.5"></path><g class="tick" opacity="1" transform="translate(0.5,0)" style="font-size: 13px;"><line stroke="currentColor" y2="6"></line><text fill="currentColor" y="9" dy="0.71em">0x</text></g><g class="tick" opacity="1" transform="translate(112.46296732053872,0)" style="font-size: 13px;"><line stroke="currentColor" y2="6"></line><text fill="currentColor" y="9" dy="0.71em">10,000x</text></g><g class="tick" opacity="1" transform="translate(224.42593464107745,0)" style="font-size: 13px;"><line stroke="currentColor" y2="6"></line><text fill="currentColor" y="9" dy="0.71em">20,000x</text></g><g class="tick" opacity="1" transform="translate(336.3889019616162,0)" style="font-size: 13px;"><line stroke="currentColor" y2="6"></line><text fill="currentColor" y="9" dy="0.71em">30,000x</text></g><g class="tick" opacity="1" transform="translate(448.3518692821549,0)" style="font-size: 13px;"><line stroke="currentColor" y2="6"></line><text fill="currentColor" y="9" dy="0.71em">40,000x</text></g></g><text transform="translate(400, 30)" style="text-anchor: middle; font-size: 20px; font-weight: bold;">is benchmark</text><rect x="650" y="165" width="230" height="5" fill="gray"></rect><rect x="645" y="35" width="230" height="130" fill="none" stroke="black"></rect><rect x="655" y="45" width="10" height="10" style="fill: #4472c4;"></rect><text x="670" y="55" style="font-size: 12px;">typia</text><rect x="655" y="65" width="10" height="10" style="fill: #ed7d31;"></rect><text x="670" y="75" style="font-size: 12px;">typebox</text><rect x="655" y="85" width="10" height="10" style="fill: #a5a5a5;"></rect><text x="670" y="95" style="font-size: 12px;">ajv</text><rect x="655" y="105" width="10" height="10" style="fill: #ffc000;"></rect><text x="670" y="115" style="font-size: 12px;">io-ts</text><rect x="655" y="125" width="10" height="10" style="fill: #5b9bd5;"></rect><text x="670" y="135" style="font-size: 12px;">zod</text><rect x="655" y="145" width="10" height="10" style="fill: #70ad47;"></rect><text x="670" y="155" style="font-size: 12px;">class-validator</text><text x="20" y="919" style="font-size: 12px;">  - CPU: Intel(R) Xeon(R) Platinum 8272CL CPU @ 2.60GHz</text><text x="20" y="936" style="font-size: 12px;">  - OS: linux</text><text x="20" y="953" style="font-size: 12px;">  - RAM: 4 GB</text><text x="20" y="970" style="font-size: 12px;">  - NodeJS version: v19.9.0</text><text x="20" y="987" style="font-size: 12px;">  - Typia version: v3.8.6</text><g style="font-size: 13px;"><g style="font-size: 13px;"><rect x="150" y="54.563164108618665" width="440.9090909090909" height="12.579238942875305" fill="#4472c4"></rect><rect x="150" y="67.80446825901373" width="437.7080305411108" height="12.579238942875305" fill="#ed7d31"></rect><rect x="150" y="81.04577240940878" width="9.504939726071312" height="12.579238942875305" fill="#a5a5a5"></rect><rect x="150" y="94.28707655980384" width="1.1712696526265092" height="12.579238942875305" fill="#ffc000"></rect><rect x="150" y="107.5283807101989" width="0.17059506212502348" height="12.579238942875305" fill="#5b9bd5"></rect><rect x="150" y="120.76968486059396" width="0.011196296732053874" height="12.579238942875305" fill="#70ad47"></rect><text class="label" x="599.4090909090909" y="63.063164108618665" font-size="10px">39,380x</text><text class="label" x="596.2080305411108" y="76.30446825901373" font-size="10px">39,094x</text><text class="label" x="168.0049397260713" y="89.54577240940878" font-size="10px">849x</text><text class="label" x="159.6712696526265" y="102.78707655980384" font-size="10px">105x</text><text class="label" x="158.67059506212502" y="116.0283807101989" font-size="10px">15x</text><text class="label" x="158.51119629673207" y="129.26968486059394" font-size="10px">1x</text><text class="label" x="595.9090909090909" y="64.56316410861866" font-size="8px"></text><text class="label" x="592.7080305411108" y="77.80446825901373" font-size="8px"></text><text class="label" x="164.5049397260713" y="91.04577240940878" font-size="8px"></text><text class="label" x="156.1712696526265" y="104.28707655980384" font-size="8px"></text><text class="label" x="155.17059506212502" y="117.5283807101989" font-size="8px"></text><text class="label" x="155.01119629673207" y="130.76968486059394" font-size="8px"></text></g><g style="font-size: 13px;"><rect x="150" y="143.57415311960767" width="33.08382316096534" height="12.579238942875305" fill="#4472c4"></rect><rect x="150" y="156.81545727000272" width="19.713665747922516" height="12.579238942875305" fill="#ed7d31"></rect><rect x="150" y="170.05676142039778" width="4.144202017934394" height="12.579238942875305" fill="#a5a5a5"></rect><rect x="150" y="183.29806557079286" width="0.6662613600951325" height="12.579238942875305" fill="#ffc000"></rect><rect x="150" y="196.5393697211879" width="0.0433256148044258" height="12.579238942875305" fill="#5b9bd5"></rect><rect x="150" y="209.78067387158296" width="0.011196296732053874" height="12.579238942875305" fill="#70ad47"></rect><text class="label" x="191.58382316096532" y="152.07415311960767" font-size="10px">2,955x</text><text class="label" x="178.2136657479225" y="165.31545727000272" font-size="10px">1,761x</text><text class="label" x="162.6442020179344" y="178.55676142039778" font-size="10px">370x</text><text class="label" x="159.16626136009512" y="191.79806557079286" font-size="10px">60x</text><text class="label" x="158.54332561480442" y="205.0393697211879" font-size="10px">4x</text><text class="label" x="158.51119629673207" y="218.28067387158296" font-size="10px">1x</text><text class="label" x="188.08382316096532" y="153.57415311960767" font-size="8px"></text><text class="label" x="174.7136657479225" y="166.81545727000272" font-size="8px"></text><text class="label" x="159.1442020179344" y="180.05676142039778" font-size="8px"></text><text class="label" x="155.66626136009512" y="193.29806557079286" font-size="8px"></text><text class="label" x="155.04332561480442" y="206.5393697211879" font-size="8px"></text><text class="label" x="155.01119629673207" y="219.78067387158296" font-size="8px"></text></g><g style="font-size: 13px;"><rect x="150" y="232.5851421305967" width="14.115468775665185" height="12.579238942875305" fill="#4472c4"></rect><rect x="150" y="245.82644628099175" width="12.15861291625874" height="12.579238942875305" fill="#ed7d31"></rect><rect x="150" y="259.0677504313868" width="4.6435208490163555" height="12.579238942875305" fill="#a5a5a5"></rect><rect x="150" y="272.3090545817819" width="0.6294165240585821" height="12.579238942875305" fill="#ffc000"></rect><rect x="150" y="285.5503587321769" width="0.011232833796098627" height="12.579238942875305" fill="#5b9bd5"></rect><rect x="150" y="298.791662882572" width="0.011196296732053874" height="12.579238942875305" fill="#70ad47"></rect><text class="label" x="172.6154687756652" y="241.0851421305967" font-size="10px">1,261x</text><text class="label" x="170.65861291625873" y="254.32644628099175" font-size="10px">1,086x</text><text class="label" x="163.14352084901637" y="267.5677504313868" font-size="10px">415x</text><text class="label" x="159.12941652405857" y="280.8090545817819" font-size="10px">56x</text><text class="label" x="158.5112328337961" y="294.0503587321769" font-size="10px">1x</text><text class="label" x="158.51119629673207" y="307.291662882572" font-size="10px">1x</text><text class="label" x="169.1154687756652" y="242.5851421305967" font-size="8px"></text><text class="label" x="167.15861291625873" y="255.82644628099175" font-size="8px"></text><text class="label" x="159.64352084901637" y="269.0677504313868" font-size="8px"></text><text class="label" x="155.62941652405857" y="282.3090545817819" font-size="8px"></text><text class="label" x="155.0112328337961" y="295.5503587321769" font-size="8px"></text><text class="label" x="155.01119629673207" y="308.791662882572" font-size="8px"></text></g><g style="font-size: 13px;"><rect x="150" y="321.59613114158566" width="4.480858865006466" height="12.579238942875305" fill="#4472c4"></rect><rect x="150" y="334.83743529198074" width="4.119332401313545" height="12.579238942875305" fill="#ed7d31"></rect><rect x="150" y="348.07873944237576" width="1.711175891159874" height="12.579238942875305" fill="#a5a5a5"></rect><rect x="150" y="361.32004359277084" width="0.8913966116839416" height="12.579238942875305" fill="#ffc000"></rect><rect x="150" y="374.5613477431659" width="0.011196296732053874" height="12.579238942875305" fill="#5b9bd5"></rect><rect x="150" y="387.80265189356095" width="0" height="12.579238942875305" fill="#70ad47"></rect><text class="label" x="162.98085886500647" y="330.09613114158566" font-size="10px">400x</text><text class="label" x="162.61933240131356" y="343.33743529198074" font-size="10px">368x</text><text class="label" x="160.21117589115988" y="356.57873944237576" font-size="10px">153x</text><text class="label" x="159.39139661168394" y="369.82004359277084" font-size="10px">80x</text><text class="label" x="158.51119629673207" y="383.0613477431659" font-size="10px">1x</text><text class="label" x="158.5" y="396.30265189356095" font-size="10px"></text><text class="label" x="159.48085886500647" y="331.59613114158566" font-size="8px"></text><text class="label" x="159.11933240131356" y="344.83743529198074" font-size="8px"></text><text class="label" x="156.71117589115988" y="358.07873944237576" font-size="8px"></text><text class="label" x="155.89139661168394" y="371.32004359277084" font-size="8px"></text><text class="label" x="155.01119629673207" y="384.5613477431659" font-size="8px"></text><text class="label" x="155" y="397.80265189356095" font-size="8px">Failed</text></g><g style="font-size: 13px;"><rect x="150" y="410.6071201525747" width="485" height="12.579238942875305" fill="#4472c4"></rect><rect x="150" y="423.84842430296976" width="0" height="12.579238942875305" fill="#ed7d31"></rect><rect x="150" y="437.08972845336484" width="0" height="12.579238942875305" fill="#a5a5a5"></rect><rect x="150" y="450.33103260375987" width="0" height="12.579238942875305" fill="#ffc000"></rect><rect x="150" y="463.57233675415495" width="0" height="12.579238942875305" fill="#5b9bd5"></rect><rect x="150" y="476.81364090454997" width="0" height="12.579238942875305" fill="#70ad47"></rect><text class="label" x="643.5" y="419.1071201525747" font-size="10px">Infinity</text><text class="label" x="158.5" y="432.34842430296976" font-size="10px"></text><text class="label" x="158.5" y="445.58972845336484" font-size="10px"></text><text class="label" x="158.5" y="458.83103260375987" font-size="10px"></text><text class="label" x="158.5" y="472.07233675415495" font-size="10px"></text><text class="label" x="158.5" y="485.31364090454997" font-size="10px"></text><text class="label" x="640" y="420.6071201525747" font-size="8px"></text><text class="label" x="155" y="433.84842430296976" font-size="8px">Failed</text><text class="label" x="155" y="447.08972845336484" font-size="8px">Failed</text><text class="label" x="155" y="460.33103260375987" font-size="8px">Failed</text><text class="label" x="155" y="473.57233675415495" font-size="8px">Failed</text><text class="label" x="155" y="486.81364090454997" font-size="8px">Failed</text></g><g style="font-size: 13px;"><rect x="150" y="499.6181091635637" width="6.091835707477596" height="12.579238942875305" fill="#4472c4"></rect><rect x="150" y="512.8594133139588" width="6.806236229119316" height="12.579238942875305" fill="#ed7d31"></rect><rect x="150" y="526.1007174643538" width="2.2969756529917222" height="12.579238942875305" fill="#a5a5a5"></rect><rect x="150" y="539.3420216147489" width="0.7899621734634414" height="12.579238942875305" fill="#ffc000"></rect><rect x="150" y="552.583325765144" width="0.014533801528719255" height="12.579238942875305" fill="#5b9bd5"></rect><rect x="150" y="565.824629915539" width="0.011196296732053874" height="12.579238942875305" fill="#70ad47"></rect><text class="label" x="164.5918357074776" y="508.1181091635637" font-size="10px">544x</text><text class="label" x="165.30623622911932" y="521.3594133139588" font-size="10px">608x</text><text class="label" x="160.79697565299173" y="534.6007174643538" font-size="10px">205x</text><text class="label" x="159.28996217346344" y="547.8420216147489" font-size="10px">71x</text><text class="label" x="158.51453380152873" y="561.083325765144" font-size="10px">1x</text><text class="label" x="158.51119629673207" y="574.324629915539" font-size="10px">1x</text><text class="label" x="161.0918357074776" y="509.6181091635637" font-size="8px"></text><text class="label" x="161.80623622911932" y="522.8594133139588" font-size="8px"></text><text class="label" x="157.29697565299173" y="536.1007174643538" font-size="8px"></text><text class="label" x="155.78996217346344" y="549.3420216147489" font-size="8px"></text><text class="label" x="155.01453380152873" y="562.583325765144" font-size="8px"></text><text class="label" x="155.01119629673207" y="575.824629915539" font-size="8px"></text></g><g style="font-size: 13px;"><rect x="150" y="588.6290981745527" width="8.396642762267447" height="12.579238942875305" fill="#4472c4"></rect><rect x="150" y="601.8704023249478" width="6.292727407116716" height="12.579238942875305" fill="#ed7d31"></rect><rect x="150" y="615.1117064753429" width="2.5194669466053656" height="12.579238942875305" fill="#a5a5a5"></rect><rect x="150" y="628.353010625738" width="1.0197003398335531" height="12.579238942875305" fill="#ffc000"></rect><rect x="150" y="641.5943147761329" width="0.011196296732053874" height="12.579238942875305" fill="#5b9bd5"></rect><rect x="150" y="654.835618926528" width="0" height="12.579238942875305" fill="#70ad47"></rect><text class="label" x="166.89664276226745" y="597.1290981745527" font-size="10px">750x</text><text class="label" x="164.79272740711673" y="610.3704023249478" font-size="10px">562x</text><text class="label" x="161.01946694660538" y="623.6117064753429" font-size="10px">225x</text><text class="label" x="159.51970033983355" y="636.853010625738" font-size="10px">91x</text><text class="label" x="158.51119629673207" y="650.0943147761329" font-size="10px">1x</text><text class="label" x="158.5" y="663.335618926528" font-size="10px"></text><text class="label" x="163.39664276226745" y="598.6290981745527" font-size="8px"></text><text class="label" x="161.29272740711673" y="611.8704023249478" font-size="8px"></text><text class="label" x="157.51946694660538" y="625.1117064753429" font-size="8px"></text><text class="label" x="156.01970033983355" y="638.353010625738" font-size="8px"></text><text class="label" x="155.01119629673207" y="651.5943147761329" font-size="8px"></text><text class="label" x="155" y="664.835618926528" font-size="8px">Failed</text></g><g style="font-size: 13px;"><rect x="150" y="677.6400871855418" width="485" height="12.579238942875305" fill="#4472c4"></rect><rect x="150" y="690.8813913359369" width="0" height="12.579238942875305" fill="#ed7d31"></rect><rect x="150" y="704.122695486332" width="0" height="12.579238942875305" fill="#a5a5a5"></rect><rect x="150" y="717.363999636727" width="0" height="12.579238942875305" fill="#ffc000"></rect><rect x="150" y="730.605303787122" width="0" height="12.579238942875305" fill="#5b9bd5"></rect><rect x="150" y="743.8466079375171" width="0" height="12.579238942875305" fill="#70ad47"></rect><text class="label" x="643.5" y="686.1400871855418" font-size="10px">Infinity</text><text class="label" x="158.5" y="699.3813913359369" font-size="10px"></text><text class="label" x="158.5" y="712.622695486332" font-size="10px"></text><text class="label" x="158.5" y="725.863999636727" font-size="10px"></text><text class="label" x="158.5" y="739.105303787122" font-size="10px"></text><text class="label" x="158.5" y="752.3466079375171" font-size="10px"></text><text class="label" x="640" y="687.6400871855418" font-size="8px"></text><text class="label" x="155" y="700.8813913359369" font-size="8px">Failed</text><text class="label" x="155" y="714.122695486332" font-size="8px">Failed</text><text class="label" x="155" y="727.363999636727" font-size="8px">Failed</text><text class="label" x="155" y="740.605303787122" font-size="8px">Failed</text><text class="label" x="155" y="753.8466079375171" font-size="8px">Failed</text></g><g style="font-size: 13px;"><rect x="150" y="766.6510761965307" width="485" height="12.579238942875305" fill="#4472c4"></rect><rect x="150" y="779.8923803469257" width="0" height="12.579238942875305" fill="#ed7d31"></rect><rect x="150" y="793.1336844973208" width="0" height="12.579238942875305" fill="#a5a5a5"></rect><rect x="150" y="806.3749886477159" width="0" height="12.579238942875305" fill="#ffc000"></rect><rect x="150" y="819.6162927981109" width="0" height="12.579238942875305" fill="#5b9bd5"></rect><rect x="150" y="832.8575969485059" width="0" height="12.579238942875305" fill="#70ad47"></rect><text class="label" x="643.5" y="775.1510761965307" font-size="10px">Infinity</text><text class="label" x="158.5" y="788.3923803469257" font-size="10px"></text><text class="label" x="158.5" y="801.6336844973208" font-size="10px"></text><text class="label" x="158.5" y="814.8749886477159" font-size="10px"></text><text class="label" x="158.5" y="828.1162927981109" font-size="10px"></text><text class="label" x="158.5" y="841.3575969485059" font-size="10px"></text><text class="label" x="640" y="776.6510761965307" font-size="8px"></text><text class="label" x="155" y="789.8923803469257" font-size="8px">Failed</text><text class="label" x="155" y="803.1336844973208" font-size="8px">Failed</text><text class="label" x="155" y="816.3749886477159" font-size="8px">Failed</text><text class="label" x="155" y="829.6162927981109" font-size="8px">Failed</text><text class="label" x="155" y="842.8575969485059" font-size="8px">Failed</text></g></g></svg>