<svg xmlns="http://www.w3.org/2000/svg" xmlns:xlink="http://www.w3.org/1999/xlink" width="800" height="1004" style="background-color: white;"><g class="y axis" transform="translate(149,45)" fill="none" font-size="10" font-family="sans-serif" text-anchor="end" style="font-size: 13px;"><path class="domain" stroke="currentColor" d="M0.5,0.5V810.5"></path><g class="tick" opacity="1" transform="translate(0,48.95604395604397)" style="font-size: 13px;"><line stroke="currentColor" x2="0"></line><text fill="currentColor" x="-3" dy="0.32em">object (simple)    </text></g><g class="tick" opacity="1" transform="translate(0,137.967032967033)" style="font-size: 13px;"><line stroke="currentColor" x2="0"></line><text fill="currentColor" x="-3" dy="0.32em">object (hierarchical)    </text></g><g class="tick" opacity="1" transform="translate(0,226.97802197802199)" style="font-size: 13px;"><line stroke="currentColor" x2="0"></line><text fill="currentColor" x="-3" dy="0.32em">object (recursive)    </text></g><g class="tick" opacity="1" transform="translate(0,315.989010989011)" style="font-size: 13px;"><line stroke="currentColor" x2="0"></line><text fill="currentColor" x="-3" dy="0.32em">object (union, explicit)    </text></g><g class="tick" opacity="1" transform="translate(0,405)" style="font-size: 13px;"><line stroke="currentColor" x2="0"></line><text fill="currentColor" x="-3" dy="0.32em">object (union, implicit)    </text></g><g class="tick" opacity="1" transform="translate(0,494.010989010989)" style="font-size: 13px;"><line stroke="currentColor" x2="0"></line><text fill="currentColor" x="-3" dy="0.32em">array (recursive)    </text></g><g class="tick" opacity="1" transform="translate(0,583.021978021978)" style="font-size: 13px;"><line stroke="currentColor" x2="0"></line><text fill="currentColor" x="-3" dy="0.32em">array (union, explicit)    </text></g><g class="tick" opacity="1" transform="translate(0,672.0329670329671)" style="font-size: 13px;"><line stroke="currentColor" x2="0"></line><text fill="currentColor" x="-3" dy="0.32em">array (union, implicit)    </text></g><g class="tick" opacity="1" transform="translate(0,761.043956043956)" style="font-size: 13px;"><line stroke="currentColor" x2="0"></line><text fill="currentColor" x="-3" dy="0.32em">ultimate union    </text></g></g><g class="x axis" transform="translate(149,855)" fill="none" font-size="10" font-family="sans-serif" text-anchor="middle" style="font-size: 13px;"><path class="domain" stroke="currentColor" d="M0.5,0.5H485.5"></path><g class="tick" opacity="1" transform="translate(0.5,0)" style="font-size: 13px;"><line stroke="currentColor" y2="6"></line><text fill="currentColor" y="9" dy="0.71em">0x</text></g><g class="tick" opacity="1" transform="translate(94.19653408624015,0)" style="font-size: 13px;"><line stroke="currentColor" y2="6"></line><text fill="currentColor" y="9" dy="0.71em">5,000x</text></g><g class="tick" opacity="1" transform="translate(187.8930681724803,0)" style="font-size: 13px;"><line stroke="currentColor" y2="6"></line><text fill="currentColor" y="9" dy="0.71em">10,000x</text></g><g class="tick" opacity="1" transform="translate(281.58960225872045,0)" style="font-size: 13px;"><line stroke="currentColor" y2="6"></line><text fill="currentColor" y="9" dy="0.71em">15,000x</text></g><g class="tick" opacity="1" transform="translate(375.2861363449606,0)" style="font-size: 13px;"><line stroke="currentColor" y2="6"></line><text fill="currentColor" y="9" dy="0.71em">20,000x</text></g><g class="tick" opacity="1" transform="translate(468.98267043120075,0)" style="font-size: 13px;"><line stroke="currentColor" y2="6"></line><text fill="currentColor" y="9" dy="0.71em">25,000x</text></g></g><text transform="translate(400, 30)" style="text-anchor: middle; font-size: 20px; font-weight: bold;">is benchmark</text><rect x="650" y="165" width="230" height="5" fill="gray"></rect><rect x="645" y="35" width="230" height="130" fill="none" stroke="black"></rect><rect x="655" y="45" width="10" height="10" style="fill: #4472c4;"></rect><text x="670" y="55" style="font-size: 12px;">typia</text><rect x="655" y="65" width="10" height="10" style="fill: #ed7d31;"></rect><text x="670" y="75" style="font-size: 12px;">typebox</text><rect x="655" y="85" width="10" height="10" style="fill: #a5a5a5;"></rect><text x="670" y="95" style="font-size: 12px;">ajv</text><rect x="655" y="105" width="10" height="10" style="fill: #ffc000;"></rect><text x="670" y="115" style="font-size: 12px;">io-ts</text><rect x="655" y="125" width="10" height="10" style="fill: #5b9bd5;"></rect><text x="670" y="135" style="font-size: 12px;">zod</text><rect x="655" y="145" width="10" height="10" style="fill: #70ad47;"></rect><text x="670" y="155" style="font-size: 12px;">class-validator</text><text x="20" y="919" style="font-size: 12px;">  - CPU: Intel(R) Xeon(R) Platinum 8272CL CPU @ 2.60GHz</text><text x="20" y="936" style="font-size: 12px;">  - OS: linux</text><text x="20" y="953" style="font-size: 12px;">  - RAM: 4 GB</text><text x="20" y="970" style="font-size: 12px;">  - NodeJS version: v19.9.0</text><text x="20" y="987" style="font-size: 12px;">  - Typia version: v3.8.6</text><g style="font-size: 13px;"><g style="font-size: 13px;"><rect x="150" y="54.563164108618665" width="440.9090909090909" height="12.579238942875305" fill="#4472c4"></rect><rect x="150" y="67.80446825901373" width="421.8558803828385" height="12.579238942875305" fill="#ed7d31"></rect><rect x="150" y="81.04577240940878" width="10.688405390975616" height="12.579238942875305" fill="#a5a5a5"></rect><rect x="150" y="94.28707655980384" width="1.2124128820389666" height="12.579238942875305" fill="#ffc000"></rect><rect x="150" y="107.5283807101989" width="0.14301376682571654" height="12.579238942875305" fill="#5b9bd5"></rect><rect x="150" y="120.76968486059396" width="0.018739306817248027" height="12.579238942875305" fill="#70ad47"></rect><text class="label" x="599.4090909090909" y="63.063164108618665" font-size="10px">23,529x</text><text class="label" x="580.3558803828384" y="76.30446825901373" font-size="10px">22,512x</text><text class="label" x="169.18840539097562" y="89.54577240940878" font-size="10px">570x</text><text class="label" x="159.71241288203896" y="102.78707655980384" font-size="10px">65x</text><text class="label" x="158.6430137668257" y="116.0283807101989" font-size="10px">8x</text><text class="label" x="158.51873930681725" y="129.26968486059394" font-size="10px">1x</text><text class="label" x="595.9090909090909" y="64.56316410861866" font-size="8px"></text><text class="label" x="576.8558803828384" y="77.80446825901373" font-size="8px"></text><text class="label" x="165.68840539097562" y="91.04577240940878" font-size="8px"></text><text class="label" x="156.21241288203896" y="104.28707655980384" font-size="8px"></text><text class="label" x="155.1430137668257" y="117.5283807101989" font-size="8px"></text><text class="label" x="155.01873930681725" y="130.76968486059394" font-size="8px"></text></g><g style="font-size: 13px;"><rect x="150" y="143.57415311960767" width="59.991426614284684" height="12.579238942875305" fill="#4472c4"></rect><rect x="150" y="156.81545727000272" width="36.054676170589104" height="12.579238942875305" fill="#ed7d31"></rect><rect x="150" y="170.05676142039778" width="7.361996086332894" height="12.579238942875305" fill="#a5a5a5"></rect><rect x="150" y="183.29806557079286" width="1.223999003479847" height="12.579238942875305" fill="#ffc000"></rect><rect x="150" y="196.5393697211879" width="0.08536735032392789" height="12.579238942875305" fill="#5b9bd5"></rect><rect x="150" y="209.78067387158296" width="0.018739306817248027" height="12.579238942875305" fill="#70ad47"></rect><text class="label" x="218.49142661428468" y="152.07415311960767" font-size="10px">3,201x</text><text class="label" x="194.55467617058912" y="165.31545727000272" font-size="10px">1,924x</text><text class="label" x="165.8619960863329" y="178.55676142039778" font-size="10px">393x</text><text class="label" x="159.72399900347986" y="191.79806557079286" font-size="10px">65x</text><text class="label" x="158.58536735032393" y="205.0393697211879" font-size="10px">5x</text><text class="label" x="158.51873930681725" y="218.28067387158296" font-size="10px">1x</text><text class="label" x="214.99142661428468" y="153.57415311960767" font-size="8px"></text><text class="label" x="191.05467617058912" y="166.81545727000272" font-size="8px"></text><text class="label" x="162.3619960863329" y="180.05676142039778" font-size="8px"></text><text class="label" x="156.22399900347986" y="193.29806557079286" font-size="8px"></text><text class="label" x="155.08536735032393" y="206.5393697211879" font-size="8px"></text><text class="label" x="155.01873930681725" y="219.78067387158296" font-size="8px"></text></g><g style="font-size: 13px;"><rect x="150" y="232.5851421305967" width="26.903499305094705" height="12.579238942875305" fill="#4472c4"></rect><rect x="150" y="245.82644628099175" width="21.916392349982058" height="12.579238942875305" fill="#ed7d31"></rect><rect x="150" y="259.0677504313868" width="8.335901897462927" height="12.579238942875305" fill="#a5a5a5"></rect><rect x="150" y="272.3090545817819" width="1.0963185798428547" height="12.579238942875305" fill="#ffc000"></rect><rect x="150" y="285.5503587321769" width="0.019310154247293366" height="12.579238942875305" fill="#5b9bd5"></rect><rect x="150" y="298.791662882572" width="0.018739306817248027" height="12.579238942875305" fill="#70ad47"></rect><text class="label" x="185.4034993050947" y="241.0851421305967" font-size="10px">1,436x</text><text class="label" x="180.41639234998206" y="254.32644628099175" font-size="10px">1,170x</text><text class="label" x="166.83590189746292" y="267.5677504313868" font-size="10px">445x</text><text class="label" x="159.59631857984286" y="280.8090545817819" font-size="10px">59x</text><text class="label" x="158.5193101542473" y="294.0503587321769" font-size="10px">1x</text><text class="label" x="158.51873930681725" y="307.291662882572" font-size="10px">1x</text><text class="label" x="181.9034993050947" y="242.5851421305967" font-size="8px"></text><text class="label" x="176.91639234998206" y="255.82644628099175" font-size="8px"></text><text class="label" x="163.33590189746292" y="269.0677504313868" font-size="8px"></text><text class="label" x="156.09631857984286" y="282.3090545817819" font-size="8px"></text><text class="label" x="155.0193101542473" y="295.5503587321769" font-size="8px"></text><text class="label" x="155.01873930681725" y="308.791662882572" font-size="8px"></text></g><g style="font-size: 13px;"><rect x="150" y="321.59613114158566" width="7.699945413064945" height="12.579238942875305" fill="#4472c4"></rect><rect x="150" y="334.83743529198074" width="6.410038692886624" height="12.579238942875305" fill="#ed7d31"></rect><rect x="150" y="348.07873944237576" width="2.780221530138266" height="12.579238942875305" fill="#a5a5a5"></rect><rect x="150" y="361.32004359277084" width="1.404688547931219" height="12.579238942875305" fill="#ffc000"></rect><rect x="150" y="374.5613477431659" width="0.018739306817248027" height="12.579238942875305" fill="#5b9bd5"></rect><rect x="150" y="387.80265189356095" width="0" height="12.579238942875305" fill="#70ad47"></rect><text class="label" x="166.19994541306494" y="330.09613114158566" font-size="10px">411x</text><text class="label" x="164.91003869288662" y="343.33743529198074" font-size="10px">342x</text><text class="label" x="161.28022153013828" y="356.57873944237576" font-size="10px">148x</text><text class="label" x="159.90468854793122" y="369.82004359277084" font-size="10px">75x</text><text class="label" x="158.51873930681725" y="383.0613477431659" font-size="10px">1x</text><text class="label" x="158.5" y="396.30265189356095" font-size="10px"></text><text class="label" x="162.69994541306494" y="331.59613114158566" font-size="8px"></text><text class="label" x="161.41003869288662" y="344.83743529198074" font-size="8px"></text><text class="label" x="157.78022153013828" y="358.07873944237576" font-size="8px"></text><text class="label" x="156.40468854793122" y="371.32004359277084" font-size="8px"></text><text class="label" x="155.01873930681725" y="384.5613477431659" font-size="8px"></text><text class="label" x="155" y="397.80265189356095" font-size="8px">Failed</text></g><g style="font-size: 13px;"><rect x="150" y="410.6071201525747" width="485" height="12.579238942875305" fill="#4472c4"></rect><rect x="150" y="423.84842430296976" width="0" height="12.579238942875305" fill="#ed7d31"></rect><rect x="150" y="437.08972845336484" width="0" height="12.579238942875305" fill="#a5a5a5"></rect><rect x="150" y="450.33103260375987" width="0" height="12.579238942875305" fill="#ffc000"></rect><rect x="150" y="463.57233675415495" width="0" height="12.579238942875305" fill="#5b9bd5"></rect><rect x="150" y="476.81364090454997" width="0" height="12.579238942875305" fill="#70ad47"></rect><text class="label" x="643.5" y="419.1071201525747" font-size="10px">Infinity</text><text class="label" x="158.5" y="432.34842430296976" font-size="10px"></text><text class="label" x="158.5" y="445.58972845336484" font-size="10px"></text><text class="label" x="158.5" y="458.83103260375987" font-size="10px"></text><text class="label" x="158.5" y="472.07233675415495" font-size="10px"></text><text class="label" x="158.5" y="485.31364090454997" font-size="10px"></text><text class="label" x="640" y="420.6071201525747" font-size="8px"></text><text class="label" x="155" y="433.84842430296976" font-size="8px">Failed</text><text class="label" x="155" y="447.08972845336484" font-size="8px">Failed</text><text class="label" x="155" y="460.33103260375987" font-size="8px">Failed</text><text class="label" x="155" y="473.57233675415495" font-size="8px">Failed</text><text class="label" x="155" y="486.81364090454997" font-size="8px">Failed</text></g><g style="font-size: 13px;"><rect x="150" y="499.6181091635637" width="6.941534821758221" height="12.579238942875305" fill="#4472c4"></rect><rect x="150" y="512.8594133139588" width="7.2765105653610185" height="12.579238942875305" fill="#ed7d31"></rect><rect x="150" y="526.1007174643538" width="2.91890236462854" height="12.579238942875305" fill="#a5a5a5"></rect><rect x="150" y="539.3420216147489" width="0.9667939202858402" height="12.579238942875305" fill="#ffc000"></rect><rect x="150" y="552.583325765144" width="0.018739306817248027" height="12.579238942875305" fill="#5b9bd5"></rect><rect x="150" y="565.824629915539" width="0" height="12.579238942875305" fill="#70ad47"></rect><text class="label" x="165.4415348217582" y="508.1181091635637" font-size="10px">370x</text><text class="label" x="165.776510565361" y="521.3594133139588" font-size="10px">388x</text><text class="label" x="161.41890236462854" y="534.6007174643538" font-size="10px">156x</text><text class="label" x="159.46679392028585" y="547.8420216147489" font-size="10px">52x</text><text class="label" x="158.51873930681725" y="561.083325765144" font-size="10px">1x</text><text class="label" x="158.5" y="574.324629915539" font-size="10px"></text><text class="label" x="161.9415348217582" y="509.6181091635637" font-size="8px"></text><text class="label" x="162.276510565361" y="522.8594133139588" font-size="8px"></text><text class="label" x="157.91890236462854" y="536.1007174643538" font-size="8px"></text><text class="label" x="155.96679392028585" y="549.3420216147489" font-size="8px"></text><text class="label" x="155.01873930681725" y="562.583325765144" font-size="8px"></text><text class="label" x="155" y="575.824629915539" font-size="8px">Failed</text></g><g style="font-size: 13px;"><rect x="150" y="588.6290981745527" width="13.16048314480108" height="12.579238942875305" fill="#4472c4"></rect><rect x="150" y="601.8704023249478" width="11.607301350698263" height="12.579238942875305" fill="#ed7d31"></rect><rect x="150" y="615.1117064753429" width="4.41903494688227" height="12.579238942875305" fill="#a5a5a5"></rect><rect x="150" y="628.353010625738" width="1.935078681944755" height="12.579238942875305" fill="#ffc000"></rect><rect x="150" y="641.5943147761329" width="0.018739306817248027" height="12.579238942875305" fill="#5b9bd5"></rect><rect x="150" y="654.835618926528" width="0" height="12.579238942875305" fill="#70ad47"></rect><text class="label" x="171.66048314480108" y="597.1290981745527" font-size="10px">702x</text><text class="label" x="170.10730135069826" y="610.3704023249478" font-size="10px">619x</text><text class="label" x="162.91903494688228" y="623.6117064753429" font-size="10px">236x</text><text class="label" x="160.43507868194476" y="636.853010625738" font-size="10px">103x</text><text class="label" x="158.51873930681725" y="650.0943147761329" font-size="10px">1x</text><text class="label" x="158.5" y="663.335618926528" font-size="10px"></text><text class="label" x="168.16048314480108" y="598.6290981745527" font-size="8px"></text><text class="label" x="166.60730135069826" y="611.8704023249478" font-size="8px"></text><text class="label" x="159.41903494688228" y="625.1117064753429" font-size="8px"></text><text class="label" x="156.93507868194476" y="638.353010625738" font-size="8px"></text><text class="label" x="155.01873930681725" y="651.5943147761329" font-size="8px"></text><text class="label" x="155" y="664.835618926528" font-size="8px">Failed</text></g><g style="font-size: 13px;"><rect x="150" y="677.6400871855418" width="485" height="12.579238942875305" fill="#4472c4"></rect><rect x="150" y="690.8813913359369" width="0" height="12.579238942875305" fill="#ed7d31"></rect><rect x="150" y="704.122695486332" width="0" height="12.579238942875305" fill="#a5a5a5"></rect><rect x="150" y="717.363999636727" width="0" height="12.579238942875305" fill="#ffc000"></rect><rect x="150" y="730.605303787122" width="0" height="12.579238942875305" fill="#5b9bd5"></rect><rect x="150" y="743.8466079375171" width="0" height="12.579238942875305" fill="#70ad47"></rect><text class="label" x="643.5" y="686.1400871855418" font-size="10px">Infinity</text><text class="label" x="158.5" y="699.3813913359369" font-size="10px"></text><text class="label" x="158.5" y="712.622695486332" font-size="10px"></text><text class="label" x="158.5" y="725.863999636727" font-size="10px"></text><text class="label" x="158.5" y="739.105303787122" font-size="10px"></text><text class="label" x="158.5" y="752.3466079375171" font-size="10px"></text><text class="label" x="640" y="687.6400871855418" font-size="8px"></text><text class="label" x="155" y="700.8813913359369" font-size="8px">Failed</text><text class="label" x="155" y="714.122695486332" font-size="8px">Failed</text><text class="label" x="155" y="727.363999636727" font-size="8px">Failed</text><text class="label" x="155" y="740.605303787122" font-size="8px">Failed</text><text class="label" x="155" y="753.8466079375171" font-size="8px">Failed</text></g><g style="font-size: 13px;"><rect x="150" y="766.6510761965307" width="485" height="12.579238942875305" fill="#4472c4"></rect><rect x="150" y="779.8923803469257" width="0" height="12.579238942875305" fill="#ed7d31"></rect><rect x="150" y="793.1336844973208" width="0" height="12.579238942875305" fill="#a5a5a5"></rect><rect x="150" y="806.3749886477159" width="0" height="12.579238942875305" fill="#ffc000"></rect><rect x="150" y="819.6162927981109" width="0" height="12.579238942875305" fill="#5b9bd5"></rect><rect x="150" y="832.8575969485059" width="0" height="12.579238942875305" fill="#70ad47"></rect><text class="label" x="643.5" y="775.1510761965307" font-size="10px">Infinity</text><text class="label" x="158.5" y="788.3923803469257" font-size="10px"></text><text class="label" x="158.5" y="801.6336844973208" font-size="10px"></text><text class="label" x="158.5" y="814.8749886477159" font-size="10px"></text><text class="label" x="158.5" y="828.1162927981109" font-size="10px"></text><text class="label" x="158.5" y="841.3575969485059" font-size="10px"></text><text class="label" x="640" y="776.6510761965307" font-size="8px"></text><text class="label" x="155" y="789.8923803469257" font-size="8px">Failed</text><text class="label" x="155" y="803.1336844973208" font-size="8px">Failed</text><text class="label" x="155" y="816.3749886477159" font-size="8px">Failed</text><text class="label" x="155" y="829.6162927981109" font-size="8px">Failed</text><text class="label" x="155" y="842.8575969485059" font-size="8px">Failed</text></g></g></svg>