<svg xmlns="http://www.w3.org/2000/svg" xmlns:xlink="http://www.w3.org/1999/xlink" width="800" height="674" style="background-color: white;"><g class="y axis" transform="translate(149,45)" fill="none" font-size="10" font-family="sans-serif" text-anchor="end" style="font-size: 13px;"><path class="domain" stroke="currentColor" d="M0.5,0.5V480.5"></path><g class="tick" opacity="1" transform="translate(0,32.592592592592595)" style="font-size: 13px;"><line stroke="currentColor" x2="0"></line><text fill="currentColor" x="-3" dy="0.32em">object (simple)    </text></g><g class="tick" opacity="1" transform="translate(0,91.85185185185186)" style="font-size: 13px;"><line stroke="currentColor" x2="0"></line><text fill="currentColor" x="-3" dy="0.32em">object (hierarchical)    </text></g><g class="tick" opacity="1" transform="translate(0,151.11111111111111)" style="font-size: 13px;"><line stroke="currentColor" x2="0"></line><text fill="currentColor" x="-3" dy="0.32em">object (recursive)    </text></g><g class="tick" opacity="1" transform="translate(0,210.37037037037035)" style="font-size: 13px;"><line stroke="currentColor" x2="0"></line><text fill="currentColor" x="-3" dy="0.32em">object (union, explicit)    </text></g><g class="tick" opacity="1" transform="translate(0,269.6296296296296)" style="font-size: 13px;"><line stroke="currentColor" x2="0"></line><text fill="currentColor" x="-3" dy="0.32em">array (simple)    </text></g><g class="tick" opacity="1" transform="translate(0,328.8888888888889)" style="font-size: 13px;"><line stroke="currentColor" x2="0"></line><text fill="currentColor" x="-3" dy="0.32em">array (hierarchical)    </text></g><g class="tick" opacity="1" transform="translate(0,388.14814814814815)" style="font-size: 13px;"><line stroke="currentColor" x2="0"></line><text fill="currentColor" x="-3" dy="0.32em">array (recursive)    </text></g><g class="tick" opacity="1" transform="translate(0,447.40740740740745)" style="font-size: 13px;"><line stroke="currentColor" x2="0"></line><text fill="currentColor" x="-3" dy="0.32em">array (union, explicit)    </text></g></g><g class="x axis" transform="translate(149,525)" fill="none" font-size="10" font-family="sans-serif" text-anchor="middle" style="font-size: 13px;"><path class="domain" stroke="currentColor" d="M0.5,0.5H485.5"></path><g class="tick" opacity="1" transform="translate(0.5,0)" style="font-size: 13px;"><line stroke="currentColor" y2="6"></line><text fill="currentColor" y="9" dy="0.71em">0x</text></g><g class="tick" opacity="1" transform="translate(126.45397327527365,0)" style="font-size: 13px;"><line stroke="currentColor" y2="6"></line><text fill="currentColor" y="9" dy="0.71em">500,000x</text></g><g class="tick" opacity="1" transform="translate(252.4079465505473,0)" style="font-size: 13px;"><line stroke="currentColor" y2="6"></line><text fill="currentColor" y="9" dy="0.71em">1,000,000x</text></g><g class="tick" opacity="1" transform="translate(378.36191982582096,0)" style="font-size: 13px;"><line stroke="currentColor" y2="6"></line><text fill="currentColor" y="9" dy="0.71em">1,500,000x</text></g></g><text transform="translate(400, 30)" style="text-anchor: middle; font-size: 20px; font-weight: bold;">optimizer benchmark</text><rect x="650" y="125" width="230" height="5" fill="gray"></rect><rect x="645" y="35" width="230" height="90" fill="none" stroke="black"></rect><rect x="655" y="45" width="10" height="10" style="fill: #4472c4;"></rect><text x="670" y="55" style="font-size: 12px;">typia</text><rect x="655" y="65" width="10" height="10" style="fill: #ed7d31;"></rect><text x="670" y="75" style="font-size: 12px;">typebox</text><rect x="655" y="85" width="10" height="10" style="fill: #a5a5a5;"></rect><text x="670" y="95" style="font-size: 12px;">ajv</text><rect x="655" y="105" width="10" height="10" style="fill: #ffc000;"></rect><text x="670" y="115" style="font-size: 12px;">class-validator</text><text x="20" y="589" style="font-size: 12px;">  - CPU: Intel(R) Xeon(R) Platinum 8272CL CPU @ 2.60GHz</text><text x="20" y="606" style="font-size: 12px;">  - OS: linux</text><text x="20" y="623" style="font-size: 12px;">  - RAM: 4 GB</text><text x="20" y="640" style="font-size: 12px;">  - NodeJS version: v19.9.0</text><text x="20" y="657" style="font-size: 12px;">  - Typia version: v3.8.6</text><g style="font-size: 13px;"><g style="font-size: 13px;"><rect x="150" y="51.584362139917694" width="440.9090909090909" height="12.510288065843621" fill="#4472c4"></rect><rect x="150" y="64.75308641975309" width="0.017034187760836508" height="12.510288065843621" fill="#ed7d31"></rect><rect x="150" y="77.92181069958848" width="0.0002519079465505473" height="12.510288065843621" fill="#a5a5a5"></rect><rect x="150" y="91.09053497942386" width="0.014582669964298198" height="12.510288065843621" fill="#ffc000"></rect><text class="label" x="599.4090909090909" y="60.084362139917694" font-size="10px">1,750,279x</text><text class="label" x="158.51703418776083" y="73.25308641975309" font-size="10px">68x</text><text class="label" x="158.50025190794656" y="86.42181069958848" font-size="10px">1x</text><text class="label" x="158.5145826699643" y="99.59053497942386" font-size="10px">58x</text><text class="label" x="595.9090909090909" y="61.584362139917694" font-size="8px"></text><text class="label" x="155.01703418776083" y="74.75308641975309" font-size="8px"></text><text class="label" x="155.00025190794656" y="87.92181069958848" font-size="8px"></text><text class="label" x="155.0145826699643" y="101.09053497942386" font-size="8px"></text></g><g style="font-size: 13px;"><rect x="150" y="110.84362139917695" width="12.501861646112566" height="12.510288065843621" fill="#4472c4"></rect><rect x="150" y="124.01234567901236" width="0.0067032162749479365" height="12.510288065843621" fill="#ed7d31"></rect><rect x="150" y="137.18106995884773" width="0.0002519079465505473" height="12.510288065843621" fill="#a5a5a5"></rect><rect x="150" y="150.34979423868313" width="0.005919745667700856" height="12.510288065843621" fill="#ffc000"></rect><text class="label" x="171.00186164611256" y="119.34362139917695" font-size="10px">49,629x</text><text class="label" x="158.50670321627496" y="132.51234567901236" font-size="10px">27x</text><text class="label" x="158.50025190794656" y="145.68106995884773" font-size="10px">1x</text><text class="label" x="158.5059197456677" y="158.84979423868313" font-size="10px">23x</text><text class="label" x="167.50186164611256" y="120.84362139917695" font-size="8px"></text><text class="label" x="155.00670321627496" y="134.01234567901236" font-size="8px"></text><text class="label" x="155.00025190794656" y="147.18106995884773" font-size="8px"></text><text class="label" x="155.0059197456677" y="160.34979423868313" font-size="8px"></text></g><g style="font-size: 13px;"><rect x="150" y="170.10288065843622" width="3.3337073491454645" height="12.510288065843621" fill="#4472c4"></rect><rect x="150" y="183.2716049382716" width="0.01292533680671557" height="12.510288065843621" fill="#ed7d31"></rect><rect x="150" y="196.440329218107" width="0.0002519079465505473" height="12.510288065843621" fill="#a5a5a5"></rect><rect x="150" y="209.6090534979424" width="0.0023989228335811897" height="12.510288065843621" fill="#ffc000"></rect><text class="label" x="161.83370734914547" y="178.60288065843622" font-size="10px">13,234x</text><text class="label" x="158.51292533680672" y="191.7716049382716" font-size="10px">51x</text><text class="label" x="158.50025190794656" y="204.940329218107" font-size="10px">1x</text><text class="label" x="158.50239892283358" y="218.1090534979424" font-size="10px">10x</text><text class="label" x="158.33370734914547" y="180.10288065843622" font-size="8px"></text><text class="label" x="155.01292533680672" y="193.2716049382716" font-size="8px"></text><text class="label" x="155.00025190794656" y="206.440329218107" font-size="8px"></text><text class="label" x="155.00239892283358" y="219.6090534979424" font-size="8px"></text></g><g style="font-size: 13px;"><rect x="150" y="229.36213991769546" width="0.9145705592386845" height="12.510288065843621" fill="#4472c4"></rect><rect x="150" y="242.53086419753086" width="0.006677215324962058" height="12.510288065843621" fill="#ed7d31"></rect><rect x="150" y="255.69958847736626" width="0.0002519079465505473" height="12.510288065843621" fill="#a5a5a5"></rect><rect x="150" y="268.86831275720164" width="0.0061905925414529744" height="12.510288065843621" fill="#ffc000"></rect><text class="label" x="159.41457055923868" y="237.86213991769546" font-size="10px">3,631x</text><text class="label" x="158.50667721532497" y="251.03086419753086" font-size="10px">27x</text><text class="label" x="158.50025190794656" y="264.19958847736626" font-size="10px">1x</text><text class="label" x="158.50619059254146" y="277.36831275720164" font-size="10px">25x</text><text class="label" x="155.91457055923868" y="239.36213991769546" font-size="8px"></text><text class="label" x="155.00667721532497" y="252.53086419753086" font-size="8px"></text><text class="label" x="155.00025190794656" y="265.69958847736626" font-size="8px"></text><text class="label" x="155.00619059254146" y="278.86831275720164" font-size="8px"></text></g><g style="font-size: 13px;"><rect x="150" y="288.6213991769547" width="1.1318179745478552" height="12.510288065843621" fill="#4472c4"></rect><rect x="150" y="301.7901234567901" width="0.028446992767034735" height="12.510288065843621" fill="#ed7d31"></rect><rect x="150" y="314.9588477366255" width="0.0002519079465505473" height="12.510288065843621" fill="#a5a5a5"></rect><rect x="150" y="328.12757201646093" width="0.003619457897930856" height="12.510288065843621" fill="#ffc000"></rect><text class="label" x="159.63181797454786" y="297.1213991769547" font-size="10px">4,493x</text><text class="label" x="158.52844699276704" y="310.2901234567901" font-size="10px">113x</text><text class="label" x="158.50025190794656" y="323.4588477366255" font-size="10px">1x</text><text class="label" x="158.50361945789794" y="336.62757201646093" font-size="10px">14x</text><text class="label" x="156.13181797454786" y="298.6213991769547" font-size="8px"></text><text class="label" x="155.02844699276704" y="311.7901234567901" font-size="8px"></text><text class="label" x="155.00025190794656" y="324.9588477366255" font-size="8px"></text><text class="label" x="155.00361945789794" y="338.12757201646093" font-size="8px"></text></g><g style="font-size: 13px;"><rect x="150" y="347.880658436214" width="0.1982540440104155" height="12.510288065843621" fill="#4472c4"></rect><rect x="150" y="361.04938271604937" width="0.006301389077861759" height="12.510288065843621" fill="#ed7d31"></rect><rect x="150" y="374.2181069958848" width="0.00038532422964681923" height="12.510288065843621" fill="#a5a5a5"></rect><rect x="150" y="387.38683127572017" width="0.0002519079465505473" height="12.510288065843621" fill="#ffc000"></rect><text class="label" x="158.6982540440104" y="356.380658436214" font-size="10px">787x</text><text class="label" x="158.50630138907786" y="369.54938271604937" font-size="10px">25x</text><text class="label" x="158.50038532422965" y="382.7181069958848" font-size="10px">2x</text><text class="label" x="158.50025190794656" y="395.88683127572017" font-size="10px">1x</text><text class="label" x="155.1982540440104" y="357.880658436214" font-size="8px"></text><text class="label" x="155.00630138907786" y="371.04938271604937" font-size="8px"></text><text class="label" x="155.00038532422965" y="384.2181069958848" font-size="8px"></text><text class="label" x="155.00025190794656" y="397.38683127572017" font-size="8px"></text></g><g style="font-size: 13px;"><rect x="150" y="407.13991769547323" width="0.20330205439016516" height="12.510288065843621" fill="#4472c4"></rect><rect x="150" y="420.3086419753086" width="0.019555257315652143" height="12.510288065843621" fill="#ed7d31"></rect><rect x="150" y="433.47736625514403" width="0.00029603974995450936" height="12.510288065843621" fill="#a5a5a5"></rect><rect x="150" y="446.6460905349794" width="0.0002519079465505473" height="12.510288065843621" fill="#ffc000"></rect><text class="label" x="158.70330205439018" y="415.63991769547323" font-size="10px">807x</text><text class="label" x="158.51955525731566" y="428.8086419753086" font-size="10px">78x</text><text class="label" x="158.50029603974994" y="441.97736625514403" font-size="10px">1x</text><text class="label" x="158.50025190794656" y="455.1460905349794" font-size="10px">1x</text><text class="label" x="155.20330205439018" y="417.13991769547323" font-size="8px"></text><text class="label" x="155.01955525731566" y="430.3086419753086" font-size="8px"></text><text class="label" x="155.00029603974994" y="443.47736625514403" font-size="8px"></text><text class="label" x="155.00025190794656" y="456.6460905349794" font-size="8px"></text></g><g style="font-size: 13px;"><rect x="150" y="466.3991769547325" width="0.2849692702654519" height="12.510288065843621" fill="#4472c4"></rect><rect x="150" y="479.5679012345679" width="0.012289157888482359" height="12.510288065843621" fill="#ed7d31"></rect><rect x="150" y="492.73662551440333" width="0.0002519079465505473" height="12.510288065843621" fill="#a5a5a5"></rect><rect x="150" y="505.9053497942387" width="0.002349768229386306" height="12.510288065843621" fill="#ffc000"></rect><text class="label" x="158.78496927026546" y="474.8991769547325" font-size="10px">1,131x</text><text class="label" x="158.5122891578885" y="488.0679012345679" font-size="10px">49x</text><text class="label" x="158.50025190794656" y="501.23662551440333" font-size="10px">1x</text><text class="label" x="158.50234976822938" y="514.4053497942386" font-size="10px">9x</text><text class="label" x="155.28496927026546" y="476.3991769547325" font-size="8px"></text><text class="label" x="155.0122891578885" y="489.5679012345679" font-size="8px"></text><text class="label" x="155.00025190794656" y="502.73662551440333" font-size="8px"></text><text class="label" x="155.00234976822938" y="515.9053497942386" font-size="8px"></text></g></g></svg>