<svg xmlns="http://www.w3.org/2000/svg" xmlns:xlink="http://www.w3.org/1999/xlink" width="800" height="674" style="background-color: white;"><g class="y axis" transform="translate(149,45)" fill="none" font-size="10" font-family="sans-serif" text-anchor="end" style="font-size: 13px;"><path class="domain" stroke="currentColor" d="M0.5,0.5V480.5"></path><g class="tick" opacity="1" transform="translate(0,32.592592592592595)" style="font-size: 13px;"><line stroke="currentColor" x2="0"></line><text fill="currentColor" x="-3" dy="0.32em">object (simple)    </text></g><g class="tick" opacity="1" transform="translate(0,91.85185185185186)" style="font-size: 13px;"><line stroke="currentColor" x2="0"></line><text fill="currentColor" x="-3" dy="0.32em">object (hierarchical)    </text></g><g class="tick" opacity="1" transform="translate(0,151.11111111111111)" style="font-size: 13px;"><line stroke="currentColor" x2="0"></line><text fill="currentColor" x="-3" dy="0.32em">object (recursive)    </text></g><g class="tick" opacity="1" transform="translate(0,210.37037037037035)" style="font-size: 13px;"><line stroke="currentColor" x2="0"></line><text fill="currentColor" x="-3" dy="0.32em">object (union, explicit)    </text></g><g class="tick" opacity="1" transform="translate(0,269.6296296296296)" style="font-size: 13px;"><line stroke="currentColor" x2="0"></line><text fill="currentColor" x="-3" dy="0.32em">array (simple)    </text></g><g class="tick" opacity="1" transform="translate(0,328.8888888888889)" style="font-size: 13px;"><line stroke="currentColor" x2="0"></line><text fill="currentColor" x="-3" dy="0.32em">array (hierarchical)    </text></g><g class="tick" opacity="1" transform="translate(0,388.14814814814815)" style="font-size: 13px;"><line stroke="currentColor" x2="0"></line><text fill="currentColor" x="-3" dy="0.32em">array (recursive)    </text></g><g class="tick" opacity="1" transform="translate(0,447.40740740740745)" style="font-size: 13px;"><line stroke="currentColor" x2="0"></line><text fill="currentColor" x="-3" dy="0.32em">array (union, explicit)    </text></g></g><g class="x axis" transform="translate(149,525)" fill="none" font-size="10" font-family="sans-serif" text-anchor="middle" style="font-size: 13px;"><path class="domain" stroke="currentColor" d="M0.5,0.5H485.5"></path><g class="tick" opacity="1" transform="translate(0.5,0)" style="font-size: 13px;"><line stroke="currentColor" y2="6"></line><text fill="currentColor" y="9" dy="0.71em">0x</text></g><g class="tick" opacity="1" transform="translate(135.6627129679486,0)" style="font-size: 13px;"><line stroke="currentColor" y2="6"></line><text fill="currentColor" y="9" dy="0.71em">500,000x</text></g><g class="tick" opacity="1" transform="translate(270.8254259358972,0)" style="font-size: 13px;"><line stroke="currentColor" y2="6"></line><text fill="currentColor" y="9" dy="0.71em">1,000,000x</text></g><g class="tick" opacity="1" transform="translate(405.9881389038459,0)" style="font-size: 13px;"><line stroke="currentColor" y2="6"></line><text fill="currentColor" y="9" dy="0.71em">1,500,000x</text></g></g><text transform="translate(400, 30)" style="text-anchor: middle; font-size: 20px; font-weight: bold;">optimizer benchmark</text><rect x="650" y="125" width="230" height="5" fill="gray"></rect><rect x="645" y="35" width="230" height="90" fill="none" stroke="black"></rect><rect x="655" y="45" width="10" height="10" style="fill: #4472c4;"></rect><text x="670" y="55" style="font-size: 12px;">typia</text><rect x="655" y="65" width="10" height="10" style="fill: #ed7d31;"></rect><text x="670" y="75" style="font-size: 12px;">typebox</text><rect x="655" y="85" width="10" height="10" style="fill: #a5a5a5;"></rect><text x="670" y="95" style="font-size: 12px;">ajv</text><rect x="655" y="105" width="10" height="10" style="fill: #ffc000;"></rect><text x="670" y="115" style="font-size: 12px;">class-validator</text><text x="20" y="589" style="font-size: 12px;">  - CPU: Intel(R) Xeon(R) Platinum 8272CL CPU @ 2.60GHz</text><text x="20" y="606" style="font-size: 12px;">  - OS: linux</text><text x="20" y="623" style="font-size: 12px;">  - RAM: 4 GB</text><text x="20" y="640" style="font-size: 12px;">  - NodeJS version: v19.9.0</text><text x="20" y="657" style="font-size: 12px;">  - Typia version: v3.8.6</text><g style="font-size: 13px;"><g style="font-size: 13px;"><rect x="150" y="51.584362139917694" width="440.9090909090908" height="12.510288065843621" fill="#4472c4"></rect><rect x="150" y="64.75308641975309" width="0.018725910276474127" height="12.510288065843621" fill="#ed7d31"></rect><rect x="150" y="77.92181069958848" width="0.00027032542593589725" height="12.510288065843621" fill="#a5a5a5"></rect><rect x="150" y="91.09053497942386" width="0.01758451786240335" height="12.510288065843621" fill="#ffc000"></rect><text class="label" x="599.4090909090908" y="60.084362139917694" font-size="10px">1,631,031x</text><text class="label" x="158.5187259102765" y="73.25308641975309" font-size="10px">69x</text><text class="label" x="158.50027032542593" y="86.42181069958848" font-size="10px">1x</text><text class="label" x="158.51758451786242" y="99.59053497942386" font-size="10px">65x</text><text class="label" x="595.9090909090908" y="61.584362139917694" font-size="8px"></text><text class="label" x="155.0187259102765" y="74.75308641975309" font-size="8px"></text><text class="label" x="155.00027032542593" y="87.92181069958848" font-size="8px"></text><text class="label" x="155.01758451786242" y="101.09053497942386" font-size="8px"></text></g><g style="font-size: 13px;"><rect x="150" y="110.84362139917695" width="18.549886920353405" height="12.510288065843621" fill="#4472c4"></rect><rect x="150" y="124.01234567901236" width="0.004954176675772992" height="12.510288065843621" fill="#ed7d31"></rect><rect x="150" y="137.18106995884773" width="0.00027032542593589725" height="12.510288065843621" fill="#a5a5a5"></rect><rect x="150" y="150.34979423868313" width="0.005533674315071313" height="12.510288065843621" fill="#ffc000"></rect><text class="label" x="177.0498869203534" y="119.34362139917695" font-size="10px">68,621x</text><text class="label" x="158.50495417667577" y="132.51234567901236" font-size="10px">18x</text><text class="label" x="158.50027032542593" y="145.68106995884773" font-size="10px">1x</text><text class="label" x="158.50553367431507" y="158.84979423868313" font-size="10px">20x</text><text class="label" x="173.5498869203534" y="120.84362139917695" font-size="8px"></text><text class="label" x="155.00495417667577" y="134.01234567901236" font-size="8px"></text><text class="label" x="155.00027032542593" y="147.18106995884773" font-size="8px"></text><text class="label" x="155.00553367431507" y="160.34979423868313" font-size="8px"></text></g><g style="font-size: 13px;"><rect x="150" y="170.10288065843622" width="3.5435969495882085" height="12.510288065843621" fill="#4472c4"></rect><rect x="150" y="183.2716049382716" width="0.019495695783180753" height="12.510288065843621" fill="#ed7d31"></rect><rect x="150" y="196.440329218107" width="0.00027032542593589725" height="12.510288065843621" fill="#a5a5a5"></rect><rect x="150" y="209.6090534979424" width="0.0025499785999854507" height="12.510288065843621" fill="#ffc000"></rect><text class="label" x="162.04359694958822" y="178.60288065843622" font-size="10px">13,109x</text><text class="label" x="158.51949569578318" y="191.7716049382716" font-size="10px">72x</text><text class="label" x="158.50027032542593" y="204.940329218107" font-size="10px">1x</text><text class="label" x="158.50254997859997" y="218.1090534979424" font-size="10px">9x</text><text class="label" x="158.54359694958822" y="180.10288065843622" font-size="8px"></text><text class="label" x="155.01949569578318" y="193.2716049382716" font-size="8px"></text><text class="label" x="155.00027032542593" y="206.440329218107" font-size="8px"></text><text class="label" x="155.00254997859997" y="219.6090534979424" font-size="8px"></text></g><g style="font-size: 13px;"><rect x="150" y="229.36213991769546" width="0.966807903081551" height="12.510288065843621" fill="#4472c4"></rect><rect x="150" y="242.53086419753086" width="0.00675942850310222" height="12.510288065843621" fill="#ed7d31"></rect><rect x="150" y="255.69958847736626" width="0.00027032542593589725" height="12.510288065843621" fill="#a5a5a5"></rect><rect x="150" y="268.86831275720164" width="0.006566136582347986" height="12.510288065843621" fill="#ffc000"></rect><text class="label" x="159.46680790308156" y="237.86213991769546" font-size="10px">3,576x</text><text class="label" x="158.5067594285031" y="251.03086419753086" font-size="10px">25x</text><text class="label" x="158.50027032542593" y="264.19958847736626" font-size="10px">1x</text><text class="label" x="158.50656613658234" y="277.36831275720164" font-size="10px">24x</text><text class="label" x="155.96680790308156" y="239.36213991769546" font-size="8px"></text><text class="label" x="155.0067594285031" y="252.53086419753086" font-size="8px"></text><text class="label" x="155.00027032542593" y="265.69958847736626" font-size="8px"></text><text class="label" x="155.00656613658234" y="278.86831275720164" font-size="8px"></text></g><g style="font-size: 13px;"><rect x="150" y="288.6213991769547" width="1.0070913783720299" height="12.510288065843621" fill="#4472c4"></rect><rect x="150" y="301.7901234567901" width="0.02780404155265081" height="12.510288065843621" fill="#ed7d31"></rect><rect x="150" y="314.9588477366255" width="0.00027032542593589725" height="12.510288065843621" fill="#a5a5a5"></rect><rect x="150" y="328.12757201646093" width="0.003115418482991837" height="12.510288065843621" fill="#ffc000"></rect><text class="label" x="159.50709137837202" y="297.1213991769547" font-size="10px">3,725x</text><text class="label" x="158.52780404155266" y="310.2901234567901" font-size="10px">103x</text><text class="label" x="158.50027032542593" y="323.4588477366255" font-size="10px">1x</text><text class="label" x="158.503115418483" y="336.62757201646093" font-size="10px">12x</text><text class="label" x="156.00709137837202" y="298.6213991769547" font-size="8px"></text><text class="label" x="155.02780404155266" y="311.7901234567901" font-size="8px"></text><text class="label" x="155.00027032542593" y="324.9588477366255" font-size="8px"></text><text class="label" x="155.003115418483" y="338.12757201646093" font-size="8px"></text></g><g style="font-size: 13px;"><rect x="150" y="347.880658436214" width="0.28989920667062885" height="12.510288065843621" fill="#4472c4"></rect><rect x="150" y="361.04938271604937" width="0.015264976119544518" height="12.510288065843621" fill="#ed7d31"></rect><rect x="150" y="374.2181069958848" width="0.00027032542593589725" height="12.510288065843621" fill="#a5a5a5"></rect><rect x="150" y="387.38683127572017" width="0.00044421693318264096" height="12.510288065843621" fill="#ffc000"></rect><text class="label" x="158.78989920667064" y="356.380658436214" font-size="10px">1,072x</text><text class="label" x="158.51526497611954" y="369.54938271604937" font-size="10px">56x</text><text class="label" x="158.50027032542593" y="382.7181069958848" font-size="10px">1x</text><text class="label" x="158.50044421693318" y="395.88683127572017" font-size="10px">2x</text><text class="label" x="155.28989920667064" y="357.880658436214" font-size="8px"></text><text class="label" x="155.01526497611954" y="371.04938271604937" font-size="8px"></text><text class="label" x="155.00027032542593" y="384.2181069958848" font-size="8px"></text><text class="label" x="155.00044421693318" y="397.38683127572017" font-size="8px"></text></g><g style="font-size: 13px;"><rect x="150" y="407.13991769547323" width="0.20483319186355622" height="12.510288065843621" fill="#4472c4"></rect><rect x="150" y="420.3086419753086" width="0.019627363740335635" height="12.510288065843621" fill="#ed7d31"></rect><rect x="150" y="433.47736625514403" width="0.00028927719129240206" height="12.510288065843621" fill="#a5a5a5"></rect><rect x="150" y="446.6460905349794" width="0.00027032542593589725" height="12.510288065843621" fill="#ffc000"></rect><text class="label" x="158.70483319186354" y="415.63991769547323" font-size="10px">758x</text><text class="label" x="158.51962736374034" y="428.8086419753086" font-size="10px">73x</text><text class="label" x="158.50028927719129" y="441.97736625514403" font-size="10px">1x</text><text class="label" x="158.50027032542593" y="455.1460905349794" font-size="10px">1x</text><text class="label" x="155.20483319186354" y="417.13991769547323" font-size="8px"></text><text class="label" x="155.01962736374034" y="430.3086419753086" font-size="8px"></text><text class="label" x="155.00028927719129" y="443.47736625514403" font-size="8px"></text><text class="label" x="155.00027032542593" y="456.6460905349794" font-size="8px"></text></g><g style="font-size: 13px;"><rect x="150" y="466.3991769547325" width="0.27981203149971656" height="12.510288065843621" fill="#4472c4"></rect><rect x="150" y="479.5679012345679" width="0.009694881935982553" height="12.510288065843621" fill="#ed7d31"></rect><rect x="150" y="492.73662551440333" width="0.00027032542593589725" height="12.510288065843621" fill="#a5a5a5"></rect><rect x="150" y="505.9053497942387" width="0.0019305606264646733" height="12.510288065843621" fill="#ffc000"></rect><text class="label" x="158.77981203149972" y="474.8991769547325" font-size="10px">1,035x</text><text class="label" x="158.50969488193599" y="488.0679012345679" font-size="10px">36x</text><text class="label" x="158.50027032542593" y="501.23662551440333" font-size="10px">1x</text><text class="label" x="158.50193056062648" y="514.4053497942386" font-size="10px">7x</text><text class="label" x="155.27981203149972" y="476.3991769547325" font-size="8px"></text><text class="label" x="155.00969488193599" y="489.5679012345679" font-size="8px"></text><text class="label" x="155.00027032542593" y="502.73662551440333" font-size="8px"></text><text class="label" x="155.00193056062648" y="515.9053497942386" font-size="8px"></text></g></g></svg>