<svg xmlns="http://www.w3.org/2000/svg" xmlns:xlink="http://www.w3.org/1999/xlink" width="800" height="914" style="background-color: white;"><g class="y axis" transform="translate(149,45)" fill="none" font-size="10" font-family="sans-serif" text-anchor="end" style="font-size: 13px;"><path class="domain" stroke="currentColor" d="M0.5,0.5V720.5"></path><g class="tick" opacity="1" transform="translate(0,48.88888888888886)" style="font-size: 13px;"><line stroke="currentColor" x2="0"></line><text fill="currentColor" x="-3" dy="0.32em">object (simple)    </text></g><g class="tick" opacity="1" transform="translate(0,137.77777777777774)" style="font-size: 13px;"><line stroke="currentColor" x2="0"></line><text fill="currentColor" x="-3" dy="0.32em">object (hierarchical)    </text></g><g class="tick" opacity="1" transform="translate(0,226.66666666666663)" style="font-size: 13px;"><line stroke="currentColor" x2="0"></line><text fill="currentColor" x="-3" dy="0.32em">object (recursive)    </text></g><g class="tick" opacity="1" transform="translate(0,315.5555555555555)" style="font-size: 13px;"><line stroke="currentColor" x2="0"></line><text fill="currentColor" x="-3" dy="0.32em">object (union, explicit)    </text></g><g class="tick" opacity="1" transform="translate(0,404.4444444444444)" style="font-size: 13px;"><line stroke="currentColor" x2="0"></line><text fill="currentColor" x="-3" dy="0.32em">array (simple)    </text></g><g class="tick" opacity="1" transform="translate(0,493.3333333333333)" style="font-size: 13px;"><line stroke="currentColor" x2="0"></line><text fill="currentColor" x="-3" dy="0.32em">array (hierarchical)    </text></g><g class="tick" opacity="1" transform="translate(0,582.2222222222222)" style="font-size: 13px;"><line stroke="currentColor" x2="0"></line><text fill="currentColor" x="-3" dy="0.32em">array (recursive)    </text></g><g class="tick" opacity="1" transform="translate(0,671.1111111111111)" style="font-size: 13px;"><line stroke="currentColor" x2="0"></line><text fill="currentColor" x="-3" dy="0.32em">array (union, explicit)    </text></g></g><g class="x axis" transform="translate(149,765)" fill="none" font-size="10" font-family="sans-serif" text-anchor="middle" style="font-size: 13px;"><path class="domain" stroke="currentColor" d="M0.5,0.5H485.5"></path><g class="tick" opacity="1" transform="translate(0.5,0)" style="font-size: 13px;"><line stroke="currentColor" y2="6"></line><text fill="currentColor" y="9" dy="0.71em">0x</text></g><g class="tick" opacity="1" transform="translate(101.14985932440727,0)" style="font-size: 13px;"><line stroke="currentColor" y2="6"></line><text fill="currentColor" y="9" dy="0.71em">5x</text></g><g class="tick" opacity="1" transform="translate(201.79971864881455,0)" style="font-size: 13px;"><line stroke="currentColor" y2="6"></line><text fill="currentColor" y="9" dy="0.71em">10x</text></g><g class="tick" opacity="1" transform="translate(302.44957797322184,0)" style="font-size: 13px;"><line stroke="currentColor" y2="6"></line><text fill="currentColor" y="9" dy="0.71em">15x</text></g><g class="tick" opacity="1" transform="translate(403.0994372976291,0)" style="font-size: 13px;"><line stroke="currentColor" y2="6"></line><text fill="currentColor" y="9" dy="0.71em">20x</text></g></g><text transform="translate(400, 30)" style="text-anchor: middle; font-size: 20px; font-weight: bold;">server benchmark</text><rect x="650" y="165" width="230" height="5" fill="gray"></rect><rect x="645" y="35" width="230" height="130" fill="none" stroke="black"></rect><rect x="655" y="45" width="10" height="10" style="fill: #4472c4;"></rect><text x="670" y="55" style="font-size: 12px;">fastify-class-transformer</text><rect x="655" y="65" width="10" height="10" style="fill: #ed7d31;"></rect><text x="670" y="75" style="font-size: 12px;">fastify-pure</text><rect x="655" y="85" width="10" height="10" style="fill: #a5a5a5;"></rect><text x="670" y="95" style="font-size: 12px;">fastify-typia</text><rect x="655" y="105" width="10" height="10" style="fill: #ffc000;"></rect><text x="670" y="115" style="font-size: 12px;">express-typia</text><rect x="655" y="125" width="10" height="10" style="fill: #5b9bd5;"></rect><text x="670" y="135" style="font-size: 12px;">express-pure</text><rect x="655" y="145" width="10" height="10" style="fill: #70ad47;"></rect><text x="670" y="155" style="font-size: 12px;">express-class-transformer</text><text x="20" y="829" style="font-size: 12px;">  - CPU: Intel(R) Xeon(R) Platinum 8272CL CPU @ 2.60GHz</text><text x="20" y="846" style="font-size: 12px;">  - OS: linux</text><text x="20" y="863" style="font-size: 12px;">  - RAM: 4 GB</text><text x="20" y="880" style="font-size: 12px;">  - NodeJS version: v19.9.0</text><text x="20" y="897" style="font-size: 12px;">  - Typia version: v3.8.6</text><g style="font-size: 13px;"><g style="font-size: 13px;"><rect x="150" y="54.55004591368224" width="20.129971864881455" height="12.56198347107438" fill="#4472c4"></rect><rect x="150" y="67.77318640955001" width="291.04015016133803" height="12.56198347107438" fill="#ed7d31"></rect><rect x="150" y="80.99632690541777" width="346.59473486802136" height="12.56198347107438" fill="#a5a5a5"></rect><rect x="150" y="94.21946740128556" width="170.00548141550942" height="12.56198347107438" fill="#ffc000"></rect><rect x="150" y="107.44260789715332" width="149.40216345365292" height="12.56198347107438" fill="#5b9bd5"></rect><rect x="150" y="120.66574839302109" width="20.744570296342626" height="12.56198347107438" fill="#70ad47"></rect><text class="label" x="178.62997186488144" y="63.05004591368224" font-size="10px">1x</text><text class="label" x="449.54015016133803" y="76.27318640955001" font-size="10px">14.46x</text><text class="label" x="505.09473486802136" y="89.49632690541777" font-size="10px">17.22x</text><text class="label" x="328.5054814155094" y="102.71946740128556" font-size="10px">8.45x</text><text class="label" x="307.9021634536529" y="115.94260789715332" font-size="10px">7.42x</text><text class="label" x="179.24457029634263" y="129.1657483930211" font-size="10px">1.03x</text><text class="label" x="175.12997186488144" y="64.55004591368224" font-size="8px"></text><text class="label" x="446.04015016133803" y="77.77318640955001" font-size="8px"></text><text class="label" x="501.59473486802136" y="90.99632690541777" font-size="8px"></text><text class="label" x="325.0054814155094" y="104.21946740128556" font-size="8px"></text><text class="label" x="304.4021634536529" y="117.44260789715332" font-size="8px"></text><text class="label" x="175.74457029634263" y="130.6657483930211" font-size="8px"></text></g><g style="font-size: 13px;"><rect x="150" y="143.4389348025711" width="20.129971864881455" height="12.56198347107438" fill="#4472c4"></rect><rect x="150" y="156.66207529843888" width="148.65108505372586" height="12.56198347107438" fill="#ed7d31"></rect><rect x="150" y="169.88521579430665" width="152.2025213034579" height="12.56198347107438" fill="#a5a5a5"></rect><rect x="150" y="183.10835629017444" width="139.99562891982842" height="12.56198347107438" fill="#ffc000"></rect><rect x="150" y="196.3314967860422" width="147.61653963537532" height="12.56198347107438" fill="#5b9bd5"></rect><rect x="150" y="209.55463728190998" width="20.225690547711086" height="12.56198347107438" fill="#70ad47"></rect><text class="label" x="178.62997186488144" y="151.9389348025711" font-size="10px">1x</text><text class="label" x="307.15108505372586" y="165.16207529843888" font-size="10px">7.38x</text><text class="label" x="310.7025213034579" y="178.38521579430665" font-size="10px">7.56x</text><text class="label" x="298.4956289198284" y="191.60835629017444" font-size="10px">6.95x</text><text class="label" x="306.1165396353753" y="204.8314967860422" font-size="10px">7.33x</text><text class="label" x="178.72569054771108" y="218.05463728190998" font-size="10px">1x</text><text class="label" x="175.12997186488144" y="153.4389348025711" font-size="8px"></text><text class="label" x="303.65108505372586" y="166.66207529843888" font-size="8px"></text><text class="label" x="307.2025213034579" y="179.88521579430665" font-size="8px"></text><text class="label" x="294.9956289198284" y="193.10835629017444" font-size="8px"></text><text class="label" x="302.6165396353753" y="206.3314967860422" font-size="8px"></text><text class="label" x="175.22569054771108" y="219.55463728190998" font-size="8px"></text></g><g style="font-size: 13px;"><rect x="150" y="232.32782369146003" width="20.129971864881455" height="12.56198347107438" fill="#4472c4"></rect><rect x="150" y="245.5509641873278" width="169.39346988595736" height="12.56198347107438" fill="#ed7d31"></rect><rect x="150" y="258.77410468319556" width="155.31602375890955" height="12.56198347107438" fill="#a5a5a5"></rect><rect x="150" y="271.9972451790633" width="154.67146288821306" height="12.56198347107438" fill="#ffc000"></rect><rect x="150" y="285.2203856749311" width="177.28216874087775" height="12.56198347107438" fill="#5b9bd5"></rect><rect x="150" y="298.44352617079886" width="20.244187990233286" height="12.56198347107438" fill="#70ad47"></rect><text class="label" x="178.62997186488144" y="240.82782369146003" font-size="10px">1x</text><text class="label" x="327.89346988595736" y="254.0509641873278" font-size="10px">8.41x</text><text class="label" x="313.8160237589095" y="267.27410468319556" font-size="10px">7.72x</text><text class="label" x="313.17146288821306" y="280.4972451790633" font-size="10px">7.68x</text><text class="label" x="335.78216874087775" y="293.7203856749311" font-size="10px">8.81x</text><text class="label" x="178.74418799023329" y="306.94352617079886" font-size="10px">1.01x</text><text class="label" x="175.12997186488144" y="242.32782369146003" font-size="8px"></text><text class="label" x="324.39346988595736" y="255.5509641873278" font-size="8px"></text><text class="label" x="310.3160237589095" y="268.77410468319556" font-size="8px"></text><text class="label" x="309.67146288821306" y="281.9972451790633" font-size="8px"></text><text class="label" x="332.28216874087775" y="295.2203856749311" font-size="8px"></text><text class="label" x="175.24418799023329" y="308.44352617079886" font-size="8px"></text></g><g style="font-size: 13px;"><rect x="150" y="321.2167125803489" width="20.487420357388856" height="12.56198347107438" fill="#4472c4"></rect><rect x="150" y="334.43985307621665" width="302.3483064868024" height="12.56198347107438" fill="#ed7d31"></rect><rect x="150" y="347.6629935720844" width="309.5864142908196" height="12.56198347107438" fill="#a5a5a5"></rect><rect x="150" y="360.8861340679522" width="440.9090909090909" height="12.56198347107438" fill="#ffc000"></rect><rect x="150" y="374.10927456381995" width="305.4445125008611" height="12.56198347107438" fill="#5b9bd5"></rect><rect x="150" y="387.3324150596877" width="20.129971864881455" height="12.56198347107438" fill="#70ad47"></rect><text class="label" x="178.98742035738886" y="329.7167125803489" font-size="10px">1.02x</text><text class="label" x="460.8483064868024" y="342.93985307621665" font-size="10px">15.02x</text><text class="label" x="468.0864142908196" y="356.1629935720844" font-size="10px">15.38x</text><text class="label" x="599.4090909090909" y="369.3861340679522" font-size="10px">21.9x</text><text class="label" x="463.9445125008611" y="382.60927456381995" font-size="10px">15.17x</text><text class="label" x="178.62997186488144" y="395.8324150596877" font-size="10px">1x</text><text class="label" x="175.48742035738886" y="331.2167125803489" font-size="8px"></text><text class="label" x="457.3483064868024" y="344.43985307621665" font-size="8px"></text><text class="label" x="464.5864142908196" y="357.6629935720844" font-size="8px"></text><text class="label" x="595.9090909090909" y="370.8861340679522" font-size="8px"></text><text class="label" x="460.4445125008611" y="384.10927456381995" font-size="8px"></text><text class="label" x="175.12997186488144" y="397.3324150596877" font-size="8px"></text></g><g style="font-size: 13px;"><rect x="150" y="410.1056014692378" width="20.129971864881455" height="12.56198347107438" fill="#4472c4"></rect><rect x="150" y="423.32874196510556" width="122.30619479957836" height="12.56198347107438" fill="#ed7d31"></rect><rect x="150" y="436.55188246097333" width="134.45552096807393" height="12.56198347107438" fill="#a5a5a5"></rect><rect x="150" y="449.7750229568411" width="125.6784416256144" height="12.56198347107438" fill="#ffc000"></rect><rect x="150" y="462.99816345270887" width="186.14854165630663" height="12.56198347107438" fill="#5b9bd5"></rect><rect x="150" y="476.22130394857663" width="20.273476474707902" height="12.56198347107438" fill="#70ad47"></rect><text class="label" x="178.62997186488144" y="418.6056014692378" font-size="10px">1x</text><text class="label" x="280.80619479957835" y="431.82874196510556" font-size="10px">6.08x</text><text class="label" x="292.9555209680739" y="445.05188246097333" font-size="10px">6.68x</text><text class="label" x="284.17844162561437" y="458.2750229568411" font-size="10px">6.24x</text><text class="label" x="344.64854165630663" y="471.49816345270887" font-size="10px">9.25x</text><text class="label" x="178.7734764747079" y="484.72130394857663" font-size="10px">1.01x</text><text class="label" x="175.12997186488144" y="420.1056014692378" font-size="8px"></text><text class="label" x="277.30619479957835" y="433.32874196510556" font-size="8px"></text><text class="label" x="289.4555209680739" y="446.55188246097333" font-size="8px"></text><text class="label" x="280.67844162561437" y="459.7750229568411" font-size="8px"></text><text class="label" x="341.14854165630663" y="472.99816345270887" font-size="8px"></text><text class="label" x="175.2734764747079" y="486.22130394857663" font-size="8px"></text></g><g style="font-size: 13px;"><rect x="150" y="498.9944903581267" width="20.34009416766521" height="12.56198347107438" fill="#4472c4"></rect><rect x="150" y="512.2176308539945" width="168.06812808495383" height="12.56198347107438" fill="#ed7d31"></rect><rect x="150" y="525.4407713498622" width="203.08875330578903" height="12.56198347107438" fill="#a5a5a5"></rect><rect x="150" y="538.66391184573" width="205.37658353933546" height="12.56198347107438" fill="#ffc000"></rect><rect x="150" y="551.8870523415978" width="248.38414204514459" height="12.56198347107438" fill="#5b9bd5"></rect><rect x="150" y="565.1101928374655" width="20.129971864881455" height="12.56198347107438" fill="#70ad47"></rect><text class="label" x="178.8400941676652" y="507.4944903581267" font-size="10px">1.01x</text><text class="label" x="326.56812808495386" y="520.7176308539945" font-size="10px">8.35x</text><text class="label" x="361.58875330578906" y="533.9407713498622" font-size="10px">10.09x</text><text class="label" x="363.87658353933546" y="547.16391184573" font-size="10px">10.2x</text><text class="label" x="406.8841420451446" y="560.3870523415978" font-size="10px">12.34x</text><text class="label" x="178.62997186488144" y="573.6101928374655" font-size="10px">1x</text><text class="label" x="175.3400941676652" y="508.9944903581267" font-size="8px"></text><text class="label" x="323.06812808495386" y="522.2176308539945" font-size="8px"></text><text class="label" x="358.08875330578906" y="535.4407713498622" font-size="8px"></text><text class="label" x="360.37658353933546" y="548.66391184573" font-size="8px"></text><text class="label" x="403.3841420451446" y="561.8870523415978" font-size="8px"></text><text class="label" x="175.12997186488144" y="575.1101928374655" font-size="8px"></text></g><g style="font-size: 13px;"><rect x="150" y="587.8833792470156" width="20.129971864881455" height="12.56198347107438" fill="#4472c4"></rect><rect x="150" y="601.1065197428833" width="199.73743782815734" height="12.56198347107438" fill="#ed7d31"></rect><rect x="150" y="614.3296602387511" width="164.36901133794353" height="12.56198347107438" fill="#a5a5a5"></rect><rect x="150" y="627.5528007346188" width="179.07117104179744" height="12.56198347107438" fill="#ffc000"></rect><rect x="150" y="640.7759412304866" width="220.90173924363626" height="12.56198347107438" fill="#5b9bd5"></rect><rect x="150" y="653.9990817263545" width="20.153787992844343" height="12.56198347107438" fill="#70ad47"></rect><text class="label" x="178.62997186488144" y="596.3833792470156" font-size="10px">1x</text><text class="label" x="358.23743782815734" y="609.6065197428833" font-size="10px">9.92x</text><text class="label" x="322.86901133794356" y="622.8296602387511" font-size="10px">8.17x</text><text class="label" x="337.57117104179747" y="636.0528007346188" font-size="10px">8.9x</text><text class="label" x="379.40173924363626" y="649.2759412304866" font-size="10px">10.97x</text><text class="label" x="178.65378799284434" y="662.4990817263545" font-size="10px">1x</text><text class="label" x="175.12997186488144" y="597.8833792470156" font-size="8px"></text><text class="label" x="354.73743782815734" y="611.1065197428833" font-size="8px"></text><text class="label" x="319.36901133794356" y="624.3296602387511" font-size="8px"></text><text class="label" x="334.07117104179747" y="637.5528007346188" font-size="8px"></text><text class="label" x="375.90173924363626" y="650.7759412304866" font-size="8px"></text><text class="label" x="175.15378799284434" y="663.9990817263545" font-size="8px"></text></g><g style="font-size: 13px;"><rect x="150" y="676.7722681359045" width="20.14616626454194" height="12.56198347107438" fill="#4472c4"></rect><rect x="150" y="689.9954086317722" width="234.44761464356088" height="12.56198347107438" fill="#ed7d31"></rect><rect x="150" y="703.21854912764" width="162.9477940001036" height="12.56198347107438" fill="#a5a5a5"></rect><rect x="150" y="716.4416896235077" width="184.2910446978783" height="12.56198347107438" fill="#ffc000"></rect><rect x="150" y="729.6648301193756" width="266.7121136495032" height="12.56198347107438" fill="#5b9bd5"></rect><rect x="150" y="742.8879706152434" width="20.129971864881455" height="12.56198347107438" fill="#70ad47"></rect><text class="label" x="178.64616626454193" y="685.2722681359045" font-size="10px">1x</text><text class="label" x="392.9476146435609" y="698.4954086317722" font-size="10px">11.65x</text><text class="label" x="321.4477940001036" y="711.71854912764" font-size="10px">8.09x</text><text class="label" x="342.7910446978783" y="724.9416896235077" font-size="10px">9.16x</text><text class="label" x="425.2121136495032" y="738.1648301193756" font-size="10px">13.25x</text><text class="label" x="178.62997186488144" y="751.3879706152434" font-size="10px">1x</text><text class="label" x="175.14616626454193" y="686.7722681359045" font-size="8px"></text><text class="label" x="389.4476146435609" y="699.9954086317722" font-size="8px"></text><text class="label" x="317.9477940001036" y="713.21854912764" font-size="8px"></text><text class="label" x="339.2910446978783" y="726.4416896235077" font-size="8px"></text><text class="label" x="421.7121136495032" y="739.6648301193756" font-size="8px"></text><text class="label" x="175.12997186488144" y="752.8879706152434" font-size="8px"></text></g></g></svg>