<svg xmlns="http://www.w3.org/2000/svg" xmlns:xlink="http://www.w3.org/1999/xlink" width="800" height="914" style="background-color: white;"><g class="y axis" transform="translate(149,45)" fill="none" font-size="10" font-family="sans-serif" text-anchor="end" style="font-size: 13px;"><path class="domain" stroke="currentColor" d="M0.5,0.5V720.5"></path><g class="tick" opacity="1" transform="translate(0,48.88888888888886)" style="font-size: 13px;"><line stroke="currentColor" x2="0"></line><text fill="currentColor" x="-3" dy="0.32em">object (simple)    </text></g><g class="tick" opacity="1" transform="translate(0,137.77777777777774)" style="font-size: 13px;"><line stroke="currentColor" x2="0"></line><text fill="currentColor" x="-3" dy="0.32em">object (hierarchical)    </text></g><g class="tick" opacity="1" transform="translate(0,226.66666666666663)" style="font-size: 13px;"><line stroke="currentColor" x2="0"></line><text fill="currentColor" x="-3" dy="0.32em">object (recursive)    </text></g><g class="tick" opacity="1" transform="translate(0,315.5555555555555)" style="font-size: 13px;"><line stroke="currentColor" x2="0"></line><text fill="currentColor" x="-3" dy="0.32em">object (union, explicit)    </text></g><g class="tick" opacity="1" transform="translate(0,404.4444444444444)" style="font-size: 13px;"><line stroke="currentColor" x2="0"></line><text fill="currentColor" x="-3" dy="0.32em">array (simple)    </text></g><g class="tick" opacity="1" transform="translate(0,493.3333333333333)" style="font-size: 13px;"><line stroke="currentColor" x2="0"></line><text fill="currentColor" x="-3" dy="0.32em">array (hierarchical)    </text></g><g class="tick" opacity="1" transform="translate(0,582.2222222222222)" style="font-size: 13px;"><line stroke="currentColor" x2="0"></line><text fill="currentColor" x="-3" dy="0.32em">array (recursive)    </text></g><g class="tick" opacity="1" transform="translate(0,671.1111111111111)" style="font-size: 13px;"><line stroke="currentColor" x2="0"></line><text fill="currentColor" x="-3" dy="0.32em">array (union, explicit)    </text></g></g><g class="x axis" transform="translate(149,765)" fill="none" font-size="10" font-family="sans-serif" text-anchor="middle" style="font-size: 13px;"><path class="domain" stroke="currentColor" d="M0.5,0.5H485.5"></path><g class="tick" opacity="1" transform="translate(0.5,0)" style="font-size: 13px;"><line stroke="currentColor" y2="6"></line><text fill="currentColor" y="9" dy="0.71em">0x</text></g><g class="tick" opacity="1" transform="translate(109.38238202419744,0)" style="font-size: 13px;"><line stroke="currentColor" y2="6"></line><text fill="currentColor" y="9" dy="0.71em">50x</text></g><g class="tick" opacity="1" transform="translate(218.26476404839488,0)" style="font-size: 13px;"><line stroke="currentColor" y2="6"></line><text fill="currentColor" y="9" dy="0.71em">100x</text></g><g class="tick" opacity="1" transform="translate(327.1471460725923,0)" style="font-size: 13px;"><line stroke="currentColor" y2="6"></line><text fill="currentColor" y="9" dy="0.71em">150x</text></g><g class="tick" opacity="1" transform="translate(436.02952809678976,0)" style="font-size: 13px;"><line stroke="currentColor" y2="6"></line><text fill="currentColor" y="9" dy="0.71em">200x</text></g></g><text transform="translate(400, 30)" style="text-anchor: middle; font-size: 20px; font-weight: bold;">stringify benchmark</text><rect x="650" y="165" width="230" height="5" fill="gray"></rect><rect x="645" y="35" width="230" height="130" fill="none" stroke="black"></rect><rect x="655" y="45" width="10" height="10" style="fill: #4472c4;"></rect><text x="670" y="55" style="font-size: 12px;">typia.stringify</text><rect x="655" y="65" width="10" height="10" style="fill: #ed7d31;"></rect><text x="670" y="75" style="font-size: 12px;">typia.isStringify</text><rect x="655" y="85" width="10" height="10" style="fill: #a5a5a5;"></rect><text x="670" y="95" style="font-size: 12px;">typia.assertStringify</text><rect x="655" y="105" width="10" height="10" style="fill: #ffc000;"></rect><text x="670" y="115" style="font-size: 12px;">fast-json-stringify</text><rect x="655" y="125" width="10" height="10" style="fill: #5b9bd5;"></rect><text x="670" y="135" style="font-size: 12px;">JSON.stringify</text><rect x="655" y="145" width="10" height="10" style="fill: #70ad47;"></rect><text x="670" y="155" style="font-size: 12px;">class-transformer</text><text x="20" y="829" style="font-size: 12px;">  - CPU: Intel(R) Xeon(R) Platinum 8272CL CPU @ 2.60GHz</text><text x="20" y="846" style="font-size: 12px;">  - OS: linux</text><text x="20" y="863" style="font-size: 12px;">  - RAM: 4 GB</text><text x="20" y="880" style="font-size: 12px;">  - NodeJS version: v19.9.0</text><text x="20" y="897" style="font-size: 12px;">  - Typia version: v3.8.6</text><g style="font-size: 13px;"><g style="font-size: 13px;"><rect x="150" y="54.55004591368224" width="440.9090909090908" height="12.56198347107438" fill="#4472c4"></rect><rect x="150" y="67.77318640955001" width="304.4880260616313" height="12.56198347107438" fill="#ed7d31"></rect><rect x="150" y="80.99632690541777" width="259.62920803371577" height="12.56198347107438" fill="#a5a5a5"></rect><rect x="150" y="94.21946740128556" width="154.9201716574469" height="12.56198347107438" fill="#ffc000"></rect><rect x="150" y="107.44260789715332" width="49.809286909168215" height="12.56198347107438" fill="#5b9bd5"></rect><rect x="150" y="120.66574839302109" width="2.177647640483949" height="12.56198347107438" fill="#70ad47"></rect><text class="label" x="599.4090909090908" y="63.05004591368224" font-size="10px">202x</text><text class="label" x="462.9880260616313" y="76.27318640955001" font-size="10px">140x</text><text class="label" x="418.12920803371577" y="89.49632690541777" font-size="10px">119x</text><text class="label" x="313.4201716574469" y="102.71946740128556" font-size="10px">71x</text><text class="label" x="208.3092869091682" y="115.94260789715332" font-size="10px">23x</text><text class="label" x="160.67764764048394" y="129.1657483930211" font-size="10px">1x</text><text class="label" x="595.9090909090908" y="64.55004591368224" font-size="8px"></text><text class="label" x="459.4880260616313" y="77.77318640955001" font-size="8px"></text><text class="label" x="414.62920803371577" y="90.99632690541777" font-size="8px"></text><text class="label" x="309.9201716574469" y="104.21946740128556" font-size="8px"></text><text class="label" x="204.8092869091682" y="117.44260789715332" font-size="8px"></text><text class="label" x="157.17764764048394" y="130.6657483930211" font-size="8px"></text></g><g style="font-size: 13px;"><rect x="150" y="143.4389348025711" width="84.6388629185216" height="12.56198347107438" fill="#4472c4"></rect><rect x="150" y="156.66207529843888" width="79.93954297215193" height="12.56198347107438" fill="#ed7d31"></rect><rect x="150" y="169.88521579430665" width="79.14994666709642" height="12.56198347107438" fill="#a5a5a5"></rect><rect x="150" y="183.10835629017444" width="55.98233954922039" height="12.56198347107438" fill="#ffc000"></rect><rect x="150" y="196.3314967860422" width="40.6856245350263" height="12.56198347107438" fill="#5b9bd5"></rect><rect x="150" y="209.55463728190998" width="2.177647640483949" height="12.56198347107438" fill="#70ad47"></rect><text class="label" x="243.1388629185216" y="151.9389348025711" font-size="10px">39x</text><text class="label" x="238.4395429721519" y="165.16207529843888" font-size="10px">37x</text><text class="label" x="237.6499466670964" y="178.38521579430665" font-size="10px">36x</text><text class="label" x="214.4823395492204" y="191.60835629017444" font-size="10px">26x</text><text class="label" x="199.1856245350263" y="204.8314967860422" font-size="10px">19x</text><text class="label" x="160.67764764048394" y="218.05463728190998" font-size="10px">1x</text><text class="label" x="239.6388629185216" y="153.4389348025711" font-size="8px"></text><text class="label" x="234.9395429721519" y="166.66207529843888" font-size="8px"></text><text class="label" x="234.1499466670964" y="179.88521579430665" font-size="8px"></text><text class="label" x="210.9823395492204" y="193.10835629017444" font-size="8px"></text><text class="label" x="195.6856245350263" y="206.3314967860422" font-size="8px"></text><text class="label" x="157.17764764048394" y="219.55463728190998" font-size="8px"></text></g><g style="font-size: 13px;"><rect x="150" y="232.32782369146003" width="70.16724530466189" height="12.56198347107438" fill="#4472c4"></rect><rect x="150" y="245.5509641873278" width="69.71544321155037" height="12.56198347107438" fill="#ed7d31"></rect><rect x="150" y="258.77410468319556" width="62.51096720346143" height="12.56198347107438" fill="#a5a5a5"></rect><rect x="150" y="271.9972451790633" width="49.23428483340804" height="12.56198347107438" fill="#ffc000"></rect><rect x="150" y="285.2203856749311" width="46.73943022021555" height="12.56198347107438" fill="#5b9bd5"></rect><rect x="150" y="298.44352617079886" width="2.177647640483949" height="12.56198347107438" fill="#70ad47"></rect><text class="label" x="228.6672453046619" y="240.82782369146003" font-size="10px">32x</text><text class="label" x="228.21544321155037" y="254.0509641873278" font-size="10px">32x</text><text class="label" x="221.01096720346143" y="267.27410468319556" font-size="10px">29x</text><text class="label" x="207.73428483340803" y="280.4972451790633" font-size="10px">23x</text><text class="label" x="205.23943022021555" y="293.7203856749311" font-size="10px">21x</text><text class="label" x="160.67764764048394" y="306.94352617079886" font-size="10px">1x</text><text class="label" x="225.1672453046619" y="242.32782369146003" font-size="8px"></text><text class="label" x="224.71544321155037" y="255.5509641873278" font-size="8px"></text><text class="label" x="217.51096720346143" y="268.77410468319556" font-size="8px"></text><text class="label" x="204.23428483340803" y="281.9972451790633" font-size="8px"></text><text class="label" x="201.73943022021555" y="295.2203856749311" font-size="8px"></text><text class="label" x="157.17764764048394" y="308.44352617079886" font-size="8px"></text></g><g style="font-size: 13px;"><rect x="150" y="321.2167125803489" width="117.95938535928966" height="12.56198347107438" fill="#4472c4"></rect><rect x="150" y="334.43985307621665" width="108.47229013807106" height="12.56198347107438" fill="#ed7d31"></rect><rect x="150" y="347.6629935720844" width="96.17713061416562" height="12.56198347107438" fill="#a5a5a5"></rect><rect x="150" y="360.8861340679522" width="88.66478645234216" height="12.56198347107438" fill="#ffc000"></rect><rect x="150" y="374.10927456381995" width="80.71745058320415" height="12.56198347107438" fill="#5b9bd5"></rect><rect x="150" y="387.3324150596877" width="2.177647640483949" height="12.56198347107438" fill="#70ad47"></rect><text class="label" x="276.4593853592896" y="329.7167125803489" font-size="10px">54x</text><text class="label" x="266.97229013807106" y="342.93985307621665" font-size="10px">50x</text><text class="label" x="254.6771306141656" y="356.1629935720844" font-size="10px">44x</text><text class="label" x="247.16478645234216" y="369.3861340679522" font-size="10px">41x</text><text class="label" x="239.21745058320414" y="382.60927456381995" font-size="10px">37x</text><text class="label" x="160.67764764048394" y="395.8324150596877" font-size="10px">1x</text><text class="label" x="272.9593853592896" y="331.2167125803489" font-size="8px"></text><text class="label" x="263.47229013807106" y="344.43985307621665" font-size="8px"></text><text class="label" x="251.1771306141656" y="357.6629935720844" font-size="8px"></text><text class="label" x="243.66478645234216" y="370.8861340679522" font-size="8px"></text><text class="label" x="235.71745058320414" y="384.10927456381995" font-size="8px"></text><text class="label" x="157.17764764048394" y="397.3324150596877" font-size="8px"></text></g><g style="font-size: 13px;"><rect x="150" y="410.1056014692378" width="26.722638764104527" height="12.56198347107438" fill="#4472c4"></rect><rect x="150" y="423.32874196510556" width="24.301337009972094" height="12.56198347107438" fill="#ed7d31"></rect><rect x="150" y="436.55188246097333" width="25.289284905663934" height="12.56198347107438" fill="#a5a5a5"></rect><rect x="150" y="449.7750229568411" width="29.421242842112914" height="12.56198347107438" fill="#ffc000"></rect><rect x="150" y="462.99816345270887" width="38.186412521752565" height="12.56198347107438" fill="#5b9bd5"></rect><rect x="150" y="476.22130394857663" width="2.177647640483949" height="12.56198347107438" fill="#70ad47"></rect><text class="label" x="185.22263876410452" y="418.6056014692378" font-size="10px">12x</text><text class="label" x="182.8013370099721" y="431.82874196510556" font-size="10px">11x</text><text class="label" x="183.78928490566392" y="445.05188246097333" font-size="10px">12x</text><text class="label" x="187.92124284211292" y="458.2750229568411" font-size="10px">14x</text><text class="label" x="196.68641252175257" y="471.49816345270887" font-size="10px">18x</text><text class="label" x="160.67764764048394" y="484.72130394857663" font-size="10px">1x</text><text class="label" x="181.72263876410452" y="420.1056014692378" font-size="8px"></text><text class="label" x="179.3013370099721" y="433.32874196510556" font-size="8px"></text><text class="label" x="180.28928490566392" y="446.55188246097333" font-size="8px"></text><text class="label" x="184.42124284211292" y="459.7750229568411" font-size="8px"></text><text class="label" x="193.18641252175257" y="472.99816345270887" font-size="8px"></text><text class="label" x="157.17764764048394" y="486.22130394857663" font-size="8px"></text></g><g style="font-size: 13px;"><rect x="150" y="498.9944903581267" width="54.24429746336759" height="12.56198347107438" fill="#4472c4"></rect><rect x="150" y="512.2176308539945" width="49.01730076302631" height="12.56198347107438" fill="#ed7d31"></rect><rect x="150" y="525.4407713498622" width="52.03981049384619" height="12.56198347107438" fill="#a5a5a5"></rect><rect x="150" y="538.66391184573" width="72.78330103254245" height="12.56198347107438" fill="#ffc000"></rect><rect x="150" y="551.8870523415978" width="46.48400166134656" height="12.56198347107438" fill="#5b9bd5"></rect><rect x="150" y="565.1101928374655" width="2.177647640483949" height="12.56198347107438" fill="#70ad47"></rect><text class="label" x="212.7442974633676" y="507.4944903581267" font-size="10px">25x</text><text class="label" x="207.5173007630263" y="520.7176308539945" font-size="10px">23x</text><text class="label" x="210.53981049384618" y="533.9407713498622" font-size="10px">24x</text><text class="label" x="231.28330103254245" y="547.16391184573" font-size="10px">33x</text><text class="label" x="204.98400166134655" y="560.3870523415978" font-size="10px">21x</text><text class="label" x="160.67764764048394" y="573.6101928374655" font-size="10px">1x</text><text class="label" x="209.2442974633676" y="508.9944903581267" font-size="8px"></text><text class="label" x="204.0173007630263" y="522.2176308539945" font-size="8px"></text><text class="label" x="207.03981049384618" y="535.4407713498622" font-size="8px"></text><text class="label" x="227.78330103254245" y="548.66391184573" font-size="8px"></text><text class="label" x="201.48400166134655" y="561.8870523415978" font-size="8px"></text><text class="label" x="157.17764764048394" y="575.1101928374655" font-size="8px"></text></g><g style="font-size: 13px;"><rect x="150" y="587.8833792470156" width="38.569720335759335" height="12.56198347107438" fill="#4472c4"></rect><rect x="150" y="601.1065197428833" width="41.85493966461421" height="12.56198347107438" fill="#ed7d31"></rect><rect x="150" y="614.3296602387511" width="40.06195855454745" height="12.56198347107438" fill="#a5a5a5"></rect><rect x="150" y="627.5528007346188" width="47.75539596905742" height="12.56198347107438" fill="#ffc000"></rect><rect x="150" y="640.7759412304866" width="44.06043106484238" height="12.56198347107438" fill="#5b9bd5"></rect><rect x="150" y="653.9990817263545" width="2.177647640483949" height="12.56198347107438" fill="#70ad47"></rect><text class="label" x="197.06972033575934" y="596.3833792470156" font-size="10px">18x</text><text class="label" x="200.35493966461422" y="609.6065197428833" font-size="10px">19x</text><text class="label" x="198.56195855454746" y="622.8296602387511" font-size="10px">18x</text><text class="label" x="206.25539596905742" y="636.0528007346188" font-size="10px">22x</text><text class="label" x="202.5604310648424" y="649.2759412304866" font-size="10px">20x</text><text class="label" x="160.67764764048394" y="662.4990817263545" font-size="10px">1x</text><text class="label" x="193.56972033575934" y="597.8833792470156" font-size="8px"></text><text class="label" x="196.85493966461422" y="611.1065197428833" font-size="8px"></text><text class="label" x="195.06195855454746" y="624.3296602387511" font-size="8px"></text><text class="label" x="202.75539596905742" y="637.5528007346188" font-size="8px"></text><text class="label" x="199.0604310648424" y="650.7759412304866" font-size="8px"></text><text class="label" x="157.17764764048394" y="663.9990817263545" font-size="8px"></text></g><g style="font-size: 13px;"><rect x="150" y="676.7722681359045" width="39.78900044731235" height="12.56198347107438" fill="#4472c4"></rect><rect x="150" y="689.9954086317722" width="33.735869334429495" height="12.56198347107438" fill="#ed7d31"></rect><rect x="150" y="703.21854912764" width="37.39654215966693" height="12.56198347107438" fill="#a5a5a5"></rect><rect x="150" y="716.4416896235077" width="60.7781881961936" height="12.56198347107438" fill="#ffc000"></rect><rect x="150" y="729.6648301193756" width="62.46186739791508" height="12.56198347107438" fill="#5b9bd5"></rect><rect x="150" y="742.8879706152434" width="2.177647640483949" height="12.56198347107438" fill="#70ad47"></rect><text class="label" x="198.28900044731233" y="685.2722681359045" font-size="10px">18x</text><text class="label" x="192.23586933442948" y="698.4954086317722" font-size="10px">15x</text><text class="label" x="195.89654215966692" y="711.71854912764" font-size="10px">17x</text><text class="label" x="219.27818819619358" y="724.9416896235077" font-size="10px">28x</text><text class="label" x="220.96186739791509" y="738.1648301193756" font-size="10px">29x</text><text class="label" x="160.67764764048394" y="751.3879706152434" font-size="10px">1x</text><text class="label" x="194.78900044731233" y="686.7722681359045" font-size="8px"></text><text class="label" x="188.73586933442948" y="699.9954086317722" font-size="8px"></text><text class="label" x="192.39654215966692" y="713.21854912764" font-size="8px"></text><text class="label" x="215.77818819619358" y="726.4416896235077" font-size="8px"></text><text class="label" x="217.46186739791509" y="739.6648301193756" font-size="8px"></text><text class="label" x="157.17764764048394" y="752.8879706152434" font-size="8px"></text></g></g></svg>