<svg xmlns="http://www.w3.org/2000/svg" xmlns:xlink="http://www.w3.org/1999/xlink" width="800" height="390" style="background-color: white;"><g class="y axis" transform="translate(149,45)" fill="none" font-size="10" font-family="sans-serif" text-anchor="end" style="font-size: 13px;"><path class="domain" stroke="currentColor" d="M0.5,0.5V315.5"></path><g class="tick" opacity="1" transform="translate(0,24.40140845070425)" style="font-size: 13px;"><line stroke="currentColor" x2="0"></line><text fill="currentColor" x="-3" dy="0.32em">object (hierarchical)    </text></g><g class="tick" opacity="1" transform="translate(0,68.76760563380283)" style="font-size: 13px;"><line stroke="currentColor" x2="0"></line><text fill="currentColor" x="-3" dy="0.32em">object (recursive)    </text></g><g class="tick" opacity="1" transform="translate(0,113.13380281690142)" style="font-size: 13px;"><line stroke="currentColor" x2="0"></line><text fill="currentColor" x="-3" dy="0.32em">object (union)    </text></g><g class="tick" opacity="1" transform="translate(0,157.5)" style="font-size: 13px;"><line stroke="currentColor" x2="0"></line><text fill="currentColor" x="-3" dy="0.32em">array (hierarchical)    </text></g><g class="tick" opacity="1" transform="translate(0,201.8661971830986)" style="font-size: 13px;"><line stroke="currentColor" x2="0"></line><text fill="currentColor" x="-3" dy="0.32em">array (recursive)    </text></g><g class="tick" opacity="1" transform="translate(0,246.23239436619718)" style="font-size: 13px;"><line stroke="currentColor" x2="0"></line><text fill="currentColor" x="-3" dy="0.32em">array (union)    </text></g><g class="tick" opacity="1" transform="translate(0,290.59859154929575)" style="font-size: 13px;"><line stroke="currentColor" x2="0"></line><text fill="currentColor" x="-3" dy="0.32em">ultimate union    </text></g></g><g class="x axis" transform="translate(149,360)" fill="none" font-size="10" font-family="sans-serif" text-anchor="middle" style="font-size: 13px;"><path class="domain" stroke="currentColor" d="M0.5,0.5H485.5"></path><g class="tick" opacity="1" transform="translate(0.5,0)" style="font-size: 13px;"><line stroke="currentColor" y2="6"></line><text fill="currentColor" y="9" dy="0.71em">0x</text></g><g class="tick" opacity="1" transform="translate(126.3461681310462,0)" style="font-size: 13px;"><line stroke="currentColor" y2="6"></line><text fill="currentColor" y="9" dy="0.71em">10,000x</text></g><g class="tick" opacity="1" transform="translate(252.1923362620924,0)" style="font-size: 13px;"><line stroke="currentColor" y2="6"></line><text fill="currentColor" y="9" dy="0.71em">20,000x</text></g><g class="tick" opacity="1" transform="translate(378.0385043931386,0)" style="font-size: 13px;"><line stroke="currentColor" y2="6"></line><text fill="currentColor" y="9" dy="0.71em">30,000x</text></g></g><text transform="translate(400, 30)" style="text-anchor: middle; font-size: 20px; font-weight: bold;">optimizer benchmark</text><rect x="680" y="105" width="200" height="5" fill="gray"></rect><rect x="675" y="35" width="200" height="70" fill="none" stroke="black"></rect><rect x="685" y="45" width="10" height="10" style="fill: #4472c4;"></rect><text x="700" y="55" style="font-size: 12px;">typescript-json</text><rect x="685" y="65" width="10" height="10" style="fill: #ed7d31;"></rect><text x="700" y="75" style="font-size: 12px;">typebox</text><rect x="685" y="85" width="10" height="10" style="fill: #a5a5a5;"></rect><text x="700" y="95" style="font-size: 12px;">ajv</text><g style="font-size: 13px;"><g style="font-size: 13px;"><rect x="150" y="50.091202955437566" width="440.9090909090908" height="12.437081505425995" fill="#4472c4"></rect><rect x="150" y="63.18286769799125" width="0.4425105220159128" height="12.437081505425995" fill="#ed7d31"></rect><rect x="150" y="76.27453244054493" width="0.01258461681310462" height="12.437081505425995" fill="#a5a5a5"></rect><text class="label" x="599.4090909090908" y="58.591202955437566" font-size="10px">35,036x</text><text class="label" x="158.9425105220159" y="71.68286769799124" font-size="10px">35x</text><text class="label" x="158.51258461681311" y="84.77453244054493" font-size="10px">1x</text><text class="label" x="595.9090909090908" y="60.091202955437566" font-size="8px"></text><text class="label" x="155.4425105220159" y="73.18286769799124" font-size="8px"></text><text class="label" x="155.01258461681311" y="86.27453244054493" font-size="8px"></text></g><g style="font-size: 13px;"><rect x="150" y="94.45740013853616" width="152.2706772651019" height="12.437081505425995" fill="#4472c4"></rect><rect x="150" y="107.54906488108983" width="1.0865357448246498" height="12.437081505425995" fill="#ed7d31"></rect><rect x="150" y="120.64072962364352" width="0.01258461681310462" height="12.437081505425995" fill="#a5a5a5"></rect><text class="label" x="310.7706772651019" y="102.95740013853616" font-size="10px">12,100x</text><text class="label" x="159.58653574482466" y="116.04906488108983" font-size="10px">86x</text><text class="label" x="158.51258461681311" y="129.14072962364352" font-size="10px">1x</text><text class="label" x="307.2706772651019" y="104.45740013853616" font-size="8px"></text><text class="label" x="156.08653574482466" y="117.54906488108983" font-size="8px"></text><text class="label" x="155.01258461681311" y="130.64072962364352" font-size="8px"></text></g><g style="font-size: 13px;"><rect x="150" y="138.82359732163474" width="46.34623229942567" height="12.437081505425995" fill="#4472c4"></rect><rect x="150" y="151.91526206418843" width="0.2441642411594785" height="12.437081505425995" fill="#ed7d31"></rect><rect x="150" y="165.00692680674211" width="0.01258461681310462" height="12.437081505425995" fill="#a5a5a5"></rect><text class="label" x="204.84623229942568" y="147.32359732163474" font-size="10px">3,683x</text><text class="label" x="158.74416424115947" y="160.41526206418843" font-size="10px">19x</text><text class="label" x="158.51258461681311" y="173.50692680674211" font-size="10px">1x</text><text class="label" x="201.34623229942568" y="148.82359732163474" font-size="8px"></text><text class="label" x="155.24416424115947" y="161.91526206418843" font-size="8px"></text><text class="label" x="155.01258461681311" y="175.00692680674211" font-size="8px"></text></g><g style="font-size: 13px;"><rect x="150" y="183.18979450473333" width="32.56334301221774" height="12.437081505425995" fill="#4472c4"></rect><rect x="150" y="196.281459247287" width="1.7760081125481022" height="12.437081505425995" fill="#ed7d31"></rect><rect x="150" y="209.37312398984068" width="0.01258461681310462" height="12.437081505425995" fill="#a5a5a5"></rect><text class="label" x="191.06334301221773" y="191.68979450473333" font-size="10px">2,588x</text><text class="label" x="160.2760081125481" y="204.781459247287" font-size="10px">141x</text><text class="label" x="158.51258461681311" y="217.87312398984068" font-size="10px">1x</text><text class="label" x="187.56334301221773" y="193.18979450473333" font-size="8px"></text><text class="label" x="156.7760081125481" y="206.281459247287" font-size="8px"></text><text class="label" x="155.01258461681311" y="219.37312398984068" font-size="8px"></text></g><g style="font-size: 13px;"><rect x="150" y="227.55599168783192" width="8.113525934127171" height="12.437081505425995" fill="#4472c4"></rect><rect x="150" y="240.64765643038558" width="0.9756693268000495" height="12.437081505425995" fill="#ed7d31"></rect><rect x="150" y="253.73932117293927" width="0.01258461681310462" height="12.437081505425995" fill="#a5a5a5"></rect><text class="label" x="166.61352593412718" y="236.05599168783192" font-size="10px">645x</text><text class="label" x="159.47566932680004" y="249.14765643038558" font-size="10px">78x</text><text class="label" x="158.51258461681311" y="262.2393211729393" font-size="10px">1x</text><text class="label" x="163.11352593412718" y="237.55599168783192" font-size="8px"></text><text class="label" x="155.97566932680004" y="250.64765643038558" font-size="8px"></text><text class="label" x="155.01258461681311" y="263.7393211729393" font-size="8px"></text></g><g style="font-size: 13px;"><rect x="150" y="271.92218887093054" width="7.939294208599412" height="12.437081505425995" fill="#4472c4"></rect><rect x="150" y="285.0138536134842" width="0.47291801917239235" height="12.437081505425995" fill="#ed7d31"></rect><rect x="150" y="298.10551835603786" width="0.01258461681310462" height="12.437081505425995" fill="#a5a5a5"></rect><text class="label" x="166.43929420859942" y="280.42218887093054" font-size="10px">631x</text><text class="label" x="158.9729180191724" y="293.5138536134842" font-size="10px">38x</text><text class="label" x="158.51258461681311" y="306.60551835603786" font-size="10px">1x</text><text class="label" x="162.93929420859942" y="281.92218887093054" font-size="8px"></text><text class="label" x="155.4729180191724" y="295.0138536134842" font-size="8px"></text><text class="label" x="155.01258461681311" y="308.10551835603786" font-size="8px"></text></g><g style="font-size: 13px;"><rect x="150" y="316.28838605402905" width="7.8818772033367726" height="12.437081505425995" fill="#4472c4"></rect><rect x="150" y="329.38005079658274" width="0.15318325636697366" height="12.437081505425995" fill="#ed7d31"></rect><rect x="150" y="342.4717155391364" width="0.01258461681310462" height="12.437081505425995" fill="#a5a5a5"></rect><text class="label" x="166.38187720333678" y="324.78838605402905" font-size="10px">626x</text><text class="label" x="158.653183256367" y="337.88005079658274" font-size="10px">12x</text><text class="label" x="158.51258461681311" y="350.9717155391364" font-size="10px">1x</text><text class="label" x="162.88187720333678" y="326.28838605402905" font-size="8px"></text><text class="label" x="155.153183256367" y="339.38005079658274" font-size="8px"></text><text class="label" x="155.01258461681311" y="352.4717155391364" font-size="8px"></text></g></g></svg>