<svg xmlns="http://www.w3.org/2000/svg" xmlns:xlink="http://www.w3.org/1999/xlink" width="800" height="675" style="background-color: white;"><g class="y axis" transform="translate(149,45)" fill="none" font-size="10" font-family="sans-serif" text-anchor="end" style="font-size: 13px;"><path class="domain" stroke="currentColor" d="M0.5,0.5V600.5"></path><g class="tick" opacity="1" transform="translate(0,40.740740740740726)" style="font-size: 13px;"><line stroke="currentColor" x2="0"></line><text fill="currentColor" x="-3" dy="0.32em">object (simple)    </text></g><g class="tick" opacity="1" transform="translate(0,114.81481481481481)" style="font-size: 13px;"><line stroke="currentColor" x2="0"></line><text fill="currentColor" x="-3" dy="0.32em">object (hierarchical)    </text></g><g class="tick" opacity="1" transform="translate(0,188.88888888888889)" style="font-size: 13px;"><line stroke="currentColor" x2="0"></line><text fill="currentColor" x="-3" dy="0.32em">object (recursive)    </text></g><g class="tick" opacity="1" transform="translate(0,262.96296296296293)" style="font-size: 13px;"><line stroke="currentColor" x2="0"></line><text fill="currentColor" x="-3" dy="0.32em">object (union)    </text></g><g class="tick" opacity="1" transform="translate(0,337.037037037037)" style="font-size: 13px;"><line stroke="currentColor" x2="0"></line><text fill="currentColor" x="-3" dy="0.32em">array (simple)    </text></g><g class="tick" opacity="1" transform="translate(0,411.1111111111111)" style="font-size: 13px;"><line stroke="currentColor" x2="0"></line><text fill="currentColor" x="-3" dy="0.32em">array (hierarchical)    </text></g><g class="tick" opacity="1" transform="translate(0,485.18518518518516)" style="font-size: 13px;"><line stroke="currentColor" x2="0"></line><text fill="currentColor" x="-3" dy="0.32em">array (recursive)    </text></g><g class="tick" opacity="1" transform="translate(0,559.2592592592592)" style="font-size: 13px;"><line stroke="currentColor" x2="0"></line><text fill="currentColor" x="-3" dy="0.32em">array (union)    </text></g></g><g class="x axis" transform="translate(149,645)" fill="none" font-size="10" font-family="sans-serif" text-anchor="middle" style="font-size: 13px;"><path class="domain" stroke="currentColor" d="M0.5,0.5H485.5"></path><g class="tick" opacity="1" transform="translate(0.5,0)" style="font-size: 13px;"><line stroke="currentColor" y2="6"></line><text fill="currentColor" y="9" dy="0.71em">0x</text></g><g class="tick" opacity="1" transform="translate(124.49541008843322,0)" style="font-size: 13px;"><line stroke="currentColor" y2="6"></line><text fill="currentColor" y="9" dy="0.71em">0.5x</text></g><g class="tick" opacity="1" transform="translate(248.49082017686644,0)" style="font-size: 13px;"><line stroke="currentColor" y2="6"></line><text fill="currentColor" y="9" dy="0.71em">1x</text></g><g class="tick" opacity="1" transform="translate(372.4862302652997,0)" style="font-size: 13px;"><line stroke="currentColor" y2="6"></line><text fill="currentColor" y="9" dy="0.71em">1.5x</text></g></g><text transform="translate(400, 30)" style="text-anchor: middle; font-size: 20px; font-weight: bold;">stringify (server) benchmark</text><rect x="680" y="145" width="200" height="5" fill="gray"></rect><rect x="675" y="35" width="200" height="110" fill="none" stroke="black"></rect><rect x="685" y="45" width="10" height="10" style="fill: #4472c4;"></rect><text x="700" y="55" style="font-size: 12px;">express (pure)</text><rect x="685" y="65" width="10" height="10" style="fill: #ed7d31;"></rect><text x="700" y="75" style="font-size: 12px;">express (typia.stringify)</text><rect x="685" y="85" width="10" height="10" style="fill: #a5a5a5;"></rect><text x="700" y="95" style="font-size: 12px;">express (typia.isStringify)</text><rect x="685" y="105" width="10" height="10" style="fill: #ffc000;"></rect><text x="700" y="115" style="font-size: 12px;">express (typia.assertStringify)</text><rect x="685" y="125" width="10" height="10" style="fill: #5b9bd5;"></rect><text x="700" y="135" style="font-size: 12px;">fastify</text><g style="font-size: 13px;"><g style="font-size: 13px;"><rect x="150" y="53.06747341400805" width="247.99082017686644" height="12.541254125412543" fill="#4472c4"></rect><rect x="150" y="66.26879354602124" width="328.44687123629086" height="12.541254125412543" fill="#ed7d31"></rect><rect x="150" y="79.47011367803445" width="330.13593839298557" height="12.541254125412543" fill="#a5a5a5"></rect><rect x="150" y="92.67143381004766" width="288.0891920246215" height="12.541254125412543" fill="#ffc000"></rect><rect x="150" y="105.87275394206085" width="440.9090909090908" height="12.541254125412543" fill="#5b9bd5"></rect><text class="label" x="406.49082017686646" y="61.56747341400805" font-size="10px">1x</text><text class="label" x="486.94687123629086" y="74.76879354602124" font-size="10px">1.32x</text><text class="label" x="488.63593839298557" y="87.97011367803445" font-size="10px">1.33x</text><text class="label" x="446.5891920246215" y="101.17143381004766" font-size="10px">1.16x</text><text class="label" x="599.4090909090908" y="114.37275394206085" font-size="10px">1.78x</text><text class="label" x="402.99082017686646" y="63.06747341400805" font-size="8px"></text><text class="label" x="483.44687123629086" y="76.26879354602124" font-size="8px"></text><text class="label" x="485.13593839298557" y="89.47011367803445" font-size="8px"></text><text class="label" x="443.0891920246215" y="102.67143381004766" font-size="8px"></text><text class="label" x="595.9090909090908" y="115.87275394206085" font-size="8px"></text></g><g style="font-size: 13px;"><rect x="150" y="127.14154748808213" width="247.99082017686644" height="12.541254125412543" fill="#4472c4"></rect><rect x="150" y="140.34286762009532" width="266.3294777243051" height="12.541254125412543" fill="#ed7d31"></rect><rect x="150" y="153.54418775210854" width="263.55127362910093" height="12.541254125412543" fill="#a5a5a5"></rect><rect x="150" y="166.74550788412174" width="256.60918176988577" height="12.541254125412543" fill="#ffc000"></rect><rect x="150" y="179.94682801613493" width="318.46430746208256" height="12.541254125412543" fill="#5b9bd5"></rect><text class="label" x="406.49082017686646" y="135.64154748808213" font-size="10px">1x</text><text class="label" x="424.8294777243051" y="148.84286762009532" font-size="10px">1.07x</text><text class="label" x="422.05127362910093" y="162.04418775210854" font-size="10px">1.06x</text><text class="label" x="415.10918176988577" y="175.24550788412174" font-size="10px">1.03x</text><text class="label" x="476.96430746208256" y="188.44682801613493" font-size="10px">1.28x</text><text class="label" x="402.99082017686646" y="137.14154748808213" font-size="8px"></text><text class="label" x="421.3294777243051" y="150.34286762009532" font-size="8px"></text><text class="label" x="418.55127362910093" y="163.54418775210854" font-size="8px"></text><text class="label" x="411.60918176988577" y="176.74550788412174" font-size="8px"></text><text class="label" x="473.46430746208256" y="189.94682801613493" font-size="8px"></text></g><g style="font-size: 13px;"><rect x="150" y="201.2156215621562" width="247.99082017686644" height="12.541254125412543" fill="#4472c4"></rect><rect x="150" y="214.4169416941694" width="273.6638046201635" height="12.541254125412543" fill="#ed7d31"></rect><rect x="150" y="227.61826182618262" width="276.70641976469943" height="12.541254125412543" fill="#a5a5a5"></rect><rect x="150" y="240.8195819581958" width="257.75181799030105" height="12.541254125412543" fill="#ffc000"></rect><rect x="150" y="254.020902090209" width="296.78147992136024" height="12.541254125412543" fill="#5b9bd5"></rect><text class="label" x="406.49082017686646" y="209.7156215621562" font-size="10px">1x</text><text class="label" x="432.1638046201635" y="222.9169416941694" font-size="10px">1.1x</text><text class="label" x="435.20641976469943" y="236.11826182618262" font-size="10px">1.12x</text><text class="label" x="416.25181799030105" y="249.3195819581958" font-size="10px">1.04x</text><text class="label" x="455.28147992136024" y="262.520902090209" font-size="10px">1.2x</text><text class="label" x="402.99082017686646" y="211.2156215621562" font-size="8px"></text><text class="label" x="428.6638046201635" y="224.4169416941694" font-size="8px"></text><text class="label" x="431.70641976469943" y="237.61826182618262" font-size="8px"></text><text class="label" x="412.75181799030105" y="250.8195819581958" font-size="8px"></text><text class="label" x="451.78147992136024" y="264.020902090209" font-size="8px"></text></g><g style="font-size: 13px;"><rect x="150" y="275.28969563623025" width="288.549768539676" height="12.541254125412543" fill="#4472c4"></rect><rect x="150" y="288.49101576824347" width="428.3967908911402" height="12.541254125412543" fill="#ed7d31"></rect><rect x="150" y="301.6923359002567" width="407.4441450536172" height="12.541254125412543" fill="#a5a5a5"></rect><rect x="150" y="314.89365603226986" width="360.00279204136626" height="12.541254125412543" fill="#ffc000"></rect><rect x="150" y="328.0949761642831" width="247.99082017686644" height="12.541254125412543" fill="#5b9bd5"></rect><text class="label" x="447.049768539676" y="283.78969563623025" font-size="10px">1.16x</text><text class="label" x="586.8967908911402" y="296.99101576824347" font-size="10px">1.73x</text><text class="label" x="565.9441450536171" y="310.1923359002567" font-size="10px">1.64x</text><text class="label" x="518.5027920413663" y="323.39365603226986" font-size="10px">1.45x</text><text class="label" x="406.49082017686646" y="336.5949761642831" font-size="10px">1x</text><text class="label" x="443.549768539676" y="285.28969563623025" font-size="8px"></text><text class="label" x="583.3967908911402" y="298.49101576824347" font-size="8px"></text><text class="label" x="562.4441450536171" y="311.6923359002567" font-size="8px"></text><text class="label" x="515.0027920413663" y="324.89365603226986" font-size="8px"></text><text class="label" x="402.99082017686646" y="338.0949761642831" font-size="8px"></text></g><g style="font-size: 13px;"><rect x="150" y="349.3637697103044" width="261.05351442972886" height="12.541254125412543" fill="#4472c4"></rect><rect x="150" y="362.56508984231755" width="290.0696665658689" height="12.541254125412543" fill="#ed7d31"></rect><rect x="150" y="375.76640997433077" width="272.1440935339247" height="12.541254125412543" fill="#a5a5a5"></rect><rect x="150" y="388.967730106344" width="255.58498387739488" height="12.541254125412543" fill="#ffc000"></rect><rect x="150" y="402.16905023835716" width="247.99082017686644" height="12.541254125412543" fill="#5b9bd5"></rect><text class="label" x="419.55351442972886" y="357.8637697103044" font-size="10px">1.05x</text><text class="label" x="448.5696665658689" y="371.06508984231755" font-size="10px">1.17x</text><text class="label" x="430.6440935339247" y="384.26640997433077" font-size="10px">1.1x</text><text class="label" x="414.08498387739485" y="397.467730106344" font-size="10px">1.03x</text><text class="label" x="406.49082017686646" y="410.66905023835716" font-size="10px">1x</text><text class="label" x="416.05351442972886" y="359.3637697103044" font-size="8px"></text><text class="label" x="445.0696665658689" y="372.56508984231755" font-size="8px"></text><text class="label" x="427.1440935339247" y="385.76640997433077" font-size="8px"></text><text class="label" x="410.58498387739485" y="398.967730106344" font-size="8px"></text><text class="label" x="402.99082017686646" y="412.16905023835716" font-size="8px"></text></g><g style="font-size: 13px;"><rect x="150" y="423.4378437843784" width="275.59008451992014" height="12.541254125412543" fill="#4472c4"></rect><rect x="150" y="436.6391639163916" width="389.9527173485278" height="12.541254125412543" fill="#ed7d31"></rect><rect x="150" y="449.84048404840485" width="359.01615920069474" height="12.541254125412543" fill="#a5a5a5"></rect><rect x="150" y="463.041804180418" width="247.99082017686644" height="12.541254125412543" fill="#ffc000"></rect><rect x="150" y="476.24312431243123" width="251.55801660988135" height="12.541254125412543" fill="#5b9bd5"></rect><text class="label" x="434.09008451992014" y="431.9378437843784" font-size="10px">1.11x</text><text class="label" x="548.4527173485278" y="445.1391639163916" font-size="10px">1.57x</text><text class="label" x="517.5161592006948" y="458.34048404840485" font-size="10px">1.45x</text><text class="label" x="406.49082017686646" y="471.541804180418" font-size="10px">1x</text><text class="label" x="410.05801660988135" y="484.74312431243123" font-size="10px">1.01x</text><text class="label" x="430.59008451992014" y="433.4378437843784" font-size="8px"></text><text class="label" x="544.9527173485278" y="446.6391639163916" font-size="8px"></text><text class="label" x="514.0161592006948" y="459.84048404840485" font-size="8px"></text><text class="label" x="402.99082017686646" y="473.041804180418" font-size="8px"></text><text class="label" x="406.55801660988135" y="486.24312431243123" font-size="8px"></text></g><g style="font-size: 13px;"><rect x="150" y="497.51191785845253" width="247.99082017686644" height="12.541254125412543" fill="#4472c4"></rect><rect x="150" y="510.7132379904657" width="289.3641951032713" height="12.541254125412543" fill="#ed7d31"></rect><rect x="150" y="523.9145581224789" width="304.7467876928274" height="12.541254125412543" fill="#a5a5a5"></rect><rect x="150" y="537.1158782544921" width="288.66982282682284" height="12.541254125412543" fill="#ffc000"></rect><rect x="150" y="550.3171983865053" width="262.96593946197584" height="12.541254125412543" fill="#5b9bd5"></rect><text class="label" x="406.49082017686646" y="506.01191785845253" font-size="10px">1x</text><text class="label" x="447.8641951032713" y="519.2132379904657" font-size="10px">1.17x</text><text class="label" x="463.2467876928274" y="532.4145581224789" font-size="10px">1.23x</text><text class="label" x="447.16982282682284" y="545.6158782544921" font-size="10px">1.16x</text><text class="label" x="421.46593946197584" y="558.8171983865053" font-size="10px">1.06x</text><text class="label" x="402.99082017686646" y="507.51191785845253" font-size="8px"></text><text class="label" x="444.3641951032713" y="520.7132379904657" font-size="8px"></text><text class="label" x="459.7467876928274" y="533.9145581224789" font-size="8px"></text><text class="label" x="443.66982282682284" y="547.1158782544921" font-size="8px"></text><text class="label" x="417.96593946197584" y="560.3171983865053" font-size="8px"></text></g><g style="font-size: 13px;"><rect x="150" y="571.5859919325266" width="322.2475761740661" height="12.541254125412543" fill="#4472c4"></rect><rect x="150" y="584.7873120645397" width="266.0281557770454" height="12.541254125412543" fill="#ed7d31"></rect><rect x="150" y="597.9886321965529" width="261.11091623354656" height="12.541254125412543" fill="#a5a5a5"></rect><rect x="150" y="611.1899523285662" width="258.2138381119878" height="12.541254125412543" fill="#ffc000"></rect><rect x="150" y="624.3912724605793" width="247.99082017686644" height="12.541254125412543" fill="#5b9bd5"></rect><text class="label" x="480.7475761740661" y="580.0859919325266" font-size="10px">1.3x</text><text class="label" x="424.5281557770454" y="593.2873120645397" font-size="10px">1.07x</text><text class="label" x="419.61091623354656" y="606.4886321965529" font-size="10px">1.05x</text><text class="label" x="416.7138381119878" y="619.6899523285662" font-size="10px">1.04x</text><text class="label" x="406.49082017686646" y="632.8912724605793" font-size="10px">1x</text><text class="label" x="477.2475761740661" y="581.5859919325266" font-size="8px"></text><text class="label" x="421.0281557770454" y="594.7873120645397" font-size="8px"></text><text class="label" x="416.11091623354656" y="607.9886321965529" font-size="8px"></text><text class="label" x="413.2138381119878" y="621.1899523285662" font-size="8px"></text><text class="label" x="402.99082017686646" y="634.3912724605793" font-size="8px"></text></g></g></svg>