<svg xmlns="http://www.w3.org/2000/svg" xmlns:xlink="http://www.w3.org/1999/xlink" width="800" height="885" style="background-color: white;"><g class="y axis" transform="translate(149,45)" fill="none" font-size="10" font-family="sans-serif" text-anchor="end" style="font-size: 13px;"><path class="domain" stroke="currentColor" d="M0.5,0.5V810.5"></path><g class="tick" opacity="1" transform="translate(0,48.95604395604397)" style="font-size: 13px;"><line stroke="currentColor" x2="0"></line><text fill="currentColor" x="-3" dy="0.32em">object (simple)    </text></g><g class="tick" opacity="1" transform="translate(0,137.967032967033)" style="font-size: 13px;"><line stroke="currentColor" x2="0"></line><text fill="currentColor" x="-3" dy="0.32em">object (hierarchical)    </text></g><g class="tick" opacity="1" transform="translate(0,226.97802197802199)" style="font-size: 13px;"><line stroke="currentColor" x2="0"></line><text fill="currentColor" x="-3" dy="0.32em">object (recursive)    </text></g><g class="tick" opacity="1" transform="translate(0,315.989010989011)" style="font-size: 13px;"><line stroke="currentColor" x2="0"></line><text fill="currentColor" x="-3" dy="0.32em">object (union, explicit)    </text></g><g class="tick" opacity="1" transform="translate(0,405)" style="font-size: 13px;"><line stroke="currentColor" x2="0"></line><text fill="currentColor" x="-3" dy="0.32em">object (union, implicit)    </text></g><g class="tick" opacity="1" transform="translate(0,494.010989010989)" style="font-size: 13px;"><line stroke="currentColor" x2="0"></line><text fill="currentColor" x="-3" dy="0.32em">array (recursive)    </text></g><g class="tick" opacity="1" transform="translate(0,583.021978021978)" style="font-size: 13px;"><line stroke="currentColor" x2="0"></line><text fill="currentColor" x="-3" dy="0.32em">array (union, explicit)    </text></g><g class="tick" opacity="1" transform="translate(0,672.0329670329671)" style="font-size: 13px;"><line stroke="currentColor" x2="0"></line><text fill="currentColor" x="-3" dy="0.32em">array (union, implicit)    </text></g><g class="tick" opacity="1" transform="translate(0,761.043956043956)" style="font-size: 13px;"><line stroke="currentColor" x2="0"></line><text fill="currentColor" x="-3" dy="0.32em">ultimate union    </text></g></g><g class="x axis" transform="translate(149,855)" fill="none" font-size="10" font-family="sans-serif" text-anchor="middle" style="font-size: 13px;"><path class="domain" stroke="currentColor" d="M0.5,0.5H485.5"></path><g class="tick" opacity="1" transform="translate(0.5,0)" style="font-size: 13px;"><line stroke="currentColor" y2="6"></line><text fill="currentColor" y="9" dy="0.71em">0x</text></g><g class="tick" opacity="1" transform="translate(74.20261973907232,0)" style="font-size: 13px;"><line stroke="currentColor" y2="6"></line><text fill="currentColor" y="9" dy="0.71em">2,000x</text></g><g class="tick" opacity="1" transform="translate(147.90523947814464,0)" style="font-size: 13px;"><line stroke="currentColor" y2="6"></line><text fill="currentColor" y="9" dy="0.71em">4,000x</text></g><g class="tick" opacity="1" transform="translate(221.60785921721697,0)" style="font-size: 13px;"><line stroke="currentColor" y2="6"></line><text fill="currentColor" y="9" dy="0.71em">6,000x</text></g><g class="tick" opacity="1" transform="translate(295.3104789562893,0)" style="font-size: 13px;"><line stroke="currentColor" y2="6"></line><text fill="currentColor" y="9" dy="0.71em">8,000x</text></g><g class="tick" opacity="1" transform="translate(369.0130986953616,0)" style="font-size: 13px;"><line stroke="currentColor" y2="6"></line><text fill="currentColor" y="9" dy="0.71em">10,000x</text></g><g class="tick" opacity="1" transform="translate(442.71571843443394,0)" style="font-size: 13px;"><line stroke="currentColor" y2="6"></line><text fill="currentColor" y="9" dy="0.71em">12,000x</text></g></g><text transform="translate(400, 30)" style="text-anchor: middle; font-size: 20px; font-weight: bold;">is benchmark</text><rect x="680" y="165" width="200" height="5" fill="gray"></rect><rect x="675" y="35" width="200" height="130" fill="none" stroke="black"></rect><rect x="685" y="45" width="10" height="10" style="fill: #4472c4;"></rect><text x="700" y="55" style="font-size: 12px;">typescript-json</text><rect x="685" y="65" width="10" height="10" style="fill: #ed7d31;"></rect><text x="700" y="75" style="font-size: 12px;">typebox</text><rect x="685" y="85" width="10" height="10" style="fill: #a5a5a5;"></rect><text x="700" y="95" style="font-size: 12px;">ajv</text><rect x="685" y="105" width="10" height="10" style="fill: #ffc000;"></rect><text x="700" y="115" style="font-size: 12px;">io-ts</text><rect x="685" y="125" width="10" height="10" style="fill: #5b9bd5;"></rect><text x="700" y="135" style="font-size: 12px;">zod</text><rect x="685" y="145" width="10" height="10" style="fill: #70ad47;"></rect><text x="700" y="155" style="font-size: 12px;">class-validator</text><g style="font-size: 13px;"><g style="font-size: 13px;"><rect x="150" y="54.563164108618665" width="266.60768747695835" height="12.579238942875305" fill="#4472c4"></rect><rect x="150" y="67.80446825901373" width="440.9090909090908" height="12.579238942875305" fill="#ed7d31"></rect><rect x="150" y="81.04577240940878" width="135.15142448948907" height="12.579238942875305" fill="#a5a5a5"></rect><rect x="150" y="94.28707655980384" width="11.746274833345241" height="12.579238942875305" fill="#ffc000"></rect><rect x="150" y="107.5283807101989" width="1.1243092329189013" height="12.579238942875305" fill="#5b9bd5"></rect><rect x="150" y="120.76968486059396" width="0.036851309869536164" height="12.579238942875305" fill="#70ad47"></rect><text class="label" x="425.10768747695835" y="63.063164108618665" font-size="10px">7,235x</text><text class="label" x="599.4090909090908" y="76.30446825901373" font-size="10px">11,965x</text><text class="label" x="293.65142448948905" y="89.54577240940878" font-size="10px">3,667x</text><text class="label" x="170.24627483334524" y="102.78707655980384" font-size="10px">319x</text><text class="label" x="159.6243092329189" y="116.0283807101989" font-size="10px">31x</text><text class="label" x="158.53685130986955" y="129.26968486059394" font-size="10px">1x</text><text class="label" x="421.60768747695835" y="64.56316410861866" font-size="8px"></text><text class="label" x="595.9090909090908" y="77.80446825901373" font-size="8px"></text><text class="label" x="290.15142448948905" y="91.04577240940878" font-size="8px"></text><text class="label" x="166.74627483334524" y="104.28707655980384" font-size="8px"></text><text class="label" x="156.1243092329189" y="117.5283807101989" font-size="8px"></text><text class="label" x="155.03685130986955" y="130.76968486059394" font-size="8px"></text></g><g style="font-size: 13px;"><rect x="150" y="143.57415311960767" width="141.1866591942781" height="12.579238942875305" fill="#4472c4"></rect><rect x="150" y="156.81545727000272" width="165.19280816520177" height="12.579238942875305" fill="#ed7d31"></rect><rect x="150" y="170.05676142039778" width="47.1506380840637" height="12.579238942875305" fill="#a5a5a5"></rect><rect x="150" y="183.29806557079286" width="8.947699071804987" height="12.579238942875305" fill="#ffc000"></rect><rect x="150" y="196.5393697211879" width="0.4441985383409573" height="12.579238942875305" fill="#5b9bd5"></rect><rect x="150" y="209.78067387158296" width="0.036851309869536164" height="12.579238942875305" fill="#70ad47"></rect><text class="label" x="299.6866591942781" y="152.07415311960767" font-size="10px">3,831x</text><text class="label" x="323.69280816520177" y="165.31545727000272" font-size="10px">4,483x</text><text class="label" x="205.6506380840637" y="178.55676142039778" font-size="10px">1,279x</text><text class="label" x="167.44769907180498" y="191.79806557079286" font-size="10px">243x</text><text class="label" x="158.94419853834097" y="205.0393697211879" font-size="10px">12x</text><text class="label" x="158.53685130986955" y="218.28067387158296" font-size="10px">1x</text><text class="label" x="296.1866591942781" y="153.57415311960767" font-size="8px"></text><text class="label" x="320.19280816520177" y="166.81545727000272" font-size="8px"></text><text class="label" x="202.1506380840637" y="180.05676142039778" font-size="8px"></text><text class="label" x="163.94769907180498" y="193.29806557079286" font-size="8px"></text><text class="label" x="155.44419853834097" y="206.5393697211879" font-size="8px"></text><text class="label" x="155.03685130986955" y="219.78067387158296" font-size="8px"></text></g><g style="font-size: 13px;"><rect x="150" y="232.5851421305967" width="130.88433035218503" height="12.579238942875305" fill="#4472c4"></rect><rect x="150" y="245.82644628099175" width="124.3284759986656" height="12.579238942875305" fill="#ed7d31"></rect><rect x="150" y="259.0677504313868" width="57.128668827787166" height="12.579238942875305" fill="#a5a5a5"></rect><rect x="150" y="272.3090545817819" width="9.468587799512518" height="12.579238942875305" fill="#ffc000"></rect><rect x="150" y="285.5503587321769" width="0.10924286888338613" height="12.579238942875305" fill="#5b9bd5"></rect><rect x="150" y="298.791662882572" width="0.036851309869536164" height="12.579238942875305" fill="#70ad47"></rect><text class="label" x="289.38433035218503" y="241.0851421305967" font-size="10px">3,552x</text><text class="label" x="282.82847599866557" y="254.32644628099175" font-size="10px">3,374x</text><text class="label" x="215.62866882778718" y="267.5677504313868" font-size="10px">1,550x</text><text class="label" x="167.9685877995125" y="280.8090545817819" font-size="10px">257x</text><text class="label" x="158.6092428688834" y="294.0503587321769" font-size="10px">3x</text><text class="label" x="158.53685130986955" y="307.291662882572" font-size="10px">1x</text><text class="label" x="285.88433035218503" y="242.5851421305967" font-size="8px"></text><text class="label" x="279.32847599866557" y="255.82644628099175" font-size="8px"></text><text class="label" x="212.12866882778718" y="269.0677504313868" font-size="8px"></text><text class="label" x="164.4685877995125" y="282.3090545817819" font-size="8px"></text><text class="label" x="155.1092428688834" y="295.5503587321769" font-size="8px"></text><text class="label" x="155.03685130986955" y="308.791662882572" font-size="8px"></text></g><g style="font-size: 13px;"><rect x="150" y="321.59613114158566" width="17.221568865338003" height="12.579238942875305" fill="#4472c4"></rect><rect x="150" y="334.83743529198074" width="12.631836773671985" height="12.579238942875305" fill="#ed7d31"></rect><rect x="150" y="348.07873944237576" width="6.865509365472027" height="12.579238942875305" fill="#a5a5a5"></rect><rect x="150" y="361.32004359277084" width="3.130823604745697" height="12.579238942875305" fill="#ffc000"></rect><rect x="150" y="374.5613477431659" width="0.036851309869536164" height="12.579238942875305" fill="#5b9bd5"></rect><rect x="150" y="387.80265189356095" width="0.09359462747684671" height="12.579238942875305" fill="#70ad47"></rect><text class="label" x="175.721568865338" y="330.09613114158566" font-size="10px">467x</text><text class="label" x="171.13183677367198" y="343.33743529198074" font-size="10px">343x</text><text class="label" x="165.36550936547204" y="356.57873944237576" font-size="10px">186x</text><text class="label" x="161.6308236047457" y="369.82004359277084" font-size="10px">85x</text><text class="label" x="158.53685130986955" y="383.0613477431659" font-size="10px">1x</text><text class="label" x="158.59359462747685" y="396.30265189356095" font-size="10px">3x</text><text class="label" x="172.221568865338" y="331.59613114158566" font-size="8px"></text><text class="label" x="167.63183677367198" y="344.83743529198074" font-size="8px"></text><text class="label" x="161.86550936547204" y="358.07873944237576" font-size="8px"></text><text class="label" x="158.1308236047457" y="371.32004359277084" font-size="8px"></text><text class="label" x="155.03685130986955" y="384.5613477431659" font-size="8px"></text><text class="label" x="155.09359462747685" y="397.80265189356095" font-size="8px"></text></g><g style="font-size: 13px;"><rect x="150" y="410.6071201525747" width="485" height="12.579238942875305" fill="#4472c4"></rect><rect x="150" y="423.84842430296976" width="0" height="12.579238942875305" fill="#ed7d31"></rect><rect x="150" y="437.08972845336484" width="0" height="12.579238942875305" fill="#a5a5a5"></rect><rect x="150" y="450.33103260375987" width="0" height="12.579238942875305" fill="#ffc000"></rect><rect x="150" y="463.57233675415495" width="0" height="12.579238942875305" fill="#5b9bd5"></rect><rect x="150" y="476.81364090454997" width="0" height="12.579238942875305" fill="#70ad47"></rect><text class="label" x="643.5" y="419.1071201525747" font-size="10px">Infinity</text><text class="label" x="158.5" y="432.34842430296976" font-size="10px"></text><text class="label" x="158.5" y="445.58972845336484" font-size="10px"></text><text class="label" x="158.5" y="458.83103260375987" font-size="10px"></text><text class="label" x="158.5" y="472.07233675415495" font-size="10px"></text><text class="label" x="158.5" y="485.31364090454997" font-size="10px"></text><text class="label" x="640" y="420.6071201525747" font-size="8px"></text><text class="label" x="155" y="433.84842430296976" font-size="8px">Failed</text><text class="label" x="155" y="447.08972845336484" font-size="8px">Failed</text><text class="label" x="155" y="460.33103260375987" font-size="8px">Failed</text><text class="label" x="155" y="473.57233675415495" font-size="8px">Failed</text><text class="label" x="155" y="486.81364090454997" font-size="8px">Failed</text></g><g style="font-size: 13px;"><rect x="150" y="499.6181091635637" width="116.61562494903362" height="12.579238942875305" fill="#4472c4"></rect><rect x="150" y="512.8594133139588" width="107.6250532643223" height="12.579238942875305" fill="#ed7d31"></rect><rect x="150" y="526.1007174643538" width="40.70977638781868" height="12.579238942875305" fill="#a5a5a5"></rect><rect x="150" y="539.3420216147489" width="9.00808717512041" height="12.579238942875305" fill="#ffc000"></rect><rect x="150" y="552.583325765144" width="0.16308617851785898" height="12.579238942875305" fill="#5b9bd5"></rect><rect x="150" y="565.824629915539" width="0.036851309869536164" height="12.579238942875305" fill="#70ad47"></rect><text class="label" x="275.11562494903364" y="508.1181091635637" font-size="10px">3,164x</text><text class="label" x="266.12505326432233" y="521.3594133139588" font-size="10px">2,921x</text><text class="label" x="199.2097763878187" y="534.6007174643538" font-size="10px">1,105x</text><text class="label" x="167.5080871751204" y="547.8420216147489" font-size="10px">244x</text><text class="label" x="158.66308617851786" y="561.083325765144" font-size="10px">4x</text><text class="label" x="158.53685130986955" y="574.324629915539" font-size="10px">1x</text><text class="label" x="271.61562494903364" y="509.6181091635637" font-size="8px"></text><text class="label" x="262.62505326432233" y="522.8594133139588" font-size="8px"></text><text class="label" x="195.7097763878187" y="536.1007174643538" font-size="8px"></text><text class="label" x="164.0080871751204" y="549.3420216147489" font-size="8px"></text><text class="label" x="155.16308617851786" y="562.583325765144" font-size="8px"></text><text class="label" x="155.03685130986955" y="575.824629915539" font-size="8px"></text></g><g style="font-size: 13px;"><rect x="150" y="588.6290981745527" width="48.23056529253829" height="12.579238942875305" fill="#4472c4"></rect><rect x="150" y="601.8704023249478" width="22.515922682555747" height="12.579238942875305" fill="#ed7d31"></rect><rect x="150" y="615.1117064753429" width="8.663537627223828" height="12.579238942875305" fill="#a5a5a5"></rect><rect x="150" y="628.353010625738" width="5.088849946213931" height="12.579238942875305" fill="#ffc000"></rect><rect x="150" y="641.5943147761329" width="0.036851309869536164" height="12.579238942875305" fill="#5b9bd5"></rect><rect x="150" y="654.835618926528" width="0.4888067531811362" height="12.579238942875305" fill="#70ad47"></rect><text class="label" x="206.7305652925383" y="597.1290981745527" font-size="10px">1,309x</text><text class="label" x="181.01592268255575" y="610.3704023249478" font-size="10px">611x</text><text class="label" x="167.16353762722383" y="623.6117064753429" font-size="10px">235x</text><text class="label" x="163.58884994621394" y="636.853010625738" font-size="10px">138x</text><text class="label" x="158.53685130986955" y="650.0943147761329" font-size="10px">1x</text><text class="label" x="158.98880675318114" y="663.335618926528" font-size="10px">13x</text><text class="label" x="203.2305652925383" y="598.6290981745527" font-size="8px"></text><text class="label" x="177.51592268255575" y="611.8704023249478" font-size="8px"></text><text class="label" x="163.66353762722383" y="625.1117064753429" font-size="8px"></text><text class="label" x="160.08884994621394" y="638.353010625738" font-size="8px"></text><text class="label" x="155.03685130986955" y="651.5943147761329" font-size="8px"></text><text class="label" x="155.48880675318114" y="664.835618926528" font-size="8px"></text></g><g style="font-size: 13px;"><rect x="150" y="677.6400871855418" width="485" height="12.579238942875305" fill="#4472c4"></rect><rect x="150" y="690.8813913359369" width="0" height="12.579238942875305" fill="#ed7d31"></rect><rect x="150" y="704.122695486332" width="0" height="12.579238942875305" fill="#a5a5a5"></rect><rect x="150" y="717.363999636727" width="0" height="12.579238942875305" fill="#ffc000"></rect><rect x="150" y="730.605303787122" width="0" height="12.579238942875305" fill="#5b9bd5"></rect><rect x="150" y="743.8466079375171" width="0" height="12.579238942875305" fill="#70ad47"></rect><text class="label" x="643.5" y="686.1400871855418" font-size="10px">Infinity</text><text class="label" x="158.5" y="699.3813913359369" font-size="10px"></text><text class="label" x="158.5" y="712.622695486332" font-size="10px"></text><text class="label" x="158.5" y="725.863999636727" font-size="10px"></text><text class="label" x="158.5" y="739.105303787122" font-size="10px"></text><text class="label" x="158.5" y="752.3466079375171" font-size="10px"></text><text class="label" x="640" y="687.6400871855418" font-size="8px"></text><text class="label" x="155" y="700.8813913359369" font-size="8px">Failed</text><text class="label" x="155" y="714.122695486332" font-size="8px">Failed</text><text class="label" x="155" y="727.363999636727" font-size="8px">Failed</text><text class="label" x="155" y="740.605303787122" font-size="8px">Failed</text><text class="label" x="155" y="753.8466079375171" font-size="8px">Failed</text></g><g style="font-size: 13px;"><rect x="150" y="766.6510761965307" width="485" height="12.579238942875305" fill="#4472c4"></rect><rect x="150" y="779.8923803469257" width="0" height="12.579238942875305" fill="#ed7d31"></rect><rect x="150" y="793.1336844973208" width="0" height="12.579238942875305" fill="#a5a5a5"></rect><rect x="150" y="806.3749886477159" width="0" height="12.579238942875305" fill="#ffc000"></rect><rect x="150" y="819.6162927981109" width="0" height="12.579238942875305" fill="#5b9bd5"></rect><rect x="150" y="832.8575969485059" width="0" height="12.579238942875305" fill="#70ad47"></rect><text class="label" x="643.5" y="775.1510761965307" font-size="10px">Infinity</text><text class="label" x="158.5" y="788.3923803469257" font-size="10px"></text><text class="label" x="158.5" y="801.6336844973208" font-size="10px"></text><text class="label" x="158.5" y="814.8749886477159" font-size="10px"></text><text class="label" x="158.5" y="828.1162927981109" font-size="10px"></text><text class="label" x="158.5" y="841.3575969485059" font-size="10px"></text><text class="label" x="640" y="776.6510761965307" font-size="8px"></text><text class="label" x="155" y="789.8923803469257" font-size="8px">Failed</text><text class="label" x="155" y="803.1336844973208" font-size="8px">Failed</text><text class="label" x="155" y="816.3749886477159" font-size="8px">Failed</text><text class="label" x="155" y="829.6162927981109" font-size="8px">Failed</text><text class="label" x="155" y="842.8575969485059" font-size="8px">Failed</text></g></g></svg>