<svg xmlns="http://www.w3.org/2000/svg" xmlns:xlink="http://www.w3.org/1999/xlink" width="800" height="600" style="background-color: white;"><g class="y axis" transform="translate(149,45)" fill="none" font-size="10" font-family="sans-serif" text-anchor="end" style="font-size: 13px;"><path class="domain" stroke="currentColor" d="M0.5,0.5V525.5"></path><g class="tick" opacity="1" transform="translate(0,40.66901408450705)" style="font-size: 13px;"><line stroke="currentColor" x2="0"></line><text fill="currentColor" x="-3" dy="0.32em">object (simple)    </text></g><g class="tick" opacity="1" transform="translate(0,114.61267605633802)" style="font-size: 13px;"><line stroke="currentColor" x2="0"></line><text fill="currentColor" x="-3" dy="0.32em">object (hierarchical)    </text></g><g class="tick" opacity="1" transform="translate(0,188.556338028169)" style="font-size: 13px;"><line stroke="currentColor" x2="0"></line><text fill="currentColor" x="-3" dy="0.32em">object (recursive)    </text></g><g class="tick" opacity="1" transform="translate(0,262.5)" style="font-size: 13px;"><line stroke="currentColor" x2="0"></line><text fill="currentColor" x="-3" dy="0.32em">object (union)    </text></g><g class="tick" opacity="1" transform="translate(0,336.443661971831)" style="font-size: 13px;"><line stroke="currentColor" x2="0"></line><text fill="currentColor" x="-3" dy="0.32em">array (hierarchical)    </text></g><g class="tick" opacity="1" transform="translate(0,410.38732394366195)" style="font-size: 13px;"><line stroke="currentColor" x2="0"></line><text fill="currentColor" x="-3" dy="0.32em">array (recursive)    </text></g><g class="tick" opacity="1" transform="translate(0,484.33098591549293)" style="font-size: 13px;"><line stroke="currentColor" x2="0"></line><text fill="currentColor" x="-3" dy="0.32em">array (union)    </text></g></g><g class="x axis" transform="translate(149,570)" fill="none" font-size="10" font-family="sans-serif" text-anchor="middle" style="font-size: 13px;"><path class="domain" stroke="currentColor" d="M0.5,0.5H485.5"></path><g class="tick" opacity="1" transform="translate(0.5,0)" style="font-size: 13px;"><line stroke="currentColor" y2="6"></line><text fill="currentColor" y="9" dy="0.71em">0x</text></g><g class="tick" opacity="1" transform="translate(132.96785500709376,0)" style="font-size: 13px;"><line stroke="currentColor" y2="6"></line><text fill="currentColor" y="9" dy="0.71em">2x</text></g><g class="tick" opacity="1" transform="translate(265.4357100141875,0)" style="font-size: 13px;"><line stroke="currentColor" y2="6"></line><text fill="currentColor" y="9" dy="0.71em">4x</text></g><g class="tick" opacity="1" transform="translate(397.90356502128134,0)" style="font-size: 13px;"><line stroke="currentColor" y2="6"></line><text fill="currentColor" y="9" dy="0.71em">6x</text></g></g><text transform="translate(400, 30)" style="text-anchor: middle; font-size: 20px; font-weight: bold;">stringify benchmark</text><rect x="680" y="145" width="200" height="5" fill="gray"></rect><rect x="675" y="35" width="200" height="110" fill="none" stroke="black"></rect><rect x="685" y="45" width="10" height="10" style="fill: #4472c4;"></rect><text x="700" y="55" style="font-size: 12px;">TSON.stringify()</text><rect x="685" y="65" width="10" height="10" style="fill: #ed7d31;"></rect><text x="700" y="75" style="font-size: 12px;">TSON.assertStringify()</text><rect x="685" y="85" width="10" height="10" style="fill: #a5a5a5;"></rect><text x="700" y="95" style="font-size: 12px;">TSON.isStringify()</text><rect x="685" y="105" width="10" height="10" style="fill: #ffc000;"></rect><text x="700" y="115" style="font-size: 12px;">JSON.stringify()</text><rect x="685" y="125" width="10" height="10" style="fill: #5b9bd5;"></rect><text x="700" y="135" style="font-size: 12px;">fast-json-stringify</text><g style="font-size: 13px;"><g style="font-size: 13px;"><rect x="150" y="53.05327011574397" width="440.9090909090908" height="12.519174452656534" fill="#4472c4"></rect><rect x="150" y="66.23134848696137" width="383.6321583429665" height="12.519174452656534" fill="#ed7d31"></rect><rect x="150" y="79.40942685817878" width="391.56595391913925" height="12.519174452656534" fill="#a5a5a5"></rect><rect x="150" y="92.58750522939619" width="66.23392750354688" height="12.519174452656534" fill="#ffc000"></rect><rect x="150" y="105.76558360061358" width="304.22874012065466" height="12.519174452656534" fill="#5b9bd5"></rect><text class="label" x="599.4090909090908" y="61.55327011574397" font-size="10px">6.66x</text><text class="label" x="542.1321583429665" y="74.73134848696137" font-size="10px">5.79x</text><text class="label" x="550.0659539191392" y="87.90942685817878" font-size="10px">5.91x</text><text class="label" x="224.73392750354688" y="101.08750522939619" font-size="10px">1x</text><text class="label" x="462.72874012065466" y="114.26558360061358" font-size="10px">4.59x</text><text class="label" x="595.9090909090908" y="63.05327011574397" font-size="8px"></text><text class="label" x="538.6321583429665" y="76.23134848696137" font-size="8px"></text><text class="label" x="546.5659539191392" y="89.40942685817878" font-size="8px"></text><text class="label" x="221.23392750354688" y="102.58750522939619" font-size="8px"></text><text class="label" x="459.22874012065466" y="115.76558360061358" font-size="8px"></text></g><g style="font-size: 13px;"><rect x="150" y="126.99693208757495" width="191.88663619889556" height="12.519174452656534" fill="#4472c4"></rect><rect x="150" y="140.17501045879237" width="188.9678894294182" height="12.519174452656534" fill="#ed7d31"></rect><rect x="150" y="153.35308883000977" width="196.20564840805412" height="12.519174452656534" fill="#a5a5a5"></rect><rect x="150" y="166.53116720122716" width="66.23392750354688" height="12.519174452656534" fill="#ffc000"></rect><rect x="150" y="179.70924557244456" width="191.6717915558709" height="12.519174452656534" fill="#5b9bd5"></rect><text class="label" x="350.38663619889553" y="135.49693208757495" font-size="10px">2.9x</text><text class="label" x="347.46788942941816" y="148.67501045879237" font-size="10px">2.85x</text><text class="label" x="354.7056484080541" y="161.85308883000977" font-size="10px">2.96x</text><text class="label" x="224.73392750354688" y="175.03116720122716" font-size="10px">1x</text><text class="label" x="350.17179155587087" y="188.20924557244456" font-size="10px">2.89x</text><text class="label" x="346.88663619889553" y="136.99693208757495" font-size="8px"></text><text class="label" x="343.96788942941816" y="150.17501045879237" font-size="8px"></text><text class="label" x="351.2056484080541" y="163.35308883000977" font-size="8px"></text><text class="label" x="221.23392750354688" y="176.53116720122716" font-size="8px"></text><text class="label" x="346.67179155587087" y="189.70924557244456" font-size="8px"></text></g><g style="font-size: 13px;"><rect x="150" y="200.94059405940592" width="287.3915566205881" height="12.519174452656534" fill="#4472c4"></rect><rect x="150" y="214.11867243062332" width="259.57497506672615" height="12.519174452656534" fill="#ed7d31"></rect><rect x="150" y="227.29675080184074" width="267.86862805705795" height="12.519174452656534" fill="#a5a5a5"></rect><rect x="150" y="240.47482917305814" width="66.23392750354688" height="12.519174452656534" fill="#ffc000"></rect><rect x="150" y="253.65290754427554" width="67.4036248976572" height="12.519174452656534" fill="#5b9bd5"></rect><text class="label" x="445.8915566205881" y="209.44059405940592" font-size="10px">4.34x</text><text class="label" x="418.07497506672615" y="222.61867243062332" font-size="10px">3.92x</text><text class="label" x="426.36862805705795" y="235.79675080184074" font-size="10px">4.04x</text><text class="label" x="224.73392750354688" y="248.97482917305814" font-size="10px">1x</text><text class="label" x="225.9036248976572" y="262.15290754427554" font-size="10px">1.02x</text><text class="label" x="442.3915566205881" y="210.94059405940592" font-size="8px"></text><text class="label" x="414.57497506672615" y="224.11867243062332" font-size="8px"></text><text class="label" x="422.86862805705795" y="237.29675080184074" font-size="8px"></text><text class="label" x="221.23392750354688" y="250.47482917305814" font-size="8px"></text><text class="label" x="222.4036248976572" y="263.65290754427554" font-size="8px"></text></g><g style="font-size: 13px;"><rect x="150" y="274.8842560312369" width="126.14339032835872" height="12.519174452656534" fill="#4472c4"></rect><rect x="150" y="288.0623344024543" width="100.73121386021404" height="12.519174452656534" fill="#ed7d31"></rect><rect x="150" y="301.2404127736717" width="114.89609582240116" height="12.519174452656534" fill="#a5a5a5"></rect><rect x="150" y="314.4184911448891" width="66.23392750354688" height="12.519174452656534" fill="#ffc000"></rect><rect x="150" y="327.5965695161065" width="124.10799432258106" height="12.519174452656534" fill="#5b9bd5"></rect><text class="label" x="284.6433903283587" y="283.3842560312369" font-size="10px">1.9x</text><text class="label" x="259.23121386021404" y="296.5623344024543" font-size="10px">1.52x</text><text class="label" x="273.39609582240115" y="309.7404127736717" font-size="10px">1.73x</text><text class="label" x="224.73392750354688" y="322.9184911448891" font-size="10px">1x</text><text class="label" x="282.6079943225811" y="336.0965695161065" font-size="10px">1.87x</text><text class="label" x="281.1433903283587" y="284.8842560312369" font-size="8px"></text><text class="label" x="255.73121386021404" y="298.0623344024543" font-size="8px"></text><text class="label" x="269.89609582240115" y="311.2404127736717" font-size="8px"></text><text class="label" x="221.23392750354688" y="324.4184911448891" font-size="8px"></text><text class="label" x="279.1079943225811" y="337.5965695161065" font-size="8px"></text></g><g style="font-size: 13px;"><rect x="150" y="348.8279180030679" width="125.564047740303" height="12.519174452656534" fill="#4472c4"></rect><rect x="150" y="362.0059963742853" width="116.8963727329816" height="12.519174452656534" fill="#ed7d31"></rect><rect x="150" y="375.1840747455027" width="117.37506208805053" height="12.519174452656534" fill="#a5a5a5"></rect><rect x="150" y="388.3621531167201" width="66.23392750354688" height="12.519174452656534" fill="#ffc000"></rect><rect x="150" y="401.5402314879375" width="163.04970220040792" height="12.519174452656534" fill="#5b9bd5"></rect><text class="label" x="284.064047740303" y="357.3279180030679" font-size="10px">1.9x</text><text class="label" x="275.3963727329816" y="370.5059963742853" font-size="10px">1.76x</text><text class="label" x="275.8750620880505" y="383.6840747455027" font-size="10px">1.77x</text><text class="label" x="224.73392750354688" y="396.8621531167201" font-size="10px">1x</text><text class="label" x="321.5497022004079" y="410.0402314879375" font-size="10px">2.46x</text><text class="label" x="280.564047740303" y="358.8279180030679" font-size="8px"></text><text class="label" x="271.8963727329816" y="372.0059963742853" font-size="8px"></text><text class="label" x="272.3750620880505" y="385.1840747455027" font-size="8px"></text><text class="label" x="221.23392750354688" y="398.3621531167201" font-size="8px"></text><text class="label" x="318.0497022004079" y="411.5402314879375" font-size="8px"></text></g><g style="font-size: 13px;"><rect x="150" y="422.7715799748988" width="127.31737225378575" height="12.519174452656534" fill="#4472c4"></rect><rect x="150" y="435.9496583461163" width="112.52650329881513" height="12.519174452656534" fill="#ed7d31"></rect><rect x="150" y="449.1277367173337" width="124.06428141847742" height="12.519174452656534" fill="#a5a5a5"></rect><rect x="150" y="462.30581508855107" width="68.46300986560205" height="12.519174452656534" fill="#ffc000"></rect><rect x="150" y="475.48389345976847" width="66.23392750354688" height="12.519174452656534" fill="#5b9bd5"></rect><text class="label" x="285.8173722537857" y="431.2715799748988" font-size="10px">1.92x</text><text class="label" x="271.0265032988151" y="444.4496583461163" font-size="10px">1.7x</text><text class="label" x="282.56428141847744" y="457.6277367173337" font-size="10px">1.87x</text><text class="label" x="226.96300986560203" y="470.80581508855107" font-size="10px">1.03x</text><text class="label" x="224.73392750354688" y="483.98389345976847" font-size="10px">1x</text><text class="label" x="282.3173722537857" y="432.7715799748988" font-size="8px"></text><text class="label" x="267.5265032988151" y="445.9496583461163" font-size="8px"></text><text class="label" x="279.06428141847744" y="459.1277367173337" font-size="8px"></text><text class="label" x="223.46300986560203" y="472.30581508855107" font-size="8px"></text><text class="label" x="221.23392750354688" y="485.48389345976847" font-size="8px"></text></g><g style="font-size: 13px;"><rect x="150" y="496.71524194672986" width="95.1244041568156" height="12.519174452656534" fill="#4472c4"></rect><rect x="150" y="509.89332031794726" width="80.68753741828326" height="12.519174452656534" fill="#ed7d31"></rect><rect x="150" y="523.0713986891647" width="85.56526436841384" height="12.519174452656534" fill="#a5a5a5"></rect><rect x="150" y="536.2494770603821" width="76.83016732282934" height="12.519174452656534" fill="#ffc000"></rect><rect x="150" y="549.4275554315994" width="66.23392750354688" height="12.519174452656534" fill="#5b9bd5"></rect><text class="label" x="253.62440415681561" y="505.21524194672986" font-size="10px">1.44x</text><text class="label" x="239.18753741828326" y="518.3933203179472" font-size="10px">1.22x</text><text class="label" x="244.06526436841384" y="531.5713986891647" font-size="10px">1.29x</text><text class="label" x="235.33016732282934" y="544.7494770603821" font-size="10px">1.16x</text><text class="label" x="224.73392750354688" y="557.9275554315994" font-size="10px">1x</text><text class="label" x="250.12440415681561" y="506.71524194672986" font-size="8px"></text><text class="label" x="235.68753741828326" y="519.8933203179472" font-size="8px"></text><text class="label" x="240.56526436841384" y="533.0713986891647" font-size="8px"></text><text class="label" x="231.83016732282934" y="546.2494770603821" font-size="8px"></text><text class="label" x="221.23392750354688" y="559.4275554315994" font-size="8px"></text></g></g></svg>