<svg xmlns="http://www.w3.org/2000/svg" xmlns:xlink="http://www.w3.org/1999/xlink" width="800" height="750" style="background-color: white;"><g class="y axis" transform="translate(149,45)" fill="none" font-size="10" font-family="sans-serif" text-anchor="end" style="font-size: 13px;"><path class="domain" stroke="currentColor" d="M0.5,0.5V675.5"></path><g class="tick" opacity="1" transform="translate(0,40.796703296703306)" style="font-size: 13px;"><line stroke="currentColor" x2="0"></line><text fill="currentColor" x="-3" dy="0.32em">object (simple)    </text></g><g class="tick" opacity="1" transform="translate(0,114.97252747252747)" style="font-size: 13px;"><line stroke="currentColor" x2="0"></line><text fill="currentColor" x="-3" dy="0.32em">object (hierarchical)    </text></g><g class="tick" opacity="1" transform="translate(0,189.14835164835165)" style="font-size: 13px;"><line stroke="currentColor" x2="0"></line><text fill="currentColor" x="-3" dy="0.32em">object (recursive)    </text></g><g class="tick" opacity="1" transform="translate(0,263.3241758241758)" style="font-size: 13px;"><line stroke="currentColor" x2="0"></line><text fill="currentColor" x="-3" dy="0.32em">object (union, explicit)    </text></g><g class="tick" opacity="1" transform="translate(0,337.5)" style="font-size: 13px;"><line stroke="currentColor" x2="0"></line><text fill="currentColor" x="-3" dy="0.32em">object (union, implicit)    </text></g><g class="tick" opacity="1" transform="translate(0,411.6758241758242)" style="font-size: 13px;"><line stroke="currentColor" x2="0"></line><text fill="currentColor" x="-3" dy="0.32em">array (recursive)    </text></g><g class="tick" opacity="1" transform="translate(0,485.85164835164835)" style="font-size: 13px;"><line stroke="currentColor" x2="0"></line><text fill="currentColor" x="-3" dy="0.32em">array (union, explicit)    </text></g><g class="tick" opacity="1" transform="translate(0,560.0274725274727)" style="font-size: 13px;"><line stroke="currentColor" x2="0"></line><text fill="currentColor" x="-3" dy="0.32em">array (union, implicit)    </text></g><g class="tick" opacity="1" transform="translate(0,634.2032967032968)" style="font-size: 13px;"><line stroke="currentColor" x2="0"></line><text fill="currentColor" x="-3" dy="0.32em">ultimate union    </text></g></g><g class="x axis" transform="translate(149,720)" fill="none" font-size="10" font-family="sans-serif" text-anchor="middle" style="font-size: 13px;"><path class="domain" stroke="currentColor" d="M0.5,0.5H485.5"></path><g class="tick" opacity="1" transform="translate(0.5,0)" style="font-size: 13px;"><line stroke="currentColor" y2="6"></line><text fill="currentColor" y="9" dy="0.71em">0x</text></g><g class="tick" opacity="1" transform="translate(70.97779586142758,0)" style="font-size: 13px;"><line stroke="currentColor" y2="6"></line><text fill="currentColor" y="9" dy="0.71em">100x</text></g><g class="tick" opacity="1" transform="translate(141.45559172285516,0)" style="font-size: 13px;"><line stroke="currentColor" y2="6"></line><text fill="currentColor" y="9" dy="0.71em">200x</text></g><g class="tick" opacity="1" transform="translate(211.93338758428274,0)" style="font-size: 13px;"><line stroke="currentColor" y2="6"></line><text fill="currentColor" y="9" dy="0.71em">300x</text></g><g class="tick" opacity="1" transform="translate(282.4111834457103,0)" style="font-size: 13px;"><line stroke="currentColor" y2="6"></line><text fill="currentColor" y="9" dy="0.71em">400x</text></g><g class="tick" opacity="1" transform="translate(352.8889793071379,0)" style="font-size: 13px;"><line stroke="currentColor" y2="6"></line><text fill="currentColor" y="9" dy="0.71em">500x</text></g><g class="tick" opacity="1" transform="translate(423.3667751685655,0)" style="font-size: 13px;"><line stroke="currentColor" y2="6"></line><text fill="currentColor" y="9" dy="0.71em">600x</text></g></g><text transform="translate(400, 30)" style="text-anchor: middle; font-size: 20px; font-weight: bold;">assert (throw) benchmark</text><rect x="680" y="145" width="200" height="5" fill="gray"></rect><rect x="675" y="35" width="200" height="110" fill="none" stroke="black"></rect><rect x="685" y="45" width="10" height="10" style="fill: #4472c4;"></rect><text x="700" y="55" style="font-size: 12px;">typescript-json</text><rect x="685" y="65" width="10" height="10" style="fill: #ed7d31;"></rect><text x="700" y="75" style="font-size: 12px;">typebox</text><rect x="685" y="85" width="10" height="10" style="fill: #a5a5a5;"></rect><text x="700" y="95" style="font-size: 12px;">io-ts</text><rect x="685" y="105" width="10" height="10" style="fill: #ffc000;"></rect><text x="700" y="115" style="font-size: 12px;">zod</text><rect x="685" y="125" width="10" height="10" style="fill: #5b9bd5;"></rect><text x="700" y="135" style="font-size: 12px;">class-validator</text><g style="font-size: 13px;"><g style="font-size: 13px;"><rect x="150" y="53.07855510825809" width="250.85202661299377" height="12.55848112283756" fill="#4472c4"></rect><rect x="150" y="66.2980089217713" width="15.824838798267452" height="12.55848112283756" fill="#ed7d31"></rect><rect x="150" y="79.51746273528452" width="58.5454975104533" height="12.55848112283756" fill="#a5a5a5"></rect><rect x="150" y="92.73691654879775" width="0" height="12.55848112283756" fill="#ffc000"></rect><rect x="150" y="105.95637036231096" width="0.7047779586142757" height="12.55848112283756" fill="#5b9bd5"></rect><text class="label" x="409.35202661299377" y="61.57855510825809" font-size="10px">356x</text><text class="label" x="174.32483879826745" y="74.7980089217713" font-size="10px">22x</text><text class="label" x="217.0454975104533" y="88.01746273528452" font-size="10px">83x</text><text class="label" x="158.5" y="101.23691654879775" font-size="10px"></text><text class="label" x="159.20477795861427" y="114.45637036231096" font-size="10px">1x</text></g><g style="font-size: 13px;"><rect x="150" y="127.25437928408226" width="440.9090909090908" height="12.55848112283756" fill="#4472c4"></rect><rect x="150" y="140.4738330975955" width="12.032338714005512" height="12.55848112283756" fill="#ed7d31"></rect><rect x="150" y="153.69328691110871" width="45.77993566191294" height="12.55848112283756" fill="#a5a5a5"></rect><rect x="150" y="166.91274072462193" width="6.128503987950224" height="12.55848112283756" fill="#ffc000"></rect><rect x="150" y="180.13219453813514" width="0.7047779586142757" height="12.55848112283756" fill="#5b9bd5"></rect><text class="label" x="599.4090909090908" y="135.75437928408226" font-size="10px">626x</text><text class="label" x="170.5323387140055" y="148.9738330975955" font-size="10px">17x</text><text class="label" x="204.27993566191293" y="162.19328691110871" font-size="10px">65x</text><text class="label" x="164.6285039879502" y="175.41274072462193" font-size="10px">9x</text><text class="label" x="159.20477795861427" y="188.63219453813514" font-size="10px">1x</text></g><g style="font-size: 13px;"><rect x="150" y="201.43020345990644" width="37.86366074567233" height="12.55848112283756" fill="#4472c4"></rect><rect x="150" y="214.64965727341965" width="0" height="12.55848112283756" fill="#ed7d31"></rect><rect x="150" y="227.8691110869329" width="0" height="12.55848112283756" fill="#a5a5a5"></rect><rect x="150" y="241.0885649004461" width="0" height="12.55848112283756" fill="#ffc000"></rect><rect x="150" y="254.3080187139593" width="0.7047779586142757" height="12.55848112283756" fill="#5b9bd5"></rect><text class="label" x="196.36366074567232" y="209.93020345990644" font-size="10px">54x</text><text class="label" x="158.5" y="223.14965727341965" font-size="10px"></text><text class="label" x="158.5" y="236.3691110869329" font-size="10px"></text><text class="label" x="158.5" y="249.5885649004461" font-size="10px"></text><text class="label" x="159.20477795861427" y="262.8080187139593" font-size="10px">1x</text></g><g style="font-size: 13px;"><rect x="150" y="275.6060276357306" width="119.4501529775848" height="12.55848112283756" fill="#4472c4"></rect><rect x="150" y="288.82548144924385" width="3.216909062678307" height="12.55848112283756" fill="#ed7d31"></rect><rect x="150" y="302.04493526275706" width="22.78527912955551" height="12.55848112283756" fill="#a5a5a5"></rect><rect x="150" y="315.2643890762703" width="0.7047779586142757" height="12.55848112283756" fill="#ffc000"></rect><rect x="150" y="328.4838428897835" width="2.1374520557306567" height="12.55848112283756" fill="#5b9bd5"></rect><text class="label" x="277.9501529775848" y="284.1060276357306" font-size="10px">169x</text><text class="label" x="161.7169090626783" y="297.32548144924385" font-size="10px">5x</text><text class="label" x="181.2852791295555" y="310.54493526275706" font-size="10px">32x</text><text class="label" x="159.20477795861427" y="323.7643890762703" font-size="10px">1x</text><text class="label" x="160.63745205573065" y="336.9838428897835" font-size="10px">3x</text></g><g style="font-size: 13px;"><rect x="150" y="349.7818518115548" width="485" height="12.55848112283756" fill="#4472c4"></rect><rect x="150" y="363.001305625068" width="0" height="12.55848112283756" fill="#ed7d31"></rect><rect x="150" y="376.22075943858124" width="0" height="12.55848112283756" fill="#a5a5a5"></rect><rect x="150" y="389.44021325209445" width="0" height="12.55848112283756" fill="#ffc000"></rect><rect x="150" y="402.65966706560766" width="0" height="12.55848112283756" fill="#5b9bd5"></rect><text class="label" x="643.5" y="358.2818518115548" font-size="10px">Infinity</text><text class="label" x="158.5" y="371.501305625068" font-size="10px"></text><text class="label" x="158.5" y="384.72075943858124" font-size="10px"></text><text class="label" x="158.5" y="397.94021325209445" font-size="10px"></text><text class="label" x="158.5" y="411.15966706560766" font-size="10px"></text></g><g style="font-size: 13px;"><rect x="150" y="423.95767598737893" width="142.56829640763408" height="12.55848112283756" fill="#4472c4"></rect><rect x="150" y="437.1771298008922" width="3.408951949561267" height="12.55848112283756" fill="#ed7d31"></rect><rect x="150" y="450.3965836144054" width="11.361067704176763" height="12.55848112283756" fill="#a5a5a5"></rect><rect x="150" y="463.6160374279186" width="1.0151603046265232" height="12.55848112283756" fill="#ffc000"></rect><rect x="150" y="476.83549124143184" width="0.7047779586142757" height="12.55848112283756" fill="#5b9bd5"></rect><text class="label" x="301.0682964076341" y="432.45767598737893" font-size="10px">202x</text><text class="label" x="161.90895194956127" y="445.6771298008922" font-size="10px">5x</text><text class="label" x="169.86106770417678" y="458.8965836144054" font-size="10px">16x</text><text class="label" x="159.51516030462653" y="472.1160374279186" font-size="10px">1x</text><text class="label" x="159.20477795861427" y="485.33549124143184" font-size="10px">1x</text></g><g style="font-size: 13px;"><rect x="150" y="498.13350016320317" width="29.729807771636008" height="12.55848112283756" fill="#4472c4"></rect><rect x="150" y="511.3529539767164" width="1.0271309300560763" height="12.55848112283756" fill="#ed7d31"></rect><rect x="150" y="524.5724077902296" width="4.20065652197227" height="12.55848112283756" fill="#a5a5a5"></rect><rect x="150" y="537.7918616037427" width="0.7047779586142757" height="12.55848112283756" fill="#ffc000"></rect><rect x="150" y="551.011315417256" width="3.1464768330778274" height="12.55848112283756" fill="#5b9bd5"></rect><text class="label" x="188.22980777163602" y="506.63350016320317" font-size="10px">42x</text><text class="label" x="159.52713093005607" y="519.8529539767164" font-size="10px">1x</text><text class="label" x="162.70065652197226" y="533.0724077902296" font-size="10px">6x</text><text class="label" x="159.20477795861427" y="546.2918616037427" font-size="10px">1x</text><text class="label" x="161.64647683307783" y="559.511315417256" font-size="10px">4x</text></g><g style="font-size: 13px;"><rect x="150" y="572.3093243390274" width="485" height="12.55848112283756" fill="#4472c4"></rect><rect x="150" y="585.5287781525407" width="0" height="12.55848112283756" fill="#ed7d31"></rect><rect x="150" y="598.7482319660538" width="0" height="12.55848112283756" fill="#a5a5a5"></rect><rect x="150" y="611.9676857795671" width="0" height="12.55848112283756" fill="#ffc000"></rect><rect x="150" y="625.1871395930804" width="0" height="12.55848112283756" fill="#5b9bd5"></rect><text class="label" x="643.5" y="580.8093243390274" font-size="10px">Infinity</text><text class="label" x="158.5" y="594.0287781525407" font-size="10px"></text><text class="label" x="158.5" y="607.2482319660538" font-size="10px"></text><text class="label" x="158.5" y="620.4676857795671" font-size="10px"></text><text class="label" x="158.5" y="633.6871395930804" font-size="10px"></text></g><g style="font-size: 13px;"><rect x="150" y="646.4851485148515" width="485" height="12.55848112283756" fill="#4472c4"></rect><rect x="150" y="659.7046023283648" width="0" height="12.55848112283756" fill="#ed7d31"></rect><rect x="150" y="672.9240561418779" width="0" height="12.55848112283756" fill="#a5a5a5"></rect><rect x="150" y="686.1435099553912" width="0" height="12.55848112283756" fill="#ffc000"></rect><rect x="150" y="699.3629637689045" width="0" height="12.55848112283756" fill="#5b9bd5"></rect><text class="label" x="643.5" y="654.9851485148515" font-size="10px">Infinity</text><text class="label" x="158.5" y="668.2046023283648" font-size="10px"></text><text class="label" x="158.5" y="681.4240561418779" font-size="10px"></text><text class="label" x="158.5" y="694.6435099553912" font-size="10px"></text><text class="label" x="158.5" y="707.8629637689045" font-size="10px"></text></g></g></svg>