<svg xmlns="http://www.w3.org/2000/svg" xmlns:xlink="http://www.w3.org/1999/xlink" width="800" height="885" style="background-color: white;"><g class="y axis" transform="translate(149,45)" fill="none" font-size="10" font-family="sans-serif" text-anchor="end" style="font-size: 13px;"><path class="domain" stroke="currentColor" d="M0.5,0.5V810.5"></path><g class="tick" opacity="1" transform="translate(0,48.95604395604397)" style="font-size: 13px;"><line stroke="currentColor" x2="0"></line><text fill="currentColor" x="-3" dy="0.32em">object (simple)    </text></g><g class="tick" opacity="1" transform="translate(0,137.967032967033)" style="font-size: 13px;"><line stroke="currentColor" x2="0"></line><text fill="currentColor" x="-3" dy="0.32em">object (hierarchical)    </text></g><g class="tick" opacity="1" transform="translate(0,226.97802197802199)" style="font-size: 13px;"><line stroke="currentColor" x2="0"></line><text fill="currentColor" x="-3" dy="0.32em">object (recursive)    </text></g><g class="tick" opacity="1" transform="translate(0,315.989010989011)" style="font-size: 13px;"><line stroke="currentColor" x2="0"></line><text fill="currentColor" x="-3" dy="0.32em">object (union, explicit)    </text></g><g class="tick" opacity="1" transform="translate(0,405)" style="font-size: 13px;"><line stroke="currentColor" x2="0"></line><text fill="currentColor" x="-3" dy="0.32em">object (union, implicit)    </text></g><g class="tick" opacity="1" transform="translate(0,494.010989010989)" style="font-size: 13px;"><line stroke="currentColor" x2="0"></line><text fill="currentColor" x="-3" dy="0.32em">array (recursive)    </text></g><g class="tick" opacity="1" transform="translate(0,583.021978021978)" style="font-size: 13px;"><line stroke="currentColor" x2="0"></line><text fill="currentColor" x="-3" dy="0.32em">array (union, explicit)    </text></g><g class="tick" opacity="1" transform="translate(0,672.0329670329671)" style="font-size: 13px;"><line stroke="currentColor" x2="0"></line><text fill="currentColor" x="-3" dy="0.32em">array (union, implicit)    </text></g><g class="tick" opacity="1" transform="translate(0,761.043956043956)" style="font-size: 13px;"><line stroke="currentColor" x2="0"></line><text fill="currentColor" x="-3" dy="0.32em">ultimate union    </text></g></g><g class="x axis" transform="translate(149,855)" fill="none" font-size="10" font-family="sans-serif" text-anchor="middle" style="font-size: 13px;"><path class="domain" stroke="currentColor" d="M0.5,0.5H485.5"></path><g class="tick" opacity="1" transform="translate(0.5,0)" style="font-size: 13px;"><line stroke="currentColor" y2="6"></line><text fill="currentColor" y="9" dy="0.71em">0x</text></g><g class="tick" opacity="1" transform="translate(80.05792753070577,0)" style="font-size: 13px;"><line stroke="currentColor" y2="6"></line><text fill="currentColor" y="9" dy="0.71em">2,000x</text></g><g class="tick" opacity="1" transform="translate(159.61585506141154,0)" style="font-size: 13px;"><line stroke="currentColor" y2="6"></line><text fill="currentColor" y="9" dy="0.71em">4,000x</text></g><g class="tick" opacity="1" transform="translate(239.17378259211733,0)" style="font-size: 13px;"><line stroke="currentColor" y2="6"></line><text fill="currentColor" y="9" dy="0.71em">6,000x</text></g><g class="tick" opacity="1" transform="translate(318.7317101228231,0)" style="font-size: 13px;"><line stroke="currentColor" y2="6"></line><text fill="currentColor" y="9" dy="0.71em">8,000x</text></g><g class="tick" opacity="1" transform="translate(398.28963765352887,0)" style="font-size: 13px;"><line stroke="currentColor" y2="6"></line><text fill="currentColor" y="9" dy="0.71em">10,000x</text></g><g class="tick" opacity="1" transform="translate(477.84756518423467,0)" style="font-size: 13px;"><line stroke="currentColor" y2="6"></line><text fill="currentColor" y="9" dy="0.71em">12,000x</text></g></g><text transform="translate(400, 30)" style="text-anchor: middle; font-size: 20px; font-weight: bold;">is benchmark</text><rect x="680" y="165" width="200" height="5" fill="gray"></rect><rect x="675" y="35" width="200" height="130" fill="none" stroke="black"></rect><rect x="685" y="45" width="10" height="10" style="fill: #4472c4;"></rect><text x="700" y="55" style="font-size: 12px;">typescript-json</text><rect x="685" y="65" width="10" height="10" style="fill: #ed7d31;"></rect><text x="700" y="75" style="font-size: 12px;">typebox</text><rect x="685" y="85" width="10" height="10" style="fill: #a5a5a5;"></rect><text x="700" y="95" style="font-size: 12px;">ajv</text><rect x="685" y="105" width="10" height="10" style="fill: #ffc000;"></rect><text x="700" y="115" style="font-size: 12px;">io-ts</text><rect x="685" y="125" width="10" height="10" style="fill: #5b9bd5;"></rect><text x="700" y="135" style="font-size: 12px;">zod</text><rect x="685" y="145" width="10" height="10" style="fill: #70ad47;"></rect><text x="700" y="155" style="font-size: 12px;">class-validator</text><g style="font-size: 13px;"><g style="font-size: 13px;"><rect x="150" y="54.563164108618665" width="278.1921224973444" height="12.579238942875305" fill="#4472c4"></rect><rect x="150" y="67.80446825901373" width="440.9090909090908" height="12.579238942875305" fill="#ed7d31"></rect><rect x="150" y="81.04577240940878" width="138.22406316965157" height="12.579238942875305" fill="#a5a5a5"></rect><rect x="150" y="94.28707655980384" width="10.093106067004754" height="12.579238942875305" fill="#ffc000"></rect><rect x="150" y="107.5283807101989" width="1.020506510591194" height="12.579238942875305" fill="#5b9bd5"></rect><rect x="150" y="120.76968486059396" width="0.039778963765352886" height="12.579238942875305" fill="#70ad47"></rect><text class="label" x="436.6921224973444" y="63.063164108618665" font-size="10px">6,993x</text><text class="label" x="599.4090909090908" y="76.30446825901373" font-size="10px">11,084x</text><text class="label" x="296.7240631696516" y="89.54577240940878" font-size="10px">3,475x</text><text class="label" x="168.59310606700475" y="102.78707655980384" font-size="10px">254x</text><text class="label" x="159.5205065105912" y="116.0283807101989" font-size="10px">26x</text><text class="label" x="158.53977896376534" y="129.26968486059394" font-size="10px">1x</text></g><g style="font-size: 13px;"><rect x="150" y="143.57415311960767" width="151.10751756035705" height="12.579238942875305" fill="#4472c4"></rect><rect x="150" y="156.81545727000272" width="181.04485454028335" height="12.579238942875305" fill="#ed7d31"></rect><rect x="150" y="170.05676142039778" width="50.766059281152394" height="12.579238942875305" fill="#a5a5a5"></rect><rect x="150" y="183.29806557079286" width="8.86781080872519" height="12.579238942875305" fill="#ffc000"></rect><rect x="150" y="196.5393697211879" width="0.42554680498034936" height="12.579238942875305" fill="#5b9bd5"></rect><rect x="150" y="209.78067387158296" width="0.039778963765352886" height="12.579238942875305" fill="#70ad47"></rect><text class="label" x="309.60751756035705" y="152.07415311960767" font-size="10px">3,799x</text><text class="label" x="339.5448545402834" y="165.31545727000272" font-size="10px">4,551x</text><text class="label" x="209.2660592811524" y="178.55676142039778" font-size="10px">1,276x</text><text class="label" x="167.36781080872518" y="191.79806557079286" font-size="10px">223x</text><text class="label" x="158.92554680498034" y="205.0393697211879" font-size="10px">11x</text><text class="label" x="158.53977896376534" y="218.28067387158296" font-size="10px">1x</text></g><g style="font-size: 13px;"><rect x="150" y="232.5851421305967" width="139.87429084461732" height="12.579238942875305" fill="#4472c4"></rect><rect x="150" y="245.82644628099175" width="129.88765749142703" height="12.579238942875305" fill="#ed7d31"></rect><rect x="150" y="259.0677504313868" width="64.5856112301028" height="12.579238942875305" fill="#a5a5a5"></rect><rect x="150" y="272.3090545817819" width="8.194727181481456" height="12.579238942875305" fill="#ffc000"></rect><rect x="150" y="285.5503587321769" width="0.11050378875695378" height="12.579238942875305" fill="#5b9bd5"></rect><rect x="150" y="298.791662882572" width="0.039778963765352886" height="12.579238942875305" fill="#70ad47"></rect><text class="label" x="298.37429084461735" y="241.0851421305967" font-size="10px">3,516x</text><text class="label" x="288.38765749142703" y="254.32644628099175" font-size="10px">3,265x</text><text class="label" x="223.0856112301028" y="267.5677504313868" font-size="10px">1,624x</text><text class="label" x="166.69472718148145" y="280.8090545817819" font-size="10px">206x</text><text class="label" x="158.61050378875694" y="294.0503587321769" font-size="10px">3x</text><text class="label" x="158.53977896376534" y="307.291662882572" font-size="10px">1x</text></g><g style="font-size: 13px;"><rect x="150" y="321.59613114158566" width="21.232504025249334" height="12.579238942875305" fill="#4472c4"></rect><rect x="150" y="334.83743529198074" width="16.402571222474783" height="12.579238942875305" fill="#ed7d31"></rect><rect x="150" y="348.07873944237576" width="9.621394336188127" height="12.579238942875305" fill="#a5a5a5"></rect><rect x="150" y="361.32004359277084" width="3.7541579634112483" height="12.579238942875305" fill="#ffc000"></rect><rect x="150" y="374.5613477431659" width="0.039778963765352886" height="12.579238942875305" fill="#5b9bd5"></rect><rect x="150" y="387.80265189356095" width="0.11480178216208535" height="12.579238942875305" fill="#70ad47"></rect><text class="label" x="179.73250402524934" y="330.09613114158566" font-size="10px">534x</text><text class="label" x="174.9025712224748" y="343.33743529198074" font-size="10px">412x</text><text class="label" x="168.12139433618813" y="356.57873944237576" font-size="10px">242x</text><text class="label" x="162.25415796341125" y="369.82004359277084" font-size="10px">94x</text><text class="label" x="158.53977896376534" y="383.0613477431659" font-size="10px">1x</text><text class="label" x="158.6148017821621" y="396.30265189356095" font-size="10px">3x</text></g><g style="font-size: 13px;"><rect x="150" y="410.6071201525747" width="485" height="12.579238942875305" fill="#4472c4"></rect><rect x="150" y="423.84842430296976" width="0" height="12.579238942875305" fill="#ed7d31"></rect><rect x="150" y="437.08972845336484" width="0" height="12.579238942875305" fill="#a5a5a5"></rect><rect x="150" y="450.33103260375987" width="0" height="12.579238942875305" fill="#ffc000"></rect><rect x="150" y="463.57233675415495" width="0" height="12.579238942875305" fill="#5b9bd5"></rect><rect x="150" y="476.81364090454997" width="0" height="12.579238942875305" fill="#70ad47"></rect><text class="label" x="643.5" y="419.1071201525747" font-size="10px">Infinity</text><text class="label" x="158.5" y="432.34842430296976" font-size="10px"></text><text class="label" x="158.5" y="445.58972845336484" font-size="10px"></text><text class="label" x="158.5" y="458.83103260375987" font-size="10px"></text><text class="label" x="158.5" y="472.07233675415495" font-size="10px"></text><text class="label" x="158.5" y="485.31364090454997" font-size="10px"></text></g><g style="font-size: 13px;"><rect x="150" y="499.6181091635637" width="112.93533394012414" height="12.579238942875305" fill="#4472c4"></rect><rect x="150" y="512.8594133139588" width="110.6185930148117" height="12.579238942875305" fill="#ed7d31"></rect><rect x="150" y="526.1007174643538" width="35.50002444832182" height="12.579238942875305" fill="#a5a5a5"></rect><rect x="150" y="539.3420216147489" width="7.843101078409526" height="12.579238942875305" fill="#ffc000"></rect><rect x="150" y="552.583325765144" width="0.14468742825604627" height="12.579238942875305" fill="#5b9bd5"></rect><rect x="150" y="565.824629915539" width="0.039778963765352886" height="12.579238942875305" fill="#70ad47"></rect><text class="label" x="271.4353339401241" y="508.1181091635637" font-size="10px">2,839x</text><text class="label" x="269.1185930148117" y="521.3594133139588" font-size="10px">2,781x</text><text class="label" x="194.00002444832182" y="534.6007174643538" font-size="10px">892x</text><text class="label" x="166.34310107840952" y="547.8420216147489" font-size="10px">197x</text><text class="label" x="158.64468742825605" y="561.083325765144" font-size="10px">4x</text><text class="label" x="158.53977896376534" y="574.324629915539" font-size="10px">1x</text></g><g style="font-size: 13px;"><rect x="150" y="588.6290981745527" width="49.7437211041373" height="12.579238942875305" fill="#4472c4"></rect><rect x="150" y="601.8704023249478" width="24.49961504068161" height="12.579238942875305" fill="#ed7d31"></rect><rect x="150" y="615.1117064753429" width="10.285745519770497" height="12.579238942875305" fill="#a5a5a5"></rect><rect x="150" y="628.353010625738" width="4.671309483049427" height="12.579238942875305" fill="#ffc000"></rect><rect x="150" y="641.5943147761329" width="0.039778963765352886" height="12.579238942875305" fill="#5b9bd5"></rect><rect x="150" y="654.835618926528" width="0.5055306333018927" height="12.579238942875305" fill="#70ad47"></rect><text class="label" x="208.2437211041373" y="597.1290981745527" font-size="10px">1,251x</text><text class="label" x="182.99961504068162" y="610.3704023249478" font-size="10px">616x</text><text class="label" x="168.7857455197705" y="623.6117064753429" font-size="10px">259x</text><text class="label" x="163.1713094830494" y="636.853010625738" font-size="10px">117x</text><text class="label" x="158.53977896376534" y="650.0943147761329" font-size="10px">1x</text><text class="label" x="159.0055306333019" y="663.335618926528" font-size="10px">13x</text></g><g style="font-size: 13px;"><rect x="150" y="677.6400871855418" width="485" height="12.579238942875305" fill="#4472c4"></rect><rect x="150" y="690.8813913359369" width="0" height="12.579238942875305" fill="#ed7d31"></rect><rect x="150" y="704.122695486332" width="0" height="12.579238942875305" fill="#a5a5a5"></rect><rect x="150" y="717.363999636727" width="0" height="12.579238942875305" fill="#ffc000"></rect><rect x="150" y="730.605303787122" width="0" height="12.579238942875305" fill="#5b9bd5"></rect><rect x="150" y="743.8466079375171" width="0" height="12.579238942875305" fill="#70ad47"></rect><text class="label" x="643.5" y="686.1400871855418" font-size="10px">Infinity</text><text class="label" x="158.5" y="699.3813913359369" font-size="10px"></text><text class="label" x="158.5" y="712.622695486332" font-size="10px"></text><text class="label" x="158.5" y="725.863999636727" font-size="10px"></text><text class="label" x="158.5" y="739.105303787122" font-size="10px"></text><text class="label" x="158.5" y="752.3466079375171" font-size="10px"></text></g><g style="font-size: 13px;"><rect x="150" y="766.6510761965307" width="485" height="12.579238942875305" fill="#4472c4"></rect><rect x="150" y="779.8923803469257" width="0" height="12.579238942875305" fill="#ed7d31"></rect><rect x="150" y="793.1336844973208" width="0" height="12.579238942875305" fill="#a5a5a5"></rect><rect x="150" y="806.3749886477159" width="0" height="12.579238942875305" fill="#ffc000"></rect><rect x="150" y="819.6162927981109" width="0" height="12.579238942875305" fill="#5b9bd5"></rect><rect x="150" y="832.8575969485059" width="0" height="12.579238942875305" fill="#70ad47"></rect><text class="label" x="643.5" y="775.1510761965307" font-size="10px">Infinity</text><text class="label" x="158.5" y="788.3923803469257" font-size="10px"></text><text class="label" x="158.5" y="801.6336844973208" font-size="10px"></text><text class="label" x="158.5" y="814.8749886477159" font-size="10px"></text><text class="label" x="158.5" y="828.1162927981109" font-size="10px"></text><text class="label" x="158.5" y="841.3575969485059" font-size="10px"></text></g></g></svg>