<svg xmlns="http://www.w3.org/2000/svg" xmlns:xlink="http://www.w3.org/1999/xlink" width="800" height="600" style="background-color: white;"><g class="y axis" transform="translate(149,45)" fill="none" font-size="10" font-family="sans-serif" text-anchor="end" style="font-size: 13px;"><path class="domain" stroke="currentColor" d="M0.5,0.5V525.5"></path><g class="tick" opacity="1" transform="translate(0,40.66901408450705)" style="font-size: 13px;"><line stroke="currentColor" x2="0"></line><text fill="currentColor" x="-3" dy="0.32em">object (simple)    </text></g><g class="tick" opacity="1" transform="translate(0,114.61267605633802)" style="font-size: 13px;"><line stroke="currentColor" x2="0"></line><text fill="currentColor" x="-3" dy="0.32em">object (hierarchical)    </text></g><g class="tick" opacity="1" transform="translate(0,188.556338028169)" style="font-size: 13px;"><line stroke="currentColor" x2="0"></line><text fill="currentColor" x="-3" dy="0.32em">object (recursive)    </text></g><g class="tick" opacity="1" transform="translate(0,262.5)" style="font-size: 13px;"><line stroke="currentColor" x2="0"></line><text fill="currentColor" x="-3" dy="0.32em">object (union)    </text></g><g class="tick" opacity="1" transform="translate(0,336.443661971831)" style="font-size: 13px;"><line stroke="currentColor" x2="0"></line><text fill="currentColor" x="-3" dy="0.32em">array (hierarchical)    </text></g><g class="tick" opacity="1" transform="translate(0,410.38732394366195)" style="font-size: 13px;"><line stroke="currentColor" x2="0"></line><text fill="currentColor" x="-3" dy="0.32em">array (recursive)    </text></g><g class="tick" opacity="1" transform="translate(0,484.33098591549293)" style="font-size: 13px;"><line stroke="currentColor" x2="0"></line><text fill="currentColor" x="-3" dy="0.32em">array (union)    </text></g></g><g class="x axis" transform="translate(149,570)" fill="none" font-size="10" font-family="sans-serif" text-anchor="middle" style="font-size: 13px;"><path class="domain" stroke="currentColor" d="M0.5,0.5H485.5"></path><g class="tick" opacity="1" transform="translate(0.5,0)" style="font-size: 13px;"><line stroke="currentColor" y2="6"></line><text fill="currentColor" y="9" dy="0.71em">0x</text></g><g class="tick" opacity="1" transform="translate(113.37025905217129,0)" style="font-size: 13px;"><line stroke="currentColor" y2="6"></line><text fill="currentColor" y="9" dy="0.71em">2x</text></g><g class="tick" opacity="1" transform="translate(226.24051810434258,0)" style="font-size: 13px;"><line stroke="currentColor" y2="6"></line><text fill="currentColor" y="9" dy="0.71em">4x</text></g><g class="tick" opacity="1" transform="translate(339.11077715651385,0)" style="font-size: 13px;"><line stroke="currentColor" y2="6"></line><text fill="currentColor" y="9" dy="0.71em">6x</text></g><g class="tick" opacity="1" transform="translate(451.98103620868517,0)" style="font-size: 13px;"><line stroke="currentColor" y2="6"></line><text fill="currentColor" y="9" dy="0.71em">8x</text></g></g><text transform="translate(400, 30)" style="text-anchor: middle; font-size: 20px; font-weight: bold;">stringify benchmark</text><rect x="680" y="145" width="200" height="5" fill="gray"></rect><rect x="675" y="35" width="200" height="110" fill="none" stroke="black"></rect><rect x="685" y="45" width="10" height="10" style="fill: #4472c4;"></rect><text x="700" y="55" style="font-size: 12px;">TSON.stringify()</text><rect x="685" y="65" width="10" height="10" style="fill: #ed7d31;"></rect><text x="700" y="75" style="font-size: 12px;">TSON.assertStringify()</text><rect x="685" y="85" width="10" height="10" style="fill: #a5a5a5;"></rect><text x="700" y="95" style="font-size: 12px;">TSON.isStringify()</text><rect x="685" y="105" width="10" height="10" style="fill: #ffc000;"></rect><text x="700" y="115" style="font-size: 12px;">JSON.stringify()</text><rect x="685" y="125" width="10" height="10" style="fill: #5b9bd5;"></rect><text x="700" y="135" style="font-size: 12px;">fast-json-stringify</text><g style="font-size: 13px;"><g style="font-size: 13px;"><rect x="150" y="53.05327011574397" width="440.9090909090909" height="12.519174452656534" fill="#4472c4"></rect><rect x="150" y="66.23134848696137" width="392.35870472307386" height="12.519174452656534" fill="#ed7d31"></rect><rect x="150" y="79.40942685817878" width="404.3255441022718" height="12.519174452656534" fill="#a5a5a5"></rect><rect x="150" y="92.58750522939619" width="56.435129526085646" height="12.519174452656534" fill="#ffc000"></rect><rect x="150" y="105.76558360061358" width="304.3292156385629" height="12.519174452656534" fill="#5b9bd5"></rect><text class="label" x="599.4090909090909" y="61.55327011574397" font-size="10px">7.81x</text><text class="label" x="550.8587047230739" y="74.73134848696137" font-size="10px">6.95x</text><text class="label" x="562.8255441022718" y="87.90942685817878" font-size="10px">7.16x</text><text class="label" x="214.93512952608563" y="101.08750522939619" font-size="10px">1x</text><text class="label" x="462.8292156385629" y="114.26558360061358" font-size="10px">5.39x</text><text class="label" x="595.9090909090909" y="63.05327011574397" font-size="8px"></text><text class="label" x="547.3587047230739" y="76.23134848696137" font-size="8px"></text><text class="label" x="559.3255441022718" y="89.40942685817878" font-size="8px"></text><text class="label" x="211.43512952608563" y="102.58750522939619" font-size="8px"></text><text class="label" x="459.3292156385629" y="115.76558360061358" font-size="8px"></text></g><g style="font-size: 13px;"><rect x="150" y="126.99693208757495" width="206.42920779043698" height="12.519174452656534" fill="#4472c4"></rect><rect x="150" y="140.17501045879237" width="177.2465610280028" height="12.519174452656534" fill="#ed7d31"></rect><rect x="150" y="153.35308883000977" width="184.93260994659755" height="12.519174452656534" fill="#a5a5a5"></rect><rect x="150" y="166.53116720122716" width="56.435129526085646" height="12.519174452656534" fill="#ffc000"></rect><rect x="150" y="179.70924557244456" width="238.6898200160715" height="12.519174452656534" fill="#5b9bd5"></rect><text class="label" x="364.929207790437" y="135.49693208757495" font-size="10px">3.66x</text><text class="label" x="335.7465610280028" y="148.67501045879237" font-size="10px">3.14x</text><text class="label" x="343.43260994659755" y="161.85308883000977" font-size="10px">3.28x</text><text class="label" x="214.93512952608563" y="175.03116720122716" font-size="10px">1x</text><text class="label" x="397.1898200160715" y="188.20924557244456" font-size="10px">4.23x</text><text class="label" x="361.429207790437" y="136.99693208757495" font-size="8px"></text><text class="label" x="332.2465610280028" y="150.17501045879237" font-size="8px"></text><text class="label" x="339.93260994659755" y="163.35308883000977" font-size="8px"></text><text class="label" x="211.43512952608563" y="176.53116720122716" font-size="8px"></text><text class="label" x="393.6898200160715" y="189.70924557244456" font-size="8px"></text></g><g style="font-size: 13px;"><rect x="150" y="200.94059405940592" width="263.8050658577864" height="12.519174452656534" fill="#4472c4"></rect><rect x="150" y="214.11867243062332" width="251.6669881003282" height="12.519174452656534" fill="#ed7d31"></rect><rect x="150" y="227.29675080184074" width="264.015876991804" height="12.519174452656534" fill="#a5a5a5"></rect><rect x="150" y="240.47482917305814" width="56.61583411371649" height="12.519174452656534" fill="#ffc000"></rect><rect x="150" y="253.65290754427554" width="56.435129526085646" height="12.519174452656534" fill="#5b9bd5"></rect><text class="label" x="422.3050658577864" y="209.44059405940592" font-size="10px">4.67x</text><text class="label" x="410.16698810032824" y="222.61867243062332" font-size="10px">4.46x</text><text class="label" x="422.515876991804" y="235.79675080184074" font-size="10px">4.68x</text><text class="label" x="215.1158341137165" y="248.97482917305814" font-size="10px">1x</text><text class="label" x="214.93512952608563" y="262.15290754427554" font-size="10px">1x</text><text class="label" x="418.8050658577864" y="210.94059405940592" font-size="8px"></text><text class="label" x="406.66698810032824" y="224.11867243062332" font-size="8px"></text><text class="label" x="419.015876991804" y="237.29675080184074" font-size="8px"></text><text class="label" x="211.6158341137165" y="250.47482917305814" font-size="8px"></text><text class="label" x="211.43512952608563" y="263.65290754427554" font-size="8px"></text></g><g style="font-size: 13px;"><rect x="150" y="274.8842560312369" width="133.76087457495962" height="12.519174452656534" fill="#4472c4"></rect><rect x="150" y="288.0623344024543" width="104.52739962713756" height="12.519174452656534" fill="#ed7d31"></rect><rect x="150" y="301.2404127736717" width="121.5992232160776" height="12.519174452656534" fill="#a5a5a5"></rect><rect x="150" y="314.4184911448891" width="56.435129526085646" height="12.519174452656534" fill="#ffc000"></rect><rect x="150" y="327.5965695161065" width="124.80435610953376" height="12.519174452656534" fill="#5b9bd5"></rect><text class="label" x="292.26087457495964" y="283.3842560312369" font-size="10px">2.37x</text><text class="label" x="263.0273996271376" y="296.5623344024543" font-size="10px">1.85x</text><text class="label" x="280.0992232160776" y="309.7404127736717" font-size="10px">2.15x</text><text class="label" x="214.93512952608563" y="322.9184911448891" font-size="10px">1x</text><text class="label" x="283.3043561095337" y="336.0965695161065" font-size="10px">2.21x</text><text class="label" x="288.76087457495964" y="284.8842560312369" font-size="8px"></text><text class="label" x="259.5273996271376" y="298.0623344024543" font-size="8px"></text><text class="label" x="276.5992232160776" y="311.2404127736717" font-size="8px"></text><text class="label" x="211.43512952608563" y="324.4184911448891" font-size="8px"></text><text class="label" x="279.8043561095337" y="337.5965695161065" font-size="8px"></text></g><g style="font-size: 13px;"><rect x="150" y="348.8279180030679" width="120.35928813998689" height="12.519174452656534" fill="#4472c4"></rect><rect x="150" y="362.0059963742853" width="111.68564064815041" height="12.519174452656534" fill="#ed7d31"></rect><rect x="150" y="375.1840747455027" width="115.83683741652118" height="12.519174452656534" fill="#a5a5a5"></rect><rect x="150" y="388.3621531167201" width="56.435129526085646" height="12.519174452656534" fill="#ffc000"></rect><rect x="150" y="401.5402314879375" width="166.34751409605346" height="12.519174452656534" fill="#5b9bd5"></rect><text class="label" x="278.8592881399869" y="357.3279180030679" font-size="10px">2.13x</text><text class="label" x="270.1856406481504" y="370.5059963742853" font-size="10px">1.98x</text><text class="label" x="274.3368374165212" y="383.6840747455027" font-size="10px">2.05x</text><text class="label" x="214.93512952608563" y="396.8621531167201" font-size="10px">1x</text><text class="label" x="324.8475140960535" y="410.0402314879375" font-size="10px">2.95x</text><text class="label" x="275.3592881399869" y="358.8279180030679" font-size="8px"></text><text class="label" x="266.6856406481504" y="372.0059963742853" font-size="8px"></text><text class="label" x="270.8368374165212" y="385.1840747455027" font-size="8px"></text><text class="label" x="211.43512952608563" y="398.3621531167201" font-size="8px"></text><text class="label" x="321.3475140960535" y="411.5402314879375" font-size="8px"></text></g><g style="font-size: 13px;"><rect x="150" y="422.7715799748988" width="120.1088849567597" height="12.519174452656534" fill="#4472c4"></rect><rect x="150" y="435.9496583461163" width="108.11685697625184" height="12.519174452656534" fill="#ed7d31"></rect><rect x="150" y="449.1277367173337" width="112.83208216744897" height="12.519174452656534" fill="#a5a5a5"></rect><rect x="150" y="462.30581508855107" width="56.435129526085646" height="12.519174452656534" fill="#ffc000"></rect><rect x="150" y="475.48389345976847" width="57.21770815629585" height="12.519174452656534" fill="#5b9bd5"></rect><text class="label" x="278.6088849567597" y="431.2715799748988" font-size="10px">2.13x</text><text class="label" x="266.6168569762518" y="444.4496583461163" font-size="10px">1.92x</text><text class="label" x="271.33208216744896" y="457.6277367173337" font-size="10px">2x</text><text class="label" x="214.93512952608563" y="470.80581508855107" font-size="10px">1x</text><text class="label" x="215.71770815629586" y="483.98389345976847" font-size="10px">1.01x</text><text class="label" x="275.1088849567597" y="432.7715799748988" font-size="8px"></text><text class="label" x="263.1168569762518" y="445.9496583461163" font-size="8px"></text><text class="label" x="267.83208216744896" y="459.1277367173337" font-size="8px"></text><text class="label" x="211.43512952608563" y="472.30581508855107" font-size="8px"></text><text class="label" x="212.21770815629586" y="485.48389345976847" font-size="8px"></text></g><g style="font-size: 13px;"><rect x="150" y="496.71524194672986" width="78.48547522353795" height="12.519174452656534" fill="#4472c4"></rect><rect x="150" y="509.89332031794726" width="70.0691900290485" height="12.519174452656534" fill="#ed7d31"></rect><rect x="150" y="523.0713986891647" width="70.87489545826377" height="12.519174452656534" fill="#a5a5a5"></rect><rect x="150" y="536.2494770603821" width="64.68156810990746" height="12.519174452656534" fill="#ffc000"></rect><rect x="150" y="549.4275554315994" width="56.435129526085646" height="12.519174452656534" fill="#5b9bd5"></rect><text class="label" x="236.98547522353795" y="505.21524194672986" font-size="10px">1.39x</text><text class="label" x="228.5691900290485" y="518.3933203179472" font-size="10px">1.24x</text><text class="label" x="229.37489545826378" y="531.5713986891647" font-size="10px">1.26x</text><text class="label" x="223.18156810990746" y="544.7494770603821" font-size="10px">1.15x</text><text class="label" x="214.93512952608563" y="557.9275554315994" font-size="10px">1x</text><text class="label" x="233.48547522353795" y="506.71524194672986" font-size="8px"></text><text class="label" x="225.0691900290485" y="519.8933203179472" font-size="8px"></text><text class="label" x="225.87489545826378" y="533.0713986891647" font-size="8px"></text><text class="label" x="219.68156810990746" y="546.2494770603821" font-size="8px"></text><text class="label" x="211.43512952608563" y="559.4275554315994" font-size="8px"></text></g></g></svg>