<svg xmlns="http://www.w3.org/2000/svg" xmlns:xlink="http://www.w3.org/1999/xlink" width="800" height="675" style="background-color: white;"><g class="y axis" transform="translate(149,45)" fill="none" font-size="10" font-family="sans-serif" text-anchor="end" style="font-size: 13px;"><path class="domain" stroke="currentColor" d="M0.5,0.5V600.5"></path><g class="tick" opacity="1" transform="translate(0,40.740740740740726)" style="font-size: 13px;"><line stroke="currentColor" x2="0"></line><text fill="currentColor" x="-3" dy="0.32em">object (simple)    </text></g><g class="tick" opacity="1" transform="translate(0,114.81481481481481)" style="font-size: 13px;"><line stroke="currentColor" x2="0"></line><text fill="currentColor" x="-3" dy="0.32em">object (hierarchical)    </text></g><g class="tick" opacity="1" transform="translate(0,188.88888888888889)" style="font-size: 13px;"><line stroke="currentColor" x2="0"></line><text fill="currentColor" x="-3" dy="0.32em">object (recursive)    </text></g><g class="tick" opacity="1" transform="translate(0,262.96296296296293)" style="font-size: 13px;"><line stroke="currentColor" x2="0"></line><text fill="currentColor" x="-3" dy="0.32em">object (union)    </text></g><g class="tick" opacity="1" transform="translate(0,337.037037037037)" style="font-size: 13px;"><line stroke="currentColor" x2="0"></line><text fill="currentColor" x="-3" dy="0.32em">array (simple)    </text></g><g class="tick" opacity="1" transform="translate(0,411.1111111111111)" style="font-size: 13px;"><line stroke="currentColor" x2="0"></line><text fill="currentColor" x="-3" dy="0.32em">array (hierarchical)    </text></g><g class="tick" opacity="1" transform="translate(0,485.18518518518516)" style="font-size: 13px;"><line stroke="currentColor" x2="0"></line><text fill="currentColor" x="-3" dy="0.32em">array (recursive)    </text></g><g class="tick" opacity="1" transform="translate(0,559.2592592592592)" style="font-size: 13px;"><line stroke="currentColor" x2="0"></line><text fill="currentColor" x="-3" dy="0.32em">array (union)    </text></g></g><g class="x axis" transform="translate(149,645)" fill="none" font-size="10" font-family="sans-serif" text-anchor="middle" style="font-size: 13px;"><path class="domain" stroke="currentColor" d="M0.5,0.5H485.5"></path><g class="tick" opacity="1" transform="translate(0.5,0)" style="font-size: 13px;"><line stroke="currentColor" y2="6"></line><text fill="currentColor" y="9" dy="0.71em">0x</text></g><g class="tick" opacity="1" transform="translate(84.08176374111028,0)" style="font-size: 13px;"><line stroke="currentColor" y2="6"></line><text fill="currentColor" y="9" dy="0.71em">0.5x</text></g><g class="tick" opacity="1" transform="translate(167.66352748222056,0)" style="font-size: 13px;"><line stroke="currentColor" y2="6"></line><text fill="currentColor" y="9" dy="0.71em">1x</text></g><g class="tick" opacity="1" transform="translate(251.24529122333087,0)" style="font-size: 13px;"><line stroke="currentColor" y2="6"></line><text fill="currentColor" y="9" dy="0.71em">1.5x</text></g><g class="tick" opacity="1" transform="translate(334.8270549644411,0)" style="font-size: 13px;"><line stroke="currentColor" y2="6"></line><text fill="currentColor" y="9" dy="0.71em">2x</text></g><g class="tick" opacity="1" transform="translate(418.4088187055514,0)" style="font-size: 13px;"><line stroke="currentColor" y2="6"></line><text fill="currentColor" y="9" dy="0.71em">2.5x</text></g></g><text transform="translate(400, 30)" style="text-anchor: middle; font-size: 20px; font-weight: bold;">stringify (server) benchmark</text><rect x="680" y="145" width="200" height="5" fill="gray"></rect><rect x="675" y="35" width="200" height="110" fill="none" stroke="black"></rect><rect x="685" y="45" width="10" height="10" style="fill: #4472c4;"></rect><text x="700" y="55" style="font-size: 12px;">express (pure)</text><rect x="685" y="65" width="10" height="10" style="fill: #ed7d31;"></rect><text x="700" y="75" style="font-size: 12px;">express (TSON.stringify)</text><rect x="685" y="85" width="10" height="10" style="fill: #a5a5a5;"></rect><text x="700" y="95" style="font-size: 12px;">express (TSON.isStringify)</text><rect x="685" y="105" width="10" height="10" style="fill: #ffc000;"></rect><text x="700" y="115" style="font-size: 12px;">express (TSON.assertStringify)</text><rect x="685" y="125" width="10" height="10" style="fill: #5b9bd5;"></rect><text x="700" y="135" style="font-size: 12px;">fastify</text><g style="font-size: 13px;"><g style="font-size: 13px;"><rect x="150" y="53.06747341400805" width="167.16352748222056" height="12.541254125412543" fill="#4472c4"></rect><rect x="150" y="66.26879354602124" width="231.56697573817044" height="12.541254125412543" fill="#ed7d31"></rect><rect x="150" y="79.47011367803445" width="227.3665710731377" height="12.541254125412543" fill="#a5a5a5"></rect><rect x="150" y="92.67143381004766" width="214.97862283495624" height="12.541254125412543" fill="#ffc000"></rect><rect x="150" y="105.87275394206085" width="440.9090909090908" height="12.541254125412543" fill="#5b9bd5"></rect><text class="label" x="325.66352748222056" y="61.56747341400805" font-size="10px">1x</text><text class="label" x="390.0669757381704" y="74.76879354602124" font-size="10px">1.39x</text><text class="label" x="385.8665710731377" y="87.97011367803445" font-size="10px">1.36x</text><text class="label" x="373.47862283495624" y="101.17143381004766" font-size="10px">1.29x</text><text class="label" x="599.4090909090908" y="114.37275394206085" font-size="10px">2.64x</text><text class="label" x="322.16352748222056" y="63.06747341400805" font-size="8px"></text><text class="label" x="386.5669757381704" y="76.26879354602124" font-size="8px"></text><text class="label" x="382.3665710731377" y="89.47011367803445" font-size="8px"></text><text class="label" x="369.97862283495624" y="102.67143381004766" font-size="8px"></text><text class="label" x="595.9090909090908" y="115.87275394206085" font-size="8px"></text></g><g style="font-size: 13px;"><rect x="150" y="127.14154748808213" width="167.16352748222056" height="12.541254125412543" fill="#4472c4"></rect><rect x="150" y="140.34286762009532" width="187.76713249331706" height="12.541254125412543" fill="#ed7d31"></rect><rect x="150" y="153.54418775210854" width="186.9392898559923" height="12.541254125412543" fill="#a5a5a5"></rect><rect x="150" y="166.74550788412174" width="185.48776328291783" height="12.541254125412543" fill="#ffc000"></rect><rect x="150" y="179.94682801613493" width="290.1041667139477" height="12.541254125412543" fill="#5b9bd5"></rect><text class="label" x="325.66352748222056" y="135.64154748808213" font-size="10px">1x</text><text class="label" x="346.26713249331704" y="148.84286762009532" font-size="10px">1.12x</text><text class="label" x="345.43928985599234" y="162.04418775210854" font-size="10px">1.12x</text><text class="label" x="343.98776328291785" y="175.24550788412174" font-size="10px">1.11x</text><text class="label" x="448.6041667139477" y="188.44682801613493" font-size="10px">1.74x</text><text class="label" x="322.16352748222056" y="137.14154748808213" font-size="8px"></text><text class="label" x="342.76713249331704" y="150.34286762009532" font-size="8px"></text><text class="label" x="341.93928985599234" y="163.54418775210854" font-size="8px"></text><text class="label" x="340.48776328291785" y="176.74550788412174" font-size="8px"></text><text class="label" x="445.1041667139477" y="189.94682801613493" font-size="8px"></text></g><g style="font-size: 13px;"><rect x="150" y="201.2156215621562" width="167.16352748222056" height="12.541254125412543" fill="#4472c4"></rect><rect x="150" y="214.4169416941694" width="198.830943982842" height="12.541254125412543" fill="#ed7d31"></rect><rect x="150" y="227.61826182618262" width="195.26503835926582" height="12.541254125412543" fill="#a5a5a5"></rect><rect x="150" y="240.8195819581958" width="192.58537682351695" height="12.541254125412543" fill="#ffc000"></rect><rect x="150" y="254.020902090209" width="216.58319825485674" height="12.541254125412543" fill="#5b9bd5"></rect><text class="label" x="325.66352748222056" y="209.7156215621562" font-size="10px">1x</text><text class="label" x="357.330943982842" y="222.9169416941694" font-size="10px">1.19x</text><text class="label" x="353.7650383592658" y="236.11826182618262" font-size="10px">1.17x</text><text class="label" x="351.085376823517" y="249.3195819581958" font-size="10px">1.15x</text><text class="label" x="375.0831982548567" y="262.520902090209" font-size="10px">1.3x</text><text class="label" x="322.16352748222056" y="211.2156215621562" font-size="8px"></text><text class="label" x="353.830943982842" y="224.4169416941694" font-size="8px"></text><text class="label" x="350.2650383592658" y="237.61826182618262" font-size="8px"></text><text class="label" x="347.585376823517" y="250.8195819581958" font-size="8px"></text><text class="label" x="371.5831982548567" y="264.020902090209" font-size="8px"></text></g><g style="font-size: 13px;"><rect x="150" y="275.28969563623025" width="167.16352748222056" height="12.541254125412543" fill="#4472c4"></rect><rect x="150" y="288.49101576824347" width="283.8152858609822" height="12.541254125412543" fill="#ed7d31"></rect><rect x="150" y="301.6923359002567" width="271.79354868120777" height="12.541254125412543" fill="#a5a5a5"></rect><rect x="150" y="314.89365603226986" width="241.7433603337995" height="12.541254125412543" fill="#ffc000"></rect><rect x="150" y="328.0949761642831" width="184.25398373539946" height="12.541254125412543" fill="#5b9bd5"></rect><text class="label" x="325.66352748222056" y="283.78969563623025" font-size="10px">1x</text><text class="label" x="442.3152858609822" y="296.99101576824347" font-size="10px">1.7x</text><text class="label" x="430.29354868120777" y="310.1923359002567" font-size="10px">1.63x</text><text class="label" x="400.2433603337995" y="323.39365603226986" font-size="10px">1.45x</text><text class="label" x="342.75398373539946" y="336.5949761642831" font-size="10px">1.1x</text><text class="label" x="322.16352748222056" y="285.28969563623025" font-size="8px"></text><text class="label" x="438.8152858609822" y="298.49101576824347" font-size="8px"></text><text class="label" x="426.79354868120777" y="311.6923359002567" font-size="8px"></text><text class="label" x="396.7433603337995" y="324.89365603226986" font-size="8px"></text><text class="label" x="339.25398373539946" y="338.0949761642831" font-size="8px"></text></g><g style="font-size: 13px;"><rect x="150" y="349.3637697103044" width="181.39324988957233" height="12.541254125412543" fill="#4472c4"></rect><rect x="150" y="362.56508984231755" width="203.05624150526899" height="12.541254125412543" fill="#ed7d31"></rect><rect x="150" y="375.76640997433077" width="167.16352748222056" height="12.541254125412543" fill="#a5a5a5"></rect><rect x="150" y="388.967730106344" width="169.14545079583013" height="12.541254125412543" fill="#ffc000"></rect><rect x="150" y="402.16905023835716" width="180.15551184350645" height="12.541254125412543" fill="#5b9bd5"></rect><text class="label" x="339.8932498895723" y="357.8637697103044" font-size="10px">1.09x</text><text class="label" x="361.556241505269" y="371.06508984231755" font-size="10px">1.21x</text><text class="label" x="325.66352748222056" y="384.26640997433077" font-size="10px">1x</text><text class="label" x="327.64545079583013" y="397.467730106344" font-size="10px">1.01x</text><text class="label" x="338.6555118435065" y="410.66905023835716" font-size="10px">1.08x</text><text class="label" x="336.3932498895723" y="359.3637697103044" font-size="8px"></text><text class="label" x="358.056241505269" y="372.56508984231755" font-size="8px"></text><text class="label" x="322.16352748222056" y="385.76640997433077" font-size="8px"></text><text class="label" x="324.14545079583013" y="398.967730106344" font-size="8px"></text><text class="label" x="335.1555118435065" y="412.16905023835716" font-size="8px"></text></g><g style="font-size: 13px;"><rect x="150" y="423.4378437843784" width="209.8699328549072" height="12.541254125412543" fill="#4472c4"></rect><rect x="150" y="436.6391639163916" width="306.5505828549018" height="12.541254125412543" fill="#ed7d31"></rect><rect x="150" y="449.84048404840485" width="255.74964460600776" height="12.541254125412543" fill="#a5a5a5"></rect><rect x="150" y="463.041804180418" width="182.6169658778948" height="12.541254125412543" fill="#ffc000"></rect><rect x="150" y="476.24312431243123" width="167.16352748222056" height="12.541254125412543" fill="#5b9bd5"></rect><text class="label" x="368.36993285490723" y="431.9378437843784" font-size="10px">1.26x</text><text class="label" x="465.0505828549018" y="445.1391639163916" font-size="10px">1.83x</text><text class="label" x="414.2496446060078" y="458.34048404840485" font-size="10px">1.53x</text><text class="label" x="341.1169658778948" y="471.541804180418" font-size="10px">1.09x</text><text class="label" x="325.66352748222056" y="484.74312431243123" font-size="10px">1x</text><text class="label" x="364.86993285490723" y="433.4378437843784" font-size="8px"></text><text class="label" x="461.5505828549018" y="446.6391639163916" font-size="8px"></text><text class="label" x="410.7496446060078" y="459.84048404840485" font-size="8px"></text><text class="label" x="337.6169658778948" y="473.041804180418" font-size="8px"></text><text class="label" x="322.16352748222056" y="486.24312431243123" font-size="8px"></text></g><g style="font-size: 13px;"><rect x="150" y="497.51191785845253" width="167.9900522170576" height="12.541254125412543" fill="#4472c4"></rect><rect x="150" y="510.7132379904657" width="199.96198452000962" height="12.541254125412543" fill="#ed7d31"></rect><rect x="150" y="523.9145581224789" width="197.43060899188404" height="12.541254125412543" fill="#a5a5a5"></rect><rect x="150" y="537.1158782544921" width="195.94797652289827" height="12.541254125412543" fill="#ffc000"></rect><rect x="150" y="550.3171983865053" width="167.16352748222056" height="12.541254125412543" fill="#5b9bd5"></rect><text class="label" x="326.4900522170576" y="506.01191785845253" font-size="10px">1x</text><text class="label" x="358.46198452000965" y="519.2132379904657" font-size="10px">1.2x</text><text class="label" x="355.930608991884" y="532.4145581224789" font-size="10px">1.18x</text><text class="label" x="354.4479765228983" y="545.6158782544921" font-size="10px">1.17x</text><text class="label" x="325.66352748222056" y="558.8171983865053" font-size="10px">1x</text><text class="label" x="322.9900522170576" y="507.51191785845253" font-size="8px"></text><text class="label" x="354.96198452000965" y="520.7132379904657" font-size="8px"></text><text class="label" x="352.430608991884" y="533.9145581224789" font-size="8px"></text><text class="label" x="350.9479765228983" y="547.1158782544921" font-size="8px"></text><text class="label" x="322.16352748222056" y="560.3171983865053" font-size="8px"></text></g><g style="font-size: 13px;"><rect x="150" y="571.5859919325266" width="211.97169101996573" height="12.541254125412543" fill="#4472c4"></rect><rect x="150" y="584.7873120645397" width="205.6223819656697" height="12.541254125412543" fill="#ed7d31"></rect><rect x="150" y="597.9886321965529" width="178.008708558468" height="12.541254125412543" fill="#a5a5a5"></rect><rect x="150" y="611.1899523285662" width="179.2247341789597" height="12.541254125412543" fill="#ffc000"></rect><rect x="150" y="624.3912724605793" width="167.16352748222056" height="12.541254125412543" fill="#5b9bd5"></rect><text class="label" x="370.47169101996576" y="580.0859919325266" font-size="10px">1.27x</text><text class="label" x="364.12238196566966" y="593.2873120645397" font-size="10px">1.23x</text><text class="label" x="336.508708558468" y="606.4886321965529" font-size="10px">1.06x</text><text class="label" x="337.7247341789597" y="619.6899523285662" font-size="10px">1.07x</text><text class="label" x="325.66352748222056" y="632.8912724605793" font-size="10px">1x</text><text class="label" x="366.97169101996576" y="581.5859919325266" font-size="8px"></text><text class="label" x="360.62238196566966" y="594.7873120645397" font-size="8px"></text><text class="label" x="333.008708558468" y="607.9886321965529" font-size="8px"></text><text class="label" x="334.2247341789597" y="621.1899523285662" font-size="8px"></text><text class="label" x="322.16352748222056" y="634.3912724605793" font-size="8px"></text></g></g></svg>