<svg xmlns="http://www.w3.org/2000/svg" xmlns:xlink="http://www.w3.org/1999/xlink" width="800" height="600" style="background-color: white;"><g class="y axis" transform="translate(149,45)" fill="none" font-size="10" font-family="sans-serif" text-anchor="end" style="font-size: 13px;"><path class="domain" stroke="currentColor" d="M0.5,0.5V525.5"></path><g class="tick" opacity="1" transform="translate(0,40.66901408450705)" style="font-size: 13px;"><line stroke="currentColor" x2="0"></line><text fill="currentColor" x="-3" dy="0.32em">object (simple)    </text></g><g class="tick" opacity="1" transform="translate(0,114.61267605633802)" style="font-size: 13px;"><line stroke="currentColor" x2="0"></line><text fill="currentColor" x="-3" dy="0.32em">object (hierarchical)    </text></g><g class="tick" opacity="1" transform="translate(0,188.556338028169)" style="font-size: 13px;"><line stroke="currentColor" x2="0"></line><text fill="currentColor" x="-3" dy="0.32em">object (recursive)    </text></g><g class="tick" opacity="1" transform="translate(0,262.5)" style="font-size: 13px;"><line stroke="currentColor" x2="0"></line><text fill="currentColor" x="-3" dy="0.32em">object (union)    </text></g><g class="tick" opacity="1" transform="translate(0,336.443661971831)" style="font-size: 13px;"><line stroke="currentColor" x2="0"></line><text fill="currentColor" x="-3" dy="0.32em">array (hierarchical)    </text></g><g class="tick" opacity="1" transform="translate(0,410.38732394366195)" style="font-size: 13px;"><line stroke="currentColor" x2="0"></line><text fill="currentColor" x="-3" dy="0.32em">array (recursive)    </text></g><g class="tick" opacity="1" transform="translate(0,484.33098591549293)" style="font-size: 13px;"><line stroke="currentColor" x2="0"></line><text fill="currentColor" x="-3" dy="0.32em">array (union)    </text></g></g><g class="x axis" transform="translate(149,570)" fill="none" font-size="10" font-family="sans-serif" text-anchor="middle" style="font-size: 13px;"><path class="domain" stroke="currentColor" d="M0.5,0.5H485.5"></path><g class="tick" opacity="1" transform="translate(0.5,0)" style="font-size: 13px;"><line stroke="currentColor" y2="6"></line><text fill="currentColor" y="9" dy="0.71em">0x</text></g><g class="tick" opacity="1" transform="translate(118.0029946462181,0)" style="font-size: 13px;"><line stroke="currentColor" y2="6"></line><text fill="currentColor" y="9" dy="0.71em">2x</text></g><g class="tick" opacity="1" transform="translate(235.5059892924362,0)" style="font-size: 13px;"><line stroke="currentColor" y2="6"></line><text fill="currentColor" y="9" dy="0.71em">4x</text></g><g class="tick" opacity="1" transform="translate(353.0089839386543,0)" style="font-size: 13px;"><line stroke="currentColor" y2="6"></line><text fill="currentColor" y="9" dy="0.71em">6x</text></g><g class="tick" opacity="1" transform="translate(470.5119785848724,0)" style="font-size: 13px;"><line stroke="currentColor" y2="6"></line><text fill="currentColor" y="9" dy="0.71em">8x</text></g></g><text transform="translate(400, 30)" style="text-anchor: middle; font-size: 20px; font-weight: bold;">stringify benchmark</text><rect x="680" y="145" width="200" height="5" fill="gray"></rect><rect x="675" y="35" width="200" height="110" fill="none" stroke="black"></rect><rect x="685" y="45" width="10" height="10" style="fill: #4472c4;"></rect><text x="700" y="55" style="font-size: 12px;">TSON.stringify()</text><rect x="685" y="65" width="10" height="10" style="fill: #ed7d31;"></rect><text x="700" y="75" style="font-size: 12px;">TSON.assertStringify()</text><rect x="685" y="85" width="10" height="10" style="fill: #a5a5a5;"></rect><text x="700" y="95" style="font-size: 12px;">TSON.isStringify()</text><rect x="685" y="105" width="10" height="10" style="fill: #ffc000;"></rect><text x="700" y="115" style="font-size: 12px;">JSON.stringify()</text><rect x="685" y="125" width="10" height="10" style="fill: #5b9bd5;"></rect><text x="700" y="135" style="font-size: 12px;">fast-json-stringify</text><g style="font-size: 13px;"><g style="font-size: 13px;"><rect x="150" y="53.05327011574397" width="440.9090909090909" height="12.519174452656534" fill="#4472c4"></rect><rect x="150" y="66.23134848696137" width="370.7230376883608" height="12.519174452656534" fill="#ed7d31"></rect><rect x="150" y="79.40942685817878" width="395.5700106933747" height="12.519174452656534" fill="#a5a5a5"></rect><rect x="150" y="92.58750522939619" width="58.75149732310905" height="12.519174452656534" fill="#ffc000"></rect><rect x="150" y="105.76558360061358" width="283.0177705689793" height="12.519174452656534" fill="#5b9bd5"></rect><text class="label" x="599.4090909090909" y="61.55327011574397" font-size="10px">7.5x</text><text class="label" x="529.2230376883608" y="74.73134848696137" font-size="10px">6.31x</text><text class="label" x="554.0700106933747" y="87.90942685817878" font-size="10px">6.73x</text><text class="label" x="217.25149732310905" y="101.08750522939619" font-size="10px">1x</text><text class="label" x="441.5177705689793" y="114.26558360061358" font-size="10px">4.82x</text></g><g style="font-size: 13px;"><rect x="150" y="126.99693208757495" width="189.71226967964296" height="12.519174452656534" fill="#4472c4"></rect><rect x="150" y="140.17501045879237" width="165.80136874706736" height="12.519174452656534" fill="#ed7d31"></rect><rect x="150" y="153.35308883000977" width="169.133906834322" height="12.519174452656534" fill="#a5a5a5"></rect><rect x="150" y="166.53116720122716" width="58.75149732310905" height="12.519174452656534" fill="#ffc000"></rect><rect x="150" y="179.70924557244456" width="171.34156369250724" height="12.519174452656534" fill="#5b9bd5"></rect><text class="label" x="348.212269679643" y="135.49693208757495" font-size="10px">3.23x</text><text class="label" x="324.3013687470674" y="148.67501045879237" font-size="10px">2.82x</text><text class="label" x="327.63390683432203" y="161.85308883000977" font-size="10px">2.88x</text><text class="label" x="217.25149732310905" y="175.03116720122716" font-size="10px">1x</text><text class="label" x="329.84156369250724" y="188.20924557244456" font-size="10px">2.92x</text></g><g style="font-size: 13px;"><rect x="150" y="200.94059405940592" width="260.501522009894" height="12.519174452656534" fill="#4472c4"></rect><rect x="150" y="214.11867243062332" width="243.36303667866244" height="12.519174452656534" fill="#ed7d31"></rect><rect x="150" y="227.29675080184074" width="253.73939570631748" height="12.519174452656534" fill="#a5a5a5"></rect><rect x="150" y="240.47482917305814" width="60.168304755063225" height="12.519174452656534" fill="#ffc000"></rect><rect x="150" y="253.65290754427554" width="58.75149732310905" height="12.519174452656534" fill="#5b9bd5"></rect><text class="label" x="419.001522009894" y="209.44059405940592" font-size="10px">4.43x</text><text class="label" x="401.8630366786624" y="222.61867243062332" font-size="10px">4.14x</text><text class="label" x="412.2393957063175" y="235.79675080184074" font-size="10px">4.32x</text><text class="label" x="218.66830475506322" y="248.97482917305814" font-size="10px">1.02x</text><text class="label" x="217.25149732310905" y="262.15290754427554" font-size="10px">1x</text></g><g style="font-size: 13px;"><rect x="150" y="274.8842560312369" width="128.70692722056785" height="12.519174452656534" fill="#4472c4"></rect><rect x="150" y="288.0623344024543" width="103.35340889786308" height="12.519174452656534" fill="#ed7d31"></rect><rect x="150" y="301.2404127736717" width="116.85836466364545" height="12.519174452656534" fill="#a5a5a5"></rect><rect x="150" y="314.4184911448891" width="58.75149732310905" height="12.519174452656534" fill="#ffc000"></rect><rect x="150" y="327.5965695161065" width="124.94420411013685" height="12.519174452656534" fill="#5b9bd5"></rect><text class="label" x="287.2069272205679" y="283.3842560312369" font-size="10px">2.19x</text><text class="label" x="261.85340889786306" y="296.5623344024543" font-size="10px">1.76x</text><text class="label" x="275.35836466364543" y="309.7404127736717" font-size="10px">1.99x</text><text class="label" x="217.25149732310905" y="322.9184911448891" font-size="10px">1x</text><text class="label" x="283.44420411013687" y="336.0965695161065" font-size="10px">2.13x</text></g><g style="font-size: 13px;"><rect x="150" y="348.8279180030679" width="120.40571757826505" height="12.519174452656534" fill="#4472c4"></rect><rect x="150" y="362.0059963742853" width="110.89166590707629" height="12.519174452656534" fill="#ed7d31"></rect><rect x="150" y="375.1840747455027" width="116.23953489166549" height="12.519174452656534" fill="#a5a5a5"></rect><rect x="150" y="388.3621531167201" width="58.75149732310905" height="12.519174452656534" fill="#ffc000"></rect><rect x="150" y="401.5402314879375" width="169.41115046929266" height="12.519174452656534" fill="#5b9bd5"></rect><text class="label" x="278.90571757826507" y="357.3279180030679" font-size="10px">2.05x</text><text class="label" x="269.3916659070763" y="370.5059963742853" font-size="10px">1.89x</text><text class="label" x="274.73953489166547" y="383.6840747455027" font-size="10px">1.98x</text><text class="label" x="217.25149732310905" y="396.8621531167201" font-size="10px">1x</text><text class="label" x="327.9111504692927" y="410.0402314879375" font-size="10px">2.88x</text></g><g style="font-size: 13px;"><rect x="150" y="422.7715799748988" width="121.00539030394525" height="12.519174452656534" fill="#4472c4"></rect><rect x="150" y="435.9496583461163" width="106.52485224879335" height="12.519174452656534" fill="#ed7d31"></rect><rect x="150" y="449.1277367173337" width="116.1148863833944" height="12.519174452656534" fill="#a5a5a5"></rect><rect x="150" y="462.30581508855107" width="58.75149732310905" height="12.519174452656534" fill="#ffc000"></rect><rect x="150" y="475.48389345976847" width="59.55106095185382" height="12.519174452656534" fill="#5b9bd5"></rect><text class="label" x="279.50539030394526" y="431.2715799748988" font-size="10px">2.06x</text><text class="label" x="265.02485224879337" y="444.4496583461163" font-size="10px">1.81x</text><text class="label" x="274.6148863833944" y="457.6277367173337" font-size="10px">1.98x</text><text class="label" x="217.25149732310905" y="470.80581508855107" font-size="10px">1x</text><text class="label" x="218.05106095185383" y="483.98389345976847" font-size="10px">1.01x</text></g><g style="font-size: 13px;"><rect x="150" y="496.71524194672986" width="82.66333244909872" height="12.519174452656534" fill="#4472c4"></rect><rect x="150" y="509.89332031794726" width="69.30181802905322" height="12.519174452656534" fill="#ed7d31"></rect><rect x="150" y="523.0713986891647" width="73.22627275356817" height="12.519174452656534" fill="#a5a5a5"></rect><rect x="150" y="536.2494770603821" width="66.49208490033946" height="12.519174452656534" fill="#ffc000"></rect><rect x="150" y="549.4275554315994" width="58.75149732310905" height="12.519174452656534" fill="#5b9bd5"></rect><text class="label" x="241.16333244909873" y="505.21524194672986" font-size="10px">1.41x</text><text class="label" x="227.8018180290532" y="518.3933203179472" font-size="10px">1.18x</text><text class="label" x="231.72627275356817" y="531.5713986891647" font-size="10px">1.25x</text><text class="label" x="224.99208490033948" y="544.7494770603821" font-size="10px">1.13x</text><text class="label" x="217.25149732310905" y="557.9275554315994" font-size="10px">1x</text></g></g></svg>