<svg xmlns="http://www.w3.org/2000/svg" xmlns:xlink="http://www.w3.org/1999/xlink" width="800" height="675" style="background-color: white;"><g class="y axis" transform="translate(149,45)" fill="none" font-size="10" font-family="sans-serif" text-anchor="end" style="font-size: 13px;"><path class="domain" stroke="currentColor" d="M0.5,0.5V600.5"></path><g class="tick" opacity="1" transform="translate(0,40.740740740740726)" style="font-size: 13px;"><line stroke="currentColor" x2="0"></line><text fill="currentColor" x="-3" dy="0.32em">object (simple)    </text></g><g class="tick" opacity="1" transform="translate(0,114.81481481481481)" style="font-size: 13px;"><line stroke="currentColor" x2="0"></line><text fill="currentColor" x="-3" dy="0.32em">object (hierarchical)    </text></g><g class="tick" opacity="1" transform="translate(0,188.88888888888889)" style="font-size: 13px;"><line stroke="currentColor" x2="0"></line><text fill="currentColor" x="-3" dy="0.32em">object (recursive)    </text></g><g class="tick" opacity="1" transform="translate(0,262.96296296296293)" style="font-size: 13px;"><line stroke="currentColor" x2="0"></line><text fill="currentColor" x="-3" dy="0.32em">object (union)    </text></g><g class="tick" opacity="1" transform="translate(0,337.037037037037)" style="font-size: 13px;"><line stroke="currentColor" x2="0"></line><text fill="currentColor" x="-3" dy="0.32em">array (simple)    </text></g><g class="tick" opacity="1" transform="translate(0,411.1111111111111)" style="font-size: 13px;"><line stroke="currentColor" x2="0"></line><text fill="currentColor" x="-3" dy="0.32em">array (hierarchical)    </text></g><g class="tick" opacity="1" transform="translate(0,485.18518518518516)" style="font-size: 13px;"><line stroke="currentColor" x2="0"></line><text fill="currentColor" x="-3" dy="0.32em">array (recursive)    </text></g><g class="tick" opacity="1" transform="translate(0,559.2592592592592)" style="font-size: 13px;"><line stroke="currentColor" x2="0"></line><text fill="currentColor" x="-3" dy="0.32em">array (union)    </text></g></g><g class="x axis" transform="translate(149,645)" fill="none" font-size="10" font-family="sans-serif" text-anchor="middle" style="font-size: 13px;"><path class="domain" stroke="currentColor" d="M0.5,0.5H485.5"></path><g class="tick" opacity="1" transform="translate(0.5,0)" style="font-size: 13px;"><line stroke="currentColor" y2="6"></line><text fill="currentColor" y="9" dy="0.71em">0x</text></g><g class="tick" opacity="1" transform="translate(81.45400521962387,0)" style="font-size: 13px;"><line stroke="currentColor" y2="6"></line><text fill="currentColor" y="9" dy="0.71em">0.5x</text></g><g class="tick" opacity="1" transform="translate(162.40801043924773,0)" style="font-size: 13px;"><line stroke="currentColor" y2="6"></line><text fill="currentColor" y="9" dy="0.71em">1x</text></g><g class="tick" opacity="1" transform="translate(243.36201565887157,0)" style="font-size: 13px;"><line stroke="currentColor" y2="6"></line><text fill="currentColor" y="9" dy="0.71em">1.5x</text></g><g class="tick" opacity="1" transform="translate(324.31602087849546,0)" style="font-size: 13px;"><line stroke="currentColor" y2="6"></line><text fill="currentColor" y="9" dy="0.71em">2x</text></g><g class="tick" opacity="1" transform="translate(405.27002609811933,0)" style="font-size: 13px;"><line stroke="currentColor" y2="6"></line><text fill="currentColor" y="9" dy="0.71em">2.5x</text></g></g><text transform="translate(400, 30)" style="text-anchor: middle; font-size: 20px; font-weight: bold;">stringify (server) benchmark</text><rect x="680" y="145" width="200" height="5" fill="gray"></rect><rect x="675" y="35" width="200" height="110" fill="none" stroke="black"></rect><rect x="685" y="45" width="10" height="10" style="fill: #4472c4;"></rect><text x="700" y="55" style="font-size: 12px;">express (pure)</text><rect x="685" y="65" width="10" height="10" style="fill: #ed7d31;"></rect><text x="700" y="75" style="font-size: 12px;">express (typia.stringify)</text><rect x="685" y="85" width="10" height="10" style="fill: #a5a5a5;"></rect><text x="700" y="95" style="font-size: 12px;">express (typia.isStringify)</text><rect x="685" y="105" width="10" height="10" style="fill: #ffc000;"></rect><text x="700" y="115" style="font-size: 12px;">express (typia.assertStringify)</text><rect x="685" y="125" width="10" height="10" style="fill: #5b9bd5;"></rect><text x="700" y="135" style="font-size: 12px;">fastify</text><g style="font-size: 13px;"><g style="font-size: 13px;"><rect x="150" y="53.06747341400805" width="161.90801043924773" height="12.541254125412543" fill="#4472c4"></rect><rect x="150" y="66.26879354602124" width="224.00046942747392" height="12.541254125412543" fill="#ed7d31"></rect><rect x="150" y="79.47011367803445" width="220.2831332793985" height="12.541254125412543" fill="#a5a5a5"></rect><rect x="150" y="92.67143381004766" width="208.57093212509835" height="12.541254125412543" fill="#ffc000"></rect><rect x="150" y="105.87275394206085" width="440.9090909090909" height="12.541254125412543" fill="#5b9bd5"></rect><text class="label" x="320.40801043924773" y="61.56747341400805" font-size="10px">1x</text><text class="label" x="382.50046942747394" y="74.76879354602124" font-size="10px">1.38x</text><text class="label" x="378.7831332793985" y="87.97011367803445" font-size="10px">1.36x</text><text class="label" x="367.07093212509835" y="101.17143381004766" font-size="10px">1.29x</text><text class="label" x="599.4090909090909" y="114.37275394206085" font-size="10px">2.72x</text><text class="label" x="316.90801043924773" y="63.06747341400805" font-size="8px"></text><text class="label" x="379.00046942747394" y="76.26879354602124" font-size="8px"></text><text class="label" x="375.2831332793985" y="89.47011367803445" font-size="8px"></text><text class="label" x="363.57093212509835" y="102.67143381004766" font-size="8px"></text><text class="label" x="595.9090909090909" y="115.87275394206085" font-size="8px"></text></g><g style="font-size: 13px;"><rect x="150" y="127.14154748808213" width="161.90801043924773" height="12.541254125412543" fill="#4472c4"></rect><rect x="150" y="140.34286762009532" width="190.16841474896296" height="12.541254125412543" fill="#ed7d31"></rect><rect x="150" y="153.54418775210854" width="188.16181259284036" height="12.541254125412543" fill="#a5a5a5"></rect><rect x="150" y="166.74550788412174" width="185.2510727397868" height="12.541254125412543" fill="#ffc000"></rect><rect x="150" y="179.94682801613493" width="278.50859084733133" height="12.541254125412543" fill="#5b9bd5"></rect><text class="label" x="320.40801043924773" y="135.64154748808213" font-size="10px">1x</text><text class="label" x="348.66841474896296" y="148.84286762009532" font-size="10px">1.17x</text><text class="label" x="346.66181259284036" y="162.04418775210854" font-size="10px">1.16x</text><text class="label" x="343.75107273978676" y="175.24550788412174" font-size="10px">1.14x</text><text class="label" x="437.00859084733133" y="188.44682801613493" font-size="10px">1.72x</text><text class="label" x="316.90801043924773" y="137.14154748808213" font-size="8px"></text><text class="label" x="345.16841474896296" y="150.34286762009532" font-size="8px"></text><text class="label" x="343.16181259284036" y="163.54418775210854" font-size="8px"></text><text class="label" x="340.25107273978676" y="176.74550788412174" font-size="8px"></text><text class="label" x="433.50859084733133" y="189.94682801613493" font-size="8px"></text></g><g style="font-size: 13px;"><rect x="150" y="201.2156215621562" width="161.90801043924773" height="12.541254125412543" fill="#4472c4"></rect><rect x="150" y="214.4169416941694" width="192.60027386630946" height="12.541254125412543" fill="#ed7d31"></rect><rect x="150" y="227.61826182618262" width="192.92323317759735" height="12.541254125412543" fill="#a5a5a5"></rect><rect x="150" y="240.8195819581958" width="187.9464596261654" height="12.541254125412543" fill="#ffc000"></rect><rect x="150" y="254.020902090209" width="211.1665527141382" height="12.541254125412543" fill="#5b9bd5"></rect><text class="label" x="320.40801043924773" y="209.7156215621562" font-size="10px">1x</text><text class="label" x="351.10027386630946" y="222.9169416941694" font-size="10px">1.19x</text><text class="label" x="351.42323317759735" y="236.11826182618262" font-size="10px">1.19x</text><text class="label" x="346.4464596261654" y="249.3195819581958" font-size="10px">1.16x</text><text class="label" x="369.6665527141382" y="262.520902090209" font-size="10px">1.3x</text><text class="label" x="316.90801043924773" y="211.2156215621562" font-size="8px"></text><text class="label" x="347.60027386630946" y="224.4169416941694" font-size="8px"></text><text class="label" x="347.92323317759735" y="237.61826182618262" font-size="8px"></text><text class="label" x="342.9464596261654" y="250.8195819581958" font-size="8px"></text><text class="label" x="366.1665527141382" y="264.020902090209" font-size="8px"></text></g><g style="font-size: 13px;"><rect x="150" y="275.28969563623025" width="161.90801043924773" height="12.541254125412543" fill="#4472c4"></rect><rect x="150" y="288.49101576824347" width="268.84181086663745" height="12.541254125412543" fill="#ed7d31"></rect><rect x="150" y="301.6923359002567" width="256.6796605963829" height="12.541254125412543" fill="#a5a5a5"></rect><rect x="150" y="314.89365603226986" width="229.73416538704933" height="12.541254125412543" fill="#ffc000"></rect><rect x="150" y="328.0949761642831" width="181.8649422678012" height="12.541254125412543" fill="#5b9bd5"></rect><text class="label" x="320.40801043924773" y="283.78969563623025" font-size="10px">1x</text><text class="label" x="427.34181086663745" y="296.99101576824347" font-size="10px">1.66x</text><text class="label" x="415.1796605963829" y="310.1923359002567" font-size="10px">1.59x</text><text class="label" x="388.2341653870493" y="323.39365603226986" font-size="10px">1.42x</text><text class="label" x="340.3649422678012" y="336.5949761642831" font-size="10px">1.12x</text><text class="label" x="316.90801043924773" y="285.28969563623025" font-size="8px"></text><text class="label" x="423.84181086663745" y="298.49101576824347" font-size="8px"></text><text class="label" x="411.6796605963829" y="311.6923359002567" font-size="8px"></text><text class="label" x="384.7341653870493" y="324.89365603226986" font-size="8px"></text><text class="label" x="336.8649422678012" y="338.0949761642831" font-size="8px"></text></g><g style="font-size: 13px;"><rect x="150" y="349.3637697103044" width="175.18599485736948" height="12.541254125412543" fill="#4472c4"></rect><rect x="150" y="362.56508984231755" width="191.76273041015708" height="12.541254125412543" fill="#ed7d31"></rect><rect x="150" y="375.76640997433077" width="174.30582781986118" height="12.541254125412543" fill="#a5a5a5"></rect><rect x="150" y="388.967730106344" width="161.90801043924773" height="12.541254125412543" fill="#ffc000"></rect><rect x="150" y="402.16905023835716" width="171.07619482109885" height="12.541254125412543" fill="#5b9bd5"></rect><text class="label" x="333.68599485736945" y="357.8637697103044" font-size="10px">1.08x</text><text class="label" x="350.2627304101571" y="371.06508984231755" font-size="10px">1.18x</text><text class="label" x="332.8058278198612" y="384.26640997433077" font-size="10px">1.08x</text><text class="label" x="320.40801043924773" y="397.467730106344" font-size="10px">1x</text><text class="label" x="329.57619482109885" y="410.66905023835716" font-size="10px">1.06x</text><text class="label" x="330.18599485736945" y="359.3637697103044" font-size="8px"></text><text class="label" x="346.7627304101571" y="372.56508984231755" font-size="8px"></text><text class="label" x="329.3058278198612" y="385.76640997433077" font-size="8px"></text><text class="label" x="316.90801043924773" y="398.967730106344" font-size="8px"></text><text class="label" x="326.07619482109885" y="412.16905023835716" font-size="8px"></text></g><g style="font-size: 13px;"><rect x="150" y="423.4378437843784" width="200.9663841901362" height="12.541254125412543" fill="#4472c4"></rect><rect x="150" y="436.6391639163916" width="304.877002459648" height="12.541254125412543" fill="#ed7d31"></rect><rect x="150" y="449.84048404840485" width="268.9617380468586" height="12.541254125412543" fill="#a5a5a5"></rect><rect x="150" y="463.041804180418" width="191.54678058250948" height="12.541254125412543" fill="#ffc000"></rect><rect x="150" y="476.24312431243123" width="161.90801043924773" height="12.541254125412543" fill="#5b9bd5"></rect><text class="label" x="359.4663841901362" y="431.9378437843784" font-size="10px">1.24x</text><text class="label" x="463.377002459648" y="445.1391639163916" font-size="10px">1.88x</text><text class="label" x="427.4617380468586" y="458.34048404840485" font-size="10px">1.66x</text><text class="label" x="350.0467805825095" y="471.541804180418" font-size="10px">1.18x</text><text class="label" x="320.40801043924773" y="484.74312431243123" font-size="10px">1x</text><text class="label" x="355.9663841901362" y="433.4378437843784" font-size="8px"></text><text class="label" x="459.877002459648" y="446.6391639163916" font-size="8px"></text><text class="label" x="423.9617380468586" y="459.84048404840485" font-size="8px"></text><text class="label" x="346.5467805825095" y="473.041804180418" font-size="8px"></text><text class="label" x="316.90801043924773" y="486.24312431243123" font-size="8px"></text></g><g style="font-size: 13px;"><rect x="150" y="497.51191785845253" width="202.45315681994535" height="12.541254125412543" fill="#4472c4"></rect><rect x="150" y="510.7132379904657" width="255.58344527574928" height="12.541254125412543" fill="#ed7d31"></rect><rect x="150" y="523.9145581224789" width="245.4721267283799" height="12.541254125412543" fill="#a5a5a5"></rect><rect x="150" y="537.1158782544921" width="242.1211367449328" height="12.541254125412543" fill="#ffc000"></rect><rect x="150" y="550.3171983865053" width="161.90801043924773" height="12.541254125412543" fill="#5b9bd5"></rect><text class="label" x="360.9531568199453" y="506.01191785845253" font-size="10px">1.25x</text><text class="label" x="414.0834452757493" y="519.2132379904657" font-size="10px">1.58x</text><text class="label" x="403.97212672837986" y="532.4145581224789" font-size="10px">1.52x</text><text class="label" x="400.6211367449328" y="545.6158782544921" font-size="10px">1.5x</text><text class="label" x="320.40801043924773" y="558.8171983865053" font-size="10px">1x</text><text class="label" x="357.4531568199453" y="507.51191785845253" font-size="8px"></text><text class="label" x="410.5834452757493" y="520.7132379904657" font-size="8px"></text><text class="label" x="400.47212672837986" y="533.9145581224789" font-size="8px"></text><text class="label" x="397.1211367449328" y="547.1158782544921" font-size="8px"></text><text class="label" x="316.90801043924773" y="560.3171983865053" font-size="8px"></text></g><g style="font-size: 13px;"><rect x="150" y="571.5859919325266" width="212.51990115478876" height="12.541254125412543" fill="#4472c4"></rect><rect x="150" y="584.7873120645397" width="200.80059470647745" height="12.541254125412543" fill="#ed7d31"></rect><rect x="150" y="597.9886321965529" width="176.97153551884665" height="12.541254125412543" fill="#a5a5a5"></rect><rect x="150" y="611.1899523285662" width="180.26250252899038" height="12.541254125412543" fill="#ffc000"></rect><rect x="150" y="624.3912724605793" width="161.90801043924773" height="12.541254125412543" fill="#5b9bd5"></rect><text class="label" x="371.0199011547887" y="580.0859919325266" font-size="10px">1.31x</text><text class="label" x="359.30059470647745" y="593.2873120645397" font-size="10px">1.24x</text><text class="label" x="335.4715355188466" y="606.4886321965529" font-size="10px">1.09x</text><text class="label" x="338.76250252899035" y="619.6899523285662" font-size="10px">1.11x</text><text class="label" x="320.40801043924773" y="632.8912724605793" font-size="10px">1x</text><text class="label" x="367.5199011547887" y="581.5859919325266" font-size="8px"></text><text class="label" x="355.80059470647745" y="594.7873120645397" font-size="8px"></text><text class="label" x="331.9715355188466" y="607.9886321965529" font-size="8px"></text><text class="label" x="335.26250252899035" y="621.1899523285662" font-size="8px"></text><text class="label" x="316.90801043924773" y="634.3912724605793" font-size="8px"></text></g></g></svg>