<svg xmlns="http://www.w3.org/2000/svg" xmlns:xlink="http://www.w3.org/1999/xlink" width="800" height="675" style="background-color: white;"><g class="y axis" transform="translate(149,45)" fill="none" font-size="10" font-family="sans-serif" text-anchor="end" style="font-size: 13px;"><path class="domain" stroke="currentColor" d="M0.5,0.5V600.5"></path><g class="tick" opacity="1" transform="translate(0,40.740740740740726)" style="font-size: 13px;"><line stroke="currentColor" x2="0"></line><text fill="currentColor" x="-3" dy="0.32em">object (simple)    </text></g><g class="tick" opacity="1" transform="translate(0,114.81481481481481)" style="font-size: 13px;"><line stroke="currentColor" x2="0"></line><text fill="currentColor" x="-3" dy="0.32em">object (hierarchical)    </text></g><g class="tick" opacity="1" transform="translate(0,188.88888888888889)" style="font-size: 13px;"><line stroke="currentColor" x2="0"></line><text fill="currentColor" x="-3" dy="0.32em">object (recursive)    </text></g><g class="tick" opacity="1" transform="translate(0,262.96296296296293)" style="font-size: 13px;"><line stroke="currentColor" x2="0"></line><text fill="currentColor" x="-3" dy="0.32em">object (union)    </text></g><g class="tick" opacity="1" transform="translate(0,337.037037037037)" style="font-size: 13px;"><line stroke="currentColor" x2="0"></line><text fill="currentColor" x="-3" dy="0.32em">array (simple)    </text></g><g class="tick" opacity="1" transform="translate(0,411.1111111111111)" style="font-size: 13px;"><line stroke="currentColor" x2="0"></line><text fill="currentColor" x="-3" dy="0.32em">array (hierarchical)    </text></g><g class="tick" opacity="1" transform="translate(0,485.18518518518516)" style="font-size: 13px;"><line stroke="currentColor" x2="0"></line><text fill="currentColor" x="-3" dy="0.32em">array (recursive)    </text></g><g class="tick" opacity="1" transform="translate(0,559.2592592592592)" style="font-size: 13px;"><line stroke="currentColor" x2="0"></line><text fill="currentColor" x="-3" dy="0.32em">array (union)    </text></g></g><g class="x axis" transform="translate(149,645)" fill="none" font-size="10" font-family="sans-serif" text-anchor="middle" style="font-size: 13px;"><path class="domain" stroke="currentColor" d="M0.5,0.5H485.5"></path><g class="tick" opacity="1" transform="translate(0.5,0)" style="font-size: 13px;"><line stroke="currentColor" y2="6"></line><text fill="currentColor" y="9" dy="0.71em">0x</text></g><g class="tick" opacity="1" transform="translate(116.89096904122759,0)" style="font-size: 13px;"><line stroke="currentColor" y2="6"></line><text fill="currentColor" y="9" dy="0.71em">2x</text></g><g class="tick" opacity="1" transform="translate(233.28193808245518,0)" style="font-size: 13px;"><line stroke="currentColor" y2="6"></line><text fill="currentColor" y="9" dy="0.71em">4x</text></g><g class="tick" opacity="1" transform="translate(349.6729071236828,0)" style="font-size: 13px;"><line stroke="currentColor" y2="6"></line><text fill="currentColor" y="9" dy="0.71em">6x</text></g><g class="tick" opacity="1" transform="translate(466.06387616491037,0)" style="font-size: 13px;"><line stroke="currentColor" y2="6"></line><text fill="currentColor" y="9" dy="0.71em">8x</text></g></g><text transform="translate(400, 30)" style="text-anchor: middle; font-size: 20px; font-weight: bold;">stringify benchmark</text><rect x="680" y="145" width="200" height="5" fill="gray"></rect><rect x="675" y="35" width="200" height="110" fill="none" stroke="black"></rect><rect x="685" y="45" width="10" height="10" style="fill: #4472c4;"></rect><text x="700" y="55" style="font-size: 12px;">TSON.stringify()</text><rect x="685" y="65" width="10" height="10" style="fill: #ed7d31;"></rect><text x="700" y="75" style="font-size: 12px;">TSON.assertStringify()</text><rect x="685" y="85" width="10" height="10" style="fill: #a5a5a5;"></rect><text x="700" y="95" style="font-size: 12px;">TSON.isStringify()</text><rect x="685" y="105" width="10" height="10" style="fill: #ffc000;"></rect><text x="700" y="115" style="font-size: 12px;">fast-json-stringify</text><rect x="685" y="125" width="10" height="10" style="fill: #5b9bd5;"></rect><text x="700" y="135" style="font-size: 12px;">JSON.stringify</text><g style="font-size: 13px;"><g style="font-size: 13px;"><rect x="150" y="53.06747341400805" width="440.9090909090909" height="12.541254125412543" fill="#4472c4"></rect><rect x="150" y="66.26879354602124" width="377.0599253244242" height="12.541254125412543" fill="#ed7d31"></rect><rect x="150" y="79.47011367803445" width="414.4822775923326" height="12.541254125412543" fill="#a5a5a5"></rect><rect x="150" y="92.67143381004766" width="287.19666837470004" height="12.541254125412543" fill="#ffc000"></rect><rect x="150" y="105.87275394206085" width="58.195484520613796" height="12.541254125412543" fill="#5b9bd5"></rect><text class="label" x="599.4090909090909" y="61.56747341400805" font-size="10px">7.58x</text><text class="label" x="535.5599253244243" y="74.76879354602124" font-size="10px">6.48x</text><text class="label" x="572.9822775923326" y="87.97011367803445" font-size="10px">7.12x</text><text class="label" x="445.69666837470004" y="101.17143381004766" font-size="10px">4.94x</text><text class="label" x="216.6954845206138" y="114.37275394206085" font-size="10px">1x</text><text class="label" x="595.9090909090909" y="63.06747341400805" font-size="8px"></text><text class="label" x="532.0599253244243" y="76.26879354602124" font-size="8px"></text><text class="label" x="569.4822775923326" y="89.47011367803445" font-size="8px"></text><text class="label" x="442.19666837470004" y="102.67143381004766" font-size="8px"></text><text class="label" x="213.1954845206138" y="115.87275394206085" font-size="8px"></text></g><g style="font-size: 13px;"><rect x="150" y="127.14154748808213" width="204.2895513502751" height="12.541254125412543" fill="#4472c4"></rect><rect x="150" y="140.34286762009532" width="173.42907994040362" height="12.541254125412543" fill="#ed7d31"></rect><rect x="150" y="153.54418775210854" width="185.34894316195673" height="12.541254125412543" fill="#a5a5a5"></rect><rect x="150" y="166.74550788412174" width="225.7705415777356" height="12.541254125412543" fill="#ffc000"></rect><rect x="150" y="179.94682801613493" width="58.195484520613796" height="12.541254125412543" fill="#5b9bd5"></rect><text class="label" x="362.78955135027513" y="135.64154748808213" font-size="10px">3.51x</text><text class="label" x="331.92907994040365" y="148.84286762009532" font-size="10px">2.98x</text><text class="label" x="343.84894316195675" y="162.04418775210854" font-size="10px">3.18x</text><text class="label" x="384.27054157773557" y="175.24550788412174" font-size="10px">3.88x</text><text class="label" x="216.6954845206138" y="188.44682801613493" font-size="10px">1x</text><text class="label" x="359.28955135027513" y="137.14154748808213" font-size="8px"></text><text class="label" x="328.42907994040365" y="150.34286762009532" font-size="8px"></text><text class="label" x="340.34894316195675" y="163.54418775210854" font-size="8px"></text><text class="label" x="380.77054157773557" y="176.74550788412174" font-size="8px"></text><text class="label" x="213.1954845206138" y="189.94682801613493" font-size="8px"></text></g><g style="font-size: 13px;"><rect x="150" y="201.2156215621562" width="284.7714168074075" height="12.541254125412543" fill="#4472c4"></rect><rect x="150" y="214.4169416941694" width="263.776076426693" height="12.541254125412543" fill="#ed7d31"></rect><rect x="150" y="227.61826182618262" width="271.98923041022005" height="12.541254125412543" fill="#a5a5a5"></rect><rect x="150" y="240.8195819581958" width="58.195484520613796" height="12.541254125412543" fill="#ffc000"></rect><rect x="150" y="254.020902090209" width="59.33636161254566" height="12.541254125412543" fill="#5b9bd5"></rect><text class="label" x="443.2714168074075" y="209.7156215621562" font-size="10px">4.89x</text><text class="label" x="422.276076426693" y="222.9169416941694" font-size="10px">4.53x</text><text class="label" x="430.48923041022005" y="236.11826182618262" font-size="10px">4.67x</text><text class="label" x="216.6954845206138" y="249.3195819581958" font-size="10px">1x</text><text class="label" x="217.83636161254566" y="262.520902090209" font-size="10px">1.02x</text><text class="label" x="439.7714168074075" y="211.2156215621562" font-size="8px"></text><text class="label" x="418.776076426693" y="224.4169416941694" font-size="8px"></text><text class="label" x="426.98923041022005" y="237.61826182618262" font-size="8px"></text><text class="label" x="213.1954845206138" y="250.8195819581958" font-size="8px"></text><text class="label" x="214.33636161254566" y="264.020902090209" font-size="8px"></text></g><g style="font-size: 13px;"><rect x="150" y="275.28969563623025" width="128.30778736416028" height="12.541254125412543" fill="#4472c4"></rect><rect x="150" y="288.49101576824347" width="98.0659862682301" height="12.541254125412543" fill="#ed7d31"></rect><rect x="150" y="301.6923359002567" width="116.06780576016601" height="12.541254125412543" fill="#a5a5a5"></rect><rect x="150" y="314.89365603226986" width="129.5401278990746" height="12.541254125412543" fill="#ffc000"></rect><rect x="150" y="328.0949761642831" width="58.195484520613796" height="12.541254125412543" fill="#5b9bd5"></rect><text class="label" x="286.8077873641603" y="283.78969563623025" font-size="10px">2.2x</text><text class="label" x="256.5659862682301" y="296.99101576824347" font-size="10px">1.69x</text><text class="label" x="274.56780576016604" y="310.1923359002567" font-size="10px">1.99x</text><text class="label" x="288.0401278990746" y="323.39365603226986" font-size="10px">2.23x</text><text class="label" x="216.6954845206138" y="336.5949761642831" font-size="10px">1x</text><text class="label" x="283.3077873641603" y="285.28969563623025" font-size="8px"></text><text class="label" x="253.06598626823012" y="298.49101576824347" font-size="8px"></text><text class="label" x="271.06780576016604" y="311.6923359002567" font-size="8px"></text><text class="label" x="284.5401278990746" y="324.89365603226986" font-size="8px"></text><text class="label" x="213.1954845206138" y="338.0949761642831" font-size="8px"></text></g><g style="font-size: 13px;"><rect x="150" y="349.3637697103044" width="76.60654927603122" height="12.541254125412543" fill="#4472c4"></rect><rect x="150" y="362.56508984231755" width="58.195484520613796" height="12.541254125412543" fill="#ed7d31"></rect><rect x="150" y="375.76640997433077" width="65.99043028699451" height="12.541254125412543" fill="#a5a5a5"></rect><rect x="150" y="388.967730106344" width="95.27539483274141" height="12.541254125412543" fill="#ffc000"></rect><rect x="150" y="402.16905023835716" width="59.18435595496753" height="12.541254125412543" fill="#5b9bd5"></rect><text class="label" x="235.10654927603122" y="357.8637697103044" font-size="10px">1.32x</text><text class="label" x="216.6954845206138" y="371.06508984231755" font-size="10px">1x</text><text class="label" x="224.49043028699452" y="384.26640997433077" font-size="10px">1.13x</text><text class="label" x="253.77539483274143" y="397.467730106344" font-size="10px">1.64x</text><text class="label" x="217.68435595496754" y="410.66905023835716" font-size="10px">1.02x</text><text class="label" x="231.60654927603122" y="359.3637697103044" font-size="8px"></text><text class="label" x="213.1954845206138" y="372.56508984231755" font-size="8px"></text><text class="label" x="220.99043028699452" y="385.76640997433077" font-size="8px"></text><text class="label" x="250.27539483274143" y="398.967730106344" font-size="8px"></text><text class="label" x="214.18435595496754" y="412.16905023835716" font-size="8px"></text></g><g style="font-size: 13px;"><rect x="150" y="423.4378437843784" width="124.98869777986098" height="12.541254125412543" fill="#4472c4"></rect><rect x="150" y="436.6391639163916" width="110.41245880487865" height="12.541254125412543" fill="#ed7d31"></rect><rect x="150" y="449.84048404840485" width="121.64846207538874" height="12.541254125412543" fill="#a5a5a5"></rect><rect x="150" y="463.041804180418" width="169.34054326793486" height="12.541254125412543" fill="#ffc000"></rect><rect x="150" y="476.24312431243123" width="58.195484520613796" height="12.541254125412543" fill="#5b9bd5"></rect><text class="label" x="283.488697779861" y="431.9378437843784" font-size="10px">2.15x</text><text class="label" x="268.91245880487867" y="445.1391639163916" font-size="10px">1.9x</text><text class="label" x="280.14846207538875" y="458.34048404840485" font-size="10px">2.09x</text><text class="label" x="327.8405432679349" y="471.541804180418" font-size="10px">2.91x</text><text class="label" x="216.6954845206138" y="484.74312431243123" font-size="10px">1x</text><text class="label" x="279.988697779861" y="433.4378437843784" font-size="8px"></text><text class="label" x="265.41245880487867" y="446.6391639163916" font-size="8px"></text><text class="label" x="276.64846207538875" y="459.84048404840485" font-size="8px"></text><text class="label" x="324.3405432679349" y="473.041804180418" font-size="8px"></text><text class="label" x="213.1954845206138" y="486.24312431243123" font-size="8px"></text></g><g style="font-size: 13px;"><rect x="150" y="497.51191785845253" width="117.94432969876443" height="12.541254125412543" fill="#4472c4"></rect><rect x="150" y="510.7132379904657" width="110.66343494304971" height="12.541254125412543" fill="#ed7d31"></rect><rect x="150" y="523.9145581224789" width="116.4714532997385" height="12.541254125412543" fill="#a5a5a5"></rect><rect x="150" y="537.1158782544921" width="58.272216182253324" height="12.541254125412543" fill="#ffc000"></rect><rect x="150" y="550.3171983865053" width="58.195484520613796" height="12.541254125412543" fill="#5b9bd5"></rect><text class="label" x="276.4443296987644" y="506.01191785845253" font-size="10px">2.03x</text><text class="label" x="269.1634349430497" y="519.2132379904657" font-size="10px">1.9x</text><text class="label" x="274.9714532997385" y="532.4145581224789" font-size="10px">2x</text><text class="label" x="216.77221618225332" y="545.6158782544921" font-size="10px">1x</text><text class="label" x="216.6954845206138" y="558.8171983865053" font-size="10px">1x</text><text class="label" x="272.9443296987644" y="507.51191785845253" font-size="8px"></text><text class="label" x="265.6634349430497" y="520.7132379904657" font-size="8px"></text><text class="label" x="271.4714532997385" y="533.9145581224789" font-size="8px"></text><text class="label" x="213.27221618225332" y="547.1158782544921" font-size="8px"></text><text class="label" x="213.1954845206138" y="560.3171983865053" font-size="8px"></text></g><g style="font-size: 13px;"><rect x="150" y="571.5859919325266" width="75.02436402524744" height="12.541254125412543" fill="#4472c4"></rect><rect x="150" y="584.7873120645397" width="66.46876969678688" height="12.541254125412543" fill="#ed7d31"></rect><rect x="150" y="597.9886321965529" width="68.47236445206025" height="12.541254125412543" fill="#a5a5a5"></rect><rect x="150" y="611.1899523285662" width="58.195484520613796" height="12.541254125412543" fill="#ffc000"></rect><rect x="150" y="624.3912724605793" width="65.12783919026994" height="12.541254125412543" fill="#5b9bd5"></rect><text class="label" x="233.52436402524745" y="580.0859919325266" font-size="10px">1.29x</text><text class="label" x="224.96876969678686" y="593.2873120645397" font-size="10px">1.14x</text><text class="label" x="226.97236445206025" y="606.4886321965529" font-size="10px">1.18x</text><text class="label" x="216.6954845206138" y="619.6899523285662" font-size="10px">1x</text><text class="label" x="223.62783919026992" y="632.8912724605793" font-size="10px">1.12x</text><text class="label" x="230.02436402524745" y="581.5859919325266" font-size="8px"></text><text class="label" x="221.46876969678686" y="594.7873120645397" font-size="8px"></text><text class="label" x="223.47236445206025" y="607.9886321965529" font-size="8px"></text><text class="label" x="213.1954845206138" y="621.1899523285662" font-size="8px"></text><text class="label" x="220.12783919026992" y="634.3912724605793" font-size="8px"></text></g></g></svg>