<svg xmlns="http://www.w3.org/2000/svg" xmlns:xlink="http://www.w3.org/1999/xlink" width="800" height="675" style="background-color: white;"><g class="y axis" transform="translate(149,45)" fill="none" font-size="10" font-family="sans-serif" text-anchor="end" style="font-size: 13px;"><path class="domain" stroke="currentColor" d="M0.5,0.5V600.5"></path><g class="tick" opacity="1" transform="translate(0,40.740740740740726)" style="font-size: 13px;"><line stroke="currentColor" x2="0"></line><text fill="currentColor" x="-3" dy="0.32em">object (simple)    </text></g><g class="tick" opacity="1" transform="translate(0,114.81481481481481)" style="font-size: 13px;"><line stroke="currentColor" x2="0"></line><text fill="currentColor" x="-3" dy="0.32em">object (hierarchical)    </text></g><g class="tick" opacity="1" transform="translate(0,188.88888888888889)" style="font-size: 13px;"><line stroke="currentColor" x2="0"></line><text fill="currentColor" x="-3" dy="0.32em">object (recursive)    </text></g><g class="tick" opacity="1" transform="translate(0,262.96296296296293)" style="font-size: 13px;"><line stroke="currentColor" x2="0"></line><text fill="currentColor" x="-3" dy="0.32em">object (union)    </text></g><g class="tick" opacity="1" transform="translate(0,337.037037037037)" style="font-size: 13px;"><line stroke="currentColor" x2="0"></line><text fill="currentColor" x="-3" dy="0.32em">array (simple)    </text></g><g class="tick" opacity="1" transform="translate(0,411.1111111111111)" style="font-size: 13px;"><line stroke="currentColor" x2="0"></line><text fill="currentColor" x="-3" dy="0.32em">array (hierarchical)    </text></g><g class="tick" opacity="1" transform="translate(0,485.18518518518516)" style="font-size: 13px;"><line stroke="currentColor" x2="0"></line><text fill="currentColor" x="-3" dy="0.32em">array (recursive)    </text></g><g class="tick" opacity="1" transform="translate(0,559.2592592592592)" style="font-size: 13px;"><line stroke="currentColor" x2="0"></line><text fill="currentColor" x="-3" dy="0.32em">array (union)    </text></g></g><g class="x axis" transform="translate(149,645)" fill="none" font-size="10" font-family="sans-serif" text-anchor="middle" style="font-size: 13px;"><path class="domain" stroke="currentColor" d="M0.5,0.5H485.5"></path><g class="tick" opacity="1" transform="translate(0.5,0)" style="font-size: 13px;"><line stroke="currentColor" y2="6"></line><text fill="currentColor" y="9" dy="0.71em">0x</text></g><g class="tick" opacity="1" transform="translate(121.87742380256702,0)" style="font-size: 13px;"><line stroke="currentColor" y2="6"></line><text fill="currentColor" y="9" dy="0.71em">2x</text></g><g class="tick" opacity="1" transform="translate(243.25484760513405,0)" style="font-size: 13px;"><line stroke="currentColor" y2="6"></line><text fill="currentColor" y="9" dy="0.71em">4x</text></g><g class="tick" opacity="1" transform="translate(364.6322714077011,0)" style="font-size: 13px;"><line stroke="currentColor" y2="6"></line><text fill="currentColor" y="9" dy="0.71em">6x</text></g></g><text transform="translate(400, 30)" style="text-anchor: middle; font-size: 20px; font-weight: bold;">stringify benchmark</text><rect x="680" y="145" width="200" height="5" fill="gray"></rect><rect x="675" y="35" width="200" height="110" fill="none" stroke="black"></rect><rect x="685" y="45" width="10" height="10" style="fill: #4472c4;"></rect><text x="700" y="55" style="font-size: 12px;">typia.stringify()</text><rect x="685" y="65" width="10" height="10" style="fill: #ed7d31;"></rect><text x="700" y="75" style="font-size: 12px;">typia.assertStringify()</text><rect x="685" y="85" width="10" height="10" style="fill: #a5a5a5;"></rect><text x="700" y="95" style="font-size: 12px;">typia.isStringify()</text><rect x="685" y="105" width="10" height="10" style="fill: #ffc000;"></rect><text x="700" y="115" style="font-size: 12px;">fast-json-stringify</text><rect x="685" y="125" width="10" height="10" style="fill: #5b9bd5;"></rect><text x="700" y="135" style="font-size: 12px;">JSON.stringify</text><g style="font-size: 13px;"><g style="font-size: 13px;"><rect x="150" y="53.06747341400805" width="440.9090909090908" height="12.541254125412543" fill="#4472c4"></rect><rect x="150" y="66.26879354602124" width="340.1275815902928" height="12.541254125412543" fill="#ed7d31"></rect><rect x="150" y="79.47011367803445" width="411.3191356330307" height="12.541254125412543" fill="#a5a5a5"></rect><rect x="150" y="92.67143381004766" width="310.1838218325915" height="12.541254125412543" fill="#ffc000"></rect><rect x="150" y="105.87275394206085" width="60.68871190128351" height="12.541254125412543" fill="#5b9bd5"></rect><text class="label" x="599.4090909090908" y="61.56747341400805" font-size="10px">7.27x</text><text class="label" x="498.6275815902928" y="74.76879354602124" font-size="10px">5.6x</text><text class="label" x="569.8191356330308" y="87.97011367803445" font-size="10px">6.78x</text><text class="label" x="468.6838218325915" y="101.17143381004766" font-size="10px">5.11x</text><text class="label" x="219.1887119012835" y="114.37275394206085" font-size="10px">1x</text><text class="label" x="595.9090909090908" y="63.06747341400805" font-size="8px"></text><text class="label" x="495.1275815902928" y="76.26879354602124" font-size="8px"></text><text class="label" x="566.3191356330308" y="89.47011367803445" font-size="8px"></text><text class="label" x="465.1838218325915" y="102.67143381004766" font-size="8px"></text><text class="label" x="215.6887119012835" y="115.87275394206085" font-size="8px"></text></g><g style="font-size: 13px;"><rect x="150" y="127.14154748808213" width="209.1904934710953" height="12.541254125412543" fill="#4472c4"></rect><rect x="150" y="140.34286762009532" width="191.22163223624037" height="12.541254125412543" fill="#ed7d31"></rect><rect x="150" y="153.54418775210854" width="201.301975968932" height="12.541254125412543" fill="#a5a5a5"></rect><rect x="150" y="166.74550788412174" width="249.0325988799368" height="12.541254125412543" fill="#ffc000"></rect><rect x="150" y="179.94682801613493" width="60.68871190128351" height="12.541254125412543" fill="#5b9bd5"></rect><text class="label" x="367.6904934710953" y="135.64154748808213" font-size="10px">3.45x</text><text class="label" x="349.72163223624034" y="148.84286762009532" font-size="10px">3.15x</text><text class="label" x="359.80197596893197" y="162.04418775210854" font-size="10px">3.32x</text><text class="label" x="407.5325988799368" y="175.24550788412174" font-size="10px">4.1x</text><text class="label" x="219.1887119012835" y="188.44682801613493" font-size="10px">1x</text><text class="label" x="364.1904934710953" y="137.14154748808213" font-size="8px"></text><text class="label" x="346.22163223624034" y="150.34286762009532" font-size="8px"></text><text class="label" x="356.30197596893197" y="163.54418775210854" font-size="8px"></text><text class="label" x="404.0325988799368" y="176.74550788412174" font-size="8px"></text><text class="label" x="215.6887119012835" y="189.94682801613493" font-size="8px"></text></g><g style="font-size: 13px;"><rect x="150" y="201.2156215621562" width="294.4675334301289" height="12.541254125412543" fill="#4472c4"></rect><rect x="150" y="214.4169416941694" width="268.2963715502186" height="12.541254125412543" fill="#ed7d31"></rect><rect x="150" y="227.61826182618262" width="290.9956812892698" height="12.541254125412543" fill="#a5a5a5"></rect><rect x="150" y="240.8195819581958" width="63.090372725984516" height="12.541254125412543" fill="#ffc000"></rect><rect x="150" y="254.020902090209" width="60.68871190128351" height="12.541254125412543" fill="#5b9bd5"></rect><text class="label" x="452.9675334301289" y="209.7156215621562" font-size="10px">4.85x</text><text class="label" x="426.7963715502186" y="222.9169416941694" font-size="10px">4.42x</text><text class="label" x="449.4956812892698" y="236.11826182618262" font-size="10px">4.79x</text><text class="label" x="221.5903727259845" y="249.3195819581958" font-size="10px">1.04x</text><text class="label" x="219.1887119012835" y="262.520902090209" font-size="10px">1x</text><text class="label" x="449.4675334301289" y="211.2156215621562" font-size="8px"></text><text class="label" x="423.2963715502186" y="224.4169416941694" font-size="8px"></text><text class="label" x="445.9956812892698" y="237.61826182618262" font-size="8px"></text><text class="label" x="218.0903727259845" y="250.8195819581958" font-size="8px"></text><text class="label" x="215.6887119012835" y="264.020902090209" font-size="8px"></text></g><g style="font-size: 13px;"><rect x="150" y="275.28969563623025" width="130.7808027530179" height="12.541254125412543" fill="#4472c4"></rect><rect x="150" y="288.49101576824347" width="103.12764796818323" height="12.541254125412543" fill="#ed7d31"></rect><rect x="150" y="301.6923359002567" width="118.18301710926175" height="12.541254125412543" fill="#a5a5a5"></rect><rect x="150" y="314.89365603226986" width="134.28416316608173" height="12.541254125412543" fill="#ffc000"></rect><rect x="150" y="328.0949761642831" width="60.68871190128351" height="12.541254125412543" fill="#5b9bd5"></rect><text class="label" x="289.2808027530179" y="283.78969563623025" font-size="10px">2.15x</text><text class="label" x="261.6276479681832" y="296.99101576824347" font-size="10px">1.7x</text><text class="label" x="276.68301710926175" y="310.1923359002567" font-size="10px">1.95x</text><text class="label" x="292.7841631660817" y="323.39365603226986" font-size="10px">2.21x</text><text class="label" x="219.1887119012835" y="336.5949761642831" font-size="10px">1x</text><text class="label" x="285.7808027530179" y="285.28969563623025" font-size="8px"></text><text class="label" x="258.1276479681832" y="298.49101576824347" font-size="8px"></text><text class="label" x="273.18301710926175" y="311.6923359002567" font-size="8px"></text><text class="label" x="289.2841631660817" y="324.89365603226986" font-size="8px"></text><text class="label" x="215.6887119012835" y="338.0949761642831" font-size="8px"></text></g><g style="font-size: 13px;"><rect x="150" y="349.3637697103044" width="88.97950743984218" height="12.541254125412543" fill="#4472c4"></rect><rect x="150" y="362.56508984231755" width="65.4005699985131" height="12.541254125412543" fill="#ed7d31"></rect><rect x="150" y="375.76640997433077" width="73.50331571766932" height="12.541254125412543" fill="#a5a5a5"></rect><rect x="150" y="388.967730106344" width="99.10234013750373" height="12.541254125412543" fill="#ffc000"></rect><rect x="150" y="402.16905023835716" width="60.68871190128351" height="12.541254125412543" fill="#5b9bd5"></rect><text class="label" x="247.47950743984217" y="357.8637697103044" font-size="10px">1.47x</text><text class="label" x="223.9005699985131" y="371.06508984231755" font-size="10px">1.08x</text><text class="label" x="232.00331571766932" y="384.26640997433077" font-size="10px">1.21x</text><text class="label" x="257.60234013750375" y="397.467730106344" font-size="10px">1.63x</text><text class="label" x="219.1887119012835" y="410.66905023835716" font-size="10px">1x</text><text class="label" x="243.97950743984217" y="359.3637697103044" font-size="8px"></text><text class="label" x="220.4005699985131" y="372.56508984231755" font-size="8px"></text><text class="label" x="228.50331571766932" y="385.76640997433077" font-size="8px"></text><text class="label" x="254.10234013750375" y="398.967730106344" font-size="8px"></text><text class="label" x="215.6887119012835" y="412.16905023835716" font-size="8px"></text></g><g style="font-size: 13px;"><rect x="150" y="423.4378437843784" width="129.62678178378317" height="12.541254125412543" fill="#4472c4"></rect><rect x="150" y="436.6391639163916" width="117.18572259152812" height="12.541254125412543" fill="#ed7d31"></rect><rect x="150" y="449.84048404840485" width="122.5444018031004" height="12.541254125412543" fill="#a5a5a5"></rect><rect x="150" y="463.041804180418" width="190.07344493773357" height="12.541254125412543" fill="#ffc000"></rect><rect x="150" y="476.24312431243123" width="60.68871190128351" height="12.541254125412543" fill="#5b9bd5"></rect><text class="label" x="288.12678178378314" y="431.9378437843784" font-size="10px">2.14x</text><text class="label" x="275.68572259152813" y="445.1391639163916" font-size="10px">1.93x</text><text class="label" x="281.0444018031004" y="458.34048404840485" font-size="10px">2.02x</text><text class="label" x="348.5734449377336" y="471.541804180418" font-size="10px">3.13x</text><text class="label" x="219.1887119012835" y="484.74312431243123" font-size="10px">1x</text><text class="label" x="284.62678178378314" y="433.4378437843784" font-size="8px"></text><text class="label" x="272.18572259152813" y="446.6391639163916" font-size="8px"></text><text class="label" x="277.5444018031004" y="459.84048404840485" font-size="8px"></text><text class="label" x="345.0734449377336" y="473.041804180418" font-size="8px"></text><text class="label" x="215.6887119012835" y="486.24312431243123" font-size="8px"></text></g><g style="font-size: 13px;"><rect x="150" y="497.51191785845253" width="128.94363665921765" height="12.541254125412543" fill="#4472c4"></rect><rect x="150" y="510.7132379904657" width="116.53597966717683" height="12.541254125412543" fill="#ed7d31"></rect><rect x="150" y="523.9145581224789" width="123.66668188734417" height="12.541254125412543" fill="#a5a5a5"></rect><rect x="150" y="537.1158782544921" width="61.70120519045905" height="12.541254125412543" fill="#ffc000"></rect><rect x="150" y="550.3171983865053" width="60.68871190128351" height="12.541254125412543" fill="#5b9bd5"></rect><text class="label" x="287.44363665921765" y="506.01191785845253" font-size="10px">2.12x</text><text class="label" x="275.03597966717683" y="519.2132379904657" font-size="10px">1.92x</text><text class="label" x="282.16668188734417" y="532.4145581224789" font-size="10px">2.04x</text><text class="label" x="220.20120519045906" y="545.6158782544921" font-size="10px">1.02x</text><text class="label" x="219.1887119012835" y="558.8171983865053" font-size="10px">1x</text><text class="label" x="283.94363665921765" y="507.51191785845253" font-size="8px"></text><text class="label" x="271.53597966717683" y="520.7132379904657" font-size="8px"></text><text class="label" x="278.66668188734417" y="533.9145581224789" font-size="8px"></text><text class="label" x="216.70120519045906" y="547.1158782544921" font-size="8px"></text><text class="label" x="215.6887119012835" y="560.3171983865053" font-size="8px"></text></g><g style="font-size: 13px;"><rect x="150" y="571.5859919325266" width="88.9482319219327" height="12.541254125412543" fill="#4472c4"></rect><rect x="150" y="584.7873120645397" width="76.48492136317002" height="12.541254125412543" fill="#ed7d31"></rect><rect x="150" y="597.9886321965529" width="80.56117506458615" height="12.541254125412543" fill="#a5a5a5"></rect><rect x="150" y="611.1899523285662" width="60.68871190128351" height="12.541254125412543" fill="#ffc000"></rect><rect x="150" y="624.3912724605793" width="67.76558745418924" height="12.541254125412543" fill="#5b9bd5"></rect><text class="label" x="247.4482319219327" y="580.0859919325266" font-size="10px">1.47x</text><text class="label" x="234.98492136317003" y="593.2873120645397" font-size="10px">1.26x</text><text class="label" x="239.06117506458617" y="606.4886321965529" font-size="10px">1.33x</text><text class="label" x="219.1887119012835" y="619.6899523285662" font-size="10px">1x</text><text class="label" x="226.26558745418924" y="632.8912724605793" font-size="10px">1.12x</text><text class="label" x="243.9482319219327" y="581.5859919325266" font-size="8px"></text><text class="label" x="231.48492136317003" y="594.7873120645397" font-size="8px"></text><text class="label" x="235.56117506458617" y="607.9886321965529" font-size="8px"></text><text class="label" x="215.6887119012835" y="621.1899523285662" font-size="8px"></text><text class="label" x="222.76558745418924" y="634.3912724605793" font-size="8px"></text></g></g></svg>