<svg xmlns="http://www.w3.org/2000/svg" xmlns:xlink="http://www.w3.org/1999/xlink" width="800" height="390" style="background-color: white;"><g class="y axis" transform="translate(149,45)" fill="none" font-size="10" font-family="sans-serif" text-anchor="end" style="font-size: 13px;"><path class="domain" stroke="currentColor" d="M0.5,0.5V315.5"></path><g class="tick" opacity="1" transform="translate(0,24.40140845070425)" style="font-size: 13px;"><line stroke="currentColor" x2="0"></line><text fill="currentColor" x="-3" dy="0.32em">object (hierarchical)    </text></g><g class="tick" opacity="1" transform="translate(0,68.76760563380283)" style="font-size: 13px;"><line stroke="currentColor" x2="0"></line><text fill="currentColor" x="-3" dy="0.32em">object (recursive)    </text></g><g class="tick" opacity="1" transform="translate(0,113.13380281690142)" style="font-size: 13px;"><line stroke="currentColor" x2="0"></line><text fill="currentColor" x="-3" dy="0.32em">object (union)    </text></g><g class="tick" opacity="1" transform="translate(0,157.5)" style="font-size: 13px;"><line stroke="currentColor" x2="0"></line><text fill="currentColor" x="-3" dy="0.32em">array (hierarchical)    </text></g><g class="tick" opacity="1" transform="translate(0,201.8661971830986)" style="font-size: 13px;"><line stroke="currentColor" x2="0"></line><text fill="currentColor" x="-3" dy="0.32em">array (recursive)    </text></g><g class="tick" opacity="1" transform="translate(0,246.23239436619718)" style="font-size: 13px;"><line stroke="currentColor" x2="0"></line><text fill="currentColor" x="-3" dy="0.32em">array (union)    </text></g><g class="tick" opacity="1" transform="translate(0,290.59859154929575)" style="font-size: 13px;"><line stroke="currentColor" x2="0"></line><text fill="currentColor" x="-3" dy="0.32em">ultimate union    </text></g></g><g class="x axis" transform="translate(149,360)" fill="none" font-size="10" font-family="sans-serif" text-anchor="middle" style="font-size: 13px;"><path class="domain" stroke="currentColor" d="M0.5,0.5H485.5"></path><g class="tick" opacity="1" transform="translate(0.5,0)" style="font-size: 13px;"><line stroke="currentColor" y2="6"></line><text fill="currentColor" y="9" dy="0.71em">0x</text></g><g class="tick" opacity="1" transform="translate(109.11756915730993,0)" style="font-size: 13px;"><line stroke="currentColor" y2="6"></line><text fill="currentColor" y="9" dy="0.71em">5,000x</text></g><g class="tick" opacity="1" transform="translate(217.73513831461986,0)" style="font-size: 13px;"><line stroke="currentColor" y2="6"></line><text fill="currentColor" y="9" dy="0.71em">10,000x</text></g><g class="tick" opacity="1" transform="translate(326.35270747192976,0)" style="font-size: 13px;"><line stroke="currentColor" y2="6"></line><text fill="currentColor" y="9" dy="0.71em">15,000x</text></g><g class="tick" opacity="1" transform="translate(434.9702766292397,0)" style="font-size: 13px;"><line stroke="currentColor" y2="6"></line><text fill="currentColor" y="9" dy="0.71em">20,000x</text></g></g><text transform="translate(400, 30)" style="text-anchor: middle; font-size: 20px; font-weight: bold;">optimizer benchmark</text><rect x="680" y="105" width="200" height="5" fill="gray"></rect><rect x="675" y="35" width="200" height="70" fill="none" stroke="black"></rect><rect x="685" y="45" width="10" height="10" style="fill: #4472c4;"></rect><text x="700" y="55" style="font-size: 12px;">typescript-json</text><rect x="685" y="65" width="10" height="10" style="fill: #ed7d31;"></rect><text x="700" y="75" style="font-size: 12px;">typebox</text><rect x="685" y="85" width="10" height="10" style="fill: #a5a5a5;"></rect><text x="700" y="95" style="font-size: 12px;">ajv</text><g style="font-size: 13px;"><g style="font-size: 13px;"><rect x="150" y="50.091202955437566" width="440.9090909090909" height="12.437081505425995" fill="#4472c4"></rect><rect x="150" y="63.18286769799125" width="0.8298961577320652" height="12.437081505425995" fill="#ed7d31"></rect><rect x="150" y="76.27453244054493" width="0.021723513831461986" height="12.437081505425995" fill="#a5a5a5"></rect><text class="label" x="599.4090909090909" y="58.591202955437566" font-size="10px">20,296x</text><text class="label" x="159.32989615773207" y="71.68286769799124" font-size="10px">38x</text><text class="label" x="158.52172351383146" y="84.77453244054493" font-size="10px">1x</text><text class="label" x="595.9090909090909" y="60.091202955437566" font-size="8px"></text><text class="label" x="155.82989615773207" y="73.18286769799124" font-size="8px"></text><text class="label" x="155.02172351383146" y="86.27453244054493" font-size="8px"></text></g><g style="font-size: 13px;"><rect x="150" y="94.45740013853616" width="207.8522698862844" height="12.437081505425995" fill="#4472c4"></rect><rect x="150" y="107.54906488108983" width="2.134527965584743" height="12.437081505425995" fill="#ed7d31"></rect><rect x="150" y="120.64072962364352" width="0.021723513831461986" height="12.437081505425995" fill="#a5a5a5"></rect><text class="label" x="366.3522698862844" y="102.95740013853616" font-size="10px">9,568x</text><text class="label" x="160.63452796558474" y="116.04906488108983" font-size="10px">98x</text><text class="label" x="158.52172351383146" y="129.14072962364352" font-size="10px">1x</text><text class="label" x="362.8522698862844" y="104.45740013853616" font-size="8px"></text><text class="label" x="157.13452796558474" y="117.54906488108983" font-size="8px"></text><text class="label" x="155.02172351383146" y="130.64072962364352" font-size="8px"></text></g><g style="font-size: 13px;"><rect x="150" y="138.82359732163474" width="91.0733571995206" height="12.437081505425995" fill="#4472c4"></rect><rect x="150" y="151.91526206418843" width="0.47323787234258796" height="12.437081505425995" fill="#ed7d31"></rect><rect x="150" y="165.00692680674211" width="0.021723513831461986" height="12.437081505425995" fill="#a5a5a5"></rect><text class="label" x="249.57335719952061" y="147.32359732163474" font-size="10px">4,192x</text><text class="label" x="158.9732378723426" y="160.41526206418843" font-size="10px">22x</text><text class="label" x="158.52172351383146" y="173.50692680674211" font-size="10px">1x</text><text class="label" x="246.07335719952061" y="148.82359732163474" font-size="8px"></text><text class="label" x="155.4732378723426" y="161.91526206418843" font-size="8px"></text><text class="label" x="155.02172351383146" y="175.00692680674211" font-size="8px"></text></g><g style="font-size: 13px;"><rect x="150" y="183.18979450473333" width="29.412952603136198" height="12.437081505425995" fill="#4472c4"></rect><rect x="150" y="196.281459247287" width="3.3252336624380745" height="12.437081505425995" fill="#ed7d31"></rect><rect x="150" y="209.37312398984068" width="0.021723513831461986" height="12.437081505425995" fill="#a5a5a5"></rect><text class="label" x="187.9129526031362" y="191.68979450473333" font-size="10px">1,354x</text><text class="label" x="161.82523366243808" y="204.781459247287" font-size="10px">153x</text><text class="label" x="158.52172351383146" y="217.87312398984068" font-size="10px">1x</text><text class="label" x="184.4129526031362" y="193.18979450473333" font-size="8px"></text><text class="label" x="158.32523366243808" y="206.281459247287" font-size="8px"></text><text class="label" x="155.02172351383146" y="219.37312398984068" font-size="8px"></text></g><g style="font-size: 13px;"><rect x="150" y="227.55599168783192" width="12.98067477300758" height="12.437081505425995" fill="#4472c4"></rect><rect x="150" y="240.64765643038558" width="2.009157885536876" height="12.437081505425995" fill="#ed7d31"></rect><rect x="150" y="253.73932117293927" width="0.021723513831461986" height="12.437081505425995" fill="#a5a5a5"></rect><text class="label" x="171.4806747730076" y="236.05599168783192" font-size="10px">598x</text><text class="label" x="160.50915788553687" y="249.14765643038558" font-size="10px">92x</text><text class="label" x="158.52172351383146" y="262.2393211729393" font-size="10px">1x</text><text class="label" x="167.9806747730076" y="237.55599168783192" font-size="8px"></text><text class="label" x="157.00915788553687" y="250.64765643038558" font-size="8px"></text><text class="label" x="155.02172351383146" y="263.7393211729393" font-size="8px"></text></g><g style="font-size: 13px;"><rect x="150" y="271.92218887093054" width="12.745503293652618" height="12.437081505425995" fill="#4472c4"></rect><rect x="150" y="285.0138536134842" width="0.8910705725060942" height="12.437081505425995" fill="#ed7d31"></rect><rect x="150" y="298.10551835603786" width="0.021723513831461986" height="12.437081505425995" fill="#a5a5a5"></rect><text class="label" x="171.24550329365263" y="280.42218887093054" font-size="10px">587x</text><text class="label" x="159.3910705725061" y="293.5138536134842" font-size="10px">41x</text><text class="label" x="158.52172351383146" y="306.60551835603786" font-size="10px">1x</text><text class="label" x="167.74550329365263" y="281.92218887093054" font-size="8px"></text><text class="label" x="155.8910705725061" y="295.0138536134842" font-size="8px"></text><text class="label" x="155.02172351383146" y="308.10551835603786" font-size="8px"></text></g><g style="font-size: 13px;"><rect x="150" y="316.28838605402905" width="15.216895637199327" height="12.437081505425995" fill="#4472c4"></rect><rect x="150" y="329.38005079658274" width="0.2941086148408759" height="12.437081505425995" fill="#ed7d31"></rect><rect x="150" y="342.4717155391364" width="0.021723513831461986" height="12.437081505425995" fill="#a5a5a5"></rect><text class="label" x="173.71689563719931" y="324.78838605402905" font-size="10px">700x</text><text class="label" x="158.79410861484087" y="337.88005079658274" font-size="10px">14x</text><text class="label" x="158.52172351383146" y="350.9717155391364" font-size="10px">1x</text><text class="label" x="170.21689563719931" y="326.28838605402905" font-size="8px"></text><text class="label" x="155.29410861484087" y="339.38005079658274" font-size="8px"></text><text class="label" x="155.02172351383146" y="352.4717155391364" font-size="8px"></text></g></g></svg>