<svg xmlns="http://www.w3.org/2000/svg" xmlns:xlink="http://www.w3.org/1999/xlink" width="800" height="600" style="background-color: white;"><g class="y axis" transform="translate(149,45)" fill="none" font-size="10" font-family="sans-serif" text-anchor="end" style="font-size: 13px;"><path class="domain" stroke="currentColor" d="M0.5,0.5V525.5"></path><g class="tick" opacity="1" transform="translate(0,40.66901408450705)" style="font-size: 13px;"><line stroke="currentColor" x2="0"></line><text fill="currentColor" x="-3" dy="0.32em">object (simple)    </text></g><g class="tick" opacity="1" transform="translate(0,114.61267605633802)" style="font-size: 13px;"><line stroke="currentColor" x2="0"></line><text fill="currentColor" x="-3" dy="0.32em">object (hierarchical)    </text></g><g class="tick" opacity="1" transform="translate(0,188.556338028169)" style="font-size: 13px;"><line stroke="currentColor" x2="0"></line><text fill="currentColor" x="-3" dy="0.32em">object (recursive)    </text></g><g class="tick" opacity="1" transform="translate(0,262.5)" style="font-size: 13px;"><line stroke="currentColor" x2="0"></line><text fill="currentColor" x="-3" dy="0.32em">object (union)    </text></g><g class="tick" opacity="1" transform="translate(0,336.443661971831)" style="font-size: 13px;"><line stroke="currentColor" x2="0"></line><text fill="currentColor" x="-3" dy="0.32em">array (hierarchical)    </text></g><g class="tick" opacity="1" transform="translate(0,410.38732394366195)" style="font-size: 13px;"><line stroke="currentColor" x2="0"></line><text fill="currentColor" x="-3" dy="0.32em">array (recursive)    </text></g><g class="tick" opacity="1" transform="translate(0,484.33098591549293)" style="font-size: 13px;"><line stroke="currentColor" x2="0"></line><text fill="currentColor" x="-3" dy="0.32em">array (union)    </text></g></g><g class="x axis" transform="translate(149,570)" fill="none" font-size="10" font-family="sans-serif" text-anchor="middle" style="font-size: 13px;"><path class="domain" stroke="currentColor" d="M0.5,0.5H485.5"></path><g class="tick" opacity="1" transform="translate(0.5,0)" style="font-size: 13px;"><line stroke="currentColor" y2="6"></line><text fill="currentColor" y="9" dy="0.71em">0x</text></g><g class="tick" opacity="1" transform="translate(112.94903893783975,0)" style="font-size: 13px;"><line stroke="currentColor" y2="6"></line><text fill="currentColor" y="9" dy="0.71em">1x</text></g><g class="tick" opacity="1" transform="translate(225.3980778756795,0)" style="font-size: 13px;"><line stroke="currentColor" y2="6"></line><text fill="currentColor" y="9" dy="0.71em">2x</text></g><g class="tick" opacity="1" transform="translate(337.8471168135193,0)" style="font-size: 13px;"><line stroke="currentColor" y2="6"></line><text fill="currentColor" y="9" dy="0.71em">3x</text></g><g class="tick" opacity="1" transform="translate(450.296155751359,0)" style="font-size: 13px;"><line stroke="currentColor" y2="6"></line><text fill="currentColor" y="9" dy="0.71em">4x</text></g></g><text transform="translate(400, 30)" style="text-anchor: middle; font-size: 20px; font-weight: bold;">stringify benchmark</text><rect x="680" y="145" width="200" height="5" fill="gray"></rect><rect x="675" y="35" width="200" height="110" fill="none" stroke="black"></rect><rect x="685" y="45" width="10" height="10" style="fill: #4472c4;"></rect><text x="700" y="55" style="font-size: 12px;">TSON.stringify()</text><rect x="685" y="65" width="10" height="10" style="fill: #ed7d31;"></rect><text x="700" y="75" style="font-size: 12px;">TSON.assertStringify()</text><rect x="685" y="85" width="10" height="10" style="fill: #a5a5a5;"></rect><text x="700" y="95" style="font-size: 12px;">TSON.isStringify()</text><rect x="685" y="105" width="10" height="10" style="fill: #ffc000;"></rect><text x="700" y="115" style="font-size: 12px;">JSON.stringify()</text><rect x="685" y="125" width="10" height="10" style="fill: #5b9bd5;"></rect><text x="700" y="135" style="font-size: 12px;">fast-json-stringify</text><g style="font-size: 13px;"><g style="font-size: 13px;"><rect x="150" y="53.05327011574397" width="440.9090909090909" height="12.519174452656534" fill="#4472c4"></rect><rect x="150" y="66.23134848696137" width="336.9912175434299" height="12.519174452656534" fill="#ed7d31"></rect><rect x="150" y="79.40942685817878" width="376.9527529266631" height="12.519174452656534" fill="#a5a5a5"></rect><rect x="150" y="92.58750522939619" width="112.44903893783975" height="12.519174452656534" fill="#ffc000"></rect><rect x="150" y="105.76558360061358" width="329.3067618814326" height="12.519174452656534" fill="#5b9bd5"></rect><text class="label" x="599.4090909090909" y="61.55327011574397" font-size="10px">3.92x</text><text class="label" x="495.4912175434299" y="74.73134848696137" font-size="10px">3x</text><text class="label" x="535.4527529266632" y="87.90942685817878" font-size="10px">3.35x</text><text class="label" x="270.94903893783976" y="101.08750522939619" font-size="10px">1x</text><text class="label" x="487.8067618814326" y="114.26558360061358" font-size="10px">2.93x</text><text class="label" x="595.9090909090909" y="63.05327011574397" font-size="8px"></text><text class="label" x="491.9912175434299" y="76.23134848696137" font-size="8px"></text><text class="label" x="531.9527529266632" y="89.40942685817878" font-size="8px"></text><text class="label" x="267.44903893783976" y="102.58750522939619" font-size="8px"></text><text class="label" x="484.3067618814326" y="115.76558360061358" font-size="8px"></text></g><g style="font-size: 13px;"><rect x="150" y="126.99693208757495" width="232.84288594461466" height="12.519174452656534" fill="#4472c4"></rect><rect x="150" y="140.17501045879237" width="203.62252365608757" height="12.519174452656534" fill="#ed7d31"></rect><rect x="150" y="153.35308883000977" width="205.81296819038113" height="12.519174452656534" fill="#a5a5a5"></rect><rect x="150" y="166.53116720122716" width="112.44903893783975" height="12.519174452656534" fill="#ffc000"></rect><rect x="150" y="179.70924557244456" width="216.606046178982" height="12.519174452656534" fill="#5b9bd5"></rect><text class="label" x="391.34288594461464" y="135.49693208757495" font-size="10px">2.07x</text><text class="label" x="362.12252365608754" y="148.67501045879237" font-size="10px">1.81x</text><text class="label" x="364.3129681903811" y="161.85308883000977" font-size="10px">1.83x</text><text class="label" x="270.94903893783976" y="175.03116720122716" font-size="10px">1x</text><text class="label" x="375.106046178982" y="188.20924557244456" font-size="10px">1.93x</text><text class="label" x="387.84288594461464" y="136.99693208757495" font-size="8px"></text><text class="label" x="358.62252365608754" y="150.17501045879237" font-size="8px"></text><text class="label" x="360.8129681903811" y="163.35308883000977" font-size="8px"></text><text class="label" x="267.44903893783976" y="176.53116720122716" font-size="8px"></text><text class="label" x="371.606046178982" y="189.70924557244456" font-size="8px"></text></g><g style="font-size: 13px;"><rect x="150" y="200.94059405940592" width="265.44514531378036" height="12.519174452656534" fill="#4472c4"></rect><rect x="150" y="214.11867243062332" width="262.1649400851927" height="12.519174452656534" fill="#ed7d31"></rect><rect x="150" y="227.29675080184074" width="273.21965630551307" height="12.519174452656534" fill="#a5a5a5"></rect><rect x="150" y="240.47482917305814" width="112.44903893783975" height="12.519174452656534" fill="#ffc000"></rect><rect x="150" y="253.65290754427554" width="112.86691030149687" height="12.519174452656534" fill="#5b9bd5"></rect><text class="label" x="423.94514531378036" y="209.44059405940592" font-size="10px">2.36x</text><text class="label" x="420.6649400851927" y="222.61867243062332" font-size="10px">2.33x</text><text class="label" x="431.71965630551307" y="235.79675080184074" font-size="10px">2.43x</text><text class="label" x="270.94903893783976" y="248.97482917305814" font-size="10px">1x</text><text class="label" x="271.3669103014969" y="262.15290754427554" font-size="10px">1x</text><text class="label" x="420.44514531378036" y="210.94059405940592" font-size="8px"></text><text class="label" x="417.1649400851927" y="224.11867243062332" font-size="8px"></text><text class="label" x="428.21965630551307" y="237.29675080184074" font-size="8px"></text><text class="label" x="267.44903893783976" y="250.47482917305814" font-size="8px"></text><text class="label" x="267.8669103014969" y="263.65290754427554" font-size="8px"></text></g><g style="font-size: 13px;"><rect x="150" y="274.8842560312369" width="141.721441814487" height="12.519174452656534" fill="#4472c4"></rect><rect x="150" y="288.0623344024543" width="112.44903893783975" height="12.519174452656534" fill="#ed7d31"></rect><rect x="150" y="301.2404127736717" width="124.2455274156949" height="12.519174452656534" fill="#a5a5a5"></rect><rect x="150" y="314.4184911448891" width="121.47737936786098" height="12.519174452656534" fill="#ffc000"></rect><rect x="150" y="327.5965695161065" width="151.92604233443475" height="12.519174452656534" fill="#5b9bd5"></rect><text class="label" x="300.221441814487" y="283.3842560312369" font-size="10px">1.26x</text><text class="label" x="270.94903893783976" y="296.5623344024543" font-size="10px">1x</text><text class="label" x="282.7455274156949" y="309.7404127736717" font-size="10px">1.1x</text><text class="label" x="279.977379367861" y="322.9184911448891" font-size="10px">1.08x</text><text class="label" x="310.4260423344348" y="336.0965695161065" font-size="10px">1.35x</text><text class="label" x="296.721441814487" y="284.8842560312369" font-size="8px"></text><text class="label" x="267.44903893783976" y="298.0623344024543" font-size="8px"></text><text class="label" x="279.2455274156949" y="311.2404127736717" font-size="8px"></text><text class="label" x="276.477379367861" y="324.4184911448891" font-size="8px"></text><text class="label" x="306.9260423344348" y="337.5965695161065" font-size="8px"></text></g><g style="font-size: 13px;"><rect x="150" y="348.8279180030679" width="131.37083756886545" height="12.519174452656534" fill="#4472c4"></rect><rect x="150" y="362.0059963742853" width="120.40614752408474" height="12.519174452656534" fill="#ed7d31"></rect><rect x="150" y="375.1840747455027" width="128.45001156572357" height="12.519174452656534" fill="#a5a5a5"></rect><rect x="150" y="388.3621531167201" width="112.44903893783975" height="12.519174452656534" fill="#ffc000"></rect><rect x="150" y="401.5402314879375" width="209.6163218910662" height="12.519174452656534" fill="#5b9bd5"></rect><text class="label" x="289.87083756886545" y="357.3279180030679" font-size="10px">1.17x</text><text class="label" x="278.90614752408476" y="370.5059963742853" font-size="10px">1.07x</text><text class="label" x="286.95001156572357" y="383.6840747455027" font-size="10px">1.14x</text><text class="label" x="270.94903893783976" y="396.8621531167201" font-size="10px">1x</text><text class="label" x="368.1163218910662" y="410.0402314879375" font-size="10px">1.86x</text><text class="label" x="286.37083756886545" y="358.8279180030679" font-size="8px"></text><text class="label" x="275.40614752408476" y="372.0059963742853" font-size="8px"></text><text class="label" x="283.45001156572357" y="385.1840747455027" font-size="8px"></text><text class="label" x="267.44903893783976" y="398.3621531167201" font-size="8px"></text><text class="label" x="364.6163218910662" y="411.5402314879375" font-size="8px"></text></g><g style="font-size: 13px;"><rect x="150" y="422.7715799748988" width="132.44372462063924" height="12.519174452656534" fill="#4472c4"></rect><rect x="150" y="435.9496583461163" width="118.6899209386763" height="12.519174452656534" fill="#ed7d31"></rect><rect x="150" y="449.1277367173337" width="127.32908223341151" height="12.519174452656534" fill="#a5a5a5"></rect><rect x="150" y="462.30581508855107" width="112.44903893783975" height="12.519174452656534" fill="#ffc000"></rect><rect x="150" y="475.48389345976847" width="113.43175206204188" height="12.519174452656534" fill="#5b9bd5"></rect><text class="label" x="290.9437246206393" y="431.2715799748988" font-size="10px">1.18x</text><text class="label" x="277.1899209386763" y="444.4496583461163" font-size="10px">1.06x</text><text class="label" x="285.8290822334115" y="457.6277367173337" font-size="10px">1.13x</text><text class="label" x="270.94903893783976" y="470.80581508855107" font-size="10px">1x</text><text class="label" x="271.9317520620419" y="483.98389345976847" font-size="10px">1.01x</text><text class="label" x="287.4437246206393" y="432.7715799748988" font-size="8px"></text><text class="label" x="273.6899209386763" y="445.9496583461163" font-size="8px"></text><text class="label" x="282.3290822334115" y="459.1277367173337" font-size="8px"></text><text class="label" x="267.44903893783976" y="472.30581508855107" font-size="8px"></text><text class="label" x="268.4317520620419" y="485.48389345976847" font-size="8px"></text></g><g style="font-size: 13px;"><rect x="150" y="496.71524194672986" width="124.74533755609914" height="12.519174452656534" fill="#4472c4"></rect><rect x="150" y="509.89332031794726" width="112.44903893783975" height="12.519174452656534" fill="#ed7d31"></rect><rect x="150" y="523.0713986891647" width="114.13507790108204" height="12.519174452656534" fill="#a5a5a5"></rect><rect x="150" y="536.2494770603821" width="172.3086371272213" height="12.519174452656534" fill="#ffc000"></rect><rect x="150" y="549.4275554315994" width="153.77529709721597" height="12.519174452656534" fill="#5b9bd5"></rect><text class="label" x="283.2453375560991" y="505.21524194672986" font-size="10px">1.11x</text><text class="label" x="270.94903893783976" y="518.3933203179472" font-size="10px">1x</text><text class="label" x="272.635077901082" y="531.5713986891647" font-size="10px">1.01x</text><text class="label" x="330.8086371272213" y="544.7494770603821" font-size="10px">1.53x</text><text class="label" x="312.27529709721597" y="557.9275554315994" font-size="10px">1.37x</text><text class="label" x="279.7453375560991" y="506.71524194672986" font-size="8px"></text><text class="label" x="267.44903893783976" y="519.8933203179472" font-size="8px"></text><text class="label" x="269.135077901082" y="533.0713986891647" font-size="8px"></text><text class="label" x="327.3086371272213" y="546.2494770603821" font-size="8px"></text><text class="label" x="308.77529709721597" y="559.4275554315994" font-size="8px"></text></g></g></svg>