<svg xmlns="http://www.w3.org/2000/svg" xmlns:xlink="http://www.w3.org/1999/xlink" width="800" height="675" style="background-color: white;"><g class="y axis" transform="translate(149,45)" fill="none" font-size="10" font-family="sans-serif" text-anchor="end" style="font-size: 13px;"><path class="domain" stroke="currentColor" d="M0.5,0.5V600.5"></path><g class="tick" opacity="1" transform="translate(0,40.740740740740726)" style="font-size: 13px;"><line stroke="currentColor" x2="0"></line><text fill="currentColor" x="-3" dy="0.32em">object (simple)    </text></g><g class="tick" opacity="1" transform="translate(0,114.81481481481481)" style="font-size: 13px;"><line stroke="currentColor" x2="0"></line><text fill="currentColor" x="-3" dy="0.32em">object (hierarchical)    </text></g><g class="tick" opacity="1" transform="translate(0,188.88888888888889)" style="font-size: 13px;"><line stroke="currentColor" x2="0"></line><text fill="currentColor" x="-3" dy="0.32em">object (recursive)    </text></g><g class="tick" opacity="1" transform="translate(0,262.96296296296293)" style="font-size: 13px;"><line stroke="currentColor" x2="0"></line><text fill="currentColor" x="-3" dy="0.32em">object (union)    </text></g><g class="tick" opacity="1" transform="translate(0,337.037037037037)" style="font-size: 13px;"><line stroke="currentColor" x2="0"></line><text fill="currentColor" x="-3" dy="0.32em">array (simple)    </text></g><g class="tick" opacity="1" transform="translate(0,411.1111111111111)" style="font-size: 13px;"><line stroke="currentColor" x2="0"></line><text fill="currentColor" x="-3" dy="0.32em">array (hierarchical)    </text></g><g class="tick" opacity="1" transform="translate(0,485.18518518518516)" style="font-size: 13px;"><line stroke="currentColor" x2="0"></line><text fill="currentColor" x="-3" dy="0.32em">array (recursive)    </text></g><g class="tick" opacity="1" transform="translate(0,559.2592592592592)" style="font-size: 13px;"><line stroke="currentColor" x2="0"></line><text fill="currentColor" x="-3" dy="0.32em">array (union)    </text></g></g><g class="x axis" transform="translate(149,645)" fill="none" font-size="10" font-family="sans-serif" text-anchor="middle" style="font-size: 13px;"><path class="domain" stroke="currentColor" d="M0.5,0.5H485.5"></path><g class="tick" opacity="1" transform="translate(0.5,0)" style="font-size: 13px;"><line stroke="currentColor" y2="6"></line><text fill="currentColor" y="9" dy="0.71em">0x</text></g><g class="tick" opacity="1" transform="translate(96.37473051415417,0)" style="font-size: 13px;"><line stroke="currentColor" y2="6"></line><text fill="currentColor" y="9" dy="0.71em">0,5x</text></g><g class="tick" opacity="1" transform="translate(192.24946102830833,0)" style="font-size: 13px;"><line stroke="currentColor" y2="6"></line><text fill="currentColor" y="9" dy="0.71em">1x</text></g><g class="tick" opacity="1" transform="translate(288.1241915424625,0)" style="font-size: 13px;"><line stroke="currentColor" y2="6"></line><text fill="currentColor" y="9" dy="0.71em">1,5x</text></g><g class="tick" opacity="1" transform="translate(383.99892205661666,0)" style="font-size: 13px;"><line stroke="currentColor" y2="6"></line><text fill="currentColor" y="9" dy="0.71em">2x</text></g><g class="tick" opacity="1" transform="translate(479.87365257077084,0)" style="font-size: 13px;"><line stroke="currentColor" y2="6"></line><text fill="currentColor" y="9" dy="0.71em">2,5x</text></g></g><text transform="translate(400, 30)" style="text-anchor: middle; font-size: 20px; font-weight: bold;">stringify (server) benchmark</text><rect x="680" y="145" width="200" height="5" fill="gray"></rect><rect x="675" y="35" width="200" height="110" fill="none" stroke="black"></rect><rect x="685" y="45" width="10" height="10" style="fill: #4472c4;"></rect><text x="700" y="55" style="font-size: 12px;">express (pure)</text><rect x="685" y="65" width="10" height="10" style="fill: #ed7d31;"></rect><text x="700" y="75" style="font-size: 12px;">express (typia.stringify)</text><rect x="685" y="85" width="10" height="10" style="fill: #a5a5a5;"></rect><text x="700" y="95" style="font-size: 12px;">express (typia.isStringify)</text><rect x="685" y="105" width="10" height="10" style="fill: #ffc000;"></rect><text x="700" y="115" style="font-size: 12px;">express (typia.assertStringify)</text><rect x="685" y="125" width="10" height="10" style="fill: #5b9bd5;"></rect><text x="700" y="135" style="font-size: 12px;">fastify</text><g style="font-size: 13px;"><g style="font-size: 13px;"><rect x="150" y="53.06747341400805" width="191.74946102830833" height="12.541254125412543" fill="#4472c4"></rect><rect x="150" y="66.26879354602124" width="214.4456116050345" height="12.541254125412543" fill="#ed7d31"></rect><rect x="150" y="79.47011367803445" width="209.52219637722575" height="12.541254125412543" fill="#a5a5a5"></rect><rect x="150" y="92.67143381004766" width="200.8057241228369" height="12.541254125412543" fill="#ffc000"></rect><rect x="150" y="105.87275394206085" width="329.60428419350615" height="12.541254125412543" fill="#5b9bd5"></rect><text class="label" x="350.24946102830836" y="61.56747341400805" font-size="10px">1x</text><text class="label" x="372.9456116050345" y="74.76879354602124" font-size="10px">1,12x</text><text class="label" x="368.0221963772258" y="87.97011367803445" font-size="10px">1,09x</text><text class="label" x="359.30572412283686" y="101.17143381004766" font-size="10px">1,05x</text><text class="label" x="488.10428419350615" y="114.37275394206085" font-size="10px">1,72x</text><text class="label" x="346.74946102830836" y="63.06747341400805" font-size="8px"></text><text class="label" x="369.4456116050345" y="76.26879354602124" font-size="8px"></text><text class="label" x="364.5221963772258" y="89.47011367803445" font-size="8px"></text><text class="label" x="355.80572412283686" y="102.67143381004766" font-size="8px"></text><text class="label" x="484.60428419350615" y="115.87275394206085" font-size="8px"></text></g><g style="font-size: 13px;"><rect x="150" y="127.14154748808213" width="201.07508335324755" height="12.541254125412543" fill="#4472c4"></rect><rect x="150" y="140.34286762009532" width="198.43070265938098" height="12.541254125412543" fill="#ed7d31"></rect><rect x="150" y="153.54418775210854" width="192.89124640256628" height="12.541254125412543" fill="#a5a5a5"></rect><rect x="150" y="166.74550788412174" width="191.74946102830833" height="12.541254125412543" fill="#ffc000"></rect><rect x="150" y="179.94682801613493" width="237.36635164303357" height="12.541254125412543" fill="#5b9bd5"></rect><text class="label" x="359.5750833532476" y="135.64154748808213" font-size="10px">1,05x</text><text class="label" x="356.930702659381" y="148.84286762009532" font-size="10px">1,03x</text><text class="label" x="351.39124640256625" y="162.04418775210854" font-size="10px">1,01x</text><text class="label" x="350.24946102830836" y="175.24550788412174" font-size="10px">1x</text><text class="label" x="395.86635164303357" y="188.44682801613493" font-size="10px">1,24x</text><text class="label" x="356.0750833532476" y="137.14154748808213" font-size="8px"></text><text class="label" x="353.430702659381" y="150.34286762009532" font-size="8px"></text><text class="label" x="347.89124640256625" y="163.54418775210854" font-size="8px"></text><text class="label" x="346.74946102830836" y="176.74550788412174" font-size="8px"></text><text class="label" x="392.36635164303357" y="189.94682801613493" font-size="8px"></text></g><g style="font-size: 13px;"><rect x="150" y="201.2156215621562" width="191.74946102830833" height="12.541254125412543" fill="#4472c4"></rect><rect x="150" y="214.4169416941694" width="202.60138002046065" height="12.541254125412543" fill="#ed7d31"></rect><rect x="150" y="227.61826182618262" width="202.22685782400717" height="12.541254125412543" fill="#a5a5a5"></rect><rect x="150" y="240.8195819581958" width="198.76401340188272" height="12.541254125412543" fill="#ffc000"></rect><rect x="150" y="254.020902090209" width="267.9727330365829" height="12.541254125412543" fill="#5b9bd5"></rect><text class="label" x="350.24946102830836" y="209.7156215621562" font-size="10px">1x</text><text class="label" x="361.1013800204606" y="222.9169416941694" font-size="10px">1,06x</text><text class="label" x="360.7268578240072" y="236.11826182618262" font-size="10px">1,05x</text><text class="label" x="357.2640134018827" y="249.3195819581958" font-size="10px">1,04x</text><text class="label" x="426.4727330365829" y="262.520902090209" font-size="10px">1,4x</text><text class="label" x="346.74946102830836" y="211.2156215621562" font-size="8px"></text><text class="label" x="357.6013800204606" y="224.4169416941694" font-size="8px"></text><text class="label" x="357.2268578240072" y="237.61826182618262" font-size="8px"></text><text class="label" x="353.7640134018827" y="250.8195819581958" font-size="8px"></text><text class="label" x="422.9727330365829" y="264.020902090209" font-size="8px"></text></g><g style="font-size: 13px;"><rect x="150" y="275.28969563623025" width="276.6571777509925" height="12.541254125412543" fill="#4472c4"></rect><rect x="150" y="288.49101576824347" width="309.12859915779416" height="12.541254125412543" fill="#ed7d31"></rect><rect x="150" y="301.6923359002567" width="292.64607700011265" height="12.541254125412543" fill="#a5a5a5"></rect><rect x="150" y="314.89365603226986" width="262.8078876337286" height="12.541254125412543" fill="#ffc000"></rect><rect x="150" y="328.0949761642831" width="191.74946102830833" height="12.541254125412543" fill="#5b9bd5"></rect><text class="label" x="435.1571777509925" y="283.78969563623025" font-size="10px">1,44x</text><text class="label" x="467.62859915779416" y="296.99101576824347" font-size="10px">1,61x</text><text class="label" x="451.14607700011265" y="310.1923359002567" font-size="10px">1,53x</text><text class="label" x="421.3078876337286" y="323.39365603226986" font-size="10px">1,37x</text><text class="label" x="350.24946102830836" y="336.5949761642831" font-size="10px">1x</text><text class="label" x="431.6571777509925" y="285.28969563623025" font-size="8px"></text><text class="label" x="464.12859915779416" y="298.49101576824347" font-size="8px"></text><text class="label" x="447.64607700011265" y="311.6923359002567" font-size="8px"></text><text class="label" x="417.8078876337286" y="324.89365603226986" font-size="8px"></text><text class="label" x="346.74946102830836" y="338.0949761642831" font-size="8px"></text></g><g style="font-size: 13px;"><rect x="150" y="349.3637697103044" width="273.3715520793478" height="12.541254125412543" fill="#4472c4"></rect><rect x="150" y="362.56508984231755" width="234.67440294851346" height="12.541254125412543" fill="#ed7d31"></rect><rect x="150" y="375.76640997433077" width="220.08542216070836" height="12.541254125412543" fill="#a5a5a5"></rect><rect x="150" y="388.967730106344" width="202.48581848628595" height="12.541254125412543" fill="#ffc000"></rect><rect x="150" y="402.16905023835716" width="191.74946102830833" height="12.541254125412543" fill="#5b9bd5"></rect><text class="label" x="431.8715520793478" y="357.8637697103044" font-size="10px">1,43x</text><text class="label" x="393.1744029485135" y="371.06508984231755" font-size="10px">1,22x</text><text class="label" x="378.5854221607084" y="384.26640997433077" font-size="10px">1,15x</text><text class="label" x="360.98581848628595" y="397.467730106344" font-size="10px">1,06x</text><text class="label" x="350.24946102830836" y="410.66905023835716" font-size="10px">1x</text><text class="label" x="428.3715520793478" y="359.3637697103044" font-size="8px"></text><text class="label" x="389.6744029485135" y="372.56508984231755" font-size="8px"></text><text class="label" x="375.0854221607084" y="385.76640997433077" font-size="8px"></text><text class="label" x="357.48581848628595" y="398.967730106344" font-size="8px"></text><text class="label" x="346.74946102830836" y="412.16905023835716" font-size="8px"></text></g><g style="font-size: 13px;"><rect x="150" y="423.4378437843784" width="427.20388025716517" height="12.541254125412543" fill="#4472c4"></rect><rect x="150" y="436.6391639163916" width="440.9090909090909" height="12.541254125412543" fill="#ed7d31"></rect><rect x="150" y="449.84048404840485" width="407.24468305798655" height="12.541254125412543" fill="#a5a5a5"></rect><rect x="150" y="463.041804180418" width="296.3034684007985" height="12.541254125412543" fill="#ffc000"></rect><rect x="150" y="476.24312431243123" width="191.74946102830833" height="12.541254125412543" fill="#5b9bd5"></rect><text class="label" x="585.7038802571651" y="431.9378437843784" font-size="10px">2,23x</text><text class="label" x="599.4090909090909" y="445.1391639163916" font-size="10px">2,3x</text><text class="label" x="565.7446830579865" y="458.34048404840485" font-size="10px">2,12x</text><text class="label" x="454.8034684007985" y="471.541804180418" font-size="10px">1,55x</text><text class="label" x="350.24946102830836" y="484.74312431243123" font-size="10px">1x</text><text class="label" x="582.2038802571651" y="433.4378437843784" font-size="8px"></text><text class="label" x="595.9090909090909" y="446.6391639163916" font-size="8px"></text><text class="label" x="562.2446830579865" y="459.84048404840485" font-size="8px"></text><text class="label" x="451.3034684007985" y="473.041804180418" font-size="8px"></text><text class="label" x="346.74946102830836" y="486.24312431243123" font-size="8px"></text></g><g style="font-size: 13px;"><rect x="150" y="497.51191785845253" width="191.74946102830833" height="12.541254125412543" fill="#4472c4"></rect><rect x="150" y="510.7132379904657" width="208.2038959641201" height="12.541254125412543" fill="#ed7d31"></rect><rect x="150" y="523.9145581224789" width="204.37746251641178" height="12.541254125412543" fill="#a5a5a5"></rect><rect x="150" y="537.1158782544921" width="198.11516772756596" height="12.541254125412543" fill="#ffc000"></rect><rect x="150" y="550.3171983865053" width="256.91516869037423" height="12.541254125412543" fill="#5b9bd5"></rect><text class="label" x="350.24946102830836" y="506.01191785845253" font-size="10px">1x</text><text class="label" x="366.7038959641201" y="519.2132379904657" font-size="10px">1,09x</text><text class="label" x="362.8774625164118" y="532.4145581224789" font-size="10px">1,07x</text><text class="label" x="356.61516772756596" y="545.6158782544921" font-size="10px">1,03x</text><text class="label" x="415.41516869037423" y="558.8171983865053" font-size="10px">1,34x</text><text class="label" x="346.74946102830836" y="507.51191785845253" font-size="8px"></text><text class="label" x="363.2038959641201" y="520.7132379904657" font-size="8px"></text><text class="label" x="359.3774625164118" y="533.9145581224789" font-size="8px"></text><text class="label" x="353.11516772756596" y="547.1158782544921" font-size="8px"></text><text class="label" x="411.91516869037423" y="560.3171983865053" font-size="8px"></text></g><g style="font-size: 13px;"><rect x="150" y="571.5859919325266" width="308.5497351504455" height="12.541254125412543" fill="#4472c4"></rect><rect x="150" y="584.7873120645397" width="218.6357009384134" height="12.541254125412543" fill="#ed7d31"></rect><rect x="150" y="597.9886321965529" width="191.93082435155452" height="12.541254125412543" fill="#a5a5a5"></rect><rect x="150" y="611.1899523285662" width="191.74946102830833" height="12.541254125412543" fill="#ffc000"></rect><rect x="150" y="624.3912724605793" width="197.08557312885412" height="12.541254125412543" fill="#5b9bd5"></rect><text class="label" x="467.0497351504455" y="580.0859919325266" font-size="10px">1,61x</text><text class="label" x="377.1357009384134" y="593.2873120645397" font-size="10px">1,14x</text><text class="label" x="350.4308243515545" y="606.4886321965529" font-size="10px">1x</text><text class="label" x="350.24946102830836" y="619.6899523285662" font-size="10px">1x</text><text class="label" x="355.5855731288541" y="632.8912724605793" font-size="10px">1,03x</text><text class="label" x="463.5497351504455" y="581.5859919325266" font-size="8px"></text><text class="label" x="373.6357009384134" y="594.7873120645397" font-size="8px"></text><text class="label" x="346.9308243515545" y="607.9886321965529" font-size="8px"></text><text class="label" x="346.74946102830836" y="621.1899523285662" font-size="8px"></text><text class="label" x="352.0855731288541" y="634.3912724605793" font-size="8px"></text></g></g></svg>