<svg xmlns="http://www.w3.org/2000/svg" xmlns:xlink="http://www.w3.org/1999/xlink" width="800" height="675" style="background-color: white;"><g class="y axis" transform="translate(149,45)" fill="none" font-size="10" font-family="sans-serif" text-anchor="end" style="font-size: 13px;"><path class="domain" stroke="currentColor" d="M0.5,0.5V600.5"></path><g class="tick" opacity="1" transform="translate(0,40.740740740740726)" style="font-size: 13px;"><line stroke="currentColor" x2="0"></line><text fill="currentColor" x="-3" dy="0.32em">object (simple)    </text></g><g class="tick" opacity="1" transform="translate(0,114.81481481481481)" style="font-size: 13px;"><line stroke="currentColor" x2="0"></line><text fill="currentColor" x="-3" dy="0.32em">object (hierarchical)    </text></g><g class="tick" opacity="1" transform="translate(0,188.88888888888889)" style="font-size: 13px;"><line stroke="currentColor" x2="0"></line><text fill="currentColor" x="-3" dy="0.32em">object (recursive)    </text></g><g class="tick" opacity="1" transform="translate(0,262.96296296296293)" style="font-size: 13px;"><line stroke="currentColor" x2="0"></line><text fill="currentColor" x="-3" dy="0.32em">object (union)    </text></g><g class="tick" opacity="1" transform="translate(0,337.037037037037)" style="font-size: 13px;"><line stroke="currentColor" x2="0"></line><text fill="currentColor" x="-3" dy="0.32em">array (simple)    </text></g><g class="tick" opacity="1" transform="translate(0,411.1111111111111)" style="font-size: 13px;"><line stroke="currentColor" x2="0"></line><text fill="currentColor" x="-3" dy="0.32em">array (hierarchical)    </text></g><g class="tick" opacity="1" transform="translate(0,485.18518518518516)" style="font-size: 13px;"><line stroke="currentColor" x2="0"></line><text fill="currentColor" x="-3" dy="0.32em">array (recursive)    </text></g><g class="tick" opacity="1" transform="translate(0,559.2592592592592)" style="font-size: 13px;"><line stroke="currentColor" x2="0"></line><text fill="currentColor" x="-3" dy="0.32em">array (union)    </text></g></g><g class="x axis" transform="translate(149,645)" fill="none" font-size="10" font-family="sans-serif" text-anchor="middle" style="font-size: 13px;"><path class="domain" stroke="currentColor" d="M0.5,0.5H485.5"></path><g class="tick" opacity="1" transform="translate(0.5,0)" style="font-size: 13px;"><line stroke="currentColor" y2="6"></line><text fill="currentColor" y="9" dy="0.71em">0x</text></g><g class="tick" opacity="1" transform="translate(95.1219139583796,0)" style="font-size: 13px;"><line stroke="currentColor" y2="6"></line><text fill="currentColor" y="9" dy="0.71em">0,5x</text></g><g class="tick" opacity="1" transform="translate(189.7438279167592,0)" style="font-size: 13px;"><line stroke="currentColor" y2="6"></line><text fill="currentColor" y="9" dy="0.71em">1x</text></g><g class="tick" opacity="1" transform="translate(284.3657418751388,0)" style="font-size: 13px;"><line stroke="currentColor" y2="6"></line><text fill="currentColor" y="9" dy="0.71em">1,5x</text></g><g class="tick" opacity="1" transform="translate(378.9876558335184,0)" style="font-size: 13px;"><line stroke="currentColor" y2="6"></line><text fill="currentColor" y="9" dy="0.71em">2x</text></g><g class="tick" opacity="1" transform="translate(473.60956979189797,0)" style="font-size: 13px;"><line stroke="currentColor" y2="6"></line><text fill="currentColor" y="9" dy="0.71em">2,5x</text></g></g><text transform="translate(400, 30)" style="text-anchor: middle; font-size: 20px; font-weight: bold;">stringify (server) benchmark</text><rect x="680" y="145" width="200" height="5" fill="gray"></rect><rect x="675" y="35" width="200" height="110" fill="none" stroke="black"></rect><rect x="685" y="45" width="10" height="10" style="fill: #4472c4;"></rect><text x="700" y="55" style="font-size: 12px;">express (pure)</text><rect x="685" y="65" width="10" height="10" style="fill: #ed7d31;"></rect><text x="700" y="75" style="font-size: 12px;">express (typia.stringify)</text><rect x="685" y="85" width="10" height="10" style="fill: #a5a5a5;"></rect><text x="700" y="95" style="font-size: 12px;">express (typia.isStringify)</text><rect x="685" y="105" width="10" height="10" style="fill: #ffc000;"></rect><text x="700" y="115" style="font-size: 12px;">express (typia.assertStringify)</text><rect x="685" y="125" width="10" height="10" style="fill: #5b9bd5;"></rect><text x="700" y="135" style="font-size: 12px;">fastify</text><g style="font-size: 13px;"><g style="font-size: 13px;"><rect x="150" y="53.06747341400805" width="189.2438279167592" height="12.541254125412543" fill="#4472c4"></rect><rect x="150" y="66.26879354602124" width="214.8525398501278" height="12.541254125412543" fill="#ed7d31"></rect><rect x="150" y="79.47011367803445" width="209.32689972558418" height="12.541254125412543" fill="#a5a5a5"></rect><rect x="150" y="92.67143381004766" width="196.98955358537728" height="12.541254125412543" fill="#ffc000"></rect><rect x="150" y="105.87275394206085" width="324.8077771453452" height="12.541254125412543" fill="#5b9bd5"></rect><text class="label" x="347.7438279167592" y="61.56747341400805" font-size="10px">1x</text><text class="label" x="373.3525398501278" y="74.76879354602124" font-size="10px">1,14x</text><text class="label" x="367.8268997255842" y="87.97011367803445" font-size="10px">1,11x</text><text class="label" x="355.4895535853773" y="101.17143381004766" font-size="10px">1,04x</text><text class="label" x="483.3077771453452" y="114.37275394206085" font-size="10px">1,72x</text><text class="label" x="344.2438279167592" y="63.06747341400805" font-size="8px"></text><text class="label" x="369.8525398501278" y="76.26879354602124" font-size="8px"></text><text class="label" x="364.3268997255842" y="89.47011367803445" font-size="8px"></text><text class="label" x="351.9895535853773" y="102.67143381004766" font-size="8px"></text><text class="label" x="479.8077771453452" y="115.87275394206085" font-size="8px"></text></g><g style="font-size: 13px;"><rect x="150" y="127.14154748808213" width="199.62255672186066" height="12.541254125412543" fill="#4472c4"></rect><rect x="150" y="140.34286762009532" width="197.0041939687707" height="12.541254125412543" fill="#ed7d31"></rect><rect x="150" y="153.54418775210854" width="193.1229290057211" height="12.541254125412543" fill="#a5a5a5"></rect><rect x="150" y="166.74550788412174" width="189.2438279167592" height="12.541254125412543" fill="#ffc000"></rect><rect x="150" y="179.94682801613493" width="244.01664480329094" height="12.541254125412543" fill="#5b9bd5"></rect><text class="label" x="358.12255672186063" y="135.64154748808213" font-size="10px">1,05x</text><text class="label" x="355.50419396877066" y="148.84286762009532" font-size="10px">1,04x</text><text class="label" x="351.62292900572106" y="162.04418775210854" font-size="10px">1,02x</text><text class="label" x="347.7438279167592" y="175.24550788412174" font-size="10px">1x</text><text class="label" x="402.51664480329094" y="188.44682801613493" font-size="10px">1,29x</text><text class="label" x="354.62255672186063" y="137.14154748808213" font-size="8px"></text><text class="label" x="352.00419396877066" y="150.34286762009532" font-size="8px"></text><text class="label" x="348.12292900572106" y="163.54418775210854" font-size="8px"></text><text class="label" x="344.2438279167592" y="176.74550788412174" font-size="8px"></text><text class="label" x="399.01664480329094" y="189.94682801613493" font-size="8px"></text></g><g style="font-size: 13px;"><rect x="150" y="201.2156215621562" width="189.2438279167592" height="12.541254125412543" fill="#4472c4"></rect><rect x="150" y="214.4169416941694" width="203.56859811543558" height="12.541254125412543" fill="#ed7d31"></rect><rect x="150" y="227.61826182618262" width="202.42940069525744" height="12.541254125412543" fill="#a5a5a5"></rect><rect x="150" y="240.8195819581958" width="197.58204132926772" height="12.541254125412543" fill="#ffc000"></rect><rect x="150" y="254.020902090209" width="276.05506140168956" height="12.541254125412543" fill="#5b9bd5"></rect><text class="label" x="347.7438279167592" y="209.7156215621562" font-size="10px">1x</text><text class="label" x="362.0685981154356" y="222.9169416941694" font-size="10px">1,08x</text><text class="label" x="360.9294006952574" y="236.11826182618262" font-size="10px">1,07x</text><text class="label" x="356.0820413292677" y="249.3195819581958" font-size="10px">1,04x</text><text class="label" x="434.55506140168956" y="262.520902090209" font-size="10px">1,46x</text><text class="label" x="344.2438279167592" y="211.2156215621562" font-size="8px"></text><text class="label" x="358.5685981154356" y="224.4169416941694" font-size="8px"></text><text class="label" x="357.4294006952574" y="237.61826182618262" font-size="8px"></text><text class="label" x="352.5820413292677" y="250.8195819581958" font-size="8px"></text><text class="label" x="431.05506140168956" y="264.020902090209" font-size="8px"></text></g><g style="font-size: 13px;"><rect x="150" y="275.28969563623025" width="278.30126487654263" height="12.541254125412543" fill="#4472c4"></rect><rect x="150" y="288.49101576824347" width="323.8520660673795" height="12.541254125412543" fill="#ed7d31"></rect><rect x="150" y="301.6923359002567" width="298.29484963187866" height="12.541254125412543" fill="#a5a5a5"></rect><rect x="150" y="314.89365603226986" width="265.57616144599564" height="12.541254125412543" fill="#ffc000"></rect><rect x="150" y="328.0949761642831" width="189.2438279167592" height="12.541254125412543" fill="#5b9bd5"></rect><text class="label" x="436.80126487654263" y="283.78969563623025" font-size="10px">1,47x</text><text class="label" x="482.3520660673795" y="296.99101576824347" font-size="10px">1,71x</text><text class="label" x="456.79484963187866" y="310.1923359002567" font-size="10px">1,58x</text><text class="label" x="424.07616144599564" y="323.39365603226986" font-size="10px">1,4x</text><text class="label" x="347.7438279167592" y="336.5949761642831" font-size="10px">1x</text><text class="label" x="433.30126487654263" y="285.28969563623025" font-size="8px"></text><text class="label" x="478.8520660673795" y="298.49101576824347" font-size="8px"></text><text class="label" x="453.29484963187866" y="311.6923359002567" font-size="8px"></text><text class="label" x="420.57616144599564" y="324.89365603226986" font-size="8px"></text><text class="label" x="344.2438279167592" y="338.0949761642831" font-size="8px"></text></g><g style="font-size: 13px;"><rect x="150" y="349.3637697103044" width="282.95721945964095" height="12.541254125412543" fill="#4472c4"></rect><rect x="150" y="362.56508984231755" width="245.51923434562326" height="12.541254125412543" fill="#ed7d31"></rect><rect x="150" y="375.76640997433077" width="204.53035129228218" height="12.541254125412543" fill="#a5a5a5"></rect><rect x="150" y="388.967730106344" width="205.53737526064506" height="12.541254125412543" fill="#ffc000"></rect><rect x="150" y="402.16905023835716" width="189.2438279167592" height="12.541254125412543" fill="#5b9bd5"></rect><text class="label" x="441.45721945964095" y="357.8637697103044" font-size="10px">1,5x</text><text class="label" x="404.01923434562326" y="371.06508984231755" font-size="10px">1,3x</text><text class="label" x="363.03035129228215" y="384.26640997433077" font-size="10px">1,08x</text><text class="label" x="364.03737526064504" y="397.467730106344" font-size="10px">1,09x</text><text class="label" x="347.7438279167592" y="410.66905023835716" font-size="10px">1x</text><text class="label" x="437.95721945964095" y="359.3637697103044" font-size="8px"></text><text class="label" x="400.51923434562326" y="372.56508984231755" font-size="8px"></text><text class="label" x="359.53035129228215" y="385.76640997433077" font-size="8px"></text><text class="label" x="360.53737526064504" y="398.967730106344" font-size="8px"></text><text class="label" x="344.2438279167592" y="412.16905023835716" font-size="8px"></text></g><g style="font-size: 13px;"><rect x="150" y="423.4378437843784" width="407.99656650261153" height="12.541254125412543" fill="#4472c4"></rect><rect x="150" y="436.6391639163916" width="440.9090909090909" height="12.541254125412543" fill="#ed7d31"></rect><rect x="150" y="449.84048404840485" width="392.66005854877994" height="12.541254125412543" fill="#a5a5a5"></rect><rect x="150" y="463.041804180418" width="254.2269541907874" height="12.541254125412543" fill="#ffc000"></rect><rect x="150" y="476.24312431243123" width="189.2438279167592" height="12.541254125412543" fill="#5b9bd5"></rect><text class="label" x="566.4965665026116" y="431.9378437843784" font-size="10px">2,16x</text><text class="label" x="599.4090909090909" y="445.1391639163916" font-size="10px">2,33x</text><text class="label" x="551.16005854878" y="458.34048404840485" font-size="10px">2,07x</text><text class="label" x="412.7269541907874" y="471.541804180418" font-size="10px">1,34x</text><text class="label" x="347.7438279167592" y="484.74312431243123" font-size="10px">1x</text><text class="label" x="562.9965665026116" y="433.4378437843784" font-size="8px"></text><text class="label" x="595.9090909090909" y="446.6391639163916" font-size="8px"></text><text class="label" x="547.66005854878" y="459.84048404840485" font-size="8px"></text><text class="label" x="409.2269541907874" y="473.041804180418" font-size="8px"></text><text class="label" x="344.2438279167592" y="486.24312431243123" font-size="8px"></text></g><g style="font-size: 13px;"><rect x="150" y="497.51191785845253" width="189.2438279167592" height="12.541254125412543" fill="#4472c4"></rect><rect x="150" y="510.7132379904657" width="197.04926477473074" height="12.541254125412543" fill="#ed7d31"></rect><rect x="150" y="523.9145581224789" width="206.04303824250664" height="12.541254125412543" fill="#a5a5a5"></rect><rect x="150" y="537.1158782544921" width="199.6735888823855" height="12.541254125412543" fill="#ffc000"></rect><rect x="150" y="550.3171983865053" width="265.5053894677981" height="12.541254125412543" fill="#5b9bd5"></rect><text class="label" x="347.7438279167592" y="506.01191785845253" font-size="10px">1x</text><text class="label" x="355.5492647747308" y="519.2132379904657" font-size="10px">1,04x</text><text class="label" x="364.54303824250667" y="532.4145581224789" font-size="10px">1,09x</text><text class="label" x="358.1735888823855" y="545.6158782544921" font-size="10px">1,06x</text><text class="label" x="424.0053894677981" y="558.8171983865053" font-size="10px">1,4x</text><text class="label" x="344.2438279167592" y="507.51191785845253" font-size="8px"></text><text class="label" x="352.0492647747308" y="520.7132379904657" font-size="8px"></text><text class="label" x="361.04303824250667" y="533.9145581224789" font-size="8px"></text><text class="label" x="354.6735888823855" y="547.1158782544921" font-size="8px"></text><text class="label" x="420.5053894677981" y="560.3171983865053" font-size="8px"></text></g><g style="font-size: 13px;"><rect x="150" y="571.5859919325266" width="302.1408967695863" height="12.541254125412543" fill="#4472c4"></rect><rect x="150" y="584.7873120645397" width="212.19771859407604" height="12.541254125412543" fill="#ed7d31"></rect><rect x="150" y="597.9886321965529" width="189.2438279167592" height="12.541254125412543" fill="#a5a5a5"></rect><rect x="150" y="611.1899523285662" width="192.88287140513415" height="12.541254125412543" fill="#ffc000"></rect><rect x="150" y="624.3912724605793" width="200.35881917638585" height="12.541254125412543" fill="#5b9bd5"></rect><text class="label" x="460.6408967695863" y="580.0859919325266" font-size="10px">1,6x</text><text class="label" x="370.69771859407604" y="593.2873120645397" font-size="10px">1,12x</text><text class="label" x="347.7438279167592" y="606.4886321965529" font-size="10px">1x</text><text class="label" x="351.38287140513415" y="619.6899523285662" font-size="10px">1,02x</text><text class="label" x="358.85881917638585" y="632.8912724605793" font-size="10px">1,06x</text><text class="label" x="457.1408967695863" y="581.5859919325266" font-size="8px"></text><text class="label" x="367.19771859407604" y="594.7873120645397" font-size="8px"></text><text class="label" x="344.2438279167592" y="607.9886321965529" font-size="8px"></text><text class="label" x="347.88287140513415" y="621.1899523285662" font-size="8px"></text><text class="label" x="355.35881917638585" y="634.3912724605793" font-size="8px"></text></g></g></svg>