<svg xmlns="http://www.w3.org/2000/svg" xmlns:xlink="http://www.w3.org/1999/xlink" width="800" height="675" style="background-color: white;"><g class="y axis" transform="translate(149,45)" fill="none" font-size="10" font-family="sans-serif" text-anchor="end" style="font-size: 13px;"><path class="domain" stroke="currentColor" d="M0.5,0.5V600.5"></path><g class="tick" opacity="1" transform="translate(0,40.740740740740726)" style="font-size: 13px;"><line stroke="currentColor" x2="0"></line><text fill="currentColor" x="-3" dy="0.32em">object (simple)    </text></g><g class="tick" opacity="1" transform="translate(0,114.81481481481481)" style="font-size: 13px;"><line stroke="currentColor" x2="0"></line><text fill="currentColor" x="-3" dy="0.32em">object (hierarchical)    </text></g><g class="tick" opacity="1" transform="translate(0,188.88888888888889)" style="font-size: 13px;"><line stroke="currentColor" x2="0"></line><text fill="currentColor" x="-3" dy="0.32em">object (recursive)    </text></g><g class="tick" opacity="1" transform="translate(0,262.96296296296293)" style="font-size: 13px;"><line stroke="currentColor" x2="0"></line><text fill="currentColor" x="-3" dy="0.32em">object (union)    </text></g><g class="tick" opacity="1" transform="translate(0,337.037037037037)" style="font-size: 13px;"><line stroke="currentColor" x2="0"></line><text fill="currentColor" x="-3" dy="0.32em">array (simple)    </text></g><g class="tick" opacity="1" transform="translate(0,411.1111111111111)" style="font-size: 13px;"><line stroke="currentColor" x2="0"></line><text fill="currentColor" x="-3" dy="0.32em">array (hierarchical)    </text></g><g class="tick" opacity="1" transform="translate(0,485.18518518518516)" style="font-size: 13px;"><line stroke="currentColor" x2="0"></line><text fill="currentColor" x="-3" dy="0.32em">array (recursive)    </text></g><g class="tick" opacity="1" transform="translate(0,559.2592592592592)" style="font-size: 13px;"><line stroke="currentColor" x2="0"></line><text fill="currentColor" x="-3" dy="0.32em">array (union)    </text></g></g><g class="x axis" transform="translate(149,645)" fill="none" font-size="10" font-family="sans-serif" text-anchor="middle" style="font-size: 13px;"><path class="domain" stroke="currentColor" d="M0.5,0.5H485.5"></path><g class="tick" opacity="1" transform="translate(0.5,0)" style="font-size: 13px;"><line stroke="currentColor" y2="6"></line><text fill="currentColor" y="9" dy="0.71em">0x</text></g><g class="tick" opacity="1" transform="translate(110.9356271653896,0)" style="font-size: 13px;"><line stroke="currentColor" y2="6"></line><text fill="currentColor" y="9" dy="0.71em">1x</text></g><g class="tick" opacity="1" transform="translate(221.3712543307792,0)" style="font-size: 13px;"><line stroke="currentColor" y2="6"></line><text fill="currentColor" y="9" dy="0.71em">2x</text></g><g class="tick" opacity="1" transform="translate(331.8068814961688,0)" style="font-size: 13px;"><line stroke="currentColor" y2="6"></line><text fill="currentColor" y="9" dy="0.71em">3x</text></g><g class="tick" opacity="1" transform="translate(442.2425086615584,0)" style="font-size: 13px;"><line stroke="currentColor" y2="6"></line><text fill="currentColor" y="9" dy="0.71em">4x</text></g></g><text transform="translate(400, 30)" style="text-anchor: middle; font-size: 20px; font-weight: bold;">stringify benchmark</text><rect x="680" y="145" width="200" height="5" fill="gray"></rect><rect x="675" y="35" width="200" height="110" fill="none" stroke="black"></rect><rect x="685" y="45" width="10" height="10" style="fill: #4472c4;"></rect><text x="700" y="55" style="font-size: 12px;">typia.stringify()</text><rect x="685" y="65" width="10" height="10" style="fill: #ed7d31;"></rect><text x="700" y="75" style="font-size: 12px;">typia.assertStringify()</text><rect x="685" y="85" width="10" height="10" style="fill: #a5a5a5;"></rect><text x="700" y="95" style="font-size: 12px;">typia.isStringify()</text><rect x="685" y="105" width="10" height="10" style="fill: #ffc000;"></rect><text x="700" y="115" style="font-size: 12px;">fast-json-stringify</text><rect x="685" y="125" width="10" height="10" style="fill: #5b9bd5;"></rect><text x="700" y="135" style="font-size: 12px;">JSON.stringify</text><g style="font-size: 13px;"><g style="font-size: 13px;"><rect x="150" y="53.06747341400805" width="440.9090909090908" height="12.541254125412543" fill="#4472c4"></rect><rect x="150" y="66.26879354602124" width="356.0615379728254" height="12.541254125412543" fill="#ed7d31"></rect><rect x="150" y="79.47011367803445" width="347.0201918408105" height="12.541254125412543" fill="#a5a5a5"></rect><rect x="150" y="92.67143381004766" width="333.7941391249873" height="12.541254125412543" fill="#ffc000"></rect><rect x="150" y="105.87275394206085" width="110.4356271653896" height="12.541254125412543" fill="#5b9bd5"></rect><text class="label" x="599.4090909090908" y="61.56747341400805" font-size="10px">3,99x</text><text class="label" x="514.5615379728254" y="74.76879354602124" font-size="10px">3,22x</text><text class="label" x="505.5201918408105" y="87.97011367803445" font-size="10px">3,14x</text><text class="label" x="492.2941391249873" y="101.17143381004766" font-size="10px">3,02x</text><text class="label" x="268.93562716538963" y="114.37275394206085" font-size="10px">1x</text><text class="label" x="595.9090909090908" y="63.06747341400805" font-size="8px"></text><text class="label" x="511.0615379728254" y="76.26879354602124" font-size="8px"></text><text class="label" x="502.0201918408105" y="89.47011367803445" font-size="8px"></text><text class="label" x="488.7941391249873" y="102.67143381004766" font-size="8px"></text><text class="label" x="265.43562716538963" y="115.87275394206085" font-size="8px"></text></g><g style="font-size: 13px;"><rect x="150" y="127.14154748808213" width="259.62687880722285" height="12.541254125412543" fill="#4472c4"></rect><rect x="150" y="140.34286762009532" width="217.56813010130546" height="12.541254125412543" fill="#ed7d31"></rect><rect x="150" y="153.54418775210854" width="233.91332657845624" height="12.541254125412543" fill="#a5a5a5"></rect><rect x="150" y="166.74550788412174" width="277.8082440651185" height="12.541254125412543" fill="#ffc000"></rect><rect x="150" y="179.94682801613493" width="110.4356271653896" height="12.541254125412543" fill="#5b9bd5"></rect><text class="label" x="418.12687880722285" y="135.64154748808213" font-size="10px">2,35x</text><text class="label" x="376.0681301013054" y="148.84286762009532" font-size="10px">1,97x</text><text class="label" x="392.41332657845624" y="162.04418775210854" font-size="10px">2,12x</text><text class="label" x="436.3082440651185" y="175.24550788412174" font-size="10px">2,52x</text><text class="label" x="268.93562716538963" y="188.44682801613493" font-size="10px">1x</text><text class="label" x="414.62687880722285" y="137.14154748808213" font-size="8px"></text><text class="label" x="372.5681301013054" y="150.34286762009532" font-size="8px"></text><text class="label" x="388.91332657845624" y="163.54418775210854" font-size="8px"></text><text class="label" x="432.8082440651185" y="176.74550788412174" font-size="8px"></text><text class="label" x="265.43562716538963" y="189.94682801613493" font-size="8px"></text></g><g style="font-size: 13px;"><rect x="150" y="201.2156215621562" width="316.31707589793416" height="12.541254125412543" fill="#4472c4"></rect><rect x="150" y="214.4169416941694" width="284.65898636264563" height="12.541254125412543" fill="#ed7d31"></rect><rect x="150" y="227.61826182618262" width="293.4974419601475" height="12.541254125412543" fill="#a5a5a5"></rect><rect x="150" y="240.8195819581958" width="110.4356271653896" height="12.541254125412543" fill="#ffc000"></rect><rect x="150" y="254.020902090209" width="111.61321024266013" height="12.541254125412543" fill="#5b9bd5"></rect><text class="label" x="474.81707589793416" y="209.7156215621562" font-size="10px">2,86x</text><text class="label" x="443.15898636264563" y="222.9169416941694" font-size="10px">2,58x</text><text class="label" x="451.9974419601475" y="236.11826182618262" font-size="10px">2,66x</text><text class="label" x="268.93562716538963" y="249.3195819581958" font-size="10px">1x</text><text class="label" x="270.1132102426601" y="262.520902090209" font-size="10px">1,01x</text><text class="label" x="471.31707589793416" y="211.2156215621562" font-size="8px"></text><text class="label" x="439.65898636264563" y="224.4169416941694" font-size="8px"></text><text class="label" x="448.4974419601475" y="237.61826182618262" font-size="8px"></text><text class="label" x="265.43562716538963" y="250.8195819581958" font-size="8px"></text><text class="label" x="266.6132102426601" y="264.020902090209" font-size="8px"></text></g><g style="font-size: 13px;"><rect x="150" y="275.28969563623025" width="140.33328719102474" height="12.541254125412543" fill="#4472c4"></rect><rect x="150" y="288.49101576824347" width="110.4356271653896" height="12.541254125412543" fill="#ed7d31"></rect><rect x="150" y="301.6923359002567" width="126.35488736453257" height="12.541254125412543" fill="#a5a5a5"></rect><rect x="150" y="314.89365603226986" width="163.37586922129566" height="12.541254125412543" fill="#ffc000"></rect><rect x="150" y="328.0949761642831" width="118.42917322044853" height="12.541254125412543" fill="#5b9bd5"></rect><text class="label" x="298.83328719102474" y="283.78969563623025" font-size="10px">1,27x</text><text class="label" x="268.93562716538963" y="296.99101576824347" font-size="10px">1x</text><text class="label" x="284.8548873645326" y="310.1923359002567" font-size="10px">1,14x</text><text class="label" x="321.87586922129566" y="323.39365603226986" font-size="10px">1,48x</text><text class="label" x="276.92917322044855" y="336.5949761642831" font-size="10px">1,07x</text><text class="label" x="295.33328719102474" y="285.28969563623025" font-size="8px"></text><text class="label" x="265.43562716538963" y="298.49101576824347" font-size="8px"></text><text class="label" x="281.3548873645326" y="311.6923359002567" font-size="8px"></text><text class="label" x="318.37586922129566" y="324.89365603226986" font-size="8px"></text><text class="label" x="273.42917322044855" y="338.0949761642831" font-size="8px"></text></g><g style="font-size: 13px;"><rect x="150" y="349.3637697103044" width="143.38596523644566" height="12.541254125412543" fill="#4472c4"></rect><rect x="150" y="362.56508984231755" width="110.4356271653896" height="12.541254125412543" fill="#ed7d31"></rect><rect x="150" y="375.76640997433077" width="126.89339038026517" height="12.541254125412543" fill="#a5a5a5"></rect><rect x="150" y="388.967730106344" width="167.91818268977966" height="12.541254125412543" fill="#ffc000"></rect><rect x="150" y="402.16905023835716" width="163.56011010611763" height="12.541254125412543" fill="#5b9bd5"></rect><text class="label" x="301.88596523644566" y="357.8637697103044" font-size="10px">1,3x</text><text class="label" x="268.93562716538963" y="371.06508984231755" font-size="10px">1x</text><text class="label" x="285.39339038026515" y="384.26640997433077" font-size="10px">1,15x</text><text class="label" x="326.41818268977966" y="397.467730106344" font-size="10px">1,52x</text><text class="label" x="322.06011010611763" y="410.66905023835716" font-size="10px">1,48x</text><text class="label" x="298.38596523644566" y="359.3637697103044" font-size="8px"></text><text class="label" x="265.43562716538963" y="372.56508984231755" font-size="8px"></text><text class="label" x="281.89339038026515" y="385.76640997433077" font-size="8px"></text><text class="label" x="322.91818268977966" y="398.967730106344" font-size="8px"></text><text class="label" x="318.56011010611763" y="412.16905023835716" font-size="8px"></text></g><g style="font-size: 13px;"><rect x="150" y="423.4378437843784" width="138.95449379807388" height="12.541254125412543" fill="#4472c4"></rect><rect x="150" y="436.6391639163916" width="126.8464088342432" height="12.541254125412543" fill="#ed7d31"></rect><rect x="150" y="449.84048404840485" width="132.44257392987157" height="12.541254125412543" fill="#a5a5a5"></rect><rect x="150" y="463.041804180418" width="213.34155247859357" height="12.541254125412543" fill="#ffc000"></rect><rect x="150" y="476.24312431243123" width="110.4356271653896" height="12.541254125412543" fill="#5b9bd5"></rect><text class="label" x="297.4544937980739" y="431.9378437843784" font-size="10px">1,26x</text><text class="label" x="285.3464088342432" y="445.1391639163916" font-size="10px">1,15x</text><text class="label" x="290.94257392987157" y="458.34048404840485" font-size="10px">1,2x</text><text class="label" x="371.8415524785936" y="471.541804180418" font-size="10px">1,93x</text><text class="label" x="268.93562716538963" y="484.74312431243123" font-size="10px">1x</text><text class="label" x="293.9544937980739" y="433.4378437843784" font-size="8px"></text><text class="label" x="281.8464088342432" y="446.6391639163916" font-size="8px"></text><text class="label" x="287.44257392987157" y="459.84048404840485" font-size="8px"></text><text class="label" x="368.3415524785936" y="473.041804180418" font-size="8px"></text><text class="label" x="265.43562716538963" y="486.24312431243123" font-size="8px"></text></g><g style="font-size: 13px;"><rect x="150" y="497.51191785845253" width="144.69195967956523" height="12.541254125412543" fill="#4472c4"></rect><rect x="150" y="510.7132379904657" width="125.67722591679744" height="12.541254125412543" fill="#ed7d31"></rect><rect x="150" y="523.9145581224789" width="135.85390675136225" height="12.541254125412543" fill="#a5a5a5"></rect><rect x="150" y="537.1158782544921" width="110.4356271653896" height="12.541254125412543" fill="#ffc000"></rect><rect x="150" y="550.3171983865053" width="111.27411281612649" height="12.541254125412543" fill="#5b9bd5"></rect><text class="label" x="303.19195967956523" y="506.01191785845253" font-size="10px">1,31x</text><text class="label" x="284.17722591679745" y="519.2132379904657" font-size="10px">1,14x</text><text class="label" x="294.3539067513623" y="532.4145581224789" font-size="10px">1,23x</text><text class="label" x="268.93562716538963" y="545.6158782544921" font-size="10px">1x</text><text class="label" x="269.7741128161265" y="558.8171983865053" font-size="10px">1,01x</text><text class="label" x="299.69195967956523" y="507.51191785845253" font-size="8px"></text><text class="label" x="280.67722591679745" y="520.7132379904657" font-size="8px"></text><text class="label" x="290.8539067513623" y="533.9145581224789" font-size="8px"></text><text class="label" x="265.43562716538963" y="547.1158782544921" font-size="8px"></text><text class="label" x="266.2741128161265" y="560.3171983865053" font-size="8px"></text></g><g style="font-size: 13px;"><rect x="150" y="571.5859919325266" width="123.71041601312392" height="12.541254125412543" fill="#4472c4"></rect><rect x="150" y="584.7873120645397" width="110.4356271653896" height="12.541254125412543" fill="#ed7d31"></rect><rect x="150" y="597.9886321965529" width="113.87648151406648" height="12.541254125412543" fill="#a5a5a5"></rect><rect x="150" y="611.1899523285662" width="147.34468472426337" height="12.541254125412543" fill="#ffc000"></rect><rect x="150" y="624.3912724605793" width="159.59400781797066" height="12.541254125412543" fill="#5b9bd5"></rect><text class="label" x="282.2104160131239" y="580.0859919325266" font-size="10px">1,12x</text><text class="label" x="268.93562716538963" y="593.2873120645397" font-size="10px">1x</text><text class="label" x="272.3764815140665" y="606.4886321965529" font-size="10px">1,03x</text><text class="label" x="305.8446847242634" y="619.6899523285662" font-size="10px">1,33x</text><text class="label" x="318.0940078179707" y="632.8912724605793" font-size="10px">1,45x</text><text class="label" x="278.7104160131239" y="581.5859919325266" font-size="8px"></text><text class="label" x="265.43562716538963" y="594.7873120645397" font-size="8px"></text><text class="label" x="268.8764815140665" y="607.9886321965529" font-size="8px"></text><text class="label" x="302.3446847242634" y="621.1899523285662" font-size="8px"></text><text class="label" x="314.5940078179707" y="634.3912724605793" font-size="8px"></text></g></g></svg>