<svg xmlns="http://www.w3.org/2000/svg" xmlns:xlink="http://www.w3.org/1999/xlink" width="800" height="1004" style="background-color: white;"><g class="y axis" transform="translate(149,45)" fill="none" font-size="10" font-family="sans-serif" text-anchor="end" style="font-size: 13px;"><path class="domain" stroke="currentColor" d="M0.5,0.5V810.5"></path><g class="tick" opacity="1" transform="translate(0,48.95604395604397)" style="font-size: 13px;"><line stroke="currentColor" x2="0"></line><text fill="currentColor" x="-3" dy="0.32em">object (simple)    </text></g><g class="tick" opacity="1" transform="translate(0,137.967032967033)" style="font-size: 13px;"><line stroke="currentColor" x2="0"></line><text fill="currentColor" x="-3" dy="0.32em">object (hierarchical)    </text></g><g class="tick" opacity="1" transform="translate(0,226.97802197802199)" style="font-size: 13px;"><line stroke="currentColor" x2="0"></line><text fill="currentColor" x="-3" dy="0.32em">object (recursive)    </text></g><g class="tick" opacity="1" transform="translate(0,315.989010989011)" style="font-size: 13px;"><line stroke="currentColor" x2="0"></line><text fill="currentColor" x="-3" dy="0.32em">object (union, explicit)    </text></g><g class="tick" opacity="1" transform="translate(0,405)" style="font-size: 13px;"><line stroke="currentColor" x2="0"></line><text fill="currentColor" x="-3" dy="0.32em">object (union, implicit)    </text></g><g class="tick" opacity="1" transform="translate(0,494.010989010989)" style="font-size: 13px;"><line stroke="currentColor" x2="0"></line><text fill="currentColor" x="-3" dy="0.32em">array (recursive)    </text></g><g class="tick" opacity="1" transform="translate(0,583.021978021978)" style="font-size: 13px;"><line stroke="currentColor" x2="0"></line><text fill="currentColor" x="-3" dy="0.32em">array (union, explicit)    </text></g><g class="tick" opacity="1" transform="translate(0,672.0329670329671)" style="font-size: 13px;"><line stroke="currentColor" x2="0"></line><text fill="currentColor" x="-3" dy="0.32em">array (union, implicit)    </text></g><g class="tick" opacity="1" transform="translate(0,761.043956043956)" style="font-size: 13px;"><line stroke="currentColor" x2="0"></line><text fill="currentColor" x="-3" dy="0.32em">ultimate union    </text></g></g><g class="x axis" transform="translate(149,855)" fill="none" font-size="10" font-family="sans-serif" text-anchor="middle" style="font-size: 13px;"><path class="domain" stroke="currentColor" d="M0.5,0.5H485.5"></path><g class="tick" opacity="1" transform="translate(0.5,0)" style="font-size: 13px;"><line stroke="currentColor" y2="6"></line><text fill="currentColor" y="9" dy="0.71em">0x</text></g><g class="tick" opacity="1" transform="translate(114.35657718514298,0)" style="font-size: 13px;"><line stroke="currentColor" y2="6"></line><text fill="currentColor" y="9" dy="0.71em">5,000x</text></g><g class="tick" opacity="1" transform="translate(228.21315437028596,0)" style="font-size: 13px;"><line stroke="currentColor" y2="6"></line><text fill="currentColor" y="9" dy="0.71em">10,000x</text></g><g class="tick" opacity="1" transform="translate(342.069731555429,0)" style="font-size: 13px;"><line stroke="currentColor" y2="6"></line><text fill="currentColor" y="9" dy="0.71em">15,000x</text></g><g class="tick" opacity="1" transform="translate(455.9263087405719,0)" style="font-size: 13px;"><line stroke="currentColor" y2="6"></line><text fill="currentColor" y="9" dy="0.71em">20,000x</text></g></g><text transform="translate(400, 30)" style="text-anchor: middle; font-size: 20px; font-weight: bold;">is benchmark</text><rect x="650" y="165" width="230" height="5" fill="gray"></rect><rect x="645" y="35" width="230" height="130" fill="none" stroke="black"></rect><rect x="655" y="45" width="10" height="10" style="fill: #4472c4;"></rect><text x="670" y="55" style="font-size: 12px;">typia</text><rect x="655" y="65" width="10" height="10" style="fill: #ed7d31;"></rect><text x="670" y="75" style="font-size: 12px;">typebox</text><rect x="655" y="85" width="10" height="10" style="fill: #a5a5a5;"></rect><text x="670" y="95" style="font-size: 12px;">ajv</text><rect x="655" y="105" width="10" height="10" style="fill: #ffc000;"></rect><text x="670" y="115" style="font-size: 12px;">io-ts</text><rect x="655" y="125" width="10" height="10" style="fill: #5b9bd5;"></rect><text x="670" y="135" style="font-size: 12px;">zod</text><rect x="655" y="145" width="10" height="10" style="fill: #70ad47;"></rect><text x="670" y="155" style="font-size: 12px;">class-validator</text><text x="20" y="919" style="font-size: 12px;">  - CPU: AMD Ryzen 7 6800HS with Radeon Graphics</text><text x="20" y="936" style="font-size: 12px;">  - OS: win32</text><text x="20" y="953" style="font-size: 12px;">  - RAM: 63 GB</text><text x="20" y="970" style="font-size: 12px;">  - NodeJS version: v16.20.1</text><text x="20" y="987" style="font-size: 12px;">  - Typia version: v4.1.8</text><g style="font-size: 13px;"><g style="font-size: 13px;"><rect x="150" y="54.563164108618665" width="440.9090909090909" height="12.579238942875305" fill="#4472c4"></rect><rect x="150" y="67.80446825901373" width="436.33000398088564" height="12.579238942875305" fill="#ed7d31"></rect><rect x="150" y="81.04577240940878" width="16.06546657709571" height="12.579238942875305" fill="#a5a5a5"></rect><rect x="150" y="94.28707655980384" width="1.5682264231685028" height="12.579238942875305" fill="#ffc000"></rect><rect x="150" y="107.5283807101989" width="0.20994111003799523" height="12.579238942875305" fill="#5b9bd5"></rect><rect x="150" y="120.76968486059396" width="0.022771315437028598" height="12.579238942875305" fill="#70ad47"></rect><text class="label" x="599.4090909090909" y="63.063164108618665" font-size="10px">19,362x</text><text class="label" x="594.8300039808856" y="76.30446825901373" font-size="10px">19,161x</text><text class="label" x="174.56546657709572" y="89.54577240940878" font-size="10px">706x</text><text class="label" x="160.0682264231685" y="102.78707655980384" font-size="10px">69x</text><text class="label" x="158.709941110038" y="116.0283807101989" font-size="10px">9x</text><text class="label" x="158.52277131543704" y="129.26968486059394" font-size="10px">1x</text><text class="label" x="595.9090909090909" y="64.56316410861866" font-size="8px"></text><text class="label" x="591.3300039808856" y="77.80446825901373" font-size="8px"></text><text class="label" x="171.06546657709572" y="91.04577240940878" font-size="8px"></text><text class="label" x="156.5682264231685" y="104.28707655980384" font-size="8px"></text><text class="label" x="155.209941110038" y="117.5283807101989" font-size="8px"></text><text class="label" x="155.02277131543704" y="130.76968486059394" font-size="8px"></text></g><g style="font-size: 13px;"><rect x="150" y="143.57415311960767" width="49.1455386936145" height="12.579238942875305" fill="#4472c4"></rect><rect x="150" y="156.81545727000272" width="52.313710591493425" height="12.579238942875305" fill="#ed7d31"></rect><rect x="150" y="170.05676142039778" width="12.13636913242116" height="12.579238942875305" fill="#a5a5a5"></rect><rect x="150" y="183.29806557079286" width="1.5219974731524493" height="12.579238942875305" fill="#ffc000"></rect><rect x="150" y="196.5393697211879" width="0.0866800653787692" height="12.579238942875305" fill="#5b9bd5"></rect><rect x="150" y="209.78067387158296" width="0.022771315437028598" height="12.579238942875305" fill="#70ad47"></rect><text class="label" x="207.6455386936145" y="152.07415311960767" font-size="10px">2,158x</text><text class="label" x="210.81371059149342" y="165.31545727000272" font-size="10px">2,297x</text><text class="label" x="170.63636913242115" y="178.55676142039778" font-size="10px">533x</text><text class="label" x="160.02199747315245" y="191.79806557079286" font-size="10px">67x</text><text class="label" x="158.58668006537877" y="205.0393697211879" font-size="10px">4x</text><text class="label" x="158.52277131543704" y="218.28067387158296" font-size="10px">1x</text><text class="label" x="204.1455386936145" y="153.57415311960767" font-size="8px"></text><text class="label" x="207.31371059149342" y="166.81545727000272" font-size="8px"></text><text class="label" x="167.13636913242115" y="180.05676142039778" font-size="8px"></text><text class="label" x="156.52199747315245" y="193.29806557079286" font-size="8px"></text><text class="label" x="155.08668006537877" y="206.5393697211879" font-size="8px"></text><text class="label" x="155.02277131543704" y="219.78067387158296" font-size="8px"></text></g><g style="font-size: 13px;"><rect x="150" y="232.5851421305967" width="35.80796411093785" height="12.579238942875305" fill="#4472c4"></rect><rect x="150" y="245.82644628099175" width="40.1166627143311" height="12.579238942875305" fill="#ed7d31"></rect><rect x="150" y="259.0677504313868" width="8.049044657567636" height="12.579238942875305" fill="#a5a5a5"></rect><rect x="150" y="272.3090545817819" width="1.8353085434798397" height="12.579238942875305" fill="#ffc000"></rect><rect x="150" y="285.5503587321769" width="0.022771315437028598" height="12.579238942875305" fill="#5b9bd5"></rect><rect x="150" y="298.791662882572" width="0.027869654246356755" height="12.579238942875305" fill="#70ad47"></rect><text class="label" x="194.30796411093786" y="241.0851421305967" font-size="10px">1,573x</text><text class="label" x="198.61666271433108" y="254.32644628099175" font-size="10px">1,762x</text><text class="label" x="166.54904465756763" y="267.5677504313868" font-size="10px">353x</text><text class="label" x="160.33530854347984" y="280.8090545817819" font-size="10px">81x</text><text class="label" x="158.52277131543704" y="294.0503587321769" font-size="10px">1x</text><text class="label" x="158.52786965424636" y="307.291662882572" font-size="10px">1x</text><text class="label" x="190.80796411093786" y="242.5851421305967" font-size="8px"></text><text class="label" x="195.11666271433108" y="255.82644628099175" font-size="8px"></text><text class="label" x="163.04904465756763" y="269.0677504313868" font-size="8px"></text><text class="label" x="156.83530854347984" y="282.3090545817819" font-size="8px"></text><text class="label" x="155.02277131543704" y="295.5503587321769" font-size="8px"></text><text class="label" x="155.02786965424636" y="308.791662882572" font-size="8px"></text></g><g style="font-size: 13px;"><rect x="150" y="321.59613114158566" width="13.835458107387387" height="12.579238942875305" fill="#4472c4"></rect><rect x="150" y="334.83743529198074" width="9.466033156220757" height="12.579238942875305" fill="#ed7d31"></rect><rect x="150" y="348.07873944237576" width="0.7863999062132219" height="12.579238942875305" fill="#a5a5a5"></rect><rect x="150" y="361.32004359277084" width="2.1028065787969887" height="12.579238942875305" fill="#ffc000"></rect><rect x="150" y="374.5613477431659" width="0.022771315437028598" height="12.579238942875305" fill="#5b9bd5"></rect><rect x="150" y="387.80265189356095" width="0" height="12.579238942875305" fill="#70ad47"></rect><text class="label" x="172.33545810738738" y="330.09613114158566" font-size="10px">608x</text><text class="label" x="167.96603315622076" y="343.33743529198074" font-size="10px">416x</text><text class="label" x="159.28639990621323" y="356.57873944237576" font-size="10px">35x</text><text class="label" x="160.602806578797" y="369.82004359277084" font-size="10px">92x</text><text class="label" x="158.52277131543704" y="383.0613477431659" font-size="10px">1x</text><text class="label" x="158.5" y="396.30265189356095" font-size="10px"></text><text class="label" x="168.83545810738738" y="331.59613114158566" font-size="8px"></text><text class="label" x="164.46603315622076" y="344.83743529198074" font-size="8px"></text><text class="label" x="155.78639990621323" y="358.07873944237576" font-size="8px"></text><text class="label" x="157.102806578797" y="371.32004359277084" font-size="8px"></text><text class="label" x="155.02277131543704" y="384.5613477431659" font-size="8px"></text><text class="label" x="155" y="397.80265189356095" font-size="8px">Failed</text></g><g style="font-size: 13px;"><rect x="150" y="410.6071201525747" width="485" height="12.579238942875305" fill="#4472c4"></rect><rect x="150" y="423.84842430296976" width="0" height="12.579238942875305" fill="#ed7d31"></rect><rect x="150" y="437.08972845336484" width="0" height="12.579238942875305" fill="#a5a5a5"></rect><rect x="150" y="450.33103260375987" width="0" height="12.579238942875305" fill="#ffc000"></rect><rect x="150" y="463.57233675415495" width="0" height="12.579238942875305" fill="#5b9bd5"></rect><rect x="150" y="476.81364090454997" width="0" height="12.579238942875305" fill="#70ad47"></rect><text class="label" x="643.5" y="419.1071201525747" font-size="10px">Infinity</text><text class="label" x="158.5" y="432.34842430296976" font-size="10px"></text><text class="label" x="158.5" y="445.58972845336484" font-size="10px"></text><text class="label" x="158.5" y="458.83103260375987" font-size="10px"></text><text class="label" x="158.5" y="472.07233675415495" font-size="10px"></text><text class="label" x="158.5" y="485.31364090454997" font-size="10px"></text><text class="label" x="640" y="420.6071201525747" font-size="8px"></text><text class="label" x="155" y="433.84842430296976" font-size="8px">Failed</text><text class="label" x="155" y="447.08972845336484" font-size="8px">Failed</text><text class="label" x="155" y="460.33103260375987" font-size="8px">Failed</text><text class="label" x="155" y="473.57233675415495" font-size="8px">Failed</text><text class="label" x="155" y="486.81364090454997" font-size="8px">Failed</text></g><g style="font-size: 13px;"><rect x="150" y="499.6181091635637" width="22.373117273134323" height="12.579238942875305" fill="#4472c4"></rect><rect x="150" y="512.8594133139588" width="25.601517154529244" height="12.579238942875305" fill="#ed7d31"></rect><rect x="150" y="526.1007174643538" width="6.637946510607497" height="12.579238942875305" fill="#a5a5a5"></rect><rect x="150" y="539.3420216147489" width="1.6628376293581137" height="12.579238942875305" fill="#ffc000"></rect><rect x="150" y="552.583325765144" width="0.02571113354906404" height="12.579238942875305" fill="#5b9bd5"></rect><rect x="150" y="565.824629915539" width="0.022771315437028598" height="12.579238942875305" fill="#70ad47"></rect><text class="label" x="180.8731172731343" y="508.1181091635637" font-size="10px">983x</text><text class="label" x="184.10151715452923" y="521.3594133139588" font-size="10px">1,124x</text><text class="label" x="165.1379465106075" y="534.6007174643538" font-size="10px">292x</text><text class="label" x="160.1628376293581" y="547.8420216147489" font-size="10px">73x</text><text class="label" x="158.52571113354907" y="561.083325765144" font-size="10px">1x</text><text class="label" x="158.52277131543704" y="574.324629915539" font-size="10px">1x</text><text class="label" x="177.3731172731343" y="509.6181091635637" font-size="8px"></text><text class="label" x="180.60151715452923" y="522.8594133139588" font-size="8px"></text><text class="label" x="161.6379465106075" y="536.1007174643538" font-size="8px"></text><text class="label" x="156.6628376293581" y="549.3420216147489" font-size="8px"></text><text class="label" x="155.02571113354907" y="562.583325765144" font-size="8px"></text><text class="label" x="155.02277131543704" y="575.824629915539" font-size="8px"></text></g><g style="font-size: 13px;"><rect x="150" y="588.6290981745527" width="25.09746180884131" height="12.579238942875305" fill="#4472c4"></rect><rect x="150" y="601.8704023249478" width="16.397225324307193" height="12.579238942875305" fill="#ed7d31"></rect><rect x="150" y="615.1117064753429" width="2.8855608458443" height="12.579238942875305" fill="#a5a5a5"></rect><rect x="150" y="628.353010625738" width="2.9995163659796633" height="12.579238942875305" fill="#ffc000"></rect><rect x="150" y="641.5943147761329" width="0.022771315437028598" height="12.579238942875305" fill="#5b9bd5"></rect><rect x="150" y="654.835618926528" width="0" height="12.579238942875305" fill="#70ad47"></rect><text class="label" x="183.5974618088413" y="597.1290981745527" font-size="10px">1,102x</text><text class="label" x="174.8972253243072" y="610.3704023249478" font-size="10px">720x</text><text class="label" x="161.3855608458443" y="623.6117064753429" font-size="10px">127x</text><text class="label" x="161.49951636597967" y="636.853010625738" font-size="10px">132x</text><text class="label" x="158.52277131543704" y="650.0943147761329" font-size="10px">1x</text><text class="label" x="158.5" y="663.335618926528" font-size="10px"></text><text class="label" x="180.0974618088413" y="598.6290981745527" font-size="8px"></text><text class="label" x="171.3972253243072" y="611.8704023249478" font-size="8px"></text><text class="label" x="157.8855608458443" y="625.1117064753429" font-size="8px"></text><text class="label" x="157.99951636597967" y="638.353010625738" font-size="8px"></text><text class="label" x="155.02277131543704" y="651.5943147761329" font-size="8px"></text><text class="label" x="155" y="664.835618926528" font-size="8px">Failed</text></g><g style="font-size: 13px;"><rect x="150" y="677.6400871855418" width="485" height="12.579238942875305" fill="#4472c4"></rect><rect x="150" y="690.8813913359369" width="0" height="12.579238942875305" fill="#ed7d31"></rect><rect x="150" y="704.122695486332" width="0" height="12.579238942875305" fill="#a5a5a5"></rect><rect x="150" y="717.363999636727" width="0" height="12.579238942875305" fill="#ffc000"></rect><rect x="150" y="730.605303787122" width="0" height="12.579238942875305" fill="#5b9bd5"></rect><rect x="150" y="743.8466079375171" width="0" height="12.579238942875305" fill="#70ad47"></rect><text class="label" x="643.5" y="686.1400871855418" font-size="10px">Infinity</text><text class="label" x="158.5" y="699.3813913359369" font-size="10px"></text><text class="label" x="158.5" y="712.622695486332" font-size="10px"></text><text class="label" x="158.5" y="725.863999636727" font-size="10px"></text><text class="label" x="158.5" y="739.105303787122" font-size="10px"></text><text class="label" x="158.5" y="752.3466079375171" font-size="10px"></text><text class="label" x="640" y="687.6400871855418" font-size="8px"></text><text class="label" x="155" y="700.8813913359369" font-size="8px">Failed</text><text class="label" x="155" y="714.122695486332" font-size="8px">Failed</text><text class="label" x="155" y="727.363999636727" font-size="8px">Failed</text><text class="label" x="155" y="740.605303787122" font-size="8px">Failed</text><text class="label" x="155" y="753.8466079375171" font-size="8px">Failed</text></g><g style="font-size: 13px;"><rect x="150" y="766.6510761965307" width="485" height="12.579238942875305" fill="#4472c4"></rect><rect x="150" y="779.8923803469257" width="0" height="12.579238942875305" fill="#ed7d31"></rect><rect x="150" y="793.1336844973208" width="0" height="12.579238942875305" fill="#a5a5a5"></rect><rect x="150" y="806.3749886477159" width="0" height="12.579238942875305" fill="#ffc000"></rect><rect x="150" y="819.6162927981109" width="0" height="12.579238942875305" fill="#5b9bd5"></rect><rect x="150" y="832.8575969485059" width="0" height="12.579238942875305" fill="#70ad47"></rect><text class="label" x="643.5" y="775.1510761965307" font-size="10px">Infinity</text><text class="label" x="158.5" y="788.3923803469257" font-size="10px"></text><text class="label" x="158.5" y="801.6336844973208" font-size="10px"></text><text class="label" x="158.5" y="814.8749886477159" font-size="10px"></text><text class="label" x="158.5" y="828.1162927981109" font-size="10px"></text><text class="label" x="158.5" y="841.3575969485059" font-size="10px"></text><text class="label" x="640" y="776.6510761965307" font-size="8px"></text><text class="label" x="155" y="789.8923803469257" font-size="8px">Failed</text><text class="label" x="155" y="803.1336844973208" font-size="8px">Failed</text><text class="label" x="155" y="816.3749886477159" font-size="8px">Failed</text><text class="label" x="155" y="829.6162927981109" font-size="8px">Failed</text><text class="label" x="155" y="842.8575969485059" font-size="8px">Failed</text></g></g></svg>