<svg xmlns="http://www.w3.org/2000/svg" xmlns:xlink="http://www.w3.org/1999/xlink" width="800" height="885" style="background-color: white;"><g class="y axis" transform="translate(149,45)" fill="none" font-size="10" font-family="sans-serif" text-anchor="end" style="font-size: 13px;"><path class="domain" stroke="currentColor" d="M0.5,0.5V810.5"></path><g class="tick" opacity="1" transform="translate(0,48.95604395604397)" style="font-size: 13px;"><line stroke="currentColor" x2="0"></line><text fill="currentColor" x="-3" dy="0.32em">object (simple)    </text></g><g class="tick" opacity="1" transform="translate(0,137.967032967033)" style="font-size: 13px;"><line stroke="currentColor" x2="0"></line><text fill="currentColor" x="-3" dy="0.32em">object (hierarchical)    </text></g><g class="tick" opacity="1" transform="translate(0,226.97802197802199)" style="font-size: 13px;"><line stroke="currentColor" x2="0"></line><text fill="currentColor" x="-3" dy="0.32em">object (recursive)    </text></g><g class="tick" opacity="1" transform="translate(0,315.989010989011)" style="font-size: 13px;"><line stroke="currentColor" x2="0"></line><text fill="currentColor" x="-3" dy="0.32em">object (union, explicit)    </text></g><g class="tick" opacity="1" transform="translate(0,405)" style="font-size: 13px;"><line stroke="currentColor" x2="0"></line><text fill="currentColor" x="-3" dy="0.32em">object (union, implicit)    </text></g><g class="tick" opacity="1" transform="translate(0,494.010989010989)" style="font-size: 13px;"><line stroke="currentColor" x2="0"></line><text fill="currentColor" x="-3" dy="0.32em">array (recursive)    </text></g><g class="tick" opacity="1" transform="translate(0,583.021978021978)" style="font-size: 13px;"><line stroke="currentColor" x2="0"></line><text fill="currentColor" x="-3" dy="0.32em">array (union, explicit)    </text></g><g class="tick" opacity="1" transform="translate(0,672.0329670329671)" style="font-size: 13px;"><line stroke="currentColor" x2="0"></line><text fill="currentColor" x="-3" dy="0.32em">array (union, implicit)    </text></g><g class="tick" opacity="1" transform="translate(0,761.043956043956)" style="font-size: 13px;"><line stroke="currentColor" x2="0"></line><text fill="currentColor" x="-3" dy="0.32em">ultimate union    </text></g></g><g class="x axis" transform="translate(149,855)" fill="none" font-size="10" font-family="sans-serif" text-anchor="middle" style="font-size: 13px;"><path class="domain" stroke="currentColor" d="M0.5,0.5H485.5"></path><g class="tick" opacity="1" transform="translate(0.5,0)" style="font-size: 13px;"><line stroke="currentColor" y2="6"></line><text fill="currentColor" y="9" dy="0.71em">0x</text></g><g class="tick" opacity="1" transform="translate(145.28356665356173,0)" style="font-size: 13px;"><line stroke="currentColor" y2="6"></line><text fill="currentColor" y="9" dy="0.71em">5,000x</text></g><g class="tick" opacity="1" transform="translate(290.06713330712347,0)" style="font-size: 13px;"><line stroke="currentColor" y2="6"></line><text fill="currentColor" y="9" dy="0.71em">10,000x</text></g><g class="tick" opacity="1" transform="translate(434.8506999606852,0)" style="font-size: 13px;"><line stroke="currentColor" y2="6"></line><text fill="currentColor" y="9" dy="0.71em">15,000x</text></g></g><text transform="translate(400, 30)" style="text-anchor: middle; font-size: 20px; font-weight: bold;">is benchmark</text><rect x="680" y="165" width="200" height="5" fill="gray"></rect><rect x="675" y="35" width="200" height="130" fill="none" stroke="black"></rect><rect x="685" y="45" width="10" height="10" style="fill: #4472c4;"></rect><text x="700" y="55" style="font-size: 12px;">typia</text><rect x="685" y="65" width="10" height="10" style="fill: #ed7d31;"></rect><text x="700" y="75" style="font-size: 12px;">typebox</text><rect x="685" y="85" width="10" height="10" style="fill: #a5a5a5;"></rect><text x="700" y="95" style="font-size: 12px;">ajv</text><rect x="685" y="105" width="10" height="10" style="fill: #ffc000;"></rect><text x="700" y="115" style="font-size: 12px;">io-ts</text><rect x="685" y="125" width="10" height="10" style="fill: #5b9bd5;"></rect><text x="700" y="135" style="font-size: 12px;">zod</text><rect x="685" y="145" width="10" height="10" style="fill: #70ad47;"></rect><text x="700" y="155" style="font-size: 12px;">class-validator</text><g style="font-size: 13px;"><g style="font-size: 13px;"><rect x="150" y="54.563164108618665" width="440.9090909090908" height="12.579238942875305" fill="#4472c4"></rect><rect x="150" y="67.80446825901373" width="71.71965169541392" height="12.579238942875305" fill="#ed7d31"></rect><rect x="150" y="81.04577240940878" width="105.2020574851555" height="12.579238942875305" fill="#a5a5a5"></rect><rect x="150" y="94.28707655980384" width="6.655094978178748" height="12.579238942875305" fill="#ffc000"></rect><rect x="150" y="107.5283807101989" width="0.8368135853126271" height="12.579238942875305" fill="#5b9bd5"></rect><rect x="150" y="120.76968486059396" width="0.028956713330712345" height="12.579238942875305" fill="#70ad47"></rect><text class="label" x="599.4090909090908" y="63.063164108618665" font-size="10px">15,226x</text><text class="label" x="230.21965169541392" y="76.30446825901373" font-size="10px">2,477x</text><text class="label" x="263.7020574851555" y="89.54577240940878" font-size="10px">3,633x</text><text class="label" x="165.15509497817874" y="102.78707655980384" font-size="10px">230x</text><text class="label" x="159.33681358531263" y="116.0283807101989" font-size="10px">29x</text><text class="label" x="158.5289567133307" y="129.26968486059394" font-size="10px">1x</text><text class="label" x="595.9090909090908" y="64.56316410861866" font-size="8px"></text><text class="label" x="226.71965169541392" y="77.80446825901373" font-size="8px"></text><text class="label" x="260.2020574851555" y="91.04577240940878" font-size="8px"></text><text class="label" x="161.65509497817874" y="104.28707655980384" font-size="8px"></text><text class="label" x="155.83681358531263" y="117.5283807101989" font-size="8px"></text><text class="label" x="155.0289567133307" y="130.76968486059394" font-size="8px"></text></g><g style="font-size: 13px;"><rect x="150" y="143.57415311960767" width="148.15779909300258" height="12.579238942875305" fill="#4472c4"></rect><rect x="150" y="156.81545727000272" width="97.81874415238526" height="12.579238942875305" fill="#ed7d31"></rect><rect x="150" y="170.05676142039778" width="37.63135183324749" height="12.579238942875305" fill="#a5a5a5"></rect><rect x="150" y="183.29806557079286" width="6.903443231883853" height="12.579238942875305" fill="#ffc000"></rect><rect x="150" y="196.5393697211879" width="0.33099414732131766" height="12.579238942875305" fill="#5b9bd5"></rect><rect x="150" y="209.78067387158296" width="0.028956713330712345" height="12.579238942875305" fill="#70ad47"></rect><text class="label" x="306.6577990930026" y="152.07415311960767" font-size="10px">5,117x</text><text class="label" x="256.31874415238525" y="165.31545727000272" font-size="10px">3,378x</text><text class="label" x="196.1313518332475" y="178.55676142039778" font-size="10px">1,300x</text><text class="label" x="165.40344323188384" y="191.79806557079286" font-size="10px">238x</text><text class="label" x="158.83099414732132" y="205.0393697211879" font-size="10px">11x</text><text class="label" x="158.5289567133307" y="218.28067387158296" font-size="10px">1x</text><text class="label" x="303.1577990930026" y="153.57415311960767" font-size="8px"></text><text class="label" x="252.81874415238525" y="166.81545727000272" font-size="8px"></text><text class="label" x="192.6313518332475" y="180.05676142039778" font-size="8px"></text><text class="label" x="161.90344323188384" y="193.29806557079286" font-size="8px"></text><text class="label" x="155.33099414732132" y="206.5393697211879" font-size="8px"></text><text class="label" x="155.0289567133307" y="219.78067387158296" font-size="8px"></text></g><g style="font-size: 13px;"><rect x="150" y="232.5851421305967" width="119.02070614265152" height="12.579238942875305" fill="#4472c4"></rect><rect x="150" y="245.82644628099175" width="85.61753266687727" height="12.579238942875305" fill="#ed7d31"></rect><rect x="150" y="259.0677504313868" width="45.41037051240251" height="12.579238942875305" fill="#a5a5a5"></rect><rect x="150" y="272.3090545817819" width="5.943404448583976" height="12.579238942875305" fill="#ffc000"></rect><rect x="150" y="285.5503587321769" width="0.08400929195371384" height="12.579238942875305" fill="#5b9bd5"></rect><rect x="150" y="298.791662882572" width="0.028956713330712345" height="12.579238942875305" fill="#70ad47"></rect><text class="label" x="277.52070614265153" y="241.0851421305967" font-size="10px">4,110x</text><text class="label" x="244.11753266687725" y="254.32644628099175" font-size="10px">2,957x</text><text class="label" x="203.9103705124025" y="267.5677504313868" font-size="10px">1,568x</text><text class="label" x="164.44340444858398" y="280.8090545817819" font-size="10px">205x</text><text class="label" x="158.58400929195372" y="294.0503587321769" font-size="10px">3x</text><text class="label" x="158.5289567133307" y="307.291662882572" font-size="10px">1x</text><text class="label" x="274.02070614265153" y="242.5851421305967" font-size="8px"></text><text class="label" x="240.61753266687725" y="255.82644628099175" font-size="8px"></text><text class="label" x="200.4103705124025" y="269.0677504313868" font-size="8px"></text><text class="label" x="160.94340444858398" y="282.3090545817819" font-size="8px"></text><text class="label" x="155.08400929195372" y="295.5503587321769" font-size="8px"></text><text class="label" x="155.0289567133307" y="308.791662882572" font-size="8px"></text></g><g style="font-size: 13px;"><rect x="150" y="321.59613114158566" width="18.20890542808535" height="12.579238942875305" fill="#4472c4"></rect><rect x="150" y="334.83743529198074" width="8.897157004528017" height="12.579238942875305" fill="#ed7d31"></rect><rect x="150" y="348.07873944237576" width="7.055610927487994" height="12.579238942875305" fill="#a5a5a5"></rect><rect x="150" y="361.32004359277084" width="2.6871976162236124" height="12.579238942875305" fill="#ffc000"></rect><rect x="150" y="374.5613477431659" width="0.028956713330712345" height="12.579238942875305" fill="#5b9bd5"></rect><rect x="150" y="387.80265189356095" width="0.06569979396804546" height="12.579238942875305" fill="#70ad47"></rect><text class="label" x="176.70890542808536" y="330.09613114158566" font-size="10px">629x</text><text class="label" x="167.39715700452803" y="343.33743529198074" font-size="10px">307x</text><text class="label" x="165.555610927488" y="356.57873944237576" font-size="10px">244x</text><text class="label" x="161.1871976162236" y="369.82004359277084" font-size="10px">93x</text><text class="label" x="158.5289567133307" y="383.0613477431659" font-size="10px">1x</text><text class="label" x="158.56569979396804" y="396.30265189356095" font-size="10px">2x</text><text class="label" x="173.20890542808536" y="331.59613114158566" font-size="8px"></text><text class="label" x="163.89715700452803" y="344.83743529198074" font-size="8px"></text><text class="label" x="162.055610927488" y="358.07873944237576" font-size="8px"></text><text class="label" x="157.6871976162236" y="371.32004359277084" font-size="8px"></text><text class="label" x="155.0289567133307" y="384.5613477431659" font-size="8px"></text><text class="label" x="155.06569979396804" y="397.80265189356095" font-size="8px"></text></g><g style="font-size: 13px;"><rect x="150" y="410.6071201525747" width="485" height="12.579238942875305" fill="#4472c4"></rect><rect x="150" y="423.84842430296976" width="0" height="12.579238942875305" fill="#ed7d31"></rect><rect x="150" y="437.08972845336484" width="0" height="12.579238942875305" fill="#a5a5a5"></rect><rect x="150" y="450.33103260375987" width="0" height="12.579238942875305" fill="#ffc000"></rect><rect x="150" y="463.57233675415495" width="0" height="12.579238942875305" fill="#5b9bd5"></rect><rect x="150" y="476.81364090454997" width="0" height="12.579238942875305" fill="#70ad47"></rect><text class="label" x="643.5" y="419.1071201525747" font-size="10px">Infinity</text><text class="label" x="158.5" y="432.34842430296976" font-size="10px"></text><text class="label" x="158.5" y="445.58972845336484" font-size="10px"></text><text class="label" x="158.5" y="458.83103260375987" font-size="10px"></text><text class="label" x="158.5" y="472.07233675415495" font-size="10px"></text><text class="label" x="158.5" y="485.31364090454997" font-size="10px"></text><text class="label" x="640" y="420.6071201525747" font-size="8px"></text><text class="label" x="155" y="433.84842430296976" font-size="8px">Failed</text><text class="label" x="155" y="447.08972845336484" font-size="8px">Failed</text><text class="label" x="155" y="460.33103260375987" font-size="8px">Failed</text><text class="label" x="155" y="473.57233675415495" font-size="8px">Failed</text><text class="label" x="155" y="486.81364090454997" font-size="8px">Failed</text></g><g style="font-size: 13px;"><rect x="150" y="499.6181091635637" width="98.31143995717737" height="12.579238942875305" fill="#4472c4"></rect><rect x="150" y="512.8594133139588" width="78.76840668079805" height="12.579238942875305" fill="#ed7d31"></rect><rect x="150" y="526.1007174643538" width="26.451287677939987" height="12.579238942875305" fill="#a5a5a5"></rect><rect x="150" y="539.3420216147489" width="5.4925193912091155" height="12.579238942875305" fill="#ffc000"></rect><rect x="150" y="552.583325765144" width="0.10301301339536312" height="12.579238942875305" fill="#5b9bd5"></rect><rect x="150" y="565.824629915539" width="0.028956713330712345" height="12.579238942875305" fill="#70ad47"></rect><text class="label" x="256.81143995717736" y="508.1181091635637" font-size="10px">3,395x</text><text class="label" x="237.26840668079805" y="521.3594133139588" font-size="10px">2,720x</text><text class="label" x="184.95128767794" y="534.6007174643538" font-size="10px">913x</text><text class="label" x="163.99251939120913" y="547.8420216147489" font-size="10px">190x</text><text class="label" x="158.60301301339535" y="561.083325765144" font-size="10px">4x</text><text class="label" x="158.5289567133307" y="574.324629915539" font-size="10px">1x</text><text class="label" x="253.31143995717736" y="509.6181091635637" font-size="8px"></text><text class="label" x="233.76840668079805" y="522.8594133139588" font-size="8px"></text><text class="label" x="181.45128767794" y="536.1007174643538" font-size="8px"></text><text class="label" x="160.49251939120913" y="549.3420216147489" font-size="8px"></text><text class="label" x="155.10301301339535" y="562.583325765144" font-size="8px"></text><text class="label" x="155.0289567133307" y="575.824629915539" font-size="8px"></text></g><g style="font-size: 13px;"><rect x="150" y="588.6290981745527" width="38.81251516936728" height="12.579238942875305" fill="#4472c4"></rect><rect x="150" y="601.8704023249478" width="13.695832112380497" height="12.579238942875305" fill="#ed7d31"></rect><rect x="150" y="615.1117064753429" width="8.080685346022065" height="12.579238942875305" fill="#a5a5a5"></rect><rect x="150" y="628.353010625738" width="3.6489665775333866" height="12.579238942875305" fill="#ffc000"></rect><rect x="150" y="641.5943147761329" width="0.028956713330712345" height="12.579238942875305" fill="#5b9bd5"></rect><rect x="150" y="654.835618926528" width="0.25457006120694986" height="12.579238942875305" fill="#70ad47"></rect><text class="label" x="197.3125151693673" y="597.1290981745527" font-size="10px">1,340x</text><text class="label" x="172.1958321123805" y="610.3704023249478" font-size="10px">473x</text><text class="label" x="166.58068534602205" y="623.6117064753429" font-size="10px">279x</text><text class="label" x="162.1489665775334" y="636.853010625738" font-size="10px">126x</text><text class="label" x="158.5289567133307" y="650.0943147761329" font-size="10px">1x</text><text class="label" x="158.75457006120695" y="663.335618926528" font-size="10px">9x</text><text class="label" x="193.8125151693673" y="598.6290981745527" font-size="8px"></text><text class="label" x="168.6958321123805" y="611.8704023249478" font-size="8px"></text><text class="label" x="163.08068534602205" y="625.1117064753429" font-size="8px"></text><text class="label" x="158.6489665775334" y="638.353010625738" font-size="8px"></text><text class="label" x="155.0289567133307" y="651.5943147761329" font-size="8px"></text><text class="label" x="155.25457006120695" y="664.835618926528" font-size="8px"></text></g><g style="font-size: 13px;"><rect x="150" y="677.6400871855418" width="485" height="12.579238942875305" fill="#4472c4"></rect><rect x="150" y="690.8813913359369" width="0" height="12.579238942875305" fill="#ed7d31"></rect><rect x="150" y="704.122695486332" width="0" height="12.579238942875305" fill="#a5a5a5"></rect><rect x="150" y="717.363999636727" width="0" height="12.579238942875305" fill="#ffc000"></rect><rect x="150" y="730.605303787122" width="0" height="12.579238942875305" fill="#5b9bd5"></rect><rect x="150" y="743.8466079375171" width="0" height="12.579238942875305" fill="#70ad47"></rect><text class="label" x="643.5" y="686.1400871855418" font-size="10px">Infinity</text><text class="label" x="158.5" y="699.3813913359369" font-size="10px"></text><text class="label" x="158.5" y="712.622695486332" font-size="10px"></text><text class="label" x="158.5" y="725.863999636727" font-size="10px"></text><text class="label" x="158.5" y="739.105303787122" font-size="10px"></text><text class="label" x="158.5" y="752.3466079375171" font-size="10px"></text><text class="label" x="640" y="687.6400871855418" font-size="8px"></text><text class="label" x="155" y="700.8813913359369" font-size="8px">Failed</text><text class="label" x="155" y="714.122695486332" font-size="8px">Failed</text><text class="label" x="155" y="727.363999636727" font-size="8px">Failed</text><text class="label" x="155" y="740.605303787122" font-size="8px">Failed</text><text class="label" x="155" y="753.8466079375171" font-size="8px">Failed</text></g><g style="font-size: 13px;"><rect x="150" y="766.6510761965307" width="485" height="12.579238942875305" fill="#4472c4"></rect><rect x="150" y="779.8923803469257" width="0" height="12.579238942875305" fill="#ed7d31"></rect><rect x="150" y="793.1336844973208" width="0" height="12.579238942875305" fill="#a5a5a5"></rect><rect x="150" y="806.3749886477159" width="0" height="12.579238942875305" fill="#ffc000"></rect><rect x="150" y="819.6162927981109" width="0" height="12.579238942875305" fill="#5b9bd5"></rect><rect x="150" y="832.8575969485059" width="0" height="12.579238942875305" fill="#70ad47"></rect><text class="label" x="643.5" y="775.1510761965307" font-size="10px">Infinity</text><text class="label" x="158.5" y="788.3923803469257" font-size="10px"></text><text class="label" x="158.5" y="801.6336844973208" font-size="10px"></text><text class="label" x="158.5" y="814.8749886477159" font-size="10px"></text><text class="label" x="158.5" y="828.1162927981109" font-size="10px"></text><text class="label" x="158.5" y="841.3575969485059" font-size="10px"></text><text class="label" x="640" y="776.6510761965307" font-size="8px"></text><text class="label" x="155" y="789.8923803469257" font-size="8px">Failed</text><text class="label" x="155" y="803.1336844973208" font-size="8px">Failed</text><text class="label" x="155" y="816.3749886477159" font-size="8px">Failed</text><text class="label" x="155" y="829.6162927981109" font-size="8px">Failed</text><text class="label" x="155" y="842.8575969485059" font-size="8px">Failed</text></g></g></svg>