<svg xmlns="http://www.w3.org/2000/svg" xmlns:xlink="http://www.w3.org/1999/xlink" width="800" height="390" style="background-color: white;"><g class="y axis" transform="translate(149,45)" fill="none" font-size="10" font-family="sans-serif" text-anchor="end" style="font-size: 13px;"><path class="domain" stroke="currentColor" d="M0.5,0.5V315.5"></path><g class="tick" opacity="1" transform="translate(0,24.40140845070425)" style="font-size: 13px;"><line stroke="currentColor" x2="0"></line><text fill="currentColor" x="-3" dy="0.32em">object (hierarchical)    </text></g><g class="tick" opacity="1" transform="translate(0,68.76760563380283)" style="font-size: 13px;"><line stroke="currentColor" x2="0"></line><text fill="currentColor" x="-3" dy="0.32em">object (recursive)    </text></g><g class="tick" opacity="1" transform="translate(0,113.13380281690142)" style="font-size: 13px;"><line stroke="currentColor" x2="0"></line><text fill="currentColor" x="-3" dy="0.32em">object (union)    </text></g><g class="tick" opacity="1" transform="translate(0,157.5)" style="font-size: 13px;"><line stroke="currentColor" x2="0"></line><text fill="currentColor" x="-3" dy="0.32em">array (hierarchical)    </text></g><g class="tick" opacity="1" transform="translate(0,201.8661971830986)" style="font-size: 13px;"><line stroke="currentColor" x2="0"></line><text fill="currentColor" x="-3" dy="0.32em">array (recursive)    </text></g><g class="tick" opacity="1" transform="translate(0,246.23239436619718)" style="font-size: 13px;"><line stroke="currentColor" x2="0"></line><text fill="currentColor" x="-3" dy="0.32em">array (recursive union)    </text></g><g class="tick" opacity="1" transform="translate(0,290.59859154929575)" style="font-size: 13px;"><line stroke="currentColor" x2="0"></line><text fill="currentColor" x="-3" dy="0.32em">ultimate union    </text></g></g><g class="x axis" transform="translate(149,360)" fill="none" font-size="10" font-family="sans-serif" text-anchor="middle" style="font-size: 13px;"><path class="domain" stroke="currentColor" d="M0.5,0.5H485.5"></path><g class="tick" opacity="1" transform="translate(0.5,0)" style="font-size: 13px;"><line stroke="currentColor" y2="6"></line><text fill="currentColor" y="9" dy="0.71em">0x</text></g><g class="tick" opacity="1" transform="translate(120.96274781084739,0)" style="font-size: 13px;"><line stroke="currentColor" y2="6"></line><text fill="currentColor" y="9" dy="0.71em">10,000x</text></g><g class="tick" opacity="1" transform="translate(241.42549562169478,0)" style="font-size: 13px;"><line stroke="currentColor" y2="6"></line><text fill="currentColor" y="9" dy="0.71em">20,000x</text></g><g class="tick" opacity="1" transform="translate(361.8882434325422,0)" style="font-size: 13px;"><line stroke="currentColor" y2="6"></line><text fill="currentColor" y="9" dy="0.71em">30,000x</text></g><g class="tick" opacity="1" transform="translate(482.35099124338956,0)" style="font-size: 13px;"><line stroke="currentColor" y2="6"></line><text fill="currentColor" y="9" dy="0.71em">40,000x</text></g></g><text transform="translate(400, 30)" style="text-anchor: middle; font-size: 20px; font-weight: bold;">optimizer benchmark</text><rect x="650" y="105" width="230" height="5" fill="gray"></rect><rect x="645" y="35" width="230" height="70" fill="none" stroke="black"></rect><rect x="655" y="45" width="10" height="10" style="fill: #4472c4;"></rect><text x="670" y="55" style="font-size: 12px;">typia</text><rect x="655" y="65" width="10" height="10" style="fill: #ed7d31;"></rect><text x="670" y="75" style="font-size: 12px;">typebox</text><rect x="655" y="85" width="10" height="10" style="fill: #a5a5a5;"></rect><text x="670" y="95" style="font-size: 12px;">ajv</text><g style="font-size: 13px;"><g style="font-size: 13px;"><rect x="150" y="50.091202955437566" width="440.9090909090909" height="12.437081505425995" fill="#4472c4"></rect><rect x="150" y="63.18286769799125" width="0.4152967228059278" height="12.437081505425995" fill="#ed7d31"></rect><rect x="150" y="76.27453244054493" width="0.01204627478108474" height="12.437081505425995" fill="#a5a5a5"></rect><text class="label" x="599.4090909090909" y="58.591202955437566" font-size="10px">36,601x</text><text class="label" x="158.91529672280592" y="71.68286769799124" font-size="10px">34x</text><text class="label" x="158.51204627478108" y="84.77453244054493" font-size="10px">1x</text><text class="label" x="595.9090909090909" y="60.091202955437566" font-size="8px"></text><text class="label" x="155.41529672280592" y="73.18286769799124" font-size="8px"></text><text class="label" x="155.01204627478108" y="86.27453244054493" font-size="8px"></text></g><g style="font-size: 13px;"><rect x="150" y="94.45740013853616" width="138.47616031816298" height="12.437081505425995" fill="#4472c4"></rect><rect x="150" y="107.54906488108983" width="0.9224458669994533" height="12.437081505425995" fill="#ed7d31"></rect><rect x="150" y="120.64072962364352" width="0.01204627478108474" height="12.437081505425995" fill="#a5a5a5"></rect><text class="label" x="296.976160318163" y="102.95740013853616" font-size="10px">11,495x</text><text class="label" x="159.42244586699945" y="116.04906488108983" font-size="10px">77x</text><text class="label" x="158.51204627478108" y="129.14072962364352" font-size="10px">1x</text><text class="label" x="293.476160318163" y="104.45740013853616" font-size="8px"></text><text class="label" x="155.92244586699945" y="117.54906488108983" font-size="8px"></text><text class="label" x="155.01204627478108" y="130.64072962364352" font-size="8px"></text></g><g style="font-size: 13px;"><rect x="150" y="138.82359732163474" width="43.28664429179957" height="12.437081505425995" fill="#4472c4"></rect><rect x="150" y="151.91526206418843" width="0.2538742667842774" height="12.437081505425995" fill="#ed7d31"></rect><rect x="150" y="165.00692680674211" width="0.01204627478108474" height="12.437081505425995" fill="#a5a5a5"></rect><text class="label" x="201.78664429179958" y="147.32359732163474" font-size="10px">3,593x</text><text class="label" x="158.75387426678427" y="160.41526206418843" font-size="10px">21x</text><text class="label" x="158.51204627478108" y="173.50692680674211" font-size="10px">1x</text><text class="label" x="198.28664429179958" y="148.82359732163474" font-size="8px"></text><text class="label" x="155.25387426678427" y="161.91526206418843" font-size="8px"></text><text class="label" x="155.01204627478108" y="175.00692680674211" font-size="8px"></text></g><g style="font-size: 13px;"><rect x="150" y="183.18979450473333" width="7.905481919057989" height="12.437081505425995" fill="#4472c4"></rect><rect x="150" y="196.281459247287" width="1.5410605207908092" height="12.437081505425995" fill="#ed7d31"></rect><rect x="150" y="209.37312398984068" width="0.01204627478108474" height="12.437081505425995" fill="#a5a5a5"></rect><text class="label" x="166.405481919058" y="191.68979450473333" font-size="10px">656x</text><text class="label" x="160.0410605207908" y="204.781459247287" font-size="10px">128x</text><text class="label" x="158.51204627478108" y="217.87312398984068" font-size="10px">1x</text><text class="label" x="162.905481919058" y="193.18979450473333" font-size="8px"></text><text class="label" x="156.5410605207908" y="206.281459247287" font-size="8px"></text><text class="label" x="155.01204627478108" y="219.37312398984068" font-size="8px"></text></g><g style="font-size: 13px;"><rect x="150" y="227.55599168783192" width="8.599449543432339" height="12.437081505425995" fill="#4472c4"></rect><rect x="150" y="240.64765643038558" width="0.9177941193532552" height="12.437081505425995" fill="#ed7d31"></rect><rect x="150" y="253.73932117293927" width="0.01204627478108474" height="12.437081505425995" fill="#a5a5a5"></rect><text class="label" x="167.09944954343234" y="236.05599168783192" font-size="10px">714x</text><text class="label" x="159.41779411935326" y="249.14765643038558" font-size="10px">76x</text><text class="label" x="158.51204627478108" y="262.2393211729393" font-size="10px">1x</text><text class="label" x="163.59944954343234" y="237.55599168783192" font-size="8px"></text><text class="label" x="155.91779411935326" y="250.64765643038558" font-size="8px"></text><text class="label" x="155.01204627478108" y="263.7393211729393" font-size="8px"></text></g><g style="font-size: 13px;"><rect x="150" y="271.92218887093054" width="8.192931248197493" height="12.437081505425995" fill="#4472c4"></rect><rect x="150" y="285.0138536134842" width="0.44334498177949383" height="12.437081505425995" fill="#ed7d31"></rect><rect x="150" y="298.10551835603786" width="0.01204627478108474" height="12.437081505425995" fill="#a5a5a5"></rect><text class="label" x="166.69293124819748" y="280.42218887093054" font-size="10px">680x</text><text class="label" x="158.9433449817795" y="293.5138536134842" font-size="10px">37x</text><text class="label" x="158.51204627478108" y="306.60551835603786" font-size="10px">1x</text><text class="label" x="163.19293124819748" y="281.92218887093054" font-size="8px"></text><text class="label" x="155.4433449817795" y="295.0138536134842" font-size="8px"></text><text class="label" x="155.01204627478108" y="308.10551835603786" font-size="8px"></text></g><g style="font-size: 13px;"><rect x="150" y="316.28838605402905" width="7.624237085404486" height="12.437081505425995" fill="#4472c4"></rect><rect x="150" y="329.38005079658274" width="0.17153735499800368" height="12.437081505425995" fill="#ed7d31"></rect><rect x="150" y="342.4717155391364" width="0.01204627478108474" height="12.437081505425995" fill="#a5a5a5"></rect><text class="label" x="166.12423708540447" y="324.78838605402905" font-size="10px">633x</text><text class="label" x="158.671537354998" y="337.88005079658274" font-size="10px">14x</text><text class="label" x="158.51204627478108" y="350.9717155391364" font-size="10px">1x</text><text class="label" x="162.62423708540447" y="326.28838605402905" font-size="8px"></text><text class="label" x="155.171537354998" y="339.38005079658274" font-size="8px"></text><text class="label" x="155.01204627478108" y="352.4717155391364" font-size="8px"></text></g></g></svg>