<svg xmlns="http://www.w3.org/2000/svg" xmlns:xlink="http://www.w3.org/1999/xlink" width="800" height="674" style="background-color: white;"><g class="y axis" transform="translate(149,45)" fill="none" font-size="10" font-family="sans-serif" text-anchor="end" style="font-size: 13px;"><path class="domain" stroke="currentColor" d="M0.5,0.5V480.5"></path><g class="tick" opacity="1" transform="translate(0,32.592592592592595)" style="font-size: 13px;"><line stroke="currentColor" x2="0"></line><text fill="currentColor" x="-3" dy="0.32em">object (simple)    </text></g><g class="tick" opacity="1" transform="translate(0,91.85185185185186)" style="font-size: 13px;"><line stroke="currentColor" x2="0"></line><text fill="currentColor" x="-3" dy="0.32em">object (hierarchical)    </text></g><g class="tick" opacity="1" transform="translate(0,151.11111111111111)" style="font-size: 13px;"><line stroke="currentColor" x2="0"></line><text fill="currentColor" x="-3" dy="0.32em">object (recursive)    </text></g><g class="tick" opacity="1" transform="translate(0,210.37037037037035)" style="font-size: 13px;"><line stroke="currentColor" x2="0"></line><text fill="currentColor" x="-3" dy="0.32em">object (union, explicit)    </text></g><g class="tick" opacity="1" transform="translate(0,269.6296296296296)" style="font-size: 13px;"><line stroke="currentColor" x2="0"></line><text fill="currentColor" x="-3" dy="0.32em">array (simple)    </text></g><g class="tick" opacity="1" transform="translate(0,328.8888888888889)" style="font-size: 13px;"><line stroke="currentColor" x2="0"></line><text fill="currentColor" x="-3" dy="0.32em">array (hierarchical)    </text></g><g class="tick" opacity="1" transform="translate(0,388.14814814814815)" style="font-size: 13px;"><line stroke="currentColor" x2="0"></line><text fill="currentColor" x="-3" dy="0.32em">array (recursive)    </text></g><g class="tick" opacity="1" transform="translate(0,447.40740740740745)" style="font-size: 13px;"><line stroke="currentColor" x2="0"></line><text fill="currentColor" x="-3" dy="0.32em">array (union, explicit)    </text></g></g><g class="x axis" transform="translate(149,525)" fill="none" font-size="10" font-family="sans-serif" text-anchor="middle" style="font-size: 13px;"><path class="domain" stroke="currentColor" d="M0.5,0.5H485.5"></path><g class="tick" opacity="1" transform="translate(0.5,0)" style="font-size: 13px;"><line stroke="currentColor" y2="6"></line><text fill="currentColor" y="9" dy="0.71em">0x</text></g><g class="tick" opacity="1" transform="translate(82.23961569588388,0)" style="font-size: 13px;"><line stroke="currentColor" y2="6"></line><text fill="currentColor" y="9" dy="0.71em">1,000,000x</text></g><g class="tick" opacity="1" transform="translate(163.97923139176777,0)" style="font-size: 13px;"><line stroke="currentColor" y2="6"></line><text fill="currentColor" y="9" dy="0.71em">2,000,000x</text></g><g class="tick" opacity="1" transform="translate(245.71884708765162,0)" style="font-size: 13px;"><line stroke="currentColor" y2="6"></line><text fill="currentColor" y="9" dy="0.71em">3,000,000x</text></g><g class="tick" opacity="1" transform="translate(327.45846278353554,0)" style="font-size: 13px;"><line stroke="currentColor" y2="6"></line><text fill="currentColor" y="9" dy="0.71em">4,000,000x</text></g><g class="tick" opacity="1" transform="translate(409.1980784794194,0)" style="font-size: 13px;"><line stroke="currentColor" y2="6"></line><text fill="currentColor" y="9" dy="0.71em">5,000,000x</text></g></g><text transform="translate(400, 30)" style="text-anchor: middle; font-size: 20px; font-weight: bold;">optimizer benchmark</text><rect x="650" y="125" width="230" height="5" fill="gray"></rect><rect x="645" y="35" width="230" height="90" fill="none" stroke="black"></rect><rect x="655" y="45" width="10" height="10" style="fill: #4472c4;"></rect><text x="670" y="55" style="font-size: 12px;">typia</text><rect x="655" y="65" width="10" height="10" style="fill: #ed7d31;"></rect><text x="670" y="75" style="font-size: 12px;">typebox</text><rect x="655" y="85" width="10" height="10" style="fill: #a5a5a5;"></rect><text x="670" y="95" style="font-size: 12px;">ajv</text><rect x="655" y="105" width="10" height="10" style="fill: #ffc000;"></rect><text x="670" y="115" style="font-size: 12px;">class-validator</text><text x="20" y="589" style="font-size: 12px;">  - CPU: AMD Ryzen 7 6800HS with Radeon Graphics</text><text x="20" y="606" style="font-size: 12px;">  - OS: win32</text><text x="20" y="623" style="font-size: 12px;">  - RAM: 63 GB</text><text x="20" y="640" style="font-size: 12px;">  - NodeJS version: v16.20.0</text><text x="20" y="657" style="font-size: 12px;">  - Typia version: v4.0.12-dev.20230619</text><g style="font-size: 13px;"><g style="font-size: 13px;"><rect x="150" y="51.584362139917694" width="440.9090909090908" height="12.510288065843621" fill="#4472c4"></rect><rect x="150" y="64.75308641975309" width="0.02243973518482912" height="12.510288065843621" fill="#ed7d31"></rect><rect x="150" y="77.92181069958848" width="0.00008173961569588388" height="12.510288065843621" fill="#a5a5a5"></rect><rect x="150" y="91.09053497942386" width="0.020639404833254868" height="12.510288065843621" fill="#ffc000"></rect><text class="label" x="599.4090909090908" y="60.084362139917694" font-size="10px">5,394,069x</text><text class="label" x="158.52243973518483" y="73.25308641975309" font-size="10px">275x</text><text class="label" x="158.5000817396157" y="86.42181069958848" font-size="10px">1x</text><text class="label" x="158.52063940483325" y="99.59053497942386" font-size="10px">253x</text><text class="label" x="595.9090909090908" y="61.584362139917694" font-size="8px"></text><text class="label" x="155.02243973518483" y="74.75308641975309" font-size="8px"></text><text class="label" x="155.0000817396157" y="87.92181069958848" font-size="8px"></text><text class="label" x="155.02063940483325" y="101.09053497942386" font-size="8px"></text></g><g style="font-size: 13px;"><rect x="150" y="110.84362139917695" width="23.167145672182833" height="12.510288065843621" fill="#4472c4"></rect><rect x="150" y="124.01234567901236" width="0.009502370786857771" height="12.510288065843621" fill="#ed7d31"></rect><rect x="150" y="137.18106995884773" width="0.00008173961569588388" height="12.510288065843621" fill="#a5a5a5"></rect><rect x="150" y="150.34979423868313" width="0.010027916461166424" height="12.510288065843621" fill="#ffc000"></rect><text class="label" x="181.66714567218284" y="119.34362139917695" font-size="10px">283,426x</text><text class="label" x="158.50950237078686" y="132.51234567901236" font-size="10px">116x</text><text class="label" x="158.5000817396157" y="145.68106995884773" font-size="10px">1x</text><text class="label" x="158.51002791646115" y="158.84979423868313" font-size="10px">123x</text><text class="label" x="178.16714567218284" y="120.84362139917695" font-size="8px"></text><text class="label" x="155.00950237078686" y="134.01234567901236" font-size="8px"></text><text class="label" x="155.0000817396157" y="147.18106995884773" font-size="8px"></text><text class="label" x="155.01002791646115" y="160.34979423868313" font-size="8px"></text></g><g style="font-size: 13px;"><rect x="150" y="170.10288065843622" width="6.172020539070505" height="12.510288065843621" fill="#4472c4"></rect><rect x="150" y="183.2716049382716" width="0.01877052715730146" height="12.510288065843621" fill="#ed7d31"></rect><rect x="150" y="196.440329218107" width="0.00008173961569588388" height="12.510288065843621" fill="#a5a5a5"></rect><rect x="150" y="209.6090534979424" width="0.004132312002052922" height="12.510288065843621" fill="#ffc000"></rect><text class="label" x="164.6720205390705" y="178.60288065843622" font-size="10px">75,508x</text><text class="label" x="158.5187705271573" y="191.7716049382716" font-size="10px">230x</text><text class="label" x="158.5000817396157" y="204.940329218107" font-size="10px">1x</text><text class="label" x="158.50413231200204" y="218.1090534979424" font-size="10px">51x</text><text class="label" x="161.1720205390705" y="180.10288065843622" font-size="8px"></text><text class="label" x="155.0187705271573" y="193.2716049382716" font-size="8px"></text><text class="label" x="155.0000817396157" y="206.440329218107" font-size="8px"></text><text class="label" x="155.00413231200204" y="219.6090534979424" font-size="8px"></text></g><g style="font-size: 13px;"><rect x="150" y="229.36213991769546" width="2.033761760780161" height="12.510288065843621" fill="#4472c4"></rect><rect x="150" y="242.53086419753086" width="0.01116751268823037" height="12.510288065843621" fill="#ed7d31"></rect><rect x="150" y="255.69958847736626" width="0.00008173961569588388" height="12.510288065843621" fill="#a5a5a5"></rect><rect x="150" y="268.86831275720164" width="0.007426328874995754" height="12.510288065843621" fill="#ffc000"></rect><text class="label" x="160.53376176078015" y="237.86213991769546" font-size="10px">24,881x</text><text class="label" x="158.51116751268822" y="251.03086419753086" font-size="10px">137x</text><text class="label" x="158.5000817396157" y="264.19958847736626" font-size="10px">1x</text><text class="label" x="158.507426328875" y="277.36831275720164" font-size="10px">91x</text><text class="label" x="157.03376176078015" y="239.36213991769546" font-size="8px"></text><text class="label" x="155.01116751268822" y="252.53086419753086" font-size="8px"></text><text class="label" x="155.0000817396157" y="265.69958847736626" font-size="8px"></text><text class="label" x="155.007426328875" y="278.86831275720164" font-size="8px"></text></g><g style="font-size: 13px;"><rect x="150" y="288.6213991769547" width="4.468260251629932" height="12.510288065843621" fill="#4472c4"></rect><rect x="150" y="301.7901234567901" width="0.02564299987904455" height="12.510288065843621" fill="#ed7d31"></rect><rect x="150" y="314.9588477366255" width="0.00008173961569588388" height="12.510288065843621" fill="#a5a5a5"></rect><rect x="150" y="328.12757201646093" width="0.008087776095271079" height="12.510288065843621" fill="#ffc000"></rect><text class="label" x="162.96826025162994" y="297.1213991769547" font-size="10px">54,665x</text><text class="label" x="158.52564299987904" y="310.2901234567901" font-size="10px">314x</text><text class="label" x="158.5000817396157" y="323.4588477366255" font-size="10px">1x</text><text class="label" x="158.50808777609527" y="336.62757201646093" font-size="10px">99x</text><text class="label" x="159.46826025162994" y="298.6213991769547" font-size="8px"></text><text class="label" x="155.02564299987904" y="311.7901234567901" font-size="8px"></text><text class="label" x="155.0000817396157" y="324.9588477366255" font-size="8px"></text><text class="label" x="155.00808777609527" y="338.12757201646093" font-size="8px"></text></g><g style="font-size: 13px;"><rect x="150" y="347.880658436214" width="0.38625989369288993" height="12.510288065843621" fill="#4472c4"></rect><rect x="150" y="361.04938271604937" width="0.009900408523980686" height="12.510288065843621" fill="#ed7d31"></rect><rect x="150" y="374.2181069958848" width="0.00008173961569588388" height="12.510288065843621" fill="#a5a5a5"></rect><rect x="150" y="387.38683127572017" width="0.00027666398116122704" height="12.510288065843621" fill="#ffc000"></rect><text class="label" x="158.88625989369288" y="356.380658436214" font-size="10px">4,725x</text><text class="label" x="158.50990040852398" y="369.54938271604937" font-size="10px">121x</text><text class="label" x="158.5000817396157" y="382.7181069958848" font-size="10px">1x</text><text class="label" x="158.50027666398117" y="395.88683127572017" font-size="10px">3x</text><text class="label" x="155.38625989369288" y="357.880658436214" font-size="8px"></text><text class="label" x="155.00990040852398" y="371.04938271604937" font-size="8px"></text><text class="label" x="155.0000817396157" y="384.2181069958848" font-size="8px"></text><text class="label" x="155.00027666398117" y="397.38683127572017" font-size="8px"></text></g><g style="font-size: 13px;"><rect x="150" y="407.13991769547323" width="0.5293393058534795" height="12.510288065843621" fill="#4472c4"></rect><rect x="150" y="420.3086419753086" width="0.020814611130595493" height="12.510288065843621" fill="#ed7d31"></rect><rect x="150" y="433.47736625514403" width="0.00008173961569588388" height="12.510288065843621" fill="#a5a5a5"></rect><rect x="150" y="446.6460905349794" width="0.0003261569915488714" height="12.510288065843621" fill="#ffc000"></rect><text class="label" x="159.02933930585348" y="415.63991769547323" font-size="10px">6,476x</text><text class="label" x="158.5208146111306" y="428.8086419753086" font-size="10px">255x</text><text class="label" x="158.5000817396157" y="441.97736625514403" font-size="10px">1x</text><text class="label" x="158.50032615699155" y="455.1460905349794" font-size="10px">4x</text><text class="label" x="155.52933930585348" y="417.13991769547323" font-size="8px"></text><text class="label" x="155.0208146111306" y="430.3086419753086" font-size="8px"></text><text class="label" x="155.0000817396157" y="443.47736625514403" font-size="8px"></text><text class="label" x="155.00032615699155" y="456.6460905349794" font-size="8px"></text></g><g style="font-size: 13px;"><rect x="150" y="466.3991769547325" width="0.595023245579088" height="12.510288065843621" fill="#4472c4"></rect><rect x="150" y="479.5679012345679" width="0.015758903135377676" height="12.510288065843621" fill="#ed7d31"></rect><rect x="150" y="492.73662551440333" width="0.00008173961569588388" height="12.510288065843621" fill="#a5a5a5"></rect><rect x="150" y="505.9053497942387" width="0.0024751941846499095" height="12.510288065843621" fill="#ffc000"></rect><text class="label" x="159.09502324557909" y="474.8991769547325" font-size="10px">7,279x</text><text class="label" x="158.51575890313538" y="488.0679012345679" font-size="10px">193x</text><text class="label" x="158.5000817396157" y="501.23662551440333" font-size="10px">1x</text><text class="label" x="158.50247519418465" y="514.4053497942386" font-size="10px">30x</text><text class="label" x="155.59502324557909" y="476.3991769547325" font-size="8px"></text><text class="label" x="155.01575890313538" y="489.5679012345679" font-size="8px"></text><text class="label" x="155.0000817396157" y="502.73662551440333" font-size="8px"></text><text class="label" x="155.00247519418465" y="515.9053497942386" font-size="8px"></text></g></g></svg>