<svg xmlns="http://www.w3.org/2000/svg" xmlns:xlink="http://www.w3.org/1999/xlink" width="800" height="674" style="background-color: white;"><g class="y axis" transform="translate(149,45)" fill="none" font-size="10" font-family="sans-serif" text-anchor="end" style="font-size: 13px;"><path class="domain" stroke="currentColor" d="M0.5,0.5V480.5"></path><g class="tick" opacity="1" transform="translate(0,32.592592592592595)" style="font-size: 13px;"><line stroke="currentColor" x2="0"></line><text fill="currentColor" x="-3" dy="0.32em">object (simple)    </text></g><g class="tick" opacity="1" transform="translate(0,91.85185185185186)" style="font-size: 13px;"><line stroke="currentColor" x2="0"></line><text fill="currentColor" x="-3" dy="0.32em">object (hierarchical)    </text></g><g class="tick" opacity="1" transform="translate(0,151.11111111111111)" style="font-size: 13px;"><line stroke="currentColor" x2="0"></line><text fill="currentColor" x="-3" dy="0.32em">object (recursive)    </text></g><g class="tick" opacity="1" transform="translate(0,210.37037037037035)" style="font-size: 13px;"><line stroke="currentColor" x2="0"></line><text fill="currentColor" x="-3" dy="0.32em">object (union, explicit)    </text></g><g class="tick" opacity="1" transform="translate(0,269.6296296296296)" style="font-size: 13px;"><line stroke="currentColor" x2="0"></line><text fill="currentColor" x="-3" dy="0.32em">array (simple)    </text></g><g class="tick" opacity="1" transform="translate(0,328.8888888888889)" style="font-size: 13px;"><line stroke="currentColor" x2="0"></line><text fill="currentColor" x="-3" dy="0.32em">array (hierarchical)    </text></g><g class="tick" opacity="1" transform="translate(0,388.14814814814815)" style="font-size: 13px;"><line stroke="currentColor" x2="0"></line><text fill="currentColor" x="-3" dy="0.32em">array (recursive)    </text></g><g class="tick" opacity="1" transform="translate(0,447.40740740740745)" style="font-size: 13px;"><line stroke="currentColor" x2="0"></line><text fill="currentColor" x="-3" dy="0.32em">array (union, explicit)    </text></g></g><g class="x axis" transform="translate(149,525)" fill="none" font-size="10" font-family="sans-serif" text-anchor="middle" style="font-size: 13px;"><path class="domain" stroke="currentColor" d="M0.5,0.5H485.5"></path><g class="tick" opacity="1" transform="translate(0.5,0)" style="font-size: 13px;"><line stroke="currentColor" y2="6"></line><text fill="currentColor" y="9" dy="0.71em">0x</text></g><g class="tick" opacity="1" transform="translate(65.90974249654498,0)" style="font-size: 13px;"><line stroke="currentColor" y2="6"></line><text fill="currentColor" y="9" dy="0.71em">200,000x</text></g><g class="tick" opacity="1" transform="translate(131.31948499308996,0)" style="font-size: 13px;"><line stroke="currentColor" y2="6"></line><text fill="currentColor" y="9" dy="0.71em">400,000x</text></g><g class="tick" opacity="1" transform="translate(196.72922748963495,0)" style="font-size: 13px;"><line stroke="currentColor" y2="6"></line><text fill="currentColor" y="9" dy="0.71em">600,000x</text></g><g class="tick" opacity="1" transform="translate(262.1389699861799,0)" style="font-size: 13px;"><line stroke="currentColor" y2="6"></line><text fill="currentColor" y="9" dy="0.71em">800,000x</text></g><g class="tick" opacity="1" transform="translate(327.5487124827249,0)" style="font-size: 13px;"><line stroke="currentColor" y2="6"></line><text fill="currentColor" y="9" dy="0.71em">1,000,000x</text></g><g class="tick" opacity="1" transform="translate(392.9584549792699,0)" style="font-size: 13px;"><line stroke="currentColor" y2="6"></line><text fill="currentColor" y="9" dy="0.71em">1,200,000x</text></g><g class="tick" opacity="1" transform="translate(458.3681974758149,0)" style="font-size: 13px;"><line stroke="currentColor" y2="6"></line><text fill="currentColor" y="9" dy="0.71em">1,400,000x</text></g></g><text transform="translate(400, 30)" style="text-anchor: middle; font-size: 20px; font-weight: bold;">optimizer benchmark</text><rect x="650" y="125" width="230" height="5" fill="gray"></rect><rect x="645" y="35" width="230" height="90" fill="none" stroke="black"></rect><rect x="655" y="45" width="10" height="10" style="fill: #4472c4;"></rect><text x="670" y="55" style="font-size: 12px;">typia</text><rect x="655" y="65" width="10" height="10" style="fill: #ed7d31;"></rect><text x="670" y="75" style="font-size: 12px;">typebox</text><rect x="655" y="85" width="10" height="10" style="fill: #a5a5a5;"></rect><text x="670" y="95" style="font-size: 12px;">ajv</text><rect x="655" y="105" width="10" height="10" style="fill: #ffc000;"></rect><text x="670" y="115" style="font-size: 12px;">class-validator</text><text x="20" y="589" style="font-size: 12px;">  - CPU: AMD Ryzen 7 6800HS with Radeon Graphics</text><text x="20" y="606" style="font-size: 12px;">  - OS: win32</text><text x="20" y="623" style="font-size: 12px;">  - RAM: 63 GB</text><text x="20" y="640" style="font-size: 12px;">  - NodeJS version: v16.20.0</text><text x="20" y="657" style="font-size: 12px;">  - Typia version: v3.8.6</text><g style="font-size: 13px;"><g style="font-size: 13px;"><rect x="150" y="51.584362139917694" width="440.9090909090909" height="12.510288065843621" fill="#4472c4"></rect><rect x="150" y="64.75308641975309" width="0.021715517633642212" height="12.510288065843621" fill="#ed7d31"></rect><rect x="150" y="77.92181069958848" width="0.0003270487124827249" height="12.510288065843621" fill="#a5a5a5"></rect><rect x="150" y="91.09053497942386" width="0.022548364143838054" height="12.510288065843621" fill="#ffc000"></rect><text class="label" x="599.4090909090909" y="60.084362139917694" font-size="10px">1,348,145x</text><text class="label" x="158.52171551763365" y="73.25308641975309" font-size="10px">66x</text><text class="label" x="158.50032704871248" y="86.42181069958848" font-size="10px">1x</text><text class="label" x="158.52254836414383" y="99.59053497942386" font-size="10px">69x</text><text class="label" x="595.9090909090909" y="61.584362139917694" font-size="8px"></text><text class="label" x="155.02171551763365" y="74.75308641975309" font-size="8px"></text><text class="label" x="155.00032704871248" y="87.92181069958848" font-size="8px"></text><text class="label" x="155.02254836414383" y="101.09053497942386" font-size="8px"></text></g><g style="font-size: 13px;"><rect x="150" y="110.84362139917695" width="19.180933918438424" height="12.510288065843621" fill="#4472c4"></rect><rect x="150" y="124.01234567901236" width="0.00858195580928193" height="12.510288065843621" fill="#ed7d31"></rect><rect x="150" y="137.18106995884773" width="0.0003270487124827249" height="12.510288065843621" fill="#a5a5a5"></rect><rect x="150" y="150.34979423868313" width="0.008731391865049926" height="12.510288065843621" fill="#ffc000"></rect><text class="label" x="177.68093391843843" y="119.34362139917695" font-size="10px">58,649x</text><text class="label" x="158.5085819558093" y="132.51234567901236" font-size="10px">26x</text><text class="label" x="158.50032704871248" y="145.68106995884773" font-size="10px">1x</text><text class="label" x="158.50873139186504" y="158.84979423868313" font-size="10px">27x</text><text class="label" x="174.18093391843843" y="120.84362139917695" font-size="8px"></text><text class="label" x="155.0085819558093" y="134.01234567901236" font-size="8px"></text><text class="label" x="155.00032704871248" y="147.18106995884773" font-size="8px"></text><text class="label" x="155.00873139186504" y="160.34979423868313" font-size="8px"></text></g><g style="font-size: 13px;"><rect x="150" y="170.10288065843622" width="5.639487139645711" height="12.510288065843621" fill="#4472c4"></rect><rect x="150" y="183.2716049382716" width="0.02314968385435684" height="12.510288065843621" fill="#ed7d31"></rect><rect x="150" y="196.440329218107" width="0.0003270487124827249" height="12.510288065843621" fill="#a5a5a5"></rect><rect x="150" y="209.6090534979424" width="0.0036097549762854403" height="12.510288065843621" fill="#ffc000"></rect><text class="label" x="164.13948713964572" y="178.60288065843622" font-size="10px">17,244x</text><text class="label" x="158.52314968385437" y="191.7716049382716" font-size="10px">71x</text><text class="label" x="158.50032704871248" y="204.940329218107" font-size="10px">1x</text><text class="label" x="158.50360975497628" y="218.1090534979424" font-size="10px">11x</text><text class="label" x="160.63948713964572" y="180.10288065843622" font-size="8px"></text><text class="label" x="155.02314968385437" y="193.2716049382716" font-size="8px"></text><text class="label" x="155.00032704871248" y="206.440329218107" font-size="8px"></text><text class="label" x="155.00360975497628" y="219.6090534979424" font-size="8px"></text></g><g style="font-size: 13px;"><rect x="150" y="229.36213991769546" width="1.4505310882704254" height="12.510288065843621" fill="#4472c4"></rect><rect x="150" y="242.53086419753086" width="0.008908893068957733" height="12.510288065843621" fill="#ed7d31"></rect><rect x="150" y="255.69958847736626" width="0.0003270487124827249" height="12.510288065843621" fill="#a5a5a5"></rect><rect x="150" y="268.86831275720164" width="0.005643688508328739" height="12.510288065843621" fill="#ffc000"></rect><text class="label" x="159.95053108827042" y="237.86213991769546" font-size="10px">4,435x</text><text class="label" x="158.50890889306896" y="251.03086419753086" font-size="10px">27x</text><text class="label" x="158.50032704871248" y="264.19958847736626" font-size="10px">1x</text><text class="label" x="158.50564368850834" y="277.36831275720164" font-size="10px">17x</text><text class="label" x="156.45053108827042" y="239.36213991769546" font-size="8px"></text><text class="label" x="155.00890889306896" y="252.53086419753086" font-size="8px"></text><text class="label" x="155.00032704871248" y="265.69958847736626" font-size="8px"></text><text class="label" x="155.00564368850834" y="278.86831275720164" font-size="8px"></text></g><g style="font-size: 13px;"><rect x="150" y="288.6213991769547" width="1.331540854649967" height="12.510288065843621" fill="#4472c4"></rect><rect x="150" y="301.7901234567901" width="0.009823689673068941" height="12.510288065843621" fill="#ed7d31"></rect><rect x="150" y="314.9588477366255" width="0.0003270487124827249" height="12.510288065843621" fill="#a5a5a5"></rect><rect x="150" y="328.12757201646093" width="0.002336848278265331" height="12.510288065843621" fill="#ffc000"></rect><text class="label" x="159.83154085464997" y="297.1213991769547" font-size="10px">4,071x</text><text class="label" x="158.50982368967306" y="310.2901234567901" font-size="10px">30x</text><text class="label" x="158.50032704871248" y="323.4588477366255" font-size="10px">1x</text><text class="label" x="158.50233684827828" y="336.62757201646093" font-size="10px">7x</text><text class="label" x="156.33154085464997" y="298.6213991769547" font-size="8px"></text><text class="label" x="155.00982368967306" y="311.7901234567901" font-size="8px"></text><text class="label" x="155.00032704871248" y="324.9588477366255" font-size="8px"></text><text class="label" x="155.00233684827828" y="338.12757201646093" font-size="8px"></text></g><g style="font-size: 13px;"><rect x="150" y="347.880658436214" width="0.6835818457896554" height="12.510288065843621" fill="#4472c4"></rect><rect x="150" y="361.04938271604937" width="0.03628049817912981" height="12.510288065843621" fill="#ed7d31"></rect><rect x="150" y="374.2181069958848" width="0.0003270487124827249" height="12.510288065843621" fill="#a5a5a5"></rect><rect x="150" y="387.38683127572017" width="0.0005238921496143932" height="12.510288065843621" fill="#ffc000"></rect><text class="label" x="159.18358184578966" y="356.380658436214" font-size="10px">2,090x</text><text class="label" x="158.53628049817914" y="369.54938271604937" font-size="10px">111x</text><text class="label" x="158.50032704871248" y="382.7181069958848" font-size="10px">1x</text><text class="label" x="158.5005238921496" y="395.88683127572017" font-size="10px">2x</text><text class="label" x="155.68358184578966" y="357.880658436214" font-size="8px"></text><text class="label" x="155.03628049817914" y="371.04938271604937" font-size="8px"></text><text class="label" x="155.00032704871248" y="384.2181069958848" font-size="8px"></text><text class="label" x="155.0005238921496" y="397.38683127572017" font-size="8px"></text></g><g style="font-size: 13px;"><rect x="150" y="407.13991769547323" width="0.4230224400881393" height="12.510288065843621" fill="#4472c4"></rect><rect x="150" y="420.3086419753086" width="0.026518786815044163" height="12.510288065843621" fill="#ed7d31"></rect><rect x="150" y="433.47736625514403" width="0.0003438307235540543" height="12.510288065843621" fill="#a5a5a5"></rect><rect x="150" y="446.6460905349794" width="0.0003270487124827249" height="12.510288065843621" fill="#ffc000"></rect><text class="label" x="158.92302244008815" y="415.63991769547323" font-size="10px">1,293x</text><text class="label" x="158.52651878681505" y="428.8086419753086" font-size="10px">81x</text><text class="label" x="158.50034383072355" y="441.97736625514403" font-size="10px">1x</text><text class="label" x="158.50032704871248" y="455.1460905349794" font-size="10px">1x</text><text class="label" x="155.42302244008815" y="417.13991769547323" font-size="8px"></text><text class="label" x="155.02651878681505" y="430.3086419753086" font-size="8px"></text><text class="label" x="155.00034383072355" y="443.47736625514403" font-size="8px"></text><text class="label" x="155.00032704871248" y="456.6460905349794" font-size="8px"></text></g><g style="font-size: 13px;"><rect x="150" y="466.3991769547325" width="0.42692275107041777" height="12.510288065843621" fill="#4472c4"></rect><rect x="150" y="479.5679012345679" width="0.012760547024444211" height="12.510288065843621" fill="#ed7d31"></rect><rect x="150" y="492.73662551440333" width="0.0003270487124827249" height="12.510288065843621" fill="#a5a5a5"></rect><rect x="150" y="505.9053497942387" width="0.0019165801013981286" height="12.510288065843621" fill="#ffc000"></rect><text class="label" x="158.9269227510704" y="474.8991769547325" font-size="10px">1,305x</text><text class="label" x="158.51276054702444" y="488.0679012345679" font-size="10px">39x</text><text class="label" x="158.50032704871248" y="501.23662551440333" font-size="10px">1x</text><text class="label" x="158.5019165801014" y="514.4053497942386" font-size="10px">6x</text><text class="label" x="155.4269227510704" y="476.3991769547325" font-size="8px"></text><text class="label" x="155.01276054702444" y="489.5679012345679" font-size="8px"></text><text class="label" x="155.00032704871248" y="502.73662551440333" font-size="8px"></text><text class="label" x="155.0019165801014" y="515.9053497942386" font-size="8px"></text></g></g></svg>