<svg xmlns="http://www.w3.org/2000/svg" xmlns:xlink="http://www.w3.org/1999/xlink" width="800" height="674" style="background-color: white;"><g class="y axis" transform="translate(149,45)" fill="none" font-size="10" font-family="sans-serif" text-anchor="end" style="font-size: 13px;"><path class="domain" stroke="currentColor" d="M0.5,0.5V480.5"></path><g class="tick" opacity="1" transform="translate(0,32.592592592592595)" style="font-size: 13px;"><line stroke="currentColor" x2="0"></line><text fill="currentColor" x="-3" dy="0.32em">object (simple)    </text></g><g class="tick" opacity="1" transform="translate(0,91.85185185185186)" style="font-size: 13px;"><line stroke="currentColor" x2="0"></line><text fill="currentColor" x="-3" dy="0.32em">object (hierarchical)    </text></g><g class="tick" opacity="1" transform="translate(0,151.11111111111111)" style="font-size: 13px;"><line stroke="currentColor" x2="0"></line><text fill="currentColor" x="-3" dy="0.32em">object (recursive)    </text></g><g class="tick" opacity="1" transform="translate(0,210.37037037037035)" style="font-size: 13px;"><line stroke="currentColor" x2="0"></line><text fill="currentColor" x="-3" dy="0.32em">object (union, explicit)    </text></g><g class="tick" opacity="1" transform="translate(0,269.6296296296296)" style="font-size: 13px;"><line stroke="currentColor" x2="0"></line><text fill="currentColor" x="-3" dy="0.32em">array (simple)    </text></g><g class="tick" opacity="1" transform="translate(0,328.8888888888889)" style="font-size: 13px;"><line stroke="currentColor" x2="0"></line><text fill="currentColor" x="-3" dy="0.32em">array (hierarchical)    </text></g><g class="tick" opacity="1" transform="translate(0,388.14814814814815)" style="font-size: 13px;"><line stroke="currentColor" x2="0"></line><text fill="currentColor" x="-3" dy="0.32em">array (recursive)    </text></g><g class="tick" opacity="1" transform="translate(0,447.40740740740745)" style="font-size: 13px;"><line stroke="currentColor" x2="0"></line><text fill="currentColor" x="-3" dy="0.32em">array (union, explicit)    </text></g></g><g class="x axis" transform="translate(149,525)" fill="none" font-size="10" font-family="sans-serif" text-anchor="middle" style="font-size: 13px;"><path class="domain" stroke="currentColor" d="M0.5,0.5H485.5"></path><g class="tick" opacity="1" transform="translate(0.5,0)" style="font-size: 13px;"><line stroke="currentColor" y2="6"></line><text fill="currentColor" y="9" dy="0.71em">0x</text></g><g class="tick" opacity="1" transform="translate(75.47253966633347,0)" style="font-size: 13px;"><line stroke="currentColor" y2="6"></line><text fill="currentColor" y="9" dy="0.71em">1,000,000x</text></g><g class="tick" opacity="1" transform="translate(150.44507933266695,0)" style="font-size: 13px;"><line stroke="currentColor" y2="6"></line><text fill="currentColor" y="9" dy="0.71em">2,000,000x</text></g><g class="tick" opacity="1" transform="translate(225.41761899900038,0)" style="font-size: 13px;"><line stroke="currentColor" y2="6"></line><text fill="currentColor" y="9" dy="0.71em">3,000,000x</text></g><g class="tick" opacity="1" transform="translate(300.3901586653339,0)" style="font-size: 13px;"><line stroke="currentColor" y2="6"></line><text fill="currentColor" y="9" dy="0.71em">4,000,000x</text></g><g class="tick" opacity="1" transform="translate(375.36269833166733,0)" style="font-size: 13px;"><line stroke="currentColor" y2="6"></line><text fill="currentColor" y="9" dy="0.71em">5,000,000x</text></g><g class="tick" opacity="1" transform="translate(450.33523799800076,0)" style="font-size: 13px;"><line stroke="currentColor" y2="6"></line><text fill="currentColor" y="9" dy="0.71em">6,000,000x</text></g></g><text transform="translate(400, 30)" style="text-anchor: middle; font-size: 20px; font-weight: bold;">optimizer benchmark</text><rect x="650" y="125" width="230" height="5" fill="gray"></rect><rect x="645" y="35" width="230" height="90" fill="none" stroke="black"></rect><rect x="655" y="45" width="10" height="10" style="fill: #4472c4;"></rect><text x="670" y="55" style="font-size: 12px;">typia</text><rect x="655" y="65" width="10" height="10" style="fill: #ed7d31;"></rect><text x="670" y="75" style="font-size: 12px;">typebox</text><rect x="655" y="85" width="10" height="10" style="fill: #a5a5a5;"></rect><text x="670" y="95" style="font-size: 12px;">ajv</text><rect x="655" y="105" width="10" height="10" style="fill: #ffc000;"></rect><text x="670" y="115" style="font-size: 12px;">class-validator</text><text x="20" y="589" style="font-size: 12px;">  - CPU: AMD Ryzen 7 6800HS with Radeon Graphics</text><text x="20" y="606" style="font-size: 12px;">  - OS: win32</text><text x="20" y="623" style="font-size: 12px;">  - RAM: 63 GB</text><text x="20" y="640" style="font-size: 12px;">  - NodeJS version: v16.20.0</text><text x="20" y="657" style="font-size: 12px;">  - Typia version: v4.1.1</text><g style="font-size: 13px;"><g style="font-size: 13px;"><rect x="150" y="51.584362139917694" width="440.9090909090909" height="12.510288065843621" fill="#4472c4"></rect><rect x="150" y="64.75308641975309" width="0.020883359520519253" height="12.510288065843621" fill="#ed7d31"></rect><rect x="150" y="77.92181069958848" width="0.00007497253966633346" height="12.510288065843621" fill="#a5a5a5"></rect><rect x="150" y="91.09053497942386" width="0.02239603969836531" height="12.510288065843621" fill="#ffc000"></rect><text class="label" x="599.4090909090909" y="60.084362139917694" font-size="10px">5,880,941x</text><text class="label" x="158.52088335952052" y="73.25308641975309" font-size="10px">279x</text><text class="label" x="158.50007497253966" y="86.42181069958848" font-size="10px">1x</text><text class="label" x="158.52239603969838" y="99.59053497942386" font-size="10px">299x</text><text class="label" x="595.9090909090909" y="61.584362139917694" font-size="8px"></text><text class="label" x="155.02088335952052" y="74.75308641975309" font-size="8px"></text><text class="label" x="155.00007497253966" y="87.92181069958848" font-size="8px"></text><text class="label" x="155.02239603969838" y="101.09053497942386" font-size="8px"></text></g><g style="font-size: 13px;"><rect x="150" y="110.84362139917695" width="21.706237113434366" height="12.510288065843621" fill="#4472c4"></rect><rect x="150" y="124.01234567901236" width="0.009097628967370175" height="12.510288065843621" fill="#ed7d31"></rect><rect x="150" y="137.18106995884773" width="0.00007497253966633346" height="12.510288065843621" fill="#a5a5a5"></rect><rect x="150" y="150.34979423868313" width="0.009807091973779693" height="12.510288065843621" fill="#ffc000"></rect><text class="label" x="180.20623711343436" y="119.34362139917695" font-size="10px">289,522x</text><text class="label" x="158.50909762896737" y="132.51234567901236" font-size="10px">121x</text><text class="label" x="158.50007497253966" y="145.68106995884773" font-size="10px">1x</text><text class="label" x="158.50980709197378" y="158.84979423868313" font-size="10px">131x</text><text class="label" x="176.70623711343436" y="120.84362139917695" font-size="8px"></text><text class="label" x="155.00909762896737" y="134.01234567901236" font-size="8px"></text><text class="label" x="155.00007497253966" y="147.18106995884773" font-size="8px"></text><text class="label" x="155.00980709197378" y="160.34979423868313" font-size="8px"></text></g><g style="font-size: 13px;"><rect x="150" y="170.10288065843622" width="5.791076456941574" height="12.510288065843621" fill="#4472c4"></rect><rect x="150" y="183.2716049382716" width="0.017182493687679226" height="12.510288065843621" fill="#ed7d31"></rect><rect x="150" y="196.440329218107" width="0.00007497253966633346" height="12.510288065843621" fill="#a5a5a5"></rect><rect x="150" y="209.6090534979424" width="0.0038539721506498743" height="12.510288065843621" fill="#ffc000"></rect><text class="label" x="164.29107645694157" y="178.60288065843622" font-size="10px">77,243x</text><text class="label" x="158.51718249368767" y="191.7716049382716" font-size="10px">229x</text><text class="label" x="158.50007497253966" y="204.940329218107" font-size="10px">1x</text><text class="label" x="158.50385397215064" y="218.1090534979424" font-size="10px">51x</text><text class="label" x="160.79107645694157" y="180.10288065843622" font-size="8px"></text><text class="label" x="155.01718249368767" y="193.2716049382716" font-size="8px"></text><text class="label" x="155.00007497253966" y="206.440329218107" font-size="8px"></text><text class="label" x="155.00385397215064" y="219.6090534979424" font-size="8px"></text></g><g style="font-size: 13px;"><rect x="150" y="229.36213991769546" width="1.8419544793290912" height="12.510288065843621" fill="#4472c4"></rect><rect x="150" y="242.53086419753086" width="0.010099701914171866" height="12.510288065843621" fill="#ed7d31"></rect><rect x="150" y="255.69958847736626" width="0.00007497253966633346" height="12.510288065843621" fill="#a5a5a5"></rect><rect x="150" y="268.86831275720164" width="0.006334180244194735" height="12.510288065843621" fill="#ffc000"></rect><text class="label" x="160.3419544793291" y="237.86213991769546" font-size="10px">24,568x</text><text class="label" x="158.51009970191419" y="251.03086419753086" font-size="10px">135x</text><text class="label" x="158.50007497253966" y="264.19958847736626" font-size="10px">1x</text><text class="label" x="158.50633418024418" y="277.36831275720164" font-size="10px">84x</text><text class="label" x="156.8419544793291" y="239.36213991769546" font-size="8px"></text><text class="label" x="155.01009970191419" y="252.53086419753086" font-size="8px"></text><text class="label" x="155.00007497253966" y="265.69958847736626" font-size="8px"></text><text class="label" x="155.00633418024418" y="278.86831275720164" font-size="8px"></text></g><g style="font-size: 13px;"><rect x="150" y="288.6213991769547" width="4.040753052818276" height="12.510288065843621" fill="#4472c4"></rect><rect x="150" y="301.7901234567901" width="0.042759834570922896" height="12.510288065843621" fill="#ed7d31"></rect><rect x="150" y="314.9588477366255" width="0.00007497253966633346" height="12.510288065843621" fill="#a5a5a5"></rect><rect x="150" y="328.12757201646093" width="0.007211150932214548" height="12.510288065843621" fill="#ffc000"></rect><text class="label" x="162.54075305281827" y="297.1213991769547" font-size="10px">53,896x</text><text class="label" x="158.54275983457092" y="310.2901234567901" font-size="10px">570x</text><text class="label" x="158.50007497253966" y="323.4588477366255" font-size="10px">1x</text><text class="label" x="158.50721115093222" y="336.62757201646093" font-size="10px">96x</text><text class="label" x="159.04075305281827" y="298.6213991769547" font-size="8px"></text><text class="label" x="155.04275983457092" y="311.7901234567901" font-size="8px"></text><text class="label" x="155.00007497253966" y="324.9588477366255" font-size="8px"></text><text class="label" x="155.00721115093222" y="338.12757201646093" font-size="8px"></text></g><g style="font-size: 13px;"><rect x="150" y="347.880658436214" width="0.37954281244618526" height="12.510288065843621" fill="#4472c4"></rect><rect x="150" y="361.04938271604937" width="0.01109979283139339" height="12.510288065843621" fill="#ed7d31"></rect><rect x="150" y="374.2181069958848" width="0.00007497253966633346" height="12.510288065843621" fill="#a5a5a5"></rect><rect x="150" y="387.38683127572017" width="0.00027186587332277113" height="12.510288065843621" fill="#ffc000"></rect><text class="label" x="158.87954281244618" y="356.380658436214" font-size="10px">5,062x</text><text class="label" x="158.5110997928314" y="369.54938271604937" font-size="10px">148x</text><text class="label" x="158.50007497253966" y="382.7181069958848" font-size="10px">1x</text><text class="label" x="158.50027186587332" y="395.88683127572017" font-size="10px">4x</text><text class="label" x="155.37954281244618" y="357.880658436214" font-size="8px"></text><text class="label" x="155.0110997928314" y="371.04938271604937" font-size="8px"></text><text class="label" x="155.00007497253966" y="384.2181069958848" font-size="8px"></text><text class="label" x="155.00027186587332" y="397.38683127572017" font-size="8px"></text></g><g style="font-size: 13px;"><rect x="150" y="407.13991769547323" width="0.40356875462777647" height="12.510288065843621" fill="#4472c4"></rect><rect x="150" y="420.3086419753086" width="0.019643714177390744" height="12.510288065843621" fill="#ed7d31"></rect><rect x="150" y="433.47736625514403" width="0.00007497253966633346" height="12.510288065843621" fill="#a5a5a5"></rect><rect x="150" y="446.6460905349794" width="0.0003171275617907119" height="12.510288065843621" fill="#ffc000"></rect><text class="label" x="158.90356875462777" y="415.63991769547323" font-size="10px">5,383x</text><text class="label" x="158.5196437141774" y="428.8086419753086" font-size="10px">262x</text><text class="label" x="158.50007497253966" y="441.97736625514403" font-size="10px">1x</text><text class="label" x="158.5003171275618" y="455.1460905349794" font-size="10px">4x</text><text class="label" x="155.40356875462777" y="417.13991769547323" font-size="8px"></text><text class="label" x="155.0196437141774" y="430.3086419753086" font-size="8px"></text><text class="label" x="155.00007497253966" y="443.47736625514403" font-size="8px"></text><text class="label" x="155.0003171275618" y="456.6460905349794" font-size="8px"></text></g><g style="font-size: 13px;"><rect x="150" y="466.3991769547325" width="0.5706645995254483" height="12.510288065843621" fill="#4472c4"></rect><rect x="150" y="479.5679012345679" width="0.015426414036559312" height="12.510288065843621" fill="#ed7d31"></rect><rect x="150" y="492.73662551440333" width="0.00007497253966633346" height="12.510288065843621" fill="#a5a5a5"></rect><rect x="150" y="505.9053497942387" width="0.002344578190846485" height="12.510288065843621" fill="#ffc000"></rect><text class="label" x="159.07066459952546" y="474.8991769547325" font-size="10px">7,612x</text><text class="label" x="158.51542641403657" y="488.0679012345679" font-size="10px">206x</text><text class="label" x="158.50007497253966" y="501.23662551440333" font-size="10px">1x</text><text class="label" x="158.50234457819084" y="514.4053497942386" font-size="10px">31x</text><text class="label" x="155.57066459952546" y="476.3991769547325" font-size="8px"></text><text class="label" x="155.01542641403657" y="489.5679012345679" font-size="8px"></text><text class="label" x="155.00007497253966" y="502.73662551440333" font-size="8px"></text><text class="label" x="155.00234457819084" y="515.9053497942386" font-size="8px"></text></g></g></svg>