<svg xmlns="http://www.w3.org/2000/svg" xmlns:xlink="http://www.w3.org/1999/xlink" width="800" height="555" style="background-color: white;"><g class="y axis" transform="translate(149,45)" fill="none" font-size="10" font-family="sans-serif" text-anchor="end" style="font-size: 13px;"><path class="domain" stroke="currentColor" d="M0.5,0.5V480.5"></path><g class="tick" opacity="1" transform="translate(0,32.592592592592595)" style="font-size: 13px;"><line stroke="currentColor" x2="0"></line><text fill="currentColor" x="-3" dy="0.32em">object (simple)    </text></g><g class="tick" opacity="1" transform="translate(0,91.85185185185186)" style="font-size: 13px;"><line stroke="currentColor" x2="0"></line><text fill="currentColor" x="-3" dy="0.32em">object (hierarchical)    </text></g><g class="tick" opacity="1" transform="translate(0,151.11111111111111)" style="font-size: 13px;"><line stroke="currentColor" x2="0"></line><text fill="currentColor" x="-3" dy="0.32em">object (recursive)    </text></g><g class="tick" opacity="1" transform="translate(0,210.37037037037035)" style="font-size: 13px;"><line stroke="currentColor" x2="0"></line><text fill="currentColor" x="-3" dy="0.32em">object (union, explicit)    </text></g><g class="tick" opacity="1" transform="translate(0,269.6296296296296)" style="font-size: 13px;"><line stroke="currentColor" x2="0"></line><text fill="currentColor" x="-3" dy="0.32em">array (simple)    </text></g><g class="tick" opacity="1" transform="translate(0,328.8888888888889)" style="font-size: 13px;"><line stroke="currentColor" x2="0"></line><text fill="currentColor" x="-3" dy="0.32em">array (hierarchical)    </text></g><g class="tick" opacity="1" transform="translate(0,388.14814814814815)" style="font-size: 13px;"><line stroke="currentColor" x2="0"></line><text fill="currentColor" x="-3" dy="0.32em">array (recursive)    </text></g><g class="tick" opacity="1" transform="translate(0,447.40740740740745)" style="font-size: 13px;"><line stroke="currentColor" x2="0"></line><text fill="currentColor" x="-3" dy="0.32em">array (union, explicit)    </text></g></g><g class="x axis" transform="translate(149,525)" fill="none" font-size="10" font-family="sans-serif" text-anchor="middle" style="font-size: 13px;"><path class="domain" stroke="currentColor" d="M0.5,0.5H485.5"></path><g class="tick" opacity="1" transform="translate(0.5,0)" style="font-size: 13px;"><line stroke="currentColor" y2="6"></line><text fill="currentColor" y="9" dy="0.71em">0x</text></g><g class="tick" opacity="1" transform="translate(69.20825077815182,0)" style="font-size: 13px;"><line stroke="currentColor" y2="6"></line><text fill="currentColor" y="9" dy="0.71em">200,000x</text></g><g class="tick" opacity="1" transform="translate(137.91650155630364,0)" style="font-size: 13px;"><line stroke="currentColor" y2="6"></line><text fill="currentColor" y="9" dy="0.71em">400,000x</text></g><g class="tick" opacity="1" transform="translate(206.62475233445545,0)" style="font-size: 13px;"><line stroke="currentColor" y2="6"></line><text fill="currentColor" y="9" dy="0.71em">600,000x</text></g><g class="tick" opacity="1" transform="translate(275.3330031126073,0)" style="font-size: 13px;"><line stroke="currentColor" y2="6"></line><text fill="currentColor" y="9" dy="0.71em">800,000x</text></g><g class="tick" opacity="1" transform="translate(344.0412538907591,0)" style="font-size: 13px;"><line stroke="currentColor" y2="6"></line><text fill="currentColor" y="9" dy="0.71em">1,000,000x</text></g><g class="tick" opacity="1" transform="translate(412.7495046689109,0)" style="font-size: 13px;"><line stroke="currentColor" y2="6"></line><text fill="currentColor" y="9" dy="0.71em">1,200,000x</text></g><g class="tick" opacity="1" transform="translate(481.4577554470627,0)" style="font-size: 13px;"><line stroke="currentColor" y2="6"></line><text fill="currentColor" y="9" dy="0.71em">1,400,000x</text></g></g><text transform="translate(400, 30)" style="text-anchor: middle; font-size: 20px; font-weight: bold;">optimizer benchmark</text><rect x="650" y="125" width="230" height="5" fill="gray"></rect><rect x="645" y="35" width="230" height="90" fill="none" stroke="black"></rect><rect x="655" y="45" width="10" height="10" style="fill: #4472c4;"></rect><text x="670" y="55" style="font-size: 12px;">typia</text><rect x="655" y="65" width="10" height="10" style="fill: #ed7d31;"></rect><text x="670" y="75" style="font-size: 12px;">typebox</text><rect x="655" y="85" width="10" height="10" style="fill: #a5a5a5;"></rect><text x="670" y="95" style="font-size: 12px;">ajv</text><rect x="655" y="105" width="10" height="10" style="fill: #ffc000;"></rect><text x="670" y="115" style="font-size: 12px;">class-validator</text><g style="font-size: 13px;"><g style="font-size: 13px;"><rect x="150" y="51.584362139917694" width="440.9090909090909" height="12.510288065843621" fill="#4472c4"></rect><rect x="150" y="64.75308641975309" width="0.023493470035726167" height="12.510288065843621" fill="#ed7d31"></rect><rect x="150" y="77.92181069958848" width="0.0003435412538907591" height="12.510288065843621" fill="#a5a5a5"></rect><rect x="150" y="91.09053497942386" width="0.02118238610961081" height="12.510288065843621" fill="#ffc000"></rect><text class="label" x="599.4090909090909" y="60.084362139917694" font-size="10px">1,283,424x</text><text class="label" x="158.52349347003573" y="73.25308641975309" font-size="10px">68x</text><text class="label" x="158.5003435412539" y="86.42181069958848" font-size="10px">1x</text><text class="label" x="158.52118238610961" y="99.59053497942386" font-size="10px">62x</text><text class="label" x="595.9090909090909" y="61.584362139917694" font-size="8px"></text><text class="label" x="155.02349347003573" y="74.75308641975309" font-size="8px"></text><text class="label" x="155.0003435412539" y="87.92181069958848" font-size="8px"></text><text class="label" x="155.02118238610961" y="101.09053497942386" font-size="8px"></text></g><g style="font-size: 13px;"><rect x="150" y="110.84362139917695" width="20.61326051973604" height="12.510288065843621" fill="#4472c4"></rect><rect x="150" y="124.01234567901236" width="0.009208651305276835" height="12.510288065843621" fill="#ed7d31"></rect><rect x="150" y="137.18106995884773" width="0.0003435412538907591" height="12.510288065843621" fill="#a5a5a5"></rect><rect x="150" y="150.34979423868313" width="0.006544044269820961" height="12.510288065843621" fill="#ffc000"></rect><text class="label" x="179.11326051973603" y="119.34362139917695" font-size="10px">60,002x</text><text class="label" x="158.50920865130527" y="132.51234567901236" font-size="10px">27x</text><text class="label" x="158.5003435412539" y="145.68106995884773" font-size="10px">1x</text><text class="label" x="158.50654404426982" y="158.84979423868313" font-size="10px">19x</text><text class="label" x="175.61326051973603" y="120.84362139917695" font-size="8px"></text><text class="label" x="155.00920865130527" y="134.01234567901236" font-size="8px"></text><text class="label" x="155.0003435412539" y="147.18106995884773" font-size="8px"></text><text class="label" x="155.00654404426982" y="160.34979423868313" font-size="8px"></text></g><g style="font-size: 13px;"><rect x="150" y="170.10288065843622" width="5.7643120697627825" height="12.510288065843621" fill="#4472c4"></rect><rect x="150" y="183.2716049382716" width="0.025056251182938933" height="12.510288065843621" fill="#ed7d31"></rect><rect x="150" y="196.440329218107" width="0.0003435412538907591" height="12.510288065843621" fill="#a5a5a5"></rect><rect x="150" y="209.6090534979424" width="0.00358950889191616" height="12.510288065843621" fill="#ffc000"></rect><text class="label" x="164.26431206976278" y="178.60288065843622" font-size="10px">16,779x</text><text class="label" x="158.52505625118295" y="191.7716049382716" font-size="10px">73x</text><text class="label" x="158.5003435412539" y="204.940329218107" font-size="10px">1x</text><text class="label" x="158.5035895088919" y="218.1090534979424" font-size="10px">10x</text><text class="label" x="160.76431206976278" y="180.10288065843622" font-size="8px"></text><text class="label" x="155.02505625118295" y="193.2716049382716" font-size="8px"></text><text class="label" x="155.0003435412539" y="206.440329218107" font-size="8px"></text><text class="label" x="155.0035895088919" y="219.6090534979424" font-size="8px"></text></g><g style="font-size: 13px;"><rect x="150" y="229.36213991769546" width="1.6058137078892856" height="12.510288065843621" fill="#4472c4"></rect><rect x="150" y="242.53086419753086" width="0.009244029924724001" height="12.510288065843621" fill="#ed7d31"></rect><rect x="150" y="255.69958847736626" width="0.0003435412538907591" height="12.510288065843621" fill="#a5a5a5"></rect><rect x="150" y="268.86831275720164" width="0.0056469719539838205" height="12.510288065843621" fill="#ffc000"></rect><text class="label" x="160.1058137078893" y="237.86213991769546" font-size="10px">4,674x</text><text class="label" x="158.50924402992473" y="251.03086419753086" font-size="10px">27x</text><text class="label" x="158.5003435412539" y="264.19958847736626" font-size="10px">1x</text><text class="label" x="158.50564697195398" y="277.36831275720164" font-size="10px">16x</text><text class="label" x="156.6058137078893" y="239.36213991769546" font-size="8px"></text><text class="label" x="155.00924402992473" y="252.53086419753086" font-size="8px"></text><text class="label" x="155.0003435412539" y="265.69958847736626" font-size="8px"></text><text class="label" x="155.00564697195398" y="278.86831275720164" font-size="8px"></text></g><g style="font-size: 13px;"><rect x="150" y="288.6213991769547" width="2.1525629044788253" height="12.510288065843621" fill="#4472c4"></rect><rect x="150" y="301.7901234567901" width="0.029258708169960256" height="12.510288065843621" fill="#ed7d31"></rect><rect x="150" y="314.9588477366255" width="0.0003435412538907591" height="12.510288065843621" fill="#a5a5a5"></rect><rect x="150" y="328.12757201646093" width="0.0027789813166528535" height="12.510288065843621" fill="#ffc000"></rect><text class="label" x="160.65256290447883" y="297.1213991769547" font-size="10px">6,266x</text><text class="label" x="158.52925870816995" y="310.2901234567901" font-size="10px">85x</text><text class="label" x="158.5003435412539" y="323.4588477366255" font-size="10px">1x</text><text class="label" x="158.50277898131665" y="336.62757201646093" font-size="10px">8x</text><text class="label" x="157.15256290447883" y="298.6213991769547" font-size="8px"></text><text class="label" x="155.02925870816995" y="311.7901234567901" font-size="8px"></text><text class="label" x="155.0003435412539" y="324.9588477366255" font-size="8px"></text><text class="label" x="155.00277898131665" y="338.12757201646093" font-size="8px"></text></g><g style="font-size: 13px;"><rect x="150" y="347.880658436214" width="0.49123180135019506" height="12.510288065843621" fill="#4472c4"></rect><rect x="150" y="361.04938271604937" width="0.020440618620870127" height="12.510288065843621" fill="#ed7d31"></rect><rect x="150" y="374.2181069958848" width="0.0003802586078308287" height="12.510288065843621" fill="#a5a5a5"></rect><rect x="150" y="387.38683127572017" width="0.0003435412538907591" height="12.510288065843621" fill="#ffc000"></rect><text class="label" x="158.99123180135018" y="356.380658436214" font-size="10px">1,430x</text><text class="label" x="158.52044061862088" y="369.54938271604937" font-size="10px">59x</text><text class="label" x="158.50038025860783" y="382.7181069958848" font-size="10px">1x</text><text class="label" x="158.5003435412539" y="395.88683127572017" font-size="10px">1x</text><text class="label" x="155.49123180135018" y="357.880658436214" font-size="8px"></text><text class="label" x="155.02044061862088" y="371.04938271604937" font-size="8px"></text><text class="label" x="155.00038025860783" y="384.2181069958848" font-size="8px"></text><text class="label" x="155.0003435412539" y="397.38683127572017" font-size="8px"></text></g><g style="font-size: 13px;"><rect x="150" y="407.13991769547323" width="0.45856319994291067" height="12.510288065843621" fill="#4472c4"></rect><rect x="150" y="420.3086419753086" width="0.03140868570429248" height="12.510288065843621" fill="#ed7d31"></rect><rect x="150" y="433.47736625514403" width="0.0003909438764186898" height="12.510288065843621" fill="#a5a5a5"></rect><rect x="150" y="446.6460905349794" width="0.0003435412538907591" height="12.510288065843621" fill="#ffc000"></rect><text class="label" x="158.95856319994292" y="415.63991769547323" font-size="10px">1,335x</text><text class="label" x="158.5314086857043" y="428.8086419753086" font-size="10px">91x</text><text class="label" x="158.50039094387643" y="441.97736625514403" font-size="10px">1x</text><text class="label" x="158.5003435412539" y="455.1460905349794" font-size="10px">1x</text><text class="label" x="155.45856319994292" y="417.13991769547323" font-size="8px"></text><text class="label" x="155.0314086857043" y="430.3086419753086" font-size="8px"></text><text class="label" x="155.00039094387643" y="443.47736625514403" font-size="8px"></text><text class="label" x="155.0003435412539" y="456.6460905349794" font-size="8px"></text></g><g style="font-size: 13px;"><rect x="150" y="466.3991769547325" width="0.4920692498888498" height="12.510288065843621" fill="#4472c4"></rect><rect x="150" y="479.5679012345679" width="0.013641258214218797" height="12.510288065843621" fill="#ed7d31"></rect><rect x="150" y="492.73662551440333" width="0.0003435412538907591" height="12.510288065843621" fill="#a5a5a5"></rect><rect x="150" y="505.9053497942387" width="0.002022991639823054" height="12.510288065843621" fill="#ffc000"></rect><text class="label" x="158.99206924988886" y="474.8991769547325" font-size="10px">1,432x</text><text class="label" x="158.51364125821422" y="488.0679012345679" font-size="10px">40x</text><text class="label" x="158.5003435412539" y="501.23662551440333" font-size="10px">1x</text><text class="label" x="158.50202299163982" y="514.4053497942386" font-size="10px">6x</text><text class="label" x="155.49206924988886" y="476.3991769547325" font-size="8px"></text><text class="label" x="155.01364125821422" y="489.5679012345679" font-size="8px"></text><text class="label" x="155.0003435412539" y="502.73662551440333" font-size="8px"></text><text class="label" x="155.00202299163982" y="515.9053497942386" font-size="8px"></text></g></g></svg>