<svg xmlns="http://www.w3.org/2000/svg" xmlns:xlink="http://www.w3.org/1999/xlink" width="800" height="674" style="background-color: white;"><g class="y axis" transform="translate(149,45)" fill="none" font-size="10" font-family="sans-serif" text-anchor="end" style="font-size: 13px;"><path class="domain" stroke="currentColor" d="M0.5,0.5V480.5"></path><g class="tick" opacity="1" transform="translate(0,32.592592592592595)" style="font-size: 13px;"><line stroke="currentColor" x2="0"></line><text fill="currentColor" x="-3" dy="0.32em">object (simple)    </text></g><g class="tick" opacity="1" transform="translate(0,91.85185185185186)" style="font-size: 13px;"><line stroke="currentColor" x2="0"></line><text fill="currentColor" x="-3" dy="0.32em">object (hierarchical)    </text></g><g class="tick" opacity="1" transform="translate(0,151.11111111111111)" style="font-size: 13px;"><line stroke="currentColor" x2="0"></line><text fill="currentColor" x="-3" dy="0.32em">object (recursive)    </text></g><g class="tick" opacity="1" transform="translate(0,210.37037037037035)" style="font-size: 13px;"><line stroke="currentColor" x2="0"></line><text fill="currentColor" x="-3" dy="0.32em">object (union, explicit)    </text></g><g class="tick" opacity="1" transform="translate(0,269.6296296296296)" style="font-size: 13px;"><line stroke="currentColor" x2="0"></line><text fill="currentColor" x="-3" dy="0.32em">array (simple)    </text></g><g class="tick" opacity="1" transform="translate(0,328.8888888888889)" style="font-size: 13px;"><line stroke="currentColor" x2="0"></line><text fill="currentColor" x="-3" dy="0.32em">array (hierarchical)    </text></g><g class="tick" opacity="1" transform="translate(0,388.14814814814815)" style="font-size: 13px;"><line stroke="currentColor" x2="0"></line><text fill="currentColor" x="-3" dy="0.32em">array (recursive)    </text></g><g class="tick" opacity="1" transform="translate(0,447.40740740740745)" style="font-size: 13px;"><line stroke="currentColor" x2="0"></line><text fill="currentColor" x="-3" dy="0.32em">array (union, explicit)    </text></g></g><g class="x axis" transform="translate(149,525)" fill="none" font-size="10" font-family="sans-serif" text-anchor="middle" style="font-size: 13px;"><path class="domain" stroke="currentColor" d="M0.5,0.5H485.5"></path><g class="tick" opacity="1" transform="translate(0.5,0)" style="font-size: 13px;"><line stroke="currentColor" y2="6"></line><text fill="currentColor" y="9" dy="0.71em">0x</text></g><g class="tick" opacity="1" transform="translate(68.878374149994,0)" style="font-size: 13px;"><line stroke="currentColor" y2="6"></line><text fill="currentColor" y="9" dy="0.71em">200,000x</text></g><g class="tick" opacity="1" transform="translate(137.256748299988,0)" style="font-size: 13px;"><line stroke="currentColor" y2="6"></line><text fill="currentColor" y="9" dy="0.71em">400,000x</text></g><g class="tick" opacity="1" transform="translate(205.635122449982,0)" style="font-size: 13px;"><line stroke="currentColor" y2="6"></line><text fill="currentColor" y="9" dy="0.71em">600,000x</text></g><g class="tick" opacity="1" transform="translate(274.013496599976,0)" style="font-size: 13px;"><line stroke="currentColor" y2="6"></line><text fill="currentColor" y="9" dy="0.71em">800,000x</text></g><g class="tick" opacity="1" transform="translate(342.39187074997,0)" style="font-size: 13px;"><line stroke="currentColor" y2="6"></line><text fill="currentColor" y="9" dy="0.71em">1,000,000x</text></g><g class="tick" opacity="1" transform="translate(410.770244899964,0)" style="font-size: 13px;"><line stroke="currentColor" y2="6"></line><text fill="currentColor" y="9" dy="0.71em">1,200,000x</text></g><g class="tick" opacity="1" transform="translate(479.148619049958,0)" style="font-size: 13px;"><line stroke="currentColor" y2="6"></line><text fill="currentColor" y="9" dy="0.71em">1,400,000x</text></g></g><text transform="translate(400, 30)" style="text-anchor: middle; font-size: 20px; font-weight: bold;">optimizer benchmark</text><rect x="650" y="125" width="230" height="5" fill="gray"></rect><rect x="645" y="35" width="230" height="90" fill="none" stroke="black"></rect><rect x="655" y="45" width="10" height="10" style="fill: #4472c4;"></rect><text x="670" y="55" style="font-size: 12px;">typia</text><rect x="655" y="65" width="10" height="10" style="fill: #ed7d31;"></rect><text x="670" y="75" style="font-size: 12px;">typebox</text><rect x="655" y="85" width="10" height="10" style="fill: #a5a5a5;"></rect><text x="670" y="95" style="font-size: 12px;">ajv</text><rect x="655" y="105" width="10" height="10" style="fill: #ffc000;"></rect><text x="670" y="115" style="font-size: 12px;">class-validator</text><text x="20" y="589" style="font-size: 12px;">  - CPU: AMD Ryzen 7 6800HS with Radeon Graphics</text><text x="20" y="606" style="font-size: 12px;">  - OS: win32</text><text x="20" y="623" style="font-size: 12px;">  - RAM: 63 GB</text><text x="20" y="640" style="font-size: 12px;">  - NodeJS version: v16.19.0</text><text x="20" y="657" style="font-size: 12px;">  - Typia version: v3.7.3</text><g style="font-size: 13px;"><g style="font-size: 13px;"><rect x="150" y="51.584362139917694" width="440.9090909090908" height="12.510288065843621" fill="#4472c4"></rect><rect x="150" y="64.75308641975309" width="0.022842961651786224" height="12.510288065843621" fill="#ed7d31"></rect><rect x="150" y="77.92181069958848" width="0.00034189187074996994" height="12.510288065843621" fill="#a5a5a5"></rect><rect x="150" y="91.09053497942386" width="0.021741834920501597" height="12.510288065843621" fill="#ffc000"></rect><text class="label" x="599.4090909090908" y="60.084362139917694" font-size="10px">1,289,616x</text><text class="label" x="158.52284296165178" y="73.25308641975309" font-size="10px">67x</text><text class="label" x="158.50034189187076" y="86.42181069958848" font-size="10px">1x</text><text class="label" x="158.5217418349205" y="99.59053497942386" font-size="10px">64x</text><text class="label" x="595.9090909090908" y="61.584362139917694" font-size="8px"></text><text class="label" x="155.02284296165178" y="74.75308641975309" font-size="8px"></text><text class="label" x="155.00034189187076" y="87.92181069958848" font-size="8px"></text><text class="label" x="155.0217418349205" y="101.09053497942386" font-size="8px"></text></g><g style="font-size: 13px;"><rect x="150" y="110.84362139917695" width="21.582527892737563" height="12.510288065843621" fill="#4472c4"></rect><rect x="150" y="124.01234567901236" width="0.009251498059388014" height="12.510288065843621" fill="#ed7d31"></rect><rect x="150" y="137.18106995884773" width="0.00034189187074996994" height="12.510288065843621" fill="#a5a5a5"></rect><rect x="150" y="150.34979423868313" width="0.006484653064756558" height="12.510288065843621" fill="#ffc000"></rect><text class="label" x="180.08252789273757" y="119.34362139917695" font-size="10px">63,127x</text><text class="label" x="158.5092514980594" y="132.51234567901236" font-size="10px">27x</text><text class="label" x="158.50034189187076" y="145.68106995884773" font-size="10px">1x</text><text class="label" x="158.50648465306475" y="158.84979423868313" font-size="10px">19x</text><text class="label" x="176.58252789273757" y="120.84362139917695" font-size="8px"></text><text class="label" x="155.0092514980594" y="134.01234567901236" font-size="8px"></text><text class="label" x="155.00034189187076" y="147.18106995884773" font-size="8px"></text><text class="label" x="155.00648465306475" y="160.34979423868313" font-size="8px"></text></g><g style="font-size: 13px;"><rect x="150" y="170.10288065843622" width="5.841412836621094" height="12.510288065843621" fill="#4472c4"></rect><rect x="150" y="183.2716049382716" width="0.02673329039863898" height="12.510288065843621" fill="#ed7d31"></rect><rect x="150" y="196.440329218107" width="0.00034189187074996994" height="12.510288065843621" fill="#a5a5a5"></rect><rect x="150" y="209.6090534979424" width="0.0038488139561058446" height="12.510288065843621" fill="#ffc000"></rect><text class="label" x="164.3414128366211" y="178.60288065843622" font-size="10px">17,086x</text><text class="label" x="158.52673329039865" y="191.7716049382716" font-size="10px">78x</text><text class="label" x="158.50034189187076" y="204.940329218107" font-size="10px">1x</text><text class="label" x="158.5038488139561" y="218.1090534979424" font-size="10px">11x</text><text class="label" x="160.8414128366211" y="180.10288065843622" font-size="8px"></text><text class="label" x="155.02673329039865" y="193.2716049382716" font-size="8px"></text><text class="label" x="155.00034189187076" y="206.440329218107" font-size="8px"></text><text class="label" x="155.0038488139561" y="219.6090534979424" font-size="8px"></text></g><g style="font-size: 13px;"><rect x="150" y="229.36213991769546" width="1.7573813345080986" height="12.510288065843621" fill="#4472c4"></rect><rect x="150" y="242.53086419753086" width="0.009859241615406213" height="12.510288065843621" fill="#ed7d31"></rect><rect x="150" y="255.69958847736626" width="0.00034189187074996994" height="12.510288065843621" fill="#a5a5a5"></rect><rect x="150" y="268.86831275720164" width="0.006034241439876549" height="12.510288065843621" fill="#ffc000"></rect><text class="label" x="160.2573813345081" y="237.86213991769546" font-size="10px">5,140x</text><text class="label" x="158.5098592416154" y="251.03086419753086" font-size="10px">29x</text><text class="label" x="158.50034189187076" y="264.19958847736626" font-size="10px">1x</text><text class="label" x="158.50603424143986" y="277.36831275720164" font-size="10px">18x</text><text class="label" x="156.7573813345081" y="239.36213991769546" font-size="8px"></text><text class="label" x="155.0098592416154" y="252.53086419753086" font-size="8px"></text><text class="label" x="155.00034189187076" y="265.69958847736626" font-size="8px"></text><text class="label" x="155.00603424143986" y="278.86831275720164" font-size="8px"></text></g><g style="font-size: 13px;"><rect x="150" y="288.6213991769547" width="3.438176762241967" height="12.510288065843621" fill="#4472c4"></rect><rect x="150" y="301.7901234567901" width="0.013756210621750118" height="12.510288065843621" fill="#ed7d31"></rect><rect x="150" y="314.9588477366255" width="0.00034189187074996994" height="12.510288065843621" fill="#a5a5a5"></rect><rect x="150" y="328.12757201646093" width="0.006853189086476448" height="12.510288065843621" fill="#ffc000"></rect><text class="label" x="161.93817676224197" y="297.1213991769547" font-size="10px">10,056x</text><text class="label" x="158.51375621062175" y="310.2901234567901" font-size="10px">40x</text><text class="label" x="158.50034189187076" y="323.4588477366255" font-size="10px">1x</text><text class="label" x="158.50685318908648" y="336.62757201646093" font-size="10px">20x</text><text class="label" x="158.43817676224197" y="298.6213991769547" font-size="8px"></text><text class="label" x="155.01375621062175" y="311.7901234567901" font-size="8px"></text><text class="label" x="155.00034189187076" y="324.9588477366255" font-size="8px"></text><text class="label" x="155.00685318908648" y="338.12757201646093" font-size="8px"></text></g><g style="font-size: 13px;"><rect x="150" y="347.880658436214" width="0.8609122986336352" height="12.510288065843621" fill="#4472c4"></rect><rect x="150" y="361.04938271604937" width="0.05146374293949888" height="12.510288065843621" fill="#ed7d31"></rect><rect x="150" y="374.2181069958848" width="0.00034189187074996994" height="12.510288065843621" fill="#a5a5a5"></rect><rect x="150" y="387.38683127572017" width="0.0007201432434665164" height="12.510288065843621" fill="#ffc000"></rect><text class="label" x="159.36091229863362" y="356.380658436214" font-size="10px">2,518x</text><text class="label" x="158.5514637429395" y="369.54938271604937" font-size="10px">151x</text><text class="label" x="158.50034189187076" y="382.7181069958848" font-size="10px">1x</text><text class="label" x="158.50072014324346" y="395.88683127572017" font-size="10px">2x</text><text class="label" x="155.86091229863362" y="357.880658436214" font-size="8px"></text><text class="label" x="155.0514637429395" y="371.04938271604937" font-size="8px"></text><text class="label" x="155.00034189187076" y="384.2181069958848" font-size="8px"></text><text class="label" x="155.00072014324346" y="397.38683127572017" font-size="8px"></text></g><g style="font-size: 13px;"><rect x="150" y="407.13991769547323" width="0.5292377003282636" height="12.510288065843621" fill="#4472c4"></rect><rect x="150" y="420.3086419753086" width="0.02975320469917751" height="12.510288065843621" fill="#ed7d31"></rect><rect x="150" y="433.47736625514403" width="0.00037263713559428866" height="12.510288065843621" fill="#a5a5a5"></rect><rect x="150" y="446.6460905349794" width="0.00034189187074996994" height="12.510288065843621" fill="#ffc000"></rect><text class="label" x="159.02923770032825" y="415.63991769547323" font-size="10px">1,548x</text><text class="label" x="158.52975320469918" y="428.8086419753086" font-size="10px">87x</text><text class="label" x="158.5003726371356" y="441.97736625514403" font-size="10px">1x</text><text class="label" x="158.50034189187076" y="455.1460905349794" font-size="10px">1x</text><text class="label" x="155.52923770032825" y="417.13991769547323" font-size="8px"></text><text class="label" x="155.02975320469918" y="430.3086419753086" font-size="8px"></text><text class="label" x="155.0003726371356" y="443.47736625514403" font-size="8px"></text><text class="label" x="155.00034189187076" y="456.6460905349794" font-size="8px"></text></g><g style="font-size: 13px;"><rect x="150" y="466.3991769547325" width="0.4849025957664435" height="12.510288065843621" fill="#4472c4"></rect><rect x="150" y="479.5679012345679" width="0.013656673570510638" height="12.510288065843621" fill="#ed7d31"></rect><rect x="150" y="492.73662551440333" width="0.00034189187074996994" height="12.510288065843621" fill="#a5a5a5"></rect><rect x="150" y="505.9053497942387" width="0.0020670940526937988" height="12.510288065843621" fill="#ffc000"></rect><text class="label" x="158.98490259576644" y="474.8991769547325" font-size="10px">1,418x</text><text class="label" x="158.51365667357052" y="488.0679012345679" font-size="10px">40x</text><text class="label" x="158.50034189187076" y="501.23662551440333" font-size="10px">1x</text><text class="label" x="158.5020670940527" y="514.4053497942386" font-size="10px">6x</text><text class="label" x="155.48490259576644" y="476.3991769547325" font-size="8px"></text><text class="label" x="155.01365667357052" y="489.5679012345679" font-size="8px"></text><text class="label" x="155.00034189187076" y="502.73662551440333" font-size="8px"></text><text class="label" x="155.0020670940527" y="515.9053497942386" font-size="8px"></text></g></g></svg>