<svg xmlns="http://www.w3.org/2000/svg" xmlns:xlink="http://www.w3.org/1999/xlink" width="800" height="674" style="background-color: white;"><g class="y axis" transform="translate(149,45)" fill="none" font-size="10" font-family="sans-serif" text-anchor="end" style="font-size: 13px;"><path class="domain" stroke="currentColor" d="M0.5,0.5V480.5"></path><g class="tick" opacity="1" transform="translate(0,32.592592592592595)" style="font-size: 13px;"><line stroke="currentColor" x2="0"></line><text fill="currentColor" x="-3" dy="0.32em">object (simple)    </text></g><g class="tick" opacity="1" transform="translate(0,91.85185185185186)" style="font-size: 13px;"><line stroke="currentColor" x2="0"></line><text fill="currentColor" x="-3" dy="0.32em">object (hierarchical)    </text></g><g class="tick" opacity="1" transform="translate(0,151.11111111111111)" style="font-size: 13px;"><line stroke="currentColor" x2="0"></line><text fill="currentColor" x="-3" dy="0.32em">object (recursive)    </text></g><g class="tick" opacity="1" transform="translate(0,210.37037037037035)" style="font-size: 13px;"><line stroke="currentColor" x2="0"></line><text fill="currentColor" x="-3" dy="0.32em">object (union, explicit)    </text></g><g class="tick" opacity="1" transform="translate(0,269.6296296296296)" style="font-size: 13px;"><line stroke="currentColor" x2="0"></line><text fill="currentColor" x="-3" dy="0.32em">array (simple)    </text></g><g class="tick" opacity="1" transform="translate(0,328.8888888888889)" style="font-size: 13px;"><line stroke="currentColor" x2="0"></line><text fill="currentColor" x="-3" dy="0.32em">array (hierarchical)    </text></g><g class="tick" opacity="1" transform="translate(0,388.14814814814815)" style="font-size: 13px;"><line stroke="currentColor" x2="0"></line><text fill="currentColor" x="-3" dy="0.32em">array (recursive)    </text></g><g class="tick" opacity="1" transform="translate(0,447.40740740740745)" style="font-size: 13px;"><line stroke="currentColor" x2="0"></line><text fill="currentColor" x="-3" dy="0.32em">array (union, explicit)    </text></g></g><g class="x axis" transform="translate(149,525)" fill="none" font-size="10" font-family="sans-serif" text-anchor="middle" style="font-size: 13px;"><path class="domain" stroke="currentColor" d="M0.5,0.5H485.5"></path><g class="tick" opacity="1" transform="translate(0.5,0)" style="font-size: 13px;"><line stroke="currentColor" y2="6"></line><text fill="currentColor" y="9" dy="0.71em">0x</text></g><g class="tick" opacity="1" transform="translate(126.7894300046794,0)" style="font-size: 13px;"><line stroke="currentColor" y2="6"></line><text fill="currentColor" y="9" dy="0.71em">2,000,000x</text></g><g class="tick" opacity="1" transform="translate(253.0788600093588,0)" style="font-size: 13px;"><line stroke="currentColor" y2="6"></line><text fill="currentColor" y="9" dy="0.71em">4,000,000x</text></g><g class="tick" opacity="1" transform="translate(379.3682900140382,0)" style="font-size: 13px;"><line stroke="currentColor" y2="6"></line><text fill="currentColor" y="9" dy="0.71em">6,000,000x</text></g></g><text transform="translate(400, 30)" style="text-anchor: middle; font-size: 20px; font-weight: bold;">optimizer benchmark</text><rect x="650" y="125" width="230" height="5" fill="gray"></rect><rect x="645" y="35" width="230" height="90" fill="none" stroke="black"></rect><rect x="655" y="45" width="10" height="10" style="fill: #4472c4;"></rect><text x="670" y="55" style="font-size: 12px;">typia</text><rect x="655" y="65" width="10" height="10" style="fill: #ed7d31;"></rect><text x="670" y="75" style="font-size: 12px;">typebox</text><rect x="655" y="85" width="10" height="10" style="fill: #a5a5a5;"></rect><text x="670" y="95" style="font-size: 12px;">ajv</text><rect x="655" y="105" width="10" height="10" style="fill: #ffc000;"></rect><text x="670" y="115" style="font-size: 12px;">class-validator</text><text x="20" y="589" style="font-size: 12px;">  - CPU: AMD Ryzen 7 6800HS with Radeon Graphics</text><text x="20" y="606" style="font-size: 12px;">  - OS: win32</text><text x="20" y="623" style="font-size: 12px;">  - RAM: 63 GB</text><text x="20" y="640" style="font-size: 12px;">  - NodeJS version: v16.20.0</text><text x="20" y="657" style="font-size: 12px;">  - Typia version: v4.1.1</text><g style="font-size: 13px;"><g style="font-size: 13px;"><rect x="150" y="51.584362139917694" width="440.9090909090909" height="12.510288065843621" fill="#4472c4"></rect><rect x="150" y="64.75308641975309" width="0.020142937298811156" height="12.510288065843621" fill="#ed7d31"></rect><rect x="150" y="77.92181069958848" width="0.0000631447150023397" height="12.510288065843621" fill="#a5a5a5"></rect><rect x="150" y="91.09053497942386" width="0.02019104934301064" height="12.510288065843621" fill="#ffc000"></rect><text class="label" x="599.4090909090909" y="60.084362139917694" font-size="10px">6,982,518x</text><text class="label" x="158.5201429372988" y="73.25308641975309" font-size="10px">319x</text><text class="label" x="158.500063144715" y="86.42181069958848" font-size="10px">1x</text><text class="label" x="158.520191049343" y="99.59053497942386" font-size="10px">320x</text><text class="label" x="595.9090909090909" y="61.584362139917694" font-size="8px"></text><text class="label" x="155.0201429372988" y="74.75308641975309" font-size="8px"></text><text class="label" x="155.000063144715" y="87.92181069958848" font-size="8px"></text><text class="label" x="155.020191049343" y="101.09053497942386" font-size="8px"></text></g><g style="font-size: 13px;"><rect x="150" y="110.84362139917695" width="18.907188237629175" height="12.510288065843621" fill="#4472c4"></rect><rect x="150" y="124.01234567901236" width="0.008808475008514446" height="12.510288065843621" fill="#ed7d31"></rect><rect x="150" y="137.18106995884773" width="0.0000631447150023397" height="12.510288065843621" fill="#a5a5a5"></rect><rect x="150" y="150.34979423868313" width="0.009846052738421126" height="12.510288065843621" fill="#ffc000"></rect><text class="label" x="177.40718823762919" y="119.34362139917695" font-size="10px">299,426x</text><text class="label" x="158.50880847500852" y="132.51234567901236" font-size="10px">139x</text><text class="label" x="158.500063144715" y="145.68106995884773" font-size="10px">1x</text><text class="label" x="158.50984605273842" y="158.84979423868313" font-size="10px">156x</text><text class="label" x="173.90718823762919" y="120.84362139917695" font-size="8px"></text><text class="label" x="155.00880847500852" y="134.01234567901236" font-size="8px"></text><text class="label" x="155.000063144715" y="147.18106995884773" font-size="8px"></text><text class="label" x="155.00984605273842" y="160.34979423868313" font-size="8px"></text></g><g style="font-size: 13px;"><rect x="150" y="170.10288065843622" width="5.248063048843134" height="12.510288065843621" fill="#4472c4"></rect><rect x="150" y="183.2716049382716" width="0.016116152385263253" height="12.510288065843621" fill="#ed7d31"></rect><rect x="150" y="196.440329218107" width="0.0000631447150023397" height="12.510288065843621" fill="#a5a5a5"></rect><rect x="150" y="209.6090534979424" width="0.0033897188427585608" height="12.510288065843621" fill="#ffc000"></rect><text class="label" x="163.74806304884314" y="178.60288065843622" font-size="10px">83,112x</text><text class="label" x="158.51611615238525" y="191.7716049382716" font-size="10px">255x</text><text class="label" x="158.500063144715" y="204.940329218107" font-size="10px">1x</text><text class="label" x="158.50338971884275" y="218.1090534979424" font-size="10px">54x</text><text class="label" x="160.24806304884314" y="180.10288065843622" font-size="8px"></text><text class="label" x="155.01611615238525" y="193.2716049382716" font-size="8px"></text><text class="label" x="155.000063144715" y="206.440329218107" font-size="8px"></text><text class="label" x="155.00338971884275" y="219.6090534979424" font-size="8px"></text></g><g style="font-size: 13px;"><rect x="150" y="229.36213991769546" width="1.6614119633740596" height="12.510288065843621" fill="#4472c4"></rect><rect x="150" y="242.53086419753086" width="0.008698927811361876" height="12.510288065843621" fill="#ed7d31"></rect><rect x="150" y="255.69958847736626" width="0.0000631447150023397" height="12.510288065843621" fill="#a5a5a5"></rect><rect x="150" y="268.86831275720164" width="0.005683983476184589" height="12.510288065843621" fill="#ffc000"></rect><text class="label" x="160.16141196337406" y="237.86213991769546" font-size="10px">26,311x</text><text class="label" x="158.50869892781137" y="251.03086419753086" font-size="10px">138x</text><text class="label" x="158.500063144715" y="264.19958847736626" font-size="10px">1x</text><text class="label" x="158.5056839834762" y="277.36831275720164" font-size="10px">90x</text><text class="label" x="156.66141196337406" y="239.36213991769546" font-size="8px"></text><text class="label" x="155.00869892781137" y="252.53086419753086" font-size="8px"></text><text class="label" x="155.000063144715" y="265.69958847736626" font-size="8px"></text><text class="label" x="155.0056839834762" y="278.86831275720164" font-size="8px"></text></g><g style="font-size: 13px;"><rect x="150" y="288.6213991769547" width="1.3335518746609802" height="12.510288065843621" fill="#4472c4"></rect><rect x="150" y="301.7901234567901" width="0.013789354168132827" height="12.510288065843621" fill="#ed7d31"></rect><rect x="150" y="314.9588477366255" width="0.0000631447150023397" height="12.510288065843621" fill="#a5a5a5"></rect><rect x="150" y="328.12757201646093" width="0.002474350242306323" height="12.510288065843621" fill="#ffc000"></rect><text class="label" x="159.83355187466097" y="297.1213991769547" font-size="10px">21,119x</text><text class="label" x="158.51378935416813" y="310.2901234567901" font-size="10px">218x</text><text class="label" x="158.500063144715" y="323.4588477366255" font-size="10px">1x</text><text class="label" x="158.5024743502423" y="336.62757201646093" font-size="10px">39x</text><text class="label" x="156.33355187466097" y="298.6213991769547" font-size="8px"></text><text class="label" x="155.01378935416813" y="311.7901234567901" font-size="8px"></text><text class="label" x="155.000063144715" y="324.9588477366255" font-size="8px"></text><text class="label" x="155.0024743502423" y="338.12757201646093" font-size="8px"></text></g><g style="font-size: 13px;"><rect x="150" y="347.880658436214" width="0.6407149828316072" height="12.510288065843621" fill="#4472c4"></rect><rect x="150" y="361.04938271604937" width="0.024346871614985787" height="12.510288065843621" fill="#ed7d31"></rect><rect x="150" y="374.2181069958848" width="0.0000631447150023397" height="12.510288065843621" fill="#a5a5a5"></rect><rect x="150" y="387.38683127572017" width="0.0005074905410243924" height="12.510288065843621" fill="#ffc000"></rect><text class="label" x="159.1407149828316" y="356.380658436214" font-size="10px">10,147x</text><text class="label" x="158.524346871615" y="369.54938271604937" font-size="10px">386x</text><text class="label" x="158.500063144715" y="382.7181069958848" font-size="10px">1x</text><text class="label" x="158.50050749054103" y="395.88683127572017" font-size="10px">8x</text><text class="label" x="155.6407149828316" y="357.880658436214" font-size="8px"></text><text class="label" x="155.024346871615" y="371.04938271604937" font-size="8px"></text><text class="label" x="155.000063144715" y="384.2181069958848" font-size="8px"></text><text class="label" x="155.00050749054103" y="397.38683127572017" font-size="8px"></text></g><g style="font-size: 13px;"><rect x="150" y="407.13991769547323" width="0.4382365641591059" height="12.510288065843621" fill="#4472c4"></rect><rect x="150" y="420.3086419753086" width="0.01639067110179866" height="12.510288065843621" fill="#ed7d31"></rect><rect x="150" y="433.47736625514403" width="0.0000631447150023397" height="12.510288065843621" fill="#a5a5a5"></rect><rect x="150" y="446.6460905349794" width="0.0002875533768938488" height="12.510288065843621" fill="#ffc000"></rect><text class="label" x="158.9382365641591" y="415.63991769547323" font-size="10px">6,940x</text><text class="label" x="158.5163906711018" y="428.8086419753086" font-size="10px">260x</text><text class="label" x="158.500063144715" y="441.97736625514403" font-size="10px">1x</text><text class="label" x="158.5002875533769" y="455.1460905349794" font-size="10px">5x</text><text class="label" x="155.4382365641591" y="417.13991769547323" font-size="8px"></text><text class="label" x="155.0163906711018" y="430.3086419753086" font-size="8px"></text><text class="label" x="155.000063144715" y="443.47736625514403" font-size="8px"></text><text class="label" x="155.0002875533769" y="456.6460905349794" font-size="8px"></text></g><g style="font-size: 13px;"><rect x="150" y="466.3991769547325" width="0.4744040899317854" height="12.510288065843621" fill="#4472c4"></rect><rect x="150" y="479.5679012345679" width="0.012236478082972567" height="12.510288065843621" fill="#ed7d31"></rect><rect x="150" y="492.73662551440333" width="0.0000631447150023397" height="12.510288065843621" fill="#a5a5a5"></rect><rect x="150" y="505.9053497942387" width="0.0019793096511327396" height="12.510288065843621" fill="#ffc000"></rect><text class="label" x="158.9744040899318" y="474.8991769547325" font-size="10px">7,513x</text><text class="label" x="158.51223647808297" y="488.0679012345679" font-size="10px">194x</text><text class="label" x="158.500063144715" y="501.23662551440333" font-size="10px">1x</text><text class="label" x="158.50197930965112" y="514.4053497942386" font-size="10px">31x</text><text class="label" x="155.4744040899318" y="476.3991769547325" font-size="8px"></text><text class="label" x="155.01223647808297" y="489.5679012345679" font-size="8px"></text><text class="label" x="155.000063144715" y="502.73662551440333" font-size="8px"></text><text class="label" x="155.00197930965112" y="515.9053497942386" font-size="8px"></text></g></g></svg>