<svg xmlns="http://www.w3.org/2000/svg" xmlns:xlink="http://www.w3.org/1999/xlink" width="800" height="555" style="background-color: white;"><g class="y axis" transform="translate(149,45)" fill="none" font-size="10" font-family="sans-serif" text-anchor="end" style="font-size: 13px;"><path class="domain" stroke="currentColor" d="M0.5,0.5V480.5"></path><g class="tick" opacity="1" transform="translate(0,32.592592592592595)" style="font-size: 13px;"><line stroke="currentColor" x2="0"></line><text fill="currentColor" x="-3" dy="0.32em">object (simple)    </text></g><g class="tick" opacity="1" transform="translate(0,91.85185185185186)" style="font-size: 13px;"><line stroke="currentColor" x2="0"></line><text fill="currentColor" x="-3" dy="0.32em">object (hierarchical)    </text></g><g class="tick" opacity="1" transform="translate(0,151.11111111111111)" style="font-size: 13px;"><line stroke="currentColor" x2="0"></line><text fill="currentColor" x="-3" dy="0.32em">object (recursive)    </text></g><g class="tick" opacity="1" transform="translate(0,210.37037037037035)" style="font-size: 13px;"><line stroke="currentColor" x2="0"></line><text fill="currentColor" x="-3" dy="0.32em">object (union, explicit)    </text></g><g class="tick" opacity="1" transform="translate(0,269.6296296296296)" style="font-size: 13px;"><line stroke="currentColor" x2="0"></line><text fill="currentColor" x="-3" dy="0.32em">array (simple)    </text></g><g class="tick" opacity="1" transform="translate(0,328.8888888888889)" style="font-size: 13px;"><line stroke="currentColor" x2="0"></line><text fill="currentColor" x="-3" dy="0.32em">array (hierarchical)    </text></g><g class="tick" opacity="1" transform="translate(0,388.14814814814815)" style="font-size: 13px;"><line stroke="currentColor" x2="0"></line><text fill="currentColor" x="-3" dy="0.32em">array (recursive)    </text></g><g class="tick" opacity="1" transform="translate(0,447.40740740740745)" style="font-size: 13px;"><line stroke="currentColor" x2="0"></line><text fill="currentColor" x="-3" dy="0.32em">array (union, explicit)    </text></g></g><g class="x axis" transform="translate(149,525)" fill="none" font-size="10" font-family="sans-serif" text-anchor="middle" style="font-size: 13px;"><path class="domain" stroke="currentColor" d="M0.5,0.5H485.5"></path><g class="tick" opacity="1" transform="translate(0.5,0)" style="font-size: 13px;"><line stroke="currentColor" y2="6"></line><text fill="currentColor" y="9" dy="0.71em">0x</text></g><g class="tick" opacity="1" transform="translate(70.84710212444962,0)" style="font-size: 13px;"><line stroke="currentColor" y2="6"></line><text fill="currentColor" y="9" dy="0.71em">200,000x</text></g><g class="tick" opacity="1" transform="translate(141.19420424889924,0)" style="font-size: 13px;"><line stroke="currentColor" y2="6"></line><text fill="currentColor" y="9" dy="0.71em">400,000x</text></g><g class="tick" opacity="1" transform="translate(211.54130637334885,0)" style="font-size: 13px;"><line stroke="currentColor" y2="6"></line><text fill="currentColor" y="9" dy="0.71em">600,000x</text></g><g class="tick" opacity="1" transform="translate(281.8884084977985,0)" style="font-size: 13px;"><line stroke="currentColor" y2="6"></line><text fill="currentColor" y="9" dy="0.71em">800,000x</text></g><g class="tick" opacity="1" transform="translate(352.23551062224806,0)" style="font-size: 13px;"><line stroke="currentColor" y2="6"></line><text fill="currentColor" y="9" dy="0.71em">1,000,000x</text></g><g class="tick" opacity="1" transform="translate(422.5826127466977,0)" style="font-size: 13px;"><line stroke="currentColor" y2="6"></line><text fill="currentColor" y="9" dy="0.71em">1,200,000x</text></g></g><text transform="translate(400, 30)" style="text-anchor: middle; font-size: 20px; font-weight: bold;">optimizer benchmark</text><rect x="650" y="125" width="230" height="5" fill="gray"></rect><rect x="645" y="35" width="230" height="90" fill="none" stroke="black"></rect><rect x="655" y="45" width="10" height="10" style="fill: #4472c4;"></rect><text x="670" y="55" style="font-size: 12px;">typia</text><rect x="655" y="65" width="10" height="10" style="fill: #ed7d31;"></rect><text x="670" y="75" style="font-size: 12px;">typebox</text><rect x="655" y="85" width="10" height="10" style="fill: #a5a5a5;"></rect><text x="670" y="95" style="font-size: 12px;">ajv</text><rect x="655" y="105" width="10" height="10" style="fill: #ffc000;"></rect><text x="670" y="115" style="font-size: 12px;">class-validator</text><g style="font-size: 13px;"><g style="font-size: 13px;"><rect x="150" y="51.584362139917694" width="440.9090909090909" height="12.510288065843621" fill="#4472c4"></rect><rect x="150" y="64.75308641975309" width="0.02430538435001739" height="12.510288065843621" fill="#ed7d31"></rect><rect x="150" y="77.92181069958848" width="0.0003517355106222481" height="12.510288065843621" fill="#a5a5a5"></rect><rect x="150" y="91.09053497942386" width="0.022340999317145716" height="12.510288065843621" fill="#ffc000"></rect><text class="label" x="599.4090909090909" y="60.084362139917694" font-size="10px">1,253,525x</text><text class="label" x="158.52430538435001" y="73.25308641975309" font-size="10px">69x</text><text class="label" x="158.50035173551063" y="86.42181069958848" font-size="10px">1x</text><text class="label" x="158.52234099931715" y="99.59053497942386" font-size="10px">64x</text><text class="label" x="595.9090909090909" y="61.584362139917694" font-size="8px"></text><text class="label" x="155.02430538435001" y="74.75308641975309" font-size="8px"></text><text class="label" x="155.00035173551063" y="87.92181069958848" font-size="8px"></text><text class="label" x="155.02234099931715" y="101.09053497942386" font-size="8px"></text></g><g style="font-size: 13px;"><rect x="150" y="110.84362139917695" width="22.384831964719893" height="12.510288065843621" fill="#4472c4"></rect><rect x="150" y="124.01234567901236" width="0.009790375600929697" height="12.510288065843621" fill="#ed7d31"></rect><rect x="150" y="137.18106995884773" width="0.0003517355106222481" height="12.510288065843621" fill="#a5a5a5"></rect><rect x="150" y="150.34979423868313" width="0.007025914862992991" height="12.510288065843621" fill="#ffc000"></rect><text class="label" x="180.8848319647199" y="119.34362139917695" font-size="10px">63,641x</text><text class="label" x="158.50979037560094" y="132.51234567901236" font-size="10px">28x</text><text class="label" x="158.50035173551063" y="145.68106995884773" font-size="10px">1x</text><text class="label" x="158.507025914863" y="158.84979423868313" font-size="10px">20x</text><text class="label" x="177.3848319647199" y="120.84362139917695" font-size="8px"></text><text class="label" x="155.00979037560094" y="134.01234567901236" font-size="8px"></text><text class="label" x="155.00035173551063" y="147.18106995884773" font-size="8px"></text><text class="label" x="155.007025914863" y="160.34979423868313" font-size="8px"></text></g><g style="font-size: 13px;"><rect x="150" y="170.10288065843622" width="5.822677603364088" height="12.510288065843621" fill="#4472c4"></rect><rect x="150" y="183.2716049382716" width="0.02533475205750841" height="12.510288065843621" fill="#ed7d31"></rect><rect x="150" y="196.440329218107" width="0.0003517355106222481" height="12.510288065843621" fill="#a5a5a5"></rect><rect x="150" y="209.6090534979424" width="0.0038101016457272323" height="12.510288065843621" fill="#ffc000"></rect><text class="label" x="164.3226776033641" y="178.60288065843622" font-size="10px">16,554x</text><text class="label" x="158.52533475205752" y="191.7716049382716" font-size="10px">72x</text><text class="label" x="158.50035173551063" y="204.940329218107" font-size="10px">1x</text><text class="label" x="158.50381010164574" y="218.1090534979424" font-size="10px">11x</text><text class="label" x="160.8226776033641" y="180.10288065843622" font-size="8px"></text><text class="label" x="155.02533475205752" y="193.2716049382716" font-size="8px"></text><text class="label" x="155.00035173551063" y="206.440329218107" font-size="8px"></text><text class="label" x="155.00381010164574" y="219.6090534979424" font-size="8px"></text></g><g style="font-size: 13px;"><rect x="150" y="229.36213991769546" width="1.7736736495050152" height="12.510288065843621" fill="#4472c4"></rect><rect x="150" y="242.53086419753086" width="0.009582256695744756" height="12.510288065843621" fill="#ed7d31"></rect><rect x="150" y="255.69958847736626" width="0.0003517355106222481" height="12.510288065843621" fill="#a5a5a5"></rect><rect x="150" y="268.86831275720164" width="0.006064201242276132" height="12.510288065843621" fill="#ffc000"></rect><text class="label" x="160.273673649505" y="237.86213991769546" font-size="10px">5,043x</text><text class="label" x="158.50958225669575" y="251.03086419753086" font-size="10px">27x</text><text class="label" x="158.50035173551063" y="264.19958847736626" font-size="10px">1x</text><text class="label" x="158.50606420124228" y="277.36831275720164" font-size="10px">17x</text><text class="label" x="156.773673649505" y="239.36213991769546" font-size="8px"></text><text class="label" x="155.00958225669575" y="252.53086419753086" font-size="8px"></text><text class="label" x="155.00035173551063" y="265.69958847736626" font-size="8px"></text><text class="label" x="155.00606420124228" y="278.86831275720164" font-size="8px"></text></g><g style="font-size: 13px;"><rect x="150" y="288.6213991769547" width="1.3031939756889332" height="12.510288065843621" fill="#4472c4"></rect><rect x="150" y="301.7901234567901" width="0.0181575302234241" height="12.510288065843621" fill="#ed7d31"></rect><rect x="150" y="314.9588477366255" width="0.0003517355106222481" height="12.510288065843621" fill="#a5a5a5"></rect><rect x="150" y="328.12757201646093" width="0.002422010139808782" height="12.510288065843621" fill="#ffc000"></rect><text class="label" x="159.80319397568894" y="297.1213991769547" font-size="10px">3,705x</text><text class="label" x="158.51815753022342" y="310.2901234567901" font-size="10px">52x</text><text class="label" x="158.50035173551063" y="323.4588477366255" font-size="10px">1x</text><text class="label" x="158.5024220101398" y="336.62757201646093" font-size="10px">7x</text><text class="label" x="156.30319397568894" y="298.6213991769547" font-size="8px"></text><text class="label" x="155.01815753022342" y="311.7901234567901" font-size="8px"></text><text class="label" x="155.00035173551063" y="324.9588477366255" font-size="8px"></text><text class="label" x="155.0024220101398" y="338.12757201646093" font-size="8px"></text></g><g style="font-size: 13px;"><rect x="150" y="347.880658436214" width="0.4910071531953832" height="12.510288065843621" fill="#4472c4"></rect><rect x="150" y="361.04938271604937" width="0.010769956282116928" height="12.510288065843621" fill="#ed7d31"></rect><rect x="150" y="374.2181069958848" width="0.0004949369029317204" height="12.510288065843621" fill="#a5a5a5"></rect><rect x="150" y="387.38683127572017" width="0.0003517355106222481" height="12.510288065843621" fill="#ffc000"></rect><text class="label" x="158.99100715319537" y="356.380658436214" font-size="10px">1,396x</text><text class="label" x="158.5107699562821" y="369.54938271604937" font-size="10px">31x</text><text class="label" x="158.50049493690292" y="382.7181069958848" font-size="10px">1x</text><text class="label" x="158.50035173551063" y="395.88683127572017" font-size="10px">1x</text><text class="label" x="155.49100715319537" y="357.880658436214" font-size="8px"></text><text class="label" x="155.0107699562821" y="371.04938271604937" font-size="8px"></text><text class="label" x="155.00049493690292" y="384.2181069958848" font-size="8px"></text><text class="label" x="155.00035173551063" y="397.38683127572017" font-size="8px"></text></g><g style="font-size: 13px;"><rect x="150" y="407.13991769547323" width="0.49118367229953286" height="12.510288065843621" fill="#4472c4"></rect><rect x="150" y="420.3086419753086" width="0.03315430752128001" height="12.510288065843621" fill="#ed7d31"></rect><rect x="150" y="433.47736625514403" width="0.00040813087362228306" height="12.510288065843621" fill="#a5a5a5"></rect><rect x="150" y="446.6460905349794" width="0.0003517355106222481" height="12.510288065843621" fill="#ffc000"></rect><text class="label" x="158.99118367229954" y="415.63991769547323" font-size="10px">1,396x</text><text class="label" x="158.53315430752127" y="428.8086419753086" font-size="10px">94x</text><text class="label" x="158.5004081308736" y="441.97736625514403" font-size="10px">1x</text><text class="label" x="158.50035173551063" y="455.1460905349794" font-size="10px">1x</text><text class="label" x="155.49118367229954" y="417.13991769547323" font-size="8px"></text><text class="label" x="155.03315430752127" y="430.3086419753086" font-size="8px"></text><text class="label" x="155.0004081308736" y="443.47736625514403" font-size="8px"></text><text class="label" x="155.00035173551063" y="456.6460905349794" font-size="8px"></text></g><g style="font-size: 13px;"><rect x="150" y="466.3991769547325" width="0.5071051070583977" height="12.510288065843621" fill="#4472c4"></rect><rect x="150" y="479.5679012345679" width="0.013860420304779197" height="12.510288065843621" fill="#ed7d31"></rect><rect x="150" y="492.73662551440333" width="0.0003517355106222481" height="12.510288065843621" fill="#a5a5a5"></rect><rect x="150" y="505.9053497942387" width="0.0019992023974938268" height="12.510288065843621" fill="#ffc000"></rect><text class="label" x="159.0071051070584" y="474.8991769547325" font-size="10px">1,442x</text><text class="label" x="158.51386042030478" y="488.0679012345679" font-size="10px">39x</text><text class="label" x="158.50035173551063" y="501.23662551440333" font-size="10px">1x</text><text class="label" x="158.50199920239749" y="514.4053497942386" font-size="10px">6x</text><text class="label" x="155.5071051070584" y="476.3991769547325" font-size="8px"></text><text class="label" x="155.01386042030478" y="489.5679012345679" font-size="8px"></text><text class="label" x="155.00035173551063" y="502.73662551440333" font-size="8px"></text><text class="label" x="155.00199920239749" y="515.9053497942386" font-size="8px"></text></g></g></svg>