<svg xmlns="http://www.w3.org/2000/svg" xmlns:xlink="http://www.w3.org/1999/xlink" width="800" height="914" style="background-color: white;"><g class="y axis" transform="translate(149,45)" fill="none" font-size="10" font-family="sans-serif" text-anchor="end" style="font-size: 13px;"><path class="domain" stroke="currentColor" d="M0.5,0.5V720.5"></path><g class="tick" opacity="1" transform="translate(0,48.88888888888886)" style="font-size: 13px;"><line stroke="currentColor" x2="0"></line><text fill="currentColor" x="-3" dy="0.32em">object (simple)    </text></g><g class="tick" opacity="1" transform="translate(0,137.77777777777774)" style="font-size: 13px;"><line stroke="currentColor" x2="0"></line><text fill="currentColor" x="-3" dy="0.32em">object (hierarchical)    </text></g><g class="tick" opacity="1" transform="translate(0,226.66666666666663)" style="font-size: 13px;"><line stroke="currentColor" x2="0"></line><text fill="currentColor" x="-3" dy="0.32em">object (recursive)    </text></g><g class="tick" opacity="1" transform="translate(0,315.5555555555555)" style="font-size: 13px;"><line stroke="currentColor" x2="0"></line><text fill="currentColor" x="-3" dy="0.32em">object (union, explicit)    </text></g><g class="tick" opacity="1" transform="translate(0,404.4444444444444)" style="font-size: 13px;"><line stroke="currentColor" x2="0"></line><text fill="currentColor" x="-3" dy="0.32em">array (simple)    </text></g><g class="tick" opacity="1" transform="translate(0,493.3333333333333)" style="font-size: 13px;"><line stroke="currentColor" x2="0"></line><text fill="currentColor" x="-3" dy="0.32em">array (hierarchical)    </text></g><g class="tick" opacity="1" transform="translate(0,582.2222222222222)" style="font-size: 13px;"><line stroke="currentColor" x2="0"></line><text fill="currentColor" x="-3" dy="0.32em">array (recursive)    </text></g><g class="tick" opacity="1" transform="translate(0,671.1111111111111)" style="font-size: 13px;"><line stroke="currentColor" x2="0"></line><text fill="currentColor" x="-3" dy="0.32em">array (union, explicit)    </text></g></g><g class="x axis" transform="translate(149,765)" fill="none" font-size="10" font-family="sans-serif" text-anchor="middle" style="font-size: 13px;"><path class="domain" stroke="currentColor" d="M0.5,0.5H485.5"></path><g class="tick" opacity="1" transform="translate(0.5,0)" style="font-size: 13px;"><line stroke="currentColor" y2="6"></line><text fill="currentColor" y="9" dy="0.71em">0x</text></g><g class="tick" opacity="1" transform="translate(134.27729225784316,0)" style="font-size: 13px;"><line stroke="currentColor" y2="6"></line><text fill="currentColor" y="9" dy="0.71em">10x</text></g><g class="tick" opacity="1" transform="translate(268.0545845156863,0)" style="font-size: 13px;"><line stroke="currentColor" y2="6"></line><text fill="currentColor" y="9" dy="0.71em">20x</text></g><g class="tick" opacity="1" transform="translate(401.8318767735295,0)" style="font-size: 13px;"><line stroke="currentColor" y2="6"></line><text fill="currentColor" y="9" dy="0.71em">30x</text></g></g><text transform="translate(400, 30)" style="text-anchor: middle; font-size: 20px; font-weight: bold;">server benchmark</text><rect x="650" y="165" width="230" height="5" fill="gray"></rect><rect x="645" y="35" width="230" height="130" fill="none" stroke="black"></rect><rect x="655" y="45" width="10" height="10" style="fill: #4472c4;"></rect><text x="670" y="55" style="font-size: 12px;">fastify-class-transformer</text><rect x="655" y="65" width="10" height="10" style="fill: #ed7d31;"></rect><text x="670" y="75" style="font-size: 12px;">fastify-pure</text><rect x="655" y="85" width="10" height="10" style="fill: #a5a5a5;"></rect><text x="670" y="95" style="font-size: 12px;">fastify-typia</text><rect x="655" y="105" width="10" height="10" style="fill: #ffc000;"></rect><text x="670" y="115" style="font-size: 12px;">express-typia</text><rect x="655" y="125" width="10" height="10" style="fill: #5b9bd5;"></rect><text x="670" y="135" style="font-size: 12px;">express-pure</text><rect x="655" y="145" width="10" height="10" style="fill: #70ad47;"></rect><text x="670" y="155" style="font-size: 12px;">express-class-transformer</text><text x="20" y="829" style="font-size: 12px;">  - CPU: AMD Ryzen 7 6800HS with Radeon Graphics</text><text x="20" y="846" style="font-size: 12px;">  - OS: win32</text><text x="20" y="863" style="font-size: 12px;">  - RAM: 63 GB</text><text x="20" y="880" style="font-size: 12px;">  - NodeJS version: v16.20.0</text><text x="20" y="897" style="font-size: 12px;">  - Typia version: v4.0.12-dev.20230619</text><g style="font-size: 13px;"><g style="font-size: 13px;"><rect x="150" y="54.55004591368224" width="13.377729225784316" height="12.56198347107438" fill="#4472c4"></rect><rect x="150" y="67.77318640955001" width="187.2041195974708" height="12.56198347107438" fill="#ed7d31"></rect><rect x="150" y="80.99632690541777" width="203.51295545424486" height="12.56198347107438" fill="#a5a5a5"></rect><rect x="150" y="94.21946740128556" width="131.95424132596162" height="12.56198347107438" fill="#ffc000"></rect><rect x="150" y="107.44260789715332" width="99.43757825146105" height="12.56198347107438" fill="#5b9bd5"></rect><rect x="150" y="120.66574839302109" width="13.607185852629092" height="12.56198347107438" fill="#70ad47"></rect><text class="label" x="171.87772922578432" y="63.05004591368224" font-size="10px">1x</text><text class="label" x="345.7041195974708" y="76.27318640955001" font-size="10px">13.99x</text><text class="label" x="362.0129554542449" y="89.49632690541777" font-size="10px">15.21x</text><text class="label" x="290.4542413259616" y="102.71946740128556" font-size="10px">9.86x</text><text class="label" x="257.93757825146105" y="115.94260789715332" font-size="10px">7.43x</text><text class="label" x="172.1071858526291" y="129.1657483930211" font-size="10px">1.02x</text><text class="label" x="168.37772922578432" y="64.55004591368224" font-size="8px"></text><text class="label" x="342.2041195974708" y="77.77318640955001" font-size="8px"></text><text class="label" x="358.5129554542449" y="90.99632690541777" font-size="8px"></text><text class="label" x="286.9542413259616" y="104.21946740128556" font-size="8px"></text><text class="label" x="254.43757825146105" y="117.44260789715332" font-size="8px"></text><text class="label" x="168.6071858526291" y="130.6657483930211" font-size="8px"></text></g><g style="font-size: 13px;"><rect x="150" y="143.4389348025711" width="13.377729225784316" height="12.56198347107438" fill="#4472c4"></rect><rect x="150" y="156.66207529843888" width="188.12214930527242" height="12.56198347107438" fill="#ed7d31"></rect><rect x="150" y="169.88521579430665" width="202.33861951303027" height="12.56198347107438" fill="#a5a5a5"></rect><rect x="150" y="183.10835629017444" width="162.2050439576144" height="12.56198347107438" fill="#ffc000"></rect><rect x="150" y="196.3314967860422" width="120.62974168214625" height="12.56198347107438" fill="#5b9bd5"></rect><rect x="150" y="209.55463728190998" width="13.415394078906921" height="12.56198347107438" fill="#70ad47"></rect><text class="label" x="171.87772922578432" y="151.9389348025711" font-size="10px">1x</text><text class="label" x="346.6221493052724" y="165.16207529843888" font-size="10px">14.06x</text><text class="label" x="360.83861951303027" y="178.38521579430665" font-size="10px">15.13x</text><text class="label" x="320.7050439576144" y="191.60835629017444" font-size="10px">12.13x</text><text class="label" x="279.12974168214623" y="204.8314967860422" font-size="10px">9.02x</text><text class="label" x="171.91539407890693" y="218.05463728190998" font-size="10px">1x</text><text class="label" x="168.37772922578432" y="153.4389348025711" font-size="8px"></text><text class="label" x="343.1221493052724" y="166.66207529843888" font-size="8px"></text><text class="label" x="357.33861951303027" y="179.88521579430665" font-size="8px"></text><text class="label" x="317.2050439576144" y="193.10835629017444" font-size="8px"></text><text class="label" x="275.62974168214623" y="206.3314967860422" font-size="8px"></text><text class="label" x="168.41539407890693" y="219.55463728190998" font-size="8px"></text></g><g style="font-size: 13px;"><rect x="150" y="232.32782369146003" width="13.377729225784316" height="12.56198347107438" fill="#4472c4"></rect><rect x="150" y="245.5509641873278" width="133.4167395698151" height="12.56198347107438" fill="#ed7d31"></rect><rect x="150" y="258.77410468319556" width="243.43679897311716" height="12.56198347107438" fill="#a5a5a5"></rect><rect x="150" y="271.9972451790633" width="207.2364362469562" height="12.56198347107438" fill="#ffc000"></rect><rect x="150" y="285.2203856749311" width="140.93769306429036" height="12.56198347107438" fill="#5b9bd5"></rect><rect x="150" y="298.44352617079886" width="13.644080854224894" height="12.56198347107438" fill="#70ad47"></rect><text class="label" x="171.87772922578432" y="240.82782369146003" font-size="10px">1x</text><text class="label" x="291.9167395698151" y="254.0509641873278" font-size="10px">9.97x</text><text class="label" x="401.93679897311716" y="267.27410468319556" font-size="10px">18.2x</text><text class="label" x="365.7364362469562" y="280.4972451790633" font-size="10px">15.49x</text><text class="label" x="299.43769306429033" y="293.7203856749311" font-size="10px">10.54x</text><text class="label" x="172.14408085422488" y="306.94352617079886" font-size="10px">1.02x</text><text class="label" x="168.37772922578432" y="242.32782369146003" font-size="8px"></text><text class="label" x="288.4167395698151" y="255.5509641873278" font-size="8px"></text><text class="label" x="398.43679897311716" y="268.77410468319556" font-size="8px"></text><text class="label" x="362.2364362469562" y="281.9972451790633" font-size="8px"></text><text class="label" x="295.93769306429033" y="295.2203856749311" font-size="8px"></text><text class="label" x="168.64408085422488" y="308.44352617079886" font-size="8px"></text></g><g style="font-size: 13px;"><rect x="150" y="321.2167125803489" width="13.377729225784316" height="12.56198347107438" fill="#4472c4"></rect><rect x="150" y="334.43985307621665" width="260.4841390528296" height="12.56198347107438" fill="#ed7d31"></rect><rect x="150" y="347.6629935720844" width="440.9090909090909" height="12.56198347107438" fill="#a5a5a5"></rect><rect x="150" y="360.8861340679522" width="367.5841958417601" height="12.56198347107438" fill="#ffc000"></rect><rect x="150" y="374.10927456381995" width="228.55615235443946" height="12.56198347107438" fill="#5b9bd5"></rect><rect x="150" y="387.3324150596877" width="13.464809143508946" height="12.56198347107438" fill="#70ad47"></rect><text class="label" x="171.87772922578432" y="329.7167125803489" font-size="10px">1x</text><text class="label" x="418.9841390528296" y="342.93985307621665" font-size="10px">19.47x</text><text class="label" x="599.4090909090909" y="356.1629935720844" font-size="10px">32.96x</text><text class="label" x="526.0841958417601" y="369.3861340679522" font-size="10px">27.48x</text><text class="label" x="387.05615235443946" y="382.60927456381995" font-size="10px">17.08x</text><text class="label" x="171.96480914350894" y="395.8324150596877" font-size="10px">1.01x</text><text class="label" x="168.37772922578432" y="331.2167125803489" font-size="8px"></text><text class="label" x="415.4841390528296" y="344.43985307621665" font-size="8px"></text><text class="label" x="595.9090909090909" y="357.6629935720844" font-size="8px"></text><text class="label" x="522.5841958417601" y="370.8861340679522" font-size="8px"></text><text class="label" x="383.55615235443946" y="384.10927456381995" font-size="8px"></text><text class="label" x="168.46480914350894" y="397.3324150596877" font-size="8px"></text></g><g style="font-size: 13px;"><rect x="150" y="410.1056014692378" width="13.377729225784316" height="12.56198347107438" fill="#4472c4"></rect><rect x="150" y="423.32874196510556" width="163.30242466915197" height="12.56198347107438" fill="#ed7d31"></rect><rect x="150" y="436.55188246097333" width="159.5826603267912" height="12.56198347107438" fill="#a5a5a5"></rect><rect x="150" y="449.7750229568411" width="137.62765006722088" height="12.56198347107438" fill="#ffc000"></rect><rect x="150" y="462.99816345270887" width="145.7817259431058" height="12.56198347107438" fill="#5b9bd5"></rect><rect x="150" y="476.22130394857663" width="13.530738561501913" height="12.56198347107438" fill="#70ad47"></rect><text class="label" x="171.87772922578432" y="418.6056014692378" font-size="10px">1x</text><text class="label" x="321.80242466915195" y="431.82874196510556" font-size="10px">12.21x</text><text class="label" x="318.0826603267912" y="445.05188246097333" font-size="10px">11.93x</text><text class="label" x="296.1276500672209" y="458.2750229568411" font-size="10px">10.29x</text><text class="label" x="304.2817259431058" y="471.49816345270887" font-size="10px">10.9x</text><text class="label" x="172.03073856150192" y="484.72130394857663" font-size="10px">1.01x</text><text class="label" x="168.37772922578432" y="420.1056014692378" font-size="8px"></text><text class="label" x="318.30242466915195" y="433.32874196510556" font-size="8px"></text><text class="label" x="314.5826603267912" y="446.55188246097333" font-size="8px"></text><text class="label" x="292.6276500672209" y="459.7750229568411" font-size="8px"></text><text class="label" x="300.7817259431058" y="472.99816345270887" font-size="8px"></text><text class="label" x="168.53073856150192" y="486.22130394857663" font-size="8px"></text></g><g style="font-size: 13px;"><rect x="150" y="498.9944903581267" width="13.377729225784316" height="12.56198347107438" fill="#4472c4"></rect><rect x="150" y="512.2176308539945" width="140.05117069514554" height="12.56198347107438" fill="#ed7d31"></rect><rect x="150" y="525.4407713498622" width="337.8487079278941" height="12.56198347107438" fill="#a5a5a5"></rect><rect x="150" y="538.66391184573" width="323.6992361563712" height="12.56198347107438" fill="#ffc000"></rect><rect x="150" y="551.8870523415978" width="225.64528025273066" height="12.56198347107438" fill="#5b9bd5"></rect><rect x="150" y="565.1101928374655" width="16.887302589121997" height="12.56198347107438" fill="#70ad47"></rect><text class="label" x="171.87772922578432" y="507.4944903581267" font-size="10px">1x</text><text class="label" x="298.5511706951455" y="520.7176308539945" font-size="10px">10.47x</text><text class="label" x="496.3487079278941" y="533.9407713498622" font-size="10px">25.25x</text><text class="label" x="482.1992361563712" y="547.16391184573" font-size="10px">24.2x</text><text class="label" x="384.1452802527307" y="560.3870523415978" font-size="10px">16.87x</text><text class="label" x="175.387302589122" y="573.6101928374655" font-size="10px">1.26x</text><text class="label" x="168.37772922578432" y="508.9944903581267" font-size="8px"></text><text class="label" x="295.0511706951455" y="522.2176308539945" font-size="8px"></text><text class="label" x="492.8487079278941" y="535.4407713498622" font-size="8px"></text><text class="label" x="478.6992361563712" y="548.66391184573" font-size="8px"></text><text class="label" x="380.6452802527307" y="561.8870523415978" font-size="8px"></text><text class="label" x="171.887302589122" y="575.1101928374655" font-size="8px"></text></g><g style="font-size: 13px;"><rect x="150" y="587.8833792470156" width="13.976894561597657" height="12.56198347107438" fill="#4472c4"></rect><rect x="150" y="601.1065197428833" width="128.30622557177517" height="12.56198347107438" fill="#ed7d31"></rect><rect x="150" y="614.3296602387511" width="223.13629298548577" height="12.56198347107438" fill="#a5a5a5"></rect><rect x="150" y="627.5528007346188" width="216.56490199101881" height="12.56198347107438" fill="#ffc000"></rect><rect x="150" y="640.7759412304866" width="175.35615961199983" height="12.56198347107438" fill="#5b9bd5"></rect><rect x="150" y="653.9990817263545" width="13.377729225784316" height="12.56198347107438" fill="#70ad47"></rect><text class="label" x="172.47689456159765" y="596.3833792470156" font-size="10px">1.04x</text><text class="label" x="286.80622557177514" y="609.6065197428833" font-size="10px">9.59x</text><text class="label" x="381.63629298548574" y="622.8296602387511" font-size="10px">16.68x</text><text class="label" x="375.0649019910188" y="636.0528007346188" font-size="10px">16.19x</text><text class="label" x="333.85615961199983" y="649.2759412304866" font-size="10px">13.11x</text><text class="label" x="171.87772922578432" y="662.4990817263545" font-size="10px">1x</text><text class="label" x="168.97689456159765" y="597.8833792470156" font-size="8px"></text><text class="label" x="283.30622557177514" y="611.1065197428833" font-size="8px"></text><text class="label" x="378.13629298548574" y="624.3296602387511" font-size="8px"></text><text class="label" x="371.5649019910188" y="637.5528007346188" font-size="8px"></text><text class="label" x="330.35615961199983" y="650.7759412304866" font-size="8px"></text><text class="label" x="168.37772922578432" y="663.9990817263545" font-size="8px"></text></g><g style="font-size: 13px;"><rect x="150" y="676.7722681359045" width="15.025386474735434" height="12.56198347107438" fill="#4472c4"></rect><rect x="150" y="689.9954086317722" width="58.98136915541688" height="12.56198347107438" fill="#ed7d31"></rect><rect x="150" y="703.21854912764" width="282.30856330736395" height="12.56198347107438" fill="#a5a5a5"></rect><rect x="150" y="716.4416896235077" width="257.188997500359" height="12.56198347107438" fill="#ffc000"></rect><rect x="150" y="729.6648301193756" width="253.5559698504648" height="12.56198347107438" fill="#5b9bd5"></rect><rect x="150" y="742.8879706152434" width="13.377729225784316" height="12.56198347107438" fill="#70ad47"></rect><text class="label" x="173.52538647473543" y="685.2722681359045" font-size="10px">1.12x</text><text class="label" x="217.48136915541687" y="698.4954086317722" font-size="10px">4.41x</text><text class="label" x="440.80856330736395" y="711.71854912764" font-size="10px">21.1x</text><text class="label" x="415.688997500359" y="724.9416896235077" font-size="10px">19.23x</text><text class="label" x="412.0559698504648" y="738.1648301193756" font-size="10px">18.95x</text><text class="label" x="171.87772922578432" y="751.3879706152434" font-size="10px">1x</text><text class="label" x="170.02538647473543" y="686.7722681359045" font-size="8px"></text><text class="label" x="213.98136915541687" y="699.9954086317722" font-size="8px"></text><text class="label" x="437.30856330736395" y="713.21854912764" font-size="8px"></text><text class="label" x="412.188997500359" y="726.4416896235077" font-size="8px"></text><text class="label" x="408.5559698504648" y="739.6648301193756" font-size="8px"></text><text class="label" x="168.37772922578432" y="752.8879706152434" font-size="8px"></text></g></g></svg>