<svg xmlns="http://www.w3.org/2000/svg" xmlns:xlink="http://www.w3.org/1999/xlink" width="800" height="794" style="background-color: white;"><g class="y axis" transform="translate(149,45)" fill="none" font-size="10" font-family="sans-serif" text-anchor="end" style="font-size: 13px;"><path class="domain" stroke="currentColor" d="M0.5,0.5V600.5"></path><g class="tick" opacity="1" transform="translate(0,40.740740740740726)" style="font-size: 13px;"><line stroke="currentColor" x2="0"></line><text fill="currentColor" x="-3" dy="0.32em">object (simple)    </text></g><g class="tick" opacity="1" transform="translate(0,114.81481481481481)" style="font-size: 13px;"><line stroke="currentColor" x2="0"></line><text fill="currentColor" x="-3" dy="0.32em">object (hierarchical)    </text></g><g class="tick" opacity="1" transform="translate(0,188.88888888888889)" style="font-size: 13px;"><line stroke="currentColor" x2="0"></line><text fill="currentColor" x="-3" dy="0.32em">object (recursive)    </text></g><g class="tick" opacity="1" transform="translate(0,262.96296296296293)" style="font-size: 13px;"><line stroke="currentColor" x2="0"></line><text fill="currentColor" x="-3" dy="0.32em">object (union, explicit)    </text></g><g class="tick" opacity="1" transform="translate(0,337.037037037037)" style="font-size: 13px;"><line stroke="currentColor" x2="0"></line><text fill="currentColor" x="-3" dy="0.32em">array (simple)    </text></g><g class="tick" opacity="1" transform="translate(0,411.1111111111111)" style="font-size: 13px;"><line stroke="currentColor" x2="0"></line><text fill="currentColor" x="-3" dy="0.32em">array (hierarchical)    </text></g><g class="tick" opacity="1" transform="translate(0,485.18518518518516)" style="font-size: 13px;"><line stroke="currentColor" x2="0"></line><text fill="currentColor" x="-3" dy="0.32em">array (recursive)    </text></g><g class="tick" opacity="1" transform="translate(0,559.2592592592592)" style="font-size: 13px;"><line stroke="currentColor" x2="0"></line><text fill="currentColor" x="-3" dy="0.32em">array (union, explicit)    </text></g></g><g class="x axis" transform="translate(149,645)" fill="none" font-size="10" font-family="sans-serif" text-anchor="middle" style="font-size: 13px;"><path class="domain" stroke="currentColor" d="M0.5,0.5H485.5"></path><g class="tick" opacity="1" transform="translate(0.5,0)" style="font-size: 13px;"><line stroke="currentColor" y2="6"></line><text fill="currentColor" y="9" dy="0.71em">0x</text></g><g class="tick" opacity="1" transform="translate(102.07275742784026,0)" style="font-size: 13px;"><line stroke="currentColor" y2="6"></line><text fill="currentColor" y="9" dy="0.71em">5x</text></g><g class="tick" opacity="1" transform="translate(203.64551485568052,0)" style="font-size: 13px;"><line stroke="currentColor" y2="6"></line><text fill="currentColor" y="9" dy="0.71em">10x</text></g><g class="tick" opacity="1" transform="translate(305.2182722835208,0)" style="font-size: 13px;"><line stroke="currentColor" y2="6"></line><text fill="currentColor" y="9" dy="0.71em">15x</text></g><g class="tick" opacity="1" transform="translate(406.79102971136103,0)" style="font-size: 13px;"><line stroke="currentColor" y2="6"></line><text fill="currentColor" y="9" dy="0.71em">20x</text></g></g><text transform="translate(400, 30)" style="text-anchor: middle; font-size: 20px; font-weight: bold;">server-assert benchmark</text><rect x="650" y="145" width="230" height="5" fill="gray"></rect><rect x="645" y="35" width="230" height="110" fill="none" stroke="black"></rect><rect x="655" y="45" width="10" height="10" style="fill: #4472c4;"></rect><text x="670" y="55" style="font-size: 12px;">fastify-typia</text><rect x="655" y="65" width="10" height="10" style="fill: #ed7d31;"></rect><text x="670" y="75" style="font-size: 12px;">fastify-pure</text><rect x="655" y="85" width="10" height="10" style="fill: #a5a5a5;"></rect><text x="670" y="95" style="font-size: 12px;">fastify-class-transformer</text><rect x="655" y="105" width="10" height="10" style="fill: #ffc000;"></rect><text x="670" y="115" style="font-size: 12px;">express-typia</text><rect x="655" y="125" width="10" height="10" style="fill: #5b9bd5;"></rect><text x="670" y="135" style="font-size: 12px;">express-class-transformer</text><text x="20" y="709" style="font-size: 12px;">  - CPU: AMD Ryzen 7 6800HS with Radeon Graphics</text><text x="20" y="726" style="font-size: 12px;">  - OS: win32</text><text x="20" y="743" style="font-size: 12px;">  - RAM: 63 GB</text><text x="20" y="760" style="font-size: 12px;">  - NodeJS version: v16.20.0</text><text x="20" y="777" style="font-size: 12px;">  - Typia version: v4.1.1</text><g style="font-size: 13px;"><g style="font-size: 13px;"><rect x="150" y="53.06747341400805" width="226.85505202292532" height="12.541254125412543" fill="#4472c4"></rect><rect x="150" y="66.26879354602124" width="223.96550128904377" height="12.541254125412543" fill="#ed7d31"></rect><rect x="150" y="79.47011367803445" width="21.938137898258464" height="12.541254125412543" fill="#a5a5a5"></rect><rect x="150" y="92.67143381004766" width="165.28902805258738" height="12.541254125412543" fill="#ffc000"></rect><rect x="150" y="105.87275394206085" width="20.314551485568053" height="12.541254125412543" fill="#5b9bd5"></rect><text class="label" x="385.3550520229253" y="61.56747341400805" font-size="10px">11.17x</text><text class="label" x="382.4655012890438" y="74.76879354602124" font-size="10px">11.02x</text><text class="label" x="180.43813789825847" y="87.97011367803445" font-size="10px">1.08x</text><text class="label" x="323.78902805258735" y="101.17143381004766" font-size="10px">8.14x</text><text class="label" x="178.81455148556805" y="114.37275394206085" font-size="10px">1x</text><text class="label" x="381.8550520229253" y="63.06747341400805" font-size="8px"></text><text class="label" x="378.9655012890438" y="76.26879354602124" font-size="8px"></text><text class="label" x="176.93813789825847" y="89.47011367803445" font-size="8px"></text><text class="label" x="320.28902805258735" y="102.67143381004766" font-size="8px"></text><text class="label" x="175.31455148556805" y="115.87275394206085" font-size="8px"></text></g><g style="font-size: 13px;"><rect x="150" y="127.14154748808213" width="252.25400097974153" height="12.541254125412543" fill="#4472c4"></rect><rect x="150" y="140.34286762009532" width="243.7105673756166" height="12.541254125412543" fill="#ed7d31"></rect><rect x="150" y="153.54418775210854" width="21.37684015625606" height="12.541254125412543" fill="#a5a5a5"></rect><rect x="150" y="166.74550788412174" width="229.94653316227496" height="12.541254125412543" fill="#ffc000"></rect><rect x="150" y="179.94682801613493" width="20.314551485568053" height="12.541254125412543" fill="#5b9bd5"></rect><text class="label" x="410.75400097974153" y="135.64154748808213" font-size="10px">12.42x</text><text class="label" x="402.2105673756166" y="148.84286762009532" font-size="10px">12x</text><text class="label" x="179.87684015625607" y="162.04418775210854" font-size="10px">1.05x</text><text class="label" x="388.44653316227493" y="175.24550788412174" font-size="10px">11.32x</text><text class="label" x="178.81455148556805" y="188.44682801613493" font-size="10px">1x</text><text class="label" x="407.25400097974153" y="137.14154748808213" font-size="8px"></text><text class="label" x="398.7105673756166" y="150.34286762009532" font-size="8px"></text><text class="label" x="176.37684015625607" y="163.54418775210854" font-size="8px"></text><text class="label" x="384.94653316227493" y="176.74550788412174" font-size="8px"></text><text class="label" x="175.31455148556805" y="189.94682801613493" font-size="8px"></text></g><g style="font-size: 13px;"><rect x="150" y="201.2156215621562" width="287.53107605110137" height="12.541254125412543" fill="#4472c4"></rect><rect x="150" y="214.4169416941694" width="269.4526976013474" height="12.541254125412543" fill="#ed7d31"></rect><rect x="150" y="227.61826182618262" width="21.959377531264263" height="12.541254125412543" fill="#a5a5a5"></rect><rect x="150" y="240.8195819581958" width="266.772217111181" height="12.541254125412543" fill="#ffc000"></rect><rect x="150" y="254.020902090209" width="20.314551485568053" height="12.541254125412543" fill="#5b9bd5"></rect><text class="label" x="446.03107605110137" y="209.7156215621562" font-size="10px">14.15x</text><text class="label" x="427.9526976013474" y="222.9169416941694" font-size="10px">13.26x</text><text class="label" x="180.45937753126427" y="236.11826182618262" font-size="10px">1.08x</text><text class="label" x="425.272217111181" y="249.3195819581958" font-size="10px">13.13x</text><text class="label" x="178.81455148556805" y="262.520902090209" font-size="10px">1x</text><text class="label" x="442.53107605110137" y="211.2156215621562" font-size="8px"></text><text class="label" x="424.4526976013474" y="224.4169416941694" font-size="8px"></text><text class="label" x="176.95937753126427" y="237.61826182618262" font-size="8px"></text><text class="label" x="421.772217111181" y="250.8195819581958" font-size="8px"></text><text class="label" x="175.31455148556805" y="264.020902090209" font-size="8px"></text></g><g style="font-size: 13px;"><rect x="150" y="275.28969563623025" width="440.9090909090908" height="12.541254125412543" fill="#4472c4"></rect><rect x="150" y="288.49101576824347" width="296.49345573078665" height="12.541254125412543" fill="#ed7d31"></rect><rect x="150" y="301.6923359002567" width="20.400458890432976" height="12.541254125412543" fill="#a5a5a5"></rect><rect x="150" y="314.89365603226986" width="432.00743811144474" height="12.541254125412543" fill="#ffc000"></rect><rect x="150" y="328.0949761642831" width="20.314551485568053" height="12.541254125412543" fill="#5b9bd5"></rect><text class="label" x="599.4090909090908" y="283.78969563623025" font-size="10px">21.7x</text><text class="label" x="454.99345573078665" y="296.99101576824347" font-size="10px">14.6x</text><text class="label" x="178.900458890433" y="310.1923359002567" font-size="10px">1x</text><text class="label" x="590.5074381114448" y="323.39365603226986" font-size="10px">21.27x</text><text class="label" x="178.81455148556805" y="336.5949761642831" font-size="10px">1x</text><text class="label" x="595.9090909090908" y="285.28969563623025" font-size="8px"></text><text class="label" x="451.49345573078665" y="298.49101576824347" font-size="8px"></text><text class="label" x="175.400458890433" y="311.6923359002567" font-size="8px"></text><text class="label" x="587.0074381114448" y="324.89365603226986" font-size="8px"></text><text class="label" x="175.31455148556805" y="338.0949761642831" font-size="8px"></text></g><g style="font-size: 13px;"><rect x="150" y="349.3637697103044" width="269.45263494977706" height="12.541254125412543" fill="#4472c4"></rect><rect x="150" y="362.56508984231755" width="259.72183352046716" height="12.541254125412543" fill="#ed7d31"></rect><rect x="150" y="375.76640997433077" width="20.380482215439752" height="12.541254125412543" fill="#a5a5a5"></rect><rect x="150" y="388.967730106344" width="260.6362232773713" height="12.541254125412543" fill="#ffc000"></rect><rect x="150" y="402.16905023835716" width="20.314551485568053" height="12.541254125412543" fill="#5b9bd5"></rect><text class="label" x="427.95263494977706" y="357.8637697103044" font-size="10px">13.26x</text><text class="label" x="418.22183352046716" y="371.06508984231755" font-size="10px">12.79x</text><text class="label" x="178.88048221543974" y="384.26640997433077" font-size="10px">1x</text><text class="label" x="419.1362232773713" y="397.467730106344" font-size="10px">12.83x</text><text class="label" x="178.81455148556805" y="410.66905023835716" font-size="10px">1x</text><text class="label" x="424.45263494977706" y="359.3637697103044" font-size="8px"></text><text class="label" x="414.72183352046716" y="372.56508984231755" font-size="8px"></text><text class="label" x="175.38048221543974" y="385.76640997433077" font-size="8px"></text><text class="label" x="415.6362232773713" y="398.967730106344" font-size="8px"></text><text class="label" x="175.31455148556805" y="412.16905023835716" font-size="8px"></text></g><g style="font-size: 13px;"><rect x="150" y="423.4378437843784" width="343.2195958651085" height="12.541254125412543" fill="#4472c4"></rect><rect x="150" y="436.6391639163916" width="336.16383801734827" height="12.541254125412543" fill="#ed7d31"></rect><rect x="150" y="449.84048404840485" width="20.314551485568053" height="12.541254125412543" fill="#a5a5a5"></rect><rect x="150" y="463.041804180418" width="394.4994854759452" height="12.541254125412543" fill="#ffc000"></rect><rect x="150" y="476.24312431243123" width="25.029763537857285" height="12.541254125412543" fill="#5b9bd5"></rect><text class="label" x="501.7195958651085" y="431.9378437843784" font-size="10px">16.9x</text><text class="label" x="494.66383801734827" y="445.1391639163916" font-size="10px">16.55x</text><text class="label" x="178.81455148556805" y="458.34048404840485" font-size="10px">1x</text><text class="label" x="552.9994854759452" y="471.541804180418" font-size="10px">19.42x</text><text class="label" x="183.5297635378573" y="484.74312431243123" font-size="10px">1.23x</text><text class="label" x="498.2195958651085" y="433.4378437843784" font-size="8px"></text><text class="label" x="491.16383801734827" y="446.6391639163916" font-size="8px"></text><text class="label" x="175.31455148556805" y="459.84048404840485" font-size="8px"></text><text class="label" x="549.4994854759452" y="473.041804180418" font-size="8px"></text><text class="label" x="180.0297635378573" y="486.24312431243123" font-size="8px"></text></g><g style="font-size: 13px;"><rect x="150" y="497.51191785845253" width="324.56410502162146" height="12.541254125412543" fill="#4472c4"></rect><rect x="150" y="510.7132379904657" width="317.5735039540598" height="12.541254125412543" fill="#ed7d31"></rect><rect x="150" y="523.9145581224789" width="20.314551485568053" height="12.541254125412543" fill="#a5a5a5"></rect><rect x="150" y="537.1158782544921" width="345.6778589136048" height="12.541254125412543" fill="#ffc000"></rect><rect x="150" y="550.3171983865053" width="20.952501931056798" height="12.541254125412543" fill="#5b9bd5"></rect><text class="label" x="483.06410502162146" y="506.01191785845253" font-size="10px">15.98x</text><text class="label" x="476.0735039540598" y="519.2132379904657" font-size="10px">15.63x</text><text class="label" x="178.81455148556805" y="532.4145581224789" font-size="10px">1x</text><text class="label" x="504.1778589136048" y="545.6158782544921" font-size="10px">17.02x</text><text class="label" x="179.4525019310568" y="558.8171983865053" font-size="10px">1.03x</text><text class="label" x="479.56410502162146" y="507.51191785845253" font-size="8px"></text><text class="label" x="472.5735039540598" y="520.7132379904657" font-size="8px"></text><text class="label" x="175.31455148556805" y="533.9145581224789" font-size="8px"></text><text class="label" x="500.6778589136048" y="547.1158782544921" font-size="8px"></text><text class="label" x="175.9525019310568" y="560.3171983865053" font-size="8px"></text></g><g style="font-size: 13px;"><rect x="150" y="571.5859919325266" width="394.8450070209352" height="12.541254125412543" fill="#4472c4"></rect><rect x="150" y="584.7873120645397" width="254.83358147487615" height="12.541254125412543" fill="#ed7d31"></rect><rect x="150" y="597.9886321965529" width="20.672395820607715" height="12.541254125412543" fill="#a5a5a5"></rect><rect x="150" y="611.1899523285662" width="401.0011424816461" height="12.541254125412543" fill="#ffc000"></rect><rect x="150" y="624.3912724605793" width="20.314551485568053" height="12.541254125412543" fill="#5b9bd5"></rect><text class="label" x="553.3450070209352" y="580.0859919325266" font-size="10px">19.44x</text><text class="label" x="413.33358147487615" y="593.2873120645397" font-size="10px">12.54x</text><text class="label" x="179.1723958206077" y="606.4886321965529" font-size="10px">1.02x</text><text class="label" x="559.5011424816462" y="619.6899523285662" font-size="10px">19.74x</text><text class="label" x="178.81455148556805" y="632.8912724605793" font-size="10px">1x</text><text class="label" x="549.8450070209352" y="581.5859919325266" font-size="8px"></text><text class="label" x="409.83358147487615" y="594.7873120645397" font-size="8px"></text><text class="label" x="175.6723958206077" y="607.9886321965529" font-size="8px"></text><text class="label" x="556.0011424816462" y="621.1899523285662" font-size="8px"></text><text class="label" x="175.31455148556805" y="634.3912724605793" font-size="8px"></text></g></g></svg>