<svg xmlns="http://www.w3.org/2000/svg" xmlns:xlink="http://www.w3.org/1999/xlink" width="800" height="794" style="background-color: white;"><g class="y axis" transform="translate(149,45)" fill="none" font-size="10" font-family="sans-serif" text-anchor="end" style="font-size: 13px;"><path class="domain" stroke="currentColor" d="M0.5,0.5V600.5"></path><g class="tick" opacity="1" transform="translate(0,40.740740740740726)" style="font-size: 13px;"><line stroke="currentColor" x2="0"></line><text fill="currentColor" x="-3" dy="0.32em">object (simple)    </text></g><g class="tick" opacity="1" transform="translate(0,114.81481481481481)" style="font-size: 13px;"><line stroke="currentColor" x2="0"></line><text fill="currentColor" x="-3" dy="0.32em">object (hierarchical)    </text></g><g class="tick" opacity="1" transform="translate(0,188.88888888888889)" style="font-size: 13px;"><line stroke="currentColor" x2="0"></line><text fill="currentColor" x="-3" dy="0.32em">object (recursive)    </text></g><g class="tick" opacity="1" transform="translate(0,262.96296296296293)" style="font-size: 13px;"><line stroke="currentColor" x2="0"></line><text fill="currentColor" x="-3" dy="0.32em">object (union, explicit)    </text></g><g class="tick" opacity="1" transform="translate(0,337.037037037037)" style="font-size: 13px;"><line stroke="currentColor" x2="0"></line><text fill="currentColor" x="-3" dy="0.32em">array (simple)    </text></g><g class="tick" opacity="1" transform="translate(0,411.1111111111111)" style="font-size: 13px;"><line stroke="currentColor" x2="0"></line><text fill="currentColor" x="-3" dy="0.32em">array (hierarchical)    </text></g><g class="tick" opacity="1" transform="translate(0,485.18518518518516)" style="font-size: 13px;"><line stroke="currentColor" x2="0"></line><text fill="currentColor" x="-3" dy="0.32em">array (recursive)    </text></g><g class="tick" opacity="1" transform="translate(0,559.2592592592592)" style="font-size: 13px;"><line stroke="currentColor" x2="0"></line><text fill="currentColor" x="-3" dy="0.32em">array (union, explicit)    </text></g></g><g class="x axis" transform="translate(149,645)" fill="none" font-size="10" font-family="sans-serif" text-anchor="middle" style="font-size: 13px;"><path class="domain" stroke="currentColor" d="M0.5,0.5H485.5"></path><g class="tick" opacity="1" transform="translate(0.5,0)" style="font-size: 13px;"><line stroke="currentColor" y2="6"></line><text fill="currentColor" y="9" dy="0.71em">0x</text></g><g class="tick" opacity="1" transform="translate(78.09921233722926,0)" style="font-size: 13px;"><line stroke="currentColor" y2="6"></line><text fill="currentColor" y="9" dy="0.71em">5x</text></g><g class="tick" opacity="1" transform="translate(155.69842467445852,0)" style="font-size: 13px;"><line stroke="currentColor" y2="6"></line><text fill="currentColor" y="9" dy="0.71em">10x</text></g><g class="tick" opacity="1" transform="translate(233.29763701168778,0)" style="font-size: 13px;"><line stroke="currentColor" y2="6"></line><text fill="currentColor" y="9" dy="0.71em">15x</text></g><g class="tick" opacity="1" transform="translate(310.89684934891704,0)" style="font-size: 13px;"><line stroke="currentColor" y2="6"></line><text fill="currentColor" y="9" dy="0.71em">20x</text></g><g class="tick" opacity="1" transform="translate(388.4960616861463,0)" style="font-size: 13px;"><line stroke="currentColor" y2="6"></line><text fill="currentColor" y="9" dy="0.71em">25x</text></g><g class="tick" opacity="1" transform="translate(466.09527402337557,0)" style="font-size: 13px;"><line stroke="currentColor" y2="6"></line><text fill="currentColor" y="9" dy="0.71em">30x</text></g></g><text transform="translate(400, 30)" style="text-anchor: middle; font-size: 20px; font-weight: bold;">server-performance benchmark</text><rect x="650" y="145" width="230" height="5" fill="gray"></rect><rect x="645" y="35" width="230" height="110" fill="none" stroke="black"></rect><rect x="655" y="45" width="10" height="10" style="fill: #4472c4;"></rect><text x="670" y="55" style="font-size: 12px;">fastify-typia</text><rect x="655" y="65" width="10" height="10" style="fill: #ed7d31;"></rect><text x="670" y="75" style="font-size: 12px;">fastify-pure</text><rect x="655" y="85" width="10" height="10" style="fill: #a5a5a5;"></rect><text x="670" y="95" style="font-size: 12px;">fastify-class-transformer</text><rect x="655" y="105" width="10" height="10" style="fill: #ffc000;"></rect><text x="670" y="115" style="font-size: 12px;">express-typia</text><rect x="655" y="125" width="10" height="10" style="fill: #5b9bd5;"></rect><text x="670" y="135" style="font-size: 12px;">express-class-transformer</text><text x="20" y="709" style="font-size: 12px;">  - CPU: AMD Ryzen 7 6800HS with Radeon Graphics</text><text x="20" y="726" style="font-size: 12px;">  - OS: win32</text><text x="20" y="743" style="font-size: 12px;">  - RAM: 63 GB</text><text x="20" y="760" style="font-size: 12px;">  - NodeJS version: v16.20.1</text><text x="20" y="777" style="font-size: 12px;">  - Typia version: v4.1.8</text><g style="font-size: 13px;"><g style="font-size: 13px;"><rect x="150" y="53.06747341400805" width="191.56340012755714" height="12.541254125412543" fill="#4472c4"></rect><rect x="150" y="66.26879354602124" width="190.05278217666074" height="12.541254125412543" fill="#ed7d31"></rect><rect x="150" y="79.47011367803445" width="15.519842467445853" height="12.541254125412543" fill="#a5a5a5"></rect><rect x="150" y="92.67143381004766" width="130.02200408161636" height="12.541254125412543" fill="#ffc000"></rect><rect x="150" y="105.87275394206085" width="22.173097710532083" height="12.541254125412543" fill="#5b9bd5"></rect><text class="label" x="350.06340012755714" y="61.56747341400805" font-size="10px">12.34x</text><text class="label" x="348.55278217666074" y="74.76879354602124" font-size="10px">12.25x</text><text class="label" x="174.01984246744584" y="87.97011367803445" font-size="10px">1x</text><text class="label" x="288.5220040816164" y="101.17143381004766" font-size="10px">8.38x</text><text class="label" x="180.6730977105321" y="114.37275394206085" font-size="10px">1.43x</text><text class="label" x="346.56340012755714" y="63.06747341400805" font-size="8px"></text><text class="label" x="345.05278217666074" y="76.26879354602124" font-size="8px"></text><text class="label" x="170.51984246744584" y="89.47011367803445" font-size="8px"></text><text class="label" x="285.0220040816164" y="102.67143381004766" font-size="8px"></text><text class="label" x="177.1730977105321" y="115.87275394206085" font-size="8px"></text></g><g style="font-size: 13px;"><rect x="150" y="127.14154748808213" width="165.14827188549083" height="12.541254125412543" fill="#4472c4"></rect><rect x="150" y="140.34286762009532" width="150.64993175855494" height="12.541254125412543" fill="#ed7d31"></rect><rect x="150" y="153.54418775210854" width="15.519842467445853" height="12.541254125412543" fill="#a5a5a5"></rect><rect x="150" y="166.74550788412174" width="134.62770388549413" height="12.541254125412543" fill="#ffc000"></rect><rect x="150" y="179.94682801613493" width="20.869150423066312" height="12.541254125412543" fill="#5b9bd5"></rect><text class="label" x="323.64827188549083" y="135.64154748808213" font-size="10px">10.64x</text><text class="label" x="309.14993175855494" y="148.84286762009532" font-size="10px">9.71x</text><text class="label" x="174.01984246744584" y="162.04418775210854" font-size="10px">1x</text><text class="label" x="293.12770388549416" y="175.24550788412174" font-size="10px">8.67x</text><text class="label" x="179.36915042306632" y="188.44682801613493" font-size="10px">1.34x</text><text class="label" x="320.14827188549083" y="137.14154748808213" font-size="8px"></text><text class="label" x="305.64993175855494" y="150.34286762009532" font-size="8px"></text><text class="label" x="170.51984246744584" y="163.54418775210854" font-size="8px"></text><text class="label" x="289.62770388549416" y="176.74550788412174" font-size="8px"></text><text class="label" x="175.86915042306632" y="189.94682801613493" font-size="8px"></text></g><g style="font-size: 13px;"><rect x="150" y="201.2156215621562" width="201.44015315168204" height="12.541254125412543" fill="#4472c4"></rect><rect x="150" y="214.4169416941694" width="125.664780083463" height="12.541254125412543" fill="#ed7d31"></rect><rect x="150" y="227.61826182618262" width="15.519842467445853" height="12.541254125412543" fill="#a5a5a5"></rect><rect x="150" y="240.8195819581958" width="173.95107552986178" height="12.541254125412543" fill="#ffc000"></rect><rect x="150" y="254.020902090209" width="24.40351383911488" height="12.541254125412543" fill="#5b9bd5"></rect><text class="label" x="359.940153151682" y="209.7156215621562" font-size="10px">12.98x</text><text class="label" x="284.16478008346303" y="222.9169416941694" font-size="10px">8.1x</text><text class="label" x="174.01984246744584" y="236.11826182618262" font-size="10px">1x</text><text class="label" x="332.4510755298618" y="249.3195819581958" font-size="10px">11.21x</text><text class="label" x="182.90351383911488" y="262.520902090209" font-size="10px">1.57x</text><text class="label" x="356.440153151682" y="211.2156215621562" font-size="8px"></text><text class="label" x="280.66478008346303" y="224.4169416941694" font-size="8px"></text><text class="label" x="170.51984246744584" y="237.61826182618262" font-size="8px"></text><text class="label" x="328.9510755298618" y="250.8195819581958" font-size="8px"></text><text class="label" x="179.40351383911488" y="264.020902090209" font-size="8px"></text></g><g style="font-size: 13px;"><rect x="150" y="275.28969563623025" width="440.9090909090908" height="12.541254125412543" fill="#4472c4"></rect><rect x="150" y="288.49101576824347" width="281.5457593763829" height="12.541254125412543" fill="#ed7d31"></rect><rect x="150" y="301.6923359002567" width="15.86390709570799" height="12.541254125412543" fill="#a5a5a5"></rect><rect x="150" y="314.89365603226986" width="369.3227280890014" height="12.541254125412543" fill="#ffc000"></rect><rect x="150" y="328.0949761642831" width="15.519842467445853" height="12.541254125412543" fill="#5b9bd5"></rect><text class="label" x="599.4090909090908" y="283.78969563623025" font-size="10px">28.41x</text><text class="label" x="440.0457593763829" y="296.99101576824347" font-size="10px">18.14x</text><text class="label" x="174.363907095708" y="310.1923359002567" font-size="10px">1.02x</text><text class="label" x="527.8227280890014" y="323.39365603226986" font-size="10px">23.8x</text><text class="label" x="174.01984246744584" y="336.5949761642831" font-size="10px">1x</text><text class="label" x="595.9090909090908" y="285.28969563623025" font-size="8px"></text><text class="label" x="436.5457593763829" y="298.49101576824347" font-size="8px"></text><text class="label" x="170.863907095708" y="311.6923359002567" font-size="8px"></text><text class="label" x="524.3227280890014" y="324.89365603226986" font-size="8px"></text><text class="label" x="170.51984246744584" y="338.0949761642831" font-size="8px"></text></g><g style="font-size: 13px;"><rect x="150" y="349.3637697103044" width="220.1724579253794" height="12.541254125412543" fill="#4472c4"></rect><rect x="150" y="362.56508984231755" width="215.95194739793294" height="12.541254125412543" fill="#ed7d31"></rect><rect x="150" y="375.76640997433077" width="15.519842467445853" height="12.541254125412543" fill="#a5a5a5"></rect><rect x="150" y="388.967730106344" width="196.84916105454602" height="12.541254125412543" fill="#ffc000"></rect><rect x="150" y="402.16905023835716" width="16.409365194942524" height="12.541254125412543" fill="#5b9bd5"></rect><text class="label" x="378.6724579253794" y="357.8637697103044" font-size="10px">14.19x</text><text class="label" x="374.45194739793294" y="371.06508984231755" font-size="10px">13.91x</text><text class="label" x="174.01984246744584" y="384.26640997433077" font-size="10px">1x</text><text class="label" x="355.349161054546" y="397.467730106344" font-size="10px">12.68x</text><text class="label" x="174.90936519494252" y="410.66905023835716" font-size="10px">1.06x</text><text class="label" x="375.1724579253794" y="359.3637697103044" font-size="8px"></text><text class="label" x="370.95194739793294" y="372.56508984231755" font-size="8px"></text><text class="label" x="170.51984246744584" y="385.76640997433077" font-size="8px"></text><text class="label" x="351.849161054546" y="398.967730106344" font-size="8px"></text><text class="label" x="171.40936519494252" y="412.16905023835716" font-size="8px"></text></g><g style="font-size: 13px;"><rect x="150" y="423.4378437843784" width="266.26976823242586" height="12.541254125412543" fill="#4472c4"></rect><rect x="150" y="436.6391639163916" width="197.93832256408757" height="12.541254125412543" fill="#ed7d31"></rect><rect x="150" y="449.84048404840485" width="19.228511554011554" height="12.541254125412543" fill="#a5a5a5"></rect><rect x="150" y="463.041804180418" width="304.4409978581082" height="12.541254125412543" fill="#ffc000"></rect><rect x="150" y="476.24312431243123" width="15.519842467445853" height="12.541254125412543" fill="#5b9bd5"></rect><text class="label" x="424.76976823242586" y="431.9378437843784" font-size="10px">17.16x</text><text class="label" x="356.43832256408757" y="445.1391639163916" font-size="10px">12.75x</text><text class="label" x="177.72851155401156" y="458.34048404840485" font-size="10px">1.24x</text><text class="label" x="462.9409978581082" y="471.541804180418" font-size="10px">19.62x</text><text class="label" x="174.01984246744584" y="484.74312431243123" font-size="10px">1x</text><text class="label" x="421.26976823242586" y="433.4378437843784" font-size="8px"></text><text class="label" x="352.93832256408757" y="446.6391639163916" font-size="8px"></text><text class="label" x="174.22851155401156" y="459.84048404840485" font-size="8px"></text><text class="label" x="459.4409978581082" y="473.041804180418" font-size="8px"></text><text class="label" x="170.51984246744584" y="486.24312431243123" font-size="8px"></text></g><g style="font-size: 13px;"><rect x="150" y="497.51191785845253" width="216.73578799263578" height="12.541254125412543" fill="#4472c4"></rect><rect x="150" y="510.7132379904657" width="215.5994788665731" height="12.541254125412543" fill="#ed7d31"></rect><rect x="150" y="523.9145581224789" width="15.519842467445853" height="12.541254125412543" fill="#a5a5a5"></rect><rect x="150" y="537.1158782544921" width="208.28347633672877" height="12.541254125412543" fill="#ffc000"></rect><rect x="150" y="550.3171983865053" width="22.41716931836879" height="12.541254125412543" fill="#5b9bd5"></rect><text class="label" x="375.2357879926358" y="506.01191785845253" font-size="10px">13.97x</text><text class="label" x="374.0994788665731" y="519.2132379904657" font-size="10px">13.89x</text><text class="label" x="174.01984246744584" y="532.4145581224789" font-size="10px">1x</text><text class="label" x="366.78347633672877" y="545.6158782544921" font-size="10px">13.42x</text><text class="label" x="180.9171693183688" y="558.8171983865053" font-size="10px">1.44x</text><text class="label" x="371.7357879926358" y="507.51191785845253" font-size="8px"></text><text class="label" x="370.5994788665731" y="520.7132379904657" font-size="8px"></text><text class="label" x="170.51984246744584" y="533.9145581224789" font-size="8px"></text><text class="label" x="363.28347633672877" y="547.1158782544921" font-size="8px"></text><text class="label" x="177.4171693183688" y="560.3171983865053" font-size="8px"></text></g><g style="font-size: 13px;"><rect x="150" y="571.5859919325266" width="349.89424019429947" height="12.541254125412543" fill="#4472c4"></rect><rect x="150" y="584.7873120645397" width="124.91838252847239" height="12.541254125412543" fill="#ed7d31"></rect><rect x="150" y="597.9886321965529" width="17.614732376806927" height="12.541254125412543" fill="#a5a5a5"></rect><rect x="150" y="611.1899523285662" width="331.49287625182774" height="12.541254125412543" fill="#ffc000"></rect><rect x="150" y="624.3912724605793" width="15.519842467445853" height="12.541254125412543" fill="#5b9bd5"></rect><text class="label" x="508.39424019429947" y="580.0859919325266" font-size="10px">22.54x</text><text class="label" x="283.4183825284724" y="593.2873120645397" font-size="10px">8.05x</text><text class="label" x="176.11473237680693" y="606.4886321965529" font-size="10px">1.13x</text><text class="label" x="489.99287625182774" y="619.6899523285662" font-size="10px">21.36x</text><text class="label" x="174.01984246744584" y="632.8912724605793" font-size="10px">1x</text><text class="label" x="504.89424019429947" y="581.5859919325266" font-size="8px"></text><text class="label" x="279.9183825284724" y="594.7873120645397" font-size="8px"></text><text class="label" x="172.61473237680693" y="607.9886321965529" font-size="8px"></text><text class="label" x="486.49287625182774" y="621.1899523285662" font-size="8px"></text><text class="label" x="170.51984246744584" y="634.3912724605793" font-size="8px"></text></g></g></svg>