<svg xmlns="http://www.w3.org/2000/svg" xmlns:xlink="http://www.w3.org/1999/xlink" width="800" height="794" style="background-color: white;"><g class="y axis" transform="translate(149,45)" fill="none" font-size="10" font-family="sans-serif" text-anchor="end" style="font-size: 13px;"><path class="domain" stroke="currentColor" d="M0.5,0.5V600.5"></path><g class="tick" opacity="1" transform="translate(0,40.740740740740726)" style="font-size: 13px;"><line stroke="currentColor" x2="0"></line><text fill="currentColor" x="-3" dy="0.32em">object (simple)    </text></g><g class="tick" opacity="1" transform="translate(0,114.81481481481481)" style="font-size: 13px;"><line stroke="currentColor" x2="0"></line><text fill="currentColor" x="-3" dy="0.32em">object (hierarchical)    </text></g><g class="tick" opacity="1" transform="translate(0,188.88888888888889)" style="font-size: 13px;"><line stroke="currentColor" x2="0"></line><text fill="currentColor" x="-3" dy="0.32em">object (recursive)    </text></g><g class="tick" opacity="1" transform="translate(0,262.96296296296293)" style="font-size: 13px;"><line stroke="currentColor" x2="0"></line><text fill="currentColor" x="-3" dy="0.32em">object (union, explicit)    </text></g><g class="tick" opacity="1" transform="translate(0,337.037037037037)" style="font-size: 13px;"><line stroke="currentColor" x2="0"></line><text fill="currentColor" x="-3" dy="0.32em">array (simple)    </text></g><g class="tick" opacity="1" transform="translate(0,411.1111111111111)" style="font-size: 13px;"><line stroke="currentColor" x2="0"></line><text fill="currentColor" x="-3" dy="0.32em">array (hierarchical)    </text></g><g class="tick" opacity="1" transform="translate(0,485.18518518518516)" style="font-size: 13px;"><line stroke="currentColor" x2="0"></line><text fill="currentColor" x="-3" dy="0.32em">array (recursive)    </text></g><g class="tick" opacity="1" transform="translate(0,559.2592592592592)" style="font-size: 13px;"><line stroke="currentColor" x2="0"></line><text fill="currentColor" x="-3" dy="0.32em">array (union, explicit)    </text></g></g><g class="x axis" transform="translate(149,645)" fill="none" font-size="10" font-family="sans-serif" text-anchor="middle" style="font-size: 13px;"><path class="domain" stroke="currentColor" d="M0.5,0.5H485.5"></path><g class="tick" opacity="1" transform="translate(0.5,0)" style="font-size: 13px;"><line stroke="currentColor" y2="6"></line><text fill="currentColor" y="9" dy="0.71em">0x</text></g><g class="tick" opacity="1" transform="translate(91.80763820198753,0)" style="font-size: 13px;"><line stroke="currentColor" y2="6"></line><text fill="currentColor" y="9" dy="0.71em">5,000x</text></g><g class="tick" opacity="1" transform="translate(183.11527640397506,0)" style="font-size: 13px;"><line stroke="currentColor" y2="6"></line><text fill="currentColor" y="9" dy="0.71em">10,000x</text></g><g class="tick" opacity="1" transform="translate(274.4229146059626,0)" style="font-size: 13px;"><line stroke="currentColor" y2="6"></line><text fill="currentColor" y="9" dy="0.71em">15,000x</text></g><g class="tick" opacity="1" transform="translate(365.7305528079501,0)" style="font-size: 13px;"><line stroke="currentColor" y2="6"></line><text fill="currentColor" y="9" dy="0.71em">20,000x</text></g><g class="tick" opacity="1" transform="translate(457.03819100993763,0)" style="font-size: 13px;"><line stroke="currentColor" y2="6"></line><text fill="currentColor" y="9" dy="0.71em">25,000x</text></g></g><text transform="translate(400, 30)" style="text-anchor: middle; font-size: 20px; font-weight: bold;">server-performance benchmark</text><rect x="650" y="145" width="230" height="5" fill="gray"></rect><rect x="645" y="35" width="230" height="110" fill="none" stroke="black"></rect><rect x="655" y="45" width="10" height="10" style="fill: #4472c4;"></rect><text x="670" y="55" style="font-size: 12px;">fastify-class-transformer</text><rect x="655" y="65" width="10" height="10" style="fill: #ed7d31;"></rect><text x="670" y="75" style="font-size: 12px;">fastify-pure</text><rect x="655" y="85" width="10" height="10" style="fill: #a5a5a5;"></rect><text x="670" y="95" style="font-size: 12px;">fastify-typia</text><rect x="655" y="105" width="10" height="10" style="fill: #ffc000;"></rect><text x="670" y="115" style="font-size: 12px;">express-typia</text><rect x="655" y="125" width="10" height="10" style="fill: #5b9bd5;"></rect><text x="670" y="135" style="font-size: 12px;">express-class-transformer</text><text x="20" y="709" style="font-size: 12px;">  - CPU: AMD Ryzen 7 6800HS with Radeon Graphics</text><text x="20" y="726" style="font-size: 12px;">  - OS: win32</text><text x="20" y="743" style="font-size: 12px;">  - RAM: 63 GB</text><text x="20" y="760" style="font-size: 12px;">  - NodeJS version: v16.20.0</text><text x="20" y="777" style="font-size: 12px;">  - Typia version: v4.1.1</text><g style="font-size: 13px;"><g style="font-size: 13px;"><rect x="150" y="53.06747341400805" width="0.06687664938487235" height="12.541254125412543" fill="#4472c4"></rect><rect x="150" y="66.26879354602124" width="0.8207040045874444" height="12.541254125412543" fill="#ed7d31"></rect><rect x="150" y="79.47011367803445" width="0.8428108369831213" height="12.541254125412543" fill="#a5a5a5"></rect><rect x="150" y="92.67143381004766" width="0.025286599393030653" height="12.541254125412543" fill="#ffc000"></rect><rect x="150" y="105.87275394206085" width="0.01826152764039751" height="12.541254125412543" fill="#5b9bd5"></rect><text class="label" x="158.56687664938488" y="61.56747341400805" font-size="10px">4x</text><text class="label" x="159.32070400458744" y="74.76879354602124" font-size="10px">45x</text><text class="label" x="159.34281083698312" y="87.97011367803445" font-size="10px">46x</text><text class="label" x="158.52528659939304" y="101.17143381004766" font-size="10px">1x</text><text class="label" x="158.5182615276404" y="114.37275394206085" font-size="10px">1x</text><text class="label" x="155.06687664938488" y="63.06747341400805" font-size="8px"></text><text class="label" x="155.82070400458744" y="76.26879354602124" font-size="8px"></text><text class="label" x="155.84281083698312" y="89.47011367803445" font-size="8px"></text><text class="label" x="155.02528659939304" y="102.67143381004766" font-size="8px"></text><text class="label" x="155.0182615276404" y="115.87275394206085" font-size="8px"></text></g><g style="font-size: 13px;"><rect x="150" y="127.14154748808213" width="0.1527814644037565" height="12.541254125412543" fill="#4472c4"></rect><rect x="150" y="140.34286762009532" width="1.5795958386161226" height="12.541254125412543" fill="#ed7d31"></rect><rect x="150" y="153.54418775210854" width="1.760867139357243" height="12.541254125412543" fill="#a5a5a5"></rect><rect x="150" y="166.74550788412174" width="0.02607419867829298" height="12.541254125412543" fill="#ffc000"></rect><rect x="150" y="179.94682801613493" width="0.01826152764039751" height="12.541254125412543" fill="#5b9bd5"></rect><text class="label" x="158.65278146440374" y="135.64154748808213" font-size="10px">8x</text><text class="label" x="160.07959583861611" y="148.84286762009532" font-size="10px">86x</text><text class="label" x="160.26086713935723" y="162.04418775210854" font-size="10px">96x</text><text class="label" x="158.5260741986783" y="175.24550788412174" font-size="10px">1x</text><text class="label" x="158.5182615276404" y="188.44682801613493" font-size="10px">1x</text><text class="label" x="155.15278146440374" y="137.14154748808213" font-size="8px"></text><text class="label" x="156.57959583861611" y="150.34286762009532" font-size="8px"></text><text class="label" x="156.76086713935723" y="163.54418775210854" font-size="8px"></text><text class="label" x="155.0260741986783" y="176.74550788412174" font-size="8px"></text><text class="label" x="155.0182615276404" y="189.94682801613493" font-size="8px"></text></g><g style="font-size: 13px;"><rect x="150" y="201.2156215621562" width="0.1490477897282368" height="12.541254125412543" fill="#4472c4"></rect><rect x="150" y="214.4169416941694" width="1.2267156976051279" height="12.541254125412543" fill="#ed7d31"></rect><rect x="150" y="227.61826182618262" width="1.8663979395206987" height="12.541254125412543" fill="#a5a5a5"></rect><rect x="150" y="240.8195819581958" width="0.02674976438692669" height="12.541254125412543" fill="#ffc000"></rect><rect x="150" y="254.020902090209" width="0.01826152764039751" height="12.541254125412543" fill="#5b9bd5"></rect><text class="label" x="158.64904778972823" y="209.7156215621562" font-size="10px">8x</text><text class="label" x="159.72671569760513" y="222.9169416941694" font-size="10px">67x</text><text class="label" x="160.3663979395207" y="236.11826182618262" font-size="10px">102x</text><text class="label" x="158.52674976438692" y="249.3195819581958" font-size="10px">1x</text><text class="label" x="158.5182615276404" y="262.520902090209" font-size="10px">1x</text><text class="label" x="155.14904778972823" y="211.2156215621562" font-size="8px"></text><text class="label" x="156.22671569760513" y="224.4169416941694" font-size="8px"></text><text class="label" x="156.8663979395207" y="237.61826182618262" font-size="8px"></text><text class="label" x="155.02674976438692" y="250.8195819581958" font-size="8px"></text><text class="label" x="155.0182615276404" y="264.020902090209" font-size="8px"></text></g><g style="font-size: 13px;"><rect x="150" y="275.28969563623025" width="0.01826152764039751" height="12.541254125412543" fill="#4472c4"></rect><rect x="150" y="288.49101576824347" width="60.471274199471544" height="12.541254125412543" fill="#ed7d31"></rect><rect x="150" y="301.6923359002567" width="101.18607871571925" height="12.541254125412543" fill="#a5a5a5"></rect><rect x="150" y="314.89365603226986" width="2.0202469193382577" height="12.541254125412543" fill="#ffc000"></rect><rect x="150" y="328.0949761642831" width="1.4593319668424145" height="12.541254125412543" fill="#5b9bd5"></rect><text class="label" x="158.5182615276404" y="283.78969563623025" font-size="10px">1x</text><text class="label" x="218.97127419947154" y="296.99101576824347" font-size="10px">3,311x</text><text class="label" x="259.68607871571925" y="310.1923359002567" font-size="10px">5,541x</text><text class="label" x="160.52024691933826" y="323.39365603226986" font-size="10px">111x</text><text class="label" x="159.95933196684243" y="336.5949761642831" font-size="10px">80x</text><text class="label" x="155.0182615276404" y="285.28969563623025" font-size="8px"></text><text class="label" x="215.47127419947154" y="298.49101576824347" font-size="8px"></text><text class="label" x="256.18607871571925" y="311.6923359002567" font-size="8px"></text><text class="label" x="157.02024691933826" y="324.89365603226986" font-size="8px"></text><text class="label" x="156.45933196684243" y="338.0949761642831" font-size="8px"></text></g><g style="font-size: 13px;"><rect x="150" y="349.3637697103044" width="0.01826152764039751" height="12.541254125412543" fill="#4472c4"></rect><rect x="150" y="362.56508984231755" width="61.63372593938373" height="12.541254125412543" fill="#ed7d31"></rect><rect x="150" y="375.76640997433077" width="70.94955448654513" height="12.541254125412543" fill="#a5a5a5"></rect><rect x="150" y="388.967730106344" width="0.7683824915264936" height="12.541254125412543" fill="#ffc000"></rect><rect x="150" y="402.16905023835716" width="0.9289347766842911" height="12.541254125412543" fill="#5b9bd5"></rect><text class="label" x="158.5182615276404" y="357.8637697103044" font-size="10px">1x</text><text class="label" x="220.13372593938374" y="371.06508984231755" font-size="10px">3,375x</text><text class="label" x="229.44955448654514" y="384.26640997433077" font-size="10px">3,885x</text><text class="label" x="159.2683824915265" y="397.467730106344" font-size="10px">42x</text><text class="label" x="159.4289347766843" y="410.66905023835716" font-size="10px">51x</text><text class="label" x="155.0182615276404" y="359.3637697103044" font-size="8px"></text><text class="label" x="216.63372593938374" y="372.56508984231755" font-size="8px"></text><text class="label" x="225.94955448654514" y="385.76640997433077" font-size="8px"></text><text class="label" x="155.7683824915265" y="398.967730106344" font-size="8px"></text><text class="label" x="155.9289347766843" y="412.16905023835716" font-size="8px"></text></g><g style="font-size: 13px;"><rect x="150" y="423.4378437843784" width="0.021299962845388435" height="12.541254125412543" fill="#4472c4"></rect><rect x="150" y="436.6391639163916" width="0.01826152764039751" height="12.541254125412543" fill="#ed7d31"></rect><rect x="150" y="449.84048404840485" width="0.08058012555829541" height="12.541254125412543" fill="#a5a5a5"></rect><rect x="150" y="463.041804180418" width="0.06274220835501282" height="12.541254125412543" fill="#ffc000"></rect><rect x="150" y="476.24312431243123" width="0.04819041385871525" height="12.541254125412543" fill="#5b9bd5"></rect><text class="label" x="158.52129996284538" y="431.9378437843784" font-size="10px">1x</text><text class="label" x="158.5182615276404" y="445.1391639163916" font-size="10px">1x</text><text class="label" x="158.5805801255583" y="458.34048404840485" font-size="10px">4x</text><text class="label" x="158.56274220835502" y="471.541804180418" font-size="10px">3x</text><text class="label" x="158.54819041385872" y="484.74312431243123" font-size="10px">3x</text><text class="label" x="155.02129996284538" y="433.4378437843784" font-size="8px"></text><text class="label" x="155.0182615276404" y="446.6391639163916" font-size="8px"></text><text class="label" x="155.0805801255583" y="459.84048404840485" font-size="8px"></text><text class="label" x="155.06274220835502" y="473.041804180418" font-size="8px"></text><text class="label" x="155.04819041385872" y="486.24312431243123" font-size="8px"></text></g><g style="font-size: 13px;"><rect x="150" y="497.51191785845253" width="0.01886132048076404" height="12.541254125412543" fill="#4472c4"></rect><rect x="150" y="510.7132379904657" width="0.0184850486407657" height="12.541254125412543" fill="#ed7d31"></rect><rect x="150" y="523.9145581224789" width="0.01826152764039751" height="12.541254125412543" fill="#a5a5a5"></rect><rect x="150" y="537.1158782544921" width="0.03328492289890276" height="12.541254125412543" fill="#ffc000"></rect><rect x="150" y="550.3171983865053" width="0.026194506890100597" height="12.541254125412543" fill="#5b9bd5"></rect><text class="label" x="158.51886132048077" y="506.01191785845253" font-size="10px">1x</text><text class="label" x="158.51848504864077" y="519.2132379904657" font-size="10px">1x</text><text class="label" x="158.5182615276404" y="532.4145581224789" font-size="10px">1x</text><text class="label" x="158.5332849228989" y="545.6158782544921" font-size="10px">2x</text><text class="label" x="158.5261945068901" y="558.8171983865053" font-size="10px">1x</text><text class="label" x="155.01886132048077" y="507.51191785845253" font-size="8px"></text><text class="label" x="155.01848504864077" y="520.7132379904657" font-size="8px"></text><text class="label" x="155.0182615276404" y="533.9145581224789" font-size="8px"></text><text class="label" x="155.0332849228989" y="547.1158782544921" font-size="8px"></text><text class="label" x="155.0261945068901" y="560.3171983865053" font-size="8px"></text></g><g style="font-size: 13px;"><rect x="150" y="571.5859919325266" width="0.01826152764039751" height="12.541254125412543" fill="#4472c4"></rect><rect x="150" y="584.7873120645397" width="155.12571445548826" height="12.541254125412543" fill="#ed7d31"></rect><rect x="150" y="597.9886321965529" width="440.9090909090909" height="12.541254125412543" fill="#a5a5a5"></rect><rect x="150" y="611.1899523285662" width="3.4435978772358085" height="12.541254125412543" fill="#ffc000"></rect><rect x="150" y="624.3912724605793" width="2.2931851474613096" height="12.541254125412543" fill="#5b9bd5"></rect><text class="label" x="158.5182615276404" y="580.0859919325266" font-size="10px">1x</text><text class="label" x="313.62571445548826" y="593.2873120645397" font-size="10px">8,495x</text><text class="label" x="599.4090909090909" y="606.4886321965529" font-size="10px">24,144x</text><text class="label" x="161.94359787723582" y="619.6899523285662" font-size="10px">189x</text><text class="label" x="160.79318514746132" y="632.8912724605793" font-size="10px">126x</text><text class="label" x="155.0182615276404" y="581.5859919325266" font-size="8px"></text><text class="label" x="310.12571445548826" y="594.7873120645397" font-size="8px"></text><text class="label" x="595.9090909090909" y="607.9886321965529" font-size="8px"></text><text class="label" x="158.44359787723582" y="621.1899523285662" font-size="8px"></text><text class="label" x="157.29318514746132" y="634.3912724605793" font-size="8px"></text></g></g></svg>