<svg xmlns="http://www.w3.org/2000/svg" xmlns:xlink="http://www.w3.org/1999/xlink" width="800" height="914" style="background-color: white;"><g class="y axis" transform="translate(149,45)" fill="none" font-size="10" font-family="sans-serif" text-anchor="end" style="font-size: 13px;"><path class="domain" stroke="currentColor" d="M0.5,0.5V720.5"></path><g class="tick" opacity="1" transform="translate(0,48.88888888888886)" style="font-size: 13px;"><line stroke="currentColor" x2="0"></line><text fill="currentColor" x="-3" dy="0.32em">object (simple)    </text></g><g class="tick" opacity="1" transform="translate(0,137.77777777777774)" style="font-size: 13px;"><line stroke="currentColor" x2="0"></line><text fill="currentColor" x="-3" dy="0.32em">object (hierarchical)    </text></g><g class="tick" opacity="1" transform="translate(0,226.66666666666663)" style="font-size: 13px;"><line stroke="currentColor" x2="0"></line><text fill="currentColor" x="-3" dy="0.32em">object (recursive)    </text></g><g class="tick" opacity="1" transform="translate(0,315.5555555555555)" style="font-size: 13px;"><line stroke="currentColor" x2="0"></line><text fill="currentColor" x="-3" dy="0.32em">object (union, explicit)    </text></g><g class="tick" opacity="1" transform="translate(0,404.4444444444444)" style="font-size: 13px;"><line stroke="currentColor" x2="0"></line><text fill="currentColor" x="-3" dy="0.32em">array (simple)    </text></g><g class="tick" opacity="1" transform="translate(0,493.3333333333333)" style="font-size: 13px;"><line stroke="currentColor" x2="0"></line><text fill="currentColor" x="-3" dy="0.32em">array (hierarchical)    </text></g><g class="tick" opacity="1" transform="translate(0,582.2222222222222)" style="font-size: 13px;"><line stroke="currentColor" x2="0"></line><text fill="currentColor" x="-3" dy="0.32em">array (recursive)    </text></g><g class="tick" opacity="1" transform="translate(0,671.1111111111111)" style="font-size: 13px;"><line stroke="currentColor" x2="0"></line><text fill="currentColor" x="-3" dy="0.32em">array (union, explicit)    </text></g></g><g class="x axis" transform="translate(149,765)" fill="none" font-size="10" font-family="sans-serif" text-anchor="middle" style="font-size: 13px;"><path class="domain" stroke="currentColor" d="M0.5,0.5H485.5"></path><g class="tick" opacity="1" transform="translate(0.5,0)" style="font-size: 13px;"><line stroke="currentColor" y2="6"></line><text fill="currentColor" y="9" dy="0.71em">0x</text></g><g class="tick" opacity="1" transform="translate(132.16594044627834,0)" style="font-size: 13px;"><line stroke="currentColor" y2="6"></line><text fill="currentColor" y="9" dy="0.71em">10x</text></g><g class="tick" opacity="1" transform="translate(263.8318808925567,0)" style="font-size: 13px;"><line stroke="currentColor" y2="6"></line><text fill="currentColor" y="9" dy="0.71em">20x</text></g><g class="tick" opacity="1" transform="translate(395.49782133883497,0)" style="font-size: 13px;"><line stroke="currentColor" y2="6"></line><text fill="currentColor" y="9" dy="0.71em">30x</text></g></g><text transform="translate(400, 30)" style="text-anchor: middle; font-size: 20px; font-weight: bold;">server-stringify benchmark</text><rect x="650" y="165" width="230" height="5" fill="gray"></rect><rect x="645" y="35" width="230" height="130" fill="none" stroke="black"></rect><rect x="655" y="45" width="10" height="10" style="fill: #4472c4;"></rect><text x="670" y="55" style="font-size: 12px;">fastify-class-transformer</text><rect x="655" y="65" width="10" height="10" style="fill: #ed7d31;"></rect><text x="670" y="75" style="font-size: 12px;">fastify-pure</text><rect x="655" y="85" width="10" height="10" style="fill: #a5a5a5;"></rect><text x="670" y="95" style="font-size: 12px;">fastify-typia</text><rect x="655" y="105" width="10" height="10" style="fill: #ffc000;"></rect><text x="670" y="115" style="font-size: 12px;">express-typia</text><rect x="655" y="125" width="10" height="10" style="fill: #5b9bd5;"></rect><text x="670" y="135" style="font-size: 12px;">express-pure</text><rect x="655" y="145" width="10" height="10" style="fill: #70ad47;"></rect><text x="670" y="155" style="font-size: 12px;">express-class-transformer</text><text x="20" y="829" style="font-size: 12px;">  - CPU: AMD Ryzen 7 6800HS with Radeon Graphics</text><text x="20" y="846" style="font-size: 12px;">  - OS: win32</text><text x="20" y="863" style="font-size: 12px;">  - RAM: 63 GB</text><text x="20" y="880" style="font-size: 12px;">  - NodeJS version: v16.20.0</text><text x="20" y="897" style="font-size: 12px;">  - Typia version: v4.1.1</text><g style="font-size: 13px;"><g style="font-size: 13px;"><rect x="150" y="54.55004591368224" width="13.896052261360499" height="12.56198347107438" fill="#4472c4"></rect><rect x="150" y="67.77318640955001" width="179.22749576027252" height="12.56198347107438" fill="#ed7d31"></rect><rect x="150" y="80.99632690541777" width="188.36692046732824" height="12.56198347107438" fill="#a5a5a5"></rect><rect x="150" y="94.21946740128556" width="134.42356128200265" height="12.56198347107438" fill="#ffc000"></rect><rect x="150" y="107.44260789715332" width="99.56376864853176" height="12.56198347107438" fill="#5b9bd5"></rect><rect x="150" y="120.66574839302109" width="13.166594044627834" height="12.56198347107438" fill="#70ad47"></rect><text class="label" x="172.3960522613605" y="63.05004591368224" font-size="10px">1.06x</text><text class="label" x="337.7274957602725" y="76.27318640955001" font-size="10px">13.61x</text><text class="label" x="346.8669204673282" y="89.49632690541777" font-size="10px">14.31x</text><text class="label" x="292.92356128200265" y="102.71946740128556" font-size="10px">10.21x</text><text class="label" x="258.0637686485318" y="115.94260789715332" font-size="10px">7.56x</text><text class="label" x="171.66659404462783" y="129.1657483930211" font-size="10px">1x</text><text class="label" x="168.8960522613605" y="64.55004591368224" font-size="8px"></text><text class="label" x="334.2274957602725" y="77.77318640955001" font-size="8px"></text><text class="label" x="343.3669204673282" y="90.99632690541777" font-size="8px"></text><text class="label" x="289.42356128200265" y="104.21946740128556" font-size="8px"></text><text class="label" x="254.56376864853178" y="117.44260789715332" font-size="8px"></text><text class="label" x="168.16659404462783" y="130.6657483930211" font-size="8px"></text></g><g style="font-size: 13px;"><rect x="150" y="143.4389348025711" width="13.626987116314805" height="12.56198347107438" fill="#4472c4"></rect><rect x="150" y="156.66207529843888" width="180.5013628810712" height="12.56198347107438" fill="#ed7d31"></rect><rect x="150" y="169.88521579430665" width="209.62725773723454" height="12.56198347107438" fill="#a5a5a5"></rect><rect x="150" y="183.10835629017444" width="170.53379174028154" height="12.56198347107438" fill="#ffc000"></rect><rect x="150" y="196.3314967860422" width="119.12211233168804" height="12.56198347107438" fill="#5b9bd5"></rect><rect x="150" y="209.55463728190998" width="13.166594044627834" height="12.56198347107438" fill="#70ad47"></rect><text class="label" x="172.1269871163148" y="151.9389348025711" font-size="10px">1.03x</text><text class="label" x="339.0013628810712" y="165.16207529843888" font-size="10px">13.71x</text><text class="label" x="368.1272577372346" y="178.38521579430665" font-size="10px">15.92x</text><text class="label" x="329.0337917402816" y="191.60835629017444" font-size="10px">12.95x</text><text class="label" x="277.6221123316881" y="204.8314967860422" font-size="10px">9.05x</text><text class="label" x="171.66659404462783" y="218.05463728190998" font-size="10px">1x</text><text class="label" x="168.6269871163148" y="153.4389348025711" font-size="8px"></text><text class="label" x="335.5013628810712" y="166.66207529843888" font-size="8px"></text><text class="label" x="364.6272577372346" y="179.88521579430665" font-size="8px"></text><text class="label" x="325.5337917402816" y="193.10835629017444" font-size="8px"></text><text class="label" x="274.1221123316881" y="206.3314967860422" font-size="8px"></text><text class="label" x="168.16659404462783" y="219.55463728190998" font-size="8px"></text></g><g style="font-size: 13px;"><rect x="150" y="232.32782369146003" width="13.511327206569687" height="12.56198347107438" fill="#4472c4"></rect><rect x="150" y="245.5509641873278" width="129.09224607570135" height="12.56198347107438" fill="#ed7d31"></rect><rect x="150" y="258.77410468319556" width="251.54766680129012" height="12.56198347107438" fill="#a5a5a5"></rect><rect x="150" y="271.9972451790633" width="214.48280236968512" height="12.56198347107438" fill="#ffc000"></rect><rect x="150" y="285.2203856749311" width="144.75264061654013" height="12.56198347107438" fill="#5b9bd5"></rect><rect x="150" y="298.44352617079886" width="13.166594044627834" height="12.56198347107438" fill="#70ad47"></rect><text class="label" x="172.0113272065697" y="240.82782369146003" font-size="10px">1.03x</text><text class="label" x="287.5922460757014" y="254.0509641873278" font-size="10px">9.8x</text><text class="label" x="410.0476668012901" y="267.27410468319556" font-size="10px">19.1x</text><text class="label" x="372.98280236968515" y="280.4972451790633" font-size="10px">16.29x</text><text class="label" x="303.25264061654013" y="293.7203856749311" font-size="10px">10.99x</text><text class="label" x="171.66659404462783" y="306.94352617079886" font-size="10px">1x</text><text class="label" x="168.5113272065697" y="242.32782369146003" font-size="8px"></text><text class="label" x="284.0922460757014" y="255.5509641873278" font-size="8px"></text><text class="label" x="406.5476668012901" y="268.77410468319556" font-size="8px"></text><text class="label" x="369.48280236968515" y="281.9972451790633" font-size="8px"></text><text class="label" x="299.75264061654013" y="295.2203856749311" font-size="8px"></text><text class="label" x="168.16659404462783" y="308.44352617079886" font-size="8px"></text></g><g style="font-size: 13px;"><rect x="150" y="321.2167125803489" width="13.64051889336516" height="12.56198347107438" fill="#4472c4"></rect><rect x="150" y="334.43985307621665" width="257.4258370726052" height="12.56198347107438" fill="#ed7d31"></rect><rect x="150" y="347.6629935720844" width="440.9090909090909" height="12.56198347107438" fill="#a5a5a5"></rect><rect x="150" y="360.8861340679522" width="391.8494801639626" height="12.56198347107438" fill="#ffc000"></rect><rect x="150" y="374.10927456381995" width="233.6654274956392" height="12.56198347107438" fill="#5b9bd5"></rect><rect x="150" y="387.3324150596877" width="13.166594044627834" height="12.56198347107438" fill="#70ad47"></rect><text class="label" x="172.14051889336517" y="329.7167125803489" font-size="10px">1.04x</text><text class="label" x="415.9258370726052" y="342.93985307621665" font-size="10px">19.55x</text><text class="label" x="599.4090909090909" y="356.1629935720844" font-size="10px">33.49x</text><text class="label" x="550.3494801639627" y="369.3861340679522" font-size="10px">29.76x</text><text class="label" x="392.16542749563916" y="382.60927456381995" font-size="10px">17.75x</text><text class="label" x="171.66659404462783" y="395.8324150596877" font-size="10px">1x</text><text class="label" x="168.64051889336517" y="331.2167125803489" font-size="8px"></text><text class="label" x="412.4258370726052" y="344.43985307621665" font-size="8px"></text><text class="label" x="595.9090909090909" y="357.6629935720844" font-size="8px"></text><text class="label" x="546.8494801639627" y="370.8861340679522" font-size="8px"></text><text class="label" x="388.66542749563916" y="384.10927456381995" font-size="8px"></text><text class="label" x="168.16659404462783" y="397.3324150596877" font-size="8px"></text></g><g style="font-size: 13px;"><rect x="150" y="410.1056014692378" width="13.166594044627834" height="12.56198347107438" fill="#4472c4"></rect><rect x="150" y="423.32874196510556" width="158.3196016508222" height="12.56198347107438" fill="#ed7d31"></rect><rect x="150" y="436.55188246097333" width="177.4494225292671" height="12.56198347107438" fill="#a5a5a5"></rect><rect x="150" y="449.7750229568411" width="156.55903988673242" height="12.56198347107438" fill="#ffc000"></rect><rect x="150" y="462.99816345270887" width="136.7193518250763" height="12.56198347107438" fill="#5b9bd5"></rect><rect x="150" y="476.22130394857663" width="13.287313403935586" height="12.56198347107438" fill="#70ad47"></rect><text class="label" x="171.66659404462783" y="418.6056014692378" font-size="10px">1x</text><text class="label" x="316.81960165082216" y="431.82874196510556" font-size="10px">12.02x</text><text class="label" x="335.9494225292671" y="445.05188246097333" font-size="10px">13.48x</text><text class="label" x="315.0590398867324" y="458.2750229568411" font-size="10px">11.89x</text><text class="label" x="295.2193518250763" y="471.49816345270887" font-size="10px">10.38x</text><text class="label" x="171.7873134039356" y="484.72130394857663" font-size="10px">1.01x</text><text class="label" x="168.16659404462783" y="420.1056014692378" font-size="8px"></text><text class="label" x="313.31960165082216" y="433.32874196510556" font-size="8px"></text><text class="label" x="332.4494225292671" y="446.55188246097333" font-size="8px"></text><text class="label" x="311.5590398867324" y="459.7750229568411" font-size="8px"></text><text class="label" x="291.7193518250763" y="472.99816345270887" font-size="8px"></text><text class="label" x="168.2873134039356" y="486.22130394857663" font-size="8px"></text></g><g style="font-size: 13px;"><rect x="150" y="498.9944903581267" width="13.166594044627834" height="12.56198347107438" fill="#4472c4"></rect><rect x="150" y="512.2176308539945" width="188.3171912354623" height="12.56198347107438" fill="#ed7d31"></rect><rect x="150" y="525.4407713498622" width="262.7197074626405" height="12.56198347107438" fill="#a5a5a5"></rect><rect x="150" y="538.66391184573" width="273.1815899193634" height="12.56198347107438" fill="#ffc000"></rect><rect x="150" y="551.8870523415978" width="187.93877043740937" height="12.56198347107438" fill="#5b9bd5"></rect><rect x="150" y="565.1101928374655" width="13.334938855497558" height="12.56198347107438" fill="#70ad47"></rect><text class="label" x="171.66659404462783" y="507.4944903581267" font-size="10px">1x</text><text class="label" x="346.8171912354623" y="520.7176308539945" font-size="10px">14.3x</text><text class="label" x="421.2197074626405" y="533.9407713498622" font-size="10px">19.95x</text><text class="label" x="431.6815899193634" y="547.16391184573" font-size="10px">20.75x</text><text class="label" x="346.4387704374094" y="560.3870523415978" font-size="10px">14.27x</text><text class="label" x="171.83493885549757" y="573.6101928374655" font-size="10px">1.01x</text><text class="label" x="168.16659404462783" y="508.9944903581267" font-size="8px"></text><text class="label" x="343.3171912354623" y="522.2176308539945" font-size="8px"></text><text class="label" x="417.7197074626405" y="535.4407713498622" font-size="8px"></text><text class="label" x="428.1815899193634" y="548.66391184573" font-size="8px"></text><text class="label" x="342.9387704374094" y="561.8870523415978" font-size="8px"></text><text class="label" x="168.33493885549757" y="575.1101928374655" font-size="8px"></text></g><g style="font-size: 13px;"><rect x="150" y="587.8833792470156" width="13.915874401546057" height="12.56198347107438" fill="#4472c4"></rect><rect x="150" y="601.1065197428833" width="128.14834575549813" height="12.56198347107438" fill="#ed7d31"></rect><rect x="150" y="614.3296602387511" width="222.42709798537885" height="12.56198347107438" fill="#a5a5a5"></rect><rect x="150" y="627.5528007346188" width="223.73303744584146" height="12.56198347107438" fill="#ffc000"></rect><rect x="150" y="640.7759412304866" width="170.2649186748281" height="12.56198347107438" fill="#5b9bd5"></rect><rect x="150" y="653.9990817263545" width="13.166594044627834" height="12.56198347107438" fill="#70ad47"></rect><text class="label" x="172.41587440154606" y="596.3833792470156" font-size="10px">1.06x</text><text class="label" x="286.6483457554981" y="609.6065197428833" font-size="10px">9.73x</text><text class="label" x="380.92709798537885" y="622.8296602387511" font-size="10px">16.89x</text><text class="label" x="382.23303744584143" y="636.0528007346188" font-size="10px">16.99x</text><text class="label" x="328.7649186748281" y="649.2759412304866" font-size="10px">12.93x</text><text class="label" x="171.66659404462783" y="662.4990817263545" font-size="10px">1x</text><text class="label" x="168.91587440154606" y="597.8833792470156" font-size="8px"></text><text class="label" x="283.1483457554981" y="611.1065197428833" font-size="8px"></text><text class="label" x="377.42709798537885" y="624.3296602387511" font-size="8px"></text><text class="label" x="378.73303744584143" y="637.5528007346188" font-size="8px"></text><text class="label" x="325.2649186748281" y="650.7759412304866" font-size="8px"></text><text class="label" x="168.16659404462783" y="663.9990817263545" font-size="8px"></text></g><g style="font-size: 13px;"><rect x="150" y="676.7722681359045" width="13.497887245328421" height="12.56198347107438" fill="#4472c4"></rect><rect x="150" y="689.9954086317722" width="55.277138491843886" height="12.56198347107438" fill="#ed7d31"></rect><rect x="150" y="703.21854912764" width="245.96006520424493" height="12.56198347107438" fill="#a5a5a5"></rect><rect x="150" y="716.4416896235077" width="224.2509802398365" height="12.56198347107438" fill="#ffc000"></rect><rect x="150" y="729.6648301193756" width="210.50420640273794" height="12.56198347107438" fill="#5b9bd5"></rect><rect x="150" y="742.8879706152434" width="13.166594044627834" height="12.56198347107438" fill="#70ad47"></rect><text class="label" x="171.99788724532843" y="685.2722681359045" font-size="10px">1.03x</text><text class="label" x="213.77713849184389" y="698.4954086317722" font-size="10px">4.2x</text><text class="label" x="404.4600652042449" y="711.71854912764" font-size="10px">18.68x</text><text class="label" x="382.7509802398365" y="724.9416896235077" font-size="10px">17.03x</text><text class="label" x="369.00420640273796" y="738.1648301193756" font-size="10px">15.99x</text><text class="label" x="171.66659404462783" y="751.3879706152434" font-size="10px">1x</text><text class="label" x="168.49788724532843" y="686.7722681359045" font-size="8px"></text><text class="label" x="210.27713849184389" y="699.9954086317722" font-size="8px"></text><text class="label" x="400.9600652042449" y="713.21854912764" font-size="8px"></text><text class="label" x="379.2509802398365" y="726.4416896235077" font-size="8px"></text><text class="label" x="365.50420640273796" y="739.6648301193756" font-size="8px"></text><text class="label" x="168.16659404462783" y="752.8879706152434" font-size="8px"></text></g></g></svg>