<svg xmlns="http://www.w3.org/2000/svg" xmlns:xlink="http://www.w3.org/1999/xlink" width="800" height="674" style="background-color: white;"><g class="y axis" transform="translate(149,45)" fill="none" font-size="10" font-family="sans-serif" text-anchor="end" style="font-size: 13px;"><path class="domain" stroke="currentColor" d="M0.5,0.5V480.5"></path><g class="tick" opacity="1" transform="translate(0,32.592592592592595)" style="font-size: 13px;"><line stroke="currentColor" x2="0"></line><text fill="currentColor" x="-3" dy="0.32em">object (simple)    </text></g><g class="tick" opacity="1" transform="translate(0,91.85185185185186)" style="font-size: 13px;"><line stroke="currentColor" x2="0"></line><text fill="currentColor" x="-3" dy="0.32em">object (hierarchical)    </text></g><g class="tick" opacity="1" transform="translate(0,151.11111111111111)" style="font-size: 13px;"><line stroke="currentColor" x2="0"></line><text fill="currentColor" x="-3" dy="0.32em">object (recursive)    </text></g><g class="tick" opacity="1" transform="translate(0,210.37037037037035)" style="font-size: 13px;"><line stroke="currentColor" x2="0"></line><text fill="currentColor" x="-3" dy="0.32em">object (union, explicit)    </text></g><g class="tick" opacity="1" transform="translate(0,269.6296296296296)" style="font-size: 13px;"><line stroke="currentColor" x2="0"></line><text fill="currentColor" x="-3" dy="0.32em">array (simple)    </text></g><g class="tick" opacity="1" transform="translate(0,328.8888888888889)" style="font-size: 13px;"><line stroke="currentColor" x2="0"></line><text fill="currentColor" x="-3" dy="0.32em">array (hierarchical)    </text></g><g class="tick" opacity="1" transform="translate(0,388.14814814814815)" style="font-size: 13px;"><line stroke="currentColor" x2="0"></line><text fill="currentColor" x="-3" dy="0.32em">array (recursive)    </text></g><g class="tick" opacity="1" transform="translate(0,447.40740740740745)" style="font-size: 13px;"><line stroke="currentColor" x2="0"></line><text fill="currentColor" x="-3" dy="0.32em">array (union, explicit)    </text></g></g><g class="x axis" transform="translate(149,525)" fill="none" font-size="10" font-family="sans-serif" text-anchor="middle" style="font-size: 13px;"><path class="domain" stroke="currentColor" d="M0.5,0.5H485.5"></path><g class="tick" opacity="1" transform="translate(0.5,0)" style="font-size: 13px;"><line stroke="currentColor" y2="6"></line><text fill="currentColor" y="9" dy="0.71em">0x</text></g><g class="tick" opacity="1" transform="translate(78.19793386622828,0)" style="font-size: 13px;"><line stroke="currentColor" y2="6"></line><text fill="currentColor" y="9" dy="0.71em">5x</text></g><g class="tick" opacity="1" transform="translate(155.89586773245657,0)" style="font-size: 13px;"><line stroke="currentColor" y2="6"></line><text fill="currentColor" y="9" dy="0.71em">10x</text></g><g class="tick" opacity="1" transform="translate(233.59380159868485,0)" style="font-size: 13px;"><line stroke="currentColor" y2="6"></line><text fill="currentColor" y="9" dy="0.71em">15x</text></g><g class="tick" opacity="1" transform="translate(311.29173546491313,0)" style="font-size: 13px;"><line stroke="currentColor" y2="6"></line><text fill="currentColor" y="9" dy="0.71em">20x</text></g><g class="tick" opacity="1" transform="translate(388.98966933114144,0)" style="font-size: 13px;"><line stroke="currentColor" y2="6"></line><text fill="currentColor" y="9" dy="0.71em">25x</text></g><g class="tick" opacity="1" transform="translate(466.6876031973697,0)" style="font-size: 13px;"><line stroke="currentColor" y2="6"></line><text fill="currentColor" y="9" dy="0.71em">30x</text></g></g><text transform="translate(400, 30)" style="text-anchor: middle; font-size: 20px; font-weight: bold;">server benchmark</text><rect x="650" y="125" width="230" height="5" fill="gray"></rect><rect x="645" y="35" width="230" height="90" fill="none" stroke="black"></rect><rect x="655" y="45" width="10" height="10" style="fill: #4472c4;"></rect><text x="670" y="55" style="font-size: 12px;">express-typia</text><rect x="655" y="65" width="10" height="10" style="fill: #ed7d31;"></rect><text x="670" y="75" style="font-size: 12px;">fastify</text><rect x="655" y="85" width="10" height="10" style="fill: #a5a5a5;"></rect><text x="670" y="95" style="font-size: 12px;">express-pure</text><rect x="655" y="105" width="10" height="10" style="fill: #ffc000;"></rect><text x="670" y="115" style="font-size: 12px;">express-class-transformer</text><text x="20" y="589" style="font-size: 12px;">  - CPU: AMD Ryzen 7 6800HS with Radeon Graphics</text><text x="20" y="606" style="font-size: 12px;">  - OS: win32</text><text x="20" y="623" style="font-size: 12px;">  - RAM: 63 GB</text><text x="20" y="640" style="font-size: 12px;">  - NodeJS version: v16.19.0</text><text x="20" y="657" style="font-size: 12px;">  - Typia version: v3.7.3</text><g style="font-size: 13px;"><g style="font-size: 13px;"><rect x="150" y="51.584362139917694" width="168.66432329336413" height="12.510288065843621" fill="#4472c4"></rect><rect x="150" y="64.75308641975309" width="308.7476082047449" height="12.510288065843621" fill="#ed7d31"></rect><rect x="150" y="77.92181069958848" width="124.94477330799026" height="12.510288065843621" fill="#a5a5a5"></rect><rect x="150" y="91.09053497942386" width="15.539586773245656" height="12.510288065843621" fill="#ffc000"></rect><text class="label" x="327.16432329336413" y="60.084362139917694" font-size="10px">10.85x</text><text class="label" x="467.2476082047449" y="73.25308641975309" font-size="10px">19.87x</text><text class="label" x="283.44477330799026" y="86.42181069958848" font-size="10px">8.04x</text><text class="label" x="174.03958677324565" y="99.59053497942386" font-size="10px">1x</text><text class="label" x="323.66432329336413" y="61.584362139917694" font-size="8px"></text><text class="label" x="463.7476082047449" y="74.75308641975309" font-size="8px"></text><text class="label" x="279.94477330799026" y="87.92181069958848" font-size="8px"></text><text class="label" x="170.53958677324565" y="101.09053497942386" font-size="8px"></text></g><g style="font-size: 13px;"><rect x="150" y="110.84362139917695" width="195.9758903606567" height="12.510288065843621" fill="#4472c4"></rect><rect x="150" y="124.01234567901236" width="274.50293019744413" height="12.510288065843621" fill="#ed7d31"></rect><rect x="150" y="137.18106995884773" width="143.55989607062043" height="12.510288065843621" fill="#a5a5a5"></rect><rect x="150" y="150.34979423868313" width="15.539586773245656" height="12.510288065843621" fill="#ffc000"></rect><text class="label" x="354.4758903606567" y="119.34362139917695" font-size="10px">12.61x</text><text class="label" x="433.00293019744413" y="132.51234567901236" font-size="10px">17.66x</text><text class="label" x="302.0598960706204" y="145.68106995884773" font-size="10px">9.24x</text><text class="label" x="174.03958677324565" y="158.84979423868313" font-size="10px">1x</text><text class="label" x="350.9758903606567" y="120.84362139917695" font-size="8px"></text><text class="label" x="429.50293019744413" y="134.01234567901236" font-size="8px"></text><text class="label" x="298.5598960706204" y="147.18106995884773" font-size="8px"></text><text class="label" x="170.53958677324565" y="160.34979423868313" font-size="8px"></text></g><g style="font-size: 13px;"><rect x="150" y="170.10288065843622" width="244.3424512678651" height="12.510288065843621" fill="#4472c4"></rect><rect x="150" y="183.2716049382716" width="167.33485346157482" height="12.510288065843621" fill="#ed7d31"></rect><rect x="150" y="196.440329218107" width="168.87000104397885" height="12.510288065843621" fill="#a5a5a5"></rect><rect x="150" y="209.6090534979424" width="15.539586773245656" height="12.510288065843621" fill="#ffc000"></rect><text class="label" x="402.8424512678651" y="178.60288065843622" font-size="10px">15.72x</text><text class="label" x="325.8348534615748" y="191.7716049382716" font-size="10px">10.77x</text><text class="label" x="327.37000104397885" y="204.940329218107" font-size="10px">10.87x</text><text class="label" x="174.03958677324565" y="218.1090534979424" font-size="10px">1x</text><text class="label" x="399.3424512678651" y="180.10288065843622" font-size="8px"></text><text class="label" x="322.3348534615748" y="193.2716049382716" font-size="8px"></text><text class="label" x="323.87000104397885" y="206.440329218107" font-size="8px"></text><text class="label" x="170.53958677324565" y="219.6090534979424" font-size="8px"></text></g><g style="font-size: 13px;"><rect x="150" y="229.36213991769546" width="440.9090909090908" height="12.510288065843621" fill="#4472c4"></rect><rect x="150" y="242.53086419753086" width="300.59124540856374" height="12.510288065843621" fill="#ed7d31"></rect><rect x="150" y="255.69958847736626" width="272.1002448942456" height="12.510288065843621" fill="#a5a5a5"></rect><rect x="150" y="268.86831275720164" width="15.539586773245656" height="12.510288065843621" fill="#ffc000"></rect><text class="label" x="599.4090909090908" y="237.86213991769546" font-size="10px">28.37x</text><text class="label" x="459.09124540856374" y="251.03086419753086" font-size="10px">19.34x</text><text class="label" x="430.6002448942456" y="264.19958847736626" font-size="10px">17.51x</text><text class="label" x="174.03958677324565" y="277.36831275720164" font-size="10px">1x</text><text class="label" x="595.9090909090908" y="239.36213991769546" font-size="8px"></text><text class="label" x="455.59124540856374" y="252.53086419753086" font-size="8px"></text><text class="label" x="427.1002448942456" y="265.69958847736626" font-size="8px"></text><text class="label" x="170.53958677324565" y="278.86831275720164" font-size="8px"></text></g><g style="font-size: 13px;"><rect x="150" y="288.6213991769547" width="200.77583295400433" height="12.510288065843621" fill="#4472c4"></rect><rect x="150" y="301.7901234567901" width="208.1190890439034" height="12.510288065843621" fill="#ed7d31"></rect><rect x="150" y="314.9588477366255" width="193.31552344985167" height="12.510288065843621" fill="#a5a5a5"></rect><rect x="150" y="328.12757201646093" width="15.539586773245656" height="12.510288065843621" fill="#ffc000"></rect><text class="label" x="359.27583295400433" y="297.1213991769547" font-size="10px">12.92x</text><text class="label" x="366.6190890439034" y="310.2901234567901" font-size="10px">13.39x</text><text class="label" x="351.81552344985164" y="323.4588477366255" font-size="10px">12.44x</text><text class="label" x="174.03958677324565" y="336.62757201646093" font-size="10px">1x</text><text class="label" x="355.77583295400433" y="298.6213991769547" font-size="8px"></text><text class="label" x="363.1190890439034" y="311.7901234567901" font-size="8px"></text><text class="label" x="348.31552344985164" y="324.9588477366255" font-size="8px"></text><text class="label" x="170.53958677324565" y="338.12757201646093" font-size="8px"></text></g><g style="font-size: 13px;"><rect x="150" y="347.880658436214" width="287.8070309149708" height="12.510288065843621" fill="#4472c4"></rect><rect x="150" y="361.04938271604937" width="149.49235777237203" height="12.510288065843621" fill="#ed7d31"></rect><rect x="150" y="374.2181069958848" width="216.7120438923209" height="12.510288065843621" fill="#a5a5a5"></rect><rect x="150" y="387.38683127572017" width="15.539586773245656" height="12.510288065843621" fill="#ffc000"></rect><text class="label" x="446.3070309149708" y="356.380658436214" font-size="10px">18.52x</text><text class="label" x="307.99235777237203" y="369.54938271604937" font-size="10px">9.62x</text><text class="label" x="375.21204389232093" y="382.7181069958848" font-size="10px">13.95x</text><text class="label" x="174.03958677324565" y="395.88683127572017" font-size="10px">1x</text><text class="label" x="442.8070309149708" y="357.880658436214" font-size="8px"></text><text class="label" x="304.49235777237203" y="371.04938271604937" font-size="8px"></text><text class="label" x="371.71204389232093" y="384.2181069958848" font-size="8px"></text><text class="label" x="170.53958677324565" y="397.38683127572017" font-size="8px"></text></g><g style="font-size: 13px;"><rect x="150" y="407.13991769547323" width="242.20523693814704" height="12.510288065843621" fill="#4472c4"></rect><rect x="150" y="420.3086419753086" width="186.6493906084672" height="12.510288065843621" fill="#ed7d31"></rect><rect x="150" y="433.47736625514403" width="202.23647292051632" height="12.510288065843621" fill="#a5a5a5"></rect><rect x="150" y="446.6460905349794" width="15.539586773245656" height="12.510288065843621" fill="#ffc000"></rect><text class="label" x="400.70523693814704" y="415.63991769547323" font-size="10px">15.59x</text><text class="label" x="345.14939060846723" y="428.8086419753086" font-size="10px">12.01x</text><text class="label" x="360.73647292051635" y="441.97736625514403" font-size="10px">13.01x</text><text class="label" x="174.03958677324565" y="455.1460905349794" font-size="10px">1x</text><text class="label" x="397.20523693814704" y="417.13991769547323" font-size="8px"></text><text class="label" x="341.64939060846723" y="430.3086419753086" font-size="8px"></text><text class="label" x="357.23647292051635" y="443.47736625514403" font-size="8px"></text><text class="label" x="170.53958677324565" y="456.6460905349794" font-size="8px"></text></g><g style="font-size: 13px;"><rect x="150" y="466.3991769547325" width="267.1596859014709" height="12.510288065843621" fill="#4472c4"></rect><rect x="150" y="479.5679012345679" width="247.76881769462088" height="12.510288065843621" fill="#ed7d31"></rect><rect x="150" y="492.73662551440333" width="261.1054899532322" height="12.510288065843621" fill="#a5a5a5"></rect><rect x="150" y="505.9053497942387" width="15.539586773245656" height="12.510288065843621" fill="#ffc000"></rect><text class="label" x="425.6596859014709" y="474.8991769547325" font-size="10px">17.19x</text><text class="label" x="406.2688176946209" y="488.0679012345679" font-size="10px">15.94x</text><text class="label" x="419.6054899532322" y="501.23662551440333" font-size="10px">16.8x</text><text class="label" x="174.03958677324565" y="514.4053497942386" font-size="10px">1x</text><text class="label" x="422.1596859014709" y="476.3991769547325" font-size="8px"></text><text class="label" x="402.7688176946209" y="489.5679012345679" font-size="8px"></text><text class="label" x="416.1054899532322" y="502.73662551440333" font-size="8px"></text><text class="label" x="170.53958677324565" y="515.9053497942386" font-size="8px"></text></g></g></svg>