<svg xmlns="http://www.w3.org/2000/svg" xmlns:xlink="http://www.w3.org/1999/xlink" width="800" height="555" style="background-color: white;"><g class="y axis" transform="translate(149,45)" fill="none" font-size="10" font-family="sans-serif" text-anchor="end" style="font-size: 13px;"><path class="domain" stroke="currentColor" d="M0.5,0.5V480.5"></path><g class="tick" opacity="1" transform="translate(0,32.592592592592595)" style="font-size: 13px;"><line stroke="currentColor" x2="0"></line><text fill="currentColor" x="-3" dy="0.32em">object (simple)    </text></g><g class="tick" opacity="1" transform="translate(0,91.85185185185186)" style="font-size: 13px;"><line stroke="currentColor" x2="0"></line><text fill="currentColor" x="-3" dy="0.32em">object (hierarchical)    </text></g><g class="tick" opacity="1" transform="translate(0,151.11111111111111)" style="font-size: 13px;"><line stroke="currentColor" x2="0"></line><text fill="currentColor" x="-3" dy="0.32em">object (recursive)    </text></g><g class="tick" opacity="1" transform="translate(0,210.37037037037035)" style="font-size: 13px;"><line stroke="currentColor" x2="0"></line><text fill="currentColor" x="-3" dy="0.32em">object (union, explicit)    </text></g><g class="tick" opacity="1" transform="translate(0,269.6296296296296)" style="font-size: 13px;"><line stroke="currentColor" x2="0"></line><text fill="currentColor" x="-3" dy="0.32em">array (simple)    </text></g><g class="tick" opacity="1" transform="translate(0,328.8888888888889)" style="font-size: 13px;"><line stroke="currentColor" x2="0"></line><text fill="currentColor" x="-3" dy="0.32em">array (hierarchical)    </text></g><g class="tick" opacity="1" transform="translate(0,388.14814814814815)" style="font-size: 13px;"><line stroke="currentColor" x2="0"></line><text fill="currentColor" x="-3" dy="0.32em">array (recursive)    </text></g><g class="tick" opacity="1" transform="translate(0,447.40740740740745)" style="font-size: 13px;"><line stroke="currentColor" x2="0"></line><text fill="currentColor" x="-3" dy="0.32em">array (union, explicit)    </text></g></g><g class="x axis" transform="translate(149,525)" fill="none" font-size="10" font-family="sans-serif" text-anchor="middle" style="font-size: 13px;"><path class="domain" stroke="currentColor" d="M0.5,0.5H485.5"></path><g class="tick" opacity="1" transform="translate(0.5,0)" style="font-size: 13px;"><line stroke="currentColor" y2="6"></line><text fill="currentColor" y="9" dy="0.71em">0x</text></g><g class="tick" opacity="1" transform="translate(77.94022274723417,0)" style="font-size: 13px;"><line stroke="currentColor" y2="6"></line><text fill="currentColor" y="9" dy="0.71em">5x</text></g><g class="tick" opacity="1" transform="translate(155.38044549446835,0)" style="font-size: 13px;"><line stroke="currentColor" y2="6"></line><text fill="currentColor" y="9" dy="0.71em">10x</text></g><g class="tick" opacity="1" transform="translate(232.82066824170252,0)" style="font-size: 13px;"><line stroke="currentColor" y2="6"></line><text fill="currentColor" y="9" dy="0.71em">15x</text></g><g class="tick" opacity="1" transform="translate(310.2608909889367,0)" style="font-size: 13px;"><line stroke="currentColor" y2="6"></line><text fill="currentColor" y="9" dy="0.71em">20x</text></g><g class="tick" opacity="1" transform="translate(387.7011137361709,0)" style="font-size: 13px;"><line stroke="currentColor" y2="6"></line><text fill="currentColor" y="9" dy="0.71em">25x</text></g><g class="tick" opacity="1" transform="translate(465.14133648340504,0)" style="font-size: 13px;"><line stroke="currentColor" y2="6"></line><text fill="currentColor" y="9" dy="0.71em">30x</text></g></g><text transform="translate(400, 30)" style="text-anchor: middle; font-size: 20px; font-weight: bold;">server benchmark</text><rect x="650" y="125" width="230" height="5" fill="gray"></rect><rect x="645" y="35" width="230" height="90" fill="none" stroke="black"></rect><rect x="655" y="45" width="10" height="10" style="fill: #4472c4;"></rect><text x="670" y="55" style="font-size: 12px;">express-typia</text><rect x="655" y="65" width="10" height="10" style="fill: #ed7d31;"></rect><text x="670" y="75" style="font-size: 12px;">fastify</text><rect x="655" y="85" width="10" height="10" style="fill: #a5a5a5;"></rect><text x="670" y="95" style="font-size: 12px;">express-pure</text><rect x="655" y="105" width="10" height="10" style="fill: #ffc000;"></rect><text x="670" y="115" style="font-size: 12px;">express-class-transformer</text><g style="font-size: 13px;"><g style="font-size: 13px;"><rect x="150" y="51.584362139917694" width="162.08224710152984" height="12.510288065843621" fill="#4472c4"></rect><rect x="150" y="64.75308641975309" width="311.16206324042804" height="12.510288065843621" fill="#ed7d31"></rect><rect x="150" y="77.92181069958848" width="119.78239436362149" height="12.510288065843621" fill="#a5a5a5"></rect><rect x="150" y="91.09053497942386" width="15.488044549446835" height="12.510288065843621" fill="#ffc000"></rect><text class="label" x="320.58224710152984" y="60.084362139917694" font-size="10px">10.46x</text><text class="label" x="469.66206324042804" y="73.25308641975309" font-size="10px">20.09x</text><text class="label" x="278.2823943636215" y="86.42181069958848" font-size="10px">7.73x</text><text class="label" x="173.98804454944684" y="99.59053497942386" font-size="10px">1x</text><text class="label" x="317.08224710152984" y="61.584362139917694" font-size="8px"></text><text class="label" x="466.16206324042804" y="74.75308641975309" font-size="8px"></text><text class="label" x="274.7823943636215" y="87.92181069958848" font-size="8px"></text><text class="label" x="170.48804454944684" y="101.09053497942386" font-size="8px"></text></g><g style="font-size: 13px;"><rect x="150" y="110.84362139917695" width="196.09528309909865" height="12.510288065843621" fill="#4472c4"></rect><rect x="150" y="124.01234567901236" width="260.23331001552737" height="12.510288065843621" fill="#ed7d31"></rect><rect x="150" y="137.18106995884773" width="138.99665177090085" height="12.510288065843621" fill="#a5a5a5"></rect><rect x="150" y="150.34979423868313" width="15.488044549446835" height="12.510288065843621" fill="#ffc000"></rect><text class="label" x="354.59528309909865" y="119.34362139917695" font-size="10px">12.66x</text><text class="label" x="418.73331001552737" y="132.51234567901236" font-size="10px">16.8x</text><text class="label" x="297.4966517709008" y="145.68106995884773" font-size="10px">8.97x</text><text class="label" x="173.98804454944684" y="158.84979423868313" font-size="10px">1x</text><text class="label" x="351.09528309909865" y="120.84362139917695" font-size="8px"></text><text class="label" x="415.23331001552737" y="134.01234567901236" font-size="8px"></text><text class="label" x="293.9966517709008" y="147.18106995884773" font-size="8px"></text><text class="label" x="170.48804454944684" y="160.34979423868313" font-size="8px"></text></g><g style="font-size: 13px;"><rect x="150" y="170.10288065843622" width="241.97696636247304" height="12.510288065843621" fill="#4472c4"></rect><rect x="150" y="183.2716049382716" width="168.68278694373817" height="12.510288065843621" fill="#ed7d31"></rect><rect x="150" y="196.440329218107" width="167.95520016861417" height="12.510288065843621" fill="#a5a5a5"></rect><rect x="150" y="209.6090534979424" width="15.488044549446835" height="12.510288065843621" fill="#ffc000"></rect><text class="label" x="400.47696636247304" y="178.60288065843622" font-size="10px">15.62x</text><text class="label" x="327.18278694373817" y="191.7716049382716" font-size="10px">10.89x</text><text class="label" x="326.45520016861417" y="204.940329218107" font-size="10px">10.84x</text><text class="label" x="173.98804454944684" y="218.1090534979424" font-size="10px">1x</text><text class="label" x="396.97696636247304" y="180.10288065843622" font-size="8px"></text><text class="label" x="323.68278694373817" y="193.2716049382716" font-size="8px"></text><text class="label" x="322.95520016861417" y="206.440329218107" font-size="8px"></text><text class="label" x="170.48804454944684" y="219.6090534979424" font-size="8px"></text></g><g style="font-size: 13px;"><rect x="150" y="229.36213991769546" width="440.9090909090909" height="12.510288065843621" fill="#4472c4"></rect><rect x="150" y="242.53086419753086" width="300.8964745325305" height="12.510288065843621" fill="#ed7d31"></rect><rect x="150" y="255.69958847736626" width="256.61231772669333" height="12.510288065843621" fill="#a5a5a5"></rect><rect x="150" y="268.86831275720164" width="15.488044549446835" height="12.510288065843621" fill="#ffc000"></rect><text class="label" x="599.4090909090909" y="237.86213991769546" font-size="10px">28.47x</text><text class="label" x="459.3964745325305" y="251.03086419753086" font-size="10px">19.43x</text><text class="label" x="415.11231772669333" y="264.19958847736626" font-size="10px">16.57x</text><text class="label" x="173.98804454944684" y="277.36831275720164" font-size="10px">1x</text><text class="label" x="595.9090909090909" y="239.36213991769546" font-size="8px"></text><text class="label" x="455.8964745325305" y="252.53086419753086" font-size="8px"></text><text class="label" x="411.61231772669333" y="265.69958847736626" font-size="8px"></text><text class="label" x="170.48804454944684" y="278.86831275720164" font-size="8px"></text></g><g style="font-size: 13px;"><rect x="150" y="288.6213991769547" width="196.98838104636607" height="12.510288065843621" fill="#4472c4"></rect><rect x="150" y="301.7901234567901" width="208.84564720718026" height="12.510288065843621" fill="#ed7d31"></rect><rect x="150" y="314.9588477366255" width="189.083096652655" height="12.510288065843621" fill="#a5a5a5"></rect><rect x="150" y="328.12757201646093" width="15.488044549446835" height="12.510288065843621" fill="#ffc000"></rect><text class="label" x="355.48838104636604" y="297.1213991769547" font-size="10px">12.72x</text><text class="label" x="367.34564720718026" y="310.2901234567901" font-size="10px">13.48x</text><text class="label" x="347.583096652655" y="323.4588477366255" font-size="10px">12.21x</text><text class="label" x="173.98804454944684" y="336.62757201646093" font-size="10px">1x</text><text class="label" x="351.98838104636604" y="298.6213991769547" font-size="8px"></text><text class="label" x="363.84564720718026" y="311.7901234567901" font-size="8px"></text><text class="label" x="344.083096652655" y="324.9588477366255" font-size="8px"></text><text class="label" x="170.48804454944684" y="338.12757201646093" font-size="8px"></text></g><g style="font-size: 13px;"><rect x="150" y="347.880658436214" width="300.9062302809979" height="12.510288065843621" fill="#4472c4"></rect><rect x="150" y="361.04938271604937" width="131.19781659336357" height="12.510288065843621" fill="#ed7d31"></rect><rect x="150" y="374.2181069958848" width="220.068801835424" height="12.510288065843621" fill="#a5a5a5"></rect><rect x="150" y="387.38683127572017" width="15.488044549446835" height="12.510288065843621" fill="#ffc000"></rect><text class="label" x="459.4062302809979" y="356.380658436214" font-size="10px">19.43x</text><text class="label" x="289.69781659336354" y="369.54938271604937" font-size="10px">8.47x</text><text class="label" x="378.568801835424" y="382.7181069958848" font-size="10px">14.21x</text><text class="label" x="173.98804454944684" y="395.88683127572017" font-size="10px">1x</text><text class="label" x="455.9062302809979" y="357.880658436214" font-size="8px"></text><text class="label" x="286.19781659336354" y="371.04938271604937" font-size="8px"></text><text class="label" x="375.068801835424" y="384.2181069958848" font-size="8px"></text><text class="label" x="170.48804454944684" y="397.38683127572017" font-size="8px"></text></g><g style="font-size: 13px;"><rect x="150" y="407.13991769547323" width="224.52697659490192" height="12.510288065843621" fill="#4472c4"></rect><rect x="150" y="420.3086419753086" width="174.57191160525386" height="12.510288065843621" fill="#ed7d31"></rect><rect x="150" y="433.47736625514403" width="192.143635731662" height="12.510288065843621" fill="#a5a5a5"></rect><rect x="150" y="446.6460905349794" width="15.488044549446835" height="12.510288065843621" fill="#ffc000"></rect><text class="label" x="383.02697659490195" y="415.63991769547323" font-size="10px">14.5x</text><text class="label" x="333.07191160525383" y="428.8086419753086" font-size="10px">11.27x</text><text class="label" x="350.643635731662" y="441.97736625514403" font-size="10px">12.41x</text><text class="label" x="173.98804454944684" y="455.1460905349794" font-size="10px">1x</text><text class="label" x="379.52697659490195" y="417.13991769547323" font-size="8px"></text><text class="label" x="329.57191160525383" y="430.3086419753086" font-size="8px"></text><text class="label" x="347.143635731662" y="443.47736625514403" font-size="8px"></text><text class="label" x="170.48804454944684" y="456.6460905349794" font-size="8px"></text></g><g style="font-size: 13px;"><rect x="150" y="466.3991769547325" width="242.99575112970382" height="12.510288065843621" fill="#4472c4"></rect><rect x="150" y="479.5679012345679" width="228.85998516770857" height="12.510288065843621" fill="#ed7d31"></rect><rect x="150" y="492.73662551440333" width="246.60689150208933" height="12.510288065843621" fill="#a5a5a5"></rect><rect x="150" y="505.9053497942387" width="15.488044549446835" height="12.510288065843621" fill="#ffc000"></rect><text class="label" x="401.4957511297038" y="474.8991769547325" font-size="10px">15.69x</text><text class="label" x="387.3599851677086" y="488.0679012345679" font-size="10px">14.78x</text><text class="label" x="405.1068915020893" y="501.23662551440333" font-size="10px">15.92x</text><text class="label" x="173.98804454944684" y="514.4053497942386" font-size="10px">1x</text><text class="label" x="397.9957511297038" y="476.3991769547325" font-size="8px"></text><text class="label" x="383.8599851677086" y="489.5679012345679" font-size="8px"></text><text class="label" x="401.6068915020893" y="502.73662551440333" font-size="8px"></text><text class="label" x="170.48804454944684" y="515.9053497942386" font-size="8px"></text></g></g></svg>