<svg xmlns="http://www.w3.org/2000/svg" xmlns:xlink="http://www.w3.org/1999/xlink" width="800" height="794" style="background-color: white;"><g class="y axis" transform="translate(149,45)" fill="none" font-size="10" font-family="sans-serif" text-anchor="end" style="font-size: 13px;"><path class="domain" stroke="currentColor" d="M0.5,0.5V600.5"></path><g class="tick" opacity="1" transform="translate(0,40.740740740740726)" style="font-size: 13px;"><line stroke="currentColor" x2="0"></line><text fill="currentColor" x="-3" dy="0.32em">object (simple)    </text></g><g class="tick" opacity="1" transform="translate(0,114.81481481481481)" style="font-size: 13px;"><line stroke="currentColor" x2="0"></line><text fill="currentColor" x="-3" dy="0.32em">object (hierarchical)    </text></g><g class="tick" opacity="1" transform="translate(0,188.88888888888889)" style="font-size: 13px;"><line stroke="currentColor" x2="0"></line><text fill="currentColor" x="-3" dy="0.32em">object (recursive)    </text></g><g class="tick" opacity="1" transform="translate(0,262.96296296296293)" style="font-size: 13px;"><line stroke="currentColor" x2="0"></line><text fill="currentColor" x="-3" dy="0.32em">object (union, explicit)    </text></g><g class="tick" opacity="1" transform="translate(0,337.037037037037)" style="font-size: 13px;"><line stroke="currentColor" x2="0"></line><text fill="currentColor" x="-3" dy="0.32em">array (simple)    </text></g><g class="tick" opacity="1" transform="translate(0,411.1111111111111)" style="font-size: 13px;"><line stroke="currentColor" x2="0"></line><text fill="currentColor" x="-3" dy="0.32em">array (hierarchical)    </text></g><g class="tick" opacity="1" transform="translate(0,485.18518518518516)" style="font-size: 13px;"><line stroke="currentColor" x2="0"></line><text fill="currentColor" x="-3" dy="0.32em">array (recursive)    </text></g><g class="tick" opacity="1" transform="translate(0,559.2592592592592)" style="font-size: 13px;"><line stroke="currentColor" x2="0"></line><text fill="currentColor" x="-3" dy="0.32em">array (union, explicit)    </text></g></g><g class="x axis" transform="translate(149,645)" fill="none" font-size="10" font-family="sans-serif" text-anchor="middle" style="font-size: 13px;"><path class="domain" stroke="currentColor" d="M0.5,0.5H485.5"></path><g class="tick" opacity="1" transform="translate(0.5,0)" style="font-size: 13px;"><line stroke="currentColor" y2="6"></line><text fill="currentColor" y="9" dy="0.71em">0x</text></g><g class="tick" opacity="1" transform="translate(119.91991336124899,0)" style="font-size: 13px;"><line stroke="currentColor" y2="6"></line><text fill="currentColor" y="9" dy="0.71em">50x</text></g><g class="tick" opacity="1" transform="translate(239.33982672249797,0)" style="font-size: 13px;"><line stroke="currentColor" y2="6"></line><text fill="currentColor" y="9" dy="0.71em">100x</text></g><g class="tick" opacity="1" transform="translate(358.75974008374703,0)" style="font-size: 13px;"><line stroke="currentColor" y2="6"></line><text fill="currentColor" y="9" dy="0.71em">150x</text></g><g class="tick" opacity="1" transform="translate(478.17965344499595,0)" style="font-size: 13px;"><line stroke="currentColor" y2="6"></line><text fill="currentColor" y="9" dy="0.71em">200x</text></g></g><text transform="translate(400, 30)" style="text-anchor: middle; font-size: 20px; font-weight: bold;">server-assert benchmark</text><rect x="650" y="145" width="230" height="5" fill="gray"></rect><rect x="645" y="35" width="230" height="110" fill="none" stroke="black"></rect><rect x="655" y="45" width="10" height="10" style="fill: #4472c4;"></rect><text x="670" y="55" style="font-size: 12px;">fastify-class-transformer</text><rect x="655" y="65" width="10" height="10" style="fill: #ed7d31;"></rect><text x="670" y="75" style="font-size: 12px;">fastify-pure</text><rect x="655" y="85" width="10" height="10" style="fill: #a5a5a5;"></rect><text x="670" y="95" style="font-size: 12px;">fastify-typia</text><rect x="655" y="105" width="10" height="10" style="fill: #ffc000;"></rect><text x="670" y="115" style="font-size: 12px;">express-typia</text><rect x="655" y="125" width="10" height="10" style="fill: #5b9bd5;"></rect><text x="670" y="135" style="font-size: 12px;">express-class-transformer</text><text x="20" y="709" style="font-size: 12px;">  - CPU: AMD Ryzen 7 6800HS with Radeon Graphics</text><text x="20" y="726" style="font-size: 12px;">  - OS: win32</text><text x="20" y="743" style="font-size: 12px;">  - RAM: 63 GB</text><text x="20" y="760" style="font-size: 12px;">  - NodeJS version: v16.20.0</text><text x="20" y="777" style="font-size: 12px;">  - Typia version: v4.1.1</text><g style="font-size: 13px;"><g style="font-size: 13px;"><rect x="150" y="53.06747341400805" width="2.38839826722498" height="12.541254125412543" fill="#4472c4"></rect><rect x="150" y="66.26879354602124" width="27.54316483530502" height="12.541254125412543" fill="#ed7d31"></rect><rect x="150" y="79.47011367803445" width="28.190754069223704" height="12.541254125412543" fill="#a5a5a5"></rect><rect x="150" y="92.67143381004766" width="65.3549289899947" height="12.541254125412543" fill="#ffc000"></rect><rect x="150" y="105.87275394206085" width="46.26996174769694" height="12.541254125412543" fill="#5b9bd5"></rect><text class="label" x="160.88839826722497" y="61.56747341400805" font-size="10px">1x</text><text class="label" x="186.04316483530502" y="74.76879354602124" font-size="10px">12x</text><text class="label" x="186.69075406922371" y="87.97011367803445" font-size="10px">12x</text><text class="label" x="223.8549289899947" y="101.17143381004766" font-size="10px">27x</text><text class="label" x="204.76996174769693" y="114.37275394206085" font-size="10px">19x</text><text class="label" x="157.38839826722497" y="63.06747341400805" font-size="8px"></text><text class="label" x="182.54316483530502" y="76.26879354602124" font-size="8px"></text><text class="label" x="183.19075406922371" y="89.47011367803445" font-size="8px"></text><text class="label" x="220.3549289899947" y="102.67143381004766" font-size="8px"></text><text class="label" x="201.26996174769693" y="115.87275394206085" font-size="8px"></text></g><g style="font-size: 13px;"><rect x="150" y="127.14154748808213" width="2.38839826722498" height="12.541254125412543" fill="#4472c4"></rect><rect x="150" y="140.34286762009532" width="27.708511366078454" height="12.541254125412543" fill="#ed7d31"></rect><rect x="150" y="153.54418775210854" width="29.081979293418833" height="12.541254125412543" fill="#a5a5a5"></rect><rect x="150" y="166.74550788412174" width="183.3057786141744" height="12.541254125412543" fill="#ffc000"></rect><rect x="150" y="179.94682801613493" width="129.04849067555188" height="12.541254125412543" fill="#5b9bd5"></rect><text class="label" x="160.88839826722497" y="135.64154748808213" font-size="10px">1x</text><text class="label" x="186.20851136607845" y="148.84286762009532" font-size="10px">12x</text><text class="label" x="187.58197929341884" y="162.04418775210854" font-size="10px">12x</text><text class="label" x="341.8057786141744" y="175.24550788412174" font-size="10px">77x</text><text class="label" x="287.5484906755519" y="188.44682801613493" font-size="10px">54x</text><text class="label" x="157.38839826722497" y="137.14154748808213" font-size="8px"></text><text class="label" x="182.70851136607845" y="150.34286762009532" font-size="8px"></text><text class="label" x="184.08197929341884" y="163.54418775210854" font-size="8px"></text><text class="label" x="338.3057786141744" y="176.74550788412174" font-size="8px"></text><text class="label" x="284.0484906755519" y="189.94682801613493" font-size="8px"></text></g><g style="font-size: 13px;"><rect x="150" y="201.2156215621562" width="2.38839826722498" height="12.541254125412543" fill="#4472c4"></rect><rect x="150" y="214.4169416941694" width="31.130973355694756" height="12.541254125412543" fill="#ed7d31"></rect><rect x="150" y="227.61826182618262" width="32.6987918004685" height="12.541254125412543" fill="#a5a5a5"></rect><rect x="150" y="240.8195819581958" width="272.4769812459498" height="12.541254125412543" fill="#ffc000"></rect><rect x="150" y="254.020902090209" width="187.1798976472755" height="12.541254125412543" fill="#5b9bd5"></rect><text class="label" x="160.88839826722497" y="209.7156215621562" font-size="10px">1x</text><text class="label" x="189.63097335569475" y="222.9169416941694" font-size="10px">13x</text><text class="label" x="191.19879180046848" y="236.11826182618262" font-size="10px">14x</text><text class="label" x="430.9769812459498" y="249.3195819581958" font-size="10px">114x</text><text class="label" x="345.67989764727554" y="262.520902090209" font-size="10px">78x</text><text class="label" x="157.38839826722497" y="211.2156215621562" font-size="8px"></text><text class="label" x="186.13097335569475" y="224.4169416941694" font-size="8px"></text><text class="label" x="187.69879180046848" y="237.61826182618262" font-size="8px"></text><text class="label" x="427.4769812459498" y="250.8195819581958" font-size="8px"></text><text class="label" x="342.17989764727554" y="264.020902090209" font-size="8px"></text></g><g style="font-size: 13px;"><rect x="150" y="275.28969563623025" width="2.38839826722498" height="12.541254125412543" fill="#4472c4"></rect><rect x="150" y="288.49101576824347" width="14.751142654824003" height="12.541254125412543" fill="#ed7d31"></rect><rect x="150" y="301.6923359002567" width="22.604135048283617" height="12.541254125412543" fill="#a5a5a5"></rect><rect x="150" y="314.89365603226986" width="271.8130301790197" height="12.541254125412543" fill="#ffc000"></rect><rect x="150" y="328.0949761642831" width="197.75295893372228" height="12.541254125412543" fill="#5b9bd5"></rect><text class="label" x="160.88839826722497" y="283.78969563623025" font-size="10px">1x</text><text class="label" x="173.251142654824" y="296.99101576824347" font-size="10px">6x</text><text class="label" x="181.1041350482836" y="310.1923359002567" font-size="10px">9x</text><text class="label" x="430.3130301790197" y="323.39365603226986" font-size="10px">114x</text><text class="label" x="356.2529589337223" y="336.5949761642831" font-size="10px">83x</text><text class="label" x="157.38839826722497" y="285.28969563623025" font-size="8px"></text><text class="label" x="169.751142654824" y="298.49101576824347" font-size="8px"></text><text class="label" x="177.6041350482836" y="311.6923359002567" font-size="8px"></text><text class="label" x="426.8130301790197" y="324.89365603226986" font-size="8px"></text><text class="label" x="352.7529589337223" y="338.0949761642831" font-size="8px"></text></g><g style="font-size: 13px;"><rect x="150" y="349.3637697103044" width="2.38839826722498" height="12.541254125412543" fill="#4472c4"></rect><rect x="150" y="362.56508984231755" width="28.110900301395834" height="12.541254125412543" fill="#ed7d31"></rect><rect x="150" y="375.76640997433077" width="25.787207694151764" height="12.541254125412543" fill="#a5a5a5"></rect><rect x="150" y="388.967730106344" width="271.12016671075287" height="12.541254125412543" fill="#ffc000"></rect><rect x="150" y="402.16905023835716" width="182.92259896578014" height="12.541254125412543" fill="#5b9bd5"></rect><text class="label" x="160.88839826722497" y="357.8637697103044" font-size="10px">1x</text><text class="label" x="186.61090030139584" y="371.06508984231755" font-size="10px">12x</text><text class="label" x="184.28720769415176" y="384.26640997433077" font-size="10px">11x</text><text class="label" x="429.62016671075287" y="397.467730106344" font-size="10px">114x</text><text class="label" x="341.42259896578014" y="410.66905023835716" font-size="10px">77x</text><text class="label" x="157.38839826722497" y="359.3637697103044" font-size="8px"></text><text class="label" x="183.11090030139584" y="372.56508984231755" font-size="8px"></text><text class="label" x="180.78720769415176" y="385.76640997433077" font-size="8px"></text><text class="label" x="426.12016671075287" y="398.967730106344" font-size="8px"></text><text class="label" x="337.92259896578014" y="412.16905023835716" font-size="8px"></text></g><g style="font-size: 13px;"><rect x="150" y="423.4378437843784" width="2.8454822568703153" height="12.541254125412543" fill="#4472c4"></rect><rect x="150" y="436.6391639163916" width="2.38839826722498" height="12.541254125412543" fill="#ed7d31"></rect><rect x="150" y="449.84048404840485" width="2.7236405481929546" height="12.541254125412543" fill="#a5a5a5"></rect><rect x="150" y="463.041804180418" width="11.485052813836687" height="12.541254125412543" fill="#ffc000"></rect><rect x="150" y="476.24312431243123" width="4.817278083103013" height="12.541254125412543" fill="#5b9bd5"></rect><text class="label" x="161.34548225687033" y="431.9378437843784" font-size="10px">1x</text><text class="label" x="160.88839826722497" y="445.1391639163916" font-size="10px">1x</text><text class="label" x="161.22364054819295" y="458.34048404840485" font-size="10px">1x</text><text class="label" x="169.9850528138367" y="471.541804180418" font-size="10px">5x</text><text class="label" x="163.31727808310302" y="484.74312431243123" font-size="10px">2x</text><text class="label" x="157.84548225687033" y="433.4378437843784" font-size="8px"></text><text class="label" x="157.38839826722497" y="446.6391639163916" font-size="8px"></text><text class="label" x="157.72364054819295" y="459.84048404840485" font-size="8px"></text><text class="label" x="166.4850528138367" y="473.041804180418" font-size="8px"></text><text class="label" x="159.81727808310302" y="486.24312431243123" font-size="8px"></text></g><g style="font-size: 13px;"><rect x="150" y="497.51191785845253" width="2.38839826722498" height="12.541254125412543" fill="#4472c4"></rect><rect x="150" y="510.7132379904657" width="2.4288337661039754" height="12.541254125412543" fill="#ed7d31"></rect><rect x="150" y="523.9145581224789" width="2.473933929940416" height="12.541254125412543" fill="#a5a5a5"></rect><rect x="150" y="537.1158782544921" width="4.494002479764772" height="12.541254125412543" fill="#ffc000"></rect><rect x="150" y="550.3171983865053" width="3.6217132516085506" height="12.541254125412543" fill="#5b9bd5"></rect><text class="label" x="160.88839826722497" y="506.01191785845253" font-size="10px">1x</text><text class="label" x="160.92883376610396" y="519.2132379904657" font-size="10px">1x</text><text class="label" x="160.97393392994042" y="532.4145581224789" font-size="10px">1x</text><text class="label" x="162.99400247976476" y="545.6158782544921" font-size="10px">2x</text><text class="label" x="162.12171325160855" y="558.8171983865053" font-size="10px">2x</text><text class="label" x="157.38839826722497" y="507.51191785845253" font-size="8px"></text><text class="label" x="157.42883376610396" y="520.7132379904657" font-size="8px"></text><text class="label" x="157.47393392994042" y="533.9145581224789" font-size="8px"></text><text class="label" x="159.49400247976476" y="547.1158782544921" font-size="8px"></text><text class="label" x="158.62171325160855" y="560.3171983865053" font-size="8px"></text></g><g style="font-size: 13px;"><rect x="150" y="571.5859919325266" width="2.38839826722498" height="12.541254125412543" fill="#4472c4"></rect><rect x="150" y="584.7873120645397" width="12.745423566247439" height="12.541254125412543" fill="#ed7d31"></rect><rect x="150" y="597.9886321965529" width="19.57138307162917" height="12.541254125412543" fill="#a5a5a5"></rect><rect x="150" y="611.1899523285662" width="440.9090909090908" height="12.541254125412543" fill="#ffc000"></rect><rect x="150" y="624.3912724605793" width="330.233168953573" height="12.541254125412543" fill="#5b9bd5"></rect><text class="label" x="160.88839826722497" y="580.0859919325266" font-size="10px">1x</text><text class="label" x="171.24542356624744" y="593.2873120645397" font-size="10px">5x</text><text class="label" x="178.07138307162916" y="606.4886321965529" font-size="10px">8x</text><text class="label" x="599.4090909090908" y="619.6899523285662" font-size="10px">185x</text><text class="label" x="488.733168953573" y="632.8912724605793" font-size="10px">138x</text><text class="label" x="157.38839826722497" y="581.5859919325266" font-size="8px"></text><text class="label" x="167.74542356624744" y="594.7873120645397" font-size="8px"></text><text class="label" x="174.57138307162916" y="607.9886321965529" font-size="8px"></text><text class="label" x="595.9090909090908" y="621.1899523285662" font-size="8px"></text><text class="label" x="485.233168953573" y="634.3912724605793" font-size="8px"></text></g></g></svg>