<svg xmlns="http://www.w3.org/2000/svg" xmlns:xlink="http://www.w3.org/1999/xlink" width="800" height="914" style="background-color: white;"><g class="y axis" transform="translate(149,45)" fill="none" font-size="10" font-family="sans-serif" text-anchor="end" style="font-size: 13px;"><path class="domain" stroke="currentColor" d="M0.5,0.5V720.5"></path><g class="tick" opacity="1" transform="translate(0,48.88888888888886)" style="font-size: 13px;"><line stroke="currentColor" x2="0"></line><text fill="currentColor" x="-3" dy="0.32em">object (simple)    </text></g><g class="tick" opacity="1" transform="translate(0,137.77777777777774)" style="font-size: 13px;"><line stroke="currentColor" x2="0"></line><text fill="currentColor" x="-3" dy="0.32em">object (hierarchical)    </text></g><g class="tick" opacity="1" transform="translate(0,226.66666666666663)" style="font-size: 13px;"><line stroke="currentColor" x2="0"></line><text fill="currentColor" x="-3" dy="0.32em">object (recursive)    </text></g><g class="tick" opacity="1" transform="translate(0,315.5555555555555)" style="font-size: 13px;"><line stroke="currentColor" x2="0"></line><text fill="currentColor" x="-3" dy="0.32em">object (union, explicit)    </text></g><g class="tick" opacity="1" transform="translate(0,404.4444444444444)" style="font-size: 13px;"><line stroke="currentColor" x2="0"></line><text fill="currentColor" x="-3" dy="0.32em">array (simple)    </text></g><g class="tick" opacity="1" transform="translate(0,493.3333333333333)" style="font-size: 13px;"><line stroke="currentColor" x2="0"></line><text fill="currentColor" x="-3" dy="0.32em">array (hierarchical)    </text></g><g class="tick" opacity="1" transform="translate(0,582.2222222222222)" style="font-size: 13px;"><line stroke="currentColor" x2="0"></line><text fill="currentColor" x="-3" dy="0.32em">array (recursive)    </text></g><g class="tick" opacity="1" transform="translate(0,671.1111111111111)" style="font-size: 13px;"><line stroke="currentColor" x2="0"></line><text fill="currentColor" x="-3" dy="0.32em">array (union, explicit)    </text></g></g><g class="x axis" transform="translate(149,765)" fill="none" font-size="10" font-family="sans-serif" text-anchor="middle" style="font-size: 13px;"><path class="domain" stroke="currentColor" d="M0.5,0.5H485.5"></path><g class="tick" opacity="1" transform="translate(0.5,0)" style="font-size: 13px;"><line stroke="currentColor" y2="6"></line><text fill="currentColor" y="9" dy="0.71em">0x</text></g><g class="tick" opacity="1" transform="translate(135.94896341029502,0)" style="font-size: 13px;"><line stroke="currentColor" y2="6"></line><text fill="currentColor" y="9" dy="0.71em">10x</text></g><g class="tick" opacity="1" transform="translate(271.39792682059004,0)" style="font-size: 13px;"><line stroke="currentColor" y2="6"></line><text fill="currentColor" y="9" dy="0.71em">20x</text></g><g class="tick" opacity="1" transform="translate(406.84689023088515,0)" style="font-size: 13px;"><line stroke="currentColor" y2="6"></line><text fill="currentColor" y="9" dy="0.71em">30x</text></g></g><text transform="translate(400, 30)" style="text-anchor: middle; font-size: 20px; font-weight: bold;">server-stringify benchmark</text><rect x="650" y="165" width="230" height="5" fill="gray"></rect><rect x="645" y="35" width="230" height="130" fill="none" stroke="black"></rect><rect x="655" y="45" width="10" height="10" style="fill: #4472c4;"></rect><text x="670" y="55" style="font-size: 12px;">fastify-typia</text><rect x="655" y="65" width="10" height="10" style="fill: #ed7d31;"></rect><text x="670" y="75" style="font-size: 12px;">fastify-pure</text><rect x="655" y="85" width="10" height="10" style="fill: #a5a5a5;"></rect><text x="670" y="95" style="font-size: 12px;">fastify-class-transformer</text><rect x="655" y="105" width="10" height="10" style="fill: #ffc000;"></rect><text x="670" y="115" style="font-size: 12px;">express-typia</text><rect x="655" y="125" width="10" height="10" style="fill: #5b9bd5;"></rect><text x="670" y="135" style="font-size: 12px;">express-pure</text><rect x="655" y="145" width="10" height="10" style="fill: #70ad47;"></rect><text x="670" y="155" style="font-size: 12px;">express-class-transformer</text><text x="20" y="829" style="font-size: 12px;">  - CPU: AMD Ryzen 7 6800HS with Radeon Graphics</text><text x="20" y="846" style="font-size: 12px;">  - OS: win32</text><text x="20" y="863" style="font-size: 12px;">  - RAM: 63 GB</text><text x="20" y="880" style="font-size: 12px;">  - NodeJS version: v16.20.0</text><text x="20" y="897" style="font-size: 12px;">  - Typia version: v4.1.1</text><g style="font-size: 13px;"><g style="font-size: 13px;"><rect x="150" y="54.55004591368224" width="200.7565539490149" height="12.56198347107438" fill="#4472c4"></rect><rect x="150" y="67.77318640955001" width="187.61689524796202" height="12.56198347107438" fill="#ed7d31"></rect><rect x="150" y="80.99632690541777" width="14.684144468452539" height="12.56198347107438" fill="#a5a5a5"></rect><rect x="150" y="94.21946740128556" width="136.13554436129257" height="12.56198347107438" fill="#ffc000"></rect><rect x="150" y="107.44260789715332" width="99.63338424584165" height="12.56198347107438" fill="#5b9bd5"></rect><rect x="150" y="120.66574839302109" width="13.544896341029505" height="12.56198347107438" fill="#70ad47"></rect><text class="label" x="359.2565539490149" y="63.05004591368224" font-size="10px">14.82x</text><text class="label" x="346.116895247962" y="76.27318640955001" font-size="10px">13.85x</text><text class="label" x="173.18414446845253" y="89.49632690541777" font-size="10px">1.08x</text><text class="label" x="294.63554436129255" y="102.71946740128556" font-size="10px">10.05x</text><text class="label" x="258.1333842458416" y="115.94260789715332" font-size="10px">7.36x</text><text class="label" x="172.0448963410295" y="129.1657483930211" font-size="10px">1x</text><text class="label" x="355.7565539490149" y="64.55004591368224" font-size="8px"></text><text class="label" x="342.616895247962" y="77.77318640955001" font-size="8px"></text><text class="label" x="169.68414446845253" y="90.99632690541777" font-size="8px"></text><text class="label" x="291.13554436129255" y="104.21946740128556" font-size="8px"></text><text class="label" x="254.63338424584165" y="117.44260789715332" font-size="8px"></text><text class="label" x="168.5448963410295" y="130.6657483930211" font-size="8px"></text></g><g style="font-size: 13px;"><rect x="150" y="143.4389348025711" width="200.2205097349583" height="12.56198347107438" fill="#4472c4"></rect><rect x="150" y="156.66207529843888" width="176.89901849791414" height="12.56198347107438" fill="#ed7d31"></rect><rect x="150" y="169.88521579430665" width="13.544896341029505" height="12.56198347107438" fill="#a5a5a5"></rect><rect x="150" y="183.10835629017444" width="167.2411529885278" height="12.56198347107438" fill="#ffc000"></rect><rect x="150" y="196.3314967860422" width="117.80536096367527" height="12.56198347107438" fill="#5b9bd5"></rect><rect x="150" y="209.55463728190998" width="13.65543241288937" height="12.56198347107438" fill="#70ad47"></rect><text class="label" x="358.72050973495834" y="151.9389348025711" font-size="10px">14.78x</text><text class="label" x="335.39901849791414" y="165.16207529843888" font-size="10px">13.06x</text><text class="label" x="172.0448963410295" y="178.38521579430665" font-size="10px">1x</text><text class="label" x="325.7411529885278" y="191.60835629017444" font-size="10px">12.35x</text><text class="label" x="276.3053609636753" y="204.8314967860422" font-size="10px">8.7x</text><text class="label" x="172.15543241288938" y="218.05463728190998" font-size="10px">1.01x</text><text class="label" x="355.22050973495834" y="153.4389348025711" font-size="8px"></text><text class="label" x="331.89901849791414" y="166.66207529843888" font-size="8px"></text><text class="label" x="168.5448963410295" y="179.88521579430665" font-size="8px"></text><text class="label" x="322.2411529885278" y="193.10835629017444" font-size="8px"></text><text class="label" x="272.8053609636753" y="206.3314967860422" font-size="8px"></text><text class="label" x="168.65543241288938" y="219.55463728190998" font-size="8px"></text></g><g style="font-size: 13px;"><rect x="150" y="232.32782369146003" width="239.3615682704867" height="12.56198347107438" fill="#4472c4"></rect><rect x="150" y="245.5509641873278" width="124.10557251401792" height="12.56198347107438" fill="#ed7d31"></rect><rect x="150" y="258.77410468319556" width="13.632230880344535" height="12.56198347107438" fill="#a5a5a5"></rect><rect x="150" y="271.9972451790633" width="209.19841972108694" height="12.56198347107438" fill="#ffc000"></rect><rect x="150" y="285.2203856749311" width="142.79712923783148" height="12.56198347107438" fill="#5b9bd5"></rect><rect x="150" y="298.44352617079886" width="13.544896341029505" height="12.56198347107438" fill="#70ad47"></rect><text class="label" x="397.8615682704867" y="240.82782369146003" font-size="10px">17.67x</text><text class="label" x="282.6055725140179" y="254.0509641873278" font-size="10px">9.16x</text><text class="label" x="172.13223088034454" y="267.27410468319556" font-size="10px">1.01x</text><text class="label" x="367.6984197210869" y="280.4972451790633" font-size="10px">15.44x</text><text class="label" x="301.2971292378315" y="293.7203856749311" font-size="10px">10.54x</text><text class="label" x="172.0448963410295" y="306.94352617079886" font-size="10px">1x</text><text class="label" x="394.3615682704867" y="242.32782369146003" font-size="8px"></text><text class="label" x="279.1055725140179" y="255.5509641873278" font-size="8px"></text><text class="label" x="168.63223088034454" y="268.77410468319556" font-size="8px"></text><text class="label" x="364.1984197210869" y="281.9972451790633" font-size="8px"></text><text class="label" x="297.7971292378315" y="295.2203856749311" font-size="8px"></text><text class="label" x="168.5448963410295" y="308.44352617079886" font-size="8px"></text></g><g style="font-size: 13px;"><rect x="150" y="321.2167125803489" width="440.9090909090908" height="12.56198347107438" fill="#4472c4"></rect><rect x="150" y="334.43985307621665" width="233.8828589585093" height="12.56198347107438" fill="#ed7d31"></rect><rect x="150" y="347.6629935720844" width="13.767710288811132" height="12.56198347107438" fill="#a5a5a5"></rect><rect x="150" y="360.8861340679522" width="369.25107499110777" height="12.56198347107438" fill="#ffc000"></rect><rect x="150" y="374.10927456381995" width="229.34394301922273" height="12.56198347107438" fill="#5b9bd5"></rect><rect x="150" y="387.3324150596877" width="13.544896341029505" height="12.56198347107438" fill="#70ad47"></rect><text class="label" x="599.4090909090908" y="329.7167125803489" font-size="10px">32.55x</text><text class="label" x="392.3828589585093" y="342.93985307621665" font-size="10px">17.27x</text><text class="label" x="172.26771028881114" y="356.1629935720844" font-size="10px">1.02x</text><text class="label" x="527.7510749911078" y="369.3861340679522" font-size="10px">27.26x</text><text class="label" x="387.8439430192227" y="382.60927456381995" font-size="10px">16.93x</text><text class="label" x="172.0448963410295" y="395.8324150596877" font-size="10px">1x</text><text class="label" x="595.9090909090908" y="331.2167125803489" font-size="8px"></text><text class="label" x="388.8828589585093" y="344.43985307621665" font-size="8px"></text><text class="label" x="168.76771028881114" y="357.6629935720844" font-size="8px"></text><text class="label" x="524.2510749911078" y="370.8861340679522" font-size="8px"></text><text class="label" x="384.3439430192227" y="384.10927456381995" font-size="8px"></text><text class="label" x="168.5448963410295" y="397.3324150596877" font-size="8px"></text></g><g style="font-size: 13px;"><rect x="150" y="410.1056014692378" width="171.78730111408703" height="12.56198347107438" fill="#4472c4"></rect><rect x="150" y="423.32874196510556" width="146.43429461161497" height="12.56198347107438" fill="#ed7d31"></rect><rect x="150" y="436.55188246097333" width="13.852323131539114" height="12.56198347107438" fill="#a5a5a5"></rect><rect x="150" y="449.7750229568411" width="157.30559378798716" height="12.56198347107438" fill="#ffc000"></rect><rect x="150" y="462.99816345270887" width="158.34837961235286" height="12.56198347107438" fill="#5b9bd5"></rect><rect x="150" y="476.22130394857663" width="13.544896341029505" height="12.56198347107438" fill="#70ad47"></rect><text class="label" x="330.28730111408703" y="418.6056014692378" font-size="10px">12.68x</text><text class="label" x="304.934294611615" y="431.82874196510556" font-size="10px">10.81x</text><text class="label" x="172.35232313153912" y="445.05188246097333" font-size="10px">1.02x</text><text class="label" x="315.80559378798716" y="458.2750229568411" font-size="10px">11.61x</text><text class="label" x="316.84837961235286" y="471.49816345270887" font-size="10px">11.69x</text><text class="label" x="172.0448963410295" y="484.72130394857663" font-size="10px">1x</text><text class="label" x="326.78730111408703" y="420.1056014692378" font-size="8px"></text><text class="label" x="301.434294611615" y="433.32874196510556" font-size="8px"></text><text class="label" x="168.85232313153912" y="446.55188246097333" font-size="8px"></text><text class="label" x="312.30559378798716" y="459.7750229568411" font-size="8px"></text><text class="label" x="313.34837961235286" y="472.99816345270887" font-size="8px"></text><text class="label" x="168.5448963410295" y="486.22130394857663" font-size="8px"></text></g><g style="font-size: 13px;"><rect x="150" y="498.9944903581267" width="278.76710810384196" height="12.56198347107438" fill="#4472c4"></rect><rect x="150" y="512.2176308539945" width="243.24634759958695" height="12.56198347107438" fill="#ed7d31"></rect><rect x="150" y="525.4407713498622" width="14.258552548011743" height="12.56198347107438" fill="#a5a5a5"></rect><rect x="150" y="538.66391184573" width="269.69253409341223" height="12.56198347107438" fill="#ffc000"></rect><rect x="150" y="551.8870523415978" width="196.90747980284934" height="12.56198347107438" fill="#5b9bd5"></rect><rect x="150" y="565.1101928374655" width="13.544896341029505" height="12.56198347107438" fill="#70ad47"></rect><text class="label" x="437.26710810384196" y="507.4944903581267" font-size="10px">20.58x</text><text class="label" x="401.74634759958695" y="520.7176308539945" font-size="10px">17.96x</text><text class="label" x="172.75855254801175" y="533.9407713498622" font-size="10px">1.05x</text><text class="label" x="428.19253409341223" y="547.16391184573" font-size="10px">19.91x</text><text class="label" x="355.40747980284937" y="560.3870523415978" font-size="10px">14.54x</text><text class="label" x="172.0448963410295" y="573.6101928374655" font-size="10px">1x</text><text class="label" x="433.76710810384196" y="508.9944903581267" font-size="8px"></text><text class="label" x="398.24634759958695" y="522.2176308539945" font-size="8px"></text><text class="label" x="169.25855254801175" y="535.4407713498622" font-size="8px"></text><text class="label" x="424.69253409341223" y="548.66391184573" font-size="8px"></text><text class="label" x="351.90747980284937" y="561.8870523415978" font-size="8px"></text><text class="label" x="168.5448963410295" y="575.1101928374655" font-size="8px"></text></g><g style="font-size: 13px;"><rect x="150" y="587.8833792470156" width="215.4812614230438" height="12.56198347107438" fill="#4472c4"></rect><rect x="150" y="601.1065197428833" width="123.29672310551838" height="12.56198347107438" fill="#ed7d31"></rect><rect x="150" y="614.3296602387511" width="13.544896341029505" height="12.56198347107438" fill="#a5a5a5"></rect><rect x="150" y="627.5528007346188" width="213.95305709153973" height="12.56198347107438" fill="#ffc000"></rect><rect x="150" y="640.7759412304866" width="174.391554906764" height="12.56198347107438" fill="#5b9bd5"></rect><rect x="150" y="653.9990817263545" width="13.72658749179038" height="12.56198347107438" fill="#70ad47"></rect><text class="label" x="373.9812614230438" y="596.3833792470156" font-size="10px">15.91x</text><text class="label" x="281.79672310551837" y="609.6065197428833" font-size="10px">9.1x</text><text class="label" x="172.0448963410295" y="622.8296602387511" font-size="10px">1x</text><text class="label" x="372.45305709153973" y="636.0528007346188" font-size="10px">15.8x</text><text class="label" x="332.891554906764" y="649.2759412304866" font-size="10px">12.88x</text><text class="label" x="172.22658749179038" y="662.4990817263545" font-size="10px">1.01x</text><text class="label" x="370.4812614230438" y="597.8833792470156" font-size="8px"></text><text class="label" x="278.29672310551837" y="611.1065197428833" font-size="8px"></text><text class="label" x="168.5448963410295" y="624.3296602387511" font-size="8px"></text><text class="label" x="368.95305709153973" y="637.5528007346188" font-size="8px"></text><text class="label" x="329.391554906764" y="650.7759412304866" font-size="8px"></text><text class="label" x="168.72658749179038" y="663.9990817263545" font-size="8px"></text></g><g style="font-size: 13px;"><rect x="150" y="676.7722681359045" width="247.98698738733177" height="12.56198347107438" fill="#4472c4"></rect><rect x="150" y="689.9954086317722" width="57.98501863134929" height="12.56198347107438" fill="#ed7d31"></rect><rect x="150" y="703.21854912764" width="13.544896341029505" height="12.56198347107438" fill="#a5a5a5"></rect><rect x="150" y="716.4416896235077" width="235.95759730205535" height="12.56198347107438" fill="#ffc000"></rect><rect x="150" y="729.6648301193756" width="227.89144868155122" height="12.56198347107438" fill="#5b9bd5"></rect><rect x="150" y="742.8879706152434" width="14.085465041370151" height="12.56198347107438" fill="#70ad47"></rect><text class="label" x="406.48698738733174" y="685.2722681359045" font-size="10px">18.31x</text><text class="label" x="216.4850186313493" y="698.4954086317722" font-size="10px">4.28x</text><text class="label" x="172.0448963410295" y="711.71854912764" font-size="10px">1x</text><text class="label" x="394.4575973020553" y="724.9416896235077" font-size="10px">17.42x</text><text class="label" x="386.3914486815512" y="738.1648301193756" font-size="10px">16.82x</text><text class="label" x="172.58546504137016" y="751.3879706152434" font-size="10px">1.04x</text><text class="label" x="402.98698738733174" y="686.7722681359045" font-size="8px"></text><text class="label" x="212.9850186313493" y="699.9954086317722" font-size="8px"></text><text class="label" x="168.5448963410295" y="713.21854912764" font-size="8px"></text><text class="label" x="390.9575973020553" y="726.4416896235077" font-size="8px"></text><text class="label" x="382.8914486815512" y="739.6648301193756" font-size="8px"></text><text class="label" x="169.08546504137016" y="752.8879706152434" font-size="8px"></text></g></g></svg>