<svg xmlns="http://www.w3.org/2000/svg" xmlns:xlink="http://www.w3.org/1999/xlink" width="800" height="914" style="background-color: white;"><g class="y axis" transform="translate(149,45)" fill="none" font-size="10" font-family="sans-serif" text-anchor="end" style="font-size: 13px;"><path class="domain" stroke="currentColor" d="M0.5,0.5V720.5"></path><g class="tick" opacity="1" transform="translate(0,48.88888888888886)" style="font-size: 13px;"><line stroke="currentColor" x2="0"></line><text fill="currentColor" x="-3" dy="0.32em">object (simple)    </text></g><g class="tick" opacity="1" transform="translate(0,137.77777777777774)" style="font-size: 13px;"><line stroke="currentColor" x2="0"></line><text fill="currentColor" x="-3" dy="0.32em">object (hierarchical)    </text></g><g class="tick" opacity="1" transform="translate(0,226.66666666666663)" style="font-size: 13px;"><line stroke="currentColor" x2="0"></line><text fill="currentColor" x="-3" dy="0.32em">object (recursive)    </text></g><g class="tick" opacity="1" transform="translate(0,315.5555555555555)" style="font-size: 13px;"><line stroke="currentColor" x2="0"></line><text fill="currentColor" x="-3" dy="0.32em">object (union, explicit)    </text></g><g class="tick" opacity="1" transform="translate(0,404.4444444444444)" style="font-size: 13px;"><line stroke="currentColor" x2="0"></line><text fill="currentColor" x="-3" dy="0.32em">array (simple)    </text></g><g class="tick" opacity="1" transform="translate(0,493.3333333333333)" style="font-size: 13px;"><line stroke="currentColor" x2="0"></line><text fill="currentColor" x="-3" dy="0.32em">array (hierarchical)    </text></g><g class="tick" opacity="1" transform="translate(0,582.2222222222222)" style="font-size: 13px;"><line stroke="currentColor" x2="0"></line><text fill="currentColor" x="-3" dy="0.32em">array (recursive)    </text></g><g class="tick" opacity="1" transform="translate(0,671.1111111111111)" style="font-size: 13px;"><line stroke="currentColor" x2="0"></line><text fill="currentColor" x="-3" dy="0.32em">array (union, explicit)    </text></g></g><g class="x axis" transform="translate(149,765)" fill="none" font-size="10" font-family="sans-serif" text-anchor="middle" style="font-size: 13px;"><path class="domain" stroke="currentColor" d="M0.5,0.5H485.5"></path><g class="tick" opacity="1" transform="translate(0.5,0)" style="font-size: 13px;"><line stroke="currentColor" y2="6"></line><text fill="currentColor" y="9" dy="0.71em">0x</text></g><g class="tick" opacity="1" transform="translate(106.89248784714597,0)" style="font-size: 13px;"><line stroke="currentColor" y2="6"></line><text fill="currentColor" y="9" dy="0.71em">50x</text></g><g class="tick" opacity="1" transform="translate(213.28497569429194,0)" style="font-size: 13px;"><line stroke="currentColor" y2="6"></line><text fill="currentColor" y="9" dy="0.71em">100x</text></g><g class="tick" opacity="1" transform="translate(319.6774635414379,0)" style="font-size: 13px;"><line stroke="currentColor" y2="6"></line><text fill="currentColor" y="9" dy="0.71em">150x</text></g><g class="tick" opacity="1" transform="translate(426.0699513885839,0)" style="font-size: 13px;"><line stroke="currentColor" y2="6"></line><text fill="currentColor" y="9" dy="0.71em">200x</text></g></g><text transform="translate(400, 30)" style="text-anchor: middle; font-size: 20px; font-weight: bold;">stringify benchmark</text><rect x="650" y="165" width="230" height="5" fill="gray"></rect><rect x="645" y="35" width="230" height="130" fill="none" stroke="black"></rect><rect x="655" y="45" width="10" height="10" style="fill: #4472c4;"></rect><text x="670" y="55" style="font-size: 12px;">typia.stringify</text><rect x="655" y="65" width="10" height="10" style="fill: #ed7d31;"></rect><text x="670" y="75" style="font-size: 12px;">typia.isStringify</text><rect x="655" y="85" width="10" height="10" style="fill: #a5a5a5;"></rect><text x="670" y="95" style="font-size: 12px;">typia.assertStringify</text><rect x="655" y="105" width="10" height="10" style="fill: #ffc000;"></rect><text x="670" y="115" style="font-size: 12px;">fast-json-stringify</text><rect x="655" y="125" width="10" height="10" style="fill: #5b9bd5;"></rect><text x="670" y="135" style="font-size: 12px;">JSON.stringify</text><rect x="655" y="145" width="10" height="10" style="fill: #70ad47;"></rect><text x="670" y="155" style="font-size: 12px;">class-transformer</text><text x="20" y="829" style="font-size: 12px;">  - CPU: AMD Ryzen 7 6800HS with Radeon Graphics</text><text x="20" y="846" style="font-size: 12px;">  - OS: win32</text><text x="20" y="863" style="font-size: 12px;">  - RAM: 63 GB</text><text x="20" y="880" style="font-size: 12px;">  - NodeJS version: v16.20.0</text><text x="20" y="897" style="font-size: 12px;">  - Typia version: v3.8.6</text><g style="font-size: 13px;"><g style="font-size: 13px;"><rect x="150" y="54.55004591368224" width="440.9090909090909" height="12.56198347107438" fill="#4472c4"></rect><rect x="150" y="67.77318640955001" width="329.4439937498245" height="12.56198347107438" fill="#ed7d31"></rect><rect x="150" y="80.99632690541777" width="266.03045668019695" height="12.56198347107438" fill="#a5a5a5"></rect><rect x="150" y="94.21946740128556" width="172.24869946905602" height="12.56198347107438" fill="#ffc000"></rect><rect x="150" y="107.44260789715332" width="28.473879926579954" height="12.56198347107438" fill="#5b9bd5"></rect><rect x="150" y="120.66574839302109" width="2.1278497569429193" height="12.56198347107438" fill="#70ad47"></rect><text class="label" x="599.4090909090909" y="63.05004591368224" font-size="10px">207x</text><text class="label" x="487.9439937498245" y="76.27318640955001" font-size="10px">155x</text><text class="label" x="424.53045668019695" y="89.49632690541777" font-size="10px">125x</text><text class="label" x="330.748699469056" y="102.71946740128556" font-size="10px">81x</text><text class="label" x="186.97387992657997" y="115.94260789715332" font-size="10px">13x</text><text class="label" x="160.6278497569429" y="129.1657483930211" font-size="10px">1x</text><text class="label" x="595.9090909090909" y="64.55004591368224" font-size="8px"></text><text class="label" x="484.4439937498245" y="77.77318640955001" font-size="8px"></text><text class="label" x="421.03045668019695" y="90.99632690541777" font-size="8px"></text><text class="label" x="327.248699469056" y="104.21946740128556" font-size="8px"></text><text class="label" x="183.47387992657997" y="117.44260789715332" font-size="8px"></text><text class="label" x="157.1278497569429" y="130.6657483930211" font-size="8px"></text></g><g style="font-size: 13px;"><rect x="150" y="143.4389348025711" width="94.47902439723845" height="12.56198347107438" fill="#4472c4"></rect><rect x="150" y="156.66207529843888" width="86.8676304414624" height="12.56198347107438" fill="#ed7d31"></rect><rect x="150" y="169.88521579430665" width="86.762606320732" height="12.56198347107438" fill="#a5a5a5"></rect><rect x="150" y="183.10835629017444" width="65.47038814153072" height="12.56198347107438" fill="#ffc000"></rect><rect x="150" y="196.3314967860422" width="23.80720857759886" height="12.56198347107438" fill="#5b9bd5"></rect><rect x="150" y="209.55463728190998" width="2.1278497569429193" height="12.56198347107438" fill="#70ad47"></rect><text class="label" x="252.97902439723845" y="151.9389348025711" font-size="10px">44x</text><text class="label" x="245.36763044146238" y="165.16207529843888" font-size="10px">41x</text><text class="label" x="245.262606320732" y="178.38521579430665" font-size="10px">41x</text><text class="label" x="223.97038814153072" y="191.60835629017444" font-size="10px">31x</text><text class="label" x="182.30720857759886" y="204.8314967860422" font-size="10px">11x</text><text class="label" x="160.6278497569429" y="218.05463728190998" font-size="10px">1x</text><text class="label" x="249.47902439723845" y="153.4389348025711" font-size="8px"></text><text class="label" x="241.86763044146238" y="166.66207529843888" font-size="8px"></text><text class="label" x="241.762606320732" y="179.88521579430665" font-size="8px"></text><text class="label" x="220.47038814153072" y="193.10835629017444" font-size="8px"></text><text class="label" x="178.80720857759886" y="206.3314967860422" font-size="8px"></text><text class="label" x="157.1278497569429" y="219.55463728190998" font-size="8px"></text></g><g style="font-size: 13px;"><rect x="150" y="232.32782369146003" width="139.74137997432803" height="12.56198347107438" fill="#4472c4"></rect><rect x="150" y="245.5509641873278" width="132.86806951029106" height="12.56198347107438" fill="#ed7d31"></rect><rect x="150" y="258.77410468319556" width="129.1724082774498" height="12.56198347107438" fill="#a5a5a5"></rect><rect x="150" y="271.9972451790633" width="28.068303813084786" height="12.56198347107438" fill="#ffc000"></rect><rect x="150" y="285.2203856749311" width="28.044096576257868" height="12.56198347107438" fill="#5b9bd5"></rect><rect x="150" y="298.44352617079886" width="2.1278497569429193" height="12.56198347107438" fill="#70ad47"></rect><text class="label" x="298.241379974328" y="240.82782369146003" font-size="10px">66x</text><text class="label" x="291.3680695102911" y="254.0509641873278" font-size="10px">62x</text><text class="label" x="287.6724082774498" y="267.27410468319556" font-size="10px">61x</text><text class="label" x="186.56830381308478" y="280.4972451790633" font-size="10px">13x</text><text class="label" x="186.54409657625786" y="293.7203856749311" font-size="10px">13x</text><text class="label" x="160.6278497569429" y="306.94352617079886" font-size="10px">1x</text><text class="label" x="294.741379974328" y="242.32782369146003" font-size="8px"></text><text class="label" x="287.8680695102911" y="255.5509641873278" font-size="8px"></text><text class="label" x="284.1724082774498" y="268.77410468319556" font-size="8px"></text><text class="label" x="183.06830381308478" y="281.9972451790633" font-size="8px"></text><text class="label" x="183.04409657625786" y="295.2203856749311" font-size="8px"></text><text class="label" x="157.1278497569429" y="308.44352617079886" font-size="8px"></text></g><g style="font-size: 13px;"><rect x="150" y="321.2167125803489" width="110.25141902207827" height="12.56198347107438" fill="#4472c4"></rect><rect x="150" y="334.43985307621665" width="96.05127019915045" height="12.56198347107438" fill="#ed7d31"></rect><rect x="150" y="347.6629935720844" width="96.84623524772962" height="12.56198347107438" fill="#a5a5a5"></rect><rect x="150" y="360.8861340679522" width="74.56308606002342" height="12.56198347107438" fill="#ffc000"></rect><rect x="150" y="374.10927456381995" width="43.16728188456287" height="12.56198347107438" fill="#5b9bd5"></rect><rect x="150" y="387.3324150596877" width="2.1278497569429193" height="12.56198347107438" fill="#70ad47"></rect><text class="label" x="268.75141902207827" y="329.7167125803489" font-size="10px">52x</text><text class="label" x="254.55127019915045" y="342.93985307621665" font-size="10px">45x</text><text class="label" x="255.34623524772962" y="356.1629935720844" font-size="10px">46x</text><text class="label" x="233.0630860600234" y="369.3861340679522" font-size="10px">35x</text><text class="label" x="201.66728188456287" y="382.60927456381995" font-size="10px">20x</text><text class="label" x="160.6278497569429" y="395.8324150596877" font-size="10px">1x</text><text class="label" x="265.25141902207827" y="331.2167125803489" font-size="8px"></text><text class="label" x="251.05127019915045" y="344.43985307621665" font-size="8px"></text><text class="label" x="251.84623524772962" y="357.6629935720844" font-size="8px"></text><text class="label" x="229.5630860600234" y="370.8861340679522" font-size="8px"></text><text class="label" x="198.16728188456287" y="384.10927456381995" font-size="8px"></text><text class="label" x="157.1278497569429" y="397.3324150596877" font-size="8px"></text></g><g style="font-size: 13px;"><rect x="150" y="410.1056014692378" width="51.22105639082502" height="12.56198347107438" fill="#4472c4"></rect><rect x="150" y="423.32874196510556" width="49.57837246864889" height="12.56198347107438" fill="#ed7d31"></rect><rect x="150" y="436.55188246097333" width="50.538290437582" height="12.56198347107438" fill="#a5a5a5"></rect><rect x="150" y="449.7750229568411" width="75.24905851115966" height="12.56198347107438" fill="#ffc000"></rect><rect x="150" y="462.99816345270887" width="31.50143967432377" height="12.56198347107438" fill="#5b9bd5"></rect><rect x="150" y="476.22130394857663" width="2.1278497569429193" height="12.56198347107438" fill="#70ad47"></rect><text class="label" x="209.72105639082503" y="418.6056014692378" font-size="10px">24x</text><text class="label" x="208.0783724686489" y="431.82874196510556" font-size="10px">23x</text><text class="label" x="209.038290437582" y="445.05188246097333" font-size="10px">24x</text><text class="label" x="233.74905851115966" y="458.2750229568411" font-size="10px">35x</text><text class="label" x="190.00143967432376" y="471.49816345270887" font-size="10px">15x</text><text class="label" x="160.6278497569429" y="484.72130394857663" font-size="10px">1x</text><text class="label" x="206.22105639082503" y="420.1056014692378" font-size="8px"></text><text class="label" x="204.5783724686489" y="433.32874196510556" font-size="8px"></text><text class="label" x="205.538290437582" y="446.55188246097333" font-size="8px"></text><text class="label" x="230.24905851115966" y="459.7750229568411" font-size="8px"></text><text class="label" x="186.50143967432376" y="472.99816345270887" font-size="8px"></text><text class="label" x="157.1278497569429" y="486.22130394857663" font-size="8px"></text></g><g style="font-size: 13px;"><rect x="150" y="498.9944903581267" width="82.66810736547387" height="12.56198347107438" fill="#4472c4"></rect><rect x="150" y="512.2176308539945" width="83.41984371952782" height="12.56198347107438" fill="#ed7d31"></rect><rect x="150" y="525.4407713498622" width="81.76588767781038" height="12.56198347107438" fill="#a5a5a5"></rect><rect x="150" y="538.66391184573" width="118.15703864377717" height="12.56198347107438" fill="#ffc000"></rect><rect x="150" y="551.8870523415978" width="35.540298239110975" height="12.56198347107438" fill="#5b9bd5"></rect><rect x="150" y="565.1101928374655" width="2.1278497569429193" height="12.56198347107438" fill="#70ad47"></rect><text class="label" x="241.16810736547387" y="507.4944903581267" font-size="10px">39x</text><text class="label" x="241.91984371952782" y="520.7176308539945" font-size="10px">39x</text><text class="label" x="240.26588767781038" y="533.9407713498622" font-size="10px">38x</text><text class="label" x="276.6570386437772" y="547.16391184573" font-size="10px">56x</text><text class="label" x="194.04029823911097" y="560.3870523415978" font-size="10px">17x</text><text class="label" x="160.6278497569429" y="573.6101928374655" font-size="10px">1x</text><text class="label" x="237.66810736547387" y="508.9944903581267" font-size="8px"></text><text class="label" x="238.41984371952782" y="522.2176308539945" font-size="8px"></text><text class="label" x="236.76588767781038" y="535.4407713498622" font-size="8px"></text><text class="label" x="273.1570386437772" y="548.66391184573" font-size="8px"></text><text class="label" x="190.54029823911097" y="561.8870523415978" font-size="8px"></text><text class="label" x="157.1278497569429" y="575.1101928374655" font-size="8px"></text></g><g style="font-size: 13px;"><rect x="150" y="587.8833792470156" width="66.94162879331574" height="12.56198347107438" fill="#4472c4"></rect><rect x="150" y="601.1065197428833" width="64.93211191869653" height="12.56198347107438" fill="#ed7d31"></rect><rect x="150" y="614.3296602387511" width="64.76912028454906" height="12.56198347107438" fill="#a5a5a5"></rect><rect x="150" y="627.5528007346188" width="32.22008328659751" height="12.56198347107438" fill="#ffc000"></rect><rect x="150" y="640.7759412304866" width="32.208319876339566" height="12.56198347107438" fill="#5b9bd5"></rect><rect x="150" y="653.9990817263545" width="2.1278497569429193" height="12.56198347107438" fill="#70ad47"></rect><text class="label" x="225.44162879331574" y="596.3833792470156" font-size="10px">31x</text><text class="label" x="223.43211191869653" y="609.6065197428833" font-size="10px">31x</text><text class="label" x="223.26912028454905" y="622.8296602387511" font-size="10px">30x</text><text class="label" x="190.72008328659751" y="636.0528007346188" font-size="10px">15x</text><text class="label" x="190.70831987633957" y="649.2759412304866" font-size="10px">15x</text><text class="label" x="160.6278497569429" y="662.4990817263545" font-size="10px">1x</text><text class="label" x="221.94162879331574" y="597.8833792470156" font-size="8px"></text><text class="label" x="219.93211191869653" y="611.1065197428833" font-size="8px"></text><text class="label" x="219.76912028454905" y="624.3296602387511" font-size="8px"></text><text class="label" x="187.22008328659751" y="637.5528007346188" font-size="8px"></text><text class="label" x="187.20831987633957" y="650.7759412304866" font-size="8px"></text><text class="label" x="157.1278497569429" y="663.9990817263545" font-size="8px"></text></g><g style="font-size: 13px;"><rect x="150" y="676.7722681359045" width="65.81561709505058" height="12.56198347107438" fill="#4472c4"></rect><rect x="150" y="689.9954086317722" width="61.28936395946267" height="12.56198347107438" fill="#ed7d31"></rect><rect x="150" y="703.21854912764" width="65.24462287394208" height="12.56198347107438" fill="#a5a5a5"></rect><rect x="150" y="716.4416896235077" width="43.890885176563515" height="12.56198347107438" fill="#ffc000"></rect><rect x="150" y="729.6648301193756" width="47.61124722623872" height="12.56198347107438" fill="#5b9bd5"></rect><rect x="150" y="742.8879706152434" width="2.1278497569429193" height="12.56198347107438" fill="#70ad47"></rect><text class="label" x="224.31561709505058" y="685.2722681359045" font-size="10px">31x</text><text class="label" x="219.78936395946266" y="698.4954086317722" font-size="10px">29x</text><text class="label" x="223.7446228739421" y="711.71854912764" font-size="10px">31x</text><text class="label" x="202.39088517656353" y="724.9416896235077" font-size="10px">21x</text><text class="label" x="206.11124722623873" y="738.1648301193756" font-size="10px">22x</text><text class="label" x="160.6278497569429" y="751.3879706152434" font-size="10px">1x</text><text class="label" x="220.81561709505058" y="686.7722681359045" font-size="8px"></text><text class="label" x="216.28936395946266" y="699.9954086317722" font-size="8px"></text><text class="label" x="220.2446228739421" y="713.21854912764" font-size="8px"></text><text class="label" x="198.89088517656353" y="726.4416896235077" font-size="8px"></text><text class="label" x="202.61124722623873" y="739.6648301193756" font-size="8px"></text><text class="label" x="157.1278497569429" y="752.8879706152434" font-size="8px"></text></g></g></svg>