<svg xmlns="http://www.w3.org/2000/svg" xmlns:xlink="http://www.w3.org/1999/xlink" width="800" height="914" style="background-color: white;"><g class="y axis" transform="translate(149,45)" fill="none" font-size="10" font-family="sans-serif" text-anchor="end" style="font-size: 13px;"><path class="domain" stroke="currentColor" d="M0.5,0.5V720.5"></path><g class="tick" opacity="1" transform="translate(0,48.88888888888886)" style="font-size: 13px;"><line stroke="currentColor" x2="0"></line><text fill="currentColor" x="-3" dy="0.32em">object (simple)    </text></g><g class="tick" opacity="1" transform="translate(0,137.77777777777774)" style="font-size: 13px;"><line stroke="currentColor" x2="0"></line><text fill="currentColor" x="-3" dy="0.32em">object (hierarchical)    </text></g><g class="tick" opacity="1" transform="translate(0,226.66666666666663)" style="font-size: 13px;"><line stroke="currentColor" x2="0"></line><text fill="currentColor" x="-3" dy="0.32em">object (recursive)    </text></g><g class="tick" opacity="1" transform="translate(0,315.5555555555555)" style="font-size: 13px;"><line stroke="currentColor" x2="0"></line><text fill="currentColor" x="-3" dy="0.32em">object (union, explicit)    </text></g><g class="tick" opacity="1" transform="translate(0,404.4444444444444)" style="font-size: 13px;"><line stroke="currentColor" x2="0"></line><text fill="currentColor" x="-3" dy="0.32em">array (simple)    </text></g><g class="tick" opacity="1" transform="translate(0,493.3333333333333)" style="font-size: 13px;"><line stroke="currentColor" x2="0"></line><text fill="currentColor" x="-3" dy="0.32em">array (hierarchical)    </text></g><g class="tick" opacity="1" transform="translate(0,582.2222222222222)" style="font-size: 13px;"><line stroke="currentColor" x2="0"></line><text fill="currentColor" x="-3" dy="0.32em">array (recursive)    </text></g><g class="tick" opacity="1" transform="translate(0,671.1111111111111)" style="font-size: 13px;"><line stroke="currentColor" x2="0"></line><text fill="currentColor" x="-3" dy="0.32em">array (union, explicit)    </text></g></g><g class="x axis" transform="translate(149,765)" fill="none" font-size="10" font-family="sans-serif" text-anchor="middle" style="font-size: 13px;"><path class="domain" stroke="currentColor" d="M0.5,0.5H485.5"></path><g class="tick" opacity="1" transform="translate(0.5,0)" style="font-size: 13px;"><line stroke="currentColor" y2="6"></line><text fill="currentColor" y="9" dy="0.71em">0x</text></g><g class="tick" opacity="1" transform="translate(91.4406611446784,0)" style="font-size: 13px;"><line stroke="currentColor" y2="6"></line><text fill="currentColor" y="9" dy="0.71em">50x</text></g><g class="tick" opacity="1" transform="translate(182.3813222893568,0)" style="font-size: 13px;"><line stroke="currentColor" y2="6"></line><text fill="currentColor" y="9" dy="0.71em">100x</text></g><g class="tick" opacity="1" transform="translate(273.32198343403525,0)" style="font-size: 13px;"><line stroke="currentColor" y2="6"></line><text fill="currentColor" y="9" dy="0.71em">150x</text></g><g class="tick" opacity="1" transform="translate(364.2626445787136,0)" style="font-size: 13px;"><line stroke="currentColor" y2="6"></line><text fill="currentColor" y="9" dy="0.71em">200x</text></g><g class="tick" opacity="1" transform="translate(455.203305723392,0)" style="font-size: 13px;"><line stroke="currentColor" y2="6"></line><text fill="currentColor" y="9" dy="0.71em">250x</text></g></g><text transform="translate(400, 30)" style="text-anchor: middle; font-size: 20px; font-weight: bold;">stringify benchmark</text><rect x="650" y="165" width="230" height="5" fill="gray"></rect><rect x="645" y="35" width="230" height="130" fill="none" stroke="black"></rect><rect x="655" y="45" width="10" height="10" style="fill: #4472c4;"></rect><text x="670" y="55" style="font-size: 12px;">typia.stringify</text><rect x="655" y="65" width="10" height="10" style="fill: #ed7d31;"></rect><text x="670" y="75" style="font-size: 12px;">typia.isStringify</text><rect x="655" y="85" width="10" height="10" style="fill: #a5a5a5;"></rect><text x="670" y="95" style="font-size: 12px;">typia.assertStringify</text><rect x="655" y="105" width="10" height="10" style="fill: #ffc000;"></rect><text x="670" y="115" style="font-size: 12px;">fast-json-stringify</text><rect x="655" y="125" width="10" height="10" style="fill: #5b9bd5;"></rect><text x="670" y="135" style="font-size: 12px;">JSON.stringify</text><rect x="655" y="145" width="10" height="10" style="fill: #70ad47;"></rect><text x="670" y="155" style="font-size: 12px;">class-transformer</text><text x="20" y="829" style="font-size: 12px;">  - CPU: AMD Ryzen 7 6800HS with Radeon Graphics</text><text x="20" y="846" style="font-size: 12px;">  - OS: win32</text><text x="20" y="863" style="font-size: 12px;">  - RAM: 63 GB</text><text x="20" y="880" style="font-size: 12px;">  - NodeJS version: v16.20.0</text><text x="20" y="897" style="font-size: 12px;">  - Typia version: v4.0.12-dev.20230619</text><g style="font-size: 13px;"><g style="font-size: 13px;"><rect x="150" y="54.55004591368224" width="440.9090909090908" height="12.56198347107438" fill="#4472c4"></rect><rect x="150" y="67.77318640955001" width="307.8059284098043" height="12.56198347107438" fill="#ed7d31"></rect><rect x="150" y="80.99632690541777" width="356.16965916512567" height="12.56198347107438" fill="#a5a5a5"></rect><rect x="150" y="94.21946740128556" width="163.5484754162588" height="12.56198347107438" fill="#ffc000"></rect><rect x="150" y="107.44260789715332" width="25.733881038804935" height="12.56198347107438" fill="#5b9bd5"></rect><rect x="150" y="120.66574839302109" width="1.818813222893568" height="12.56198347107438" fill="#70ad47"></rect><text class="label" x="599.4090909090908" y="63.05004591368224" font-size="10px">242x</text><text class="label" x="466.3059284098043" y="76.27318640955001" font-size="10px">169x</text><text class="label" x="514.6696591651257" y="89.49632690541777" font-size="10px">196x</text><text class="label" x="322.04847541625884" y="102.71946740128556" font-size="10px">90x</text><text class="label" x="184.23388103880492" y="115.94260789715332" font-size="10px">14x</text><text class="label" x="160.31881322289357" y="129.1657483930211" font-size="10px">1x</text><text class="label" x="595.9090909090908" y="64.55004591368224" font-size="8px"></text><text class="label" x="462.8059284098043" y="77.77318640955001" font-size="8px"></text><text class="label" x="511.16965916512567" y="90.99632690541777" font-size="8px"></text><text class="label" x="318.54847541625884" y="104.21946740128556" font-size="8px"></text><text class="label" x="180.73388103880492" y="117.44260789715332" font-size="8px"></text><text class="label" x="156.81881322289357" y="130.6657483930211" font-size="8px"></text></g><g style="font-size: 13px;"><rect x="150" y="143.4389348025711" width="82.77245205207164" height="12.56198347107438" fill="#4472c4"></rect><rect x="150" y="156.66207529843888" width="77.25893671221952" height="12.56198347107438" fill="#ed7d31"></rect><rect x="150" y="169.88521579430665" width="76.86959764563397" height="12.56198347107438" fill="#a5a5a5"></rect><rect x="150" y="183.10835629017444" width="57.867983767591475" height="12.56198347107438" fill="#ffc000"></rect><rect x="150" y="196.3314967860422" width="19.71511879488447" height="12.56198347107438" fill="#5b9bd5"></rect><rect x="150" y="209.55463728190998" width="1.818813222893568" height="12.56198347107438" fill="#70ad47"></rect><text class="label" x="241.27245205207163" y="151.9389348025711" font-size="10px">46x</text><text class="label" x="235.7589367122195" y="165.16207529843888" font-size="10px">42x</text><text class="label" x="235.36959764563397" y="178.38521579430665" font-size="10px">42x</text><text class="label" x="216.36798376759148" y="191.60835629017444" font-size="10px">32x</text><text class="label" x="178.21511879488446" y="204.8314967860422" font-size="10px">11x</text><text class="label" x="160.31881322289357" y="218.05463728190998" font-size="10px">1x</text><text class="label" x="237.77245205207163" y="153.4389348025711" font-size="8px"></text><text class="label" x="232.2589367122195" y="166.66207529843888" font-size="8px"></text><text class="label" x="231.86959764563397" y="179.88521579430665" font-size="8px"></text><text class="label" x="212.86798376759148" y="193.10835629017444" font-size="8px"></text><text class="label" x="174.71511879488446" y="206.3314967860422" font-size="8px"></text><text class="label" x="156.81881322289357" y="219.55463728190998" font-size="8px"></text></g><g style="font-size: 13px;"><rect x="150" y="232.32782369146003" width="124.90678647748302" height="12.56198347107438" fill="#4472c4"></rect><rect x="150" y="245.5509641873278" width="116.22994467412315" height="12.56198347107438" fill="#ed7d31"></rect><rect x="150" y="258.77410468319556" width="115.64740719185114" height="12.56198347107438" fill="#a5a5a5"></rect><rect x="150" y="271.9972451790633" width="33.6436139968479" height="12.56198347107438" fill="#ffc000"></rect><rect x="150" y="285.2203856749311" width="24.371729636106657" height="12.56198347107438" fill="#5b9bd5"></rect><rect x="150" y="298.44352617079886" width="1.818813222893568" height="12.56198347107438" fill="#70ad47"></rect><text class="label" x="283.406786477483" y="240.82782369146003" font-size="10px">69x</text><text class="label" x="274.72994467412315" y="254.0509641873278" font-size="10px">64x</text><text class="label" x="274.14740719185113" y="267.27410468319556" font-size="10px">64x</text><text class="label" x="192.1436139968479" y="280.4972451790633" font-size="10px">18x</text><text class="label" x="182.87172963610666" y="293.7203856749311" font-size="10px">13x</text><text class="label" x="160.31881322289357" y="306.94352617079886" font-size="10px">1x</text><text class="label" x="279.906786477483" y="242.32782369146003" font-size="8px"></text><text class="label" x="271.22994467412315" y="255.5509641873278" font-size="8px"></text><text class="label" x="270.64740719185113" y="268.77410468319556" font-size="8px"></text><text class="label" x="188.6436139968479" y="281.9972451790633" font-size="8px"></text><text class="label" x="179.37172963610666" y="295.2203856749311" font-size="8px"></text><text class="label" x="156.81881322289357" y="308.44352617079886" font-size="8px"></text></g><g style="font-size: 13px;"><rect x="150" y="321.2167125803489" width="132.67494391615406" height="12.56198347107438" fill="#4472c4"></rect><rect x="150" y="334.43985307621665" width="117.91727886138844" height="12.56198347107438" fill="#ed7d31"></rect><rect x="150" y="347.6629935720844" width="117.476245301639" height="12.56198347107438" fill="#a5a5a5"></rect><rect x="150" y="360.8861340679522" width="89.86153289189886" height="12.56198347107438" fill="#ffc000"></rect><rect x="150" y="374.10927456381995" width="46.17143121299524" height="12.56198347107438" fill="#5b9bd5"></rect><rect x="150" y="387.3324150596877" width="1.818813222893568" height="12.56198347107438" fill="#70ad47"></rect><text class="label" x="291.17494391615406" y="329.7167125803489" font-size="10px">73x</text><text class="label" x="276.41727886138847" y="342.93985307621665" font-size="10px">65x</text><text class="label" x="275.976245301639" y="356.1629935720844" font-size="10px">65x</text><text class="label" x="248.36153289189886" y="369.3861340679522" font-size="10px">49x</text><text class="label" x="204.67143121299523" y="382.60927456381995" font-size="10px">25x</text><text class="label" x="160.31881322289357" y="395.8324150596877" font-size="10px">1x</text><text class="label" x="287.67494391615406" y="331.2167125803489" font-size="8px"></text><text class="label" x="272.91727886138847" y="344.43985307621665" font-size="8px"></text><text class="label" x="272.476245301639" y="357.6629935720844" font-size="8px"></text><text class="label" x="244.86153289189886" y="370.8861340679522" font-size="8px"></text><text class="label" x="201.17143121299523" y="384.10927456381995" font-size="8px"></text><text class="label" x="156.81881322289357" y="397.3324150596877" font-size="8px"></text></g><g style="font-size: 13px;"><rect x="150" y="410.1056014692378" width="39.45424134115708" height="12.56198347107438" fill="#4472c4"></rect><rect x="150" y="423.32874196510556" width="40.20959577214413" height="12.56198347107438" fill="#ed7d31"></rect><rect x="150" y="436.55188246097333" width="41.524033413867265" height="12.56198347107438" fill="#a5a5a5"></rect><rect x="150" y="449.7750229568411" width="63.74962584082353" height="12.56198347107438" fill="#ffc000"></rect><rect x="150" y="462.99816345270887" width="28.182167993094954" height="12.56198347107438" fill="#5b9bd5"></rect><rect x="150" y="476.22130394857663" width="1.818813222893568" height="12.56198347107438" fill="#70ad47"></rect><text class="label" x="197.9542413411571" y="418.6056014692378" font-size="10px">22x</text><text class="label" x="198.70959577214413" y="431.82874196510556" font-size="10px">22x</text><text class="label" x="200.02403341386727" y="445.05188246097333" font-size="10px">23x</text><text class="label" x="222.24962584082354" y="458.2750229568411" font-size="10px">35x</text><text class="label" x="186.68216799309496" y="471.49816345270887" font-size="10px">15x</text><text class="label" x="160.31881322289357" y="484.72130394857663" font-size="10px">1x</text><text class="label" x="194.4542413411571" y="420.1056014692378" font-size="8px"></text><text class="label" x="195.20959577214413" y="433.32874196510556" font-size="8px"></text><text class="label" x="196.52403341386727" y="446.55188246097333" font-size="8px"></text><text class="label" x="218.74962584082354" y="459.7750229568411" font-size="8px"></text><text class="label" x="183.18216799309496" y="472.99816345270887" font-size="8px"></text><text class="label" x="156.81881322289357" y="486.22130394857663" font-size="8px"></text></g><g style="font-size: 13px;"><rect x="150" y="498.9944903581267" width="72.15594812408061" height="12.56198347107438" fill="#4472c4"></rect><rect x="150" y="512.2176308539945" width="70.00010639058375" height="12.56198347107438" fill="#ed7d31"></rect><rect x="150" y="525.4407713498622" width="72.65906101672263" height="12.56198347107438" fill="#a5a5a5"></rect><rect x="150" y="538.66391184573" width="102.10659274085536" height="12.56198347107438" fill="#ffc000"></rect><rect x="150" y="551.8870523415978" width="30.731389969730266" height="12.56198347107438" fill="#5b9bd5"></rect><rect x="150" y="565.1101928374655" width="1.818813222893568" height="12.56198347107438" fill="#70ad47"></rect><text class="label" x="230.65594812408062" y="507.4944903581267" font-size="10px">40x</text><text class="label" x="228.50010639058377" y="520.7176308539945" font-size="10px">38x</text><text class="label" x="231.15906101672263" y="533.9407713498622" font-size="10px">40x</text><text class="label" x="260.6065927408554" y="547.16391184573" font-size="10px">56x</text><text class="label" x="189.23138996973026" y="560.3870523415978" font-size="10px">17x</text><text class="label" x="160.31881322289357" y="573.6101928374655" font-size="10px">1x</text><text class="label" x="227.15594812408062" y="508.9944903581267" font-size="8px"></text><text class="label" x="225.00010639058377" y="522.2176308539945" font-size="8px"></text><text class="label" x="227.65906101672263" y="535.4407713498622" font-size="8px"></text><text class="label" x="257.1065927408554" y="548.66391184573" font-size="8px"></text><text class="label" x="185.73138996973026" y="561.8870523415978" font-size="8px"></text><text class="label" x="156.81881322289357" y="575.1101928374655" font-size="8px"></text></g><g style="font-size: 13px;"><rect x="150" y="587.8833792470156" width="59.53146157946081" height="12.56198347107438" fill="#4472c4"></rect><rect x="150" y="601.1065197428833" width="56.14042547678517" height="12.56198347107438" fill="#ed7d31"></rect><rect x="150" y="614.3296602387511" width="56.09653739938437" height="12.56198347107438" fill="#a5a5a5"></rect><rect x="150" y="627.5528007346188" width="109.13477430530708" height="12.56198347107438" fill="#ffc000"></rect><rect x="150" y="640.7759412304866" width="26.971011226903467" height="12.56198347107438" fill="#5b9bd5"></rect><rect x="150" y="653.9990817263545" width="1.818813222893568" height="12.56198347107438" fill="#70ad47"></rect><text class="label" x="218.03146157946082" y="596.3833792470156" font-size="10px">33x</text><text class="label" x="214.64042547678517" y="609.6065197428833" font-size="10px">31x</text><text class="label" x="214.59653739938437" y="622.8296602387511" font-size="10px">31x</text><text class="label" x="267.6347743053071" y="636.0528007346188" font-size="10px">60x</text><text class="label" x="185.47101122690347" y="649.2759412304866" font-size="10px">15x</text><text class="label" x="160.31881322289357" y="662.4990817263545" font-size="10px">1x</text><text class="label" x="214.53146157946082" y="597.8833792470156" font-size="8px"></text><text class="label" x="211.14042547678517" y="611.1065197428833" font-size="8px"></text><text class="label" x="211.09653739938437" y="624.3296602387511" font-size="8px"></text><text class="label" x="264.1347743053071" y="637.5528007346188" font-size="8px"></text><text class="label" x="181.97101122690347" y="650.7759412304866" font-size="8px"></text><text class="label" x="156.81881322289357" y="663.9990817263545" font-size="8px"></text></g><g style="font-size: 13px;"><rect x="150" y="676.7722681359045" width="53.54011913656175" height="12.56198347107438" fill="#4472c4"></rect><rect x="150" y="689.9954086317722" width="51.74416878007131" height="12.56198347107438" fill="#ed7d31"></rect><rect x="150" y="703.21854912764" width="51.25770671960245" height="12.56198347107438" fill="#a5a5a5"></rect><rect x="150" y="716.4416896235077" width="12.12328841329837" height="12.56198347107438" fill="#ffc000"></rect><rect x="150" y="729.6648301193756" width="38.25368163618488" height="12.56198347107438" fill="#5b9bd5"></rect><rect x="150" y="742.8879706152434" width="1.818813222893568" height="12.56198347107438" fill="#70ad47"></rect><text class="label" x="212.04011913656174" y="685.2722681359045" font-size="10px">29x</text><text class="label" x="210.2441687800713" y="698.4954086317722" font-size="10px">28x</text><text class="label" x="209.75770671960245" y="711.71854912764" font-size="10px">28x</text><text class="label" x="170.62328841329838" y="724.9416896235077" font-size="10px">7x</text><text class="label" x="196.75368163618487" y="738.1648301193756" font-size="10px">21x</text><text class="label" x="160.31881322289357" y="751.3879706152434" font-size="10px">1x</text><text class="label" x="208.54011913656174" y="686.7722681359045" font-size="8px"></text><text class="label" x="206.7441687800713" y="699.9954086317722" font-size="8px"></text><text class="label" x="206.25770671960245" y="713.21854912764" font-size="8px"></text><text class="label" x="167.12328841329838" y="726.4416896235077" font-size="8px"></text><text class="label" x="193.25368163618487" y="739.6648301193756" font-size="8px"></text><text class="label" x="156.81881322289357" y="752.8879706152434" font-size="8px"></text></g></g></svg>