<svg xmlns="http://www.w3.org/2000/svg" xmlns:xlink="http://www.w3.org/1999/xlink" width="800" height="795" style="background-color: white;"><g class="y axis" transform="translate(149,45)" fill="none" font-size="10" font-family="sans-serif" text-anchor="end" style="font-size: 13px;"><path class="domain" stroke="currentColor" d="M0.5,0.5V720.5"></path><g class="tick" opacity="1" transform="translate(0,48.88888888888886)" style="font-size: 13px;"><line stroke="currentColor" x2="0"></line><text fill="currentColor" x="-3" dy="0.32em">object (simple)    </text></g><g class="tick" opacity="1" transform="translate(0,137.77777777777774)" style="font-size: 13px;"><line stroke="currentColor" x2="0"></line><text fill="currentColor" x="-3" dy="0.32em">object (hierarchical)    </text></g><g class="tick" opacity="1" transform="translate(0,226.66666666666663)" style="font-size: 13px;"><line stroke="currentColor" x2="0"></line><text fill="currentColor" x="-3" dy="0.32em">object (recursive)    </text></g><g class="tick" opacity="1" transform="translate(0,315.5555555555555)" style="font-size: 13px;"><line stroke="currentColor" x2="0"></line><text fill="currentColor" x="-3" dy="0.32em">object (union, explicit)    </text></g><g class="tick" opacity="1" transform="translate(0,404.4444444444444)" style="font-size: 13px;"><line stroke="currentColor" x2="0"></line><text fill="currentColor" x="-3" dy="0.32em">array (simple)    </text></g><g class="tick" opacity="1" transform="translate(0,493.3333333333333)" style="font-size: 13px;"><line stroke="currentColor" x2="0"></line><text fill="currentColor" x="-3" dy="0.32em">array (hierarchical)    </text></g><g class="tick" opacity="1" transform="translate(0,582.2222222222222)" style="font-size: 13px;"><line stroke="currentColor" x2="0"></line><text fill="currentColor" x="-3" dy="0.32em">array (recursive)    </text></g><g class="tick" opacity="1" transform="translate(0,671.1111111111111)" style="font-size: 13px;"><line stroke="currentColor" x2="0"></line><text fill="currentColor" x="-3" dy="0.32em">array (union, explicit)    </text></g></g><g class="x axis" transform="translate(149,765)" fill="none" font-size="10" font-family="sans-serif" text-anchor="middle" style="font-size: 13px;"><path class="domain" stroke="currentColor" d="M0.5,0.5H485.5"></path><g class="tick" opacity="1" transform="translate(0.5,0)" style="font-size: 13px;"><line stroke="currentColor" y2="6"></line><text fill="currentColor" y="9" dy="0.71em">0x</text></g><g class="tick" opacity="1" transform="translate(101.02007225894502,0)" style="font-size: 13px;"><line stroke="currentColor" y2="6"></line><text fill="currentColor" y="9" dy="0.71em">50x</text></g><g class="tick" opacity="1" transform="translate(201.54014451789004,0)" style="font-size: 13px;"><line stroke="currentColor" y2="6"></line><text fill="currentColor" y="9" dy="0.71em">100x</text></g><g class="tick" opacity="1" transform="translate(302.0602167768351,0)" style="font-size: 13px;"><line stroke="currentColor" y2="6"></line><text fill="currentColor" y="9" dy="0.71em">150x</text></g><g class="tick" opacity="1" transform="translate(402.5802890357801,0)" style="font-size: 13px;"><line stroke="currentColor" y2="6"></line><text fill="currentColor" y="9" dy="0.71em">200x</text></g></g><text transform="translate(400, 30)" style="text-anchor: middle; font-size: 20px; font-weight: bold;">stringify benchmark</text><rect x="650" y="165" width="230" height="5" fill="gray"></rect><rect x="645" y="35" width="230" height="130" fill="none" stroke="black"></rect><rect x="655" y="45" width="10" height="10" style="fill: #4472c4;"></rect><text x="670" y="55" style="font-size: 12px;">typia.stringify</text><rect x="655" y="65" width="10" height="10" style="fill: #ed7d31;"></rect><text x="670" y="75" style="font-size: 12px;">typia.isStringify</text><rect x="655" y="85" width="10" height="10" style="fill: #a5a5a5;"></rect><text x="670" y="95" style="font-size: 12px;">typia.assertStringify</text><rect x="655" y="105" width="10" height="10" style="fill: #ffc000;"></rect><text x="670" y="115" style="font-size: 12px;">fast-json-stringify</text><rect x="655" y="125" width="10" height="10" style="fill: #5b9bd5;"></rect><text x="670" y="135" style="font-size: 12px;">JSON.stringify</text><rect x="655" y="145" width="10" height="10" style="fill: #70ad47;"></rect><text x="670" y="155" style="font-size: 12px;">class-transformer</text><g style="font-size: 13px;"><g style="font-size: 13px;"><rect x="150" y="54.55004591368224" width="440.9090909090909" height="12.56198347107438" fill="#4472c4"></rect><rect x="150" y="67.77318640955001" width="340.63055617090754" height="12.56198347107438" fill="#ed7d31"></rect><rect x="150" y="80.99632690541777" width="205.28775194907772" height="12.56198347107438" fill="#a5a5a5"></rect><rect x="150" y="94.21946740128556" width="148.82186896879045" height="12.56198347107438" fill="#ffc000"></rect><rect x="150" y="107.44260789715332" width="27.78204594246328" height="12.56198347107438" fill="#5b9bd5"></rect><rect x="150" y="120.66574839302109" width="2.0104014451789003" height="12.56198347107438" fill="#70ad47"></rect><text class="label" x="599.4090909090909" y="63.05004591368224" font-size="10px">219x</text><text class="label" x="499.13055617090754" y="76.27318640955001" font-size="10px">169x</text><text class="label" x="363.7877519490777" y="89.49632690541777" font-size="10px">102x</text><text class="label" x="307.32186896879045" y="102.71946740128556" font-size="10px">74x</text><text class="label" x="186.28204594246327" y="115.94260789715332" font-size="10px">14x</text><text class="label" x="160.5104014451789" y="129.1657483930211" font-size="10px">1x</text><text class="label" x="595.9090909090909" y="64.55004591368224" font-size="8px"></text><text class="label" x="495.63055617090754" y="77.77318640955001" font-size="8px"></text><text class="label" x="360.2877519490777" y="90.99632690541777" font-size="8px"></text><text class="label" x="303.82186896879045" y="104.21946740128556" font-size="8px"></text><text class="label" x="182.78204594246327" y="117.44260789715332" font-size="8px"></text><text class="label" x="157.0104014451789" y="130.6657483930211" font-size="8px"></text></g><g style="font-size: 13px;"><rect x="150" y="143.4389348025711" width="91.35030692025079" height="12.56198347107438" fill="#4472c4"></rect><rect x="150" y="156.66207529843888" width="85.90460049260662" height="12.56198347107438" fill="#ed7d31"></rect><rect x="150" y="169.88521579430665" width="77.89166165439839" height="12.56198347107438" fill="#a5a5a5"></rect><rect x="150" y="183.10835629017444" width="103.92152337374162" height="12.56198347107438" fill="#ffc000"></rect><rect x="150" y="196.3314967860422" width="22.32872407692325" height="12.56198347107438" fill="#5b9bd5"></rect><rect x="150" y="209.55463728190998" width="2.0104014451789003" height="12.56198347107438" fill="#70ad47"></rect><text class="label" x="249.85030692025077" y="151.9389348025711" font-size="10px">45x</text><text class="label" x="244.40460049260662" y="165.16207529843888" font-size="10px">43x</text><text class="label" x="236.39166165439838" y="178.38521579430665" font-size="10px">39x</text><text class="label" x="262.4215233737416" y="191.60835629017444" font-size="10px">52x</text><text class="label" x="180.82872407692327" y="204.8314967860422" font-size="10px">11x</text><text class="label" x="160.5104014451789" y="218.05463728190998" font-size="10px">1x</text><text class="label" x="246.35030692025077" y="153.4389348025711" font-size="8px"></text><text class="label" x="240.90460049260662" y="166.66207529843888" font-size="8px"></text><text class="label" x="232.89166165439838" y="179.88521579430665" font-size="8px"></text><text class="label" x="258.9215233737416" y="193.10835629017444" font-size="8px"></text><text class="label" x="177.32872407692327" y="206.3314967860422" font-size="8px"></text><text class="label" x="157.0104014451789" y="219.55463728190998" font-size="8px"></text></g><g style="font-size: 13px;"><rect x="150" y="232.32782369146003" width="137.44912540348437" height="12.56198347107438" fill="#4472c4"></rect><rect x="150" y="245.5509641873278" width="129.08638591924014" height="12.56198347107438" fill="#ed7d31"></rect><rect x="150" y="258.77410468319556" width="125.48058226438427" height="12.56198347107438" fill="#a5a5a5"></rect><rect x="150" y="271.9972451790633" width="26.87555858881932" height="12.56198347107438" fill="#ffc000"></rect><rect x="150" y="285.2203856749311" width="26.77289702961415" height="12.56198347107438" fill="#5b9bd5"></rect><rect x="150" y="298.44352617079886" width="2.0104014451789003" height="12.56198347107438" fill="#70ad47"></rect><text class="label" x="295.94912540348435" y="240.82782369146003" font-size="10px">68x</text><text class="label" x="287.5863859192401" y="254.0509641873278" font-size="10px">64x</text><text class="label" x="283.9805822643843" y="267.27410468319556" font-size="10px">62x</text><text class="label" x="185.37555858881933" y="280.4972451790633" font-size="10px">13x</text><text class="label" x="185.27289702961414" y="293.7203856749311" font-size="10px">13x</text><text class="label" x="160.5104014451789" y="306.94352617079886" font-size="10px">1x</text><text class="label" x="292.44912540348435" y="242.32782369146003" font-size="8px"></text><text class="label" x="284.0863859192401" y="255.5509641873278" font-size="8px"></text><text class="label" x="280.4805822643843" y="268.77410468319556" font-size="8px"></text><text class="label" x="181.87555858881933" y="281.9972451790633" font-size="8px"></text><text class="label" x="181.77289702961414" y="295.2203856749311" font-size="8px"></text><text class="label" x="157.0104014451789" y="308.44352617079886" font-size="8px"></text></g><g style="font-size: 13px;"><rect x="150" y="321.2167125803489" width="104.32774087380308" height="12.56198347107438" fill="#4472c4"></rect><rect x="150" y="334.43985307621665" width="89.52940458587777" height="12.56198347107438" fill="#ed7d31"></rect><rect x="150" y="347.6629935720844" width="78.10381595836613" height="12.56198347107438" fill="#a5a5a5"></rect><rect x="150" y="360.8861340679522" width="70.21906805257586" height="12.56198347107438" fill="#ffc000"></rect><rect x="150" y="374.10927456381995" width="40.091730548371885" height="12.56198347107438" fill="#5b9bd5"></rect><rect x="150" y="387.3324150596877" width="2.0104014451789003" height="12.56198347107438" fill="#70ad47"></rect><text class="label" x="262.82774087380307" y="329.7167125803489" font-size="10px">52x</text><text class="label" x="248.02940458587778" y="342.93985307621665" font-size="10px">45x</text><text class="label" x="236.6038159583661" y="356.1629935720844" font-size="10px">39x</text><text class="label" x="228.71906805257586" y="369.3861340679522" font-size="10px">35x</text><text class="label" x="198.59173054837188" y="382.60927456381995" font-size="10px">20x</text><text class="label" x="160.5104014451789" y="395.8324150596877" font-size="10px">1x</text><text class="label" x="259.32774087380307" y="331.2167125803489" font-size="8px"></text><text class="label" x="244.52940458587778" y="344.43985307621665" font-size="8px"></text><text class="label" x="233.1038159583661" y="357.6629935720844" font-size="8px"></text><text class="label" x="225.21906805257586" y="370.8861340679522" font-size="8px"></text><text class="label" x="195.09173054837188" y="384.10927456381995" font-size="8px"></text><text class="label" x="157.0104014451789" y="397.3324150596877" font-size="8px"></text></g><g style="font-size: 13px;"><rect x="150" y="410.1056014692378" width="30.50828497549212" height="12.56198347107438" fill="#4472c4"></rect><rect x="150" y="423.32874196510556" width="35.89665151006511" height="12.56198347107438" fill="#ed7d31"></rect><rect x="150" y="436.55188246097333" width="24.366896733853597" height="12.56198347107438" fill="#a5a5a5"></rect><rect x="150" y="449.7750229568411" width="43.841169371831604" height="12.56198347107438" fill="#ffc000"></rect><rect x="150" y="462.99816345270887" width="20.56686327582192" height="12.56198347107438" fill="#5b9bd5"></rect><rect x="150" y="476.22130394857663" width="2.0104014451789003" height="12.56198347107438" fill="#70ad47"></rect><text class="label" x="189.00828497549213" y="418.6056014692378" font-size="10px">15x</text><text class="label" x="194.3966515100651" y="431.82874196510556" font-size="10px">18x</text><text class="label" x="182.8668967338536" y="445.05188246097333" font-size="10px">12x</text><text class="label" x="202.3411693718316" y="458.2750229568411" font-size="10px">22x</text><text class="label" x="179.06686327582193" y="471.49816345270887" font-size="10px">10x</text><text class="label" x="160.5104014451789" y="484.72130394857663" font-size="10px">1x</text><text class="label" x="185.50828497549213" y="420.1056014692378" font-size="8px"></text><text class="label" x="190.8966515100651" y="433.32874196510556" font-size="8px"></text><text class="label" x="179.3668967338536" y="446.55188246097333" font-size="8px"></text><text class="label" x="198.8411693718316" y="459.7750229568411" font-size="8px"></text><text class="label" x="175.56686327582193" y="472.99816345270887" font-size="8px"></text><text class="label" x="157.0104014451789" y="486.22130394857663" font-size="8px"></text></g><g style="font-size: 13px;"><rect x="150" y="498.9944903581267" width="109.21188039180258" height="12.56198347107438" fill="#4472c4"></rect><rect x="150" y="512.2176308539945" width="56.277398237265636" height="12.56198347107438" fill="#ed7d31"></rect><rect x="150" y="525.4407713498622" width="68.85316786012561" height="12.56198347107438" fill="#a5a5a5"></rect><rect x="150" y="538.66391184573" width="151.45565299478264" height="12.56198347107438" fill="#ffc000"></rect><rect x="150" y="551.8870523415978" width="27.543026278940324" height="12.56198347107438" fill="#5b9bd5"></rect><rect x="150" y="565.1101928374655" width="2.0104014451789003" height="12.56198347107438" fill="#70ad47"></rect><text class="label" x="267.7118803918026" y="507.4944903581267" font-size="10px">54x</text><text class="label" x="214.77739823726563" y="520.7176308539945" font-size="10px">28x</text><text class="label" x="227.3531678601256" y="533.9407713498622" font-size="10px">34x</text><text class="label" x="309.95565299478267" y="547.16391184573" font-size="10px">75x</text><text class="label" x="186.04302627894032" y="560.3870523415978" font-size="10px">14x</text><text class="label" x="160.5104014451789" y="573.6101928374655" font-size="10px">1x</text><text class="label" x="264.2118803918026" y="508.9944903581267" font-size="8px"></text><text class="label" x="211.27739823726563" y="522.2176308539945" font-size="8px"></text><text class="label" x="223.8531678601256" y="535.4407713498622" font-size="8px"></text><text class="label" x="306.45565299478267" y="548.66391184573" font-size="8px"></text><text class="label" x="182.54302627894032" y="561.8870523415978" font-size="8px"></text><text class="label" x="157.0104014451789" y="575.1101928374655" font-size="8px"></text></g><g style="font-size: 13px;"><rect x="150" y="587.8833792470156" width="60.586289944261985" height="12.56198347107438" fill="#4472c4"></rect><rect x="150" y="601.1065197428833" width="56.59052234832595" height="12.56198347107438" fill="#ed7d31"></rect><rect x="150" y="614.3296602387511" width="54.98475492310118" height="12.56198347107438" fill="#a5a5a5"></rect><rect x="150" y="627.5528007346188" width="29.238778304114522" height="12.56198347107438" fill="#ffc000"></rect><rect x="150" y="640.7759412304866" width="28.761236762792475" height="12.56198347107438" fill="#5b9bd5"></rect><rect x="150" y="653.9990817263545" width="2.0104014451789003" height="12.56198347107438" fill="#70ad47"></rect><text class="label" x="219.08628994426198" y="596.3833792470156" font-size="10px">30x</text><text class="label" x="215.09052234832595" y="609.6065197428833" font-size="10px">28x</text><text class="label" x="213.48475492310118" y="622.8296602387511" font-size="10px">27x</text><text class="label" x="187.73877830411453" y="636.0528007346188" font-size="10px">15x</text><text class="label" x="187.26123676279246" y="649.2759412304866" font-size="10px">14x</text><text class="label" x="160.5104014451789" y="662.4990817263545" font-size="10px">1x</text><text class="label" x="215.58628994426198" y="597.8833792470156" font-size="8px"></text><text class="label" x="211.59052234832595" y="611.1065197428833" font-size="8px"></text><text class="label" x="209.98475492310118" y="624.3296602387511" font-size="8px"></text><text class="label" x="184.23877830411453" y="637.5528007346188" font-size="8px"></text><text class="label" x="183.76123676279246" y="650.7759412304866" font-size="8px"></text><text class="label" x="157.0104014451789" y="663.9990817263545" font-size="8px"></text></g><g style="font-size: 13px;"><rect x="150" y="676.7722681359045" width="58.38655236627431" height="12.56198347107438" fill="#4472c4"></rect><rect x="150" y="689.9954086317722" width="53.391965648415834" height="12.56198347107438" fill="#ed7d31"></rect><rect x="150" y="703.21854912764" width="52.04950394130665" height="12.56198347107438" fill="#a5a5a5"></rect><rect x="150" y="716.4416896235077" width="39.1200203579161" height="12.56198347107438" fill="#ffc000"></rect><rect x="150" y="729.6648301193756" width="43.03554085499828" height="12.56198347107438" fill="#5b9bd5"></rect><rect x="150" y="742.8879706152434" width="2.0104014451789003" height="12.56198347107438" fill="#70ad47"></rect><text class="label" x="216.88655236627432" y="685.2722681359045" font-size="10px">29x</text><text class="label" x="211.89196564841583" y="698.4954086317722" font-size="10px">27x</text><text class="label" x="210.54950394130665" y="711.71854912764" font-size="10px">26x</text><text class="label" x="197.6200203579161" y="724.9416896235077" font-size="10px">19x</text><text class="label" x="201.5355408549983" y="738.1648301193756" font-size="10px">21x</text><text class="label" x="160.5104014451789" y="751.3879706152434" font-size="10px">1x</text><text class="label" x="213.38655236627432" y="686.7722681359045" font-size="8px"></text><text class="label" x="208.39196564841583" y="699.9954086317722" font-size="8px"></text><text class="label" x="207.04950394130665" y="713.21854912764" font-size="8px"></text><text class="label" x="194.1200203579161" y="726.4416896235077" font-size="8px"></text><text class="label" x="198.0355408549983" y="739.6648301193756" font-size="8px"></text><text class="label" x="157.0104014451789" y="752.8879706152434" font-size="8px"></text></g></g></svg>