<svg xmlns="http://www.w3.org/2000/svg" xmlns:xlink="http://www.w3.org/1999/xlink" width="800" height="795" style="background-color: white;"><g class="y axis" transform="translate(149,45)" fill="none" font-size="10" font-family="sans-serif" text-anchor="end" style="font-size: 13px;"><path class="domain" stroke="currentColor" d="M0.5,0.5V720.5"></path><g class="tick" opacity="1" transform="translate(0,48.88888888888886)" style="font-size: 13px;"><line stroke="currentColor" x2="0"></line><text fill="currentColor" x="-3" dy="0.32em">object (simple)    </text></g><g class="tick" opacity="1" transform="translate(0,137.77777777777774)" style="font-size: 13px;"><line stroke="currentColor" x2="0"></line><text fill="currentColor" x="-3" dy="0.32em">object (hierarchical)    </text></g><g class="tick" opacity="1" transform="translate(0,226.66666666666663)" style="font-size: 13px;"><line stroke="currentColor" x2="0"></line><text fill="currentColor" x="-3" dy="0.32em">object (recursive)    </text></g><g class="tick" opacity="1" transform="translate(0,315.5555555555555)" style="font-size: 13px;"><line stroke="currentColor" x2="0"></line><text fill="currentColor" x="-3" dy="0.32em">object (union)    </text></g><g class="tick" opacity="1" transform="translate(0,404.4444444444444)" style="font-size: 13px;"><line stroke="currentColor" x2="0"></line><text fill="currentColor" x="-3" dy="0.32em">array (simple)    </text></g><g class="tick" opacity="1" transform="translate(0,493.3333333333333)" style="font-size: 13px;"><line stroke="currentColor" x2="0"></line><text fill="currentColor" x="-3" dy="0.32em">array (hierarchical)    </text></g><g class="tick" opacity="1" transform="translate(0,582.2222222222222)" style="font-size: 13px;"><line stroke="currentColor" x2="0"></line><text fill="currentColor" x="-3" dy="0.32em">array (recursive)    </text></g><g class="tick" opacity="1" transform="translate(0,671.1111111111111)" style="font-size: 13px;"><line stroke="currentColor" x2="0"></line><text fill="currentColor" x="-3" dy="0.32em">array (union)    </text></g></g><g class="x axis" transform="translate(149,765)" fill="none" font-size="10" font-family="sans-serif" text-anchor="middle" style="font-size: 13px;"><path class="domain" stroke="currentColor" d="M0.5,0.5H485.5"></path><g class="tick" opacity="1" transform="translate(0.5,0)" style="font-size: 13px;"><line stroke="currentColor" y2="6"></line><text fill="currentColor" y="9" dy="0.71em">0x</text></g><g class="tick" opacity="1" transform="translate(89.10618423461653,0)" style="font-size: 13px;"><line stroke="currentColor" y2="6"></line><text fill="currentColor" y="9" dy="0.71em">10x</text></g><g class="tick" opacity="1" transform="translate(177.71236846923307,0)" style="font-size: 13px;"><line stroke="currentColor" y2="6"></line><text fill="currentColor" y="9" dy="0.71em">20x</text></g><g class="tick" opacity="1" transform="translate(266.3185527038496,0)" style="font-size: 13px;"><line stroke="currentColor" y2="6"></line><text fill="currentColor" y="9" dy="0.71em">30x</text></g><g class="tick" opacity="1" transform="translate(354.92473693846614,0)" style="font-size: 13px;"><line stroke="currentColor" y2="6"></line><text fill="currentColor" y="9" dy="0.71em">40x</text></g><g class="tick" opacity="1" transform="translate(443.5309211730826,0)" style="font-size: 13px;"><line stroke="currentColor" y2="6"></line><text fill="currentColor" y="9" dy="0.71em">50x</text></g></g><text transform="translate(400, 30)" style="text-anchor: middle; font-size: 20px; font-weight: bold;">stringify benchmark</text><rect x="680" y="165" width="200" height="5" fill="gray"></rect><rect x="675" y="35" width="200" height="130" fill="none" stroke="black"></rect><rect x="685" y="45" width="10" height="10" style="fill: #4472c4;"></rect><text x="700" y="55" style="font-size: 12px;">typia.stringify()</text><rect x="685" y="65" width="10" height="10" style="fill: #ed7d31;"></rect><text x="700" y="75" style="font-size: 12px;">typia.assertStringify()</text><rect x="685" y="85" width="10" height="10" style="fill: #a5a5a5;"></rect><text x="700" y="95" style="font-size: 12px;">typia.isStringify()</text><rect x="685" y="105" width="10" height="10" style="fill: #ffc000;"></rect><text x="700" y="115" style="font-size: 12px;">fast-json-stringify</text><rect x="685" y="125" width="10" height="10" style="fill: #5b9bd5;"></rect><text x="700" y="135" style="font-size: 12px;">class-transformer</text><rect x="685" y="145" width="10" height="10" style="fill: #70ad47;"></rect><text x="700" y="155" style="font-size: 12px;">JSON.stringify</text><g style="font-size: 13px;"><g style="font-size: 13px;"><rect x="150" y="54.55004591368224" width="440.9090909090909" height="12.56198347107438" fill="#4472c4"></rect><rect x="150" y="67.77318640955001" width="403.65927994752866" height="12.56198347107438" fill="#ed7d31"></rect><rect x="150" y="80.99632690541777" width="359.23808639213263" height="12.56198347107438" fill="#a5a5a5"></rect><rect x="150" y="94.21946740128556" width="318.9642209357039" height="12.56198347107438" fill="#ffc000"></rect><rect x="150" y="107.44260789715332" width="8.860618423461652" height="12.56198347107438" fill="#5b9bd5"></rect><rect x="150" y="120.66574839302109" width="60.96406068882067" height="12.56198347107438" fill="#70ad47"></rect><text class="label" x="599.4090909090909" y="63.05004591368224" font-size="10px">49.76x</text><text class="label" x="562.1592799475286" y="76.27318640955001" font-size="10px">45.56x</text><text class="label" x="517.7380863921326" y="89.49632690541777" font-size="10px">40.54x</text><text class="label" x="477.4642209357039" y="102.71946740128556" font-size="10px">36x</text><text class="label" x="167.36061842346166" y="115.94260789715332" font-size="10px">1x</text><text class="label" x="219.46406068882067" y="129.1657483930211" font-size="10px">6.88x</text><text class="label" x="595.9090909090909" y="64.55004591368224" font-size="8px"></text><text class="label" x="558.6592799475286" y="77.77318640955001" font-size="8px"></text><text class="label" x="514.2380863921326" y="90.99632690541777" font-size="8px"></text><text class="label" x="473.9642209357039" y="104.21946740128556" font-size="8px"></text><text class="label" x="163.86061842346166" y="117.44260789715332" font-size="8px"></text><text class="label" x="215.96406068882067" y="130.6657483930211" font-size="8px"></text></g><g style="font-size: 13px;"><rect x="150" y="143.4389348025711" width="194.34411544992696" height="12.56198347107438" fill="#4472c4"></rect><rect x="150" y="156.66207529843888" width="157.5482573061976" height="12.56198347107438" fill="#ed7d31"></rect><rect x="150" y="169.88521579430665" width="175.90386721696626" height="12.56198347107438" fill="#a5a5a5"></rect><rect x="150" y="183.10835629017444" width="210.17903548667863" height="12.56198347107438" fill="#ffc000"></rect><rect x="150" y="196.3314967860422" width="8.860618423461652" height="12.56198347107438" fill="#5b9bd5"></rect><rect x="150" y="209.55463728190998" width="48.744557888239214" height="12.56198347107438" fill="#70ad47"></rect><text class="label" x="352.84411544992696" y="151.9389348025711" font-size="10px">21.93x</text><text class="label" x="316.04825730619757" y="165.16207529843888" font-size="10px">17.78x</text><text class="label" x="334.40386721696626" y="178.38521579430665" font-size="10px">19.85x</text><text class="label" x="368.67903548667863" y="191.60835629017444" font-size="10px">23.72x</text><text class="label" x="167.36061842346166" y="204.8314967860422" font-size="10px">1x</text><text class="label" x="207.24455788823923" y="218.05463728190998" font-size="10px">5.5x</text><text class="label" x="349.34411544992696" y="153.4389348025711" font-size="8px"></text><text class="label" x="312.54825730619757" y="166.66207529843888" font-size="8px"></text><text class="label" x="330.90386721696626" y="179.88521579430665" font-size="8px"></text><text class="label" x="365.17903548667863" y="193.10835629017444" font-size="8px"></text><text class="label" x="163.86061842346166" y="206.3314967860422" font-size="8px"></text><text class="label" x="203.74455788823923" y="219.55463728190998" font-size="8px"></text></g><g style="font-size: 13px;"><rect x="150" y="232.32782369146003" width="284.68776070913475" height="12.56198347107438" fill="#4472c4"></rect><rect x="150" y="245.5509641873278" width="251.11357237568635" height="12.56198347107438" fill="#ed7d31"></rect><rect x="150" y="258.77410468319556" width="253.71616614426623" height="12.56198347107438" fill="#a5a5a5"></rect><rect x="150" y="271.9972451790633" width="57.32826423390158" height="12.56198347107438" fill="#ffc000"></rect><rect x="150" y="285.2203856749311" width="8.860618423461652" height="12.56198347107438" fill="#5b9bd5"></rect><rect x="150" y="298.44352617079886" width="56.4342967408616" height="12.56198347107438" fill="#70ad47"></rect><text class="label" x="443.18776070913475" y="240.82782369146003" font-size="10px">32.13x</text><text class="label" x="409.6135723756863" y="254.0509641873278" font-size="10px">28.34x</text><text class="label" x="412.21616614426625" y="267.27410468319556" font-size="10px">28.63x</text><text class="label" x="215.82826423390156" y="280.4972451790633" font-size="10px">6.47x</text><text class="label" x="167.36061842346166" y="293.7203856749311" font-size="10px">1x</text><text class="label" x="214.9342967408616" y="306.94352617079886" font-size="10px">6.37x</text><text class="label" x="439.68776070913475" y="242.32782369146003" font-size="8px"></text><text class="label" x="406.1135723756863" y="255.5509641873278" font-size="8px"></text><text class="label" x="408.71616614426625" y="268.77410468319556" font-size="8px"></text><text class="label" x="212.32826423390156" y="281.9972451790633" font-size="8px"></text><text class="label" x="163.86061842346166" y="295.2203856749311" font-size="8px"></text><text class="label" x="211.4342967408616" y="308.44352617079886" font-size="8px"></text></g><g style="font-size: 13px;"><rect x="150" y="321.2167125803489" width="244.13879741464308" height="12.56198347107438" fill="#4472c4"></rect><rect x="150" y="334.43985307621665" width="195.1678496805732" height="12.56198347107438" fill="#ed7d31"></rect><rect x="150" y="347.6629935720844" width="219.50595028663852" height="12.56198347107438" fill="#a5a5a5"></rect><rect x="150" y="360.8861340679522" width="249.69316611016765" height="12.56198347107438" fill="#ffc000"></rect><rect x="150" y="374.10927456381995" width="8.860618423461652" height="12.56198347107438" fill="#5b9bd5"></rect><rect x="150" y="387.3324150596877" width="111.86137828570533" height="12.56198347107438" fill="#70ad47"></rect><text class="label" x="402.6387974146431" y="329.7167125803489" font-size="10px">27.55x</text><text class="label" x="353.6678496805732" y="342.93985307621665" font-size="10px">22.03x</text><text class="label" x="378.0059502866385" y="356.1629935720844" font-size="10px">24.77x</text><text class="label" x="408.1931661101677" y="369.3861340679522" font-size="10px">28.18x</text><text class="label" x="167.36061842346166" y="382.60927456381995" font-size="10px">1x</text><text class="label" x="270.3613782857053" y="395.8324150596877" font-size="10px">12.62x</text><text class="label" x="399.1387974146431" y="331.2167125803489" font-size="8px"></text><text class="label" x="350.1678496805732" y="344.43985307621665" font-size="8px"></text><text class="label" x="374.5059502866385" y="357.6629935720844" font-size="8px"></text><text class="label" x="404.6931661101677" y="370.8861340679522" font-size="8px"></text><text class="label" x="163.86061842346166" y="384.10927456381995" font-size="8px"></text><text class="label" x="266.8613782857053" y="397.3324150596877" font-size="8px"></text></g><g style="font-size: 13px;"><rect x="150" y="410.1056014692378" width="11.523154896592091" height="12.56198347107438" fill="#4472c4"></rect><rect x="150" y="423.32874196510556" width="10.424175254340065" height="12.56198347107438" fill="#ed7d31"></rect><rect x="150" y="436.55188246097333" width="11.157020275323633" height="12.56198347107438" fill="#a5a5a5"></rect><rect x="150" y="449.7750229568411" width="17.061675533050632" height="12.56198347107438" fill="#ffc000"></rect><rect x="150" y="462.99816345270887" width="0" height="12.56198347107438" fill="#5b9bd5"></rect><rect x="150" y="476.22130394857663" width="8.860618423461652" height="12.56198347107438" fill="#70ad47"></rect><text class="label" x="170.0231548965921" y="418.6056014692378" font-size="10px">1.3x</text><text class="label" x="168.92417525434007" y="431.82874196510556" font-size="10px">1.18x</text><text class="label" x="169.65702027532365" y="445.05188246097333" font-size="10px">1.26x</text><text class="label" x="175.56167553305062" y="458.2750229568411" font-size="10px">1.93x</text><text class="label" x="158.5" y="471.49816345270887" font-size="10px"></text><text class="label" x="167.36061842346166" y="484.72130394857663" font-size="10px">1x</text><text class="label" x="166.5231548965921" y="420.1056014692378" font-size="8px"></text><text class="label" x="165.42417525434007" y="433.32874196510556" font-size="8px"></text><text class="label" x="166.15702027532365" y="446.55188246097333" font-size="8px"></text><text class="label" x="172.06167553305062" y="459.7750229568411" font-size="8px"></text><text class="label" x="155" y="472.99816345270887" font-size="8px">Failed</text><text class="label" x="163.86061842346166" y="486.22130394857663" font-size="8px"></text></g><g style="font-size: 13px;"><rect x="150" y="498.9944903581267" width="140.4755591338598" height="12.56198347107438" fill="#4472c4"></rect><rect x="150" y="512.2176308539945" width="124.78594373084375" height="12.56198347107438" fill="#ed7d31"></rect><rect x="150" y="525.4407713498622" width="136.96272428034558" height="12.56198347107438" fill="#a5a5a5"></rect><rect x="150" y="538.66391184573" width="203.08924525046515" height="12.56198347107438" fill="#ffc000"></rect><rect x="150" y="551.8870523415978" width="8.860618423461652" height="12.56198347107438" fill="#5b9bd5"></rect><rect x="150" y="565.1101928374655" width="66.55169795374589" height="12.56198347107438" fill="#70ad47"></rect><text class="label" x="298.9755591338598" y="507.4944903581267" font-size="10px">15.85x</text><text class="label" x="283.28594373084377" y="520.7176308539945" font-size="10px">14.08x</text><text class="label" x="295.4627242803456" y="533.9407713498622" font-size="10px">15.46x</text><text class="label" x="361.5892452504652" y="547.16391184573" font-size="10px">22.92x</text><text class="label" x="167.36061842346166" y="560.3870523415978" font-size="10px">1x</text><text class="label" x="225.05169795374587" y="573.6101928374655" font-size="10px">7.51x</text><text class="label" x="295.4755591338598" y="508.9944903581267" font-size="8px"></text><text class="label" x="279.78594373084377" y="522.2176308539945" font-size="8px"></text><text class="label" x="291.9627242803456" y="535.4407713498622" font-size="8px"></text><text class="label" x="358.0892452504652" y="548.66391184573" font-size="8px"></text><text class="label" x="163.86061842346166" y="561.8870523415978" font-size="8px"></text><text class="label" x="221.55169795374587" y="575.1101928374655" font-size="8px"></text></g><g style="font-size: 13px;"><rect x="150" y="587.8833792470156" width="124.46696687288193" height="12.56198347107438" fill="#4472c4"></rect><rect x="150" y="601.1065197428833" width="112.87594416911989" height="12.56198347107438" fill="#ed7d31"></rect><rect x="150" y="614.3296602387511" width="119.24173085132104" height="12.56198347107438" fill="#a5a5a5"></rect><rect x="150" y="627.5528007346188" width="63.953398493022746" height="12.56198347107438" fill="#ffc000"></rect><rect x="150" y="640.7759412304866" width="8.860618423461652" height="12.56198347107438" fill="#5b9bd5"></rect><rect x="150" y="653.9990817263545" width="62.44737651317609" height="12.56198347107438" fill="#70ad47"></rect><text class="label" x="282.9669668728819" y="596.3833792470156" font-size="10px">14.05x</text><text class="label" x="271.37594416911986" y="609.6065197428833" font-size="10px">12.74x</text><text class="label" x="277.74173085132105" y="622.8296602387511" font-size="10px">13.46x</text><text class="label" x="222.45339849302275" y="636.0528007346188" font-size="10px">7.22x</text><text class="label" x="167.36061842346166" y="649.2759412304866" font-size="10px">1x</text><text class="label" x="220.9473765131761" y="662.4990817263545" font-size="10px">7.05x</text><text class="label" x="279.4669668728819" y="597.8833792470156" font-size="8px"></text><text class="label" x="267.87594416911986" y="611.1065197428833" font-size="8px"></text><text class="label" x="274.24173085132105" y="624.3296602387511" font-size="8px"></text><text class="label" x="218.95339849302275" y="637.5528007346188" font-size="8px"></text><text class="label" x="163.86061842346166" y="650.7759412304866" font-size="8px"></text><text class="label" x="217.4473765131761" y="663.9990817263545" font-size="8px"></text></g><g style="font-size: 13px;"><rect x="150" y="676.7722681359045" width="129.35661043747822" height="12.56198347107438" fill="#4472c4"></rect><rect x="150" y="689.9954086317722" width="117.43311680286635" height="12.56198347107438" fill="#ed7d31"></rect><rect x="150" y="703.21854912764" width="116.88524764224529" height="12.56198347107438" fill="#a5a5a5"></rect><rect x="150" y="716.4416896235077" width="92.91962494472753" height="12.56198347107438" fill="#ffc000"></rect><rect x="150" y="729.6648301193756" width="8.860618423461652" height="12.56198347107438" fill="#5b9bd5"></rect><rect x="150" y="742.8879706152434" width="105.01694306260767" height="12.56198347107438" fill="#70ad47"></rect><text class="label" x="287.85661043747825" y="685.2722681359045" font-size="10px">14.6x</text><text class="label" x="275.9331168028664" y="698.4954086317722" font-size="10px">13.25x</text><text class="label" x="275.3852476422453" y="711.71854912764" font-size="10px">13.19x</text><text class="label" x="251.41962494472753" y="724.9416896235077" font-size="10px">10.49x</text><text class="label" x="167.36061842346166" y="738.1648301193756" font-size="10px">1x</text><text class="label" x="263.51694306260765" y="751.3879706152434" font-size="10px">11.85x</text><text class="label" x="284.35661043747825" y="686.7722681359045" font-size="8px"></text><text class="label" x="272.4331168028664" y="699.9954086317722" font-size="8px"></text><text class="label" x="271.8852476422453" y="713.21854912764" font-size="8px"></text><text class="label" x="247.91962494472753" y="726.4416896235077" font-size="8px"></text><text class="label" x="163.86061842346166" y="739.6648301193756" font-size="8px"></text><text class="label" x="260.01694306260765" y="752.8879706152434" font-size="8px"></text></g></g></svg>