<svg xmlns="http://www.w3.org/2000/svg" xmlns:xlink="http://www.w3.org/1999/xlink" width="800" height="914" style="background-color: white;"><g class="y axis" transform="translate(149,45)" fill="none" font-size="10" font-family="sans-serif" text-anchor="end" style="font-size: 13px;"><path class="domain" stroke="currentColor" d="M0.5,0.5V720.5"></path><g class="tick" opacity="1" transform="translate(0,48.88888888888886)" style="font-size: 13px;"><line stroke="currentColor" x2="0"></line><text fill="currentColor" x="-3" dy="0.32em">object (simple)    </text></g><g class="tick" opacity="1" transform="translate(0,137.77777777777774)" style="font-size: 13px;"><line stroke="currentColor" x2="0"></line><text fill="currentColor" x="-3" dy="0.32em">object (hierarchical)    </text></g><g class="tick" opacity="1" transform="translate(0,226.66666666666663)" style="font-size: 13px;"><line stroke="currentColor" x2="0"></line><text fill="currentColor" x="-3" dy="0.32em">object (recursive)    </text></g><g class="tick" opacity="1" transform="translate(0,315.5555555555555)" style="font-size: 13px;"><line stroke="currentColor" x2="0"></line><text fill="currentColor" x="-3" dy="0.32em">object (union, explicit)    </text></g><g class="tick" opacity="1" transform="translate(0,404.4444444444444)" style="font-size: 13px;"><line stroke="currentColor" x2="0"></line><text fill="currentColor" x="-3" dy="0.32em">array (simple)    </text></g><g class="tick" opacity="1" transform="translate(0,493.3333333333333)" style="font-size: 13px;"><line stroke="currentColor" x2="0"></line><text fill="currentColor" x="-3" dy="0.32em">array (hierarchical)    </text></g><g class="tick" opacity="1" transform="translate(0,582.2222222222222)" style="font-size: 13px;"><line stroke="currentColor" x2="0"></line><text fill="currentColor" x="-3" dy="0.32em">array (recursive)    </text></g><g class="tick" opacity="1" transform="translate(0,671.1111111111111)" style="font-size: 13px;"><line stroke="currentColor" x2="0"></line><text fill="currentColor" x="-3" dy="0.32em">array (union, explicit)    </text></g></g><g class="x axis" transform="translate(149,765)" fill="none" font-size="10" font-family="sans-serif" text-anchor="middle" style="font-size: 13px;"><path class="domain" stroke="currentColor" d="M0.5,0.5H485.5"></path><g class="tick" opacity="1" transform="translate(0.5,0)" style="font-size: 13px;"><line stroke="currentColor" y2="6"></line><text fill="currentColor" y="9" dy="0.71em">0x</text></g><g class="tick" opacity="1" transform="translate(102.46299746348781,0)" style="font-size: 13px;"><line stroke="currentColor" y2="6"></line><text fill="currentColor" y="9" dy="0.71em">50x</text></g><g class="tick" opacity="1" transform="translate(204.42599492697562,0)" style="font-size: 13px;"><line stroke="currentColor" y2="6"></line><text fill="currentColor" y="9" dy="0.71em">100x</text></g><g class="tick" opacity="1" transform="translate(306.3889923904634,0)" style="font-size: 13px;"><line stroke="currentColor" y2="6"></line><text fill="currentColor" y="9" dy="0.71em">150x</text></g><g class="tick" opacity="1" transform="translate(408.35198985395124,0)" style="font-size: 13px;"><line stroke="currentColor" y2="6"></line><text fill="currentColor" y="9" dy="0.71em">200x</text></g></g><text transform="translate(400, 30)" style="text-anchor: middle; font-size: 20px; font-weight: bold;">stringify benchmark</text><rect x="650" y="165" width="230" height="5" fill="gray"></rect><rect x="645" y="35" width="230" height="130" fill="none" stroke="black"></rect><rect x="655" y="45" width="10" height="10" style="fill: #4472c4;"></rect><text x="670" y="55" style="font-size: 12px;">typia.stringify</text><rect x="655" y="65" width="10" height="10" style="fill: #ed7d31;"></rect><text x="670" y="75" style="font-size: 12px;">typia.isStringify</text><rect x="655" y="85" width="10" height="10" style="fill: #a5a5a5;"></rect><text x="670" y="95" style="font-size: 12px;">typia.assertStringify</text><rect x="655" y="105" width="10" height="10" style="fill: #ffc000;"></rect><text x="670" y="115" style="font-size: 12px;">fast-json-stringify</text><rect x="655" y="125" width="10" height="10" style="fill: #5b9bd5;"></rect><text x="670" y="135" style="font-size: 12px;">JSON.stringify</text><rect x="655" y="145" width="10" height="10" style="fill: #70ad47;"></rect><text x="670" y="155" style="font-size: 12px;">class-transformer</text><text x="20" y="829" style="font-size: 12px;">  - CPU: AMD Ryzen 7 6800HS with Radeon Graphics</text><text x="20" y="846" style="font-size: 12px;">  - OS: win32</text><text x="20" y="863" style="font-size: 12px;">  - RAM: 63 GB</text><text x="20" y="880" style="font-size: 12px;">  - NodeJS version: v16.20.0</text><text x="20" y="897" style="font-size: 12px;">  - Typia version: v4.1.1</text><g style="font-size: 13px;"><g style="font-size: 13px;"><rect x="150" y="54.55004591368224" width="440.9090909090909" height="12.56198347107438" fill="#4472c4"></rect><rect x="150" y="67.77318640955001" width="357.53366976123704" height="12.56198347107438" fill="#ed7d31"></rect><rect x="150" y="80.99632690541777" width="372.2604137735443" height="12.56198347107438" fill="#a5a5a5"></rect><rect x="150" y="94.21946740128556" width="161.83836652041188" height="12.56198347107438" fill="#ffc000"></rect><rect x="150" y="107.44260789715332" width="26.472768909002934" height="12.56198347107438" fill="#5b9bd5"></rect><rect x="150" y="120.66574839302109" width="2.039259949269756" height="12.56198347107438" fill="#70ad47"></rect><text class="label" x="599.4090909090909" y="63.05004591368224" font-size="10px">216x</text><text class="label" x="516.033669761237" y="76.27318640955001" font-size="10px">175x</text><text class="label" x="530.7604137735443" y="89.49632690541777" font-size="10px">183x</text><text class="label" x="320.3383665204119" y="102.71946740128556" font-size="10px">79x</text><text class="label" x="184.97276890900292" y="115.94260789715332" font-size="10px">13x</text><text class="label" x="160.53925994926976" y="129.1657483930211" font-size="10px">1x</text><text class="label" x="595.9090909090909" y="64.55004591368224" font-size="8px"></text><text class="label" x="512.533669761237" y="77.77318640955001" font-size="8px"></text><text class="label" x="527.2604137735443" y="90.99632690541777" font-size="8px"></text><text class="label" x="316.8383665204119" y="104.21946740128556" font-size="8px"></text><text class="label" x="181.47276890900292" y="117.44260789715332" font-size="8px"></text><text class="label" x="157.03925994926976" y="130.6657483930211" font-size="8px"></text></g><g style="font-size: 13px;"><rect x="150" y="143.4389348025711" width="90.12942668664034" height="12.56198347107438" fill="#4472c4"></rect><rect x="150" y="156.66207529843888" width="86.50269224091551" height="12.56198347107438" fill="#ed7d31"></rect><rect x="150" y="169.88521579430665" width="85.43298105921264" height="12.56198347107438" fill="#a5a5a5"></rect><rect x="150" y="183.10835629017444" width="66.43126186012127" height="12.56198347107438" fill="#ffc000"></rect><rect x="150" y="196.3314967860422" width="22.424160323265447" height="12.56198347107438" fill="#5b9bd5"></rect><rect x="150" y="209.55463728190998" width="2.039259949269756" height="12.56198347107438" fill="#70ad47"></rect><text class="label" x="248.62942668664033" y="151.9389348025711" font-size="10px">44x</text><text class="label" x="245.0026922409155" y="165.16207529843888" font-size="10px">42x</text><text class="label" x="243.93298105921264" y="178.38521579430665" font-size="10px">42x</text><text class="label" x="224.93126186012125" y="191.60835629017444" font-size="10px">33x</text><text class="label" x="180.92416032326545" y="204.8314967860422" font-size="10px">11x</text><text class="label" x="160.53925994926976" y="218.05463728190998" font-size="10px">1x</text><text class="label" x="245.12942668664033" y="153.4389348025711" font-size="8px"></text><text class="label" x="241.5026922409155" y="166.66207529843888" font-size="8px"></text><text class="label" x="240.43298105921264" y="179.88521579430665" font-size="8px"></text><text class="label" x="221.43126186012125" y="193.10835629017444" font-size="8px"></text><text class="label" x="177.42416032326545" y="206.3314967860422" font-size="8px"></text><text class="label" x="157.03925994926976" y="219.55463728190998" font-size="8px"></text></g><g style="font-size: 13px;"><rect x="150" y="232.32782369146003" width="141.20158664677768" height="12.56198347107438" fill="#4472c4"></rect><rect x="150" y="245.5509641873278" width="134.5842109386909" height="12.56198347107438" fill="#ed7d31"></rect><rect x="150" y="258.77410468319556" width="138.10812212283807" height="12.56198347107438" fill="#a5a5a5"></rect><rect x="150" y="271.9972451790633" width="39.67457170214262" height="12.56198347107438" fill="#ffc000"></rect><rect x="150" y="285.2203856749311" width="27.548520618290564" height="12.56198347107438" fill="#5b9bd5"></rect><rect x="150" y="298.44352617079886" width="2.039259949269756" height="12.56198347107438" fill="#70ad47"></rect><text class="label" x="299.7015866467777" y="240.82782369146003" font-size="10px">69x</text><text class="label" x="293.0842109386909" y="254.0509641873278" font-size="10px">66x</text><text class="label" x="296.60812212283804" y="267.27410468319556" font-size="10px">68x</text><text class="label" x="198.17457170214263" y="280.4972451790633" font-size="10px">19x</text><text class="label" x="186.04852061829055" y="293.7203856749311" font-size="10px">14x</text><text class="label" x="160.53925994926976" y="306.94352617079886" font-size="10px">1x</text><text class="label" x="296.2015866467777" y="242.32782369146003" font-size="8px"></text><text class="label" x="289.5842109386909" y="255.5509641873278" font-size="8px"></text><text class="label" x="293.10812212283804" y="268.77410468319556" font-size="8px"></text><text class="label" x="194.67457170214263" y="281.9972451790633" font-size="8px"></text><text class="label" x="182.54852061829055" y="295.2203856749311" font-size="8px"></text><text class="label" x="157.03925994926976" y="308.44352617079886" font-size="8px"></text></g><g style="font-size: 13px;"><rect x="150" y="321.2167125803489" width="100.40597982283728" height="12.56198347107438" fill="#4472c4"></rect><rect x="150" y="334.43985307621665" width="97.40869905536762" height="12.56198347107438" fill="#ed7d31"></rect><rect x="150" y="347.6629935720844" width="94.26162746319557" height="12.56198347107438" fill="#a5a5a5"></rect><rect x="150" y="360.8861340679522" width="69.95185586802674" height="12.56198347107438" fill="#ffc000"></rect><rect x="150" y="374.10927456381995" width="40.098986485538234" height="12.56198347107438" fill="#5b9bd5"></rect><rect x="150" y="387.3324150596877" width="2.039259949269756" height="12.56198347107438" fill="#70ad47"></rect><text class="label" x="258.90597982283725" y="329.7167125803489" font-size="10px">49x</text><text class="label" x="255.9086990553676" y="342.93985307621665" font-size="10px">48x</text><text class="label" x="252.76162746319557" y="356.1629935720844" font-size="10px">46x</text><text class="label" x="228.45185586802674" y="369.3861340679522" font-size="10px">34x</text><text class="label" x="198.59898648553823" y="382.60927456381995" font-size="10px">20x</text><text class="label" x="160.53925994926976" y="395.8324150596877" font-size="10px">1x</text><text class="label" x="255.40597982283728" y="331.2167125803489" font-size="8px"></text><text class="label" x="252.4086990553676" y="344.43985307621665" font-size="8px"></text><text class="label" x="249.26162746319557" y="357.6629935720844" font-size="8px"></text><text class="label" x="224.95185586802674" y="370.8861340679522" font-size="8px"></text><text class="label" x="195.09898648553823" y="384.10927456381995" font-size="8px"></text><text class="label" x="157.03925994926976" y="397.3324150596877" font-size="8px"></text></g><g style="font-size: 13px;"><rect x="150" y="410.1056014692378" width="49.11312279129174" height="12.56198347107438" fill="#4472c4"></rect><rect x="150" y="423.32874196510556" width="45.132482341562024" height="12.56198347107438" fill="#ed7d31"></rect><rect x="150" y="436.55188246097333" width="45.529659415615235" height="12.56198347107438" fill="#a5a5a5"></rect><rect x="150" y="449.7750229568411" width="69.3935597252249" height="12.56198347107438" fill="#ffc000"></rect><rect x="150" y="462.99816345270887" width="31.07951616480153" height="12.56198347107438" fill="#5b9bd5"></rect><rect x="150" y="476.22130394857663" width="2.039259949269756" height="12.56198347107438" fill="#70ad47"></rect><text class="label" x="207.61312279129174" y="418.6056014692378" font-size="10px">24x</text><text class="label" x="203.63248234156202" y="431.82874196510556" font-size="10px">22x</text><text class="label" x="204.02965941561524" y="445.05188246097333" font-size="10px">22x</text><text class="label" x="227.89355972522492" y="458.2750229568411" font-size="10px">34x</text><text class="label" x="189.57951616480153" y="471.49816345270887" font-size="10px">15x</text><text class="label" x="160.53925994926976" y="484.72130394857663" font-size="10px">1x</text><text class="label" x="204.11312279129174" y="420.1056014692378" font-size="8px"></text><text class="label" x="200.13248234156202" y="433.32874196510556" font-size="8px"></text><text class="label" x="200.52965941561524" y="446.55188246097333" font-size="8px"></text><text class="label" x="224.39355972522492" y="459.7750229568411" font-size="8px"></text><text class="label" x="186.07951616480153" y="472.99816345270887" font-size="8px"></text><text class="label" x="157.03925994926976" y="486.22130394857663" font-size="8px"></text></g><g style="font-size: 13px;"><rect x="150" y="498.9944903581267" width="78.79823703730108" height="12.56198347107438" fill="#4472c4"></rect><rect x="150" y="512.2176308539945" width="77.9323234889511" height="12.56198347107438" fill="#ed7d31"></rect><rect x="150" y="525.4407713498622" width="79.97217963319608" height="12.56198347107438" fill="#a5a5a5"></rect><rect x="150" y="538.66391184573" width="114.4335375239962" height="12.56198347107438" fill="#ffc000"></rect><rect x="150" y="551.8870523415978" width="33.88890967297113" height="12.56198347107438" fill="#5b9bd5"></rect><rect x="150" y="565.1101928374655" width="2.039259949269756" height="12.56198347107438" fill="#70ad47"></rect><text class="label" x="237.29823703730108" y="507.4944903581267" font-size="10px">39x</text><text class="label" x="236.4323234889511" y="520.7176308539945" font-size="10px">38x</text><text class="label" x="238.47217963319608" y="533.9407713498622" font-size="10px">39x</text><text class="label" x="272.93353752399616" y="547.16391184573" font-size="10px">56x</text><text class="label" x="192.38890967297112" y="560.3870523415978" font-size="10px">17x</text><text class="label" x="160.53925994926976" y="573.6101928374655" font-size="10px">1x</text><text class="label" x="233.79823703730108" y="508.9944903581267" font-size="8px"></text><text class="label" x="232.9323234889511" y="522.2176308539945" font-size="8px"></text><text class="label" x="234.97217963319608" y="535.4407713498622" font-size="8px"></text><text class="label" x="269.43353752399616" y="548.66391184573" font-size="8px"></text><text class="label" x="188.88890967297112" y="561.8870523415978" font-size="8px"></text><text class="label" x="157.03925994926976" y="575.1101928374655" font-size="8px"></text></g><g style="font-size: 13px;"><rect x="150" y="587.8833792470156" width="64.11844496511524" height="12.56198347107438" fill="#4472c4"></rect><rect x="150" y="601.1065197428833" width="62.143810424675564" height="12.56198347107438" fill="#ed7d31"></rect><rect x="150" y="614.3296602387511" width="64.22602353418043" height="12.56198347107438" fill="#a5a5a5"></rect><rect x="150" y="627.5528007346188" width="120.25061481971206" height="12.56198347107438" fill="#ffc000"></rect><rect x="150" y="640.7759412304866" width="30.172306257058572" height="12.56198347107438" fill="#5b9bd5"></rect><rect x="150" y="653.9990817263545" width="2.039259949269756" height="12.56198347107438" fill="#70ad47"></rect><text class="label" x="222.61844496511526" y="596.3833792470156" font-size="10px">31x</text><text class="label" x="220.64381042467556" y="609.6065197428833" font-size="10px">30x</text><text class="label" x="222.72602353418043" y="622.8296602387511" font-size="10px">31x</text><text class="label" x="278.75061481971204" y="636.0528007346188" font-size="10px">59x</text><text class="label" x="188.67230625705858" y="649.2759412304866" font-size="10px">15x</text><text class="label" x="160.53925994926976" y="662.4990817263545" font-size="10px">1x</text><text class="label" x="219.11844496511526" y="597.8833792470156" font-size="8px"></text><text class="label" x="217.14381042467556" y="611.1065197428833" font-size="8px"></text><text class="label" x="219.22602353418043" y="624.3296602387511" font-size="8px"></text><text class="label" x="275.25061481971204" y="637.5528007346188" font-size="8px"></text><text class="label" x="185.17230625705858" y="650.7759412304866" font-size="8px"></text><text class="label" x="157.03925994926976" y="663.9990817263545" font-size="8px"></text></g><g style="font-size: 13px;"><rect x="150" y="676.7722681359045" width="64.41432847241855" height="12.56198347107438" fill="#4472c4"></rect><rect x="150" y="689.9954086317722" width="60.40451013416578" height="12.56198347107438" fill="#ed7d31"></rect><rect x="150" y="703.21854912764" width="60.86711675989755" height="12.56198347107438" fill="#a5a5a5"></rect><rect x="150" y="716.4416896235077" width="13.869378604981717" height="12.56198347107438" fill="#ffc000"></rect><rect x="150" y="729.6648301193756" width="45.55601004674247" height="12.56198347107438" fill="#5b9bd5"></rect><rect x="150" y="742.8879706152434" width="2.039259949269756" height="12.56198347107438" fill="#70ad47"></rect><text class="label" x="222.91432847241856" y="685.2722681359045" font-size="10px">32x</text><text class="label" x="218.90451013416578" y="698.4954086317722" font-size="10px">30x</text><text class="label" x="219.36711675989756" y="711.71854912764" font-size="10px">30x</text><text class="label" x="172.3693786049817" y="724.9416896235077" font-size="10px">7x</text><text class="label" x="204.05601004674247" y="738.1648301193756" font-size="10px">22x</text><text class="label" x="160.53925994926976" y="751.3879706152434" font-size="10px">1x</text><text class="label" x="219.41432847241856" y="686.7722681359045" font-size="8px"></text><text class="label" x="215.40451013416578" y="699.9954086317722" font-size="8px"></text><text class="label" x="215.86711675989756" y="713.21854912764" font-size="8px"></text><text class="label" x="168.8693786049817" y="726.4416896235077" font-size="8px"></text><text class="label" x="200.55601004674247" y="739.6648301193756" font-size="8px"></text><text class="label" x="157.03925994926976" y="752.8879706152434" font-size="8px"></text></g></g></svg>