<svg xmlns="http://www.w3.org/2000/svg" xmlns:xlink="http://www.w3.org/1999/xlink" width="800" height="914" style="background-color: white;"><g class="y axis" transform="translate(149,45)" fill="none" font-size="10" font-family="sans-serif" text-anchor="end" style="font-size: 13px;"><path class="domain" stroke="currentColor" d="M0.5,0.5V720.5"></path><g class="tick" opacity="1" transform="translate(0,48.88888888888886)" style="font-size: 13px;"><line stroke="currentColor" x2="0"></line><text fill="currentColor" x="-3" dy="0.32em">object (simple)    </text></g><g class="tick" opacity="1" transform="translate(0,137.77777777777774)" style="font-size: 13px;"><line stroke="currentColor" x2="0"></line><text fill="currentColor" x="-3" dy="0.32em">object (hierarchical)    </text></g><g class="tick" opacity="1" transform="translate(0,226.66666666666663)" style="font-size: 13px;"><line stroke="currentColor" x2="0"></line><text fill="currentColor" x="-3" dy="0.32em">object (recursive)    </text></g><g class="tick" opacity="1" transform="translate(0,315.5555555555555)" style="font-size: 13px;"><line stroke="currentColor" x2="0"></line><text fill="currentColor" x="-3" dy="0.32em">object (union, explicit)    </text></g><g class="tick" opacity="1" transform="translate(0,404.4444444444444)" style="font-size: 13px;"><line stroke="currentColor" x2="0"></line><text fill="currentColor" x="-3" dy="0.32em">array (simple)    </text></g><g class="tick" opacity="1" transform="translate(0,493.3333333333333)" style="font-size: 13px;"><line stroke="currentColor" x2="0"></line><text fill="currentColor" x="-3" dy="0.32em">array (hierarchical)    </text></g><g class="tick" opacity="1" transform="translate(0,582.2222222222222)" style="font-size: 13px;"><line stroke="currentColor" x2="0"></line><text fill="currentColor" x="-3" dy="0.32em">array (recursive)    </text></g><g class="tick" opacity="1" transform="translate(0,671.1111111111111)" style="font-size: 13px;"><line stroke="currentColor" x2="0"></line><text fill="currentColor" x="-3" dy="0.32em">array (union, explicit)    </text></g></g><g class="x axis" transform="translate(149,765)" fill="none" font-size="10" font-family="sans-serif" text-anchor="middle" style="font-size: 13px;"><path class="domain" stroke="currentColor" d="M0.5,0.5H485.5"></path><g class="tick" opacity="1" transform="translate(0.5,0)" style="font-size: 13px;"><line stroke="currentColor" y2="6"></line><text fill="currentColor" y="9" dy="0.71em">0x</text></g><g class="tick" opacity="1" transform="translate(99.67605153417192,0)" style="font-size: 13px;"><line stroke="currentColor" y2="6"></line><text fill="currentColor" y="9" dy="0.71em">50x</text></g><g class="tick" opacity="1" transform="translate(198.85210306834384,0)" style="font-size: 13px;"><line stroke="currentColor" y2="6"></line><text fill="currentColor" y="9" dy="0.71em">100x</text></g><g class="tick" opacity="1" transform="translate(298.0281546025157,0)" style="font-size: 13px;"><line stroke="currentColor" y2="6"></line><text fill="currentColor" y="9" dy="0.71em">150x</text></g><g class="tick" opacity="1" transform="translate(397.2042061366877,0)" style="font-size: 13px;"><line stroke="currentColor" y2="6"></line><text fill="currentColor" y="9" dy="0.71em">200x</text></g></g><text transform="translate(400, 30)" style="text-anchor: middle; font-size: 20px; font-weight: bold;">stringify benchmark</text><rect x="650" y="165" width="230" height="5" fill="gray"></rect><rect x="645" y="35" width="230" height="130" fill="none" stroke="black"></rect><rect x="655" y="45" width="10" height="10" style="fill: #4472c4;"></rect><text x="670" y="55" style="font-size: 12px;">typia.stringify</text><rect x="655" y="65" width="10" height="10" style="fill: #ed7d31;"></rect><text x="670" y="75" style="font-size: 12px;">typia.isStringify</text><rect x="655" y="85" width="10" height="10" style="fill: #a5a5a5;"></rect><text x="670" y="95" style="font-size: 12px;">typia.assertStringify</text><rect x="655" y="105" width="10" height="10" style="fill: #ffc000;"></rect><text x="670" y="115" style="font-size: 12px;">fast-json-stringify</text><rect x="655" y="125" width="10" height="10" style="fill: #5b9bd5;"></rect><text x="670" y="135" style="font-size: 12px;">JSON.stringify</text><rect x="655" y="145" width="10" height="10" style="fill: #70ad47;"></rect><text x="670" y="155" style="font-size: 12px;">class-transformer</text><text x="20" y="829" style="font-size: 12px;">  - CPU: AMD Ryzen 7 6800HS with Radeon Graphics</text><text x="20" y="846" style="font-size: 12px;">  - OS: win32</text><text x="20" y="863" style="font-size: 12px;">  - RAM: 63 GB</text><text x="20" y="880" style="font-size: 12px;">  - NodeJS version: v16.20.0</text><text x="20" y="897" style="font-size: 12px;">  - Typia version: v4.1.1</text><g style="font-size: 13px;"><g style="font-size: 13px;"><rect x="150" y="54.55004591368224" width="440.9090909090908" height="12.56198347107438" fill="#4472c4"></rect><rect x="150" y="67.77318640955001" width="358.21179361159045" height="12.56198347107438" fill="#ed7d31"></rect><rect x="150" y="80.99632690541777" width="361.12879256871656" height="12.56198347107438" fill="#a5a5a5"></rect><rect x="150" y="94.21946740128556" width="153.85392695455033" height="12.56198347107438" fill="#ffc000"></rect><rect x="150" y="107.44260789715332" width="25.82162121548664" height="12.56198347107438" fill="#5b9bd5"></rect><rect x="150" y="120.66574839302109" width="1.9835210306834383" height="12.56198347107438" fill="#70ad47"></rect><text class="label" x="599.4090909090908" y="63.05004591368224" font-size="10px">222x</text><text class="label" x="516.7117936115905" y="76.27318640955001" font-size="10px">181x</text><text class="label" x="519.6287925687166" y="89.49632690541777" font-size="10px">182x</text><text class="label" x="312.35392695455033" y="102.71946740128556" font-size="10px">78x</text><text class="label" x="184.32162121548663" y="115.94260789715332" font-size="10px">13x</text><text class="label" x="160.48352103068345" y="129.1657483930211" font-size="10px">1x</text><text class="label" x="595.9090909090908" y="64.55004591368224" font-size="8px"></text><text class="label" x="513.2117936115905" y="77.77318640955001" font-size="8px"></text><text class="label" x="516.1287925687166" y="90.99632690541777" font-size="8px"></text><text class="label" x="308.85392695455033" y="104.21946740128556" font-size="8px"></text><text class="label" x="180.82162121548663" y="117.44260789715332" font-size="8px"></text><text class="label" x="156.98352103068345" y="130.6657483930211" font-size="8px"></text></g><g style="font-size: 13px;"><rect x="150" y="143.4389348025711" width="87.23579720066805" height="12.56198347107438" fill="#4472c4"></rect><rect x="150" y="156.66207529843888" width="83.10846581249834" height="12.56198347107438" fill="#ed7d31"></rect><rect x="150" y="169.88521579430665" width="82.71034348433774" height="12.56198347107438" fill="#a5a5a5"></rect><rect x="150" y="183.10835629017444" width="63.35802719097866" height="12.56198347107438" fill="#ffc000"></rect><rect x="150" y="196.3314967860422" width="21.508972846705454" height="12.56198347107438" fill="#5b9bd5"></rect><rect x="150" y="209.55463728190998" width="1.9835210306834383" height="12.56198347107438" fill="#70ad47"></rect><text class="label" x="245.73579720066806" y="151.9389348025711" font-size="10px">44x</text><text class="label" x="241.60846581249834" y="165.16207529843888" font-size="10px">42x</text><text class="label" x="241.21034348433773" y="178.38521579430665" font-size="10px">42x</text><text class="label" x="221.85802719097865" y="191.60835629017444" font-size="10px">32x</text><text class="label" x="180.00897284670546" y="204.8314967860422" font-size="10px">11x</text><text class="label" x="160.48352103068345" y="218.05463728190998" font-size="10px">1x</text><text class="label" x="242.23579720066806" y="153.4389348025711" font-size="8px"></text><text class="label" x="238.10846581249834" y="166.66207529843888" font-size="8px"></text><text class="label" x="237.71034348433773" y="179.88521579430665" font-size="8px"></text><text class="label" x="218.35802719097865" y="193.10835629017444" font-size="8px"></text><text class="label" x="176.50897284670546" y="206.3314967860422" font-size="8px"></text><text class="label" x="156.98352103068345" y="219.55463728190998" font-size="8px"></text></g><g style="font-size: 13px;"><rect x="150" y="232.32782369146003" width="131.43451883791613" height="12.56198347107438" fill="#4472c4"></rect><rect x="150" y="245.5509641873278" width="126.15609694234847" height="12.56198347107438" fill="#ed7d31"></rect><rect x="150" y="258.77410468319556" width="125.96348820666083" height="12.56198347107438" fill="#a5a5a5"></rect><rect x="150" y="271.9972451790633" width="35.50982630281749" height="12.56198347107438" fill="#ffc000"></rect><rect x="150" y="285.2203856749311" width="26.22049661484608" height="12.56198347107438" fill="#5b9bd5"></rect><rect x="150" y="298.44352617079886" width="1.9835210306834383" height="12.56198347107438" fill="#70ad47"></rect><text class="label" x="289.93451883791613" y="240.82782369146003" font-size="10px">66x</text><text class="label" x="284.6560969423485" y="254.0509641873278" font-size="10px">64x</text><text class="label" x="284.4634882066608" y="267.27410468319556" font-size="10px">64x</text><text class="label" x="194.0098263028175" y="280.4972451790633" font-size="10px">18x</text><text class="label" x="184.72049661484607" y="293.7203856749311" font-size="10px">13x</text><text class="label" x="160.48352103068345" y="306.94352617079886" font-size="10px">1x</text><text class="label" x="286.43451883791613" y="242.32782369146003" font-size="8px"></text><text class="label" x="281.1560969423485" y="255.5509641873278" font-size="8px"></text><text class="label" x="280.9634882066608" y="268.77410468319556" font-size="8px"></text><text class="label" x="190.5098263028175" y="281.9972451790633" font-size="8px"></text><text class="label" x="181.22049661484607" y="295.2203856749311" font-size="8px"></text><text class="label" x="156.98352103068345" y="308.44352617079886" font-size="8px"></text></g><g style="font-size: 13px;"><rect x="150" y="321.2167125803489" width="102.09101889528053" height="12.56198347107438" fill="#4472c4"></rect><rect x="150" y="334.43985307621665" width="92.49965063033412" height="12.56198347107438" fill="#ed7d31"></rect><rect x="150" y="347.6629935720844" width="90.069574905504" height="12.56198347107438" fill="#a5a5a5"></rect><rect x="150" y="360.8861340679522" width="68.9413161245489" height="12.56198347107438" fill="#ffc000"></rect><rect x="150" y="374.10927456381995" width="38.7543962343131" height="12.56198347107438" fill="#5b9bd5"></rect><rect x="150" y="387.3324150596877" width="1.9835210306834383" height="12.56198347107438" fill="#70ad47"></rect><text class="label" x="260.5910188952805" y="329.7167125803489" font-size="10px">51x</text><text class="label" x="250.99965063033412" y="342.93985307621665" font-size="10px">47x</text><text class="label" x="248.569574905504" y="356.1629935720844" font-size="10px">45x</text><text class="label" x="227.4413161245489" y="369.3861340679522" font-size="10px">35x</text><text class="label" x="197.2543962343131" y="382.60927456381995" font-size="10px">20x</text><text class="label" x="160.48352103068345" y="395.8324150596877" font-size="10px">1x</text><text class="label" x="257.0910188952805" y="331.2167125803489" font-size="8px"></text><text class="label" x="247.49965063033412" y="344.43985307621665" font-size="8px"></text><text class="label" x="245.069574905504" y="357.6629935720844" font-size="8px"></text><text class="label" x="223.9413161245489" y="370.8861340679522" font-size="8px"></text><text class="label" x="193.7543962343131" y="384.10927456381995" font-size="8px"></text><text class="label" x="156.98352103068345" y="397.3324150596877" font-size="8px"></text></g><g style="font-size: 13px;"><rect x="150" y="410.1056014692378" width="47.276107951128225" height="12.56198347107438" fill="#4472c4"></rect><rect x="150" y="423.32874196510556" width="45.3329057378123" height="12.56198347107438" fill="#ed7d31"></rect><rect x="150" y="436.55188246097333" width="44.65194638542275" height="12.56198347107438" fill="#a5a5a5"></rect><rect x="150" y="449.7750229568411" width="70.41237292098985" height="12.56198347107438" fill="#ffc000"></rect><rect x="150" y="462.99816345270887" width="28.78509223383228" height="12.56198347107438" fill="#5b9bd5"></rect><rect x="150" y="476.22130394857663" width="1.9835210306834383" height="12.56198347107438" fill="#70ad47"></rect><text class="label" x="205.7761079511282" y="418.6056014692378" font-size="10px">24x</text><text class="label" x="203.8329057378123" y="431.82874196510556" font-size="10px">23x</text><text class="label" x="203.15194638542275" y="445.05188246097333" font-size="10px">23x</text><text class="label" x="228.91237292098987" y="458.2750229568411" font-size="10px">35x</text><text class="label" x="187.28509223383227" y="471.49816345270887" font-size="10px">15x</text><text class="label" x="160.48352103068345" y="484.72130394857663" font-size="10px">1x</text><text class="label" x="202.2761079511282" y="420.1056014692378" font-size="8px"></text><text class="label" x="200.3329057378123" y="433.32874196510556" font-size="8px"></text><text class="label" x="199.65194638542275" y="446.55188246097333" font-size="8px"></text><text class="label" x="225.41237292098987" y="459.7750229568411" font-size="8px"></text><text class="label" x="183.78509223383227" y="472.99816345270887" font-size="8px"></text><text class="label" x="156.98352103068345" y="486.22130394857663" font-size="8px"></text></g><g style="font-size: 13px;"><rect x="150" y="498.9944903581267" width="81.6499895214284" height="12.56198347107438" fill="#4472c4"></rect><rect x="150" y="512.2176308539945" width="81.32572832453098" height="12.56198347107438" fill="#ed7d31"></rect><rect x="150" y="525.4407713498622" width="80.02047559071828" height="12.56198347107438" fill="#a5a5a5"></rect><rect x="150" y="538.66391184573" width="121.13680454480331" height="12.56198347107438" fill="#ffc000"></rect><rect x="150" y="551.8870523415978" width="33.56687552403703" height="12.56198347107438" fill="#5b9bd5"></rect><rect x="150" y="565.1101928374655" width="1.9835210306834383" height="12.56198347107438" fill="#70ad47"></rect><text class="label" x="240.14998952142838" y="507.4944903581267" font-size="10px">41x</text><text class="label" x="239.82572832453098" y="520.7176308539945" font-size="10px">41x</text><text class="label" x="238.52047559071826" y="533.9407713498622" font-size="10px">40x</text><text class="label" x="279.63680454480334" y="547.16391184573" font-size="10px">61x</text><text class="label" x="192.06687552403702" y="560.3870523415978" font-size="10px">17x</text><text class="label" x="160.48352103068345" y="573.6101928374655" font-size="10px">1x</text><text class="label" x="236.64998952142838" y="508.9944903581267" font-size="8px"></text><text class="label" x="236.32572832453098" y="522.2176308539945" font-size="8px"></text><text class="label" x="235.02047559071826" y="535.4407713498622" font-size="8px"></text><text class="label" x="276.13680454480334" y="548.66391184573" font-size="8px"></text><text class="label" x="188.56687552403702" y="561.8870523415978" font-size="8px"></text><text class="label" x="156.98352103068345" y="575.1101928374655" font-size="8px"></text></g><g style="font-size: 13px;"><rect x="150" y="587.8833792470156" width="65.48030828361003" height="12.56198347107438" fill="#4472c4"></rect><rect x="150" y="601.1065197428833" width="63.28296973619841" height="12.56198347107438" fill="#ed7d31"></rect><rect x="150" y="614.3296602387511" width="63.215964292977226" height="12.56198347107438" fill="#a5a5a5"></rect><rect x="150" y="627.5528007346188" width="120.53741002393448" height="12.56198347107438" fill="#ffc000"></rect><rect x="150" y="640.7759412304866" width="29.705823619062944" height="12.56198347107438" fill="#5b9bd5"></rect><rect x="150" y="653.9990817263545" width="1.9835210306834383" height="12.56198347107438" fill="#70ad47"></rect><text class="label" x="223.98030828361004" y="596.3833792470156" font-size="10px">33x</text><text class="label" x="221.78296973619842" y="609.6065197428833" font-size="10px">32x</text><text class="label" x="221.71596429297722" y="622.8296602387511" font-size="10px">32x</text><text class="label" x="279.0374100239345" y="636.0528007346188" font-size="10px">61x</text><text class="label" x="188.20582361906295" y="649.2759412304866" font-size="10px">15x</text><text class="label" x="160.48352103068345" y="662.4990817263545" font-size="10px">1x</text><text class="label" x="220.48030828361004" y="597.8833792470156" font-size="8px"></text><text class="label" x="218.28296973619842" y="611.1065197428833" font-size="8px"></text><text class="label" x="218.21596429297722" y="624.3296602387511" font-size="8px"></text><text class="label" x="275.5374100239345" y="637.5528007346188" font-size="8px"></text><text class="label" x="184.70582361906295" y="650.7759412304866" font-size="8px"></text><text class="label" x="156.98352103068345" y="663.9990817263545" font-size="8px"></text></g><g style="font-size: 13px;"><rect x="150" y="676.7722681359045" width="63.61619349896043" height="12.56198347107438" fill="#4472c4"></rect><rect x="150" y="689.9954086317722" width="59.71132855283467" height="12.56198347107438" fill="#ed7d31"></rect><rect x="150" y="703.21854912764" width="60.94473423236642" height="12.56198347107438" fill="#a5a5a5"></rect><rect x="150" y="716.4416896235077" width="13.73918549574974" height="12.56198347107438" fill="#ffc000"></rect><rect x="150" y="729.6648301193756" width="44.13828748143221" height="12.56198347107438" fill="#5b9bd5"></rect><rect x="150" y="742.8879706152434" width="1.9835210306834383" height="12.56198347107438" fill="#70ad47"></rect><text class="label" x="222.11619349896043" y="685.2722681359045" font-size="10px">32x</text><text class="label" x="218.2113285528347" y="698.4954086317722" font-size="10px">30x</text><text class="label" x="219.44473423236641" y="711.71854912764" font-size="10px">31x</text><text class="label" x="172.23918549574975" y="724.9416896235077" font-size="10px">7x</text><text class="label" x="202.6382874814322" y="738.1648301193756" font-size="10px">22x</text><text class="label" x="160.48352103068345" y="751.3879706152434" font-size="10px">1x</text><text class="label" x="218.61619349896043" y="686.7722681359045" font-size="8px"></text><text class="label" x="214.7113285528347" y="699.9954086317722" font-size="8px"></text><text class="label" x="215.94473423236641" y="713.21854912764" font-size="8px"></text><text class="label" x="168.73918549574975" y="726.4416896235077" font-size="8px"></text><text class="label" x="199.1382874814322" y="739.6648301193756" font-size="8px"></text><text class="label" x="156.98352103068345" y="752.8879706152434" font-size="8px"></text></g></g></svg>