<svg xmlns="http://www.w3.org/2000/svg" xmlns:xlink="http://www.w3.org/1999/xlink" width="800" height="914" style="background-color: white;"><g class="y axis" transform="translate(149,45)" fill="none" font-size="10" font-family="sans-serif" text-anchor="end" style="font-size: 13px;"><path class="domain" stroke="currentColor" d="M0.5,0.5V720.5"></path><g class="tick" opacity="1" transform="translate(0,48.88888888888886)" style="font-size: 13px;"><line stroke="currentColor" x2="0"></line><text fill="currentColor" x="-3" dy="0.32em">object (simple)    </text></g><g class="tick" opacity="1" transform="translate(0,137.77777777777774)" style="font-size: 13px;"><line stroke="currentColor" x2="0"></line><text fill="currentColor" x="-3" dy="0.32em">object (hierarchical)    </text></g><g class="tick" opacity="1" transform="translate(0,226.66666666666663)" style="font-size: 13px;"><line stroke="currentColor" x2="0"></line><text fill="currentColor" x="-3" dy="0.32em">object (recursive)    </text></g><g class="tick" opacity="1" transform="translate(0,315.5555555555555)" style="font-size: 13px;"><line stroke="currentColor" x2="0"></line><text fill="currentColor" x="-3" dy="0.32em">object (union, explicit)    </text></g><g class="tick" opacity="1" transform="translate(0,404.4444444444444)" style="font-size: 13px;"><line stroke="currentColor" x2="0"></line><text fill="currentColor" x="-3" dy="0.32em">array (simple)    </text></g><g class="tick" opacity="1" transform="translate(0,493.3333333333333)" style="font-size: 13px;"><line stroke="currentColor" x2="0"></line><text fill="currentColor" x="-3" dy="0.32em">array (hierarchical)    </text></g><g class="tick" opacity="1" transform="translate(0,582.2222222222222)" style="font-size: 13px;"><line stroke="currentColor" x2="0"></line><text fill="currentColor" x="-3" dy="0.32em">array (recursive)    </text></g><g class="tick" opacity="1" transform="translate(0,671.1111111111111)" style="font-size: 13px;"><line stroke="currentColor" x2="0"></line><text fill="currentColor" x="-3" dy="0.32em">array (union, explicit)    </text></g></g><g class="x axis" transform="translate(149,765)" fill="none" font-size="10" font-family="sans-serif" text-anchor="middle" style="font-size: 13px;"><path class="domain" stroke="currentColor" d="M0.5,0.5H485.5"></path><g class="tick" opacity="1" transform="translate(0.5,0)" style="font-size: 13px;"><line stroke="currentColor" y2="6"></line><text fill="currentColor" y="9" dy="0.71em">0x</text></g><g class="tick" opacity="1" transform="translate(99.80590355020921,0)" style="font-size: 13px;"><line stroke="currentColor" y2="6"></line><text fill="currentColor" y="9" dy="0.71em">50x</text></g><g class="tick" opacity="1" transform="translate(199.11180710041842,0)" style="font-size: 13px;"><line stroke="currentColor" y2="6"></line><text fill="currentColor" y="9" dy="0.71em">100x</text></g><g class="tick" opacity="1" transform="translate(298.4177106506276,0)" style="font-size: 13px;"><line stroke="currentColor" y2="6"></line><text fill="currentColor" y="9" dy="0.71em">150x</text></g><g class="tick" opacity="1" transform="translate(397.72361420083683,0)" style="font-size: 13px;"><line stroke="currentColor" y2="6"></line><text fill="currentColor" y="9" dy="0.71em">200x</text></g></g><text transform="translate(400, 30)" style="text-anchor: middle; font-size: 20px; font-weight: bold;">stringify benchmark</text><rect x="650" y="165" width="230" height="5" fill="gray"></rect><rect x="645" y="35" width="230" height="130" fill="none" stroke="black"></rect><rect x="655" y="45" width="10" height="10" style="fill: #4472c4;"></rect><text x="670" y="55" style="font-size: 12px;">typia.stringify</text><rect x="655" y="65" width="10" height="10" style="fill: #ed7d31;"></rect><text x="670" y="75" style="font-size: 12px;">typia.isStringify</text><rect x="655" y="85" width="10" height="10" style="fill: #a5a5a5;"></rect><text x="670" y="95" style="font-size: 12px;">typia.assertStringify</text><rect x="655" y="105" width="10" height="10" style="fill: #ffc000;"></rect><text x="670" y="115" style="font-size: 12px;">fast-json-stringify</text><rect x="655" y="125" width="10" height="10" style="fill: #5b9bd5;"></rect><text x="670" y="135" style="font-size: 12px;">JSON.stringify</text><rect x="655" y="145" width="10" height="10" style="fill: #70ad47;"></rect><text x="670" y="155" style="font-size: 12px;">class-transformer</text><text x="20" y="829" style="font-size: 12px;">  - CPU: AMD Ryzen 7 6800HS with Radeon Graphics</text><text x="20" y="846" style="font-size: 12px;">  - OS: win32</text><text x="20" y="863" style="font-size: 12px;">  - RAM: 63 GB</text><text x="20" y="880" style="font-size: 12px;">  - NodeJS version: v16.19.0</text><text x="20" y="897" style="font-size: 12px;">  - Typia version: v3.7.3</text><g style="font-size: 13px;"><g style="font-size: 13px;"><rect x="150" y="54.55004591368224" width="440.9090909090908" height="12.56198347107438" fill="#4472c4"></rect><rect x="150" y="67.77318640955001" width="322.4754703101625" height="12.56198347107438" fill="#ed7d31"></rect><rect x="150" y="80.99632690541777" width="269.06505298198954" height="12.56198347107438" fill="#a5a5a5"></rect><rect x="150" y="94.21946740128556" width="152.83737066280565" height="12.56198347107438" fill="#ffc000"></rect><rect x="150" y="107.44260789715332" width="27.43835770463964" height="12.56198347107438" fill="#5b9bd5"></rect><rect x="150" y="120.66574839302109" width="1.9861180710041841" height="12.56198347107438" fill="#70ad47"></rect><text class="label" x="599.4090909090908" y="63.05004591368224" font-size="10px">222x</text><text class="label" x="480.9754703101625" y="76.27318640955001" font-size="10px">162x</text><text class="label" x="427.56505298198954" y="89.49632690541777" font-size="10px">135x</text><text class="label" x="311.33737066280565" y="102.71946740128556" font-size="10px">77x</text><text class="label" x="185.93835770463963" y="115.94260789715332" font-size="10px">14x</text><text class="label" x="160.48611807100417" y="129.1657483930211" font-size="10px">1x</text><text class="label" x="595.9090909090908" y="64.55004591368224" font-size="8px"></text><text class="label" x="477.4754703101625" y="77.77318640955001" font-size="8px"></text><text class="label" x="424.06505298198954" y="90.99632690541777" font-size="8px"></text><text class="label" x="307.83737066280565" y="104.21946740128556" font-size="8px"></text><text class="label" x="182.43835770463963" y="117.44260789715332" font-size="8px"></text><text class="label" x="156.98611807100417" y="130.6657483930211" font-size="8px"></text></g><g style="font-size: 13px;"><rect x="150" y="143.4389348025711" width="90.2097732593166" height="12.56198347107438" fill="#4472c4"></rect><rect x="150" y="156.66207529843888" width="87.37940193199158" height="12.56198347107438" fill="#ed7d31"></rect><rect x="150" y="169.88521579430665" width="84.72623239217252" height="12.56198347107438" fill="#a5a5a5"></rect><rect x="150" y="183.10835629017444" width="105.38550029537596" height="12.56198347107438" fill="#ffc000"></rect><rect x="150" y="196.3314967860422" width="22.566824116837825" height="12.56198347107438" fill="#5b9bd5"></rect><rect x="150" y="209.55463728190998" width="1.9861180710041841" height="12.56198347107438" fill="#70ad47"></rect><text class="label" x="248.7097732593166" y="151.9389348025711" font-size="10px">45x</text><text class="label" x="245.8794019319916" y="165.16207529843888" font-size="10px">44x</text><text class="label" x="243.2262323921725" y="178.38521579430665" font-size="10px">43x</text><text class="label" x="263.88550029537595" y="191.60835629017444" font-size="10px">53x</text><text class="label" x="181.06682411683784" y="204.8314967860422" font-size="10px">11x</text><text class="label" x="160.48611807100417" y="218.05463728190998" font-size="10px">1x</text><text class="label" x="245.2097732593166" y="153.4389348025711" font-size="8px"></text><text class="label" x="242.3794019319916" y="166.66207529843888" font-size="8px"></text><text class="label" x="239.7262323921725" y="179.88521579430665" font-size="8px"></text><text class="label" x="260.38550029537595" y="193.10835629017444" font-size="8px"></text><text class="label" x="177.56682411683784" y="206.3314967860422" font-size="8px"></text><text class="label" x="156.98611807100417" y="219.55463728190998" font-size="8px"></text></g><g style="font-size: 13px;"><rect x="150" y="232.32782369146003" width="132.97848430900459" height="12.56198347107438" fill="#4472c4"></rect><rect x="150" y="245.5509641873278" width="124.95020004883732" height="12.56198347107438" fill="#ed7d31"></rect><rect x="150" y="258.77410468319556" width="126.47930146163247" height="12.56198347107438" fill="#a5a5a5"></rect><rect x="150" y="271.9972451790633" width="25.723399529301066" height="12.56198347107438" fill="#ffc000"></rect><rect x="150" y="285.2203856749311" width="26.270963404864535" height="12.56198347107438" fill="#5b9bd5"></rect><rect x="150" y="298.44352617079886" width="1.9861180710041841" height="12.56198347107438" fill="#70ad47"></rect><text class="label" x="291.47848430900456" y="240.82782369146003" font-size="10px">67x</text><text class="label" x="283.4502000488373" y="254.0509641873278" font-size="10px">63x</text><text class="label" x="284.9793014616325" y="267.27410468319556" font-size="10px">64x</text><text class="label" x="184.22339952930108" y="280.4972451790633" font-size="10px">13x</text><text class="label" x="184.77096340486455" y="293.7203856749311" font-size="10px">13x</text><text class="label" x="160.48611807100417" y="306.94352617079886" font-size="10px">1x</text><text class="label" x="287.97848430900456" y="242.32782369146003" font-size="8px"></text><text class="label" x="279.9502000488373" y="255.5509641873278" font-size="8px"></text><text class="label" x="281.4793014616325" y="268.77410468319556" font-size="8px"></text><text class="label" x="180.72339952930108" y="281.9972451790633" font-size="8px"></text><text class="label" x="181.27096340486455" y="295.2203856749311" font-size="8px"></text><text class="label" x="156.98611807100417" y="308.44352617079886" font-size="8px"></text></g><g style="font-size: 13px;"><rect x="150" y="321.2167125803489" width="97.9817421173495" height="12.56198347107438" fill="#4472c4"></rect><rect x="150" y="334.43985307621665" width="86.70698232653443" height="12.56198347107438" fill="#ed7d31"></rect><rect x="150" y="347.6629935720844" width="86.91586631068668" height="12.56198347107438" fill="#a5a5a5"></rect><rect x="150" y="360.8861340679522" width="68.27036685429319" height="12.56198347107438" fill="#ffc000"></rect><rect x="150" y="374.10927456381995" width="39.13264288074311" height="12.56198347107438" fill="#5b9bd5"></rect><rect x="150" y="387.3324150596877" width="1.9861180710041841" height="12.56198347107438" fill="#70ad47"></rect><text class="label" x="256.4817421173495" y="329.7167125803489" font-size="10px">49x</text><text class="label" x="245.20698232653444" y="342.93985307621665" font-size="10px">44x</text><text class="label" x="245.41586631068668" y="356.1629935720844" font-size="10px">44x</text><text class="label" x="226.77036685429317" y="369.3861340679522" font-size="10px">34x</text><text class="label" x="197.6326428807431" y="382.60927456381995" font-size="10px">20x</text><text class="label" x="160.48611807100417" y="395.8324150596877" font-size="10px">1x</text><text class="label" x="252.98174211734948" y="331.2167125803489" font-size="8px"></text><text class="label" x="241.70698232653444" y="344.43985307621665" font-size="8px"></text><text class="label" x="241.91586631068668" y="357.6629935720844" font-size="8px"></text><text class="label" x="223.27036685429317" y="370.8861340679522" font-size="8px"></text><text class="label" x="194.1326428807431" y="384.10927456381995" font-size="8px"></text><text class="label" x="156.98611807100417" y="397.3324150596877" font-size="8px"></text></g><g style="font-size: 13px;"><rect x="150" y="410.1056014692378" width="45.326289786004956" height="12.56198347107438" fill="#4472c4"></rect><rect x="150" y="423.32874196510556" width="41.011147949361174" height="12.56198347107438" fill="#ed7d31"></rect><rect x="150" y="436.55188246097333" width="41.791647726234146" height="12.56198347107438" fill="#a5a5a5"></rect><rect x="150" y="449.7750229568411" width="67.59814558350536" height="12.56198347107438" fill="#ffc000"></rect><rect x="150" y="462.99816345270887" width="30.98513234049149" height="12.56198347107438" fill="#5b9bd5"></rect><rect x="150" y="476.22130394857663" width="1.9861180710041841" height="12.56198347107438" fill="#70ad47"></rect><text class="label" x="203.82628978600496" y="418.6056014692378" font-size="10px">23x</text><text class="label" x="199.51114794936117" y="431.82874196510556" font-size="10px">21x</text><text class="label" x="200.29164772623415" y="445.05188246097333" font-size="10px">21x</text><text class="label" x="226.09814558350536" y="458.2750229568411" font-size="10px">34x</text><text class="label" x="189.48513234049148" y="471.49816345270887" font-size="10px">16x</text><text class="label" x="160.48611807100417" y="484.72130394857663" font-size="10px">1x</text><text class="label" x="200.32628978600496" y="420.1056014692378" font-size="8px"></text><text class="label" x="196.01114794936117" y="433.32874196510556" font-size="8px"></text><text class="label" x="196.79164772623415" y="446.55188246097333" font-size="8px"></text><text class="label" x="222.59814558350536" y="459.7750229568411" font-size="8px"></text><text class="label" x="185.98513234049148" y="472.99816345270887" font-size="8px"></text><text class="label" x="156.98611807100417" y="486.22130394857663" font-size="8px"></text></g><g style="font-size: 13px;"><rect x="150" y="498.9944903581267" width="72.58727320009086" height="12.56198347107438" fill="#4472c4"></rect><rect x="150" y="512.2176308539945" width="71.17100290845906" height="12.56198347107438" fill="#ed7d31"></rect><rect x="150" y="525.4407713498622" width="72.6376544225113" height="12.56198347107438" fill="#a5a5a5"></rect><rect x="150" y="538.66391184573" width="109.63731326020762" height="12.56198347107438" fill="#ffc000"></rect><rect x="150" y="551.8870523415978" width="33.21549185903091" height="12.56198347107438" fill="#5b9bd5"></rect><rect x="150" y="565.1101928374655" width="1.9861180710041841" height="12.56198347107438" fill="#70ad47"></rect><text class="label" x="231.08727320009086" y="507.4944903581267" font-size="10px">37x</text><text class="label" x="229.67100290845906" y="520.7176308539945" font-size="10px">36x</text><text class="label" x="231.1376544225113" y="533.9407713498622" font-size="10px">37x</text><text class="label" x="268.13731326020763" y="547.16391184573" font-size="10px">55x</text><text class="label" x="191.71549185903092" y="560.3870523415978" font-size="10px">17x</text><text class="label" x="160.48611807100417" y="573.6101928374655" font-size="10px">1x</text><text class="label" x="227.58727320009086" y="508.9944903581267" font-size="8px"></text><text class="label" x="226.17100290845906" y="522.2176308539945" font-size="8px"></text><text class="label" x="227.6376544225113" y="535.4407713498622" font-size="8px"></text><text class="label" x="264.63731326020763" y="548.66391184573" font-size="8px"></text><text class="label" x="188.21549185903092" y="561.8870523415978" font-size="8px"></text><text class="label" x="156.98611807100417" y="575.1101928374655" font-size="8px"></text></g><g style="font-size: 13px;"><rect x="150" y="587.8833792470156" width="59.77120407757112" height="12.56198347107438" fill="#4472c4"></rect><rect x="150" y="601.1065197428833" width="58.72369586834741" height="12.56198347107438" fill="#ed7d31"></rect><rect x="150" y="614.3296602387511" width="58.010544169512514" height="12.56198347107438" fill="#a5a5a5"></rect><rect x="150" y="627.5528007346188" width="29.12493681597709" height="12.56198347107438" fill="#ffc000"></rect><rect x="150" y="640.7759412304866" width="28.12817922986359" height="12.56198347107438" fill="#5b9bd5"></rect><rect x="150" y="653.9990817263545" width="1.9861180710041841" height="12.56198347107438" fill="#70ad47"></rect><text class="label" x="218.27120407757113" y="596.3833792470156" font-size="10px">30x</text><text class="label" x="217.22369586834742" y="609.6065197428833" font-size="10px">30x</text><text class="label" x="216.5105441695125" y="622.8296602387511" font-size="10px">29x</text><text class="label" x="187.6249368159771" y="636.0528007346188" font-size="10px">15x</text><text class="label" x="186.62817922986358" y="649.2759412304866" font-size="10px">14x</text><text class="label" x="160.48611807100417" y="662.4990817263545" font-size="10px">1x</text><text class="label" x="214.77120407757113" y="597.8833792470156" font-size="8px"></text><text class="label" x="213.72369586834742" y="611.1065197428833" font-size="8px"></text><text class="label" x="213.0105441695125" y="624.3296602387511" font-size="8px"></text><text class="label" x="184.1249368159771" y="637.5528007346188" font-size="8px"></text><text class="label" x="183.12817922986358" y="650.7759412304866" font-size="8px"></text><text class="label" x="156.98611807100417" y="663.9990817263545" font-size="8px"></text></g><g style="font-size: 13px;"><rect x="150" y="676.7722681359045" width="60.40844071013641" height="12.56198347107438" fill="#4472c4"></rect><rect x="150" y="689.9954086317722" width="54.24086538156608" height="12.56198347107438" fill="#ed7d31"></rect><rect x="150" y="703.21854912764" width="54.99945237047449" height="12.56198347107438" fill="#a5a5a5"></rect><rect x="150" y="716.4416896235077" width="38.270875199724856" height="12.56198347107438" fill="#ffc000"></rect><rect x="150" y="729.6648301193756" width="41.83068169676422" height="12.56198347107438" fill="#5b9bd5"></rect><rect x="150" y="742.8879706152434" width="1.9861180710041841" height="12.56198347107438" fill="#70ad47"></rect><text class="label" x="218.9084407101364" y="685.2722681359045" font-size="10px">30x</text><text class="label" x="212.7408653815661" y="698.4954086317722" font-size="10px">27x</text><text class="label" x="213.4994523704745" y="711.71854912764" font-size="10px">28x</text><text class="label" x="196.77087519972486" y="724.9416896235077" font-size="10px">19x</text><text class="label" x="200.33068169676423" y="738.1648301193756" font-size="10px">21x</text><text class="label" x="160.48611807100417" y="751.3879706152434" font-size="10px">1x</text><text class="label" x="215.4084407101364" y="686.7722681359045" font-size="8px"></text><text class="label" x="209.2408653815661" y="699.9954086317722" font-size="8px"></text><text class="label" x="209.9994523704745" y="713.21854912764" font-size="8px"></text><text class="label" x="193.27087519972486" y="726.4416896235077" font-size="8px"></text><text class="label" x="196.83068169676423" y="739.6648301193756" font-size="8px"></text><text class="label" x="156.98611807100417" y="752.8879706152434" font-size="8px"></text></g></g></svg>