<svg xmlns="http://www.w3.org/2000/svg" xmlns:xlink="http://www.w3.org/1999/xlink" width="800" height="705" style="background-color: white;"><g class="y axis" transform="translate(149,45)" fill="none" font-size="10" font-family="sans-serif" text-anchor="end" style="font-size: 13px;"><path class="domain" stroke="currentColor" d="M0.5,0.5V630.5"></path><g class="tick" opacity="1" transform="translate(0,48.8028169014085)" style="font-size: 13px;"><line stroke="currentColor" x2="0"></line><text fill="currentColor" x="-3" dy="0.32em">object (simple)    </text></g><g class="tick" opacity="1" transform="translate(0,137.53521126760566)" style="font-size: 13px;"><line stroke="currentColor" x2="0"></line><text fill="currentColor" x="-3" dy="0.32em">object (hierarchical)    </text></g><g class="tick" opacity="1" transform="translate(0,226.26760563380284)" style="font-size: 13px;"><line stroke="currentColor" x2="0"></line><text fill="currentColor" x="-3" dy="0.32em">object (recursive)    </text></g><g class="tick" opacity="1" transform="translate(0,315)" style="font-size: 13px;"><line stroke="currentColor" x2="0"></line><text fill="currentColor" x="-3" dy="0.32em">object (union)    </text></g><g class="tick" opacity="1" transform="translate(0,403.7323943661972)" style="font-size: 13px;"><line stroke="currentColor" x2="0"></line><text fill="currentColor" x="-3" dy="0.32em">array (simple)    </text></g><g class="tick" opacity="1" transform="translate(0,492.46478873239437)" style="font-size: 13px;"><line stroke="currentColor" x2="0"></line><text fill="currentColor" x="-3" dy="0.32em">array (hierarchical)    </text></g><g class="tick" opacity="1" transform="translate(0,581.1971830985915)" style="font-size: 13px;"><line stroke="currentColor" x2="0"></line><text fill="currentColor" x="-3" dy="0.32em">array (recursive union)    </text></g></g><g class="x axis" transform="translate(149,675)" fill="none" font-size="10" font-family="sans-serif" text-anchor="middle" style="font-size: 13px;"><path class="domain" stroke="currentColor" d="M0.5,0.5H485.5"></path><g class="tick" opacity="1" transform="translate(0.5,0)" style="font-size: 13px;"><line stroke="currentColor" y2="6"></line><text fill="currentColor" y="9" dy="0.71em">0x</text></g><g class="tick" opacity="1" transform="translate(79.51990537576683,0)" style="font-size: 13px;"><line stroke="currentColor" y2="6"></line><text fill="currentColor" y="9" dy="0.71em">5x</text></g><g class="tick" opacity="1" transform="translate(158.53981075153365,0)" style="font-size: 13px;"><line stroke="currentColor" y2="6"></line><text fill="currentColor" y="9" dy="0.71em">10x</text></g><g class="tick" opacity="1" transform="translate(237.55971612730048,0)" style="font-size: 13px;"><line stroke="currentColor" y2="6"></line><text fill="currentColor" y="9" dy="0.71em">15x</text></g><g class="tick" opacity="1" transform="translate(316.5796215030673,0)" style="font-size: 13px;"><line stroke="currentColor" y2="6"></line><text fill="currentColor" y="9" dy="0.71em">20x</text></g><g class="tick" opacity="1" transform="translate(395.5995268788341,0)" style="font-size: 13px;"><line stroke="currentColor" y2="6"></line><text fill="currentColor" y="9" dy="0.71em">25x</text></g><g class="tick" opacity="1" transform="translate(474.61943225460095,0)" style="font-size: 13px;"><line stroke="currentColor" y2="6"></line><text fill="currentColor" y="9" dy="0.71em">30x</text></g></g><text transform="translate(400, 30)" style="text-anchor: middle; font-size: 20px; font-weight: bold;">stringify (server) benchmark</text><rect x="650" y="165" width="230" height="5" fill="gray"></rect><rect x="645" y="35" width="230" height="130" fill="none" stroke="black"></rect><rect x="655" y="45" width="10" height="10" style="fill: #4472c4;"></rect><text x="670" y="55" style="font-size: 12px;">express (pure)</text><rect x="655" y="65" width="10" height="10" style="fill: #ed7d31;"></rect><text x="670" y="75" style="font-size: 12px;">express (class-transformer)</text><rect x="655" y="85" width="10" height="10" style="fill: #a5a5a5;"></rect><text x="670" y="95" style="font-size: 12px;">express (typia.stringify)</text><rect x="655" y="105" width="10" height="10" style="fill: #ffc000;"></rect><text x="670" y="115" style="font-size: 12px;">express (typia.isStringify)</text><rect x="655" y="125" width="10" height="10" style="fill: #5b9bd5;"></rect><text x="670" y="135" style="font-size: 12px;">express (typia.assertStringify)</text><rect x="655" y="145" width="10" height="10" style="fill: #70ad47;"></rect><text x="670" y="155" style="font-size: 12px;">fastify</text><g style="font-size: 13px;"><g style="font-size: 13px;"><rect x="150" y="54.533232452566686" width="116.67145251026527" height="12.539867302991501" fill="#4472c4"></rect><rect x="150" y="67.73309277150511" width="15.803981075153366" height="12.539867302991501" fill="#ed7d31"></rect><rect x="150" y="80.93295309044353" width="159.52027460868322" height="12.539867302991501" fill="#a5a5a5"></rect><rect x="150" y="94.13281340938195" width="157.13172619323706" height="12.539867302991501" fill="#ffc000"></rect><rect x="150" y="107.33267372832037" width="147.8689461705767" height="12.539867302991501" fill="#5b9bd5"></rect><rect x="150" y="120.53253404725879" width="301.29991244472996" height="12.539867302991501" fill="#70ad47"></rect><text class="label" x="275.1714525102653" y="63.033232452566686" font-size="10px">7.38x</text><text class="label" x="174.30398107515336" y="76.23309277150511" font-size="10px">1x</text><text class="label" x="318.0202746086832" y="89.43295309044353" font-size="10px">10.09x</text><text class="label" x="315.63172619323706" y="102.63281340938195" font-size="10px">9.94x</text><text class="label" x="306.3689461705767" y="115.83267372832037" font-size="10px">9.36x</text><text class="label" x="459.79991244472996" y="129.0325340472588" font-size="10px">19.06x</text><text class="label" x="271.6714525102653" y="64.5332324525667" font-size="8px"></text><text class="label" x="170.80398107515336" y="77.73309277150511" font-size="8px"></text><text class="label" x="314.5202746086832" y="90.93295309044353" font-size="8px"></text><text class="label" x="312.13172619323706" y="104.13281340938195" font-size="8px"></text><text class="label" x="302.8689461705767" y="117.33267372832037" font-size="8px"></text><text class="label" x="456.29991244472996" y="130.5325340472588" font-size="8px"></text></g><g style="font-size: 13px;"><rect x="150" y="143.26562681876385" width="108.81503283186876" height="12.539867302991501" fill="#4472c4"></rect><rect x="150" y="156.46548713770227" width="15.803981075153366" height="12.539867302991501" fill="#ed7d31"></rect><rect x="150" y="169.6653474566407" width="127.82831267720991" height="12.539867302991501" fill="#a5a5a5"></rect><rect x="150" y="182.86520777557914" width="127.18403079156926" height="12.539867302991501" fill="#ffc000"></rect><rect x="150" y="196.06506809451756" width="124.06094038153884" height="12.539867302991501" fill="#5b9bd5"></rect><rect x="150" y="209.26492841345595" width="183.09767905192234" height="12.539867302991501" fill="#70ad47"></rect><text class="label" x="267.31503283186873" y="151.76562681876385" font-size="10px">6.89x</text><text class="label" x="174.30398107515336" y="164.96548713770227" font-size="10px">1x</text><text class="label" x="286.3283126772099" y="178.1653474566407" font-size="10px">8.09x</text><text class="label" x="285.6840307915693" y="191.36520777557914" font-size="10px">8.05x</text><text class="label" x="282.56094038153884" y="204.56506809451756" font-size="10px">7.85x</text><text class="label" x="341.59767905192234" y="217.76492841345595" font-size="10px">11.59x</text><text class="label" x="263.81503283186873" y="153.26562681876385" font-size="8px"></text><text class="label" x="170.80398107515336" y="166.46548713770227" font-size="8px"></text><text class="label" x="282.8283126772099" y="179.6653474566407" font-size="8px"></text><text class="label" x="282.1840307915693" y="192.86520777557914" font-size="8px"></text><text class="label" x="279.06094038153884" y="206.06506809451756" font-size="8px"></text><text class="label" x="338.09767905192234" y="219.26492841345595" font-size="8px"></text></g><g style="font-size: 13px;"><rect x="150" y="231.99802118496103" width="82.06220606426277" height="12.539867302991501" fill="#4472c4"></rect><rect x="150" y="245.19788150389945" width="15.803981075153366" height="12.539867302991501" fill="#ed7d31"></rect><rect x="150" y="258.3977418228379" width="95.35045336825793" height="12.539867302991501" fill="#a5a5a5"></rect><rect x="150" y="271.5976021417763" width="93.1302025626885" height="12.539867302991501" fill="#ffc000"></rect><rect x="150" y="284.7974624607147" width="92.44951158988091" height="12.539867302991501" fill="#5b9bd5"></rect><rect x="150" y="297.99732277965313" width="102.6901367664545" height="12.539867302991501" fill="#70ad47"></rect><text class="label" x="240.56220606426277" y="240.49802118496103" font-size="10px">5.19x</text><text class="label" x="174.30398107515336" y="253.69788150389945" font-size="10px">1x</text><text class="label" x="253.85045336825794" y="266.8977418228379" font-size="10px">6.03x</text><text class="label" x="251.6302025626885" y="280.0976021417763" font-size="10px">5.89x</text><text class="label" x="250.9495115898809" y="293.2974624607147" font-size="10px">5.85x</text><text class="label" x="261.1901367664545" y="306.49732277965313" font-size="10px">6.5x</text><text class="label" x="237.06220606426277" y="241.99802118496103" font-size="8px"></text><text class="label" x="170.80398107515336" y="255.19788150389945" font-size="8px"></text><text class="label" x="250.35045336825794" y="268.3977418228379" font-size="8px"></text><text class="label" x="248.1302025626885" y="281.5976021417763" font-size="8px"></text><text class="label" x="247.4495115898809" y="294.7974624607147" font-size="8px"></text><text class="label" x="257.6901367664545" y="307.99732277965313" font-size="8px"></text></g><g style="font-size: 13px;"><rect x="150" y="320.73041555115816" width="202.57249727612387" height="12.539867302991501" fill="#4472c4"></rect><rect x="150" y="333.9302758700966" width="15.803981075153366" height="12.539867302991501" fill="#ed7d31"></rect><rect x="150" y="347.13013618903506" width="440.9090909090908" height="12.539867302991501" fill="#a5a5a5"></rect><rect x="150" y="360.3299965079735" width="421.0398334883577" height="12.539867302991501" fill="#ffc000"></rect><rect x="150" y="373.5298568269119" width="371.3661210449484" height="12.539867302991501" fill="#5b9bd5"></rect><rect x="150" y="386.72971714585026" width="294.5250329641424" height="12.539867302991501" fill="#70ad47"></rect><text class="label" x="361.07249727612384" y="329.23041555115816" font-size="10px">12.82x</text><text class="label" x="174.30398107515336" y="342.4302758700966" font-size="10px">1x</text><text class="label" x="599.4090909090908" y="355.63013618903506" font-size="10px">27.9x</text><text class="label" x="579.5398334883578" y="368.8299965079735" font-size="10px">26.64x</text><text class="label" x="529.8661210449484" y="382.0298568269119" font-size="10px">23.5x</text><text class="label" x="453.0250329641424" y="395.22971714585026" font-size="10px">18.64x</text><text class="label" x="357.57249727612384" y="330.73041555115816" font-size="8px"></text><text class="label" x="170.80398107515336" y="343.9302758700966" font-size="8px"></text><text class="label" x="595.9090909090908" y="357.13013618903506" font-size="8px"></text><text class="label" x="576.0398334883578" y="370.3299965079735" font-size="8px"></text><text class="label" x="526.3661210449484" y="383.5298568269119" font-size="8px"></text><text class="label" x="449.5250329641424" y="396.72971714585026" font-size="8px"></text></g><g style="font-size: 13px;"><rect x="150" y="409.46280991735534" width="146.14924160030074" height="12.539867302991501" fill="#4472c4"></rect><rect x="150" y="422.66267023629376" width="15.803981075153366" height="12.539867302991501" fill="#ed7d31"></rect><rect x="150" y="435.8625305552322" width="187.240091999211" height="12.539867302991501" fill="#a5a5a5"></rect><rect x="150" y="449.06239087417066" width="181.4725265809563" height="12.539867302991501" fill="#ffc000"></rect><rect x="150" y="462.2622511931091" width="171.41357454403675" height="12.539867302991501" fill="#5b9bd5"></rect><rect x="150" y="475.4621115120475" width="201.0927391406896" height="12.539867302991501" fill="#70ad47"></rect><text class="label" x="304.64924160030074" y="417.96280991735534" font-size="10px">9.25x</text><text class="label" x="174.30398107515336" y="431.16267023629376" font-size="10px">1x</text><text class="label" x="345.740091999211" y="444.3625305552322" font-size="10px">11.85x</text><text class="label" x="339.9725265809563" y="457.56239087417066" font-size="10px">11.48x</text><text class="label" x="329.91357454403675" y="470.7622511931091" font-size="10px">10.85x</text><text class="label" x="359.59273914068956" y="483.9621115120475" font-size="10px">12.72x</text><text class="label" x="301.14924160030074" y="419.46280991735534" font-size="8px"></text><text class="label" x="170.80398107515336" y="432.66267023629376" font-size="8px"></text><text class="label" x="342.240091999211" y="445.8625305552322" font-size="8px"></text><text class="label" x="336.4725265809563" y="459.06239087417066" font-size="8px"></text><text class="label" x="326.41357454403675" y="472.2622511931091" font-size="8px"></text><text class="label" x="356.09273914068956" y="485.4621115120475" font-size="8px"></text></g><g style="font-size: 13px;"><rect x="150" y="498.1952042835525" width="0" height="12.539867302991501" fill="#4472c4"></rect><rect x="150" y="511.39506460249095" width="15.803981075153366" height="12.539867302991501" fill="#ed7d31"></rect><rect x="150" y="524.5949249214294" width="305.4708071376296" height="12.539867302991501" fill="#a5a5a5"></rect><rect x="150" y="537.7947852403679" width="287.78394869896863" height="12.539867302991501" fill="#ffc000"></rect><rect x="150" y="550.9946455593063" width="193.18580589249336" height="12.539867302991501" fill="#5b9bd5"></rect><rect x="150" y="564.1945058782446" width="148.45537448483836" height="12.539867302991501" fill="#70ad47"></rect><text class="label" x="158.5" y="506.6952042835525" font-size="10px"></text><text class="label" x="174.30398107515336" y="519.895064602491" font-size="10px">1x</text><text class="label" x="463.9708071376296" y="533.0949249214294" font-size="10px">19.33x</text><text class="label" x="446.28394869896863" y="546.2947852403679" font-size="10px">18.21x</text><text class="label" x="351.68580589249336" y="559.4946455593063" font-size="10px">12.22x</text><text class="label" x="306.95537448483833" y="572.6945058782446" font-size="10px">9.39x</text><text class="label" x="155" y="508.1952042835525" font-size="8px">Failed</text><text class="label" x="170.80398107515336" y="521.395064602491" font-size="8px"></text><text class="label" x="460.4708071376296" y="534.5949249214294" font-size="8px"></text><text class="label" x="442.78394869896863" y="547.7947852403679" font-size="8px"></text><text class="label" x="348.18580589249336" y="560.9946455593063" font-size="8px"></text><text class="label" x="303.45537448483833" y="574.1945058782446" font-size="8px"></text></g><g style="font-size: 13px;"><rect x="150" y="586.9275986497497" width="199.1194156447213" height="12.539867302991501" fill="#4472c4"></rect><rect x="150" y="600.1274589686881" width="15.803981075153366" height="12.539867302991501" fill="#ed7d31"></rect><rect x="150" y="613.3273192876266" width="203.9331596923556" height="12.539867302991501" fill="#a5a5a5"></rect><rect x="150" y="626.5271796065649" width="197.77338211234965" height="12.539867302991501" fill="#ffc000"></rect><rect x="150" y="639.7270399255034" width="176.75531069446708" height="12.539867302991501" fill="#5b9bd5"></rect><rect x="150" y="652.9269002444418" width="169.93350299492164" height="12.539867302991501" fill="#70ad47"></rect><text class="label" x="357.6194156447213" y="595.4275986497497" font-size="10px">12.6x</text><text class="label" x="174.30398107515336" y="608.6274589686881" font-size="10px">1x</text><text class="label" x="362.4331596923556" y="621.8273192876266" font-size="10px">12.9x</text><text class="label" x="356.2733821123496" y="635.0271796065649" font-size="10px">12.51x</text><text class="label" x="335.2553106944671" y="648.2270399255034" font-size="10px">11.18x</text><text class="label" x="328.43350299492164" y="661.4269002444418" font-size="10px">10.75x</text><text class="label" x="354.1194156447213" y="596.9275986497497" font-size="8px"></text><text class="label" x="170.80398107515336" y="610.1274589686881" font-size="8px"></text><text class="label" x="358.9331596923556" y="623.3273192876266" font-size="8px"></text><text class="label" x="352.7733821123496" y="636.5271796065649" font-size="8px"></text><text class="label" x="331.7553106944671" y="649.7270399255034" font-size="8px"></text><text class="label" x="324.93350299492164" y="662.9269002444418" font-size="8px"></text></g></g></svg>