<svg xmlns="http://www.w3.org/2000/svg" xmlns:xlink="http://www.w3.org/1999/xlink" width="800" height="750" style="background-color: white;"><g class="y axis" transform="translate(149,45)" fill="none" font-size="10" font-family="sans-serif" text-anchor="end" style="font-size: 13px;"><path class="domain" stroke="currentColor" d="M0.5,0.5V675.5"></path><g class="tick" opacity="1" transform="translate(0,40.796703296703306)" style="font-size: 13px;"><line stroke="currentColor" x2="0"></line><text fill="currentColor" x="-3" dy="0.32em">object (simple)    </text></g><g class="tick" opacity="1" transform="translate(0,114.97252747252747)" style="font-size: 13px;"><line stroke="currentColor" x2="0"></line><text fill="currentColor" x="-3" dy="0.32em">object (hierarchical)    </text></g><g class="tick" opacity="1" transform="translate(0,189.14835164835165)" style="font-size: 13px;"><line stroke="currentColor" x2="0"></line><text fill="currentColor" x="-3" dy="0.32em">object (recursive)    </text></g><g class="tick" opacity="1" transform="translate(0,263.3241758241758)" style="font-size: 13px;"><line stroke="currentColor" x2="0"></line><text fill="currentColor" x="-3" dy="0.32em">object (union, explicit)    </text></g><g class="tick" opacity="1" transform="translate(0,337.5)" style="font-size: 13px;"><line stroke="currentColor" x2="0"></line><text fill="currentColor" x="-3" dy="0.32em">object (union, implicit)    </text></g><g class="tick" opacity="1" transform="translate(0,411.6758241758242)" style="font-size: 13px;"><line stroke="currentColor" x2="0"></line><text fill="currentColor" x="-3" dy="0.32em">array (recursive)    </text></g><g class="tick" opacity="1" transform="translate(0,485.85164835164835)" style="font-size: 13px;"><line stroke="currentColor" x2="0"></line><text fill="currentColor" x="-3" dy="0.32em">array (union, explicit)    </text></g><g class="tick" opacity="1" transform="translate(0,560.0274725274727)" style="font-size: 13px;"><line stroke="currentColor" x2="0"></line><text fill="currentColor" x="-3" dy="0.32em">array (union, implicit)    </text></g><g class="tick" opacity="1" transform="translate(0,634.2032967032968)" style="font-size: 13px;"><line stroke="currentColor" x2="0"></line><text fill="currentColor" x="-3" dy="0.32em">ultimate union    </text></g></g><g class="x axis" transform="translate(149,720)" fill="none" font-size="10" font-family="sans-serif" text-anchor="middle" style="font-size: 13px;"><path class="domain" stroke="currentColor" d="M0.5,0.5H485.5"></path><g class="tick" opacity="1" transform="translate(0.5,0)" style="font-size: 13px;"><line stroke="currentColor" y2="6"></line><text fill="currentColor" y="9" dy="0.71em">0x</text></g><g class="tick" opacity="1" transform="translate(122.03854603022104,0)" style="font-size: 13px;"><line stroke="currentColor" y2="6"></line><text fill="currentColor" y="9" dy="0.71em">500x</text></g><g class="tick" opacity="1" transform="translate(243.57709206044208,0)" style="font-size: 13px;"><line stroke="currentColor" y2="6"></line><text fill="currentColor" y="9" dy="0.71em">1,000x</text></g><g class="tick" opacity="1" transform="translate(365.11563809066314,0)" style="font-size: 13px;"><line stroke="currentColor" y2="6"></line><text fill="currentColor" y="9" dy="0.71em">1,500x</text></g></g><text transform="translate(400, 30)" style="text-anchor: middle; font-size: 20px; font-weight: bold;">assertType (iterate) benchmark</text><rect x="680" y="145" width="200" height="5" fill="gray"></rect><rect x="675" y="35" width="200" height="110" fill="none" stroke="black"></rect><rect x="685" y="45" width="10" height="10" style="fill: #4472c4;"></rect><text x="700" y="55" style="font-size: 12px;">typescript-json</text><rect x="685" y="65" width="10" height="10" style="fill: #ed7d31;"></rect><text x="700" y="75" style="font-size: 12px;">typebox</text><rect x="685" y="85" width="10" height="10" style="fill: #a5a5a5;"></rect><text x="700" y="95" style="font-size: 12px;">io-ts</text><rect x="685" y="105" width="10" height="10" style="fill: #ffc000;"></rect><text x="700" y="115" style="font-size: 12px;">zod</text><rect x="685" y="125" width="10" height="10" style="fill: #5b9bd5;"></rect><text x="700" y="135" style="font-size: 12px;">class-validator</text><g style="font-size: 13px;"><g style="font-size: 13px;"><rect x="150" y="53.07855510825809" width="440.9090909090908" height="12.55848112283756" fill="#4472c4"></rect><rect x="150" y="66.2980089217713" width="4.900716953017341" height="12.55848112283756" fill="#ed7d31"></rect><rect x="150" y="79.51746273528452" width="26.01857614052409" height="12.55848112283756" fill="#a5a5a5"></rect><rect x="150" y="92.73691654879775" width="7.716940250381535" height="12.55848112283756" fill="#ffc000"></rect><rect x="150" y="105.95637036231096" width="0.2430770920604421" height="12.55848112283756" fill="#5b9bd5"></rect><text class="label" x="599.4090909090908" y="61.57855510825809" font-size="10px">1,814x</text><text class="label" x="163.40071695301734" y="74.7980089217713" font-size="10px">20x</text><text class="label" x="184.5185761405241" y="88.01746273528452" font-size="10px">107x</text><text class="label" x="166.21694025038153" y="101.23691654879775" font-size="10px">32x</text><text class="label" x="158.74307709206045" y="114.45637036231096" font-size="10px">1x</text><text class="label" x="595.9090909090908" y="63.07855510825809" font-size="8px"></text><text class="label" x="159.90071695301734" y="76.2980089217713" font-size="8px"></text><text class="label" x="181.0185761405241" y="89.51746273528452" font-size="8px"></text><text class="label" x="162.71694025038153" y="102.73691654879775" font-size="8px"></text><text class="label" x="155.24307709206045" y="115.95637036231096" font-size="8px"></text></g><g style="font-size: 13px;"><rect x="150" y="127.25437928408226" width="273.22096553199214" height="12.55848112283756" fill="#4472c4"></rect><rect x="150" y="140.4738330975955" width="4.090407130890672" height="12.55848112283756" fill="#ed7d31"></rect><rect x="150" y="153.69328691110871" width="18.548322337391056" height="12.55848112283756" fill="#a5a5a5"></rect><rect x="150" y="166.91274072462193" width="3.1477339086676928" height="12.55848112283756" fill="#ffc000"></rect><rect x="150" y="180.13219453813514" width="0.2430770920604421" height="12.55848112283756" fill="#5b9bd5"></rect><text class="label" x="431.72096553199214" y="135.75437928408226" font-size="10px">1,124x</text><text class="label" x="162.59040713089067" y="148.9738330975955" font-size="10px">17x</text><text class="label" x="177.04832233739106" y="162.19328691110871" font-size="10px">76x</text><text class="label" x="161.6477339086677" y="175.41274072462193" font-size="10px">13x</text><text class="label" x="158.74307709206045" y="188.63219453813514" font-size="10px">1x</text><text class="label" x="428.22096553199214" y="137.25437928408226" font-size="8px"></text><text class="label" x="159.09040713089067" y="150.4738330975955" font-size="8px"></text><text class="label" x="173.54832233739106" y="163.69328691110871" font-size="8px"></text><text class="label" x="158.1477339086677" y="176.91274072462193" font-size="8px"></text><text class="label" x="155.24307709206045" y="190.13219453813514" font-size="8px"></text></g><g style="font-size: 13px;"><rect x="150" y="201.43020345990644" width="262.57961193958914" height="12.55848112283756" fill="#4472c4"></rect><rect x="150" y="214.64965727341965" width="2.7131019875126654" height="12.55848112283756" fill="#ed7d31"></rect><rect x="150" y="227.8691110869329" width="11.566444736696663" height="12.55848112283756" fill="#a5a5a5"></rect><rect x="150" y="241.0885649004461" width="0.8472429829259521" height="12.55848112283756" fill="#ffc000"></rect><rect x="150" y="254.3080187139593" width="0.2430770920604421" height="12.55848112283756" fill="#5b9bd5"></rect><text class="label" x="421.07961193958914" y="209.93020345990644" font-size="10px">1,080x</text><text class="label" x="161.21310198751266" y="223.14965727341965" font-size="10px">11x</text><text class="label" x="170.06644473669667" y="236.3691110869329" font-size="10px">48x</text><text class="label" x="159.34724298292596" y="249.5885649004461" font-size="10px">3x</text><text class="label" x="158.74307709206045" y="262.8080187139593" font-size="10px">1x</text><text class="label" x="417.57961193958914" y="211.43020345990644" font-size="8px"></text><text class="label" x="157.71310198751266" y="224.64965727341965" font-size="8px"></text><text class="label" x="166.56644473669667" y="237.8691110869329" font-size="8px"></text><text class="label" x="155.84724298292596" y="251.0885649004461" font-size="8px"></text><text class="label" x="155.24307709206045" y="264.3080187139593" font-size="8px"></text></g><g style="font-size: 13px;"><rect x="150" y="275.6060276357306" width="23.278829998294764" height="12.55848112283756" fill="#4472c4"></rect><rect x="150" y="288.82548144924385" width="0.47287255896628655" height="12.55848112283756" fill="#ed7d31"></rect><rect x="150" y="302.04493526275706" width="3.584471593915866" height="12.55848112283756" fill="#a5a5a5"></rect><rect x="150" y="315.2643890762703" width="0.2430770920604421" height="12.55848112283756" fill="#ffc000"></rect><rect x="150" y="328.4838428897835" width="0.5080317795384376" height="12.55848112283756" fill="#5b9bd5"></rect><text class="label" x="181.77882999829475" y="284.1060276357306" font-size="10px">96x</text><text class="label" x="158.9728725589663" y="297.32548144924385" font-size="10px">2x</text><text class="label" x="162.08447159391588" y="310.54493526275706" font-size="10px">15x</text><text class="label" x="158.74307709206045" y="323.7643890762703" font-size="10px">1x</text><text class="label" x="159.00803177953844" y="336.9838428897835" font-size="10px">2x</text><text class="label" x="178.27882999829475" y="285.6060276357306" font-size="8px"></text><text class="label" x="155.4728725589663" y="298.82548144924385" font-size="8px"></text><text class="label" x="158.58447159391588" y="312.04493526275706" font-size="8px"></text><text class="label" x="155.24307709206045" y="325.2643890762703" font-size="8px"></text><text class="label" x="155.50803177953844" y="338.4838428897835" font-size="8px"></text></g><g style="font-size: 13px;"><rect x="150" y="349.7818518115548" width="485" height="12.55848112283756" fill="#4472c4"></rect><rect x="150" y="363.001305625068" width="0" height="12.55848112283756" fill="#ed7d31"></rect><rect x="150" y="376.22075943858124" width="0" height="12.55848112283756" fill="#a5a5a5"></rect><rect x="150" y="389.44021325209445" width="0" height="12.55848112283756" fill="#ffc000"></rect><rect x="150" y="402.65966706560766" width="0" height="12.55848112283756" fill="#5b9bd5"></rect><text class="label" x="643.5" y="358.2818518115548" font-size="10px">Infinity</text><text class="label" x="158.5" y="371.501305625068" font-size="10px"></text><text class="label" x="158.5" y="384.72075943858124" font-size="10px"></text><text class="label" x="158.5" y="397.94021325209445" font-size="10px"></text><text class="label" x="158.5" y="411.15966706560766" font-size="10px"></text><text class="label" x="640" y="359.7818518115548" font-size="8px"></text><text class="label" x="155" y="373.001305625068" font-size="8px">Failed</text><text class="label" x="155" y="386.22075943858124" font-size="8px">Failed</text><text class="label" x="155" y="399.44021325209445" font-size="8px">Failed</text><text class="label" x="155" y="412.65966706560766" font-size="8px">Failed</text></g><g style="font-size: 13px;"><rect x="150" y="423.95767598737893" width="33.92014927126207" height="12.55848112283756" fill="#4472c4"></rect><rect x="150" y="437.1771298008922" width="0.6140199013718485" height="12.55848112283756" fill="#ed7d31"></rect><rect x="150" y="450.3965836144054" width="2.526384277499845" height="12.55848112283756" fill="#a5a5a5"></rect><rect x="150" y="463.6160374279186" width="0.2430770920604421" height="12.55848112283756" fill="#ffc000"></rect><rect x="150" y="476.83549124143184" width="0" height="12.55848112283756" fill="#5b9bd5"></rect><text class="label" x="192.42014927126206" y="432.45767598737893" font-size="10px">140x</text><text class="label" x="159.11401990137185" y="445.6771298008922" font-size="10px">3x</text><text class="label" x="161.02638427749986" y="458.8965836144054" font-size="10px">10x</text><text class="label" x="158.74307709206045" y="472.1160374279186" font-size="10px">1x</text><text class="label" x="158.5" y="485.33549124143184" font-size="10px"></text><text class="label" x="188.92014927126206" y="433.95767598737893" font-size="8px"></text><text class="label" x="155.61401990137185" y="447.1771298008922" font-size="8px"></text><text class="label" x="157.52638427749986" y="460.3965836144054" font-size="8px"></text><text class="label" x="155.24307709206045" y="473.6160374279186" font-size="8px"></text><text class="label" x="155" y="486.83549124143184" font-size="8px">Failed</text></g><g style="font-size: 13px;"><rect x="150" y="498.13350016320317" width="97.76345595395138" height="12.55848112283756" fill="#4472c4"></rect><rect x="150" y="511.3529539767164" width="0.7792782125776349" height="12.55848112283756" fill="#ed7d31"></rect><rect x="150" y="524.5724077902296" width="3.3031585178976095" height="12.55848112283756" fill="#a5a5a5"></rect><rect x="150" y="537.7918616037427" width="0.2430770920604421" height="12.55848112283756" fill="#ffc000"></rect><rect x="150" y="551.011315417256" width="1.919741024203157" height="12.55848112283756" fill="#5b9bd5"></rect><text class="label" x="256.2634559539514" y="506.63350016320317" font-size="10px">402x</text><text class="label" x="159.27927821257762" y="519.8529539767164" font-size="10px">3x</text><text class="label" x="161.8031585178976" y="533.0724077902296" font-size="10px">14x</text><text class="label" x="158.74307709206045" y="546.2918616037427" font-size="10px">1x</text><text class="label" x="160.41974102420315" y="559.511315417256" font-size="10px">8x</text><text class="label" x="252.7634559539514" y="508.13350016320317" font-size="8px"></text><text class="label" x="155.77927821257762" y="521.3529539767164" font-size="8px"></text><text class="label" x="158.3031585178976" y="534.5724077902296" font-size="8px"></text><text class="label" x="155.24307709206045" y="547.7918616037427" font-size="8px"></text><text class="label" x="156.91974102420315" y="561.011315417256" font-size="8px"></text></g><g style="font-size: 13px;"><rect x="150" y="572.3093243390274" width="485" height="12.55848112283756" fill="#4472c4"></rect><rect x="150" y="585.5287781525407" width="0" height="12.55848112283756" fill="#ed7d31"></rect><rect x="150" y="598.7482319660538" width="0" height="12.55848112283756" fill="#a5a5a5"></rect><rect x="150" y="611.9676857795671" width="0" height="12.55848112283756" fill="#ffc000"></rect><rect x="150" y="625.1871395930804" width="0" height="12.55848112283756" fill="#5b9bd5"></rect><text class="label" x="643.5" y="580.8093243390274" font-size="10px">Infinity</text><text class="label" x="158.5" y="594.0287781525407" font-size="10px"></text><text class="label" x="158.5" y="607.2482319660538" font-size="10px"></text><text class="label" x="158.5" y="620.4676857795671" font-size="10px"></text><text class="label" x="158.5" y="633.6871395930804" font-size="10px"></text><text class="label" x="640" y="582.3093243390274" font-size="8px"></text><text class="label" x="155" y="595.5287781525407" font-size="8px">Failed</text><text class="label" x="155" y="608.7482319660538" font-size="8px">Failed</text><text class="label" x="155" y="621.9676857795671" font-size="8px">Failed</text><text class="label" x="155" y="635.1871395930804" font-size="8px">Failed</text></g><g style="font-size: 13px;"><rect x="150" y="646.4851485148515" width="485" height="12.55848112283756" fill="#4472c4"></rect><rect x="150" y="659.7046023283648" width="0" height="12.55848112283756" fill="#ed7d31"></rect><rect x="150" y="672.9240561418779" width="0" height="12.55848112283756" fill="#a5a5a5"></rect><rect x="150" y="686.1435099553912" width="0" height="12.55848112283756" fill="#ffc000"></rect><rect x="150" y="699.3629637689045" width="0" height="12.55848112283756" fill="#5b9bd5"></rect><text class="label" x="643.5" y="654.9851485148515" font-size="10px">Infinity</text><text class="label" x="158.5" y="668.2046023283648" font-size="10px"></text><text class="label" x="158.5" y="681.4240561418779" font-size="10px"></text><text class="label" x="158.5" y="694.6435099553912" font-size="10px"></text><text class="label" x="158.5" y="707.8629637689045" font-size="10px"></text><text class="label" x="640" y="656.4851485148515" font-size="8px"></text><text class="label" x="155" y="669.7046023283648" font-size="8px">Failed</text><text class="label" x="155" y="682.9240561418779" font-size="8px">Failed</text><text class="label" x="155" y="696.1435099553912" font-size="8px">Failed</text><text class="label" x="155" y="709.3629637689045" font-size="8px">Failed</text></g></g></svg>
