<svg xmlns="http://www.w3.org/2000/svg" xmlns:xlink="http://www.w3.org/1999/xlink" width="800" height="885" style="background-color: white;"><g class="y axis" transform="translate(149,45)" fill="none" font-size="10" font-family="sans-serif" text-anchor="end" style="font-size: 13px;"><path class="domain" stroke="currentColor" d="M0.5,0.5V810.5"></path><g class="tick" opacity="1" transform="translate(0,48.95604395604397)" style="font-size: 13px;"><line stroke="currentColor" x2="0"></line><text fill="currentColor" x="-3" dy="0.32em">object (simple)    </text></g><g class="tick" opacity="1" transform="translate(0,137.967032967033)" style="font-size: 13px;"><line stroke="currentColor" x2="0"></line><text fill="currentColor" x="-3" dy="0.32em">object (hierarchical)    </text></g><g class="tick" opacity="1" transform="translate(0,226.97802197802199)" style="font-size: 13px;"><line stroke="currentColor" x2="0"></line><text fill="currentColor" x="-3" dy="0.32em">object (recursive)    </text></g><g class="tick" opacity="1" transform="translate(0,315.989010989011)" style="font-size: 13px;"><line stroke="currentColor" x2="0"></line><text fill="currentColor" x="-3" dy="0.32em">object (union, explicit)    </text></g><g class="tick" opacity="1" transform="translate(0,405)" style="font-size: 13px;"><line stroke="currentColor" x2="0"></line><text fill="currentColor" x="-3" dy="0.32em">object (union, implicit)    </text></g><g class="tick" opacity="1" transform="translate(0,494.010989010989)" style="font-size: 13px;"><line stroke="currentColor" x2="0"></line><text fill="currentColor" x="-3" dy="0.32em">array (recursive)    </text></g><g class="tick" opacity="1" transform="translate(0,583.021978021978)" style="font-size: 13px;"><line stroke="currentColor" x2="0"></line><text fill="currentColor" x="-3" dy="0.32em">array (union, explicit)    </text></g><g class="tick" opacity="1" transform="translate(0,672.0329670329671)" style="font-size: 13px;"><line stroke="currentColor" x2="0"></line><text fill="currentColor" x="-3" dy="0.32em">array (union, implicit)    </text></g><g class="tick" opacity="1" transform="translate(0,761.043956043956)" style="font-size: 13px;"><line stroke="currentColor" x2="0"></line><text fill="currentColor" x="-3" dy="0.32em">ultimate union    </text></g></g><g class="x axis" transform="translate(149,855)" fill="none" font-size="10" font-family="sans-serif" text-anchor="middle" style="font-size: 13px;"><path class="domain" stroke="currentColor" d="M0.5,0.5H485.5"></path><g class="tick" opacity="1" transform="translate(0.5,0)" style="font-size: 13px;"><line stroke="currentColor" y2="6"></line><text fill="currentColor" y="9" dy="0.71em">0x</text></g><g class="tick" opacity="1" transform="translate(83.85271833877397,0)" style="font-size: 13px;"><line stroke="currentColor" y2="6"></line><text fill="currentColor" y="9" dy="0.71em">2,000x</text></g><g class="tick" opacity="1" transform="translate(167.20543667754794,0)" style="font-size: 13px;"><line stroke="currentColor" y2="6"></line><text fill="currentColor" y="9" dy="0.71em">4,000x</text></g><g class="tick" opacity="1" transform="translate(250.5581550163219,0)" style="font-size: 13px;"><line stroke="currentColor" y2="6"></line><text fill="currentColor" y="9" dy="0.71em">6,000x</text></g><g class="tick" opacity="1" transform="translate(333.9108733550959,0)" style="font-size: 13px;"><line stroke="currentColor" y2="6"></line><text fill="currentColor" y="9" dy="0.71em">8,000x</text></g><g class="tick" opacity="1" transform="translate(417.2635916938698,0)" style="font-size: 13px;"><line stroke="currentColor" y2="6"></line><text fill="currentColor" y="9" dy="0.71em">10,000x</text></g></g><text transform="translate(400, 30)" style="text-anchor: middle; font-size: 20px; font-weight: bold;">is benchmark</text><rect x="680" y="165" width="200" height="5" fill="gray"></rect><rect x="675" y="35" width="200" height="130" fill="none" stroke="black"></rect><rect x="685" y="45" width="10" height="10" style="fill: #4472c4;"></rect><text x="700" y="55" style="font-size: 12px;">typescript-json</text><rect x="685" y="65" width="10" height="10" style="fill: #ed7d31;"></rect><text x="700" y="75" style="font-size: 12px;">typebox</text><rect x="685" y="85" width="10" height="10" style="fill: #a5a5a5;"></rect><text x="700" y="95" style="font-size: 12px;">ajv</text><rect x="685" y="105" width="10" height="10" style="fill: #ffc000;"></rect><text x="700" y="115" style="font-size: 12px;">io-ts</text><rect x="685" y="125" width="10" height="10" style="fill: #5b9bd5;"></rect><text x="700" y="135" style="font-size: 12px;">zod</text><rect x="685" y="145" width="10" height="10" style="fill: #70ad47;"></rect><text x="700" y="155" style="font-size: 12px;">class-validator</text><g style="font-size: 13px;"><g style="font-size: 13px;"><rect x="150" y="54.563164108618665" width="301.17663676862605" height="12.579238942875305" fill="#4472c4"></rect><rect x="150" y="67.80446825901373" width="440.9090909090909" height="12.579238942875305" fill="#ed7d31"></rect><rect x="150" y="81.04577240940878" width="117.85245377202781" height="12.579238942875305" fill="#a5a5a5"></rect><rect x="150" y="94.28707655980384" width="9.461060721782028" height="12.579238942875305" fill="#ffc000"></rect><rect x="150" y="107.5283807101989" width="1.4847362229323056" height="12.579238942875305" fill="#5b9bd5"></rect><rect x="150" y="120.76968486059396" width="0.04167635916938698" height="12.579238942875305" fill="#70ad47"></rect><text class="label" x="459.67663676862605" y="63.063164108618665" font-size="10px">7,227x</text><text class="label" x="599.4090909090909" y="76.30446825901373" font-size="10px">10,579x</text><text class="label" x="276.35245377202784" y="89.54577240940878" font-size="10px">2,828x</text><text class="label" x="167.96106072178202" y="102.78707655980384" font-size="10px">227x</text><text class="label" x="159.9847362229323" y="116.0283807101989" font-size="10px">36x</text><text class="label" x="158.5416763591694" y="129.26968486059394" font-size="10px">1x</text><text class="label" x="456.17663676862605" y="64.56316410861866" font-size="8px"></text><text class="label" x="595.9090909090909" y="77.80446825901373" font-size="8px"></text><text class="label" x="272.85245377202784" y="91.04577240940878" font-size="8px"></text><text class="label" x="164.46106072178202" y="104.28707655980384" font-size="8px"></text><text class="label" x="156.4847362229323" y="117.5283807101989" font-size="8px"></text><text class="label" x="155.0416763591694" y="130.76968486059394" font-size="8px"></text></g><g style="font-size: 13px;"><rect x="150" y="143.57415311960767" width="107.63903267048254" height="12.579238942875305" fill="#4472c4"></rect><rect x="150" y="156.81545727000272" width="142.2341005795456" height="12.579238942875305" fill="#ed7d31"></rect><rect x="150" y="170.05676142039778" width="43.94516476915831" height="12.579238942875305" fill="#a5a5a5"></rect><rect x="150" y="183.29806557079286" width="8.2905908173809" height="12.579238942875305" fill="#ffc000"></rect><rect x="150" y="196.5393697211879" width="0.5750608545813377" height="12.579238942875305" fill="#5b9bd5"></rect><rect x="150" y="209.78067387158296" width="0.04167635916938698" height="12.579238942875305" fill="#70ad47"></rect><text class="label" x="266.13903267048255" y="152.07415311960767" font-size="10px">2,583x</text><text class="label" x="300.7341005795456" y="165.31545727000272" font-size="10px">3,413x</text><text class="label" x="202.4451647691583" y="178.55676142039778" font-size="10px">1,054x</text><text class="label" x="166.7905908173809" y="191.79806557079286" font-size="10px">199x</text><text class="label" x="159.07506085458132" y="205.0393697211879" font-size="10px">14x</text><text class="label" x="158.5416763591694" y="218.28067387158296" font-size="10px">1x</text><text class="label" x="262.63903267048255" y="153.57415311960767" font-size="8px"></text><text class="label" x="297.2341005795456" y="166.81545727000272" font-size="8px"></text><text class="label" x="198.9451647691583" y="180.05676142039778" font-size="8px"></text><text class="label" x="163.2905908173809" y="193.29806557079286" font-size="8px"></text><text class="label" x="155.57506085458132" y="206.5393697211879" font-size="8px"></text><text class="label" x="155.0416763591694" y="219.78067387158296" font-size="8px"></text></g><g style="font-size: 13px;"><rect x="150" y="232.5851421305967" width="108.48582820983287" height="12.579238942875305" fill="#4472c4"></rect><rect x="150" y="245.82644628099175" width="113.83739394159835" height="12.579238942875305" fill="#ed7d31"></rect><rect x="150" y="259.0677504313868" width="50.296786503669836" height="12.579238942875305" fill="#a5a5a5"></rect><rect x="150" y="272.3090545817819" width="8.013355158274878" height="12.579238942875305" fill="#ffc000"></rect><rect x="150" y="285.5503587321769" width="0.1485428359637636" height="12.579238942875305" fill="#5b9bd5"></rect><rect x="150" y="298.791662882572" width="0.04167635916938698" height="12.579238942875305" fill="#70ad47"></rect><text class="label" x="266.9858282098329" y="241.0851421305967" font-size="10px">2,603x</text><text class="label" x="272.33739394159835" y="254.32644628099175" font-size="10px">2,731x</text><text class="label" x="208.79678650366984" y="267.5677504313868" font-size="10px">1,207x</text><text class="label" x="166.5133551582749" y="280.8090545817819" font-size="10px">192x</text><text class="label" x="158.64854283596375" y="294.0503587321769" font-size="10px">4x</text><text class="label" x="158.5416763591694" y="307.291662882572" font-size="10px">1x</text><text class="label" x="263.4858282098329" y="242.5851421305967" font-size="8px"></text><text class="label" x="268.83739394159835" y="255.82644628099175" font-size="8px"></text><text class="label" x="205.29678650366984" y="269.0677504313868" font-size="8px"></text><text class="label" x="163.0133551582749" y="282.3090545817819" font-size="8px"></text><text class="label" x="155.14854283596375" y="295.5503587321769" font-size="8px"></text><text class="label" x="155.0416763591694" y="308.791662882572" font-size="8px"></text></g><g style="font-size: 13px;"><rect x="150" y="321.59613114158566" width="12.643200222660159" height="12.579238942875305" fill="#4472c4"></rect><rect x="150" y="334.83743529198074" width="9.29851564811053" height="12.579238942875305" fill="#ed7d31"></rect><rect x="150" y="348.07873944237576" width="5.84355966256595" height="12.579238942875305" fill="#a5a5a5"></rect><rect x="150" y="361.32004359277084" width="2.2355293089169432" height="12.579238942875305" fill="#ffc000"></rect><rect x="150" y="374.5613477431659" width="0.04167635916938698" height="12.579238942875305" fill="#5b9bd5"></rect><rect x="150" y="387.80265189356095" width="0.09568636366471234" height="12.579238942875305" fill="#70ad47"></rect><text class="label" x="171.14320022266017" y="330.09613114158566" font-size="10px">303x</text><text class="label" x="167.79851564811054" y="343.33743529198074" font-size="10px">223x</text><text class="label" x="164.34355966256595" y="356.57873944237576" font-size="10px">140x</text><text class="label" x="160.73552930891694" y="369.82004359277084" font-size="10px">54x</text><text class="label" x="158.5416763591694" y="383.0613477431659" font-size="10px">1x</text><text class="label" x="158.59568636366473" y="396.30265189356095" font-size="10px">2x</text><text class="label" x="167.64320022266017" y="331.59613114158566" font-size="8px"></text><text class="label" x="164.29851564811054" y="344.83743529198074" font-size="8px"></text><text class="label" x="160.84355966256595" y="358.07873944237576" font-size="8px"></text><text class="label" x="157.23552930891694" y="371.32004359277084" font-size="8px"></text><text class="label" x="155.0416763591694" y="384.5613477431659" font-size="8px"></text><text class="label" x="155.09568636366473" y="397.80265189356095" font-size="8px"></text></g><g style="font-size: 13px;"><rect x="150" y="410.6071201525747" width="485" height="12.579238942875305" fill="#4472c4"></rect><rect x="150" y="423.84842430296976" width="0" height="12.579238942875305" fill="#ed7d31"></rect><rect x="150" y="437.08972845336484" width="0" height="12.579238942875305" fill="#a5a5a5"></rect><rect x="150" y="450.33103260375987" width="0" height="12.579238942875305" fill="#ffc000"></rect><rect x="150" y="463.57233675415495" width="0" height="12.579238942875305" fill="#5b9bd5"></rect><rect x="150" y="476.81364090454997" width="0" height="12.579238942875305" fill="#70ad47"></rect><text class="label" x="643.5" y="419.1071201525747" font-size="10px">Infinity</text><text class="label" x="158.5" y="432.34842430296976" font-size="10px"></text><text class="label" x="158.5" y="445.58972845336484" font-size="10px"></text><text class="label" x="158.5" y="458.83103260375987" font-size="10px"></text><text class="label" x="158.5" y="472.07233675415495" font-size="10px"></text><text class="label" x="158.5" y="485.31364090454997" font-size="10px"></text><text class="label" x="640" y="420.6071201525747" font-size="8px"></text><text class="label" x="155" y="433.84842430296976" font-size="8px">Failed</text><text class="label" x="155" y="447.08972845336484" font-size="8px">Failed</text><text class="label" x="155" y="460.33103260375987" font-size="8px">Failed</text><text class="label" x="155" y="473.57233675415495" font-size="8px">Failed</text><text class="label" x="155" y="486.81364090454997" font-size="8px">Failed</text></g><g style="font-size: 13px;"><rect x="150" y="499.6181091635637" width="99.63250514510034" height="12.579238942875305" fill="#4472c4"></rect><rect x="150" y="512.8594133139588" width="93.2741229420396" height="12.579238942875305" fill="#ed7d31"></rect><rect x="150" y="526.1007174643538" width="30.547135121836668" height="12.579238942875305" fill="#a5a5a5"></rect><rect x="150" y="539.3420216147489" width="7.7673551205728675" height="12.579238942875305" fill="#ffc000"></rect><rect x="150" y="552.583325765144" width="0.20865342947280618" height="12.579238942875305" fill="#5b9bd5"></rect><rect x="150" y="565.824629915539" width="0.04167635916938698" height="12.579238942875305" fill="#70ad47"></rect><text class="label" x="258.13250514510037" y="508.1181091635637" font-size="10px">2,391x</text><text class="label" x="251.77412294203958" y="521.3594133139588" font-size="10px">2,238x</text><text class="label" x="189.04713512183667" y="534.6007174643538" font-size="10px">733x</text><text class="label" x="166.26735512057286" y="547.8420216147489" font-size="10px">186x</text><text class="label" x="158.7086534294728" y="561.083325765144" font-size="10px">5x</text><text class="label" x="158.5416763591694" y="574.324629915539" font-size="10px">1x</text><text class="label" x="254.63250514510034" y="509.6181091635637" font-size="8px"></text><text class="label" x="248.27412294203958" y="522.8594133139588" font-size="8px"></text><text class="label" x="185.54713512183667" y="536.1007174643538" font-size="8px"></text><text class="label" x="162.76735512057286" y="549.3420216147489" font-size="8px"></text><text class="label" x="155.2086534294728" y="562.583325765144" font-size="8px"></text><text class="label" x="155.0416763591694" y="575.824629915539" font-size="8px"></text></g><g style="font-size: 13px;"><rect x="150" y="588.6290981745527" width="26.987083979174614" height="12.579238942875305" fill="#4472c4"></rect><rect x="150" y="601.8704023249478" width="13.009213886374077" height="12.579238942875305" fill="#ed7d31"></rect><rect x="150" y="615.1117064753429" width="5.9169343459415" height="12.579238942875305" fill="#a5a5a5"></rect><rect x="150" y="628.353010625738" width="2.436008575532306" height="12.579238942875305" fill="#ffc000"></rect><rect x="150" y="641.5943147761329" width="0.04167635916938698" height="12.579238942875305" fill="#5b9bd5"></rect><rect x="150" y="654.835618926528" width="0.35288953850744886" height="12.579238942875305" fill="#70ad47"></rect><text class="label" x="185.4870839791746" y="597.1290981745527" font-size="10px">648x</text><text class="label" x="171.50921388637408" y="610.3704023249478" font-size="10px">312x</text><text class="label" x="164.4169343459415" y="623.6117064753429" font-size="10px">142x</text><text class="label" x="160.9360085755323" y="636.853010625738" font-size="10px">58x</text><text class="label" x="158.5416763591694" y="650.0943147761329" font-size="10px">1x</text><text class="label" x="158.85288953850744" y="663.335618926528" font-size="10px">8x</text><text class="label" x="181.9870839791746" y="598.6290981745527" font-size="8px"></text><text class="label" x="168.00921388637408" y="611.8704023249478" font-size="8px"></text><text class="label" x="160.9169343459415" y="625.1117064753429" font-size="8px"></text><text class="label" x="157.4360085755323" y="638.353010625738" font-size="8px"></text><text class="label" x="155.0416763591694" y="651.5943147761329" font-size="8px"></text><text class="label" x="155.35288953850744" y="664.835618926528" font-size="8px"></text></g><g style="font-size: 13px;"><rect x="150" y="677.6400871855418" width="485" height="12.579238942875305" fill="#4472c4"></rect><rect x="150" y="690.8813913359369" width="0" height="12.579238942875305" fill="#ed7d31"></rect><rect x="150" y="704.122695486332" width="0" height="12.579238942875305" fill="#a5a5a5"></rect><rect x="150" y="717.363999636727" width="0" height="12.579238942875305" fill="#ffc000"></rect><rect x="150" y="730.605303787122" width="0" height="12.579238942875305" fill="#5b9bd5"></rect><rect x="150" y="743.8466079375171" width="0" height="12.579238942875305" fill="#70ad47"></rect><text class="label" x="643.5" y="686.1400871855418" font-size="10px">Infinity</text><text class="label" x="158.5" y="699.3813913359369" font-size="10px"></text><text class="label" x="158.5" y="712.622695486332" font-size="10px"></text><text class="label" x="158.5" y="725.863999636727" font-size="10px"></text><text class="label" x="158.5" y="739.105303787122" font-size="10px"></text><text class="label" x="158.5" y="752.3466079375171" font-size="10px"></text><text class="label" x="640" y="687.6400871855418" font-size="8px"></text><text class="label" x="155" y="700.8813913359369" font-size="8px">Failed</text><text class="label" x="155" y="714.122695486332" font-size="8px">Failed</text><text class="label" x="155" y="727.363999636727" font-size="8px">Failed</text><text class="label" x="155" y="740.605303787122" font-size="8px">Failed</text><text class="label" x="155" y="753.8466079375171" font-size="8px">Failed</text></g><g style="font-size: 13px;"><rect x="150" y="766.6510761965307" width="485" height="12.579238942875305" fill="#4472c4"></rect><rect x="150" y="779.8923803469257" width="0" height="12.579238942875305" fill="#ed7d31"></rect><rect x="150" y="793.1336844973208" width="0" height="12.579238942875305" fill="#a5a5a5"></rect><rect x="150" y="806.3749886477159" width="0" height="12.579238942875305" fill="#ffc000"></rect><rect x="150" y="819.6162927981109" width="0" height="12.579238942875305" fill="#5b9bd5"></rect><rect x="150" y="832.8575969485059" width="0" height="12.579238942875305" fill="#70ad47"></rect><text class="label" x="643.5" y="775.1510761965307" font-size="10px">Infinity</text><text class="label" x="158.5" y="788.3923803469257" font-size="10px"></text><text class="label" x="158.5" y="801.6336844973208" font-size="10px"></text><text class="label" x="158.5" y="814.8749886477159" font-size="10px"></text><text class="label" x="158.5" y="828.1162927981109" font-size="10px"></text><text class="label" x="158.5" y="841.3575969485059" font-size="10px"></text><text class="label" x="640" y="776.6510761965307" font-size="8px"></text><text class="label" x="155" y="789.8923803469257" font-size="8px">Failed</text><text class="label" x="155" y="803.1336844973208" font-size="8px">Failed</text><text class="label" x="155" y="816.3749886477159" font-size="8px">Failed</text><text class="label" x="155" y="829.6162927981109" font-size="8px">Failed</text><text class="label" x="155" y="842.8575969485059" font-size="8px">Failed</text></g></g></svg>
