<svg xmlns="http://www.w3.org/2000/svg" xmlns:xlink="http://www.w3.org/1999/xlink" width="800" height="600" style="background-color: white;"><g class="y axis" transform="translate(149,45)" fill="none" font-size="10" font-family="sans-serif" text-anchor="end" style="font-size: 13px;"><path class="domain" stroke="currentColor" d="M0.5,0.5V525.5"></path><g class="tick" opacity="1" transform="translate(0,40.66901408450705)" style="font-size: 13px;"><line stroke="currentColor" x2="0"></line><text fill="currentColor" x="-3" dy="0.32em">object (simple)    </text></g><g class="tick" opacity="1" transform="translate(0,114.61267605633802)" style="font-size: 13px;"><line stroke="currentColor" x2="0"></line><text fill="currentColor" x="-3" dy="0.32em">object (hierarchical)    </text></g><g class="tick" opacity="1" transform="translate(0,188.556338028169)" style="font-size: 13px;"><line stroke="currentColor" x2="0"></line><text fill="currentColor" x="-3" dy="0.32em">object (recursive)    </text></g><g class="tick" opacity="1" transform="translate(0,262.5)" style="font-size: 13px;"><line stroke="currentColor" x2="0"></line><text fill="currentColor" x="-3" dy="0.32em">object (union)    </text></g><g class="tick" opacity="1" transform="translate(0,336.443661971831)" style="font-size: 13px;"><line stroke="currentColor" x2="0"></line><text fill="currentColor" x="-3" dy="0.32em">array (hierarchical)    </text></g><g class="tick" opacity="1" transform="translate(0,410.38732394366195)" style="font-size: 13px;"><line stroke="currentColor" x2="0"></line><text fill="currentColor" x="-3" dy="0.32em">array (recursive)    </text></g><g class="tick" opacity="1" transform="translate(0,484.33098591549293)" style="font-size: 13px;"><line stroke="currentColor" x2="0"></line><text fill="currentColor" x="-3" dy="0.32em">array (union)    </text></g></g><g class="x axis" transform="translate(149,570)" fill="none" font-size="10" font-family="sans-serif" text-anchor="middle" style="font-size: 13px;"><path class="domain" stroke="currentColor" d="M0.5,0.5H485.5"></path><g class="tick" opacity="1" transform="translate(0.5,0)" style="font-size: 13px;"><line stroke="currentColor" y2="6"></line><text fill="currentColor" y="9" dy="0.71em">0x</text></g><g class="tick" opacity="1" transform="translate(83.82847268004608,0)" style="font-size: 13px;"><line stroke="currentColor" y2="6"></line><text fill="currentColor" y="9" dy="0.71em">0.5x</text></g><g class="tick" opacity="1" transform="translate(167.15694536009215,0)" style="font-size: 13px;"><line stroke="currentColor" y2="6"></line><text fill="currentColor" y="9" dy="0.71em">1x</text></g><g class="tick" opacity="1" transform="translate(250.48541804013823,0)" style="font-size: 13px;"><line stroke="currentColor" y2="6"></line><text fill="currentColor" y="9" dy="0.71em">1.5x</text></g><g class="tick" opacity="1" transform="translate(333.8138907201843,0)" style="font-size: 13px;"><line stroke="currentColor" y2="6"></line><text fill="currentColor" y="9" dy="0.71em">2x</text></g><g class="tick" opacity="1" transform="translate(417.1423634002304,0)" style="font-size: 13px;"><line stroke="currentColor" y2="6"></line><text fill="currentColor" y="9" dy="0.71em">2.5x</text></g></g><text transform="translate(400, 30)" style="text-anchor: middle; font-size: 20px; font-weight: bold;">stringify benchmark</text><rect x="680" y="145" width="200" height="5" fill="gray"></rect><rect x="675" y="35" width="200" height="110" fill="none" stroke="black"></rect><rect x="685" y="45" width="10" height="10" style="fill: #4472c4;"></rect><text x="700" y="55" style="font-size: 12px;">TSON.stringify()</text><rect x="685" y="65" width="10" height="10" style="fill: #ed7d31;"></rect><text x="700" y="75" style="font-size: 12px;">TSON.assertStringify()</text><rect x="685" y="85" width="10" height="10" style="fill: #a5a5a5;"></rect><text x="700" y="95" style="font-size: 12px;">TSON.isStringify()</text><rect x="685" y="105" width="10" height="10" style="fill: #ffc000;"></rect><text x="700" y="115" style="font-size: 12px;">JSON.stringify()</text><rect x="685" y="125" width="10" height="10" style="fill: #5b9bd5;"></rect><text x="700" y="135" style="font-size: 12px;">fast-json-stringify</text><g style="font-size: 13px;"><g style="font-size: 13px;"><rect x="150" y="53.05327011574397" width="440.9090909090908" height="12.519174452656534" fill="#4472c4"></rect><rect x="150" y="66.23134848696137" width="351.38112650082456" height="12.519174452656534" fill="#ed7d31"></rect><rect x="150" y="79.40942685817878" width="372.7757519244943" height="12.519174452656534" fill="#a5a5a5"></rect><rect x="150" y="92.58750522939619" width="166.65694536009215" height="12.519174452656534" fill="#ffc000"></rect><rect x="150" y="105.76558360061358" width="341.6986157831775" height="12.519174452656534" fill="#5b9bd5"></rect><text class="label" x="599.4090909090908" y="61.55327011574397" font-size="10px">2.65x</text><text class="label" x="509.88112650082456" y="74.73134848696137" font-size="10px">2.11x</text><text class="label" x="531.2757519244942" y="87.90942685817878" font-size="10px">2.24x</text><text class="label" x="325.15694536009215" y="101.08750522939619" font-size="10px">1x</text><text class="label" x="500.1986157831775" y="114.26558360061358" font-size="10px">2.05x</text><text class="label" x="595.9090909090908" y="63.05327011574397" font-size="8px"></text><text class="label" x="506.38112650082456" y="76.23134848696137" font-size="8px"></text><text class="label" x="527.7757519244942" y="89.40942685817878" font-size="8px"></text><text class="label" x="321.65694536009215" y="102.58750522939619" font-size="8px"></text><text class="label" x="496.6986157831775" y="115.76558360061358" font-size="8px"></text></g><g style="font-size: 13px;"><rect x="150" y="126.99693208757495" width="315.9705887555117" height="12.519174452656534" fill="#4472c4"></rect><rect x="150" y="140.17501045879237" width="274.0811055104512" height="12.519174452656534" fill="#ed7d31"></rect><rect x="150" y="153.35308883000977" width="291.5323086980896" height="12.519174452656534" fill="#a5a5a5"></rect><rect x="150" y="166.53116720122716" width="166.65694536009215" height="12.519174452656534" fill="#ffc000"></rect><rect x="150" y="179.70924557244456" width="298.5761521500768" height="12.519174452656534" fill="#5b9bd5"></rect><text class="label" x="474.4705887555117" y="135.49693208757495" font-size="10px">1.9x</text><text class="label" x="432.5811055104512" y="148.67501045879237" font-size="10px">1.64x</text><text class="label" x="450.0323086980896" y="161.85308883000977" font-size="10px">1.75x</text><text class="label" x="325.15694536009215" y="175.03116720122716" font-size="10px">1x</text><text class="label" x="457.0761521500768" y="188.20924557244456" font-size="10px">1.79x</text><text class="label" x="470.9705887555117" y="136.99693208757495" font-size="8px"></text><text class="label" x="429.0811055104512" y="150.17501045879237" font-size="8px"></text><text class="label" x="446.5323086980896" y="163.35308883000977" font-size="8px"></text><text class="label" x="321.65694536009215" y="176.53116720122716" font-size="8px"></text><text class="label" x="453.5761521500768" y="189.70924557244456" font-size="8px"></text></g><g style="font-size: 13px;"><rect x="150" y="200.94059405940592" width="309.17566541786204" height="12.519174452656534" fill="#4472c4"></rect><rect x="150" y="214.11867243062332" width="273.5035853376072" height="12.519174452656534" fill="#ed7d31"></rect><rect x="150" y="227.29675080184074" width="283.9893462806088" height="12.519174452656534" fill="#a5a5a5"></rect><rect x="150" y="240.47482917305814" width="166.65694536009215" height="12.519174452656534" fill="#ffc000"></rect><rect x="150" y="253.65290754427554" width="167.1135709484009" height="12.519174452656534" fill="#5b9bd5"></rect><text class="label" x="467.67566541786204" y="209.44059405940592" font-size="10px">1.86x</text><text class="label" x="432.0035853376072" y="222.61867243062332" font-size="10px">1.64x</text><text class="label" x="442.4893462806088" y="235.79675080184074" font-size="10px">1.7x</text><text class="label" x="325.15694536009215" y="248.97482917305814" font-size="10px">1x</text><text class="label" x="325.61357094840093" y="262.15290754427554" font-size="10px">1x</text><text class="label" x="464.17566541786204" y="210.94059405940592" font-size="8px"></text><text class="label" x="428.5035853376072" y="224.11867243062332" font-size="8px"></text><text class="label" x="438.9893462806088" y="237.29675080184074" font-size="8px"></text><text class="label" x="321.65694536009215" y="250.47482917305814" font-size="8px"></text><text class="label" x="322.11357094840093" y="263.65290754427554" font-size="8px"></text></g><g style="font-size: 13px;"><rect x="150" y="274.8842560312369" width="209.93044220816674" height="12.519174452656534" fill="#4472c4"></rect><rect x="150" y="288.0623344024543" width="166.65694536009215" height="12.519174452656534" fill="#ed7d31"></rect><rect x="150" y="301.2404127736717" width="187.027736138081" height="12.519174452656534" fill="#a5a5a5"></rect><rect x="150" y="314.4184911448891" width="179.56927498177498" height="12.519174452656534" fill="#ffc000"></rect><rect x="150" y="327.5965695161065" width="219.01316285609647" height="12.519174452656534" fill="#5b9bd5"></rect><text class="label" x="368.4304422081667" y="283.3842560312369" font-size="10px">1.26x</text><text class="label" x="325.15694536009215" y="296.5623344024543" font-size="10px">1x</text><text class="label" x="345.52773613808097" y="309.7404127736717" font-size="10px">1.12x</text><text class="label" x="338.069274981775" y="322.9184911448891" font-size="10px">1.08x</text><text class="label" x="377.51316285609647" y="336.0965695161065" font-size="10px">1.31x</text><text class="label" x="364.9304422081667" y="284.8842560312369" font-size="8px"></text><text class="label" x="321.65694536009215" y="298.0623344024543" font-size="8px"></text><text class="label" x="342.02773613808097" y="311.2404127736717" font-size="8px"></text><text class="label" x="334.569274981775" y="324.4184911448891" font-size="8px"></text><text class="label" x="374.01316285609647" y="337.5965695161065" font-size="8px"></text></g><g style="font-size: 13px;"><rect x="150" y="348.8279180030679" width="186.92668498773878" height="12.519174452656534" fill="#4472c4"></rect><rect x="150" y="362.0059963742853" width="166.65694536009215" height="12.519174452656534" fill="#ed7d31"></rect><rect x="150" y="375.1840747455027" width="182.04947616424974" height="12.519174452656534" fill="#a5a5a5"></rect><rect x="150" y="388.3621531167201" width="184.5306414467515" height="12.519174452656534" fill="#ffc000"></rect><rect x="150" y="401.5402314879375" width="251.83505439904965" height="12.519174452656534" fill="#5b9bd5"></rect><text class="label" x="345.4266849877388" y="357.3279180030679" font-size="10px">1.12x</text><text class="label" x="325.15694536009215" y="370.5059963742853" font-size="10px">1x</text><text class="label" x="340.54947616424977" y="383.6840747455027" font-size="10px">1.09x</text><text class="label" x="343.0306414467515" y="396.8621531167201" font-size="10px">1.11x</text><text class="label" x="410.3350543990497" y="410.0402314879375" font-size="10px">1.51x</text><text class="label" x="341.9266849877388" y="358.8279180030679" font-size="8px"></text><text class="label" x="321.65694536009215" y="372.0059963742853" font-size="8px"></text><text class="label" x="337.04947616424977" y="385.1840747455027" font-size="8px"></text><text class="label" x="339.5306414467515" y="398.3621531167201" font-size="8px"></text><text class="label" x="406.8350543990497" y="411.5402314879375" font-size="8px"></text></g><g style="font-size: 13px;"><rect x="150" y="422.7715799748988" width="193.99811884534142" height="12.519174452656534" fill="#4472c4"></rect><rect x="150" y="435.9496583461163" width="166.65694536009215" height="12.519174452656534" fill="#ed7d31"></rect><rect x="150" y="449.1277367173337" width="186.4680023659946" height="12.519174452656534" fill="#a5a5a5"></rect><rect x="150" y="462.30581508855107" width="182.63214034296368" height="12.519174452656534" fill="#ffc000"></rect><rect x="150" y="475.48389345976847" width="182.23837069936457" height="12.519174452656534" fill="#5b9bd5"></rect><text class="label" x="352.4981188453414" y="431.2715799748988" font-size="10px">1.16x</text><text class="label" x="325.15694536009215" y="444.4496583461163" font-size="10px">1x</text><text class="label" x="344.9680023659946" y="457.6277367173337" font-size="10px">1.12x</text><text class="label" x="341.1321403429637" y="470.80581508855107" font-size="10px">1.1x</text><text class="label" x="340.73837069936457" y="483.98389345976847" font-size="10px">1.09x</text><text class="label" x="348.9981188453414" y="432.7715799748988" font-size="8px"></text><text class="label" x="321.65694536009215" y="445.9496583461163" font-size="8px"></text><text class="label" x="341.4680023659946" y="459.1277367173337" font-size="8px"></text><text class="label" x="337.6321403429637" y="472.30581508855107" font-size="8px"></text><text class="label" x="337.23837069936457" y="485.48389345976847" font-size="8px"></text></g><g style="font-size: 13px;"><rect x="150" y="496.71524194672986" width="178.3822440066851" height="12.519174452656534" fill="#4472c4"></rect><rect x="150" y="509.89332031794726" width="166.65694536009215" height="12.519174452656534" fill="#ed7d31"></rect><rect x="150" y="523.0713986891647" width="172.57320078278966" height="12.519174452656534" fill="#a5a5a5"></rect><rect x="150" y="536.2494770603821" width="265.37604377153207" height="12.519174452656534" fill="#ffc000"></rect><rect x="150" y="549.4275554315994" width="239.54624862864156" height="12.519174452656534" fill="#5b9bd5"></rect><text class="label" x="336.88224400668514" y="505.21524194672986" font-size="10px">1.07x</text><text class="label" x="325.15694536009215" y="518.3933203179472" font-size="10px">1x</text><text class="label" x="331.0732007827896" y="531.5713986891647" font-size="10px">1.04x</text><text class="label" x="423.87604377153207" y="544.7494770603821" font-size="10px">1.59x</text><text class="label" x="398.0462486286416" y="557.9275554315994" font-size="10px">1.44x</text><text class="label" x="333.38224400668514" y="506.71524194672986" font-size="8px"></text><text class="label" x="321.65694536009215" y="519.8933203179472" font-size="8px"></text><text class="label" x="327.5732007827896" y="533.0713986891647" font-size="8px"></text><text class="label" x="420.37604377153207" y="546.2494770603821" font-size="8px"></text><text class="label" x="394.5462486286416" y="559.4275554315994" font-size="8px"></text></g></g></svg>