<svg xmlns="http://www.w3.org/2000/svg" xmlns:xlink="http://www.w3.org/1999/xlink" width="800" height="600" style="background-color: white;"><g class="y axis" transform="translate(149,45)" fill="none" font-size="10" font-family="sans-serif" text-anchor="end" style="font-size: 13px;"><path class="domain" stroke="currentColor" d="M0.5,0.5V525.5"></path><g class="tick" opacity="1" transform="translate(0,40.66901408450705)" style="font-size: 13px;"><line stroke="currentColor" x2="0"></line><text fill="currentColor" x="-3" dy="0.32em">object (simple)    </text></g><g class="tick" opacity="1" transform="translate(0,114.61267605633802)" style="font-size: 13px;"><line stroke="currentColor" x2="0"></line><text fill="currentColor" x="-3" dy="0.32em">object (hierarchical)    </text></g><g class="tick" opacity="1" transform="translate(0,188.556338028169)" style="font-size: 13px;"><line stroke="currentColor" x2="0"></line><text fill="currentColor" x="-3" dy="0.32em">object (recursive)    </text></g><g class="tick" opacity="1" transform="translate(0,262.5)" style="font-size: 13px;"><line stroke="currentColor" x2="0"></line><text fill="currentColor" x="-3" dy="0.32em">object (union)    </text></g><g class="tick" opacity="1" transform="translate(0,336.443661971831)" style="font-size: 13px;"><line stroke="currentColor" x2="0"></line><text fill="currentColor" x="-3" dy="0.32em">array (hierarchical)    </text></g><g class="tick" opacity="1" transform="translate(0,410.38732394366195)" style="font-size: 13px;"><line stroke="currentColor" x2="0"></line><text fill="currentColor" x="-3" dy="0.32em">array (recursive)    </text></g><g class="tick" opacity="1" transform="translate(0,484.33098591549293)" style="font-size: 13px;"><line stroke="currentColor" x2="0"></line><text fill="currentColor" x="-3" dy="0.32em">array (union)    </text></g></g><g class="x axis" transform="translate(149,570)" fill="none" font-size="10" font-family="sans-serif" text-anchor="middle" style="font-size: 13px;"><path class="domain" stroke="currentColor" d="M0.5,0.5H485.5"></path><g class="tick" opacity="1" transform="translate(0.5,0)" style="font-size: 13px;"><line stroke="currentColor" y2="6"></line><text fill="currentColor" y="9" dy="0.71em">0x</text></g><g class="tick" opacity="1" transform="translate(69.50743538001237,0)" style="font-size: 13px;"><line stroke="currentColor" y2="6"></line><text fill="currentColor" y="9" dy="0.71em">0.5x</text></g><g class="tick" opacity="1" transform="translate(138.51487076002473,0)" style="font-size: 13px;"><line stroke="currentColor" y2="6"></line><text fill="currentColor" y="9" dy="0.71em">1x</text></g><g class="tick" opacity="1" transform="translate(207.52230614003713,0)" style="font-size: 13px;"><line stroke="currentColor" y2="6"></line><text fill="currentColor" y="9" dy="0.71em">1.5x</text></g><g class="tick" opacity="1" transform="translate(276.52974152004947,0)" style="font-size: 13px;"><line stroke="currentColor" y2="6"></line><text fill="currentColor" y="9" dy="0.71em">2x</text></g><g class="tick" opacity="1" transform="translate(345.5371769000618,0)" style="font-size: 13px;"><line stroke="currentColor" y2="6"></line><text fill="currentColor" y="9" dy="0.71em">2.5x</text></g><g class="tick" opacity="1" transform="translate(414.54461228007426,0)" style="font-size: 13px;"><line stroke="currentColor" y2="6"></line><text fill="currentColor" y="9" dy="0.71em">3x</text></g><g class="tick" opacity="1" transform="translate(483.5520476600866,0)" style="font-size: 13px;"><line stroke="currentColor" y2="6"></line><text fill="currentColor" y="9" dy="0.71em">3.5x</text></g></g><text transform="translate(400, 30)" style="text-anchor: middle; font-size: 20px; font-weight: bold;">stringify benchmark</text><rect x="680" y="145" width="200" height="5" fill="gray"></rect><rect x="675" y="35" width="200" height="110" fill="none" stroke="black"></rect><rect x="685" y="45" width="10" height="10" style="fill: #4472c4;"></rect><text x="700" y="55" style="font-size: 12px;">TSON.stringify()</text><rect x="685" y="65" width="10" height="10" style="fill: #ed7d31;"></rect><text x="700" y="75" style="font-size: 12px;">TSON.assertStringify()</text><rect x="685" y="85" width="10" height="10" style="fill: #a5a5a5;"></rect><text x="700" y="95" style="font-size: 12px;">TSON.isStringify()</text><rect x="685" y="105" width="10" height="10" style="fill: #ffc000;"></rect><text x="700" y="115" style="font-size: 12px;">JSON.stringify()</text><rect x="685" y="125" width="10" height="10" style="fill: #5b9bd5;"></rect><text x="700" y="135" style="font-size: 12px;">fast-json-stringify</text><g style="font-size: 13px;"><g style="font-size: 13px;"><rect x="150" y="53.05327011574397" width="440.9090909090909" height="12.519174452656534" fill="#4472c4"></rect><rect x="150" y="66.23134848696137" width="348.5301432618677" height="12.519174452656534" fill="#ed7d31"></rect><rect x="150" y="79.40942685817878" width="383.23686685537456" height="12.519174452656534" fill="#a5a5a5"></rect><rect x="150" y="92.58750522939619" width="138.01487076002473" height="12.519174452656534" fill="#ffc000"></rect><rect x="150" y="105.76558360061358" width="322.73838900305583" height="12.519174452656534" fill="#5b9bd5"></rect><text class="label" x="599.4090909090909" y="61.55327011574397" font-size="10px">3.19x</text><text class="label" x="507.0301432618677" y="74.73134848696137" font-size="10px">2.53x</text><text class="label" x="541.7368668553745" y="87.90942685817878" font-size="10px">2.78x</text><text class="label" x="296.51487076002473" y="101.08750522939619" font-size="10px">1x</text><text class="label" x="481.23838900305583" y="114.26558360061358" font-size="10px">2.34x</text><text class="label" x="595.9090909090909" y="63.05327011574397" font-size="8px"></text><text class="label" x="503.5301432618677" y="76.23134848696137" font-size="8px"></text><text class="label" x="538.2368668553745" y="89.40942685817878" font-size="8px"></text><text class="label" x="293.01487076002473" y="102.58750522939619" font-size="8px"></text><text class="label" x="477.73838900305583" y="115.76558360061358" font-size="8px"></text></g><g style="font-size: 13px;"><rect x="150" y="126.99693208757495" width="269.2597864062416" height="12.519174452656534" fill="#4472c4"></rect><rect x="150" y="140.17501045879237" width="236.2918368223772" height="12.519174452656534" fill="#ed7d31"></rect><rect x="150" y="153.35308883000977" width="251.84889920176238" height="12.519174452656534" fill="#a5a5a5"></rect><rect x="150" y="166.53116720122716" width="138.01487076002473" height="12.519174452656534" fill="#ffc000"></rect><rect x="150" y="179.70924557244456" width="256.4588447117608" height="12.519174452656534" fill="#5b9bd5"></rect><text class="label" x="427.7597864062416" y="135.49693208757495" font-size="10px">1.95x</text><text class="label" x="394.7918368223772" y="148.67501045879237" font-size="10px">1.71x</text><text class="label" x="410.3488992017624" y="161.85308883000977" font-size="10px">1.82x</text><text class="label" x="296.51487076002473" y="175.03116720122716" font-size="10px">1x</text><text class="label" x="414.9588447117608" y="188.20924557244456" font-size="10px">1.86x</text><text class="label" x="424.2597864062416" y="136.99693208757495" font-size="8px"></text><text class="label" x="391.2918368223772" y="150.17501045879237" font-size="8px"></text><text class="label" x="406.8488992017624" y="163.35308883000977" font-size="8px"></text><text class="label" x="293.01487076002473" y="176.53116720122716" font-size="8px"></text><text class="label" x="411.4588447117608" y="189.70924557244456" font-size="8px"></text></g><g style="font-size: 13px;"><rect x="150" y="200.94059405940592" width="267.8892878717918" height="12.519174452656534" fill="#4472c4"></rect><rect x="150" y="214.11867243062332" width="255.05890039568695" height="12.519174452656534" fill="#ed7d31"></rect><rect x="150" y="227.29675080184074" width="266.3447572629845" height="12.519174452656534" fill="#a5a5a5"></rect><rect x="150" y="240.47482917305814" width="139.95302315343636" height="12.519174452656534" fill="#ffc000"></rect><rect x="150" y="253.65290754427554" width="138.01487076002473" height="12.519174452656534" fill="#5b9bd5"></rect><text class="label" x="426.3892878717918" y="209.44059405940592" font-size="10px">1.94x</text><text class="label" x="413.5589003956869" y="222.61867243062332" font-size="10px">1.85x</text><text class="label" x="424.8447572629845" y="235.79675080184074" font-size="10px">1.93x</text><text class="label" x="298.45302315343633" y="248.97482917305814" font-size="10px">1.01x</text><text class="label" x="296.51487076002473" y="262.15290754427554" font-size="10px">1x</text><text class="label" x="422.8892878717918" y="210.94059405940592" font-size="8px"></text><text class="label" x="410.0589003956869" y="224.11867243062332" font-size="8px"></text><text class="label" x="421.3447572629845" y="237.29675080184074" font-size="8px"></text><text class="label" x="294.95302315343633" y="250.47482917305814" font-size="8px"></text><text class="label" x="293.01487076002473" y="263.65290754427554" font-size="8px"></text></g><g style="font-size: 13px;"><rect x="150" y="274.8842560312369" width="174.81684407694266" height="12.519174452656534" fill="#4472c4"></rect><rect x="150" y="288.0623344024543" width="138.01487076002473" height="12.519174452656534" fill="#ed7d31"></rect><rect x="150" y="301.2404127736717" width="160.25594266533514" height="12.519174452656534" fill="#a5a5a5"></rect><rect x="150" y="314.4184911448891" width="146.02724523414048" height="12.519174452656534" fill="#ffc000"></rect><rect x="150" y="327.5965695161065" width="178.49394463266822" height="12.519174452656534" fill="#5b9bd5"></rect><text class="label" x="333.31684407694263" y="283.3842560312369" font-size="10px">1.27x</text><text class="label" x="296.51487076002473" y="296.5623344024543" font-size="10px">1x</text><text class="label" x="318.75594266533517" y="309.7404127736717" font-size="10px">1.16x</text><text class="label" x="304.5272452341405" y="322.9184911448891" font-size="10px">1.06x</text><text class="label" x="336.9939446326682" y="336.0965695161065" font-size="10px">1.29x</text><text class="label" x="329.81684407694263" y="284.8842560312369" font-size="8px"></text><text class="label" x="293.01487076002473" y="298.0623344024543" font-size="8px"></text><text class="label" x="315.25594266533517" y="311.2404127736717" font-size="8px"></text><text class="label" x="301.0272452341405" y="324.4184911448891" font-size="8px"></text><text class="label" x="333.4939446326682" y="337.5965695161065" font-size="8px"></text></g><g style="font-size: 13px;"><rect x="150" y="348.8279180030679" width="157.58674954790862" height="12.519174452656534" fill="#4472c4"></rect><rect x="150" y="362.0059963742853" width="138.01487076002473" height="12.519174452656534" fill="#ed7d31"></rect><rect x="150" y="375.1840747455027" width="151.78830369279675" height="12.519174452656534" fill="#a5a5a5"></rect><rect x="150" y="388.3621531167201" width="142.54685699854525" height="12.519174452656534" fill="#ffc000"></rect><rect x="150" y="401.5402314879375" width="221.2181388836805" height="12.519174452656534" fill="#5b9bd5"></rect><text class="label" x="316.08674954790865" y="357.3279180030679" font-size="10px">1.14x</text><text class="label" x="296.51487076002473" y="370.5059963742853" font-size="10px">1x</text><text class="label" x="310.2883036927967" y="383.6840747455027" font-size="10px">1.1x</text><text class="label" x="301.04685699854525" y="396.8621531167201" font-size="10px">1.03x</text><text class="label" x="379.71813888368047" y="410.0402314879375" font-size="10px">1.6x</text><text class="label" x="312.58674954790865" y="358.8279180030679" font-size="8px"></text><text class="label" x="293.01487076002473" y="372.0059963742853" font-size="8px"></text><text class="label" x="306.7883036927967" y="385.1840747455027" font-size="8px"></text><text class="label" x="297.54685699854525" y="398.3621531167201" font-size="8px"></text><text class="label" x="376.21813888368047" y="411.5402314879375" font-size="8px"></text></g><g style="font-size: 13px;"><rect x="150" y="422.7715799748988" width="162.88220020271476" height="12.519174452656534" fill="#4472c4"></rect><rect x="150" y="435.9496583461163" width="142.9189836665322" height="12.519174452656534" fill="#ed7d31"></rect><rect x="150" y="449.1277367173337" width="156.8389601688415" height="12.519174452656534" fill="#a5a5a5"></rect><rect x="150" y="462.30581508855107" width="140.55400491517153" height="12.519174452656534" fill="#ffc000"></rect><rect x="150" y="475.48389345976847" width="138.01487076002473" height="12.519174452656534" fill="#5b9bd5"></rect><text class="label" x="321.3822002027148" y="431.2715799748988" font-size="10px">1.18x</text><text class="label" x="301.4189836665322" y="444.4496583461163" font-size="10px">1.04x</text><text class="label" x="315.3389601688415" y="457.6277367173337" font-size="10px">1.14x</text><text class="label" x="299.0540049151715" y="470.80581508855107" font-size="10px">1.02x</text><text class="label" x="296.51487076002473" y="483.98389345976847" font-size="10px">1x</text><text class="label" x="317.8822002027148" y="432.7715799748988" font-size="8px"></text><text class="label" x="297.9189836665322" y="445.9496583461163" font-size="8px"></text><text class="label" x="311.8389601688415" y="459.1277367173337" font-size="8px"></text><text class="label" x="295.5540049151715" y="472.30581508855107" font-size="8px"></text><text class="label" x="293.01487076002473" y="485.48389345976847" font-size="8px"></text></g><g style="font-size: 13px;"><rect x="150" y="496.71524194672986" width="160.88668639623947" height="12.519174452656534" fill="#4472c4"></rect><rect x="150" y="509.89332031794726" width="138.01487076002473" height="12.519174452656534" fill="#ed7d31"></rect><rect x="150" y="523.0713986891647" width="143.10689016837122" height="12.519174452656534" fill="#a5a5a5"></rect><rect x="150" y="536.2494770603821" width="220.34792522522434" height="12.519174452656534" fill="#ffc000"></rect><rect x="150" y="549.4275554315994" width="198.35669391591816" height="12.519174452656534" fill="#5b9bd5"></rect><text class="label" x="319.3866863962395" y="505.21524194672986" font-size="10px">1.17x</text><text class="label" x="296.51487076002473" y="518.3933203179472" font-size="10px">1x</text><text class="label" x="301.60689016837125" y="531.5713986891647" font-size="10px">1.04x</text><text class="label" x="378.84792522522434" y="544.7494770603821" font-size="10px">1.6x</text><text class="label" x="356.8566939159182" y="557.9275554315994" font-size="10px">1.44x</text><text class="label" x="315.8866863962395" y="506.71524194672986" font-size="8px"></text><text class="label" x="293.01487076002473" y="519.8933203179472" font-size="8px"></text><text class="label" x="298.10689016837125" y="533.0713986891647" font-size="8px"></text><text class="label" x="375.34792522522434" y="546.2494770603821" font-size="8px"></text><text class="label" x="353.3566939159182" y="559.4275554315994" font-size="8px"></text></g></g></svg>