<svg xmlns="http://www.w3.org/2000/svg" xmlns:xlink="http://www.w3.org/1999/xlink" width="800" height="600" style="background-color: white;"><g class="y axis" transform="translate(149,45)" fill="none" font-size="10" font-family="sans-serif" text-anchor="end" style="font-size: 13px;"><path class="domain" stroke="currentColor" d="M0.5,0.5V525.5"></path><g class="tick" opacity="1" transform="translate(0,40.66901408450705)" style="font-size: 13px;"><line stroke="currentColor" x2="0"></line><text fill="currentColor" x="-3" dy="0.32em">object (simple)    </text></g><g class="tick" opacity="1" transform="translate(0,114.61267605633802)" style="font-size: 13px;"><line stroke="currentColor" x2="0"></line><text fill="currentColor" x="-3" dy="0.32em">object (hierarchical)    </text></g><g class="tick" opacity="1" transform="translate(0,188.556338028169)" style="font-size: 13px;"><line stroke="currentColor" x2="0"></line><text fill="currentColor" x="-3" dy="0.32em">object (recursive)    </text></g><g class="tick" opacity="1" transform="translate(0,262.5)" style="font-size: 13px;"><line stroke="currentColor" x2="0"></line><text fill="currentColor" x="-3" dy="0.32em">object (union)    </text></g><g class="tick" opacity="1" transform="translate(0,336.443661971831)" style="font-size: 13px;"><line stroke="currentColor" x2="0"></line><text fill="currentColor" x="-3" dy="0.32em">array (hierarchical)    </text></g><g class="tick" opacity="1" transform="translate(0,410.38732394366195)" style="font-size: 13px;"><line stroke="currentColor" x2="0"></line><text fill="currentColor" x="-3" dy="0.32em">array (recursive)    </text></g><g class="tick" opacity="1" transform="translate(0,484.33098591549293)" style="font-size: 13px;"><line stroke="currentColor" x2="0"></line><text fill="currentColor" x="-3" dy="0.32em">array (union)    </text></g></g><g class="x axis" transform="translate(149,570)" fill="none" font-size="10" font-family="sans-serif" text-anchor="middle" style="font-size: 13px;"><path class="domain" stroke="currentColor" d="M0.5,0.5H485.5"></path><g class="tick" opacity="1" transform="translate(0.5,0)" style="font-size: 13px;"><line stroke="currentColor" y2="6"></line><text fill="currentColor" y="9" dy="0.71em">0x</text></g><g class="tick" opacity="1" transform="translate(114.90638974190902,0)" style="font-size: 13px;"><line stroke="currentColor" y2="6"></line><text fill="currentColor" y="9" dy="0.71em">1x</text></g><g class="tick" opacity="1" transform="translate(229.31277948381805,0)" style="font-size: 13px;"><line stroke="currentColor" y2="6"></line><text fill="currentColor" y="9" dy="0.71em">2x</text></g><g class="tick" opacity="1" transform="translate(343.71916922572706,0)" style="font-size: 13px;"><line stroke="currentColor" y2="6"></line><text fill="currentColor" y="9" dy="0.71em">3x</text></g><g class="tick" opacity="1" transform="translate(458.1255589676361,0)" style="font-size: 13px;"><line stroke="currentColor" y2="6"></line><text fill="currentColor" y="9" dy="0.71em">4x</text></g></g><text transform="translate(400, 30)" style="text-anchor: middle; font-size: 20px; font-weight: bold;">stringify benchmark</text><rect x="680" y="145" width="200" height="5" fill="gray"></rect><rect x="675" y="35" width="200" height="110" fill="none" stroke="black"></rect><rect x="685" y="45" width="10" height="10" style="fill: #4472c4;"></rect><text x="700" y="55" style="font-size: 12px;">TSON.stringify()</text><rect x="685" y="65" width="10" height="10" style="fill: #ed7d31;"></rect><text x="700" y="75" style="font-size: 12px;">TSON.assertStringify()</text><rect x="685" y="85" width="10" height="10" style="fill: #a5a5a5;"></rect><text x="700" y="95" style="font-size: 12px;">TSON.isStringify()</text><rect x="685" y="105" width="10" height="10" style="fill: #ffc000;"></rect><text x="700" y="115" style="font-size: 12px;">JSON.stringify()</text><rect x="685" y="125" width="10" height="10" style="fill: #5b9bd5;"></rect><text x="700" y="135" style="font-size: 12px;">fast-json-stringify</text><g style="font-size: 13px;"><g style="font-size: 13px;"><rect x="150" y="53.05327011574397" width="440.9090909090909" height="12.519174452656534" fill="#4472c4"></rect><rect x="150" y="66.23134848696137" width="357.0430640615911" height="12.519174452656534" fill="#ed7d31"></rect><rect x="150" y="79.40942685817878" width="430.7064914532112" height="12.519174452656534" fill="#a5a5a5"></rect><rect x="150" y="92.58750522939619" width="114.40638974190902" height="12.519174452656534" fill="#ffc000"></rect><rect x="150" y="105.76558360061358" width="281.79798100630967" height="12.519174452656534" fill="#5b9bd5"></rect><text class="label" x="599.4090909090909" y="61.55327011574397" font-size="10px">3.85x</text><text class="label" x="515.5430640615912" y="74.73134848696137" font-size="10px">3.12x</text><text class="label" x="589.2064914532111" y="87.90942685817878" font-size="10px">3.76x</text><text class="label" x="272.90638974190904" y="101.08750522939619" font-size="10px">1x</text><text class="label" x="440.29798100630967" y="114.26558360061358" font-size="10px">2.46x</text><text class="label" x="595.9090909090909" y="63.05327011574397" font-size="8px"></text><text class="label" x="512.0430640615912" y="76.23134848696137" font-size="8px"></text><text class="label" x="585.7064914532111" y="89.40942685817878" font-size="8px"></text><text class="label" x="269.40638974190904" y="102.58750522939619" font-size="8px"></text><text class="label" x="436.79798100630967" y="115.76558360061358" font-size="8px"></text></g><g style="font-size: 13px;"><rect x="150" y="126.99693208757495" width="276.11051702290007" height="12.519174452656534" fill="#4472c4"></rect><rect x="150" y="140.17501045879237" width="239.4432178999417" height="12.519174452656534" fill="#ed7d31"></rect><rect x="150" y="153.35308883000977" width="263.11436326410393" height="12.519174452656534" fill="#a5a5a5"></rect><rect x="150" y="166.53116720122716" width="114.40638974190902" height="12.519174452656534" fill="#ffc000"></rect><rect x="150" y="179.70924557244456" width="294.4924135463605" height="12.519174452656534" fill="#5b9bd5"></rect><text class="label" x="434.61051702290007" y="135.49693208757495" font-size="10px">2.41x</text><text class="label" x="397.9432178999417" y="148.67501045879237" font-size="10px">2.09x</text><text class="label" x="421.61436326410393" y="161.85308883000977" font-size="10px">2.3x</text><text class="label" x="272.90638974190904" y="175.03116720122716" font-size="10px">1x</text><text class="label" x="452.9924135463605" y="188.20924557244456" font-size="10px">2.57x</text><text class="label" x="431.11051702290007" y="136.99693208757495" font-size="8px"></text><text class="label" x="394.4432178999417" y="150.17501045879237" font-size="8px"></text><text class="label" x="418.11436326410393" y="163.35308883000977" font-size="8px"></text><text class="label" x="269.40638974190904" y="176.53116720122716" font-size="8px"></text><text class="label" x="449.4924135463605" y="189.70924557244456" font-size="8px"></text></g><g style="font-size: 13px;"><rect x="150" y="200.94059405940592" width="264.0423494044445" height="12.519174452656534" fill="#4472c4"></rect><rect x="150" y="214.11867243062332" width="243.99846200323663" height="12.519174452656534" fill="#ed7d31"></rect><rect x="150" y="227.29675080184074" width="262.5339429095261" height="12.519174452656534" fill="#a5a5a5"></rect><rect x="150" y="240.47482917305814" width="117.74215165315992" height="12.519174452656534" fill="#ffc000"></rect><rect x="150" y="253.65290754427554" width="114.40638974190902" height="12.519174452656534" fill="#5b9bd5"></rect><text class="label" x="422.5423494044445" y="209.44059405940592" font-size="10px">2.31x</text><text class="label" x="402.4984620032366" y="222.61867243062332" font-size="10px">2.13x</text><text class="label" x="421.0339429095261" y="235.79675080184074" font-size="10px">2.29x</text><text class="label" x="276.2421516531599" y="248.97482917305814" font-size="10px">1.03x</text><text class="label" x="272.90638974190904" y="262.15290754427554" font-size="10px">1x</text><text class="label" x="419.0423494044445" y="210.94059405940592" font-size="8px"></text><text class="label" x="398.9984620032366" y="224.11867243062332" font-size="8px"></text><text class="label" x="417.5339429095261" y="237.29675080184074" font-size="8px"></text><text class="label" x="272.7421516531599" y="250.47482917305814" font-size="8px"></text><text class="label" x="269.40638974190904" y="263.65290754427554" font-size="8px"></text></g><g style="font-size: 13px;"><rect x="150" y="274.8842560312369" width="162.81008409780483" height="12.519174452656534" fill="#4472c4"></rect><rect x="150" y="288.0623344024543" width="128.83617671336762" height="12.519174452656534" fill="#ed7d31"></rect><rect x="150" y="301.2404127736717" width="151.48637338736108" height="12.519174452656534" fill="#a5a5a5"></rect><rect x="150" y="314.4184911448891" width="114.40638974190902" height="12.519174452656534" fill="#ffc000"></rect><rect x="150" y="327.5965695161065" width="160.993892848484" height="12.519174452656534" fill="#5b9bd5"></rect><text class="label" x="321.31008409780486" y="283.3842560312369" font-size="10px">1.42x</text><text class="label" x="287.33617671336765" y="296.5623344024543" font-size="10px">1.13x</text><text class="label" x="309.9863733873611" y="309.7404127736717" font-size="10px">1.32x</text><text class="label" x="272.90638974190904" y="322.9184911448891" font-size="10px">1x</text><text class="label" x="319.493892848484" y="336.0965695161065" font-size="10px">1.41x</text><text class="label" x="317.81008409780486" y="284.8842560312369" font-size="8px"></text><text class="label" x="283.83617671336765" y="298.0623344024543" font-size="8px"></text><text class="label" x="306.4863733873611" y="311.2404127736717" font-size="8px"></text><text class="label" x="269.40638974190904" y="324.4184911448891" font-size="8px"></text><text class="label" x="315.993892848484" y="337.5965695161065" font-size="8px"></text></g><g style="font-size: 13px;"><rect x="150" y="348.8279180030679" width="151.3549041744466" height="12.519174452656534" fill="#4472c4"></rect><rect x="150" y="362.0059963742853" width="133.65153499224633" height="12.519174452656534" fill="#ed7d31"></rect><rect x="150" y="375.1840747455027" width="145.2595840414613" height="12.519174452656534" fill="#a5a5a5"></rect><rect x="150" y="388.3621531167201" width="114.40638974190902" height="12.519174452656534" fill="#ffc000"></rect><rect x="150" y="401.5402314879375" width="196.3121895975255" height="12.519174452656534" fill="#5b9bd5"></rect><text class="label" x="309.8549041744466" y="357.3279180030679" font-size="10px">1.32x</text><text class="label" x="292.1515349922463" y="370.5059963742853" font-size="10px">1.17x</text><text class="label" x="303.75958404146127" y="383.6840747455027" font-size="10px">1.27x</text><text class="label" x="272.90638974190904" y="396.8621531167201" font-size="10px">1x</text><text class="label" x="354.8121895975255" y="410.0402314879375" font-size="10px">1.72x</text><text class="label" x="306.3549041744466" y="358.8279180030679" font-size="8px"></text><text class="label" x="288.6515349922463" y="372.0059963742853" font-size="8px"></text><text class="label" x="300.25958404146127" y="385.1840747455027" font-size="8px"></text><text class="label" x="269.40638974190904" y="398.3621531167201" font-size="8px"></text><text class="label" x="351.3121895975255" y="411.5402314879375" font-size="8px"></text></g><g style="font-size: 13px;"><rect x="150" y="422.7715799748988" width="174.3497483370094" height="12.519174452656534" fill="#4472c4"></rect><rect x="150" y="435.9496583461163" width="154.42473838481757" height="12.519174452656534" fill="#ed7d31"></rect><rect x="150" y="449.1277367173337" width="165.45120542210998" height="12.519174452656534" fill="#a5a5a5"></rect><rect x="150" y="462.30581508855107" width="114.40638974190902" height="12.519174452656534" fill="#ffc000"></rect><rect x="150" y="475.48389345976847" width="117.4314237398698" height="12.519174452656534" fill="#5b9bd5"></rect><text class="label" x="332.8497483370094" y="431.2715799748988" font-size="10px">1.52x</text><text class="label" x="312.9247383848176" y="444.4496583461163" font-size="10px">1.35x</text><text class="label" x="323.95120542211" y="457.6277367173337" font-size="10px">1.45x</text><text class="label" x="272.90638974190904" y="470.80581508855107" font-size="10px">1x</text><text class="label" x="275.9314237398698" y="483.98389345976847" font-size="10px">1.03x</text><text class="label" x="329.3497483370094" y="432.7715799748988" font-size="8px"></text><text class="label" x="309.4247383848176" y="445.9496583461163" font-size="8px"></text><text class="label" x="320.45120542211" y="459.1277367173337" font-size="8px"></text><text class="label" x="269.40638974190904" y="472.30581508855107" font-size="8px"></text><text class="label" x="272.4314237398698" y="485.48389345976847" font-size="8px"></text></g><g style="font-size: 13px;"><rect x="150" y="496.71524194672986" width="130.48768447764135" height="12.519174452656534" fill="#4472c4"></rect><rect x="150" y="509.89332031794726" width="114.40638974190902" height="12.519174452656534" fill="#ed7d31"></rect><rect x="150" y="523.0713986891647" width="119.51991136228376" height="12.519174452656534" fill="#a5a5a5"></rect><rect x="150" y="536.2494770603821" width="135.51593846815615" height="12.519174452656534" fill="#ffc000"></rect><rect x="150" y="549.4275554315994" width="119.94429633024458" height="12.519174452656534" fill="#5b9bd5"></rect><text class="label" x="288.9876844776413" y="505.21524194672986" font-size="10px">1.14x</text><text class="label" x="272.90638974190904" y="518.3933203179472" font-size="10px">1x</text><text class="label" x="278.0199113622838" y="531.5713986891647" font-size="10px">1.04x</text><text class="label" x="294.01593846815615" y="544.7494770603821" font-size="10px">1.18x</text><text class="label" x="278.4442963302446" y="557.9275554315994" font-size="10px">1.05x</text><text class="label" x="285.4876844776413" y="506.71524194672986" font-size="8px"></text><text class="label" x="269.40638974190904" y="519.8933203179472" font-size="8px"></text><text class="label" x="274.5199113622838" y="533.0713986891647" font-size="8px"></text><text class="label" x="290.51593846815615" y="546.2494770603821" font-size="8px"></text><text class="label" x="274.9442963302446" y="559.4275554315994" font-size="8px"></text></g></g></svg>