<svg xmlns="http://www.w3.org/2000/svg" xmlns:xlink="http://www.w3.org/1999/xlink" width="800" height="600" style="background-color: white;"><g class="y axis" transform="translate(149,45)" fill="none" font-size="10" font-family="sans-serif" text-anchor="end" style="font-size: 13px;"><path class="domain" stroke="currentColor" d="M0.5,0.5V525.5"></path><g class="tick" opacity="1" transform="translate(0,40.66901408450705)" style="font-size: 13px;"><line stroke="currentColor" x2="0"></line><text fill="currentColor" x="-3" dy="0.32em">object (simple)    </text></g><g class="tick" opacity="1" transform="translate(0,114.61267605633802)" style="font-size: 13px;"><line stroke="currentColor" x2="0"></line><text fill="currentColor" x="-3" dy="0.32em">object (hierarchical)    </text></g><g class="tick" opacity="1" transform="translate(0,188.556338028169)" style="font-size: 13px;"><line stroke="currentColor" x2="0"></line><text fill="currentColor" x="-3" dy="0.32em">object (recursive)    </text></g><g class="tick" opacity="1" transform="translate(0,262.5)" style="font-size: 13px;"><line stroke="currentColor" x2="0"></line><text fill="currentColor" x="-3" dy="0.32em">object (union)    </text></g><g class="tick" opacity="1" transform="translate(0,336.443661971831)" style="font-size: 13px;"><line stroke="currentColor" x2="0"></line><text fill="currentColor" x="-3" dy="0.32em">array (hierarchical)    </text></g><g class="tick" opacity="1" transform="translate(0,410.38732394366195)" style="font-size: 13px;"><line stroke="currentColor" x2="0"></line><text fill="currentColor" x="-3" dy="0.32em">array (recursive)    </text></g><g class="tick" opacity="1" transform="translate(0,484.33098591549293)" style="font-size: 13px;"><line stroke="currentColor" x2="0"></line><text fill="currentColor" x="-3" dy="0.32em">array (union)    </text></g></g><g class="x axis" transform="translate(149,570)" fill="none" font-size="10" font-family="sans-serif" text-anchor="middle" style="font-size: 13px;"><path class="domain" stroke="currentColor" d="M0.5,0.5H485.5"></path><g class="tick" opacity="1" transform="translate(0.5,0)" style="font-size: 13px;"><line stroke="currentColor" y2="6"></line><text fill="currentColor" y="9" dy="0.71em">0x</text></g><g class="tick" opacity="1" transform="translate(110.0453982105369,0)" style="font-size: 13px;"><line stroke="currentColor" y2="6"></line><text fill="currentColor" y="9" dy="0.71em">1x</text></g><g class="tick" opacity="1" transform="translate(219.5907964210738,0)" style="font-size: 13px;"><line stroke="currentColor" y2="6"></line><text fill="currentColor" y="9" dy="0.71em">2x</text></g><g class="tick" opacity="1" transform="translate(329.13619463161075,0)" style="font-size: 13px;"><line stroke="currentColor" y2="6"></line><text fill="currentColor" y="9" dy="0.71em">3x</text></g><g class="tick" opacity="1" transform="translate(438.6815928421476,0)" style="font-size: 13px;"><line stroke="currentColor" y2="6"></line><text fill="currentColor" y="9" dy="0.71em">4x</text></g></g><text transform="translate(400, 30)" style="text-anchor: middle; font-size: 20px; font-weight: bold;">stringify benchmark</text><rect x="680" y="145" width="200" height="5" fill="gray"></rect><rect x="675" y="35" width="200" height="110" fill="none" stroke="black"></rect><rect x="685" y="45" width="10" height="10" style="fill: #4472c4;"></rect><text x="700" y="55" style="font-size: 12px;">TSON.stringify()</text><rect x="685" y="65" width="10" height="10" style="fill: #ed7d31;"></rect><text x="700" y="75" style="font-size: 12px;">TSON.assertStringify()</text><rect x="685" y="85" width="10" height="10" style="fill: #a5a5a5;"></rect><text x="700" y="95" style="font-size: 12px;">TSON.isStringify()</text><rect x="685" y="105" width="10" height="10" style="fill: #ffc000;"></rect><text x="700" y="115" style="font-size: 12px;">JSON.stringify()</text><rect x="685" y="125" width="10" height="10" style="fill: #5b9bd5;"></rect><text x="700" y="135" style="font-size: 12px;">fast-json-stringify</text><g style="font-size: 13px;"><g style="font-size: 13px;"><rect x="150" y="53.05327011574397" width="440.9090909090908" height="12.519174452656534" fill="#4472c4"></rect><rect x="150" y="66.23134848696137" width="359.3567177234414" height="12.519174452656534" fill="#ed7d31"></rect><rect x="150" y="79.40942685817878" width="388.591366611124" height="12.519174452656534" fill="#a5a5a5"></rect><rect x="150" y="92.58750522939619" width="109.5453982105369" height="12.519174452656534" fill="#ffc000"></rect><rect x="150" y="105.76558360061358" width="304.63037313944824" height="12.519174452656534" fill="#5b9bd5"></rect><text class="label" x="599.4090909090908" y="61.55327011574397" font-size="10px">4.02x</text><text class="label" x="517.8567177234414" y="74.73134848696137" font-size="10px">3.28x</text><text class="label" x="547.0913666111239" y="87.90942685817878" font-size="10px">3.55x</text><text class="label" x="268.0453982105369" y="101.08750522939619" font-size="10px">1x</text><text class="label" x="463.13037313944824" y="114.26558360061358" font-size="10px">2.78x</text><text class="label" x="595.9090909090908" y="63.05327011574397" font-size="8px"></text><text class="label" x="514.3567177234414" y="76.23134848696137" font-size="8px"></text><text class="label" x="543.5913666111239" y="89.40942685817878" font-size="8px"></text><text class="label" x="264.5453982105369" y="102.58750522939619" font-size="8px"></text><text class="label" x="459.63037313944824" y="115.76558360061358" font-size="8px"></text></g><g style="font-size: 13px;"><rect x="150" y="126.99693208757495" width="247.19909962107957" height="12.519174452656534" fill="#4472c4"></rect><rect x="150" y="140.17501045879237" width="226.21025245657202" height="12.519174452656534" fill="#ed7d31"></rect><rect x="150" y="153.35308883000977" width="237.90480792763321" height="12.519174452656534" fill="#a5a5a5"></rect><rect x="150" y="166.53116720122716" width="109.5453982105369" height="12.519174452656534" fill="#ffc000"></rect><rect x="150" y="179.70924557244456" width="233.87573296220484" height="12.519174452656534" fill="#5b9bd5"></rect><text class="label" x="405.69909962107954" y="135.49693208757495" font-size="10px">2.26x</text><text class="label" x="384.710252456572" y="148.67501045879237" font-size="10px">2.06x</text><text class="label" x="396.4048079276332" y="161.85308883000977" font-size="10px">2.17x</text><text class="label" x="268.0453982105369" y="175.03116720122716" font-size="10px">1x</text><text class="label" x="392.37573296220484" y="188.20924557244456" font-size="10px">2.13x</text><text class="label" x="402.19909962107954" y="136.99693208757495" font-size="8px"></text><text class="label" x="381.210252456572" y="150.17501045879237" font-size="8px"></text><text class="label" x="392.9048079276332" y="163.35308883000977" font-size="8px"></text><text class="label" x="264.5453982105369" y="176.53116720122716" font-size="8px"></text><text class="label" x="388.87573296220484" y="189.70924557244456" font-size="8px"></text></g><g style="font-size: 13px;"><rect x="150" y="200.94059405940592" width="245.35078278876105" height="12.519174452656534" fill="#4472c4"></rect><rect x="150" y="214.11867243062332" width="227.47916217190215" height="12.519174452656534" fill="#ed7d31"></rect><rect x="150" y="227.29675080184074" width="241.7317673343792" height="12.519174452656534" fill="#a5a5a5"></rect><rect x="150" y="240.47482917305814" width="109.5453982105369" height="12.519174452656534" fill="#ffc000"></rect><rect x="150" y="253.65290754427554" width="110.20065702253906" height="12.519174452656534" fill="#5b9bd5"></rect><text class="label" x="403.8507827887611" y="209.44059405940592" font-size="10px">2.24x</text><text class="label" x="385.97916217190215" y="222.61867243062332" font-size="10px">2.08x</text><text class="label" x="400.23176733437924" y="235.79675080184074" font-size="10px">2.21x</text><text class="label" x="268.0453982105369" y="248.97482917305814" font-size="10px">1x</text><text class="label" x="268.7006570225391" y="262.15290754427554" font-size="10px">1.01x</text><text class="label" x="400.3507827887611" y="210.94059405940592" font-size="8px"></text><text class="label" x="382.47916217190215" y="224.11867243062332" font-size="8px"></text><text class="label" x="396.73176733437924" y="237.29675080184074" font-size="8px"></text><text class="label" x="264.5453982105369" y="250.47482917305814" font-size="8px"></text><text class="label" x="265.2006570225391" y="263.65290754427554" font-size="8px"></text></g><g style="font-size: 13px;"><rect x="150" y="274.8842560312369" width="154.02430972303654" height="12.519174452656534" fill="#4472c4"></rect><rect x="150" y="288.0623344024543" width="124.09612840220552" height="12.519174452656534" fill="#ed7d31"></rect><rect x="150" y="301.2404127736717" width="143.00576939068097" height="12.519174452656534" fill="#a5a5a5"></rect><rect x="150" y="314.4184911448891" width="109.5453982105369" height="12.519174452656534" fill="#ffc000"></rect><rect x="150" y="327.5965695161065" width="140.72449496368728" height="12.519174452656534" fill="#5b9bd5"></rect><text class="label" x="312.52430972303654" y="283.3842560312369" font-size="10px">1.41x</text><text class="label" x="282.5961284022055" y="296.5623344024543" font-size="10px">1.13x</text><text class="label" x="301.50576939068094" y="309.7404127736717" font-size="10px">1.31x</text><text class="label" x="268.0453982105369" y="322.9184911448891" font-size="10px">1x</text><text class="label" x="299.2244949636873" y="336.0965695161065" font-size="10px">1.28x</text><text class="label" x="309.02430972303654" y="284.8842560312369" font-size="8px"></text><text class="label" x="279.0961284022055" y="298.0623344024543" font-size="8px"></text><text class="label" x="298.00576939068094" y="311.2404127736717" font-size="8px"></text><text class="label" x="264.5453982105369" y="324.4184911448891" font-size="8px"></text><text class="label" x="295.7244949636873" y="337.5965695161065" font-size="8px"></text></g><g style="font-size: 13px;"><rect x="150" y="348.8279180030679" width="142.5429803381055" height="12.519174452656534" fill="#4472c4"></rect><rect x="150" y="362.0059963742853" width="127.79112037545909" height="12.519174452656534" fill="#ed7d31"></rect><rect x="150" y="375.1840747455027" width="139.30072334998746" height="12.519174452656534" fill="#a5a5a5"></rect><rect x="150" y="388.3621531167201" width="109.5453982105369" height="12.519174452656534" fill="#ffc000"></rect><rect x="150" y="401.5402314879375" width="188.12685765236097" height="12.519174452656534" fill="#5b9bd5"></rect><text class="label" x="301.0429803381055" y="357.3279180030679" font-size="10px">1.3x</text><text class="label" x="286.29112037545906" y="370.5059963742853" font-size="10px">1.17x</text><text class="label" x="297.8007233499875" y="383.6840747455027" font-size="10px">1.27x</text><text class="label" x="268.0453982105369" y="396.8621531167201" font-size="10px">1x</text><text class="label" x="346.62685765236097" y="410.0402314879375" font-size="10px">1.72x</text><text class="label" x="297.5429803381055" y="358.8279180030679" font-size="8px"></text><text class="label" x="282.79112037545906" y="372.0059963742853" font-size="8px"></text><text class="label" x="294.3007233499875" y="385.1840747455027" font-size="8px"></text><text class="label" x="264.5453982105369" y="398.3621531167201" font-size="8px"></text><text class="label" x="343.12685765236097" y="411.5402314879375" font-size="8px"></text></g><g style="font-size: 13px;"><rect x="150" y="422.7715799748988" width="155.16016186410974" height="12.519174452656534" fill="#4472c4"></rect><rect x="150" y="435.9496583461163" width="138.0316259717527" height="12.519174452656534" fill="#ed7d31"></rect><rect x="150" y="449.1277367173337" width="147.47041686444481" height="12.519174452656534" fill="#a5a5a5"></rect><rect x="150" y="462.30581508855107" width="109.77098018292139" height="12.519174452656534" fill="#ffc000"></rect><rect x="150" y="475.48389345976847" width="109.5453982105369" height="12.519174452656534" fill="#5b9bd5"></rect><text class="label" x="313.66016186410974" y="431.2715799748988" font-size="10px">1.42x</text><text class="label" x="296.5316259717527" y="444.4496583461163" font-size="10px">1.26x</text><text class="label" x="305.9704168644448" y="457.6277367173337" font-size="10px">1.35x</text><text class="label" x="268.2709801829214" y="470.80581508855107" font-size="10px">1x</text><text class="label" x="268.0453982105369" y="483.98389345976847" font-size="10px">1x</text><text class="label" x="310.16016186410974" y="432.7715799748988" font-size="8px"></text><text class="label" x="293.0316259717527" y="445.9496583461163" font-size="8px"></text><text class="label" x="302.4704168644448" y="459.1277367173337" font-size="8px"></text><text class="label" x="264.7709801829214" y="472.30581508855107" font-size="8px"></text><text class="label" x="264.5453982105369" y="485.48389345976847" font-size="8px"></text></g><g style="font-size: 13px;"><rect x="150" y="496.71524194672986" width="122.10339328247176" height="12.519174452656534" fill="#4472c4"></rect><rect x="150" y="509.89332031794726" width="109.5453982105369" height="12.519174452656534" fill="#ed7d31"></rect><rect x="150" y="523.0713986891647" width="112.53635569374705" height="12.519174452656534" fill="#a5a5a5"></rect><rect x="150" y="536.2494770603821" width="133.89450198378896" height="12.519174452656534" fill="#ffc000"></rect><rect x="150" y="549.4275554315994" width="120.12233830220403" height="12.519174452656534" fill="#5b9bd5"></rect><text class="label" x="280.60339328247176" y="505.21524194672986" font-size="10px">1.11x</text><text class="label" x="268.0453982105369" y="518.3933203179472" font-size="10px">1x</text><text class="label" x="271.03635569374705" y="531.5713986891647" font-size="10px">1.03x</text><text class="label" x="292.3945019837889" y="544.7494770603821" font-size="10px">1.22x</text><text class="label" x="278.622338302204" y="557.9275554315994" font-size="10px">1.1x</text><text class="label" x="277.10339328247176" y="506.71524194672986" font-size="8px"></text><text class="label" x="264.5453982105369" y="519.8933203179472" font-size="8px"></text><text class="label" x="267.53635569374705" y="533.0713986891647" font-size="8px"></text><text class="label" x="288.8945019837889" y="546.2494770603821" font-size="8px"></text><text class="label" x="275.122338302204" y="559.4275554315994" font-size="8px"></text></g></g></svg>
