<svg xmlns="http://www.w3.org/2000/svg" xmlns:xlink="http://www.w3.org/1999/xlink" width="800" height="600" style="background-color: white;"><g class="y axis" transform="translate(149,45)" fill="none" font-size="10" font-family="sans-serif" text-anchor="end" style="font-size: 13px;"><path class="domain" stroke="currentColor" d="M0.5,0.5V525.5"></path><g class="tick" opacity="1" transform="translate(0,40.66901408450705)" style="font-size: 13px;"><line stroke="currentColor" x2="0"></line><text fill="currentColor" x="-3" dy="0.32em">object (simple)    </text></g><g class="tick" opacity="1" transform="translate(0,114.61267605633802)" style="font-size: 13px;"><line stroke="currentColor" x2="0"></line><text fill="currentColor" x="-3" dy="0.32em">object (hierarchical)    </text></g><g class="tick" opacity="1" transform="translate(0,188.556338028169)" style="font-size: 13px;"><line stroke="currentColor" x2="0"></line><text fill="currentColor" x="-3" dy="0.32em">object (recursive)    </text></g><g class="tick" opacity="1" transform="translate(0,262.5)" style="font-size: 13px;"><line stroke="currentColor" x2="0"></line><text fill="currentColor" x="-3" dy="0.32em">object (union)    </text></g><g class="tick" opacity="1" transform="translate(0,336.443661971831)" style="font-size: 13px;"><line stroke="currentColor" x2="0"></line><text fill="currentColor" x="-3" dy="0.32em">array (hierarchical)    </text></g><g class="tick" opacity="1" transform="translate(0,410.38732394366195)" style="font-size: 13px;"><line stroke="currentColor" x2="0"></line><text fill="currentColor" x="-3" dy="0.32em">array (recursive)    </text></g><g class="tick" opacity="1" transform="translate(0,484.33098591549293)" style="font-size: 13px;"><line stroke="currentColor" x2="0"></line><text fill="currentColor" x="-3" dy="0.32em">array (union)    </text></g></g><g class="x axis" transform="translate(149,570)" fill="none" font-size="10" font-family="sans-serif" text-anchor="middle" style="font-size: 13px;"><path class="domain" stroke="currentColor" d="M0.5,0.5H485.5"></path><g class="tick" opacity="1" transform="translate(0.5,0)" style="font-size: 13px;"><line stroke="currentColor" y2="6"></line><text fill="currentColor" y="9" dy="0.71em">0x</text></g><g class="tick" opacity="1" transform="translate(115.2632974025115,0)" style="font-size: 13px;"><line stroke="currentColor" y2="6"></line><text fill="currentColor" y="9" dy="0.71em">1x</text></g><g class="tick" opacity="1" transform="translate(230.026594805023,0)" style="font-size: 13px;"><line stroke="currentColor" y2="6"></line><text fill="currentColor" y="9" dy="0.71em">2x</text></g><g class="tick" opacity="1" transform="translate(344.7898922075345,0)" style="font-size: 13px;"><line stroke="currentColor" y2="6"></line><text fill="currentColor" y="9" dy="0.71em">3x</text></g><g class="tick" opacity="1" transform="translate(459.553189610046,0)" style="font-size: 13px;"><line stroke="currentColor" y2="6"></line><text fill="currentColor" y="9" dy="0.71em">4x</text></g></g><text transform="translate(400, 30)" style="text-anchor: middle; font-size: 20px; font-weight: bold;">stringify benchmark</text><rect x="680" y="145" width="200" height="5" fill="gray"></rect><rect x="675" y="35" width="200" height="110" fill="none" stroke="black"></rect><rect x="685" y="45" width="10" height="10" style="fill: #4472c4;"></rect><text x="700" y="55" style="font-size: 12px;">TSON.stringify()</text><rect x="685" y="65" width="10" height="10" style="fill: #ed7d31;"></rect><text x="700" y="75" style="font-size: 12px;">TSON.assertStringify()</text><rect x="685" y="85" width="10" height="10" style="fill: #a5a5a5;"></rect><text x="700" y="95" style="font-size: 12px;">TSON.isStringify()</text><rect x="685" y="105" width="10" height="10" style="fill: #ffc000;"></rect><text x="700" y="115" style="font-size: 12px;">JSON.stringify()</text><rect x="685" y="125" width="10" height="10" style="fill: #5b9bd5;"></rect><text x="700" y="135" style="font-size: 12px;">fast-json-stringify</text><g style="font-size: 13px;"><g style="font-size: 13px;"><rect x="150" y="53.05327011574397" width="440.9090909090908" height="12.519174452656534" fill="#4472c4"></rect><rect x="150" y="66.23134848696137" width="339.1525721611964" height="12.519174452656534" fill="#ed7d31"></rect><rect x="150" y="79.40942685817878" width="358.646152902065" height="12.519174452656534" fill="#a5a5a5"></rect><rect x="150" y="92.58750522939619" width="114.7632974025115" height="12.519174452656534" fill="#ffc000"></rect><rect x="150" y="105.76558360061358" width="301.6299405667624" height="12.519174452656534" fill="#5b9bd5"></rect><text class="label" x="599.4090909090908" y="61.55327011574397" font-size="10px">3.84x</text><text class="label" x="497.6525721611964" y="74.73134848696137" font-size="10px">2.96x</text><text class="label" x="517.1461529020651" y="87.90942685817878" font-size="10px">3.13x</text><text class="label" x="273.2632974025115" y="101.08750522939619" font-size="10px">1x</text><text class="label" x="460.1299405667624" y="114.26558360061358" font-size="10px">2.63x</text><text class="label" x="595.9090909090908" y="63.05327011574397" font-size="8px"></text><text class="label" x="494.1525721611964" y="76.23134848696137" font-size="8px"></text><text class="label" x="513.6461529020651" y="89.40942685817878" font-size="8px"></text><text class="label" x="269.7632974025115" y="102.58750522939619" font-size="8px"></text><text class="label" x="456.6299405667624" y="115.76558360061358" font-size="8px"></text></g><g style="font-size: 13px;"><rect x="150" y="126.99693208757495" width="231.45826803692822" height="12.519174452656534" fill="#4472c4"></rect><rect x="150" y="140.17501045879237" width="203.90438186324985" height="12.519174452656534" fill="#ed7d31"></rect><rect x="150" y="153.35308883000977" width="210.36699835917983" height="12.519174452656534" fill="#a5a5a5"></rect><rect x="150" y="166.53116720122716" width="114.7632974025115" height="12.519174452656534" fill="#ffc000"></rect><rect x="150" y="179.70924557244456" width="223.91007582194237" height="12.519174452656534" fill="#5b9bd5"></rect><text class="label" x="389.9582680369282" y="135.49693208757495" font-size="10px">2.02x</text><text class="label" x="362.40438186324985" y="148.67501045879237" font-size="10px">1.78x</text><text class="label" x="368.86699835917983" y="161.85308883000977" font-size="10px">1.83x</text><text class="label" x="273.2632974025115" y="175.03116720122716" font-size="10px">1x</text><text class="label" x="382.41007582194237" y="188.20924557244456" font-size="10px">1.95x</text><text class="label" x="386.4582680369282" y="136.99693208757495" font-size="8px"></text><text class="label" x="358.90438186324985" y="150.17501045879237" font-size="8px"></text><text class="label" x="365.36699835917983" y="163.35308883000977" font-size="8px"></text><text class="label" x="269.7632974025115" y="176.53116720122716" font-size="8px"></text><text class="label" x="378.91007582194237" y="189.70924557244456" font-size="8px"></text></g><g style="font-size: 13px;"><rect x="150" y="200.94059405940592" width="265.7582194564668" height="12.519174452656534" fill="#4472c4"></rect><rect x="150" y="214.11867243062332" width="241.8290508383887" height="12.519174452656534" fill="#ed7d31"></rect><rect x="150" y="227.29675080184074" width="265.4427398591141" height="12.519174452656534" fill="#a5a5a5"></rect><rect x="150" y="240.47482917305814" width="116.47129065760231" height="12.519174452656534" fill="#ffc000"></rect><rect x="150" y="253.65290754427554" width="114.7632974025115" height="12.519174452656534" fill="#5b9bd5"></rect><text class="label" x="424.2582194564668" y="209.44059405940592" font-size="10px">2.32x</text><text class="label" x="400.3290508383887" y="222.61867243062332" font-size="10px">2.11x</text><text class="label" x="423.9427398591141" y="235.79675080184074" font-size="10px">2.31x</text><text class="label" x="274.9712906576023" y="248.97482917305814" font-size="10px">1.01x</text><text class="label" x="273.2632974025115" y="262.15290754427554" font-size="10px">1x</text><text class="label" x="420.7582194564668" y="210.94059405940592" font-size="8px"></text><text class="label" x="396.8290508383887" y="224.11867243062332" font-size="8px"></text><text class="label" x="420.4427398591141" y="237.29675080184074" font-size="8px"></text><text class="label" x="271.4712906576023" y="250.47482917305814" font-size="8px"></text><text class="label" x="269.7632974025115" y="263.65290754427554" font-size="8px"></text></g><g style="font-size: 13px;"><rect x="150" y="274.8842560312369" width="141.91668421090895" height="12.519174452656534" fill="#4472c4"></rect><rect x="150" y="288.0623344024543" width="114.7632974025115" height="12.519174452656534" fill="#ed7d31"></rect><rect x="150" y="301.2404127736717" width="133.6211325772066" height="12.519174452656534" fill="#a5a5a5"></rect><rect x="150" y="314.4184911448891" width="130.88402047363124" height="12.519174452656534" fill="#ffc000"></rect><rect x="150" y="327.5965695161065" width="154.61184948111395" height="12.519174452656534" fill="#5b9bd5"></rect><text class="label" x="300.41668421090895" y="283.3842560312369" font-size="10px">1.24x</text><text class="label" x="273.2632974025115" y="296.5623344024543" font-size="10px">1x</text><text class="label" x="292.1211325772066" y="309.7404127736717" font-size="10px">1.16x</text><text class="label" x="289.38402047363127" y="322.9184911448891" font-size="10px">1.14x</text><text class="label" x="313.11184948111395" y="336.0965695161065" font-size="10px">1.35x</text><text class="label" x="296.91668421090895" y="284.8842560312369" font-size="8px"></text><text class="label" x="269.7632974025115" y="298.0623344024543" font-size="8px"></text><text class="label" x="288.6211325772066" y="311.2404127736717" font-size="8px"></text><text class="label" x="285.88402047363127" y="324.4184911448891" font-size="8px"></text><text class="label" x="309.61184948111395" y="337.5965695161065" font-size="8px"></text></g><g style="font-size: 13px;"><rect x="150" y="348.8279180030679" width="126.9373240787468" height="12.519174452656534" fill="#4472c4"></rect><rect x="150" y="362.0059963742853" width="117.89779447351984" height="12.519174452656534" fill="#ed7d31"></rect><rect x="150" y="375.1840747455027" width="124.08499702965294" height="12.519174452656534" fill="#a5a5a5"></rect><rect x="150" y="388.3621531167201" width="114.7632974025115" height="12.519174452656534" fill="#ffc000"></rect><rect x="150" y="401.5402314879375" width="194.39149456261137" height="12.519174452656534" fill="#5b9bd5"></rect><text class="label" x="285.43732407874677" y="357.3279180030679" font-size="10px">1.11x</text><text class="label" x="276.39779447351987" y="370.5059963742853" font-size="10px">1.03x</text><text class="label" x="282.5849970296529" y="383.6840747455027" font-size="10px">1.08x</text><text class="label" x="273.2632974025115" y="396.8621531167201" font-size="10px">1x</text><text class="label" x="352.89149456261134" y="410.0402314879375" font-size="10px">1.69x</text><text class="label" x="281.93732407874677" y="358.8279180030679" font-size="8px"></text><text class="label" x="272.89779447351987" y="372.0059963742853" font-size="8px"></text><text class="label" x="279.0849970296529" y="385.1840747455027" font-size="8px"></text><text class="label" x="269.7632974025115" y="398.3621531167201" font-size="8px"></text><text class="label" x="349.39149456261134" y="411.5402314879375" font-size="8px"></text></g><g style="font-size: 13px;"><rect x="150" y="422.7715799748988" width="131.61349634773495" height="12.519174452656534" fill="#4472c4"></rect><rect x="150" y="435.9496583461163" width="116.45595885841391" height="12.519174452656534" fill="#ed7d31"></rect><rect x="150" y="449.1277367173337" width="125.58399216448501" height="12.519174452656534" fill="#a5a5a5"></rect><rect x="150" y="462.30581508855107" width="115.25925955224315" height="12.519174452656534" fill="#ffc000"></rect><rect x="150" y="475.48389345976847" width="114.7632974025115" height="12.519174452656534" fill="#5b9bd5"></rect><text class="label" x="290.11349634773495" y="431.2715799748988" font-size="10px">1.15x</text><text class="label" x="274.9559588584139" y="444.4496583461163" font-size="10px">1.01x</text><text class="label" x="284.08399216448504" y="457.6277367173337" font-size="10px">1.09x</text><text class="label" x="273.7592595522432" y="470.80581508855107" font-size="10px">1x</text><text class="label" x="273.2632974025115" y="483.98389345976847" font-size="10px">1x</text><text class="label" x="286.61349634773495" y="432.7715799748988" font-size="8px"></text><text class="label" x="271.4559588584139" y="445.9496583461163" font-size="8px"></text><text class="label" x="280.58399216448504" y="459.1277367173337" font-size="8px"></text><text class="label" x="270.2592595522432" y="472.30581508855107" font-size="8px"></text><text class="label" x="269.7632974025115" y="485.48389345976847" font-size="8px"></text></g><g style="font-size: 13px;"><rect x="150" y="496.71524194672986" width="133.86090110546104" height="12.519174452656534" fill="#4472c4"></rect><rect x="150" y="509.89332031794726" width="114.7632974025115" height="12.519174452656534" fill="#ed7d31"></rect><rect x="150" y="523.0713986891647" width="121.51190541645917" height="12.519174452656534" fill="#a5a5a5"></rect><rect x="150" y="536.2494770603821" width="204.05810327936055" height="12.519174452656534" fill="#ffc000"></rect><rect x="150" y="549.4275554315994" width="175.7394804178865" height="12.519174452656534" fill="#5b9bd5"></rect><text class="label" x="292.36090110546104" y="505.21524194672986" font-size="10px">1.17x</text><text class="label" x="273.2632974025115" y="518.3933203179472" font-size="10px">1x</text><text class="label" x="280.0119054164592" y="531.5713986891647" font-size="10px">1.06x</text><text class="label" x="362.5581032793606" y="544.7494770603821" font-size="10px">1.78x</text><text class="label" x="334.2394804178865" y="557.9275554315994" font-size="10px">1.53x</text><text class="label" x="288.86090110546104" y="506.71524194672986" font-size="8px"></text><text class="label" x="269.7632974025115" y="519.8933203179472" font-size="8px"></text><text class="label" x="276.5119054164592" y="533.0713986891647" font-size="8px"></text><text class="label" x="359.0581032793606" y="546.2494770603821" font-size="8px"></text><text class="label" x="330.7394804178865" y="559.4275554315994" font-size="8px"></text></g></g></svg>