<svg xmlns="http://www.w3.org/2000/svg" xmlns:xlink="http://www.w3.org/1999/xlink" width="800" height="600" style="background-color: white;"><g class="y axis" transform="translate(149,45)" fill="none" font-size="10" font-family="sans-serif" text-anchor="end" style="font-size: 13px;"><path class="domain" stroke="currentColor" d="M0.5,0.5V525.5"></path><g class="tick" opacity="1" transform="translate(0,40.66901408450705)" style="font-size: 13px;"><line stroke="currentColor" x2="0"></line><text fill="currentColor" x="-3" dy="0.32em">object (simple)    </text></g><g class="tick" opacity="1" transform="translate(0,114.61267605633802)" style="font-size: 13px;"><line stroke="currentColor" x2="0"></line><text fill="currentColor" x="-3" dy="0.32em">object (hierarchical)    </text></g><g class="tick" opacity="1" transform="translate(0,188.556338028169)" style="font-size: 13px;"><line stroke="currentColor" x2="0"></line><text fill="currentColor" x="-3" dy="0.32em">object (recursive)    </text></g><g class="tick" opacity="1" transform="translate(0,262.5)" style="font-size: 13px;"><line stroke="currentColor" x2="0"></line><text fill="currentColor" x="-3" dy="0.32em">object (union)    </text></g><g class="tick" opacity="1" transform="translate(0,336.443661971831)" style="font-size: 13px;"><line stroke="currentColor" x2="0"></line><text fill="currentColor" x="-3" dy="0.32em">array (hierarchical)    </text></g><g class="tick" opacity="1" transform="translate(0,410.38732394366195)" style="font-size: 13px;"><line stroke="currentColor" x2="0"></line><text fill="currentColor" x="-3" dy="0.32em">array (recursive)    </text></g><g class="tick" opacity="1" transform="translate(0,484.33098591549293)" style="font-size: 13px;"><line stroke="currentColor" x2="0"></line><text fill="currentColor" x="-3" dy="0.32em">array (union)    </text></g></g><g class="x axis" transform="translate(149,570)" fill="none" font-size="10" font-family="sans-serif" text-anchor="middle" style="font-size: 13px;"><path class="domain" stroke="currentColor" d="M0.5,0.5H485.5"></path><g class="tick" opacity="1" transform="translate(0.5,0)" style="font-size: 13px;"><line stroke="currentColor" y2="6"></line><text fill="currentColor" y="9" dy="0.71em">0x</text></g><g class="tick" opacity="1" transform="translate(73.46799278398072,0)" style="font-size: 13px;"><line stroke="currentColor" y2="6"></line><text fill="currentColor" y="9" dy="0.71em">1x</text></g><g class="tick" opacity="1" transform="translate(146.43598556796144,0)" style="font-size: 13px;"><line stroke="currentColor" y2="6"></line><text fill="currentColor" y="9" dy="0.71em">2x</text></g><g class="tick" opacity="1" transform="translate(219.40397835194216,0)" style="font-size: 13px;"><line stroke="currentColor" y2="6"></line><text fill="currentColor" y="9" dy="0.71em">3x</text></g><g class="tick" opacity="1" transform="translate(292.3719711359229,0)" style="font-size: 13px;"><line stroke="currentColor" y2="6"></line><text fill="currentColor" y="9" dy="0.71em">4x</text></g><g class="tick" opacity="1" transform="translate(365.33996391990354,0)" style="font-size: 13px;"><line stroke="currentColor" y2="6"></line><text fill="currentColor" y="9" dy="0.71em">5x</text></g><g class="tick" opacity="1" transform="translate(438.3079567038843,0)" style="font-size: 13px;"><line stroke="currentColor" y2="6"></line><text fill="currentColor" y="9" dy="0.71em">6x</text></g></g><text transform="translate(400, 30)" style="text-anchor: middle; font-size: 20px; font-weight: bold;">stringify benchmark</text><rect x="680" y="145" width="200" height="5" fill="gray"></rect><rect x="675" y="35" width="200" height="110" fill="none" stroke="black"></rect><rect x="685" y="45" width="10" height="10" style="fill: #4472c4;"></rect><text x="700" y="55" style="font-size: 12px;">TSON.stringify()</text><rect x="685" y="65" width="10" height="10" style="fill: #ed7d31;"></rect><text x="700" y="75" style="font-size: 12px;">TSON.assertStringify()</text><rect x="685" y="85" width="10" height="10" style="fill: #a5a5a5;"></rect><text x="700" y="95" style="font-size: 12px;">TSON.isStringify()</text><rect x="685" y="105" width="10" height="10" style="fill: #ffc000;"></rect><text x="700" y="115" style="font-size: 12px;">JSON.stringify()</text><rect x="685" y="125" width="10" height="10" style="fill: #5b9bd5;"></rect><text x="700" y="135" style="font-size: 12px;">fast-json-stringify</text><g style="font-size: 13px;"><g style="font-size: 13px;"><rect x="150" y="53.05327011574397" width="440.9090909090909" height="12.519174452656534" fill="#4472c4"></rect><rect x="150" y="66.23134848696137" width="364.10253820390005" height="12.519174452656534" fill="#ed7d31"></rect><rect x="150" y="79.40942685817878" width="362.5218488402852" height="12.519174452656534" fill="#a5a5a5"></rect><rect x="150" y="92.58750522939619" width="72.96799278398072" height="12.519174452656534" fill="#ffc000"></rect><rect x="150" y="105.76558360061358" width="334.4863442109797" height="12.519174452656534" fill="#5b9bd5"></rect><text class="label" x="599.4090909090909" y="61.55327011574397" font-size="10px">6.04x</text><text class="label" x="522.6025382039" y="74.73134848696137" font-size="10px">4.99x</text><text class="label" x="521.0218488402852" y="87.90942685817878" font-size="10px">4.97x</text><text class="label" x="231.46799278398072" y="101.08750522939619" font-size="10px">1x</text><text class="label" x="492.9863442109797" y="114.26558360061358" font-size="10px">4.58x</text><text class="label" x="595.9090909090909" y="63.05327011574397" font-size="8px"></text><text class="label" x="519.1025382039" y="76.23134848696137" font-size="8px"></text><text class="label" x="517.5218488402852" y="89.40942685817878" font-size="8px"></text><text class="label" x="227.96799278398072" y="102.58750522939619" font-size="8px"></text><text class="label" x="489.4863442109797" y="115.76558360061358" font-size="8px"></text></g><g style="font-size: 13px;"><rect x="150" y="126.99693208757495" width="239.78001164755622" height="12.519174452656534" fill="#4472c4"></rect><rect x="150" y="140.17501045879237" width="210.64953922530924" height="12.519174452656534" fill="#ed7d31"></rect><rect x="150" y="153.35308883000977" width="223.81624089875734" height="12.519174452656534" fill="#a5a5a5"></rect><rect x="150" y="166.53116720122716" width="72.96799278398072" height="12.519174452656534" fill="#ffc000"></rect><rect x="150" y="179.70924557244456" width="234.2784903396866" height="12.519174452656534" fill="#5b9bd5"></rect><text class="label" x="398.2800116475562" y="135.49693208757495" font-size="10px">3.29x</text><text class="label" x="369.14953922530924" y="148.67501045879237" font-size="10px">2.89x</text><text class="label" x="382.3162408987573" y="161.85308883000977" font-size="10px">3.07x</text><text class="label" x="231.46799278398072" y="175.03116720122716" font-size="10px">1x</text><text class="label" x="392.77849033968664" y="188.20924557244456" font-size="10px">3.21x</text><text class="label" x="394.7800116475562" y="136.99693208757495" font-size="8px"></text><text class="label" x="365.64953922530924" y="150.17501045879237" font-size="8px"></text><text class="label" x="378.8162408987573" y="163.35308883000977" font-size="8px"></text><text class="label" x="227.96799278398072" y="176.53116720122716" font-size="8px"></text><text class="label" x="389.27849033968664" y="189.70924557244456" font-size="8px"></text></g><g style="font-size: 13px;"><rect x="150" y="200.94059405940592" width="287.1024433466624" height="12.519174452656534" fill="#4472c4"></rect><rect x="150" y="214.11867243062332" width="252.51542158276095" height="12.519174452656534" fill="#ed7d31"></rect><rect x="150" y="227.29675080184074" width="269.4007593213551" height="12.519174452656534" fill="#a5a5a5"></rect><rect x="150" y="240.47482917305814" width="73.7274007415097" height="12.519174452656534" fill="#ffc000"></rect><rect x="150" y="253.65290754427554" width="72.96799278398072" height="12.519174452656534" fill="#5b9bd5"></rect><text class="label" x="445.6024433466624" y="209.44059405940592" font-size="10px">3.93x</text><text class="label" x="411.01542158276095" y="222.61867243062332" font-size="10px">3.46x</text><text class="label" x="427.9007593213551" y="235.79675080184074" font-size="10px">3.69x</text><text class="label" x="232.2274007415097" y="248.97482917305814" font-size="10px">1.01x</text><text class="label" x="231.46799278398072" y="262.15290754427554" font-size="10px">1x</text><text class="label" x="442.1024433466624" y="210.94059405940592" font-size="8px"></text><text class="label" x="407.51542158276095" y="224.11867243062332" font-size="8px"></text><text class="label" x="424.4007593213551" y="237.29675080184074" font-size="8px"></text><text class="label" x="228.7274007415097" y="250.47482917305814" font-size="8px"></text><text class="label" x="227.96799278398072" y="263.65290754427554" font-size="8px"></text></g><g style="font-size: 13px;"><rect x="150" y="274.8842560312369" width="137.96446251545257" height="12.519174452656534" fill="#4472c4"></rect><rect x="150" y="288.0623344024543" width="106.89413320414033" height="12.519174452656534" fill="#ed7d31"></rect><rect x="150" y="301.2404127736717" width="125.85271216577767" height="12.519174452656534" fill="#a5a5a5"></rect><rect x="150" y="314.4184911448891" width="72.96799278398072" height="12.519174452656534" fill="#ffc000"></rect><rect x="150" y="327.5965695161065" width="136.05595620866484" height="12.519174452656534" fill="#5b9bd5"></rect><text class="label" x="296.46446251545257" y="283.3842560312369" font-size="10px">1.89x</text><text class="label" x="265.3941332041403" y="296.5623344024543" font-size="10px">1.46x</text><text class="label" x="284.3527121657777" y="309.7404127736717" font-size="10px">1.72x</text><text class="label" x="231.46799278398072" y="322.9184911448891" font-size="10px">1x</text><text class="label" x="294.55595620866484" y="336.0965695161065" font-size="10px">1.86x</text><text class="label" x="292.96446251545257" y="284.8842560312369" font-size="8px"></text><text class="label" x="261.8941332041403" y="298.0623344024543" font-size="8px"></text><text class="label" x="280.8527121657777" y="311.2404127736717" font-size="8px"></text><text class="label" x="227.96799278398072" y="324.4184911448891" font-size="8px"></text><text class="label" x="291.05595620866484" y="337.5965695161065" font-size="8px"></text></g><g style="font-size: 13px;"><rect x="150" y="348.8279180030679" width="127.92776792810942" height="12.519174452656534" fill="#4472c4"></rect><rect x="150" y="362.0059963742853" width="114.13534151278674" height="12.519174452656534" fill="#ed7d31"></rect><rect x="150" y="375.1840747455027" width="121.03026002980643" height="12.519174452656534" fill="#a5a5a5"></rect><rect x="150" y="388.3621531167201" width="72.96799278398072" height="12.519174452656534" fill="#ffc000"></rect><rect x="150" y="401.5402314879375" width="172.34631490278824" height="12.519174452656534" fill="#5b9bd5"></rect><text class="label" x="286.4277679281094" y="357.3279180030679" font-size="10px">1.75x</text><text class="label" x="272.63534151278674" y="370.5059963742853" font-size="10px">1.56x</text><text class="label" x="279.5302600298064" y="383.6840747455027" font-size="10px">1.66x</text><text class="label" x="231.46799278398072" y="396.8621531167201" font-size="10px">1x</text><text class="label" x="330.8463149027882" y="410.0402314879375" font-size="10px">2.36x</text><text class="label" x="282.9277679281094" y="358.8279180030679" font-size="8px"></text><text class="label" x="269.13534151278674" y="372.0059963742853" font-size="8px"></text><text class="label" x="276.0302600298064" y="385.1840747455027" font-size="8px"></text><text class="label" x="227.96799278398072" y="398.3621531167201" font-size="8px"></text><text class="label" x="327.3463149027882" y="411.5402314879375" font-size="8px"></text></g><g style="font-size: 13px;"><rect x="150" y="422.7715799748988" width="123.8388389209983" height="12.519174452656534" fill="#4472c4"></rect><rect x="150" y="435.9496583461163" width="108.78513084195282" height="12.519174452656534" fill="#ed7d31"></rect><rect x="150" y="449.1277367173337" width="119.01117830928048" height="12.519174452656534" fill="#a5a5a5"></rect><rect x="150" y="462.30581508855107" width="72.96799278398072" height="12.519174452656534" fill="#ffc000"></rect><rect x="150" y="475.48389345976847" width="73.17310926663382" height="12.519174452656534" fill="#5b9bd5"></rect><text class="label" x="282.3388389209983" y="431.2715799748988" font-size="10px">1.7x</text><text class="label" x="267.2851308419528" y="444.4496583461163" font-size="10px">1.49x</text><text class="label" x="277.51117830928047" y="457.6277367173337" font-size="10px">1.63x</text><text class="label" x="231.46799278398072" y="470.80581508855107" font-size="10px">1x</text><text class="label" x="231.67310926663382" y="483.98389345976847" font-size="10px">1x</text><text class="label" x="278.8388389209983" y="432.7715799748988" font-size="8px"></text><text class="label" x="263.7851308419528" y="445.9496583461163" font-size="8px"></text><text class="label" x="274.01117830928047" y="459.1277367173337" font-size="8px"></text><text class="label" x="227.96799278398072" y="472.30581508855107" font-size="8px"></text><text class="label" x="228.17310926663382" y="485.48389345976847" font-size="8px"></text></g><g style="font-size: 13px;"><rect x="150" y="496.71524194672986" width="92.01920246825654" height="12.519174452656534" fill="#4472c4"></rect><rect x="150" y="509.89332031794726" width="77.4928449800309" height="12.519174452656534" fill="#ed7d31"></rect><rect x="150" y="523.0713986891647" width="80.99629454498572" height="12.519174452656534" fill="#a5a5a5"></rect><rect x="150" y="536.2494770603821" width="81.71166525714725" height="12.519174452656534" fill="#ffc000"></rect><rect x="150" y="549.4275554315994" width="72.96799278398072" height="12.519174452656534" fill="#5b9bd5"></rect><text class="label" x="250.51920246825654" y="505.21524194672986" font-size="10px">1.26x</text><text class="label" x="235.9928449800309" y="518.3933203179472" font-size="10px">1.06x</text><text class="label" x="239.49629454498572" y="531.5713986891647" font-size="10px">1.11x</text><text class="label" x="240.21166525714725" y="544.7494770603821" font-size="10px">1.12x</text><text class="label" x="231.46799278398072" y="557.9275554315994" font-size="10px">1x</text><text class="label" x="247.01920246825654" y="506.71524194672986" font-size="8px"></text><text class="label" x="232.4928449800309" y="519.8933203179472" font-size="8px"></text><text class="label" x="235.99629454498572" y="533.0713986891647" font-size="8px"></text><text class="label" x="236.71166525714725" y="546.2494770603821" font-size="8px"></text><text class="label" x="227.96799278398072" y="559.4275554315994" font-size="8px"></text></g></g></svg>