<svg xmlns="http://www.w3.org/2000/svg" xmlns:xlink="http://www.w3.org/1999/xlink" width="800" height="885" style="background-color: white;"><g class="y axis" transform="translate(149,45)" fill="none" font-size="10" font-family="sans-serif" text-anchor="end" style="font-size: 13px;"><path class="domain" stroke="currentColor" d="M0.5,0.5V810.5"></path><g class="tick" opacity="1" transform="translate(0,48.95604395604397)" style="font-size: 13px;"><line stroke="currentColor" x2="0"></line><text fill="currentColor" x="-3" dy="0.32em">object (simple)    </text></g><g class="tick" opacity="1" transform="translate(0,137.967032967033)" style="font-size: 13px;"><line stroke="currentColor" x2="0"></line><text fill="currentColor" x="-3" dy="0.32em">object (hierarchical)    </text></g><g class="tick" opacity="1" transform="translate(0,226.97802197802199)" style="font-size: 13px;"><line stroke="currentColor" x2="0"></line><text fill="currentColor" x="-3" dy="0.32em">object (recursive)    </text></g><g class="tick" opacity="1" transform="translate(0,315.989010989011)" style="font-size: 13px;"><line stroke="currentColor" x2="0"></line><text fill="currentColor" x="-3" dy="0.32em">object (union, explicit)    </text></g><g class="tick" opacity="1" transform="translate(0,405)" style="font-size: 13px;"><line stroke="currentColor" x2="0"></line><text fill="currentColor" x="-3" dy="0.32em">object (union, implicit)    </text></g><g class="tick" opacity="1" transform="translate(0,494.010989010989)" style="font-size: 13px;"><line stroke="currentColor" x2="0"></line><text fill="currentColor" x="-3" dy="0.32em">array (recursive)    </text></g><g class="tick" opacity="1" transform="translate(0,583.021978021978)" style="font-size: 13px;"><line stroke="currentColor" x2="0"></line><text fill="currentColor" x="-3" dy="0.32em">array (union, explicit)    </text></g><g class="tick" opacity="1" transform="translate(0,672.0329670329671)" style="font-size: 13px;"><line stroke="currentColor" x2="0"></line><text fill="currentColor" x="-3" dy="0.32em">array (union, implicit)    </text></g><g class="tick" opacity="1" transform="translate(0,761.043956043956)" style="font-size: 13px;"><line stroke="currentColor" x2="0"></line><text fill="currentColor" x="-3" dy="0.32em">ultimate union    </text></g></g><g class="x axis" transform="translate(149,855)" fill="none" font-size="10" font-family="sans-serif" text-anchor="middle" style="font-size: 13px;"><path class="domain" stroke="currentColor" d="M0.5,0.5H485.5"></path><g class="tick" opacity="1" transform="translate(0.5,0)" style="font-size: 13px;"><line stroke="currentColor" y2="6"></line><text fill="currentColor" y="9" dy="0.71em">0x</text></g><g class="tick" opacity="1" transform="translate(86.82429260146976,0)" style="font-size: 13px;"><line stroke="currentColor" y2="6"></line><text fill="currentColor" y="9" dy="0.71em">2,000x</text></g><g class="tick" opacity="1" transform="translate(173.14858520293953,0)" style="font-size: 13px;"><line stroke="currentColor" y2="6"></line><text fill="currentColor" y="9" dy="0.71em">4,000x</text></g><g class="tick" opacity="1" transform="translate(259.47287780440934,0)" style="font-size: 13px;"><line stroke="currentColor" y2="6"></line><text fill="currentColor" y="9" dy="0.71em">6,000x</text></g><g class="tick" opacity="1" transform="translate(345.79717040587906,0)" style="font-size: 13px;"><line stroke="currentColor" y2="6"></line><text fill="currentColor" y="9" dy="0.71em">8,000x</text></g><g class="tick" opacity="1" transform="translate(432.12146300734884,0)" style="font-size: 13px;"><line stroke="currentColor" y2="6"></line><text fill="currentColor" y="9" dy="0.71em">10,000x</text></g></g><text transform="translate(400, 30)" style="text-anchor: middle; font-size: 20px; font-weight: bold;">is benchmark</text><rect x="680" y="165" width="200" height="5" fill="gray"></rect><rect x="675" y="35" width="200" height="130" fill="none" stroke="black"></rect><rect x="685" y="45" width="10" height="10" style="fill: #4472c4;"></rect><text x="700" y="55" style="font-size: 12px;">typescript-json</text><rect x="685" y="65" width="10" height="10" style="fill: #ed7d31;"></rect><text x="700" y="75" style="font-size: 12px;">typebox</text><rect x="685" y="85" width="10" height="10" style="fill: #a5a5a5;"></rect><text x="700" y="95" style="font-size: 12px;">ajv</text><rect x="685" y="105" width="10" height="10" style="fill: #ffc000;"></rect><text x="700" y="115" style="font-size: 12px;">io-ts</text><rect x="685" y="125" width="10" height="10" style="fill: #5b9bd5;"></rect><text x="700" y="135" style="font-size: 12px;">zod</text><rect x="685" y="145" width="10" height="10" style="fill: #70ad47;"></rect><text x="700" y="155" style="font-size: 12px;">class-validator</text><g style="font-size: 13px;"><g style="font-size: 13px;"><rect x="150" y="54.563164108618665" width="324.64017916100846" height="12.579238942875305" fill="#4472c4"></rect><rect x="150" y="67.80446825901373" width="440.9090909090909" height="12.579238942875305" fill="#ed7d31"></rect><rect x="150" y="81.04577240940878" width="174.23904066920787" height="12.579238942875305" fill="#a5a5a5"></rect><rect x="150" y="94.28707655980384" width="11.231236049996518" height="12.579238942875305" fill="#ffc000"></rect><rect x="150" y="107.5283807101989" width="1.3442587026967872" height="12.579238942875305" fill="#5b9bd5"></rect><rect x="150" y="120.76968486059396" width="0.04316214630073488" height="12.579238942875305" fill="#70ad47"></rect><text class="label" x="483.14017916100846" y="63.063164108618665" font-size="10px">7,521x</text><text class="label" x="599.4090909090909" y="76.30446825901373" font-size="10px">10,215x</text><text class="label" x="332.73904066920784" y="89.54577240940878" font-size="10px">4,037x</text><text class="label" x="169.7312360499965" y="102.78707655980384" font-size="10px">260x</text><text class="label" x="159.84425870269678" y="116.0283807101989" font-size="10px">31x</text><text class="label" x="158.54316214630074" y="129.26968486059394" font-size="10px">1x</text><text class="label" x="479.64017916100846" y="64.56316410861866" font-size="8px"></text><text class="label" x="595.9090909090909" y="77.80446825901373" font-size="8px"></text><text class="label" x="329.23904066920784" y="91.04577240940878" font-size="8px"></text><text class="label" x="166.2312360499965" y="104.28707655980384" font-size="8px"></text><text class="label" x="156.34425870269678" y="117.5283807101989" font-size="8px"></text><text class="label" x="155.04316214630074" y="130.76968486059394" font-size="8px"></text></g><g style="font-size: 13px;"><rect x="150" y="143.57415311960767" width="134.19114679662016" height="12.579238942875305" fill="#4472c4"></rect><rect x="150" y="156.81545727000272" width="142.4905063481357" height="12.579238942875305" fill="#ed7d31"></rect><rect x="150" y="170.05676142039778" width="44.03965121673603" height="12.579238942875305" fill="#a5a5a5"></rect><rect x="150" y="183.29806557079286" width="8.341593218845604" height="12.579238942875305" fill="#ffc000"></rect><rect x="150" y="196.5393697211879" width="0.44263457601349127" height="12.579238942875305" fill="#5b9bd5"></rect><rect x="150" y="209.78067387158296" width="0.04316214630073488" height="12.579238942875305" fill="#70ad47"></rect><text class="label" x="292.69114679662016" y="152.07415311960767" font-size="10px">3,109x</text><text class="label" x="300.9905063481357" y="165.31545727000272" font-size="10px">3,301x</text><text class="label" x="202.53965121673605" y="178.55676142039778" font-size="10px">1,020x</text><text class="label" x="166.84159321884562" y="191.79806557079286" font-size="10px">193x</text><text class="label" x="158.9426345760135" y="205.0393697211879" font-size="10px">10x</text><text class="label" x="158.54316214630074" y="218.28067387158296" font-size="10px">1x</text><text class="label" x="289.19114679662016" y="153.57415311960767" font-size="8px"></text><text class="label" x="297.4905063481357" y="166.81545727000272" font-size="8px"></text><text class="label" x="199.03965121673605" y="180.05676142039778" font-size="8px"></text><text class="label" x="163.34159321884562" y="193.29806557079286" font-size="8px"></text><text class="label" x="155.4426345760135" y="206.5393697211879" font-size="8px"></text><text class="label" x="155.04316214630074" y="219.78067387158296" font-size="8px"></text></g><g style="font-size: 13px;"><rect x="150" y="232.5851421305967" width="124.30910321015232" height="12.579238942875305" fill="#4472c4"></rect><rect x="150" y="245.82644628099175" width="113.09181218767179" height="12.579238942875305" fill="#ed7d31"></rect><rect x="150" y="259.0677504313868" width="57.6635422303578" height="12.579238942875305" fill="#a5a5a5"></rect><rect x="150" y="272.3090545817819" width="8.52925693170606" height="12.579238942875305" fill="#ffc000"></rect><rect x="150" y="285.5503587321769" width="0.12389411003146182" height="12.579238942875305" fill="#5b9bd5"></rect><rect x="150" y="298.791662882572" width="0.04316214630073488" height="12.579238942875305" fill="#70ad47"></rect><text class="label" x="282.80910321015233" y="241.0851421305967" font-size="10px">2,880x</text><text class="label" x="271.5918121876718" y="254.32644628099175" font-size="10px">2,620x</text><text class="label" x="216.1635422303578" y="267.5677504313868" font-size="10px">1,336x</text><text class="label" x="167.02925693170607" y="280.8090545817819" font-size="10px">198x</text><text class="label" x="158.62389411003147" y="294.0503587321769" font-size="10px">3x</text><text class="label" x="158.54316214630074" y="307.291662882572" font-size="10px">1x</text><text class="label" x="279.30910321015233" y="242.5851421305967" font-size="8px"></text><text class="label" x="268.0918121876718" y="255.82644628099175" font-size="8px"></text><text class="label" x="212.6635422303578" y="269.0677504313868" font-size="8px"></text><text class="label" x="163.52925693170607" y="282.3090545817819" font-size="8px"></text><text class="label" x="155.12389411003147" y="295.5503587321769" font-size="8px"></text><text class="label" x="155.04316214630074" y="308.791662882572" font-size="8px"></text></g><g style="font-size: 13px;"><rect x="150" y="321.59613114158566" width="24.39701257036428" height="12.579238942875305" fill="#4472c4"></rect><rect x="150" y="334.83743529198074" width="13.310864220640367" height="12.579238942875305" fill="#ed7d31"></rect><rect x="150" y="348.07873944237576" width="8.192830447823338" height="12.579238942875305" fill="#a5a5a5"></rect><rect x="150" y="361.32004359277084" width="3.0526055883726633" height="12.579238942875305" fill="#ffc000"></rect><rect x="150" y="374.5613477431659" width="0.04316214630073488" height="12.579238942875305" fill="#5b9bd5"></rect><rect x="150" y="387.80265189356095" width="0.0959824876462784" height="12.579238942875305" fill="#70ad47"></rect><text class="label" x="182.89701257036427" y="330.09613114158566" font-size="10px">565x</text><text class="label" x="171.81086422064035" y="343.33743529198074" font-size="10px">308x</text><text class="label" x="166.69283044782333" y="356.57873944237576" font-size="10px">190x</text><text class="label" x="161.55260558837267" y="369.82004359277084" font-size="10px">71x</text><text class="label" x="158.54316214630074" y="383.0613477431659" font-size="10px">1x</text><text class="label" x="158.59598248764627" y="396.30265189356095" font-size="10px">2x</text><text class="label" x="179.39701257036427" y="331.59613114158566" font-size="8px"></text><text class="label" x="168.31086422064035" y="344.83743529198074" font-size="8px"></text><text class="label" x="163.19283044782333" y="358.07873944237576" font-size="8px"></text><text class="label" x="158.05260558837267" y="371.32004359277084" font-size="8px"></text><text class="label" x="155.04316214630074" y="384.5613477431659" font-size="8px"></text><text class="label" x="155.09598248764627" y="397.80265189356095" font-size="8px"></text></g><g style="font-size: 13px;"><rect x="150" y="410.6071201525747" width="485" height="12.579238942875305" fill="#4472c4"></rect><rect x="150" y="423.84842430296976" width="0" height="12.579238942875305" fill="#ed7d31"></rect><rect x="150" y="437.08972845336484" width="0" height="12.579238942875305" fill="#a5a5a5"></rect><rect x="150" y="450.33103260375987" width="0" height="12.579238942875305" fill="#ffc000"></rect><rect x="150" y="463.57233675415495" width="0" height="12.579238942875305" fill="#5b9bd5"></rect><rect x="150" y="476.81364090454997" width="0" height="12.579238942875305" fill="#70ad47"></rect><text class="label" x="643.5" y="419.1071201525747" font-size="10px">Infinity</text><text class="label" x="158.5" y="432.34842430296976" font-size="10px"></text><text class="label" x="158.5" y="445.58972845336484" font-size="10px"></text><text class="label" x="158.5" y="458.83103260375987" font-size="10px"></text><text class="label" x="158.5" y="472.07233675415495" font-size="10px"></text><text class="label" x="158.5" y="485.31364090454997" font-size="10px"></text><text class="label" x="640" y="420.6071201525747" font-size="8px"></text><text class="label" x="155" y="433.84842430296976" font-size="8px">Failed</text><text class="label" x="155" y="447.08972845336484" font-size="8px">Failed</text><text class="label" x="155" y="460.33103260375987" font-size="8px">Failed</text><text class="label" x="155" y="473.57233675415495" font-size="8px">Failed</text><text class="label" x="155" y="486.81364090454997" font-size="8px">Failed</text></g><g style="font-size: 13px;"><rect x="150" y="499.6181091635637" width="100.93525889008862" height="12.579238942875305" fill="#4472c4"></rect><rect x="150" y="512.8594133139588" width="90.29311660468342" height="12.579238942875305" fill="#ed7d31"></rect><rect x="150" y="526.1007174643538" width="37.55181048161309" height="12.579238942875305" fill="#a5a5a5"></rect><rect x="150" y="539.3420216147489" width="7.435259625295148" height="12.579238942875305" fill="#ffc000"></rect><rect x="150" y="552.583325765144" width="0.15671386098234943" height="12.579238942875305" fill="#5b9bd5"></rect><rect x="150" y="565.824629915539" width="0.04316214630073488" height="12.579238942875305" fill="#70ad47"></rect><text class="label" x="259.4352588900886" y="508.1181091635637" font-size="10px">2,339x</text><text class="label" x="248.7931166046834" y="521.3594133139588" font-size="10px">2,092x</text><text class="label" x="196.05181048161307" y="534.6007174643538" font-size="10px">870x</text><text class="label" x="165.93525962529515" y="547.8420216147489" font-size="10px">172x</text><text class="label" x="158.65671386098234" y="561.083325765144" font-size="10px">4x</text><text class="label" x="158.54316214630074" y="574.324629915539" font-size="10px">1x</text><text class="label" x="255.93525889008862" y="509.6181091635637" font-size="8px"></text><text class="label" x="245.2931166046834" y="522.8594133139588" font-size="8px"></text><text class="label" x="192.55181048161307" y="536.1007174643538" font-size="8px"></text><text class="label" x="162.43525962529515" y="549.3420216147489" font-size="8px"></text><text class="label" x="155.15671386098234" y="562.583325765144" font-size="8px"></text><text class="label" x="155.04316214630074" y="575.824629915539" font-size="8px"></text></g><g style="font-size: 13px;"><rect x="150" y="588.6290981745527" width="37.33240626905802" height="12.579238942875305" fill="#4472c4"></rect><rect x="150" y="601.8704023249478" width="18.91524895654319" height="12.579238942875305" fill="#ed7d31"></rect><rect x="150" y="615.1117064753429" width="8.201148730364753" height="12.579238942875305" fill="#a5a5a5"></rect><rect x="150" y="628.353010625738" width="3.2954701247739933" height="12.579238942875305" fill="#ffc000"></rect><rect x="150" y="641.5943147761329" width="0.04316214630073488" height="12.579238942875305" fill="#5b9bd5"></rect><rect x="150" y="654.835618926528" width="0.31045380690303126" height="12.579238942875305" fill="#70ad47"></rect><text class="label" x="195.83240626905803" y="597.1290981745527" font-size="10px">865x</text><text class="label" x="177.4152489565432" y="610.3704023249478" font-size="10px">438x</text><text class="label" x="166.70114873036476" y="623.6117064753429" font-size="10px">190x</text><text class="label" x="161.795470124774" y="636.853010625738" font-size="10px">76x</text><text class="label" x="158.54316214630074" y="650.0943147761329" font-size="10px">1x</text><text class="label" x="158.81045380690304" y="663.335618926528" font-size="10px">7x</text><text class="label" x="192.33240626905803" y="598.6290981745527" font-size="8px"></text><text class="label" x="173.9152489565432" y="611.8704023249478" font-size="8px"></text><text class="label" x="163.20114873036476" y="625.1117064753429" font-size="8px"></text><text class="label" x="158.295470124774" y="638.353010625738" font-size="8px"></text><text class="label" x="155.04316214630074" y="651.5943147761329" font-size="8px"></text><text class="label" x="155.31045380690304" y="664.835618926528" font-size="8px"></text></g><g style="font-size: 13px;"><rect x="150" y="677.6400871855418" width="485" height="12.579238942875305" fill="#4472c4"></rect><rect x="150" y="690.8813913359369" width="0" height="12.579238942875305" fill="#ed7d31"></rect><rect x="150" y="704.122695486332" width="0" height="12.579238942875305" fill="#a5a5a5"></rect><rect x="150" y="717.363999636727" width="0" height="12.579238942875305" fill="#ffc000"></rect><rect x="150" y="730.605303787122" width="0" height="12.579238942875305" fill="#5b9bd5"></rect><rect x="150" y="743.8466079375171" width="0" height="12.579238942875305" fill="#70ad47"></rect><text class="label" x="643.5" y="686.1400871855418" font-size="10px">Infinity</text><text class="label" x="158.5" y="699.3813913359369" font-size="10px"></text><text class="label" x="158.5" y="712.622695486332" font-size="10px"></text><text class="label" x="158.5" y="725.863999636727" font-size="10px"></text><text class="label" x="158.5" y="739.105303787122" font-size="10px"></text><text class="label" x="158.5" y="752.3466079375171" font-size="10px"></text><text class="label" x="640" y="687.6400871855418" font-size="8px"></text><text class="label" x="155" y="700.8813913359369" font-size="8px">Failed</text><text class="label" x="155" y="714.122695486332" font-size="8px">Failed</text><text class="label" x="155" y="727.363999636727" font-size="8px">Failed</text><text class="label" x="155" y="740.605303787122" font-size="8px">Failed</text><text class="label" x="155" y="753.8466079375171" font-size="8px">Failed</text></g><g style="font-size: 13px;"><rect x="150" y="766.6510761965307" width="485" height="12.579238942875305" fill="#4472c4"></rect><rect x="150" y="779.8923803469257" width="0" height="12.579238942875305" fill="#ed7d31"></rect><rect x="150" y="793.1336844973208" width="0" height="12.579238942875305" fill="#a5a5a5"></rect><rect x="150" y="806.3749886477159" width="0" height="12.579238942875305" fill="#ffc000"></rect><rect x="150" y="819.6162927981109" width="0" height="12.579238942875305" fill="#5b9bd5"></rect><rect x="150" y="832.8575969485059" width="0" height="12.579238942875305" fill="#70ad47"></rect><text class="label" x="643.5" y="775.1510761965307" font-size="10px">Infinity</text><text class="label" x="158.5" y="788.3923803469257" font-size="10px"></text><text class="label" x="158.5" y="801.6336844973208" font-size="10px"></text><text class="label" x="158.5" y="814.8749886477159" font-size="10px"></text><text class="label" x="158.5" y="828.1162927981109" font-size="10px"></text><text class="label" x="158.5" y="841.3575969485059" font-size="10px"></text><text class="label" x="640" y="776.6510761965307" font-size="8px"></text><text class="label" x="155" y="789.8923803469257" font-size="8px">Failed</text><text class="label" x="155" y="803.1336844973208" font-size="8px">Failed</text><text class="label" x="155" y="816.3749886477159" font-size="8px">Failed</text><text class="label" x="155" y="829.6162927981109" font-size="8px">Failed</text><text class="label" x="155" y="842.8575969485059" font-size="8px">Failed</text></g></g></svg>