<svg xmlns="http://www.w3.org/2000/svg" xmlns:xlink="http://www.w3.org/1999/xlink" width="800" height="885" style="background-color: white;"><g class="y axis" transform="translate(149,45)" fill="none" font-size="10" font-family="sans-serif" text-anchor="end" style="font-size: 13px;"><path class="domain" stroke="currentColor" d="M0.5,0.5V810.5"></path><g class="tick" opacity="1" transform="translate(0,48.95604395604397)" style="font-size: 13px;"><line stroke="currentColor" x2="0"></line><text fill="currentColor" x="-3" dy="0.32em">object (simple)    </text></g><g class="tick" opacity="1" transform="translate(0,137.967032967033)" style="font-size: 13px;"><line stroke="currentColor" x2="0"></line><text fill="currentColor" x="-3" dy="0.32em">object (hierarchical)    </text></g><g class="tick" opacity="1" transform="translate(0,226.97802197802199)" style="font-size: 13px;"><line stroke="currentColor" x2="0"></line><text fill="currentColor" x="-3" dy="0.32em">object (recursive)    </text></g><g class="tick" opacity="1" transform="translate(0,315.989010989011)" style="font-size: 13px;"><line stroke="currentColor" x2="0"></line><text fill="currentColor" x="-3" dy="0.32em">object (union, explicit)    </text></g><g class="tick" opacity="1" transform="translate(0,405)" style="font-size: 13px;"><line stroke="currentColor" x2="0"></line><text fill="currentColor" x="-3" dy="0.32em">object (union, implicit)    </text></g><g class="tick" opacity="1" transform="translate(0,494.010989010989)" style="font-size: 13px;"><line stroke="currentColor" x2="0"></line><text fill="currentColor" x="-3" dy="0.32em">array (recursive)    </text></g><g class="tick" opacity="1" transform="translate(0,583.021978021978)" style="font-size: 13px;"><line stroke="currentColor" x2="0"></line><text fill="currentColor" x="-3" dy="0.32em">array (union, explicit)    </text></g><g class="tick" opacity="1" transform="translate(0,672.0329670329671)" style="font-size: 13px;"><line stroke="currentColor" x2="0"></line><text fill="currentColor" x="-3" dy="0.32em">array (union, implicit)    </text></g><g class="tick" opacity="1" transform="translate(0,761.043956043956)" style="font-size: 13px;"><line stroke="currentColor" x2="0"></line><text fill="currentColor" x="-3" dy="0.32em">ultimate union    </text></g></g><g class="x axis" transform="translate(149,855)" fill="none" font-size="10" font-family="sans-serif" text-anchor="middle" style="font-size: 13px;"><path class="domain" stroke="currentColor" d="M0.5,0.5H485.5"></path><g class="tick" opacity="1" transform="translate(0.5,0)" style="font-size: 13px;"><line stroke="currentColor" y2="6"></line><text fill="currentColor" y="9" dy="0.71em">0x</text></g><g class="tick" opacity="1" transform="translate(79.44207922305299,0)" style="font-size: 13px;"><line stroke="currentColor" y2="6"></line><text fill="currentColor" y="9" dy="0.71em">2,000x</text></g><g class="tick" opacity="1" transform="translate(158.38415844610597,0)" style="font-size: 13px;"><line stroke="currentColor" y2="6"></line><text fill="currentColor" y="9" dy="0.71em">4,000x</text></g><g class="tick" opacity="1" transform="translate(237.32623766915898,0)" style="font-size: 13px;"><line stroke="currentColor" y2="6"></line><text fill="currentColor" y="9" dy="0.71em">6,000x</text></g><g class="tick" opacity="1" transform="translate(316.26831689221194,0)" style="font-size: 13px;"><line stroke="currentColor" y2="6"></line><text fill="currentColor" y="9" dy="0.71em">8,000x</text></g><g class="tick" opacity="1" transform="translate(395.210396115265,0)" style="font-size: 13px;"><line stroke="currentColor" y2="6"></line><text fill="currentColor" y="9" dy="0.71em">10,000x</text></g><g class="tick" opacity="1" transform="translate(474.15247533831797,0)" style="font-size: 13px;"><line stroke="currentColor" y2="6"></line><text fill="currentColor" y="9" dy="0.71em">12,000x</text></g></g><text transform="translate(400, 30)" style="text-anchor: middle; font-size: 20px; font-weight: bold;">is benchmark</text><rect x="680" y="165" width="200" height="5" fill="gray"></rect><rect x="675" y="35" width="200" height="130" fill="none" stroke="black"></rect><rect x="685" y="45" width="10" height="10" style="fill: #4472c4;"></rect><text x="700" y="55" style="font-size: 12px;">typescript-json</text><rect x="685" y="65" width="10" height="10" style="fill: #ed7d31;"></rect><text x="700" y="75" style="font-size: 12px;">typebox</text><rect x="685" y="85" width="10" height="10" style="fill: #a5a5a5;"></rect><text x="700" y="95" style="font-size: 12px;">ajv</text><rect x="685" y="105" width="10" height="10" style="fill: #ffc000;"></rect><text x="700" y="115" style="font-size: 12px;">io-ts</text><rect x="685" y="125" width="10" height="10" style="fill: #5b9bd5;"></rect><text x="700" y="135" style="font-size: 12px;">zod</text><rect x="685" y="145" width="10" height="10" style="fill: #70ad47;"></rect><text x="700" y="155" style="font-size: 12px;">class-validator</text><g style="font-size: 13px;"><g style="font-size: 13px;"><rect x="150" y="54.563164108618665" width="263.2072141142372" height="12.579238942875305" fill="#4472c4"></rect><rect x="150" y="67.80446825901373" width="440.9090909090908" height="12.579238942875305" fill="#ed7d31"></rect><rect x="150" y="81.04577240940878" width="145.04967570584876" height="12.579238942875305" fill="#a5a5a5"></rect><rect x="150" y="94.28707655980384" width="11.457006396376135" height="12.579238942875305" fill="#ffc000"></rect><rect x="150" y="107.5283807101989" width="1.0263317175436095" height="12.579238942875305" fill="#5b9bd5"></rect><rect x="150" y="120.76968486059396" width="0.039471039611526496" height="12.579238942875305" fill="#70ad47"></rect><text class="label" x="421.7072141142372" y="63.063164108618665" font-size="10px">6,668x</text><text class="label" x="599.4090909090908" y="76.30446825901373" font-size="10px">11,170x</text><text class="label" x="303.54967570584876" y="89.54577240940878" font-size="10px">3,675x</text><text class="label" x="169.95700639637613" y="102.78707655980384" font-size="10px">290x</text><text class="label" x="159.5263317175436" y="116.0283807101989" font-size="10px">26x</text><text class="label" x="158.53947103961153" y="129.26968486059394" font-size="10px">1x</text><text class="label" x="418.2072141142372" y="64.56316410861866" font-size="8px"></text><text class="label" x="595.9090909090908" y="77.80446825901373" font-size="8px"></text><text class="label" x="300.04967570584876" y="91.04577240940878" font-size="8px"></text><text class="label" x="166.45700639637613" y="104.28707655980384" font-size="8px"></text><text class="label" x="156.0263317175436" y="117.5283807101989" font-size="8px"></text><text class="label" x="155.03947103961153" y="130.76968486059394" font-size="8px"></text></g><g style="font-size: 13px;"><rect x="150" y="143.57415311960767" width="121.77000398295264" height="12.579238942875305" fill="#4472c4"></rect><rect x="150" y="156.81545727000272" width="159.97065559749146" height="12.579238942875305" fill="#ed7d31"></rect><rect x="150" y="170.05676142039778" width="36.71939640143029" height="12.579238942875305" fill="#a5a5a5"></rect><rect x="150" y="183.29806557079286" width="7.68493980097148" height="12.579238942875305" fill="#ffc000"></rect><rect x="150" y="196.5393697211879" width="0.3589549203321395" height="12.579238942875305" fill="#5b9bd5"></rect><rect x="150" y="209.78067387158296" width="0.039471039611526496" height="12.579238942875305" fill="#70ad47"></rect><text class="label" x="280.27000398295263" y="152.07415311960767" font-size="10px">3,085x</text><text class="label" x="318.4706555974915" y="165.31545727000272" font-size="10px">4,053x</text><text class="label" x="195.2193964014303" y="178.55676142039778" font-size="10px">930x</text><text class="label" x="166.18493980097148" y="191.79806557079286" font-size="10px">195x</text><text class="label" x="158.85895492033214" y="205.0393697211879" font-size="10px">9x</text><text class="label" x="158.53947103961153" y="218.28067387158296" font-size="10px">1x</text><text class="label" x="276.77000398295263" y="153.57415311960767" font-size="8px"></text><text class="label" x="314.9706555974915" y="166.81545727000272" font-size="8px"></text><text class="label" x="191.7193964014303" y="180.05676142039778" font-size="8px"></text><text class="label" x="162.68493980097148" y="193.29806557079286" font-size="8px"></text><text class="label" x="155.35895492033214" y="206.5393697211879" font-size="8px"></text><text class="label" x="155.03947103961153" y="219.78067387158296" font-size="8px"></text></g><g style="font-size: 13px;"><rect x="150" y="232.5851421305967" width="118.68142068245989" height="12.579238942875305" fill="#4472c4"></rect><rect x="150" y="245.82644628099175" width="109.20256979091769" height="12.579238942875305" fill="#ed7d31"></rect><rect x="150" y="259.0677504313868" width="56.460140949682405" height="12.579238942875305" fill="#a5a5a5"></rect><rect x="150" y="272.3090545817819" width="7.720965199926692" height="12.579238942875305" fill="#ffc000"></rect><rect x="150" y="285.5503587321769" width="0.09056284010364382" height="12.579238942875305" fill="#5b9bd5"></rect><rect x="150" y="298.791662882572" width="0.039471039611526496" height="12.579238942875305" fill="#70ad47"></rect><text class="label" x="277.1814206824599" y="241.0851421305967" font-size="10px">3,007x</text><text class="label" x="267.70256979091766" y="254.32644628099175" font-size="10px">2,767x</text><text class="label" x="214.9601409496824" y="267.5677504313868" font-size="10px">1,430x</text><text class="label" x="166.2209651999267" y="280.8090545817819" font-size="10px">196x</text><text class="label" x="158.59056284010364" y="294.0503587321769" font-size="10px">2x</text><text class="label" x="158.53947103961153" y="307.291662882572" font-size="10px">1x</text><text class="label" x="273.6814206824599" y="242.5851421305967" font-size="8px"></text><text class="label" x="264.20256979091766" y="255.82644628099175" font-size="8px"></text><text class="label" x="211.4601409496824" y="269.0677504313868" font-size="8px"></text><text class="label" x="162.7209651999267" y="282.3090545817819" font-size="8px"></text><text class="label" x="155.09056284010364" y="295.5503587321769" font-size="8px"></text><text class="label" x="155.03947103961153" y="308.791662882572" font-size="8px"></text></g><g style="font-size: 13px;"><rect x="150" y="321.59613114158566" width="23.189746198132184" height="12.579238942875305" fill="#4472c4"></rect><rect x="150" y="334.83743529198074" width="16.02582381063452" height="12.579238942875305" fill="#ed7d31"></rect><rect x="150" y="348.07873944237576" width="10.174527417693158" height="12.579238942875305" fill="#a5a5a5"></rect><rect x="150" y="361.32004359277084" width="3.846579570415068" height="12.579238942875305" fill="#ffc000"></rect><rect x="150" y="374.5613477431659" width="0.039471039611526496" height="12.579238942875305" fill="#5b9bd5"></rect><rect x="150" y="387.80265189356095" width="0.12236056650036127" height="12.579238942875305" fill="#70ad47"></rect><text class="label" x="181.68974619813218" y="330.09613114158566" font-size="10px">588x</text><text class="label" x="174.5258238106345" y="343.33743529198074" font-size="10px">406x</text><text class="label" x="168.67452741769316" y="356.57873944237576" font-size="10px">258x</text><text class="label" x="162.34657957041506" y="369.82004359277084" font-size="10px">97x</text><text class="label" x="158.53947103961153" y="383.0613477431659" font-size="10px">1x</text><text class="label" x="158.62236056650036" y="396.30265189356095" font-size="10px">3x</text><text class="label" x="178.18974619813218" y="331.59613114158566" font-size="8px"></text><text class="label" x="171.0258238106345" y="344.83743529198074" font-size="8px"></text><text class="label" x="165.17452741769316" y="358.07873944237576" font-size="8px"></text><text class="label" x="158.84657957041506" y="371.32004359277084" font-size="8px"></text><text class="label" x="155.03947103961153" y="384.5613477431659" font-size="8px"></text><text class="label" x="155.12236056650036" y="397.80265189356095" font-size="8px"></text></g><g style="font-size: 13px;"><rect x="150" y="410.6071201525747" width="485" height="12.579238942875305" fill="#4472c4"></rect><rect x="150" y="423.84842430296976" width="0" height="12.579238942875305" fill="#ed7d31"></rect><rect x="150" y="437.08972845336484" width="0" height="12.579238942875305" fill="#a5a5a5"></rect><rect x="150" y="450.33103260375987" width="0" height="12.579238942875305" fill="#ffc000"></rect><rect x="150" y="463.57233675415495" width="0" height="12.579238942875305" fill="#5b9bd5"></rect><rect x="150" y="476.81364090454997" width="0" height="12.579238942875305" fill="#70ad47"></rect><text class="label" x="643.5" y="419.1071201525747" font-size="10px">Infinity</text><text class="label" x="158.5" y="432.34842430296976" font-size="10px"></text><text class="label" x="158.5" y="445.58972845336484" font-size="10px"></text><text class="label" x="158.5" y="458.83103260375987" font-size="10px"></text><text class="label" x="158.5" y="472.07233675415495" font-size="10px"></text><text class="label" x="158.5" y="485.31364090454997" font-size="10px"></text><text class="label" x="640" y="420.6071201525747" font-size="8px"></text><text class="label" x="155" y="433.84842430296976" font-size="8px">Failed</text><text class="label" x="155" y="447.08972845336484" font-size="8px">Failed</text><text class="label" x="155" y="460.33103260375987" font-size="8px">Failed</text><text class="label" x="155" y="473.57233675415495" font-size="8px">Failed</text><text class="label" x="155" y="486.81364090454997" font-size="8px">Failed</text></g><g style="font-size: 13px;"><rect x="150" y="499.6181091635637" width="81.1177937238209" height="12.579238942875305" fill="#4472c4"></rect><rect x="150" y="512.8594133139588" width="75.25235333041344" height="12.579238942875305" fill="#ed7d31"></rect><rect x="150" y="526.1007174643538" width="35.17946024739881" height="12.579238942875305" fill="#a5a5a5"></rect><rect x="150" y="539.3420216147489" width="7.590565749776969" height="12.579238942875305" fill="#ffc000"></rect><rect x="150" y="552.583325765144" width="0.13274925196707066" height="12.579238942875305" fill="#5b9bd5"></rect><rect x="150" y="565.824629915539" width="0.039471039611526496" height="12.579238942875305" fill="#70ad47"></rect><text class="label" x="239.6177937238209" y="508.1181091635637" font-size="10px">2,055x</text><text class="label" x="233.75235333041343" y="521.3594133139588" font-size="10px">1,907x</text><text class="label" x="193.67946024739882" y="534.6007174643538" font-size="10px">891x</text><text class="label" x="166.09056574977697" y="547.8420216147489" font-size="10px">192x</text><text class="label" x="158.63274925196708" y="561.083325765144" font-size="10px">3x</text><text class="label" x="158.53947103961153" y="574.324629915539" font-size="10px">1x</text><text class="label" x="236.1177937238209" y="509.6181091635637" font-size="8px"></text><text class="label" x="230.25235333041343" y="522.8594133139588" font-size="8px"></text><text class="label" x="190.17946024739882" y="536.1007174643538" font-size="8px"></text><text class="label" x="162.59056574977697" y="549.3420216147489" font-size="8px"></text><text class="label" x="155.13274925196708" y="562.583325765144" font-size="8px"></text><text class="label" x="155.03947103961153" y="575.824629915539" font-size="8px"></text></g><g style="font-size: 13px;"><rect x="150" y="588.6290981745527" width="45.1862251934448" height="12.579238942875305" fill="#4472c4"></rect><rect x="150" y="601.8704023249478" width="24.118658623291353" height="12.579238942875305" fill="#ed7d31"></rect><rect x="150" y="615.1117064753429" width="10.509258241471901" height="12.579238942875305" fill="#a5a5a5"></rect><rect x="150" y="628.353010625738" width="5.135853022090177" height="12.579238942875305" fill="#ffc000"></rect><rect x="150" y="641.5943147761329" width="0.039471039611526496" height="12.579238942875305" fill="#5b9bd5"></rect><rect x="150" y="654.835618926528" width="0.5566263807641486" height="12.579238942875305" fill="#70ad47"></rect><text class="label" x="203.68622519344478" y="597.1290981745527" font-size="10px">1,145x</text><text class="label" x="182.61865862329137" y="610.3704023249478" font-size="10px">611x</text><text class="label" x="169.0092582414719" y="623.6117064753429" font-size="10px">266x</text><text class="label" x="163.63585302209017" y="636.853010625738" font-size="10px">130x</text><text class="label" x="158.53947103961153" y="650.0943147761329" font-size="10px">1x</text><text class="label" x="159.05662638076416" y="663.335618926528" font-size="10px">14x</text><text class="label" x="200.18622519344478" y="598.6290981745527" font-size="8px"></text><text class="label" x="179.11865862329137" y="611.8704023249478" font-size="8px"></text><text class="label" x="165.5092582414719" y="625.1117064753429" font-size="8px"></text><text class="label" x="160.13585302209017" y="638.353010625738" font-size="8px"></text><text class="label" x="155.03947103961153" y="651.5943147761329" font-size="8px"></text><text class="label" x="155.55662638076416" y="664.835618926528" font-size="8px"></text></g><g style="font-size: 13px;"><rect x="150" y="677.6400871855418" width="485" height="12.579238942875305" fill="#4472c4"></rect><rect x="150" y="690.8813913359369" width="0" height="12.579238942875305" fill="#ed7d31"></rect><rect x="150" y="704.122695486332" width="0" height="12.579238942875305" fill="#a5a5a5"></rect><rect x="150" y="717.363999636727" width="0" height="12.579238942875305" fill="#ffc000"></rect><rect x="150" y="730.605303787122" width="0" height="12.579238942875305" fill="#5b9bd5"></rect><rect x="150" y="743.8466079375171" width="0" height="12.579238942875305" fill="#70ad47"></rect><text class="label" x="643.5" y="686.1400871855418" font-size="10px">Infinity</text><text class="label" x="158.5" y="699.3813913359369" font-size="10px"></text><text class="label" x="158.5" y="712.622695486332" font-size="10px"></text><text class="label" x="158.5" y="725.863999636727" font-size="10px"></text><text class="label" x="158.5" y="739.105303787122" font-size="10px"></text><text class="label" x="158.5" y="752.3466079375171" font-size="10px"></text><text class="label" x="640" y="687.6400871855418" font-size="8px"></text><text class="label" x="155" y="700.8813913359369" font-size="8px">Failed</text><text class="label" x="155" y="714.122695486332" font-size="8px">Failed</text><text class="label" x="155" y="727.363999636727" font-size="8px">Failed</text><text class="label" x="155" y="740.605303787122" font-size="8px">Failed</text><text class="label" x="155" y="753.8466079375171" font-size="8px">Failed</text></g><g style="font-size: 13px;"><rect x="150" y="766.6510761965307" width="485" height="12.579238942875305" fill="#4472c4"></rect><rect x="150" y="779.8923803469257" width="0" height="12.579238942875305" fill="#ed7d31"></rect><rect x="150" y="793.1336844973208" width="0" height="12.579238942875305" fill="#a5a5a5"></rect><rect x="150" y="806.3749886477159" width="0" height="12.579238942875305" fill="#ffc000"></rect><rect x="150" y="819.6162927981109" width="0" height="12.579238942875305" fill="#5b9bd5"></rect><rect x="150" y="832.8575969485059" width="0" height="12.579238942875305" fill="#70ad47"></rect><text class="label" x="643.5" y="775.1510761965307" font-size="10px">Infinity</text><text class="label" x="158.5" y="788.3923803469257" font-size="10px"></text><text class="label" x="158.5" y="801.6336844973208" font-size="10px"></text><text class="label" x="158.5" y="814.8749886477159" font-size="10px"></text><text class="label" x="158.5" y="828.1162927981109" font-size="10px"></text><text class="label" x="158.5" y="841.3575969485059" font-size="10px"></text><text class="label" x="640" y="776.6510761965307" font-size="8px"></text><text class="label" x="155" y="789.8923803469257" font-size="8px">Failed</text><text class="label" x="155" y="803.1336844973208" font-size="8px">Failed</text><text class="label" x="155" y="816.3749886477159" font-size="8px">Failed</text><text class="label" x="155" y="829.6162927981109" font-size="8px">Failed</text><text class="label" x="155" y="842.8575969485059" font-size="8px">Failed</text></g></g></svg>