<svg xmlns="http://www.w3.org/2000/svg" xmlns:xlink="http://www.w3.org/1999/xlink" width="800" height="600" style="background-color: white;"><g class="y axis" transform="translate(149,45)" fill="none" font-size="10" font-family="sans-serif" text-anchor="end" style="font-size: 13px;"><path class="domain" stroke="currentColor" d="M0.5,0.5V525.5"></path><g class="tick" opacity="1" transform="translate(0,40.66901408450705)" style="font-size: 13px;"><line stroke="currentColor" x2="0"></line><text fill="currentColor" x="-3" dy="0.32em">object (simple)    </text></g><g class="tick" opacity="1" transform="translate(0,114.61267605633802)" style="font-size: 13px;"><line stroke="currentColor" x2="0"></line><text fill="currentColor" x="-3" dy="0.32em">object (hierarchical)    </text></g><g class="tick" opacity="1" transform="translate(0,188.556338028169)" style="font-size: 13px;"><line stroke="currentColor" x2="0"></line><text fill="currentColor" x="-3" dy="0.32em">object (recursive)    </text></g><g class="tick" opacity="1" transform="translate(0,262.5)" style="font-size: 13px;"><line stroke="currentColor" x2="0"></line><text fill="currentColor" x="-3" dy="0.32em">object (union)    </text></g><g class="tick" opacity="1" transform="translate(0,336.443661971831)" style="font-size: 13px;"><line stroke="currentColor" x2="0"></line><text fill="currentColor" x="-3" dy="0.32em">array (hierarchical)    </text></g><g class="tick" opacity="1" transform="translate(0,410.38732394366195)" style="font-size: 13px;"><line stroke="currentColor" x2="0"></line><text fill="currentColor" x="-3" dy="0.32em">array (recursive)    </text></g><g class="tick" opacity="1" transform="translate(0,484.33098591549293)" style="font-size: 13px;"><line stroke="currentColor" x2="0"></line><text fill="currentColor" x="-3" dy="0.32em">array (union)    </text></g></g><g class="x axis" transform="translate(149,570)" fill="none" font-size="10" font-family="sans-serif" text-anchor="middle" style="font-size: 13px;"><path class="domain" stroke="currentColor" d="M0.5,0.5H485.5"></path><g class="tick" opacity="1" transform="translate(0.5,0)" style="font-size: 13px;"><line stroke="currentColor" y2="6"></line><text fill="currentColor" y="9" dy="0.71em">0x</text></g><g class="tick" opacity="1" transform="translate(123.510685600034,0)" style="font-size: 13px;"><line stroke="currentColor" y2="6"></line><text fill="currentColor" y="9" dy="0.71em">2x</text></g><g class="tick" opacity="1" transform="translate(246.521371200068,0)" style="font-size: 13px;"><line stroke="currentColor" y2="6"></line><text fill="currentColor" y="9" dy="0.71em">4x</text></g><g class="tick" opacity="1" transform="translate(369.532056800102,0)" style="font-size: 13px;"><line stroke="currentColor" y2="6"></line><text fill="currentColor" y="9" dy="0.71em">6x</text></g></g><text transform="translate(400, 30)" style="text-anchor: middle; font-size: 20px; font-weight: bold;">stringify benchmark</text><rect x="680" y="145" width="200" height="5" fill="gray"></rect><rect x="675" y="35" width="200" height="110" fill="none" stroke="black"></rect><rect x="685" y="45" width="10" height="10" style="fill: #4472c4;"></rect><text x="700" y="55" style="font-size: 12px;">TSON.stringify()</text><rect x="685" y="65" width="10" height="10" style="fill: #ed7d31;"></rect><text x="700" y="75" style="font-size: 12px;">TSON.assertStringify()</text><rect x="685" y="85" width="10" height="10" style="fill: #a5a5a5;"></rect><text x="700" y="95" style="font-size: 12px;">TSON.isStringify()</text><rect x="685" y="105" width="10" height="10" style="fill: #ffc000;"></rect><text x="700" y="115" style="font-size: 12px;">JSON.stringify()</text><rect x="685" y="125" width="10" height="10" style="fill: #5b9bd5;"></rect><text x="700" y="135" style="font-size: 12px;">fast-json-stringify</text><g style="font-size: 13px;"><g style="font-size: 13px;"><rect x="150" y="53.05327011574397" width="440.9090909090909" height="12.519174452656534" fill="#4472c4"></rect><rect x="150" y="66.23134848696137" width="343.9263056868499" height="12.519174452656534" fill="#ed7d31"></rect><rect x="150" y="79.40942685817878" width="386.4907453867461" height="12.519174452656534" fill="#a5a5a5"></rect><rect x="150" y="92.58750522939619" width="61.505342800017" height="12.519174452656534" fill="#ffc000"></rect><rect x="150" y="105.76558360061358" width="334.3757696717423" height="12.519174452656534" fill="#5b9bd5"></rect><text class="label" x="599.4090909090909" y="61.55327011574397" font-size="10px">7.17x</text><text class="label" x="502.4263056868499" y="74.73134848696137" font-size="10px">5.59x</text><text class="label" x="544.9907453867461" y="87.90942685817878" font-size="10px">6.28x</text><text class="label" x="220.005342800017" y="101.08750522939619" font-size="10px">1x</text><text class="label" x="492.8757696717423" y="114.26558360061358" font-size="10px">5.44x</text><text class="label" x="595.9090909090909" y="63.05327011574397" font-size="8px"></text><text class="label" x="498.9263056868499" y="76.23134848696137" font-size="8px"></text><text class="label" x="541.4907453867461" y="89.40942685817878" font-size="8px"></text><text class="label" x="216.505342800017" y="102.58750522939619" font-size="8px"></text><text class="label" x="489.3757696717423" y="115.76558360061358" font-size="8px"></text></g><g style="font-size: 13px;"><rect x="150" y="126.99693208757495" width="190.39705002436375" height="12.519174452656534" fill="#4472c4"></rect><rect x="150" y="140.17501045879237" width="163.56740252962788" height="12.519174452656534" fill="#ed7d31"></rect><rect x="150" y="153.35308883000977" width="168.52569423271277" height="12.519174452656534" fill="#a5a5a5"></rect><rect x="150" y="166.53116720122716" width="61.505342800017" height="12.519174452656534" fill="#ffc000"></rect><rect x="150" y="179.70924557244456" width="171.5701679548501" height="12.519174452656534" fill="#5b9bd5"></rect><text class="label" x="348.89705002436375" y="135.49693208757495" font-size="10px">3.1x</text><text class="label" x="322.0674025296279" y="148.67501045879237" font-size="10px">2.66x</text><text class="label" x="327.0256942327128" y="161.85308883000977" font-size="10px">2.74x</text><text class="label" x="220.005342800017" y="175.03116720122716" font-size="10px">1x</text><text class="label" x="330.0701679548501" y="188.20924557244456" font-size="10px">2.79x</text><text class="label" x="345.39705002436375" y="136.99693208757495" font-size="8px"></text><text class="label" x="318.5674025296279" y="150.17501045879237" font-size="8px"></text><text class="label" x="323.5256942327128" y="163.35308883000977" font-size="8px"></text><text class="label" x="216.505342800017" y="176.53116720122716" font-size="8px"></text><text class="label" x="326.5701679548501" y="189.70924557244456" font-size="8px"></text></g><g style="font-size: 13px;"><rect x="150" y="200.94059405940592" width="255.28588701051484" height="12.519174452656534" fill="#4472c4"></rect><rect x="150" y="214.11867243062332" width="246.64700252293346" height="12.519174452656534" fill="#ed7d31"></rect><rect x="150" y="227.29675080184074" width="254.30318701472765" height="12.519174452656534" fill="#a5a5a5"></rect><rect x="150" y="240.47482917305814" width="61.505342800017" height="12.519174452656534" fill="#ffc000"></rect><rect x="150" y="253.65290754427554" width="62.65397009047888" height="12.519174452656534" fill="#5b9bd5"></rect><text class="label" x="413.78588701051484" y="209.44059405940592" font-size="10px">4.15x</text><text class="label" x="405.14700252293346" y="222.61867243062332" font-size="10px">4.01x</text><text class="label" x="412.80318701472765" y="235.79675080184074" font-size="10px">4.13x</text><text class="label" x="220.005342800017" y="248.97482917305814" font-size="10px">1x</text><text class="label" x="221.15397009047888" y="262.15290754427554" font-size="10px">1.02x</text><text class="label" x="410.28588701051484" y="210.94059405940592" font-size="8px"></text><text class="label" x="401.64700252293346" y="224.11867243062332" font-size="8px"></text><text class="label" x="409.30318701472765" y="237.29675080184074" font-size="8px"></text><text class="label" x="216.505342800017" y="250.47482917305814" font-size="8px"></text><text class="label" x="217.65397009047888" y="263.65290754427554" font-size="8px"></text></g><g style="font-size: 13px;"><rect x="150" y="274.8842560312369" width="132.51088766895484" height="12.519174452656534" fill="#4472c4"></rect><rect x="150" y="288.0623344024543" width="103.26112176521174" height="12.519174452656534" fill="#ed7d31"></rect><rect x="150" y="301.2404127736717" width="119.8240155225397" height="12.519174452656534" fill="#a5a5a5"></rect><rect x="150" y="314.4184911448891" width="61.505342800017" height="12.519174452656534" fill="#ffc000"></rect><rect x="150" y="327.5965695161065" width="138.46759870008174" height="12.519174452656534" fill="#5b9bd5"></rect><text class="label" x="291.01088766895487" y="283.3842560312369" font-size="10px">2.15x</text><text class="label" x="261.7611217652117" y="296.5623344024543" font-size="10px">1.68x</text><text class="label" x="278.3240155225397" y="309.7404127736717" font-size="10px">1.95x</text><text class="label" x="220.005342800017" y="322.9184911448891" font-size="10px">1x</text><text class="label" x="296.96759870008174" y="336.0965695161065" font-size="10px">2.25x</text><text class="label" x="287.51088766895487" y="284.8842560312369" font-size="8px"></text><text class="label" x="258.2611217652117" y="298.0623344024543" font-size="8px"></text><text class="label" x="274.8240155225397" y="311.2404127736717" font-size="8px"></text><text class="label" x="216.505342800017" y="324.4184911448891" font-size="8px"></text><text class="label" x="293.46759870008174" y="337.5965695161065" font-size="8px"></text></g><g style="font-size: 13px;"><rect x="150" y="348.8279180030679" width="123.909638032171" height="12.519174452656534" fill="#4472c4"></rect><rect x="150" y="362.0059963742853" width="113.01233295128758" height="12.519174452656534" fill="#ed7d31"></rect><rect x="150" y="375.1840747455027" width="118.64042348502477" height="12.519174452656534" fill="#a5a5a5"></rect><rect x="150" y="388.3621531167201" width="61.505342800017" height="12.519174452656534" fill="#ffc000"></rect><rect x="150" y="401.5402314879375" width="185.9493605164846" height="12.519174452656534" fill="#5b9bd5"></rect><text class="label" x="282.409638032171" y="357.3279180030679" font-size="10px">2.01x</text><text class="label" x="271.5123329512876" y="370.5059963742853" font-size="10px">1.84x</text><text class="label" x="277.14042348502477" y="383.6840747455027" font-size="10px">1.93x</text><text class="label" x="220.005342800017" y="396.8621531167201" font-size="10px">1x</text><text class="label" x="344.4493605164846" y="410.0402314879375" font-size="10px">3.02x</text><text class="label" x="278.909638032171" y="358.8279180030679" font-size="8px"></text><text class="label" x="268.0123329512876" y="372.0059963742853" font-size="8px"></text><text class="label" x="273.64042348502477" y="385.1840747455027" font-size="8px"></text><text class="label" x="216.505342800017" y="398.3621531167201" font-size="8px"></text><text class="label" x="340.9493605164846" y="411.5402314879375" font-size="8px"></text></g><g style="font-size: 13px;"><rect x="150" y="422.7715799748988" width="114.67106013228194" height="12.519174452656534" fill="#4472c4"></rect><rect x="150" y="435.9496583461163" width="102.19307046863626" height="12.519174452656534" fill="#ed7d31"></rect><rect x="150" y="449.1277367173337" width="110.3166209460725" height="12.519174452656534" fill="#a5a5a5"></rect><rect x="150" y="462.30581508855107" width="61.86937461229829" height="12.519174452656534" fill="#ffc000"></rect><rect x="150" y="475.48389345976847" width="61.505342800017" height="12.519174452656534" fill="#5b9bd5"></rect><text class="label" x="273.1710601322819" y="431.2715799748988" font-size="10px">1.86x</text><text class="label" x="260.6930704686363" y="444.4496583461163" font-size="10px">1.66x</text><text class="label" x="268.8166209460725" y="457.6277367173337" font-size="10px">1.79x</text><text class="label" x="220.3693746122983" y="470.80581508855107" font-size="10px">1.01x</text><text class="label" x="220.005342800017" y="483.98389345976847" font-size="10px">1x</text><text class="label" x="269.6710601322819" y="432.7715799748988" font-size="8px"></text><text class="label" x="257.1930704686363" y="445.9496583461163" font-size="8px"></text><text class="label" x="265.3166209460725" y="459.1277367173337" font-size="8px"></text><text class="label" x="216.8693746122983" y="472.30581508855107" font-size="8px"></text><text class="label" x="216.505342800017" y="485.48389345976847" font-size="8px"></text></g><g style="font-size: 13px;"><rect x="150" y="496.71524194672986" width="82.55199686277211" height="12.519174452656534" fill="#4472c4"></rect><rect x="150" y="509.89332031794726" width="71.13366888678634" height="12.519174452656534" fill="#ed7d31"></rect><rect x="150" y="523.0713986891647" width="75.8302526642013" height="12.519174452656534" fill="#a5a5a5"></rect><rect x="150" y="536.2494770603821" width="69.03375105752708" height="12.519174452656534" fill="#ffc000"></rect><rect x="150" y="549.4275554315994" width="61.505342800017" height="12.519174452656534" fill="#5b9bd5"></rect><text class="label" x="241.0519968627721" y="505.21524194672986" font-size="10px">1.34x</text><text class="label" x="229.63366888678632" y="518.3933203179472" font-size="10px">1.16x</text><text class="label" x="234.33025266420128" y="531.5713986891647" font-size="10px">1.23x</text><text class="label" x="227.53375105752707" y="544.7494770603821" font-size="10px">1.12x</text><text class="label" x="220.005342800017" y="557.9275554315994" font-size="10px">1x</text><text class="label" x="237.5519968627721" y="506.71524194672986" font-size="8px"></text><text class="label" x="226.13366888678632" y="519.8933203179472" font-size="8px"></text><text class="label" x="230.83025266420128" y="533.0713986891647" font-size="8px"></text><text class="label" x="224.03375105752707" y="546.2494770603821" font-size="8px"></text><text class="label" x="216.505342800017" y="559.4275554315994" font-size="8px"></text></g></g></svg>