<svg xmlns="http://www.w3.org/2000/svg" xmlns:xlink="http://www.w3.org/1999/xlink" width="800" height="674" style="background-color: white;"><g class="y axis" transform="translate(149,45)" fill="none" font-size="10" font-family="sans-serif" text-anchor="end" style="font-size: 13px;"><path class="domain" stroke="currentColor" d="M0.5,0.5V480.5"></path><g class="tick" opacity="1" transform="translate(0,32.592592592592595)" style="font-size: 13px;"><line stroke="currentColor" x2="0"></line><text fill="currentColor" x="-3" dy="0.32em">object (simple)    </text></g><g class="tick" opacity="1" transform="translate(0,91.85185185185186)" style="font-size: 13px;"><line stroke="currentColor" x2="0"></line><text fill="currentColor" x="-3" dy="0.32em">object (hierarchical)    </text></g><g class="tick" opacity="1" transform="translate(0,151.11111111111111)" style="font-size: 13px;"><line stroke="currentColor" x2="0"></line><text fill="currentColor" x="-3" dy="0.32em">object (recursive)    </text></g><g class="tick" opacity="1" transform="translate(0,210.37037037037035)" style="font-size: 13px;"><line stroke="currentColor" x2="0"></line><text fill="currentColor" x="-3" dy="0.32em">object (union, explicit)    </text></g><g class="tick" opacity="1" transform="translate(0,269.6296296296296)" style="font-size: 13px;"><line stroke="currentColor" x2="0"></line><text fill="currentColor" x="-3" dy="0.32em">array (simple)    </text></g><g class="tick" opacity="1" transform="translate(0,328.8888888888889)" style="font-size: 13px;"><line stroke="currentColor" x2="0"></line><text fill="currentColor" x="-3" dy="0.32em">array (hierarchical)    </text></g><g class="tick" opacity="1" transform="translate(0,388.14814814814815)" style="font-size: 13px;"><line stroke="currentColor" x2="0"></line><text fill="currentColor" x="-3" dy="0.32em">array (recursive)    </text></g><g class="tick" opacity="1" transform="translate(0,447.40740740740745)" style="font-size: 13px;"><line stroke="currentColor" x2="0"></line><text fill="currentColor" x="-3" dy="0.32em">array (union, explicit)    </text></g></g><g class="x axis" transform="translate(149,525)" fill="none" font-size="10" font-family="sans-serif" text-anchor="middle" style="font-size: 13px;"><path class="domain" stroke="currentColor" d="M0.5,0.5H485.5"></path><g class="tick" opacity="1" transform="translate(0.5,0)" style="font-size: 13px;"><line stroke="currentColor" y2="6"></line><text fill="currentColor" y="9" dy="0.71em">0x</text></g><g class="tick" opacity="1" transform="translate(78.79303501480832,0)" style="font-size: 13px;"><line stroke="currentColor" y2="6"></line><text fill="currentColor" y="9" dy="0.71em">100,000x</text></g><g class="tick" opacity="1" transform="translate(157.08607002961665,0)" style="font-size: 13px;"><line stroke="currentColor" y2="6"></line><text fill="currentColor" y="9" dy="0.71em">200,000x</text></g><g class="tick" opacity="1" transform="translate(235.37910504442496,0)" style="font-size: 13px;"><line stroke="currentColor" y2="6"></line><text fill="currentColor" y="9" dy="0.71em">300,000x</text></g><g class="tick" opacity="1" transform="translate(313.6721400592333,0)" style="font-size: 13px;"><line stroke="currentColor" y2="6"></line><text fill="currentColor" y="9" dy="0.71em">400,000x</text></g><g class="tick" opacity="1" transform="translate(391.9651750740416,0)" style="font-size: 13px;"><line stroke="currentColor" y2="6"></line><text fill="currentColor" y="9" dy="0.71em">500,000x</text></g><g class="tick" opacity="1" transform="translate(470.2582100888499,0)" style="font-size: 13px;"><line stroke="currentColor" y2="6"></line><text fill="currentColor" y="9" dy="0.71em">600,000x</text></g></g><text transform="translate(400, 30)" style="text-anchor: middle; font-size: 20px; font-weight: bold;">optimizer benchmark</text><rect x="650" y="125" width="230" height="5" fill="gray"></rect><rect x="645" y="35" width="230" height="90" fill="none" stroke="black"></rect><rect x="655" y="45" width="10" height="10" style="fill: #4472c4;"></rect><text x="670" y="55" style="font-size: 12px;">typia</text><rect x="655" y="65" width="10" height="10" style="fill: #ed7d31;"></rect><text x="670" y="75" style="font-size: 12px;">typebox</text><rect x="655" y="85" width="10" height="10" style="fill: #a5a5a5;"></rect><text x="670" y="95" style="font-size: 12px;">ajv</text><rect x="655" y="105" width="10" height="10" style="fill: #ffc000;"></rect><text x="670" y="115" style="font-size: 12px;">class-validator</text><text x="20" y="589" style="font-size: 12px;">  - CPU: AMD Ryzen 9 7940HS w/ Radeon 780M Graphics</text><text x="20" y="606" style="font-size: 12px;">  - OS: win32</text><text x="20" y="623" style="font-size: 12px;">  - RAM: 31 GB</text><text x="20" y="640" style="font-size: 12px;">  - NodeJS version: v22.3.0</text><text x="20" y="657" style="font-size: 12px;">  - Typia version: v7.6.0</text><g style="font-size: 13px;"><g style="font-size: 13px;"><rect x="150" y="51.584362139917694" width="440.9090909090909" height="12.510288065843621" fill="#4472c4"></rect><rect x="150" y="64.75308641975309" width="0.23254506929458274" height="12.510288065843621" fill="#ed7d31"></rect><rect x="150" y="77.92181069958848" width="0.0007829303501480832" height="12.510288065843621" fill="#a5a5a5"></rect><rect x="150" y="91.09053497942386" width="0.2039303597469931" height="12.510288065843621" fill="#ffc000"></rect><text class="label" x="599.4090909090909" y="60.084362139917694" font-size="10px">563,152x</text><text class="label" x="158.7325450692946" y="73.25308641975309" font-size="10px">297x</text><text class="label" x="158.50078293035014" y="86.42181069958848" font-size="10px">1x</text><text class="label" x="158.703930359747" y="99.59053497942386" font-size="10px">260x</text><text class="label" x="595.9090909090909" y="61.584362139917694" font-size="8px"></text><text class="label" x="155.2325450692946" y="74.75308641975309" font-size="8px"></text><text class="label" x="155.00078293035014" y="87.92181069958848" font-size="8px"></text><text class="label" x="155.203930359747" y="101.09053497942386" font-size="8px"></text></g><g style="font-size: 13px;"><rect x="150" y="110.84362139917695" width="237.04175922631995" height="12.510288065843621" fill="#4472c4"></rect><rect x="150" y="124.01234567901236" width="0.10386940084211321" height="12.510288065843621" fill="#ed7d31"></rect><rect x="150" y="137.18106995884773" width="0.0007829303501480832" height="12.510288065843621" fill="#a5a5a5"></rect><rect x="150" y="150.34979423868313" width="0.07926906572384765" height="12.510288065843621" fill="#ffc000"></rect><text class="label" x="395.54175922632" y="119.34362139917695" font-size="10px">302,762x</text><text class="label" x="158.60386940084211" y="132.51234567901236" font-size="10px">133x</text><text class="label" x="158.50078293035014" y="145.68106995884773" font-size="10px">1x</text><text class="label" x="158.57926906572385" y="158.84979423868313" font-size="10px">101x</text><text class="label" x="392.04175922632" y="120.84362139917695" font-size="8px"></text><text class="label" x="155.10386940084211" y="134.01234567901236" font-size="8px"></text><text class="label" x="155.00078293035014" y="147.18106995884773" font-size="8px"></text><text class="label" x="155.07926906572385" y="160.34979423868313" font-size="8px"></text></g><g style="font-size: 13px;"><rect x="150" y="170.10288065843622" width="90.9733496261812" height="12.510288065843621" fill="#4472c4"></rect><rect x="150" y="183.2716049382716" width="0.17080949575784268" height="12.510288065843621" fill="#ed7d31"></rect><rect x="150" y="196.440329218107" width="0.0007829303501480832" height="12.510288065843621" fill="#a5a5a5"></rect><rect x="150" y="209.6090534979424" width="0.03704773111584135" height="12.510288065843621" fill="#ffc000"></rect><text class="label" x="249.4733496261812" y="178.60288065843622" font-size="10px">116,196x</text><text class="label" x="158.67080949575785" y="191.7716049382716" font-size="10px">218x</text><text class="label" x="158.50078293035014" y="204.940329218107" font-size="10px">1x</text><text class="label" x="158.53704773111585" y="218.1090534979424" font-size="10px">47x</text><text class="label" x="245.9733496261812" y="180.10288065843622" font-size="8px"></text><text class="label" x="155.17080949575785" y="193.2716049382716" font-size="8px"></text><text class="label" x="155.00078293035014" y="206.440329218107" font-size="8px"></text><text class="label" x="155.03704773111585" y="219.6090534979424" font-size="8px"></text></g><g style="font-size: 13px;"><rect x="150" y="229.36213991769546" width="35.08894528807225" height="12.510288065843621" fill="#4472c4"></rect><rect x="150" y="242.53086419753086" width="0.06849521971413378" height="12.510288065843621" fill="#ed7d31"></rect><rect x="150" y="255.69958847736626" width="0.0007829303501480832" height="12.510288065843621" fill="#a5a5a5"></rect><rect x="150" y="268.86831275720164" width="0.11153749350891025" height="12.510288065843621" fill="#ffc000"></rect><text class="label" x="193.58894528807224" y="237.86213991769546" font-size="10px">44,817x</text><text class="label" x="158.56849521971412" y="251.03086419753086" font-size="10px">87x</text><text class="label" x="158.50078293035014" y="264.19958847736626" font-size="10px">1x</text><text class="label" x="158.6115374935089" y="277.36831275720164" font-size="10px">142x</text><text class="label" x="190.08894528807224" y="239.36213991769546" font-size="8px"></text><text class="label" x="155.06849521971412" y="252.53086419753086" font-size="8px"></text><text class="label" x="155.00078293035014" y="265.69958847736626" font-size="8px"></text><text class="label" x="155.1115374935089" y="278.86831275720164" font-size="8px"></text></g><g style="font-size: 13px;"><rect x="150" y="288.6213991769547" width="43.26064515054388" height="12.510288065843621" fill="#4472c4"></rect><rect x="150" y="301.7901234567901" width="0.2174968508264614" height="12.510288065843621" fill="#ed7d31"></rect><rect x="150" y="314.9588477366255" width="0.0007829303501480832" height="12.510288065843621" fill="#a5a5a5"></rect><rect x="150" y="328.12757201646093" width="0.11609544089437374" height="12.510288065843621" fill="#ffc000"></rect><text class="label" x="201.7606451505439" y="297.1213991769547" font-size="10px">55,255x</text><text class="label" x="158.71749685082645" y="310.2901234567901" font-size="10px">278x</text><text class="label" x="158.50078293035014" y="323.4588477366255" font-size="10px">1x</text><text class="label" x="158.61609544089438" y="336.62757201646093" font-size="10px">148x</text><text class="label" x="198.2606451505439" y="298.6213991769547" font-size="8px"></text><text class="label" x="155.21749685082645" y="311.7901234567901" font-size="8px"></text><text class="label" x="155.00078293035014" y="324.9588477366255" font-size="8px"></text><text class="label" x="155.11609544089438" y="338.12757201646093" font-size="8px"></text></g><g style="font-size: 13px;"><rect x="150" y="347.880658436214" width="3.984009982423286" height="12.510288065843621" fill="#4472c4"></rect><rect x="150" y="361.04938271604937" width="0.11924607325502325" height="12.510288065843621" fill="#ed7d31"></rect><rect x="150" y="374.2181069958848" width="0.0007829303501480832" height="12.510288065843621" fill="#a5a5a5"></rect><rect x="150" y="387.38683127572017" width="0.0056671474276848615" height="12.510288065843621" fill="#ffc000"></rect><text class="label" x="162.4840099824233" y="356.380658436214" font-size="10px">5,089x</text><text class="label" x="158.61924607325503" y="369.54938271604937" font-size="10px">152x</text><text class="label" x="158.50078293035014" y="382.7181069958848" font-size="10px">1x</text><text class="label" x="158.5056671474277" y="395.88683127572017" font-size="10px">7x</text><text class="label" x="158.9840099824233" y="357.880658436214" font-size="8px"></text><text class="label" x="155.11924607325503" y="371.04938271604937" font-size="8px"></text><text class="label" x="155.00078293035014" y="384.2181069958848" font-size="8px"></text><text class="label" x="155.0056671474277" y="397.38683127572017" font-size="8px"></text></g><g style="font-size: 13px;"><rect x="150" y="407.13991769547323" width="2.498337506429231" height="12.510288065843621" fill="#4472c4"></rect><rect x="150" y="420.3086419753086" width="0.08142814004655358" height="12.510288065843621" fill="#ed7d31"></rect><rect x="150" y="433.47736625514403" width="0.0007829303501480832" height="12.510288065843621" fill="#a5a5a5"></rect><rect x="150" y="446.6460905349794" width="0.002542623184940865" height="12.510288065843621" fill="#ffc000"></rect><text class="label" x="160.99833750642924" y="415.63991769547323" font-size="10px">3,191x</text><text class="label" x="158.58142814004654" y="428.8086419753086" font-size="10px">104x</text><text class="label" x="158.50078293035014" y="441.97736625514403" font-size="10px">1x</text><text class="label" x="158.50254262318495" y="455.1460905349794" font-size="10px">3x</text><text class="label" x="157.49833750642924" y="417.13991769547323" font-size="8px"></text><text class="label" x="155.08142814004654" y="430.3086419753086" font-size="8px"></text><text class="label" x="155.00078293035014" y="443.47736625514403" font-size="8px"></text><text class="label" x="155.00254262318495" y="456.6460905349794" font-size="8px"></text></g><g style="font-size: 13px;"><rect x="150" y="466.3991769547325" width="5.399603861279036" height="12.510288065843621" fill="#4472c4"></rect><rect x="150" y="479.5679012345679" width="0.08645971156984135" height="12.510288065843621" fill="#ed7d31"></rect><rect x="150" y="492.73662551440333" width="0.0007829303501480832" height="12.510288065843621" fill="#a5a5a5"></rect><rect x="150" y="505.9053497942387" width="0.03577534357701251" height="12.510288065843621" fill="#ffc000"></rect><text class="label" x="163.89960386127905" y="474.8991769547325" font-size="10px">6,897x</text><text class="label" x="158.58645971156983" y="488.0679012345679" font-size="10px">110x</text><text class="label" x="158.50078293035014" y="501.23662551440333" font-size="10px">1x</text><text class="label" x="158.535775343577" y="514.4053497942386" font-size="10px">46x</text><text class="label" x="160.39960386127905" y="476.3991769547325" font-size="8px"></text><text class="label" x="155.08645971156983" y="489.5679012345679" font-size="8px"></text><text class="label" x="155.00078293035014" y="502.73662551440333" font-size="8px"></text><text class="label" x="155.035775343577" y="515.9053497942386" font-size="8px"></text></g></g></svg>