<svg xmlns="http://www.w3.org/2000/svg" xmlns:xlink="http://www.w3.org/1999/xlink" width="800" height="914" style="background-color: white;"><g class="y axis" transform="translate(149,45)" fill="none" font-size="10" font-family="sans-serif" text-anchor="end" style="font-size: 13px;"><path class="domain" stroke="currentColor" d="M0.5,0.5V720.5"></path><g class="tick" opacity="1" transform="translate(0,48.88888888888886)" style="font-size: 13px;"><line stroke="currentColor" x2="0"></line><text fill="currentColor" x="-3" dy="0.32em">object (simple)    </text></g><g class="tick" opacity="1" transform="translate(0,137.77777777777774)" style="font-size: 13px;"><line stroke="currentColor" x2="0"></line><text fill="currentColor" x="-3" dy="0.32em">object (hierarchical)    </text></g><g class="tick" opacity="1" transform="translate(0,226.66666666666663)" style="font-size: 13px;"><line stroke="currentColor" x2="0"></line><text fill="currentColor" x="-3" dy="0.32em">object (recursive)    </text></g><g class="tick" opacity="1" transform="translate(0,315.5555555555555)" style="font-size: 13px;"><line stroke="currentColor" x2="0"></line><text fill="currentColor" x="-3" dy="0.32em">object (union, explicit)    </text></g><g class="tick" opacity="1" transform="translate(0,404.4444444444444)" style="font-size: 13px;"><line stroke="currentColor" x2="0"></line><text fill="currentColor" x="-3" dy="0.32em">array (simple)    </text></g><g class="tick" opacity="1" transform="translate(0,493.3333333333333)" style="font-size: 13px;"><line stroke="currentColor" x2="0"></line><text fill="currentColor" x="-3" dy="0.32em">array (hierarchical)    </text></g><g class="tick" opacity="1" transform="translate(0,582.2222222222222)" style="font-size: 13px;"><line stroke="currentColor" x2="0"></line><text fill="currentColor" x="-3" dy="0.32em">array (recursive)    </text></g><g class="tick" opacity="1" transform="translate(0,671.1111111111111)" style="font-size: 13px;"><line stroke="currentColor" x2="0"></line><text fill="currentColor" x="-3" dy="0.32em">array (union, explicit)    </text></g></g><g class="x axis" transform="translate(149,765)" fill="none" font-size="10" font-family="sans-serif" text-anchor="middle" style="font-size: 13px;"><path class="domain" stroke="currentColor" d="M0.5,0.5H485.5"></path><g class="tick" opacity="1" transform="translate(0.5,0)" style="font-size: 13px;"><line stroke="currentColor" y2="6"></line><text fill="currentColor" y="9" dy="0.71em">0x</text></g><g class="tick" opacity="1" transform="translate(128.85045912722947,0)" style="font-size: 13px;"><line stroke="currentColor" y2="6"></line><text fill="currentColor" y="9" dy="0.71em">50x</text></g><g class="tick" opacity="1" transform="translate(257.20091825445894,0)" style="font-size: 13px;"><line stroke="currentColor" y2="6"></line><text fill="currentColor" y="9" dy="0.71em">100x</text></g><g class="tick" opacity="1" transform="translate(385.5513773816884,0)" style="font-size: 13px;"><line stroke="currentColor" y2="6"></line><text fill="currentColor" y="9" dy="0.71em">150x</text></g></g><text transform="translate(400, 30)" style="text-anchor: middle; font-size: 20px; font-weight: bold;">stringify benchmark</text><rect x="650" y="165" width="230" height="5" fill="gray"></rect><rect x="645" y="35" width="230" height="130" fill="none" stroke="black"></rect><rect x="655" y="45" width="10" height="10" style="fill: #4472c4;"></rect><text x="670" y="55" style="font-size: 12px;">typia.stringify</text><rect x="655" y="65" width="10" height="10" style="fill: #ed7d31;"></rect><text x="670" y="75" style="font-size: 12px;">typia.isStringify</text><rect x="655" y="85" width="10" height="10" style="fill: #a5a5a5;"></rect><text x="670" y="95" style="font-size: 12px;">typia.assertStringify</text><rect x="655" y="105" width="10" height="10" style="fill: #ffc000;"></rect><text x="670" y="115" style="font-size: 12px;">fast-json-stringify</text><rect x="655" y="125" width="10" height="10" style="fill: #5b9bd5;"></rect><text x="670" y="135" style="font-size: 12px;">JSON.stringify</text><rect x="655" y="145" width="10" height="10" style="fill: #70ad47;"></rect><text x="670" y="155" style="font-size: 12px;">class-transformer</text><text x="20" y="829" style="font-size: 12px;">  - CPU: AMD Ryzen 9 7940HS w/ Radeon 780M Graphics</text><text x="20" y="846" style="font-size: 12px;">  - OS: win32</text><text x="20" y="863" style="font-size: 12px;">  - RAM: 31 GB</text><text x="20" y="880" style="font-size: 12px;">  - NodeJS version: v22.3.0</text><text x="20" y="897" style="font-size: 12px;">  - Typia version: v7.6.0</text><g style="font-size: 13px;"><g style="font-size: 13px;"><rect x="150" y="54.55004591368224" width="440.9090909090908" height="12.56198347107438" fill="#4472c4"></rect><rect x="150" y="67.77318640955001" width="318.3661300325366" height="12.56198347107438" fill="#ed7d31"></rect><rect x="150" y="80.99632690541777" width="379.77439498710464" height="12.56198347107438" fill="#a5a5a5"></rect><rect x="150" y="94.21946740128556" width="180.28713247569922" height="12.56198347107438" fill="#ffc000"></rect><rect x="150" y="107.44260789715332" width="133.24349010674075" height="12.56198347107438" fill="#5b9bd5"></rect><rect x="150" y="120.66574839302109" width="2.5670091825445893" height="12.56198347107438" fill="#70ad47"></rect><text class="label" x="599.4090909090908" y="63.05004591368224" font-size="10px">172x</text><text class="label" x="476.8661300325366" y="76.27318640955001" font-size="10px">124x</text><text class="label" x="538.2743949871046" y="89.49632690541777" font-size="10px">148x</text><text class="label" x="338.7871324756992" y="102.71946740128556" font-size="10px">70x</text><text class="label" x="291.74349010674075" y="115.94260789715332" font-size="10px">52x</text><text class="label" x="161.06700918254458" y="129.1657483930211" font-size="10px">1x</text><text class="label" x="595.9090909090908" y="64.55004591368224" font-size="8px"></text><text class="label" x="473.3661300325366" y="77.77318640955001" font-size="8px"></text><text class="label" x="534.7743949871046" y="90.99632690541777" font-size="8px"></text><text class="label" x="335.2871324756992" y="104.21946740128556" font-size="8px"></text><text class="label" x="288.24349010674075" y="117.44260789715332" font-size="8px"></text><text class="label" x="157.56700918254458" y="130.6657483930211" font-size="8px"></text></g><g style="font-size: 13px;"><rect x="150" y="143.4389348025711" width="129.6073960995285" height="12.56198347107438" fill="#4472c4"></rect><rect x="150" y="156.66207529843888" width="116.59173821221569" height="12.56198347107438" fill="#ed7d31"></rect><rect x="150" y="169.88521579430665" width="119.24709253686277" height="12.56198347107438" fill="#a5a5a5"></rect><rect x="150" y="183.10835629017444" width="68.0850099480743" height="12.56198347107438" fill="#ffc000"></rect><rect x="150" y="196.3314967860422" width="110.79540201807335" height="12.56198347107438" fill="#5b9bd5"></rect><rect x="150" y="209.55463728190998" width="2.5670091825445893" height="12.56198347107438" fill="#70ad47"></rect><text class="label" x="288.1073960995285" y="151.9389348025711" font-size="10px">50x</text><text class="label" x="275.09173821221566" y="165.16207529843888" font-size="10px">45x</text><text class="label" x="277.74709253686274" y="178.38521579430665" font-size="10px">46x</text><text class="label" x="226.5850099480743" y="191.60835629017444" font-size="10px">27x</text><text class="label" x="269.29540201807333" y="204.8314967860422" font-size="10px">43x</text><text class="label" x="161.06700918254458" y="218.05463728190998" font-size="10px">1x</text><text class="label" x="284.6073960995285" y="153.4389348025711" font-size="8px"></text><text class="label" x="271.59173821221566" y="166.66207529843888" font-size="8px"></text><text class="label" x="274.24709253686274" y="179.88521579430665" font-size="8px"></text><text class="label" x="223.0850099480743" y="193.10835629017444" font-size="8px"></text><text class="label" x="265.79540201807333" y="206.3314967860422" font-size="8px"></text><text class="label" x="157.56700918254458" y="219.55463728190998" font-size="8px"></text></g><g style="font-size: 13px;"><rect x="150" y="232.32782369146003" width="265.5196820323157" height="12.56198347107438" fill="#4472c4"></rect><rect x="150" y="245.5509641873278" width="228.2365512386798" height="12.56198347107438" fill="#ed7d31"></rect><rect x="150" y="258.77410468319556" width="242.9872680160009" height="12.56198347107438" fill="#a5a5a5"></rect><rect x="150" y="271.9972451790633" width="131.90522440447094" height="12.56198347107438" fill="#ffc000"></rect><rect x="150" y="285.2203856749311" width="181.77653004084297" height="12.56198347107438" fill="#5b9bd5"></rect><rect x="150" y="298.44352617079886" width="2.5670091825445893" height="12.56198347107438" fill="#70ad47"></rect><text class="label" x="424.0196820323157" y="240.82782369146003" font-size="10px">103x</text><text class="label" x="386.7365512386798" y="254.0509641873278" font-size="10px">89x</text><text class="label" x="401.48726801600094" y="267.27410468319556" font-size="10px">95x</text><text class="label" x="290.4052244044709" y="280.4972451790633" font-size="10px">51x</text><text class="label" x="340.276530040843" y="293.7203856749311" font-size="10px">71x</text><text class="label" x="161.06700918254458" y="306.94352617079886" font-size="10px">1x</text><text class="label" x="420.5196820323157" y="242.32782369146003" font-size="8px"></text><text class="label" x="383.2365512386798" y="255.5509641873278" font-size="8px"></text><text class="label" x="397.98726801600094" y="268.77410468319556" font-size="8px"></text><text class="label" x="286.9052244044709" y="281.9972451790633" font-size="8px"></text><text class="label" x="336.776530040843" y="295.2203856749311" font-size="8px"></text><text class="label" x="157.56700918254458" y="308.44352617079886" font-size="8px"></text></g><g style="font-size: 13px;"><rect x="150" y="321.2167125803489" width="52.270710852631105" height="12.56198347107438" fill="#4472c4"></rect><rect x="150" y="334.43985307621665" width="41.629233868681936" height="12.56198347107438" fill="#ed7d31"></rect><rect x="150" y="347.6629935720844" width="45.43220567138288" height="12.56198347107438" fill="#a5a5a5"></rect><rect x="150" y="360.8861340679522" width="76.51040193848155" height="12.56198347107438" fill="#ffc000"></rect><rect x="150" y="374.10927456381995" width="270.3345894205797" height="12.56198347107438" fill="#5b9bd5"></rect><rect x="150" y="387.3324150596877" width="2.5670091825445893" height="12.56198347107438" fill="#70ad47"></rect><text class="label" x="210.7707108526311" y="329.7167125803489" font-size="10px">20x</text><text class="label" x="200.12923386868192" y="342.93985307621665" font-size="10px">16x</text><text class="label" x="203.9322056713829" y="356.1629935720844" font-size="10px">18x</text><text class="label" x="235.01040193848155" y="369.3861340679522" font-size="10px">30x</text><text class="label" x="428.8345894205797" y="382.60927456381995" font-size="10px">105x</text><text class="label" x="161.06700918254458" y="395.8324150596877" font-size="10px">1x</text><text class="label" x="207.2707108526311" y="331.2167125803489" font-size="8px"></text><text class="label" x="196.62923386868192" y="344.43985307621665" font-size="8px"></text><text class="label" x="200.4322056713829" y="357.6629935720844" font-size="8px"></text><text class="label" x="231.51040193848155" y="370.8861340679522" font-size="8px"></text><text class="label" x="425.3345894205797" y="384.10927456381995" font-size="8px"></text><text class="label" x="157.56700918254458" y="397.3324150596877" font-size="8px"></text></g><g style="font-size: 13px;"><rect x="150" y="410.1056014692378" width="27.5831180647142" height="12.56198347107438" fill="#4472c4"></rect><rect x="150" y="423.32874196510556" width="25.895499604647714" height="12.56198347107438" fill="#ed7d31"></rect><rect x="150" y="436.55188246097333" width="26.276799982450044" height="12.56198347107438" fill="#a5a5a5"></rect><rect x="150" y="449.7750229568411" width="83.49782363980052" height="12.56198347107438" fill="#ffc000"></rect><rect x="150" y="462.99816345270887" width="171.70842959366576" height="12.56198347107438" fill="#5b9bd5"></rect><rect x="150" y="476.22130394857663" width="2.5670091825445893" height="12.56198347107438" fill="#70ad47"></rect><text class="label" x="186.0831180647142" y="418.6056014692378" font-size="10px">11x</text><text class="label" x="184.3954996046477" y="431.82874196510556" font-size="10px">10x</text><text class="label" x="184.77679998245003" y="445.05188246097333" font-size="10px">10x</text><text class="label" x="241.99782363980052" y="458.2750229568411" font-size="10px">33x</text><text class="label" x="330.20842959366576" y="471.49816345270887" font-size="10px">67x</text><text class="label" x="161.06700918254458" y="484.72130394857663" font-size="10px">1x</text><text class="label" x="182.5831180647142" y="420.1056014692378" font-size="8px"></text><text class="label" x="180.8954996046477" y="433.32874196510556" font-size="8px"></text><text class="label" x="181.27679998245003" y="446.55188246097333" font-size="8px"></text><text class="label" x="238.49782363980052" y="459.7750229568411" font-size="8px"></text><text class="label" x="326.70842959366576" y="472.99816345270887" font-size="8px"></text><text class="label" x="157.56700918254458" y="486.22130394857663" font-size="8px"></text></g><g style="font-size: 13px;"><rect x="150" y="498.9944903581267" width="41.49924554109319" height="12.56198347107438" fill="#4472c4"></rect><rect x="150" y="512.2176308539945" width="38.850769472604" height="12.56198347107438" fill="#ed7d31"></rect><rect x="150" y="525.4407713498622" width="42.50784128387351" height="12.56198347107438" fill="#a5a5a5"></rect><rect x="150" y="538.66391184573" width="113.68906164544627" height="12.56198347107438" fill="#ffc000"></rect><rect x="150" y="551.8870523415978" width="66.37859105493926" height="12.56198347107438" fill="#5b9bd5"></rect><rect x="150" y="565.1101928374655" width="2.5670091825445893" height="12.56198347107438" fill="#70ad47"></rect><text class="label" x="199.9992455410932" y="507.4944903581267" font-size="10px">16x</text><text class="label" x="197.350769472604" y="520.7176308539945" font-size="10px">15x</text><text class="label" x="201.00784128387352" y="533.9407713498622" font-size="10px">17x</text><text class="label" x="272.18906164544626" y="547.16391184573" font-size="10px">44x</text><text class="label" x="224.87859105493925" y="560.3870523415978" font-size="10px">26x</text><text class="label" x="161.06700918254458" y="573.6101928374655" font-size="10px">1x</text><text class="label" x="196.4992455410932" y="508.9944903581267" font-size="8px"></text><text class="label" x="193.850769472604" y="522.2176308539945" font-size="8px"></text><text class="label" x="197.50784128387352" y="535.4407713498622" font-size="8px"></text><text class="label" x="268.68906164544626" y="548.66391184573" font-size="8px"></text><text class="label" x="221.37859105493925" y="561.8870523415978" font-size="8px"></text><text class="label" x="157.56700918254458" y="575.1101928374655" font-size="8px"></text></g><g style="font-size: 13px;"><rect x="150" y="587.8833792470156" width="41.98960794146504" height="12.56198347107438" fill="#4472c4"></rect><rect x="150" y="601.1065197428833" width="41.44787109947235" height="12.56198347107438" fill="#ed7d31"></rect><rect x="150" y="614.3296602387511" width="39.188334743627884" height="12.56198347107438" fill="#a5a5a5"></rect><rect x="150" y="627.5528007346188" width="123.63457474129383" height="12.56198347107438" fill="#ffc000"></rect><rect x="150" y="640.7759412304866" width="61.08366823471835" height="12.56198347107438" fill="#5b9bd5"></rect><rect x="150" y="653.9990817263545" width="2.5670091825445893" height="12.56198347107438" fill="#70ad47"></rect><text class="label" x="200.48960794146504" y="596.3833792470156" font-size="10px">16x</text><text class="label" x="199.94787109947237" y="609.6065197428833" font-size="10px">16x</text><text class="label" x="197.68833474362788" y="622.8296602387511" font-size="10px">15x</text><text class="label" x="282.1345747412938" y="636.0528007346188" font-size="10px">48x</text><text class="label" x="219.58366823471835" y="649.2759412304866" font-size="10px">24x</text><text class="label" x="161.06700918254458" y="662.4990817263545" font-size="10px">1x</text><text class="label" x="196.98960794146504" y="597.8833792470156" font-size="8px"></text><text class="label" x="196.44787109947237" y="611.1065197428833" font-size="8px"></text><text class="label" x="194.18833474362788" y="624.3296602387511" font-size="8px"></text><text class="label" x="278.6345747412938" y="637.5528007346188" font-size="8px"></text><text class="label" x="216.08366823471835" y="650.7759412304866" font-size="8px"></text><text class="label" x="157.56700918254458" y="663.9990817263545" font-size="8px"></text></g><g style="font-size: 13px;"><rect x="150" y="676.7722681359045" width="51.9601722160734" height="12.56198347107438" fill="#4472c4"></rect><rect x="150" y="689.9954086317722" width="47.464533782966136" height="12.56198347107438" fill="#ed7d31"></rect><rect x="150" y="703.21854912764" width="48.90972429970426" height="12.56198347107438" fill="#a5a5a5"></rect><rect x="150" y="716.4416896235077" width="22.033051250008388" height="12.56198347107438" fill="#ffc000"></rect><rect x="150" y="729.6648301193756" width="253.62615329671345" height="12.56198347107438" fill="#5b9bd5"></rect><rect x="150" y="742.8879706152434" width="2.5670091825445893" height="12.56198347107438" fill="#70ad47"></rect><text class="label" x="210.4601722160734" y="685.2722681359045" font-size="10px">20x</text><text class="label" x="205.96453378296613" y="698.4954086317722" font-size="10px">18x</text><text class="label" x="207.40972429970427" y="711.71854912764" font-size="10px">19x</text><text class="label" x="180.53305125000838" y="724.9416896235077" font-size="10px">9x</text><text class="label" x="412.1261532967135" y="738.1648301193756" font-size="10px">99x</text><text class="label" x="161.06700918254458" y="751.3879706152434" font-size="10px">1x</text><text class="label" x="206.9601722160734" y="686.7722681359045" font-size="8px"></text><text class="label" x="202.46453378296613" y="699.9954086317722" font-size="8px"></text><text class="label" x="203.90972429970427" y="713.21854912764" font-size="8px"></text><text class="label" x="177.03305125000838" y="726.4416896235077" font-size="8px"></text><text class="label" x="408.6261532967135" y="739.6648301193756" font-size="8px"></text><text class="label" x="157.56700918254458" y="752.8879706152434" font-size="8px"></text></g></g></svg>