<svg xmlns="http://www.w3.org/2000/svg" xmlns:xlink="http://www.w3.org/1999/xlink" width="800" height="600" style="background-color: white;"><g class="y axis" transform="translate(149,45)" fill="none" font-size="10" font-family="sans-serif" text-anchor="end" style="font-size: 13px;"><path class="domain" stroke="currentColor" d="M0.5,0.5V525.5"></path><g class="tick" opacity="1" transform="translate(0,40.66901408450705)" style="font-size: 13px;"><line stroke="currentColor" x2="0"></line><text fill="currentColor" x="-3" dy="0.32em">object (simple)    </text></g><g class="tick" opacity="1" transform="translate(0,114.61267605633802)" style="font-size: 13px;"><line stroke="currentColor" x2="0"></line><text fill="currentColor" x="-3" dy="0.32em">object (hierarchical)    </text></g><g class="tick" opacity="1" transform="translate(0,188.556338028169)" style="font-size: 13px;"><line stroke="currentColor" x2="0"></line><text fill="currentColor" x="-3" dy="0.32em">object (recursive)    </text></g><g class="tick" opacity="1" transform="translate(0,262.5)" style="font-size: 13px;"><line stroke="currentColor" x2="0"></line><text fill="currentColor" x="-3" dy="0.32em">object (union)    </text></g><g class="tick" opacity="1" transform="translate(0,336.443661971831)" style="font-size: 13px;"><line stroke="currentColor" x2="0"></line><text fill="currentColor" x="-3" dy="0.32em">array (hierarchical)    </text></g><g class="tick" opacity="1" transform="translate(0,410.38732394366195)" style="font-size: 13px;"><line stroke="currentColor" x2="0"></line><text fill="currentColor" x="-3" dy="0.32em">array (recursive)    </text></g><g class="tick" opacity="1" transform="translate(0,484.33098591549293)" style="font-size: 13px;"><line stroke="currentColor" x2="0"></line><text fill="currentColor" x="-3" dy="0.32em">array (union)    </text></g></g><g class="x axis" transform="translate(149,570)" fill="none" font-size="10" font-family="sans-serif" text-anchor="middle" style="font-size: 13px;"><path class="domain" stroke="currentColor" d="M0.5,0.5H485.5"></path><g class="tick" opacity="1" transform="translate(0.5,0)" style="font-size: 13px;"><line stroke="currentColor" y2="6"></line><text fill="currentColor" y="9" dy="0.71em">0x</text></g><g class="tick" opacity="1" transform="translate(74.35006499512176,0)" style="font-size: 13px;"><line stroke="currentColor" y2="6"></line><text fill="currentColor" y="9" dy="0.71em">1x</text></g><g class="tick" opacity="1" transform="translate(148.2001299902435,0)" style="font-size: 13px;"><line stroke="currentColor" y2="6"></line><text fill="currentColor" y="9" dy="0.71em">2x</text></g><g class="tick" opacity="1" transform="translate(222.0501949853653,0)" style="font-size: 13px;"><line stroke="currentColor" y2="6"></line><text fill="currentColor" y="9" dy="0.71em">3x</text></g><g class="tick" opacity="1" transform="translate(295.900259980487,0)" style="font-size: 13px;"><line stroke="currentColor" y2="6"></line><text fill="currentColor" y="9" dy="0.71em">4x</text></g><g class="tick" opacity="1" transform="translate(369.7503249756088,0)" style="font-size: 13px;"><line stroke="currentColor" y2="6"></line><text fill="currentColor" y="9" dy="0.71em">5x</text></g><g class="tick" opacity="1" transform="translate(443.6003899707306,0)" style="font-size: 13px;"><line stroke="currentColor" y2="6"></line><text fill="currentColor" y="9" dy="0.71em">6x</text></g></g><text transform="translate(400, 30)" style="text-anchor: middle; font-size: 20px; font-weight: bold;">stringify benchmark</text><rect x="680" y="145" width="200" height="5" fill="gray"></rect><rect x="675" y="35" width="200" height="110" fill="none" stroke="black"></rect><rect x="685" y="45" width="10" height="10" style="fill: #4472c4;"></rect><text x="700" y="55" style="font-size: 12px;">TSON.stringify()</text><rect x="685" y="65" width="10" height="10" style="fill: #ed7d31;"></rect><text x="700" y="75" style="font-size: 12px;">TSON.assertStringify()</text><rect x="685" y="85" width="10" height="10" style="fill: #a5a5a5;"></rect><text x="700" y="95" style="font-size: 12px;">TSON.isStringify()</text><rect x="685" y="105" width="10" height="10" style="fill: #ffc000;"></rect><text x="700" y="115" style="font-size: 12px;">JSON.stringify()</text><rect x="685" y="125" width="10" height="10" style="fill: #5b9bd5;"></rect><text x="700" y="135" style="font-size: 12px;">fast-json-stringify</text><g style="font-size: 13px;"><g style="font-size: 13px;"><rect x="150" y="53.05327011574397" width="440.9090909090909" height="12.519174452656534" fill="#4472c4"></rect><rect x="150" y="66.23134848696137" width="362.9145670224371" height="12.519174452656534" fill="#ed7d31"></rect><rect x="150" y="79.40942685817878" width="386.08215138105555" height="12.519174452656534" fill="#a5a5a5"></rect><rect x="150" y="92.58750522939619" width="73.85006499512176" height="12.519174452656534" fill="#ffc000"></rect><rect x="150" y="105.76558360061358" width="309.4877462028493" height="12.519174452656534" fill="#5b9bd5"></rect><text class="label" x="599.4090909090909" y="61.55327011574397" font-size="10px">5.97x</text><text class="label" x="521.414567022437" y="74.73134848696137" font-size="10px">4.91x</text><text class="label" x="544.5821513810556" y="87.90942685817878" font-size="10px">5.23x</text><text class="label" x="232.35006499512176" y="101.08750522939619" font-size="10px">1x</text><text class="label" x="467.9877462028493" y="114.26558360061358" font-size="10px">4.19x</text><text class="label" x="595.9090909090909" y="63.05327011574397" font-size="8px"></text><text class="label" x="517.914567022437" y="76.23134848696137" font-size="8px"></text><text class="label" x="541.0821513810556" y="89.40942685817878" font-size="8px"></text><text class="label" x="228.85006499512176" y="102.58750522939619" font-size="8px"></text><text class="label" x="464.4877462028493" y="115.76558360061358" font-size="8px"></text></g><g style="font-size: 13px;"><rect x="150" y="126.99693208757495" width="226.35262776592" height="12.519174452656534" fill="#4472c4"></rect><rect x="150" y="140.17501045879237" width="194.62515668334697" height="12.519174452656534" fill="#ed7d31"></rect><rect x="150" y="153.35308883000977" width="199.997099636835" height="12.519174452656534" fill="#a5a5a5"></rect><rect x="150" y="166.53116720122716" width="73.85006499512176" height="12.519174452656534" fill="#ffc000"></rect><rect x="150" y="179.70924557244456" width="197.45284640130228" height="12.519174452656534" fill="#5b9bd5"></rect><text class="label" x="384.85262776592003" y="135.49693208757495" font-size="10px">3.07x</text><text class="label" x="353.125156683347" y="148.67501045879237" font-size="10px">2.64x</text><text class="label" x="358.497099636835" y="161.85308883000977" font-size="10px">2.71x</text><text class="label" x="232.35006499512176" y="175.03116720122716" font-size="10px">1x</text><text class="label" x="355.9528464013023" y="188.20924557244456" font-size="10px">2.67x</text><text class="label" x="381.35262776592003" y="136.99693208757495" font-size="8px"></text><text class="label" x="349.625156683347" y="150.17501045879237" font-size="8px"></text><text class="label" x="354.997099636835" y="163.35308883000977" font-size="8px"></text><text class="label" x="228.85006499512176" y="176.53116720122716" font-size="8px"></text><text class="label" x="352.4528464013023" y="189.70924557244456" font-size="8px"></text></g><g style="font-size: 13px;"><rect x="150" y="200.94059405940592" width="313.6547460862476" height="12.519174452656534" fill="#4472c4"></rect><rect x="150" y="214.11867243062332" width="274.2260795148876" height="12.519174452656534" fill="#ed7d31"></rect><rect x="150" y="227.29675080184074" width="285.4997518644161" height="12.519174452656534" fill="#a5a5a5"></rect><rect x="150" y="240.47482917305814" width="73.85006499512176" height="12.519174452656534" fill="#ffc000"></rect><rect x="150" y="253.65290754427554" width="75.5762522888909" height="12.519174452656534" fill="#5b9bd5"></rect><text class="label" x="472.1547460862476" y="209.44059405940592" font-size="10px">4.25x</text><text class="label" x="432.7260795148876" y="222.61867243062332" font-size="10px">3.71x</text><text class="label" x="443.9997518644161" y="235.79675080184074" font-size="10px">3.87x</text><text class="label" x="232.35006499512176" y="248.97482917305814" font-size="10px">1x</text><text class="label" x="234.07625228889088" y="262.15290754427554" font-size="10px">1.02x</text><text class="label" x="468.6547460862476" y="210.94059405940592" font-size="8px"></text><text class="label" x="429.2260795148876" y="224.11867243062332" font-size="8px"></text><text class="label" x="440.4997518644161" y="237.29675080184074" font-size="8px"></text><text class="label" x="228.85006499512176" y="250.47482917305814" font-size="8px"></text><text class="label" x="230.57625228889088" y="263.65290754427554" font-size="8px"></text></g><g style="font-size: 13px;"><rect x="150" y="274.8842560312369" width="145.6543522994594" height="12.519174452656534" fill="#4472c4"></rect><rect x="150" y="288.0623344024543" width="112.09522106094374" height="12.519174452656534" fill="#ed7d31"></rect><rect x="150" y="301.2404127736717" width="128.4743167321764" height="12.519174452656534" fill="#a5a5a5"></rect><rect x="150" y="314.4184911448891" width="73.85006499512176" height="12.519174452656534" fill="#ffc000"></rect><rect x="150" y="327.5965695161065" width="131.954662187175" height="12.519174452656534" fill="#5b9bd5"></rect><text class="label" x="304.1543522994594" y="283.3842560312369" font-size="10px">1.97x</text><text class="label" x="270.59522106094374" y="296.5623344024543" font-size="10px">1.52x</text><text class="label" x="286.97431673217636" y="309.7404127736717" font-size="10px">1.74x</text><text class="label" x="232.35006499512176" y="322.9184911448891" font-size="10px">1x</text><text class="label" x="290.454662187175" y="336.0965695161065" font-size="10px">1.79x</text><text class="label" x="300.6543522994594" y="284.8842560312369" font-size="8px"></text><text class="label" x="267.09522106094374" y="298.0623344024543" font-size="8px"></text><text class="label" x="283.47431673217636" y="311.2404127736717" font-size="8px"></text><text class="label" x="228.85006499512176" y="324.4184911448891" font-size="8px"></text><text class="label" x="286.954662187175" y="337.5965695161065" font-size="8px"></text></g><g style="font-size: 13px;"><rect x="150" y="348.8279180030679" width="137.62355438018608" height="12.519174452656534" fill="#4472c4"></rect><rect x="150" y="362.0059963742853" width="126.18497057235021" height="12.519174452656534" fill="#ed7d31"></rect><rect x="150" y="375.1840747455027" width="137.59237527385204" height="12.519174452656534" fill="#a5a5a5"></rect><rect x="150" y="388.3621531167201" width="73.85006499512176" height="12.519174452656534" fill="#ffc000"></rect><rect x="150" y="401.5402314879375" width="179.90459840274107" height="12.519174452656534" fill="#5b9bd5"></rect><text class="label" x="296.1235543801861" y="357.3279180030679" font-size="10px">1.86x</text><text class="label" x="284.6849705723502" y="370.5059963742853" font-size="10px">1.71x</text><text class="label" x="296.09237527385204" y="383.6840747455027" font-size="10px">1.86x</text><text class="label" x="232.35006499512176" y="396.8621531167201" font-size="10px">1x</text><text class="label" x="338.40459840274104" y="410.0402314879375" font-size="10px">2.44x</text><text class="label" x="292.6235543801861" y="358.8279180030679" font-size="8px"></text><text class="label" x="281.1849705723502" y="372.0059963742853" font-size="8px"></text><text class="label" x="292.59237527385204" y="385.1840747455027" font-size="8px"></text><text class="label" x="228.85006499512176" y="398.3621531167201" font-size="8px"></text><text class="label" x="334.90459840274104" y="411.5402314879375" font-size="8px"></text></g><g style="font-size: 13px;"><rect x="150" y="422.7715799748988" width="131.28323994284366" height="12.519174452656534" fill="#4472c4"></rect><rect x="150" y="435.9496583461163" width="127.37211304618423" height="12.519174452656534" fill="#ed7d31"></rect><rect x="150" y="449.1277367173337" width="136.65310540539278" height="12.519174452656534" fill="#a5a5a5"></rect><rect x="150" y="462.30581508855107" width="73.85006499512176" height="12.519174452656534" fill="#ffc000"></rect><rect x="150" y="475.48389345976847" width="77.83062767780318" height="12.519174452656534" fill="#5b9bd5"></rect><text class="label" x="289.7832399428437" y="431.2715799748988" font-size="10px">1.78x</text><text class="label" x="285.8721130461842" y="444.4496583461163" font-size="10px">1.72x</text><text class="label" x="295.1531054053928" y="457.6277367173337" font-size="10px">1.85x</text><text class="label" x="232.35006499512176" y="470.80581508855107" font-size="10px">1x</text><text class="label" x="236.3306276778032" y="483.98389345976847" font-size="10px">1.05x</text><text class="label" x="286.2832399428437" y="432.7715799748988" font-size="8px"></text><text class="label" x="282.3721130461842" y="445.9496583461163" font-size="8px"></text><text class="label" x="291.6531054053928" y="459.1277367173337" font-size="8px"></text><text class="label" x="228.85006499512176" y="472.30581508855107" font-size="8px"></text><text class="label" x="232.8306276778032" y="485.48389345976847" font-size="8px"></text></g><g style="font-size: 13px;"><rect x="150" y="496.71524194672986" width="93.93196283560493" height="12.519174452656534" fill="#4472c4"></rect><rect x="150" y="509.89332031794726" width="78.61388241965865" height="12.519174452656534" fill="#ed7d31"></rect><rect x="150" y="523.0713986891647" width="80.5319872681412" height="12.519174452656534" fill="#a5a5a5"></rect><rect x="150" y="536.2494770603821" width="84.42375654866692" height="12.519174452656534" fill="#ffc000"></rect><rect x="150" y="549.4275554315994" width="73.85006499512176" height="12.519174452656534" fill="#5b9bd5"></rect><text class="label" x="252.43196283560493" y="505.21524194672986" font-size="10px">1.27x</text><text class="label" x="237.11388241965864" y="518.3933203179472" font-size="10px">1.06x</text><text class="label" x="239.0319872681412" y="531.5713986891647" font-size="10px">1.09x</text><text class="label" x="242.92375654866692" y="544.7494770603821" font-size="10px">1.14x</text><text class="label" x="232.35006499512176" y="557.9275554315994" font-size="10px">1x</text><text class="label" x="248.93196283560493" y="506.71524194672986" font-size="8px"></text><text class="label" x="233.61388241965864" y="519.8933203179472" font-size="8px"></text><text class="label" x="235.5319872681412" y="533.0713986891647" font-size="8px"></text><text class="label" x="239.42375654866692" y="546.2494770603821" font-size="8px"></text><text class="label" x="228.85006499512176" y="559.4275554315994" font-size="8px"></text></g></g></svg>