<svg xmlns="http://www.w3.org/2000/svg" xmlns:xlink="http://www.w3.org/1999/xlink" width="800" height="1004" style="background-color: white;"><g class="y axis" transform="translate(149,45)" fill="none" font-size="10" font-family="sans-serif" text-anchor="end" style="font-size: 13px;"><path class="domain" stroke="currentColor" d="M0.5,0.5V810.5"></path><g class="tick" opacity="1" transform="translate(0,48.95604395604397)" style="font-size: 13px;"><line stroke="currentColor" x2="0"></line><text fill="currentColor" x="-3" dy="0.32em">object (simple)    </text></g><g class="tick" opacity="1" transform="translate(0,137.967032967033)" style="font-size: 13px;"><line stroke="currentColor" x2="0"></line><text fill="currentColor" x="-3" dy="0.32em">object (hierarchical)    </text></g><g class="tick" opacity="1" transform="translate(0,226.97802197802199)" style="font-size: 13px;"><line stroke="currentColor" x2="0"></line><text fill="currentColor" x="-3" dy="0.32em">object (recursive)    </text></g><g class="tick" opacity="1" transform="translate(0,315.989010989011)" style="font-size: 13px;"><line stroke="currentColor" x2="0"></line><text fill="currentColor" x="-3" dy="0.32em">object (union, explicit)    </text></g><g class="tick" opacity="1" transform="translate(0,405)" style="font-size: 13px;"><line stroke="currentColor" x2="0"></line><text fill="currentColor" x="-3" dy="0.32em">object (union, implicit)    </text></g><g class="tick" opacity="1" transform="translate(0,494.010989010989)" style="font-size: 13px;"><line stroke="currentColor" x2="0"></line><text fill="currentColor" x="-3" dy="0.32em">array (recursive)    </text></g><g class="tick" opacity="1" transform="translate(0,583.021978021978)" style="font-size: 13px;"><line stroke="currentColor" x2="0"></line><text fill="currentColor" x="-3" dy="0.32em">array (union, explicit)    </text></g><g class="tick" opacity="1" transform="translate(0,672.0329670329671)" style="font-size: 13px;"><line stroke="currentColor" x2="0"></line><text fill="currentColor" x="-3" dy="0.32em">array (union, implicit)    </text></g><g class="tick" opacity="1" transform="translate(0,761.043956043956)" style="font-size: 13px;"><line stroke="currentColor" x2="0"></line><text fill="currentColor" x="-3" dy="0.32em">ultimate union    </text></g></g><g class="x axis" transform="translate(149,855)" fill="none" font-size="10" font-family="sans-serif" text-anchor="middle" style="font-size: 13px;"><path class="domain" stroke="currentColor" d="M0.5,0.5H485.5"></path><g class="tick" opacity="1" transform="translate(0.5,0)" style="font-size: 13px;"><line stroke="currentColor" y2="6"></line><text fill="currentColor" y="9" dy="0.71em">0x</text></g><g class="tick" opacity="1" transform="translate(97.81251894076986,0)" style="font-size: 13px;"><line stroke="currentColor" y2="6"></line><text fill="currentColor" y="9" dy="0.71em">5,000x</text></g><g class="tick" opacity="1" transform="translate(195.12503788153973,0)" style="font-size: 13px;"><line stroke="currentColor" y2="6"></line><text fill="currentColor" y="9" dy="0.71em">10,000x</text></g><g class="tick" opacity="1" transform="translate(292.43755682230955,0)" style="font-size: 13px;"><line stroke="currentColor" y2="6"></line><text fill="currentColor" y="9" dy="0.71em">15,000x</text></g><g class="tick" opacity="1" transform="translate(389.75007576307945,0)" style="font-size: 13px;"><line stroke="currentColor" y2="6"></line><text fill="currentColor" y="9" dy="0.71em">20,000x</text></g></g><text transform="translate(400, 30)" style="text-anchor: middle; font-size: 20px; font-weight: bold;">assert benchmark</text><rect x="650" y="165" width="230" height="5" fill="gray"></rect><rect x="645" y="35" width="230" height="130" fill="none" stroke="black"></rect><rect x="655" y="45" width="10" height="10" style="fill: #4472c4;"></rect><text x="670" y="55" style="font-size: 12px;">typia</text><rect x="655" y="65" width="10" height="10" style="fill: #ed7d31;"></rect><text x="670" y="75" style="font-size: 12px;">typebox</text><rect x="655" y="85" width="10" height="10" style="fill: #a5a5a5;"></rect><text x="670" y="95" style="font-size: 12px;">ajv</text><rect x="655" y="105" width="10" height="10" style="fill: #ffc000;"></rect><text x="670" y="115" style="font-size: 12px;">io-ts</text><rect x="655" y="125" width="10" height="10" style="fill: #5b9bd5;"></rect><text x="670" y="135" style="font-size: 12px;">zod</text><rect x="655" y="145" width="10" height="10" style="fill: #70ad47;"></rect><text x="670" y="155" style="font-size: 12px;">class-validator</text><text x="20" y="919" style="font-size: 12px;">  - CPU: Intel(R) Core(TM) i5-8250U CPU @ 1.60GHz</text><text x="20" y="936" style="font-size: 12px;">  - OS: win32</text><text x="20" y="953" style="font-size: 12px;">  - RAM: 8 GB</text><text x="20" y="970" style="font-size: 12px;">  - NodeJS version: v16.20.1</text><text x="20" y="987" style="font-size: 12px;">  - Typia version: v4.2.0</text><g style="font-size: 13px;"><g style="font-size: 13px;"><rect x="150" y="54.563164108618665" width="428.919914272828" height="12.579238942875305" fill="#4472c4"></rect><rect x="150" y="67.80446825901373" width="440.9090909090909" height="12.579238942875305" fill="#ed7d31"></rect><rect x="150" y="81.04577240940878" width="7.856481013506684" height="12.579238942875305" fill="#a5a5a5"></rect><rect x="150" y="94.28707655980384" width="1.1724850404147695" height="12.579238942875305" fill="#ffc000"></rect><rect x="150" y="107.5283807101989" width="0.1971506259733809" height="12.579238942875305" fill="#5b9bd5"></rect><rect x="150" y="120.76968486059396" width="0.01946250378815397" height="12.579238942875305" fill="#70ad47"></rect><text class="label" x="587.419914272828" y="63.063164108618665" font-size="10px">22,038x</text><text class="label" x="599.4090909090909" y="76.30446825901373" font-size="10px">22,654x</text><text class="label" x="166.35648101350668" y="89.54577240940878" font-size="10px">404x</text><text class="label" x="159.67248504041476" y="102.78707655980384" font-size="10px">60x</text><text class="label" x="158.6971506259734" y="116.0283807101989" font-size="10px">10x</text><text class="label" x="158.51946250378816" y="129.26968486059394" font-size="10px">1x</text><text class="label" x="583.919914272828" y="64.56316410861866" font-size="8px"></text><text class="label" x="595.9090909090909" y="77.80446825901373" font-size="8px"></text><text class="label" x="162.85648101350668" y="91.04577240940878" font-size="8px"></text><text class="label" x="156.17248504041476" y="104.28707655980384" font-size="8px"></text><text class="label" x="155.1971506259734" y="117.5283807101989" font-size="8px"></text><text class="label" x="155.01946250378816" y="130.76968486059394" font-size="8px"></text></g><g style="font-size: 13px;"><rect x="150" y="143.57415311960767" width="52.23961066714867" height="12.579238942875305" fill="#4472c4"></rect><rect x="150" y="156.81545727000272" width="34.94437672090997" height="12.579238942875305" fill="#ed7d31"></rect><rect x="150" y="170.05676142039778" width="9.337939310688707" height="12.579238942875305" fill="#a5a5a5"></rect><rect x="150" y="183.29806557079286" width="1.2064716465670282" height="12.579238942875305" fill="#ffc000"></rect><rect x="150" y="196.5393697211879" width="0.08123840013454872" height="12.579238942875305" fill="#5b9bd5"></rect><rect x="150" y="209.78067387158296" width="0.01946250378815397" height="12.579238942875305" fill="#70ad47"></rect><text class="label" x="210.73961066714867" y="152.07415311960767" font-size="10px">2,684x</text><text class="label" x="193.44437672091" y="165.31545727000272" font-size="10px">1,795x</text><text class="label" x="167.8379393106887" y="178.55676142039778" font-size="10px">480x</text><text class="label" x="159.70647164656702" y="191.79806557079286" font-size="10px">62x</text><text class="label" x="158.58123840013454" y="205.0393697211879" font-size="10px">4x</text><text class="label" x="158.51946250378816" y="218.28067387158296" font-size="10px">1x</text><text class="label" x="207.23961066714867" y="153.57415311960767" font-size="8px"></text><text class="label" x="189.94437672091" y="166.81545727000272" font-size="8px"></text><text class="label" x="164.3379393106887" y="180.05676142039778" font-size="8px"></text><text class="label" x="156.20647164656702" y="193.29806557079286" font-size="8px"></text><text class="label" x="155.08123840013454" y="206.5393697211879" font-size="8px"></text><text class="label" x="155.01946250378816" y="219.78067387158296" font-size="8px"></text></g><g style="font-size: 13px;"><rect x="150" y="232.5851421305967" width="79.45073334783923" height="12.579238942875305" fill="#4472c4"></rect><rect x="150" y="245.82644628099175" width="72.7447680564324" height="12.579238942875305" fill="#ed7d31"></rect><rect x="150" y="259.0677504313868" width="6.571747440631229" height="12.579238942875305" fill="#a5a5a5"></rect><rect x="150" y="272.3090545817819" width="2.136591125615117" height="12.579238942875305" fill="#ffc000"></rect><rect x="150" y="285.5503587321769" width="0.02309597405495224" height="12.579238942875305" fill="#5b9bd5"></rect><rect x="150" y="298.791662882572" width="0.01946250378815397" height="12.579238942875305" fill="#70ad47"></rect><text class="label" x="237.95073334783922" y="241.0851421305967" font-size="10px">4,082x</text><text class="label" x="231.2447680564324" y="254.32644628099175" font-size="10px">3,738x</text><text class="label" x="165.07174744063124" y="267.5677504313868" font-size="10px">338x</text><text class="label" x="160.63659112561513" y="280.8090545817819" font-size="10px">110x</text><text class="label" x="158.52309597405494" y="294.0503587321769" font-size="10px">1x</text><text class="label" x="158.51946250378816" y="307.291662882572" font-size="10px">1x</text><text class="label" x="234.45073334783922" y="242.5851421305967" font-size="8px"></text><text class="label" x="227.7447680564324" y="255.82644628099175" font-size="8px"></text><text class="label" x="161.57174744063124" y="269.0677504313868" font-size="8px"></text><text class="label" x="157.13659112561513" y="282.3090545817819" font-size="8px"></text><text class="label" x="155.02309597405494" y="295.5503587321769" font-size="8px"></text><text class="label" x="155.01946250378816" y="308.791662882572" font-size="8px"></text></g><g style="font-size: 13px;"><rect x="150" y="321.59613114158566" width="7.384957176053248" height="12.579238942875305" fill="#4472c4"></rect><rect x="150" y="334.83743529198074" width="9.044105674928247" height="12.579238942875305" fill="#ed7d31"></rect><rect x="150" y="348.07873944237576" width="0.6338152629432658" height="12.579238942875305" fill="#a5a5a5"></rect><rect x="150" y="361.32004359277084" width="1.1306392332660085" height="12.579238942875305" fill="#ffc000"></rect><rect x="150" y="374.5613477431659" width="0.01946250378815397" height="12.579238942875305" fill="#5b9bd5"></rect><rect x="150" y="387.80265189356095" width="0" height="12.579238942875305" fill="#70ad47"></rect><text class="label" x="165.88495717605326" y="330.09613114158566" font-size="10px">379x</text><text class="label" x="167.54410567492823" y="343.33743529198074" font-size="10px">465x</text><text class="label" x="159.13381526294327" y="356.57873944237576" font-size="10px">33x</text><text class="label" x="159.630639233266" y="369.82004359277084" font-size="10px">58x</text><text class="label" x="158.51946250378816" y="383.0613477431659" font-size="10px">1x</text><text class="label" x="158.5" y="396.30265189356095" font-size="10px"></text><text class="label" x="162.38495717605326" y="331.59613114158566" font-size="8px"></text><text class="label" x="164.04410567492823" y="344.83743529198074" font-size="8px"></text><text class="label" x="155.63381526294327" y="358.07873944237576" font-size="8px"></text><text class="label" x="156.130639233266" y="371.32004359277084" font-size="8px"></text><text class="label" x="155.01946250378816" y="384.5613477431659" font-size="8px"></text><text class="label" x="155" y="397.80265189356095" font-size="8px">Failed</text></g><g style="font-size: 13px;"><rect x="150" y="410.6071201525747" width="485" height="12.579238942875305" fill="#4472c4"></rect><rect x="150" y="423.84842430296976" width="0" height="12.579238942875305" fill="#ed7d31"></rect><rect x="150" y="437.08972845336484" width="0" height="12.579238942875305" fill="#a5a5a5"></rect><rect x="150" y="450.33103260375987" width="0" height="12.579238942875305" fill="#ffc000"></rect><rect x="150" y="463.57233675415495" width="0" height="12.579238942875305" fill="#5b9bd5"></rect><rect x="150" y="476.81364090454997" width="0" height="12.579238942875305" fill="#70ad47"></rect><text class="label" x="643.5" y="419.1071201525747" font-size="10px">Infinity</text><text class="label" x="158.5" y="432.34842430296976" font-size="10px"></text><text class="label" x="158.5" y="445.58972845336484" font-size="10px"></text><text class="label" x="158.5" y="458.83103260375987" font-size="10px"></text><text class="label" x="158.5" y="472.07233675415495" font-size="10px"></text><text class="label" x="158.5" y="485.31364090454997" font-size="10px"></text><text class="label" x="640" y="420.6071201525747" font-size="8px"></text><text class="label" x="155" y="433.84842430296976" font-size="8px">Failed</text><text class="label" x="155" y="447.08972845336484" font-size="8px">Failed</text><text class="label" x="155" y="460.33103260375987" font-size="8px">Failed</text><text class="label" x="155" y="473.57233675415495" font-size="8px">Failed</text><text class="label" x="155" y="486.81364090454997" font-size="8px">Failed</text></g><g style="font-size: 13px;"><rect x="150" y="499.6181091635637" width="13.669876071088076" height="12.579238942875305" fill="#4472c4"></rect><rect x="150" y="512.8594133139588" width="15.673699384706984" height="12.579238942875305" fill="#ed7d31"></rect><rect x="150" y="526.1007174643538" width="4.293854786196437" height="12.579238942875305" fill="#a5a5a5"></rect><rect x="150" y="539.3420216147489" width="1.4551116040510204" height="12.579238942875305" fill="#ffc000"></rect><rect x="150" y="552.583325765144" width="0.024284436934732753" height="12.579238942875305" fill="#5b9bd5"></rect><rect x="150" y="565.824629915539" width="0.01946250378815397" height="12.579238942875305" fill="#70ad47"></rect><text class="label" x="172.16987607108808" y="508.1181091635637" font-size="10px">702x</text><text class="label" x="174.173699384707" y="521.3594133139588" font-size="10px">805x</text><text class="label" x="162.79385478619645" y="534.6007174643538" font-size="10px">221x</text><text class="label" x="159.955111604051" y="547.8420216147489" font-size="10px">75x</text><text class="label" x="158.52428443693472" y="561.083325765144" font-size="10px">1x</text><text class="label" x="158.51946250378816" y="574.324629915539" font-size="10px">1x</text><text class="label" x="168.66987607108808" y="509.6181091635637" font-size="8px"></text><text class="label" x="170.673699384707" y="522.8594133139588" font-size="8px"></text><text class="label" x="159.29385478619645" y="536.1007174643538" font-size="8px"></text><text class="label" x="156.455111604051" y="549.3420216147489" font-size="8px"></text><text class="label" x="155.02428443693472" y="562.583325765144" font-size="8px"></text><text class="label" x="155.01946250378816" y="575.824629915539" font-size="8px"></text></g><g style="font-size: 13px;"><rect x="150" y="588.6290981745527" width="22.75596175930588" height="12.579238942875305" fill="#4472c4"></rect><rect x="150" y="601.8704023249478" width="10.907030170364317" height="12.579238942875305" fill="#ed7d31"></rect><rect x="150" y="615.1117064753429" width="2.2396274105267335" height="12.579238942875305" fill="#a5a5a5"></rect><rect x="150" y="628.353010625738" width="2.404721158330022" height="12.579238942875305" fill="#ffc000"></rect><rect x="150" y="641.5943147761329" width="0.01946250378815397" height="12.579238942875305" fill="#5b9bd5"></rect><rect x="150" y="654.835618926528" width="0" height="12.579238942875305" fill="#70ad47"></rect><text class="label" x="181.25596175930588" y="597.1290981745527" font-size="10px">1,169x</text><text class="label" x="169.40703017036432" y="610.3704023249478" font-size="10px">560x</text><text class="label" x="160.73962741052674" y="623.6117064753429" font-size="10px">115x</text><text class="label" x="160.90472115833003" y="636.853010625738" font-size="10px">124x</text><text class="label" x="158.51946250378816" y="650.0943147761329" font-size="10px">1x</text><text class="label" x="158.5" y="663.335618926528" font-size="10px"></text><text class="label" x="177.75596175930588" y="598.6290981745527" font-size="8px"></text><text class="label" x="165.90703017036432" y="611.8704023249478" font-size="8px"></text><text class="label" x="157.23962741052674" y="625.1117064753429" font-size="8px"></text><text class="label" x="157.40472115833003" y="638.353010625738" font-size="8px"></text><text class="label" x="155.01946250378816" y="651.5943147761329" font-size="8px"></text><text class="label" x="155" y="664.835618926528" font-size="8px">Failed</text></g><g style="font-size: 13px;"><rect x="150" y="677.6400871855418" width="485" height="12.579238942875305" fill="#4472c4"></rect><rect x="150" y="690.8813913359369" width="0" height="12.579238942875305" fill="#ed7d31"></rect><rect x="150" y="704.122695486332" width="0" height="12.579238942875305" fill="#a5a5a5"></rect><rect x="150" y="717.363999636727" width="0" height="12.579238942875305" fill="#ffc000"></rect><rect x="150" y="730.605303787122" width="0" height="12.579238942875305" fill="#5b9bd5"></rect><rect x="150" y="743.8466079375171" width="0" height="12.579238942875305" fill="#70ad47"></rect><text class="label" x="643.5" y="686.1400871855418" font-size="10px">Infinity</text><text class="label" x="158.5" y="699.3813913359369" font-size="10px"></text><text class="label" x="158.5" y="712.622695486332" font-size="10px"></text><text class="label" x="158.5" y="725.863999636727" font-size="10px"></text><text class="label" x="158.5" y="739.105303787122" font-size="10px"></text><text class="label" x="158.5" y="752.3466079375171" font-size="10px"></text><text class="label" x="640" y="687.6400871855418" font-size="8px"></text><text class="label" x="155" y="700.8813913359369" font-size="8px">Failed</text><text class="label" x="155" y="714.122695486332" font-size="8px">Failed</text><text class="label" x="155" y="727.363999636727" font-size="8px">Failed</text><text class="label" x="155" y="740.605303787122" font-size="8px">Failed</text><text class="label" x="155" y="753.8466079375171" font-size="8px">Failed</text></g><g style="font-size: 13px;"><rect x="150" y="766.6510761965307" width="485" height="12.579238942875305" fill="#4472c4"></rect><rect x="150" y="779.8923803469257" width="0" height="12.579238942875305" fill="#ed7d31"></rect><rect x="150" y="793.1336844973208" width="0" height="12.579238942875305" fill="#a5a5a5"></rect><rect x="150" y="806.3749886477159" width="0" height="12.579238942875305" fill="#ffc000"></rect><rect x="150" y="819.6162927981109" width="0" height="12.579238942875305" fill="#5b9bd5"></rect><rect x="150" y="832.8575969485059" width="0" height="12.579238942875305" fill="#70ad47"></rect><text class="label" x="643.5" y="775.1510761965307" font-size="10px">Infinity</text><text class="label" x="158.5" y="788.3923803469257" font-size="10px"></text><text class="label" x="158.5" y="801.6336844973208" font-size="10px"></text><text class="label" x="158.5" y="814.8749886477159" font-size="10px"></text><text class="label" x="158.5" y="828.1162927981109" font-size="10px"></text><text class="label" x="158.5" y="841.3575969485059" font-size="10px"></text><text class="label" x="640" y="776.6510761965307" font-size="8px"></text><text class="label" x="155" y="789.8923803469257" font-size="8px">Failed</text><text class="label" x="155" y="803.1336844973208" font-size="8px">Failed</text><text class="label" x="155" y="816.3749886477159" font-size="8px">Failed</text><text class="label" x="155" y="829.6162927981109" font-size="8px">Failed</text><text class="label" x="155" y="842.8575969485059" font-size="8px">Failed</text></g></g></svg>