<svg xmlns="http://www.w3.org/2000/svg" xmlns:xlink="http://www.w3.org/1999/xlink" width="800" height="674" style="background-color: white;"><g class="y axis" transform="translate(149,45)" fill="none" font-size="10" font-family="sans-serif" text-anchor="end" style="font-size: 13px;"><path class="domain" stroke="currentColor" d="M0.5,0.5V480.5"></path><g class="tick" opacity="1" transform="translate(0,32.592592592592595)" style="font-size: 13px;"><line stroke="currentColor" x2="0"></line><text fill="currentColor" x="-3" dy="0.32em">object (simple)    </text></g><g class="tick" opacity="1" transform="translate(0,91.85185185185186)" style="font-size: 13px;"><line stroke="currentColor" x2="0"></line><text fill="currentColor" x="-3" dy="0.32em">object (hierarchical)    </text></g><g class="tick" opacity="1" transform="translate(0,151.11111111111111)" style="font-size: 13px;"><line stroke="currentColor" x2="0"></line><text fill="currentColor" x="-3" dy="0.32em">object (recursive)    </text></g><g class="tick" opacity="1" transform="translate(0,210.37037037037035)" style="font-size: 13px;"><line stroke="currentColor" x2="0"></line><text fill="currentColor" x="-3" dy="0.32em">object (union, explicit)    </text></g><g class="tick" opacity="1" transform="translate(0,269.6296296296296)" style="font-size: 13px;"><line stroke="currentColor" x2="0"></line><text fill="currentColor" x="-3" dy="0.32em">array (simple)    </text></g><g class="tick" opacity="1" transform="translate(0,328.8888888888889)" style="font-size: 13px;"><line stroke="currentColor" x2="0"></line><text fill="currentColor" x="-3" dy="0.32em">array (hierarchical)    </text></g><g class="tick" opacity="1" transform="translate(0,388.14814814814815)" style="font-size: 13px;"><line stroke="currentColor" x2="0"></line><text fill="currentColor" x="-3" dy="0.32em">array (recursive)    </text></g><g class="tick" opacity="1" transform="translate(0,447.40740740740745)" style="font-size: 13px;"><line stroke="currentColor" x2="0"></line><text fill="currentColor" x="-3" dy="0.32em">array (union, explicit)    </text></g></g><g class="x axis" transform="translate(149,525)" fill="none" font-size="10" font-family="sans-serif" text-anchor="middle" style="font-size: 13px;"><path class="domain" stroke="currentColor" d="M0.5,0.5H485.5"></path><g class="tick" opacity="1" transform="translate(0.5,0)" style="font-size: 13px;"><line stroke="currentColor" y2="6"></line><text fill="currentColor" y="9" dy="0.71em">0x</text></g><g class="tick" opacity="1" transform="translate(114.20714385492968,0)" style="font-size: 13px;"><line stroke="currentColor" y2="6"></line><text fill="currentColor" y="9" dy="0.71em">2,000,000x</text></g><g class="tick" opacity="1" transform="translate(227.91428770985937,0)" style="font-size: 13px;"><line stroke="currentColor" y2="6"></line><text fill="currentColor" y="9" dy="0.71em">4,000,000x</text></g><g class="tick" opacity="1" transform="translate(341.6214315647891,0)" style="font-size: 13px;"><line stroke="currentColor" y2="6"></line><text fill="currentColor" y="9" dy="0.71em">6,000,000x</text></g><g class="tick" opacity="1" transform="translate(455.32857541971873,0)" style="font-size: 13px;"><line stroke="currentColor" y2="6"></line><text fill="currentColor" y="9" dy="0.71em">8,000,000x</text></g></g><text transform="translate(400, 30)" style="text-anchor: middle; font-size: 20px; font-weight: bold;">optimizer benchmark</text><rect x="650" y="125" width="230" height="5" fill="gray"></rect><rect x="645" y="35" width="230" height="90" fill="none" stroke="black"></rect><rect x="655" y="45" width="10" height="10" style="fill: #4472c4;"></rect><text x="670" y="55" style="font-size: 12px;">typia</text><rect x="655" y="65" width="10" height="10" style="fill: #ed7d31;"></rect><text x="670" y="75" style="font-size: 12px;">typebox</text><rect x="655" y="85" width="10" height="10" style="fill: #a5a5a5;"></rect><text x="670" y="95" style="font-size: 12px;">ajv</text><rect x="655" y="105" width="10" height="10" style="fill: #ffc000;"></rect><text x="670" y="115" style="font-size: 12px;">class-validator</text><text x="20" y="589" style="font-size: 12px;">  - CPU: Intel(R) Core(TM) i5-8250U CPU @ 1.60GHz</text><text x="20" y="606" style="font-size: 12px;">  - OS: win32</text><text x="20" y="623" style="font-size: 12px;">  - RAM: 8 GB</text><text x="20" y="640" style="font-size: 12px;">  - NodeJS version: v16.20.1</text><text x="20" y="657" style="font-size: 12px;">  - Typia version: v4.2.0</text><g style="font-size: 13px;"><g style="font-size: 13px;"><rect x="150" y="51.584362139917694" width="440.9090909090908" height="12.510288065843621" fill="#4472c4"></rect><rect x="150" y="64.75308641975309" width="0.015292056979998348" height="12.510288065843621" fill="#ed7d31"></rect><rect x="150" y="77.92181069958848" width="0.000056853571927464846" height="12.510288065843621" fill="#a5a5a5"></rect><rect x="150" y="91.09053497942386" width="0.014748484076667543" height="12.510288065843621" fill="#ffc000"></rect><text class="label" x="599.4090909090908" y="60.084362139917694" font-size="10px">7,755,170x</text><text class="label" x="158.51529205698" y="73.25308641975309" font-size="10px">269x</text><text class="label" x="158.50005685357192" y="86.42181069958848" font-size="10px">1x</text><text class="label" x="158.51474848407668" y="99.59053497942386" font-size="10px">259x</text><text class="label" x="595.9090909090908" y="61.584362139917694" font-size="8px"></text><text class="label" x="155.01529205698" y="74.75308641975309" font-size="8px"></text><text class="label" x="155.00005685357192" y="87.92181069958848" font-size="8px"></text><text class="label" x="155.01474848407668" y="101.09053497942386" font-size="8px"></text></g><g style="font-size: 13px;"><rect x="150" y="110.84362139917695" width="14.190318013089588" height="12.510288065843621" fill="#4472c4"></rect><rect x="150" y="124.01234567901236" width="0.00700151023118345" height="12.510288065843621" fill="#ed7d31"></rect><rect x="150" y="137.18106995884773" width="0.000056853571927464846" height="12.510288065843621" fill="#a5a5a5"></rect><rect x="150" y="150.34979423868313" width="0.0075647459492515085" height="12.510288065843621" fill="#ffc000"></rect><text class="label" x="172.69031801308958" y="119.34362139917695" font-size="10px">249,594x</text><text class="label" x="158.5070015102312" y="132.51234567901236" font-size="10px">123x</text><text class="label" x="158.50005685357192" y="145.68106995884773" font-size="10px">1x</text><text class="label" x="158.50756474594925" y="158.84979423868313" font-size="10px">133x</text><text class="label" x="169.19031801308958" y="120.84362139917695" font-size="8px"></text><text class="label" x="155.0070015102312" y="134.01234567901236" font-size="8px"></text><text class="label" x="155.00005685357192" y="147.18106995884773" font-size="8px"></text><text class="label" x="155.00756474594925" y="160.34979423868313" font-size="8px"></text></g><g style="font-size: 13px;"><rect x="150" y="170.10288065843622" width="4.254412654348949" height="12.510288065843621" fill="#4472c4"></rect><rect x="150" y="183.2716049382716" width="0.020063171635005737" height="12.510288065843621" fill="#ed7d31"></rect><rect x="150" y="196.440329218107" width="0.000056853571927464846" height="12.510288065843621" fill="#a5a5a5"></rect><rect x="150" y="209.6090534979424" width="0.0027078123006147575" height="12.510288065843621" fill="#ffc000"></rect><text class="label" x="162.75441265434895" y="178.60288065843622" font-size="10px">74,831x</text><text class="label" x="158.520063171635" y="191.7716049382716" font-size="10px">353x</text><text class="label" x="158.50005685357192" y="204.940329218107" font-size="10px">1x</text><text class="label" x="158.50270781230063" y="218.1090534979424" font-size="10px">48x</text><text class="label" x="159.25441265434895" y="180.10288065843622" font-size="8px"></text><text class="label" x="155.020063171635" y="193.2716049382716" font-size="8px"></text><text class="label" x="155.00005685357192" y="206.440329218107" font-size="8px"></text><text class="label" x="155.00270781230063" y="219.6090534979424" font-size="8px"></text></g><g style="font-size: 13px;"><rect x="150" y="229.36213991769546" width="1.1362780648604776" height="12.510288065843621" fill="#4472c4"></rect><rect x="150" y="242.53086419753086" width="0.007125069200624011" height="12.510288065843621" fill="#ed7d31"></rect><rect x="150" y="255.69958847736626" width="0.000056853571927464846" height="12.510288065843621" fill="#a5a5a5"></rect><rect x="150" y="268.86831275720164" width="0.005250247057325272" height="12.510288065843621" fill="#ffc000"></rect><text class="label" x="159.63627806486048" y="237.86213991769546" font-size="10px">19,986x</text><text class="label" x="158.5071250692006" y="251.03086419753086" font-size="10px">125x</text><text class="label" x="158.50005685357192" y="264.19958847736626" font-size="10px">1x</text><text class="label" x="158.50525024705732" y="277.36831275720164" font-size="10px">92x</text><text class="label" x="156.13627806486048" y="239.36213991769546" font-size="8px"></text><text class="label" x="155.0071250692006" y="252.53086419753086" font-size="8px"></text><text class="label" x="155.00005685357192" y="265.69958847736626" font-size="8px"></text><text class="label" x="155.00525024705732" y="278.86831275720164" font-size="8px"></text></g><g style="font-size: 13px;"><rect x="150" y="288.6213991769547" width="0.9072124505988928" height="12.510288065843621" fill="#4472c4"></rect><rect x="150" y="301.7901234567901" width="0.008288948127806903" height="12.510288065843621" fill="#ed7d31"></rect><rect x="150" y="314.9588477366255" width="0.000056853571927464846" height="12.510288065843621" fill="#a5a5a5"></rect><rect x="150" y="328.12757201646093" width="0.00224313414241247" height="12.510288065843621" fill="#ffc000"></rect><text class="label" x="159.4072124505989" y="297.1213991769547" font-size="10px">15,957x</text><text class="label" x="158.5082889481278" y="310.2901234567901" font-size="10px">146x</text><text class="label" x="158.50005685357192" y="323.4588477366255" font-size="10px">1x</text><text class="label" x="158.50224313414242" y="336.62757201646093" font-size="10px">39x</text><text class="label" x="155.9072124505989" y="298.6213991769547" font-size="8px"></text><text class="label" x="155.0082889481278" y="311.7901234567901" font-size="8px"></text><text class="label" x="155.00005685357192" y="324.9588477366255" font-size="8px"></text><text class="label" x="155.00224313414242" y="338.12757201646093" font-size="8px"></text></g><g style="font-size: 13px;"><rect x="150" y="347.880658436214" width="0.19207393257779232" height="12.510288065843621" fill="#4472c4"></rect><rect x="150" y="361.04938271604937" width="0.007189282801280678" height="12.510288065843621" fill="#ed7d31"></rect><rect x="150" y="374.2181069958848" width="0.000056853571927464846" height="12.510288065843621" fill="#a5a5a5"></rect><rect x="150" y="387.38683127572017" width="0.0002074049811271644" height="12.510288065843621" fill="#ffc000"></rect><text class="label" x="158.69207393257778" y="356.380658436214" font-size="10px">3,378x</text><text class="label" x="158.50718928280128" y="369.54938271604937" font-size="10px">126x</text><text class="label" x="158.50005685357192" y="382.7181069958848" font-size="10px">1x</text><text class="label" x="158.50020740498113" y="395.88683127572017" font-size="10px">4x</text><text class="label" x="155.19207393257778" y="357.880658436214" font-size="8px"></text><text class="label" x="155.00718928280128" y="371.04938271604937" font-size="8px"></text><text class="label" x="155.00005685357192" y="384.2181069958848" font-size="8px"></text><text class="label" x="155.00020740498113" y="397.38683127572017" font-size="8px"></text></g><g style="font-size: 13px;"><rect x="150" y="407.13991769547323" width="0.3020217210665171" height="12.510288065843621" fill="#4472c4"></rect><rect x="150" y="420.3086419753086" width="0.021051468389798236" height="12.510288065843621" fill="#ed7d31"></rect><rect x="150" y="433.47736625514403" width="0.000056853571927464846" height="12.510288065843621" fill="#a5a5a5"></rect><rect x="150" y="446.6460905349794" width="0.00025181228531037783" height="12.510288065843621" fill="#ffc000"></rect><text class="label" x="158.80202172106652" y="415.63991769547323" font-size="10px">5,312x</text><text class="label" x="158.5210514683898" y="428.8086419753086" font-size="10px">370x</text><text class="label" x="158.50005685357192" y="441.97736625514403" font-size="10px">1x</text><text class="label" x="158.5002518122853" y="455.1460905349794" font-size="10px">4x</text><text class="label" x="155.30202172106652" y="417.13991769547323" font-size="8px"></text><text class="label" x="155.0210514683898" y="430.3086419753086" font-size="8px"></text><text class="label" x="155.00005685357192" y="443.47736625514403" font-size="8px"></text><text class="label" x="155.0002518122853" y="456.6460905349794" font-size="8px"></text></g><g style="font-size: 13px;"><rect x="150" y="466.3991769547325" width="0.4078903828602376" height="12.510288065843621" fill="#4472c4"></rect><rect x="150" y="479.5679012345679" width="0.009441613271106888" height="12.510288065843621" fill="#ed7d31"></rect><rect x="150" y="492.73662551440333" width="0.000056853571927464846" height="12.510288065843621" fill="#a5a5a5"></rect><rect x="150" y="505.9053497942387" width="0.0019492629142110998" height="12.510288065843621" fill="#ffc000"></rect><text class="label" x="158.90789038286024" y="474.8991769547325" font-size="10px">7,174x</text><text class="label" x="158.5094416132711" y="488.0679012345679" font-size="10px">166x</text><text class="label" x="158.50005685357192" y="501.23662551440333" font-size="10px">1x</text><text class="label" x="158.50194926291422" y="514.4053497942386" font-size="10px">34x</text><text class="label" x="155.40789038286024" y="476.3991769547325" font-size="8px"></text><text class="label" x="155.0094416132711" y="489.5679012345679" font-size="8px"></text><text class="label" x="155.00005685357192" y="502.73662551440333" font-size="8px"></text><text class="label" x="155.00194926291422" y="515.9053497942386" font-size="8px"></text></g></g></svg>