<svg xmlns="http://www.w3.org/2000/svg" xmlns:xlink="http://www.w3.org/1999/xlink" width="800" height="914" style="background-color: white;"><g class="y axis" transform="translate(149,45)" fill="none" font-size="10" font-family="sans-serif" text-anchor="end" style="font-size: 13px;"><path class="domain" stroke="currentColor" d="M0.5,0.5V720.5"></path><g class="tick" opacity="1" transform="translate(0,48.88888888888886)" style="font-size: 13px;"><line stroke="currentColor" x2="0"></line><text fill="currentColor" x="-3" dy="0.32em">object (simple)    </text></g><g class="tick" opacity="1" transform="translate(0,137.77777777777774)" style="font-size: 13px;"><line stroke="currentColor" x2="0"></line><text fill="currentColor" x="-3" dy="0.32em">object (hierarchical)    </text></g><g class="tick" opacity="1" transform="translate(0,226.66666666666663)" style="font-size: 13px;"><line stroke="currentColor" x2="0"></line><text fill="currentColor" x="-3" dy="0.32em">object (recursive)    </text></g><g class="tick" opacity="1" transform="translate(0,315.5555555555555)" style="font-size: 13px;"><line stroke="currentColor" x2="0"></line><text fill="currentColor" x="-3" dy="0.32em">object (union, explicit)    </text></g><g class="tick" opacity="1" transform="translate(0,404.4444444444444)" style="font-size: 13px;"><line stroke="currentColor" x2="0"></line><text fill="currentColor" x="-3" dy="0.32em">array (simple)    </text></g><g class="tick" opacity="1" transform="translate(0,493.3333333333333)" style="font-size: 13px;"><line stroke="currentColor" x2="0"></line><text fill="currentColor" x="-3" dy="0.32em">array (hierarchical)    </text></g><g class="tick" opacity="1" transform="translate(0,582.2222222222222)" style="font-size: 13px;"><line stroke="currentColor" x2="0"></line><text fill="currentColor" x="-3" dy="0.32em">array (recursive)    </text></g><g class="tick" opacity="1" transform="translate(0,671.1111111111111)" style="font-size: 13px;"><line stroke="currentColor" x2="0"></line><text fill="currentColor" x="-3" dy="0.32em">array (union, explicit)    </text></g></g><g class="x axis" transform="translate(149,765)" fill="none" font-size="10" font-family="sans-serif" text-anchor="middle" style="font-size: 13px;"><path class="domain" stroke="currentColor" d="M0.5,0.5H485.5"></path><g class="tick" opacity="1" transform="translate(0.5,0)" style="font-size: 13px;"><line stroke="currentColor" y2="6"></line><text fill="currentColor" y="9" dy="0.71em">0x</text></g><g class="tick" opacity="1" transform="translate(127.2298839424297,0)" style="font-size: 13px;"><line stroke="currentColor" y2="6"></line><text fill="currentColor" y="9" dy="0.71em">10x</text></g><g class="tick" opacity="1" transform="translate(253.9597678848594,0)" style="font-size: 13px;"><line stroke="currentColor" y2="6"></line><text fill="currentColor" y="9" dy="0.71em">20x</text></g><g class="tick" opacity="1" transform="translate(380.6896518272891,0)" style="font-size: 13px;"><line stroke="currentColor" y2="6"></line><text fill="currentColor" y="9" dy="0.71em">30x</text></g></g><text transform="translate(400, 30)" style="text-anchor: middle; font-size: 20px; font-weight: bold;">server-stringify benchmark</text><rect x="650" y="165" width="230" height="5" fill="gray"></rect><rect x="645" y="35" width="230" height="130" fill="none" stroke="black"></rect><rect x="655" y="45" width="10" height="10" style="fill: #4472c4;"></rect><text x="670" y="55" style="font-size: 12px;">fastify-typia</text><rect x="655" y="65" width="10" height="10" style="fill: #ed7d31;"></rect><text x="670" y="75" style="font-size: 12px;">fastify-pure</text><rect x="655" y="85" width="10" height="10" style="fill: #a5a5a5;"></rect><text x="670" y="95" style="font-size: 12px;">fastify-class-transformer</text><rect x="655" y="105" width="10" height="10" style="fill: #ffc000;"></rect><text x="670" y="115" style="font-size: 12px;">express-typia</text><rect x="655" y="125" width="10" height="10" style="fill: #5b9bd5;"></rect><text x="670" y="135" style="font-size: 12px;">express-pure</text><rect x="655" y="145" width="10" height="10" style="fill: #70ad47;"></rect><text x="670" y="155" style="font-size: 12px;">express-class-transformer</text><text x="20" y="829" style="font-size: 12px;">  - CPU: Intel(R) Core(TM) i5-8250U CPU @ 1.60GHz</text><text x="20" y="846" style="font-size: 12px;">  - OS: win32</text><text x="20" y="863" style="font-size: 12px;">  - RAM: 8 GB</text><text x="20" y="880" style="font-size: 12px;">  - NodeJS version: v16.20.1</text><text x="20" y="897" style="font-size: 12px;">  - Typia version: v4.2.0</text><g style="font-size: 13px;"><g style="font-size: 13px;"><rect x="150" y="54.55004591368224" width="290.84898804128784" height="12.56198347107438" fill="#4472c4"></rect><rect x="150" y="67.77318640955001" width="259.5054712961835" height="12.56198347107438" fill="#ed7d31"></rect><rect x="150" y="80.99632690541777" width="12.672988394242969" height="12.56198347107438" fill="#a5a5a5"></rect><rect x="150" y="94.21946740128556" width="152.9954532911156" height="12.56198347107438" fill="#ffc000"></rect><rect x="150" y="107.44260789715332" width="103.78796068820564" height="12.56198347107438" fill="#5b9bd5"></rect><rect x="150" y="120.66574839302109" width="12.801492577830961" height="12.56198347107438" fill="#70ad47"></rect><text class="label" x="449.34898804128784" y="63.05004591368224" font-size="10px">22.95x</text><text class="label" x="418.0054712961835" y="76.27318640955001" font-size="10px">20.48x</text><text class="label" x="171.17298839424296" y="89.49632690541777" font-size="10px">1x</text><text class="label" x="311.4954532911156" y="102.71946740128556" font-size="10px">12.07x</text><text class="label" x="262.28796068820566" y="115.94260789715332" font-size="10px">8.19x</text><text class="label" x="171.30149257783097" y="129.1657483930211" font-size="10px">1.01x</text><text class="label" x="445.84898804128784" y="64.55004591368224" font-size="8px"></text><text class="label" x="414.5054712961835" y="77.77318640955001" font-size="8px"></text><text class="label" x="167.67298839424296" y="90.99632690541777" font-size="8px"></text><text class="label" x="307.9954532911156" y="104.21946740128556" font-size="8px"></text><text class="label" x="258.78796068820566" y="117.44260789715332" font-size="8px"></text><text class="label" x="167.80149257783097" y="130.6657483930211" font-size="8px"></text></g><g style="font-size: 13px;"><rect x="150" y="143.4389348025711" width="217.2818481080652" height="12.56198347107438" fill="#4472c4"></rect><rect x="150" y="156.66207529843888" width="166.3065305550541" height="12.56198347107438" fill="#ed7d31"></rect><rect x="150" y="169.88521579430665" width="13.414545264548108" height="12.56198347107438" fill="#a5a5a5"></rect><rect x="150" y="183.10835629017444" width="158.3634487089052" height="12.56198347107438" fill="#ffc000"></rect><rect x="150" y="196.3314967860422" width="118.16231586913337" height="12.56198347107438" fill="#5b9bd5"></rect><rect x="150" y="209.55463728190998" width="12.672988394242969" height="12.56198347107438" fill="#70ad47"></rect><text class="label" x="375.7818481080652" y="151.9389348025711" font-size="10px">17.15x</text><text class="label" x="324.8065305550541" y="165.16207529843888" font-size="10px">13.12x</text><text class="label" x="171.9145452645481" y="178.38521579430665" font-size="10px">1.06x</text><text class="label" x="316.8634487089052" y="191.60835629017444" font-size="10px">12.5x</text><text class="label" x="276.66231586913335" y="204.8314967860422" font-size="10px">9.32x</text><text class="label" x="171.17298839424296" y="218.05463728190998" font-size="10px">1x</text><text class="label" x="372.2818481080652" y="153.4389348025711" font-size="8px"></text><text class="label" x="321.3065305550541" y="166.66207529843888" font-size="8px"></text><text class="label" x="168.4145452645481" y="179.88521579430665" font-size="8px"></text><text class="label" x="313.3634487089052" y="193.10835629017444" font-size="8px"></text><text class="label" x="273.16231586913335" y="206.3314967860422" font-size="8px"></text><text class="label" x="167.67298839424296" y="219.55463728190998" font-size="8px"></text></g><g style="font-size: 13px;"><rect x="150" y="232.32782369146003" width="237.1672857189036" height="12.56198347107438" fill="#4472c4"></rect><rect x="150" y="245.5509641873278" width="126.48734463087925" height="12.56198347107438" fill="#ed7d31"></rect><rect x="150" y="258.77410468319556" width="12.672988394242969" height="12.56198347107438" fill="#a5a5a5"></rect><rect x="150" y="271.9972451790633" width="180.95787846381208" height="12.56198347107438" fill="#ffc000"></rect><rect x="150" y="285.2203856749311" width="126.2280712880842" height="12.56198347107438" fill="#5b9bd5"></rect><rect x="150" y="298.44352617079886" width="12.69739406082477" height="12.56198347107438" fill="#70ad47"></rect><text class="label" x="395.6672857189036" y="240.82782369146003" font-size="10px">18.71x</text><text class="label" x="284.98734463087925" y="254.0509641873278" font-size="10px">9.98x</text><text class="label" x="171.17298839424296" y="267.27410468319556" font-size="10px">1x</text><text class="label" x="339.4578784638121" y="280.4972451790633" font-size="10px">14.28x</text><text class="label" x="284.7280712880842" y="293.7203856749311" font-size="10px">9.96x</text><text class="label" x="171.19739406082476" y="306.94352617079886" font-size="10px">1x</text><text class="label" x="392.1672857189036" y="242.32782369146003" font-size="8px"></text><text class="label" x="281.48734463087925" y="255.5509641873278" font-size="8px"></text><text class="label" x="167.67298839424296" y="268.77410468319556" font-size="8px"></text><text class="label" x="335.9578784638121" y="281.9972451790633" font-size="8px"></text><text class="label" x="281.2280712880842" y="295.2203856749311" font-size="8px"></text><text class="label" x="167.69739406082476" y="308.44352617079886" font-size="8px"></text></g><g style="font-size: 13px;"><rect x="150" y="321.2167125803489" width="440.9090909090909" height="12.56198347107438" fill="#4472c4"></rect><rect x="150" y="334.43985307621665" width="254.32726034052087" height="12.56198347107438" fill="#ed7d31"></rect><rect x="150" y="347.6629935720844" width="14.407492432051246" height="12.56198347107438" fill="#a5a5a5"></rect><rect x="150" y="360.8861340679522" width="330.70400494721645" height="12.56198347107438" fill="#ffc000"></rect><rect x="150" y="374.10927456381995" width="217.6649312509597" height="12.56198347107438" fill="#5b9bd5"></rect><rect x="150" y="387.3324150596877" width="12.672988394242969" height="12.56198347107438" fill="#70ad47"></rect><text class="label" x="599.4090909090909" y="329.7167125803489" font-size="10px">34.79x</text><text class="label" x="412.82726034052087" y="342.93985307621665" font-size="10px">20.07x</text><text class="label" x="172.90749243205124" y="356.1629935720844" font-size="10px">1.14x</text><text class="label" x="489.20400494721645" y="369.3861340679522" font-size="10px">26.1x</text><text class="label" x="376.16493125095974" y="382.60927456381995" font-size="10px">17.18x</text><text class="label" x="171.17298839424296" y="395.8324150596877" font-size="10px">1x</text><text class="label" x="595.9090909090909" y="331.2167125803489" font-size="8px"></text><text class="label" x="409.32726034052087" y="344.43985307621665" font-size="8px"></text><text class="label" x="169.40749243205124" y="357.6629935720844" font-size="8px"></text><text class="label" x="485.70400494721645" y="370.8861340679522" font-size="8px"></text><text class="label" x="372.66493125095974" y="384.10927456381995" font-size="8px"></text><text class="label" x="167.67298839424296" y="397.3324150596877" font-size="8px"></text></g><g style="font-size: 13px;"><rect x="150" y="410.1056014692378" width="128.02984861223865" height="12.56198347107438" fill="#4472c4"></rect><rect x="150" y="423.32874196510556" width="146.4000529913147" height="12.56198347107438" fill="#ed7d31"></rect><rect x="150" y="436.55188246097333" width="13.050132513511358" height="12.56198347107438" fill="#a5a5a5"></rect><rect x="150" y="449.7750229568411" width="146.69202010214596" height="12.56198347107438" fill="#ffc000"></rect><rect x="150" y="462.99816345270887" width="147.24465618624654" height="12.56198347107438" fill="#5b9bd5"></rect><rect x="150" y="476.22130394857663" width="12.672988394242969" height="12.56198347107438" fill="#70ad47"></rect><text class="label" x="286.52984861223865" y="418.6056014692378" font-size="10px">10.1x</text><text class="label" x="304.90005299131474" y="431.82874196510556" font-size="10px">11.55x</text><text class="label" x="171.55013251351136" y="445.05188246097333" font-size="10px">1.03x</text><text class="label" x="305.192020102146" y="458.2750229568411" font-size="10px">11.58x</text><text class="label" x="305.7446561862465" y="471.49816345270887" font-size="10px">11.62x</text><text class="label" x="171.17298839424296" y="484.72130394857663" font-size="10px">1x</text><text class="label" x="283.02984861223865" y="420.1056014692378" font-size="8px"></text><text class="label" x="301.40005299131474" y="433.32874196510556" font-size="8px"></text><text class="label" x="168.05013251351136" y="446.55188246097333" font-size="8px"></text><text class="label" x="301.692020102146" y="459.7750229568411" font-size="8px"></text><text class="label" x="302.2446561862465" y="472.99816345270887" font-size="8px"></text><text class="label" x="167.67298839424296" y="486.22130394857663" font-size="8px"></text></g><g style="font-size: 13px;"><rect x="150" y="498.9944903581267" width="260.6866465492148" height="12.56198347107438" fill="#4472c4"></rect><rect x="150" y="512.2176308539945" width="117.27635315570694" height="12.56198347107438" fill="#ed7d31"></rect><rect x="150" y="525.4407713498622" width="12.738874304280886" height="12.56198347107438" fill="#a5a5a5"></rect><rect x="150" y="538.66391184573" width="252.3655997779829" height="12.56198347107438" fill="#ffc000"></rect><rect x="150" y="551.8870523415978" width="195.4563260969995" height="12.56198347107438" fill="#5b9bd5"></rect><rect x="150" y="565.1101928374655" width="12.672988394242969" height="12.56198347107438" fill="#70ad47"></rect><text class="label" x="419.1866465492148" y="507.4944903581267" font-size="10px">20.57x</text><text class="label" x="275.77635315570694" y="520.7176308539945" font-size="10px">9.25x</text><text class="label" x="171.2388743042809" y="533.9407713498622" font-size="10px">1.01x</text><text class="label" x="410.8655997779829" y="547.16391184573" font-size="10px">19.91x</text><text class="label" x="353.95632609699953" y="560.3870523415978" font-size="10px">15.42x</text><text class="label" x="171.17298839424296" y="573.6101928374655" font-size="10px">1x</text><text class="label" x="415.6866465492148" y="508.9944903581267" font-size="8px"></text><text class="label" x="272.27635315570694" y="522.2176308539945" font-size="8px"></text><text class="label" x="167.7388743042809" y="535.4407713498622" font-size="8px"></text><text class="label" x="407.3655997779829" y="548.66391184573" font-size="8px"></text><text class="label" x="350.45632609699953" y="561.8870523415978" font-size="8px"></text><text class="label" x="167.67298839424296" y="575.1101928374655" font-size="8px"></text></g><g style="font-size: 13px;"><rect x="150" y="587.8833792470156" width="244.00004076270062" height="12.56198347107438" fill="#4472c4"></rect><rect x="150" y="601.1065197428833" width="149.00942439111017" height="12.56198347107438" fill="#ed7d31"></rect><rect x="150" y="614.3296602387511" width="12.931486485157498" height="12.56198347107438" fill="#a5a5a5"></rect><rect x="150" y="627.5528007346188" width="217.60060736509772" height="12.56198347107438" fill="#ffc000"></rect><rect x="150" y="640.7759412304866" width="157.2474988485232" height="12.56198347107438" fill="#5b9bd5"></rect><rect x="150" y="653.9990817263545" width="12.672988394242969" height="12.56198347107438" fill="#70ad47"></rect><text class="label" x="402.5000407627006" y="596.3833792470156" font-size="10px">19.25x</text><text class="label" x="307.5094243911102" y="609.6065197428833" font-size="10px">11.76x</text><text class="label" x="171.4314864851575" y="622.8296602387511" font-size="10px">1.02x</text><text class="label" x="376.10060736509774" y="636.0528007346188" font-size="10px">17.17x</text><text class="label" x="315.7474988485232" y="649.2759412304866" font-size="10px">12.41x</text><text class="label" x="171.17298839424296" y="662.4990817263545" font-size="10px">1x</text><text class="label" x="399.0000407627006" y="597.8833792470156" font-size="8px"></text><text class="label" x="304.0094243911102" y="611.1065197428833" font-size="8px"></text><text class="label" x="167.9314864851575" y="624.3296602387511" font-size="8px"></text><text class="label" x="372.60060736509774" y="637.5528007346188" font-size="8px"></text><text class="label" x="312.2474988485232" y="650.7759412304866" font-size="8px"></text><text class="label" x="167.67298839424296" y="663.9990817263545" font-size="8px"></text></g><g style="font-size: 13px;"><rect x="150" y="676.7722681359045" width="217.25447367876697" height="12.56198347107438" fill="#4472c4"></rect><rect x="150" y="689.9954086317722" width="53.57033983754248" height="12.56198347107438" fill="#ed7d31"></rect><rect x="150" y="703.21854912764" width="12.747046382409497" height="12.56198347107438" fill="#a5a5a5"></rect><rect x="150" y="716.4416896235077" width="212.09059578834785" height="12.56198347107438" fill="#ffc000"></rect><rect x="150" y="729.6648301193756" width="206.36569775330287" height="12.56198347107438" fill="#5b9bd5"></rect><rect x="150" y="742.8879706152434" width="12.672988394242969" height="12.56198347107438" fill="#70ad47"></rect><text class="label" x="375.754473678767" y="685.2722681359045" font-size="10px">17.14x</text><text class="label" x="212.07033983754246" y="698.4954086317722" font-size="10px">4.23x</text><text class="label" x="171.2470463824095" y="711.71854912764" font-size="10px">1.01x</text><text class="label" x="370.59059578834785" y="724.9416896235077" font-size="10px">16.74x</text><text class="label" x="364.86569775330287" y="738.1648301193756" font-size="10px">16.28x</text><text class="label" x="171.17298839424296" y="751.3879706152434" font-size="10px">1x</text><text class="label" x="372.254473678767" y="686.7722681359045" font-size="8px"></text><text class="label" x="208.57033983754246" y="699.9954086317722" font-size="8px"></text><text class="label" x="167.7470463824095" y="713.21854912764" font-size="8px"></text><text class="label" x="367.09059578834785" y="726.4416896235077" font-size="8px"></text><text class="label" x="361.36569775330287" y="739.6648301193756" font-size="8px"></text><text class="label" x="167.67298839424296" y="752.8879706152434" font-size="8px"></text></g></g></svg>