<svg xmlns="http://www.w3.org/2000/svg" xmlns:xlink="http://www.w3.org/1999/xlink" width="800" height="675" style="background-color: white;"><g class="y axis" transform="translate(149,45)" fill="none" font-size="10" font-family="sans-serif" text-anchor="end" style="font-size: 13px;"><path class="domain" stroke="currentColor" d="M0.5,0.5V600.5"></path><g class="tick" opacity="1" transform="translate(0,40.740740740740726)" style="font-size: 13px;"><line stroke="currentColor" x2="0"></line><text fill="currentColor" x="-3" dy="0.32em">object (simple)    </text></g><g class="tick" opacity="1" transform="translate(0,114.81481481481481)" style="font-size: 13px;"><line stroke="currentColor" x2="0"></line><text fill="currentColor" x="-3" dy="0.32em">object (hierarchical)    </text></g><g class="tick" opacity="1" transform="translate(0,188.88888888888889)" style="font-size: 13px;"><line stroke="currentColor" x2="0"></line><text fill="currentColor" x="-3" dy="0.32em">object (recursive)    </text></g><g class="tick" opacity="1" transform="translate(0,262.96296296296293)" style="font-size: 13px;"><line stroke="currentColor" x2="0"></line><text fill="currentColor" x="-3" dy="0.32em">object (union)    </text></g><g class="tick" opacity="1" transform="translate(0,337.037037037037)" style="font-size: 13px;"><line stroke="currentColor" x2="0"></line><text fill="currentColor" x="-3" dy="0.32em">array (simple)    </text></g><g class="tick" opacity="1" transform="translate(0,411.1111111111111)" style="font-size: 13px;"><line stroke="currentColor" x2="0"></line><text fill="currentColor" x="-3" dy="0.32em">array (hierarchical)    </text></g><g class="tick" opacity="1" transform="translate(0,485.18518518518516)" style="font-size: 13px;"><line stroke="currentColor" x2="0"></line><text fill="currentColor" x="-3" dy="0.32em">array (recursive)    </text></g><g class="tick" opacity="1" transform="translate(0,559.2592592592592)" style="font-size: 13px;"><line stroke="currentColor" x2="0"></line><text fill="currentColor" x="-3" dy="0.32em">array (union)    </text></g></g><g class="x axis" transform="translate(149,645)" fill="none" font-size="10" font-family="sans-serif" text-anchor="middle" style="font-size: 13px;"><path class="domain" stroke="currentColor" d="M0.5,0.5H485.5"></path><g class="tick" opacity="1" transform="translate(0.5,0)" style="font-size: 13px;"><line stroke="currentColor" y2="6"></line><text fill="currentColor" y="9" dy="0.71em">0x</text></g><g class="tick" opacity="1" transform="translate(121.87624323898295,0)" style="font-size: 13px;"><line stroke="currentColor" y2="6"></line><text fill="currentColor" y="9" dy="0.71em">0.5x</text></g><g class="tick" opacity="1" transform="translate(243.2524864779659,0)" style="font-size: 13px;"><line stroke="currentColor" y2="6"></line><text fill="currentColor" y="9" dy="0.71em">1x</text></g><g class="tick" opacity="1" transform="translate(364.62872971694884,0)" style="font-size: 13px;"><line stroke="currentColor" y2="6"></line><text fill="currentColor" y="9" dy="0.71em">1.5x</text></g></g><text transform="translate(400, 30)" style="text-anchor: middle; font-size: 20px; font-weight: bold;">stringify (server) benchmark</text><rect x="680" y="145" width="200" height="5" fill="gray"></rect><rect x="675" y="35" width="200" height="110" fill="none" stroke="black"></rect><rect x="685" y="45" width="10" height="10" style="fill: #4472c4;"></rect><text x="700" y="55" style="font-size: 12px;">express (pure)</text><rect x="685" y="65" width="10" height="10" style="fill: #ed7d31;"></rect><text x="700" y="75" style="font-size: 12px;">express (typia.stringify)</text><rect x="685" y="85" width="10" height="10" style="fill: #a5a5a5;"></rect><text x="700" y="95" style="font-size: 12px;">express (typia.isStringify)</text><rect x="685" y="105" width="10" height="10" style="fill: #ffc000;"></rect><text x="700" y="115" style="font-size: 12px;">express (typia.assertStringify)</text><rect x="685" y="125" width="10" height="10" style="fill: #5b9bd5;"></rect><text x="700" y="135" style="font-size: 12px;">fastify</text><g style="font-size: 13px;"><g style="font-size: 13px;"><rect x="150" y="53.06747341400805" width="242.7524864779659" height="12.541254125412543" fill="#4472c4"></rect><rect x="150" y="66.26879354602124" width="271.01703760091016" height="12.541254125412543" fill="#ed7d31"></rect><rect x="150" y="79.47011367803445" width="267.7846448233774" height="12.541254125412543" fill="#a5a5a5"></rect><rect x="150" y="92.67143381004766" width="249.57687158253046" height="12.541254125412543" fill="#ffc000"></rect><rect x="150" y="105.87275394206085" width="395.76931367587133" height="12.541254125412543" fill="#5b9bd5"></rect><text class="label" x="401.25248647796593" y="61.56747341400805" font-size="10px">1x</text><text class="label" x="429.51703760091016" y="74.76879354602124" font-size="10px">1.12x</text><text class="label" x="426.2846448233774" y="87.97011367803445" font-size="10px">1.1x</text><text class="label" x="408.07687158253043" y="101.17143381004766" font-size="10px">1.03x</text><text class="label" x="554.2693136758713" y="114.37275394206085" font-size="10px">1.63x</text><text class="label" x="397.75248647796593" y="63.06747341400805" font-size="8px"></text><text class="label" x="426.01703760091016" y="76.26879354602124" font-size="8px"></text><text class="label" x="422.7846448233774" y="89.47011367803445" font-size="8px"></text><text class="label" x="404.57687158253043" y="102.67143381004766" font-size="8px"></text><text class="label" x="550.7693136758713" y="115.87275394206085" font-size="8px"></text></g><g style="font-size: 13px;"><rect x="150" y="127.14154748808213" width="252.84035631388588" height="12.541254125412543" fill="#4472c4"></rect><rect x="150" y="140.34286762009532" width="252.7715631035001" height="12.541254125412543" fill="#ed7d31"></rect><rect x="150" y="153.54418775210854" width="251.71985995056664" height="12.541254125412543" fill="#a5a5a5"></rect><rect x="150" y="166.74550788412174" width="242.7524864779659" height="12.541254125412543" fill="#ffc000"></rect><rect x="150" y="179.94682801613493" width="316.2891209979392" height="12.541254125412543" fill="#5b9bd5"></rect><text class="label" x="411.3403563138859" y="135.64154748808213" font-size="10px">1.04x</text><text class="label" x="411.2715631035001" y="148.84286762009532" font-size="10px">1.04x</text><text class="label" x="410.2198599505666" y="162.04418775210854" font-size="10px">1.04x</text><text class="label" x="401.25248647796593" y="175.24550788412174" font-size="10px">1x</text><text class="label" x="474.7891209979392" y="188.44682801613493" font-size="10px">1.3x</text><text class="label" x="407.8403563138859" y="137.14154748808213" font-size="8px"></text><text class="label" x="407.7715631035001" y="150.34286762009532" font-size="8px"></text><text class="label" x="406.7198599505666" y="163.54418775210854" font-size="8px"></text><text class="label" x="397.75248647796593" y="176.74550788412174" font-size="8px"></text><text class="label" x="471.2891209979392" y="189.94682801613493" font-size="8px"></text></g><g style="font-size: 13px;"><rect x="150" y="201.2156215621562" width="254.26011305063903" height="12.541254125412543" fill="#4472c4"></rect><rect x="150" y="214.4169416941694" width="260.3452123268946" height="12.541254125412543" fill="#ed7d31"></rect><rect x="150" y="227.61826182618262" width="254.80238328018535" height="12.541254125412543" fill="#a5a5a5"></rect><rect x="150" y="240.8195819581958" width="242.7524864779659" height="12.541254125412543" fill="#ffc000"></rect><rect x="150" y="254.020902090209" width="367.2665929458678" height="12.541254125412543" fill="#5b9bd5"></rect><text class="label" x="412.760113050639" y="209.7156215621562" font-size="10px">1.05x</text><text class="label" x="418.8452123268946" y="222.9169416941694" font-size="10px">1.07x</text><text class="label" x="413.3023832801854" y="236.11826182618262" font-size="10px">1.05x</text><text class="label" x="401.25248647796593" y="249.3195819581958" font-size="10px">1x</text><text class="label" x="525.7665929458678" y="262.520902090209" font-size="10px">1.51x</text><text class="label" x="409.260113050639" y="211.2156215621562" font-size="8px"></text><text class="label" x="415.3452123268946" y="224.4169416941694" font-size="8px"></text><text class="label" x="409.8023832801854" y="237.61826182618262" font-size="8px"></text><text class="label" x="397.75248647796593" y="250.8195819581958" font-size="8px"></text><text class="label" x="522.2665929458678" y="264.020902090209" font-size="8px"></text></g><g style="font-size: 13px;"><rect x="150" y="275.28969563623025" width="366.4951724515509" height="12.541254125412543" fill="#4472c4"></rect><rect x="150" y="288.49101576824347" width="428.60702287870004" height="12.541254125412543" fill="#ed7d31"></rect><rect x="150" y="301.6923359002567" width="403.89240671201316" height="12.541254125412543" fill="#a5a5a5"></rect><rect x="150" y="314.89365603226986" width="360.102596463732" height="12.541254125412543" fill="#ffc000"></rect><rect x="150" y="328.0949761642831" width="242.7524864779659" height="12.541254125412543" fill="#5b9bd5"></rect><text class="label" x="524.9951724515508" y="283.78969563623025" font-size="10px">1.51x</text><text class="label" x="587.1070228787" y="296.99101576824347" font-size="10px">1.77x</text><text class="label" x="562.3924067120131" y="310.1923359002567" font-size="10px">1.66x</text><text class="label" x="518.602596463732" y="323.39365603226986" font-size="10px">1.48x</text><text class="label" x="401.25248647796593" y="336.5949761642831" font-size="10px">1x</text><text class="label" x="521.4951724515508" y="285.28969563623025" font-size="8px"></text><text class="label" x="583.6070228787" y="298.49101576824347" font-size="8px"></text><text class="label" x="558.8924067120131" y="311.6923359002567" font-size="8px"></text><text class="label" x="515.102596463732" y="324.89365603226986" font-size="8px"></text><text class="label" x="397.75248647796593" y="338.0949761642831" font-size="8px"></text></g><g style="font-size: 13px;"><rect x="150" y="349.3637697103044" width="415.77761872807395" height="12.541254125412543" fill="#4472c4"></rect><rect x="150" y="362.56508984231755" width="318.172829929954" height="12.541254125412543" fill="#ed7d31"></rect><rect x="150" y="375.76640997433077" width="289.9676313228168" height="12.541254125412543" fill="#a5a5a5"></rect><rect x="150" y="388.967730106344" width="272.3264581908618" height="12.541254125412543" fill="#ffc000"></rect><rect x="150" y="402.16905023835716" width="242.7524864779659" height="12.541254125412543" fill="#5b9bd5"></rect><text class="label" x="574.277618728074" y="357.8637697103044" font-size="10px">1.71x</text><text class="label" x="476.672829929954" y="371.06508984231755" font-size="10px">1.31x</text><text class="label" x="448.4676313228168" y="384.26640997433077" font-size="10px">1.19x</text><text class="label" x="430.8264581908618" y="397.467730106344" font-size="10px">1.12x</text><text class="label" x="401.25248647796593" y="410.66905023835716" font-size="10px">1x</text><text class="label" x="570.777618728074" y="359.3637697103044" font-size="8px"></text><text class="label" x="473.172829929954" y="372.56508984231755" font-size="8px"></text><text class="label" x="444.9676313228168" y="385.76640997433077" font-size="8px"></text><text class="label" x="427.3264581908618" y="398.967730106344" font-size="8px"></text><text class="label" x="397.75248647796593" y="412.16905023835716" font-size="8px"></text></g><g style="font-size: 13px;"><rect x="150" y="423.4378437843784" width="435.6293325598344" height="12.541254125412543" fill="#4472c4"></rect><rect x="150" y="436.6391639163916" width="440.9090909090909" height="12.541254125412543" fill="#ed7d31"></rect><rect x="150" y="449.84048404840485" width="397.32995037512524" height="12.541254125412543" fill="#a5a5a5"></rect><rect x="150" y="463.041804180418" width="250.23940923360115" height="12.541254125412543" fill="#ffc000"></rect><rect x="150" y="476.24312431243123" width="242.7524864779659" height="12.541254125412543" fill="#5b9bd5"></rect><text class="label" x="594.1293325598344" y="431.9378437843784" font-size="10px">1.79x</text><text class="label" x="599.4090909090909" y="445.1391639163916" font-size="10px">1.82x</text><text class="label" x="555.8299503751252" y="458.34048404840485" font-size="10px">1.64x</text><text class="label" x="408.7394092336011" y="471.541804180418" font-size="10px">1.03x</text><text class="label" x="401.25248647796593" y="484.74312431243123" font-size="10px">1x</text><text class="label" x="590.6293325598344" y="433.4378437843784" font-size="8px"></text><text class="label" x="595.9090909090909" y="446.6391639163916" font-size="8px"></text><text class="label" x="552.3299503751252" y="459.84048404840485" font-size="8px"></text><text class="label" x="405.2394092336011" y="473.041804180418" font-size="8px"></text><text class="label" x="397.75248647796593" y="486.24312431243123" font-size="8px"></text></g><g style="font-size: 13px;"><rect x="150" y="497.51191785845253" width="242.7524864779659" height="12.541254125412543" fill="#4472c4"></rect><rect x="150" y="510.7132379904657" width="261.06967945962754" height="12.541254125412543" fill="#ed7d31"></rect><rect x="150" y="523.9145581224789" width="258.92437560008375" height="12.541254125412543" fill="#a5a5a5"></rect><rect x="150" y="537.1158782544921" width="246.04722817287734" height="12.541254125412543" fill="#ffc000"></rect><rect x="150" y="550.3171983865053" width="306.7076963882597" height="12.541254125412543" fill="#5b9bd5"></rect><text class="label" x="401.25248647796593" y="506.01191785845253" font-size="10px">1x</text><text class="label" x="419.56967945962754" y="519.2132379904657" font-size="10px">1.08x</text><text class="label" x="417.42437560008375" y="532.4145581224789" font-size="10px">1.07x</text><text class="label" x="404.54722817287734" y="545.6158782544921" font-size="10px">1.01x</text><text class="label" x="465.2076963882597" y="558.8171983865053" font-size="10px">1.26x</text><text class="label" x="397.75248647796593" y="507.51191785845253" font-size="8px"></text><text class="label" x="416.06967945962754" y="520.7132379904657" font-size="8px"></text><text class="label" x="413.92437560008375" y="533.9145581224789" font-size="8px"></text><text class="label" x="401.04722817287734" y="547.1158782544921" font-size="8px"></text><text class="label" x="461.7076963882597" y="560.3171983865053" font-size="8px"></text></g><g style="font-size: 13px;"><rect x="150" y="571.5859919325266" width="380.2749488070224" height="12.541254125412543" fill="#4472c4"></rect><rect x="150" y="584.7873120645397" width="266.9918121326401" height="12.541254125412543" fill="#ed7d31"></rect><rect x="150" y="597.9886321965529" width="250.65872624181108" height="12.541254125412543" fill="#a5a5a5"></rect><rect x="150" y="611.1899523285662" width="242.7524864779659" height="12.541254125412543" fill="#ffc000"></rect><rect x="150" y="624.3912724605793" width="253.02679096761688" height="12.541254125412543" fill="#5b9bd5"></rect><text class="label" x="538.7749488070224" y="580.0859919325266" font-size="10px">1.57x</text><text class="label" x="425.4918121326401" y="593.2873120645397" font-size="10px">1.1x</text><text class="label" x="409.1587262418111" y="606.4886321965529" font-size="10px">1.03x</text><text class="label" x="401.25248647796593" y="619.6899523285662" font-size="10px">1x</text><text class="label" x="411.5267909676169" y="632.8912724605793" font-size="10px">1.04x</text><text class="label" x="535.2749488070224" y="581.5859919325266" font-size="8px"></text><text class="label" x="421.9918121326401" y="594.7873120645397" font-size="8px"></text><text class="label" x="405.6587262418111" y="607.9886321965529" font-size="8px"></text><text class="label" x="397.75248647796593" y="621.1899523285662" font-size="8px"></text><text class="label" x="408.0267909676169" y="634.3912724605793" font-size="8px"></text></g></g></svg>