<svg xmlns="http://www.w3.org/2000/svg" xmlns:xlink="http://www.w3.org/1999/xlink" width="800" height="794" style="background-color: white;"><g class="y axis" transform="translate(149,45)" fill="none" font-size="10" font-family="sans-serif" text-anchor="end" style="font-size: 13px;"><path class="domain" stroke="currentColor" d="M0.5,0.5V600.5"></path><g class="tick" opacity="1" transform="translate(0,40.740740740740726)" style="font-size: 13px;"><line stroke="currentColor" x2="0"></line><text fill="currentColor" x="-3" dy="0.32em">object (simple)    </text></g><g class="tick" opacity="1" transform="translate(0,114.81481481481481)" style="font-size: 13px;"><line stroke="currentColor" x2="0"></line><text fill="currentColor" x="-3" dy="0.32em">object (hierarchical)    </text></g><g class="tick" opacity="1" transform="translate(0,188.88888888888889)" style="font-size: 13px;"><line stroke="currentColor" x2="0"></line><text fill="currentColor" x="-3" dy="0.32em">object (recursive)    </text></g><g class="tick" opacity="1" transform="translate(0,262.96296296296293)" style="font-size: 13px;"><line stroke="currentColor" x2="0"></line><text fill="currentColor" x="-3" dy="0.32em">object (union, explicit)    </text></g><g class="tick" opacity="1" transform="translate(0,337.037037037037)" style="font-size: 13px;"><line stroke="currentColor" x2="0"></line><text fill="currentColor" x="-3" dy="0.32em">array (simple)    </text></g><g class="tick" opacity="1" transform="translate(0,411.1111111111111)" style="font-size: 13px;"><line stroke="currentColor" x2="0"></line><text fill="currentColor" x="-3" dy="0.32em">array (hierarchical)    </text></g><g class="tick" opacity="1" transform="translate(0,485.18518518518516)" style="font-size: 13px;"><line stroke="currentColor" x2="0"></line><text fill="currentColor" x="-3" dy="0.32em">array (recursive)    </text></g><g class="tick" opacity="1" transform="translate(0,559.2592592592592)" style="font-size: 13px;"><line stroke="currentColor" x2="0"></line><text fill="currentColor" x="-3" dy="0.32em">array (union, explicit)    </text></g></g><g class="x axis" transform="translate(149,645)" fill="none" font-size="10" font-family="sans-serif" text-anchor="middle" style="font-size: 13px;"><path class="domain" stroke="currentColor" d="M0.5,0.5H485.5"></path><g class="tick" opacity="1" transform="translate(0.5,0)" style="font-size: 13px;"><line stroke="currentColor" y2="6"></line><text fill="currentColor" y="9" dy="0.71em">0x</text></g><g class="tick" opacity="1" transform="translate(111.64307421565937,0)" style="font-size: 13px;"><line stroke="currentColor" y2="6"></line><text fill="currentColor" y="9" dy="0.71em">10x</text></g><g class="tick" opacity="1" transform="translate(222.78614843131874,0)" style="font-size: 13px;"><line stroke="currentColor" y2="6"></line><text fill="currentColor" y="9" dy="0.71em">20x</text></g><g class="tick" opacity="1" transform="translate(333.9292226469781,0)" style="font-size: 13px;"><line stroke="currentColor" y2="6"></line><text fill="currentColor" y="9" dy="0.71em">30x</text></g><g class="tick" opacity="1" transform="translate(445.0722968626375,0)" style="font-size: 13px;"><line stroke="currentColor" y2="6"></line><text fill="currentColor" y="9" dy="0.71em">40x</text></g></g><text transform="translate(400, 30)" style="text-anchor: middle; font-size: 20px; font-weight: bold;">server-performance benchmark</text><rect x="650" y="145" width="230" height="5" fill="gray"></rect><rect x="645" y="35" width="230" height="110" fill="none" stroke="black"></rect><rect x="655" y="45" width="10" height="10" style="fill: #4472c4;"></rect><text x="670" y="55" style="font-size: 12px;">fastify-typia</text><rect x="655" y="65" width="10" height="10" style="fill: #ed7d31;"></rect><text x="670" y="75" style="font-size: 12px;">fastify-pure</text><rect x="655" y="85" width="10" height="10" style="fill: #a5a5a5;"></rect><text x="670" y="95" style="font-size: 12px;">fastify-class-transformer</text><rect x="655" y="105" width="10" height="10" style="fill: #ffc000;"></rect><text x="670" y="115" style="font-size: 12px;">express-typia</text><rect x="655" y="125" width="10" height="10" style="fill: #5b9bd5;"></rect><text x="670" y="135" style="font-size: 12px;">express-class-transformer</text><text x="20" y="709" style="font-size: 12px;">  - CPU: Intel(R) Core(TM) i5-8250U CPU @ 1.60GHz</text><text x="20" y="726" style="font-size: 12px;">  - OS: win32</text><text x="20" y="743" style="font-size: 12px;">  - RAM: 8 GB</text><text x="20" y="760" style="font-size: 12px;">  - NodeJS version: v16.20.1</text><text x="20" y="777" style="font-size: 12px;">  - Typia version: v4.2.0</text><g style="font-size: 13px;"><g style="font-size: 13px;"><rect x="150" y="53.06747341400805" width="163.94666337647797" height="12.541254125412543" fill="#4472c4"></rect><rect x="150" y="66.26879354602124" width="148.39123365652134" height="12.541254125412543" fill="#ed7d31"></rect><rect x="150" y="79.47011367803445" width="11.114307421565936" height="12.541254125412543" fill="#a5a5a5"></rect><rect x="150" y="92.67143381004766" width="100.58059195594734" height="12.541254125412543" fill="#ffc000"></rect><rect x="150" y="105.87275394206085" width="15.377127388165214" height="12.541254125412543" fill="#5b9bd5"></rect><text class="label" x="322.446663376478" y="61.56747341400805" font-size="10px">14.75x</text><text class="label" x="306.8912336565213" y="74.76879354602124" font-size="10px">13.35x</text><text class="label" x="169.61430742156594" y="87.97011367803445" font-size="10px">1x</text><text class="label" x="259.08059195594734" y="101.17143381004766" font-size="10px">9.05x</text><text class="label" x="173.8771273881652" y="114.37275394206085" font-size="10px">1.38x</text><text class="label" x="318.946663376478" y="63.06747341400805" font-size="8px"></text><text class="label" x="303.3912336565213" y="76.26879354602124" font-size="8px"></text><text class="label" x="166.11430742156594" y="89.47011367803445" font-size="8px"></text><text class="label" x="255.58059195594734" y="102.67143381004766" font-size="8px"></text><text class="label" x="170.3771273881652" y="115.87275394206085" font-size="8px"></text></g><g style="font-size: 13px;"><rect x="150" y="127.14154748808213" width="125.87597125386698" height="12.541254125412543" fill="#4472c4"></rect><rect x="150" y="140.34286762009532" width="105.4277824040391" height="12.541254125412543" fill="#ed7d31"></rect><rect x="150" y="153.54418775210854" width="11.114307421565936" height="12.541254125412543" fill="#a5a5a5"></rect><rect x="150" y="166.74550788412174" width="102.62372420045402" height="12.541254125412543" fill="#ffc000"></rect><rect x="150" y="179.94682801613493" width="16.242417303378645" height="12.541254125412543" fill="#5b9bd5"></rect><text class="label" x="284.37597125386696" y="135.64154748808213" font-size="10px">11.33x</text><text class="label" x="263.92778240403914" y="148.84286762009532" font-size="10px">9.49x</text><text class="label" x="169.61430742156594" y="162.04418775210854" font-size="10px">1x</text><text class="label" x="261.12372420045403" y="175.24550788412174" font-size="10px">9.23x</text><text class="label" x="174.74241730337866" y="188.44682801613493" font-size="10px">1.46x</text><text class="label" x="280.87597125386696" y="137.14154748808213" font-size="8px"></text><text class="label" x="260.42778240403914" y="150.34286762009532" font-size="8px"></text><text class="label" x="166.11430742156594" y="163.54418775210854" font-size="8px"></text><text class="label" x="257.62372420045403" y="176.74550788412174" font-size="8px"></text><text class="label" x="171.24241730337866" y="189.94682801613493" font-size="8px"></text></g><g style="font-size: 13px;"><rect x="150" y="201.2156215621562" width="149.23535797547424" height="12.541254125412543" fill="#4472c4"></rect><rect x="150" y="214.4169416941694" width="99.56711551674321" height="12.541254125412543" fill="#ed7d31"></rect><rect x="150" y="227.61826182618262" width="11.114307421565936" height="12.541254125412543" fill="#a5a5a5"></rect><rect x="150" y="240.8195819581958" width="126.8470723539664" height="12.541254125412543" fill="#ffc000"></rect><rect x="150" y="254.020902090209" width="17.765704974578668" height="12.541254125412543" fill="#5b9bd5"></rect><text class="label" x="307.73535797547424" y="209.7156215621562" font-size="10px">13.43x</text><text class="label" x="258.06711551674323" y="222.9169416941694" font-size="10px">8.96x</text><text class="label" x="169.61430742156594" y="236.11826182618262" font-size="10px">1x</text><text class="label" x="285.3470723539664" y="249.3195819581958" font-size="10px">11.41x</text><text class="label" x="176.26570497457868" y="262.520902090209" font-size="10px">1.6x</text><text class="label" x="304.23535797547424" y="211.2156215621562" font-size="8px"></text><text class="label" x="254.56711551674323" y="224.4169416941694" font-size="8px"></text><text class="label" x="166.11430742156594" y="237.61826182618262" font-size="8px"></text><text class="label" x="281.8470723539664" y="250.8195819581958" font-size="8px"></text><text class="label" x="172.76570497457868" y="264.020902090209" font-size="8px"></text></g><g style="font-size: 13px;"><rect x="150" y="275.28969563623025" width="326.72904760447693" height="12.541254125412543" fill="#4472c4"></rect><rect x="150" y="288.49101576824347" width="206.67275582786593" height="12.541254125412543" fill="#ed7d31"></rect><rect x="150" y="301.6923359002567" width="11.381347804979766" height="12.541254125412543" fill="#a5a5a5"></rect><rect x="150" y="314.89365603226986" width="270.56210500390233" height="12.541254125412543" fill="#ffc000"></rect><rect x="150" y="328.0949761642831" width="11.114307421565936" height="12.541254125412543" fill="#5b9bd5"></rect><text class="label" x="485.22904760447693" y="283.78969563623025" font-size="10px">29.4x</text><text class="label" x="365.1727558278659" y="296.99101576824347" font-size="10px">18.6x</text><text class="label" x="169.88134780497975" y="310.1923359002567" font-size="10px">1.02x</text><text class="label" x="429.06210500390233" y="323.39365603226986" font-size="10px">24.34x</text><text class="label" x="169.61430742156594" y="336.5949761642831" font-size="10px">1x</text><text class="label" x="481.72904760447693" y="285.28969563623025" font-size="8px"></text><text class="label" x="361.6727558278659" y="298.49101576824347" font-size="8px"></text><text class="label" x="166.38134780497975" y="311.6923359002567" font-size="8px"></text><text class="label" x="425.56210500390233" y="324.89365603226986" font-size="8px"></text><text class="label" x="166.11430742156594" y="338.0949761642831" font-size="8px"></text></g><g style="font-size: 13px;"><rect x="150" y="349.3637697103044" width="181.59758572331341" height="12.541254125412543" fill="#4472c4"></rect><rect x="150" y="362.56508984231755" width="154.602106559627" height="12.541254125412543" fill="#ed7d31"></rect><rect x="150" y="375.76640997433077" width="11.805456566592788" height="12.541254125412543" fill="#a5a5a5"></rect><rect x="150" y="388.967730106344" width="158.89010300050884" height="12.541254125412543" fill="#ffc000"></rect><rect x="150" y="402.16905023835716" width="11.114307421565936" height="12.541254125412543" fill="#5b9bd5"></rect><text class="label" x="340.0975857233134" y="357.8637697103044" font-size="10px">16.34x</text><text class="label" x="313.10210655962703" y="371.06508984231755" font-size="10px">13.91x</text><text class="label" x="170.3054565665928" y="384.26640997433077" font-size="10px">1.06x</text><text class="label" x="317.3901030005088" y="397.467730106344" font-size="10px">14.3x</text><text class="label" x="169.61430742156594" y="410.66905023835716" font-size="10px">1x</text><text class="label" x="336.5975857233134" y="359.3637697103044" font-size="8px"></text><text class="label" x="309.60210655962703" y="372.56508984231755" font-size="8px"></text><text class="label" x="166.8054565665928" y="385.76640997433077" font-size="8px"></text><text class="label" x="313.8901030005088" y="398.967730106344" font-size="8px"></text><text class="label" x="166.11430742156594" y="412.16905023835716" font-size="8px"></text></g><g style="font-size: 13px;"><rect x="150" y="423.4378437843784" width="440.9090909090909" height="12.541254125412543" fill="#4472c4"></rect><rect x="150" y="436.6391639163916" width="80.28816168298052" height="12.541254125412543" fill="#ed7d31"></rect><rect x="150" y="449.84048404840485" width="11.114307421565936" height="12.541254125412543" fill="#a5a5a5"></rect><rect x="150" y="463.041804180418" width="333.56528400705616" height="12.541254125412543" fill="#ffc000"></rect><rect x="150" y="476.24312431243123" width="15.84404234619941" height="12.541254125412543" fill="#5b9bd5"></rect><text class="label" x="599.4090909090909" y="431.9378437843784" font-size="10px">39.67x</text><text class="label" x="238.7881616829805" y="445.1391639163916" font-size="10px">7.22x</text><text class="label" x="169.61430742156594" y="458.34048404840485" font-size="10px">1x</text><text class="label" x="492.06528400705616" y="471.541804180418" font-size="10px">30.01x</text><text class="label" x="174.34404234619942" y="484.74312431243123" font-size="10px">1.43x</text><text class="label" x="595.9090909090909" y="433.4378437843784" font-size="8px"></text><text class="label" x="235.2881616829805" y="446.6391639163916" font-size="8px"></text><text class="label" x="166.11430742156594" y="459.84048404840485" font-size="8px"></text><text class="label" x="488.56528400705616" y="473.041804180418" font-size="8px"></text><text class="label" x="170.84404234619942" y="486.24312431243123" font-size="8px"></text></g><g style="font-size: 13px;"><rect x="150" y="497.51191785845253" width="137.18663497732408" height="12.541254125412543" fill="#4472c4"></rect><rect x="150" y="510.7132379904657" width="137.3949274193708" height="12.541254125412543" fill="#ed7d31"></rect><rect x="150" y="523.9145581224789" width="11.114307421565936" height="12.541254125412543" fill="#a5a5a5"></rect><rect x="150" y="537.1158782544921" width="103.22682687412909" height="12.541254125412543" fill="#ffc000"></rect><rect x="150" y="550.3171983865053" width="12.326597938274078" height="12.541254125412543" fill="#5b9bd5"></rect><text class="label" x="295.68663497732405" y="506.01191785845253" font-size="10px">12.34x</text><text class="label" x="295.8949274193708" y="519.2132379904657" font-size="10px">12.36x</text><text class="label" x="169.61430742156594" y="532.4145581224789" font-size="10px">1x</text><text class="label" x="261.7268268741291" y="545.6158782544921" font-size="10px">9.29x</text><text class="label" x="170.8265979382741" y="558.8171983865053" font-size="10px">1.11x</text><text class="label" x="292.18663497732405" y="507.51191785845253" font-size="8px"></text><text class="label" x="292.3949274193708" y="520.7132379904657" font-size="8px"></text><text class="label" x="166.11430742156594" y="533.9145581224789" font-size="8px"></text><text class="label" x="258.2268268741291" y="547.1158782544921" font-size="8px"></text><text class="label" x="167.3265979382741" y="560.3171983865053" font-size="8px"></text></g><g style="font-size: 13px;"><rect x="150" y="571.5859919325266" width="252.9711269011842" height="12.541254125412543" fill="#4472c4"></rect><rect x="150" y="584.7873120645397" width="92.14229814598116" height="12.541254125412543" fill="#ed7d31"></rect><rect x="150" y="597.9886321965529" width="11.114307421565936" height="12.541254125412543" fill="#a5a5a5"></rect><rect x="150" y="611.1899523285662" width="190.05638549191647" height="12.541254125412543" fill="#ffc000"></rect><rect x="150" y="624.3912724605793" width="11.594818854320627" height="12.541254125412543" fill="#5b9bd5"></rect><text class="label" x="411.4711269011842" y="580.0859919325266" font-size="10px">22.76x</text><text class="label" x="250.64229814598116" y="593.2873120645397" font-size="10px">8.29x</text><text class="label" x="169.61430742156594" y="606.4886321965529" font-size="10px">1x</text><text class="label" x="348.55638549191644" y="619.6899523285662" font-size="10px">17.1x</text><text class="label" x="170.09481885432064" y="632.8912724605793" font-size="10px">1.04x</text><text class="label" x="407.9711269011842" y="581.5859919325266" font-size="8px"></text><text class="label" x="247.14229814598116" y="594.7873120645397" font-size="8px"></text><text class="label" x="166.11430742156594" y="607.9886321965529" font-size="8px"></text><text class="label" x="345.05638549191644" y="621.1899523285662" font-size="8px"></text><text class="label" x="166.59481885432064" y="634.3912724605793" font-size="8px"></text></g></g></svg>