<svg xmlns="http://www.w3.org/2000/svg" xmlns:xlink="http://www.w3.org/1999/xlink" width="800" height="914" style="background-color: white;"><g class="y axis" transform="translate(149,45)" fill="none" font-size="10" font-family="sans-serif" text-anchor="end" style="font-size: 13px;"><path class="domain" stroke="currentColor" d="M0.5,0.5V720.5"></path><g class="tick" opacity="1" transform="translate(0,48.88888888888886)" style="font-size: 13px;"><line stroke="currentColor" x2="0"></line><text fill="currentColor" x="-3" dy="0.32em">object (simple)    </text></g><g class="tick" opacity="1" transform="translate(0,137.77777777777774)" style="font-size: 13px;"><line stroke="currentColor" x2="0"></line><text fill="currentColor" x="-3" dy="0.32em">object (hierarchical)    </text></g><g class="tick" opacity="1" transform="translate(0,226.66666666666663)" style="font-size: 13px;"><line stroke="currentColor" x2="0"></line><text fill="currentColor" x="-3" dy="0.32em">object (recursive)    </text></g><g class="tick" opacity="1" transform="translate(0,315.5555555555555)" style="font-size: 13px;"><line stroke="currentColor" x2="0"></line><text fill="currentColor" x="-3" dy="0.32em">object (union, explicit)    </text></g><g class="tick" opacity="1" transform="translate(0,404.4444444444444)" style="font-size: 13px;"><line stroke="currentColor" x2="0"></line><text fill="currentColor" x="-3" dy="0.32em">array (simple)    </text></g><g class="tick" opacity="1" transform="translate(0,493.3333333333333)" style="font-size: 13px;"><line stroke="currentColor" x2="0"></line><text fill="currentColor" x="-3" dy="0.32em">array (hierarchical)    </text></g><g class="tick" opacity="1" transform="translate(0,582.2222222222222)" style="font-size: 13px;"><line stroke="currentColor" x2="0"></line><text fill="currentColor" x="-3" dy="0.32em">array (recursive)    </text></g><g class="tick" opacity="1" transform="translate(0,671.1111111111111)" style="font-size: 13px;"><line stroke="currentColor" x2="0"></line><text fill="currentColor" x="-3" dy="0.32em">array (union, explicit)    </text></g></g><g class="x axis" transform="translate(149,765)" fill="none" font-size="10" font-family="sans-serif" text-anchor="middle" style="font-size: 13px;"><path class="domain" stroke="currentColor" d="M0.5,0.5H485.5"></path><g class="tick" opacity="1" transform="translate(0.5,0)" style="font-size: 13px;"><line stroke="currentColor" y2="6"></line><text fill="currentColor" y="9" dy="0.71em">0x</text></g><g class="tick" opacity="1" transform="translate(83.52458483006693,0)" style="font-size: 13px;"><line stroke="currentColor" y2="6"></line><text fill="currentColor" y="9" dy="0.71em">50x</text></g><g class="tick" opacity="1" transform="translate(166.54916966013386,0)" style="font-size: 13px;"><line stroke="currentColor" y2="6"></line><text fill="currentColor" y="9" dy="0.71em">100x</text></g><g class="tick" opacity="1" transform="translate(249.5737544902008,0)" style="font-size: 13px;"><line stroke="currentColor" y2="6"></line><text fill="currentColor" y="9" dy="0.71em">150x</text></g><g class="tick" opacity="1" transform="translate(332.5983393202677,0)" style="font-size: 13px;"><line stroke="currentColor" y2="6"></line><text fill="currentColor" y="9" dy="0.71em">200x</text></g><g class="tick" opacity="1" transform="translate(415.62292415033465,0)" style="font-size: 13px;"><line stroke="currentColor" y2="6"></line><text fill="currentColor" y="9" dy="0.71em">250x</text></g></g><text transform="translate(400, 30)" style="text-anchor: middle; font-size: 20px; font-weight: bold;">stringify benchmark</text><rect x="650" y="165" width="230" height="5" fill="gray"></rect><rect x="645" y="35" width="230" height="130" fill="none" stroke="black"></rect><rect x="655" y="45" width="10" height="10" style="fill: #4472c4;"></rect><text x="670" y="55" style="font-size: 12px;">typia.stringify</text><rect x="655" y="65" width="10" height="10" style="fill: #ed7d31;"></rect><text x="670" y="75" style="font-size: 12px;">typia.isStringify</text><rect x="655" y="85" width="10" height="10" style="fill: #a5a5a5;"></rect><text x="670" y="95" style="font-size: 12px;">typia.assertStringify</text><rect x="655" y="105" width="10" height="10" style="fill: #ffc000;"></rect><text x="670" y="115" style="font-size: 12px;">fast-json-stringify</text><rect x="655" y="125" width="10" height="10" style="fill: #5b9bd5;"></rect><text x="670" y="135" style="font-size: 12px;">JSON.stringify</text><rect x="655" y="145" width="10" height="10" style="fill: #70ad47;"></rect><text x="670" y="155" style="font-size: 12px;">class-transformer</text><text x="20" y="829" style="font-size: 12px;">  - CPU: Intel(R) Core(TM) i5-8250U CPU @ 1.60GHz</text><text x="20" y="846" style="font-size: 12px;">  - OS: win32</text><text x="20" y="863" style="font-size: 12px;">  - RAM: 8 GB</text><text x="20" y="880" style="font-size: 12px;">  - NodeJS version: v16.20.1</text><text x="20" y="897" style="font-size: 12px;">  - Typia version: v4.2.0</text><g style="font-size: 13px;"><g style="font-size: 13px;"><rect x="150" y="54.55004591368224" width="440.9090909090909" height="12.56198347107438" fill="#4472c4"></rect><rect x="150" y="67.77318640955001" width="305.61252190968315" height="12.56198347107438" fill="#ed7d31"></rect><rect x="150" y="80.99632690541777" width="345.57682008085374" height="12.56198347107438" fill="#a5a5a5"></rect><rect x="150" y="94.21946740128556" width="134.2737218049412" height="12.56198347107438" fill="#ffc000"></rect><rect x="150" y="107.44260789715332" width="27.09254044473733" height="12.56198347107438" fill="#5b9bd5"></rect><rect x="150" y="120.66574839302109" width="1.6604916966013386" height="12.56198347107438" fill="#70ad47"></rect><text class="label" x="599.4090909090909" y="63.05004591368224" font-size="10px">266x</text><text class="label" x="464.11252190968315" y="76.27318640955001" font-size="10px">184x</text><text class="label" x="504.07682008085374" y="89.49632690541777" font-size="10px">208x</text><text class="label" x="292.7737218049412" y="102.71946740128556" font-size="10px">81x</text><text class="label" x="185.59254044473732" y="115.94260789715332" font-size="10px">16x</text><text class="label" x="160.16049169660133" y="129.1657483930211" font-size="10px">1x</text><text class="label" x="595.9090909090909" y="64.55004591368224" font-size="8px"></text><text class="label" x="460.61252190968315" y="77.77318640955001" font-size="8px"></text><text class="label" x="500.57682008085374" y="90.99632690541777" font-size="8px"></text><text class="label" x="289.2737218049412" y="104.21946740128556" font-size="8px"></text><text class="label" x="182.09254044473732" y="117.44260789715332" font-size="8px"></text><text class="label" x="156.66049169660133" y="130.6657483930211" font-size="8px"></text></g><g style="font-size: 13px;"><rect x="150" y="143.4389348025711" width="84.44406105439339" height="12.56198347107438" fill="#4472c4"></rect><rect x="150" y="156.66207529843888" width="78.77665809540282" height="12.56198347107438" fill="#ed7d31"></rect><rect x="150" y="169.88521579430665" width="81.05856760418264" height="12.56198347107438" fill="#a5a5a5"></rect><rect x="150" y="183.10835629017444" width="44.51721210203801" height="12.56198347107438" fill="#ffc000"></rect><rect x="150" y="196.3314967860422" width="20.324234946152895" height="12.56198347107438" fill="#5b9bd5"></rect><rect x="150" y="209.55463728190998" width="1.6604916966013386" height="12.56198347107438" fill="#70ad47"></rect><text class="label" x="242.9440610543934" y="151.9389348025711" font-size="10px">51x</text><text class="label" x="237.2766580954028" y="165.16207529843888" font-size="10px">47x</text><text class="label" x="239.55856760418266" y="178.38521579430665" font-size="10px">49x</text><text class="label" x="203.017212102038" y="191.60835629017444" font-size="10px">27x</text><text class="label" x="178.8242349461529" y="204.8314967860422" font-size="10px">12x</text><text class="label" x="160.16049169660133" y="218.05463728190998" font-size="10px">1x</text><text class="label" x="239.4440610543934" y="153.4389348025711" font-size="8px"></text><text class="label" x="233.7766580954028" y="166.66207529843888" font-size="8px"></text><text class="label" x="236.05856760418266" y="179.88521579430665" font-size="8px"></text><text class="label" x="199.517212102038" y="193.10835629017444" font-size="8px"></text><text class="label" x="175.3242349461529" y="206.3314967860422" font-size="8px"></text><text class="label" x="156.66049169660133" y="219.55463728190998" font-size="8px"></text></g><g style="font-size: 13px;"><rect x="150" y="232.32782369146003" width="104.52536689659333" height="12.56198347107438" fill="#4472c4"></rect><rect x="150" y="245.5509641873278" width="92.15030687716195" height="12.56198347107438" fill="#ed7d31"></rect><rect x="150" y="258.77410468319556" width="103.3002514344989" height="12.56198347107438" fill="#a5a5a5"></rect><rect x="150" y="271.9972451790633" width="27.36229756589075" height="12.56198347107438" fill="#ffc000"></rect><rect x="150" y="285.2203856749311" width="20.331796001823232" height="12.56198347107438" fill="#5b9bd5"></rect><rect x="150" y="298.44352617079886" width="1.6604916966013386" height="12.56198347107438" fill="#70ad47"></rect><text class="label" x="263.0253668965933" y="240.82782369146003" font-size="10px">63x</text><text class="label" x="250.65030687716194" y="254.0509641873278" font-size="10px">55x</text><text class="label" x="261.80025143449893" y="267.27410468319556" font-size="10px">62x</text><text class="label" x="185.86229756589074" y="280.4972451790633" font-size="10px">16x</text><text class="label" x="178.83179600182322" y="293.7203856749311" font-size="10px">12x</text><text class="label" x="160.16049169660133" y="306.94352617079886" font-size="10px">1x</text><text class="label" x="259.5253668965933" y="242.32782369146003" font-size="8px"></text><text class="label" x="247.15030687716194" y="255.5509641873278" font-size="8px"></text><text class="label" x="258.30025143449893" y="268.77410468319556" font-size="8px"></text><text class="label" x="182.36229756589074" y="281.9972451790633" font-size="8px"></text><text class="label" x="175.33179600182322" y="295.2203856749311" font-size="8px"></text><text class="label" x="156.66049169660133" y="308.44352617079886" font-size="8px"></text></g><g style="font-size: 13px;"><rect x="150" y="321.2167125803489" width="61.188981003240485" height="12.56198347107438" fill="#4472c4"></rect><rect x="150" y="334.43985307621665" width="69.11420084058894" height="12.56198347107438" fill="#ed7d31"></rect><rect x="150" y="347.6629935720844" width="67.38228591200141" height="12.56198347107438" fill="#a5a5a5"></rect><rect x="150" y="360.8861340679522" width="60.05306361272893" height="12.56198347107438" fill="#ffc000"></rect><rect x="150" y="374.10927456381995" width="50.121784288332435" height="12.56198347107438" fill="#5b9bd5"></rect><rect x="150" y="387.3324150596877" width="1.6604916966013386" height="12.56198347107438" fill="#70ad47"></rect><text class="label" x="219.68898100324049" y="329.7167125803489" font-size="10px">37x</text><text class="label" x="227.61420084058892" y="342.93985307621665" font-size="10px">42x</text><text class="label" x="225.8822859120014" y="356.1629935720844" font-size="10px">41x</text><text class="label" x="218.55306361272892" y="369.3861340679522" font-size="10px">36x</text><text class="label" x="208.62178428833244" y="382.60927456381995" font-size="10px">30x</text><text class="label" x="160.16049169660133" y="395.8324150596877" font-size="10px">1x</text><text class="label" x="216.18898100324049" y="331.2167125803489" font-size="8px"></text><text class="label" x="224.11420084058892" y="344.43985307621665" font-size="8px"></text><text class="label" x="222.3822859120014" y="357.6629935720844" font-size="8px"></text><text class="label" x="215.05306361272892" y="370.8861340679522" font-size="8px"></text><text class="label" x="205.12178428833244" y="384.10927456381995" font-size="8px"></text><text class="label" x="156.66049169660133" y="397.3324150596877" font-size="8px"></text></g><g style="font-size: 13px;"><rect x="150" y="410.1056014692378" width="50.197485820558484" height="12.56198347107438" fill="#4472c4"></rect><rect x="150" y="423.32874196510556" width="68.6202197492175" height="12.56198347107438" fill="#ed7d31"></rect><rect x="150" y="436.55188246097333" width="47.607847341114876" height="12.56198347107438" fill="#a5a5a5"></rect><rect x="150" y="449.7750229568411" width="68.91313204957216" height="12.56198347107438" fill="#ffc000"></rect><rect x="150" y="462.99816345270887" width="38.67940991488455" height="12.56198347107438" fill="#5b9bd5"></rect><rect x="150" y="476.22130394857663" width="1.6604916966013386" height="12.56198347107438" fill="#70ad47"></rect><text class="label" x="208.69748582055848" y="418.6056014692378" font-size="10px">30x</text><text class="label" x="227.12021974921748" y="431.82874196510556" font-size="10px">41x</text><text class="label" x="206.10784734111488" y="445.05188246097333" font-size="10px">29x</text><text class="label" x="227.41313204957214" y="458.2750229568411" font-size="10px">42x</text><text class="label" x="197.17940991488456" y="471.49816345270887" font-size="10px">23x</text><text class="label" x="160.16049169660133" y="484.72130394857663" font-size="10px">1x</text><text class="label" x="205.19748582055848" y="420.1056014692378" font-size="8px"></text><text class="label" x="223.62021974921748" y="433.32874196510556" font-size="8px"></text><text class="label" x="202.60784734111488" y="446.55188246097333" font-size="8px"></text><text class="label" x="223.91313204957214" y="459.7750229568411" font-size="8px"></text><text class="label" x="193.67940991488456" y="472.99816345270887" font-size="8px"></text><text class="label" x="156.66049169660133" y="486.22130394857663" font-size="8px"></text></g><g style="font-size: 13px;"><rect x="150" y="498.9944903581267" width="39.12333385879009" height="12.56198347107438" fill="#4472c4"></rect><rect x="150" y="512.2176308539945" width="44.6682122087312" height="12.56198347107438" fill="#ed7d31"></rect><rect x="150" y="525.4407713498622" width="45.84510706710594" height="12.56198347107438" fill="#a5a5a5"></rect><rect x="150" y="538.66391184573" width="79.84834114360712" height="12.56198347107438" fill="#ffc000"></rect><rect x="150" y="551.8870523415978" width="31.733354914148123" height="12.56198347107438" fill="#5b9bd5"></rect><rect x="150" y="565.1101928374655" width="1.6604916966013386" height="12.56198347107438" fill="#70ad47"></rect><text class="label" x="197.6233338587901" y="507.4944903581267" font-size="10px">24x</text><text class="label" x="203.1682122087312" y="520.7176308539945" font-size="10px">27x</text><text class="label" x="204.34510706710594" y="533.9407713498622" font-size="10px">28x</text><text class="label" x="238.34834114360712" y="547.16391184573" font-size="10px">48x</text><text class="label" x="190.23335491414812" y="560.3870523415978" font-size="10px">19x</text><text class="label" x="160.16049169660133" y="573.6101928374655" font-size="10px">1x</text><text class="label" x="194.1233338587901" y="508.9944903581267" font-size="8px"></text><text class="label" x="199.6682122087312" y="522.2176308539945" font-size="8px"></text><text class="label" x="200.84510706710594" y="535.4407713498622" font-size="8px"></text><text class="label" x="234.84834114360712" y="548.66391184573" font-size="8px"></text><text class="label" x="186.73335491414812" y="561.8870523415978" font-size="8px"></text><text class="label" x="156.66049169660133" y="575.1101928374655" font-size="8px"></text></g><g style="font-size: 13px;"><rect x="150" y="587.8833792470156" width="120.15850880079905" height="12.56198347107438" fill="#4472c4"></rect><rect x="150" y="601.1065197428833" width="121.08731659921172" height="12.56198347107438" fill="#ed7d31"></rect><rect x="150" y="614.3296602387511" width="101.64580489642867" height="12.56198347107438" fill="#a5a5a5"></rect><rect x="150" y="627.5528007346188" width="235.81798912568433" height="12.56198347107438" fill="#ffc000"></rect><rect x="150" y="640.7759412304866" width="40.11744452551771" height="12.56198347107438" fill="#5b9bd5"></rect><rect x="150" y="653.9990817263545" width="1.6604916966013386" height="12.56198347107438" fill="#70ad47"></rect><text class="label" x="278.65850880079904" y="596.3833792470156" font-size="10px">72x</text><text class="label" x="279.5873165992117" y="609.6065197428833" font-size="10px">73x</text><text class="label" x="260.1458048964287" y="622.8296602387511" font-size="10px">61x</text><text class="label" x="394.31798912568433" y="636.0528007346188" font-size="10px">142x</text><text class="label" x="198.61744452551773" y="649.2759412304866" font-size="10px">24x</text><text class="label" x="160.16049169660133" y="662.4990817263545" font-size="10px">1x</text><text class="label" x="275.15850880079904" y="597.8833792470156" font-size="8px"></text><text class="label" x="276.0873165992117" y="611.1065197428833" font-size="8px"></text><text class="label" x="256.6458048964287" y="624.3296602387511" font-size="8px"></text><text class="label" x="390.81798912568433" y="637.5528007346188" font-size="8px"></text><text class="label" x="195.11744452551773" y="650.7759412304866" font-size="8px"></text><text class="label" x="156.66049169660133" y="663.9990817263545" font-size="8px"></text></g><g style="font-size: 13px;"><rect x="150" y="676.7722681359045" width="49.632645920726915" height="12.56198347107438" fill="#4472c4"></rect><rect x="150" y="689.9954086317722" width="44.524690205989174" height="12.56198347107438" fill="#ed7d31"></rect><rect x="150" y="703.21854912764" width="45.643728947184826" height="12.56198347107438" fill="#a5a5a5"></rect><rect x="150" y="716.4416896235077" width="11.314444851590252" height="12.56198347107438" fill="#ffc000"></rect><rect x="150" y="729.6648301193756" width="41.39551615501371" height="12.56198347107438" fill="#5b9bd5"></rect><rect x="150" y="742.8879706152434" width="1.6604916966013386" height="12.56198347107438" fill="#70ad47"></rect><text class="label" x="208.13264592072693" y="685.2722681359045" font-size="10px">30x</text><text class="label" x="203.02469020598917" y="698.4954086317722" font-size="10px">27x</text><text class="label" x="204.14372894718483" y="711.71854912764" font-size="10px">27x</text><text class="label" x="169.81444485159025" y="724.9416896235077" font-size="10px">7x</text><text class="label" x="199.8955161550137" y="738.1648301193756" font-size="10px">25x</text><text class="label" x="160.16049169660133" y="751.3879706152434" font-size="10px">1x</text><text class="label" x="204.63264592072693" y="686.7722681359045" font-size="8px"></text><text class="label" x="199.52469020598917" y="699.9954086317722" font-size="8px"></text><text class="label" x="200.64372894718483" y="713.21854912764" font-size="8px"></text><text class="label" x="166.31444485159025" y="726.4416896235077" font-size="8px"></text><text class="label" x="196.3955161550137" y="739.6648301193756" font-size="8px"></text><text class="label" x="156.66049169660133" y="752.8879706152434" font-size="8px"></text></g></g></svg>