<svg xmlns="http://www.w3.org/2000/svg" xmlns:xlink="http://www.w3.org/1999/xlink" width="800" height="1004" style="background-color: white;"><g class="y axis" transform="translate(149,45)" fill="none" font-size="10" font-family="sans-serif" text-anchor="end" style="font-size: 13px;"><path class="domain" stroke="currentColor" d="M0.5,0.5V810.5"></path><g class="tick" opacity="1" transform="translate(0,48.95604395604397)" style="font-size: 13px;"><line stroke="currentColor" x2="0"></line><text fill="currentColor" x="-3" dy="0.32em">object (simple)    </text></g><g class="tick" opacity="1" transform="translate(0,137.967032967033)" style="font-size: 13px;"><line stroke="currentColor" x2="0"></line><text fill="currentColor" x="-3" dy="0.32em">object (hierarchical)    </text></g><g class="tick" opacity="1" transform="translate(0,226.97802197802199)" style="font-size: 13px;"><line stroke="currentColor" x2="0"></line><text fill="currentColor" x="-3" dy="0.32em">object (recursive)    </text></g><g class="tick" opacity="1" transform="translate(0,315.989010989011)" style="font-size: 13px;"><line stroke="currentColor" x2="0"></line><text fill="currentColor" x="-3" dy="0.32em">object (union, explicit)    </text></g><g class="tick" opacity="1" transform="translate(0,405)" style="font-size: 13px;"><line stroke="currentColor" x2="0"></line><text fill="currentColor" x="-3" dy="0.32em">object (union, implicit)    </text></g><g class="tick" opacity="1" transform="translate(0,494.010989010989)" style="font-size: 13px;"><line stroke="currentColor" x2="0"></line><text fill="currentColor" x="-3" dy="0.32em">array (recursive)    </text></g><g class="tick" opacity="1" transform="translate(0,583.021978021978)" style="font-size: 13px;"><line stroke="currentColor" x2="0"></line><text fill="currentColor" x="-3" dy="0.32em">array (union, explicit)    </text></g><g class="tick" opacity="1" transform="translate(0,672.0329670329671)" style="font-size: 13px;"><line stroke="currentColor" x2="0"></line><text fill="currentColor" x="-3" dy="0.32em">array (union, implicit)    </text></g><g class="tick" opacity="1" transform="translate(0,761.043956043956)" style="font-size: 13px;"><line stroke="currentColor" x2="0"></line><text fill="currentColor" x="-3" dy="0.32em">ultimate union    </text></g></g><g class="x axis" transform="translate(149,855)" fill="none" font-size="10" font-family="sans-serif" text-anchor="middle" style="font-size: 13px;"><path class="domain" stroke="currentColor" d="M0.5,0.5H485.5"></path><g class="tick" opacity="1" transform="translate(0.5,0)" style="font-size: 13px;"><line stroke="currentColor" y2="6"></line><text fill="currentColor" y="9" dy="0.71em">0x</text></g><g class="tick" opacity="1" transform="translate(114.44841361220875,0)" style="font-size: 13px;"><line stroke="currentColor" y2="6"></line><text fill="currentColor" y="9" dy="0.71em">5,000x</text></g><g class="tick" opacity="1" transform="translate(228.3968272244175,0)" style="font-size: 13px;"><line stroke="currentColor" y2="6"></line><text fill="currentColor" y="9" dy="0.71em">10,000x</text></g><g class="tick" opacity="1" transform="translate(342.34524083662626,0)" style="font-size: 13px;"><line stroke="currentColor" y2="6"></line><text fill="currentColor" y="9" dy="0.71em">15,000x</text></g><g class="tick" opacity="1" transform="translate(456.293654448835,0)" style="font-size: 13px;"><line stroke="currentColor" y2="6"></line><text fill="currentColor" y="9" dy="0.71em">20,000x</text></g></g><text transform="translate(400, 30)" style="text-anchor: middle; font-size: 20px; font-weight: bold;">assert benchmark</text><rect x="650" y="165" width="230" height="5" fill="gray"></rect><rect x="645" y="35" width="230" height="130" fill="none" stroke="black"></rect><rect x="655" y="45" width="10" height="10" style="fill: #4472c4;"></rect><text x="670" y="55" style="font-size: 12px;">typia</text><rect x="655" y="65" width="10" height="10" style="fill: #ed7d31;"></rect><text x="670" y="75" style="font-size: 12px;">typebox</text><rect x="655" y="85" width="10" height="10" style="fill: #a5a5a5;"></rect><text x="670" y="95" style="font-size: 12px;">ajv</text><rect x="655" y="105" width="10" height="10" style="fill: #ffc000;"></rect><text x="670" y="115" style="font-size: 12px;">io-ts</text><rect x="655" y="125" width="10" height="10" style="fill: #5b9bd5;"></rect><text x="670" y="135" style="font-size: 12px;">zod</text><rect x="655" y="145" width="10" height="10" style="fill: #70ad47;"></rect><text x="670" y="155" style="font-size: 12px;">class-validator</text><text x="20" y="919" style="font-size: 12px;">  - CPU: AMD Ryzen 7 6800HS with Radeon Graphics</text><text x="20" y="936" style="font-size: 12px;">  - OS: win32</text><text x="20" y="953" style="font-size: 12px;">  - RAM: 63 GB</text><text x="20" y="970" style="font-size: 12px;">  - NodeJS version: v16.20.1</text><text x="20" y="987" style="font-size: 12px;">  - Typia version: v4.1.8</text><g style="font-size: 13px;"><g style="font-size: 13px;"><rect x="150" y="54.563164108618665" width="440.9090909090908" height="12.579238942875305" fill="#4472c4"></rect><rect x="150" y="67.80446825901373" width="438.58378335311437" height="12.579238942875305" fill="#ed7d31"></rect><rect x="150" y="81.04577240940878" width="15.85033671965263" height="12.579238942875305" fill="#a5a5a5"></rect><rect x="150" y="94.28707655980384" width="1.5412504169224663" height="12.579238942875305" fill="#ffc000"></rect><rect x="150" y="107.5283807101989" width="0.22311936921646003" height="12.579238942875305" fill="#5b9bd5"></rect><rect x="150" y="120.76968486059396" width="0.02278968272244175" height="12.579238942875305" fill="#70ad47"></rect><text class="label" x="599.4090909090908" y="63.063164108618665" font-size="10px">19,347x</text><text class="label" x="597.0837833531143" y="76.30446825901373" font-size="10px">19,245x</text><text class="label" x="174.35033671965263" y="89.54577240940878" font-size="10px">696x</text><text class="label" x="160.04125041692248" y="102.78707655980384" font-size="10px">68x</text><text class="label" x="158.72311936921645" y="116.0283807101989" font-size="10px">10x</text><text class="label" x="158.52278968272245" y="129.26968486059394" font-size="10px">1x</text><text class="label" x="595.9090909090908" y="64.56316410861866" font-size="8px"></text><text class="label" x="593.5837833531143" y="77.80446825901373" font-size="8px"></text><text class="label" x="170.85033671965263" y="91.04577240940878" font-size="8px"></text><text class="label" x="156.54125041692248" y="104.28707655980384" font-size="8px"></text><text class="label" x="155.22311936921645" y="117.5283807101989" font-size="8px"></text><text class="label" x="155.02278968272245" y="130.76968486059394" font-size="8px"></text></g><g style="font-size: 13px;"><rect x="150" y="143.57415311960767" width="70.83110811745388" height="12.579238942875305" fill="#4472c4"></rect><rect x="150" y="156.81545727000272" width="51.10143189976737" height="12.579238942875305" fill="#ed7d31"></rect><rect x="150" y="170.05676142039778" width="12.17126627963375" height="12.579238942875305" fill="#a5a5a5"></rect><rect x="150" y="183.29806557079286" width="1.496683742346348" height="12.579238942875305" fill="#ffc000"></rect><rect x="150" y="196.5393697211879" width="0.08603826211031257" height="12.579238942875305" fill="#5b9bd5"></rect><rect x="150" y="209.78067387158296" width="0.02278968272244175" height="12.579238942875305" fill="#70ad47"></rect><text class="label" x="229.33110811745388" y="152.07415311960767" font-size="10px">3,108x</text><text class="label" x="209.60143189976736" y="165.31545727000272" font-size="10px">2,242x</text><text class="label" x="170.67126627963376" y="178.55676142039778" font-size="10px">534x</text><text class="label" x="159.99668374234633" y="191.79806557079286" font-size="10px">66x</text><text class="label" x="158.58603826211032" y="205.0393697211879" font-size="10px">4x</text><text class="label" x="158.52278968272245" y="218.28067387158296" font-size="10px">1x</text><text class="label" x="225.83110811745388" y="153.57415311960767" font-size="8px"></text><text class="label" x="206.10143189976736" y="166.81545727000272" font-size="8px"></text><text class="label" x="167.17126627963376" y="180.05676142039778" font-size="8px"></text><text class="label" x="156.49668374234633" y="193.29806557079286" font-size="8px"></text><text class="label" x="155.08603826211032" y="206.5393697211879" font-size="8px"></text><text class="label" x="155.02278968272245" y="219.78067387158296" font-size="8px"></text></g><g style="font-size: 13px;"><rect x="150" y="232.5851421305967" width="35.87851200864558" height="12.579238942875305" fill="#4472c4"></rect><rect x="150" y="245.82644628099175" width="39.91993317608602" height="12.579238942875305" fill="#ed7d31"></rect><rect x="150" y="259.0677504313868" width="7.758216336436967" height="12.579238942875305" fill="#a5a5a5"></rect><rect x="150" y="272.3090545817819" width="1.850802593802475" height="12.579238942875305" fill="#ffc000"></rect><rect x="150" y="285.5503587321769" width="0.02278968272244175" height="12.579238942875305" fill="#5b9bd5"></rect><rect x="150" y="298.791662882572" width="0.028243293625702666" height="12.579238942875305" fill="#70ad47"></rect><text class="label" x="194.37851200864557" y="241.0851421305967" font-size="10px">1,574x</text><text class="label" x="198.41993317608603" y="254.32644628099175" font-size="10px">1,752x</text><text class="label" x="166.25821633643696" y="267.5677504313868" font-size="10px">340x</text><text class="label" x="160.35080259380248" y="280.8090545817819" font-size="10px">81x</text><text class="label" x="158.52278968272245" y="294.0503587321769" font-size="10px">1x</text><text class="label" x="158.5282432936257" y="307.291662882572" font-size="10px">1x</text><text class="label" x="190.87851200864557" y="242.5851421305967" font-size="8px"></text><text class="label" x="194.91993317608603" y="255.82644628099175" font-size="8px"></text><text class="label" x="162.75821633643696" y="269.0677504313868" font-size="8px"></text><text class="label" x="156.85080259380248" y="282.3090545817819" font-size="8px"></text><text class="label" x="155.02278968272245" y="295.5503587321769" font-size="8px"></text><text class="label" x="155.0282432936257" y="308.791662882572" font-size="8px"></text></g><g style="font-size: 13px;"><rect x="150" y="321.59613114158566" width="13.229439894383331" height="12.579238942875305" fill="#4472c4"></rect><rect x="150" y="334.83743529198074" width="9.296806499292945" height="12.579238942875305" fill="#ed7d31"></rect><rect x="150" y="348.07873944237576" width="0.7792525608696496" height="12.579238942875305" fill="#a5a5a5"></rect><rect x="150" y="361.32004359277084" width="1.9722743449269988" height="12.579238942875305" fill="#ffc000"></rect><rect x="150" y="374.5613477431659" width="0.02278968272244175" height="12.579238942875305" fill="#5b9bd5"></rect><rect x="150" y="387.80265189356095" width="0" height="12.579238942875305" fill="#70ad47"></rect><text class="label" x="171.72943989438332" y="330.09613114158566" font-size="10px">581x</text><text class="label" x="167.79680649929296" y="343.33743529198074" font-size="10px">408x</text><text class="label" x="159.27925256086965" y="356.57873944237576" font-size="10px">34x</text><text class="label" x="160.472274344927" y="369.82004359277084" font-size="10px">87x</text><text class="label" x="158.52278968272245" y="383.0613477431659" font-size="10px">1x</text><text class="label" x="158.5" y="396.30265189356095" font-size="10px"></text><text class="label" x="168.22943989438332" y="331.59613114158566" font-size="8px"></text><text class="label" x="164.29680649929296" y="344.83743529198074" font-size="8px"></text><text class="label" x="155.77925256086965" y="358.07873944237576" font-size="8px"></text><text class="label" x="156.972274344927" y="371.32004359277084" font-size="8px"></text><text class="label" x="155.02278968272245" y="384.5613477431659" font-size="8px"></text><text class="label" x="155" y="397.80265189356095" font-size="8px">Failed</text></g><g style="font-size: 13px;"><rect x="150" y="410.6071201525747" width="485" height="12.579238942875305" fill="#4472c4"></rect><rect x="150" y="423.84842430296976" width="0" height="12.579238942875305" fill="#ed7d31"></rect><rect x="150" y="437.08972845336484" width="0" height="12.579238942875305" fill="#a5a5a5"></rect><rect x="150" y="450.33103260375987" width="0" height="12.579238942875305" fill="#ffc000"></rect><rect x="150" y="463.57233675415495" width="0" height="12.579238942875305" fill="#5b9bd5"></rect><rect x="150" y="476.81364090454997" width="0" height="12.579238942875305" fill="#70ad47"></rect><text class="label" x="643.5" y="419.1071201525747" font-size="10px">Infinity</text><text class="label" x="158.5" y="432.34842430296976" font-size="10px"></text><text class="label" x="158.5" y="445.58972845336484" font-size="10px"></text><text class="label" x="158.5" y="458.83103260375987" font-size="10px"></text><text class="label" x="158.5" y="472.07233675415495" font-size="10px"></text><text class="label" x="158.5" y="485.31364090454997" font-size="10px"></text><text class="label" x="640" y="420.6071201525747" font-size="8px"></text><text class="label" x="155" y="433.84842430296976" font-size="8px">Failed</text><text class="label" x="155" y="447.08972845336484" font-size="8px">Failed</text><text class="label" x="155" y="460.33103260375987" font-size="8px">Failed</text><text class="label" x="155" y="473.57233675415495" font-size="8px">Failed</text><text class="label" x="155" y="486.81364090454997" font-size="8px">Failed</text></g><g style="font-size: 13px;"><rect x="150" y="499.6181091635637" width="21.23579277247878" height="12.579238942875305" fill="#4472c4"></rect><rect x="150" y="512.8594133139588" width="27.01877708457606" height="12.579238942875305" fill="#ed7d31"></rect><rect x="150" y="526.1007174643538" width="6.789132854457348" height="12.579238942875305" fill="#a5a5a5"></rect><rect x="150" y="539.3420216147489" width="1.7285142278302645" height="12.579238942875305" fill="#ffc000"></rect><rect x="150" y="552.583325765144" width="0.02654969267291552" height="12.579238942875305" fill="#5b9bd5"></rect><rect x="150" y="565.824629915539" width="0.02278968272244175" height="12.579238942875305" fill="#70ad47"></rect><text class="label" x="179.7357927724788" y="508.1181091635637" font-size="10px">932x</text><text class="label" x="185.51877708457607" y="521.3594133139588" font-size="10px">1,186x</text><text class="label" x="165.28913285445734" y="534.6007174643538" font-size="10px">298x</text><text class="label" x="160.22851422783026" y="547.8420216147489" font-size="10px">76x</text><text class="label" x="158.52654969267292" y="561.083325765144" font-size="10px">1x</text><text class="label" x="158.52278968272245" y="574.324629915539" font-size="10px">1x</text><text class="label" x="176.2357927724788" y="509.6181091635637" font-size="8px"></text><text class="label" x="182.01877708457607" y="522.8594133139588" font-size="8px"></text><text class="label" x="161.78913285445734" y="536.1007174643538" font-size="8px"></text><text class="label" x="156.72851422783026" y="549.3420216147489" font-size="8px"></text><text class="label" x="155.02654969267292" y="562.583325765144" font-size="8px"></text><text class="label" x="155.02278968272245" y="575.824629915539" font-size="8px"></text></g><g style="font-size: 13px;"><rect x="150" y="588.6290981745527" width="26.920286162871783" height="12.579238942875305" fill="#4472c4"></rect><rect x="150" y="601.8704023249478" width="17.618067081987007" height="12.579238942875305" fill="#ed7d31"></rect><rect x="150" y="615.1117064753429" width="2.8923312422785963" height="12.579238942875305" fill="#a5a5a5"></rect><rect x="150" y="628.353010625738" width="3.0695850171133006" height="12.579238942875305" fill="#ffc000"></rect><rect x="150" y="641.5943147761329" width="0.02278968272244175" height="12.579238942875305" fill="#5b9bd5"></rect><rect x="150" y="654.835618926528" width="0" height="12.579238942875305" fill="#70ad47"></rect><text class="label" x="185.42028616287178" y="597.1290981745527" font-size="10px">1,181x</text><text class="label" x="176.11806708198702" y="610.3704023249478" font-size="10px">773x</text><text class="label" x="161.3923312422786" y="623.6117064753429" font-size="10px">127x</text><text class="label" x="161.5695850171133" y="636.853010625738" font-size="10px">135x</text><text class="label" x="158.52278968272245" y="650.0943147761329" font-size="10px">1x</text><text class="label" x="158.5" y="663.335618926528" font-size="10px"></text><text class="label" x="181.92028616287178" y="598.6290981745527" font-size="8px"></text><text class="label" x="172.61806708198702" y="611.8704023249478" font-size="8px"></text><text class="label" x="157.8923312422786" y="625.1117064753429" font-size="8px"></text><text class="label" x="158.0695850171133" y="638.353010625738" font-size="8px"></text><text class="label" x="155.02278968272245" y="651.5943147761329" font-size="8px"></text><text class="label" x="155" y="664.835618926528" font-size="8px">Failed</text></g><g style="font-size: 13px;"><rect x="150" y="677.6400871855418" width="485" height="12.579238942875305" fill="#4472c4"></rect><rect x="150" y="690.8813913359369" width="0" height="12.579238942875305" fill="#ed7d31"></rect><rect x="150" y="704.122695486332" width="0" height="12.579238942875305" fill="#a5a5a5"></rect><rect x="150" y="717.363999636727" width="0" height="12.579238942875305" fill="#ffc000"></rect><rect x="150" y="730.605303787122" width="0" height="12.579238942875305" fill="#5b9bd5"></rect><rect x="150" y="743.8466079375171" width="0" height="12.579238942875305" fill="#70ad47"></rect><text class="label" x="643.5" y="686.1400871855418" font-size="10px">Infinity</text><text class="label" x="158.5" y="699.3813913359369" font-size="10px"></text><text class="label" x="158.5" y="712.622695486332" font-size="10px"></text><text class="label" x="158.5" y="725.863999636727" font-size="10px"></text><text class="label" x="158.5" y="739.105303787122" font-size="10px"></text><text class="label" x="158.5" y="752.3466079375171" font-size="10px"></text><text class="label" x="640" y="687.6400871855418" font-size="8px"></text><text class="label" x="155" y="700.8813913359369" font-size="8px">Failed</text><text class="label" x="155" y="714.122695486332" font-size="8px">Failed</text><text class="label" x="155" y="727.363999636727" font-size="8px">Failed</text><text class="label" x="155" y="740.605303787122" font-size="8px">Failed</text><text class="label" x="155" y="753.8466079375171" font-size="8px">Failed</text></g><g style="font-size: 13px;"><rect x="150" y="766.6510761965307" width="485" height="12.579238942875305" fill="#4472c4"></rect><rect x="150" y="779.8923803469257" width="0" height="12.579238942875305" fill="#ed7d31"></rect><rect x="150" y="793.1336844973208" width="0" height="12.579238942875305" fill="#a5a5a5"></rect><rect x="150" y="806.3749886477159" width="0" height="12.579238942875305" fill="#ffc000"></rect><rect x="150" y="819.6162927981109" width="0" height="12.579238942875305" fill="#5b9bd5"></rect><rect x="150" y="832.8575969485059" width="0" height="12.579238942875305" fill="#70ad47"></rect><text class="label" x="643.5" y="775.1510761965307" font-size="10px">Infinity</text><text class="label" x="158.5" y="788.3923803469257" font-size="10px"></text><text class="label" x="158.5" y="801.6336844973208" font-size="10px"></text><text class="label" x="158.5" y="814.8749886477159" font-size="10px"></text><text class="label" x="158.5" y="828.1162927981109" font-size="10px"></text><text class="label" x="158.5" y="841.3575969485059" font-size="10px"></text><text class="label" x="640" y="776.6510761965307" font-size="8px"></text><text class="label" x="155" y="789.8923803469257" font-size="8px">Failed</text><text class="label" x="155" y="803.1336844973208" font-size="8px">Failed</text><text class="label" x="155" y="816.3749886477159" font-size="8px">Failed</text><text class="label" x="155" y="829.6162927981109" font-size="8px">Failed</text><text class="label" x="155" y="842.8575969485059" font-size="8px">Failed</text></g></g></svg>