<svg xmlns="http://www.w3.org/2000/svg" xmlns:xlink="http://www.w3.org/1999/xlink" width="800" height="794" style="background-color: white;"><g class="y axis" transform="translate(149,45)" fill="none" font-size="10" font-family="sans-serif" text-anchor="end" style="font-size: 13px;"><path class="domain" stroke="currentColor" d="M0.5,0.5V600.5"></path><g class="tick" opacity="1" transform="translate(0,40.740740740740726)" style="font-size: 13px;"><line stroke="currentColor" x2="0"></line><text fill="currentColor" x="-3" dy="0.32em">object (simple)    </text></g><g class="tick" opacity="1" transform="translate(0,114.81481481481481)" style="font-size: 13px;"><line stroke="currentColor" x2="0"></line><text fill="currentColor" x="-3" dy="0.32em">object (hierarchical)    </text></g><g class="tick" opacity="1" transform="translate(0,188.88888888888889)" style="font-size: 13px;"><line stroke="currentColor" x2="0"></line><text fill="currentColor" x="-3" dy="0.32em">object (recursive)    </text></g><g class="tick" opacity="1" transform="translate(0,262.96296296296293)" style="font-size: 13px;"><line stroke="currentColor" x2="0"></line><text fill="currentColor" x="-3" dy="0.32em">object (union, explicit)    </text></g><g class="tick" opacity="1" transform="translate(0,337.037037037037)" style="font-size: 13px;"><line stroke="currentColor" x2="0"></line><text fill="currentColor" x="-3" dy="0.32em">array (simple)    </text></g><g class="tick" opacity="1" transform="translate(0,411.1111111111111)" style="font-size: 13px;"><line stroke="currentColor" x2="0"></line><text fill="currentColor" x="-3" dy="0.32em">array (hierarchical)    </text></g><g class="tick" opacity="1" transform="translate(0,485.18518518518516)" style="font-size: 13px;"><line stroke="currentColor" x2="0"></line><text fill="currentColor" x="-3" dy="0.32em">array (recursive)    </text></g><g class="tick" opacity="1" transform="translate(0,559.2592592592592)" style="font-size: 13px;"><line stroke="currentColor" x2="0"></line><text fill="currentColor" x="-3" dy="0.32em">array (union, explicit)    </text></g></g><g class="x axis" transform="translate(149,645)" fill="none" font-size="10" font-family="sans-serif" text-anchor="middle" style="font-size: 13px;"><path class="domain" stroke="currentColor" d="M0.5,0.5H485.5"></path><g class="tick" opacity="1" transform="translate(0.5,0)" style="font-size: 13px;"><line stroke="currentColor" y2="6"></line><text fill="currentColor" y="9" dy="0.71em">0x</text></g><g class="tick" opacity="1" transform="translate(95.39990156902807,0)" style="font-size: 13px;"><line stroke="currentColor" y2="6"></line><text fill="currentColor" y="9" dy="0.71em">5x</text></g><g class="tick" opacity="1" transform="translate(190.29980313805615,0)" style="font-size: 13px;"><line stroke="currentColor" y2="6"></line><text fill="currentColor" y="9" dy="0.71em">10x</text></g><g class="tick" opacity="1" transform="translate(285.19970470708427,0)" style="font-size: 13px;"><line stroke="currentColor" y2="6"></line><text fill="currentColor" y="9" dy="0.71em">15x</text></g><g class="tick" opacity="1" transform="translate(380.0996062761123,0)" style="font-size: 13px;"><line stroke="currentColor" y2="6"></line><text fill="currentColor" y="9" dy="0.71em">20x</text></g><g class="tick" opacity="1" transform="translate(474.99950784514044,0)" style="font-size: 13px;"><line stroke="currentColor" y2="6"></line><text fill="currentColor" y="9" dy="0.71em">25x</text></g></g><text transform="translate(400, 30)" style="text-anchor: middle; font-size: 20px; font-weight: bold;">server-assert benchmark</text><rect x="650" y="145" width="230" height="5" fill="gray"></rect><rect x="645" y="35" width="230" height="110" fill="none" stroke="black"></rect><rect x="655" y="45" width="10" height="10" style="fill: #4472c4;"></rect><text x="670" y="55" style="font-size: 12px;">fastify-typia</text><rect x="655" y="65" width="10" height="10" style="fill: #ed7d31;"></rect><text x="670" y="75" style="font-size: 12px;">fastify-pure</text><rect x="655" y="85" width="10" height="10" style="fill: #a5a5a5;"></rect><text x="670" y="95" style="font-size: 12px;">fastify-class-transformer</text><rect x="655" y="105" width="10" height="10" style="fill: #ffc000;"></rect><text x="670" y="115" style="font-size: 12px;">express-typia</text><rect x="655" y="125" width="10" height="10" style="fill: #5b9bd5;"></rect><text x="670" y="135" style="font-size: 12px;">express-class-transformer</text><text x="20" y="709" style="font-size: 12px;">  - CPU: AMD Ryzen 7 6800HS with Radeon Graphics</text><text x="20" y="726" style="font-size: 12px;">  - OS: win32</text><text x="20" y="743" style="font-size: 12px;">  - RAM: 63 GB</text><text x="20" y="760" style="font-size: 12px;">  - NodeJS version: v16.20.1</text><text x="20" y="777" style="font-size: 12px;">  - Typia version: v4.1.8</text><g style="font-size: 13px;"><g style="font-size: 13px;"><rect x="150" y="53.06747341400805" width="217.6766504153444" height="12.541254125412543" fill="#4472c4"></rect><rect x="150" y="66.26879354602124" width="218.34512019915562" height="12.541254125412543" fill="#ed7d31"></rect><rect x="150" y="79.47011367803445" width="19.883121477890437" height="12.541254125412543" fill="#a5a5a5"></rect><rect x="150" y="92.67143381004766" width="155.7821743625504" height="12.541254125412543" fill="#ffc000"></rect><rect x="150" y="105.87275394206085" width="18.979980313805616" height="12.541254125412543" fill="#5b9bd5"></rect><text class="label" x="376.1766504153444" y="61.56747341400805" font-size="10px">11.47x</text><text class="label" x="376.84512019915564" y="74.76879354602124" font-size="10px">11.5x</text><text class="label" x="178.38312147789043" y="87.97011367803445" font-size="10px">1.05x</text><text class="label" x="314.2821743625504" y="101.17143381004766" font-size="10px">8.21x</text><text class="label" x="177.4799803138056" y="114.37275394206085" font-size="10px">1x</text><text class="label" x="372.6766504153444" y="63.06747341400805" font-size="8px"></text><text class="label" x="373.34512019915564" y="76.26879354602124" font-size="8px"></text><text class="label" x="174.88312147789043" y="89.47011367803445" font-size="8px"></text><text class="label" x="310.7821743625504" y="102.67143381004766" font-size="8px"></text><text class="label" x="173.9799803138056" y="115.87275394206085" font-size="8px"></text></g><g style="font-size: 13px;"><rect x="150" y="127.14154748808213" width="239.78314201582302" height="12.541254125412543" fill="#4472c4"></rect><rect x="150" y="140.34286762009532" width="231.17552298249413" height="12.541254125412543" fill="#ed7d31"></rect><rect x="150" y="153.54418775210854" width="19.569774979931015" height="12.541254125412543" fill="#a5a5a5"></rect><rect x="150" y="166.74550788412174" width="219.84346163357915" height="12.541254125412543" fill="#ffc000"></rect><rect x="150" y="179.94682801613493" width="18.979980313805616" height="12.541254125412543" fill="#5b9bd5"></rect><text class="label" x="398.28314201582305" y="135.64154748808213" font-size="10px">12.63x</text><text class="label" x="389.67552298249416" y="148.84286762009532" font-size="10px">12.18x</text><text class="label" x="178.06977497993103" y="162.04418775210854" font-size="10px">1.03x</text><text class="label" x="378.3434616335792" y="175.24550788412174" font-size="10px">11.58x</text><text class="label" x="177.4799803138056" y="188.44682801613493" font-size="10px">1x</text><text class="label" x="394.78314201582305" y="137.14154748808213" font-size="8px"></text><text class="label" x="386.17552298249416" y="150.34286762009532" font-size="8px"></text><text class="label" x="174.56977497993103" y="163.54418775210854" font-size="8px"></text><text class="label" x="374.8434616335792" y="176.74550788412174" font-size="8px"></text><text class="label" x="173.9799803138056" y="189.94682801613493" font-size="8px"></text></g><g style="font-size: 13px;"><rect x="150" y="201.2156215621562" width="291.2201283934735" height="12.541254125412543" fill="#4472c4"></rect><rect x="150" y="214.4169416941694" width="275.8490967756346" height="12.541254125412543" fill="#ed7d31"></rect><rect x="150" y="227.61826182618262" width="20.85703247337897" height="12.541254125412543" fill="#a5a5a5"></rect><rect x="150" y="240.8195819581958" width="266.1253878547741" height="12.541254125412543" fill="#ffc000"></rect><rect x="150" y="254.020902090209" width="18.979980313805616" height="12.541254125412543" fill="#5b9bd5"></rect><text class="label" x="449.7201283934735" y="209.7156215621562" font-size="10px">15.34x</text><text class="label" x="434.3490967756346" y="222.9169416941694" font-size="10px">14.53x</text><text class="label" x="179.35703247337898" y="236.11826182618262" font-size="10px">1.1x</text><text class="label" x="424.6253878547741" y="249.3195819581958" font-size="10px">14.02x</text><text class="label" x="177.4799803138056" y="262.520902090209" font-size="10px">1x</text><text class="label" x="446.2201283934735" y="211.2156215621562" font-size="8px"></text><text class="label" x="430.8490967756346" y="224.4169416941694" font-size="8px"></text><text class="label" x="175.85703247337898" y="237.61826182618262" font-size="8px"></text><text class="label" x="421.1253878547741" y="250.8195819581958" font-size="8px"></text><text class="label" x="173.9799803138056" y="264.020902090209" font-size="8px"></text></g><g style="font-size: 13px;"><rect x="150" y="275.28969563623025" width="440.9090909090909" height="12.541254125412543" fill="#4472c4"></rect><rect x="150" y="288.49101576824347" width="285.20668295168014" height="12.541254125412543" fill="#ed7d31"></rect><rect x="150" y="301.6923359002567" width="18.979980313805616" height="12.541254125412543" fill="#a5a5a5"></rect><rect x="150" y="314.89365603226986" width="409.67177639364655" height="12.541254125412543" fill="#ffc000"></rect><rect x="150" y="328.0949761642831" width="19.03816156112798" height="12.541254125412543" fill="#5b9bd5"></rect><text class="label" x="599.4090909090909" y="283.78969563623025" font-size="10px">23.23x</text><text class="label" x="443.70668295168014" y="296.99101576824347" font-size="10px">15.03x</text><text class="label" x="177.4799803138056" y="310.1923359002567" font-size="10px">1x</text><text class="label" x="568.1717763936465" y="323.39365603226986" font-size="10px">21.58x</text><text class="label" x="177.538161561128" y="336.5949761642831" font-size="10px">1x</text><text class="label" x="595.9090909090909" y="285.28969563623025" font-size="8px"></text><text class="label" x="440.20668295168014" y="298.49101576824347" font-size="8px"></text><text class="label" x="173.9799803138056" y="311.6923359002567" font-size="8px"></text><text class="label" x="564.6717763936465" y="324.89365603226986" font-size="8px"></text><text class="label" x="174.038161561128" y="338.0949761642831" font-size="8px"></text></g><g style="font-size: 13px;"><rect x="150" y="349.3637697103044" width="262.97755017399" height="12.541254125412543" fill="#4472c4"></rect><rect x="150" y="362.56508984231755" width="255.74747216689144" height="12.541254125412543" fill="#ed7d31"></rect><rect x="150" y="375.76640997433077" width="19.69008004156287" height="12.541254125412543" fill="#a5a5a5"></rect><rect x="150" y="388.967730106344" width="253.11911926655753" height="12.541254125412543" fill="#ffc000"></rect><rect x="150" y="402.16905023835716" width="18.979980313805616" height="12.541254125412543" fill="#5b9bd5"></rect><text class="label" x="421.47755017399" y="357.8637697103044" font-size="10px">13.86x</text><text class="label" x="414.24747216689144" y="371.06508984231755" font-size="10px">13.47x</text><text class="label" x="178.19008004156288" y="384.26640997433077" font-size="10px">1.04x</text><text class="label" x="411.6191192665575" y="397.467730106344" font-size="10px">13.34x</text><text class="label" x="177.4799803138056" y="410.66905023835716" font-size="10px">1x</text><text class="label" x="417.97755017399" y="359.3637697103044" font-size="8px"></text><text class="label" x="410.74747216689144" y="372.56508984231755" font-size="8px"></text><text class="label" x="174.69008004156288" y="385.76640997433077" font-size="8px"></text><text class="label" x="408.1191192665575" y="398.967730106344" font-size="8px"></text><text class="label" x="173.9799803138056" y="412.16905023835716" font-size="8px"></text></g><g style="font-size: 13px;"><rect x="150" y="423.4378437843784" width="251.47074132911644" height="12.541254125412543" fill="#4472c4"></rect><rect x="150" y="436.6391639163916" width="354.36473053445366" height="12.541254125412543" fill="#ed7d31"></rect><rect x="150" y="449.84048404840485" width="20.15537611785333" height="12.541254125412543" fill="#a5a5a5"></rect><rect x="150" y="463.041804180418" width="257.18040797386203" height="12.541254125412543" fill="#ffc000"></rect><rect x="150" y="476.24312431243123" width="18.979980313805616" height="12.541254125412543" fill="#5b9bd5"></rect><text class="label" x="409.97074132911644" y="431.9378437843784" font-size="10px">13.25x</text><text class="label" x="512.8647305344537" y="445.1391639163916" font-size="10px">18.67x</text><text class="label" x="178.65537611785334" y="458.34048404840485" font-size="10px">1.06x</text><text class="label" x="415.68040797386203" y="471.541804180418" font-size="10px">13.55x</text><text class="label" x="177.4799803138056" y="484.74312431243123" font-size="10px">1x</text><text class="label" x="406.47074132911644" y="433.4378437843784" font-size="8px"></text><text class="label" x="509.36473053445366" y="446.6391639163916" font-size="8px"></text><text class="label" x="175.15537611785334" y="459.84048404840485" font-size="8px"></text><text class="label" x="412.18040797386203" y="473.041804180418" font-size="8px"></text><text class="label" x="173.9799803138056" y="486.24312431243123" font-size="8px"></text></g><g style="font-size: 13px;"><rect x="150" y="497.51191785845253" width="302.2251395434204" height="12.541254125412543" fill="#4472c4"></rect><rect x="150" y="510.7132379904657" width="291.2322137580076" height="12.541254125412543" fill="#ed7d31"></rect><rect x="150" y="523.9145581224789" width="19.27255367502565" height="12.541254125412543" fill="#a5a5a5"></rect><rect x="150" y="537.1158782544921" width="322.39431310016954" height="12.541254125412543" fill="#ffc000"></rect><rect x="150" y="550.3171983865053" width="18.979980313805616" height="12.541254125412543" fill="#5b9bd5"></rect><text class="label" x="460.7251395434204" y="506.01191785845253" font-size="10px">15.92x</text><text class="label" x="449.7322137580076" y="519.2132379904657" font-size="10px">15.34x</text><text class="label" x="177.77255367502565" y="532.4145581224789" font-size="10px">1.02x</text><text class="label" x="480.89431310016954" y="545.6158782544921" font-size="10px">16.99x</text><text class="label" x="177.4799803138056" y="558.8171983865053" font-size="10px">1x</text><text class="label" x="457.2251395434204" y="507.51191785845253" font-size="8px"></text><text class="label" x="446.2322137580076" y="520.7132379904657" font-size="8px"></text><text class="label" x="174.27255367502565" y="533.9145581224789" font-size="8px"></text><text class="label" x="477.39431310016954" y="547.1158782544921" font-size="8px"></text><text class="label" x="173.9799803138056" y="560.3171983865053" font-size="8px"></text></g><g style="font-size: 13px;"><rect x="150" y="571.5859919325266" width="355.9505777105726" height="12.541254125412543" fill="#4472c4"></rect><rect x="150" y="584.7873120645397" width="235.01429868280442" height="12.541254125412543" fill="#ed7d31"></rect><rect x="150" y="597.9886321965529" width="19.09886239767153" height="12.541254125412543" fill="#a5a5a5"></rect><rect x="150" y="611.1899523285662" width="371.91347538523473" height="12.541254125412543" fill="#ffc000"></rect><rect x="150" y="624.3912724605793" width="18.979980313805616" height="12.541254125412543" fill="#5b9bd5"></rect><text class="label" x="514.4505777105726" y="580.0859919325266" font-size="10px">18.75x</text><text class="label" x="393.51429868280445" y="593.2873120645397" font-size="10px">12.38x</text><text class="label" x="177.59886239767152" y="606.4886321965529" font-size="10px">1.01x</text><text class="label" x="530.4134753852347" y="619.6899523285662" font-size="10px">19.6x</text><text class="label" x="177.4799803138056" y="632.8912724605793" font-size="10px">1x</text><text class="label" x="510.9505777105726" y="581.5859919325266" font-size="8px"></text><text class="label" x="390.01429868280445" y="594.7873120645397" font-size="8px"></text><text class="label" x="174.09886239767152" y="607.9886321965529" font-size="8px"></text><text class="label" x="526.9134753852347" y="621.1899523285662" font-size="8px"></text><text class="label" x="173.9799803138056" y="634.3912724605793" font-size="8px"></text></g></g></svg>