<svg xmlns="http://www.w3.org/2000/svg" xmlns:xlink="http://www.w3.org/1999/xlink" width="800" height="674" style="background-color: white;"><g class="y axis" transform="translate(149,45)" fill="none" font-size="10" font-family="sans-serif" text-anchor="end" style="font-size: 13px;"><path class="domain" stroke="currentColor" d="M0.5,0.5V480.5"></path><g class="tick" opacity="1" transform="translate(0,32.592592592592595)" style="font-size: 13px;"><line stroke="currentColor" x2="0"></line><text fill="currentColor" x="-3" dy="0.32em">object (simple)    </text></g><g class="tick" opacity="1" transform="translate(0,91.85185185185186)" style="font-size: 13px;"><line stroke="currentColor" x2="0"></line><text fill="currentColor" x="-3" dy="0.32em">object (hierarchical)    </text></g><g class="tick" opacity="1" transform="translate(0,151.11111111111111)" style="font-size: 13px;"><line stroke="currentColor" x2="0"></line><text fill="currentColor" x="-3" dy="0.32em">object (recursive)    </text></g><g class="tick" opacity="1" transform="translate(0,210.37037037037035)" style="font-size: 13px;"><line stroke="currentColor" x2="0"></line><text fill="currentColor" x="-3" dy="0.32em">object (union, explicit)    </text></g><g class="tick" opacity="1" transform="translate(0,269.6296296296296)" style="font-size: 13px;"><line stroke="currentColor" x2="0"></line><text fill="currentColor" x="-3" dy="0.32em">array (simple)    </text></g><g class="tick" opacity="1" transform="translate(0,328.8888888888889)" style="font-size: 13px;"><line stroke="currentColor" x2="0"></line><text fill="currentColor" x="-3" dy="0.32em">array (hierarchical)    </text></g><g class="tick" opacity="1" transform="translate(0,388.14814814814815)" style="font-size: 13px;"><line stroke="currentColor" x2="0"></line><text fill="currentColor" x="-3" dy="0.32em">array (recursive)    </text></g><g class="tick" opacity="1" transform="translate(0,447.40740740740745)" style="font-size: 13px;"><line stroke="currentColor" x2="0"></line><text fill="currentColor" x="-3" dy="0.32em">array (union, explicit)    </text></g></g><g class="x axis" transform="translate(149,525)" fill="none" font-size="10" font-family="sans-serif" text-anchor="middle" style="font-size: 13px;"><path class="domain" stroke="currentColor" d="M0.5,0.5H485.5"></path><g class="tick" opacity="1" transform="translate(0.5,0)" style="font-size: 13px;"><line stroke="currentColor" y2="6"></line><text fill="currentColor" y="9" dy="0.71em">0x</text></g><g class="tick" opacity="1" transform="translate(73.97543562512483,0)" style="font-size: 13px;"><line stroke="currentColor" y2="6"></line><text fill="currentColor" y="9" dy="0.71em">1,000,000x</text></g><g class="tick" opacity="1" transform="translate(147.45087125024966,0)" style="font-size: 13px;"><line stroke="currentColor" y2="6"></line><text fill="currentColor" y="9" dy="0.71em">2,000,000x</text></g><g class="tick" opacity="1" transform="translate(220.9263068753745,0)" style="font-size: 13px;"><line stroke="currentColor" y2="6"></line><text fill="currentColor" y="9" dy="0.71em">3,000,000x</text></g><g class="tick" opacity="1" transform="translate(294.4017425004993,0)" style="font-size: 13px;"><line stroke="currentColor" y2="6"></line><text fill="currentColor" y="9" dy="0.71em">4,000,000x</text></g><g class="tick" opacity="1" transform="translate(367.8771781256242,0)" style="font-size: 13px;"><line stroke="currentColor" y2="6"></line><text fill="currentColor" y="9" dy="0.71em">5,000,000x</text></g><g class="tick" opacity="1" transform="translate(441.352613750749,0)" style="font-size: 13px;"><line stroke="currentColor" y2="6"></line><text fill="currentColor" y="9" dy="0.71em">6,000,000x</text></g></g><text transform="translate(400, 30)" style="text-anchor: middle; font-size: 20px; font-weight: bold;">optimizer benchmark</text><rect x="650" y="125" width="230" height="5" fill="gray"></rect><rect x="645" y="35" width="230" height="90" fill="none" stroke="black"></rect><rect x="655" y="45" width="10" height="10" style="fill: #4472c4;"></rect><text x="670" y="55" style="font-size: 12px;">typia</text><rect x="655" y="65" width="10" height="10" style="fill: #ed7d31;"></rect><text x="670" y="75" style="font-size: 12px;">typebox</text><rect x="655" y="85" width="10" height="10" style="fill: #a5a5a5;"></rect><text x="670" y="95" style="font-size: 12px;">ajv</text><rect x="655" y="105" width="10" height="10" style="fill: #ffc000;"></rect><text x="670" y="115" style="font-size: 12px;">class-validator</text><text x="20" y="589" style="font-size: 12px;">  - CPU: AMD Ryzen 7 6800HS with Radeon Graphics</text><text x="20" y="606" style="font-size: 12px;">  - OS: win32</text><text x="20" y="623" style="font-size: 12px;">  - RAM: 63 GB</text><text x="20" y="640" style="font-size: 12px;">  - NodeJS version: v16.20.1</text><text x="20" y="657" style="font-size: 12px;">  - Typia version: v4.1.8</text><g style="font-size: 13px;"><g style="font-size: 13px;"><rect x="150" y="51.584362139917694" width="440.9090909090908" height="12.510288065843621" fill="#4472c4"></rect><rect x="150" y="64.75308641975309" width="0.02033915049931154" height="12.510288065843621" fill="#ed7d31"></rect><rect x="150" y="77.92181069958848" width="0.00007347543562512484" height="12.510288065843621" fill="#a5a5a5"></rect><rect x="150" y="91.09053497942386" width="0.022120764058540708" height="12.510288065843621" fill="#ffc000"></rect><text class="label" x="599.4090909090908" y="60.084362139917694" font-size="10px">6,000,769x</text><text class="label" x="158.52033915049932" y="73.25308641975309" font-size="10px">277x</text><text class="label" x="158.5000734754356" y="86.42181069958848" font-size="10px">1x</text><text class="label" x="158.52212076405854" y="99.59053497942386" font-size="10px">301x</text><text class="label" x="595.9090909090908" y="61.584362139917694" font-size="8px"></text><text class="label" x="155.02033915049932" y="74.75308641975309" font-size="8px"></text><text class="label" x="155.0000734754356" y="87.92181069958848" font-size="8px"></text><text class="label" x="155.02212076405854" y="101.09053497942386" font-size="8px"></text></g><g style="font-size: 13px;"><rect x="150" y="110.84362139917695" width="20.6616125231795" height="12.510288065843621" fill="#4472c4"></rect><rect x="150" y="124.01234567901236" width="0.008477625080292954" height="12.510288065843621" fill="#ed7d31"></rect><rect x="150" y="137.18106995884773" width="0.00007347543562512484" height="12.510288065843621" fill="#a5a5a5"></rect><rect x="150" y="150.34979423868313" width="0.00888163247278851" height="12.510288065843621" fill="#ffc000"></rect><text class="label" x="179.16161252317949" y="119.34362139917695" font-size="10px">281,204x</text><text class="label" x="158.5084776250803" y="132.51234567901236" font-size="10px">115x</text><text class="label" x="158.5000734754356" y="145.68106995884773" font-size="10px">1x</text><text class="label" x="158.5088816324728" y="158.84979423868313" font-size="10px">121x</text><text class="label" x="175.66161252317949" y="120.84362139917695" font-size="8px"></text><text class="label" x="155.0084776250803" y="134.01234567901236" font-size="8px"></text><text class="label" x="155.0000734754356" y="147.18106995884773" font-size="8px"></text><text class="label" x="155.0088816324728" y="160.34979423868313" font-size="8px"></text></g><g style="font-size: 13px;"><rect x="150" y="170.10288065843622" width="5.544197174004967" height="12.510288065843621" fill="#4472c4"></rect><rect x="150" y="183.2716049382716" width="0.01654451553098623" height="12.510288065843621" fill="#ed7d31"></rect><rect x="150" y="196.440329218107" width="0.00007347543562512484" height="12.510288065843621" fill="#a5a5a5"></rect><rect x="150" y="209.6090534979424" width="0.0036236176074191896" height="12.510288065843621" fill="#ffc000"></rect><text class="label" x="164.04419717400498" y="178.60288065843622" font-size="10px">75,456x</text><text class="label" x="158.516544515531" y="191.7716049382716" font-size="10px">225x</text><text class="label" x="158.5000734754356" y="204.940329218107" font-size="10px">1x</text><text class="label" x="158.50362361760742" y="218.1090534979424" font-size="10px">49x</text><text class="label" x="160.54419717400498" y="180.10288065843622" font-size="8px"></text><text class="label" x="155.016544515531" y="193.2716049382716" font-size="8px"></text><text class="label" x="155.0000734754356" y="206.440329218107" font-size="8px"></text><text class="label" x="155.00362361760742" y="219.6090534979424" font-size="8px"></text></g><g style="font-size: 13px;"><rect x="150" y="229.36213991769546" width="1.8232754050092923" height="12.510288065843621" fill="#4472c4"></rect><rect x="150" y="242.53086419753086" width="0.009718030061332443" height="12.510288065843621" fill="#ed7d31"></rect><rect x="150" y="255.69958847736626" width="0.00007347543562512484" height="12.510288065843621" fill="#a5a5a5"></rect><rect x="150" y="268.86831275720164" width="0.006455542628004207" height="12.510288065843621" fill="#ffc000"></rect><text class="label" x="160.3232754050093" y="237.86213991769546" font-size="10px">24,815x</text><text class="label" x="158.50971803006132" y="251.03086419753086" font-size="10px">132x</text><text class="label" x="158.5000734754356" y="264.19958847736626" font-size="10px">1x</text><text class="label" x="158.506455542628" y="277.36831275720164" font-size="10px">88x</text><text class="label" x="156.8232754050093" y="239.36213991769546" font-size="8px"></text><text class="label" x="155.00971803006132" y="252.53086419753086" font-size="8px"></text><text class="label" x="155.0000734754356" y="265.69958847736626" font-size="8px"></text><text class="label" x="155.006455542628" y="278.86831275720164" font-size="8px"></text></g><g style="font-size: 13px;"><rect x="150" y="288.6213991769547" width="3.2241062764785307" height="12.510288065843621" fill="#4472c4"></rect><rect x="150" y="301.7901234567901" width="0.039066518009854403" height="12.510288065843621" fill="#ed7d31"></rect><rect x="150" y="314.9588477366255" width="0.00007347543562512484" height="12.510288065843621" fill="#a5a5a5"></rect><rect x="150" y="328.12757201646093" width="0.005940590041656418" height="12.510288065843621" fill="#ffc000"></rect><text class="label" x="161.72410627647852" y="297.1213991769547" font-size="10px">43,880x</text><text class="label" x="158.53906651800986" y="310.2901234567901" font-size="10px">532x</text><text class="label" x="158.5000734754356" y="323.4588477366255" font-size="10px">1x</text><text class="label" x="158.50594059004166" y="336.62757201646093" font-size="10px">81x</text><text class="label" x="158.22410627647852" y="298.6213991769547" font-size="8px"></text><text class="label" x="155.03906651800986" y="311.7901234567901" font-size="8px"></text><text class="label" x="155.0000734754356" y="324.9588477366255" font-size="8px"></text><text class="label" x="155.00594059004166" y="338.12757201646093" font-size="8px"></text></g><g style="font-size: 13px;"><rect x="150" y="347.880658436214" width="0.36484062250167365" height="12.510288065843621" fill="#4472c4"></rect><rect x="150" y="361.04938271604937" width="0.017317632242591564" height="12.510288065843621" fill="#ed7d31"></rect><rect x="150" y="374.2181069958848" width="0.00007347543562512484" height="12.510288065843621" fill="#a5a5a5"></rect><rect x="150" y="387.38683127572017" width="0.0002744161316024432" height="12.510288065843621" fill="#ffc000"></rect><text class="label" x="158.86484062250167" y="356.380658436214" font-size="10px">4,965x</text><text class="label" x="158.5173176322426" y="369.54938271604937" font-size="10px">236x</text><text class="label" x="158.5000734754356" y="382.7181069958848" font-size="10px">1x</text><text class="label" x="158.5002744161316" y="395.88683127572017" font-size="10px">4x</text><text class="label" x="155.36484062250167" y="357.880658436214" font-size="8px"></text><text class="label" x="155.0173176322426" y="371.04938271604937" font-size="8px"></text><text class="label" x="155.0000734754356" y="384.2181069958848" font-size="8px"></text><text class="label" x="155.0002744161316" y="397.38683127572017" font-size="8px"></text></g><g style="font-size: 13px;"><rect x="150" y="407.13991769547323" width="0.41579261975051485" height="12.510288065843621" fill="#4472c4"></rect><rect x="150" y="420.3086419753086" width="0.019251485203891507" height="12.510288065843621" fill="#ed7d31"></rect><rect x="150" y="433.47736625514403" width="0.00007347543562512484" height="12.510288065843621" fill="#a5a5a5"></rect><rect x="150" y="446.6460905349794" width="0.00033458908985437464" height="12.510288065843621" fill="#ffc000"></rect><text class="label" x="158.9157926197505" y="415.63991769547323" font-size="10px">5,659x</text><text class="label" x="158.51925148520388" y="428.8086419753086" font-size="10px">262x</text><text class="label" x="158.5000734754356" y="441.97736625514403" font-size="10px">1x</text><text class="label" x="158.50033458908985" y="455.1460905349794" font-size="10px">5x</text><text class="label" x="155.4157926197505" y="417.13991769547323" font-size="8px"></text><text class="label" x="155.01925148520388" y="430.3086419753086" font-size="8px"></text><text class="label" x="155.0000734754356" y="443.47736625514403" font-size="8px"></text><text class="label" x="155.00033458908985" y="456.6460905349794" font-size="8px"></text></g><g style="font-size: 13px;"><rect x="150" y="466.3991769547325" width="0.5472385363481946" height="12.510288065843621" fill="#4472c4"></rect><rect x="150" y="479.5679012345679" width="0.014828900150300984" height="12.510288065843621" fill="#ed7d31"></rect><rect x="150" y="492.73662551440333" width="0.00007347543562512484" height="12.510288065843621" fill="#a5a5a5"></rect><rect x="150" y="505.9053497942387" width="0.0023910545885939623" height="12.510288065843621" fill="#ffc000"></rect><text class="label" x="159.0472385363482" y="474.8991769547325" font-size="10px">7,448x</text><text class="label" x="158.5148289001503" y="488.0679012345679" font-size="10px">202x</text><text class="label" x="158.5000734754356" y="501.23662551440333" font-size="10px">1x</text><text class="label" x="158.5023910545886" y="514.4053497942386" font-size="10px">33x</text><text class="label" x="155.5472385363482" y="476.3991769547325" font-size="8px"></text><text class="label" x="155.0148289001503" y="489.5679012345679" font-size="8px"></text><text class="label" x="155.0000734754356" y="502.73662551440333" font-size="8px"></text><text class="label" x="155.0023910545886" y="515.9053497942386" font-size="8px"></text></g></g></svg>