<svg xmlns="http://www.w3.org/2000/svg" xmlns:xlink="http://www.w3.org/1999/xlink" width="800" height="914" style="background-color: white;"><g class="y axis" transform="translate(149,45)" fill="none" font-size="10" font-family="sans-serif" text-anchor="end" style="font-size: 13px;"><path class="domain" stroke="currentColor" d="M0.5,0.5V720.5"></path><g class="tick" opacity="1" transform="translate(0,48.88888888888886)" style="font-size: 13px;"><line stroke="currentColor" x2="0"></line><text fill="currentColor" x="-3" dy="0.32em">object (simple)    </text></g><g class="tick" opacity="1" transform="translate(0,137.77777777777774)" style="font-size: 13px;"><line stroke="currentColor" x2="0"></line><text fill="currentColor" x="-3" dy="0.32em">object (hierarchical)    </text></g><g class="tick" opacity="1" transform="translate(0,226.66666666666663)" style="font-size: 13px;"><line stroke="currentColor" x2="0"></line><text fill="currentColor" x="-3" dy="0.32em">object (recursive)    </text></g><g class="tick" opacity="1" transform="translate(0,315.5555555555555)" style="font-size: 13px;"><line stroke="currentColor" x2="0"></line><text fill="currentColor" x="-3" dy="0.32em">object (union, explicit)    </text></g><g class="tick" opacity="1" transform="translate(0,404.4444444444444)" style="font-size: 13px;"><line stroke="currentColor" x2="0"></line><text fill="currentColor" x="-3" dy="0.32em">array (simple)    </text></g><g class="tick" opacity="1" transform="translate(0,493.3333333333333)" style="font-size: 13px;"><line stroke="currentColor" x2="0"></line><text fill="currentColor" x="-3" dy="0.32em">array (hierarchical)    </text></g><g class="tick" opacity="1" transform="translate(0,582.2222222222222)" style="font-size: 13px;"><line stroke="currentColor" x2="0"></line><text fill="currentColor" x="-3" dy="0.32em">array (recursive)    </text></g><g class="tick" opacity="1" transform="translate(0,671.1111111111111)" style="font-size: 13px;"><line stroke="currentColor" x2="0"></line><text fill="currentColor" x="-3" dy="0.32em">array (union, explicit)    </text></g></g><g class="x axis" transform="translate(149,765)" fill="none" font-size="10" font-family="sans-serif" text-anchor="middle" style="font-size: 13px;"><path class="domain" stroke="currentColor" d="M0.5,0.5H485.5"></path><g class="tick" opacity="1" transform="translate(0.5,0)" style="font-size: 13px;"><line stroke="currentColor" y2="6"></line><text fill="currentColor" y="9" dy="0.71em">0x</text></g><g class="tick" opacity="1" transform="translate(97.12560198507,0)" style="font-size: 13px;"><line stroke="currentColor" y2="6"></line><text fill="currentColor" y="9" dy="0.71em">50x</text></g><g class="tick" opacity="1" transform="translate(193.75120397014,0)" style="font-size: 13px;"><line stroke="currentColor" y2="6"></line><text fill="currentColor" y="9" dy="0.71em">100x</text></g><g class="tick" opacity="1" transform="translate(290.37680595521,0)" style="font-size: 13px;"><line stroke="currentColor" y2="6"></line><text fill="currentColor" y="9" dy="0.71em">150x</text></g><g class="tick" opacity="1" transform="translate(387.00240794028,0)" style="font-size: 13px;"><line stroke="currentColor" y2="6"></line><text fill="currentColor" y="9" dy="0.71em">200x</text></g><g class="tick" opacity="1" transform="translate(483.62800992535,0)" style="font-size: 13px;"><line stroke="currentColor" y2="6"></line><text fill="currentColor" y="9" dy="0.71em">250x</text></g></g><text transform="translate(400, 30)" style="text-anchor: middle; font-size: 20px; font-weight: bold;">stringify benchmark</text><rect x="650" y="165" width="230" height="5" fill="gray"></rect><rect x="645" y="35" width="230" height="130" fill="none" stroke="black"></rect><rect x="655" y="45" width="10" height="10" style="fill: #4472c4;"></rect><text x="670" y="55" style="font-size: 12px;">typia.stringify</text><rect x="655" y="65" width="10" height="10" style="fill: #ed7d31;"></rect><text x="670" y="75" style="font-size: 12px;">typia.isStringify</text><rect x="655" y="85" width="10" height="10" style="fill: #a5a5a5;"></rect><text x="670" y="95" style="font-size: 12px;">typia.assertStringify</text><rect x="655" y="105" width="10" height="10" style="fill: #ffc000;"></rect><text x="670" y="115" style="font-size: 12px;">fast-json-stringify</text><rect x="655" y="125" width="10" height="10" style="fill: #5b9bd5;"></rect><text x="670" y="135" style="font-size: 12px;">JSON.stringify</text><rect x="655" y="145" width="10" height="10" style="fill: #70ad47;"></rect><text x="670" y="155" style="font-size: 12px;">class-transformer</text><text x="20" y="829" style="font-size: 12px;">  - CPU: AMD Ryzen 7 6800HS with Radeon Graphics</text><text x="20" y="846" style="font-size: 12px;">  - OS: win32</text><text x="20" y="863" style="font-size: 12px;">  - RAM: 63 GB</text><text x="20" y="880" style="font-size: 12px;">  - NodeJS version: v16.20.1</text><text x="20" y="897" style="font-size: 12px;">  - Typia version: v4.1.8</text><g style="font-size: 13px;"><g style="font-size: 13px;"><rect x="150" y="54.55004591368224" width="440.9090909090908" height="12.56198347107438" fill="#4472c4"></rect><rect x="150" y="67.77318640955001" width="354.85995804324915" height="12.56198347107438" fill="#ed7d31"></rect><rect x="150" y="80.99632690541777" width="368.12329686507684" height="12.56198347107438" fill="#a5a5a5"></rect><rect x="150" y="94.21946740128556" width="159.32376174153143" height="12.56198347107438" fill="#ffc000"></rect><rect x="150" y="107.44260789715332" width="26.761865170552497" height="12.56198347107438" fill="#5b9bd5"></rect><rect x="150" y="120.66574839302109" width="1.9325120397014" height="12.56198347107438" fill="#70ad47"></rect><text class="label" x="599.4090909090908" y="63.05004591368224" font-size="10px">228x</text><text class="label" x="513.3599580432492" y="76.27318640955001" font-size="10px">184x</text><text class="label" x="526.6232968650768" y="89.49632690541777" font-size="10px">190x</text><text class="label" x="317.8237617415314" y="102.71946740128556" font-size="10px">82x</text><text class="label" x="185.26186517055248" y="115.94260789715332" font-size="10px">14x</text><text class="label" x="160.4325120397014" y="129.1657483930211" font-size="10px">1x</text><text class="label" x="595.9090909090908" y="64.55004591368224" font-size="8px"></text><text class="label" x="509.85995804324915" y="77.77318640955001" font-size="8px"></text><text class="label" x="523.1232968650768" y="90.99632690541777" font-size="8px"></text><text class="label" x="314.3237617415314" y="104.21946740128556" font-size="8px"></text><text class="label" x="181.76186517055248" y="117.44260789715332" font-size="8px"></text><text class="label" x="156.9325120397014" y="130.6657483930211" font-size="8px"></text></g><g style="font-size: 13px;"><rect x="150" y="143.4389348025711" width="85.94896358906215" height="12.56198347107438" fill="#4472c4"></rect><rect x="150" y="156.66207529843888" width="82.13340537729867" height="12.56198347107438" fill="#ed7d31"></rect><rect x="150" y="169.88521579430665" width="82.21229918145191" height="12.56198347107438" fill="#a5a5a5"></rect><rect x="150" y="183.10835629017444" width="61.97917964509508" height="12.56198347107438" fill="#ffc000"></rect><rect x="150" y="196.3314967860422" width="22.23527164046575" height="12.56198347107438" fill="#5b9bd5"></rect><rect x="150" y="209.55463728190998" width="1.9325120397014" height="12.56198347107438" fill="#70ad47"></rect><text class="label" x="244.44896358906215" y="151.9389348025711" font-size="10px">44x</text><text class="label" x="240.6334053772987" y="165.16207529843888" font-size="10px">43x</text><text class="label" x="240.7122991814519" y="178.38521579430665" font-size="10px">43x</text><text class="label" x="220.4791796450951" y="191.60835629017444" font-size="10px">32x</text><text class="label" x="180.73527164046575" y="204.8314967860422" font-size="10px">12x</text><text class="label" x="160.4325120397014" y="218.05463728190998" font-size="10px">1x</text><text class="label" x="240.94896358906215" y="153.4389348025711" font-size="8px"></text><text class="label" x="237.1334053772987" y="166.66207529843888" font-size="8px"></text><text class="label" x="237.2122991814519" y="179.88521579430665" font-size="8px"></text><text class="label" x="216.9791796450951" y="193.10835629017444" font-size="8px"></text><text class="label" x="177.23527164046575" y="206.3314967860422" font-size="8px"></text><text class="label" x="156.9325120397014" y="219.55463728190998" font-size="8px"></text></g><g style="font-size: 13px;"><rect x="150" y="232.32782369146003" width="131.7377271152271" height="12.56198347107438" fill="#4472c4"></rect><rect x="150" y="245.5509641873278" width="125.60007708038651" height="12.56198347107438" fill="#ed7d31"></rect><rect x="150" y="258.77410468319556" width="124.61830808578839" height="12.56198347107438" fill="#a5a5a5"></rect><rect x="150" y="271.9972451790633" width="32.99522721467259" height="12.56198347107438" fill="#ffc000"></rect><rect x="150" y="285.2203856749311" width="26.423591751826322" height="12.56198347107438" fill="#5b9bd5"></rect><rect x="150" y="298.44352617079886" width="1.9325120397014" height="12.56198347107438" fill="#70ad47"></rect><text class="label" x="290.23772711522713" y="240.82782369146003" font-size="10px">68x</text><text class="label" x="284.10007708038654" y="254.0509641873278" font-size="10px">65x</text><text class="label" x="283.1183080857884" y="267.27410468319556" font-size="10px">64x</text><text class="label" x="191.49522721467258" y="280.4972451790633" font-size="10px">17x</text><text class="label" x="184.92359175182634" y="293.7203856749311" font-size="10px">14x</text><text class="label" x="160.4325120397014" y="306.94352617079886" font-size="10px">1x</text><text class="label" x="286.73772711522713" y="242.32782369146003" font-size="8px"></text><text class="label" x="280.60007708038654" y="255.5509641873278" font-size="8px"></text><text class="label" x="279.6183080857884" y="268.77410468319556" font-size="8px"></text><text class="label" x="187.99522721467258" y="281.9972451790633" font-size="8px"></text><text class="label" x="181.42359175182634" y="295.2203856749311" font-size="8px"></text><text class="label" x="156.9325120397014" y="308.44352617079886" font-size="8px"></text></g><g style="font-size: 13px;"><rect x="150" y="321.2167125803489" width="99.01228948891375" height="12.56198347107438" fill="#4472c4"></rect><rect x="150" y="334.43985307621665" width="90.0784717372667" height="12.56198347107438" fill="#ed7d31"></rect><rect x="150" y="347.6629935720844" width="87.55873335589177" height="12.56198347107438" fill="#a5a5a5"></rect><rect x="150" y="360.8861340679522" width="68.03928780907914" height="12.56198347107438" fill="#ffc000"></rect><rect x="150" y="374.10927456381995" width="38.60512435327196" height="12.56198347107438" fill="#5b9bd5"></rect><rect x="150" y="387.3324150596877" width="1.9325120397014" height="12.56198347107438" fill="#70ad47"></rect><text class="label" x="257.5122894889138" y="329.7167125803489" font-size="10px">51x</text><text class="label" x="248.57847173726668" y="342.93985307621665" font-size="10px">47x</text><text class="label" x="246.05873335589177" y="356.1629935720844" font-size="10px">45x</text><text class="label" x="226.53928780907916" y="369.3861340679522" font-size="10px">35x</text><text class="label" x="197.10512435327195" y="382.60927456381995" font-size="10px">20x</text><text class="label" x="160.4325120397014" y="395.8324150596877" font-size="10px">1x</text><text class="label" x="254.01228948891375" y="331.2167125803489" font-size="8px"></text><text class="label" x="245.07847173726668" y="344.43985307621665" font-size="8px"></text><text class="label" x="242.55873335589177" y="357.6629935720844" font-size="8px"></text><text class="label" x="223.03928780907916" y="370.8861340679522" font-size="8px"></text><text class="label" x="193.60512435327195" y="384.10927456381995" font-size="8px"></text><text class="label" x="156.9325120397014" y="397.3324150596877" font-size="8px"></text></g><g style="font-size: 13px;"><rect x="150" y="410.1056014692378" width="45.82918648855593" height="12.56198347107438" fill="#4472c4"></rect><rect x="150" y="423.32874196510556" width="43.905763294776726" height="12.56198347107438" fill="#ed7d31"></rect><rect x="150" y="436.55188246097333" width="43.90823709987378" height="12.56198347107438" fill="#a5a5a5"></rect><rect x="150" y="449.7750229568411" width="67.59382873706409" height="12.56198347107438" fill="#ffc000"></rect><rect x="150" y="462.99816345270887" width="29.456363324274886" height="12.56198347107438" fill="#5b9bd5"></rect><rect x="150" y="476.22130394857663" width="1.9325120397014" height="12.56198347107438" fill="#70ad47"></rect><text class="label" x="204.32918648855593" y="418.6056014692378" font-size="10px">24x</text><text class="label" x="202.40576329477673" y="431.82874196510556" font-size="10px">23x</text><text class="label" x="202.4082370998738" y="445.05188246097333" font-size="10px">23x</text><text class="label" x="226.0938287370641" y="458.2750229568411" font-size="10px">35x</text><text class="label" x="187.9563633242749" y="471.49816345270887" font-size="10px">15x</text><text class="label" x="160.4325120397014" y="484.72130394857663" font-size="10px">1x</text><text class="label" x="200.82918648855593" y="420.1056014692378" font-size="8px"></text><text class="label" x="198.90576329477673" y="433.32874196510556" font-size="8px"></text><text class="label" x="198.9082370998738" y="446.55188246097333" font-size="8px"></text><text class="label" x="222.5938287370641" y="459.7750229568411" font-size="8px"></text><text class="label" x="184.4563633242749" y="472.99816345270887" font-size="8px"></text><text class="label" x="156.9325120397014" y="486.22130394857663" font-size="8px"></text></g><g style="font-size: 13px;"><rect x="150" y="498.9944903581267" width="76.57038099820397" height="12.56198347107438" fill="#4472c4"></rect><rect x="150" y="512.2176308539945" width="74.82196826866397" height="12.56198347107438" fill="#ed7d31"></rect><rect x="150" y="525.4407713498622" width="74.75504602840272" height="12.56198347107438" fill="#a5a5a5"></rect><rect x="150" y="538.66391184573" width="110.99273420940742" height="12.56198347107438" fill="#ffc000"></rect><rect x="150" y="551.8870523415978" width="32.29486309941179" height="12.56198347107438" fill="#5b9bd5"></rect><rect x="150" y="565.1101928374655" width="1.9325120397014" height="12.56198347107438" fill="#70ad47"></rect><text class="label" x="235.07038099820397" y="507.4944903581267" font-size="10px">40x</text><text class="label" x="233.32196826866397" y="520.7176308539945" font-size="10px">39x</text><text class="label" x="233.25504602840272" y="533.9407713498622" font-size="10px">39x</text><text class="label" x="269.49273420940744" y="547.16391184573" font-size="10px">57x</text><text class="label" x="190.7948630994118" y="560.3870523415978" font-size="10px">17x</text><text class="label" x="160.4325120397014" y="573.6101928374655" font-size="10px">1x</text><text class="label" x="231.57038099820397" y="508.9944903581267" font-size="8px"></text><text class="label" x="229.82196826866397" y="522.2176308539945" font-size="8px"></text><text class="label" x="229.75504602840272" y="535.4407713498622" font-size="8px"></text><text class="label" x="265.99273420940744" y="548.66391184573" font-size="8px"></text><text class="label" x="187.2948630994118" y="561.8870523415978" font-size="8px"></text><text class="label" x="156.9325120397014" y="575.1101928374655" font-size="8px"></text></g><g style="font-size: 13px;"><rect x="150" y="587.8833792470156" width="62.48412343988181" height="12.56198347107438" fill="#4472c4"></rect><rect x="150" y="601.1065197428833" width="59.41069654772042" height="12.56198347107438" fill="#ed7d31"></rect><rect x="150" y="614.3296602387511" width="57.51770153355912" height="12.56198347107438" fill="#a5a5a5"></rect><rect x="150" y="627.5528007346188" width="109.63267294996871" height="12.56198347107438" fill="#ffc000"></rect><rect x="150" y="640.7759412304866" width="28.87387359957131" height="12.56198347107438" fill="#5b9bd5"></rect><rect x="150" y="653.9990817263545" width="1.9325120397014" height="12.56198347107438" fill="#70ad47"></rect><text class="label" x="220.9841234398818" y="596.3833792470156" font-size="10px">32x</text><text class="label" x="217.91069654772042" y="609.6065197428833" font-size="10px">31x</text><text class="label" x="216.01770153355912" y="622.8296602387511" font-size="10px">30x</text><text class="label" x="268.1326729499687" y="636.0528007346188" font-size="10px">57x</text><text class="label" x="187.3738735995713" y="649.2759412304866" font-size="10px">15x</text><text class="label" x="160.4325120397014" y="662.4990817263545" font-size="10px">1x</text><text class="label" x="217.4841234398818" y="597.8833792470156" font-size="8px"></text><text class="label" x="214.41069654772042" y="611.1065197428833" font-size="8px"></text><text class="label" x="212.51770153355912" y="624.3296602387511" font-size="8px"></text><text class="label" x="264.6326729499687" y="637.5528007346188" font-size="8px"></text><text class="label" x="183.8738735995713" y="650.7759412304866" font-size="8px"></text><text class="label" x="156.9325120397014" y="663.9990817263545" font-size="8px"></text></g><g style="font-size: 13px;"><rect x="150" y="676.7722681359045" width="61.24853688181877" height="12.56198347107438" fill="#4472c4"></rect><rect x="150" y="689.9954086317722" width="57.62248919180072" height="12.56198347107438" fill="#ed7d31"></rect><rect x="150" y="703.21854912764" width="57.261860967046026" height="12.56198347107438" fill="#a5a5a5"></rect><rect x="150" y="716.4416896235077" width="13.463595238808969" height="12.56198347107438" fill="#ffc000"></rect><rect x="150" y="729.6648301193756" width="42.82352822377169" height="12.56198347107438" fill="#5b9bd5"></rect><rect x="150" y="742.8879706152434" width="1.9325120397014" height="12.56198347107438" fill="#70ad47"></rect><text class="label" x="219.74853688181878" y="685.2722681359045" font-size="10px">32x</text><text class="label" x="216.12248919180072" y="698.4954086317722" font-size="10px">30x</text><text class="label" x="215.76186096704603" y="711.71854912764" font-size="10px">30x</text><text class="label" x="171.96359523880898" y="724.9416896235077" font-size="10px">7x</text><text class="label" x="201.3235282237717" y="738.1648301193756" font-size="10px">22x</text><text class="label" x="160.4325120397014" y="751.3879706152434" font-size="10px">1x</text><text class="label" x="216.24853688181878" y="686.7722681359045" font-size="8px"></text><text class="label" x="212.62248919180072" y="699.9954086317722" font-size="8px"></text><text class="label" x="212.26186096704603" y="713.21854912764" font-size="8px"></text><text class="label" x="168.46359523880898" y="726.4416896235077" font-size="8px"></text><text class="label" x="197.8235282237717" y="739.6648301193756" font-size="8px"></text><text class="label" x="156.9325120397014" y="752.8879706152434" font-size="8px"></text></g></g></svg>