<svg xmlns="http://www.w3.org/2000/svg" xmlns:xlink="http://www.w3.org/1999/xlink" width="800" height="885" style="background-color: white;"><g class="y axis" transform="translate(149,45)" fill="none" font-size="10" font-family="sans-serif" text-anchor="end" style="font-size: 13px;"><path class="domain" stroke="currentColor" d="M0.5,0.5V810.5"></path><g class="tick" opacity="1" transform="translate(0,48.95604395604397)" style="font-size: 13px;"><line stroke="currentColor" x2="0"></line><text fill="currentColor" x="-3" dy="0.32em">object (simple)    </text></g><g class="tick" opacity="1" transform="translate(0,137.967032967033)" style="font-size: 13px;"><line stroke="currentColor" x2="0"></line><text fill="currentColor" x="-3" dy="0.32em">object (hierarchical)    </text></g><g class="tick" opacity="1" transform="translate(0,226.97802197802199)" style="font-size: 13px;"><line stroke="currentColor" x2="0"></line><text fill="currentColor" x="-3" dy="0.32em">object (recursive)    </text></g><g class="tick" opacity="1" transform="translate(0,315.989010989011)" style="font-size: 13px;"><line stroke="currentColor" x2="0"></line><text fill="currentColor" x="-3" dy="0.32em">object (union, explicit)    </text></g><g class="tick" opacity="1" transform="translate(0,405)" style="font-size: 13px;"><line stroke="currentColor" x2="0"></line><text fill="currentColor" x="-3" dy="0.32em">object (union, implicit)    </text></g><g class="tick" opacity="1" transform="translate(0,494.010989010989)" style="font-size: 13px;"><line stroke="currentColor" x2="0"></line><text fill="currentColor" x="-3" dy="0.32em">array (recursive)    </text></g><g class="tick" opacity="1" transform="translate(0,583.021978021978)" style="font-size: 13px;"><line stroke="currentColor" x2="0"></line><text fill="currentColor" x="-3" dy="0.32em">array (union, explicit)    </text></g><g class="tick" opacity="1" transform="translate(0,672.0329670329671)" style="font-size: 13px;"><line stroke="currentColor" x2="0"></line><text fill="currentColor" x="-3" dy="0.32em">array (union, implicit)    </text></g><g class="tick" opacity="1" transform="translate(0,761.043956043956)" style="font-size: 13px;"><line stroke="currentColor" x2="0"></line><text fill="currentColor" x="-3" dy="0.32em">ultimate union    </text></g></g><g class="x axis" transform="translate(149,855)" fill="none" font-size="10" font-family="sans-serif" text-anchor="middle" style="font-size: 13px;"><path class="domain" stroke="currentColor" d="M0.5,0.5H485.5"></path><g class="tick" opacity="1" transform="translate(0.5,0)" style="font-size: 13px;"><line stroke="currentColor" y2="6"></line><text fill="currentColor" y="9" dy="0.71em">0x</text></g><g class="tick" opacity="1" transform="translate(145.39081958379745,0)" style="font-size: 13px;"><line stroke="currentColor" y2="6"></line><text fill="currentColor" y="9" dy="0.71em">5,000x</text></g><g class="tick" opacity="1" transform="translate(290.2816391675949,0)" style="font-size: 13px;"><line stroke="currentColor" y2="6"></line><text fill="currentColor" y="9" dy="0.71em">10,000x</text></g><g class="tick" opacity="1" transform="translate(435.17245875139236,0)" style="font-size: 13px;"><line stroke="currentColor" y2="6"></line><text fill="currentColor" y="9" dy="0.71em">15,000x</text></g></g><text transform="translate(400, 30)" style="text-anchor: middle; font-size: 20px; font-weight: bold;">is benchmark</text><rect x="680" y="165" width="200" height="5" fill="gray"></rect><rect x="675" y="35" width="200" height="130" fill="none" stroke="black"></rect><rect x="685" y="45" width="10" height="10" style="fill: #4472c4;"></rect><text x="700" y="55" style="font-size: 12px;">typia</text><rect x="685" y="65" width="10" height="10" style="fill: #ed7d31;"></rect><text x="700" y="75" style="font-size: 12px;">typebox</text><rect x="685" y="85" width="10" height="10" style="fill: #a5a5a5;"></rect><text x="700" y="95" style="font-size: 12px;">ajv</text><rect x="685" y="105" width="10" height="10" style="fill: #ffc000;"></rect><text x="700" y="115" style="font-size: 12px;">io-ts</text><rect x="685" y="125" width="10" height="10" style="fill: #5b9bd5;"></rect><text x="700" y="135" style="font-size: 12px;">zod</text><rect x="685" y="145" width="10" height="10" style="fill: #70ad47;"></rect><text x="700" y="155" style="font-size: 12px;">class-validator</text><g style="font-size: 13px;"><g style="font-size: 13px;"><rect x="150" y="54.563164108618665" width="440.9090909090908" height="12.579238942875305" fill="#4472c4"></rect><rect x="150" y="67.80446825901373" width="73.38573117543712" height="12.579238942875305" fill="#ed7d31"></rect><rect x="150" y="81.04577240940878" width="104.34782214237488" height="12.579238942875305" fill="#a5a5a5"></rect><rect x="150" y="94.28707655980384" width="6.756706224459778" height="12.579238942875305" fill="#ffc000"></rect><rect x="150" y="107.5283807101989" width="0.8826104912325988" height="12.579238942875305" fill="#5b9bd5"></rect><rect x="150" y="120.76968486059396" width="0.028978163916759492" height="12.579238942875305" fill="#70ad47"></rect><text class="label" x="599.4090909090908" y="63.063164108618665" font-size="10px">15,215x</text><text class="label" x="231.88573117543712" y="76.30446825901373" font-size="10px">2,532x</text><text class="label" x="262.84782214237487" y="89.54577240940878" font-size="10px">3,601x</text><text class="label" x="165.25670622445978" y="102.78707655980384" font-size="10px">233x</text><text class="label" x="159.3826104912326" y="116.0283807101989" font-size="10px">30x</text><text class="label" x="158.52897816391675" y="129.26968486059394" font-size="10px">1x</text><text class="label" x="595.9090909090908" y="64.56316410861866" font-size="8px"></text><text class="label" x="228.38573117543712" y="77.80446825901373" font-size="8px"></text><text class="label" x="259.34782214237487" y="91.04577240940878" font-size="8px"></text><text class="label" x="161.75670622445978" y="104.28707655980384" font-size="8px"></text><text class="label" x="155.8826104912326" y="117.5283807101989" font-size="8px"></text><text class="label" x="155.02897816391675" y="130.76968486059394" font-size="8px"></text></g><g style="font-size: 13px;"><rect x="150" y="143.57415311960767" width="158.32441791281963" height="12.579238942875305" fill="#4472c4"></rect><rect x="150" y="156.81545727000272" width="83.07175444099154" height="12.579238942875305" fill="#ed7d31"></rect><rect x="150" y="170.05676142039778" width="41.22659726244551" height="12.579238942875305" fill="#a5a5a5"></rect><rect x="150" y="183.29806557079286" width="6.971500414730447" height="12.579238942875305" fill="#ffc000"></rect><rect x="150" y="196.5393697211879" width="0.37634749174428234" height="12.579238942875305" fill="#5b9bd5"></rect><rect x="150" y="209.78067387158296" width="0.028978163916759492" height="12.579238942875305" fill="#70ad47"></rect><text class="label" x="316.8244179128196" y="152.07415311960767" font-size="10px">5,464x</text><text class="label" x="241.57175444099153" y="165.31545727000272" font-size="10px">2,867x</text><text class="label" x="199.72659726244552" y="178.55676142039778" font-size="10px">1,423x</text><text class="label" x="165.47150041473046" y="191.79806557079286" font-size="10px">241x</text><text class="label" x="158.87634749174427" y="205.0393697211879" font-size="10px">13x</text><text class="label" x="158.52897816391675" y="218.28067387158296" font-size="10px">1x</text><text class="label" x="313.3244179128196" y="153.57415311960767" font-size="8px"></text><text class="label" x="238.07175444099153" y="166.81545727000272" font-size="8px"></text><text class="label" x="196.22659726244552" y="180.05676142039778" font-size="8px"></text><text class="label" x="161.97150041473046" y="193.29806557079286" font-size="8px"></text><text class="label" x="155.37634749174427" y="206.5393697211879" font-size="8px"></text><text class="label" x="155.02897816391675" y="219.78067387158296" font-size="8px"></text></g><g style="font-size: 13px;"><rect x="150" y="232.5851421305967" width="136.3126995089289" height="12.579238942875305" fill="#4472c4"></rect><rect x="150" y="245.82644628099175" width="80.23941057828175" height="12.579238942875305" fill="#ed7d31"></rect><rect x="150" y="259.0677504313868" width="46.847617953291554" height="12.579238942875305" fill="#a5a5a5"></rect><rect x="150" y="272.3090545817819" width="6.229546521369664" height="12.579238942875305" fill="#ffc000"></rect><rect x="150" y="285.5503587321769" width="0.09691262372385953" height="12.579238942875305" fill="#5b9bd5"></rect><rect x="150" y="298.791662882572" width="0.028978163916759492" height="12.579238942875305" fill="#70ad47"></rect><text class="label" x="294.81269950892886" y="241.0851421305967" font-size="10px">4,704x</text><text class="label" x="238.73941057828176" y="254.32644628099175" font-size="10px">2,769x</text><text class="label" x="205.34761795329155" y="267.5677504313868" font-size="10px">1,617x</text><text class="label" x="164.72954652136966" y="280.8090545817819" font-size="10px">215x</text><text class="label" x="158.59691262372385" y="294.0503587321769" font-size="10px">3x</text><text class="label" x="158.52897816391675" y="307.291662882572" font-size="10px">1x</text><text class="label" x="291.31269950892886" y="242.5851421305967" font-size="8px"></text><text class="label" x="235.23941057828176" y="255.82644628099175" font-size="8px"></text><text class="label" x="201.84761795329155" y="269.0677504313868" font-size="8px"></text><text class="label" x="161.22954652136966" y="282.3090545817819" font-size="8px"></text><text class="label" x="155.09691262372385" y="295.5503587321769" font-size="8px"></text><text class="label" x="155.02897816391675" y="308.791662882572" font-size="8px"></text></g><g style="font-size: 13px;"><rect x="150" y="321.59613114158566" width="17.696459257163642" height="12.579238942875305" fill="#4472c4"></rect><rect x="150" y="334.83743529198074" width="7.5849849183703455" height="12.579238942875305" fill="#ed7d31"></rect><rect x="150" y="348.07873944237576" width="6.7856638823579445" height="12.579238942875305" fill="#a5a5a5"></rect><rect x="150" y="361.32004359277084" width="2.493514793982728" height="12.579238942875305" fill="#ffc000"></rect><rect x="150" y="374.5613477431659" width="0.028978163916759492" height="12.579238942875305" fill="#5b9bd5"></rect><rect x="150" y="387.80265189356095" width="0.06028375676551509" height="12.579238942875305" fill="#70ad47"></rect><text class="label" x="176.19645925716364" y="330.09613114158566" font-size="10px">611x</text><text class="label" x="166.08498491837034" y="343.33743529198074" font-size="10px">262x</text><text class="label" x="165.28566388235794" y="356.57873944237576" font-size="10px">234x</text><text class="label" x="160.99351479398274" y="369.82004359277084" font-size="10px">86x</text><text class="label" x="158.52897816391675" y="383.0613477431659" font-size="10px">1x</text><text class="label" x="158.56028375676553" y="396.30265189356095" font-size="10px">2x</text><text class="label" x="172.69645925716364" y="331.59613114158566" font-size="8px"></text><text class="label" x="162.58498491837034" y="344.83743529198074" font-size="8px"></text><text class="label" x="161.78566388235794" y="358.07873944237576" font-size="8px"></text><text class="label" x="157.49351479398274" y="371.32004359277084" font-size="8px"></text><text class="label" x="155.02897816391675" y="384.5613477431659" font-size="8px"></text><text class="label" x="155.06028375676553" y="397.80265189356095" font-size="8px"></text></g><g style="font-size: 13px;"><rect x="150" y="410.6071201525747" width="485" height="12.579238942875305" fill="#4472c4"></rect><rect x="150" y="423.84842430296976" width="0" height="12.579238942875305" fill="#ed7d31"></rect><rect x="150" y="437.08972845336484" width="0" height="12.579238942875305" fill="#a5a5a5"></rect><rect x="150" y="450.33103260375987" width="0" height="12.579238942875305" fill="#ffc000"></rect><rect x="150" y="463.57233675415495" width="0" height="12.579238942875305" fill="#5b9bd5"></rect><rect x="150" y="476.81364090454997" width="0" height="12.579238942875305" fill="#70ad47"></rect><text class="label" x="643.5" y="419.1071201525747" font-size="10px">Infinity</text><text class="label" x="158.5" y="432.34842430296976" font-size="10px"></text><text class="label" x="158.5" y="445.58972845336484" font-size="10px"></text><text class="label" x="158.5" y="458.83103260375987" font-size="10px"></text><text class="label" x="158.5" y="472.07233675415495" font-size="10px"></text><text class="label" x="158.5" y="485.31364090454997" font-size="10px"></text><text class="label" x="640" y="420.6071201525747" font-size="8px"></text><text class="label" x="155" y="433.84842430296976" font-size="8px">Failed</text><text class="label" x="155" y="447.08972845336484" font-size="8px">Failed</text><text class="label" x="155" y="460.33103260375987" font-size="8px">Failed</text><text class="label" x="155" y="473.57233675415495" font-size="8px">Failed</text><text class="label" x="155" y="486.81364090454997" font-size="8px">Failed</text></g><g style="font-size: 13px;"><rect x="150" y="499.6181091635637" width="102.5996976140517" height="12.579238942875305" fill="#4472c4"></rect><rect x="150" y="512.8594133139588" width="71.76415126956816" height="12.579238942875305" fill="#ed7d31"></rect><rect x="150" y="526.1007174643538" width="31.779639382698548" height="12.579238942875305" fill="#a5a5a5"></rect><rect x="150" y="539.3420216147489" width="6.6749629608881085" height="12.579238942875305" fill="#ffc000"></rect><rect x="150" y="552.583325765144" width="0.1291327520892545" height="12.579238942875305" fill="#5b9bd5"></rect><rect x="150" y="565.824629915539" width="0.028978163916759492" height="12.579238942875305" fill="#70ad47"></rect><text class="label" x="261.0996976140517" y="508.1181091635637" font-size="10px">3,541x</text><text class="label" x="230.26415126956817" y="521.3594133139588" font-size="10px">2,476x</text><text class="label" x="190.27963938269855" y="534.6007174643538" font-size="10px">1,097x</text><text class="label" x="165.1749629608881" y="547.8420216147489" font-size="10px">230x</text><text class="label" x="158.62913275208925" y="561.083325765144" font-size="10px">4x</text><text class="label" x="158.52897816391675" y="574.324629915539" font-size="10px">1x</text><text class="label" x="257.5996976140517" y="509.6181091635637" font-size="8px"></text><text class="label" x="226.76415126956817" y="522.8594133139588" font-size="8px"></text><text class="label" x="186.77963938269855" y="536.1007174643538" font-size="8px"></text><text class="label" x="161.6749629608881" y="549.3420216147489" font-size="8px"></text><text class="label" x="155.12913275208925" y="562.583325765144" font-size="8px"></text><text class="label" x="155.02897816391675" y="575.824629915539" font-size="8px"></text></g><g style="font-size: 13px;"><rect x="150" y="588.6290981745527" width="39.59995811006526" height="12.579238942875305" fill="#4472c4"></rect><rect x="150" y="601.8704023249478" width="12.756437479045132" height="12.579238942875305" fill="#ed7d31"></rect><rect x="150" y="615.1117064753429" width="8.36549212819153" height="12.579238942875305" fill="#a5a5a5"></rect><rect x="150" y="628.353010625738" width="3.7091036000137283" height="12.579238942875305" fill="#ffc000"></rect><rect x="150" y="641.5943147761329" width="0.028978163916759492" height="12.579238942875305" fill="#5b9bd5"></rect><rect x="150" y="654.835618926528" width="0.252699089892305" height="12.579238942875305" fill="#70ad47"></rect><text class="label" x="198.09995811006524" y="597.1290981745527" font-size="10px">1,367x</text><text class="label" x="171.25643747904513" y="610.3704023249478" font-size="10px">440x</text><text class="label" x="166.86549212819153" y="623.6117064753429" font-size="10px">289x</text><text class="label" x="162.20910360001372" y="636.853010625738" font-size="10px">128x</text><text class="label" x="158.52897816391675" y="650.0943147761329" font-size="10px">1x</text><text class="label" x="158.7526990898923" y="663.335618926528" font-size="10px">9x</text><text class="label" x="194.59995811006524" y="598.6290981745527" font-size="8px"></text><text class="label" x="167.75643747904513" y="611.8704023249478" font-size="8px"></text><text class="label" x="163.36549212819153" y="625.1117064753429" font-size="8px"></text><text class="label" x="158.70910360001372" y="638.353010625738" font-size="8px"></text><text class="label" x="155.02897816391675" y="651.5943147761329" font-size="8px"></text><text class="label" x="155.2526990898923" y="664.835618926528" font-size="8px"></text></g><g style="font-size: 13px;"><rect x="150" y="677.6400871855418" width="485" height="12.579238942875305" fill="#4472c4"></rect><rect x="150" y="690.8813913359369" width="0" height="12.579238942875305" fill="#ed7d31"></rect><rect x="150" y="704.122695486332" width="0" height="12.579238942875305" fill="#a5a5a5"></rect><rect x="150" y="717.363999636727" width="0" height="12.579238942875305" fill="#ffc000"></rect><rect x="150" y="730.605303787122" width="0" height="12.579238942875305" fill="#5b9bd5"></rect><rect x="150" y="743.8466079375171" width="0" height="12.579238942875305" fill="#70ad47"></rect><text class="label" x="643.5" y="686.1400871855418" font-size="10px">Infinity</text><text class="label" x="158.5" y="699.3813913359369" font-size="10px"></text><text class="label" x="158.5" y="712.622695486332" font-size="10px"></text><text class="label" x="158.5" y="725.863999636727" font-size="10px"></text><text class="label" x="158.5" y="739.105303787122" font-size="10px"></text><text class="label" x="158.5" y="752.3466079375171" font-size="10px"></text><text class="label" x="640" y="687.6400871855418" font-size="8px"></text><text class="label" x="155" y="700.8813913359369" font-size="8px">Failed</text><text class="label" x="155" y="714.122695486332" font-size="8px">Failed</text><text class="label" x="155" y="727.363999636727" font-size="8px">Failed</text><text class="label" x="155" y="740.605303787122" font-size="8px">Failed</text><text class="label" x="155" y="753.8466079375171" font-size="8px">Failed</text></g><g style="font-size: 13px;"><rect x="150" y="766.6510761965307" width="485" height="12.579238942875305" fill="#4472c4"></rect><rect x="150" y="779.8923803469257" width="0" height="12.579238942875305" fill="#ed7d31"></rect><rect x="150" y="793.1336844973208" width="0" height="12.579238942875305" fill="#a5a5a5"></rect><rect x="150" y="806.3749886477159" width="0" height="12.579238942875305" fill="#ffc000"></rect><rect x="150" y="819.6162927981109" width="0" height="12.579238942875305" fill="#5b9bd5"></rect><rect x="150" y="832.8575969485059" width="0" height="12.579238942875305" fill="#70ad47"></rect><text class="label" x="643.5" y="775.1510761965307" font-size="10px">Infinity</text><text class="label" x="158.5" y="788.3923803469257" font-size="10px"></text><text class="label" x="158.5" y="801.6336844973208" font-size="10px"></text><text class="label" x="158.5" y="814.8749886477159" font-size="10px"></text><text class="label" x="158.5" y="828.1162927981109" font-size="10px"></text><text class="label" x="158.5" y="841.3575969485059" font-size="10px"></text><text class="label" x="640" y="776.6510761965307" font-size="8px"></text><text class="label" x="155" y="789.8923803469257" font-size="8px">Failed</text><text class="label" x="155" y="803.1336844973208" font-size="8px">Failed</text><text class="label" x="155" y="816.3749886477159" font-size="8px">Failed</text><text class="label" x="155" y="829.6162927981109" font-size="8px">Failed</text><text class="label" x="155" y="842.8575969485059" font-size="8px">Failed</text></g></g></svg>