<svg xmlns="http://www.w3.org/2000/svg" xmlns:xlink="http://www.w3.org/1999/xlink" width="800" height="675" style="background-color: white;"><g class="y axis" transform="translate(149,45)" fill="none" font-size="10" font-family="sans-serif" text-anchor="end" style="font-size: 13px;"><path class="domain" stroke="currentColor" d="M0.5,0.5V600.5"></path><g class="tick" opacity="1" transform="translate(0,40.740740740740726)" style="font-size: 13px;"><line stroke="currentColor" x2="0"></line><text fill="currentColor" x="-3" dy="0.32em">object (simple)    </text></g><g class="tick" opacity="1" transform="translate(0,114.81481481481481)" style="font-size: 13px;"><line stroke="currentColor" x2="0"></line><text fill="currentColor" x="-3" dy="0.32em">object (hierarchical)    </text></g><g class="tick" opacity="1" transform="translate(0,188.88888888888889)" style="font-size: 13px;"><line stroke="currentColor" x2="0"></line><text fill="currentColor" x="-3" dy="0.32em">object (recursive)    </text></g><g class="tick" opacity="1" transform="translate(0,262.96296296296293)" style="font-size: 13px;"><line stroke="currentColor" x2="0"></line><text fill="currentColor" x="-3" dy="0.32em">object (union)    </text></g><g class="tick" opacity="1" transform="translate(0,337.037037037037)" style="font-size: 13px;"><line stroke="currentColor" x2="0"></line><text fill="currentColor" x="-3" dy="0.32em">array (simple)    </text></g><g class="tick" opacity="1" transform="translate(0,411.1111111111111)" style="font-size: 13px;"><line stroke="currentColor" x2="0"></line><text fill="currentColor" x="-3" dy="0.32em">array (hierarchical)    </text></g><g class="tick" opacity="1" transform="translate(0,485.18518518518516)" style="font-size: 13px;"><line stroke="currentColor" x2="0"></line><text fill="currentColor" x="-3" dy="0.32em">array (recursive)    </text></g><g class="tick" opacity="1" transform="translate(0,559.2592592592592)" style="font-size: 13px;"><line stroke="currentColor" x2="0"></line><text fill="currentColor" x="-3" dy="0.32em">array (union)    </text></g></g><g class="x axis" transform="translate(149,645)" fill="none" font-size="10" font-family="sans-serif" text-anchor="middle" style="font-size: 13px;"><path class="domain" stroke="currentColor" d="M0.5,0.5H485.5"></path><g class="tick" opacity="1" transform="translate(0.5,0)" style="font-size: 13px;"><line stroke="currentColor" y2="6"></line><text fill="currentColor" y="9" dy="0.71em">0x</text></g><g class="tick" opacity="1" transform="translate(99.88325035488786,0)" style="font-size: 13px;"><line stroke="currentColor" y2="6"></line><text fill="currentColor" y="9" dy="0.71em">0.5x</text></g><g class="tick" opacity="1" transform="translate(199.26650070977573,0)" style="font-size: 13px;"><line stroke="currentColor" y2="6"></line><text fill="currentColor" y="9" dy="0.71em">1x</text></g><g class="tick" opacity="1" transform="translate(298.6497510646636,0)" style="font-size: 13px;"><line stroke="currentColor" y2="6"></line><text fill="currentColor" y="9" dy="0.71em">1.5x</text></g><g class="tick" opacity="1" transform="translate(398.03300141955145,0)" style="font-size: 13px;"><line stroke="currentColor" y2="6"></line><text fill="currentColor" y="9" dy="0.71em">2x</text></g></g><text transform="translate(400, 30)" style="text-anchor: middle; font-size: 20px; font-weight: bold;">stringify (server) benchmark</text><rect x="680" y="145" width="200" height="5" fill="gray"></rect><rect x="675" y="35" width="200" height="110" fill="none" stroke="black"></rect><rect x="685" y="45" width="10" height="10" style="fill: #4472c4;"></rect><text x="700" y="55" style="font-size: 12px;">express (pure)</text><rect x="685" y="65" width="10" height="10" style="fill: #ed7d31;"></rect><text x="700" y="75" style="font-size: 12px;">express (typia.stringify)</text><rect x="685" y="85" width="10" height="10" style="fill: #a5a5a5;"></rect><text x="700" y="95" style="font-size: 12px;">express (typia.isStringify)</text><rect x="685" y="105" width="10" height="10" style="fill: #ffc000;"></rect><text x="700" y="115" style="font-size: 12px;">express (typia.assertStringify)</text><rect x="685" y="125" width="10" height="10" style="fill: #5b9bd5;"></rect><text x="700" y="135" style="font-size: 12px;">fastify</text><g style="font-size: 13px;"><g style="font-size: 13px;"><rect x="150" y="53.06747341400805" width="200.11102912260694" height="12.541254125412543" fill="#4472c4"></rect><rect x="150" y="66.26879354602124" width="290.9671615755472" height="12.541254125412543" fill="#ed7d31"></rect><rect x="150" y="79.47011367803445" width="198.76650070977573" height="12.541254125412543" fill="#a5a5a5"></rect><rect x="150" y="92.67143381004766" width="208.25214802498522" height="12.541254125412543" fill="#ffc000"></rect><rect x="150" y="105.87275394206085" width="404.52300680657754" height="12.541254125412543" fill="#5b9bd5"></rect><text class="label" x="358.61102912260696" y="61.56747341400805" font-size="10px">1.01x</text><text class="label" x="449.4671615755472" y="74.76879354602124" font-size="10px">1.46x</text><text class="label" x="357.26650070977576" y="87.97011367803445" font-size="10px">1x</text><text class="label" x="366.7521480249852" y="101.17143381004766" font-size="10px">1.05x</text><text class="label" x="563.0230068065775" y="114.37275394206085" font-size="10px">2.04x</text><text class="label" x="355.11102912260696" y="63.06747341400805" font-size="8px"></text><text class="label" x="445.9671615755472" y="76.26879354602124" font-size="8px"></text><text class="label" x="353.76650070977576" y="89.47011367803445" font-size="8px"></text><text class="label" x="363.2521480249852" y="102.67143381004766" font-size="8px"></text><text class="label" x="559.5230068065775" y="115.87275394206085" font-size="8px"></text></g><g style="font-size: 13px;"><rect x="150" y="127.14154748808213" width="198.76650070977573" height="12.541254125412543" fill="#4472c4"></rect><rect x="150" y="140.34286762009532" width="242.2747108546801" height="12.541254125412543" fill="#ed7d31"></rect><rect x="150" y="153.54418775210854" width="247.3363095050618" height="12.541254125412543" fill="#a5a5a5"></rect><rect x="150" y="166.74550788412174" width="235.0798570284561" height="12.541254125412543" fill="#ffc000"></rect><rect x="150" y="179.94682801613493" width="368.34278957331253" height="12.541254125412543" fill="#5b9bd5"></rect><text class="label" x="357.26650070977576" y="135.64154748808213" font-size="10px">1x</text><text class="label" x="400.7747108546801" y="148.84286762009532" font-size="10px">1.22x</text><text class="label" x="405.83630950506176" y="162.04418775210854" font-size="10px">1.24x</text><text class="label" x="393.5798570284561" y="175.24550788412174" font-size="10px">1.18x</text><text class="label" x="526.8427895733125" y="188.44682801613493" font-size="10px">1.85x</text><text class="label" x="353.76650070977576" y="137.14154748808213" font-size="8px"></text><text class="label" x="397.2747108546801" y="150.34286762009532" font-size="8px"></text><text class="label" x="402.33630950506176" y="163.54418775210854" font-size="8px"></text><text class="label" x="390.0798570284561" y="176.74550788412174" font-size="8px"></text><text class="label" x="523.3427895733125" y="189.94682801613493" font-size="8px"></text></g><g style="font-size: 13px;"><rect x="150" y="201.2156215621562" width="274.29384792599814" height="12.541254125412543" fill="#4472c4"></rect><rect x="150" y="214.4169416941694" width="279.90960139657847" height="12.541254125412543" fill="#ed7d31"></rect><rect x="150" y="227.61826182618262" width="272.87329438017184" height="12.541254125412543" fill="#a5a5a5"></rect><rect x="150" y="240.8195819581958" width="198.76650070977573" height="12.541254125412543" fill="#ffc000"></rect><rect x="150" y="254.020902090209" width="248.945293985983" height="12.541254125412543" fill="#5b9bd5"></rect><text class="label" x="432.79384792599814" y="209.7156215621562" font-size="10px">1.38x</text><text class="label" x="438.40960139657847" y="222.9169416941694" font-size="10px">1.41x</text><text class="label" x="431.37329438017184" y="236.11826182618262" font-size="10px">1.37x</text><text class="label" x="357.26650070977576" y="249.3195819581958" font-size="10px">1x</text><text class="label" x="407.44529398598297" y="262.520902090209" font-size="10px">1.25x</text><text class="label" x="429.29384792599814" y="211.2156215621562" font-size="8px"></text><text class="label" x="434.90960139657847" y="224.4169416941694" font-size="8px"></text><text class="label" x="427.87329438017184" y="237.61826182618262" font-size="8px"></text><text class="label" x="353.76650070977576" y="250.8195819581958" font-size="8px"></text><text class="label" x="403.94529398598297" y="264.020902090209" font-size="8px"></text></g><g style="font-size: 13px;"><rect x="150" y="275.28969563623025" width="198.76650070977573" height="12.541254125412543" fill="#4472c4"></rect><rect x="150" y="288.49101576824347" width="306.337850701769" height="12.541254125412543" fill="#ed7d31"></rect><rect x="150" y="301.6923359002567" width="294.3141025039781" height="12.541254125412543" fill="#a5a5a5"></rect><rect x="150" y="314.89365603226986" width="262.097905585652" height="12.541254125412543" fill="#ffc000"></rect><rect x="150" y="328.0949761642831" width="205.99101652937418" height="12.541254125412543" fill="#5b9bd5"></rect><text class="label" x="357.26650070977576" y="283.78969563623025" font-size="10px">1x</text><text class="label" x="464.837850701769" y="296.99101576824347" font-size="10px">1.54x</text><text class="label" x="452.8141025039781" y="310.1923359002567" font-size="10px">1.48x</text><text class="label" x="420.597905585652" y="323.39365603226986" font-size="10px">1.32x</text><text class="label" x="364.4910165293742" y="336.5949761642831" font-size="10px">1.04x</text><text class="label" x="353.76650070977576" y="285.28969563623025" font-size="8px"></text><text class="label" x="461.337850701769" y="298.49101576824347" font-size="8px"></text><text class="label" x="449.3141025039781" y="311.6923359002567" font-size="8px"></text><text class="label" x="417.097905585652" y="324.89365603226986" font-size="8px"></text><text class="label" x="360.9910165293742" y="338.0949761642831" font-size="8px"></text></g><g style="font-size: 13px;"><rect x="150" y="349.3637697103044" width="257.2339212029686" height="12.541254125412543" fill="#4472c4"></rect><rect x="150" y="362.56508984231755" width="208.7893233988956" height="12.541254125412543" fill="#ed7d31"></rect><rect x="150" y="375.76640997433077" width="237.72040843095482" height="12.541254125412543" fill="#a5a5a5"></rect><rect x="150" y="388.967730106344" width="198.76650070977573" height="12.541254125412543" fill="#ffc000"></rect><rect x="150" y="402.16905023835716" width="208.32545952007797" height="12.541254125412543" fill="#5b9bd5"></rect><text class="label" x="415.7339212029686" y="357.8637697103044" font-size="10px">1.29x</text><text class="label" x="367.2893233988956" y="371.06508984231755" font-size="10px">1.05x</text><text class="label" x="396.2204084309548" y="384.26640997433077" font-size="10px">1.2x</text><text class="label" x="357.26650070977576" y="397.467730106344" font-size="10px">1x</text><text class="label" x="366.82545952007797" y="410.66905023835716" font-size="10px">1.05x</text><text class="label" x="412.2339212029686" y="359.3637697103044" font-size="8px"></text><text class="label" x="363.7893233988956" y="372.56508984231755" font-size="8px"></text><text class="label" x="392.7204084309548" y="385.76640997433077" font-size="8px"></text><text class="label" x="353.76650070977576" y="398.967730106344" font-size="8px"></text><text class="label" x="363.32545952007797" y="412.16905023835716" font-size="8px"></text></g><g style="font-size: 13px;"><rect x="150" y="423.4378437843784" width="198.76650070977573" height="12.541254125412543" fill="#4472c4"></rect><rect x="150" y="436.6391639163916" width="241.24963434924175" height="12.541254125412543" fill="#ed7d31"></rect><rect x="150" y="449.84048404840485" width="358.5975182575255" height="12.541254125412543" fill="#a5a5a5"></rect><rect x="150" y="463.041804180418" width="225.675464765921" height="12.541254125412543" fill="#ffc000"></rect><rect x="150" y="476.24312431243123" width="250.16511798671345" height="12.541254125412543" fill="#5b9bd5"></rect><text class="label" x="357.26650070977576" y="431.9378437843784" font-size="10px">1x</text><text class="label" x="399.7496343492418" y="445.1391639163916" font-size="10px">1.21x</text><text class="label" x="517.0975182575255" y="458.34048404840485" font-size="10px">1.8x</text><text class="label" x="384.175464765921" y="471.541804180418" font-size="10px">1.14x</text><text class="label" x="408.6651179867134" y="484.74312431243123" font-size="10px">1.26x</text><text class="label" x="353.76650070977576" y="433.4378437843784" font-size="8px"></text><text class="label" x="396.2496343492418" y="446.6391639163916" font-size="8px"></text><text class="label" x="513.5975182575255" y="459.84048404840485" font-size="8px"></text><text class="label" x="380.675464765921" y="473.041804180418" font-size="8px"></text><text class="label" x="405.1651179867134" y="486.24312431243123" font-size="8px"></text></g><g style="font-size: 13px;"><rect x="150" y="497.51191785845253" width="244.67380364475045" height="12.541254125412543" fill="#4472c4"></rect><rect x="150" y="510.7132379904657" width="239.18800801968143" height="12.541254125412543" fill="#ed7d31"></rect><rect x="150" y="523.9145581224789" width="326.585016267328" height="12.541254125412543" fill="#a5a5a5"></rect><rect x="150" y="537.1158782544921" width="244.07684399415578" height="12.541254125412543" fill="#ffc000"></rect><rect x="150" y="550.3171983865053" width="198.76650070977573" height="12.541254125412543" fill="#5b9bd5"></rect><text class="label" x="403.1738036447505" y="506.01191785845253" font-size="10px">1.23x</text><text class="label" x="397.68800801968143" y="519.2132379904657" font-size="10px">1.2x</text><text class="label" x="485.085016267328" y="532.4145581224789" font-size="10px">1.64x</text><text class="label" x="402.57684399415575" y="545.6158782544921" font-size="10px">1.23x</text><text class="label" x="357.26650070977576" y="558.8171983865053" font-size="10px">1x</text><text class="label" x="399.6738036447505" y="507.51191785845253" font-size="8px"></text><text class="label" x="394.18800801968143" y="520.7132379904657" font-size="8px"></text><text class="label" x="481.585016267328" y="533.9145581224789" font-size="8px"></text><text class="label" x="399.07684399415575" y="547.1158782544921" font-size="8px"></text><text class="label" x="353.76650070977576" y="560.3171983865053" font-size="8px"></text></g><g style="font-size: 13px;"><rect x="150" y="571.5859919325266" width="440.9090909090908" height="12.541254125412543" fill="#4472c4"></rect><rect x="150" y="584.7873120645397" width="312.2984007065577" height="12.541254125412543" fill="#ed7d31"></rect><rect x="150" y="597.9886321965529" width="198.76650070977573" height="12.541254125412543" fill="#a5a5a5"></rect><rect x="150" y="611.1899523285662" width="356.102989108489" height="12.541254125412543" fill="#ffc000"></rect><rect x="150" y="624.3912724605793" width="307.8088341080348" height="12.541254125412543" fill="#5b9bd5"></rect><text class="label" x="599.4090909090908" y="580.0859919325266" font-size="10px">2.22x</text><text class="label" x="470.7984007065577" y="593.2873120645397" font-size="10px">1.57x</text><text class="label" x="357.26650070977576" y="606.4886321965529" font-size="10px">1x</text><text class="label" x="514.602989108489" y="619.6899523285662" font-size="10px">1.79x</text><text class="label" x="466.3088341080348" y="632.8912724605793" font-size="10px">1.55x</text><text class="label" x="595.9090909090908" y="581.5859919325266" font-size="8px"></text><text class="label" x="467.2984007065577" y="594.7873120645397" font-size="8px"></text><text class="label" x="353.76650070977576" y="607.9886321965529" font-size="8px"></text><text class="label" x="511.102989108489" y="621.1899523285662" font-size="8px"></text><text class="label" x="462.8088341080348" y="634.3912724605793" font-size="8px"></text></g></g></svg>