<svg xmlns="http://www.w3.org/2000/svg" xmlns:xlink="http://www.w3.org/1999/xlink" width="800" height="675" style="background-color: white;"><g class="y axis" transform="translate(149,45)" fill="none" font-size="10" font-family="sans-serif" text-anchor="end" style="font-size: 13px;"><path class="domain" stroke="currentColor" d="M0.5,0.5V600.5"></path><g class="tick" opacity="1" transform="translate(0,40.740740740740726)" style="font-size: 13px;"><line stroke="currentColor" x2="0"></line><text fill="currentColor" x="-3" dy="0.32em">object (simple)    </text></g><g class="tick" opacity="1" transform="translate(0,114.81481481481481)" style="font-size: 13px;"><line stroke="currentColor" x2="0"></line><text fill="currentColor" x="-3" dy="0.32em">object (hierarchical)    </text></g><g class="tick" opacity="1" transform="translate(0,188.88888888888889)" style="font-size: 13px;"><line stroke="currentColor" x2="0"></line><text fill="currentColor" x="-3" dy="0.32em">object (recursive)    </text></g><g class="tick" opacity="1" transform="translate(0,262.96296296296293)" style="font-size: 13px;"><line stroke="currentColor" x2="0"></line><text fill="currentColor" x="-3" dy="0.32em">object (union)    </text></g><g class="tick" opacity="1" transform="translate(0,337.037037037037)" style="font-size: 13px;"><line stroke="currentColor" x2="0"></line><text fill="currentColor" x="-3" dy="0.32em">array (simple)    </text></g><g class="tick" opacity="1" transform="translate(0,411.1111111111111)" style="font-size: 13px;"><line stroke="currentColor" x2="0"></line><text fill="currentColor" x="-3" dy="0.32em">array (hierarchical)    </text></g><g class="tick" opacity="1" transform="translate(0,485.18518518518516)" style="font-size: 13px;"><line stroke="currentColor" x2="0"></line><text fill="currentColor" x="-3" dy="0.32em">array (recursive)    </text></g><g class="tick" opacity="1" transform="translate(0,559.2592592592592)" style="font-size: 13px;"><line stroke="currentColor" x2="0"></line><text fill="currentColor" x="-3" dy="0.32em">array (union)    </text></g></g><g class="x axis" transform="translate(149,645)" fill="none" font-size="10" font-family="sans-serif" text-anchor="middle" style="font-size: 13px;"><path class="domain" stroke="currentColor" d="M0.5,0.5H485.5"></path><g class="tick" opacity="1" transform="translate(0.5,0)" style="font-size: 13px;"><line stroke="currentColor" y2="6"></line><text fill="currentColor" y="9" dy="0.71em">0x</text></g><g class="tick" opacity="1" transform="translate(135.6078867883367,0)" style="font-size: 13px;"><line stroke="currentColor" y2="6"></line><text fill="currentColor" y="9" dy="0.71em">2x</text></g><g class="tick" opacity="1" transform="translate(270.7157735766734,0)" style="font-size: 13px;"><line stroke="currentColor" y2="6"></line><text fill="currentColor" y="9" dy="0.71em">4x</text></g><g class="tick" opacity="1" transform="translate(405.8236603650101,0)" style="font-size: 13px;"><line stroke="currentColor" y2="6"></line><text fill="currentColor" y="9" dy="0.71em">6x</text></g></g><text transform="translate(400, 30)" style="text-anchor: middle; font-size: 20px; font-weight: bold;">stringify benchmark</text><rect x="680" y="145" width="200" height="5" fill="gray"></rect><rect x="675" y="35" width="200" height="110" fill="none" stroke="black"></rect><rect x="685" y="45" width="10" height="10" style="fill: #4472c4;"></rect><text x="700" y="55" style="font-size: 12px;">typia.stringify()</text><rect x="685" y="65" width="10" height="10" style="fill: #ed7d31;"></rect><text x="700" y="75" style="font-size: 12px;">typia.assertStringify()</text><rect x="685" y="85" width="10" height="10" style="fill: #a5a5a5;"></rect><text x="700" y="95" style="font-size: 12px;">typia.isStringify()</text><rect x="685" y="105" width="10" height="10" style="fill: #ffc000;"></rect><text x="700" y="115" style="font-size: 12px;">fast-json-stringify</text><rect x="685" y="125" width="10" height="10" style="fill: #5b9bd5;"></rect><text x="700" y="135" style="font-size: 12px;">JSON.stringify</text><g style="font-size: 13px;"><g style="font-size: 13px;"><rect x="150" y="53.06747341400805" width="440.9090909090909" height="12.541254125412543" fill="#4472c4"></rect><rect x="150" y="66.26879354602124" width="415.6590552718971" height="12.541254125412543" fill="#ed7d31"></rect><rect x="150" y="79.47011367803445" width="383.5502621078086" height="12.541254125412543" fill="#a5a5a5"></rect><rect x="150" y="92.67143381004766" width="325.9836105899317" height="12.541254125412543" fill="#ffc000"></rect><rect x="150" y="105.87275394206085" width="67.55394339416836" height="12.541254125412543" fill="#5b9bd5"></rect><text class="label" x="599.4090909090909" y="61.56747341400805" font-size="10px">6.53x</text><text class="label" x="574.1590552718972" y="74.76879354602124" font-size="10px">6.15x</text><text class="label" x="542.0502621078085" y="87.97011367803445" font-size="10px">5.68x</text><text class="label" x="484.4836105899317" y="101.17143381004766" font-size="10px">4.83x</text><text class="label" x="226.05394339416836" y="114.37275394206085" font-size="10px">1x</text><text class="label" x="595.9090909090909" y="63.06747341400805" font-size="8px"></text><text class="label" x="570.6590552718972" y="76.26879354602124" font-size="8px"></text><text class="label" x="538.5502621078085" y="89.47011367803445" font-size="8px"></text><text class="label" x="480.9836105899317" y="102.67143381004766" font-size="8px"></text><text class="label" x="222.55394339416836" y="115.87275394206085" font-size="8px"></text></g><g style="font-size: 13px;"><rect x="150" y="127.14154748808213" width="272.2487003173386" height="12.541254125412543" fill="#4472c4"></rect><rect x="150" y="140.34286762009532" width="229.99733823315538" height="12.541254125412543" fill="#ed7d31"></rect><rect x="150" y="153.54418775210854" width="249.4700524124552" height="12.541254125412543" fill="#a5a5a5"></rect><rect x="150" y="166.74550788412174" width="282.2444666429155" height="12.541254125412543" fill="#ffc000"></rect><rect x="150" y="179.94682801613493" width="67.55394339416836" height="12.541254125412543" fill="#5b9bd5"></rect><text class="label" x="430.7487003173386" y="135.64154748808213" font-size="10px">4.03x</text><text class="label" x="388.49733823315535" y="148.84286762009532" font-size="10px">3.4x</text><text class="label" x="407.9700524124552" y="162.04418775210854" font-size="10px">3.69x</text><text class="label" x="440.7444666429155" y="175.24550788412174" font-size="10px">4.18x</text><text class="label" x="226.05394339416836" y="188.44682801613493" font-size="10px">1x</text><text class="label" x="427.2487003173386" y="137.14154748808213" font-size="8px"></text><text class="label" x="384.99733823315535" y="150.34286762009532" font-size="8px"></text><text class="label" x="404.4700524124552" y="163.54418775210854" font-size="8px"></text><text class="label" x="437.2444666429155" y="176.74550788412174" font-size="8px"></text><text class="label" x="222.55394339416836" y="189.94682801613493" font-size="8px"></text></g><g style="font-size: 13px;"><rect x="150" y="201.2156215621562" width="351.94012678556015" height="12.541254125412543" fill="#4472c4"></rect><rect x="150" y="214.4169416941694" width="310.81397430798216" height="12.541254125412543" fill="#ed7d31"></rect><rect x="150" y="227.61826182618262" width="331.0614617223602" height="12.541254125412543" fill="#a5a5a5"></rect><rect x="150" y="240.8195819581958" width="67.55394339416836" height="12.541254125412543" fill="#ffc000"></rect><rect x="150" y="254.020902090209" width="69.69099885827836" height="12.541254125412543" fill="#5b9bd5"></rect><text class="label" x="510.44012678556015" y="209.7156215621562" font-size="10px">5.21x</text><text class="label" x="469.31397430798216" y="222.9169416941694" font-size="10px">4.6x</text><text class="label" x="489.5614617223602" y="236.11826182618262" font-size="10px">4.9x</text><text class="label" x="226.05394339416836" y="249.3195819581958" font-size="10px">1x</text><text class="label" x="228.19099885827836" y="262.520902090209" font-size="10px">1.03x</text><text class="label" x="506.94012678556015" y="211.2156215621562" font-size="8px"></text><text class="label" x="465.81397430798216" y="224.4169416941694" font-size="8px"></text><text class="label" x="486.0614617223602" y="237.61826182618262" font-size="8px"></text><text class="label" x="222.55394339416836" y="250.8195819581958" font-size="8px"></text><text class="label" x="224.69099885827836" y="264.020902090209" font-size="8px"></text></g><g style="font-size: 13px;"><rect x="150" y="275.28969563623025" width="151.51680607856952" height="12.541254125412543" fill="#4472c4"></rect><rect x="150" y="288.49101576824347" width="116.70584732558693" height="12.541254125412543" fill="#ed7d31"></rect><rect x="150" y="301.6923359002567" width="140.09021223596764" height="12.541254125412543" fill="#a5a5a5"></rect><rect x="150" y="314.89365603226986" width="149.57336068892812" height="12.541254125412543" fill="#ffc000"></rect><rect x="150" y="328.0949761642831" width="67.55394339416836" height="12.541254125412543" fill="#5b9bd5"></rect><text class="label" x="310.0168060785695" y="283.78969563623025" font-size="10px">2.24x</text><text class="label" x="275.20584732558694" y="296.99101576824347" font-size="10px">1.73x</text><text class="label" x="298.59021223596767" y="310.1923359002567" font-size="10px">2.07x</text><text class="label" x="308.0733606889281" y="323.39365603226986" font-size="10px">2.21x</text><text class="label" x="226.05394339416836" y="336.5949761642831" font-size="10px">1x</text><text class="label" x="306.5168060785695" y="285.28969563623025" font-size="8px"></text><text class="label" x="271.70584732558694" y="298.49101576824347" font-size="8px"></text><text class="label" x="295.09021223596767" y="311.6923359002567" font-size="8px"></text><text class="label" x="304.5733606889281" y="324.89365603226986" font-size="8px"></text><text class="label" x="222.55394339416836" y="338.0949761642831" font-size="8px"></text></g><g style="font-size: 13px;"><rect x="150" y="349.3637697103044" width="90.48818096816183" height="12.541254125412543" fill="#4472c4"></rect><rect x="150" y="362.56508984231755" width="68.12987248902338" height="12.541254125412543" fill="#ed7d31"></rect><rect x="150" y="375.76640997433077" width="78.19136860721017" height="12.541254125412543" fill="#a5a5a5"></rect><rect x="150" y="388.967730106344" width="102.54487965089467" height="12.541254125412543" fill="#ffc000"></rect><rect x="150" y="402.16905023835716" width="67.55394339416836" height="12.541254125412543" fill="#5b9bd5"></rect><text class="label" x="248.98818096816183" y="357.8637697103044" font-size="10px">1.34x</text><text class="label" x="226.6298724890234" y="371.06508984231755" font-size="10px">1.01x</text><text class="label" x="236.69136860721017" y="384.26640997433077" font-size="10px">1.16x</text><text class="label" x="261.0448796508947" y="397.467730106344" font-size="10px">1.52x</text><text class="label" x="226.05394339416836" y="410.66905023835716" font-size="10px">1x</text><text class="label" x="245.48818096816183" y="359.3637697103044" font-size="8px"></text><text class="label" x="223.1298724890234" y="372.56508984231755" font-size="8px"></text><text class="label" x="233.19136860721017" y="385.76640997433077" font-size="8px"></text><text class="label" x="257.5448796508947" y="398.967730106344" font-size="8px"></text><text class="label" x="222.55394339416836" y="412.16905023835716" font-size="8px"></text></g><g style="font-size: 13px;"><rect x="150" y="423.4378437843784" width="142.9568851617907" height="12.541254125412543" fill="#4472c4"></rect><rect x="150" y="436.6391639163916" width="122.4108544383884" height="12.541254125412543" fill="#ed7d31"></rect><rect x="150" y="449.84048404840485" width="133.8145890294687" height="12.541254125412543" fill="#a5a5a5"></rect><rect x="150" y="463.041804180418" width="190.6240256520487" height="12.541254125412543" fill="#ffc000"></rect><rect x="150" y="476.24312431243123" width="67.55394339416836" height="12.541254125412543" fill="#5b9bd5"></rect><text class="label" x="301.4568851617907" y="431.9378437843784" font-size="10px">2.12x</text><text class="label" x="280.9108544383884" y="445.1391639163916" font-size="10px">1.81x</text><text class="label" x="292.3145890294687" y="458.34048404840485" font-size="10px">1.98x</text><text class="label" x="349.12402565204866" y="471.541804180418" font-size="10px">2.82x</text><text class="label" x="226.05394339416836" y="484.74312431243123" font-size="10px">1x</text><text class="label" x="297.9568851617907" y="433.4378437843784" font-size="8px"></text><text class="label" x="277.4108544383884" y="446.6391639163916" font-size="8px"></text><text class="label" x="288.8145890294687" y="459.84048404840485" font-size="8px"></text><text class="label" x="345.62402565204866" y="473.041804180418" font-size="8px"></text><text class="label" x="222.55394339416836" y="486.24312431243123" font-size="8px"></text></g><g style="font-size: 13px;"><rect x="150" y="497.51191785845253" width="142.00197722012987" height="12.541254125412543" fill="#4472c4"></rect><rect x="150" y="510.7132379904657" width="132.68952967054227" height="12.541254125412543" fill="#ed7d31"></rect><rect x="150" y="523.9145581224789" width="132.92563203650408" height="12.541254125412543" fill="#a5a5a5"></rect><rect x="150" y="537.1158782544921" width="67.76640248563699" height="12.541254125412543" fill="#ffc000"></rect><rect x="150" y="550.3171983865053" width="67.55394339416836" height="12.541254125412543" fill="#5b9bd5"></rect><text class="label" x="300.5019772201299" y="506.01191785845253" font-size="10px">2.1x</text><text class="label" x="291.18952967054224" y="519.2132379904657" font-size="10px">1.96x</text><text class="label" x="291.4256320365041" y="532.4145581224789" font-size="10px">1.97x</text><text class="label" x="226.266402485637" y="545.6158782544921" font-size="10px">1x</text><text class="label" x="226.05394339416836" y="558.8171983865053" font-size="10px">1x</text><text class="label" x="297.0019772201299" y="507.51191785845253" font-size="8px"></text><text class="label" x="287.68952967054224" y="520.7132379904657" font-size="8px"></text><text class="label" x="287.9256320365041" y="533.9145581224789" font-size="8px"></text><text class="label" x="222.766402485637" y="547.1158782544921" font-size="8px"></text><text class="label" x="222.55394339416836" y="560.3171983865053" font-size="8px"></text></g><g style="font-size: 13px;"><rect x="150" y="571.5859919325266" width="98.43518211886852" height="12.541254125412543" fill="#4472c4"></rect><rect x="150" y="584.7873120645397" width="79.59777050256159" height="12.541254125412543" fill="#ed7d31"></rect><rect x="150" y="597.9886321965529" width="88.34751596770069" height="12.541254125412543" fill="#a5a5a5"></rect><rect x="150" y="611.1899523285662" width="67.55394339416836" height="12.541254125412543" fill="#ffc000"></rect><rect x="150" y="624.3912724605793" width="78.22409840103943" height="12.541254125412543" fill="#5b9bd5"></rect><text class="label" x="256.9351821188685" y="580.0859919325266" font-size="10px">1.46x</text><text class="label" x="238.0977705025616" y="593.2873120645397" font-size="10px">1.18x</text><text class="label" x="246.8475159677007" y="606.4886321965529" font-size="10px">1.31x</text><text class="label" x="226.05394339416836" y="619.6899523285662" font-size="10px">1x</text><text class="label" x="236.72409840103944" y="632.8912724605793" font-size="10px">1.16x</text><text class="label" x="253.4351821188685" y="581.5859919325266" font-size="8px"></text><text class="label" x="234.5977705025616" y="594.7873120645397" font-size="8px"></text><text class="label" x="243.3475159677007" y="607.9886321965529" font-size="8px"></text><text class="label" x="222.55394339416836" y="621.1899523285662" font-size="8px"></text><text class="label" x="233.22409840103944" y="634.3912724605793" font-size="8px"></text></g></g></svg>