<svg xmlns="http://www.w3.org/2000/svg" xmlns:xlink="http://www.w3.org/1999/xlink" width="800" height="674" style="background-color: white;"><g class="y axis" transform="translate(149,45)" fill="none" font-size="10" font-family="sans-serif" text-anchor="end" style="font-size: 13px;"><path class="domain" stroke="currentColor" d="M0.5,0.5V480.5"></path><g class="tick" opacity="1" transform="translate(0,32.592592592592595)" style="font-size: 13px;"><line stroke="currentColor" x2="0"></line><text fill="currentColor" x="-3" dy="0.32em">object (simple)    </text></g><g class="tick" opacity="1" transform="translate(0,91.85185185185186)" style="font-size: 13px;"><line stroke="currentColor" x2="0"></line><text fill="currentColor" x="-3" dy="0.32em">object (hierarchical)    </text></g><g class="tick" opacity="1" transform="translate(0,151.11111111111111)" style="font-size: 13px;"><line stroke="currentColor" x2="0"></line><text fill="currentColor" x="-3" dy="0.32em">object (recursive)    </text></g><g class="tick" opacity="1" transform="translate(0,210.37037037037035)" style="font-size: 13px;"><line stroke="currentColor" x2="0"></line><text fill="currentColor" x="-3" dy="0.32em">object (union, explicit)    </text></g><g class="tick" opacity="1" transform="translate(0,269.6296296296296)" style="font-size: 13px;"><line stroke="currentColor" x2="0"></line><text fill="currentColor" x="-3" dy="0.32em">array (simple)    </text></g><g class="tick" opacity="1" transform="translate(0,328.8888888888889)" style="font-size: 13px;"><line stroke="currentColor" x2="0"></line><text fill="currentColor" x="-3" dy="0.32em">array (hierarchical)    </text></g><g class="tick" opacity="1" transform="translate(0,388.14814814814815)" style="font-size: 13px;"><line stroke="currentColor" x2="0"></line><text fill="currentColor" x="-3" dy="0.32em">array (recursive)    </text></g><g class="tick" opacity="1" transform="translate(0,447.40740740740745)" style="font-size: 13px;"><line stroke="currentColor" x2="0"></line><text fill="currentColor" x="-3" dy="0.32em">array (union, explicit)    </text></g></g><g class="x axis" transform="translate(149,525)" fill="none" font-size="10" font-family="sans-serif" text-anchor="middle" style="font-size: 13px;"><path class="domain" stroke="currentColor" d="M0.5,0.5H485.5"></path><g class="tick" opacity="1" transform="translate(0.5,0)" style="font-size: 13px;"><line stroke="currentColor" y2="6"></line><text fill="currentColor" y="9" dy="0.71em">0x</text></g><g class="tick" opacity="1" transform="translate(107.22794162935277,0)" style="font-size: 13px;"><line stroke="currentColor" y2="6"></line><text fill="currentColor" y="9" dy="0.71em">2,000,000x</text></g><g class="tick" opacity="1" transform="translate(213.95588325870554,0)" style="font-size: 13px;"><line stroke="currentColor" y2="6"></line><text fill="currentColor" y="9" dy="0.71em">4,000,000x</text></g><g class="tick" opacity="1" transform="translate(320.68382488805827,0)" style="font-size: 13px;"><line stroke="currentColor" y2="6"></line><text fill="currentColor" y="9" dy="0.71em">6,000,000x</text></g><g class="tick" opacity="1" transform="translate(427.4117665174111,0)" style="font-size: 13px;"><line stroke="currentColor" y2="6"></line><text fill="currentColor" y="9" dy="0.71em">8,000,000x</text></g></g><text transform="translate(400, 30)" style="text-anchor: middle; font-size: 20px; font-weight: bold;">optimizer benchmark</text><rect x="650" y="125" width="230" height="5" fill="gray"></rect><rect x="645" y="35" width="230" height="90" fill="none" stroke="black"></rect><rect x="655" y="45" width="10" height="10" style="fill: #4472c4;"></rect><text x="670" y="55" style="font-size: 12px;">typia</text><rect x="655" y="65" width="10" height="10" style="fill: #ed7d31;"></rect><text x="670" y="75" style="font-size: 12px;">typebox</text><rect x="655" y="85" width="10" height="10" style="fill: #a5a5a5;"></rect><text x="670" y="95" style="font-size: 12px;">ajv</text><rect x="655" y="105" width="10" height="10" style="fill: #ffc000;"></rect><text x="670" y="115" style="font-size: 12px;">class-validator</text><text x="20" y="589" style="font-size: 12px;">  - CPU: 12th Gen Intel(R) Core(TM) i5-1235U</text><text x="20" y="606" style="font-size: 12px;">  - OS: win32</text><text x="20" y="623" style="font-size: 12px;">  - RAM: 16 GB</text><text x="20" y="640" style="font-size: 12px;">  - NodeJS version: v20.6.1</text><text x="20" y="657" style="font-size: 12px;">  - Typia version: v5.0.3</text><g style="font-size: 13px;"><g style="font-size: 13px;"><rect x="150" y="51.584362139917694" width="440.9090909090908" height="12.510288065843621" fill="#4472c4"></rect><rect x="150" y="64.75308641975309" width="0.012931274324131365" height="12.510288065843621" fill="#ed7d31"></rect><rect x="150" y="77.92181069958848" width="0.00005336397081467638" height="12.510288065843621" fill="#a5a5a5"></rect><rect x="150" y="91.09053497942386" width="0.01833059564591922" height="12.510288065843621" fill="#ffc000"></rect><text class="label" x="599.4090909090908" y="60.084362139917694" font-size="10px">8,262,299x</text><text class="label" x="158.51293127432413" y="73.25308641975309" font-size="10px">242x</text><text class="label" x="158.5000533639708" y="86.42181069958848" font-size="10px">1x</text><text class="label" x="158.51833059564592" y="99.59053497942386" font-size="10px">344x</text><text class="label" x="595.9090909090908" y="61.584362139917694" font-size="8px"></text><text class="label" x="155.01293127432413" y="74.75308641975309" font-size="8px"></text><text class="label" x="155.0000533639708" y="87.92181069958848" font-size="8px"></text><text class="label" x="155.01833059564592" y="101.09053497942386" font-size="8px"></text></g><g style="font-size: 13px;"><rect x="150" y="110.84362139917695" width="10.599981786436175" height="12.510288065843621" fill="#4472c4"></rect><rect x="150" y="124.01234567901236" width="0.0060259094245856725" height="12.510288065843621" fill="#ed7d31"></rect><rect x="150" y="137.18106995884773" width="0.00005336397081467638" height="12.510288065843621" fill="#a5a5a5"></rect><rect x="150" y="150.34979423868313" width="0.007862444623806558" height="12.510288065843621" fill="#ffc000"></rect><text class="label" x="169.09998178643616" y="119.34362139917695" font-size="10px">198,636x</text><text class="label" x="158.50602590942458" y="132.51234567901236" font-size="10px">113x</text><text class="label" x="158.5000533639708" y="145.68106995884773" font-size="10px">1x</text><text class="label" x="158.5078624446238" y="158.84979423868313" font-size="10px">147x</text><text class="label" x="165.59998178643616" y="120.84362139917695" font-size="8px"></text><text class="label" x="155.00602590942458" y="134.01234567901236" font-size="8px"></text><text class="label" x="155.0000533639708" y="147.18106995884773" font-size="8px"></text><text class="label" x="155.0078624446238" y="160.34979423868313" font-size="8px"></text></g><g style="font-size: 13px;"><rect x="150" y="170.10288065843622" width="4.378131700426321" height="12.510288065843621" fill="#4472c4"></rect><rect x="150" y="183.2716049382716" width="0.015329432072017039" height="12.510288065843621" fill="#ed7d31"></rect><rect x="150" y="196.440329218107" width="0.00005336397081467638" height="12.510288065843621" fill="#a5a5a5"></rect><rect x="150" y="209.6090534979424" width="0.0030985799686673514" height="12.510288065843621" fill="#ffc000"></rect><text class="label" x="162.8781317004263" y="178.60288065843622" font-size="10px">82,043x</text><text class="label" x="158.515329432072" y="191.7716049382716" font-size="10px">287x</text><text class="label" x="158.5000533639708" y="204.940329218107" font-size="10px">1x</text><text class="label" x="158.50309857996868" y="218.1090534979424" font-size="10px">58x</text><text class="label" x="159.3781317004263" y="180.10288065843622" font-size="8px"></text><text class="label" x="155.015329432072" y="193.2716049382716" font-size="8px"></text><text class="label" x="155.0000533639708" y="206.440329218107" font-size="8px"></text><text class="label" x="155.00309857996868" y="219.6090534979424" font-size="8px"></text></g><g style="font-size: 13px;"><rect x="150" y="229.36213991769546" width="1.4916633347088224" height="12.510288065843621" fill="#4472c4"></rect><rect x="150" y="242.53086419753086" width="0.006444188507027538" height="12.510288065843621" fill="#ed7d31"></rect><rect x="150" y="255.69958847736626" width="0.00005336397081467638" height="12.510288065843621" fill="#a5a5a5"></rect><rect x="150" y="268.86831275720164" width="0.007107954618704661" height="12.510288065843621" fill="#ffc000"></rect><text class="label" x="159.99166333470882" y="237.86213991769546" font-size="10px">27,953x</text><text class="label" x="158.50644418850703" y="251.03086419753086" font-size="10px">121x</text><text class="label" x="158.5000533639708" y="264.19958847736626" font-size="10px">1x</text><text class="label" x="158.5071079546187" y="277.36831275720164" font-size="10px">133x</text><text class="label" x="156.49166333470882" y="239.36213991769546" font-size="8px"></text><text class="label" x="155.00644418850703" y="252.53086419753086" font-size="8px"></text><text class="label" x="155.0000533639708" y="265.69958847736626" font-size="8px"></text><text class="label" x="155.0071079546187" y="278.86831275720164" font-size="8px"></text></g><g style="font-size: 13px;"><rect x="150" y="288.6213991769547" width="3.0101912644070197" height="12.510288065843621" fill="#4472c4"></rect><rect x="150" y="301.7901234567901" width="0.03782298488203375" height="12.510288065843621" fill="#ed7d31"></rect><rect x="150" y="314.9588477366255" width="0.00005336397081467638" height="12.510288065843621" fill="#a5a5a5"></rect><rect x="150" y="328.12757201646093" width="0.007264516030671118" height="12.510288065843621" fill="#ffc000"></rect><text class="label" x="161.510191264407" y="297.1213991769547" font-size="10px">56,409x</text><text class="label" x="158.53782298488204" y="310.2901234567901" font-size="10px">709x</text><text class="label" x="158.5000533639708" y="323.4588477366255" font-size="10px">1x</text><text class="label" x="158.50726451603066" y="336.62757201646093" font-size="10px">136x</text><text class="label" x="158.010191264407" y="298.6213991769547" font-size="8px"></text><text class="label" x="155.03782298488204" y="311.7901234567901" font-size="8px"></text><text class="label" x="155.0000533639708" y="324.9588477366255" font-size="8px"></text><text class="label" x="155.00726451603066" y="338.12757201646093" font-size="8px"></text></g><g style="font-size: 13px;"><rect x="150" y="347.880658436214" width="0.15947043540662034" height="12.510288065843621" fill="#4472c4"></rect><rect x="150" y="361.04938271604937" width="0.0046849658845843295" height="12.510288065843621" fill="#ed7d31"></rect><rect x="150" y="374.2181069958848" width="0.00005336397081467638" height="12.510288065843621" fill="#a5a5a5"></rect><rect x="150" y="387.38683127572017" width="0.00015233650227991955" height="12.510288065843621" fill="#ffc000"></rect><text class="label" x="158.65947043540663" y="356.380658436214" font-size="10px">2,988x</text><text class="label" x="158.5046849658846" y="369.54938271604937" font-size="10px">88x</text><text class="label" x="158.5000533639708" y="382.7181069958848" font-size="10px">1x</text><text class="label" x="158.50015233650228" y="395.88683127572017" font-size="10px">3x</text><text class="label" x="155.15947043540663" y="357.880658436214" font-size="8px"></text><text class="label" x="155.0046849658846" y="371.04938271604937" font-size="8px"></text><text class="label" x="155.0000533639708" y="384.2181069958848" font-size="8px"></text><text class="label" x="155.00015233650228" y="397.38683127572017" font-size="8px"></text></g><g style="font-size: 13px;"><rect x="150" y="407.13991769547323" width="0.20880185703257625" height="12.510288065843621" fill="#4472c4"></rect><rect x="150" y="420.3086419753086" width="0.015536535965982633" height="12.510288065843621" fill="#ed7d31"></rect><rect x="150" y="433.47736625514403" width="0.00005336397081467638" height="12.510288065843621" fill="#a5a5a5"></rect><rect x="150" y="446.6460905349794" width="0.0002605890199533715" height="12.510288065843621" fill="#ffc000"></rect><text class="label" x="158.70880185703257" y="415.63991769547323" font-size="10px">3,913x</text><text class="label" x="158.515536535966" y="428.8086419753086" font-size="10px">291x</text><text class="label" x="158.5000533639708" y="441.97736625514403" font-size="10px">1x</text><text class="label" x="158.50026058901994" y="455.1460905349794" font-size="10px">5x</text><text class="label" x="155.20880185703257" y="417.13991769547323" font-size="8px"></text><text class="label" x="155.015536535966" y="430.3086419753086" font-size="8px"></text><text class="label" x="155.0000533639708" y="443.47736625514403" font-size="8px"></text><text class="label" x="155.00026058901994" y="456.6460905349794" font-size="8px"></text></g><g style="font-size: 13px;"><rect x="150" y="466.3991769547325" width="0.3890634042320082" height="12.510288065843621" fill="#4472c4"></rect><rect x="150" y="479.5679012345679" width="0.009564420583311362" height="12.510288065843621" fill="#ed7d31"></rect><rect x="150" y="492.73662551440333" width="0.00005336397081467638" height="12.510288065843621" fill="#a5a5a5"></rect><rect x="150" y="505.9053497942387" width="0.0025072527285403025" height="12.510288065843621" fill="#ffc000"></rect><text class="label" x="158.88906340423202" y="474.8991769547325" font-size="10px">7,291x</text><text class="label" x="158.5095644205833" y="488.0679012345679" font-size="10px">179x</text><text class="label" x="158.5000533639708" y="501.23662551440333" font-size="10px">1x</text><text class="label" x="158.50250725272855" y="514.4053497942386" font-size="10px">47x</text><text class="label" x="155.38906340423202" y="476.3991769547325" font-size="8px"></text><text class="label" x="155.0095644205833" y="489.5679012345679" font-size="8px"></text><text class="label" x="155.0000533639708" y="502.73662551440333" font-size="8px"></text><text class="label" x="155.00250725272855" y="515.9053497942386" font-size="8px"></text></g></g></svg>