<svg xmlns="http://www.w3.org/2000/svg" xmlns:xlink="http://www.w3.org/1999/xlink" width="800" height="914" style="background-color: white;"><g class="y axis" transform="translate(149,45)" fill="none" font-size="10" font-family="sans-serif" text-anchor="end" style="font-size: 13px;"><path class="domain" stroke="currentColor" d="M0.5,0.5V720.5"></path><g class="tick" opacity="1" transform="translate(0,48.88888888888886)" style="font-size: 13px;"><line stroke="currentColor" x2="0"></line><text fill="currentColor" x="-3" dy="0.32em">object (simple)    </text></g><g class="tick" opacity="1" transform="translate(0,137.77777777777774)" style="font-size: 13px;"><line stroke="currentColor" x2="0"></line><text fill="currentColor" x="-3" dy="0.32em">object (hierarchical)    </text></g><g class="tick" opacity="1" transform="translate(0,226.66666666666663)" style="font-size: 13px;"><line stroke="currentColor" x2="0"></line><text fill="currentColor" x="-3" dy="0.32em">object (recursive)    </text></g><g class="tick" opacity="1" transform="translate(0,315.5555555555555)" style="font-size: 13px;"><line stroke="currentColor" x2="0"></line><text fill="currentColor" x="-3" dy="0.32em">object (union, explicit)    </text></g><g class="tick" opacity="1" transform="translate(0,404.4444444444444)" style="font-size: 13px;"><line stroke="currentColor" x2="0"></line><text fill="currentColor" x="-3" dy="0.32em">array (simple)    </text></g><g class="tick" opacity="1" transform="translate(0,493.3333333333333)" style="font-size: 13px;"><line stroke="currentColor" x2="0"></line><text fill="currentColor" x="-3" dy="0.32em">array (hierarchical)    </text></g><g class="tick" opacity="1" transform="translate(0,582.2222222222222)" style="font-size: 13px;"><line stroke="currentColor" x2="0"></line><text fill="currentColor" x="-3" dy="0.32em">array (recursive)    </text></g><g class="tick" opacity="1" transform="translate(0,671.1111111111111)" style="font-size: 13px;"><line stroke="currentColor" x2="0"></line><text fill="currentColor" x="-3" dy="0.32em">array (union, explicit)    </text></g></g><g class="x axis" transform="translate(149,765)" fill="none" font-size="10" font-family="sans-serif" text-anchor="middle" style="font-size: 13px;"><path class="domain" stroke="currentColor" d="M0.5,0.5H485.5"></path><g class="tick" opacity="1" transform="translate(0.5,0)" style="font-size: 13px;"><line stroke="currentColor" y2="6"></line><text fill="currentColor" y="9" dy="0.71em">0x</text></g><g class="tick" opacity="1" transform="translate(101.46457568883416,0)" style="font-size: 13px;"><line stroke="currentColor" y2="6"></line><text fill="currentColor" y="9" dy="0.71em">50x</text></g><g class="tick" opacity="1" transform="translate(202.42915137766832,0)" style="font-size: 13px;"><line stroke="currentColor" y2="6"></line><text fill="currentColor" y="9" dy="0.71em">100x</text></g><g class="tick" opacity="1" transform="translate(303.3937270665025,0)" style="font-size: 13px;"><line stroke="currentColor" y2="6"></line><text fill="currentColor" y="9" dy="0.71em">150x</text></g><g class="tick" opacity="1" transform="translate(404.35830275533664,0)" style="font-size: 13px;"><line stroke="currentColor" y2="6"></line><text fill="currentColor" y="9" dy="0.71em">200x</text></g></g><text transform="translate(400, 30)" style="text-anchor: middle; font-size: 20px; font-weight: bold;">stringify benchmark</text><rect x="650" y="165" width="230" height="5" fill="gray"></rect><rect x="645" y="35" width="230" height="130" fill="none" stroke="black"></rect><rect x="655" y="45" width="10" height="10" style="fill: #4472c4;"></rect><text x="670" y="55" style="font-size: 12px;">typia.stringify</text><rect x="655" y="65" width="10" height="10" style="fill: #ed7d31;"></rect><text x="670" y="75" style="font-size: 12px;">typia.isStringify</text><rect x="655" y="85" width="10" height="10" style="fill: #a5a5a5;"></rect><text x="670" y="95" style="font-size: 12px;">typia.assertStringify</text><rect x="655" y="105" width="10" height="10" style="fill: #ffc000;"></rect><text x="670" y="115" style="font-size: 12px;">fast-json-stringify</text><rect x="655" y="125" width="10" height="10" style="fill: #5b9bd5;"></rect><text x="670" y="135" style="font-size: 12px;">JSON.stringify</text><rect x="655" y="145" width="10" height="10" style="fill: #70ad47;"></rect><text x="670" y="155" style="font-size: 12px;">class-transformer</text><text x="20" y="829" style="font-size: 12px;">  - CPU: AMD EPYC 7763 64-Core Processor</text><text x="20" y="846" style="font-size: 12px;">  - OS: linux</text><text x="20" y="863" style="font-size: 12px;">  - RAM: 31 GB</text><text x="20" y="880" style="font-size: 12px;">  - NodeJS version: v20.3.0</text><text x="20" y="897" style="font-size: 12px;">  - Typia version: v4.1.8</text><g style="font-size: 13px;"><g style="font-size: 13px;"><rect x="150" y="54.55004591368224" width="440.9090909090909" height="12.56198347107438" fill="#4472c4"></rect><rect x="150" y="67.77318640955001" width="361.63985709341875" height="12.56198347107438" fill="#ed7d31"></rect><rect x="150" y="80.99632690541777" width="335.5742281174599" height="12.56198347107438" fill="#a5a5a5"></rect><rect x="150" y="94.21946740128556" width="132.39800845124282" height="12.56198347107438" fill="#ffc000"></rect><rect x="150" y="107.44260789715332" width="40.70250299195564" height="12.56198347107438" fill="#5b9bd5"></rect><rect x="150" y="120.66574839302109" width="2.0192915137766834" height="12.56198347107438" fill="#70ad47"></rect><text class="label" x="599.4090909090909" y="63.05004591368224" font-size="10px">218x</text><text class="label" x="520.1398570934188" y="76.27318640955001" font-size="10px">179x</text><text class="label" x="494.0742281174599" y="89.49632690541777" font-size="10px">166x</text><text class="label" x="290.89800845124284" y="102.71946740128556" font-size="10px">66x</text><text class="label" x="199.20250299195564" y="115.94260789715332" font-size="10px">20x</text><text class="label" x="160.5192915137767" y="129.1657483930211" font-size="10px">1x</text><text class="label" x="595.9090909090909" y="64.55004591368224" font-size="8px"></text><text class="label" x="516.6398570934188" y="77.77318640955001" font-size="8px"></text><text class="label" x="490.5742281174599" y="90.99632690541777" font-size="8px"></text><text class="label" x="287.39800845124284" y="104.21946740128556" font-size="8px"></text><text class="label" x="195.70250299195564" y="117.44260789715332" font-size="8px"></text><text class="label" x="157.0192915137767" y="130.6657483930211" font-size="8px"></text></g><g style="font-size: 13px;"><rect x="150" y="143.4389348025711" width="74.87164809591516" height="12.56198347107438" fill="#4472c4"></rect><rect x="150" y="156.66207529843888" width="73.86391745846579" height="12.56198347107438" fill="#ed7d31"></rect><rect x="150" y="169.88521579430665" width="72.35026416709175" height="12.56198347107438" fill="#a5a5a5"></rect><rect x="150" y="183.10835629017444" width="54.086606047792245" height="12.56198347107438" fill="#ffc000"></rect><rect x="150" y="196.3314967860422" width="30.92800342849114" height="12.56198347107438" fill="#5b9bd5"></rect><rect x="150" y="209.55463728190998" width="2.0192915137766834" height="12.56198347107438" fill="#70ad47"></rect><text class="label" x="233.37164809591516" y="151.9389348025711" font-size="10px">37x</text><text class="label" x="232.36391745846578" y="165.16207529843888" font-size="10px">37x</text><text class="label" x="230.85026416709175" y="178.38521579430665" font-size="10px">36x</text><text class="label" x="212.58660604779226" y="191.60835629017444" font-size="10px">27x</text><text class="label" x="189.42800342849114" y="204.8314967860422" font-size="10px">15x</text><text class="label" x="160.5192915137767" y="218.05463728190998" font-size="10px">1x</text><text class="label" x="229.87164809591516" y="153.4389348025711" font-size="8px"></text><text class="label" x="228.86391745846578" y="166.66207529843888" font-size="8px"></text><text class="label" x="227.35026416709175" y="179.88521579430665" font-size="8px"></text><text class="label" x="209.08660604779226" y="193.10835629017444" font-size="8px"></text><text class="label" x="185.92800342849114" y="206.3314967860422" font-size="8px"></text><text class="label" x="157.0192915137767" y="219.55463728190998" font-size="8px"></text></g><g style="font-size: 13px;"><rect x="150" y="232.32782369146003" width="116.41125107907953" height="12.56198347107438" fill="#4472c4"></rect><rect x="150" y="245.5509641873278" width="109.3281365042695" height="12.56198347107438" fill="#ed7d31"></rect><rect x="150" y="258.77410468319556" width="105.52657928383293" height="12.56198347107438" fill="#a5a5a5"></rect><rect x="150" y="271.9972451790633" width="32.118921898042736" height="12.56198347107438" fill="#ffc000"></rect><rect x="150" y="285.2203856749311" width="39.20415444368133" height="12.56198347107438" fill="#5b9bd5"></rect><rect x="150" y="298.44352617079886" width="2.0192915137766834" height="12.56198347107438" fill="#70ad47"></rect><text class="label" x="274.91125107907953" y="240.82782369146003" font-size="10px">58x</text><text class="label" x="267.8281365042695" y="254.0509641873278" font-size="10px">54x</text><text class="label" x="264.0265792838329" y="267.27410468319556" font-size="10px">52x</text><text class="label" x="190.61892189804274" y="280.4972451790633" font-size="10px">16x</text><text class="label" x="197.70415444368132" y="293.7203856749311" font-size="10px">19x</text><text class="label" x="160.5192915137767" y="306.94352617079886" font-size="10px">1x</text><text class="label" x="271.41125107907953" y="242.32782369146003" font-size="8px"></text><text class="label" x="264.3281365042695" y="255.5509641873278" font-size="8px"></text><text class="label" x="260.5265792838329" y="268.77410468319556" font-size="8px"></text><text class="label" x="187.11892189804274" y="281.9972451790633" font-size="8px"></text><text class="label" x="194.20415444368132" y="295.2203856749311" font-size="8px"></text><text class="label" x="157.0192915137767" y="308.44352617079886" font-size="8px"></text></g><g style="font-size: 13px;"><rect x="150" y="321.2167125803489" width="84.08136453090016" height="12.56198347107438" fill="#4472c4"></rect><rect x="150" y="334.43985307621665" width="75.6105731987362" height="12.56198347107438" fill="#ed7d31"></rect><rect x="150" y="347.6629935720844" width="73.5505891621929" height="12.56198347107438" fill="#a5a5a5"></rect><rect x="150" y="360.8861340679522" width="58.511362790154315" height="12.56198347107438" fill="#ffc000"></rect><rect x="150" y="374.10927456381995" width="54.47582585444345" height="12.56198347107438" fill="#5b9bd5"></rect><rect x="150" y="387.3324150596877" width="2.0192915137766834" height="12.56198347107438" fill="#70ad47"></rect><text class="label" x="242.58136453090015" y="329.7167125803489" font-size="10px">42x</text><text class="label" x="234.1105731987362" y="342.93985307621665" font-size="10px">37x</text><text class="label" x="232.05058916219292" y="356.1629935720844" font-size="10px">36x</text><text class="label" x="217.01136279015432" y="369.3861340679522" font-size="10px">29x</text><text class="label" x="212.97582585444346" y="382.60927456381995" font-size="10px">27x</text><text class="label" x="160.5192915137767" y="395.8324150596877" font-size="10px">1x</text><text class="label" x="239.08136453090015" y="331.2167125803489" font-size="8px"></text><text class="label" x="230.6105731987362" y="344.43985307621665" font-size="8px"></text><text class="label" x="228.55058916219292" y="357.6629935720844" font-size="8px"></text><text class="label" x="213.51136279015432" y="370.8861340679522" font-size="8px"></text><text class="label" x="209.47582585444346" y="384.10927456381995" font-size="8px"></text><text class="label" x="157.0192915137767" y="397.3324150596877" font-size="8px"></text></g><g style="font-size: 13px;"><rect x="150" y="410.1056014692378" width="37.923649688220934" height="12.56198347107438" fill="#4472c4"></rect><rect x="150" y="423.32874196510556" width="38.119997842846914" height="12.56198347107438" fill="#ed7d31"></rect><rect x="150" y="436.55188246097333" width="37.84010539181737" height="12.56198347107438" fill="#a5a5a5"></rect><rect x="150" y="449.7750229568411" width="61.44117657098552" height="12.56198347107438" fill="#ffc000"></rect><rect x="150" y="462.99816345270887" width="36.10835371806031" height="12.56198347107438" fill="#5b9bd5"></rect><rect x="150" y="476.22130394857663" width="2.0192915137766834" height="12.56198347107438" fill="#70ad47"></rect><text class="label" x="196.42364968822093" y="418.6056014692378" font-size="10px">19x</text><text class="label" x="196.6199978428469" y="431.82874196510556" font-size="10px">19x</text><text class="label" x="196.34010539181736" y="445.05188246097333" font-size="10px">19x</text><text class="label" x="219.94117657098553" y="458.2750229568411" font-size="10px">30x</text><text class="label" x="194.6083537180603" y="471.49816345270887" font-size="10px">18x</text><text class="label" x="160.5192915137767" y="484.72130394857663" font-size="10px">1x</text><text class="label" x="192.92364968822093" y="420.1056014692378" font-size="8px"></text><text class="label" x="193.1199978428469" y="433.32874196510556" font-size="8px"></text><text class="label" x="192.84010539181736" y="446.55188246097333" font-size="8px"></text><text class="label" x="216.44117657098553" y="459.7750229568411" font-size="8px"></text><text class="label" x="191.1083537180603" y="472.99816345270887" font-size="8px"></text><text class="label" x="157.0192915137767" y="486.22130394857663" font-size="8px"></text></g><g style="font-size: 13px;"><rect x="150" y="498.9944903581267" width="67.61598029450043" height="12.56198347107438" fill="#4472c4"></rect><rect x="150" y="512.2176308539945" width="63.70349747592291" height="12.56198347107438" fill="#ed7d31"></rect><rect x="150" y="525.4407713498622" width="65.31516950225634" height="12.56198347107438" fill="#a5a5a5"></rect><rect x="150" y="538.66391184573" width="102.58854153858026" height="12.56198347107438" fill="#ffc000"></rect><rect x="150" y="551.8870523415978" width="47.129139715859445" height="12.56198347107438" fill="#5b9bd5"></rect><rect x="150" y="565.1101928374655" width="2.0192915137766834" height="12.56198347107438" fill="#70ad47"></rect><text class="label" x="226.11598029450045" y="507.4944903581267" font-size="10px">33x</text><text class="label" x="222.20349747592292" y="520.7176308539945" font-size="10px">32x</text><text class="label" x="223.81516950225634" y="533.9407713498622" font-size="10px">32x</text><text class="label" x="261.0885415385803" y="547.16391184573" font-size="10px">51x</text><text class="label" x="205.62913971585945" y="560.3870523415978" font-size="10px">23x</text><text class="label" x="160.5192915137767" y="573.6101928374655" font-size="10px">1x</text><text class="label" x="222.61598029450045" y="508.9944903581267" font-size="8px"></text><text class="label" x="218.70349747592292" y="522.2176308539945" font-size="8px"></text><text class="label" x="220.31516950225634" y="535.4407713498622" font-size="8px"></text><text class="label" x="257.5885415385803" y="548.66391184573" font-size="8px"></text><text class="label" x="202.12913971585945" y="561.8870523415978" font-size="8px"></text><text class="label" x="157.0192915137767" y="575.1101928374655" font-size="8px"></text></g><g style="font-size: 13px;"><rect x="150" y="587.8833792470156" width="50.713176536193444" height="12.56198347107438" fill="#4472c4"></rect><rect x="150" y="601.1065197428833" width="49.62702339378838" height="12.56198347107438" fill="#ed7d31"></rect><rect x="150" y="614.3296602387511" width="49.167811943434714" height="12.56198347107438" fill="#a5a5a5"></rect><rect x="150" y="627.5528007346188" width="100.8839978921337" height="12.56198347107438" fill="#ffc000"></rect><rect x="150" y="640.7759412304866" width="37.58474917842729" height="12.56198347107438" fill="#5b9bd5"></rect><rect x="150" y="653.9990817263545" width="2.0192915137766834" height="12.56198347107438" fill="#70ad47"></rect><text class="label" x="209.21317653619343" y="596.3833792470156" font-size="10px">25x</text><text class="label" x="208.12702339378836" y="609.6065197428833" font-size="10px">25x</text><text class="label" x="207.6678119434347" y="622.8296602387511" font-size="10px">24x</text><text class="label" x="259.3839978921337" y="636.0528007346188" font-size="10px">50x</text><text class="label" x="196.08474917842727" y="649.2759412304866" font-size="10px">19x</text><text class="label" x="160.5192915137767" y="662.4990817263545" font-size="10px">1x</text><text class="label" x="205.71317653619343" y="597.8833792470156" font-size="8px"></text><text class="label" x="204.62702339378836" y="611.1065197428833" font-size="8px"></text><text class="label" x="204.1678119434347" y="624.3296602387511" font-size="8px"></text><text class="label" x="255.88399789213372" y="637.5528007346188" font-size="8px"></text><text class="label" x="192.58474917842727" y="650.7759412304866" font-size="8px"></text><text class="label" x="157.0192915137767" y="663.9990817263545" font-size="8px"></text></g><g style="font-size: 13px;"><rect x="150" y="676.7722681359045" width="49.663850199917164" height="12.56198347107438" fill="#4472c4"></rect><rect x="150" y="689.9954086317722" width="47.42441385738732" height="12.56198347107438" fill="#ed7d31"></rect><rect x="150" y="703.21854912764" width="45.85860885194264" height="12.56198347107438" fill="#a5a5a5"></rect><rect x="150" y="716.4416896235077" width="11.774845243082213" height="12.56198347107438" fill="#ffc000"></rect><rect x="150" y="729.6648301193756" width="53.6678111706283" height="12.56198347107438" fill="#5b9bd5"></rect><rect x="150" y="742.8879706152434" width="2.0192915137766834" height="12.56198347107438" fill="#70ad47"></rect><text class="label" x="208.16385019991716" y="685.2722681359045" font-size="10px">25x</text><text class="label" x="205.92441385738732" y="698.4954086317722" font-size="10px">23x</text><text class="label" x="204.35860885194265" y="711.71854912764" font-size="10px">23x</text><text class="label" x="170.2748452430822" y="724.9416896235077" font-size="10px">6x</text><text class="label" x="212.16781117062828" y="738.1648301193756" font-size="10px">27x</text><text class="label" x="160.5192915137767" y="751.3879706152434" font-size="10px">1x</text><text class="label" x="204.66385019991716" y="686.7722681359045" font-size="8px"></text><text class="label" x="202.42441385738732" y="699.9954086317722" font-size="8px"></text><text class="label" x="200.85860885194265" y="713.21854912764" font-size="8px"></text><text class="label" x="166.7748452430822" y="726.4416896235077" font-size="8px"></text><text class="label" x="208.66781117062828" y="739.6648301193756" font-size="8px"></text><text class="label" x="157.0192915137767" y="752.8879706152434" font-size="8px"></text></g></g></svg>