<svg xmlns="http://www.w3.org/2000/svg" xmlns:xlink="http://www.w3.org/1999/xlink" width="800" height="674" style="background-color: white;"><g class="y axis" transform="translate(149,45)" fill="none" font-size="10" font-family="sans-serif" text-anchor="end" style="font-size: 13px;"><path class="domain" stroke="currentColor" d="M0.5,0.5V480.5"></path><g class="tick" opacity="1" transform="translate(0,32.592592592592595)" style="font-size: 13px;"><line stroke="currentColor" x2="0"></line><text fill="currentColor" x="-3" dy="0.32em">object (simple)    </text></g><g class="tick" opacity="1" transform="translate(0,91.85185185185186)" style="font-size: 13px;"><line stroke="currentColor" x2="0"></line><text fill="currentColor" x="-3" dy="0.32em">object (hierarchical)    </text></g><g class="tick" opacity="1" transform="translate(0,151.11111111111111)" style="font-size: 13px;"><line stroke="currentColor" x2="0"></line><text fill="currentColor" x="-3" dy="0.32em">object (recursive)    </text></g><g class="tick" opacity="1" transform="translate(0,210.37037037037035)" style="font-size: 13px;"><line stroke="currentColor" x2="0"></line><text fill="currentColor" x="-3" dy="0.32em">object (union, explicit)    </text></g><g class="tick" opacity="1" transform="translate(0,269.6296296296296)" style="font-size: 13px;"><line stroke="currentColor" x2="0"></line><text fill="currentColor" x="-3" dy="0.32em">array (simple)    </text></g><g class="tick" opacity="1" transform="translate(0,328.8888888888889)" style="font-size: 13px;"><line stroke="currentColor" x2="0"></line><text fill="currentColor" x="-3" dy="0.32em">array (hierarchical)    </text></g><g class="tick" opacity="1" transform="translate(0,388.14814814814815)" style="font-size: 13px;"><line stroke="currentColor" x2="0"></line><text fill="currentColor" x="-3" dy="0.32em">array (recursive)    </text></g><g class="tick" opacity="1" transform="translate(0,447.40740740740745)" style="font-size: 13px;"><line stroke="currentColor" x2="0"></line><text fill="currentColor" x="-3" dy="0.32em">array (union, explicit)    </text></g></g><g class="x axis" transform="translate(149,525)" fill="none" font-size="10" font-family="sans-serif" text-anchor="middle" style="font-size: 13px;"><path class="domain" stroke="currentColor" d="M0.5,0.5H485.5"></path><g class="tick" opacity="1" transform="translate(0.5,0)" style="font-size: 13px;"><line stroke="currentColor" y2="6"></line><text fill="currentColor" y="9" dy="0.71em">0x</text></g><g class="tick" opacity="1" transform="translate(96.75132286241366,0)" style="font-size: 13px;"><line stroke="currentColor" y2="6"></line><text fill="currentColor" y="9" dy="0.71em">1,000,000x</text></g><g class="tick" opacity="1" transform="translate(193.00264572482732,0)" style="font-size: 13px;"><line stroke="currentColor" y2="6"></line><text fill="currentColor" y="9" dy="0.71em">2,000,000x</text></g><g class="tick" opacity="1" transform="translate(289.25396858724093,0)" style="font-size: 13px;"><line stroke="currentColor" y2="6"></line><text fill="currentColor" y="9" dy="0.71em">3,000,000x</text></g><g class="tick" opacity="1" transform="translate(385.50529144965464,0)" style="font-size: 13px;"><line stroke="currentColor" y2="6"></line><text fill="currentColor" y="9" dy="0.71em">4,000,000x</text></g><g class="tick" opacity="1" transform="translate(481.7566143120683,0)" style="font-size: 13px;"><line stroke="currentColor" y2="6"></line><text fill="currentColor" y="9" dy="0.71em">5,000,000x</text></g></g><text transform="translate(400, 30)" style="text-anchor: middle; font-size: 20px; font-weight: bold;">optimizer benchmark</text><rect x="650" y="125" width="230" height="5" fill="gray"></rect><rect x="645" y="35" width="230" height="90" fill="none" stroke="black"></rect><rect x="655" y="45" width="10" height="10" style="fill: #4472c4;"></rect><text x="670" y="55" style="font-size: 12px;">typia</text><rect x="655" y="65" width="10" height="10" style="fill: #ed7d31;"></rect><text x="670" y="75" style="font-size: 12px;">typebox</text><rect x="655" y="85" width="10" height="10" style="fill: #a5a5a5;"></rect><text x="670" y="95" style="font-size: 12px;">ajv</text><rect x="655" y="105" width="10" height="10" style="fill: #ffc000;"></rect><text x="670" y="115" style="font-size: 12px;">class-validator</text><text x="20" y="589" style="font-size: 12px;">  - CPU: AMD EPYC 7763 64-Core Processor</text><text x="20" y="606" style="font-size: 12px;">  - OS: linux</text><text x="20" y="623" style="font-size: 12px;">  - RAM: 31 GB</text><text x="20" y="640" style="font-size: 12px;">  - NodeJS version: v20.3.0</text><text x="20" y="657" style="font-size: 12px;">  - Typia version: v4.1.8</text><g style="font-size: 13px;"><g style="font-size: 13px;"><rect x="150" y="51.584362139917694" width="440.9090909090908" height="12.510288065843621" fill="#4472c4"></rect><rect x="150" y="64.75308641975309" width="0.023934058470046423" height="12.510288065843621" fill="#ed7d31"></rect><rect x="150" y="77.92181069958848" width="0.00009625132286241365" height="12.510288065843621" fill="#a5a5a5"></rect><rect x="150" y="91.09053497942386" width="0.02885843604617131" height="12.510288065843621" fill="#ffc000"></rect><text class="label" x="599.4090909090908" y="60.084362139917694" font-size="10px">4,580,811x</text><text class="label" x="158.52393405847005" y="73.25308641975309" font-size="10px">249x</text><text class="label" x="158.50009625132287" y="86.42181069958848" font-size="10px">1x</text><text class="label" x="158.52885843604616" y="99.59053497942386" font-size="10px">300x</text><text class="label" x="595.9090909090908" y="61.584362139917694" font-size="8px"></text><text class="label" x="155.02393405847005" y="74.75308641975309" font-size="8px"></text><text class="label" x="155.00009625132287" y="87.92181069958848" font-size="8px"></text><text class="label" x="155.02885843604616" y="101.09053497942386" font-size="8px"></text></g><g style="font-size: 13px;"><rect x="150" y="110.84362139917695" width="35.43318280061054" height="12.510288065843621" fill="#4472c4"></rect><rect x="150" y="124.01234567901236" width="0.011418840555132773" height="12.510288065843621" fill="#ed7d31"></rect><rect x="150" y="137.18106995884773" width="0.00009625132286241365" height="12.510288065843621" fill="#a5a5a5"></rect><rect x="150" y="150.34979423868313" width="0.012718039054307797" height="12.510288065843621" fill="#ffc000"></rect><text class="label" x="193.93318280061055" y="119.34362139917695" font-size="10px">368,132x</text><text class="label" x="158.51141884055514" y="132.51234567901236" font-size="10px">119x</text><text class="label" x="158.50009625132287" y="145.68106995884773" font-size="10px">1x</text><text class="label" x="158.5127180390543" y="158.84979423868313" font-size="10px">132x</text><text class="label" x="190.43318280061055" y="120.84362139917695" font-size="8px"></text><text class="label" x="155.01141884055514" y="134.01234567901236" font-size="8px"></text><text class="label" x="155.00009625132287" y="147.18106995884773" font-size="8px"></text><text class="label" x="155.0127180390543" y="160.34979423868313" font-size="8px"></text></g><g style="font-size: 13px;"><rect x="150" y="170.10288065843622" width="6.341922227370588" height="12.510288065843621" fill="#4472c4"></rect><rect x="150" y="183.2716049382716" width="0.02099589428238866" height="12.510288065843621" fill="#ed7d31"></rect><rect x="150" y="196.440329218107" width="0.00009625132286241365" height="12.510288065843621" fill="#a5a5a5"></rect><rect x="150" y="209.6090534979424" width="0.005507167964455692" height="12.510288065843621" fill="#ffc000"></rect><text class="label" x="164.8419222273706" y="178.60288065843622" font-size="10px">65,889x</text><text class="label" x="158.52099589428238" y="191.7716049382716" font-size="10px">218x</text><text class="label" x="158.50009625132287" y="204.940329218107" font-size="10px">1x</text><text class="label" x="158.50550716796445" y="218.1090534979424" font-size="10px">57x</text><text class="label" x="161.3419222273706" y="180.10288065843622" font-size="8px"></text><text class="label" x="155.02099589428238" y="193.2716049382716" font-size="8px"></text><text class="label" x="155.00009625132287" y="206.440329218107" font-size="8px"></text><text class="label" x="155.00550716796445" y="219.6090534979424" font-size="8px"></text></g><g style="font-size: 13px;"><rect x="150" y="229.36213991769546" width="2.5231741607599156" height="12.510288065843621" fill="#4472c4"></rect><rect x="150" y="242.53086419753086" width="0.01218396562094175" height="12.510288065843621" fill="#ed7d31"></rect><rect x="150" y="255.69958847736626" width="0.00009625132286241365" height="12.510288065843621" fill="#a5a5a5"></rect><rect x="150" y="268.86831275720164" width="0.006288278453340358" height="12.510288065843621" fill="#ffc000"></rect><text class="label" x="161.0231741607599" y="237.86213991769546" font-size="10px">26,214x</text><text class="label" x="158.51218396562095" y="251.03086419753086" font-size="10px">127x</text><text class="label" x="158.50009625132287" y="264.19958847736626" font-size="10px">1x</text><text class="label" x="158.50628827845335" y="277.36831275720164" font-size="10px">65x</text><text class="label" x="157.5231741607599" y="239.36213991769546" font-size="8px"></text><text class="label" x="155.01218396562095" y="252.53086419753086" font-size="8px"></text><text class="label" x="155.00009625132287" y="265.69958847736626" font-size="8px"></text><text class="label" x="155.00628827845335" y="278.86831275720164" font-size="8px"></text></g><g style="font-size: 13px;"><rect x="150" y="288.6213991769547" width="5.485073318503283" height="12.510288065843621" fill="#4472c4"></rect><rect x="150" y="301.7901234567901" width="0.07726971895064842" height="12.510288065843621" fill="#ed7d31"></rect><rect x="150" y="314.9588477366255" width="0.00009625132286241365" height="12.510288065843621" fill="#a5a5a5"></rect><rect x="150" y="328.12757201646093" width="0.013535578394307598" height="12.510288065843621" fill="#ffc000"></rect><text class="label" x="163.98507331850328" y="297.1213991769547" font-size="10px">56,987x</text><text class="label" x="158.57726971895065" y="310.2901234567901" font-size="10px">803x</text><text class="label" x="158.50009625132287" y="323.4588477366255" font-size="10px">1x</text><text class="label" x="158.5135355783943" y="336.62757201646093" font-size="10px">141x</text><text class="label" x="160.48507331850328" y="298.6213991769547" font-size="8px"></text><text class="label" x="155.07726971895065" y="311.7901234567901" font-size="8px"></text><text class="label" x="155.00009625132287" y="324.9588477366255" font-size="8px"></text><text class="label" x="155.0135355783943" y="338.12757201646093" font-size="8px"></text></g><g style="font-size: 13px;"><rect x="150" y="347.880658436214" width="0.35115512736559806" height="12.510288065843621" fill="#4472c4"></rect><rect x="150" y="361.04938271604937" width="0.028307123722119135" height="12.510288065843621" fill="#ed7d31"></rect><rect x="150" y="374.2181069958848" width="0.00009625132286241365" height="12.510288065843621" fill="#a5a5a5"></rect><rect x="150" y="387.38683127572017" width="0.0003780116564625192" height="12.510288065843621" fill="#ffc000"></rect><text class="label" x="158.8511551273656" y="356.380658436214" font-size="10px">3,648x</text><text class="label" x="158.52830712372213" y="369.54938271604937" font-size="10px">294x</text><text class="label" x="158.50009625132287" y="382.7181069958848" font-size="10px">1x</text><text class="label" x="158.50037801165647" y="395.88683127572017" font-size="10px">4x</text><text class="label" x="155.3511551273656" y="357.880658436214" font-size="8px"></text><text class="label" x="155.02830712372213" y="371.04938271604937" font-size="8px"></text><text class="label" x="155.00009625132287" y="384.2181069958848" font-size="8px"></text><text class="label" x="155.00037801165647" y="397.38683127572017" font-size="8px"></text></g><g style="font-size: 13px;"><rect x="150" y="407.13991769547323" width="0.3563501395823242" height="12.510288065843621" fill="#4472c4"></rect><rect x="150" y="420.3086419753086" width="0.022652504093836255" height="12.510288065843621" fill="#ed7d31"></rect><rect x="150" y="433.47736625514403" width="0.00009625132286241365" height="12.510288065843621" fill="#a5a5a5"></rect><rect x="150" y="446.6460905349794" width="0.00031207964493397715" height="12.510288065843621" fill="#ffc000"></rect><text class="label" x="158.85635013958233" y="415.63991769547323" font-size="10px">3,702x</text><text class="label" x="158.52265250409383" y="428.8086419753086" font-size="10px">235x</text><text class="label" x="158.50009625132287" y="441.97736625514403" font-size="10px">1x</text><text class="label" x="158.50031207964494" y="455.1460905349794" font-size="10px">3x</text><text class="label" x="155.35635013958233" y="417.13991769547323" font-size="8px"></text><text class="label" x="155.02265250409383" y="430.3086419753086" font-size="8px"></text><text class="label" x="155.00009625132287" y="443.47736625514403" font-size="8px"></text><text class="label" x="155.00031207964494" y="456.6460905349794" font-size="8px"></text></g><g style="font-size: 13px;"><rect x="150" y="466.3991769547325" width="0.6907800452375538" height="12.510288065843621" fill="#4472c4"></rect><rect x="150" y="479.5679012345679" width="0.018293243417990046" height="12.510288065843621" fill="#ed7d31"></rect><rect x="150" y="492.73662551440333" width="0.00009625132286241365" height="12.510288065843621" fill="#a5a5a5"></rect><rect x="150" y="505.9053497942387" width="0.004252172179429996" height="12.510288065843621" fill="#ffc000"></rect><text class="label" x="159.19078004523755" y="474.8991769547325" font-size="10px">7,177x</text><text class="label" x="158.518293243418" y="488.0679012345679" font-size="10px">190x</text><text class="label" x="158.50009625132287" y="501.23662551440333" font-size="10px">1x</text><text class="label" x="158.50425217217943" y="514.4053497942386" font-size="10px">44x</text><text class="label" x="155.69078004523755" y="476.3991769547325" font-size="8px"></text><text class="label" x="155.018293243418" y="489.5679012345679" font-size="8px"></text><text class="label" x="155.00009625132287" y="502.73662551440333" font-size="8px"></text><text class="label" x="155.00425217217943" y="515.9053497942386" font-size="8px"></text></g></g></svg>