<svg xmlns="http://www.w3.org/2000/svg" xmlns:xlink="http://www.w3.org/1999/xlink" width="800" height="914" style="background-color: white;"><g class="y axis" transform="translate(149,45)" fill="none" font-size="10" font-family="sans-serif" text-anchor="end" style="font-size: 13px;"><path class="domain" stroke="currentColor" d="M0.5,0.5V720.5"></path><g class="tick" opacity="1" transform="translate(0,48.88888888888886)" style="font-size: 13px;"><line stroke="currentColor" x2="0"></line><text fill="currentColor" x="-3" dy="0.32em">object (simple)    </text></g><g class="tick" opacity="1" transform="translate(0,137.77777777777774)" style="font-size: 13px;"><line stroke="currentColor" x2="0"></line><text fill="currentColor" x="-3" dy="0.32em">object (hierarchical)    </text></g><g class="tick" opacity="1" transform="translate(0,226.66666666666663)" style="font-size: 13px;"><line stroke="currentColor" x2="0"></line><text fill="currentColor" x="-3" dy="0.32em">object (recursive)    </text></g><g class="tick" opacity="1" transform="translate(0,315.5555555555555)" style="font-size: 13px;"><line stroke="currentColor" x2="0"></line><text fill="currentColor" x="-3" dy="0.32em">object (union, explicit)    </text></g><g class="tick" opacity="1" transform="translate(0,404.4444444444444)" style="font-size: 13px;"><line stroke="currentColor" x2="0"></line><text fill="currentColor" x="-3" dy="0.32em">array (simple)    </text></g><g class="tick" opacity="1" transform="translate(0,493.3333333333333)" style="font-size: 13px;"><line stroke="currentColor" x2="0"></line><text fill="currentColor" x="-3" dy="0.32em">array (hierarchical)    </text></g><g class="tick" opacity="1" transform="translate(0,582.2222222222222)" style="font-size: 13px;"><line stroke="currentColor" x2="0"></line><text fill="currentColor" x="-3" dy="0.32em">array (recursive)    </text></g><g class="tick" opacity="1" transform="translate(0,671.1111111111111)" style="font-size: 13px;"><line stroke="currentColor" x2="0"></line><text fill="currentColor" x="-3" dy="0.32em">array (union, explicit)    </text></g></g><g class="x axis" transform="translate(149,765)" fill="none" font-size="10" font-family="sans-serif" text-anchor="middle" style="font-size: 13px;"><path class="domain" stroke="currentColor" d="M0.5,0.5H485.5"></path><g class="tick" opacity="1" transform="translate(0.5,0)" style="font-size: 13px;"><line stroke="currentColor" y2="6"></line><text fill="currentColor" y="9" dy="0.71em">0x</text></g><g class="tick" opacity="1" transform="translate(130.48268989159158,0)" style="font-size: 13px;"><line stroke="currentColor" y2="6"></line><text fill="currentColor" y="9" dy="0.71em">10x</text></g><g class="tick" opacity="1" transform="translate(260.46537978318315,0)" style="font-size: 13px;"><line stroke="currentColor" y2="6"></line><text fill="currentColor" y="9" dy="0.71em">20x</text></g><g class="tick" opacity="1" transform="translate(390.4480696747748,0)" style="font-size: 13px;"><line stroke="currentColor" y2="6"></line><text fill="currentColor" y="9" dy="0.71em">30x</text></g></g><text transform="translate(400, 30)" style="text-anchor: middle; font-size: 20px; font-weight: bold;">server-stringify benchmark</text><rect x="650" y="165" width="230" height="5" fill="gray"></rect><rect x="645" y="35" width="230" height="130" fill="none" stroke="black"></rect><rect x="655" y="45" width="10" height="10" style="fill: #4472c4;"></rect><text x="670" y="55" style="font-size: 12px;">fastify-typia</text><rect x="655" y="65" width="10" height="10" style="fill: #ed7d31;"></rect><text x="670" y="75" style="font-size: 12px;">fastify-pure</text><rect x="655" y="85" width="10" height="10" style="fill: #a5a5a5;"></rect><text x="670" y="95" style="font-size: 12px;">fastify-class-transformer</text><rect x="655" y="105" width="10" height="10" style="fill: #ffc000;"></rect><text x="670" y="115" style="font-size: 12px;">express-typia</text><rect x="655" y="125" width="10" height="10" style="fill: #5b9bd5;"></rect><text x="670" y="135" style="font-size: 12px;">express-pure</text><rect x="655" y="145" width="10" height="10" style="fill: #70ad47;"></rect><text x="670" y="155" style="font-size: 12px;">express-class-transformer</text><text x="20" y="829" style="font-size: 12px;">  - CPU: AMD EPYC 7763 64-Core Processor</text><text x="20" y="846" style="font-size: 12px;">  - OS: linux</text><text x="20" y="863" style="font-size: 12px;">  - RAM: 16 GB</text><text x="20" y="880" style="font-size: 12px;">  - NodeJS version: v20.18.1</text><text x="20" y="897" style="font-size: 12px;">  - Typia version: v7.6.0</text><g style="font-size: 13px;"><g style="font-size: 13px;"><rect x="150" y="54.55004591368224" width="288.6423645160025" height="12.56198347107438" fill="#4472c4"></rect><rect x="150" y="67.77318640955001" width="261.82309927547124" height="12.56198347107438" fill="#ed7d31"></rect><rect x="150" y="80.99632690541777" width="13.728122475398381" height="12.56198347107438" fill="#a5a5a5"></rect><rect x="150" y="94.21946740128556" width="146.47635440087515" height="12.56198347107438" fill="#ffc000"></rect><rect x="150" y="107.44260789715332" width="118.7538010895203" height="12.56198347107438" fill="#5b9bd5"></rect><rect x="150" y="120.66574839302109" width="12.99826898915916" height="12.56198347107438" fill="#70ad47"></rect><text class="label" x="447.1423645160025" y="63.05004591368224" font-size="10px">22.21x</text><text class="label" x="420.32309927547124" y="76.27318640955001" font-size="10px">20.14x</text><text class="label" x="172.22812247539838" y="89.49632690541777" font-size="10px">1.06x</text><text class="label" x="304.97635440087515" y="102.71946740128556" font-size="10px">11.27x</text><text class="label" x="277.25380108952027" y="115.94260789715332" font-size="10px">9.14x</text><text class="label" x="171.49826898915916" y="129.1657483930211" font-size="10px">1x</text><text class="label" x="443.6423645160025" y="64.55004591368224" font-size="8px"></text><text class="label" x="416.82309927547124" y="77.77318640955001" font-size="8px"></text><text class="label" x="168.72812247539838" y="90.99632690541777" font-size="8px"></text><text class="label" x="301.47635440087515" y="104.21946740128556" font-size="8px"></text><text class="label" x="273.75380108952027" y="117.44260789715332" font-size="8px"></text><text class="label" x="167.99826898915916" y="130.6657483930211" font-size="8px"></text></g><g style="font-size: 13px;"><rect x="150" y="143.4389348025711" width="228.51623828276067" height="12.56198347107438" fill="#4472c4"></rect><rect x="150" y="156.66207529843888" width="200.51169532129438" height="12.56198347107438" fill="#ed7d31"></rect><rect x="150" y="169.88521579430665" width="13.086932098677318" height="12.56198347107438" fill="#a5a5a5"></rect><rect x="150" y="183.10835629017444" width="158.7571743997553" height="12.56198347107438" fill="#ffc000"></rect><rect x="150" y="196.3314967860422" width="133.75391867879785" height="12.56198347107438" fill="#5b9bd5"></rect><rect x="150" y="209.55463728190998" width="12.99826898915916" height="12.56198347107438" fill="#70ad47"></rect><text class="label" x="387.0162382827607" y="151.9389348025711" font-size="10px">17.58x</text><text class="label" x="359.0116953212944" y="165.16207529843888" font-size="10px">15.43x</text><text class="label" x="171.58693209867732" y="178.38521579430665" font-size="10px">1.01x</text><text class="label" x="317.2571743997553" y="191.60835629017444" font-size="10px">12.21x</text><text class="label" x="292.25391867879785" y="204.8314967860422" font-size="10px">10.29x</text><text class="label" x="171.49826898915916" y="218.05463728190998" font-size="10px">1x</text><text class="label" x="383.5162382827607" y="153.4389348025711" font-size="8px"></text><text class="label" x="355.5116953212944" y="166.66207529843888" font-size="8px"></text><text class="label" x="168.08693209867732" y="179.88521579430665" font-size="8px"></text><text class="label" x="313.7571743997553" y="193.10835629017444" font-size="8px"></text><text class="label" x="288.75391867879785" y="206.3314967860422" font-size="8px"></text><text class="label" x="167.99826898915916" y="219.55463728190998" font-size="8px"></text></g><g style="font-size: 13px;"><rect x="150" y="232.32782369146003" width="275.1160024884713" height="12.56198347107438" fill="#4472c4"></rect><rect x="150" y="245.5509641873278" width="247.83112282954852" height="12.56198347107438" fill="#ed7d31"></rect><rect x="150" y="258.77410468319556" width="13.335898320240593" height="12.56198347107438" fill="#a5a5a5"></rect><rect x="150" y="271.9972451790633" width="206.62204432092227" height="12.56198347107438" fill="#ffc000"></rect><rect x="150" y="285.2203856749311" width="175.72530146018988" height="12.56198347107438" fill="#5b9bd5"></rect><rect x="150" y="298.44352617079886" width="12.99826898915916" height="12.56198347107438" fill="#70ad47"></rect><text class="label" x="433.6160024884713" y="240.82782369146003" font-size="10px">21.17x</text><text class="label" x="406.3311228295485" y="254.0509641873278" font-size="10px">19.07x</text><text class="label" x="171.8358983202406" y="267.27410468319556" font-size="10px">1.03x</text><text class="label" x="365.12204432092227" y="280.4972451790633" font-size="10px">15.9x</text><text class="label" x="334.2253014601899" y="293.7203856749311" font-size="10px">13.52x</text><text class="label" x="171.49826898915916" y="306.94352617079886" font-size="10px">1x</text><text class="label" x="430.1160024884713" y="242.32782369146003" font-size="8px"></text><text class="label" x="402.8311228295485" y="255.5509641873278" font-size="8px"></text><text class="label" x="168.3358983202406" y="268.77410468319556" font-size="8px"></text><text class="label" x="361.62204432092227" y="281.9972451790633" font-size="8px"></text><text class="label" x="330.7253014601899" y="295.2203856749311" font-size="8px"></text><text class="label" x="167.99826898915916" y="308.44352617079886" font-size="8px"></text></g><g style="font-size: 13px;"><rect x="150" y="321.2167125803489" width="440.9090909090909" height="12.56198347107438" fill="#4472c4"></rect><rect x="150" y="334.43985307621665" width="234.56645218922708" height="12.56198347107438" fill="#ed7d31"></rect><rect x="150" y="347.6629935720844" width="12.99826898915916" height="12.56198347107438" fill="#a5a5a5"></rect><rect x="150" y="360.8861340679522" width="373.3466516671685" height="12.56198347107438" fill="#ffc000"></rect><rect x="150" y="374.10927456381995" width="284.50833167144077" height="12.56198347107438" fill="#5b9bd5"></rect><rect x="150" y="387.3324150596877" width="13.162562674839734" height="12.56198347107438" fill="#70ad47"></rect><text class="label" x="599.4090909090909" y="329.7167125803489" font-size="10px">33.92x</text><text class="label" x="393.0664521892271" y="342.93985307621665" font-size="10px">18.05x</text><text class="label" x="171.49826898915916" y="356.1629935720844" font-size="10px">1x</text><text class="label" x="531.8466516671685" y="369.3861340679522" font-size="10px">28.72x</text><text class="label" x="443.00833167144077" y="382.60927456381995" font-size="10px">21.89x</text><text class="label" x="171.66256267483973" y="395.8324150596877" font-size="10px">1.01x</text><text class="label" x="595.9090909090909" y="331.2167125803489" font-size="8px"></text><text class="label" x="389.5664521892271" y="344.43985307621665" font-size="8px"></text><text class="label" x="167.99826898915916" y="357.6629935720844" font-size="8px"></text><text class="label" x="528.3466516671685" y="370.8861340679522" font-size="8px"></text><text class="label" x="439.50833167144077" y="384.10927456381995" font-size="8px"></text><text class="label" x="168.16256267483973" y="397.3324150596877" font-size="8px"></text></g><g style="font-size: 13px;"><rect x="150" y="410.1056014692378" width="167.40590437968228" height="12.56198347107438" fill="#4472c4"></rect><rect x="150" y="423.32874196510556" width="185.91760742108562" height="12.56198347107438" fill="#ed7d31"></rect><rect x="150" y="436.55188246097333" width="13.337608303172567" height="12.56198347107438" fill="#a5a5a5"></rect><rect x="150" y="449.7750229568411" width="153.5319885700623" height="12.56198347107438" fill="#ffc000"></rect><rect x="150" y="462.99816345270887" width="163.23831245189413" height="12.56198347107438" fill="#5b9bd5"></rect><rect x="150" y="476.22130394857663" width="12.99826898915916" height="12.56198347107438" fill="#70ad47"></rect><text class="label" x="325.9059043796823" y="418.6056014692378" font-size="10px">12.88x</text><text class="label" x="344.4176074210856" y="431.82874196510556" font-size="10px">14.3x</text><text class="label" x="171.83760830317257" y="445.05188246097333" font-size="10px">1.03x</text><text class="label" x="312.0319885700623" y="458.2750229568411" font-size="10px">11.81x</text><text class="label" x="321.7383124518941" y="471.49816345270887" font-size="10px">12.56x</text><text class="label" x="171.49826898915916" y="484.72130394857663" font-size="10px">1x</text><text class="label" x="322.4059043796823" y="420.1056014692378" font-size="8px"></text><text class="label" x="340.9176074210856" y="433.32874196510556" font-size="8px"></text><text class="label" x="168.33760830317257" y="446.55188246097333" font-size="8px"></text><text class="label" x="308.5319885700623" y="459.7750229568411" font-size="8px"></text><text class="label" x="318.2383124518941" y="472.99816345270887" font-size="8px"></text><text class="label" x="167.99826898915916" y="486.22130394857663" font-size="8px"></text></g><g style="font-size: 13px;"><rect x="150" y="498.9944903581267" width="353.3249954951355" height="12.56198347107438" fill="#4472c4"></rect><rect x="150" y="512.2176308539945" width="151.75543803832613" height="12.56198347107438" fill="#ed7d31"></rect><rect x="150" y="525.4407713498622" width="13.562866438229536" height="12.56198347107438" fill="#a5a5a5"></rect><rect x="150" y="538.66391184573" width="349.3305825851441" height="12.56198347107438" fill="#ffc000"></rect><rect x="150" y="551.8870523415978" width="329.7532292158616" height="12.56198347107438" fill="#5b9bd5"></rect><rect x="150" y="565.1101928374655" width="12.99826898915916" height="12.56198347107438" fill="#70ad47"></rect><text class="label" x="511.8249954951355" y="507.4944903581267" font-size="10px">27.18x</text><text class="label" x="310.25543803832613" y="520.7176308539945" font-size="10px">11.68x</text><text class="label" x="172.06286643822955" y="533.9407713498622" font-size="10px">1.04x</text><text class="label" x="507.8305825851441" y="547.16391184573" font-size="10px">26.88x</text><text class="label" x="488.2532292158616" y="560.3870523415978" font-size="10px">25.37x</text><text class="label" x="171.49826898915916" y="573.6101928374655" font-size="10px">1x</text><text class="label" x="508.3249954951355" y="508.9944903581267" font-size="8px"></text><text class="label" x="306.75543803832613" y="522.2176308539945" font-size="8px"></text><text class="label" x="168.56286643822955" y="535.4407713498622" font-size="8px"></text><text class="label" x="504.3305825851441" y="548.66391184573" font-size="8px"></text><text class="label" x="484.7532292158616" y="561.8870523415978" font-size="8px"></text><text class="label" x="167.99826898915916" y="575.1101928374655" font-size="8px"></text></g><g style="font-size: 13px;"><rect x="150" y="587.8833792470156" width="213.16530264874436" height="12.56198347107438" fill="#4472c4"></rect><rect x="150" y="601.1065197428833" width="137.514226636662" height="12.56198347107438" fill="#ed7d31"></rect><rect x="150" y="614.3296602387511" width="13.173106396526125" height="12.56198347107438" fill="#a5a5a5"></rect><rect x="150" y="627.5528007346188" width="206.29547821736227" height="12.56198347107438" fill="#ffc000"></rect><rect x="150" y="640.7759412304866" width="205.24450827328576" height="12.56198347107438" fill="#5b9bd5"></rect><rect x="150" y="653.9990817263545" width="12.99826898915916" height="12.56198347107438" fill="#70ad47"></rect><text class="label" x="371.6653026487444" y="596.3833792470156" font-size="10px">16.4x</text><text class="label" x="296.014226636662" y="609.6065197428833" font-size="10px">10.58x</text><text class="label" x="171.67310639652612" y="622.8296602387511" font-size="10px">1.01x</text><text class="label" x="364.7954782173623" y="636.0528007346188" font-size="10px">15.87x</text><text class="label" x="363.74450827328576" y="649.2759412304866" font-size="10px">15.79x</text><text class="label" x="171.49826898915916" y="662.4990817263545" font-size="10px">1x</text><text class="label" x="368.1653026487444" y="597.8833792470156" font-size="8px"></text><text class="label" x="292.514226636662" y="611.1065197428833" font-size="8px"></text><text class="label" x="168.17310639652612" y="624.3296602387511" font-size="8px"></text><text class="label" x="361.2954782173623" y="637.5528007346188" font-size="8px"></text><text class="label" x="360.24450827328576" y="650.7759412304866" font-size="8px"></text><text class="label" x="167.99826898915916" y="663.9990817263545" font-size="8px"></text></g><g style="font-size: 13px;"><rect x="150" y="676.7722681359045" width="224.65688006509552" height="12.56198347107438" fill="#4472c4"></rect><rect x="150" y="689.9954086317722" width="51.92967690655738" height="12.56198347107438" fill="#ed7d31"></rect><rect x="150" y="703.21854912764" width="13.157397398886799" height="12.56198347107438" fill="#a5a5a5"></rect><rect x="150" y="716.4416896235077" width="210.32010431528602" height="12.56198347107438" fill="#ffc000"></rect><rect x="150" y="729.6648301193756" width="240.1999152171855" height="12.56198347107438" fill="#5b9bd5"></rect><rect x="150" y="742.8879706152434" width="12.99826898915916" height="12.56198347107438" fill="#70ad47"></rect><text class="label" x="383.1568800650955" y="685.2722681359045" font-size="10px">17.28x</text><text class="label" x="210.42967690655738" y="698.4954086317722" font-size="10px">4x</text><text class="label" x="171.6573973988868" y="711.71854912764" font-size="10px">1.01x</text><text class="label" x="368.820104315286" y="724.9416896235077" font-size="10px">16.18x</text><text class="label" x="398.6999152171855" y="738.1648301193756" font-size="10px">18.48x</text><text class="label" x="171.49826898915916" y="751.3879706152434" font-size="10px">1x</text><text class="label" x="379.6568800650955" y="686.7722681359045" font-size="8px"></text><text class="label" x="206.92967690655738" y="699.9954086317722" font-size="8px"></text><text class="label" x="168.1573973988868" y="713.21854912764" font-size="8px"></text><text class="label" x="365.320104315286" y="726.4416896235077" font-size="8px"></text><text class="label" x="395.1999152171855" y="739.6648301193756" font-size="8px"></text><text class="label" x="167.99826898915916" y="752.8879706152434" font-size="8px"></text></g></g></svg>