<svg xmlns="http://www.w3.org/2000/svg" xmlns:xlink="http://www.w3.org/1999/xlink" width="800" height="794" style="background-color: white;"><g class="y axis" transform="translate(149,45)" fill="none" font-size="10" font-family="sans-serif" text-anchor="end" style="font-size: 13px;"><path class="domain" stroke="currentColor" d="M0.5,0.5V600.5"></path><g class="tick" opacity="1" transform="translate(0,40.740740740740726)" style="font-size: 13px;"><line stroke="currentColor" x2="0"></line><text fill="currentColor" x="-3" dy="0.32em">object (simple)    </text></g><g class="tick" opacity="1" transform="translate(0,114.81481481481481)" style="font-size: 13px;"><line stroke="currentColor" x2="0"></line><text fill="currentColor" x="-3" dy="0.32em">object (hierarchical)    </text></g><g class="tick" opacity="1" transform="translate(0,188.88888888888889)" style="font-size: 13px;"><line stroke="currentColor" x2="0"></line><text fill="currentColor" x="-3" dy="0.32em">object (recursive)    </text></g><g class="tick" opacity="1" transform="translate(0,262.96296296296293)" style="font-size: 13px;"><line stroke="currentColor" x2="0"></line><text fill="currentColor" x="-3" dy="0.32em">object (union, explicit)    </text></g><g class="tick" opacity="1" transform="translate(0,337.037037037037)" style="font-size: 13px;"><line stroke="currentColor" x2="0"></line><text fill="currentColor" x="-3" dy="0.32em">array (simple)    </text></g><g class="tick" opacity="1" transform="translate(0,411.1111111111111)" style="font-size: 13px;"><line stroke="currentColor" x2="0"></line><text fill="currentColor" x="-3" dy="0.32em">array (hierarchical)    </text></g><g class="tick" opacity="1" transform="translate(0,485.18518518518516)" style="font-size: 13px;"><line stroke="currentColor" x2="0"></line><text fill="currentColor" x="-3" dy="0.32em">array (recursive)    </text></g><g class="tick" opacity="1" transform="translate(0,559.2592592592592)" style="font-size: 13px;"><line stroke="currentColor" x2="0"></line><text fill="currentColor" x="-3" dy="0.32em">array (union, explicit)    </text></g></g><g class="x axis" transform="translate(149,645)" fill="none" font-size="10" font-family="sans-serif" text-anchor="middle" style="font-size: 13px;"><path class="domain" stroke="currentColor" d="M0.5,0.5H485.5"></path><g class="tick" opacity="1" transform="translate(0.5,0)" style="font-size: 13px;"><line stroke="currentColor" y2="6"></line><text fill="currentColor" y="9" dy="0.71em">0x</text></g><g class="tick" opacity="1" transform="translate(73.44147310741667,0)" style="font-size: 13px;"><line stroke="currentColor" y2="6"></line><text fill="currentColor" y="9" dy="0.71em">5x</text></g><g class="tick" opacity="1" transform="translate(146.38294621483334,0)" style="font-size: 13px;"><line stroke="currentColor" y2="6"></line><text fill="currentColor" y="9" dy="0.71em">10x</text></g><g class="tick" opacity="1" transform="translate(219.32441932225,0)" style="font-size: 13px;"><line stroke="currentColor" y2="6"></line><text fill="currentColor" y="9" dy="0.71em">15x</text></g><g class="tick" opacity="1" transform="translate(292.2658924296667,0)" style="font-size: 13px;"><line stroke="currentColor" y2="6"></line><text fill="currentColor" y="9" dy="0.71em">20x</text></g><g class="tick" opacity="1" transform="translate(365.2073655370834,0)" style="font-size: 13px;"><line stroke="currentColor" y2="6"></line><text fill="currentColor" y="9" dy="0.71em">25x</text></g><g class="tick" opacity="1" transform="translate(438.1488386445,0)" style="font-size: 13px;"><line stroke="currentColor" y2="6"></line><text fill="currentColor" y="9" dy="0.71em">30x</text></g></g><text transform="translate(400, 30)" style="text-anchor: middle; font-size: 20px; font-weight: bold;">server-performance benchmark</text><rect x="650" y="145" width="230" height="5" fill="gray"></rect><rect x="645" y="35" width="230" height="110" fill="none" stroke="black"></rect><rect x="655" y="45" width="10" height="10" style="fill: #4472c4;"></rect><text x="670" y="55" style="font-size: 12px;">fastify-typia</text><rect x="655" y="65" width="10" height="10" style="fill: #ed7d31;"></rect><text x="670" y="75" style="font-size: 12px;">fastify-pure</text><rect x="655" y="85" width="10" height="10" style="fill: #a5a5a5;"></rect><text x="670" y="95" style="font-size: 12px;">fastify-class-transformer</text><rect x="655" y="105" width="10" height="10" style="fill: #ffc000;"></rect><text x="670" y="115" style="font-size: 12px;">express-typia</text><rect x="655" y="125" width="10" height="10" style="fill: #5b9bd5;"></rect><text x="670" y="135" style="font-size: 12px;">express-class-transformer</text><text x="20" y="709" style="font-size: 12px;">  - CPU: AMD EPYC 7763 64-Core Processor</text><text x="20" y="726" style="font-size: 12px;">  - OS: linux</text><text x="20" y="743" style="font-size: 12px;">  - RAM: 16 GB</text><text x="20" y="760" style="font-size: 12px;">  - NodeJS version: v20.18.1</text><text x="20" y="777" style="font-size: 12px;">  - Typia version: v7.6.0</text><g style="font-size: 13px;"><g style="font-size: 13px;"><rect x="150" y="53.06747341400805" width="193.46394701541587" height="12.541254125412543" fill="#4472c4"></rect><rect x="150" y="66.26879354602124" width="180.13917937804533" height="12.541254125412543" fill="#ed7d31"></rect><rect x="150" y="79.47011367803445" width="14.588294621483335" height="12.541254125412543" fill="#a5a5a5"></rect><rect x="150" y="92.67143381004766" width="130.18362429743055" height="12.541254125412543" fill="#ffc000"></rect><rect x="150" y="105.87275394206085" width="14.794206641346289" height="12.541254125412543" fill="#5b9bd5"></rect><text class="label" x="351.9639470154159" y="61.56747341400805" font-size="10px">13.26x</text><text class="label" x="338.63917937804536" y="74.76879354602124" font-size="10px">12.35x</text><text class="label" x="173.08829462148333" y="87.97011367803445" font-size="10px">1x</text><text class="label" x="288.6836242974306" y="101.17143381004766" font-size="10px">8.92x</text><text class="label" x="173.29420664134628" y="114.37275394206085" font-size="10px">1.01x</text><text class="label" x="348.4639470154159" y="63.06747341400805" font-size="8px"></text><text class="label" x="335.13917937804536" y="76.26879354602124" font-size="8px"></text><text class="label" x="169.58829462148333" y="89.47011367803445" font-size="8px"></text><text class="label" x="285.1836242974306" y="102.67143381004766" font-size="8px"></text><text class="label" x="169.79420664134628" y="115.87275394206085" font-size="8px"></text></g><g style="font-size: 13px;"><rect x="150" y="127.14154748808213" width="173.16021513720236" height="12.541254125412543" fill="#4472c4"></rect><rect x="150" y="140.34286762009532" width="132.2626073025818" height="12.541254125412543" fill="#ed7d31"></rect><rect x="150" y="153.54418775210854" width="14.588294621483335" height="12.541254125412543" fill="#a5a5a5"></rect><rect x="150" y="166.74550788412174" width="153.89609742470103" height="12.541254125412543" fill="#ffc000"></rect><rect x="150" y="179.94682801613493" width="20.885205927380387" height="12.541254125412543" fill="#5b9bd5"></rect><text class="label" x="331.6602151372024" y="135.64154748808213" font-size="10px">11.87x</text><text class="label" x="290.76260730258184" y="148.84286762009532" font-size="10px">9.07x</text><text class="label" x="173.08829462148333" y="162.04418775210854" font-size="10px">1x</text><text class="label" x="312.396097424701" y="175.24550788412174" font-size="10px">10.55x</text><text class="label" x="179.38520592738038" y="188.44682801613493" font-size="10px">1.43x</text><text class="label" x="328.1602151372024" y="137.14154748808213" font-size="8px"></text><text class="label" x="287.26260730258184" y="150.34286762009532" font-size="8px"></text><text class="label" x="169.58829462148333" y="163.54418775210854" font-size="8px"></text><text class="label" x="308.896097424701" y="176.74550788412174" font-size="8px"></text><text class="label" x="175.88520592738038" y="189.94682801613493" font-size="8px"></text></g><g style="font-size: 13px;"><rect x="150" y="201.2156215621562" width="196.6972540846346" height="12.541254125412543" fill="#4472c4"></rect><rect x="150" y="214.4169416941694" width="184.8221249087908" height="12.541254125412543" fill="#ed7d31"></rect><rect x="150" y="227.61826182618262" width="14.588294621483335" height="12.541254125412543" fill="#a5a5a5"></rect><rect x="150" y="240.8195819581958" width="180.79572980563884" height="12.541254125412543" fill="#ffc000"></rect><rect x="150" y="254.020902090209" width="21.58125669011787" height="12.541254125412543" fill="#5b9bd5"></rect><text class="label" x="355.1972540846346" y="209.7156215621562" font-size="10px">13.48x</text><text class="label" x="343.3221249087908" y="222.9169416941694" font-size="10px">12.67x</text><text class="label" x="173.08829462148333" y="236.11826182618262" font-size="10px">1x</text><text class="label" x="339.29572980563887" y="249.3195819581958" font-size="10px">12.39x</text><text class="label" x="180.08125669011787" y="262.520902090209" font-size="10px">1.48x</text><text class="label" x="351.6972540846346" y="211.2156215621562" font-size="8px"></text><text class="label" x="339.8221249087908" y="224.4169416941694" font-size="8px"></text><text class="label" x="169.58829462148333" y="237.61826182618262" font-size="8px"></text><text class="label" x="335.79572980563887" y="250.8195819581958" font-size="8px"></text><text class="label" x="176.58125669011787" y="264.020902090209" font-size="8px"></text></g><g style="font-size: 13px;"><rect x="150" y="275.28969563623025" width="440.9090909090908" height="12.541254125412543" fill="#4472c4"></rect><rect x="150" y="288.49101576824347" width="257.66170145211385" height="12.541254125412543" fill="#ed7d31"></rect><rect x="150" y="301.6923359002567" width="14.648478915586718" height="12.541254125412543" fill="#a5a5a5"></rect><rect x="150" y="314.89365603226986" width="399.7337190084943" height="12.541254125412543" fill="#ffc000"></rect><rect x="150" y="328.0949761642831" width="14.588294621483335" height="12.541254125412543" fill="#5b9bd5"></rect><text class="label" x="599.4090909090908" y="283.78969563623025" font-size="10px">30.22x</text><text class="label" x="416.16170145211385" y="296.99101576824347" font-size="10px">17.66x</text><text class="label" x="173.1484789155867" y="310.1923359002567" font-size="10px">1x</text><text class="label" x="558.2337190084943" y="323.39365603226986" font-size="10px">27.4x</text><text class="label" x="173.08829462148333" y="336.5949761642831" font-size="10px">1x</text><text class="label" x="595.9090909090908" y="285.28969563623025" font-size="8px"></text><text class="label" x="412.66170145211385" y="298.49101576824347" font-size="8px"></text><text class="label" x="169.6484789155867" y="311.6923359002567" font-size="8px"></text><text class="label" x="554.7337190084943" y="324.89365603226986" font-size="8px"></text><text class="label" x="169.58829462148333" y="338.0949761642831" font-size="8px"></text></g><g style="font-size: 13px;"><rect x="150" y="349.3637697103044" width="211.5425294923831" height="12.541254125412543" fill="#4472c4"></rect><rect x="150" y="362.56508984231755" width="210.6684101609875" height="12.541254125412543" fill="#ed7d31"></rect><rect x="150" y="375.76640997433077" width="14.588294621483335" height="12.541254125412543" fill="#a5a5a5"></rect><rect x="150" y="388.967730106344" width="200.98632981617433" height="12.541254125412543" fill="#ffc000"></rect><rect x="150" y="402.16905023835716" width="15.439416603863046" height="12.541254125412543" fill="#5b9bd5"></rect><text class="label" x="370.0425294923831" y="357.8637697103044" font-size="10px">14.5x</text><text class="label" x="369.1684101609875" y="371.06508984231755" font-size="10px">14.44x</text><text class="label" x="173.08829462148333" y="384.26640997433077" font-size="10px">1x</text><text class="label" x="359.48632981617436" y="397.467730106344" font-size="10px">13.78x</text><text class="label" x="173.93941660386304" y="410.66905023835716" font-size="10px">1.06x</text><text class="label" x="366.5425294923831" y="359.3637697103044" font-size="8px"></text><text class="label" x="365.6684101609875" y="372.56508984231755" font-size="8px"></text><text class="label" x="169.58829462148333" y="385.76640997433077" font-size="8px"></text><text class="label" x="355.98632981617436" y="398.967730106344" font-size="8px"></text><text class="label" x="170.43941660386304" y="412.16905023835716" font-size="8px"></text></g><g style="font-size: 13px;"><rect x="150" y="423.4378437843784" width="389.844077848651" height="12.541254125412543" fill="#4472c4"></rect><rect x="150" y="436.6391639163916" width="150.24115656746864" height="12.541254125412543" fill="#ed7d31"></rect><rect x="150" y="449.84048404840485" width="14.588294621483335" height="12.541254125412543" fill="#a5a5a5"></rect><rect x="150" y="463.041804180418" width="395.4695574927649" height="12.541254125412543" fill="#ffc000"></rect><rect x="150" y="476.24312431243123" width="18.45479933242292" height="12.541254125412543" fill="#5b9bd5"></rect><text class="label" x="548.3440778486511" y="431.9378437843784" font-size="10px">26.72x</text><text class="label" x="308.74115656746864" y="445.1391639163916" font-size="10px">10.3x</text><text class="label" x="173.08829462148333" y="458.34048404840485" font-size="10px">1x</text><text class="label" x="553.9695574927649" y="471.541804180418" font-size="10px">27.11x</text><text class="label" x="176.9547993324229" y="484.74312431243123" font-size="10px">1.27x</text><text class="label" x="544.8440778486511" y="433.4378437843784" font-size="8px"></text><text class="label" x="305.24115656746864" y="446.6391639163916" font-size="8px"></text><text class="label" x="169.58829462148333" y="459.84048404840485" font-size="8px"></text><text class="label" x="550.4695574927649" y="473.041804180418" font-size="8px"></text><text class="label" x="173.4547993324229" y="486.24312431243123" font-size="8px"></text></g><g style="font-size: 13px;"><rect x="150" y="497.51191785845253" width="184.08241006746925" height="12.541254125412543" fill="#4472c4"></rect><rect x="150" y="510.7132379904657" width="192.8739096076412" height="12.541254125412543" fill="#ed7d31"></rect><rect x="150" y="523.9145581224789" width="14.588294621483335" height="12.541254125412543" fill="#a5a5a5"></rect><rect x="150" y="537.1158782544921" width="184.119846907196" height="12.541254125412543" fill="#ffc000"></rect><rect x="150" y="550.3171983865053" width="21.98751304881701" height="12.541254125412543" fill="#5b9bd5"></rect><text class="label" x="342.58241006746925" y="506.01191785845253" font-size="10px">12.62x</text><text class="label" x="351.37390960764117" y="519.2132379904657" font-size="10px">13.22x</text><text class="label" x="173.08829462148333" y="532.4145581224789" font-size="10px">1x</text><text class="label" x="342.619846907196" y="545.6158782544921" font-size="10px">12.62x</text><text class="label" x="180.48751304881702" y="558.8171983865053" font-size="10px">1.51x</text><text class="label" x="339.08241006746925" y="507.51191785845253" font-size="8px"></text><text class="label" x="347.87390960764117" y="520.7132379904657" font-size="8px"></text><text class="label" x="169.58829462148333" y="533.9145581224789" font-size="8px"></text><text class="label" x="339.119846907196" y="547.1158782544921" font-size="8px"></text><text class="label" x="176.98751304881702" y="560.3171983865053" font-size="8px"></text></g><g style="font-size: 13px;"><rect x="150" y="571.5859919325266" width="275.22159089149795" height="12.541254125412543" fill="#4472c4"></rect><rect x="150" y="584.7873120645397" width="97.26491789496579" height="12.541254125412543" fill="#ed7d31"></rect><rect x="150" y="597.9886321965529" width="14.62276899193589" height="12.541254125412543" fill="#a5a5a5"></rect><rect x="150" y="611.1899523285662" width="283.39537412276803" height="12.541254125412543" fill="#ffc000"></rect><rect x="150" y="624.3912724605793" width="14.588294621483335" height="12.541254125412543" fill="#5b9bd5"></rect><text class="label" x="433.72159089149795" y="580.0859919325266" font-size="10px">18.87x</text><text class="label" x="255.76491789496578" y="593.2873120645397" font-size="10px">6.67x</text><text class="label" x="173.12276899193589" y="606.4886321965529" font-size="10px">1x</text><text class="label" x="441.89537412276803" y="619.6899523285662" font-size="10px">19.43x</text><text class="label" x="173.08829462148333" y="632.8912724605793" font-size="10px">1x</text><text class="label" x="430.22159089149795" y="581.5859919325266" font-size="8px"></text><text class="label" x="252.26491789496578" y="594.7873120645397" font-size="8px"></text><text class="label" x="169.62276899193589" y="607.9886321965529" font-size="8px"></text><text class="label" x="438.39537412276803" y="621.1899523285662" font-size="8px"></text><text class="label" x="169.58829462148333" y="634.3912724605793" font-size="8px"></text></g></g></svg>