<svg xmlns="http://www.w3.org/2000/svg" xmlns:xlink="http://www.w3.org/1999/xlink" width="800" height="794" style="background-color: white;"><g class="y axis" transform="translate(149,45)" fill="none" font-size="10" font-family="sans-serif" text-anchor="end" style="font-size: 13px;"><path class="domain" stroke="currentColor" d="M0.5,0.5V600.5"></path><g class="tick" opacity="1" transform="translate(0,40.740740740740726)" style="font-size: 13px;"><line stroke="currentColor" x2="0"></line><text fill="currentColor" x="-3" dy="0.32em">object (simple)    </text></g><g class="tick" opacity="1" transform="translate(0,114.81481481481481)" style="font-size: 13px;"><line stroke="currentColor" x2="0"></line><text fill="currentColor" x="-3" dy="0.32em">object (hierarchical)    </text></g><g class="tick" opacity="1" transform="translate(0,188.88888888888889)" style="font-size: 13px;"><line stroke="currentColor" x2="0"></line><text fill="currentColor" x="-3" dy="0.32em">object (recursive)    </text></g><g class="tick" opacity="1" transform="translate(0,262.96296296296293)" style="font-size: 13px;"><line stroke="currentColor" x2="0"></line><text fill="currentColor" x="-3" dy="0.32em">object (union, explicit)    </text></g><g class="tick" opacity="1" transform="translate(0,337.037037037037)" style="font-size: 13px;"><line stroke="currentColor" x2="0"></line><text fill="currentColor" x="-3" dy="0.32em">array (simple)    </text></g><g class="tick" opacity="1" transform="translate(0,411.1111111111111)" style="font-size: 13px;"><line stroke="currentColor" x2="0"></line><text fill="currentColor" x="-3" dy="0.32em">array (hierarchical)    </text></g><g class="tick" opacity="1" transform="translate(0,485.18518518518516)" style="font-size: 13px;"><line stroke="currentColor" x2="0"></line><text fill="currentColor" x="-3" dy="0.32em">array (recursive)    </text></g><g class="tick" opacity="1" transform="translate(0,559.2592592592592)" style="font-size: 13px;"><line stroke="currentColor" x2="0"></line><text fill="currentColor" x="-3" dy="0.32em">array (union, explicit)    </text></g></g><g class="x axis" transform="translate(149,645)" fill="none" font-size="10" font-family="sans-serif" text-anchor="middle" style="font-size: 13px;"><path class="domain" stroke="currentColor" d="M0.5,0.5H485.5"></path><g class="tick" opacity="1" transform="translate(0.5,0)" style="font-size: 13px;"><line stroke="currentColor" y2="6"></line><text fill="currentColor" y="9" dy="0.71em">0x</text></g><g class="tick" opacity="1" transform="translate(72.01126714104689,0)" style="font-size: 13px;"><line stroke="currentColor" y2="6"></line><text fill="currentColor" y="9" dy="0.71em">5x</text></g><g class="tick" opacity="1" transform="translate(143.52253428209377,0)" style="font-size: 13px;"><line stroke="currentColor" y2="6"></line><text fill="currentColor" y="9" dy="0.71em">10x</text></g><g class="tick" opacity="1" transform="translate(215.03380142314066,0)" style="font-size: 13px;"><line stroke="currentColor" y2="6"></line><text fill="currentColor" y="9" dy="0.71em">15x</text></g><g class="tick" opacity="1" transform="translate(286.54506856418755,0)" style="font-size: 13px;"><line stroke="currentColor" y2="6"></line><text fill="currentColor" y="9" dy="0.71em">20x</text></g><g class="tick" opacity="1" transform="translate(358.0563357052344,0)" style="font-size: 13px;"><line stroke="currentColor" y2="6"></line><text fill="currentColor" y="9" dy="0.71em">25x</text></g><g class="tick" opacity="1" transform="translate(429.5676028462813,0)" style="font-size: 13px;"><line stroke="currentColor" y2="6"></line><text fill="currentColor" y="9" dy="0.71em">30x</text></g></g><text transform="translate(400, 30)" style="text-anchor: middle; font-size: 20px; font-weight: bold;">server-performance benchmark</text><rect x="650" y="145" width="230" height="5" fill="gray"></rect><rect x="645" y="35" width="230" height="110" fill="none" stroke="black"></rect><rect x="655" y="45" width="10" height="10" style="fill: #4472c4;"></rect><text x="670" y="55" style="font-size: 12px;">fastify-typia</text><rect x="655" y="65" width="10" height="10" style="fill: #ed7d31;"></rect><text x="670" y="75" style="font-size: 12px;">fastify-pure</text><rect x="655" y="85" width="10" height="10" style="fill: #a5a5a5;"></rect><text x="670" y="95" style="font-size: 12px;">fastify-class-transformer</text><rect x="655" y="105" width="10" height="10" style="fill: #ffc000;"></rect><text x="670" y="115" style="font-size: 12px;">express-typia</text><rect x="655" y="125" width="10" height="10" style="fill: #5b9bd5;"></rect><text x="670" y="135" style="font-size: 12px;">express-class-transformer</text><text x="20" y="709" style="font-size: 12px;">  - CPU: AMD EPYC 7763 64-Core Processor</text><text x="20" y="726" style="font-size: 12px;">  - OS: linux</text><text x="20" y="743" style="font-size: 12px;">  - RAM: 31 GB</text><text x="20" y="760" style="font-size: 12px;">  - NodeJS version: v20.3.0</text><text x="20" y="777" style="font-size: 12px;">  - Typia version: v4.1.8</text><g style="font-size: 13px;"><g style="font-size: 13px;"><rect x="150" y="53.06747341400805" width="196.65333729474096" height="12.541254125412543" fill="#4472c4"></rect><rect x="150" y="66.26879354602124" width="189.62005130863227" height="12.541254125412543" fill="#ed7d31"></rect><rect x="150" y="79.47011367803445" width="14.302253428209378" height="12.541254125412543" fill="#a5a5a5"></rect><rect x="150" y="92.67143381004766" width="129.95530091474893" height="12.541254125412543" fill="#ffc000"></rect><rect x="150" y="105.87275394206085" width="20.569496115425146" height="12.541254125412543" fill="#5b9bd5"></rect><text class="label" x="355.15333729474094" y="61.56747341400805" font-size="10px">13.75x</text><text class="label" x="348.12005130863224" y="74.76879354602124" font-size="10px">13.26x</text><text class="label" x="172.80225342820938" y="87.97011367803445" font-size="10px">1x</text><text class="label" x="288.45530091474893" y="101.17143381004766" font-size="10px">9.09x</text><text class="label" x="179.06949611542515" y="114.37275394206085" font-size="10px">1.44x</text><text class="label" x="351.65333729474094" y="63.06747341400805" font-size="8px"></text><text class="label" x="344.62005130863224" y="76.26879354602124" font-size="8px"></text><text class="label" x="169.30225342820938" y="89.47011367803445" font-size="8px"></text><text class="label" x="284.95530091474893" y="102.67143381004766" font-size="8px"></text><text class="label" x="175.56949611542515" y="115.87275394206085" font-size="8px"></text></g><g style="font-size: 13px;"><rect x="150" y="127.14154748808213" width="169.53873908358042" height="12.541254125412543" fill="#4472c4"></rect><rect x="150" y="140.34286762009532" width="152.16240411055742" height="12.541254125412543" fill="#ed7d31"></rect><rect x="150" y="153.54418775210854" width="14.302253428209378" height="12.541254125412543" fill="#a5a5a5"></rect><rect x="150" y="166.74550788412174" width="143.4478745846512" height="12.541254125412543" fill="#ffc000"></rect><rect x="150" y="179.94682801613493" width="20.627169510480613" height="12.541254125412543" fill="#5b9bd5"></rect><text class="label" x="328.0387390835804" y="135.64154748808213" font-size="10px">11.85x</text><text class="label" x="310.6624041105574" y="148.84286762009532" font-size="10px">10.64x</text><text class="label" x="172.80225342820938" y="162.04418775210854" font-size="10px">1x</text><text class="label" x="301.94787458465123" y="175.24550788412174" font-size="10px">10.03x</text><text class="label" x="179.1271695104806" y="188.44682801613493" font-size="10px">1.44x</text><text class="label" x="324.5387390835804" y="137.14154748808213" font-size="8px"></text><text class="label" x="307.1624041105574" y="150.34286762009532" font-size="8px"></text><text class="label" x="169.30225342820938" y="163.54418775210854" font-size="8px"></text><text class="label" x="298.44787458465123" y="176.74550788412174" font-size="8px"></text><text class="label" x="175.6271695104806" y="189.94682801613493" font-size="8px"></text></g><g style="font-size: 13px;"><rect x="150" y="201.2156215621562" width="188.09380796281414" height="12.541254125412543" fill="#4472c4"></rect><rect x="150" y="214.4169416941694" width="127.98876156612748" height="12.541254125412543" fill="#ed7d31"></rect><rect x="150" y="227.61826182618262" width="14.302253428209378" height="12.541254125412543" fill="#a5a5a5"></rect><rect x="150" y="240.8195819581958" width="169.84842392853326" height="12.541254125412543" fill="#ffc000"></rect><rect x="150" y="254.020902090209" width="21.15077009297536" height="12.541254125412543" fill="#5b9bd5"></rect><text class="label" x="346.59380796281414" y="209.7156215621562" font-size="10px">13.15x</text><text class="label" x="286.4887615661275" y="222.9169416941694" font-size="10px">8.95x</text><text class="label" x="172.80225342820938" y="236.11826182618262" font-size="10px">1x</text><text class="label" x="328.3484239285333" y="249.3195819581958" font-size="10px">11.88x</text><text class="label" x="179.65077009297536" y="262.520902090209" font-size="10px">1.48x</text><text class="label" x="343.09380796281414" y="211.2156215621562" font-size="8px"></text><text class="label" x="282.9887615661275" y="224.4169416941694" font-size="8px"></text><text class="label" x="169.30225342820938" y="237.61826182618262" font-size="8px"></text><text class="label" x="324.8484239285333" y="250.8195819581958" font-size="8px"></text><text class="label" x="176.15077009297536" y="264.020902090209" font-size="8px"></text></g><g style="font-size: 13px;"><rect x="150" y="275.28969563623025" width="424.6694126057807" height="12.541254125412543" fill="#4472c4"></rect><rect x="150" y="288.49101576824347" width="263.6623359159326" height="12.541254125412543" fill="#ed7d31"></rect><rect x="150" y="301.6923359002567" width="15.326313842161818" height="12.541254125412543" fill="#a5a5a5"></rect><rect x="150" y="314.89365603226986" width="366.2145942742541" height="12.541254125412543" fill="#ffc000"></rect><rect x="150" y="328.0949761642831" width="14.302253428209378" height="12.541254125412543" fill="#5b9bd5"></rect><text class="label" x="583.1694126057807" y="283.78969563623025" font-size="10px">29.69x</text><text class="label" x="422.1623359159326" y="296.99101576824347" font-size="10px">18.44x</text><text class="label" x="173.82631384216182" y="310.1923359002567" font-size="10px">1.07x</text><text class="label" x="524.7145942742541" y="323.39365603226986" font-size="10px">25.61x</text><text class="label" x="172.80225342820938" y="336.5949761642831" font-size="10px">1x</text><text class="label" x="579.6694126057807" y="285.28969563623025" font-size="8px"></text><text class="label" x="418.6623359159326" y="298.49101576824347" font-size="8px"></text><text class="label" x="170.32631384216182" y="311.6923359002567" font-size="8px"></text><text class="label" x="521.2145942742541" y="324.89365603226986" font-size="8px"></text><text class="label" x="169.30225342820938" y="338.0949761642831" font-size="8px"></text></g><g style="font-size: 13px;"><rect x="150" y="349.3637697103044" width="229.45800660238135" height="12.541254125412543" fill="#4472c4"></rect><rect x="150" y="362.56508984231755" width="224.9107759772882" height="12.541254125412543" fill="#ed7d31"></rect><rect x="150" y="375.76640997433077" width="14.302253428209378" height="12.541254125412543" fill="#a5a5a5"></rect><rect x="150" y="388.967730106344" width="202.14708163948973" height="12.541254125412543" fill="#ffc000"></rect><rect x="150" y="402.16905023835716" width="15.095294856615796" height="12.541254125412543" fill="#5b9bd5"></rect><text class="label" x="387.9580066023814" y="357.8637697103044" font-size="10px">16.04x</text><text class="label" x="383.4107759772882" y="371.06508984231755" font-size="10px">15.73x</text><text class="label" x="172.80225342820938" y="384.26640997433077" font-size="10px">1x</text><text class="label" x="360.6470816394897" y="397.467730106344" font-size="10px">14.13x</text><text class="label" x="173.5952948566158" y="410.66905023835716" font-size="10px">1.06x</text><text class="label" x="384.4580066023814" y="359.3637697103044" font-size="8px"></text><text class="label" x="379.9107759772882" y="372.56508984231755" font-size="8px"></text><text class="label" x="169.30225342820938" y="385.76640997433077" font-size="8px"></text><text class="label" x="357.1470816394897" y="398.967730106344" font-size="8px"></text><text class="label" x="170.0952948566158" y="412.16905023835716" font-size="8px"></text></g><g style="font-size: 13px;"><rect x="150" y="423.4378437843784" width="440.9090909090909" height="12.541254125412543" fill="#4472c4"></rect><rect x="150" y="436.6391639163916" width="179.0671696225101" height="12.541254125412543" fill="#ed7d31"></rect><rect x="150" y="449.84048404840485" width="14.302253428209378" height="12.541254125412543" fill="#a5a5a5"></rect><rect x="150" y="463.041804180418" width="365.5852166392338" height="12.541254125412543" fill="#ffc000"></rect><rect x="150" y="476.24312431243123" width="19.05459774730966" height="12.541254125412543" fill="#5b9bd5"></rect><text class="label" x="599.4090909090909" y="431.9378437843784" font-size="10px">30.83x</text><text class="label" x="337.5671696225101" y="445.1391639163916" font-size="10px">12.52x</text><text class="label" x="172.80225342820938" y="458.34048404840485" font-size="10px">1x</text><text class="label" x="524.0852166392337" y="471.541804180418" font-size="10px">25.56x</text><text class="label" x="177.55459774730966" y="484.74312431243123" font-size="10px">1.33x</text><text class="label" x="595.9090909090909" y="433.4378437843784" font-size="8px"></text><text class="label" x="334.0671696225101" y="446.6391639163916" font-size="8px"></text><text class="label" x="169.30225342820938" y="459.84048404840485" font-size="8px"></text><text class="label" x="520.5852166392337" y="473.041804180418" font-size="8px"></text><text class="label" x="174.05459774730966" y="486.24312431243123" font-size="8px"></text></g><g style="font-size: 13px;"><rect x="150" y="497.51191785845253" width="188.17286392512966" height="12.541254125412543" fill="#4472c4"></rect><rect x="150" y="510.7132379904657" width="182.9617228646841" height="12.541254125412543" fill="#ed7d31"></rect><rect x="150" y="523.9145581224789" width="14.302253428209378" height="12.541254125412543" fill="#a5a5a5"></rect><rect x="150" y="537.1158782544921" width="187.43082272674076" height="12.541254125412543" fill="#ffc000"></rect><rect x="150" y="550.3171983865053" width="20.99737394308582" height="12.541254125412543" fill="#5b9bd5"></rect><text class="label" x="346.67286392512966" y="506.01191785845253" font-size="10px">13.16x</text><text class="label" x="341.46172286468413" y="519.2132379904657" font-size="10px">12.79x</text><text class="label" x="172.80225342820938" y="532.4145581224789" font-size="10px">1x</text><text class="label" x="345.93082272674076" y="545.6158782544921" font-size="10px">13.1x</text><text class="label" x="179.49737394308582" y="558.8171983865053" font-size="10px">1.47x</text><text class="label" x="343.17286392512966" y="507.51191785845253" font-size="8px"></text><text class="label" x="337.96172286468413" y="520.7132379904657" font-size="8px"></text><text class="label" x="169.30225342820938" y="533.9145581224789" font-size="8px"></text><text class="label" x="342.43082272674076" y="547.1158782544921" font-size="8px"></text><text class="label" x="175.99737394308582" y="560.3171983865053" font-size="8px"></text></g><g style="font-size: 13px;"><rect x="150" y="571.5859919325266" width="278.3405190786444" height="12.541254125412543" fill="#4472c4"></rect><rect x="150" y="584.7873120645397" width="96.93969458290624" height="12.541254125412543" fill="#ed7d31"></rect><rect x="150" y="597.9886321965529" width="14.564382363199039" height="12.541254125412543" fill="#a5a5a5"></rect><rect x="150" y="611.1899523285662" width="271.8993875561904" height="12.541254125412543" fill="#ffc000"></rect><rect x="150" y="624.3912724605793" width="14.302253428209378" height="12.541254125412543" fill="#5b9bd5"></rect><text class="label" x="436.8405190786444" y="580.0859919325266" font-size="10px">19.46x</text><text class="label" x="255.43969458290624" y="593.2873120645397" font-size="10px">6.78x</text><text class="label" x="173.06438236319903" y="606.4886321965529" font-size="10px">1.02x</text><text class="label" x="430.3993875561904" y="619.6899523285662" font-size="10px">19.01x</text><text class="label" x="172.80225342820938" y="632.8912724605793" font-size="10px">1x</text><text class="label" x="433.3405190786444" y="581.5859919325266" font-size="8px"></text><text class="label" x="251.93969458290624" y="594.7873120645397" font-size="8px"></text><text class="label" x="169.56438236319903" y="607.9886321965529" font-size="8px"></text><text class="label" x="426.8993875561904" y="621.1899523285662" font-size="8px"></text><text class="label" x="169.30225342820938" y="634.3912724605793" font-size="8px"></text></g></g></svg>