<svg xmlns="http://www.w3.org/2000/svg" xmlns:xlink="http://www.w3.org/1999/xlink" width="800" height="794" style="background-color: white;"><g class="y axis" transform="translate(149,45)" fill="none" font-size="10" font-family="sans-serif" text-anchor="end" style="font-size: 13px;"><path class="domain" stroke="currentColor" d="M0.5,0.5V600.5"></path><g class="tick" opacity="1" transform="translate(0,40.740740740740726)" style="font-size: 13px;"><line stroke="currentColor" x2="0"></line><text fill="currentColor" x="-3" dy="0.32em">object (simple)    </text></g><g class="tick" opacity="1" transform="translate(0,114.81481481481481)" style="font-size: 13px;"><line stroke="currentColor" x2="0"></line><text fill="currentColor" x="-3" dy="0.32em">object (hierarchical)    </text></g><g class="tick" opacity="1" transform="translate(0,188.88888888888889)" style="font-size: 13px;"><line stroke="currentColor" x2="0"></line><text fill="currentColor" x="-3" dy="0.32em">object (recursive)    </text></g><g class="tick" opacity="1" transform="translate(0,262.96296296296293)" style="font-size: 13px;"><line stroke="currentColor" x2="0"></line><text fill="currentColor" x="-3" dy="0.32em">object (union, explicit)    </text></g><g class="tick" opacity="1" transform="translate(0,337.037037037037)" style="font-size: 13px;"><line stroke="currentColor" x2="0"></line><text fill="currentColor" x="-3" dy="0.32em">array (simple)    </text></g><g class="tick" opacity="1" transform="translate(0,411.1111111111111)" style="font-size: 13px;"><line stroke="currentColor" x2="0"></line><text fill="currentColor" x="-3" dy="0.32em">array (hierarchical)    </text></g><g class="tick" opacity="1" transform="translate(0,485.18518518518516)" style="font-size: 13px;"><line stroke="currentColor" x2="0"></line><text fill="currentColor" x="-3" dy="0.32em">array (recursive)    </text></g><g class="tick" opacity="1" transform="translate(0,559.2592592592592)" style="font-size: 13px;"><line stroke="currentColor" x2="0"></line><text fill="currentColor" x="-3" dy="0.32em">array (union, explicit)    </text></g></g><g class="x axis" transform="translate(149,645)" fill="none" font-size="10" font-family="sans-serif" text-anchor="middle" style="font-size: 13px;"><path class="domain" stroke="currentColor" d="M0.5,0.5H485.5"></path><g class="tick" opacity="1" transform="translate(0.5,0)" style="font-size: 13px;"><line stroke="currentColor" y2="6"></line><text fill="currentColor" y="9" dy="0.71em">0x</text></g><g class="tick" opacity="1" transform="translate(100.74918567121733,0)" style="font-size: 13px;"><line stroke="currentColor" y2="6"></line><text fill="currentColor" y="9" dy="0.71em">5x</text></g><g class="tick" opacity="1" transform="translate(200.99837134243467,0)" style="font-size: 13px;"><line stroke="currentColor" y2="6"></line><text fill="currentColor" y="9" dy="0.71em">10x</text></g><g class="tick" opacity="1" transform="translate(301.247557013652,0)" style="font-size: 13px;"><line stroke="currentColor" y2="6"></line><text fill="currentColor" y="9" dy="0.71em">15x</text></g><g class="tick" opacity="1" transform="translate(401.49674268486933,0)" style="font-size: 13px;"><line stroke="currentColor" y2="6"></line><text fill="currentColor" y="9" dy="0.71em">20x</text></g></g><text transform="translate(400, 30)" style="text-anchor: middle; font-size: 20px; font-weight: bold;">server-assert benchmark</text><rect x="650" y="145" width="230" height="5" fill="gray"></rect><rect x="645" y="35" width="230" height="110" fill="none" stroke="black"></rect><rect x="655" y="45" width="10" height="10" style="fill: #4472c4;"></rect><text x="670" y="55" style="font-size: 12px;">fastify-typia</text><rect x="655" y="65" width="10" height="10" style="fill: #ed7d31;"></rect><text x="670" y="75" style="font-size: 12px;">fastify-pure</text><rect x="655" y="85" width="10" height="10" style="fill: #a5a5a5;"></rect><text x="670" y="95" style="font-size: 12px;">fastify-class-transformer</text><rect x="655" y="105" width="10" height="10" style="fill: #ffc000;"></rect><text x="670" y="115" style="font-size: 12px;">express-typia</text><rect x="655" y="125" width="10" height="10" style="fill: #5b9bd5;"></rect><text x="670" y="135" style="font-size: 12px;">express-class-transformer</text><text x="20" y="709" style="font-size: 12px;">  - CPU: AMD EPYC 7763 64-Core Processor</text><text x="20" y="726" style="font-size: 12px;">  - OS: linux</text><text x="20" y="743" style="font-size: 12px;">  - RAM: 16 GB</text><text x="20" y="760" style="font-size: 12px;">  - NodeJS version: v20.18.1</text><text x="20" y="777" style="font-size: 12px;">  - Typia version: v7.6.0</text><g style="font-size: 13px;"><g style="font-size: 13px;"><rect x="150" y="53.06747341400805" width="255.00589983317613" height="12.541254125412543" fill="#4472c4"></rect><rect x="150" y="66.26879354602124" width="253.31079379185985" height="12.541254125412543" fill="#ed7d31"></rect><rect x="150" y="79.47011367803445" width="21.900334111554013" height="12.541254125412543" fill="#a5a5a5"></rect><rect x="150" y="92.67143381004766" width="178.49417143368132" height="12.541254125412543" fill="#ffc000"></rect><rect x="150" y="105.87275394206085" width="20.049837134243468" height="12.541254125412543" fill="#5b9bd5"></rect><text class="label" x="413.50589983317616" y="61.56747341400805" font-size="10px">12.72x</text><text class="label" x="411.81079379185985" y="74.76879354602124" font-size="10px">12.63x</text><text class="label" x="180.400334111554" y="87.97011367803445" font-size="10px">1.09x</text><text class="label" x="336.99417143368134" y="101.17143381004766" font-size="10px">8.9x</text><text class="label" x="178.54983713424346" y="114.37275394206085" font-size="10px">1x</text><text class="label" x="410.00589983317616" y="63.06747341400805" font-size="8px"></text><text class="label" x="408.31079379185985" y="76.26879354602124" font-size="8px"></text><text class="label" x="176.900334111554" y="89.47011367803445" font-size="8px"></text><text class="label" x="333.49417143368134" y="102.67143381004766" font-size="8px"></text><text class="label" x="175.04983713424346" y="115.87275394206085" font-size="8px"></text></g><g style="font-size: 13px;"><rect x="150" y="127.14154748808213" width="275.7361999555205" height="12.541254125412543" fill="#4472c4"></rect><rect x="150" y="140.34286762009532" width="257.1494306052405" height="12.541254125412543" fill="#ed7d31"></rect><rect x="150" y="153.54418775210854" width="21.241742683489104" height="12.541254125412543" fill="#a5a5a5"></rect><rect x="150" y="166.74550788412174" width="248.26953767848238" height="12.541254125412543" fill="#ffc000"></rect><rect x="150" y="179.94682801613493" width="20.049837134243468" height="12.541254125412543" fill="#5b9bd5"></rect><text class="label" x="434.2361999555205" y="135.64154748808213" font-size="10px">13.75x</text><text class="label" x="415.6494306052405" y="148.84286762009532" font-size="10px">12.83x</text><text class="label" x="179.7417426834891" y="162.04418775210854" font-size="10px">1.06x</text><text class="label" x="406.7695376784824" y="175.24550788412174" font-size="10px">12.38x</text><text class="label" x="178.54983713424346" y="188.44682801613493" font-size="10px">1x</text><text class="label" x="430.7361999555205" y="137.14154748808213" font-size="8px"></text><text class="label" x="412.1494306052405" y="150.34286762009532" font-size="8px"></text><text class="label" x="176.2417426834891" y="163.54418775210854" font-size="8px"></text><text class="label" x="403.2695376784824" y="176.74550788412174" font-size="8px"></text><text class="label" x="175.04983713424346" y="189.94682801613493" font-size="8px"></text></g><g style="font-size: 13px;"><rect x="150" y="201.2156215621562" width="296.46485094771515" height="12.541254125412543" fill="#4472c4"></rect><rect x="150" y="214.4169416941694" width="286.2043604649237" height="12.541254125412543" fill="#ed7d31"></rect><rect x="150" y="227.61826182618262" width="20.772270990806597" height="12.541254125412543" fill="#a5a5a5"></rect><rect x="150" y="240.8195819581958" width="276.7246361077245" height="12.541254125412543" fill="#ffc000"></rect><rect x="150" y="254.020902090209" width="20.049837134243468" height="12.541254125412543" fill="#5b9bd5"></rect><text class="label" x="454.96485094771515" y="209.7156215621562" font-size="10px">14.79x</text><text class="label" x="444.7043604649237" y="222.9169416941694" font-size="10px">14.27x</text><text class="label" x="179.2722709908066" y="236.11826182618262" font-size="10px">1.04x</text><text class="label" x="435.2246361077245" y="249.3195819581958" font-size="10px">13.8x</text><text class="label" x="178.54983713424346" y="262.520902090209" font-size="10px">1x</text><text class="label" x="451.46485094771515" y="211.2156215621562" font-size="8px"></text><text class="label" x="441.2043604649237" y="224.4169416941694" font-size="8px"></text><text class="label" x="175.7722709908066" y="237.61826182618262" font-size="8px"></text><text class="label" x="431.7246361077245" y="250.8195819581958" font-size="8px"></text><text class="label" x="175.04983713424346" y="264.020902090209" font-size="8px"></text></g><g style="font-size: 13px;"><rect x="150" y="275.28969563623025" width="440.9090909090909" height="12.541254125412543" fill="#4472c4"></rect><rect x="150" y="288.49101576824347" width="283.21462091682145" height="12.541254125412543" fill="#ed7d31"></rect><rect x="150" y="301.6923359002567" width="20.049837134243468" height="12.541254125412543" fill="#a5a5a5"></rect><rect x="150" y="314.89365603226986" width="410.78115344399697" height="12.541254125412543" fill="#ffc000"></rect><rect x="150" y="328.0949761642831" width="20.1720576696982" height="12.541254125412543" fill="#5b9bd5"></rect><text class="label" x="599.4090909090909" y="283.78969563623025" font-size="10px">21.99x</text><text class="label" x="441.71462091682145" y="296.99101576824347" font-size="10px">14.13x</text><text class="label" x="178.54983713424346" y="310.1923359002567" font-size="10px">1x</text><text class="label" x="569.281153443997" y="323.39365603226986" font-size="10px">20.49x</text><text class="label" x="178.6720576696982" y="336.5949761642831" font-size="10px">1.01x</text><text class="label" x="595.9090909090909" y="285.28969563623025" font-size="8px"></text><text class="label" x="438.21462091682145" y="298.49101576824347" font-size="8px"></text><text class="label" x="175.04983713424346" y="311.6923359002567" font-size="8px"></text><text class="label" x="565.781153443997" y="324.89365603226986" font-size="8px"></text><text class="label" x="175.1720576696982" y="338.0949761642831" font-size="8px"></text></g><g style="font-size: 13px;"><rect x="150" y="349.3637697103044" width="257.7082112582708" height="12.541254125412543" fill="#4472c4"></rect><rect x="150" y="362.56508984231755" width="266.5054539933068" height="12.541254125412543" fill="#ed7d31"></rect><rect x="150" y="375.76640997433077" width="21.35181845578481" height="12.541254125412543" fill="#a5a5a5"></rect><rect x="150" y="388.967730106344" width="269.88874989687497" height="12.541254125412543" fill="#ffc000"></rect><rect x="150" y="402.16905023835716" width="20.049837134243468" height="12.541254125412543" fill="#5b9bd5"></rect><text class="label" x="416.2082112582708" y="357.8637697103044" font-size="10px">12.85x</text><text class="label" x="425.0054539933068" y="371.06508984231755" font-size="10px">13.29x</text><text class="label" x="179.8518184557848" y="384.26640997433077" font-size="10px">1.06x</text><text class="label" x="428.38874989687497" y="397.467730106344" font-size="10px">13.46x</text><text class="label" x="178.54983713424346" y="410.66905023835716" font-size="10px">1x</text><text class="label" x="412.7082112582708" y="359.3637697103044" font-size="8px"></text><text class="label" x="421.5054539933068" y="372.56508984231755" font-size="8px"></text><text class="label" x="176.3518184557848" y="385.76640997433077" font-size="8px"></text><text class="label" x="424.88874989687497" y="398.967730106344" font-size="8px"></text><text class="label" x="175.04983713424346" y="412.16905023835716" font-size="8px"></text></g><g style="font-size: 13px;"><rect x="150" y="423.4378437843784" width="351.6074962711868" height="12.541254125412543" fill="#4472c4"></rect><rect x="150" y="436.6391639163916" width="349.87240623443915" height="12.541254125412543" fill="#ed7d31"></rect><rect x="150" y="449.84048404840485" width="20.049837134243468" height="12.541254125412543" fill="#a5a5a5"></rect><rect x="150" y="463.041804180418" width="434.23652370736033" height="12.541254125412543" fill="#ffc000"></rect><rect x="150" y="476.24312431243123" width="25.100177602138295" height="12.541254125412543" fill="#5b9bd5"></rect><text class="label" x="510.1074962711868" y="431.9378437843784" font-size="10px">17.54x</text><text class="label" x="508.37240623443915" y="445.1391639163916" font-size="10px">17.45x</text><text class="label" x="178.54983713424346" y="458.34048404840485" font-size="10px">1x</text><text class="label" x="592.7365237073603" y="471.541804180418" font-size="10px">21.66x</text><text class="label" x="183.6001776021383" y="484.74312431243123" font-size="10px">1.25x</text><text class="label" x="506.6074962711868" y="433.4378437843784" font-size="8px"></text><text class="label" x="504.87240623443915" y="446.6391639163916" font-size="8px"></text><text class="label" x="175.04983713424346" y="459.84048404840485" font-size="8px"></text><text class="label" x="589.2365237073603" y="473.041804180418" font-size="8px"></text><text class="label" x="180.1001776021383" y="486.24312431243123" font-size="8px"></text></g><g style="font-size: 13px;"><rect x="150" y="497.51191785845253" width="319.094691705022" height="12.541254125412543" fill="#4472c4"></rect><rect x="150" y="510.7132379904657" width="294.4004865139731" height="12.541254125412543" fill="#ed7d31"></rect><rect x="150" y="523.9145581224789" width="20.049837134243468" height="12.541254125412543" fill="#a5a5a5"></rect><rect x="150" y="537.1158782544921" width="338.4568602738057" height="12.541254125412543" fill="#ffc000"></rect><rect x="150" y="550.3171983865053" width="20.06152192620682" height="12.541254125412543" fill="#5b9bd5"></rect><text class="label" x="477.594691705022" y="506.01191785845253" font-size="10px">15.92x</text><text class="label" x="452.9004865139731" y="519.2132379904657" font-size="10px">14.68x</text><text class="label" x="178.54983713424346" y="532.4145581224789" font-size="10px">1x</text><text class="label" x="496.9568602738057" y="545.6158782544921" font-size="10px">16.88x</text><text class="label" x="178.5615219262068" y="558.8171983865053" font-size="10px">1x</text><text class="label" x="474.094691705022" y="507.51191785845253" font-size="8px"></text><text class="label" x="449.4004865139731" y="520.7132379904657" font-size="8px"></text><text class="label" x="175.04983713424346" y="533.9145581224789" font-size="8px"></text><text class="label" x="493.4568602738057" y="547.1158782544921" font-size="8px"></text><text class="label" x="175.0615219262068" y="560.3171983865053" font-size="8px"></text></g><g style="font-size: 13px;"><rect x="150" y="571.5859919325266" width="361.9702307862747" height="12.541254125412543" fill="#4472c4"></rect><rect x="150" y="584.7873120645397" width="246.27387265268706" height="12.541254125412543" fill="#ed7d31"></rect><rect x="150" y="597.9886321965529" width="20.65862841427348" height="12.541254125412543" fill="#a5a5a5"></rect><rect x="150" y="611.1899523285662" width="389.69236772856345" height="12.541254125412543" fill="#ffc000"></rect><rect x="150" y="624.3912724605793" width="20.049837134243468" height="12.541254125412543" fill="#5b9bd5"></rect><text class="label" x="520.4702307862747" y="580.0859919325266" font-size="10px">18.05x</text><text class="label" x="404.77387265268703" y="593.2873120645397" font-size="10px">12.28x</text><text class="label" x="179.1586284142735" y="606.4886321965529" font-size="10px">1.03x</text><text class="label" x="548.1923677285635" y="619.6899523285662" font-size="10px">19.44x</text><text class="label" x="178.54983713424346" y="632.8912724605793" font-size="10px">1x</text><text class="label" x="516.9702307862747" y="581.5859919325266" font-size="8px"></text><text class="label" x="401.27387265268703" y="594.7873120645397" font-size="8px"></text><text class="label" x="175.6586284142735" y="607.9886321965529" font-size="8px"></text><text class="label" x="544.6923677285635" y="621.1899523285662" font-size="8px"></text><text class="label" x="175.04983713424346" y="634.3912724605793" font-size="8px"></text></g></g></svg>