<svg xmlns="http://www.w3.org/2000/svg" xmlns:xlink="http://www.w3.org/1999/xlink" width="800" height="794" style="background-color: white;"><g class="y axis" transform="translate(149,45)" fill="none" font-size="10" font-family="sans-serif" text-anchor="end" style="font-size: 13px;"><path class="domain" stroke="currentColor" d="M0.5,0.5V600.5"></path><g class="tick" opacity="1" transform="translate(0,40.740740740740726)" style="font-size: 13px;"><line stroke="currentColor" x2="0"></line><text fill="currentColor" x="-3" dy="0.32em">object (simple)    </text></g><g class="tick" opacity="1" transform="translate(0,114.81481481481481)" style="font-size: 13px;"><line stroke="currentColor" x2="0"></line><text fill="currentColor" x="-3" dy="0.32em">object (hierarchical)    </text></g><g class="tick" opacity="1" transform="translate(0,188.88888888888889)" style="font-size: 13px;"><line stroke="currentColor" x2="0"></line><text fill="currentColor" x="-3" dy="0.32em">object (recursive)    </text></g><g class="tick" opacity="1" transform="translate(0,262.96296296296293)" style="font-size: 13px;"><line stroke="currentColor" x2="0"></line><text fill="currentColor" x="-3" dy="0.32em">object (union, explicit)    </text></g><g class="tick" opacity="1" transform="translate(0,337.037037037037)" style="font-size: 13px;"><line stroke="currentColor" x2="0"></line><text fill="currentColor" x="-3" dy="0.32em">array (simple)    </text></g><g class="tick" opacity="1" transform="translate(0,411.1111111111111)" style="font-size: 13px;"><line stroke="currentColor" x2="0"></line><text fill="currentColor" x="-3" dy="0.32em">array (hierarchical)    </text></g><g class="tick" opacity="1" transform="translate(0,485.18518518518516)" style="font-size: 13px;"><line stroke="currentColor" x2="0"></line><text fill="currentColor" x="-3" dy="0.32em">array (recursive)    </text></g><g class="tick" opacity="1" transform="translate(0,559.2592592592592)" style="font-size: 13px;"><line stroke="currentColor" x2="0"></line><text fill="currentColor" x="-3" dy="0.32em">array (union, explicit)    </text></g></g><g class="x axis" transform="translate(149,645)" fill="none" font-size="10" font-family="sans-serif" text-anchor="middle" style="font-size: 13px;"><path class="domain" stroke="currentColor" d="M0.5,0.5H485.5"></path><g class="tick" opacity="1" transform="translate(0.5,0)" style="font-size: 13px;"><line stroke="currentColor" y2="6"></line><text fill="currentColor" y="9" dy="0.71em">0x</text></g><g class="tick" opacity="1" transform="translate(98.95659658098586,0)" style="font-size: 13px;"><line stroke="currentColor" y2="6"></line><text fill="currentColor" y="9" dy="0.71em">5x</text></g><g class="tick" opacity="1" transform="translate(197.41319316197172,0)" style="font-size: 13px;"><line stroke="currentColor" y2="6"></line><text fill="currentColor" y="9" dy="0.71em">10x</text></g><g class="tick" opacity="1" transform="translate(295.8697897429576,0)" style="font-size: 13px;"><line stroke="currentColor" y2="6"></line><text fill="currentColor" y="9" dy="0.71em">15x</text></g><g class="tick" opacity="1" transform="translate(394.32638632394344,0)" style="font-size: 13px;"><line stroke="currentColor" y2="6"></line><text fill="currentColor" y="9" dy="0.71em">20x</text></g></g><text transform="translate(400, 30)" style="text-anchor: middle; font-size: 20px; font-weight: bold;">server-assert benchmark</text><rect x="650" y="145" width="230" height="5" fill="gray"></rect><rect x="645" y="35" width="230" height="110" fill="none" stroke="black"></rect><rect x="655" y="45" width="10" height="10" style="fill: #4472c4;"></rect><text x="670" y="55" style="font-size: 12px;">fastify-typia</text><rect x="655" y="65" width="10" height="10" style="fill: #ed7d31;"></rect><text x="670" y="75" style="font-size: 12px;">fastify-pure</text><rect x="655" y="85" width="10" height="10" style="fill: #a5a5a5;"></rect><text x="670" y="95" style="font-size: 12px;">fastify-class-transformer</text><rect x="655" y="105" width="10" height="10" style="fill: #ffc000;"></rect><text x="670" y="115" style="font-size: 12px;">express-typia</text><rect x="655" y="125" width="10" height="10" style="fill: #5b9bd5;"></rect><text x="670" y="135" style="font-size: 12px;">express-class-transformer</text><text x="20" y="709" style="font-size: 12px;">  - CPU: AMD EPYC 7763 64-Core Processor</text><text x="20" y="726" style="font-size: 12px;">  - OS: linux</text><text x="20" y="743" style="font-size: 12px;">  - RAM: 31 GB</text><text x="20" y="760" style="font-size: 12px;">  - NodeJS version: v20.3.0</text><text x="20" y="777" style="font-size: 12px;">  - Typia version: v4.1.8</text><g style="font-size: 13px;"><g style="font-size: 13px;"><rect x="150" y="53.06747341400805" width="258.00587019549596" height="12.541254125412543" fill="#4472c4"></rect><rect x="150" y="66.26879354602124" width="250.95087978149496" height="12.541254125412543" fill="#ed7d31"></rect><rect x="150" y="79.47011367803445" width="20.854819006856655" height="12.541254125412543" fill="#a5a5a5"></rect><rect x="150" y="92.67143381004766" width="181.41061154672732" height="12.541254125412543" fill="#ffc000"></rect><rect x="150" y="105.87275394206085" width="19.691319316197173" height="12.541254125412543" fill="#5b9bd5"></rect><text class="label" x="416.50587019549596" y="61.56747341400805" font-size="10px">13.1x</text><text class="label" x="409.45087978149496" y="74.76879354602124" font-size="10px">12.74x</text><text class="label" x="179.35481900685664" y="87.97011367803445" font-size="10px">1.06x</text><text class="label" x="339.9106115467273" y="101.17143381004766" font-size="10px">9.21x</text><text class="label" x="178.19131931619717" y="114.37275394206085" font-size="10px">1x</text><text class="label" x="413.00587019549596" y="63.06747341400805" font-size="8px"></text><text class="label" x="405.95087978149496" y="76.26879354602124" font-size="8px"></text><text class="label" x="175.85481900685664" y="89.47011367803445" font-size="8px"></text><text class="label" x="336.4106115467273" y="102.67143381004766" font-size="8px"></text><text class="label" x="174.69131931619717" y="115.87275394206085" font-size="8px"></text></g><g style="font-size: 13px;"><rect x="150" y="127.14154748808213" width="265.1191606675973" height="12.541254125412543" fill="#4472c4"></rect><rect x="150" y="140.34286762009532" width="249.69809101522418" height="12.541254125412543" fill="#ed7d31"></rect><rect x="150" y="153.54418775210854" width="20.214617181717745" height="12.541254125412543" fill="#a5a5a5"></rect><rect x="150" y="166.74550788412174" width="241.40101869050068" height="12.541254125412543" fill="#ffc000"></rect><rect x="150" y="179.94682801613493" width="19.691319316197173" height="12.541254125412543" fill="#5b9bd5"></rect><text class="label" x="423.6191606675973" y="135.64154748808213" font-size="10px">13.46x</text><text class="label" x="408.1980910152242" y="148.84286762009532" font-size="10px">12.68x</text><text class="label" x="178.71461718171776" y="162.04418775210854" font-size="10px">1.03x</text><text class="label" x="399.9010186905007" y="175.24550788412174" font-size="10px">12.26x</text><text class="label" x="178.19131931619717" y="188.44682801613493" font-size="10px">1x</text><text class="label" x="420.1191606675973" y="137.14154748808213" font-size="8px"></text><text class="label" x="404.6980910152242" y="150.34286762009532" font-size="8px"></text><text class="label" x="175.21461718171776" y="163.54418775210854" font-size="8px"></text><text class="label" x="396.4010186905007" y="176.74550788412174" font-size="8px"></text><text class="label" x="174.69131931619717" y="189.94682801613493" font-size="8px"></text></g><g style="font-size: 13px;"><rect x="150" y="201.2156215621562" width="272.48212227467315" height="12.541254125412543" fill="#4472c4"></rect><rect x="150" y="214.4169416941694" width="264.5833957665368" height="12.541254125412543" fill="#ed7d31"></rect><rect x="150" y="227.61826182618262" width="19.770170577104075" height="12.541254125412543" fill="#a5a5a5"></rect><rect x="150" y="240.8195819581958" width="259.66984294494677" height="12.541254125412543" fill="#ffc000"></rect><rect x="150" y="254.020902090209" width="19.691319316197173" height="12.541254125412543" fill="#5b9bd5"></rect><text class="label" x="430.98212227467315" y="209.7156215621562" font-size="10px">13.84x</text><text class="label" x="423.0833957665368" y="222.9169416941694" font-size="10px">13.44x</text><text class="label" x="178.27017057710407" y="236.11826182618262" font-size="10px">1x</text><text class="label" x="418.16984294494677" y="249.3195819581958" font-size="10px">13.19x</text><text class="label" x="178.19131931619717" y="262.520902090209" font-size="10px">1x</text><text class="label" x="427.48212227467315" y="211.2156215621562" font-size="8px"></text><text class="label" x="419.5833957665368" y="224.4169416941694" font-size="8px"></text><text class="label" x="174.77017057710407" y="237.61826182618262" font-size="8px"></text><text class="label" x="414.66984294494677" y="250.8195819581958" font-size="8px"></text><text class="label" x="174.69131931619717" y="264.020902090209" font-size="8px"></text></g><g style="font-size: 13px;"><rect x="150" y="275.28969563623025" width="412.0070896671397" height="12.541254125412543" fill="#4472c4"></rect><rect x="150" y="288.49101576824347" width="264.1208561467129" height="12.541254125412543" fill="#ed7d31"></rect><rect x="150" y="301.6923359002567" width="19.750141338326284" height="12.541254125412543" fill="#a5a5a5"></rect><rect x="150" y="314.89365603226986" width="402.92768700059446" height="12.541254125412543" fill="#ffc000"></rect><rect x="150" y="328.0949761642831" width="19.691319316197173" height="12.541254125412543" fill="#5b9bd5"></rect><text class="label" x="570.5070896671398" y="283.78969563623025" font-size="10px">20.92x</text><text class="label" x="422.6208561467129" y="296.99101576824347" font-size="10px">13.41x</text><text class="label" x="178.25014133832627" y="310.1923359002567" font-size="10px">1x</text><text class="label" x="561.4276870005945" y="323.39365603226986" font-size="10px">20.46x</text><text class="label" x="178.19131931619717" y="336.5949761642831" font-size="10px">1x</text><text class="label" x="567.0070896671398" y="285.28969563623025" font-size="8px"></text><text class="label" x="419.1208561467129" y="298.49101576824347" font-size="8px"></text><text class="label" x="174.75014133832627" y="311.6923359002567" font-size="8px"></text><text class="label" x="557.9276870005945" y="324.89365603226986" font-size="8px"></text><text class="label" x="174.69131931619717" y="338.0949761642831" font-size="8px"></text></g><g style="font-size: 13px;"><rect x="150" y="349.3637697103044" width="247.48309866515856" height="12.541254125412543" fill="#4472c4"></rect><rect x="150" y="362.56508984231755" width="237.97675947699065" height="12.541254125412543" fill="#ed7d31"></rect><rect x="150" y="375.76640997433077" width="19.691319316197173" height="12.541254125412543" fill="#a5a5a5"></rect><rect x="150" y="388.967730106344" width="243.68898341995413" height="12.541254125412543" fill="#ffc000"></rect><rect x="150" y="402.16905023835716" width="19.92340185534103" height="12.541254125412543" fill="#5b9bd5"></rect><text class="label" x="405.98309866515854" y="357.8637697103044" font-size="10px">12.57x</text><text class="label" x="396.47675947699065" y="371.06508984231755" font-size="10px">12.09x</text><text class="label" x="178.19131931619717" y="384.26640997433077" font-size="10px">1x</text><text class="label" x="402.1889834199541" y="397.467730106344" font-size="10px">12.38x</text><text class="label" x="178.42340185534104" y="410.66905023835716" font-size="10px">1.01x</text><text class="label" x="402.48309866515854" y="359.3637697103044" font-size="8px"></text><text class="label" x="392.97675947699065" y="372.56508984231755" font-size="8px"></text><text class="label" x="174.69131931619717" y="385.76640997433077" font-size="8px"></text><text class="label" x="398.6889834199541" y="398.967730106344" font-size="8px"></text><text class="label" x="174.92340185534104" y="412.16905023835716" font-size="8px"></text></g><g style="font-size: 13px;"><rect x="150" y="423.4378437843784" width="330.3479284009229" height="12.541254125412543" fill="#4472c4"></rect><rect x="150" y="436.6391639163916" width="276.6965624230672" height="12.541254125412543" fill="#ed7d31"></rect><rect x="150" y="449.84048404840485" width="23.10404747155276" height="12.541254125412543" fill="#a5a5a5"></rect><rect x="150" y="463.041804180418" width="440.9090909090908" height="12.541254125412543" fill="#ffc000"></rect><rect x="150" y="476.24312431243123" width="19.691319316197173" height="12.541254125412543" fill="#5b9bd5"></rect><text class="label" x="488.8479284009229" y="431.9378437843784" font-size="10px">16.78x</text><text class="label" x="435.1965624230672" y="445.1391639163916" font-size="10px">14.05x</text><text class="label" x="181.60404747155275" y="458.34048404840485" font-size="10px">1.17x</text><text class="label" x="599.4090909090908" y="471.541804180418" font-size="10px">22.39x</text><text class="label" x="178.19131931619717" y="484.74312431243123" font-size="10px">1x</text><text class="label" x="485.3479284009229" y="433.4378437843784" font-size="8px"></text><text class="label" x="431.6965624230672" y="446.6391639163916" font-size="8px"></text><text class="label" x="178.10404747155275" y="459.84048404840485" font-size="8px"></text><text class="label" x="595.9090909090908" y="473.041804180418" font-size="8px"></text><text class="label" x="174.69131931619717" y="486.24312431243123" font-size="8px"></text></g><g style="font-size: 13px;"><rect x="150" y="497.51191785845253" width="299.8742655027669" height="12.541254125412543" fill="#4472c4"></rect><rect x="150" y="510.7132379904657" width="286.4845328251607" height="12.541254125412543" fill="#ed7d31"></rect><rect x="150" y="523.9145581224789" width="19.971372855147685" height="12.541254125412543" fill="#a5a5a5"></rect><rect x="150" y="537.1158782544921" width="315.69903361196793" height="12.541254125412543" fill="#ffc000"></rect><rect x="150" y="550.3171983865053" width="19.691319316197173" height="12.541254125412543" fill="#5b9bd5"></rect><text class="label" x="458.3742655027669" y="506.01191785845253" font-size="10px">15.23x</text><text class="label" x="444.9845328251607" y="519.2132379904657" font-size="10px">14.55x</text><text class="label" x="178.47137285514768" y="532.4145581224789" font-size="10px">1.01x</text><text class="label" x="474.19903361196793" y="545.6158782544921" font-size="10px">16.03x</text><text class="label" x="178.19131931619717" y="558.8171983865053" font-size="10px">1x</text><text class="label" x="454.8742655027669" y="507.51191785845253" font-size="8px"></text><text class="label" x="441.4845328251607" y="520.7132379904657" font-size="8px"></text><text class="label" x="174.97137285514768" y="533.9145581224789" font-size="8px"></text><text class="label" x="470.69903361196793" y="547.1158782544921" font-size="8px"></text><text class="label" x="174.69131931619717" y="560.3171983865053" font-size="8px"></text></g><g style="font-size: 13px;"><rect x="150" y="571.5859919325266" width="342.0284868670002" height="12.541254125412543" fill="#4472c4"></rect><rect x="150" y="584.7873120645397" width="224.39254666476307" height="12.541254125412543" fill="#ed7d31"></rect><rect x="150" y="597.9886321965529" width="20.032495255343655" height="12.541254125412543" fill="#a5a5a5"></rect><rect x="150" y="611.1899523285662" width="362.11772925195794" height="12.541254125412543" fill="#ffc000"></rect><rect x="150" y="624.3912724605793" width="19.691319316197173" height="12.541254125412543" fill="#5b9bd5"></rect><text class="label" x="500.5284868670002" y="580.0859919325266" font-size="10px">17.37x</text><text class="label" x="382.8925466647631" y="593.2873120645397" font-size="10px">11.4x</text><text class="label" x="178.53249525534366" y="606.4886321965529" font-size="10px">1.02x</text><text class="label" x="520.6177292519579" y="619.6899523285662" font-size="10px">18.39x</text><text class="label" x="178.19131931619717" y="632.8912724605793" font-size="10px">1x</text><text class="label" x="497.0284868670002" y="581.5859919325266" font-size="8px"></text><text class="label" x="379.3925466647631" y="594.7873120645397" font-size="8px"></text><text class="label" x="175.03249525534366" y="607.9886321965529" font-size="8px"></text><text class="label" x="517.1177292519579" y="621.1899523285662" font-size="8px"></text><text class="label" x="174.69131931619717" y="634.3912724605793" font-size="8px"></text></g></g></svg>