<svg xmlns="http://www.w3.org/2000/svg" xmlns:xlink="http://www.w3.org/1999/xlink" width="800" height="794" style="background-color: white;"><g class="y axis" transform="translate(149,45)" fill="none" font-size="10" font-family="sans-serif" text-anchor="end" style="font-size: 13px;"><path class="domain" stroke="currentColor" d="M0.5,0.5V600.5"></path><g class="tick" opacity="1" transform="translate(0,40.740740740740726)" style="font-size: 13px;"><line stroke="currentColor" x2="0"></line><text fill="currentColor" x="-3" dy="0.32em">object (simple)    </text></g><g class="tick" opacity="1" transform="translate(0,114.81481481481481)" style="font-size: 13px;"><line stroke="currentColor" x2="0"></line><text fill="currentColor" x="-3" dy="0.32em">object (hierarchical)    </text></g><g class="tick" opacity="1" transform="translate(0,188.88888888888889)" style="font-size: 13px;"><line stroke="currentColor" x2="0"></line><text fill="currentColor" x="-3" dy="0.32em">object (recursive)    </text></g><g class="tick" opacity="1" transform="translate(0,262.96296296296293)" style="font-size: 13px;"><line stroke="currentColor" x2="0"></line><text fill="currentColor" x="-3" dy="0.32em">object (union, explicit)    </text></g><g class="tick" opacity="1" transform="translate(0,337.037037037037)" style="font-size: 13px;"><line stroke="currentColor" x2="0"></line><text fill="currentColor" x="-3" dy="0.32em">array (simple)    </text></g><g class="tick" opacity="1" transform="translate(0,411.1111111111111)" style="font-size: 13px;"><line stroke="currentColor" x2="0"></line><text fill="currentColor" x="-3" dy="0.32em">array (hierarchical)    </text></g><g class="tick" opacity="1" transform="translate(0,485.18518518518516)" style="font-size: 13px;"><line stroke="currentColor" x2="0"></line><text fill="currentColor" x="-3" dy="0.32em">array (recursive)    </text></g><g class="tick" opacity="1" transform="translate(0,559.2592592592592)" style="font-size: 13px;"><line stroke="currentColor" x2="0"></line><text fill="currentColor" x="-3" dy="0.32em">array (union, explicit)    </text></g></g><g class="x axis" transform="translate(149,645)" fill="none" font-size="10" font-family="sans-serif" text-anchor="middle" style="font-size: 13px;"><path class="domain" stroke="currentColor" d="M0.5,0.5H485.5"></path><g class="tick" opacity="1" transform="translate(0.5,0)" style="font-size: 13px;"><line stroke="currentColor" y2="6"></line><text fill="currentColor" y="9" dy="0.71em">0x</text></g><g class="tick" opacity="1" transform="translate(92.97085350936516,0)" style="font-size: 13px;"><line stroke="currentColor" y2="6"></line><text fill="currentColor" y="9" dy="0.71em">10x</text></g><g class="tick" opacity="1" transform="translate(185.4417070187303,0)" style="font-size: 13px;"><line stroke="currentColor" y2="6"></line><text fill="currentColor" y="9" dy="0.71em">20x</text></g><g class="tick" opacity="1" transform="translate(277.91256052809547,0)" style="font-size: 13px;"><line stroke="currentColor" y2="6"></line><text fill="currentColor" y="9" dy="0.71em">30x</text></g><g class="tick" opacity="1" transform="translate(370.3834140374606,0)" style="font-size: 13px;"><line stroke="currentColor" y2="6"></line><text fill="currentColor" y="9" dy="0.71em">40x</text></g><g class="tick" opacity="1" transform="translate(462.8542675468258,0)" style="font-size: 13px;"><line stroke="currentColor" y2="6"></line><text fill="currentColor" y="9" dy="0.71em">50x</text></g></g><text transform="translate(400, 30)" style="text-anchor: middle; font-size: 20px; font-weight: bold;">server-assert benchmark</text><rect x="650" y="145" width="230" height="5" fill="gray"></rect><rect x="645" y="35" width="230" height="110" fill="none" stroke="black"></rect><rect x="655" y="45" width="10" height="10" style="fill: #4472c4;"></rect><text x="670" y="55" style="font-size: 12px;">fastify-typia</text><rect x="655" y="65" width="10" height="10" style="fill: #ed7d31;"></rect><text x="670" y="75" style="font-size: 12px;">fastify-pure</text><rect x="655" y="85" width="10" height="10" style="fill: #a5a5a5;"></rect><text x="670" y="95" style="font-size: 12px;">fastify-class-transformer</text><rect x="655" y="105" width="10" height="10" style="fill: #ffc000;"></rect><text x="670" y="115" style="font-size: 12px;">express-typia</text><rect x="655" y="125" width="10" height="10" style="fill: #5b9bd5;"></rect><text x="670" y="135" style="font-size: 12px;">express-class-transformer</text><text x="20" y="709" style="font-size: 12px;">  - CPU: Intel(R) Core(TM) i5-8250U CPU @ 1.60GHz</text><text x="20" y="726" style="font-size: 12px;">  - OS: win32</text><text x="20" y="743" style="font-size: 12px;">  - RAM: 8 GB</text><text x="20" y="760" style="font-size: 12px;">  - NodeJS version: v16.20.1</text><text x="20" y="777" style="font-size: 12px;">  - Typia version: v4.2.0</text><g style="font-size: 13px;"><g style="font-size: 13px;"><rect x="150" y="53.06747341400805" width="125.8852007881075" height="12.541254125412543" fill="#4472c4"></rect><rect x="150" y="66.26879354602124" width="124.89222120470777" height="12.541254125412543" fill="#ed7d31"></rect><rect x="150" y="79.47011367803445" width="10.126733147626865" height="12.541254125412543" fill="#a5a5a5"></rect><rect x="150" y="92.67143381004766" width="88.48407708101993" height="12.541254125412543" fill="#ffc000"></rect><rect x="150" y="105.87275394206085" width="9.247085350936516" height="12.541254125412543" fill="#5b9bd5"></rect><text class="label" x="284.3852007881075" y="61.56747341400805" font-size="10px">13.61x</text><text class="label" x="283.39222120470777" y="74.76879354602124" font-size="10px">13.51x</text><text class="label" x="168.62673314762685" y="87.97011367803445" font-size="10px">1.1x</text><text class="label" x="246.98407708101993" y="101.17143381004766" font-size="10px">9.57x</text><text class="label" x="167.74708535093652" y="114.37275394206085" font-size="10px">1x</text><text class="label" x="280.8852007881075" y="63.06747341400805" font-size="8px"></text><text class="label" x="279.89222120470777" y="76.26879354602124" font-size="8px"></text><text class="label" x="165.12673314762685" y="89.47011367803445" font-size="8px"></text><text class="label" x="243.48407708101993" y="102.67143381004766" font-size="8px"></text><text class="label" x="164.24708535093652" y="115.87275394206085" font-size="8px"></text></g><g style="font-size: 13px;"><rect x="150" y="127.14154748808213" width="192.56840510665674" height="12.541254125412543" fill="#4472c4"></rect><rect x="150" y="140.34286762009532" width="184.29181763486102" height="12.541254125412543" fill="#ed7d31"></rect><rect x="150" y="153.54418775210854" width="15.287428329833975" height="12.541254125412543" fill="#a5a5a5"></rect><rect x="150" y="166.74550788412174" width="127.24932167278037" height="12.541254125412543" fill="#ffc000"></rect><rect x="150" y="179.94682801613493" width="9.247085350936516" height="12.541254125412543" fill="#5b9bd5"></rect><text class="label" x="351.06840510665677" y="135.64154748808213" font-size="10px">20.82x</text><text class="label" x="342.791817634861" y="148.84286762009532" font-size="10px">19.93x</text><text class="label" x="173.78742832983397" y="162.04418775210854" font-size="10px">1.65x</text><text class="label" x="285.74932167278035" y="175.24550788412174" font-size="10px">13.76x</text><text class="label" x="167.74708535093652" y="188.44682801613493" font-size="10px">1x</text><text class="label" x="347.56840510665677" y="137.14154748808213" font-size="8px"></text><text class="label" x="339.291817634861" y="150.34286762009532" font-size="8px"></text><text class="label" x="170.28742832983397" y="163.54418775210854" font-size="8px"></text><text class="label" x="282.24932167278035" y="176.74550788412174" font-size="8px"></text><text class="label" x="164.24708535093652" y="189.94682801613493" font-size="8px"></text></g><g style="font-size: 13px;"><rect x="150" y="201.2156215621562" width="110.5339914734768" height="12.541254125412543" fill="#4472c4"></rect><rect x="150" y="214.4169416941694" width="138.2588822506408" height="12.541254125412543" fill="#ed7d31"></rect><rect x="150" y="227.61826182618262" width="9.352303252187829" height="12.541254125412543" fill="#a5a5a5"></rect><rect x="150" y="240.8195819581958" width="145.11068098907435" height="12.541254125412543" fill="#ffc000"></rect><rect x="150" y="254.020902090209" width="9.247085350936516" height="12.541254125412543" fill="#5b9bd5"></rect><text class="label" x="269.0339914734768" y="209.7156215621562" font-size="10px">11.95x</text><text class="label" x="296.7588822506408" y="222.9169416941694" font-size="10px">14.95x</text><text class="label" x="167.85230325218782" y="236.11826182618262" font-size="10px">1.01x</text><text class="label" x="303.61068098907435" y="249.3195819581958" font-size="10px">15.69x</text><text class="label" x="167.74708535093652" y="262.520902090209" font-size="10px">1x</text><text class="label" x="265.5339914734768" y="211.2156215621562" font-size="8px"></text><text class="label" x="293.2588822506408" y="224.4169416941694" font-size="8px"></text><text class="label" x="164.35230325218782" y="237.61826182618262" font-size="8px"></text><text class="label" x="300.11068098907435" y="250.8195819581958" font-size="8px"></text><text class="label" x="164.24708535093652" y="264.020902090209" font-size="8px"></text></g><g style="font-size: 13px;"><rect x="150" y="275.28969563623025" width="250.0943593576076" height="12.541254125412543" fill="#4472c4"></rect><rect x="150" y="288.49101576824347" width="145.0315880027486" height="12.541254125412543" fill="#ed7d31"></rect><rect x="150" y="301.6923359002567" width="9.483662988501402" height="12.541254125412543" fill="#a5a5a5"></rect><rect x="150" y="314.89365603226986" width="239.04623270045406" height="12.541254125412543" fill="#ffc000"></rect><rect x="150" y="328.0949761642831" width="9.247085350936516" height="12.541254125412543" fill="#5b9bd5"></rect><text class="label" x="408.5943593576076" y="283.78969563623025" font-size="10px">27.05x</text><text class="label" x="303.5315880027486" y="296.99101576824347" font-size="10px">15.68x</text><text class="label" x="167.9836629885014" y="310.1923359002567" font-size="10px">1.03x</text><text class="label" x="397.5462327004541" y="323.39365603226986" font-size="10px">25.85x</text><text class="label" x="167.74708535093652" y="336.5949761642831" font-size="10px">1x</text><text class="label" x="405.0943593576076" y="285.28969563623025" font-size="8px"></text><text class="label" x="300.0315880027486" y="298.49101576824347" font-size="8px"></text><text class="label" x="164.4836629885014" y="311.6923359002567" font-size="8px"></text><text class="label" x="394.0462327004541" y="324.89365603226986" font-size="8px"></text><text class="label" x="164.24708535093652" y="338.0949761642831" font-size="8px"></text></g><g style="font-size: 13px;"><rect x="150" y="349.3637697103044" width="133.44098948110573" height="12.541254125412543" fill="#4472c4"></rect><rect x="150" y="362.56508984231755" width="118.0616334217951" height="12.541254125412543" fill="#ed7d31"></rect><rect x="150" y="375.76640997433077" width="10.111212038717955" height="12.541254125412543" fill="#a5a5a5"></rect><rect x="150" y="388.967730106344" width="141.83436564363444" height="12.541254125412543" fill="#ffc000"></rect><rect x="150" y="402.16905023835716" width="9.247085350936516" height="12.541254125412543" fill="#5b9bd5"></rect><text class="label" x="291.9409894811057" y="357.8637697103044" font-size="10px">14.43x</text><text class="label" x="276.5616334217951" y="371.06508984231755" font-size="10px">12.77x</text><text class="label" x="168.61121203871795" y="384.26640997433077" font-size="10px">1.09x</text><text class="label" x="300.33436564363444" y="397.467730106344" font-size="10px">15.34x</text><text class="label" x="167.74708535093652" y="410.66905023835716" font-size="10px">1x</text><text class="label" x="288.4409894811057" y="359.3637697103044" font-size="8px"></text><text class="label" x="273.0616334217951" y="372.56508984231755" font-size="8px"></text><text class="label" x="165.11121203871795" y="385.76640997433077" font-size="8px"></text><text class="label" x="296.83436564363444" y="398.967730106344" font-size="8px"></text><text class="label" x="164.24708535093652" y="412.16905023835716" font-size="8px"></text></g><g style="font-size: 13px;"><rect x="150" y="423.4378437843784" width="10.159986568943651" height="12.541254125412543" fill="#4472c4"></rect><rect x="150" y="436.6391639163916" width="89.95399128273031" height="12.541254125412543" fill="#ed7d31"></rect><rect x="150" y="449.84048404840485" width="9.247085350936516" height="12.541254125412543" fill="#a5a5a5"></rect><rect x="150" y="463.041804180418" width="345.61084380834626" height="12.541254125412543" fill="#ffc000"></rect><rect x="150" y="476.24312431243123" width="13.964736951202006" height="12.541254125412543" fill="#5b9bd5"></rect><text class="label" x="168.65998656894365" y="431.9378437843784" font-size="10px">1.1x</text><text class="label" x="248.45399128273033" y="445.1391639163916" font-size="10px">9.73x</text><text class="label" x="167.74708535093652" y="458.34048404840485" font-size="10px">1x</text><text class="label" x="504.11084380834626" y="471.541804180418" font-size="10px">37.38x</text><text class="label" x="172.464736951202" y="484.74312431243123" font-size="10px">1.51x</text><text class="label" x="165.15998656894365" y="433.4378437843784" font-size="8px"></text><text class="label" x="244.95399128273033" y="446.6391639163916" font-size="8px"></text><text class="label" x="164.24708535093652" y="459.84048404840485" font-size="8px"></text><text class="label" x="500.61084380834626" y="473.041804180418" font-size="8px"></text><text class="label" x="168.964736951202" y="486.24312431243123" font-size="8px"></text></g><g style="font-size: 13px;"><rect x="150" y="497.51191785845253" width="166.93614500450695" height="12.541254125412543" fill="#4472c4"></rect><rect x="150" y="510.7132379904657" width="139.62109991309276" height="12.541254125412543" fill="#ed7d31"></rect><rect x="150" y="523.9145581224789" width="9.247085350936516" height="12.541254125412543" fill="#a5a5a5"></rect><rect x="150" y="537.1158782544921" width="180.53309996370285" height="12.541254125412543" fill="#ffc000"></rect><rect x="150" y="550.3171983865053" width="10.772832086934503" height="12.541254125412543" fill="#5b9bd5"></rect><text class="label" x="325.43614500450695" y="506.01191785845253" font-size="10px">18.05x</text><text class="label" x="298.12109991309273" y="519.2132379904657" font-size="10px">15.1x</text><text class="label" x="167.74708535093652" y="532.4145581224789" font-size="10px">1x</text><text class="label" x="339.03309996370285" y="545.6158782544921" font-size="10px">19.52x</text><text class="label" x="169.2728320869345" y="558.8171983865053" font-size="10px">1.16x</text><text class="label" x="321.93614500450695" y="507.51191785845253" font-size="8px"></text><text class="label" x="294.62109991309273" y="520.7132379904657" font-size="8px"></text><text class="label" x="164.24708535093652" y="533.9145581224789" font-size="8px"></text><text class="label" x="335.53309996370285" y="547.1158782544921" font-size="8px"></text><text class="label" x="165.7728320869345" y="560.3171983865053" font-size="8px"></text></g><g style="font-size: 13px;"><rect x="150" y="571.5859919325266" width="277.4938707141087" height="12.541254125412543" fill="#4472c4"></rect><rect x="150" y="584.7873120645397" width="128.8754087650985" height="12.541254125412543" fill="#ed7d31"></rect><rect x="150" y="597.9886321965529" width="9.247085350936516" height="12.541254125412543" fill="#a5a5a5"></rect><rect x="150" y="611.1899523285662" width="440.9090909090909" height="12.541254125412543" fill="#ffc000"></rect><rect x="150" y="624.3912724605793" width="23.080256911096534" height="12.541254125412543" fill="#5b9bd5"></rect><text class="label" x="435.9938707141087" y="580.0859919325266" font-size="10px">30.01x</text><text class="label" x="287.37540876509854" y="593.2873120645397" font-size="10px">13.94x</text><text class="label" x="167.74708535093652" y="606.4886321965529" font-size="10px">1x</text><text class="label" x="599.4090909090909" y="619.6899523285662" font-size="10px">47.68x</text><text class="label" x="181.58025691109654" y="632.8912724605793" font-size="10px">2.5x</text><text class="label" x="432.4938707141087" y="581.5859919325266" font-size="8px"></text><text class="label" x="283.87540876509854" y="594.7873120645397" font-size="8px"></text><text class="label" x="164.24708535093652" y="607.9886321965529" font-size="8px"></text><text class="label" x="595.9090909090909" y="621.1899523285662" font-size="8px"></text><text class="label" x="178.08025691109654" y="634.3912724605793" font-size="8px"></text></g></g></svg>