<svg xmlns="http://www.w3.org/2000/svg" xmlns:xlink="http://www.w3.org/1999/xlink" width="800" height="794" style="background-color: white;"><g class="y axis" transform="translate(149,45)" fill="none" font-size="10" font-family="sans-serif" text-anchor="end" style="font-size: 13px;"><path class="domain" stroke="currentColor" d="M0.5,0.5V600.5"></path><g class="tick" opacity="1" transform="translate(0,40.740740740740726)" style="font-size: 13px;"><line stroke="currentColor" x2="0"></line><text fill="currentColor" x="-3" dy="0.32em">object (simple)    </text></g><g class="tick" opacity="1" transform="translate(0,114.81481481481481)" style="font-size: 13px;"><line stroke="currentColor" x2="0"></line><text fill="currentColor" x="-3" dy="0.32em">object (hierarchical)    </text></g><g class="tick" opacity="1" transform="translate(0,188.88888888888889)" style="font-size: 13px;"><line stroke="currentColor" x2="0"></line><text fill="currentColor" x="-3" dy="0.32em">object (recursive)    </text></g><g class="tick" opacity="1" transform="translate(0,262.96296296296293)" style="font-size: 13px;"><line stroke="currentColor" x2="0"></line><text fill="currentColor" x="-3" dy="0.32em">object (union, explicit)    </text></g><g class="tick" opacity="1" transform="translate(0,337.037037037037)" style="font-size: 13px;"><line stroke="currentColor" x2="0"></line><text fill="currentColor" x="-3" dy="0.32em">array (simple)    </text></g><g class="tick" opacity="1" transform="translate(0,411.1111111111111)" style="font-size: 13px;"><line stroke="currentColor" x2="0"></line><text fill="currentColor" x="-3" dy="0.32em">array (hierarchical)    </text></g><g class="tick" opacity="1" transform="translate(0,485.18518518518516)" style="font-size: 13px;"><line stroke="currentColor" x2="0"></line><text fill="currentColor" x="-3" dy="0.32em">array (recursive)    </text></g><g class="tick" opacity="1" transform="translate(0,559.2592592592592)" style="font-size: 13px;"><line stroke="currentColor" x2="0"></line><text fill="currentColor" x="-3" dy="0.32em">array (union, explicit)    </text></g></g><g class="x axis" transform="translate(149,645)" fill="none" font-size="10" font-family="sans-serif" text-anchor="middle" style="font-size: 13px;"><path class="domain" stroke="currentColor" d="M0.5,0.5H485.5"></path><g class="tick" opacity="1" transform="translate(0.5,0)" style="font-size: 13px;"><line stroke="currentColor" y2="6"></line><text fill="currentColor" y="9" dy="0.71em">0x</text></g><g class="tick" opacity="1" transform="translate(77.803497010394,0)" style="font-size: 13px;"><line stroke="currentColor" y2="6"></line><text fill="currentColor" y="9" dy="0.71em">5x</text></g><g class="tick" opacity="1" transform="translate(155.106994020788,0)" style="font-size: 13px;"><line stroke="currentColor" y2="6"></line><text fill="currentColor" y="9" dy="0.71em">10x</text></g><g class="tick" opacity="1" transform="translate(232.410491031182,0)" style="font-size: 13px;"><line stroke="currentColor" y2="6"></line><text fill="currentColor" y="9" dy="0.71em">15x</text></g><g class="tick" opacity="1" transform="translate(309.713988041576,0)" style="font-size: 13px;"><line stroke="currentColor" y2="6"></line><text fill="currentColor" y="9" dy="0.71em">20x</text></g><g class="tick" opacity="1" transform="translate(387.01748505197,0)" style="font-size: 13px;"><line stroke="currentColor" y2="6"></line><text fill="currentColor" y="9" dy="0.71em">25x</text></g><g class="tick" opacity="1" transform="translate(464.320982062364,0)" style="font-size: 13px;"><line stroke="currentColor" y2="6"></line><text fill="currentColor" y="9" dy="0.71em">30x</text></g></g><text transform="translate(400, 30)" style="text-anchor: middle; font-size: 20px; font-weight: bold;">server-assert benchmark</text><rect x="650" y="145" width="230" height="5" fill="gray"></rect><rect x="645" y="35" width="230" height="110" fill="none" stroke="black"></rect><rect x="655" y="45" width="10" height="10" style="fill: #4472c4;"></rect><text x="670" y="55" style="font-size: 12px;">fastify-typia</text><rect x="655" y="65" width="10" height="10" style="fill: #ed7d31;"></rect><text x="670" y="75" style="font-size: 12px;">fastify-pure</text><rect x="655" y="85" width="10" height="10" style="fill: #a5a5a5;"></rect><text x="670" y="95" style="font-size: 12px;">fastify-class-transformer</text><rect x="655" y="105" width="10" height="10" style="fill: #ffc000;"></rect><text x="670" y="115" style="font-size: 12px;">express-typia</text><rect x="655" y="125" width="10" height="10" style="fill: #5b9bd5;"></rect><text x="670" y="135" style="font-size: 12px;">express-class-transformer</text><text x="20" y="709" style="font-size: 12px;">  - CPU: 12th Gen Intel(R) Core(TM) i5-1235U</text><text x="20" y="726" style="font-size: 12px;">  - OS: win32</text><text x="20" y="743" style="font-size: 12px;">  - RAM: 16 GB</text><text x="20" y="760" style="font-size: 12px;">  - NodeJS version: v20.6.1</text><text x="20" y="777" style="font-size: 12px;">  - Typia version: v5.0.3</text><g style="font-size: 13px;"><g style="font-size: 13px;"><rect x="150" y="53.06747341400805" width="200.91329527010083" height="12.541254125412543" fill="#4472c4"></rect><rect x="150" y="66.26879354602124" width="190.25906279140438" height="12.541254125412543" fill="#ed7d31"></rect><rect x="150" y="79.47011367803445" width="16.792422667184752" height="12.541254125412543" fill="#a5a5a5"></rect><rect x="150" y="92.67143381004766" width="141.32068898467531" height="12.541254125412543" fill="#ffc000"></rect><rect x="150" y="105.87275394206085" width="15.4606994020788" height="12.541254125412543" fill="#5b9bd5"></rect><text class="label" x="359.41329527010083" y="61.56747341400805" font-size="10px">13x</text><text class="label" x="348.7590627914044" y="74.76879354602124" font-size="10px">12.31x</text><text class="label" x="175.29242266718475" y="87.97011367803445" font-size="10px">1.09x</text><text class="label" x="299.8206889846753" y="101.17143381004766" font-size="10px">9.14x</text><text class="label" x="173.9606994020788" y="114.37275394206085" font-size="10px">1x</text><text class="label" x="355.91329527010083" y="63.06747341400805" font-size="8px"></text><text class="label" x="345.2590627914044" y="76.26879354602124" font-size="8px"></text><text class="label" x="171.79242266718475" y="89.47011367803445" font-size="8px"></text><text class="label" x="296.3206889846753" y="102.67143381004766" font-size="8px"></text><text class="label" x="170.4606994020788" y="115.87275394206085" font-size="8px"></text></g><g style="font-size: 13px;"><rect x="150" y="127.14154748808213" width="184.65486237003782" height="12.541254125412543" fill="#4472c4"></rect><rect x="150" y="140.34286762009532" width="176.2892148101318" height="12.541254125412543" fill="#ed7d31"></rect><rect x="150" y="153.54418775210854" width="15.928206059203264" height="12.541254125412543" fill="#a5a5a5"></rect><rect x="150" y="166.74550788412174" width="172.99997598156853" height="12.541254125412543" fill="#ffc000"></rect><rect x="150" y="179.94682801613493" width="15.4606994020788" height="12.541254125412543" fill="#5b9bd5"></rect><text class="label" x="343.1548623700378" y="135.64154748808213" font-size="10px">11.94x</text><text class="label" x="334.7892148101318" y="148.84286762009532" font-size="10px">11.4x</text><text class="label" x="174.42820605920326" y="162.04418775210854" font-size="10px">1.03x</text><text class="label" x="331.4999759815685" y="175.24550788412174" font-size="10px">11.19x</text><text class="label" x="173.9606994020788" y="188.44682801613493" font-size="10px">1x</text><text class="label" x="339.6548623700378" y="137.14154748808213" font-size="8px"></text><text class="label" x="331.2892148101318" y="150.34286762009532" font-size="8px"></text><text class="label" x="170.92820605920326" y="163.54418775210854" font-size="8px"></text><text class="label" x="327.9999759815685" y="176.74550788412174" font-size="8px"></text><text class="label" x="170.4606994020788" y="189.94682801613493" font-size="8px"></text></g><g style="font-size: 13px;"><rect x="150" y="201.2156215621562" width="219.0909972102674" height="12.541254125412543" fill="#4472c4"></rect><rect x="150" y="214.4169416941694" width="206.03225753602604" height="12.541254125412543" fill="#ed7d31"></rect><rect x="150" y="227.61826182618262" width="16.22249456649648" height="12.541254125412543" fill="#a5a5a5"></rect><rect x="150" y="240.8195819581958" width="215.2153453124818" height="12.541254125412543" fill="#ffc000"></rect><rect x="150" y="254.020902090209" width="15.4606994020788" height="12.541254125412543" fill="#5b9bd5"></rect><text class="label" x="377.5909972102674" y="209.7156215621562" font-size="10px">14.17x</text><text class="label" x="364.532257536026" y="222.9169416941694" font-size="10px">13.33x</text><text class="label" x="174.7224945664965" y="236.11826182618262" font-size="10px">1.05x</text><text class="label" x="373.71534531248176" y="249.3195819581958" font-size="10px">13.92x</text><text class="label" x="173.9606994020788" y="262.520902090209" font-size="10px">1x</text><text class="label" x="374.0909972102674" y="211.2156215621562" font-size="8px"></text><text class="label" x="361.032257536026" y="224.4169416941694" font-size="8px"></text><text class="label" x="171.2224945664965" y="237.61826182618262" font-size="8px"></text><text class="label" x="370.21534531248176" y="250.8195819581958" font-size="8px"></text><text class="label" x="170.4606994020788" y="264.020902090209" font-size="8px"></text></g><g style="font-size: 13px;"><rect x="150" y="275.28969563623025" width="381.6608860846487" height="12.541254125412543" fill="#4472c4"></rect><rect x="150" y="288.49101576824347" width="246.82909042614295" height="12.541254125412543" fill="#ed7d31"></rect><rect x="150" y="301.6923359002567" width="15.531285077010324" height="12.541254125412543" fill="#a5a5a5"></rect><rect x="150" y="314.89365603226986" width="378.4889596947231" height="12.541254125412543" fill="#ffc000"></rect><rect x="150" y="328.0949761642831" width="15.4606994020788" height="12.541254125412543" fill="#5b9bd5"></rect><text class="label" x="540.1608860846487" y="283.78969563623025" font-size="10px">24.69x</text><text class="label" x="405.32909042614295" y="296.99101576824347" font-size="10px">15.96x</text><text class="label" x="174.03128507701032" y="310.1923359002567" font-size="10px">1x</text><text class="label" x="536.9889596947231" y="323.39365603226986" font-size="10px">24.48x</text><text class="label" x="173.9606994020788" y="336.5949761642831" font-size="10px">1x</text><text class="label" x="536.6608860846487" y="285.28969563623025" font-size="8px"></text><text class="label" x="401.82909042614295" y="298.49101576824347" font-size="8px"></text><text class="label" x="170.53128507701032" y="311.6923359002567" font-size="8px"></text><text class="label" x="533.4889596947231" y="324.89365603226986" font-size="8px"></text><text class="label" x="170.4606994020788" y="338.0949761642831" font-size="8px"></text></g><g style="font-size: 13px;"><rect x="150" y="349.3637697103044" width="217.7279826987793" height="12.541254125412543" fill="#4472c4"></rect><rect x="150" y="362.56508984231755" width="221.28910331308452" height="12.541254125412543" fill="#ed7d31"></rect><rect x="150" y="375.76640997433077" width="16.83704703170024" height="12.541254125412543" fill="#a5a5a5"></rect><rect x="150" y="388.967730106344" width="216.90264909879434" height="12.541254125412543" fill="#ffc000"></rect><rect x="150" y="402.16905023835716" width="15.4606994020788" height="12.541254125412543" fill="#5b9bd5"></rect><text class="label" x="376.22798269877933" y="357.8637697103044" font-size="10px">14.08x</text><text class="label" x="379.7891033130845" y="371.06508984231755" font-size="10px">14.31x</text><text class="label" x="175.33704703170025" y="384.26640997433077" font-size="10px">1.09x</text><text class="label" x="375.4026490987943" y="397.467730106344" font-size="10px">14.03x</text><text class="label" x="173.9606994020788" y="410.66905023835716" font-size="10px">1x</text><text class="label" x="372.72798269877933" y="359.3637697103044" font-size="8px"></text><text class="label" x="376.2891033130845" y="372.56508984231755" font-size="8px"></text><text class="label" x="171.83704703170025" y="385.76640997433077" font-size="8px"></text><text class="label" x="371.9026490987943" y="398.967730106344" font-size="8px"></text><text class="label" x="170.4606994020788" y="412.16905023835716" font-size="8px"></text></g><g style="font-size: 13px;"><rect x="150" y="423.4378437843784" width="404.2818865809452" height="12.541254125412543" fill="#4472c4"></rect><rect x="150" y="436.6391639163916" width="440.9090909090909" height="12.541254125412543" fill="#ed7d31"></rect><rect x="150" y="449.84048404840485" width="15.4606994020788" height="12.541254125412543" fill="#a5a5a5"></rect><rect x="150" y="463.041804180418" width="431.0663948056354" height="12.541254125412543" fill="#ffc000"></rect><rect x="150" y="476.24312431243123" width="22.982703003092944" height="12.541254125412543" fill="#5b9bd5"></rect><text class="label" x="562.7818865809452" y="431.9378437843784" font-size="10px">26.15x</text><text class="label" x="599.4090909090909" y="445.1391639163916" font-size="10px">28.52x</text><text class="label" x="173.9606994020788" y="458.34048404840485" font-size="10px">1x</text><text class="label" x="589.5663948056354" y="471.541804180418" font-size="10px">27.88x</text><text class="label" x="181.48270300309295" y="484.74312431243123" font-size="10px">1.49x</text><text class="label" x="559.2818865809452" y="433.4378437843784" font-size="8px"></text><text class="label" x="595.9090909090909" y="446.6391639163916" font-size="8px"></text><text class="label" x="170.4606994020788" y="459.84048404840485" font-size="8px"></text><text class="label" x="586.0663948056354" y="473.041804180418" font-size="8px"></text><text class="label" x="177.98270300309295" y="486.24312431243123" font-size="8px"></text></g><g style="font-size: 13px;"><rect x="150" y="497.51191785845253" width="236.75565366342872" height="12.541254125412543" fill="#4472c4"></rect><rect x="150" y="510.7132379904657" width="228.76433631674772" height="12.541254125412543" fill="#ed7d31"></rect><rect x="150" y="523.9145581224789" width="15.529473449560136" height="12.541254125412543" fill="#a5a5a5"></rect><rect x="150" y="537.1158782544921" width="253.69605051053952" height="12.541254125412543" fill="#ffc000"></rect><rect x="150" y="550.3171983865053" width="15.4606994020788" height="12.541254125412543" fill="#5b9bd5"></rect><text class="label" x="395.2556536634287" y="506.01191785845253" font-size="10px">15.31x</text><text class="label" x="387.26433631674774" y="519.2132379904657" font-size="10px">14.8x</text><text class="label" x="174.02947344956013" y="532.4145581224789" font-size="10px">1x</text><text class="label" x="412.1960505105395" y="545.6158782544921" font-size="10px">16.41x</text><text class="label" x="173.9606994020788" y="558.8171983865053" font-size="10px">1x</text><text class="label" x="391.7556536634287" y="507.51191785845253" font-size="8px"></text><text class="label" x="383.76433631674774" y="520.7132379904657" font-size="8px"></text><text class="label" x="170.52947344956013" y="533.9145581224789" font-size="8px"></text><text class="label" x="408.6960505105395" y="547.1158782544921" font-size="8px"></text><text class="label" x="170.4606994020788" y="560.3171983865053" font-size="8px"></text></g><g style="font-size: 13px;"><rect x="150" y="571.5859919325266" width="301.74933284733083" height="12.541254125412543" fill="#4472c4"></rect><rect x="150" y="584.7873120645397" width="202.72627402954782" height="12.541254125412543" fill="#ed7d31"></rect><rect x="150" y="597.9886321965529" width="15.4606994020788" height="12.541254125412543" fill="#a5a5a5"></rect><rect x="150" y="611.1899523285662" width="313.0380891916798" height="12.541254125412543" fill="#ffc000"></rect><rect x="150" y="624.3912724605793" width="16.806344568411937" height="12.541254125412543" fill="#5b9bd5"></rect><text class="label" x="460.24933284733083" y="580.0859919325266" font-size="10px">19.52x</text><text class="label" x="361.2262740295478" y="593.2873120645397" font-size="10px">13.11x</text><text class="label" x="173.9606994020788" y="606.4886321965529" font-size="10px">1x</text><text class="label" x="471.5380891916798" y="619.6899523285662" font-size="10px">20.25x</text><text class="label" x="175.30634456841193" y="632.8912724605793" font-size="10px">1.09x</text><text class="label" x="456.74933284733083" y="581.5859919325266" font-size="8px"></text><text class="label" x="357.7262740295478" y="594.7873120645397" font-size="8px"></text><text class="label" x="170.4606994020788" y="607.9886321965529" font-size="8px"></text><text class="label" x="468.0380891916798" y="621.1899523285662" font-size="8px"></text><text class="label" x="171.80634456841193" y="634.3912724605793" font-size="8px"></text></g></g></svg>