<svg xmlns="http://www.w3.org/2000/svg" xmlns:xlink="http://www.w3.org/1999/xlink" width="800" height="600" style="background-color: white;"><g class="y axis" transform="translate(149,45)" fill="none" font-size="10" font-family="sans-serif" text-anchor="end" style="font-size: 13px;"><path class="domain" stroke="currentColor" d="M0.5,0.5V525.5"></path><g class="tick" opacity="1" transform="translate(0,40.66901408450705)" style="font-size: 13px;"><line stroke="currentColor" x2="0"></line><text fill="currentColor" x="-3" dy="0.32em">object (simple)    </text></g><g class="tick" opacity="1" transform="translate(0,114.61267605633802)" style="font-size: 13px;"><line stroke="currentColor" x2="0"></line><text fill="currentColor" x="-3" dy="0.32em">object (hierarchical)    </text></g><g class="tick" opacity="1" transform="translate(0,188.556338028169)" style="font-size: 13px;"><line stroke="currentColor" x2="0"></line><text fill="currentColor" x="-3" dy="0.32em">object (recursive)    </text></g><g class="tick" opacity="1" transform="translate(0,262.5)" style="font-size: 13px;"><line stroke="currentColor" x2="0"></line><text fill="currentColor" x="-3" dy="0.32em">object (union)    </text></g><g class="tick" opacity="1" transform="translate(0,336.443661971831)" style="font-size: 13px;"><line stroke="currentColor" x2="0"></line><text fill="currentColor" x="-3" dy="0.32em">array (hierarchical)    </text></g><g class="tick" opacity="1" transform="translate(0,410.38732394366195)" style="font-size: 13px;"><line stroke="currentColor" x2="0"></line><text fill="currentColor" x="-3" dy="0.32em">array (recursive)    </text></g><g class="tick" opacity="1" transform="translate(0,484.33098591549293)" style="font-size: 13px;"><line stroke="currentColor" x2="0"></line><text fill="currentColor" x="-3" dy="0.32em">array (union)    </text></g></g><g class="x axis" transform="translate(149,570)" fill="none" font-size="10" font-family="sans-serif" text-anchor="middle" style="font-size: 13px;"><path class="domain" stroke="currentColor" d="M0.5,0.5H485.5"></path><g class="tick" opacity="1" transform="translate(0.5,0)" style="font-size: 13px;"><line stroke="currentColor" y2="6"></line><text fill="currentColor" y="9" dy="0.71em">0x</text></g><g class="tick" opacity="1" transform="translate(114.26928311222115,0)" style="font-size: 13px;"><line stroke="currentColor" y2="6"></line><text fill="currentColor" y="9" dy="0.71em">2x</text></g><g class="tick" opacity="1" transform="translate(228.0385662244423,0)" style="font-size: 13px;"><line stroke="currentColor" y2="6"></line><text fill="currentColor" y="9" dy="0.71em">4x</text></g><g class="tick" opacity="1" transform="translate(341.8078493366635,0)" style="font-size: 13px;"><line stroke="currentColor" y2="6"></line><text fill="currentColor" y="9" dy="0.71em">6x</text></g><g class="tick" opacity="1" transform="translate(455.5771324488846,0)" style="font-size: 13px;"><line stroke="currentColor" y2="6"></line><text fill="currentColor" y="9" dy="0.71em">8x</text></g></g><text transform="translate(400, 30)" style="text-anchor: middle; font-size: 20px; font-weight: bold;">stringify benchmark</text><rect x="680" y="145" width="200" height="5" fill="gray"></rect><rect x="675" y="35" width="200" height="110" fill="none" stroke="black"></rect><rect x="685" y="45" width="10" height="10" style="fill: #4472c4;"></rect><text x="700" y="55" style="font-size: 12px;">TSON.stringify()</text><rect x="685" y="65" width="10" height="10" style="fill: #ed7d31;"></rect><text x="700" y="75" style="font-size: 12px;">TSON.assertStringify()</text><rect x="685" y="85" width="10" height="10" style="fill: #a5a5a5;"></rect><text x="700" y="95" style="font-size: 12px;">TSON.isStringify()</text><rect x="685" y="105" width="10" height="10" style="fill: #ffc000;"></rect><text x="700" y="115" style="font-size: 12px;">JSON.stringify()</text><rect x="685" y="125" width="10" height="10" style="fill: #5b9bd5;"></rect><text x="700" y="135" style="font-size: 12px;">fast-json-stringify</text><g style="font-size: 13px;"><g style="font-size: 13px;"><rect x="150" y="53.05327011574397" width="440.9090909090908" height="12.519174452656534" fill="#4472c4"></rect><rect x="150" y="66.23134848696137" width="336.4267941648594" height="12.519174452656534" fill="#ed7d31"></rect><rect x="150" y="79.40942685817878" width="378.1591955670424" height="12.519174452656534" fill="#a5a5a5"></rect><rect x="150" y="92.58750522939619" width="56.88464155611057" height="12.519174452656534" fill="#ffc000"></rect><rect x="150" y="105.76558360061358" width="289.5109174061533" height="12.519174452656534" fill="#5b9bd5"></rect><text class="label" x="599.4090909090908" y="61.55327011574397" font-size="10px">7.75x</text><text class="label" x="494.9267941648594" y="74.73134848696137" font-size="10px">5.91x</text><text class="label" x="536.6591955670424" y="87.90942685817878" font-size="10px">6.65x</text><text class="label" x="215.38464155611058" y="101.08750522939619" font-size="10px">1x</text><text class="label" x="448.0109174061533" y="114.26558360061358" font-size="10px">5.09x</text><text class="label" x="595.9090909090908" y="63.05327011574397" font-size="8px"></text><text class="label" x="491.4267941648594" y="76.23134848696137" font-size="8px"></text><text class="label" x="533.1591955670424" y="89.40942685817878" font-size="8px"></text><text class="label" x="211.88464155611058" y="102.58750522939619" font-size="8px"></text><text class="label" x="444.5109174061533" y="115.76558360061358" font-size="8px"></text></g><g style="font-size: 13px;"><rect x="150" y="126.99693208757495" width="181.22951916598004" height="12.519174452656534" fill="#4472c4"></rect><rect x="150" y="140.17501045879237" width="162.0110342209982" height="12.519174452656534" fill="#ed7d31"></rect><rect x="150" y="153.35308883000977" width="165.54624509394642" height="12.519174452656534" fill="#a5a5a5"></rect><rect x="150" y="166.53116720122716" width="56.88464155611057" height="12.519174452656534" fill="#ffc000"></rect><rect x="150" y="179.70924557244456" width="153.9350902339625" height="12.519174452656534" fill="#5b9bd5"></rect><text class="label" x="339.72951916598004" y="135.49693208757495" font-size="10px">3.19x</text><text class="label" x="320.5110342209982" y="148.67501045879237" font-size="10px">2.85x</text><text class="label" x="324.0462450939464" y="161.85308883000977" font-size="10px">2.91x</text><text class="label" x="215.38464155611058" y="175.03116720122716" font-size="10px">1x</text><text class="label" x="312.4350902339625" y="188.20924557244456" font-size="10px">2.71x</text><text class="label" x="336.22951916598004" y="136.99693208757495" font-size="8px"></text><text class="label" x="317.0110342209982" y="150.17501045879237" font-size="8px"></text><text class="label" x="320.5462450939464" y="163.35308883000977" font-size="8px"></text><text class="label" x="211.88464155611058" y="176.53116720122716" font-size="8px"></text><text class="label" x="308.9350902339625" y="189.70924557244456" font-size="8px"></text></g><g style="font-size: 13px;"><rect x="150" y="200.94059405940592" width="265.98566720246095" height="12.519174452656534" fill="#4472c4"></rect><rect x="150" y="214.11867243062332" width="240.05615811340414" height="12.519174452656534" fill="#ed7d31"></rect><rect x="150" y="227.29675080184074" width="239.09768723997811" height="12.519174452656534" fill="#a5a5a5"></rect><rect x="150" y="240.47482917305814" width="56.88464155611057" height="12.519174452656534" fill="#ffc000"></rect><rect x="150" y="253.65290754427554" width="57.762085243578404" height="12.519174452656534" fill="#5b9bd5"></rect><text class="label" x="424.48566720246095" y="209.44059405940592" font-size="10px">4.68x</text><text class="label" x="398.55615811340414" y="222.61867243062332" font-size="10px">4.22x</text><text class="label" x="397.5976872399781" y="235.79675080184074" font-size="10px">4.2x</text><text class="label" x="215.38464155611058" y="248.97482917305814" font-size="10px">1x</text><text class="label" x="216.2620852435784" y="262.15290754427554" font-size="10px">1.02x</text><text class="label" x="420.98566720246095" y="210.94059405940592" font-size="8px"></text><text class="label" x="395.05615811340414" y="224.11867243062332" font-size="8px"></text><text class="label" x="394.0976872399781" y="237.29675080184074" font-size="8px"></text><text class="label" x="211.88464155611058" y="250.47482917305814" font-size="8px"></text><text class="label" x="212.7620852435784" y="263.65290754427554" font-size="8px"></text></g><g style="font-size: 13px;"><rect x="150" y="274.8842560312369" width="119.56854476518353" height="12.519174452656534" fill="#4472c4"></rect><rect x="150" y="288.0623344024543" width="96.8469141944517" height="12.519174452656534" fill="#ed7d31"></rect><rect x="150" y="301.2404127736717" width="105.40232039176743" height="12.519174452656534" fill="#a5a5a5"></rect><rect x="150" y="314.4184911448891" width="56.88464155611057" height="12.519174452656534" fill="#ffc000"></rect><rect x="150" y="327.5965695161065" width="125.56972816541905" height="12.519174452656534" fill="#5b9bd5"></rect><text class="label" x="278.06854476518356" y="283.3842560312369" font-size="10px">2.1x</text><text class="label" x="255.3469141944517" y="296.5623344024543" font-size="10px">1.7x</text><text class="label" x="263.90232039176743" y="309.7404127736717" font-size="10px">1.85x</text><text class="label" x="215.38464155611058" y="322.9184911448891" font-size="10px">1x</text><text class="label" x="284.06972816541906" y="336.0965695161065" font-size="10px">2.21x</text><text class="label" x="274.56854476518356" y="284.8842560312369" font-size="8px"></text><text class="label" x="251.8469141944517" y="298.0623344024543" font-size="8px"></text><text class="label" x="260.40232039176743" y="311.2404127736717" font-size="8px"></text><text class="label" x="211.88464155611058" y="324.4184911448891" font-size="8px"></text><text class="label" x="280.56972816541906" y="337.5965695161065" font-size="8px"></text></g><g style="font-size: 13px;"><rect x="150" y="348.8279180030679" width="111.58484106128672" height="12.519174452656534" fill="#4472c4"></rect><rect x="150" y="362.0059963742853" width="102.61527891416426" height="12.519174452656534" fill="#ed7d31"></rect><rect x="150" y="375.1840747455027" width="109.82834905606894" height="12.519174452656534" fill="#a5a5a5"></rect><rect x="150" y="388.3621531167201" width="56.88464155611057" height="12.519174452656534" fill="#ffc000"></rect><rect x="150" y="401.5402314879375" width="140.18759812993795" height="12.519174452656534" fill="#5b9bd5"></rect><text class="label" x="270.08484106128674" y="357.3279180030679" font-size="10px">1.96x</text><text class="label" x="261.11527891416426" y="370.5059963742853" font-size="10px">1.8x</text><text class="label" x="268.32834905606893" y="383.6840747455027" font-size="10px">1.93x</text><text class="label" x="215.38464155611058" y="396.8621531167201" font-size="10px">1x</text><text class="label" x="298.68759812993795" y="410.0402314879375" font-size="10px">2.46x</text><text class="label" x="266.58484106128674" y="358.8279180030679" font-size="8px"></text><text class="label" x="257.61527891416426" y="372.0059963742853" font-size="8px"></text><text class="label" x="264.82834905606893" y="385.1840747455027" font-size="8px"></text><text class="label" x="211.88464155611058" y="398.3621531167201" font-size="8px"></text><text class="label" x="295.18759812993795" y="411.5402314879375" font-size="8px"></text></g><g style="font-size: 13px;"><rect x="150" y="422.7715799748988" width="100.89505983873654" height="12.519174452656534" fill="#4472c4"></rect><rect x="150" y="435.9496583461163" width="93.02494685633262" height="12.519174452656534" fill="#ed7d31"></rect><rect x="150" y="449.1277367173337" width="98.23400609010369" height="12.519174452656534" fill="#a5a5a5"></rect><rect x="150" y="462.30581508855107" width="56.88464155611057" height="12.519174452656534" fill="#ffc000"></rect><rect x="150" y="475.48389345976847" width="57.05530614731587" height="12.519174452656534" fill="#5b9bd5"></rect><text class="label" x="259.39505983873653" y="431.2715799748988" font-size="10px">1.77x</text><text class="label" x="251.52494685633263" y="444.4496583461163" font-size="10px">1.64x</text><text class="label" x="256.73400609010366" y="457.6277367173337" font-size="10px">1.73x</text><text class="label" x="215.38464155611058" y="470.80581508855107" font-size="10px">1x</text><text class="label" x="215.55530614731586" y="483.98389345976847" font-size="10px">1x</text><text class="label" x="255.89505983873653" y="432.7715799748988" font-size="8px"></text><text class="label" x="248.02494685633263" y="445.9496583461163" font-size="8px"></text><text class="label" x="253.2340060901037" y="459.1277367173337" font-size="8px"></text><text class="label" x="211.88464155611058" y="472.30581508855107" font-size="8px"></text><text class="label" x="212.05530614731586" y="485.48389345976847" font-size="8px"></text></g><g style="font-size: 13px;"><rect x="150" y="496.71524194672986" width="78.0328398832889" height="12.519174452656534" fill="#4472c4"></rect><rect x="150" y="509.89332031794726" width="67.22029922404104" height="12.519174452656534" fill="#ed7d31"></rect><rect x="150" y="523.0713986891647" width="65.96719963940986" height="12.519174452656534" fill="#a5a5a5"></rect><rect x="150" y="536.2494770603821" width="64.78118834200455" height="12.519174452656534" fill="#ffc000"></rect><rect x="150" y="549.4275554315994" width="56.88464155611057" height="12.519174452656534" fill="#5b9bd5"></rect><text class="label" x="236.5328398832889" y="505.21524194672986" font-size="10px">1.37x</text><text class="label" x="225.72029922404104" y="518.3933203179472" font-size="10px">1.18x</text><text class="label" x="224.46719963940984" y="531.5713986891647" font-size="10px">1.16x</text><text class="label" x="223.28118834200455" y="544.7494770603821" font-size="10px">1.14x</text><text class="label" x="215.38464155611058" y="557.9275554315994" font-size="10px">1x</text><text class="label" x="233.0328398832889" y="506.71524194672986" font-size="8px"></text><text class="label" x="222.22029922404104" y="519.8933203179472" font-size="8px"></text><text class="label" x="220.96719963940984" y="533.0713986891647" font-size="8px"></text><text class="label" x="219.78118834200455" y="546.2494770603821" font-size="8px"></text><text class="label" x="211.88464155611058" y="559.4275554315994" font-size="8px"></text></g></g></svg>