<svg xmlns="http://www.w3.org/2000/svg" xmlns:xlink="http://www.w3.org/1999/xlink" width="800" height="600" style="background-color: white;"><g class="y axis" transform="translate(149,45)" fill="none" font-size="10" font-family="sans-serif" text-anchor="end" style="font-size: 13px;"><path class="domain" stroke="currentColor" d="M0.5,0.5V525.5"></path><g class="tick" opacity="1" transform="translate(0,40.66901408450705)" style="font-size: 13px;"><line stroke="currentColor" x2="0"></line><text fill="currentColor" x="-3" dy="0.32em">object (simple)    </text></g><g class="tick" opacity="1" transform="translate(0,114.61267605633802)" style="font-size: 13px;"><line stroke="currentColor" x2="0"></line><text fill="currentColor" x="-3" dy="0.32em">object (hierarchical)    </text></g><g class="tick" opacity="1" transform="translate(0,188.556338028169)" style="font-size: 13px;"><line stroke="currentColor" x2="0"></line><text fill="currentColor" x="-3" dy="0.32em">object (recursive)    </text></g><g class="tick" opacity="1" transform="translate(0,262.5)" style="font-size: 13px;"><line stroke="currentColor" x2="0"></line><text fill="currentColor" x="-3" dy="0.32em">object (union)    </text></g><g class="tick" opacity="1" transform="translate(0,336.443661971831)" style="font-size: 13px;"><line stroke="currentColor" x2="0"></line><text fill="currentColor" x="-3" dy="0.32em">array (hierarchical)    </text></g><g class="tick" opacity="1" transform="translate(0,410.38732394366195)" style="font-size: 13px;"><line stroke="currentColor" x2="0"></line><text fill="currentColor" x="-3" dy="0.32em">array (recursive)    </text></g><g class="tick" opacity="1" transform="translate(0,484.33098591549293)" style="font-size: 13px;"><line stroke="currentColor" x2="0"></line><text fill="currentColor" x="-3" dy="0.32em">array (union)    </text></g></g><g class="x axis" transform="translate(149,570)" fill="none" font-size="10" font-family="sans-serif" text-anchor="middle" style="font-size: 13px;"><path class="domain" stroke="currentColor" d="M0.5,0.5H485.5"></path><g class="tick" opacity="1" transform="translate(0.5,0)" style="font-size: 13px;"><line stroke="currentColor" y2="6"></line><text fill="currentColor" y="9" dy="0.71em">0x</text></g><g class="tick" opacity="1" transform="translate(90.56737650361474,0)" style="font-size: 13px;"><line stroke="currentColor" y2="6"></line><text fill="currentColor" y="9" dy="0.71em">1x</text></g><g class="tick" opacity="1" transform="translate(180.63475300722948,0)" style="font-size: 13px;"><line stroke="currentColor" y2="6"></line><text fill="currentColor" y="9" dy="0.71em">2x</text></g><g class="tick" opacity="1" transform="translate(270.7021295108442,0)" style="font-size: 13px;"><line stroke="currentColor" y2="6"></line><text fill="currentColor" y="9" dy="0.71em">3x</text></g><g class="tick" opacity="1" transform="translate(360.76950601445895,0)" style="font-size: 13px;"><line stroke="currentColor" y2="6"></line><text fill="currentColor" y="9" dy="0.71em">4x</text></g><g class="tick" opacity="1" transform="translate(450.83688251807365,0)" style="font-size: 13px;"><line stroke="currentColor" y2="6"></line><text fill="currentColor" y="9" dy="0.71em">5x</text></g></g><text transform="translate(400, 30)" style="text-anchor: middle; font-size: 20px; font-weight: bold;">stringify benchmark</text><rect x="680" y="145" width="200" height="5" fill="gray"></rect><rect x="675" y="35" width="200" height="110" fill="none" stroke="black"></rect><rect x="685" y="45" width="10" height="10" style="fill: #4472c4;"></rect><text x="700" y="55" style="font-size: 12px;">TSON.stringify()</text><rect x="685" y="65" width="10" height="10" style="fill: #ed7d31;"></rect><text x="700" y="75" style="font-size: 12px;">TSON.assertStringify()</text><rect x="685" y="85" width="10" height="10" style="fill: #a5a5a5;"></rect><text x="700" y="95" style="font-size: 12px;">TSON.isStringify()</text><rect x="685" y="105" width="10" height="10" style="fill: #ffc000;"></rect><text x="700" y="115" style="font-size: 12px;">JSON.stringify()</text><rect x="685" y="125" width="10" height="10" style="fill: #5b9bd5;"></rect><text x="700" y="135" style="font-size: 12px;">fast-json-stringify</text><g style="font-size: 13px;"><g style="font-size: 13px;"><rect x="150" y="53.05327011574397" width="440.9090909090909" height="12.519174452656534" fill="#4472c4"></rect><rect x="150" y="66.23134848696137" width="333.2828432240993" height="12.519174452656534" fill="#ed7d31"></rect><rect x="150" y="79.40942685817878" width="388.9582082998313" height="12.519174452656534" fill="#a5a5a5"></rect><rect x="150" y="92.58750522939619" width="90.06737650361474" height="12.519174452656534" fill="#ffc000"></rect><rect x="150" y="105.76558360061358" width="274.44431252475897" height="12.519174452656534" fill="#5b9bd5"></rect><text class="label" x="599.4090909090909" y="61.55327011574397" font-size="10px">4.9x</text><text class="label" x="491.7828432240993" y="74.73134848696137" font-size="10px">3.7x</text><text class="label" x="547.4582082998313" y="87.90942685817878" font-size="10px">4.32x</text><text class="label" x="248.56737650361475" y="101.08750522939619" font-size="10px">1x</text><text class="label" x="432.94431252475897" y="114.26558360061358" font-size="10px">3.05x</text><text class="label" x="595.9090909090909" y="63.05327011574397" font-size="8px"></text><text class="label" x="488.2828432240993" y="76.23134848696137" font-size="8px"></text><text class="label" x="543.9582082998313" y="89.40942685817878" font-size="8px"></text><text class="label" x="245.06737650361475" y="102.58750522939619" font-size="8px"></text><text class="label" x="429.44431252475897" y="115.76558360061358" font-size="8px"></text></g><g style="font-size: 13px;"><rect x="150" y="126.99693208757495" width="242.24917834449377" height="12.519174452656534" fill="#4472c4"></rect><rect x="150" y="140.17501045879237" width="190.82692622329952" height="12.519174452656534" fill="#ed7d31"></rect><rect x="150" y="153.35308883000977" width="227.92436517716035" height="12.519174452656534" fill="#a5a5a5"></rect><rect x="150" y="166.53116720122716" width="90.06737650361474" height="12.519174452656534" fill="#ffc000"></rect><rect x="150" y="179.70924557244456" width="221.51861843639202" height="12.519174452656534" fill="#5b9bd5"></rect><text class="label" x="400.74917834449377" y="135.49693208757495" font-size="10px">2.69x</text><text class="label" x="349.32692622329955" y="148.67501045879237" font-size="10px">2.12x</text><text class="label" x="386.4243651771603" y="161.85308883000977" font-size="10px">2.53x</text><text class="label" x="248.56737650361475" y="175.03116720122716" font-size="10px">1x</text><text class="label" x="380.018618436392" y="188.20924557244456" font-size="10px">2.46x</text><text class="label" x="397.24917834449377" y="136.99693208757495" font-size="8px"></text><text class="label" x="345.82692622329955" y="150.17501045879237" font-size="8px"></text><text class="label" x="382.9243651771603" y="163.35308883000977" font-size="8px"></text><text class="label" x="245.06737650361475" y="176.53116720122716" font-size="8px"></text><text class="label" x="376.518618436392" y="189.70924557244456" font-size="8px"></text></g><g style="font-size: 13px;"><rect x="150" y="200.94059405940592" width="316.917843424555" height="12.519174452656534" fill="#4472c4"></rect><rect x="150" y="214.11867243062332" width="256.90919739934776" height="12.519174452656534" fill="#ed7d31"></rect><rect x="150" y="227.29675080184074" width="277.6527626847393" height="12.519174452656534" fill="#a5a5a5"></rect><rect x="150" y="240.47482917305814" width="90.06737650361474" height="12.519174452656534" fill="#ffc000"></rect><rect x="150" y="253.65290754427554" width="93.6403262342044" height="12.519174452656534" fill="#5b9bd5"></rect><text class="label" x="475.417843424555" y="209.44059405940592" font-size="10px">3.52x</text><text class="label" x="415.40919739934776" y="222.61867243062332" font-size="10px">2.85x</text><text class="label" x="436.1527626847393" y="235.79675080184074" font-size="10px">3.08x</text><text class="label" x="248.56737650361475" y="248.97482917305814" font-size="10px">1x</text><text class="label" x="252.1403262342044" y="262.15290754427554" font-size="10px">1.04x</text><text class="label" x="471.917843424555" y="210.94059405940592" font-size="8px"></text><text class="label" x="411.90919739934776" y="224.11867243062332" font-size="8px"></text><text class="label" x="432.6527626847393" y="237.29675080184074" font-size="8px"></text><text class="label" x="245.06737650361475" y="250.47482917305814" font-size="8px"></text><text class="label" x="248.6403262342044" y="263.65290754427554" font-size="8px"></text></g><g style="font-size: 13px;"><rect x="150" y="274.8842560312369" width="115.52628820520178" height="12.519174452656534" fill="#4472c4"></rect><rect x="150" y="288.0623344024543" width="91.83599188834494" height="12.519174452656534" fill="#ed7d31"></rect><rect x="150" y="301.2404127736717" width="103.8201392539966" height="12.519174452656534" fill="#a5a5a5"></rect><rect x="150" y="314.4184911448891" width="90.06737650361474" height="12.519174452656534" fill="#ffc000"></rect><rect x="150" y="327.5965695161065" width="134.49706526443666" height="12.519174452656534" fill="#5b9bd5"></rect><text class="label" x="274.0262882052018" y="283.3842560312369" font-size="10px">1.28x</text><text class="label" x="250.33599188834495" y="296.5623344024543" font-size="10px">1.02x</text><text class="label" x="262.3201392539966" y="309.7404127736717" font-size="10px">1.15x</text><text class="label" x="248.56737650361475" y="322.9184911448891" font-size="10px">1x</text><text class="label" x="292.9970652644366" y="336.0965695161065" font-size="10px">1.49x</text><text class="label" x="270.5262882052018" y="284.8842560312369" font-size="8px"></text><text class="label" x="246.83599188834495" y="298.0623344024543" font-size="8px"></text><text class="label" x="258.8201392539966" y="311.2404127736717" font-size="8px"></text><text class="label" x="245.06737650361475" y="324.4184911448891" font-size="8px"></text><text class="label" x="289.4970652644366" y="337.5965695161065" font-size="8px"></text></g><g style="font-size: 13px;"><rect x="150" y="348.8279180030679" width="123.93019275518834" height="12.519174452656534" fill="#4472c4"></rect><rect x="150" y="362.0059963742853" width="106.14213617873544" height="12.519174452656534" fill="#ed7d31"></rect><rect x="150" y="375.1840747455027" width="110.97151669508582" height="12.519174452656534" fill="#a5a5a5"></rect><rect x="150" y="388.3621531167201" width="90.06737650361474" height="12.519174452656534" fill="#ffc000"></rect><rect x="150" y="401.5402314879375" width="193.8651794374344" height="12.519174452656534" fill="#5b9bd5"></rect><text class="label" x="282.43019275518833" y="357.3279180030679" font-size="10px">1.38x</text><text class="label" x="264.6421361787354" y="370.5059963742853" font-size="10px">1.18x</text><text class="label" x="269.4715166950858" y="383.6840747455027" font-size="10px">1.23x</text><text class="label" x="248.56737650361475" y="396.8621531167201" font-size="10px">1x</text><text class="label" x="352.3651794374344" y="410.0402314879375" font-size="10px">2.15x</text><text class="label" x="278.93019275518833" y="358.8279180030679" font-size="8px"></text><text class="label" x="261.1421361787354" y="372.0059963742853" font-size="8px"></text><text class="label" x="265.9715166950858" y="385.1840747455027" font-size="8px"></text><text class="label" x="245.06737650361475" y="398.3621531167201" font-size="8px"></text><text class="label" x="348.8651794374344" y="411.5402314879375" font-size="8px"></text></g><g style="font-size: 13px;"><rect x="150" y="422.7715799748988" width="124.58832023199345" height="12.519174452656534" fill="#4472c4"></rect><rect x="150" y="435.9496583461163" width="106.44173453583284" height="12.519174452656534" fill="#ed7d31"></rect><rect x="150" y="449.1277367173337" width="121.41100303335298" height="12.519174452656534" fill="#a5a5a5"></rect><rect x="150" y="462.30581508855107" width="90.06737650361474" height="12.519174452656534" fill="#ffc000"></rect><rect x="150" y="475.48389345976847" width="93.39697570327648" height="12.519174452656534" fill="#5b9bd5"></rect><text class="label" x="283.08832023199346" y="431.2715799748988" font-size="10px">1.38x</text><text class="label" x="264.94173453583284" y="444.4496583461163" font-size="10px">1.18x</text><text class="label" x="279.911003033353" y="457.6277367173337" font-size="10px">1.35x</text><text class="label" x="248.56737650361475" y="470.80581508855107" font-size="10px">1x</text><text class="label" x="251.8969757032765" y="483.98389345976847" font-size="10px">1.04x</text><text class="label" x="279.58832023199346" y="432.7715799748988" font-size="8px"></text><text class="label" x="261.44173453583284" y="445.9496583461163" font-size="8px"></text><text class="label" x="276.411003033353" y="459.1277367173337" font-size="8px"></text><text class="label" x="245.06737650361475" y="472.30581508855107" font-size="8px"></text><text class="label" x="248.3969757032765" y="485.48389345976847" font-size="8px"></text></g><g style="font-size: 13px;"><rect x="150" y="496.71524194672986" width="96.38114776944194" height="12.519174452656534" fill="#4472c4"></rect><rect x="150" y="509.89332031794726" width="93.41442668703282" height="12.519174452656534" fill="#ed7d31"></rect><rect x="150" y="523.0713986891647" width="90.06737650361474" height="12.519174452656534" fill="#a5a5a5"></rect><rect x="150" y="536.2494770603821" width="102.72806166257972" height="12.519174452656534" fill="#ffc000"></rect><rect x="150" y="549.4275554315994" width="97.00966148460753" height="12.519174452656534" fill="#5b9bd5"></rect><text class="label" x="254.88114776944195" y="505.21524194672986" font-size="10px">1.07x</text><text class="label" x="251.9144266870328" y="518.3933203179472" font-size="10px">1.04x</text><text class="label" x="248.56737650361475" y="531.5713986891647" font-size="10px">1x</text><text class="label" x="261.2280616625797" y="544.7494770603821" font-size="10px">1.14x</text><text class="label" x="255.50966148460753" y="557.9275554315994" font-size="10px">1.08x</text><text class="label" x="251.38114776944195" y="506.71524194672986" font-size="8px"></text><text class="label" x="248.4144266870328" y="519.8933203179472" font-size="8px"></text><text class="label" x="245.06737650361475" y="533.0713986891647" font-size="8px"></text><text class="label" x="257.7280616625797" y="546.2494770603821" font-size="8px"></text><text class="label" x="252.00966148460753" y="559.4275554315994" font-size="8px"></text></g></g></svg>