<svg xmlns="http://www.w3.org/2000/svg" xmlns:xlink="http://www.w3.org/1999/xlink" width="800" height="750" style="background-color: white;"><g class="y axis" transform="translate(149,45)" fill="none" font-size="10" font-family="sans-serif" text-anchor="end" style="font-size: 13px;"><path class="domain" stroke="currentColor" d="M0.5,0.5V675.5"></path><g class="tick" opacity="1" transform="translate(0,40.796703296703306)" style="font-size: 13px;"><line stroke="currentColor" x2="0"></line><text fill="currentColor" x="-3" dy="0.32em">object (simple)    </text></g><g class="tick" opacity="1" transform="translate(0,114.97252747252747)" style="font-size: 13px;"><line stroke="currentColor" x2="0"></line><text fill="currentColor" x="-3" dy="0.32em">object (hierarchical)    </text></g><g class="tick" opacity="1" transform="translate(0,189.14835164835165)" style="font-size: 13px;"><line stroke="currentColor" x2="0"></line><text fill="currentColor" x="-3" dy="0.32em">object (recursive)    </text></g><g class="tick" opacity="1" transform="translate(0,263.3241758241758)" style="font-size: 13px;"><line stroke="currentColor" x2="0"></line><text fill="currentColor" x="-3" dy="0.32em">object (union, explicit)    </text></g><g class="tick" opacity="1" transform="translate(0,337.5)" style="font-size: 13px;"><line stroke="currentColor" x2="0"></line><text fill="currentColor" x="-3" dy="0.32em">object (union, implicit)    </text></g><g class="tick" opacity="1" transform="translate(0,411.6758241758242)" style="font-size: 13px;"><line stroke="currentColor" x2="0"></line><text fill="currentColor" x="-3" dy="0.32em">array (recursive)    </text></g><g class="tick" opacity="1" transform="translate(0,485.85164835164835)" style="font-size: 13px;"><line stroke="currentColor" x2="0"></line><text fill="currentColor" x="-3" dy="0.32em">array (union, explicit)    </text></g><g class="tick" opacity="1" transform="translate(0,560.0274725274727)" style="font-size: 13px;"><line stroke="currentColor" x2="0"></line><text fill="currentColor" x="-3" dy="0.32em">array (union, implicit)    </text></g><g class="tick" opacity="1" transform="translate(0,634.2032967032968)" style="font-size: 13px;"><line stroke="currentColor" x2="0"></line><text fill="currentColor" x="-3" dy="0.32em">ultimate union    </text></g></g><g class="x axis" transform="translate(149,720)" fill="none" font-size="10" font-family="sans-serif" text-anchor="middle" style="font-size: 13px;"><path class="domain" stroke="currentColor" d="M0.5,0.5H485.5"></path><g class="tick" opacity="1" transform="translate(0.5,0)" style="font-size: 13px;"><line stroke="currentColor" y2="6"></line><text fill="currentColor" y="9" dy="0.71em">0x</text></g><g class="tick" opacity="1" transform="translate(135.978919720941,0)" style="font-size: 13px;"><line stroke="currentColor" y2="6"></line><text fill="currentColor" y="9" dy="0.71em">200x</text></g><g class="tick" opacity="1" transform="translate(271.457839441882,0)" style="font-size: 13px;"><line stroke="currentColor" y2="6"></line><text fill="currentColor" y="9" dy="0.71em">400x</text></g><g class="tick" opacity="1" transform="translate(406.936759162823,0)" style="font-size: 13px;"><line stroke="currentColor" y2="6"></line><text fill="currentColor" y="9" dy="0.71em">600x</text></g></g><text transform="translate(400, 30)" style="text-anchor: middle; font-size: 20px; font-weight: bold;">assert (throw) benchmark</text><rect x="680" y="145" width="200" height="5" fill="gray"></rect><rect x="675" y="35" width="200" height="110" fill="none" stroke="black"></rect><rect x="685" y="45" width="10" height="10" style="fill: #4472c4;"></rect><text x="700" y="55" style="font-size: 12px;">typescript-json</text><rect x="685" y="65" width="10" height="10" style="fill: #ed7d31;"></rect><text x="700" y="75" style="font-size: 12px;">typebox</text><rect x="685" y="85" width="10" height="10" style="fill: #a5a5a5;"></rect><text x="700" y="95" style="font-size: 12px;">io-ts</text><rect x="685" y="105" width="10" height="10" style="fill: #ffc000;"></rect><text x="700" y="115" style="font-size: 12px;">zod</text><rect x="685" y="125" width="10" height="10" style="fill: #5b9bd5;"></rect><text x="700" y="135" style="font-size: 12px;">class-validator</text><g style="font-size: 13px;"><g style="font-size: 13px;"><rect x="150" y="53.07855510825809" width="312.3611949666967" height="12.55848112283756" fill="#4472c4"></rect><rect x="150" y="66.2980089217713" width="17.1528290916972" height="12.55848112283756" fill="#ed7d31"></rect><rect x="150" y="79.51746273528452" width="72.29547434677156" height="12.55848112283756" fill="#a5a5a5"></rect><rect x="150" y="92.73691654879775" width="0" height="12.55848112283756" fill="#ffc000"></rect><rect x="150" y="105.95637036231096" width="0.677394598604705" height="12.55848112283756" fill="#5b9bd5"></rect><text class="label" x="470.8611949666967" y="61.57855510825809" font-size="10px">461x</text><text class="label" x="175.65282909169719" y="74.7980089217713" font-size="10px">25x</text><text class="label" x="230.79547434677156" y="88.01746273528452" font-size="10px">107x</text><text class="label" x="158.5" y="101.23691654879775" font-size="10px"></text><text class="label" x="159.1773945986047" y="114.45637036231096" font-size="10px">1x</text><text class="label" x="467.3611949666967" y="63.07855510825809" font-size="8px"></text><text class="label" x="172.15282909169719" y="76.2980089217713" font-size="8px"></text><text class="label" x="227.29547434677156" y="89.51746273528452" font-size="8px"></text><text class="label" x="155" y="102.73691654879775" font-size="8px">Failed</text><text class="label" x="155.6773945986047" y="115.95637036231096" font-size="8px"></text></g><g style="font-size: 13px;"><rect x="150" y="127.25437928408226" width="440.9090909090909" height="12.55848112283756" fill="#4472c4"></rect><rect x="150" y="140.4738330975955" width="11.61638656586509" height="12.55848112283756" fill="#ed7d31"></rect><rect x="150" y="153.69328691110871" width="47.60880077369439" height="12.55848112283756" fill="#a5a5a5"></rect><rect x="150" y="166.91274072462193" width="5.392106089392527" height="12.55848112283756" fill="#ffc000"></rect><rect x="150" y="180.13219453813514" width="0.677394598604705" height="12.55848112283756" fill="#5b9bd5"></rect><text class="label" x="599.4090909090909" y="135.75437928408226" font-size="10px">651x</text><text class="label" x="170.1163865658651" y="148.9738330975955" font-size="10px">17x</text><text class="label" x="206.10880077369438" y="162.19328691110871" font-size="10px">70x</text><text class="label" x="163.89210608939254" y="175.41274072462193" font-size="10px">8x</text><text class="label" x="159.1773945986047" y="188.63219453813514" font-size="10px">1x</text><text class="label" x="595.9090909090909" y="137.25437928408226" font-size="8px"></text><text class="label" x="166.6163865658651" y="150.4738330975955" font-size="8px"></text><text class="label" x="202.60880077369438" y="163.69328691110871" font-size="8px"></text><text class="label" x="160.39210608939254" y="176.91274072462193" font-size="8px"></text><text class="label" x="155.6773945986047" y="190.13219453813514" font-size="8px"></text></g><g style="font-size: 13px;"><rect x="150" y="201.43020345990644" width="59.767268347120044" height="12.55848112283756" fill="#4472c4"></rect><rect x="150" y="214.64965727341965" width="0" height="12.55848112283756" fill="#ed7d31"></rect><rect x="150" y="227.8691110869329" width="0" height="12.55848112283756" fill="#a5a5a5"></rect><rect x="150" y="241.0885649004461" width="0" height="12.55848112283756" fill="#ffc000"></rect><rect x="150" y="254.3080187139593" width="0.677394598604705" height="12.55848112283756" fill="#5b9bd5"></rect><text class="label" x="218.26726834712005" y="209.93020345990644" font-size="10px">88x</text><text class="label" x="158.5" y="223.14965727341965" font-size="10px"></text><text class="label" x="158.5" y="236.3691110869329" font-size="10px"></text><text class="label" x="158.5" y="249.5885649004461" font-size="10px"></text><text class="label" x="159.1773945986047" y="262.8080187139593" font-size="10px">1x</text><text class="label" x="214.76726834712005" y="211.43020345990644" font-size="8px"></text><text class="label" x="155" y="224.64965727341965" font-size="8px">Failed</text><text class="label" x="155" y="237.8691110869329" font-size="8px">Failed</text><text class="label" x="155" y="251.0885649004461" font-size="8px">Failed</text><text class="label" x="155.6773945986047" y="264.3080187139593" font-size="8px"></text></g><g style="font-size: 13px;"><rect x="150" y="275.6060276357306" width="112.14357402204692" height="12.55848112283756" fill="#4472c4"></rect><rect x="150" y="288.82548144924385" width="2.773231335464178" height="12.55848112283756" fill="#ed7d31"></rect><rect x="150" y="302.04493526275706" width="23.331045490662827" height="12.55848112283756" fill="#a5a5a5"></rect><rect x="150" y="315.2643890762703" width="0.677394598604705" height="12.55848112283756" fill="#ffc000"></rect><rect x="150" y="328.4838428897835" width="1.379873193940985" height="12.55848112283756" fill="#5b9bd5"></rect><text class="label" x="270.6435740220469" y="284.1060276357306" font-size="10px">166x</text><text class="label" x="161.27323133546417" y="297.32548144924385" font-size="10px">4x</text><text class="label" x="181.83104549066283" y="310.54493526275706" font-size="10px">34x</text><text class="label" x="159.1773945986047" y="323.7643890762703" font-size="10px">1x</text><text class="label" x="159.879873193941" y="336.9838428897835" font-size="10px">2x</text><text class="label" x="267.1435740220469" y="285.6060276357306" font-size="8px"></text><text class="label" x="157.77323133546417" y="298.82548144924385" font-size="8px"></text><text class="label" x="178.33104549066283" y="312.04493526275706" font-size="8px"></text><text class="label" x="155.6773945986047" y="325.2643890762703" font-size="8px"></text><text class="label" x="156.379873193941" y="338.4838428897835" font-size="8px"></text></g><g style="font-size: 13px;"><rect x="150" y="349.7818518115548" width="485" height="12.55848112283756" fill="#4472c4"></rect><rect x="150" y="363.001305625068" width="0" height="12.55848112283756" fill="#ed7d31"></rect><rect x="150" y="376.22075943858124" width="0" height="12.55848112283756" fill="#a5a5a5"></rect><rect x="150" y="389.44021325209445" width="0" height="12.55848112283756" fill="#ffc000"></rect><rect x="150" y="402.65966706560766" width="0" height="12.55848112283756" fill="#5b9bd5"></rect><text class="label" x="643.5" y="358.2818518115548" font-size="10px">Infinity</text><text class="label" x="158.5" y="371.501305625068" font-size="10px"></text><text class="label" x="158.5" y="384.72075943858124" font-size="10px"></text><text class="label" x="158.5" y="397.94021325209445" font-size="10px"></text><text class="label" x="158.5" y="411.15966706560766" font-size="10px"></text><text class="label" x="640" y="359.7818518115548" font-size="8px"></text><text class="label" x="155" y="373.001305625068" font-size="8px">Failed</text><text class="label" x="155" y="386.22075943858124" font-size="8px">Failed</text><text class="label" x="155" y="399.44021325209445" font-size="8px">Failed</text><text class="label" x="155" y="412.65966706560766" font-size="8px">Failed</text></g><g style="font-size: 13px;"><rect x="150" y="423.95767598737893" width="112.90459703466337" height="12.55848112283756" fill="#4472c4"></rect><rect x="150" y="437.1771298008922" width="2.333857503694753" height="12.55848112283756" fill="#ed7d31"></rect><rect x="150" y="450.3965836144054" width="10.548949637310129" height="12.55848112283756" fill="#a5a5a5"></rect><rect x="150" y="463.6160374279186" width="1.0630495955638968" height="12.55848112283756" fill="#ffc000"></rect><rect x="150" y="476.83549124143184" width="0.677394598604705" height="12.55848112283756" fill="#5b9bd5"></rect><text class="label" x="271.40459703466337" y="432.45767598737893" font-size="10px">167x</text><text class="label" x="160.83385750369476" y="445.6771298008922" font-size="10px">3x</text><text class="label" x="169.04894963731013" y="458.8965836144054" font-size="10px">16x</text><text class="label" x="159.5630495955639" y="472.1160374279186" font-size="10px">2x</text><text class="label" x="159.1773945986047" y="485.33549124143184" font-size="10px">1x</text><text class="label" x="267.90459703466337" y="433.95767598737893" font-size="8px"></text><text class="label" x="157.33385750369476" y="447.1771298008922" font-size="8px"></text><text class="label" x="165.54894963731013" y="460.3965836144054" font-size="8px"></text><text class="label" x="156.0630495955639" y="473.6160374279186" font-size="8px"></text><text class="label" x="155.6773945986047" y="486.83549124143184" font-size="8px"></text></g><g style="font-size: 13px;"><rect x="150" y="498.13350016320317" width="26.649200679456687" height="12.55848112283756" fill="#4472c4"></rect><rect x="150" y="511.3529539767164" width="0.9614281514780985" height="12.55848112283756" fill="#ed7d31"></rect><rect x="150" y="524.5724077902296" width="3.9979119342400304" height="12.55848112283756" fill="#a5a5a5"></rect><rect x="150" y="537.7918616037427" width="0.677394598604705" height="12.55848112283756" fill="#ffc000"></rect><rect x="150" y="551.011315417256" width="1.8851202058945018" height="12.55848112283756" fill="#5b9bd5"></rect><text class="label" x="185.1492006794567" y="506.63350016320317" font-size="10px">39x</text><text class="label" x="159.4614281514781" y="519.8529539767164" font-size="10px">1x</text><text class="label" x="162.49791193424002" y="533.0724077902296" font-size="10px">6x</text><text class="label" x="159.1773945986047" y="546.2918616037427" font-size="10px">1x</text><text class="label" x="160.3851202058945" y="559.511315417256" font-size="10px">3x</text><text class="label" x="181.6492006794567" y="508.13350016320317" font-size="8px"></text><text class="label" x="155.9614281514781" y="521.3529539767164" font-size="8px"></text><text class="label" x="158.99791193424002" y="534.5724077902296" font-size="8px"></text><text class="label" x="155.6773945986047" y="547.7918616037427" font-size="8px"></text><text class="label" x="156.8851202058945" y="561.011315417256" font-size="8px"></text></g><g style="font-size: 13px;"><rect x="150" y="572.3093243390274" width="485" height="12.55848112283756" fill="#4472c4"></rect><rect x="150" y="585.5287781525407" width="0" height="12.55848112283756" fill="#ed7d31"></rect><rect x="150" y="598.7482319660538" width="0" height="12.55848112283756" fill="#a5a5a5"></rect><rect x="150" y="611.9676857795671" width="0" height="12.55848112283756" fill="#ffc000"></rect><rect x="150" y="625.1871395930804" width="0" height="12.55848112283756" fill="#5b9bd5"></rect><text class="label" x="643.5" y="580.8093243390274" font-size="10px">Infinity</text><text class="label" x="158.5" y="594.0287781525407" font-size="10px"></text><text class="label" x="158.5" y="607.2482319660538" font-size="10px"></text><text class="label" x="158.5" y="620.4676857795671" font-size="10px"></text><text class="label" x="158.5" y="633.6871395930804" font-size="10px"></text><text class="label" x="640" y="582.3093243390274" font-size="8px"></text><text class="label" x="155" y="595.5287781525407" font-size="8px">Failed</text><text class="label" x="155" y="608.7482319660538" font-size="8px">Failed</text><text class="label" x="155" y="621.9676857795671" font-size="8px">Failed</text><text class="label" x="155" y="635.1871395930804" font-size="8px">Failed</text></g><g style="font-size: 13px;"><rect x="150" y="646.4851485148515" width="485" height="12.55848112283756" fill="#4472c4"></rect><rect x="150" y="659.7046023283648" width="0" height="12.55848112283756" fill="#ed7d31"></rect><rect x="150" y="672.9240561418779" width="0" height="12.55848112283756" fill="#a5a5a5"></rect><rect x="150" y="686.1435099553912" width="0" height="12.55848112283756" fill="#ffc000"></rect><rect x="150" y="699.3629637689045" width="0" height="12.55848112283756" fill="#5b9bd5"></rect><text class="label" x="643.5" y="654.9851485148515" font-size="10px">Infinity</text><text class="label" x="158.5" y="668.2046023283648" font-size="10px"></text><text class="label" x="158.5" y="681.4240561418779" font-size="10px"></text><text class="label" x="158.5" y="694.6435099553912" font-size="10px"></text><text class="label" x="158.5" y="707.8629637689045" font-size="10px"></text><text class="label" x="640" y="656.4851485148515" font-size="8px"></text><text class="label" x="155" y="669.7046023283648" font-size="8px">Failed</text><text class="label" x="155" y="682.9240561418779" font-size="8px">Failed</text><text class="label" x="155" y="696.1435099553912" font-size="8px">Failed</text><text class="label" x="155" y="709.3629637689045" font-size="8px">Failed</text></g></g></svg>