<svg xmlns="http://www.w3.org/2000/svg" xmlns:xlink="http://www.w3.org/1999/xlink" width="800" height="885" style="background-color: white;"><g class="y axis" transform="translate(149,45)" fill="none" font-size="10" font-family="sans-serif" text-anchor="end" style="font-size: 13px;"><path class="domain" stroke="currentColor" d="M0.5,0.5V810.5"></path><g class="tick" opacity="1" transform="translate(0,48.95604395604397)" style="font-size: 13px;"><line stroke="currentColor" x2="0"></line><text fill="currentColor" x="-3" dy="0.32em">object (simple)    </text></g><g class="tick" opacity="1" transform="translate(0,137.967032967033)" style="font-size: 13px;"><line stroke="currentColor" x2="0"></line><text fill="currentColor" x="-3" dy="0.32em">object (hierarchical)    </text></g><g class="tick" opacity="1" transform="translate(0,226.97802197802199)" style="font-size: 13px;"><line stroke="currentColor" x2="0"></line><text fill="currentColor" x="-3" dy="0.32em">object (recursive)    </text></g><g class="tick" opacity="1" transform="translate(0,315.989010989011)" style="font-size: 13px;"><line stroke="currentColor" x2="0"></line><text fill="currentColor" x="-3" dy="0.32em">object (union, explicit)    </text></g><g class="tick" opacity="1" transform="translate(0,405)" style="font-size: 13px;"><line stroke="currentColor" x2="0"></line><text fill="currentColor" x="-3" dy="0.32em">object (union, implicit)    </text></g><g class="tick" opacity="1" transform="translate(0,494.010989010989)" style="font-size: 13px;"><line stroke="currentColor" x2="0"></line><text fill="currentColor" x="-3" dy="0.32em">array (recursive)    </text></g><g class="tick" opacity="1" transform="translate(0,583.021978021978)" style="font-size: 13px;"><line stroke="currentColor" x2="0"></line><text fill="currentColor" x="-3" dy="0.32em">array (union, explicit)    </text></g><g class="tick" opacity="1" transform="translate(0,672.0329670329671)" style="font-size: 13px;"><line stroke="currentColor" x2="0"></line><text fill="currentColor" x="-3" dy="0.32em">array (union, implicit)    </text></g><g class="tick" opacity="1" transform="translate(0,761.043956043956)" style="font-size: 13px;"><line stroke="currentColor" x2="0"></line><text fill="currentColor" x="-3" dy="0.32em">ultimate union    </text></g></g><g class="x axis" transform="translate(149,855)" fill="none" font-size="10" font-family="sans-serif" text-anchor="middle" style="font-size: 13px;"><path class="domain" stroke="currentColor" d="M0.5,0.5H485.5"></path><g class="tick" opacity="1" transform="translate(0.5,0)" style="font-size: 13px;"><line stroke="currentColor" y2="6"></line><text fill="currentColor" y="9" dy="0.71em">0x</text></g><g class="tick" opacity="1" transform="translate(72.55777768205361,0)" style="font-size: 13px;"><line stroke="currentColor" y2="6"></line><text fill="currentColor" y="9" dy="0.71em">2,000x</text></g><g class="tick" opacity="1" transform="translate(144.61555536410722,0)" style="font-size: 13px;"><line stroke="currentColor" y2="6"></line><text fill="currentColor" y="9" dy="0.71em">4,000x</text></g><g class="tick" opacity="1" transform="translate(216.67333304616085,0)" style="font-size: 13px;"><line stroke="currentColor" y2="6"></line><text fill="currentColor" y="9" dy="0.71em">6,000x</text></g><g class="tick" opacity="1" transform="translate(288.73111072821445,0)" style="font-size: 13px;"><line stroke="currentColor" y2="6"></line><text fill="currentColor" y="9" dy="0.71em">8,000x</text></g><g class="tick" opacity="1" transform="translate(360.78888841026804,0)" style="font-size: 13px;"><line stroke="currentColor" y2="6"></line><text fill="currentColor" y="9" dy="0.71em">10,000x</text></g><g class="tick" opacity="1" transform="translate(432.8466660923217,0)" style="font-size: 13px;"><line stroke="currentColor" y2="6"></line><text fill="currentColor" y="9" dy="0.71em">12,000x</text></g></g><text transform="translate(400, 30)" style="text-anchor: middle; font-size: 20px; font-weight: bold;">is benchmark</text><rect x="680" y="165" width="200" height="5" fill="gray"></rect><rect x="675" y="35" width="200" height="130" fill="none" stroke="black"></rect><rect x="685" y="45" width="10" height="10" style="fill: #4472c4;"></rect><text x="700" y="55" style="font-size: 12px;">typescript-json</text><rect x="685" y="65" width="10" height="10" style="fill: #ed7d31;"></rect><text x="700" y="75" style="font-size: 12px;">typebox</text><rect x="685" y="85" width="10" height="10" style="fill: #a5a5a5;"></rect><text x="700" y="95" style="font-size: 12px;">ajv</text><rect x="685" y="105" width="10" height="10" style="fill: #ffc000;"></rect><text x="700" y="115" style="font-size: 12px;">io-ts</text><rect x="685" y="125" width="10" height="10" style="fill: #5b9bd5;"></rect><text x="700" y="135" style="font-size: 12px;">zod</text><rect x="685" y="145" width="10" height="10" style="fill: #70ad47;"></rect><text x="700" y="155" style="font-size: 12px;">class-validator</text><g style="font-size: 13px;"><g style="font-size: 13px;"><rect x="150" y="54.563164108618665" width="288.1893652837491" height="12.579238942875305" fill="#4472c4"></rect><rect x="150" y="67.80446825901373" width="440.9090909090908" height="12.579238942875305" fill="#ed7d31"></rect><rect x="150" y="81.04577240940878" width="138.32770530345172" height="12.579238942875305" fill="#a5a5a5"></rect><rect x="150" y="94.28707655980384" width="10.411688740341793" height="12.579238942875305" fill="#ffc000"></rect><rect x="150" y="107.5283807101989" width="1.0944644962603445" height="12.579238942875305" fill="#5b9bd5"></rect><rect x="150" y="120.76968486059396" width="0.03602888884102681" height="12.579238942875305" fill="#70ad47"></rect><text class="label" x="446.6893652837491" y="63.063164108618665" font-size="10px">7,999x</text><text class="label" x="599.4090909090908" y="76.30446825901373" font-size="10px">12,238x</text><text class="label" x="296.8277053034517" y="89.54577240940878" font-size="10px">3,839x</text><text class="label" x="168.9116887403418" y="102.78707655980384" font-size="10px">289x</text><text class="label" x="159.59446449626034" y="116.0283807101989" font-size="10px">30x</text><text class="label" x="158.53602888884103" y="129.26968486059394" font-size="10px">1x</text><text class="label" x="443.1893652837491" y="64.56316410861866" font-size="8px"></text><text class="label" x="595.9090909090908" y="77.80446825901373" font-size="8px"></text><text class="label" x="293.3277053034517" y="91.04577240940878" font-size="8px"></text><text class="label" x="165.4116887403418" y="104.28707655980384" font-size="8px"></text><text class="label" x="156.09446449626034" y="117.5283807101989" font-size="8px"></text><text class="label" x="155.03602888884103" y="130.76968486059394" font-size="8px"></text></g><g style="font-size: 13px;"><rect x="150" y="143.57415311960767" width="147.47579556376917" height="12.579238942875305" fill="#4472c4"></rect><rect x="150" y="156.81545727000272" width="186.08542231682839" height="12.579238942875305" fill="#ed7d31"></rect><rect x="150" y="170.05676142039778" width="46.03082324676675" height="12.579238942875305" fill="#a5a5a5"></rect><rect x="150" y="183.29806557079286" width="9.179045207383465" height="12.579238942875305" fill="#ffc000"></rect><rect x="150" y="196.5393697211879" width="0.4249748336587499" height="12.579238942875305" fill="#5b9bd5"></rect><rect x="150" y="209.78067387158296" width="0.03602888884102681" height="12.579238942875305" fill="#70ad47"></rect><text class="label" x="305.97579556376917" y="152.07415311960767" font-size="10px">4,093x</text><text class="label" x="344.5854223168284" y="165.31545727000272" font-size="10px">5,165x</text><text class="label" x="204.53082324676674" y="178.55676142039778" font-size="10px">1,278x</text><text class="label" x="167.67904520738347" y="191.79806557079286" font-size="10px">255x</text><text class="label" x="158.92497483365875" y="205.0393697211879" font-size="10px">12x</text><text class="label" x="158.53602888884103" y="218.28067387158296" font-size="10px">1x</text><text class="label" x="302.47579556376917" y="153.57415311960767" font-size="8px"></text><text class="label" x="341.0854223168284" y="166.81545727000272" font-size="8px"></text><text class="label" x="201.03082324676674" y="180.05676142039778" font-size="8px"></text><text class="label" x="164.17904520738347" y="193.29806557079286" font-size="8px"></text><text class="label" x="155.42497483365875" y="206.5393697211879" font-size="8px"></text><text class="label" x="155.03602888884103" y="219.78067387158296" font-size="8px"></text></g><g style="font-size: 13px;"><rect x="150" y="232.5851421305967" width="131.85696142669448" height="12.579238942875305" fill="#4472c4"></rect><rect x="150" y="245.82644628099175" width="127.86771436156077" height="12.579238942875305" fill="#ed7d31"></rect><rect x="150" y="259.0677504313868" width="61.943084510470506" height="12.579238942875305" fill="#a5a5a5"></rect><rect x="150" y="272.3090545817819" width="8.221819603729367" height="12.579238942875305" fill="#ffc000"></rect><rect x="150" y="285.5503587321769" width="0.09992755829023828" height="12.579238942875305" fill="#5b9bd5"></rect><rect x="150" y="298.791662882572" width="0.03602888884102681" height="12.579238942875305" fill="#70ad47"></rect><text class="label" x="290.3569614266945" y="241.0851421305967" font-size="10px">3,660x</text><text class="label" x="286.3677143615608" y="254.32644628099175" font-size="10px">3,549x</text><text class="label" x="220.4430845104705" y="267.5677504313868" font-size="10px">1,719x</text><text class="label" x="166.72181960372936" y="280.8090545817819" font-size="10px">228x</text><text class="label" x="158.59992755829023" y="294.0503587321769" font-size="10px">3x</text><text class="label" x="158.53602888884103" y="307.291662882572" font-size="10px">1x</text><text class="label" x="286.8569614266945" y="242.5851421305967" font-size="8px"></text><text class="label" x="282.8677143615608" y="255.82644628099175" font-size="8px"></text><text class="label" x="216.9430845104705" y="269.0677504313868" font-size="8px"></text><text class="label" x="163.22181960372936" y="282.3090545817819" font-size="8px"></text><text class="label" x="155.09992755829023" y="295.5503587321769" font-size="8px"></text><text class="label" x="155.03602888884103" y="308.791662882572" font-size="8px"></text></g><g style="font-size: 13px;"><rect x="150" y="321.59613114158566" width="19.923715107492203" height="12.579238942875305" fill="#4472c4"></rect><rect x="150" y="334.83743529198074" width="14.340407121394914" height="12.579238942875305" fill="#ed7d31"></rect><rect x="150" y="348.07873944237576" width="8.737548663799194" height="12.579238942875305" fill="#a5a5a5"></rect><rect x="150" y="361.32004359277084" width="3.4249813630151245" height="12.579238942875305" fill="#ffc000"></rect><rect x="150" y="374.5613477431659" width="0.03602888884102681" height="12.579238942875305" fill="#5b9bd5"></rect><rect x="150" y="387.80265189356095" width="0.080621632527769" height="12.579238942875305" fill="#70ad47"></rect><text class="label" x="178.4237151074922" y="330.09613114158566" font-size="10px">553x</text><text class="label" x="172.84040712139492" y="343.33743529198074" font-size="10px">398x</text><text class="label" x="167.2375486637992" y="356.57873944237576" font-size="10px">243x</text><text class="label" x="161.92498136301512" y="369.82004359277084" font-size="10px">95x</text><text class="label" x="158.53602888884103" y="383.0613477431659" font-size="10px">1x</text><text class="label" x="158.58062163252777" y="396.30265189356095" font-size="10px">2x</text><text class="label" x="174.9237151074922" y="331.59613114158566" font-size="8px"></text><text class="label" x="169.34040712139492" y="344.83743529198074" font-size="8px"></text><text class="label" x="163.7375486637992" y="358.07873944237576" font-size="8px"></text><text class="label" x="158.42498136301512" y="371.32004359277084" font-size="8px"></text><text class="label" x="155.03602888884103" y="384.5613477431659" font-size="8px"></text><text class="label" x="155.08062163252777" y="397.80265189356095" font-size="8px"></text></g><g style="font-size: 13px;"><rect x="150" y="410.6071201525747" width="485" height="12.579238942875305" fill="#4472c4"></rect><rect x="150" y="423.84842430296976" width="0" height="12.579238942875305" fill="#ed7d31"></rect><rect x="150" y="437.08972845336484" width="0" height="12.579238942875305" fill="#a5a5a5"></rect><rect x="150" y="450.33103260375987" width="0" height="12.579238942875305" fill="#ffc000"></rect><rect x="150" y="463.57233675415495" width="0" height="12.579238942875305" fill="#5b9bd5"></rect><rect x="150" y="476.81364090454997" width="0" height="12.579238942875305" fill="#70ad47"></rect><text class="label" x="643.5" y="419.1071201525747" font-size="10px">Infinity</text><text class="label" x="158.5" y="432.34842430296976" font-size="10px"></text><text class="label" x="158.5" y="445.58972845336484" font-size="10px"></text><text class="label" x="158.5" y="458.83103260375987" font-size="10px"></text><text class="label" x="158.5" y="472.07233675415495" font-size="10px"></text><text class="label" x="158.5" y="485.31364090454997" font-size="10px"></text><text class="label" x="640" y="420.6071201525747" font-size="8px"></text><text class="label" x="155" y="433.84842430296976" font-size="8px">Failed</text><text class="label" x="155" y="447.08972845336484" font-size="8px">Failed</text><text class="label" x="155" y="460.33103260375987" font-size="8px">Failed</text><text class="label" x="155" y="473.57233675415495" font-size="8px">Failed</text><text class="label" x="155" y="486.81364090454997" font-size="8px">Failed</text></g><g style="font-size: 13px;"><rect x="150" y="499.6181091635637" width="117.67979854514499" height="12.579238942875305" fill="#4472c4"></rect><rect x="150" y="512.8594133139588" width="110.87831244622541" height="12.579238942875305" fill="#ed7d31"></rect><rect x="150" y="526.1007174643538" width="35.429873314013726" height="12.579238942875305" fill="#a5a5a5"></rect><rect x="150" y="539.3420216147489" width="8.502423120148372" height="12.579238942875305" fill="#ffc000"></rect><rect x="150" y="552.583325765144" width="0.14619012963276234" height="12.579238942875305" fill="#5b9bd5"></rect><rect x="150" y="565.824629915539" width="0.03602888884102681" height="12.579238942875305" fill="#70ad47"></rect><text class="label" x="276.179798545145" y="508.1181091635637" font-size="10px">3,266x</text><text class="label" x="269.37831244622544" y="521.3594133139588" font-size="10px">3,077x</text><text class="label" x="193.92987331401372" y="534.6007174643538" font-size="10px">983x</text><text class="label" x="167.00242312014836" y="547.8420216147489" font-size="10px">236x</text><text class="label" x="158.64619012963277" y="561.083325765144" font-size="10px">4x</text><text class="label" x="158.53602888884103" y="574.324629915539" font-size="10px">1x</text><text class="label" x="272.679798545145" y="509.6181091635637" font-size="8px"></text><text class="label" x="265.87831244622544" y="522.8594133139588" font-size="8px"></text><text class="label" x="190.42987331401372" y="536.1007174643538" font-size="8px"></text><text class="label" x="163.50242312014836" y="549.3420216147489" font-size="8px"></text><text class="label" x="155.14619012963277" y="562.583325765144" font-size="8px"></text><text class="label" x="155.03602888884103" y="575.824629915539" font-size="8px"></text></g><g style="font-size: 13px;"><rect x="150" y="588.6290981745527" width="50.46294564097546" height="12.579238942875305" fill="#4472c4"></rect><rect x="150" y="601.8704023249478" width="24.450165692240084" height="12.579238942875305" fill="#ed7d31"></rect><rect x="150" y="615.1117064753429" width="9.787528856327073" height="12.579238942875305" fill="#a5a5a5"></rect><rect x="150" y="628.353010625738" width="4.497435655765011" height="12.579238942875305" fill="#ffc000"></rect><rect x="150" y="641.5943147761329" width="0.03602888884102681" height="12.579238942875305" fill="#5b9bd5"></rect><rect x="150" y="654.835618926528" width="0.36219666217884783" height="12.579238942875305" fill="#70ad47"></rect><text class="label" x="208.96294564097548" y="597.1290981745527" font-size="10px">1,401x</text><text class="label" x="182.9501656922401" y="610.3704023249478" font-size="10px">679x</text><text class="label" x="168.28752885632707" y="623.6117064753429" font-size="10px">272x</text><text class="label" x="162.997435655765" y="636.853010625738" font-size="10px">125x</text><text class="label" x="158.53602888884103" y="650.0943147761329" font-size="10px">1x</text><text class="label" x="158.86219666217886" y="663.335618926528" font-size="10px">10x</text><text class="label" x="205.46294564097548" y="598.6290981745527" font-size="8px"></text><text class="label" x="179.4501656922401" y="611.8704023249478" font-size="8px"></text><text class="label" x="164.78752885632707" y="625.1117064753429" font-size="8px"></text><text class="label" x="159.497435655765" y="638.353010625738" font-size="8px"></text><text class="label" x="155.03602888884103" y="651.5943147761329" font-size="8px"></text><text class="label" x="155.36219666217886" y="664.835618926528" font-size="8px"></text></g><g style="font-size: 13px;"><rect x="150" y="677.6400871855418" width="485" height="12.579238942875305" fill="#4472c4"></rect><rect x="150" y="690.8813913359369" width="0" height="12.579238942875305" fill="#ed7d31"></rect><rect x="150" y="704.122695486332" width="0" height="12.579238942875305" fill="#a5a5a5"></rect><rect x="150" y="717.363999636727" width="0" height="12.579238942875305" fill="#ffc000"></rect><rect x="150" y="730.605303787122" width="0" height="12.579238942875305" fill="#5b9bd5"></rect><rect x="150" y="743.8466079375171" width="0" height="12.579238942875305" fill="#70ad47"></rect><text class="label" x="643.5" y="686.1400871855418" font-size="10px">Infinity</text><text class="label" x="158.5" y="699.3813913359369" font-size="10px"></text><text class="label" x="158.5" y="712.622695486332" font-size="10px"></text><text class="label" x="158.5" y="725.863999636727" font-size="10px"></text><text class="label" x="158.5" y="739.105303787122" font-size="10px"></text><text class="label" x="158.5" y="752.3466079375171" font-size="10px"></text><text class="label" x="640" y="687.6400871855418" font-size="8px"></text><text class="label" x="155" y="700.8813913359369" font-size="8px">Failed</text><text class="label" x="155" y="714.122695486332" font-size="8px">Failed</text><text class="label" x="155" y="727.363999636727" font-size="8px">Failed</text><text class="label" x="155" y="740.605303787122" font-size="8px">Failed</text><text class="label" x="155" y="753.8466079375171" font-size="8px">Failed</text></g><g style="font-size: 13px;"><rect x="150" y="766.6510761965307" width="485" height="12.579238942875305" fill="#4472c4"></rect><rect x="150" y="779.8923803469257" width="0" height="12.579238942875305" fill="#ed7d31"></rect><rect x="150" y="793.1336844973208" width="0" height="12.579238942875305" fill="#a5a5a5"></rect><rect x="150" y="806.3749886477159" width="0" height="12.579238942875305" fill="#ffc000"></rect><rect x="150" y="819.6162927981109" width="0" height="12.579238942875305" fill="#5b9bd5"></rect><rect x="150" y="832.8575969485059" width="0" height="12.579238942875305" fill="#70ad47"></rect><text class="label" x="643.5" y="775.1510761965307" font-size="10px">Infinity</text><text class="label" x="158.5" y="788.3923803469257" font-size="10px"></text><text class="label" x="158.5" y="801.6336844973208" font-size="10px"></text><text class="label" x="158.5" y="814.8749886477159" font-size="10px"></text><text class="label" x="158.5" y="828.1162927981109" font-size="10px"></text><text class="label" x="158.5" y="841.3575969485059" font-size="10px"></text><text class="label" x="640" y="776.6510761965307" font-size="8px"></text><text class="label" x="155" y="789.8923803469257" font-size="8px">Failed</text><text class="label" x="155" y="803.1336844973208" font-size="8px">Failed</text><text class="label" x="155" y="816.3749886477159" font-size="8px">Failed</text><text class="label" x="155" y="829.6162927981109" font-size="8px">Failed</text><text class="label" x="155" y="842.8575969485059" font-size="8px">Failed</text></g></g></svg>