<svg xmlns="http://www.w3.org/2000/svg" xmlns:xlink="http://www.w3.org/1999/xlink" width="800" height="600" style="background-color: white;"><g class="y axis" transform="translate(149,45)" fill="none" font-size="10" font-family="sans-serif" text-anchor="end" style="font-size: 13px;"><path class="domain" stroke="currentColor" d="M0.5,0.5V525.5"></path><g class="tick" opacity="1" transform="translate(0,40.66901408450705)" style="font-size: 13px;"><line stroke="currentColor" x2="0"></line><text fill="currentColor" x="-3" dy="0.32em">object (simple)    </text></g><g class="tick" opacity="1" transform="translate(0,114.61267605633802)" style="font-size: 13px;"><line stroke="currentColor" x2="0"></line><text fill="currentColor" x="-3" dy="0.32em">object (hierarchical)    </text></g><g class="tick" opacity="1" transform="translate(0,188.556338028169)" style="font-size: 13px;"><line stroke="currentColor" x2="0"></line><text fill="currentColor" x="-3" dy="0.32em">object (recursive)    </text></g><g class="tick" opacity="1" transform="translate(0,262.5)" style="font-size: 13px;"><line stroke="currentColor" x2="0"></line><text fill="currentColor" x="-3" dy="0.32em">object (union)    </text></g><g class="tick" opacity="1" transform="translate(0,336.443661971831)" style="font-size: 13px;"><line stroke="currentColor" x2="0"></line><text fill="currentColor" x="-3" dy="0.32em">array (hierarchical)    </text></g><g class="tick" opacity="1" transform="translate(0,410.38732394366195)" style="font-size: 13px;"><line stroke="currentColor" x2="0"></line><text fill="currentColor" x="-3" dy="0.32em">array (recursive)    </text></g><g class="tick" opacity="1" transform="translate(0,484.33098591549293)" style="font-size: 13px;"><line stroke="currentColor" x2="0"></line><text fill="currentColor" x="-3" dy="0.32em">array (union)    </text></g></g><g class="x axis" transform="translate(149,570)" fill="none" font-size="10" font-family="sans-serif" text-anchor="middle" style="font-size: 13px;"><path class="domain" stroke="currentColor" d="M0.5,0.5H485.5"></path><g class="tick" opacity="1" transform="translate(0.5,0)" style="font-size: 13px;"><line stroke="currentColor" y2="6"></line><text fill="currentColor" y="9" dy="0.71em">0x</text></g><g class="tick" opacity="1" transform="translate(75.02167114829875,0)" style="font-size: 13px;"><line stroke="currentColor" y2="6"></line><text fill="currentColor" y="9" dy="0.71em">2x</text></g><g class="tick" opacity="1" transform="translate(149.5433422965975,0)" style="font-size: 13px;"><line stroke="currentColor" y2="6"></line><text fill="currentColor" y="9" dy="0.71em">4x</text></g><g class="tick" opacity="1" transform="translate(224.06501344489627,0)" style="font-size: 13px;"><line stroke="currentColor" y2="6"></line><text fill="currentColor" y="9" dy="0.71em">6x</text></g><g class="tick" opacity="1" transform="translate(298.586684593195,0)" style="font-size: 13px;"><line stroke="currentColor" y2="6"></line><text fill="currentColor" y="9" dy="0.71em">8x</text></g><g class="tick" opacity="1" transform="translate(373.10835574149377,0)" style="font-size: 13px;"><line stroke="currentColor" y2="6"></line><text fill="currentColor" y="9" dy="0.71em">10x</text></g><g class="tick" opacity="1" transform="translate(447.63002688979253,0)" style="font-size: 13px;"><line stroke="currentColor" y2="6"></line><text fill="currentColor" y="9" dy="0.71em">12x</text></g></g><text transform="translate(400, 30)" style="text-anchor: middle; font-size: 20px; font-weight: bold;">stringify benchmark</text><rect x="680" y="145" width="200" height="5" fill="gray"></rect><rect x="675" y="35" width="200" height="110" fill="none" stroke="black"></rect><rect x="685" y="45" width="10" height="10" style="fill: #4472c4;"></rect><text x="700" y="55" style="font-size: 12px;">TSON.stringify()</text><rect x="685" y="65" width="10" height="10" style="fill: #ed7d31;"></rect><text x="700" y="75" style="font-size: 12px;">TSON.assertStringify()</text><rect x="685" y="85" width="10" height="10" style="fill: #a5a5a5;"></rect><text x="700" y="95" style="font-size: 12px;">TSON.isStringify()</text><rect x="685" y="105" width="10" height="10" style="fill: #ffc000;"></rect><text x="700" y="115" style="font-size: 12px;">JSON.stringify()</text><rect x="685" y="125" width="10" height="10" style="fill: #5b9bd5;"></rect><text x="700" y="135" style="font-size: 12px;">fast-json-stringify</text><g style="font-size: 13px;"><g style="font-size: 13px;"><rect x="150" y="53.05327011574397" width="440.9090909090909" height="12.519174452656534" fill="#4472c4"></rect><rect x="150" y="66.23134848696137" width="364.4965114260862" height="12.519174452656534" fill="#ed7d31"></rect><rect x="150" y="79.40942685817878" width="380.81679826752776" height="12.519174452656534" fill="#a5a5a5"></rect><rect x="150" y="92.58750522939619" width="37.260835574149375" height="12.519174452656534" fill="#ffc000"></rect><rect x="150" y="105.76558360061358" width="282.30727047971703" height="12.519174452656534" fill="#5b9bd5"></rect><text class="label" x="599.4090909090909" y="61.55327011574397" font-size="10px">11.83x</text><text class="label" x="522.9965114260863" y="74.73134848696137" font-size="10px">9.78x</text><text class="label" x="539.3167982675277" y="87.90942685817878" font-size="10px">10.22x</text><text class="label" x="195.76083557414938" y="101.08750522939619" font-size="10px">1x</text><text class="label" x="440.80727047971703" y="114.26558360061358" font-size="10px">7.58x</text><text class="label" x="595.9090909090909" y="63.05327011574397" font-size="8px"></text><text class="label" x="519.4965114260863" y="76.23134848696137" font-size="8px"></text><text class="label" x="535.8167982675277" y="89.40942685817878" font-size="8px"></text><text class="label" x="192.26083557414938" y="102.58750522939619" font-size="8px"></text><text class="label" x="437.30727047971703" y="115.76558360061358" font-size="8px"></text></g><g style="font-size: 13px;"><rect x="150" y="126.99693208757495" width="189.33103134684677" height="12.519174452656534" fill="#4472c4"></rect><rect x="150" y="140.17501045879237" width="158.15141562553492" height="12.519174452656534" fill="#ed7d31"></rect><rect x="150" y="153.35308883000977" width="171.81813500173348" height="12.519174452656534" fill="#a5a5a5"></rect><rect x="150" y="166.53116720122716" width="37.260835574149375" height="12.519174452656534" fill="#ffc000"></rect><rect x="150" y="179.70924557244456" width="170.1218152054596" height="12.519174452656534" fill="#5b9bd5"></rect><text class="label" x="347.83103134684677" y="135.49693208757495" font-size="10px">5.08x</text><text class="label" x="316.6514156255349" y="148.67501045879237" font-size="10px">4.24x</text><text class="label" x="330.3181350017335" y="161.85308883000977" font-size="10px">4.61x</text><text class="label" x="195.76083557414938" y="175.03116720122716" font-size="10px">1x</text><text class="label" x="328.6218152054596" y="188.20924557244456" font-size="10px">4.57x</text><text class="label" x="344.33103134684677" y="136.99693208757495" font-size="8px"></text><text class="label" x="313.1514156255349" y="150.17501045879237" font-size="8px"></text><text class="label" x="326.8181350017335" y="163.35308883000977" font-size="8px"></text><text class="label" x="192.26083557414938" y="176.53116720122716" font-size="8px"></text><text class="label" x="325.1218152054596" y="189.70924557244456" font-size="8px"></text></g><g style="font-size: 13px;"><rect x="150" y="200.94059405940592" width="260.74388773381213" height="12.519174452656534" fill="#4472c4"></rect><rect x="150" y="214.11867243062332" width="223.10865265917388" height="12.519174452656534" fill="#ed7d31"></rect><rect x="150" y="227.29675080184074" width="242.00857660107835" height="12.519174452656534" fill="#a5a5a5"></rect><rect x="150" y="240.47482917305814" width="37.260835574149375" height="12.519174452656534" fill="#ffc000"></rect><rect x="150" y="253.65290754427554" width="38.61138913313087" height="12.519174452656534" fill="#5b9bd5"></rect><text class="label" x="419.24388773381213" y="209.44059405940592" font-size="10px">7x</text><text class="label" x="381.6086526591739" y="222.61867243062332" font-size="10px">5.99x</text><text class="label" x="400.50857660107835" y="235.79675080184074" font-size="10px">6.49x</text><text class="label" x="195.76083557414938" y="248.97482917305814" font-size="10px">1x</text><text class="label" x="197.11138913313087" y="262.15290754427554" font-size="10px">1.04x</text><text class="label" x="415.74388773381213" y="210.94059405940592" font-size="8px"></text><text class="label" x="378.1086526591739" y="224.11867243062332" font-size="8px"></text><text class="label" x="397.00857660107835" y="237.29675080184074" font-size="8px"></text><text class="label" x="192.26083557414938" y="250.47482917305814" font-size="8px"></text><text class="label" x="193.61138913313087" y="263.65290754427554" font-size="8px"></text></g><g style="font-size: 13px;"><rect x="150" y="274.8842560312369" width="150.49766042770392" height="12.519174452656534" fill="#4472c4"></rect><rect x="150" y="288.0623344024543" width="118.50379547545954" height="12.519174452656534" fill="#ed7d31"></rect><rect x="150" y="301.2404127736717" width="138.96925952649127" height="12.519174452656534" fill="#a5a5a5"></rect><rect x="150" y="314.4184911448891" width="37.260835574149375" height="12.519174452656534" fill="#ffc000"></rect><rect x="150" y="327.5965695161065" width="116.27130747899888" height="12.519174452656534" fill="#5b9bd5"></rect><text class="label" x="308.9976604277039" y="283.3842560312369" font-size="10px">4.04x</text><text class="label" x="277.0037954754595" y="296.5623344024543" font-size="10px">3.18x</text><text class="label" x="297.46925952649127" y="309.7404127736717" font-size="10px">3.73x</text><text class="label" x="195.76083557414938" y="322.9184911448891" font-size="10px">1x</text><text class="label" x="274.7713074789989" y="336.0965695161065" font-size="10px">3.12x</text><text class="label" x="305.4976604277039" y="284.8842560312369" font-size="8px"></text><text class="label" x="273.5037954754595" y="298.0623344024543" font-size="8px"></text><text class="label" x="293.96925952649127" y="311.2404127736717" font-size="8px"></text><text class="label" x="192.26083557414938" y="324.4184911448891" font-size="8px"></text><text class="label" x="271.2713074789989" y="337.5965695161065" font-size="8px"></text></g><g style="font-size: 13px;"><rect x="150" y="348.8279180030679" width="158.12065105672448" height="12.519174452656534" fill="#4472c4"></rect><rect x="150" y="362.0059963742853" width="143.49539613120254" height="12.519174452656534" fill="#ed7d31"></rect><rect x="150" y="375.1840747455027" width="150.67154891389703" height="12.519174452656534" fill="#a5a5a5"></rect><rect x="150" y="388.3621531167201" width="37.260835574149375" height="12.519174452656534" fill="#ffc000"></rect><rect x="150" y="401.5402314879375" width="221.62225109723647" height="12.519174452656534" fill="#5b9bd5"></rect><text class="label" x="316.62065105672445" y="357.3279180030679" font-size="10px">4.24x</text><text class="label" x="301.99539613120254" y="370.5059963742853" font-size="10px">3.85x</text><text class="label" x="309.171548913897" y="383.6840747455027" font-size="10px">4.04x</text><text class="label" x="195.76083557414938" y="396.8621531167201" font-size="10px">1x</text><text class="label" x="380.1222510972365" y="410.0402314879375" font-size="10px">5.95x</text><text class="label" x="313.12065105672445" y="358.8279180030679" font-size="8px"></text><text class="label" x="298.49539613120254" y="372.0059963742853" font-size="8px"></text><text class="label" x="305.671548913897" y="385.1840747455027" font-size="8px"></text><text class="label" x="192.26083557414938" y="398.3621531167201" font-size="8px"></text><text class="label" x="376.6222510972365" y="411.5402314879375" font-size="8px"></text></g><g style="font-size: 13px;"><rect x="150" y="422.7715799748988" width="142.97840439709614" height="12.519174452656534" fill="#4472c4"></rect><rect x="150" y="435.9496583461163" width="129.00172178269602" height="12.519174452656534" fill="#ed7d31"></rect><rect x="150" y="449.1277367173337" width="139.4289939971748" height="12.519174452656534" fill="#a5a5a5"></rect><rect x="150" y="462.30581508855107" width="37.260835574149375" height="12.519174452656534" fill="#ffc000"></rect><rect x="150" y="475.48389345976847" width="37.33056019161597" height="12.519174452656534" fill="#5b9bd5"></rect><text class="label" x="301.47840439709614" y="431.2715799748988" font-size="10px">3.84x</text><text class="label" x="287.501721782696" y="444.4496583461163" font-size="10px">3.46x</text><text class="label" x="297.9289939971748" y="457.6277367173337" font-size="10px">3.74x</text><text class="label" x="195.76083557414938" y="470.80581508855107" font-size="10px">1x</text><text class="label" x="195.83056019161597" y="483.98389345976847" font-size="10px">1x</text><text class="label" x="297.97840439709614" y="432.7715799748988" font-size="8px"></text><text class="label" x="284.001721782696" y="445.9496583461163" font-size="8px"></text><text class="label" x="294.4289939971748" y="459.1277367173337" font-size="8px"></text><text class="label" x="192.26083557414938" y="472.30581508855107" font-size="8px"></text><text class="label" x="192.33056019161597" y="485.48389345976847" font-size="8px"></text></g><g style="font-size: 13px;"><rect x="150" y="496.71524194672986" width="94.07424669429997" height="12.519174452656534" fill="#4472c4"></rect><rect x="150" y="509.89332031794726" width="81.82574251911969" height="12.519174452656534" fill="#ed7d31"></rect><rect x="150" y="523.0713986891647" width="87.74151477430777" height="12.519174452656534" fill="#a5a5a5"></rect><rect x="150" y="536.2494770603821" width="39.06547500014735" height="12.519174452656534" fill="#ffc000"></rect><rect x="150" y="549.4275554315994" width="37.260835574149375" height="12.519174452656534" fill="#5b9bd5"></rect><text class="label" x="252.57424669429997" y="505.21524194672986" font-size="10px">2.52x</text><text class="label" x="240.32574251911967" y="518.3933203179472" font-size="10px">2.2x</text><text class="label" x="246.24151477430777" y="531.5713986891647" font-size="10px">2.35x</text><text class="label" x="197.56547500014736" y="544.7494770603821" font-size="10px">1.05x</text><text class="label" x="195.76083557414938" y="557.9275554315994" font-size="10px">1x</text><text class="label" x="249.07424669429997" y="506.71524194672986" font-size="8px"></text><text class="label" x="236.82574251911967" y="519.8933203179472" font-size="8px"></text><text class="label" x="242.74151477430777" y="533.0713986891647" font-size="8px"></text><text class="label" x="194.06547500014736" y="546.2494770603821" font-size="8px"></text><text class="label" x="192.26083557414938" y="559.4275554315994" font-size="8px"></text></g></g></svg>