<svg xmlns="http://www.w3.org/2000/svg" xmlns:xlink="http://www.w3.org/1999/xlink" width="800" height="600" style="background-color: white;"><g class="y axis" transform="translate(149,45)" fill="none" font-size="10" font-family="sans-serif" text-anchor="end" style="font-size: 13px;"><path class="domain" stroke="currentColor" d="M0.5,0.5V525.5"></path><g class="tick" opacity="1" transform="translate(0,40.66901408450705)" style="font-size: 13px;"><line stroke="currentColor" x2="0"></line><text fill="currentColor" x="-3" dy="0.32em">object (simple)    </text></g><g class="tick" opacity="1" transform="translate(0,114.61267605633802)" style="font-size: 13px;"><line stroke="currentColor" x2="0"></line><text fill="currentColor" x="-3" dy="0.32em">object (hierarchical)    </text></g><g class="tick" opacity="1" transform="translate(0,188.556338028169)" style="font-size: 13px;"><line stroke="currentColor" x2="0"></line><text fill="currentColor" x="-3" dy="0.32em">object (recursive)    </text></g><g class="tick" opacity="1" transform="translate(0,262.5)" style="font-size: 13px;"><line stroke="currentColor" x2="0"></line><text fill="currentColor" x="-3" dy="0.32em">object (union)    </text></g><g class="tick" opacity="1" transform="translate(0,336.443661971831)" style="font-size: 13px;"><line stroke="currentColor" x2="0"></line><text fill="currentColor" x="-3" dy="0.32em">array (hierarchical)    </text></g><g class="tick" opacity="1" transform="translate(0,410.38732394366195)" style="font-size: 13px;"><line stroke="currentColor" x2="0"></line><text fill="currentColor" x="-3" dy="0.32em">array (recursive)    </text></g><g class="tick" opacity="1" transform="translate(0,484.33098591549293)" style="font-size: 13px;"><line stroke="currentColor" x2="0"></line><text fill="currentColor" x="-3" dy="0.32em">array (union)    </text></g></g><g class="x axis" transform="translate(149,570)" fill="none" font-size="10" font-family="sans-serif" text-anchor="middle" style="font-size: 13px;"><path class="domain" stroke="currentColor" d="M0.5,0.5H485.5"></path><g class="tick" opacity="1" transform="translate(0.5,0)" style="font-size: 13px;"><line stroke="currentColor" y2="6"></line><text fill="currentColor" y="9" dy="0.71em">0x</text></g><g class="tick" opacity="1" transform="translate(85.36505953534713,0)" style="font-size: 13px;"><line stroke="currentColor" y2="6"></line><text fill="currentColor" y="9" dy="0.71em">2x</text></g><g class="tick" opacity="1" transform="translate(170.23011907069426,0)" style="font-size: 13px;"><line stroke="currentColor" y2="6"></line><text fill="currentColor" y="9" dy="0.71em">4x</text></g><g class="tick" opacity="1" transform="translate(255.0951786060414,0)" style="font-size: 13px;"><line stroke="currentColor" y2="6"></line><text fill="currentColor" y="9" dy="0.71em">6x</text></g><g class="tick" opacity="1" transform="translate(339.9602381413885,0)" style="font-size: 13px;"><line stroke="currentColor" y2="6"></line><text fill="currentColor" y="9" dy="0.71em">8x</text></g><g class="tick" opacity="1" transform="translate(424.82529767673566,0)" style="font-size: 13px;"><line stroke="currentColor" y2="6"></line><text fill="currentColor" y="9" dy="0.71em">10x</text></g></g><text transform="translate(400, 30)" style="text-anchor: middle; font-size: 20px; font-weight: bold;">stringify benchmark</text><rect x="680" y="145" width="200" height="5" fill="gray"></rect><rect x="675" y="35" width="200" height="110" fill="none" stroke="black"></rect><rect x="685" y="45" width="10" height="10" style="fill: #4472c4;"></rect><text x="700" y="55" style="font-size: 12px;">TSON.stringify()</text><rect x="685" y="65" width="10" height="10" style="fill: #ed7d31;"></rect><text x="700" y="75" style="font-size: 12px;">TSON.assertStringify()</text><rect x="685" y="85" width="10" height="10" style="fill: #a5a5a5;"></rect><text x="700" y="95" style="font-size: 12px;">TSON.isStringify()</text><rect x="685" y="105" width="10" height="10" style="fill: #ffc000;"></rect><text x="700" y="115" style="font-size: 12px;">JSON.stringify()</text><rect x="685" y="125" width="10" height="10" style="fill: #5b9bd5;"></rect><text x="700" y="135" style="font-size: 12px;">fast-json-stringify</text><g style="font-size: 13px;"><g style="font-size: 13px;"><rect x="150" y="53.05327011574397" width="440.9090909090909" height="12.519174452656534" fill="#4472c4"></rect><rect x="150" y="66.23134848696137" width="372.68710920852243" height="12.519174452656534" fill="#ed7d31"></rect><rect x="150" y="79.40942685817878" width="421.6976895526625" height="12.519174452656534" fill="#a5a5a5"></rect><rect x="150" y="92.58750522939619" width="42.432529767673564" height="12.519174452656534" fill="#ffc000"></rect><rect x="150" y="105.76558360061358" width="295.9996794164625" height="12.519174452656534" fill="#5b9bd5"></rect><text class="label" x="599.4090909090909" y="61.55327011574397" font-size="10px">10.39x</text><text class="label" x="531.1871092085224" y="74.73134848696137" font-size="10px">8.78x</text><text class="label" x="580.1976895526625" y="87.90942685817878" font-size="10px">9.94x</text><text class="label" x="200.93252976767357" y="101.08750522939619" font-size="10px">1x</text><text class="label" x="454.4996794164625" y="114.26558360061358" font-size="10px">6.98x</text><text class="label" x="595.9090909090909" y="63.05327011574397" font-size="8px"></text><text class="label" x="527.6871092085224" y="76.23134848696137" font-size="8px"></text><text class="label" x="576.6976895526625" y="89.40942685817878" font-size="8px"></text><text class="label" x="197.43252976767357" y="102.58750522939619" font-size="8px"></text><text class="label" x="450.9996794164625" y="115.76558360061358" font-size="8px"></text></g><g style="font-size: 13px;"><rect x="150" y="126.99693208757495" width="192.985449658502" height="12.519174452656534" fill="#4472c4"></rect><rect x="150" y="140.17501045879237" width="168.8651449071981" height="12.519174452656534" fill="#ed7d31"></rect><rect x="150" y="153.35308883000977" width="178.59811556433465" height="12.519174452656534" fill="#a5a5a5"></rect><rect x="150" y="166.53116720122716" width="42.432529767673564" height="12.519174452656534" fill="#ffc000"></rect><rect x="150" y="179.70924557244456" width="170.59023418058106" height="12.519174452656534" fill="#5b9bd5"></rect><text class="label" x="351.48544965850203" y="135.49693208757495" font-size="10px">4.55x</text><text class="label" x="327.3651449071981" y="148.67501045879237" font-size="10px">3.98x</text><text class="label" x="337.09811556433465" y="161.85308883000977" font-size="10px">4.21x</text><text class="label" x="200.93252976767357" y="175.03116720122716" font-size="10px">1x</text><text class="label" x="329.0902341805811" y="188.20924557244456" font-size="10px">4.02x</text><text class="label" x="347.98544965850203" y="136.99693208757495" font-size="8px"></text><text class="label" x="323.8651449071981" y="150.17501045879237" font-size="8px"></text><text class="label" x="333.59811556433465" y="163.35308883000977" font-size="8px"></text><text class="label" x="197.43252976767357" y="176.53116720122716" font-size="8px"></text><text class="label" x="325.5902341805811" y="189.70924557244456" font-size="8px"></text></g><g style="font-size: 13px;"><rect x="150" y="200.94059405940592" width="241.91536014014292" height="12.519174452656534" fill="#4472c4"></rect><rect x="150" y="214.11867243062332" width="227.17982459225937" height="12.519174452656534" fill="#ed7d31"></rect><rect x="150" y="227.29675080184074" width="234.40664788306495" height="12.519174452656534" fill="#a5a5a5"></rect><rect x="150" y="240.47482917305814" width="42.432529767673564" height="12.519174452656534" fill="#ffc000"></rect><rect x="150" y="253.65290754427554" width="42.54323354456323" height="12.519174452656534" fill="#5b9bd5"></rect><text class="label" x="400.4153601401429" y="209.44059405940592" font-size="10px">5.7x</text><text class="label" x="385.67982459225937" y="222.61867243062332" font-size="10px">5.35x</text><text class="label" x="392.9066478830649" y="235.79675080184074" font-size="10px">5.52x</text><text class="label" x="200.93252976767357" y="248.97482917305814" font-size="10px">1x</text><text class="label" x="201.04323354456324" y="262.15290754427554" font-size="10px">1x</text><text class="label" x="396.9153601401429" y="210.94059405940592" font-size="8px"></text><text class="label" x="382.17982459225937" y="224.11867243062332" font-size="8px"></text><text class="label" x="389.4066478830649" y="237.29675080184074" font-size="8px"></text><text class="label" x="197.43252976767357" y="250.47482917305814" font-size="8px"></text><text class="label" x="197.54323354456324" y="263.65290754427554" font-size="8px"></text></g><g style="font-size: 13px;"><rect x="150" y="274.8842560312369" width="151.29116272126984" height="12.519174452656534" fill="#4472c4"></rect><rect x="150" y="288.0623344024543" width="114.12000228963068" height="12.519174452656534" fill="#ed7d31"></rect><rect x="150" y="301.2404127736717" width="133.1912433091831" height="12.519174452656534" fill="#a5a5a5"></rect><rect x="150" y="314.4184911448891" width="42.432529767673564" height="12.519174452656534" fill="#ffc000"></rect><rect x="150" y="327.5965695161065" width="143.9487736898732" height="12.519174452656534" fill="#5b9bd5"></rect><text class="label" x="309.79116272126987" y="283.3842560312369" font-size="10px">3.57x</text><text class="label" x="272.6200022896307" y="296.5623344024543" font-size="10px">2.69x</text><text class="label" x="291.6912433091831" y="309.7404127736717" font-size="10px">3.14x</text><text class="label" x="200.93252976767357" y="322.9184911448891" font-size="10px">1x</text><text class="label" x="302.4487736898732" y="336.0965695161065" font-size="10px">3.39x</text><text class="label" x="306.29116272126987" y="284.8842560312369" font-size="8px"></text><text class="label" x="269.1200022896307" y="298.0623344024543" font-size="8px"></text><text class="label" x="288.1912433091831" y="311.2404127736717" font-size="8px"></text><text class="label" x="197.43252976767357" y="324.4184911448891" font-size="8px"></text><text class="label" x="298.9487736898732" y="337.5965695161065" font-size="8px"></text></g><g style="font-size: 13px;"><rect x="150" y="348.8279180030679" width="156.54137497307553" height="12.519174452656534" fill="#4472c4"></rect><rect x="150" y="362.0059963742853" width="140.74565197532928" height="12.519174452656534" fill="#ed7d31"></rect><rect x="150" y="375.1840747455027" width="152.51790281837032" height="12.519174452656534" fill="#a5a5a5"></rect><rect x="150" y="388.3621531167201" width="42.432529767673564" height="12.519174452656534" fill="#ffc000"></rect><rect x="150" y="401.5402314879375" width="224.66877354648173" height="12.519174452656534" fill="#5b9bd5"></rect><text class="label" x="315.04137497307556" y="357.3279180030679" font-size="10px">3.69x</text><text class="label" x="299.2456519753293" y="370.5059963742853" font-size="10px">3.32x</text><text class="label" x="311.0179028183703" y="383.6840747455027" font-size="10px">3.59x</text><text class="label" x="200.93252976767357" y="396.8621531167201" font-size="10px">1x</text><text class="label" x="383.1687735464817" y="410.0402314879375" font-size="10px">5.29x</text><text class="label" x="311.54137497307556" y="358.8279180030679" font-size="8px"></text><text class="label" x="295.7456519753293" y="372.0059963742853" font-size="8px"></text><text class="label" x="307.5179028183703" y="385.1840747455027" font-size="8px"></text><text class="label" x="197.43252976767357" y="398.3621531167201" font-size="8px"></text><text class="label" x="379.6687735464817" y="411.5402314879375" font-size="8px"></text></g><g style="font-size: 13px;"><rect x="150" y="422.7715799748988" width="147.21275318487417" height="12.519174452656534" fill="#4472c4"></rect><rect x="150" y="435.9496583461163" width="134.43172229538993" height="12.519174452656534" fill="#ed7d31"></rect><rect x="150" y="449.1277367173337" width="138.7435960155579" height="12.519174452656534" fill="#a5a5a5"></rect><rect x="150" y="462.30581508855107" width="42.432529767673564" height="12.519174452656534" fill="#ffc000"></rect><rect x="150" y="475.48389345976847" width="43.32449098491215" height="12.519174452656534" fill="#5b9bd5"></rect><text class="label" x="305.71275318487415" y="431.2715799748988" font-size="10px">3.47x</text><text class="label" x="292.93172229538993" y="444.4496583461163" font-size="10px">3.17x</text><text class="label" x="297.2435960155579" y="457.6277367173337" font-size="10px">3.27x</text><text class="label" x="200.93252976767357" y="470.80581508855107" font-size="10px">1x</text><text class="label" x="201.82449098491216" y="483.98389345976847" font-size="10px">1.02x</text><text class="label" x="302.21275318487415" y="432.7715799748988" font-size="8px"></text><text class="label" x="289.43172229538993" y="445.9496583461163" font-size="8px"></text><text class="label" x="293.7435960155579" y="459.1277367173337" font-size="8px"></text><text class="label" x="197.43252976767357" y="472.30581508855107" font-size="8px"></text><text class="label" x="198.32449098491216" y="485.48389345976847" font-size="8px"></text></g><g style="font-size: 13px;"><rect x="150" y="496.71524194672986" width="93.31970224171863" height="12.519174452656534" fill="#4472c4"></rect><rect x="150" y="509.89332031794726" width="82.13909353982663" height="12.519174452656534" fill="#ed7d31"></rect><rect x="150" y="523.0713986891647" width="84.16636783711986" height="12.519174452656534" fill="#a5a5a5"></rect><rect x="150" y="536.2494770603821" width="46.16989463369638" height="12.519174452656534" fill="#ffc000"></rect><rect x="150" y="549.4275554315994" width="42.432529767673564" height="12.519174452656534" fill="#5b9bd5"></rect><text class="label" x="251.81970224171863" y="505.21524194672986" font-size="10px">2.2x</text><text class="label" x="240.63909353982663" y="518.3933203179472" font-size="10px">1.94x</text><text class="label" x="242.66636783711988" y="531.5713986891647" font-size="10px">1.98x</text><text class="label" x="204.66989463369637" y="544.7494770603821" font-size="10px">1.09x</text><text class="label" x="200.93252976767357" y="557.9275554315994" font-size="10px">1x</text><text class="label" x="248.31970224171863" y="506.71524194672986" font-size="8px"></text><text class="label" x="237.13909353982663" y="519.8933203179472" font-size="8px"></text><text class="label" x="239.16636783711988" y="533.0713986891647" font-size="8px"></text><text class="label" x="201.16989463369637" y="546.2494770603821" font-size="8px"></text><text class="label" x="197.43252976767357" y="559.4275554315994" font-size="8px"></text></g></g></svg>