<svg xmlns="http://www.w3.org/2000/svg" xmlns:xlink="http://www.w3.org/1999/xlink" width="800" height="675" style="background-color: white;"><g class="y axis" transform="translate(149,45)" fill="none" font-size="10" font-family="sans-serif" text-anchor="end" style="font-size: 13px;"><path class="domain" stroke="currentColor" d="M0.5,0.5V600.5"></path><g class="tick" opacity="1" transform="translate(0,40.740740740740726)" style="font-size: 13px;"><line stroke="currentColor" x2="0"></line><text fill="currentColor" x="-3" dy="0.32em">object (simple)    </text></g><g class="tick" opacity="1" transform="translate(0,114.81481481481481)" style="font-size: 13px;"><line stroke="currentColor" x2="0"></line><text fill="currentColor" x="-3" dy="0.32em">object (hierarchical)    </text></g><g class="tick" opacity="1" transform="translate(0,188.88888888888889)" style="font-size: 13px;"><line stroke="currentColor" x2="0"></line><text fill="currentColor" x="-3" dy="0.32em">object (recursive)    </text></g><g class="tick" opacity="1" transform="translate(0,262.96296296296293)" style="font-size: 13px;"><line stroke="currentColor" x2="0"></line><text fill="currentColor" x="-3" dy="0.32em">object (union)    </text></g><g class="tick" opacity="1" transform="translate(0,337.037037037037)" style="font-size: 13px;"><line stroke="currentColor" x2="0"></line><text fill="currentColor" x="-3" dy="0.32em">array (simple)    </text></g><g class="tick" opacity="1" transform="translate(0,411.1111111111111)" style="font-size: 13px;"><line stroke="currentColor" x2="0"></line><text fill="currentColor" x="-3" dy="0.32em">array (hierarchical)    </text></g><g class="tick" opacity="1" transform="translate(0,485.18518518518516)" style="font-size: 13px;"><line stroke="currentColor" x2="0"></line><text fill="currentColor" x="-3" dy="0.32em">array (recursive)    </text></g><g class="tick" opacity="1" transform="translate(0,559.2592592592592)" style="font-size: 13px;"><line stroke="currentColor" x2="0"></line><text fill="currentColor" x="-3" dy="0.32em">array (union)    </text></g></g><g class="x axis" transform="translate(149,645)" fill="none" font-size="10" font-family="sans-serif" text-anchor="middle" style="font-size: 13px;"><path class="domain" stroke="currentColor" d="M0.5,0.5H485.5"></path><g class="tick" opacity="1" transform="translate(0.5,0)" style="font-size: 13px;"><line stroke="currentColor" y2="6"></line><text fill="currentColor" y="9" dy="0.71em">0x</text></g><g class="tick" opacity="1" transform="translate(78.62593876630125,0)" style="font-size: 13px;"><line stroke="currentColor" y2="6"></line><text fill="currentColor" y="9" dy="0.71em">2x</text></g><g class="tick" opacity="1" transform="translate(156.7518775326025,0)" style="font-size: 13px;"><line stroke="currentColor" y2="6"></line><text fill="currentColor" y="9" dy="0.71em">4x</text></g><g class="tick" opacity="1" transform="translate(234.87781629890372,0)" style="font-size: 13px;"><line stroke="currentColor" y2="6"></line><text fill="currentColor" y="9" dy="0.71em">6x</text></g><g class="tick" opacity="1" transform="translate(313.003755065205,0)" style="font-size: 13px;"><line stroke="currentColor" y2="6"></line><text fill="currentColor" y="9" dy="0.71em">8x</text></g><g class="tick" opacity="1" transform="translate(391.12969383150624,0)" style="font-size: 13px;"><line stroke="currentColor" y2="6"></line><text fill="currentColor" y="9" dy="0.71em">10x</text></g><g class="tick" opacity="1" transform="translate(469.25563259780745,0)" style="font-size: 13px;"><line stroke="currentColor" y2="6"></line><text fill="currentColor" y="9" dy="0.71em">12x</text></g></g><text transform="translate(400, 30)" style="text-anchor: middle; font-size: 20px; font-weight: bold;">stringify benchmark</text><rect x="680" y="145" width="200" height="5" fill="gray"></rect><rect x="675" y="35" width="200" height="110" fill="none" stroke="black"></rect><rect x="685" y="45" width="10" height="10" style="fill: #4472c4;"></rect><text x="700" y="55" style="font-size: 12px;">TSON.stringify()</text><rect x="685" y="65" width="10" height="10" style="fill: #ed7d31;"></rect><text x="700" y="75" style="font-size: 12px;">TSON.assertStringify()</text><rect x="685" y="85" width="10" height="10" style="fill: #a5a5a5;"></rect><text x="700" y="95" style="font-size: 12px;">TSON.isStringify()</text><rect x="685" y="105" width="10" height="10" style="fill: #ffc000;"></rect><text x="700" y="115" style="font-size: 12px;">fast-json-stringify</text><rect x="685" y="125" width="10" height="10" style="fill: #5b9bd5;"></rect><text x="700" y="135" style="font-size: 12px;">JSON.stringify</text><g style="font-size: 13px;"><g style="font-size: 13px;"><rect x="150" y="53.06747341400805" width="440.9090909090909" height="12.541254125412543" fill="#4472c4"></rect><rect x="150" y="66.26879354602124" width="356.588884607424" height="12.541254125412543" fill="#ed7d31"></rect><rect x="150" y="79.47011367803445" width="391.44308465362144" height="12.541254125412543" fill="#a5a5a5"></rect><rect x="150" y="92.67143381004766" width="270.8592516808988" height="12.541254125412543" fill="#ffc000"></rect><rect x="150" y="105.87275394206085" width="39.06296938315062" height="12.541254125412543" fill="#5b9bd5"></rect><text class="label" x="599.4090909090909" y="61.56747341400805" font-size="10px">11.29x</text><text class="label" x="515.088884607424" y="74.76879354602124" font-size="10px">9.13x</text><text class="label" x="549.9430846536214" y="87.97011367803445" font-size="10px">10.02x</text><text class="label" x="429.3592516808988" y="101.17143381004766" font-size="10px">6.93x</text><text class="label" x="197.56296938315063" y="114.37275394206085" font-size="10px">1x</text><text class="label" x="595.9090909090909" y="63.06747341400805" font-size="8px"></text><text class="label" x="511.588884607424" y="76.26879354602124" font-size="8px"></text><text class="label" x="546.4430846536214" y="89.47011367803445" font-size="8px"></text><text class="label" x="425.8592516808988" y="102.67143381004766" font-size="8px"></text><text class="label" x="194.06296938315063" y="115.87275394206085" font-size="8px"></text></g><g style="font-size: 13px;"><rect x="150" y="127.14154748808213" width="177.90706906053435" height="12.541254125412543" fill="#4472c4"></rect><rect x="150" y="140.34286762009532" width="153.65449318979873" height="12.541254125412543" fill="#ed7d31"></rect><rect x="150" y="153.54418775210854" width="164.04396983607393" height="12.541254125412543" fill="#a5a5a5"></rect><rect x="150" y="166.74550788412174" width="212.54683036639358" height="12.541254125412543" fill="#ffc000"></rect><rect x="150" y="179.94682801613493" width="39.06296938315062" height="12.541254125412543" fill="#5b9bd5"></rect><text class="label" x="336.40706906053435" y="135.64154748808213" font-size="10px">4.55x</text><text class="label" x="312.1544931897987" y="148.84286762009532" font-size="10px">3.93x</text><text class="label" x="322.5439698360739" y="162.04418775210854" font-size="10px">4.2x</text><text class="label" x="371.0468303663936" y="175.24550788412174" font-size="10px">5.44x</text><text class="label" x="197.56296938315063" y="188.44682801613493" font-size="10px">1x</text><text class="label" x="332.90706906053435" y="137.14154748808213" font-size="8px"></text><text class="label" x="308.6544931897987" y="150.34286762009532" font-size="8px"></text><text class="label" x="319.0439698360739" y="163.54418775210854" font-size="8px"></text><text class="label" x="367.5468303663936" y="176.74550788412174" font-size="8px"></text><text class="label" x="194.06296938315063" y="189.94682801613493" font-size="8px"></text></g><g style="font-size: 13px;"><rect x="150" y="201.2156215621562" width="246.1983188529668" height="12.541254125412543" fill="#4472c4"></rect><rect x="150" y="214.4169416941694" width="222.83174146682896" height="12.541254125412543" fill="#ed7d31"></rect><rect x="150" y="227.61826182618262" width="237.373381190428" height="12.541254125412543" fill="#a5a5a5"></rect><rect x="150" y="240.8195819581958" width="39.06296938315062" height="12.541254125412543" fill="#ffc000"></rect><rect x="150" y="254.020902090209" width="39.783982791925006" height="12.541254125412543" fill="#5b9bd5"></rect><text class="label" x="404.6983188529668" y="209.7156215621562" font-size="10px">6.3x</text><text class="label" x="381.33174146682893" y="222.9169416941694" font-size="10px">5.7x</text><text class="label" x="395.873381190428" y="236.11826182618262" font-size="10px">6.08x</text><text class="label" x="197.56296938315063" y="249.3195819581958" font-size="10px">1x</text><text class="label" x="198.283982791925" y="262.520902090209" font-size="10px">1.02x</text><text class="label" x="401.1983188529668" y="211.2156215621562" font-size="8px"></text><text class="label" x="377.83174146682893" y="224.4169416941694" font-size="8px"></text><text class="label" x="392.373381190428" y="237.61826182618262" font-size="8px"></text><text class="label" x="194.06296938315063" y="250.8195819581958" font-size="8px"></text><text class="label" x="194.783982791925" y="264.020902090209" font-size="8px"></text></g><g style="font-size: 13px;"><rect x="150" y="275.28969563623025" width="128.5657643292988" height="12.541254125412543" fill="#4472c4"></rect><rect x="150" y="288.49101576824347" width="103.18134689332845" height="12.541254125412543" fill="#ed7d31"></rect><rect x="150" y="301.6923359002567" width="117.59135934484763" height="12.541254125412543" fill="#a5a5a5"></rect><rect x="150" y="314.89365603226986" width="126.5295975724211" height="12.541254125412543" fill="#ffc000"></rect><rect x="150" y="328.0949761642831" width="39.06296938315062" height="12.541254125412543" fill="#5b9bd5"></rect><text class="label" x="287.06576432929876" y="283.78969563623025" font-size="10px">3.29x</text><text class="label" x="261.68134689332845" y="296.99101576824347" font-size="10px">2.64x</text><text class="label" x="276.09135934484766" y="310.1923359002567" font-size="10px">3.01x</text><text class="label" x="285.0295975724211" y="323.39365603226986" font-size="10px">3.24x</text><text class="label" x="197.56296938315063" y="336.5949761642831" font-size="10px">1x</text><text class="label" x="283.56576432929876" y="285.28969563623025" font-size="8px"></text><text class="label" x="258.18134689332845" y="298.49101576824347" font-size="8px"></text><text class="label" x="272.59135934484766" y="311.6923359002567" font-size="8px"></text><text class="label" x="281.5295975724211" y="324.89365603226986" font-size="8px"></text><text class="label" x="194.06296938315063" y="338.0949761642831" font-size="8px"></text></g><g style="font-size: 13px;"><rect x="150" y="349.3637697103044" width="87.87649522177075" height="12.541254125412543" fill="#4472c4"></rect><rect x="150" y="362.56508984231755" width="66.05827562173134" height="12.541254125412543" fill="#ed7d31"></rect><rect x="150" y="375.76640997433077" width="75.43571054085093" height="12.541254125412543" fill="#a5a5a5"></rect><rect x="150" y="388.967730106344" width="103.88532592213512" height="12.541254125412543" fill="#ffc000"></rect><rect x="150" y="402.16905023835716" width="39.06296938315062" height="12.541254125412543" fill="#5b9bd5"></rect><text class="label" x="246.37649522177077" y="357.8637697103044" font-size="10px">2.25x</text><text class="label" x="224.55827562173135" y="371.06508984231755" font-size="10px">1.69x</text><text class="label" x="233.93571054085095" y="384.26640997433077" font-size="10px">1.93x</text><text class="label" x="262.3853259221351" y="397.467730106344" font-size="10px">2.66x</text><text class="label" x="197.56296938315063" y="410.66905023835716" font-size="10px">1x</text><text class="label" x="242.87649522177077" y="359.3637697103044" font-size="8px"></text><text class="label" x="221.05827562173135" y="372.56508984231755" font-size="8px"></text><text class="label" x="230.43571054085095" y="385.76640997433077" font-size="8px"></text><text class="label" x="258.8853259221351" y="398.967730106344" font-size="8px"></text><text class="label" x="194.06296938315063" y="412.16905023835716" font-size="8px"></text></g><g style="font-size: 13px;"><rect x="150" y="423.4378437843784" width="140.20039011346822" height="12.541254125412543" fill="#4472c4"></rect><rect x="150" y="436.6391639163916" width="125.01856940757106" height="12.541254125412543" fill="#ed7d31"></rect><rect x="150" y="449.84048404840485" width="133.0375187903279" height="12.541254125412543" fill="#a5a5a5"></rect><rect x="150" y="463.041804180418" width="181.6402846496825" height="12.541254125412543" fill="#ffc000"></rect><rect x="150" y="476.24312431243123" width="39.06296938315062" height="12.541254125412543" fill="#5b9bd5"></rect><text class="label" x="298.7003901134682" y="431.9378437843784" font-size="10px">3.59x</text><text class="label" x="283.5185694075711" y="445.1391639163916" font-size="10px">3.2x</text><text class="label" x="291.5375187903279" y="458.34048404840485" font-size="10px">3.41x</text><text class="label" x="340.1402846496825" y="471.541804180418" font-size="10px">4.65x</text><text class="label" x="197.56296938315063" y="484.74312431243123" font-size="10px">1x</text><text class="label" x="295.2003901134682" y="433.4378437843784" font-size="8px"></text><text class="label" x="280.0185694075711" y="446.6391639163916" font-size="8px"></text><text class="label" x="288.0375187903279" y="459.84048404840485" font-size="8px"></text><text class="label" x="336.6402846496825" y="473.041804180418" font-size="8px"></text><text class="label" x="194.06296938315063" y="486.24312431243123" font-size="8px"></text></g><g style="font-size: 13px;"><rect x="150" y="497.51191785845253" width="135.04453429622774" height="12.541254125412543" fill="#4472c4"></rect><rect x="150" y="510.7132379904657" width="122.86670748618977" height="12.541254125412543" fill="#ed7d31"></rect><rect x="150" y="523.9145581224789" width="128.14333779243086" height="12.541254125412543" fill="#a5a5a5"></rect><rect x="150" y="537.1158782544921" width="39.518231349595446" height="12.541254125412543" fill="#ffc000"></rect><rect x="150" y="550.3171983865053" width="39.06296938315062" height="12.541254125412543" fill="#5b9bd5"></rect><text class="label" x="293.54453429622777" y="506.01191785845253" font-size="10px">3.46x</text><text class="label" x="281.36670748618974" y="519.2132379904657" font-size="10px">3.15x</text><text class="label" x="286.6433377924309" y="532.4145581224789" font-size="10px">3.28x</text><text class="label" x="198.01823134959545" y="545.6158782544921" font-size="10px">1.01x</text><text class="label" x="197.56296938315063" y="558.8171983865053" font-size="10px">1x</text><text class="label" x="290.04453429622777" y="507.51191785845253" font-size="8px"></text><text class="label" x="277.86670748618974" y="520.7132379904657" font-size="8px"></text><text class="label" x="283.1433377924309" y="533.9145581224789" font-size="8px"></text><text class="label" x="194.51823134959545" y="547.1158782544921" font-size="8px"></text><text class="label" x="194.06296938315063" y="560.3171983865053" font-size="8px"></text></g><g style="font-size: 13px;"><rect x="150" y="571.5859919325266" width="72.0458933899971" height="12.541254125412543" fill="#4472c4"></rect><rect x="150" y="584.7873120645397" width="64.30788416192964" height="12.541254125412543" fill="#ed7d31"></rect><rect x="150" y="597.9886321965529" width="68.58358093760081" height="12.541254125412543" fill="#a5a5a5"></rect><rect x="150" y="611.1899523285662" width="39.06296938315062" height="12.541254125412543" fill="#ffc000"></rect><rect x="150" y="624.3912724605793" width="42.37313922318452" height="12.541254125412543" fill="#5b9bd5"></rect><text class="label" x="230.5458933899971" y="580.0859919325266" font-size="10px">1.84x</text><text class="label" x="222.80788416192962" y="593.2873120645397" font-size="10px">1.65x</text><text class="label" x="227.0835809376008" y="606.4886321965529" font-size="10px">1.76x</text><text class="label" x="197.56296938315063" y="619.6899523285662" font-size="10px">1x</text><text class="label" x="200.87313922318452" y="632.8912724605793" font-size="10px">1.08x</text><text class="label" x="227.0458933899971" y="581.5859919325266" font-size="8px"></text><text class="label" x="219.30788416192962" y="594.7873120645397" font-size="8px"></text><text class="label" x="223.5835809376008" y="607.9886321965529" font-size="8px"></text><text class="label" x="194.06296938315063" y="621.1899523285662" font-size="8px"></text><text class="label" x="197.37313922318452" y="634.3912724605793" font-size="8px"></text></g></g></svg>