<svg xmlns="http://www.w3.org/2000/svg" xmlns:xlink="http://www.w3.org/1999/xlink" width="800" height="675" style="background-color: white;"><g class="y axis" transform="translate(149,45)" fill="none" font-size="10" font-family="sans-serif" text-anchor="end" style="font-size: 13px;"><path class="domain" stroke="currentColor" d="M0.5,0.5V600.5"></path><g class="tick" opacity="1" transform="translate(0,40.740740740740726)" style="font-size: 13px;"><line stroke="currentColor" x2="0"></line><text fill="currentColor" x="-3" dy="0.32em">object (simple)    </text></g><g class="tick" opacity="1" transform="translate(0,114.81481481481481)" style="font-size: 13px;"><line stroke="currentColor" x2="0"></line><text fill="currentColor" x="-3" dy="0.32em">object (hierarchical)    </text></g><g class="tick" opacity="1" transform="translate(0,188.88888888888889)" style="font-size: 13px;"><line stroke="currentColor" x2="0"></line><text fill="currentColor" x="-3" dy="0.32em">object (recursive)    </text></g><g class="tick" opacity="1" transform="translate(0,262.96296296296293)" style="font-size: 13px;"><line stroke="currentColor" x2="0"></line><text fill="currentColor" x="-3" dy="0.32em">object (union)    </text></g><g class="tick" opacity="1" transform="translate(0,337.037037037037)" style="font-size: 13px;"><line stroke="currentColor" x2="0"></line><text fill="currentColor" x="-3" dy="0.32em">array (simple)    </text></g><g class="tick" opacity="1" transform="translate(0,411.1111111111111)" style="font-size: 13px;"><line stroke="currentColor" x2="0"></line><text fill="currentColor" x="-3" dy="0.32em">array (hierarchical)    </text></g><g class="tick" opacity="1" transform="translate(0,485.18518518518516)" style="font-size: 13px;"><line stroke="currentColor" x2="0"></line><text fill="currentColor" x="-3" dy="0.32em">array (recursive)    </text></g><g class="tick" opacity="1" transform="translate(0,559.2592592592592)" style="font-size: 13px;"><line stroke="currentColor" x2="0"></line><text fill="currentColor" x="-3" dy="0.32em">array (union)    </text></g></g><g class="x axis" transform="translate(149,645)" fill="none" font-size="10" font-family="sans-serif" text-anchor="middle" style="font-size: 13px;"><path class="domain" stroke="currentColor" d="M0.5,0.5H485.5"></path><g class="tick" opacity="1" transform="translate(0.5,0)" style="font-size: 13px;"><line stroke="currentColor" y2="6"></line><text fill="currentColor" y="9" dy="0.71em">0x</text></g><g class="tick" opacity="1" transform="translate(76.18698043955072,0)" style="font-size: 13px;"><line stroke="currentColor" y2="6"></line><text fill="currentColor" y="9" dy="0.71em">0.5x</text></g><g class="tick" opacity="1" transform="translate(151.87396087910145,0)" style="font-size: 13px;"><line stroke="currentColor" y2="6"></line><text fill="currentColor" y="9" dy="0.71em">1x</text></g><g class="tick" opacity="1" transform="translate(227.56094131865217,0)" style="font-size: 13px;"><line stroke="currentColor" y2="6"></line><text fill="currentColor" y="9" dy="0.71em">1.5x</text></g><g class="tick" opacity="1" transform="translate(303.2479217582029,0)" style="font-size: 13px;"><line stroke="currentColor" y2="6"></line><text fill="currentColor" y="9" dy="0.71em">2x</text></g><g class="tick" opacity="1" transform="translate(378.9349021977537,0)" style="font-size: 13px;"><line stroke="currentColor" y2="6"></line><text fill="currentColor" y="9" dy="0.71em">2.5x</text></g><g class="tick" opacity="1" transform="translate(454.62188263730434,0)" style="font-size: 13px;"><line stroke="currentColor" y2="6"></line><text fill="currentColor" y="9" dy="0.71em">3x</text></g></g><text transform="translate(400, 30)" style="text-anchor: middle; font-size: 20px; font-weight: bold;">stringify (server) benchmark</text><rect x="680" y="145" width="200" height="5" fill="gray"></rect><rect x="675" y="35" width="200" height="110" fill="none" stroke="black"></rect><rect x="685" y="45" width="10" height="10" style="fill: #4472c4;"></rect><text x="700" y="55" style="font-size: 12px;">express (pure)</text><rect x="685" y="65" width="10" height="10" style="fill: #ed7d31;"></rect><text x="700" y="75" style="font-size: 12px;">express (TSON.stringify)</text><rect x="685" y="85" width="10" height="10" style="fill: #a5a5a5;"></rect><text x="700" y="95" style="font-size: 12px;">express (TSON.isStringify)</text><rect x="685" y="105" width="10" height="10" style="fill: #ffc000;"></rect><text x="700" y="115" style="font-size: 12px;">express (TSON.assertStringify)</text><rect x="685" y="125" width="10" height="10" style="fill: #5b9bd5;"></rect><text x="700" y="135" style="font-size: 12px;">fastify</text><g style="font-size: 13px;"><g style="font-size: 13px;"><rect x="150" y="53.06747341400805" width="151.37396087910145" height="12.541254125412543" fill="#4472c4"></rect><rect x="150" y="66.26879354602124" width="271.9754542242473" height="12.541254125412543" fill="#ed7d31"></rect><rect x="150" y="79.47011367803445" width="262.25754402043214" height="12.541254125412543" fill="#a5a5a5"></rect><rect x="150" y="92.67143381004766" width="245.84975511048071" height="12.541254125412543" fill="#ffc000"></rect><rect x="150" y="105.87275394206085" width="440.9090909090908" height="12.541254125412543" fill="#5b9bd5"></rect><text class="label" x="309.87396087910145" y="61.56747341400805" font-size="10px">1x</text><text class="label" x="430.4754542242473" y="74.76879354602124" font-size="10px">1.8x</text><text class="label" x="420.75754402043214" y="87.97011367803445" font-size="10px">1.73x</text><text class="label" x="404.3497551104807" y="101.17143381004766" font-size="10px">1.62x</text><text class="label" x="599.4090909090908" y="114.37275394206085" font-size="10px">2.91x</text><text class="label" x="306.37396087910145" y="63.06747341400805" font-size="8px"></text><text class="label" x="426.9754542242473" y="76.26879354602124" font-size="8px"></text><text class="label" x="417.25754402043214" y="89.47011367803445" font-size="8px"></text><text class="label" x="400.8497551104807" y="102.67143381004766" font-size="8px"></text><text class="label" x="595.9090909090908" y="115.87275394206085" font-size="8px"></text></g><g style="font-size: 13px;"><rect x="150" y="127.14154748808213" width="151.37396087910145" height="12.541254125412543" fill="#4472c4"></rect><rect x="150" y="140.34286762009532" width="228.7054911132744" height="12.541254125412543" fill="#ed7d31"></rect><rect x="150" y="153.54418775210854" width="220.6936513892392" height="12.541254125412543" fill="#a5a5a5"></rect><rect x="150" y="166.74550788412174" width="219.4071548668171" height="12.541254125412543" fill="#ffc000"></rect><rect x="150" y="179.94682801613493" width="368.9942694100355" height="12.541254125412543" fill="#5b9bd5"></rect><text class="label" x="309.87396087910145" y="135.64154748808213" font-size="10px">1x</text><text class="label" x="387.20549111327443" y="148.84286762009532" font-size="10px">1.51x</text><text class="label" x="379.1936513892392" y="162.04418775210854" font-size="10px">1.46x</text><text class="label" x="377.9071548668171" y="175.24550788412174" font-size="10px">1.45x</text><text class="label" x="527.4942694100355" y="188.44682801613493" font-size="10px">2.44x</text><text class="label" x="306.37396087910145" y="137.14154748808213" font-size="8px"></text><text class="label" x="383.70549111327443" y="150.34286762009532" font-size="8px"></text><text class="label" x="375.6936513892392" y="163.54418775210854" font-size="8px"></text><text class="label" x="374.4071548668171" y="176.74550788412174" font-size="8px"></text><text class="label" x="523.9942694100355" y="189.94682801613493" font-size="8px"></text></g><g style="font-size: 13px;"><rect x="150" y="201.2156215621562" width="151.37396087910145" height="12.541254125412543" fill="#4472c4"></rect><rect x="150" y="214.4169416941694" width="219.74481806891822" height="12.541254125412543" fill="#ed7d31"></rect><rect x="150" y="227.61826182618262" width="213.90765861293278" height="12.541254125412543" fill="#a5a5a5"></rect><rect x="150" y="240.8195819581958" width="211.61540989263196" height="12.541254125412543" fill="#ffc000"></rect><rect x="150" y="254.020902090209" width="194.08275218345722" height="12.541254125412543" fill="#5b9bd5"></rect><text class="label" x="309.87396087910145" y="209.7156215621562" font-size="10px">1x</text><text class="label" x="378.2448180689182" y="222.9169416941694" font-size="10px">1.45x</text><text class="label" x="372.4076586129328" y="236.11826182618262" font-size="10px">1.41x</text><text class="label" x="370.115409892632" y="249.3195819581958" font-size="10px">1.4x</text><text class="label" x="352.5827521834572" y="262.520902090209" font-size="10px">1.28x</text><text class="label" x="306.37396087910145" y="211.2156215621562" font-size="8px"></text><text class="label" x="374.7448180689182" y="224.4169416941694" font-size="8px"></text><text class="label" x="368.9076586129328" y="237.61826182618262" font-size="8px"></text><text class="label" x="366.615409892632" y="250.8195819581958" font-size="8px"></text><text class="label" x="349.0827521834572" y="264.020902090209" font-size="8px"></text></g><g style="font-size: 13px;"><rect x="150" y="275.28969563623025" width="151.37396087910145" height="12.541254125412543" fill="#4472c4"></rect><rect x="150" y="288.49101576824347" width="371.60308318622396" height="12.541254125412543" fill="#ed7d31"></rect><rect x="150" y="301.6923359002567" width="345.95998815776335" height="12.541254125412543" fill="#a5a5a5"></rect><rect x="150" y="314.89365603226986" width="264.9527798781175" height="12.541254125412543" fill="#ffc000"></rect><rect x="150" y="328.0949761642831" width="267.2072799060923" height="12.541254125412543" fill="#5b9bd5"></rect><text class="label" x="309.87396087910145" y="283.78969563623025" font-size="10px">1x</text><text class="label" x="530.103083186224" y="296.99101576824347" font-size="10px">2.45x</text><text class="label" x="504.45998815776335" y="310.1923359002567" font-size="10px">2.29x</text><text class="label" x="423.4527798781175" y="323.39365603226986" font-size="10px">1.75x</text><text class="label" x="425.7072799060923" y="336.5949761642831" font-size="10px">1.77x</text><text class="label" x="306.37396087910145" y="285.28969563623025" font-size="8px"></text><text class="label" x="526.603083186224" y="298.49101576824347" font-size="8px"></text><text class="label" x="500.95998815776335" y="311.6923359002567" font-size="8px"></text><text class="label" x="419.9527798781175" y="324.89365603226986" font-size="8px"></text><text class="label" x="422.2072799060923" y="338.0949761642831" font-size="8px"></text></g><g style="font-size: 13px;"><rect x="150" y="349.3637697103044" width="151.37396087910145" height="12.541254125412543" fill="#4472c4"></rect><rect x="150" y="362.56508984231755" width="209.92085865996893" height="12.541254125412543" fill="#ed7d31"></rect><rect x="150" y="375.76640997433077" width="192.7046694423044" height="12.541254125412543" fill="#a5a5a5"></rect><rect x="150" y="388.967730106344" width="182.57142554490096" height="12.541254125412543" fill="#ffc000"></rect><rect x="150" y="402.16905023835716" width="240.16681940529992" height="12.541254125412543" fill="#5b9bd5"></rect><text class="label" x="309.87396087910145" y="357.8637697103044" font-size="10px">1x</text><text class="label" x="368.4208586599689" y="371.06508984231755" font-size="10px">1.39x</text><text class="label" x="351.2046694423044" y="384.26640997433077" font-size="10px">1.27x</text><text class="label" x="341.071425544901" y="397.467730106344" font-size="10px">1.21x</text><text class="label" x="398.6668194052999" y="410.66905023835716" font-size="10px">1.59x</text><text class="label" x="306.37396087910145" y="359.3637697103044" font-size="8px"></text><text class="label" x="364.9208586599689" y="372.56508984231755" font-size="8px"></text><text class="label" x="347.7046694423044" y="385.76640997433077" font-size="8px"></text><text class="label" x="337.571425544901" y="398.967730106344" font-size="8px"></text><text class="label" x="395.1668194052999" y="412.16905023835716" font-size="8px"></text></g><g style="font-size: 13px;"><rect x="150" y="423.4378437843784" width="151.37396087910145" height="12.541254125412543" fill="#4472c4"></rect><rect x="150" y="436.6391639163916" width="332.65862187885836" height="12.541254125412543" fill="#ed7d31"></rect><rect x="150" y="449.84048404840485" width="284.3753184764232" height="12.541254125412543" fill="#a5a5a5"></rect><rect x="150" y="463.041804180418" width="187.13830247894882" height="12.541254125412543" fill="#ffc000"></rect><rect x="150" y="476.24312431243123" width="184.37433299032054" height="12.541254125412543" fill="#5b9bd5"></rect><text class="label" x="309.87396087910145" y="431.9378437843784" font-size="10px">1x</text><text class="label" x="491.15862187885836" y="445.1391639163916" font-size="10px">2.2x</text><text class="label" x="442.8753184764232" y="458.34048404840485" font-size="10px">1.88x</text><text class="label" x="345.63830247894884" y="471.541804180418" font-size="10px">1.24x</text><text class="label" x="342.87433299032057" y="484.74312431243123" font-size="10px">1.22x</text><text class="label" x="306.37396087910145" y="433.4378437843784" font-size="8px"></text><text class="label" x="487.65862187885836" y="446.6391639163916" font-size="8px"></text><text class="label" x="439.3753184764232" y="459.84048404840485" font-size="8px"></text><text class="label" x="342.13830247894884" y="473.041804180418" font-size="8px"></text><text class="label" x="339.37433299032057" y="486.24312431243123" font-size="8px"></text></g><g style="font-size: 13px;"><rect x="150" y="497.51191785845253" width="192.52816698533195" height="12.541254125412543" fill="#4472c4"></rect><rect x="150" y="510.7132379904657" width="297.14244098238845" height="12.541254125412543" fill="#ed7d31"></rect><rect x="150" y="523.9145581224789" width="294.9366658234852" height="12.541254125412543" fill="#a5a5a5"></rect><rect x="150" y="537.1158782544921" width="288.20442135442306" height="12.541254125412543" fill="#ffc000"></rect><rect x="150" y="550.3171983865053" width="151.37396087910145" height="12.541254125412543" fill="#5b9bd5"></rect><text class="label" x="351.02816698533195" y="506.01191785845253" font-size="10px">1.27x</text><text class="label" x="455.64244098238845" y="519.2132379904657" font-size="10px">1.96x</text><text class="label" x="453.4366658234852" y="532.4145581224789" font-size="10px">1.95x</text><text class="label" x="446.70442135442306" y="545.6158782544921" font-size="10px">1.9x</text><text class="label" x="309.87396087910145" y="558.8171983865053" font-size="10px">1x</text><text class="label" x="347.52816698533195" y="507.51191785845253" font-size="8px"></text><text class="label" x="452.14244098238845" y="520.7132379904657" font-size="8px"></text><text class="label" x="449.9366658234852" y="533.9145581224789" font-size="8px"></text><text class="label" x="443.20442135442306" y="547.1158782544921" font-size="8px"></text><text class="label" x="306.37396087910145" y="560.3171983865053" font-size="8px"></text></g><g style="font-size: 13px;"><rect x="150" y="571.5859919325266" width="162.96776901274885" height="12.541254125412543" fill="#4472c4"></rect><rect x="150" y="584.7873120645397" width="195.9228633431045" height="12.541254125412543" fill="#ed7d31"></rect><rect x="150" y="597.9886321965529" width="180.92850508431422" height="12.541254125412543" fill="#a5a5a5"></rect><rect x="150" y="611.1899523285662" width="174.12645696181428" height="12.541254125412543" fill="#ffc000"></rect><rect x="150" y="624.3912724605793" width="151.37396087910145" height="12.541254125412543" fill="#5b9bd5"></rect><text class="label" x="321.4677690127488" y="580.0859919325266" font-size="10px">1.08x</text><text class="label" x="354.4228633431045" y="593.2873120645397" font-size="10px">1.29x</text><text class="label" x="339.4285050843142" y="606.4886321965529" font-size="10px">1.2x</text><text class="label" x="332.62645696181426" y="619.6899523285662" font-size="10px">1.15x</text><text class="label" x="309.87396087910145" y="632.8912724605793" font-size="10px">1x</text><text class="label" x="317.9677690127488" y="581.5859919325266" font-size="8px"></text><text class="label" x="350.9228633431045" y="594.7873120645397" font-size="8px"></text><text class="label" x="335.9285050843142" y="607.9886321965529" font-size="8px"></text><text class="label" x="329.12645696181426" y="621.1899523285662" font-size="8px"></text><text class="label" x="306.37396087910145" y="634.3912724605793" font-size="8px"></text></g></g></svg>