<svg xmlns="http://www.w3.org/2000/svg" xmlns:xlink="http://www.w3.org/1999/xlink" width="800" height="600" style="background-color: white;"><g class="y axis" transform="translate(149,45)" fill="none" font-size="10" font-family="sans-serif" text-anchor="end" style="font-size: 13px;"><path class="domain" stroke="currentColor" d="M0.5,0.5V525.5"></path><g class="tick" opacity="1" transform="translate(0,40.66901408450705)" style="font-size: 13px;"><line stroke="currentColor" x2="0"></line><text fill="currentColor" x="-3" dy="0.32em">object (simple)    </text></g><g class="tick" opacity="1" transform="translate(0,114.61267605633802)" style="font-size: 13px;"><line stroke="currentColor" x2="0"></line><text fill="currentColor" x="-3" dy="0.32em">object (hierarchical)    </text></g><g class="tick" opacity="1" transform="translate(0,188.556338028169)" style="font-size: 13px;"><line stroke="currentColor" x2="0"></line><text fill="currentColor" x="-3" dy="0.32em">object (recursive)    </text></g><g class="tick" opacity="1" transform="translate(0,262.5)" style="font-size: 13px;"><line stroke="currentColor" x2="0"></line><text fill="currentColor" x="-3" dy="0.32em">object (union)    </text></g><g class="tick" opacity="1" transform="translate(0,336.443661971831)" style="font-size: 13px;"><line stroke="currentColor" x2="0"></line><text fill="currentColor" x="-3" dy="0.32em">array (hierarchical)    </text></g><g class="tick" opacity="1" transform="translate(0,410.38732394366195)" style="font-size: 13px;"><line stroke="currentColor" x2="0"></line><text fill="currentColor" x="-3" dy="0.32em">array (recursive)    </text></g><g class="tick" opacity="1" transform="translate(0,484.33098591549293)" style="font-size: 13px;"><line stroke="currentColor" x2="0"></line><text fill="currentColor" x="-3" dy="0.32em">array (union)    </text></g></g><g class="x axis" transform="translate(149,570)" fill="none" font-size="10" font-family="sans-serif" text-anchor="middle" style="font-size: 13px;"><path class="domain" stroke="currentColor" d="M0.5,0.5H485.5"></path><g class="tick" opacity="1" transform="translate(0.5,0)" style="font-size: 13px;"><line stroke="currentColor" y2="6"></line><text fill="currentColor" y="9" dy="0.71em">0x</text></g><g class="tick" opacity="1" transform="translate(85.77443947723012,0)" style="font-size: 13px;"><line stroke="currentColor" y2="6"></line><text fill="currentColor" y="9" dy="0.71em">2x</text></g><g class="tick" opacity="1" transform="translate(171.04887895446024,0)" style="font-size: 13px;"><line stroke="currentColor" y2="6"></line><text fill="currentColor" y="9" dy="0.71em">4x</text></g><g class="tick" opacity="1" transform="translate(256.3233184316903,0)" style="font-size: 13px;"><line stroke="currentColor" y2="6"></line><text fill="currentColor" y="9" dy="0.71em">6x</text></g><g class="tick" opacity="1" transform="translate(341.59775790892047,0)" style="font-size: 13px;"><line stroke="currentColor" y2="6"></line><text fill="currentColor" y="9" dy="0.71em">8x</text></g><g class="tick" opacity="1" transform="translate(426.87219738615056,0)" style="font-size: 13px;"><line stroke="currentColor" y2="6"></line><text fill="currentColor" y="9" dy="0.71em">10x</text></g></g><text transform="translate(400, 30)" style="text-anchor: middle; font-size: 20px; font-weight: bold;">stringify benchmark</text><rect x="680" y="145" width="200" height="5" fill="gray"></rect><rect x="675" y="35" width="200" height="110" fill="none" stroke="black"></rect><rect x="685" y="45" width="10" height="10" style="fill: #4472c4;"></rect><text x="700" y="55" style="font-size: 12px;">TSON.stringify()</text><rect x="685" y="65" width="10" height="10" style="fill: #ed7d31;"></rect><text x="700" y="75" style="font-size: 12px;">TSON.assertStringify()</text><rect x="685" y="85" width="10" height="10" style="fill: #a5a5a5;"></rect><text x="700" y="95" style="font-size: 12px;">TSON.isStringify()</text><rect x="685" y="105" width="10" height="10" style="fill: #ffc000;"></rect><text x="700" y="115" style="font-size: 12px;">JSON.stringify()</text><rect x="685" y="125" width="10" height="10" style="fill: #5b9bd5;"></rect><text x="700" y="135" style="font-size: 12px;">fast-json-stringify</text><g style="font-size: 13px;"><g style="font-size: 13px;"><rect x="150" y="53.05327011574397" width="440.9090909090908" height="12.519174452656534" fill="#4472c4"></rect><rect x="150" y="66.23134848696137" width="361.4584718728426" height="12.519174452656534" fill="#ed7d31"></rect><rect x="150" y="79.40942685817878" width="379.4923602435977" height="12.519174452656534" fill="#a5a5a5"></rect><rect x="150" y="92.58750522939619" width="42.63721973861506" height="12.519174452656534" fill="#ffc000"></rect><rect x="150" y="105.76558360061358" width="293.9730648883524" height="12.519174452656534" fill="#5b9bd5"></rect><text class="label" x="599.4090909090908" y="61.55327011574397" font-size="10px">10.34x</text><text class="label" x="519.9584718728427" y="74.73134848696137" font-size="10px">8.48x</text><text class="label" x="537.9923602435977" y="87.90942685817878" font-size="10px">8.9x</text><text class="label" x="201.13721973861504" y="101.08750522939619" font-size="10px">1x</text><text class="label" x="452.4730648883524" y="114.26558360061358" font-size="10px">6.89x</text></g><g style="font-size: 13px;"><rect x="150" y="126.99693208757495" width="202.34611941245672" height="12.519174452656534" fill="#4472c4"></rect><rect x="150" y="140.17501045879237" width="163.978242907689" height="12.519174452656534" fill="#ed7d31"></rect><rect x="150" y="153.35308883000977" width="180.10316977565682" height="12.519174452656534" fill="#a5a5a5"></rect><rect x="150" y="166.53116720122716" width="42.63721973861506" height="12.519174452656534" fill="#ffc000"></rect><rect x="150" y="179.70924557244456" width="178.80481991391736" height="12.519174452656534" fill="#5b9bd5"></rect><text class="label" x="360.8461194124567" y="135.49693208757495" font-size="10px">4.75x</text><text class="label" x="322.47824290768904" y="148.67501045879237" font-size="10px">3.85x</text><text class="label" x="338.60316977565685" y="161.85308883000977" font-size="10px">4.22x</text><text class="label" x="201.13721973861504" y="175.03116720122716" font-size="10px">1x</text><text class="label" x="337.30481991391736" y="188.20924557244456" font-size="10px">4.19x</text></g><g style="font-size: 13px;"><rect x="150" y="200.94059405940592" width="277.55268507038386" height="12.519174452656534" fill="#4472c4"></rect><rect x="150" y="214.11867243062332" width="259.09133487250324" height="12.519174452656534" fill="#ed7d31"></rect><rect x="150" y="227.29675080184074" width="265.95095370984444" height="12.519174452656534" fill="#a5a5a5"></rect><rect x="150" y="240.47482917305814" width="42.63721973861506" height="12.519174452656534" fill="#ffc000"></rect><rect x="150" y="253.65290754427554" width="43.85546757925802" height="12.519174452656534" fill="#5b9bd5"></rect><text class="label" x="436.05268507038386" y="209.44059405940592" font-size="10px">6.51x</text><text class="label" x="417.59133487250324" y="222.61867243062332" font-size="10px">6.08x</text><text class="label" x="424.45095370984444" y="235.79675080184074" font-size="10px">6.24x</text><text class="label" x="201.13721973861504" y="248.97482917305814" font-size="10px">1x</text><text class="label" x="202.355467579258" y="262.15290754427554" font-size="10px">1.03x</text></g><g style="font-size: 13px;"><rect x="150" y="274.8842560312369" width="160.02972998828915" height="12.519174452656534" fill="#4472c4"></rect><rect x="150" y="288.0623344024543" width="125.36182584835534" height="12.519174452656534" fill="#ed7d31"></rect><rect x="150" y="301.2404127736717" width="143.9888404277965" height="12.519174452656534" fill="#a5a5a5"></rect><rect x="150" y="314.4184911448891" width="42.63721973861506" height="12.519174452656534" fill="#ffc000"></rect><rect x="150" y="327.5965695161065" width="148.4407769907166" height="12.519174452656534" fill="#5b9bd5"></rect><text class="label" x="318.52972998828915" y="283.3842560312369" font-size="10px">3.75x</text><text class="label" x="283.86182584835535" y="296.5623344024543" font-size="10px">2.94x</text><text class="label" x="302.4888404277965" y="309.7404127736717" font-size="10px">3.38x</text><text class="label" x="201.13721973861504" y="322.9184911448891" font-size="10px">1x</text><text class="label" x="306.9407769907166" y="336.0965695161065" font-size="10px">3.48x</text></g><g style="font-size: 13px;"><rect x="150" y="348.8279180030679" width="152.52634445340965" height="12.519174452656534" fill="#4472c4"></rect><rect x="150" y="362.0059963742853" width="136.48502952096123" height="12.519174452656534" fill="#ed7d31"></rect><rect x="150" y="375.1840747455027" width="149.95705845790553" height="12.519174452656534" fill="#a5a5a5"></rect><rect x="150" y="388.3621531167201" width="42.63721973861506" height="12.519174452656534" fill="#ffc000"></rect><rect x="150" y="401.5402314879375" width="194.98227338464528" height="12.519174452656534" fill="#5b9bd5"></rect><text class="label" x="311.02634445340965" y="357.3279180030679" font-size="10px">3.58x</text><text class="label" x="294.98502952096123" y="370.5059963742853" font-size="10px">3.2x</text><text class="label" x="308.45705845790553" y="383.6840747455027" font-size="10px">3.52x</text><text class="label" x="201.13721973861504" y="396.8621531167201" font-size="10px">1x</text><text class="label" x="353.4822733846453" y="410.0402314879375" font-size="10px">4.57x</text></g><g style="font-size: 13px;"><rect x="150" y="422.7715799748988" width="145.29485893064637" height="12.519174452656534" fill="#4472c4"></rect><rect x="150" y="435.9496583461163" width="137.82106148715962" height="12.519174452656534" fill="#ed7d31"></rect><rect x="150" y="449.1277367173337" width="142.53618699904558" height="12.519174452656534" fill="#a5a5a5"></rect><rect x="150" y="462.30581508855107" width="43.78277508153833" height="12.519174452656534" fill="#ffc000"></rect><rect x="150" y="475.48389345976847" width="42.63721973861506" height="12.519174452656534" fill="#5b9bd5"></rect><text class="label" x="303.79485893064634" y="431.2715799748988" font-size="10px">3.41x</text><text class="label" x="296.3210614871596" y="444.4496583461163" font-size="10px">3.23x</text><text class="label" x="301.0361869990456" y="457.6277367173337" font-size="10px">3.34x</text><text class="label" x="202.28277508153832" y="470.80581508855107" font-size="10px">1.03x</text><text class="label" x="201.13721973861504" y="483.98389345976847" font-size="10px">1x</text></g><g style="font-size: 13px;"><rect x="150" y="496.71524194672986" width="87.7209692621563" height="12.519174452656534" fill="#4472c4"></rect><rect x="150" y="509.89332031794726" width="77.39813224608197" height="12.519174452656534" fill="#ed7d31"></rect><rect x="150" y="523.0713986891647" width="81.78352374441211" height="12.519174452656534" fill="#a5a5a5"></rect><rect x="150" y="536.2494770603821" width="45.586890635866226" height="12.519174452656534" fill="#ffc000"></rect><rect x="150" y="549.4275554315994" width="42.63721973861506" height="12.519174452656534" fill="#5b9bd5"></rect><text class="label" x="246.2209692621563" y="505.21524194672986" font-size="10px">2.06x</text><text class="label" x="235.89813224608196" y="518.3933203179472" font-size="10px">1.82x</text><text class="label" x="240.2835237444121" y="531.5713986891647" font-size="10px">1.92x</text><text class="label" x="204.0868906358662" y="544.7494770603821" font-size="10px">1.07x</text><text class="label" x="201.13721973861504" y="557.9275554315994" font-size="10px">1x</text></g></g></svg>