<svg xmlns="http://www.w3.org/2000/svg" xmlns:xlink="http://www.w3.org/1999/xlink" width="800" height="914" style="background-color: white;"><g class="y axis" transform="translate(149,45)" fill="none" font-size="10" font-family="sans-serif" text-anchor="end" style="font-size: 13px;"><path class="domain" stroke="currentColor" d="M0.5,0.5V720.5"></path><g class="tick" opacity="1" transform="translate(0,48.88888888888886)" style="font-size: 13px;"><line stroke="currentColor" x2="0"></line><text fill="currentColor" x="-3" dy="0.32em">object (simple)    </text></g><g class="tick" opacity="1" transform="translate(0,137.77777777777774)" style="font-size: 13px;"><line stroke="currentColor" x2="0"></line><text fill="currentColor" x="-3" dy="0.32em">object (hierarchical)    </text></g><g class="tick" opacity="1" transform="translate(0,226.66666666666663)" style="font-size: 13px;"><line stroke="currentColor" x2="0"></line><text fill="currentColor" x="-3" dy="0.32em">object (recursive)    </text></g><g class="tick" opacity="1" transform="translate(0,315.5555555555555)" style="font-size: 13px;"><line stroke="currentColor" x2="0"></line><text fill="currentColor" x="-3" dy="0.32em">object (union, explicit)    </text></g><g class="tick" opacity="1" transform="translate(0,404.4444444444444)" style="font-size: 13px;"><line stroke="currentColor" x2="0"></line><text fill="currentColor" x="-3" dy="0.32em">array (simple)    </text></g><g class="tick" opacity="1" transform="translate(0,493.3333333333333)" style="font-size: 13px;"><line stroke="currentColor" x2="0"></line><text fill="currentColor" x="-3" dy="0.32em">array (hierarchical)    </text></g><g class="tick" opacity="1" transform="translate(0,582.2222222222222)" style="font-size: 13px;"><line stroke="currentColor" x2="0"></line><text fill="currentColor" x="-3" dy="0.32em">array (recursive)    </text></g><g class="tick" opacity="1" transform="translate(0,671.1111111111111)" style="font-size: 13px;"><line stroke="currentColor" x2="0"></line><text fill="currentColor" x="-3" dy="0.32em">array (union, explicit)    </text></g></g><g class="x axis" transform="translate(149,765)" fill="none" font-size="10" font-family="sans-serif" text-anchor="middle" style="font-size: 13px;"><path class="domain" stroke="currentColor" d="M0.5,0.5H485.5"></path><g class="tick" opacity="1" transform="translate(0.5,0)" style="font-size: 13px;"><line stroke="currentColor" y2="6"></line><text fill="currentColor" y="9" dy="0.71em">0x</text></g><g class="tick" opacity="1" transform="translate(109.31490463511088,0)" style="font-size: 13px;"><line stroke="currentColor" y2="6"></line><text fill="currentColor" y="9" dy="0.71em">10x</text></g><g class="tick" opacity="1" transform="translate(218.12980927022176,0)" style="font-size: 13px;"><line stroke="currentColor" y2="6"></line><text fill="currentColor" y="9" dy="0.71em">20x</text></g><g class="tick" opacity="1" transform="translate(326.9447139053326,0)" style="font-size: 13px;"><line stroke="currentColor" y2="6"></line><text fill="currentColor" y="9" dy="0.71em">30x</text></g><g class="tick" opacity="1" transform="translate(435.7596185404435,0)" style="font-size: 13px;"><line stroke="currentColor" y2="6"></line><text fill="currentColor" y="9" dy="0.71em">40x</text></g></g><text transform="translate(400, 30)" style="text-anchor: middle; font-size: 20px; font-weight: bold;">server-stringify benchmark</text><rect x="650" y="165" width="230" height="5" fill="gray"></rect><rect x="645" y="35" width="230" height="130" fill="none" stroke="black"></rect><rect x="655" y="45" width="10" height="10" style="fill: #4472c4;"></rect><text x="670" y="55" style="font-size: 12px;">fastify-typia</text><rect x="655" y="65" width="10" height="10" style="fill: #ed7d31;"></rect><text x="670" y="75" style="font-size: 12px;">fastify-pure</text><rect x="655" y="85" width="10" height="10" style="fill: #a5a5a5;"></rect><text x="670" y="95" style="font-size: 12px;">fastify-class-transformer</text><rect x="655" y="105" width="10" height="10" style="fill: #ffc000;"></rect><text x="670" y="115" style="font-size: 12px;">express-typia</text><rect x="655" y="125" width="10" height="10" style="fill: #5b9bd5;"></rect><text x="670" y="135" style="font-size: 12px;">express-pure</text><rect x="655" y="145" width="10" height="10" style="fill: #70ad47;"></rect><text x="670" y="155" style="font-size: 12px;">express-class-transformer</text><text x="20" y="829" style="font-size: 12px;">  - CPU: 11th Gen Intel(R) Core(TM) i5-1135G7 @ 2.40GHz</text><text x="20" y="846" style="font-size: 12px;">  - OS: win32</text><text x="20" y="863" style="font-size: 12px;">  - RAM: 16 GB</text><text x="20" y="880" style="font-size: 12px;">  - NodeJS version: v16.20.0</text><text x="20" y="897" style="font-size: 12px;">  - Typia version: v4.1.1</text><g style="font-size: 13px;"><g style="font-size: 13px;"><rect x="150" y="54.55004591368224" width="297.2441552988993" height="12.56198347107438" fill="#4472c4"></rect><rect x="150" y="67.77318640955001" width="263.9140382277207" height="12.56198347107438" fill="#ed7d31"></rect><rect x="150" y="80.99632690541777" width="11.615581464582487" height="12.56198347107438" fill="#a5a5a5"></rect><rect x="150" y="94.21946740128556" width="150.81292505097227" height="12.56198347107438" fill="#ffc000"></rect><rect x="150" y="107.44260789715332" width="103.11350428779934" height="12.56198347107438" fill="#5b9bd5"></rect><rect x="150" y="120.66574839302109" width="10.881490463511087" height="12.56198347107438" fill="#70ad47"></rect><text class="label" x="455.7441552988993" y="63.05004591368224" font-size="10px">27.32x</text><text class="label" x="422.4140382277207" y="76.27318640955001" font-size="10px">24.25x</text><text class="label" x="170.11558146458248" y="89.49632690541777" font-size="10px">1.07x</text><text class="label" x="309.31292505097224" y="102.71946740128556" font-size="10px">13.86x</text><text class="label" x="261.61350428779934" y="115.94260789715332" font-size="10px">9.48x</text><text class="label" x="169.38149046351108" y="129.1657483930211" font-size="10px">1x</text><text class="label" x="452.2441552988993" y="64.55004591368224" font-size="8px"></text><text class="label" x="418.9140382277207" y="77.77318640955001" font-size="8px"></text><text class="label" x="166.61558146458248" y="90.99632690541777" font-size="8px"></text><text class="label" x="305.81292505097224" y="104.21946740128556" font-size="8px"></text><text class="label" x="258.11350428779934" y="117.44260789715332" font-size="8px"></text><text class="label" x="165.88149046351108" y="130.6657483930211" font-size="8px"></text></g><g style="font-size: 13px;"><rect x="150" y="143.4389348025711" width="213.78591052674392" height="12.56198347107438" fill="#4472c4"></rect><rect x="150" y="156.66207529843888" width="165.93438441492708" height="12.56198347107438" fill="#ed7d31"></rect><rect x="150" y="169.88521579430665" width="11.402231835846088" height="12.56198347107438" fill="#a5a5a5"></rect><rect x="150" y="183.10835629017444" width="166.04019587761988" height="12.56198347107438" fill="#ffc000"></rect><rect x="150" y="196.3314967860422" width="108.66061173647935" height="12.56198347107438" fill="#5b9bd5"></rect><rect x="150" y="209.55463728190998" width="10.881490463511087" height="12.56198347107438" fill="#70ad47"></rect><text class="label" x="372.2859105267439" y="151.9389348025711" font-size="10px">19.65x</text><text class="label" x="324.4343844149271" y="165.16207529843888" font-size="10px">15.25x</text><text class="label" x="169.9022318358461" y="178.38521579430665" font-size="10px">1.05x</text><text class="label" x="324.5401958776199" y="191.60835629017444" font-size="10px">15.26x</text><text class="label" x="267.1606117364794" y="204.8314967860422" font-size="10px">9.99x</text><text class="label" x="169.38149046351108" y="218.05463728190998" font-size="10px">1x</text><text class="label" x="368.7859105267439" y="153.4389348025711" font-size="8px"></text><text class="label" x="320.9343844149271" y="166.66207529843888" font-size="8px"></text><text class="label" x="166.4022318358461" y="179.88521579430665" font-size="8px"></text><text class="label" x="321.0401958776199" y="193.10835629017444" font-size="8px"></text><text class="label" x="263.6606117364794" y="206.3314967860422" font-size="8px"></text><text class="label" x="165.88149046351108" y="219.55463728190998" font-size="8px"></text></g><g style="font-size: 13px;"><rect x="150" y="232.32782369146003" width="269.5196774743337" height="12.56198347107438" fill="#4472c4"></rect><rect x="150" y="245.5509641873278" width="110.42352059910056" height="12.56198347107438" fill="#ed7d31"></rect><rect x="150" y="258.77410468319556" width="11.419503764949631" height="12.56198347107438" fill="#a5a5a5"></rect><rect x="150" y="271.9972451790633" width="223.9256833007446" height="12.56198347107438" fill="#ffc000"></rect><rect x="150" y="285.2203856749311" width="138.2717400098199" height="12.56198347107438" fill="#5b9bd5"></rect><rect x="150" y="298.44352617079886" width="10.881490463511087" height="12.56198347107438" fill="#70ad47"></rect><text class="label" x="428.0196774743337" y="240.82782369146003" font-size="10px">24.77x</text><text class="label" x="268.9235205991006" y="254.0509641873278" font-size="10px">10.15x</text><text class="label" x="169.91950376494964" y="267.27410468319556" font-size="10px">1.05x</text><text class="label" x="382.4256833007446" y="280.4972451790633" font-size="10px">20.58x</text><text class="label" x="296.7717400098199" y="293.7203856749311" font-size="10px">12.71x</text><text class="label" x="169.38149046351108" y="306.94352617079886" font-size="10px">1x</text><text class="label" x="424.5196774743337" y="242.32782369146003" font-size="8px"></text><text class="label" x="265.4235205991006" y="255.5509641873278" font-size="8px"></text><text class="label" x="166.41950376494964" y="268.77410468319556" font-size="8px"></text><text class="label" x="378.9256833007446" y="281.9972451790633" font-size="8px"></text><text class="label" x="293.2717400098199" y="295.2203856749311" font-size="8px"></text><text class="label" x="165.88149046351108" y="308.44352617079886" font-size="8px"></text></g><g style="font-size: 13px;"><rect x="150" y="321.2167125803489" width="440.9090909090909" height="12.56198347107438" fill="#4472c4"></rect><rect x="150" y="334.43985307621665" width="227.24826781136642" height="12.56198347107438" fill="#ed7d31"></rect><rect x="150" y="347.6629935720844" width="11.280604917623151" height="12.56198347107438" fill="#a5a5a5"></rect><rect x="150" y="360.8861340679522" width="370.9999660213655" height="12.56198347107438" fill="#ffc000"></rect><rect x="150" y="374.10927456381995" width="226.21235761204974" height="12.56198347107438" fill="#5b9bd5"></rect><rect x="150" y="387.3324150596877" width="10.881490463511087" height="12.56198347107438" fill="#70ad47"></rect><text class="label" x="599.4090909090909" y="329.7167125803489" font-size="10px">40.52x</text><text class="label" x="385.7482678113664" y="342.93985307621665" font-size="10px">20.88x</text><text class="label" x="169.78060491762315" y="356.1629935720844" font-size="10px">1.04x</text><text class="label" x="529.4999660213655" y="369.3861340679522" font-size="10px">34.09x</text><text class="label" x="384.71235761204974" y="382.60927456381995" font-size="10px">20.79x</text><text class="label" x="169.38149046351108" y="395.8324150596877" font-size="10px">1x</text><text class="label" x="595.9090909090909" y="331.2167125803489" font-size="8px"></text><text class="label" x="382.2482678113664" y="344.43985307621665" font-size="8px"></text><text class="label" x="166.28060491762315" y="357.6629935720844" font-size="8px"></text><text class="label" x="525.9999660213655" y="370.8861340679522" font-size="8px"></text><text class="label" x="381.21235761204974" y="384.10927456381995" font-size="8px"></text><text class="label" x="165.88149046351108" y="397.3324150596877" font-size="8px"></text></g><g style="font-size: 13px;"><rect x="150" y="410.1056014692378" width="201.75415377305515" height="12.56198347107438" fill="#4472c4"></rect><rect x="150" y="423.32874196510556" width="163.31125229792616" height="12.56198347107438" fill="#ed7d31"></rect><rect x="150" y="436.55188246097333" width="11.72132887300741" height="12.56198347107438" fill="#a5a5a5"></rect><rect x="150" y="449.7750229568411" width="175.27890223528158" height="12.56198347107438" fill="#ffc000"></rect><rect x="150" y="462.99816345270887" width="162.48954135949475" height="12.56198347107438" fill="#5b9bd5"></rect><rect x="150" y="476.22130394857663" width="10.881490463511087" height="12.56198347107438" fill="#70ad47"></rect><text class="label" x="360.2541537730551" y="418.6056014692378" font-size="10px">18.54x</text><text class="label" x="321.81125229792616" y="431.82874196510556" font-size="10px">15.01x</text><text class="label" x="170.22132887300742" y="445.05188246097333" font-size="10px">1.08x</text><text class="label" x="333.7789022352816" y="458.2750229568411" font-size="10px">16.11x</text><text class="label" x="320.98954135949475" y="471.49816345270887" font-size="10px">14.93x</text><text class="label" x="169.38149046351108" y="484.72130394857663" font-size="10px">1x</text><text class="label" x="356.7541537730551" y="420.1056014692378" font-size="8px"></text><text class="label" x="318.31125229792616" y="433.32874196510556" font-size="8px"></text><text class="label" x="166.72132887300742" y="446.55188246097333" font-size="8px"></text><text class="label" x="330.2789022352816" y="459.7750229568411" font-size="8px"></text><text class="label" x="317.48954135949475" y="472.99816345270887" font-size="8px"></text><text class="label" x="165.88149046351108" y="486.22130394857663" font-size="8px"></text></g><g style="font-size: 13px;"><rect x="150" y="498.9944903581267" width="275.654159410833" height="12.56198347107438" fill="#4472c4"></rect><rect x="150" y="512.2176308539945" width="116.28390543838316" height="12.56198347107438" fill="#ed7d31"></rect><rect x="150" y="525.4407713498622" width="10.881490463511087" height="12.56198347107438" fill="#a5a5a5"></rect><rect x="150" y="538.66391184573" width="257.89191616428445" height="12.56198347107438" fill="#ffc000"></rect><rect x="150" y="551.8870523415978" width="174.33977133504578" height="12.56198347107438" fill="#5b9bd5"></rect><rect x="150" y="565.1101928374655" width="11.515682634211165" height="12.56198347107438" fill="#70ad47"></rect><text class="label" x="434.154159410833" y="507.4944903581267" font-size="10px">25.33x</text><text class="label" x="274.78390543838316" y="520.7176308539945" font-size="10px">10.69x</text><text class="label" x="169.38149046351108" y="533.9407713498622" font-size="10px">1x</text><text class="label" x="416.39191616428445" y="547.16391184573" font-size="10px">23.7x</text><text class="label" x="332.8397713350458" y="560.3870523415978" font-size="10px">16.02x</text><text class="label" x="170.01568263421117" y="573.6101928374655" font-size="10px">1.06x</text><text class="label" x="430.654159410833" y="508.9944903581267" font-size="8px"></text><text class="label" x="271.28390543838316" y="522.2176308539945" font-size="8px"></text><text class="label" x="165.88149046351108" y="535.4407713498622" font-size="8px"></text><text class="label" x="412.89191616428445" y="548.66391184573" font-size="8px"></text><text class="label" x="329.3397713350458" y="561.8870523415978" font-size="8px"></text><text class="label" x="166.51568263421117" y="575.1101928374655" font-size="8px"></text></g><g style="font-size: 13px;"><rect x="150" y="587.8833792470156" width="268.3215929208678" height="12.56198347107438" fill="#4472c4"></rect><rect x="150" y="601.1065197428833" width="161.49109720399358" height="12.56198347107438" fill="#ed7d31"></rect><rect x="150" y="614.3296602387511" width="12.567240648932644" height="12.56198347107438" fill="#a5a5a5"></rect><rect x="150" y="627.5528007346188" width="256.12080322446707" height="12.56198347107438" fill="#ffc000"></rect><rect x="150" y="640.7759412304866" width="172.82518656736406" height="12.56198347107438" fill="#5b9bd5"></rect><rect x="150" y="653.9990817263545" width="10.881490463511087" height="12.56198347107438" fill="#70ad47"></rect><text class="label" x="426.8215929208678" y="596.3833792470156" font-size="10px">24.66x</text><text class="label" x="319.9910972039936" y="609.6065197428833" font-size="10px">14.84x</text><text class="label" x="171.06724064893265" y="622.8296602387511" font-size="10px">1.15x</text><text class="label" x="414.62080322446707" y="636.0528007346188" font-size="10px">23.54x</text><text class="label" x="331.3251865673641" y="649.2759412304866" font-size="10px">15.88x</text><text class="label" x="169.38149046351108" y="662.4990817263545" font-size="10px">1x</text><text class="label" x="423.3215929208678" y="597.8833792470156" font-size="8px"></text><text class="label" x="316.4910972039936" y="611.1065197428833" font-size="8px"></text><text class="label" x="167.56724064893265" y="624.3296602387511" font-size="8px"></text><text class="label" x="411.12080322446707" y="637.5528007346188" font-size="8px"></text><text class="label" x="327.8251865673641" y="650.7759412304866" font-size="8px"></text><text class="label" x="165.88149046351108" y="663.9990817263545" font-size="8px"></text></g><g style="font-size: 13px;"><rect x="150" y="676.7722681359045" width="221.25291169395774" height="12.56198347107438" fill="#4472c4"></rect><rect x="150" y="689.9954086317722" width="47.44266775597382" height="12.56198347107438" fill="#ed7d31"></rect><rect x="150" y="703.21854912764" width="10.896772261382676" height="12.56198347107438" fill="#a5a5a5"></rect><rect x="150" y="716.4416896235077" width="202.01842744789397" height="12.56198347107438" fill="#ffc000"></rect><rect x="150" y="729.6648301193756" width="190.18907491972007" height="12.56198347107438" fill="#5b9bd5"></rect><rect x="150" y="742.8879706152434" width="10.881490463511087" height="12.56198347107438" fill="#70ad47"></rect><text class="label" x="379.75291169395774" y="685.2722681359045" font-size="10px">20.33x</text><text class="label" x="205.94266775597382" y="698.4954086317722" font-size="10px">4.36x</text><text class="label" x="169.39677226138267" y="711.71854912764" font-size="10px">1x</text><text class="label" x="360.51842744789394" y="724.9416896235077" font-size="10px">18.57x</text><text class="label" x="348.68907491972004" y="738.1648301193756" font-size="10px">17.48x</text><text class="label" x="169.38149046351108" y="751.3879706152434" font-size="10px">1x</text><text class="label" x="376.25291169395774" y="686.7722681359045" font-size="8px"></text><text class="label" x="202.44266775597382" y="699.9954086317722" font-size="8px"></text><text class="label" x="165.89677226138267" y="713.21854912764" font-size="8px"></text><text class="label" x="357.01842744789394" y="726.4416896235077" font-size="8px"></text><text class="label" x="345.18907491972004" y="739.6648301193756" font-size="8px"></text><text class="label" x="165.88149046351108" y="752.8879706152434" font-size="8px"></text></g></g></svg>