<svg xmlns="http://www.w3.org/2000/svg" xmlns:xlink="http://www.w3.org/1999/xlink" width="800" height="794" style="background-color: white;"><g class="y axis" transform="translate(149,45)" fill="none" font-size="10" font-family="sans-serif" text-anchor="end" style="font-size: 13px;"><path class="domain" stroke="currentColor" d="M0.5,0.5V600.5"></path><g class="tick" opacity="1" transform="translate(0,40.740740740740726)" style="font-size: 13px;"><line stroke="currentColor" x2="0"></line><text fill="currentColor" x="-3" dy="0.32em">object (simple)    </text></g><g class="tick" opacity="1" transform="translate(0,114.81481481481481)" style="font-size: 13px;"><line stroke="currentColor" x2="0"></line><text fill="currentColor" x="-3" dy="0.32em">object (hierarchical)    </text></g><g class="tick" opacity="1" transform="translate(0,188.88888888888889)" style="font-size: 13px;"><line stroke="currentColor" x2="0"></line><text fill="currentColor" x="-3" dy="0.32em">object (recursive)    </text></g><g class="tick" opacity="1" transform="translate(0,262.96296296296293)" style="font-size: 13px;"><line stroke="currentColor" x2="0"></line><text fill="currentColor" x="-3" dy="0.32em">object (union, explicit)    </text></g><g class="tick" opacity="1" transform="translate(0,337.037037037037)" style="font-size: 13px;"><line stroke="currentColor" x2="0"></line><text fill="currentColor" x="-3" dy="0.32em">array (simple)    </text></g><g class="tick" opacity="1" transform="translate(0,411.1111111111111)" style="font-size: 13px;"><line stroke="currentColor" x2="0"></line><text fill="currentColor" x="-3" dy="0.32em">array (hierarchical)    </text></g><g class="tick" opacity="1" transform="translate(0,485.18518518518516)" style="font-size: 13px;"><line stroke="currentColor" x2="0"></line><text fill="currentColor" x="-3" dy="0.32em">array (recursive)    </text></g><g class="tick" opacity="1" transform="translate(0,559.2592592592592)" style="font-size: 13px;"><line stroke="currentColor" x2="0"></line><text fill="currentColor" x="-3" dy="0.32em">array (union, explicit)    </text></g></g><g class="x axis" transform="translate(149,645)" fill="none" font-size="10" font-family="sans-serif" text-anchor="middle" style="font-size: 13px;"><path class="domain" stroke="currentColor" d="M0.5,0.5H485.5"></path><g class="tick" opacity="1" transform="translate(0.5,0)" style="font-size: 13px;"><line stroke="currentColor" y2="6"></line><text fill="currentColor" y="9" dy="0.71em">0x</text></g><g class="tick" opacity="1" transform="translate(129.77584702365954,0)" style="font-size: 13px;"><line stroke="currentColor" y2="6"></line><text fill="currentColor" y="9" dy="0.71em">10x</text></g><g class="tick" opacity="1" transform="translate(259.0516940473191,0)" style="font-size: 13px;"><line stroke="currentColor" y2="6"></line><text fill="currentColor" y="9" dy="0.71em">20x</text></g><g class="tick" opacity="1" transform="translate(388.32754107097867,0)" style="font-size: 13px;"><line stroke="currentColor" y2="6"></line><text fill="currentColor" y="9" dy="0.71em">30x</text></g></g><text transform="translate(400, 30)" style="text-anchor: middle; font-size: 20px; font-weight: bold;">server-assert benchmark</text><rect x="650" y="145" width="230" height="5" fill="gray"></rect><rect x="645" y="35" width="230" height="110" fill="none" stroke="black"></rect><rect x="655" y="45" width="10" height="10" style="fill: #4472c4;"></rect><text x="670" y="55" style="font-size: 12px;">fastify-typia</text><rect x="655" y="65" width="10" height="10" style="fill: #ed7d31;"></rect><text x="670" y="75" style="font-size: 12px;">fastify-pure</text><rect x="655" y="85" width="10" height="10" style="fill: #a5a5a5;"></rect><text x="670" y="95" style="font-size: 12px;">fastify-class-transformer</text><rect x="655" y="105" width="10" height="10" style="fill: #ffc000;"></rect><text x="670" y="115" style="font-size: 12px;">express-typia</text><rect x="655" y="125" width="10" height="10" style="fill: #5b9bd5;"></rect><text x="670" y="135" style="font-size: 12px;">express-class-transformer</text><text x="20" y="709" style="font-size: 12px;">  - CPU: 11th Gen Intel(R) Core(TM) i5-1135G7 @ 2.40GHz</text><text x="20" y="726" style="font-size: 12px;">  - OS: win32</text><text x="20" y="743" style="font-size: 12px;">  - RAM: 16 GB</text><text x="20" y="760" style="font-size: 12px;">  - NodeJS version: v16.20.0</text><text x="20" y="777" style="font-size: 12px;">  - Typia version: v4.1.1</text><g style="font-size: 13px;"><g style="font-size: 13px;"><rect x="150" y="53.06747341400805" width="184.78491387221158" height="12.541254125412543" fill="#4472c4"></rect><rect x="150" y="66.26879354602124" width="181.38531344287057" height="12.541254125412543" fill="#ed7d31"></rect><rect x="150" y="79.47011367803445" width="13.799145548496883" height="12.541254125412543" fill="#a5a5a5"></rect><rect x="150" y="92.67143381004766" width="145.41782824585079" height="12.541254125412543" fill="#ffc000"></rect><rect x="150" y="105.87275394206085" width="12.927584702365955" height="12.541254125412543" fill="#5b9bd5"></rect><text class="label" x="343.2849138722116" y="61.56747341400805" font-size="10px">14.29x</text><text class="label" x="339.8853134428706" y="74.76879354602124" font-size="10px">14.03x</text><text class="label" x="172.29914554849688" y="87.97011367803445" font-size="10px">1.07x</text><text class="label" x="303.9178282458508" y="101.17143381004766" font-size="10px">11.25x</text><text class="label" x="171.42758470236595" y="114.37275394206085" font-size="10px">1x</text><text class="label" x="339.7849138722116" y="63.06747341400805" font-size="8px"></text><text class="label" x="336.3853134428706" y="76.26879354602124" font-size="8px"></text><text class="label" x="168.79914554849688" y="89.47011367803445" font-size="8px"></text><text class="label" x="300.4178282458508" y="102.67143381004766" font-size="8px"></text><text class="label" x="167.92758470236595" y="115.87275394206085" font-size="8px"></text></g><g style="font-size: 13px;"><rect x="150" y="127.14154748808213" width="190.241762722237" height="12.541254125412543" fill="#4472c4"></rect><rect x="150" y="140.34286762009532" width="170.1155152218499" height="12.541254125412543" fill="#ed7d31"></rect><rect x="150" y="153.54418775210854" width="12.927584702365955" height="12.541254125412543" fill="#a5a5a5"></rect><rect x="150" y="166.74550788412174" width="169.0258058682608" height="12.541254125412543" fill="#ffc000"></rect><rect x="150" y="179.94682801613493" width="13.430013364331188" height="12.541254125412543" fill="#5b9bd5"></rect><text class="label" x="348.741762722237" y="135.64154748808213" font-size="10px">14.72x</text><text class="label" x="328.61551522184993" y="148.84286762009532" font-size="10px">13.16x</text><text class="label" x="171.42758470236595" y="162.04418775210854" font-size="10px">1x</text><text class="label" x="327.5258058682608" y="175.24550788412174" font-size="10px">13.07x</text><text class="label" x="171.9300133643312" y="188.44682801613493" font-size="10px">1.04x</text><text class="label" x="345.241762722237" y="137.14154748808213" font-size="8px"></text><text class="label" x="325.11551522184993" y="150.34286762009532" font-size="8px"></text><text class="label" x="167.92758470236595" y="163.54418775210854" font-size="8px"></text><text class="label" x="324.0258058682608" y="176.74550788412174" font-size="8px"></text><text class="label" x="168.4300133643312" y="189.94682801613493" font-size="8px"></text></g><g style="font-size: 13px;"><rect x="150" y="201.2156215621562" width="218.846452130308" height="12.541254125412543" fill="#4472c4"></rect><rect x="150" y="214.4169416941694" width="204.13799645984474" height="12.541254125412543" fill="#ed7d31"></rect><rect x="150" y="227.61826182618262" width="13.92174398841447" height="12.541254125412543" fill="#a5a5a5"></rect><rect x="150" y="240.8195819581958" width="217.9752764026186" height="12.541254125412543" fill="#ffc000"></rect><rect x="150" y="254.020902090209" width="12.927584702365955" height="12.541254125412543" fill="#5b9bd5"></rect><text class="label" x="377.34645213030797" y="209.7156215621562" font-size="10px">16.93x</text><text class="label" x="362.63799645984477" y="222.9169416941694" font-size="10px">15.79x</text><text class="label" x="172.42174398841448" y="236.11826182618262" font-size="10px">1.08x</text><text class="label" x="376.4752764026186" y="249.3195819581958" font-size="10px">16.86x</text><text class="label" x="171.42758470236595" y="262.520902090209" font-size="10px">1x</text><text class="label" x="373.84645213030797" y="211.2156215621562" font-size="8px"></text><text class="label" x="359.13799645984477" y="224.4169416941694" font-size="8px"></text><text class="label" x="168.92174398841448" y="237.61826182618262" font-size="8px"></text><text class="label" x="372.9752764026186" y="250.8195819581958" font-size="8px"></text><text class="label" x="167.92758470236595" y="264.020902090209" font-size="8px"></text></g><g style="font-size: 13px;"><rect x="150" y="275.28969563623025" width="342.4951002880587" height="12.541254125412543" fill="#4472c4"></rect><rect x="150" y="288.49101576824347" width="211.71268111270268" height="12.541254125412543" fill="#ed7d31"></rect><rect x="150" y="301.6923359002567" width="12.935059455012597" height="12.541254125412543" fill="#a5a5a5"></rect><rect x="150" y="314.89365603226986" width="340.4384559626501" height="12.541254125412543" fill="#ffc000"></rect><rect x="150" y="328.0949761642831" width="12.927584702365955" height="12.541254125412543" fill="#5b9bd5"></rect><text class="label" x="500.9951002880587" y="283.78969563623025" font-size="10px">26.49x</text><text class="label" x="370.2126811127027" y="296.99101576824347" font-size="10px">16.38x</text><text class="label" x="171.4350594550126" y="310.1923359002567" font-size="10px">1x</text><text class="label" x="498.9384559626501" y="323.39365603226986" font-size="10px">26.33x</text><text class="label" x="171.42758470236595" y="336.5949761642831" font-size="10px">1x</text><text class="label" x="497.4951002880587" y="285.28969563623025" font-size="8px"></text><text class="label" x="366.7126811127027" y="298.49101576824347" font-size="8px"></text><text class="label" x="167.9350594550126" y="311.6923359002567" font-size="8px"></text><text class="label" x="495.4384559626501" y="324.89365603226986" font-size="8px"></text><text class="label" x="167.92758470236595" y="338.0949761642831" font-size="8px"></text></g><g style="font-size: 13px;"><rect x="150" y="349.3637697103044" width="309.435056346496" height="12.541254125412543" fill="#4472c4"></rect><rect x="150" y="362.56508984231755" width="310.7587824374063" height="12.541254125412543" fill="#ed7d31"></rect><rect x="150" y="375.76640997433077" width="17.974960197387883" height="12.541254125412543" fill="#a5a5a5"></rect><rect x="150" y="388.967730106344" width="300.8954268901195" height="12.541254125412543" fill="#ffc000"></rect><rect x="150" y="402.16905023835716" width="12.927584702365955" height="12.541254125412543" fill="#5b9bd5"></rect><text class="label" x="467.935056346496" y="357.8637697103044" font-size="10px">23.94x</text><text class="label" x="469.2587824374063" y="371.06508984231755" font-size="10px">24.04x</text><text class="label" x="176.47496019738787" y="384.26640997433077" font-size="10px">1.39x</text><text class="label" x="459.3954268901195" y="397.467730106344" font-size="10px">23.28x</text><text class="label" x="171.42758470236595" y="410.66905023835716" font-size="10px">1x</text><text class="label" x="464.435056346496" y="359.3637697103044" font-size="8px"></text><text class="label" x="465.7587824374063" y="372.56508984231755" font-size="8px"></text><text class="label" x="172.97496019738787" y="385.76640997433077" font-size="8px"></text><text class="label" x="455.8954268901195" y="398.967730106344" font-size="8px"></text><text class="label" x="167.92758470236595" y="412.16905023835716" font-size="8px"></text></g><g style="font-size: 13px;"><rect x="150" y="423.4378437843784" width="440.9090909090909" height="12.541254125412543" fill="#4472c4"></rect><rect x="150" y="436.6391639163916" width="205.24499397705515" height="12.541254125412543" fill="#ed7d31"></rect><rect x="150" y="449.84048404840485" width="12.927584702365955" height="12.541254125412543" fill="#a5a5a5"></rect><rect x="150" y="463.041804180418" width="282.46273461799876" height="12.541254125412543" fill="#ffc000"></rect><rect x="150" y="476.24312431243123" width="18.304370376273994" height="12.541254125412543" fill="#5b9bd5"></rect><text class="label" x="599.4090909090909" y="431.9378437843784" font-size="10px">34.11x</text><text class="label" x="363.7449939770552" y="445.1391639163916" font-size="10px">15.88x</text><text class="label" x="171.42758470236595" y="458.34048404840485" font-size="10px">1x</text><text class="label" x="440.96273461799876" y="471.541804180418" font-size="10px">21.85x</text><text class="label" x="176.804370376274" y="484.74312431243123" font-size="10px">1.42x</text><text class="label" x="595.9090909090909" y="433.4378437843784" font-size="8px"></text><text class="label" x="360.2449939770552" y="446.6391639163916" font-size="8px"></text><text class="label" x="167.92758470236595" y="459.84048404840485" font-size="8px"></text><text class="label" x="437.46273461799876" y="473.041804180418" font-size="8px"></text><text class="label" x="173.304370376274" y="486.24312431243123" font-size="8px"></text></g><g style="font-size: 13px;"><rect x="150" y="497.51191785845253" width="222.3597533743313" height="12.541254125412543" fill="#4472c4"></rect><rect x="150" y="510.7132379904657" width="205.30217538501375" height="12.541254125412543" fill="#ed7d31"></rect><rect x="150" y="523.9145581224789" width="12.966417668357417" height="12.541254125412543" fill="#a5a5a5"></rect><rect x="150" y="537.1158782544921" width="244.30425174537325" height="12.541254125412543" fill="#ffc000"></rect><rect x="150" y="550.3171983865053" width="12.927584702365955" height="12.541254125412543" fill="#5b9bd5"></rect><text class="label" x="380.85975337433126" y="506.01191785845253" font-size="10px">17.2x</text><text class="label" x="363.80217538501375" y="519.2132379904657" font-size="10px">15.88x</text><text class="label" x="171.46641766835742" y="532.4145581224789" font-size="10px">1x</text><text class="label" x="402.8042517453732" y="545.6158782544921" font-size="10px">18.9x</text><text class="label" x="171.42758470236595" y="558.8171983865053" font-size="10px">1x</text><text class="label" x="377.35975337433126" y="507.51191785845253" font-size="8px"></text><text class="label" x="360.30217538501375" y="520.7132379904657" font-size="8px"></text><text class="label" x="167.96641766835742" y="533.9145581224789" font-size="8px"></text><text class="label" x="399.3042517453732" y="547.1158782544921" font-size="8px"></text><text class="label" x="167.92758470236595" y="560.3171983865053" font-size="8px"></text></g><g style="font-size: 13px;"><rect x="150" y="571.5859919325266" width="279.37281200867346" height="12.541254125412543" fill="#4472c4"></rect><rect x="150" y="584.7873120645397" width="173.4987569201197" height="12.541254125412543" fill="#ed7d31"></rect><rect x="150" y="597.9886321965529" width="12.927584702365955" height="12.541254125412543" fill="#a5a5a5"></rect><rect x="150" y="611.1899523285662" width="299.709303079506" height="12.541254125412543" fill="#ffc000"></rect><rect x="150" y="624.3912724605793" width="13.32469168237738" height="12.541254125412543" fill="#5b9bd5"></rect><text class="label" x="437.87281200867346" y="580.0859919325266" font-size="10px">21.61x</text><text class="label" x="331.9987569201197" y="593.2873120645397" font-size="10px">13.42x</text><text class="label" x="171.42758470236595" y="606.4886321965529" font-size="10px">1x</text><text class="label" x="458.209303079506" y="619.6899523285662" font-size="10px">23.18x</text><text class="label" x="171.8246916823774" y="632.8912724605793" font-size="10px">1.03x</text><text class="label" x="434.37281200867346" y="581.5859919325266" font-size="8px"></text><text class="label" x="328.4987569201197" y="594.7873120645397" font-size="8px"></text><text class="label" x="167.92758470236595" y="607.9886321965529" font-size="8px"></text><text class="label" x="454.709303079506" y="621.1899523285662" font-size="8px"></text><text class="label" x="168.3246916823774" y="634.3912724605793" font-size="8px"></text></g></g></svg>