<svg xmlns="http://www.w3.org/2000/svg" xmlns:xlink="http://www.w3.org/1999/xlink" width="800" height="794" style="background-color: white;"><g class="y axis" transform="translate(149,45)" fill="none" font-size="10" font-family="sans-serif" text-anchor="end" style="font-size: 13px;"><path class="domain" stroke="currentColor" d="M0.5,0.5V600.5"></path><g class="tick" opacity="1" transform="translate(0,40.740740740740726)" style="font-size: 13px;"><line stroke="currentColor" x2="0"></line><text fill="currentColor" x="-3" dy="0.32em">object (simple)    </text></g><g class="tick" opacity="1" transform="translate(0,114.81481481481481)" style="font-size: 13px;"><line stroke="currentColor" x2="0"></line><text fill="currentColor" x="-3" dy="0.32em">object (hierarchical)    </text></g><g class="tick" opacity="1" transform="translate(0,188.88888888888889)" style="font-size: 13px;"><line stroke="currentColor" x2="0"></line><text fill="currentColor" x="-3" dy="0.32em">object (recursive)    </text></g><g class="tick" opacity="1" transform="translate(0,262.96296296296293)" style="font-size: 13px;"><line stroke="currentColor" x2="0"></line><text fill="currentColor" x="-3" dy="0.32em">object (union, explicit)    </text></g><g class="tick" opacity="1" transform="translate(0,337.037037037037)" style="font-size: 13px;"><line stroke="currentColor" x2="0"></line><text fill="currentColor" x="-3" dy="0.32em">array (simple)    </text></g><g class="tick" opacity="1" transform="translate(0,411.1111111111111)" style="font-size: 13px;"><line stroke="currentColor" x2="0"></line><text fill="currentColor" x="-3" dy="0.32em">array (hierarchical)    </text></g><g class="tick" opacity="1" transform="translate(0,485.18518518518516)" style="font-size: 13px;"><line stroke="currentColor" x2="0"></line><text fill="currentColor" x="-3" dy="0.32em">array (recursive)    </text></g><g class="tick" opacity="1" transform="translate(0,559.2592592592592)" style="font-size: 13px;"><line stroke="currentColor" x2="0"></line><text fill="currentColor" x="-3" dy="0.32em">array (union, explicit)    </text></g></g><g class="x axis" transform="translate(149,645)" fill="none" font-size="10" font-family="sans-serif" text-anchor="middle" style="font-size: 13px;"><path class="domain" stroke="currentColor" d="M0.5,0.5H485.5"></path><g class="tick" opacity="1" transform="translate(0.5,0)" style="font-size: 13px;"><line stroke="currentColor" y2="6"></line><text fill="currentColor" y="9" dy="0.71em">0x</text></g><g class="tick" opacity="1" transform="translate(85.28233003988623,0)" style="font-size: 13px;"><line stroke="currentColor" y2="6"></line><text fill="currentColor" y="9" dy="0.71em">5x</text></g><g class="tick" opacity="1" transform="translate(170.06466007977247,0)" style="font-size: 13px;"><line stroke="currentColor" y2="6"></line><text fill="currentColor" y="9" dy="0.71em">10x</text></g><g class="tick" opacity="1" transform="translate(254.84699011965867,0)" style="font-size: 13px;"><line stroke="currentColor" y2="6"></line><text fill="currentColor" y="9" dy="0.71em">15x</text></g><g class="tick" opacity="1" transform="translate(339.62932015954493,0)" style="font-size: 13px;"><line stroke="currentColor" y2="6"></line><text fill="currentColor" y="9" dy="0.71em">20x</text></g><g class="tick" opacity="1" transform="translate(424.4116501994311,0)" style="font-size: 13px;"><line stroke="currentColor" y2="6"></line><text fill="currentColor" y="9" dy="0.71em">25x</text></g></g><text transform="translate(400, 30)" style="text-anchor: middle; font-size: 20px; font-weight: bold;">server-performance benchmark</text><rect x="650" y="145" width="230" height="5" fill="gray"></rect><rect x="645" y="35" width="230" height="110" fill="none" stroke="black"></rect><rect x="655" y="45" width="10" height="10" style="fill: #4472c4;"></rect><text x="670" y="55" style="font-size: 12px;">fastify-typia</text><rect x="655" y="65" width="10" height="10" style="fill: #ed7d31;"></rect><text x="670" y="75" style="font-size: 12px;">fastify-pure</text><rect x="655" y="85" width="10" height="10" style="fill: #a5a5a5;"></rect><text x="670" y="95" style="font-size: 12px;">fastify-class-transformer</text><rect x="655" y="105" width="10" height="10" style="fill: #ffc000;"></rect><text x="670" y="115" style="font-size: 12px;">express-typia</text><rect x="655" y="125" width="10" height="10" style="fill: #5b9bd5;"></rect><text x="670" y="135" style="font-size: 12px;">express-class-transformer</text><text x="20" y="709" style="font-size: 12px;">  - CPU: 13th Gen Intel(R) Core(TM) i9-13900HX</text><text x="20" y="726" style="font-size: 12px;">  - OS: win32</text><text x="20" y="743" style="font-size: 12px;">  - RAM: 32 GB</text><text x="20" y="760" style="font-size: 12px;">  - NodeJS version: v20.9.0</text><text x="20" y="777" style="font-size: 12px;">  - Typia version: v5.3.4</text><g style="font-size: 13px;"><g style="font-size: 13px;"><rect x="150" y="53.06747341400805" width="197.6153519874837" height="12.541254125412543" fill="#4472c4"></rect><rect x="150" y="66.26879354602124" width="183.0423182651498" height="12.541254125412543" fill="#ed7d31"></rect><rect x="150" y="79.47011367803445" width="16.956466007977244" height="12.541254125412543" fill="#a5a5a5"></rect><rect x="150" y="92.67143381004766" width="132.7628028249953" height="12.541254125412543" fill="#ffc000"></rect><rect x="150" y="105.87275394206085" width="24.347873496470566" height="12.541254125412543" fill="#5b9bd5"></rect><text class="label" x="356.1153519874837" y="61.56747341400805" font-size="10px">11.65x</text><text class="label" x="341.5423182651498" y="74.76879354602124" font-size="10px">10.79x</text><text class="label" x="175.45646600797724" y="87.97011367803445" font-size="10px">1x</text><text class="label" x="291.26280282499533" y="101.17143381004766" font-size="10px">7.83x</text><text class="label" x="182.84787349647056" y="114.37275394206085" font-size="10px">1.44x</text><text class="label" x="352.6153519874837" y="63.06747341400805" font-size="8px"></text><text class="label" x="338.0423182651498" y="76.26879354602124" font-size="8px"></text><text class="label" x="171.95646600797724" y="89.47011367803445" font-size="8px"></text><text class="label" x="287.76280282499533" y="102.67143381004766" font-size="8px"></text><text class="label" x="179.34787349647056" y="115.87275394206085" font-size="8px"></text></g><g style="font-size: 13px;"><rect x="150" y="127.14154748808213" width="180.56687051685896" height="12.541254125412543" fill="#4472c4"></rect><rect x="150" y="140.34286762009532" width="161.92598714631492" height="12.541254125412543" fill="#ed7d31"></rect><rect x="150" y="153.54418775210854" width="16.956466007977244" height="12.541254125412543" fill="#a5a5a5"></rect><rect x="150" y="166.74550788412174" width="152.35708234477548" height="12.541254125412543" fill="#ffc000"></rect><rect x="150" y="179.94682801613493" width="27.848217779782193" height="12.541254125412543" fill="#5b9bd5"></rect><text class="label" x="339.06687051685896" y="135.64154748808213" font-size="10px">10.65x</text><text class="label" x="320.4259871463149" y="148.84286762009532" font-size="10px">9.55x</text><text class="label" x="175.45646600797724" y="162.04418775210854" font-size="10px">1x</text><text class="label" x="310.85708234477545" y="175.24550788412174" font-size="10px">8.99x</text><text class="label" x="186.3482177797822" y="188.44682801613493" font-size="10px">1.64x</text><text class="label" x="335.56687051685896" y="137.14154748808213" font-size="8px"></text><text class="label" x="316.9259871463149" y="150.34286762009532" font-size="8px"></text><text class="label" x="171.95646600797724" y="163.54418775210854" font-size="8px"></text><text class="label" x="307.35708234477545" y="176.74550788412174" font-size="8px"></text><text class="label" x="182.8482177797822" y="189.94682801613493" font-size="8px"></text></g><g style="font-size: 13px;"><rect x="150" y="201.2156215621562" width="176.60323912359937" height="12.541254125412543" fill="#4472c4"></rect><rect x="150" y="214.4169416941694" width="124.05754418927539" height="12.541254125412543" fill="#ed7d31"></rect><rect x="150" y="227.61826182618262" width="16.956466007977244" height="12.541254125412543" fill="#a5a5a5"></rect><rect x="150" y="240.8195819581958" width="157.63011215218924" height="12.541254125412543" fill="#ffc000"></rect><rect x="150" y="254.020902090209" width="21.901696249177846" height="12.541254125412543" fill="#5b9bd5"></rect><text class="label" x="335.10323912359934" y="209.7156215621562" font-size="10px">10.42x</text><text class="label" x="282.5575441892754" y="222.9169416941694" font-size="10px">7.32x</text><text class="label" x="175.45646600797724" y="236.11826182618262" font-size="10px">1x</text><text class="label" x="316.1301121521892" y="249.3195819581958" font-size="10px">9.3x</text><text class="label" x="180.40169624917786" y="262.520902090209" font-size="10px">1.29x</text><text class="label" x="331.60323912359934" y="211.2156215621562" font-size="8px"></text><text class="label" x="279.0575441892754" y="224.4169416941694" font-size="8px"></text><text class="label" x="171.95646600797724" y="237.61826182618262" font-size="8px"></text><text class="label" x="312.6301121521892" y="250.8195819581958" font-size="8px"></text><text class="label" x="176.90169624917786" y="264.020902090209" font-size="8px"></text></g><g style="font-size: 13px;"><rect x="150" y="275.28969563623025" width="440.9090909090909" height="12.541254125412543" fill="#4472c4"></rect><rect x="150" y="288.49101576824347" width="286.01797534722317" height="12.541254125412543" fill="#ed7d31"></rect><rect x="150" y="301.6923359002567" width="17.069785888885846" height="12.541254125412543" fill="#a5a5a5"></rect><rect x="150" y="314.89365603226986" width="363.9781625256842" height="12.541254125412543" fill="#ffc000"></rect><rect x="150" y="328.0949761642831" width="16.956466007977244" height="12.541254125412543" fill="#5b9bd5"></rect><text class="label" x="599.4090909090909" y="283.78969563623025" font-size="10px">26x</text><text class="label" x="444.51797534722317" y="296.99101576824347" font-size="10px">16.87x</text><text class="label" x="175.56978588888586" y="310.1923359002567" font-size="10px">1.01x</text><text class="label" x="522.4781625256842" y="323.39365603226986" font-size="10px">21.47x</text><text class="label" x="175.45646600797724" y="336.5949761642831" font-size="10px">1x</text><text class="label" x="595.9090909090909" y="285.28969563623025" font-size="8px"></text><text class="label" x="441.01797534722317" y="298.49101576824347" font-size="8px"></text><text class="label" x="172.06978588888586" y="311.6923359002567" font-size="8px"></text><text class="label" x="518.9781625256842" y="324.89365603226986" font-size="8px"></text><text class="label" x="171.95646600797724" y="338.0949761642831" font-size="8px"></text></g><g style="font-size: 13px;"><rect x="150" y="349.3637697103044" width="240.64191543887713" height="12.541254125412543" fill="#4472c4"></rect><rect x="150" y="362.56508984231755" width="232.26015136738152" height="12.541254125412543" fill="#ed7d31"></rect><rect x="150" y="375.76640997433077" width="18.654498257528175" height="12.541254125412543" fill="#a5a5a5"></rect><rect x="150" y="388.967730106344" width="198.69591894810807" height="12.541254125412543" fill="#ffc000"></rect><rect x="150" y="402.16905023835716" width="16.956466007977244" height="12.541254125412543" fill="#5b9bd5"></rect><text class="label" x="399.14191543887716" y="357.8637697103044" font-size="10px">14.19x</text><text class="label" x="390.7601513673815" y="371.06508984231755" font-size="10px">13.7x</text><text class="label" x="177.1544982575282" y="384.26640997433077" font-size="10px">1.1x</text><text class="label" x="357.1959189481081" y="397.467730106344" font-size="10px">11.72x</text><text class="label" x="175.45646600797724" y="410.66905023835716" font-size="10px">1x</text><text class="label" x="395.64191543887716" y="359.3637697103044" font-size="8px"></text><text class="label" x="387.2601513673815" y="372.56508984231755" font-size="8px"></text><text class="label" x="173.6544982575282" y="385.76640997433077" font-size="8px"></text><text class="label" x="353.6959189481081" y="398.967730106344" font-size="8px"></text><text class="label" x="171.95646600797724" y="412.16905023835716" font-size="8px"></text></g><g style="font-size: 13px;"><rect x="150" y="423.4378437843784" width="341.8310002841477" height="12.541254125412543" fill="#4472c4"></rect><rect x="150" y="436.6391639163916" width="220.72169854476422" height="12.541254125412543" fill="#ed7d31"></rect><rect x="150" y="449.84048404840485" width="20.38924251083313" height="12.541254125412543" fill="#a5a5a5"></rect><rect x="150" y="463.041804180418" width="308.09660909766365" height="12.541254125412543" fill="#ffc000"></rect><rect x="150" y="476.24312431243123" width="16.956466007977244" height="12.541254125412543" fill="#5b9bd5"></rect><text class="label" x="500.3310002841477" y="431.9378437843784" font-size="10px">20.16x</text><text class="label" x="379.2216985447642" y="445.1391639163916" font-size="10px">13.02x</text><text class="label" x="178.88924251083313" y="458.34048404840485" font-size="10px">1.2x</text><text class="label" x="466.59660909766365" y="471.541804180418" font-size="10px">18.17x</text><text class="label" x="175.45646600797724" y="484.74312431243123" font-size="10px">1x</text><text class="label" x="496.8310002841477" y="433.4378437843784" font-size="8px"></text><text class="label" x="375.7216985447642" y="446.6391639163916" font-size="8px"></text><text class="label" x="175.38924251083313" y="459.84048404840485" font-size="8px"></text><text class="label" x="463.09660909766365" y="473.041804180418" font-size="8px"></text><text class="label" x="171.95646600797724" y="486.24312431243123" font-size="8px"></text></g><g style="font-size: 13px;"><rect x="150" y="497.51191785845253" width="176.6916400393748" height="12.541254125412543" fill="#4472c4"></rect><rect x="150" y="510.7132379904657" width="179.2027695628625" height="12.541254125412543" fill="#ed7d31"></rect><rect x="150" y="523.9145581224789" width="16.956466007977244" height="12.541254125412543" fill="#a5a5a5"></rect><rect x="150" y="537.1158782544921" width="170.64970520280698" height="12.541254125412543" fill="#ffc000"></rect><rect x="150" y="550.3171983865053" width="23.95595340605031" height="12.541254125412543" fill="#5b9bd5"></rect><text class="label" x="335.19164003937476" y="506.01191785845253" font-size="10px">10.42x</text><text class="label" x="337.7027695628625" y="519.2132379904657" font-size="10px">10.57x</text><text class="label" x="175.45646600797724" y="532.4145581224789" font-size="10px">1x</text><text class="label" x="329.149705202807" y="545.6158782544921" font-size="10px">10.06x</text><text class="label" x="182.4559534060503" y="558.8171983865053" font-size="10px">1.41x</text><text class="label" x="331.69164003937476" y="507.51191785845253" font-size="8px"></text><text class="label" x="334.2027695628625" y="520.7132379904657" font-size="8px"></text><text class="label" x="171.95646600797724" y="533.9145581224789" font-size="8px"></text><text class="label" x="325.649705202807" y="547.1158782544921" font-size="8px"></text><text class="label" x="178.9559534060503" y="560.3171983865053" font-size="8px"></text></g><g style="font-size: 13px;"><rect x="150" y="571.5859919325266" width="277.3769961775249" height="12.541254125412543" fill="#4472c4"></rect><rect x="150" y="584.7873120645397" width="112.64617244958785" height="12.541254125412543" fill="#ed7d31"></rect><rect x="150" y="597.9886321965529" width="16.956466007977244" height="12.541254125412543" fill="#a5a5a5"></rect><rect x="150" y="611.1899523285662" width="266.823650910139" height="12.541254125412543" fill="#ffc000"></rect><rect x="150" y="624.3912724605793" width="16.958171549098" height="12.541254125412543" fill="#5b9bd5"></rect><text class="label" x="435.8769961775249" y="580.0859919325266" font-size="10px">16.36x</text><text class="label" x="271.1461724495879" y="593.2873120645397" font-size="10px">6.64x</text><text class="label" x="175.45646600797724" y="606.4886321965529" font-size="10px">1x</text><text class="label" x="425.323650910139" y="619.6899523285662" font-size="10px">15.74x</text><text class="label" x="175.458171549098" y="632.8912724605793" font-size="10px">1x</text><text class="label" x="432.3769961775249" y="581.5859919325266" font-size="8px"></text><text class="label" x="267.6461724495879" y="594.7873120645397" font-size="8px"></text><text class="label" x="171.95646600797724" y="607.9886321965529" font-size="8px"></text><text class="label" x="421.823650910139" y="621.1899523285662" font-size="8px"></text><text class="label" x="171.958171549098" y="634.3912724605793" font-size="8px"></text></g></g></svg>