<svg xmlns="http://www.w3.org/2000/svg" xmlns:xlink="http://www.w3.org/1999/xlink" width="800" height="914" style="background-color: white;"><g class="y axis" transform="translate(149,45)" fill="none" font-size="10" font-family="sans-serif" text-anchor="end" style="font-size: 13px;"><path class="domain" stroke="currentColor" d="M0.5,0.5V720.5"></path><g class="tick" opacity="1" transform="translate(0,48.88888888888886)" style="font-size: 13px;"><line stroke="currentColor" x2="0"></line><text fill="currentColor" x="-3" dy="0.32em">object (simple)    </text></g><g class="tick" opacity="1" transform="translate(0,137.77777777777774)" style="font-size: 13px;"><line stroke="currentColor" x2="0"></line><text fill="currentColor" x="-3" dy="0.32em">object (hierarchical)    </text></g><g class="tick" opacity="1" transform="translate(0,226.66666666666663)" style="font-size: 13px;"><line stroke="currentColor" x2="0"></line><text fill="currentColor" x="-3" dy="0.32em">object (recursive)    </text></g><g class="tick" opacity="1" transform="translate(0,315.5555555555555)" style="font-size: 13px;"><line stroke="currentColor" x2="0"></line><text fill="currentColor" x="-3" dy="0.32em">object (union, explicit)    </text></g><g class="tick" opacity="1" transform="translate(0,404.4444444444444)" style="font-size: 13px;"><line stroke="currentColor" x2="0"></line><text fill="currentColor" x="-3" dy="0.32em">array (simple)    </text></g><g class="tick" opacity="1" transform="translate(0,493.3333333333333)" style="font-size: 13px;"><line stroke="currentColor" x2="0"></line><text fill="currentColor" x="-3" dy="0.32em">array (hierarchical)    </text></g><g class="tick" opacity="1" transform="translate(0,582.2222222222222)" style="font-size: 13px;"><line stroke="currentColor" x2="0"></line><text fill="currentColor" x="-3" dy="0.32em">array (recursive)    </text></g><g class="tick" opacity="1" transform="translate(0,671.1111111111111)" style="font-size: 13px;"><line stroke="currentColor" x2="0"></line><text fill="currentColor" x="-3" dy="0.32em">array (union, explicit)    </text></g></g><g class="x axis" transform="translate(149,765)" fill="none" font-size="10" font-family="sans-serif" text-anchor="middle" style="font-size: 13px;"><path class="domain" stroke="currentColor" d="M0.5,0.5H485.5"></path><g class="tick" opacity="1" transform="translate(0.5,0)" style="font-size: 13px;"><line stroke="currentColor" y2="6"></line><text fill="currentColor" y="9" dy="0.71em">0x</text></g><g class="tick" opacity="1" transform="translate(88.0873661960221,0)" style="font-size: 13px;"><line stroke="currentColor" y2="6"></line><text fill="currentColor" y="9" dy="0.71em">5x</text></g><g class="tick" opacity="1" transform="translate(175.6747323920442,0)" style="font-size: 13px;"><line stroke="currentColor" y2="6"></line><text fill="currentColor" y="9" dy="0.71em">10x</text></g><g class="tick" opacity="1" transform="translate(263.2620985880663,0)" style="font-size: 13px;"><line stroke="currentColor" y2="6"></line><text fill="currentColor" y="9" dy="0.71em">15x</text></g><g class="tick" opacity="1" transform="translate(350.8494647840884,0)" style="font-size: 13px;"><line stroke="currentColor" y2="6"></line><text fill="currentColor" y="9" dy="0.71em">20x</text></g><g class="tick" opacity="1" transform="translate(438.43683098011047,0)" style="font-size: 13px;"><line stroke="currentColor" y2="6"></line><text fill="currentColor" y="9" dy="0.71em">25x</text></g></g><text transform="translate(400, 30)" style="text-anchor: middle; font-size: 20px; font-weight: bold;">server-stringify benchmark</text><rect x="650" y="165" width="230" height="5" fill="gray"></rect><rect x="645" y="35" width="230" height="130" fill="none" stroke="black"></rect><rect x="655" y="45" width="10" height="10" style="fill: #4472c4;"></rect><text x="670" y="55" style="font-size: 12px;">fastify-typia</text><rect x="655" y="65" width="10" height="10" style="fill: #ed7d31;"></rect><text x="670" y="75" style="font-size: 12px;">fastify-pure</text><rect x="655" y="85" width="10" height="10" style="fill: #a5a5a5;"></rect><text x="670" y="95" style="font-size: 12px;">fastify-class-transformer</text><rect x="655" y="105" width="10" height="10" style="fill: #ffc000;"></rect><text x="670" y="115" style="font-size: 12px;">express-typia</text><rect x="655" y="125" width="10" height="10" style="fill: #5b9bd5;"></rect><text x="670" y="135" style="font-size: 12px;">express-pure</text><rect x="655" y="145" width="10" height="10" style="fill: #70ad47;"></rect><text x="670" y="155" style="font-size: 12px;">express-class-transformer</text><text x="20" y="829" style="font-size: 12px;">  - CPU: 13th Gen Intel(R) Core(TM) i9-13900HX</text><text x="20" y="846" style="font-size: 12px;">  - OS: win32</text><text x="20" y="863" style="font-size: 12px;">  - RAM: 32 GB</text><text x="20" y="880" style="font-size: 12px;">  - NodeJS version: v20.9.0</text><text x="20" y="897" style="font-size: 12px;">  - Typia version: v5.3.4</text><g style="font-size: 13px;"><g style="font-size: 13px;"><rect x="150" y="54.55004591368224" width="305.4738296226873" height="12.56198347107438" fill="#4472c4"></rect><rect x="150" y="67.77318640955001" width="301.19995892011707" height="12.56198347107438" fill="#ed7d31"></rect><rect x="150" y="80.99632690541777" width="19.01721367692223" height="12.56198347107438" fill="#a5a5a5"></rect><rect x="150" y="94.21946740128556" width="183.70101032224252" height="12.56198347107438" fill="#ffc000"></rect><rect x="150" y="107.44260789715332" width="132.86385845013714" height="12.56198347107438" fill="#5b9bd5"></rect><rect x="150" y="120.66574839302109" width="17.51747323920442" height="12.56198347107438" fill="#70ad47"></rect><text class="label" x="463.9738296226873" y="63.05004591368224" font-size="10px">17.44x</text><text class="label" x="459.69995892011707" y="76.27318640955001" font-size="10px">17.19x</text><text class="label" x="177.51721367692224" y="89.49632690541777" font-size="10px">1.09x</text><text class="label" x="342.2010103222425" y="102.71946740128556" font-size="10px">10.49x</text><text class="label" x="291.3638584501372" y="115.94260789715332" font-size="10px">7.58x</text><text class="label" x="176.01747323920443" y="129.1657483930211" font-size="10px">1x</text><text class="label" x="460.4738296226873" y="64.55004591368224" font-size="8px"></text><text class="label" x="456.19995892011707" y="77.77318640955001" font-size="8px"></text><text class="label" x="174.01721367692224" y="90.99632690541777" font-size="8px"></text><text class="label" x="338.7010103222425" y="104.21946740128556" font-size="8px"></text><text class="label" x="287.8638584501372" y="117.44260789715332" font-size="8px"></text><text class="label" x="172.51747323920443" y="130.6657483930211" font-size="8px"></text></g><g style="font-size: 13px;"><rect x="150" y="143.4389348025711" width="252.48910570778799" height="12.56198347107438" fill="#4472c4"></rect><rect x="150" y="156.66207529843888" width="194.3926399732532" height="12.56198347107438" fill="#ed7d31"></rect><rect x="150" y="169.88521579430665" width="18.051218507086496" height="12.56198347107438" fill="#a5a5a5"></rect><rect x="150" y="183.10835629017444" width="188.90323586221803" height="12.56198347107438" fill="#ffc000"></rect><rect x="150" y="196.3314967860422" width="126.52769494323357" height="12.56198347107438" fill="#5b9bd5"></rect><rect x="150" y="209.55463728190998" width="17.51747323920442" height="12.56198347107438" fill="#70ad47"></rect><text class="label" x="410.989105707788" y="151.9389348025711" font-size="10px">14.41x</text><text class="label" x="352.8926399732532" y="165.16207529843888" font-size="10px">11.1x</text><text class="label" x="176.5512185070865" y="178.38521579430665" font-size="10px">1.03x</text><text class="label" x="347.403235862218" y="191.60835629017444" font-size="10px">10.78x</text><text class="label" x="285.02769494323354" y="204.8314967860422" font-size="10px">7.22x</text><text class="label" x="176.01747323920443" y="218.05463728190998" font-size="10px">1x</text><text class="label" x="407.489105707788" y="153.4389348025711" font-size="8px"></text><text class="label" x="349.3926399732532" y="166.66207529843888" font-size="8px"></text><text class="label" x="173.0512185070865" y="179.88521579430665" font-size="8px"></text><text class="label" x="343.903235862218" y="193.10835629017444" font-size="8px"></text><text class="label" x="281.52769494323354" y="206.3314967860422" font-size="8px"></text><text class="label" x="172.51747323920443" y="219.55463728190998" font-size="8px"></text></g><g style="font-size: 13px;"><rect x="150" y="232.32782369146003" width="358.29165319874375" height="12.56198347107438" fill="#4472c4"></rect><rect x="150" y="245.5509641873278" width="178.57885344054944" height="12.56198347107438" fill="#ed7d31"></rect><rect x="150" y="258.77410468319556" width="17.983008881562817" height="12.56198347107438" fill="#a5a5a5"></rect><rect x="150" y="271.9972451790633" width="270.99073348527884" height="12.56198347107438" fill="#ffc000"></rect><rect x="150" y="285.2203856749311" width="184.638286092195" height="12.56198347107438" fill="#5b9bd5"></rect><rect x="150" y="298.44352617079886" width="17.51747323920442" height="12.56198347107438" fill="#70ad47"></rect><text class="label" x="516.7916531987437" y="240.82782369146003" font-size="10px">20.45x</text><text class="label" x="337.07885344054944" y="254.0509641873278" font-size="10px">10.19x</text><text class="label" x="176.48300888156282" y="267.27410468319556" font-size="10px">1.03x</text><text class="label" x="429.49073348527884" y="280.4972451790633" font-size="10px">15.47x</text><text class="label" x="343.138286092195" y="293.7203856749311" font-size="10px">10.54x</text><text class="label" x="176.01747323920443" y="306.94352617079886" font-size="10px">1x</text><text class="label" x="513.2916531987437" y="242.32782369146003" font-size="8px"></text><text class="label" x="333.57885344054944" y="255.5509641873278" font-size="8px"></text><text class="label" x="172.98300888156282" y="268.77410468319556" font-size="8px"></text><text class="label" x="425.99073348527884" y="281.9972451790633" font-size="8px"></text><text class="label" x="339.638286092195" y="295.2203856749311" font-size="8px"></text><text class="label" x="172.51747323920443" y="308.44352617079886" font-size="8px"></text></g><g style="font-size: 13px;"><rect x="150" y="321.2167125803489" width="440.9090909090909" height="12.56198347107438" fill="#4472c4"></rect><rect x="150" y="334.43985307621665" width="285.1716360954712" height="12.56198347107438" fill="#ed7d31"></rect><rect x="150" y="347.6629935720844" width="17.75337306344985" height="12.56198347107438" fill="#a5a5a5"></rect><rect x="150" y="360.8861340679522" width="361.28968216395276" height="12.56198347107438" fill="#ffc000"></rect><rect x="150" y="374.10927456381995" width="261.2945042504001" height="12.56198347107438" fill="#5b9bd5"></rect><rect x="150" y="387.3324150596877" width="17.51747323920442" height="12.56198347107438" fill="#70ad47"></rect><text class="label" x="599.4090909090909" y="329.7167125803489" font-size="10px">25.17x</text><text class="label" x="443.6716360954712" y="342.93985307621665" font-size="10px">16.28x</text><text class="label" x="176.25337306344986" y="356.1629935720844" font-size="10px">1.01x</text><text class="label" x="519.7896821639528" y="369.3861340679522" font-size="10px">20.62x</text><text class="label" x="419.7945042504001" y="382.60927456381995" font-size="10px">14.92x</text><text class="label" x="176.01747323920443" y="395.8324150596877" font-size="10px">1x</text><text class="label" x="595.9090909090909" y="331.2167125803489" font-size="8px"></text><text class="label" x="440.1716360954712" y="344.43985307621665" font-size="8px"></text><text class="label" x="172.75337306344986" y="357.6629935720844" font-size="8px"></text><text class="label" x="516.2896821639528" y="370.8861340679522" font-size="8px"></text><text class="label" x="416.2945042504001" y="384.10927456381995" font-size="8px"></text><text class="label" x="172.51747323920443" y="397.3324150596877" font-size="8px"></text></g><g style="font-size: 13px;"><rect x="150" y="410.1056014692378" width="202.7375457818232" height="12.56198347107438" fill="#4472c4"></rect><rect x="150" y="423.32874196510556" width="196.7160525978663" height="12.56198347107438" fill="#ed7d31"></rect><rect x="150" y="436.55188246097333" width="17.51897267817659" height="12.56198347107438" fill="#a5a5a5"></rect><rect x="150" y="449.7750229568411" width="166.33207077999398" height="12.56198347107438" fill="#ffc000"></rect><rect x="150" y="462.99816345270887" width="160.687040901171" height="12.56198347107438" fill="#5b9bd5"></rect><rect x="150" y="476.22130394857663" width="17.51747323920442" height="12.56198347107438" fill="#70ad47"></rect><text class="label" x="361.2375457818232" y="418.6056014692378" font-size="10px">11.57x</text><text class="label" x="355.21605259786634" y="431.82874196510556" font-size="10px">11.23x</text><text class="label" x="176.0189726781766" y="445.05188246097333" font-size="10px">1x</text><text class="label" x="324.83207077999396" y="458.2750229568411" font-size="10px">9.5x</text><text class="label" x="319.18704090117103" y="471.49816345270887" font-size="10px">9.17x</text><text class="label" x="176.01747323920443" y="484.72130394857663" font-size="10px">1x</text><text class="label" x="357.7375457818232" y="420.1056014692378" font-size="8px"></text><text class="label" x="351.71605259786634" y="433.32874196510556" font-size="8px"></text><text class="label" x="172.5189726781766" y="446.55188246097333" font-size="8px"></text><text class="label" x="321.33207077999396" y="459.7750229568411" font-size="8px"></text><text class="label" x="315.68704090117103" y="472.99816345270887" font-size="8px"></text><text class="label" x="172.51747323920443" y="486.22130394857663" font-size="8px"></text></g><g style="font-size: 13px;"><rect x="150" y="498.9944903581267" width="307.40524749531824" height="12.56198347107438" fill="#4472c4"></rect><rect x="150" y="512.2176308539945" width="153.06041509165587" height="12.56198347107438" fill="#ed7d31"></rect><rect x="150" y="525.4407713498622" width="17.51747323920442" height="12.56198347107438" fill="#a5a5a5"></rect><rect x="150" y="538.66391184573" width="305.3348150790786" height="12.56198347107438" fill="#ffc000"></rect><rect x="150" y="551.8870523415978" width="238.468021062034" height="12.56198347107438" fill="#5b9bd5"></rect><rect x="150" y="565.1101928374655" width="18.056590764136534" height="12.56198347107438" fill="#70ad47"></rect><text class="label" x="465.90524749531824" y="507.4944903581267" font-size="10px">17.55x</text><text class="label" x="311.56041509165584" y="520.7176308539945" font-size="10px">8.74x</text><text class="label" x="176.01747323920443" y="533.9407713498622" font-size="10px">1x</text><text class="label" x="463.8348150790786" y="547.16391184573" font-size="10px">17.43x</text><text class="label" x="396.96802106203404" y="560.3870523415978" font-size="10px">13.61x</text><text class="label" x="176.55659076413653" y="573.6101928374655" font-size="10px">1.03x</text><text class="label" x="462.40524749531824" y="508.9944903581267" font-size="8px"></text><text class="label" x="308.06041509165584" y="522.2176308539945" font-size="8px"></text><text class="label" x="172.51747323920443" y="535.4407713498622" font-size="8px"></text><text class="label" x="460.3348150790786" y="548.66391184573" font-size="8px"></text><text class="label" x="393.46802106203404" y="561.8870523415978" font-size="8px"></text><text class="label" x="173.05659076413653" y="575.1101928374655" font-size="8px"></text></g><g style="font-size: 13px;"><rect x="150" y="587.8833792470156" width="242.4886770752788" height="12.56198347107438" fill="#4472c4"></rect><rect x="150" y="601.1065197428833" width="176.70511955008723" height="12.56198347107438" fill="#ed7d31"></rect><rect x="150" y="614.3296602387511" width="17.51747323920442" height="12.56198347107438" fill="#a5a5a5"></rect><rect x="150" y="627.5528007346188" width="233.85846264963268" height="12.56198347107438" fill="#ffc000"></rect><rect x="150" y="640.7759412304866" width="185.5456425519825" height="12.56198347107438" fill="#5b9bd5"></rect><rect x="150" y="653.9990817263545" width="18.143138908248645" height="12.56198347107438" fill="#70ad47"></rect><text class="label" x="400.9886770752788" y="596.3833792470156" font-size="10px">13.84x</text><text class="label" x="335.20511955008726" y="609.6065197428833" font-size="10px">10.09x</text><text class="label" x="176.01747323920443" y="622.8296602387511" font-size="10px">1x</text><text class="label" x="392.35846264963266" y="636.0528007346188" font-size="10px">13.35x</text><text class="label" x="344.0456425519825" y="649.2759412304866" font-size="10px">10.59x</text><text class="label" x="176.64313890824866" y="662.4990817263545" font-size="10px">1.04x</text><text class="label" x="397.4886770752788" y="597.8833792470156" font-size="8px"></text><text class="label" x="331.70511955008726" y="611.1065197428833" font-size="8px"></text><text class="label" x="172.51747323920443" y="624.3296602387511" font-size="8px"></text><text class="label" x="388.85846264963266" y="637.5528007346188" font-size="8px"></text><text class="label" x="340.5456425519825" y="650.7759412304866" font-size="8px"></text><text class="label" x="173.14313890824866" y="663.9990817263545" font-size="8px"></text></g><g style="font-size: 13px;"><rect x="150" y="676.7722681359045" width="236.9665934135769" height="12.56198347107438" fill="#4472c4"></rect><rect x="150" y="689.9954086317722" width="65.36276791040527" height="12.56198347107438" fill="#ed7d31"></rect><rect x="150" y="703.21854912764" width="17.51747323920442" height="12.56198347107438" fill="#a5a5a5"></rect><rect x="150" y="716.4416896235077" width="221.42402477467766" height="12.56198347107438" fill="#ffc000"></rect><rect x="150" y="729.6648301193756" width="219.85870973994045" height="12.56198347107438" fill="#5b9bd5"></rect><rect x="150" y="742.8879706152434" width="17.589073144069808" height="12.56198347107438" fill="#70ad47"></rect><text class="label" x="395.4665934135769" y="685.2722681359045" font-size="10px">13.53x</text><text class="label" x="223.86276791040527" y="698.4954086317722" font-size="10px">3.73x</text><text class="label" x="176.01747323920443" y="711.71854912764" font-size="10px">1x</text><text class="label" x="379.92402477467766" y="724.9416896235077" font-size="10px">12.64x</text><text class="label" x="378.3587097399404" y="738.1648301193756" font-size="10px">12.55x</text><text class="label" x="176.0890731440698" y="751.3879706152434" font-size="10px">1x</text><text class="label" x="391.9665934135769" y="686.7722681359045" font-size="8px"></text><text class="label" x="220.36276791040527" y="699.9954086317722" font-size="8px"></text><text class="label" x="172.51747323920443" y="713.21854912764" font-size="8px"></text><text class="label" x="376.42402477467766" y="726.4416896235077" font-size="8px"></text><text class="label" x="374.8587097399404" y="739.6648301193756" font-size="8px"></text><text class="label" x="172.5890731440698" y="752.8879706152434" font-size="8px"></text></g></g></svg>