<svg xmlns="http://www.w3.org/2000/svg" xmlns:xlink="http://www.w3.org/1999/xlink" width="800" height="794" style="background-color: white;"><g class="y axis" transform="translate(149,45)" fill="none" font-size="10" font-family="sans-serif" text-anchor="end" style="font-size: 13px;"><path class="domain" stroke="currentColor" d="M0.5,0.5V600.5"></path><g class="tick" opacity="1" transform="translate(0,40.740740740740726)" style="font-size: 13px;"><line stroke="currentColor" x2="0"></line><text fill="currentColor" x="-3" dy="0.32em">object (simple)    </text></g><g class="tick" opacity="1" transform="translate(0,114.81481481481481)" style="font-size: 13px;"><line stroke="currentColor" x2="0"></line><text fill="currentColor" x="-3" dy="0.32em">object (hierarchical)    </text></g><g class="tick" opacity="1" transform="translate(0,188.88888888888889)" style="font-size: 13px;"><line stroke="currentColor" x2="0"></line><text fill="currentColor" x="-3" dy="0.32em">object (recursive)    </text></g><g class="tick" opacity="1" transform="translate(0,262.96296296296293)" style="font-size: 13px;"><line stroke="currentColor" x2="0"></line><text fill="currentColor" x="-3" dy="0.32em">object (union, explicit)    </text></g><g class="tick" opacity="1" transform="translate(0,337.037037037037)" style="font-size: 13px;"><line stroke="currentColor" x2="0"></line><text fill="currentColor" x="-3" dy="0.32em">array (simple)    </text></g><g class="tick" opacity="1" transform="translate(0,411.1111111111111)" style="font-size: 13px;"><line stroke="currentColor" x2="0"></line><text fill="currentColor" x="-3" dy="0.32em">array (hierarchical)    </text></g><g class="tick" opacity="1" transform="translate(0,485.18518518518516)" style="font-size: 13px;"><line stroke="currentColor" x2="0"></line><text fill="currentColor" x="-3" dy="0.32em">array (recursive)    </text></g><g class="tick" opacity="1" transform="translate(0,559.2592592592592)" style="font-size: 13px;"><line stroke="currentColor" x2="0"></line><text fill="currentColor" x="-3" dy="0.32em">array (union, explicit)    </text></g></g><g class="x axis" transform="translate(149,645)" fill="none" font-size="10" font-family="sans-serif" text-anchor="middle" style="font-size: 13px;"><path class="domain" stroke="currentColor" d="M0.5,0.5H485.5"></path><g class="tick" opacity="1" transform="translate(0.5,0)" style="font-size: 13px;"><line stroke="currentColor" y2="6"></line><text fill="currentColor" y="9" dy="0.71em">0x</text></g><g class="tick" opacity="1" transform="translate(90.4033425542627,0)" style="font-size: 13px;"><line stroke="currentColor" y2="6"></line><text fill="currentColor" y="9" dy="0.71em">5x</text></g><g class="tick" opacity="1" transform="translate(180.3066851085254,0)" style="font-size: 13px;"><line stroke="currentColor" y2="6"></line><text fill="currentColor" y="9" dy="0.71em">10x</text></g><g class="tick" opacity="1" transform="translate(270.2100276627881,0)" style="font-size: 13px;"><line stroke="currentColor" y2="6"></line><text fill="currentColor" y="9" dy="0.71em">15x</text></g><g class="tick" opacity="1" transform="translate(360.1133702170508,0)" style="font-size: 13px;"><line stroke="currentColor" y2="6"></line><text fill="currentColor" y="9" dy="0.71em">20x</text></g><g class="tick" opacity="1" transform="translate(450.0167127713135,0)" style="font-size: 13px;"><line stroke="currentColor" y2="6"></line><text fill="currentColor" y="9" dy="0.71em">25x</text></g></g><text transform="translate(400, 30)" style="text-anchor: middle; font-size: 20px; font-weight: bold;">server-assert benchmark</text><rect x="650" y="145" width="230" height="5" fill="gray"></rect><rect x="645" y="35" width="230" height="110" fill="none" stroke="black"></rect><rect x="655" y="45" width="10" height="10" style="fill: #4472c4;"></rect><text x="670" y="55" style="font-size: 12px;">fastify-typia</text><rect x="655" y="65" width="10" height="10" style="fill: #ed7d31;"></rect><text x="670" y="75" style="font-size: 12px;">fastify-pure</text><rect x="655" y="85" width="10" height="10" style="fill: #a5a5a5;"></rect><text x="670" y="95" style="font-size: 12px;">fastify-class-transformer</text><rect x="655" y="105" width="10" height="10" style="fill: #ffc000;"></rect><text x="670" y="115" style="font-size: 12px;">express-typia</text><rect x="655" y="125" width="10" height="10" style="fill: #5b9bd5;"></rect><text x="670" y="135" style="font-size: 12px;">express-class-transformer</text><text x="20" y="709" style="font-size: 12px;">  - CPU: 13th Gen Intel(R) Core(TM) i9-13900HX</text><text x="20" y="726" style="font-size: 12px;">  - OS: win32</text><text x="20" y="743" style="font-size: 12px;">  - RAM: 32 GB</text><text x="20" y="760" style="font-size: 12px;">  - NodeJS version: v20.9.0</text><text x="20" y="777" style="font-size: 12px;">  - Typia version: v5.3.4</text><g style="font-size: 13px;"><g style="font-size: 13px;"><rect x="150" y="53.06747341400805" width="202.21898161673542" height="12.541254125412543" fill="#4472c4"></rect><rect x="150" y="66.26879354602124" width="197.89447473997876" height="12.541254125412543" fill="#ed7d31"></rect><rect x="150" y="79.47011367803445" width="19.456625654957563" height="12.541254125412543" fill="#a5a5a5"></rect><rect x="150" y="92.67143381004766" width="153.90757125832369" height="12.541254125412543" fill="#ffc000"></rect><rect x="150" y="105.87275394206085" width="17.98066851085254" height="12.541254125412543" fill="#5b9bd5"></rect><text class="label" x="360.7189816167354" y="61.56747341400805" font-size="10px">11.25x</text><text class="label" x="356.39447473997876" y="74.76879354602124" font-size="10px">11.01x</text><text class="label" x="177.95662565495758" y="87.97011367803445" font-size="10px">1.08x</text><text class="label" x="312.4075712583237" y="101.17143381004766" font-size="10px">8.56x</text><text class="label" x="176.48066851085252" y="114.37275394206085" font-size="10px">1x</text><text class="label" x="357.2189816167354" y="63.06747341400805" font-size="8px"></text><text class="label" x="352.89447473997876" y="76.26879354602124" font-size="8px"></text><text class="label" x="174.45662565495758" y="89.47011367803445" font-size="8px"></text><text class="label" x="308.9075712583237" y="102.67143381004766" font-size="8px"></text><text class="label" x="172.98066851085252" y="115.87275394206085" font-size="8px"></text></g><g style="font-size: 13px;"><rect x="150" y="127.14154748808213" width="219.11774945597062" height="12.541254125412543" fill="#4472c4"></rect><rect x="150" y="140.34286762009532" width="215.25217385087973" height="12.541254125412543" fill="#ed7d31"></rect><rect x="150" y="153.54418775210854" width="17.98066851085254" height="12.541254125412543" fill="#a5a5a5"></rect><rect x="150" y="166.74550788412174" width="207.89970046418674" height="12.541254125412543" fill="#ffc000"></rect><rect x="150" y="179.94682801613493" width="20.73566426191013" height="12.541254125412543" fill="#5b9bd5"></rect><text class="label" x="377.6177494559706" y="135.64154748808213" font-size="10px">12.19x</text><text class="label" x="373.75217385087973" y="148.84286762009532" font-size="10px">11.97x</text><text class="label" x="176.48066851085252" y="162.04418775210854" font-size="10px">1x</text><text class="label" x="366.3997004641867" y="175.24550788412174" font-size="10px">11.56x</text><text class="label" x="179.23566426191013" y="188.44682801613493" font-size="10px">1.15x</text><text class="label" x="374.1177494559706" y="137.14154748808213" font-size="8px"></text><text class="label" x="370.25217385087973" y="150.34286762009532" font-size="8px"></text><text class="label" x="172.98066851085252" y="163.54418775210854" font-size="8px"></text><text class="label" x="362.8997004641867" y="176.74550788412174" font-size="8px"></text><text class="label" x="175.73566426191013" y="189.94682801613493" font-size="8px"></text></g><g style="font-size: 13px;"><rect x="150" y="201.2156215621562" width="233.68065179398778" height="12.541254125412543" fill="#4472c4"></rect><rect x="150" y="214.4169416941694" width="216.33876165013606" height="12.541254125412543" fill="#ed7d31"></rect><rect x="150" y="227.61826182618262" width="17.98066851085254" height="12.541254125412543" fill="#a5a5a5"></rect><rect x="150" y="240.8195819581958" width="229.6857975353645" height="12.541254125412543" fill="#ffc000"></rect><rect x="150" y="254.020902090209" width="19.991579912717647" height="12.541254125412543" fill="#5b9bd5"></rect><text class="label" x="392.18065179398775" y="209.7156215621562" font-size="10px">13x</text><text class="label" x="374.83876165013606" y="222.9169416941694" font-size="10px">12.03x</text><text class="label" x="176.48066851085252" y="236.11826182618262" font-size="10px">1x</text><text class="label" x="388.1857975353645" y="249.3195819581958" font-size="10px">12.77x</text><text class="label" x="178.49157991271764" y="262.520902090209" font-size="10px">1.11x</text><text class="label" x="388.68065179398775" y="211.2156215621562" font-size="8px"></text><text class="label" x="371.33876165013606" y="224.4169416941694" font-size="8px"></text><text class="label" x="172.98066851085252" y="237.61826182618262" font-size="8px"></text><text class="label" x="384.6857975353645" y="250.8195819581958" font-size="8px"></text><text class="label" x="174.99157991271764" y="264.020902090209" font-size="8px"></text></g><g style="font-size: 13px;"><rect x="150" y="275.28969563623025" width="368.0130598304229" height="12.541254125412543" fill="#4472c4"></rect><rect x="150" y="288.49101576824347" width="243.5585873050511" height="12.541254125412543" fill="#ed7d31"></rect><rect x="150" y="301.6923359002567" width="18.110086520894836" height="12.541254125412543" fill="#a5a5a5"></rect><rect x="150" y="314.89365603226986" width="371.86110694905676" height="12.541254125412543" fill="#ffc000"></rect><rect x="150" y="328.0949761642831" width="17.98066851085254" height="12.541254125412543" fill="#5b9bd5"></rect><text class="label" x="526.5130598304229" y="283.78969563623025" font-size="10px">20.47x</text><text class="label" x="402.0585873050511" y="296.99101576824347" font-size="10px">13.55x</text><text class="label" x="176.61008652089484" y="310.1923359002567" font-size="10px">1.01x</text><text class="label" x="530.3611069490568" y="323.39365603226986" font-size="10px">20.68x</text><text class="label" x="176.48066851085252" y="336.5949761642831" font-size="10px">1x</text><text class="label" x="523.0130598304229" y="285.28969563623025" font-size="8px"></text><text class="label" x="398.5585873050511" y="298.49101576824347" font-size="8px"></text><text class="label" x="173.11008652089484" y="311.6923359002567" font-size="8px"></text><text class="label" x="526.8611069490568" y="324.89365603226986" font-size="8px"></text><text class="label" x="172.98066851085252" y="338.0949761642831" font-size="8px"></text></g><g style="font-size: 13px;"><rect x="150" y="349.3637697103044" width="227.2465675661546" height="12.541254125412543" fill="#4472c4"></rect><rect x="150" y="362.56508984231755" width="216.64235759369856" height="12.541254125412543" fill="#ed7d31"></rect><rect x="150" y="375.76640997433077" width="17.98066851085254" height="12.541254125412543" fill="#a5a5a5"></rect><rect x="150" y="388.967730106344" width="205.53987710446995" height="12.541254125412543" fill="#ffc000"></rect><rect x="150" y="402.16905023835716" width="18.554231621407617" height="12.541254125412543" fill="#5b9bd5"></rect><text class="label" x="385.74656756615457" y="357.8637697103044" font-size="10px">12.64x</text><text class="label" x="375.14235759369853" y="371.06508984231755" font-size="10px">12.05x</text><text class="label" x="176.48066851085252" y="384.26640997433077" font-size="10px">1x</text><text class="label" x="364.03987710446995" y="397.467730106344" font-size="10px">11.43x</text><text class="label" x="177.0542316214076" y="410.66905023835716" font-size="10px">1.03x</text><text class="label" x="382.24656756615457" y="359.3637697103044" font-size="8px"></text><text class="label" x="371.64235759369853" y="372.56508984231755" font-size="8px"></text><text class="label" x="172.98066851085252" y="385.76640997433077" font-size="8px"></text><text class="label" x="360.53987710446995" y="398.967730106344" font-size="8px"></text><text class="label" x="173.5542316214076" y="412.16905023835716" font-size="8px"></text></g><g style="font-size: 13px;"><rect x="150" y="423.4378437843784" width="412.2213917998078" height="12.541254125412543" fill="#4472c4"></rect><rect x="150" y="436.6391639163916" width="279.13701903139713" height="12.541254125412543" fill="#ed7d31"></rect><rect x="150" y="449.84048404840485" width="22.698888601721816" height="12.541254125412543" fill="#a5a5a5"></rect><rect x="150" y="463.041804180418" width="440.9090909090909" height="12.541254125412543" fill="#ffc000"></rect><rect x="150" y="476.24312431243123" width="17.98066851085254" height="12.541254125412543" fill="#5b9bd5"></rect><text class="label" x="570.7213917998079" y="431.9378437843784" font-size="10px">22.93x</text><text class="label" x="437.63701903139713" y="445.1391639163916" font-size="10px">15.52x</text><text class="label" x="181.19888860172182" y="458.34048404840485" font-size="10px">1.26x</text><text class="label" x="599.4090909090909" y="471.541804180418" font-size="10px">24.52x</text><text class="label" x="176.48066851085252" y="484.74312431243123" font-size="10px">1x</text><text class="label" x="567.2213917998079" y="433.4378437843784" font-size="8px"></text><text class="label" x="434.13701903139713" y="446.6391639163916" font-size="8px"></text><text class="label" x="177.69888860172182" y="459.84048404840485" font-size="8px"></text><text class="label" x="595.9090909090909" y="473.041804180418" font-size="8px"></text><text class="label" x="172.98066851085252" y="486.24312431243123" font-size="8px"></text></g><g style="font-size: 13px;"><rect x="150" y="497.51191785845253" width="245.8889505774278" height="12.541254125412543" fill="#4472c4"></rect><rect x="150" y="510.7132379904657" width="238.87442715161464" height="12.541254125412543" fill="#ed7d31"></rect><rect x="150" y="523.9145581224789" width="18.02218745215945" height="12.541254125412543" fill="#a5a5a5"></rect><rect x="150" y="537.1158782544921" width="270.28614089106094" height="12.541254125412543" fill="#ffc000"></rect><rect x="150" y="550.3171983865053" width="17.98066851085254" height="12.541254125412543" fill="#5b9bd5"></rect><text class="label" x="404.3889505774278" y="506.01191785845253" font-size="10px">13.68x</text><text class="label" x="397.37442715161467" y="519.2132379904657" font-size="10px">13.29x</text><text class="label" x="176.52218745215944" y="532.4145581224789" font-size="10px">1x</text><text class="label" x="428.78614089106094" y="545.6158782544921" font-size="10px">15.03x</text><text class="label" x="176.48066851085252" y="558.8171983865053" font-size="10px">1x</text><text class="label" x="400.8889505774278" y="507.51191785845253" font-size="8px"></text><text class="label" x="393.87442715161467" y="520.7132379904657" font-size="8px"></text><text class="label" x="173.02218745215944" y="533.9145581224789" font-size="8px"></text><text class="label" x="425.28614089106094" y="547.1158782544921" font-size="8px"></text><text class="label" x="172.98066851085252" y="560.3171983865053" font-size="8px"></text></g><g style="font-size: 13px;"><rect x="150" y="571.5859919325266" width="292.94720721061867" height="12.541254125412543" fill="#4472c4"></rect><rect x="150" y="584.7873120645397" width="201.7013821464415" height="12.541254125412543" fill="#ed7d31"></rect><rect x="150" y="597.9886321965529" width="17.98066851085254" height="12.541254125412543" fill="#a5a5a5"></rect><rect x="150" y="611.1899523285662" width="308.314829584621" height="12.541254125412543" fill="#ffc000"></rect><rect x="150" y="624.3912724605793" width="18.546196800637766" height="12.541254125412543" fill="#5b9bd5"></rect><text class="label" x="451.44720721061867" y="580.0859919325266" font-size="10px">16.29x</text><text class="label" x="360.20138214644146" y="593.2873120645397" font-size="10px">11.22x</text><text class="label" x="176.48066851085252" y="606.4886321965529" font-size="10px">1x</text><text class="label" x="466.814829584621" y="619.6899523285662" font-size="10px">17.15x</text><text class="label" x="177.04619680063777" y="632.8912724605793" font-size="10px">1.03x</text><text class="label" x="447.94720721061867" y="581.5859919325266" font-size="8px"></text><text class="label" x="356.70138214644146" y="594.7873120645397" font-size="8px"></text><text class="label" x="172.98066851085252" y="607.9886321965529" font-size="8px"></text><text class="label" x="463.314829584621" y="621.1899523285662" font-size="8px"></text><text class="label" x="173.54619680063777" y="634.3912724605793" font-size="8px"></text></g></g></svg>