<svg xmlns="http://www.w3.org/2000/svg" xmlns:xlink="http://www.w3.org/1999/xlink" width="800" height="914" style="background-color: white;"><g class="y axis" transform="translate(149,45)" fill="none" font-size="10" font-family="sans-serif" text-anchor="end" style="font-size: 13px;"><path class="domain" stroke="currentColor" d="M0.5,0.5V720.5"></path><g class="tick" opacity="1" transform="translate(0,48.88888888888886)" style="font-size: 13px;"><line stroke="currentColor" x2="0"></line><text fill="currentColor" x="-3" dy="0.32em">object (simple)    </text></g><g class="tick" opacity="1" transform="translate(0,137.77777777777774)" style="font-size: 13px;"><line stroke="currentColor" x2="0"></line><text fill="currentColor" x="-3" dy="0.32em">object (hierarchical)    </text></g><g class="tick" opacity="1" transform="translate(0,226.66666666666663)" style="font-size: 13px;"><line stroke="currentColor" x2="0"></line><text fill="currentColor" x="-3" dy="0.32em">object (recursive)    </text></g><g class="tick" opacity="1" transform="translate(0,315.5555555555555)" style="font-size: 13px;"><line stroke="currentColor" x2="0"></line><text fill="currentColor" x="-3" dy="0.32em">object (union, explicit)    </text></g><g class="tick" opacity="1" transform="translate(0,404.4444444444444)" style="font-size: 13px;"><line stroke="currentColor" x2="0"></line><text fill="currentColor" x="-3" dy="0.32em">array (simple)    </text></g><g class="tick" opacity="1" transform="translate(0,493.3333333333333)" style="font-size: 13px;"><line stroke="currentColor" x2="0"></line><text fill="currentColor" x="-3" dy="0.32em">array (hierarchical)    </text></g><g class="tick" opacity="1" transform="translate(0,582.2222222222222)" style="font-size: 13px;"><line stroke="currentColor" x2="0"></line><text fill="currentColor" x="-3" dy="0.32em">array (recursive)    </text></g><g class="tick" opacity="1" transform="translate(0,671.1111111111111)" style="font-size: 13px;"><line stroke="currentColor" x2="0"></line><text fill="currentColor" x="-3" dy="0.32em">array (union, explicit)    </text></g></g><g class="x axis" transform="translate(149,765)" fill="none" font-size="10" font-family="sans-serif" text-anchor="middle" style="font-size: 13px;"><path class="domain" stroke="currentColor" d="M0.5,0.5H485.5"></path><g class="tick" opacity="1" transform="translate(0.5,0)" style="font-size: 13px;"><line stroke="currentColor" y2="6"></line><text fill="currentColor" y="9" dy="0.71em">0x</text></g><g class="tick" opacity="1" transform="translate(116.0854499838978,0)" style="font-size: 13px;"><line stroke="currentColor" y2="6"></line><text fill="currentColor" y="9" dy="0.71em">50x</text></g><g class="tick" opacity="1" transform="translate(231.6708999677956,0)" style="font-size: 13px;"><line stroke="currentColor" y2="6"></line><text fill="currentColor" y="9" dy="0.71em">100x</text></g><g class="tick" opacity="1" transform="translate(347.25634995169344,0)" style="font-size: 13px;"><line stroke="currentColor" y2="6"></line><text fill="currentColor" y="9" dy="0.71em">150x</text></g><g class="tick" opacity="1" transform="translate(462.8417999355912,0)" style="font-size: 13px;"><line stroke="currentColor" y2="6"></line><text fill="currentColor" y="9" dy="0.71em">200x</text></g></g><text transform="translate(400, 30)" style="text-anchor: middle; font-size: 20px; font-weight: bold;">stringify benchmark</text><rect x="650" y="165" width="230" height="5" fill="gray"></rect><rect x="645" y="35" width="230" height="130" fill="none" stroke="black"></rect><rect x="655" y="45" width="10" height="10" style="fill: #4472c4;"></rect><text x="670" y="55" style="font-size: 12px;">typia.stringify</text><rect x="655" y="65" width="10" height="10" style="fill: #ed7d31;"></rect><text x="670" y="75" style="font-size: 12px;">typia.isStringify</text><rect x="655" y="85" width="10" height="10" style="fill: #a5a5a5;"></rect><text x="670" y="95" style="font-size: 12px;">typia.assertStringify</text><rect x="655" y="105" width="10" height="10" style="fill: #ffc000;"></rect><text x="670" y="115" style="font-size: 12px;">fast-json-stringify</text><rect x="655" y="125" width="10" height="10" style="fill: #5b9bd5;"></rect><text x="670" y="135" style="font-size: 12px;">JSON.stringify</text><rect x="655" y="145" width="10" height="10" style="fill: #70ad47;"></rect><text x="670" y="155" style="font-size: 12px;">class-transformer</text><text x="20" y="829" style="font-size: 12px;">  - CPU: 13th Gen Intel(R) Core(TM) i9-13900HX</text><text x="20" y="846" style="font-size: 12px;">  - OS: win32</text><text x="20" y="863" style="font-size: 12px;">  - RAM: 32 GB</text><text x="20" y="880" style="font-size: 12px;">  - NodeJS version: v20.9.0</text><text x="20" y="897" style="font-size: 12px;">  - Typia version: v5.3.4</text><g style="font-size: 13px;"><g style="font-size: 13px;"><rect x="150" y="54.55004591368224" width="440.9090909090908" height="12.56198347107438" fill="#4472c4"></rect><rect x="150" y="67.77318640955001" width="384.6147616905308" height="12.56198347107438" fill="#ed7d31"></rect><rect x="150" y="80.99632690541777" width="371.1372036052788" height="12.56198347107438" fill="#a5a5a5"></rect><rect x="150" y="94.21946740128556" width="148.38368858139995" height="12.56198347107438" fill="#ffc000"></rect><rect x="150" y="107.44260789715332" width="26.688209348624603" height="12.56198347107438" fill="#5b9bd5"></rect><rect x="150" y="120.66574839302109" width="2.311708999677956" height="12.56198347107438" fill="#70ad47"></rect><text class="label" x="599.4090909090908" y="63.05004591368224" font-size="10px">191x</text><text class="label" x="543.1147616905308" y="76.27318640955001" font-size="10px">166x</text><text class="label" x="529.6372036052787" y="89.49632690541777" font-size="10px">161x</text><text class="label" x="306.88368858139995" y="102.71946740128556" font-size="10px">64x</text><text class="label" x="185.1882093486246" y="115.94260789715332" font-size="10px">12x</text><text class="label" x="160.81170899967796" y="129.1657483930211" font-size="10px">1x</text><text class="label" x="595.9090909090908" y="64.55004591368224" font-size="8px"></text><text class="label" x="539.6147616905308" y="77.77318640955001" font-size="8px"></text><text class="label" x="526.1372036052787" y="90.99632690541777" font-size="8px"></text><text class="label" x="303.38368858139995" y="104.21946740128556" font-size="8px"></text><text class="label" x="181.6882093486246" y="117.44260789715332" font-size="8px"></text><text class="label" x="157.31170899967796" y="130.6657483930211" font-size="8px"></text></g><g style="font-size: 13px;"><rect x="150" y="143.4389348025711" width="95.5982153006948" height="12.56198347107438" fill="#4472c4"></rect><rect x="150" y="156.66207529843888" width="93.17320598817555" height="12.56198347107438" fill="#ed7d31"></rect><rect x="150" y="169.88521579430665" width="89.88579433493538" height="12.56198347107438" fill="#a5a5a5"></rect><rect x="150" y="183.10835629017444" width="56.540263952552635" height="12.56198347107438" fill="#ffc000"></rect><rect x="150" y="196.3314967860422" width="22.03877647102601" height="12.56198347107438" fill="#5b9bd5"></rect><rect x="150" y="209.55463728190998" width="2.311708999677956" height="12.56198347107438" fill="#70ad47"></rect><text class="label" x="254.0982153006948" y="151.9389348025711" font-size="10px">41x</text><text class="label" x="251.67320598817554" y="165.16207529843888" font-size="10px">40x</text><text class="label" x="248.38579433493538" y="178.38521579430665" font-size="10px">39x</text><text class="label" x="215.04026395255264" y="191.60835629017444" font-size="10px">24x</text><text class="label" x="180.538776471026" y="204.8314967860422" font-size="10px">10x</text><text class="label" x="160.81170899967796" y="218.05463728190998" font-size="10px">1x</text><text class="label" x="250.5982153006948" y="153.4389348025711" font-size="8px"></text><text class="label" x="248.17320598817554" y="166.66207529843888" font-size="8px"></text><text class="label" x="244.88579433493538" y="179.88521579430665" font-size="8px"></text><text class="label" x="211.54026395255264" y="193.10835629017444" font-size="8px"></text><text class="label" x="177.038776471026" y="206.3314967860422" font-size="8px"></text><text class="label" x="157.31170899967796" y="219.55463728190998" font-size="8px"></text></g><g style="font-size: 13px;"><rect x="150" y="232.32782369146003" width="109.02444554696537" height="12.56198347107438" fill="#4472c4"></rect><rect x="150" y="245.5509641873278" width="105.96005234569182" height="12.56198347107438" fill="#ed7d31"></rect><rect x="150" y="258.77410468319556" width="105.62303363545922" height="12.56198347107438" fill="#a5a5a5"></rect><rect x="150" y="271.9972451790633" width="31.305563954333614" height="12.56198347107438" fill="#ffc000"></rect><rect x="150" y="285.2203856749311" width="26.585814356040423" height="12.56198347107438" fill="#5b9bd5"></rect><rect x="150" y="298.44352617079886" width="2.311708999677956" height="12.56198347107438" fill="#70ad47"></rect><text class="label" x="267.52444554696535" y="240.82782369146003" font-size="10px">47x</text><text class="label" x="264.4600523456918" y="254.0509641873278" font-size="10px">46x</text><text class="label" x="264.12303363545925" y="267.27410468319556" font-size="10px">46x</text><text class="label" x="189.80556395433362" y="280.4972451790633" font-size="10px">14x</text><text class="label" x="185.08581435604043" y="293.7203856749311" font-size="10px">12x</text><text class="label" x="160.81170899967796" y="306.94352617079886" font-size="10px">1x</text><text class="label" x="264.02444554696535" y="242.32782369146003" font-size="8px"></text><text class="label" x="260.9600523456918" y="255.5509641873278" font-size="8px"></text><text class="label" x="260.62303363545925" y="268.77410468319556" font-size="8px"></text><text class="label" x="186.30556395433362" y="281.9972451790633" font-size="8px"></text><text class="label" x="181.58581435604043" y="295.2203856749311" font-size="8px"></text><text class="label" x="157.31170899967796" y="308.44352617079886" font-size="8px"></text></g><g style="font-size: 13px;"><rect x="150" y="321.2167125803489" width="84.12067828486914" height="12.56198347107438" fill="#4472c4"></rect><rect x="150" y="334.43985307621665" width="74.47945492089023" height="12.56198347107438" fill="#ed7d31"></rect><rect x="150" y="347.6629935720844" width="74.93221147908605" height="12.56198347107438" fill="#a5a5a5"></rect><rect x="150" y="360.8861340679522" width="60.00708466219568" height="12.56198347107438" fill="#ffc000"></rect><rect x="150" y="374.10927456381995" width="41.35940453428947" height="12.56198347107438" fill="#5b9bd5"></rect><rect x="150" y="387.3324150596877" width="2.311708999677956" height="12.56198347107438" fill="#70ad47"></rect><text class="label" x="242.62067828486914" y="329.7167125803489" font-size="10px">36x</text><text class="label" x="232.97945492089025" y="342.93985307621665" font-size="10px">32x</text><text class="label" x="233.43221147908605" y="356.1629935720844" font-size="10px">32x</text><text class="label" x="218.50708466219567" y="369.3861340679522" font-size="10px">26x</text><text class="label" x="199.85940453428947" y="382.60927456381995" font-size="10px">18x</text><text class="label" x="160.81170899967796" y="395.8324150596877" font-size="10px">1x</text><text class="label" x="239.12067828486914" y="331.2167125803489" font-size="8px"></text><text class="label" x="229.47945492089025" y="344.43985307621665" font-size="8px"></text><text class="label" x="229.93221147908605" y="357.6629935720844" font-size="8px"></text><text class="label" x="215.00708466219567" y="370.8861340679522" font-size="8px"></text><text class="label" x="196.35940453428947" y="384.10927456381995" font-size="8px"></text><text class="label" x="157.31170899967796" y="397.3324150596877" font-size="8px"></text></g><g style="font-size: 13px;"><rect x="150" y="410.1056014692378" width="39.11588514787511" height="12.56198347107438" fill="#4472c4"></rect><rect x="150" y="423.32874196510556" width="38.10047211463098" height="12.56198347107438" fill="#ed7d31"></rect><rect x="150" y="436.55188246097333" width="39.138795068587" height="12.56198347107438" fill="#a5a5a5"></rect><rect x="150" y="449.7750229568411" width="61.561192116081564" height="12.56198347107438" fill="#ffc000"></rect><rect x="150" y="462.99816345270887" width="29.331015639515975" height="12.56198347107438" fill="#5b9bd5"></rect><rect x="150" y="476.22130394857663" width="2.311708999677956" height="12.56198347107438" fill="#70ad47"></rect><text class="label" x="197.6158851478751" y="418.6056014692378" font-size="10px">17x</text><text class="label" x="196.60047211463097" y="431.82874196510556" font-size="10px">16x</text><text class="label" x="197.638795068587" y="445.05188246097333" font-size="10px">17x</text><text class="label" x="220.06119211608157" y="458.2750229568411" font-size="10px">27x</text><text class="label" x="187.83101563951598" y="471.49816345270887" font-size="10px">13x</text><text class="label" x="160.81170899967796" y="484.72130394857663" font-size="10px">1x</text><text class="label" x="194.1158851478751" y="420.1056014692378" font-size="8px"></text><text class="label" x="193.10047211463097" y="433.32874196510556" font-size="8px"></text><text class="label" x="194.138795068587" y="446.55188246097333" font-size="8px"></text><text class="label" x="216.56119211608157" y="459.7750229568411" font-size="8px"></text><text class="label" x="184.33101563951598" y="472.99816345270887" font-size="8px"></text><text class="label" x="157.31170899967796" y="486.22130394857663" font-size="8px"></text></g><g style="font-size: 13px;"><rect x="150" y="498.9944903581267" width="67.24063435787197" height="12.56198347107438" fill="#4472c4"></rect><rect x="150" y="512.2176308539945" width="64.36562402226485" height="12.56198347107438" fill="#ed7d31"></rect><rect x="150" y="525.4407713498622" width="64.14953332801831" height="12.56198347107438" fill="#a5a5a5"></rect><rect x="150" y="538.66391184573" width="96.14418977853155" height="12.56198347107438" fill="#ffc000"></rect><rect x="150" y="551.8870523415978" width="33.79674067479769" height="12.56198347107438" fill="#5b9bd5"></rect><rect x="150" y="565.1101928374655" width="2.311708999677956" height="12.56198347107438" fill="#70ad47"></rect><text class="label" x="225.74063435787195" y="507.4944903581267" font-size="10px">29x</text><text class="label" x="222.86562402226485" y="520.7176308539945" font-size="10px">28x</text><text class="label" x="222.64953332801832" y="533.9407713498622" font-size="10px">28x</text><text class="label" x="254.64418977853154" y="547.16391184573" font-size="10px">42x</text><text class="label" x="192.2967406747977" y="560.3870523415978" font-size="10px">15x</text><text class="label" x="160.81170899967796" y="573.6101928374655" font-size="10px">1x</text><text class="label" x="222.24063435787195" y="508.9944903581267" font-size="8px"></text><text class="label" x="219.36562402226485" y="522.2176308539945" font-size="8px"></text><text class="label" x="219.14953332801832" y="535.4407713498622" font-size="8px"></text><text class="label" x="251.14418977853154" y="548.66391184573" font-size="8px"></text><text class="label" x="188.7967406747977" y="561.8870523415978" font-size="8px"></text><text class="label" x="157.31170899967796" y="575.1101928374655" font-size="8px"></text></g><g style="font-size: 13px;"><rect x="150" y="587.8833792470156" width="56.06480772363401" height="12.56198347107438" fill="#4472c4"></rect><rect x="150" y="601.1065197428833" width="54.42518065774576" height="12.56198347107438" fill="#ed7d31"></rect><rect x="150" y="614.3296602387511" width="53.81487251746875" height="12.56198347107438" fill="#a5a5a5"></rect><rect x="150" y="627.5528007346188" width="110.78542671335546" height="12.56198347107438" fill="#ffc000"></rect><rect x="150" y="640.7759412304866" width="28.896665522216164" height="12.56198347107438" fill="#5b9bd5"></rect><rect x="150" y="653.9990817263545" width="2.311708999677956" height="12.56198347107438" fill="#70ad47"></rect><text class="label" x="214.564807723634" y="596.3833792470156" font-size="10px">24x</text><text class="label" x="212.92518065774576" y="609.6065197428833" font-size="10px">24x</text><text class="label" x="212.31487251746876" y="622.8296602387511" font-size="10px">23x</text><text class="label" x="269.2854267133555" y="636.0528007346188" font-size="10px">48x</text><text class="label" x="187.39666552221615" y="649.2759412304866" font-size="10px">13x</text><text class="label" x="160.81170899967796" y="662.4990817263545" font-size="10px">1x</text><text class="label" x="211.064807723634" y="597.8833792470156" font-size="8px"></text><text class="label" x="209.42518065774576" y="611.1065197428833" font-size="8px"></text><text class="label" x="208.81487251746876" y="624.3296602387511" font-size="8px"></text><text class="label" x="265.7854267133555" y="637.5528007346188" font-size="8px"></text><text class="label" x="183.89666552221615" y="650.7759412304866" font-size="8px"></text><text class="label" x="157.31170899967796" y="663.9990817263545" font-size="8px"></text></g><g style="font-size: 13px;"><rect x="150" y="676.7722681359045" width="50.88245596867963" height="12.56198347107438" fill="#4472c4"></rect><rect x="150" y="689.9954086317722" width="47.680317679930596" height="12.56198347107438" fill="#ed7d31"></rect><rect x="150" y="703.21854912764" width="47.51974370402313" height="12.56198347107438" fill="#a5a5a5"></rect><rect x="150" y="716.4416896235077" width="12.196364416275841" height="12.56198347107438" fill="#ffc000"></rect><rect x="150" y="729.6648301193756" width="39.82128176520525" height="12.56198347107438" fill="#5b9bd5"></rect><rect x="150" y="742.8879706152434" width="2.311708999677956" height="12.56198347107438" fill="#70ad47"></rect><text class="label" x="209.38245596867964" y="685.2722681359045" font-size="10px">22x</text><text class="label" x="206.1803176799306" y="698.4954086317722" font-size="10px">21x</text><text class="label" x="206.01974370402314" y="711.71854912764" font-size="10px">21x</text><text class="label" x="170.69636441627586" y="724.9416896235077" font-size="10px">5x</text><text class="label" x="198.32128176520524" y="738.1648301193756" font-size="10px">17x</text><text class="label" x="160.81170899967796" y="751.3879706152434" font-size="10px">1x</text><text class="label" x="205.88245596867964" y="686.7722681359045" font-size="8px"></text><text class="label" x="202.6803176799306" y="699.9954086317722" font-size="8px"></text><text class="label" x="202.51974370402314" y="713.21854912764" font-size="8px"></text><text class="label" x="167.19636441627586" y="726.4416896235077" font-size="8px"></text><text class="label" x="194.82128176520524" y="739.6648301193756" font-size="8px"></text><text class="label" x="157.31170899967796" y="752.8879706152434" font-size="8px"></text></g></g></svg>