<svg xmlns="http://www.w3.org/2000/svg" xmlns:xlink="http://www.w3.org/1999/xlink" width="800" height="914" style="background-color: white;"><g class="y axis" transform="translate(149,45)" fill="none" font-size="10" font-family="sans-serif" text-anchor="end" style="font-size: 13px;"><path class="domain" stroke="currentColor" d="M0.5,0.5V720.5"></path><g class="tick" opacity="1" transform="translate(0,48.88888888888886)" style="font-size: 13px;"><line stroke="currentColor" x2="0"></line><text fill="currentColor" x="-3" dy="0.32em">object (simple)    </text></g><g class="tick" opacity="1" transform="translate(0,137.77777777777774)" style="font-size: 13px;"><line stroke="currentColor" x2="0"></line><text fill="currentColor" x="-3" dy="0.32em">object (hierarchical)    </text></g><g class="tick" opacity="1" transform="translate(0,226.66666666666663)" style="font-size: 13px;"><line stroke="currentColor" x2="0"></line><text fill="currentColor" x="-3" dy="0.32em">object (recursive)    </text></g><g class="tick" opacity="1" transform="translate(0,315.5555555555555)" style="font-size: 13px;"><line stroke="currentColor" x2="0"></line><text fill="currentColor" x="-3" dy="0.32em">object (union, explicit)    </text></g><g class="tick" opacity="1" transform="translate(0,404.4444444444444)" style="font-size: 13px;"><line stroke="currentColor" x2="0"></line><text fill="currentColor" x="-3" dy="0.32em">array (simple)    </text></g><g class="tick" opacity="1" transform="translate(0,493.3333333333333)" style="font-size: 13px;"><line stroke="currentColor" x2="0"></line><text fill="currentColor" x="-3" dy="0.32em">array (hierarchical)    </text></g><g class="tick" opacity="1" transform="translate(0,582.2222222222222)" style="font-size: 13px;"><line stroke="currentColor" x2="0"></line><text fill="currentColor" x="-3" dy="0.32em">array (recursive)    </text></g><g class="tick" opacity="1" transform="translate(0,671.1111111111111)" style="font-size: 13px;"><line stroke="currentColor" x2="0"></line><text fill="currentColor" x="-3" dy="0.32em">array (union, explicit)    </text></g></g><g class="x axis" transform="translate(149,765)" fill="none" font-size="10" font-family="sans-serif" text-anchor="middle" style="font-size: 13px;"><path class="domain" stroke="currentColor" d="M0.5,0.5H485.5"></path><g class="tick" opacity="1" transform="translate(0.5,0)" style="font-size: 13px;"><line stroke="currentColor" y2="6"></line><text fill="currentColor" y="9" dy="0.71em">0x</text></g><g class="tick" opacity="1" transform="translate(79.66157543704156,0)" style="font-size: 13px;"><line stroke="currentColor" y2="6"></line><text fill="currentColor" y="9" dy="0.71em">5x</text></g><g class="tick" opacity="1" transform="translate(158.82315087408313,0)" style="font-size: 13px;"><line stroke="currentColor" y2="6"></line><text fill="currentColor" y="9" dy="0.71em">10x</text></g><g class="tick" opacity="1" transform="translate(237.9847263111247,0)" style="font-size: 13px;"><line stroke="currentColor" y2="6"></line><text fill="currentColor" y="9" dy="0.71em">15x</text></g><g class="tick" opacity="1" transform="translate(317.14630174816625,0)" style="font-size: 13px;"><line stroke="currentColor" y2="6"></line><text fill="currentColor" y="9" dy="0.71em">20x</text></g><g class="tick" opacity="1" transform="translate(396.3078771852078,0)" style="font-size: 13px;"><line stroke="currentColor" y2="6"></line><text fill="currentColor" y="9" dy="0.71em">25x</text></g><g class="tick" opacity="1" transform="translate(475.4694526222494,0)" style="font-size: 13px;"><line stroke="currentColor" y2="6"></line><text fill="currentColor" y="9" dy="0.71em">30x</text></g></g><text transform="translate(400, 30)" style="text-anchor: middle; font-size: 20px; font-weight: bold;">server-stringify benchmark</text><rect x="650" y="165" width="230" height="5" fill="gray"></rect><rect x="645" y="35" width="230" height="130" fill="none" stroke="black"></rect><rect x="655" y="45" width="10" height="10" style="fill: #4472c4;"></rect><text x="670" y="55" style="font-size: 12px;">fastify-typia</text><rect x="655" y="65" width="10" height="10" style="fill: #ed7d31;"></rect><text x="670" y="75" style="font-size: 12px;">fastify-pure</text><rect x="655" y="85" width="10" height="10" style="fill: #a5a5a5;"></rect><text x="670" y="95" style="font-size: 12px;">fastify-class-transformer</text><rect x="655" y="105" width="10" height="10" style="fill: #ffc000;"></rect><text x="670" y="115" style="font-size: 12px;">express-typia</text><rect x="655" y="125" width="10" height="10" style="fill: #5b9bd5;"></rect><text x="670" y="135" style="font-size: 12px;">express-pure</text><rect x="655" y="145" width="10" height="10" style="fill: #70ad47;"></rect><text x="670" y="155" style="font-size: 12px;">express-class-transformer</text><text x="20" y="829" style="font-size: 12px;">  - CPU: 12th Gen Intel(R) Core(TM) i5-1235U</text><text x="20" y="846" style="font-size: 12px;">  - OS: win32</text><text x="20" y="863" style="font-size: 12px;">  - RAM: 16 GB</text><text x="20" y="880" style="font-size: 12px;">  - NodeJS version: v20.6.1</text><text x="20" y="897" style="font-size: 12px;">  - Typia version: v5.0.3</text><g style="font-size: 13px;"><g style="font-size: 13px;"><rect x="150" y="54.55004591368224" width="319.40047232518396" height="12.56198347107438" fill="#4472c4"></rect><rect x="150" y="67.77318640955001" width="299.50926206888585" height="12.56198347107438" fill="#ed7d31"></rect><rect x="150" y="80.99632690541777" width="17.243517491670005" height="12.56198347107438" fill="#a5a5a5"></rect><rect x="150" y="94.21946740128556" width="166.34104490719685" height="12.56198347107438" fill="#ffc000"></rect><rect x="150" y="107.44260789715332" width="121.98890243401189" height="12.56198347107438" fill="#5b9bd5"></rect><rect x="150" y="120.66574839302109" width="15.832315087408315" height="12.56198347107438" fill="#70ad47"></rect><text class="label" x="477.90047232518396" y="63.05004591368224" font-size="10px">20.17x</text><text class="label" x="458.00926206888585" y="76.27318640955001" font-size="10px">18.92x</text><text class="label" x="175.74351749167" y="89.49632690541777" font-size="10px">1.09x</text><text class="label" x="324.8410449071969" y="102.71946740128556" font-size="10px">10.51x</text><text class="label" x="280.4889024340119" y="115.94260789715332" font-size="10px">7.71x</text><text class="label" x="174.33231508740832" y="129.1657483930211" font-size="10px">1x</text><text class="label" x="474.40047232518396" y="64.55004591368224" font-size="8px"></text><text class="label" x="454.50926206888585" y="77.77318640955001" font-size="8px"></text><text class="label" x="172.24351749167" y="90.99632690541777" font-size="8px"></text><text class="label" x="321.3410449071969" y="104.21946740128556" font-size="8px"></text><text class="label" x="276.9889024340119" y="117.44260789715332" font-size="8px"></text><text class="label" x="170.83231508740832" y="130.6657483930211" font-size="8px"></text></g><g style="font-size: 13px;"><rect x="150" y="143.4389348025711" width="252.46102441479593" height="12.56198347107438" fill="#4472c4"></rect><rect x="150" y="156.66207529843888" width="194.22199764025262" height="12.56198347107438" fill="#ed7d31"></rect><rect x="150" y="169.88521579430665" width="16.702007052855784" height="12.56198347107438" fill="#a5a5a5"></rect><rect x="150" y="183.10835629017444" width="191.41368923550485" height="12.56198347107438" fill="#ffc000"></rect><rect x="150" y="196.3314967860422" width="121.30961330760337" height="12.56198347107438" fill="#5b9bd5"></rect><rect x="150" y="209.55463728190998" width="15.832315087408315" height="12.56198347107438" fill="#70ad47"></rect><text class="label" x="410.96102441479593" y="151.9389348025711" font-size="10px">15.95x</text><text class="label" x="352.72199764025265" y="165.16207529843888" font-size="10px">12.27x</text><text class="label" x="175.20200705285578" y="178.38521579430665" font-size="10px">1.05x</text><text class="label" x="349.9136892355049" y="191.60835629017444" font-size="10px">12.09x</text><text class="label" x="279.8096133076034" y="204.8314967860422" font-size="10px">7.66x</text><text class="label" x="174.33231508740832" y="218.05463728190998" font-size="10px">1x</text><text class="label" x="407.46102441479593" y="153.4389348025711" font-size="8px"></text><text class="label" x="349.22199764025265" y="166.66207529843888" font-size="8px"></text><text class="label" x="171.70200705285578" y="179.88521579430665" font-size="8px"></text><text class="label" x="346.4136892355049" y="193.10835629017444" font-size="8px"></text><text class="label" x="276.3096133076034" y="206.3314967860422" font-size="8px"></text><text class="label" x="170.83231508740832" y="219.55463728190998" font-size="8px"></text></g><g style="font-size: 13px;"><rect x="150" y="232.32782369146003" width="276.43970175030813" height="12.56198347107438" fill="#4472c4"></rect><rect x="150" y="245.5509641873278" width="131.4842175540673" height="12.56198347107438" fill="#ed7d31"></rect><rect x="150" y="258.77410468319556" width="16.093828058954713" height="12.56198347107438" fill="#a5a5a5"></rect><rect x="150" y="271.9972451790633" width="215.13963867025927" height="12.56198347107438" fill="#ffc000"></rect><rect x="150" y="285.2203856749311" width="140.2451804041582" height="12.56198347107438" fill="#5b9bd5"></rect><rect x="150" y="298.44352617079886" width="15.832315087408315" height="12.56198347107438" fill="#70ad47"></rect><text class="label" x="434.93970175030813" y="240.82782369146003" font-size="10px">17.46x</text><text class="label" x="289.9842175540673" y="254.0509641873278" font-size="10px">8.3x</text><text class="label" x="174.59382805895473" y="267.27410468319556" font-size="10px">1.02x</text><text class="label" x="373.6396386702593" y="280.4972451790633" font-size="10px">13.59x</text><text class="label" x="298.7451804041582" y="293.7203856749311" font-size="10px">8.86x</text><text class="label" x="174.33231508740832" y="306.94352617079886" font-size="10px">1x</text><text class="label" x="431.43970175030813" y="242.32782369146003" font-size="8px"></text><text class="label" x="286.4842175540673" y="255.5509641873278" font-size="8px"></text><text class="label" x="171.09382805895473" y="268.77410468319556" font-size="8px"></text><text class="label" x="370.1396386702593" y="281.9972451790633" font-size="8px"></text><text class="label" x="295.2451804041582" y="295.2203856749311" font-size="8px"></text><text class="label" x="170.83231508740832" y="308.44352617079886" font-size="8px"></text></g><g style="font-size: 13px;"><rect x="150" y="321.2167125803489" width="440.9090909090909" height="12.56198347107438" fill="#4472c4"></rect><rect x="150" y="334.43985307621665" width="268.2603609869335" height="12.56198347107438" fill="#ed7d31"></rect><rect x="150" y="347.6629935720844" width="15.832315087408315" height="12.56198347107438" fill="#a5a5a5"></rect><rect x="150" y="360.8861340679522" width="360.65843287707605" height="12.56198347107438" fill="#ffc000"></rect><rect x="150" y="374.10927456381995" width="239.86102527648703" height="12.56198347107438" fill="#5b9bd5"></rect><rect x="150" y="387.3324150596877" width="16.047027944553648" height="12.56198347107438" fill="#70ad47"></rect><text class="label" x="599.4090909090909" y="329.7167125803489" font-size="10px">27.85x</text><text class="label" x="426.7603609869335" y="342.93985307621665" font-size="10px">16.94x</text><text class="label" x="174.33231508740832" y="356.1629935720844" font-size="10px">1x</text><text class="label" x="519.158432877076" y="369.3861340679522" font-size="10px">22.78x</text><text class="label" x="398.361025276487" y="382.60927456381995" font-size="10px">15.15x</text><text class="label" x="174.54702794455363" y="395.8324150596877" font-size="10px">1.01x</text><text class="label" x="595.9090909090909" y="331.2167125803489" font-size="8px"></text><text class="label" x="423.2603609869335" y="344.43985307621665" font-size="8px"></text><text class="label" x="170.83231508740832" y="357.6629935720844" font-size="8px"></text><text class="label" x="515.658432877076" y="370.8861340679522" font-size="8px"></text><text class="label" x="394.861025276487" y="384.10927456381995" font-size="8px"></text><text class="label" x="171.04702794455363" y="397.3324150596877" font-size="8px"></text></g><g style="font-size: 13px;"><rect x="150" y="410.1056014692378" width="181.32252441507384" height="12.56198347107438" fill="#4472c4"></rect><rect x="150" y="423.32874196510556" width="157.2236468489511" height="12.56198347107438" fill="#ed7d31"></rect><rect x="150" y="436.55188246097333" width="15.832315087408315" height="12.56198347107438" fill="#a5a5a5"></rect><rect x="150" y="449.7750229568411" width="162.50777451194924" height="12.56198347107438" fill="#ffc000"></rect><rect x="150" y="462.99816345270887" width="150.57754596485964" height="12.56198347107438" fill="#5b9bd5"></rect><rect x="150" y="476.22130394857663" width="16.076375667067378" height="12.56198347107438" fill="#70ad47"></rect><text class="label" x="339.8225244150739" y="418.6056014692378" font-size="10px">11.45x</text><text class="label" x="315.7236468489511" y="431.82874196510556" font-size="10px">9.93x</text><text class="label" x="174.33231508740832" y="445.05188246097333" font-size="10px">1x</text><text class="label" x="321.00777451194926" y="458.2750229568411" font-size="10px">10.26x</text><text class="label" x="309.0775459648596" y="471.49816345270887" font-size="10px">9.51x</text><text class="label" x="174.57637566706737" y="484.72130394857663" font-size="10px">1.02x</text><text class="label" x="336.3225244150739" y="420.1056014692378" font-size="8px"></text><text class="label" x="312.2236468489511" y="433.32874196510556" font-size="8px"></text><text class="label" x="170.83231508740832" y="446.55188246097333" font-size="8px"></text><text class="label" x="317.50777451194926" y="459.7750229568411" font-size="8px"></text><text class="label" x="305.5775459648596" y="472.99816345270887" font-size="8px"></text><text class="label" x="171.07637566706737" y="486.22130394857663" font-size="8px"></text></g><g style="font-size: 13px;"><rect x="150" y="498.9944903581267" width="247.4803330429856" height="12.56198347107438" fill="#4472c4"></rect><rect x="150" y="512.2176308539945" width="109.378513791925" height="12.56198347107438" fill="#ed7d31"></rect><rect x="150" y="525.4407713498622" width="15.832315087408315" height="12.56198347107438" fill="#a5a5a5"></rect><rect x="150" y="538.66391184573" width="237.7169248160553" height="12.56198347107438" fill="#ffc000"></rect><rect x="150" y="551.8870523415978" width="183.58284380845254" height="12.56198347107438" fill="#5b9bd5"></rect><rect x="150" y="565.1101928374655" width="16.335545166621205" height="12.56198347107438" fill="#70ad47"></rect><text class="label" x="405.9803330429856" y="507.4944903581267" font-size="10px">15.63x</text><text class="label" x="267.878513791925" y="520.7176308539945" font-size="10px">6.91x</text><text class="label" x="174.33231508740832" y="533.9407713498622" font-size="10px">1x</text><text class="label" x="396.2169248160553" y="547.16391184573" font-size="10px">15.01x</text><text class="label" x="342.08284380845254" y="560.3870523415978" font-size="10px">11.6x</text><text class="label" x="174.83554516662122" y="573.6101928374655" font-size="10px">1.03x</text><text class="label" x="402.4803330429856" y="508.9944903581267" font-size="8px"></text><text class="label" x="264.378513791925" y="522.2176308539945" font-size="8px"></text><text class="label" x="170.83231508740832" y="535.4407713498622" font-size="8px"></text><text class="label" x="392.7169248160553" y="548.66391184573" font-size="8px"></text><text class="label" x="338.58284380845254" y="561.8870523415978" font-size="8px"></text><text class="label" x="171.33554516662122" y="575.1101928374655" font-size="8px"></text></g><g style="font-size: 13px;"><rect x="150" y="587.8833792470156" width="229.99937579971802" height="12.56198347107438" fill="#4472c4"></rect><rect x="150" y="601.1065197428833" width="162.10600840397072" height="12.56198347107438" fill="#ed7d31"></rect><rect x="150" y="614.3296602387511" width="15.832315087408315" height="12.56198347107438" fill="#a5a5a5"></rect><rect x="150" y="627.5528007346188" width="231.76153941739906" height="12.56198347107438" fill="#ffc000"></rect><rect x="150" y="640.7759412304866" width="164.3053324075825" height="12.56198347107438" fill="#5b9bd5"></rect><rect x="150" y="653.9990817263545" width="16.42836043132568" height="12.56198347107438" fill="#70ad47"></rect><text class="label" x="388.499375799718" y="596.3833792470156" font-size="10px">14.53x</text><text class="label" x="320.6060084039707" y="609.6065197428833" font-size="10px">10.24x</text><text class="label" x="174.33231508740832" y="622.8296602387511" font-size="10px">1x</text><text class="label" x="390.26153941739904" y="636.0528007346188" font-size="10px">14.64x</text><text class="label" x="322.8053324075825" y="649.2759412304866" font-size="10px">10.38x</text><text class="label" x="174.92836043132567" y="662.4990817263545" font-size="10px">1.04x</text><text class="label" x="384.999375799718" y="597.8833792470156" font-size="8px"></text><text class="label" x="317.1060084039707" y="611.1065197428833" font-size="8px"></text><text class="label" x="170.83231508740832" y="624.3296602387511" font-size="8px"></text><text class="label" x="386.76153941739904" y="637.5528007346188" font-size="8px"></text><text class="label" x="319.3053324075825" y="650.7759412304866" font-size="8px"></text><text class="label" x="171.42836043132567" y="663.9990817263545" font-size="8px"></text></g><g style="font-size: 13px;"><rect x="150" y="676.7722681359045" width="240.81528938480685" height="12.56198347107438" fill="#4472c4"></rect><rect x="150" y="689.9954086317722" width="58.55459545292934" height="12.56198347107438" fill="#ed7d31"></rect><rect x="150" y="703.21854912764" width="15.832315087408315" height="12.56198347107438" fill="#a5a5a5"></rect><rect x="150" y="716.4416896235077" width="212.76664095824364" height="12.56198347107438" fill="#ffc000"></rect><rect x="150" y="729.6648301193756" width="205.68073341694705" height="12.56198347107438" fill="#5b9bd5"></rect><rect x="150" y="742.8879706152434" width="16.13290760266329" height="12.56198347107438" fill="#70ad47"></rect><text class="label" x="399.3152893848069" y="685.2722681359045" font-size="10px">15.21x</text><text class="label" x="217.05459545292933" y="698.4954086317722" font-size="10px">3.7x</text><text class="label" x="174.33231508740832" y="711.71854912764" font-size="10px">1x</text><text class="label" x="371.26664095824367" y="724.9416896235077" font-size="10px">13.44x</text><text class="label" x="364.1807334169471" y="738.1648301193756" font-size="10px">12.99x</text><text class="label" x="174.6329076026633" y="751.3879706152434" font-size="10px">1.02x</text><text class="label" x="395.8152893848069" y="686.7722681359045" font-size="8px"></text><text class="label" x="213.55459545292933" y="699.9954086317722" font-size="8px"></text><text class="label" x="170.83231508740832" y="713.21854912764" font-size="8px"></text><text class="label" x="367.76664095824367" y="726.4416896235077" font-size="8px"></text><text class="label" x="360.6807334169471" y="739.6648301193756" font-size="8px"></text><text class="label" x="171.1329076026633" y="752.8879706152434" font-size="8px"></text></g></g></svg>