<svg xmlns="http://www.w3.org/2000/svg" xmlns:xlink="http://www.w3.org/1999/xlink" width="800" height="750" style="background-color: white;"><g class="y axis" transform="translate(149,45)" fill="none" font-size="10" font-family="sans-serif" text-anchor="end" style="font-size: 13px;"><path class="domain" stroke="currentColor" d="M0.5,0.5V675.5"></path><g class="tick" opacity="1" transform="translate(0,40.796703296703306)" style="font-size: 13px;"><line stroke="currentColor" x2="0"></line><text fill="currentColor" x="-3" dy="0.32em">object (simple)    </text></g><g class="tick" opacity="1" transform="translate(0,114.97252747252747)" style="font-size: 13px;"><line stroke="currentColor" x2="0"></line><text fill="currentColor" x="-3" dy="0.32em">object (hierarchical)    </text></g><g class="tick" opacity="1" transform="translate(0,189.14835164835165)" style="font-size: 13px;"><line stroke="currentColor" x2="0"></line><text fill="currentColor" x="-3" dy="0.32em">object (recursive)    </text></g><g class="tick" opacity="1" transform="translate(0,263.3241758241758)" style="font-size: 13px;"><line stroke="currentColor" x2="0"></line><text fill="currentColor" x="-3" dy="0.32em">object (union, explicit)    </text></g><g class="tick" opacity="1" transform="translate(0,337.5)" style="font-size: 13px;"><line stroke="currentColor" x2="0"></line><text fill="currentColor" x="-3" dy="0.32em">object (union, implicit)    </text></g><g class="tick" opacity="1" transform="translate(0,411.6758241758242)" style="font-size: 13px;"><line stroke="currentColor" x2="0"></line><text fill="currentColor" x="-3" dy="0.32em">array (recursive)    </text></g><g class="tick" opacity="1" transform="translate(0,485.85164835164835)" style="font-size: 13px;"><line stroke="currentColor" x2="0"></line><text fill="currentColor" x="-3" dy="0.32em">array (union, explicit)    </text></g><g class="tick" opacity="1" transform="translate(0,560.0274725274727)" style="font-size: 13px;"><line stroke="currentColor" x2="0"></line><text fill="currentColor" x="-3" dy="0.32em">array (union, implicit)    </text></g><g class="tick" opacity="1" transform="translate(0,634.2032967032968)" style="font-size: 13px;"><line stroke="currentColor" x2="0"></line><text fill="currentColor" x="-3" dy="0.32em">ultimate union    </text></g></g><g class="x axis" transform="translate(149,720)" fill="none" font-size="10" font-family="sans-serif" text-anchor="middle" style="font-size: 13px;"><path class="domain" stroke="currentColor" d="M0.5,0.5H485.5"></path><g class="tick" opacity="1" transform="translate(0.5,0)" style="font-size: 13px;"><line stroke="currentColor" y2="6"></line><text fill="currentColor" y="9" dy="0.71em">0x</text></g><g class="tick" opacity="1" transform="translate(125.59482668308041,0)" style="font-size: 13px;"><line stroke="currentColor" y2="6"></line><text fill="currentColor" y="9" dy="0.71em">500x</text></g><g class="tick" opacity="1" transform="translate(250.68965336616083,0)" style="font-size: 13px;"><line stroke="currentColor" y2="6"></line><text fill="currentColor" y="9" dy="0.71em">1,000x</text></g><g class="tick" opacity="1" transform="translate(375.7844800492413,0)" style="font-size: 13px;"><line stroke="currentColor" y2="6"></line><text fill="currentColor" y="9" dy="0.71em">1,500x</text></g></g><text transform="translate(400, 30)" style="text-anchor: middle; font-size: 20px; font-weight: bold;">assertType (iterate) benchmark</text><rect x="680" y="145" width="200" height="5" fill="gray"></rect><rect x="675" y="35" width="200" height="110" fill="none" stroke="black"></rect><rect x="685" y="45" width="10" height="10" style="fill: #4472c4;"></rect><text x="700" y="55" style="font-size: 12px;">typescript-json</text><rect x="685" y="65" width="10" height="10" style="fill: #ed7d31;"></rect><text x="700" y="75" style="font-size: 12px;">typebox</text><rect x="685" y="85" width="10" height="10" style="fill: #a5a5a5;"></rect><text x="700" y="95" style="font-size: 12px;">io-ts</text><rect x="685" y="105" width="10" height="10" style="fill: #ffc000;"></rect><text x="700" y="115" style="font-size: 12px;">zod</text><rect x="685" y="125" width="10" height="10" style="fill: #5b9bd5;"></rect><text x="700" y="135" style="font-size: 12px;">class-validator</text><g style="font-size: 13px;"><g style="font-size: 13px;"><rect x="150" y="53.07855510825809" width="440.9090909090909" height="12.55848112283756" fill="#4472c4"></rect><rect x="150" y="66.2980089217713" width="4.978368551210769" height="12.55848112283756" fill="#ed7d31"></rect><rect x="150" y="79.51746273528452" width="25.790722808400496" height="12.55848112283756" fill="#a5a5a5"></rect><rect x="150" y="92.73691654879775" width="7.972018464026937" height="12.55848112283756" fill="#ffc000"></rect><rect x="150" y="105.95637036231096" width="0.2501896533661609" height="12.55848112283756" fill="#5b9bd5"></rect><text class="label" x="599.4090909090909" y="61.57855510825809" font-size="10px">1,762x</text><text class="label" x="163.47836855121076" y="74.7980089217713" font-size="10px">20x</text><text class="label" x="184.2907228084005" y="88.01746273528452" font-size="10px">103x</text><text class="label" x="166.47201846402695" y="101.23691654879775" font-size="10px">32x</text><text class="label" x="158.75018965336616" y="114.45637036231096" font-size="10px">1x</text><text class="label" x="595.9090909090909" y="63.07855510825809" font-size="8px"></text><text class="label" x="159.97836855121076" y="76.2980089217713" font-size="8px"></text><text class="label" x="180.7907228084005" y="89.51746273528452" font-size="8px"></text><text class="label" x="162.97201846402695" y="102.73691654879775" font-size="8px"></text><text class="label" x="155.25018965336616" y="115.95637036231096" font-size="8px"></text></g><g style="font-size: 13px;"><rect x="150" y="127.25437928408226" width="285.20014470132674" height="12.55848112283756" fill="#4472c4"></rect><rect x="150" y="140.4738330975955" width="4.1358525577680805" height="12.55848112283756" fill="#ed7d31"></rect><rect x="150" y="153.69328691110871" width="19.17362142037592" height="12.55848112283756" fill="#a5a5a5"></rect><rect x="150" y="166.91274072462193" width="3.246477008241492" height="12.55848112283756" fill="#ffc000"></rect><rect x="150" y="180.13219453813514" width="0.2501896533661609" height="12.55848112283756" fill="#5b9bd5"></rect><text class="label" x="443.70014470132674" y="135.75437928408226" font-size="10px">1,140x</text><text class="label" x="162.6358525577681" y="148.9738330975955" font-size="10px">17x</text><text class="label" x="177.67362142037592" y="162.19328691110871" font-size="10px">77x</text><text class="label" x="161.7464770082415" y="175.41274072462193" font-size="10px">13x</text><text class="label" x="158.75018965336616" y="188.63219453813514" font-size="10px">1x</text><text class="label" x="440.20014470132674" y="137.25437928408226" font-size="8px"></text><text class="label" x="159.1358525577681" y="150.4738330975955" font-size="8px"></text><text class="label" x="174.17362142037592" y="163.69328691110871" font-size="8px"></text><text class="label" x="158.2464770082415" y="176.91274072462193" font-size="8px"></text><text class="label" x="155.25018965336616" y="190.13219453813514" font-size="8px"></text></g><g style="font-size: 13px;"><rect x="150" y="201.43020345990644" width="262.8771388641101" height="12.55848112283756" fill="#4472c4"></rect><rect x="150" y="214.64965727341965" width="2.6958118244770697" height="12.55848112283756" fill="#ed7d31"></rect><rect x="150" y="227.8691110869329" width="11.347088000863161" height="12.55848112283756" fill="#a5a5a5"></rect><rect x="150" y="241.0885649004461" width="0.8363482698240233" height="12.55848112283756" fill="#ffc000"></rect><rect x="150" y="254.3080187139593" width="0.2501896533661609" height="12.55848112283756" fill="#5b9bd5"></rect><text class="label" x="421.3771388641101" y="209.93020345990644" font-size="10px">1,051x</text><text class="label" x="161.19581182447706" y="223.14965727341965" font-size="10px">11x</text><text class="label" x="169.84708800086315" y="236.3691110869329" font-size="10px">45x</text><text class="label" x="159.33634826982401" y="249.5885649004461" font-size="10px">3x</text><text class="label" x="158.75018965336616" y="262.8080187139593" font-size="10px">1x</text><text class="label" x="417.8771388641101" y="211.43020345990644" font-size="8px"></text><text class="label" x="157.69581182447706" y="224.64965727341965" font-size="8px"></text><text class="label" x="166.34708800086315" y="237.8691110869329" font-size="8px"></text><text class="label" x="155.83634826982401" y="251.0885649004461" font-size="8px"></text><text class="label" x="155.25018965336616" y="264.3080187139593" font-size="8px"></text></g><g style="font-size: 13px;"><rect x="150" y="275.6060276357306" width="25.26579297977119" height="12.55848112283756" fill="#4472c4"></rect><rect x="150" y="288.82548144924385" width="0.5071441530375136" height="12.55848112283756" fill="#ed7d31"></rect><rect x="150" y="302.04493526275706" width="3.9356406390427234" height="12.55848112283756" fill="#a5a5a5"></rect><rect x="150" y="315.2643890762703" width="0.2501896533661609" height="12.55848112283756" fill="#ffc000"></rect><rect x="150" y="328.4838428897835" width="0.5588134554338072" height="12.55848112283756" fill="#5b9bd5"></rect><text class="label" x="183.7657929797712" y="284.1060276357306" font-size="10px">101x</text><text class="label" x="159.0071441530375" y="297.32548144924385" font-size="10px">2x</text><text class="label" x="162.43564063904273" y="310.54493526275706" font-size="10px">16x</text><text class="label" x="158.75018965336616" y="323.7643890762703" font-size="10px">1x</text><text class="label" x="159.0588134554338" y="336.9838428897835" font-size="10px">2x</text><text class="label" x="180.2657929797712" y="285.6060276357306" font-size="8px"></text><text class="label" x="155.5071441530375" y="298.82548144924385" font-size="8px"></text><text class="label" x="158.93564063904273" y="312.04493526275706" font-size="8px"></text><text class="label" x="155.25018965336616" y="325.2643890762703" font-size="8px"></text><text class="label" x="155.5588134554338" y="338.4838428897835" font-size="8px"></text></g><g style="font-size: 13px;"><rect x="150" y="349.7818518115548" width="485" height="12.55848112283756" fill="#4472c4"></rect><rect x="150" y="363.001305625068" width="0" height="12.55848112283756" fill="#ed7d31"></rect><rect x="150" y="376.22075943858124" width="0" height="12.55848112283756" fill="#a5a5a5"></rect><rect x="150" y="389.44021325209445" width="0" height="12.55848112283756" fill="#ffc000"></rect><rect x="150" y="402.65966706560766" width="0" height="12.55848112283756" fill="#5b9bd5"></rect><text class="label" x="643.5" y="358.2818518115548" font-size="10px">Infinity</text><text class="label" x="158.5" y="371.501305625068" font-size="10px"></text><text class="label" x="158.5" y="384.72075943858124" font-size="10px"></text><text class="label" x="158.5" y="397.94021325209445" font-size="10px"></text><text class="label" x="158.5" y="411.15966706560766" font-size="10px"></text><text class="label" x="640" y="359.7818518115548" font-size="8px"></text><text class="label" x="155" y="373.001305625068" font-size="8px">Failed</text><text class="label" x="155" y="386.22075943858124" font-size="8px">Failed</text><text class="label" x="155" y="399.44021325209445" font-size="8px">Failed</text><text class="label" x="155" y="412.65966706560766" font-size="8px">Failed</text></g><g style="font-size: 13px;"><rect x="150" y="423.95767598737893" width="38.64565978884037" height="12.55848112283756" fill="#4472c4"></rect><rect x="150" y="437.1771298008922" width="0.7663964568762384" height="12.55848112283756" fill="#ed7d31"></rect><rect x="150" y="450.3965836144054" width="2.773100218337075" height="12.55848112283756" fill="#a5a5a5"></rect><rect x="150" y="463.6160374279186" width="0.2501896533661609" height="12.55848112283756" fill="#ffc000"></rect><rect x="150" y="476.83549124143184" width="0" height="12.55848112283756" fill="#5b9bd5"></rect><text class="label" x="197.14565978884036" y="432.45767598737893" font-size="10px">154x</text><text class="label" x="159.26639645687624" y="445.6771298008922" font-size="10px">3x</text><text class="label" x="161.27310021833708" y="458.8965836144054" font-size="10px">11x</text><text class="label" x="158.75018965336616" y="472.1160374279186" font-size="10px">1x</text><text class="label" x="158.5" y="485.33549124143184" font-size="10px"></text><text class="label" x="193.64565978884036" y="433.95767598737893" font-size="8px"></text><text class="label" x="155.76639645687624" y="447.1771298008922" font-size="8px"></text><text class="label" x="157.77310021833708" y="460.3965836144054" font-size="8px"></text><text class="label" x="155.25018965336616" y="473.6160374279186" font-size="8px"></text><text class="label" x="155" y="486.83549124143184" font-size="8px">Failed</text></g><g style="font-size: 13px;"><rect x="150" y="498.13350016320317" width="108.22417146094052" height="12.55848112283756" fill="#4472c4"></rect><rect x="150" y="511.3529539767164" width="0.8589343509065906" height="12.55848112283756" fill="#ed7d31"></rect><rect x="150" y="524.5724077902296" width="4.101042004835913" height="12.55848112283756" fill="#a5a5a5"></rect><rect x="150" y="537.7918616037427" width="0.2501896533661609" height="12.55848112283756" fill="#ffc000"></rect><rect x="150" y="551.011315417256" width="2.117685120960722" height="12.55848112283756" fill="#5b9bd5"></rect><text class="label" x="266.7241714609405" y="506.63350016320317" font-size="10px">433x</text><text class="label" x="159.3589343509066" y="519.8529539767164" font-size="10px">3x</text><text class="label" x="162.6010420048359" y="533.0724077902296" font-size="10px">16x</text><text class="label" x="158.75018965336616" y="546.2918616037427" font-size="10px">1x</text><text class="label" x="160.61768512096072" y="559.511315417256" font-size="10px">8x</text><text class="label" x="263.2241714609405" y="508.13350016320317" font-size="8px"></text><text class="label" x="155.8589343509066" y="521.3529539767164" font-size="8px"></text><text class="label" x="159.1010420048359" y="534.5724077902296" font-size="8px"></text><text class="label" x="155.25018965336616" y="547.7918616037427" font-size="8px"></text><text class="label" x="157.11768512096072" y="561.011315417256" font-size="8px"></text></g><g style="font-size: 13px;"><rect x="150" y="572.3093243390274" width="485" height="12.55848112283756" fill="#4472c4"></rect><rect x="150" y="585.5287781525407" width="0" height="12.55848112283756" fill="#ed7d31"></rect><rect x="150" y="598.7482319660538" width="0" height="12.55848112283756" fill="#a5a5a5"></rect><rect x="150" y="611.9676857795671" width="0" height="12.55848112283756" fill="#ffc000"></rect><rect x="150" y="625.1871395930804" width="0" height="12.55848112283756" fill="#5b9bd5"></rect><text class="label" x="643.5" y="580.8093243390274" font-size="10px">Infinity</text><text class="label" x="158.5" y="594.0287781525407" font-size="10px"></text><text class="label" x="158.5" y="607.2482319660538" font-size="10px"></text><text class="label" x="158.5" y="620.4676857795671" font-size="10px"></text><text class="label" x="158.5" y="633.6871395930804" font-size="10px"></text><text class="label" x="640" y="582.3093243390274" font-size="8px"></text><text class="label" x="155" y="595.5287781525407" font-size="8px">Failed</text><text class="label" x="155" y="608.7482319660538" font-size="8px">Failed</text><text class="label" x="155" y="621.9676857795671" font-size="8px">Failed</text><text class="label" x="155" y="635.1871395930804" font-size="8px">Failed</text></g><g style="font-size: 13px;"><rect x="150" y="646.4851485148515" width="485" height="12.55848112283756" fill="#4472c4"></rect><rect x="150" y="659.7046023283648" width="0" height="12.55848112283756" fill="#ed7d31"></rect><rect x="150" y="672.9240561418779" width="0" height="12.55848112283756" fill="#a5a5a5"></rect><rect x="150" y="686.1435099553912" width="0" height="12.55848112283756" fill="#ffc000"></rect><rect x="150" y="699.3629637689045" width="0" height="12.55848112283756" fill="#5b9bd5"></rect><text class="label" x="643.5" y="654.9851485148515" font-size="10px">Infinity</text><text class="label" x="158.5" y="668.2046023283648" font-size="10px"></text><text class="label" x="158.5" y="681.4240561418779" font-size="10px"></text><text class="label" x="158.5" y="694.6435099553912" font-size="10px"></text><text class="label" x="158.5" y="707.8629637689045" font-size="10px"></text><text class="label" x="640" y="656.4851485148515" font-size="8px"></text><text class="label" x="155" y="669.7046023283648" font-size="8px">Failed</text><text class="label" x="155" y="682.9240561418779" font-size="8px">Failed</text><text class="label" x="155" y="696.1435099553912" font-size="8px">Failed</text><text class="label" x="155" y="709.3629637689045" font-size="8px">Failed</text></g></g></svg>