<svg xmlns="http://www.w3.org/2000/svg" xmlns:xlink="http://www.w3.org/1999/xlink" width="800" height="750" style="background-color: white;"><g class="y axis" transform="translate(149,45)" fill="none" font-size="10" font-family="sans-serif" text-anchor="end" style="font-size: 13px;"><path class="domain" stroke="currentColor" d="M0.5,0.5V675.5"></path><g class="tick" opacity="1" transform="translate(0,40.796703296703306)" style="font-size: 13px;"><line stroke="currentColor" x2="0"></line><text fill="currentColor" x="-3" dy="0.32em">object (simple)    </text></g><g class="tick" opacity="1" transform="translate(0,114.97252747252747)" style="font-size: 13px;"><line stroke="currentColor" x2="0"></line><text fill="currentColor" x="-3" dy="0.32em">object (hierarchical)    </text></g><g class="tick" opacity="1" transform="translate(0,189.14835164835165)" style="font-size: 13px;"><line stroke="currentColor" x2="0"></line><text fill="currentColor" x="-3" dy="0.32em">object (recursive)    </text></g><g class="tick" opacity="1" transform="translate(0,263.3241758241758)" style="font-size: 13px;"><line stroke="currentColor" x2="0"></line><text fill="currentColor" x="-3" dy="0.32em">object (union, explicit)    </text></g><g class="tick" opacity="1" transform="translate(0,337.5)" style="font-size: 13px;"><line stroke="currentColor" x2="0"></line><text fill="currentColor" x="-3" dy="0.32em">object (union, implicit)    </text></g><g class="tick" opacity="1" transform="translate(0,411.6758241758242)" style="font-size: 13px;"><line stroke="currentColor" x2="0"></line><text fill="currentColor" x="-3" dy="0.32em">array (recursive)    </text></g><g class="tick" opacity="1" transform="translate(0,485.85164835164835)" style="font-size: 13px;"><line stroke="currentColor" x2="0"></line><text fill="currentColor" x="-3" dy="0.32em">array (union, explicit)    </text></g><g class="tick" opacity="1" transform="translate(0,560.0274725274727)" style="font-size: 13px;"><line stroke="currentColor" x2="0"></line><text fill="currentColor" x="-3" dy="0.32em">array (union, implicit)    </text></g><g class="tick" opacity="1" transform="translate(0,634.2032967032968)" style="font-size: 13px;"><line stroke="currentColor" x2="0"></line><text fill="currentColor" x="-3" dy="0.32em">ultimate union    </text></g></g><g class="x axis" transform="translate(149,720)" fill="none" font-size="10" font-family="sans-serif" text-anchor="middle" style="font-size: 13px;"><path class="domain" stroke="currentColor" d="M0.5,0.5H485.5"></path><g class="tick" opacity="1" transform="translate(0.5,0)" style="font-size: 13px;"><line stroke="currentColor" y2="6"></line><text fill="currentColor" y="9" dy="0.71em">0x</text></g><g class="tick" opacity="1" transform="translate(110.87728888032996,0)" style="font-size: 13px;"><line stroke="currentColor" y2="6"></line><text fill="currentColor" y="9" dy="0.71em">200x</text></g><g class="tick" opacity="1" transform="translate(221.2545777606599,0)" style="font-size: 13px;"><line stroke="currentColor" y2="6"></line><text fill="currentColor" y="9" dy="0.71em">400x</text></g><g class="tick" opacity="1" transform="translate(331.63186664098987,0)" style="font-size: 13px;"><line stroke="currentColor" y2="6"></line><text fill="currentColor" y="9" dy="0.71em">600x</text></g><g class="tick" opacity="1" transform="translate(442.0091555213198,0)" style="font-size: 13px;"><line stroke="currentColor" y2="6"></line><text fill="currentColor" y="9" dy="0.71em">800x</text></g></g><text transform="translate(400, 30)" style="text-anchor: middle; font-size: 20px; font-weight: bold;">assert (throw) benchmark</text><rect x="680" y="145" width="200" height="5" fill="gray"></rect><rect x="675" y="35" width="200" height="110" fill="none" stroke="black"></rect><rect x="685" y="45" width="10" height="10" style="fill: #4472c4;"></rect><text x="700" y="55" style="font-size: 12px;">typia</text><rect x="685" y="65" width="10" height="10" style="fill: #ed7d31;"></rect><text x="700" y="75" style="font-size: 12px;">typebox</text><rect x="685" y="85" width="10" height="10" style="fill: #a5a5a5;"></rect><text x="700" y="95" style="font-size: 12px;">io-ts</text><rect x="685" y="105" width="10" height="10" style="fill: #ffc000;"></rect><text x="700" y="115" style="font-size: 12px;">zod</text><rect x="685" y="125" width="10" height="10" style="fill: #5b9bd5;"></rect><text x="700" y="135" style="font-size: 12px;">class-validator</text><g style="font-size: 13px;"><g style="font-size: 13px;"><rect x="150" y="53.07855510825809" width="273.20708467619306" height="12.55848112283756" fill="#4472c4"></rect><rect x="150" y="66.2980089217713" width="11.407789874668746" height="12.55848112283756" fill="#ed7d31"></rect><rect x="150" y="79.51746273528452" width="51.14912065456747" height="12.55848112283756" fill="#a5a5a5"></rect><rect x="150" y="92.73691654879775" width="0" height="12.55848112283756" fill="#ffc000"></rect><rect x="150" y="105.95637036231096" width="0.5518864444016498" height="12.55848112283756" fill="#5b9bd5"></rect><text class="label" x="431.70708467619306" y="61.57855510825809" font-size="10px">495x</text><text class="label" x="169.90778987466874" y="74.7980089217713" font-size="10px">21x</text><text class="label" x="209.64912065456747" y="88.01746273528452" font-size="10px">93x</text><text class="label" x="158.5" y="101.23691654879775" font-size="10px"></text><text class="label" x="159.05188644440165" y="114.45637036231096" font-size="10px">1x</text><text class="label" x="428.20708467619306" y="63.07855510825809" font-size="8px"></text><text class="label" x="166.40778987466874" y="76.2980089217713" font-size="8px"></text><text class="label" x="206.14912065456747" y="89.51746273528452" font-size="8px"></text><text class="label" x="155" y="102.73691654879775" font-size="8px">Failed</text><text class="label" x="155.55188644440165" y="115.95637036231096" font-size="8px"></text></g><g style="font-size: 13px;"><rect x="150" y="127.25437928408226" width="440.9090909090908" height="12.55848112283756" fill="#4472c4"></rect><rect x="150" y="140.4738330975955" width="10.022999862528113" height="12.55848112283756" fill="#ed7d31"></rect><rect x="150" y="153.69328691110871" width="46.38798741156769" height="12.55848112283756" fill="#a5a5a5"></rect><rect x="150" y="166.91274072462193" width="8.240755492776394" height="12.55848112283756" fill="#ffc000"></rect><rect x="150" y="180.13219453813514" width="0.5518864444016498" height="12.55848112283756" fill="#5b9bd5"></rect><text class="label" x="599.4090909090908" y="135.75437928408226" font-size="10px">799x</text><text class="label" x="168.5229998625281" y="148.9738330975955" font-size="10px">18x</text><text class="label" x="204.88798741156768" y="162.19328691110871" font-size="10px">84x</text><text class="label" x="166.7407554927764" y="175.41274072462193" font-size="10px">15x</text><text class="label" x="159.05188644440165" y="188.63219453813514" font-size="10px">1x</text><text class="label" x="595.9090909090908" y="137.25437928408226" font-size="8px"></text><text class="label" x="165.0229998625281" y="150.4738330975955" font-size="8px"></text><text class="label" x="201.38798741156768" y="163.69328691110871" font-size="8px"></text><text class="label" x="163.2407554927764" y="176.91274072462193" font-size="8px"></text><text class="label" x="155.55188644440165" y="190.13219453813514" font-size="8px"></text></g><g style="font-size: 13px;"><rect x="150" y="201.43020345990644" width="27.62535198000869" height="12.55848112283756" fill="#4472c4"></rect><rect x="150" y="214.64965727341965" width="0" height="12.55848112283756" fill="#ed7d31"></rect><rect x="150" y="227.8691110869329" width="0" height="12.55848112283756" fill="#a5a5a5"></rect><rect x="150" y="241.0885649004461" width="0" height="12.55848112283756" fill="#ffc000"></rect><rect x="150" y="254.3080187139593" width="0.5518864444016498" height="12.55848112283756" fill="#5b9bd5"></rect><text class="label" x="186.1253519800087" y="209.93020345990644" font-size="10px">50x</text><text class="label" x="158.5" y="223.14965727341965" font-size="10px"></text><text class="label" x="158.5" y="236.3691110869329" font-size="10px"></text><text class="label" x="158.5" y="249.5885649004461" font-size="10px"></text><text class="label" x="159.05188644440165" y="262.8080187139593" font-size="10px">1x</text><text class="label" x="182.6253519800087" y="211.43020345990644" font-size="8px"></text><text class="label" x="155" y="224.64965727341965" font-size="8px">Failed</text><text class="label" x="155" y="237.8691110869329" font-size="8px">Failed</text><text class="label" x="155" y="251.0885649004461" font-size="8px">Failed</text><text class="label" x="155.55188644440165" y="264.3080187139593" font-size="8px"></text></g><g style="font-size: 13px;"><rect x="150" y="275.6060276357306" width="55.46458766236581" height="12.55848112283756" fill="#4472c4"></rect><rect x="150" y="288.82548144924385" width="1.230882413267666" height="12.55848112283756" fill="#ed7d31"></rect><rect x="150" y="302.04493526275706" width="10.623472865661126" height="12.55848112283756" fill="#a5a5a5"></rect><rect x="150" y="315.2643890762703" width="0.5518864444016498" height="12.55848112283756" fill="#ffc000"></rect><rect x="150" y="328.4838428897835" width="1.2492503223436286" height="12.55848112283756" fill="#5b9bd5"></rect><text class="label" x="213.9645876623658" y="284.1060276357306" font-size="10px">101x</text><text class="label" x="159.73088241326766" y="297.32548144924385" font-size="10px">2x</text><text class="label" x="169.1234728656611" y="310.54493526275706" font-size="10px">19x</text><text class="label" x="159.05188644440165" y="323.7643890762703" font-size="10px">1x</text><text class="label" x="159.74925032234364" y="336.9838428897835" font-size="10px">2x</text><text class="label" x="210.4645876623658" y="285.6060276357306" font-size="8px"></text><text class="label" x="156.23088241326766" y="298.82548144924385" font-size="8px"></text><text class="label" x="165.6234728656611" y="312.04493526275706" font-size="8px"></text><text class="label" x="155.55188644440165" y="325.2643890762703" font-size="8px"></text><text class="label" x="156.24925032234364" y="338.4838428897835" font-size="8px"></text></g><g style="font-size: 13px;"><rect x="150" y="349.7818518115548" width="485" height="12.55848112283756" fill="#4472c4"></rect><rect x="150" y="363.001305625068" width="0" height="12.55848112283756" fill="#ed7d31"></rect><rect x="150" y="376.22075943858124" width="0" height="12.55848112283756" fill="#a5a5a5"></rect><rect x="150" y="389.44021325209445" width="0" height="12.55848112283756" fill="#ffc000"></rect><rect x="150" y="402.65966706560766" width="0" height="12.55848112283756" fill="#5b9bd5"></rect><text class="label" x="643.5" y="358.2818518115548" font-size="10px">Infinity</text><text class="label" x="158.5" y="371.501305625068" font-size="10px"></text><text class="label" x="158.5" y="384.72075943858124" font-size="10px"></text><text class="label" x="158.5" y="397.94021325209445" font-size="10px"></text><text class="label" x="158.5" y="411.15966706560766" font-size="10px"></text><text class="label" x="640" y="359.7818518115548" font-size="8px"></text><text class="label" x="155" y="373.001305625068" font-size="8px">Failed</text><text class="label" x="155" y="386.22075943858124" font-size="8px">Failed</text><text class="label" x="155" y="399.44021325209445" font-size="8px">Failed</text><text class="label" x="155" y="412.65966706560766" font-size="8px">Failed</text></g><g style="font-size: 13px;"><rect x="150" y="423.95767598737893" width="68.28901907263082" height="12.55848112283756" fill="#4472c4"></rect><rect x="150" y="437.1771298008922" width="2.532757334116608" height="12.55848112283756" fill="#ed7d31"></rect><rect x="150" y="450.3965836144054" width="7.85063442413977" height="12.55848112283756" fill="#a5a5a5"></rect><rect x="150" y="463.6160374279186" width="0.8344426849994442" height="12.55848112283756" fill="#ffc000"></rect><rect x="150" y="476.83549124143184" width="0.5518864444016498" height="12.55848112283756" fill="#5b9bd5"></rect><text class="label" x="226.78901907263082" y="432.45767598737893" font-size="10px">124x</text><text class="label" x="161.0327573341166" y="445.6771298008922" font-size="10px">5x</text><text class="label" x="166.35063442413977" y="458.8965836144054" font-size="10px">14x</text><text class="label" x="159.33444268499943" y="472.1160374279186" font-size="10px">2x</text><text class="label" x="159.05188644440165" y="485.33549124143184" font-size="10px">1x</text><text class="label" x="223.28901907263082" y="433.95767598737893" font-size="8px"></text><text class="label" x="157.5327573341166" y="447.1771298008922" font-size="8px"></text><text class="label" x="162.85063442413977" y="460.3965836144054" font-size="8px"></text><text class="label" x="155.83444268499943" y="473.6160374279186" font-size="8px"></text><text class="label" x="155.55188644440165" y="486.83549124143184" font-size="8px"></text></g><g style="font-size: 13px;"><rect x="150" y="498.13350016320317" width="28.844937601781982" height="12.55848112283756" fill="#4472c4"></rect><rect x="150" y="511.3529539767164" width="1.2829110826629422" height="12.55848112283756" fill="#ed7d31"></rect><rect x="150" y="524.5724077902296" width="3.388595165925518" height="12.55848112283756" fill="#a5a5a5"></rect><rect x="150" y="537.7918616037427" width="0.5518864444016498" height="12.55848112283756" fill="#ffc000"></rect><rect x="150" y="551.011315417256" width="2.013183545101848" height="12.55848112283756" fill="#5b9bd5"></rect><text class="label" x="187.344937601782" y="506.63350016320317" font-size="10px">52x</text><text class="label" x="159.78291108266293" y="519.8529539767164" font-size="10px">2x</text><text class="label" x="161.88859516592552" y="533.0724077902296" font-size="10px">6x</text><text class="label" x="159.05188644440165" y="546.2918616037427" font-size="10px">1x</text><text class="label" x="160.51318354510184" y="559.511315417256" font-size="10px">4x</text><text class="label" x="183.844937601782" y="508.13350016320317" font-size="8px"></text><text class="label" x="156.28291108266293" y="521.3529539767164" font-size="8px"></text><text class="label" x="158.38859516592552" y="534.5724077902296" font-size="8px"></text><text class="label" x="155.55188644440165" y="547.7918616037427" font-size="8px"></text><text class="label" x="157.01318354510184" y="561.011315417256" font-size="8px"></text></g><g style="font-size: 13px;"><rect x="150" y="572.3093243390274" width="485" height="12.55848112283756" fill="#4472c4"></rect><rect x="150" y="585.5287781525407" width="0" height="12.55848112283756" fill="#ed7d31"></rect><rect x="150" y="598.7482319660538" width="0" height="12.55848112283756" fill="#a5a5a5"></rect><rect x="150" y="611.9676857795671" width="0" height="12.55848112283756" fill="#ffc000"></rect><rect x="150" y="625.1871395930804" width="0" height="12.55848112283756" fill="#5b9bd5"></rect><text class="label" x="643.5" y="580.8093243390274" font-size="10px">Infinity</text><text class="label" x="158.5" y="594.0287781525407" font-size="10px"></text><text class="label" x="158.5" y="607.2482319660538" font-size="10px"></text><text class="label" x="158.5" y="620.4676857795671" font-size="10px"></text><text class="label" x="158.5" y="633.6871395930804" font-size="10px"></text><text class="label" x="640" y="582.3093243390274" font-size="8px"></text><text class="label" x="155" y="595.5287781525407" font-size="8px">Failed</text><text class="label" x="155" y="608.7482319660538" font-size="8px">Failed</text><text class="label" x="155" y="621.9676857795671" font-size="8px">Failed</text><text class="label" x="155" y="635.1871395930804" font-size="8px">Failed</text></g><g style="font-size: 13px;"><rect x="150" y="646.4851485148515" width="485" height="12.55848112283756" fill="#4472c4"></rect><rect x="150" y="659.7046023283648" width="0" height="12.55848112283756" fill="#ed7d31"></rect><rect x="150" y="672.9240561418779" width="0" height="12.55848112283756" fill="#a5a5a5"></rect><rect x="150" y="686.1435099553912" width="0" height="12.55848112283756" fill="#ffc000"></rect><rect x="150" y="699.3629637689045" width="0" height="12.55848112283756" fill="#5b9bd5"></rect><text class="label" x="643.5" y="654.9851485148515" font-size="10px">Infinity</text><text class="label" x="158.5" y="668.2046023283648" font-size="10px"></text><text class="label" x="158.5" y="681.4240561418779" font-size="10px"></text><text class="label" x="158.5" y="694.6435099553912" font-size="10px"></text><text class="label" x="158.5" y="707.8629637689045" font-size="10px"></text><text class="label" x="640" y="656.4851485148515" font-size="8px"></text><text class="label" x="155" y="669.7046023283648" font-size="8px">Failed</text><text class="label" x="155" y="682.9240561418779" font-size="8px">Failed</text><text class="label" x="155" y="696.1435099553912" font-size="8px">Failed</text><text class="label" x="155" y="709.3629637689045" font-size="8px">Failed</text></g></g></svg>