<svg xmlns="http://www.w3.org/2000/svg" xmlns:xlink="http://www.w3.org/1999/xlink" width="800" height="390" style="background-color: white;"><g class="y axis" transform="translate(149,45)" fill="none" font-size="10" font-family="sans-serif" text-anchor="end" style="font-size: 13px;"><path class="domain" stroke="currentColor" d="M0.5,0.5V315.5"></path><g class="tick" opacity="1" transform="translate(0,24.40140845070425)" style="font-size: 13px;"><line stroke="currentColor" x2="0"></line><text fill="currentColor" x="-3" dy="0.32em">object (hierarchical)    </text></g><g class="tick" opacity="1" transform="translate(0,68.76760563380283)" style="font-size: 13px;"><line stroke="currentColor" x2="0"></line><text fill="currentColor" x="-3" dy="0.32em">object (recursive)    </text></g><g class="tick" opacity="1" transform="translate(0,113.13380281690142)" style="font-size: 13px;"><line stroke="currentColor" x2="0"></line><text fill="currentColor" x="-3" dy="0.32em">object (union)    </text></g><g class="tick" opacity="1" transform="translate(0,157.5)" style="font-size: 13px;"><line stroke="currentColor" x2="0"></line><text fill="currentColor" x="-3" dy="0.32em">array (hierarchical)    </text></g><g class="tick" opacity="1" transform="translate(0,201.8661971830986)" style="font-size: 13px;"><line stroke="currentColor" x2="0"></line><text fill="currentColor" x="-3" dy="0.32em">array (recursive)    </text></g><g class="tick" opacity="1" transform="translate(0,246.23239436619718)" style="font-size: 13px;"><line stroke="currentColor" x2="0"></line><text fill="currentColor" x="-3" dy="0.32em">array (union)    </text></g><g class="tick" opacity="1" transform="translate(0,290.59859154929575)" style="font-size: 13px;"><line stroke="currentColor" x2="0"></line><text fill="currentColor" x="-3" dy="0.32em">ultimate union    </text></g></g><g class="x axis" transform="translate(149,360)" fill="none" font-size="10" font-family="sans-serif" text-anchor="middle" style="font-size: 13px;"><path class="domain" stroke="currentColor" d="M0.5,0.5H485.5"></path><g class="tick" opacity="1" transform="translate(0.5,0)" style="font-size: 13px;"><line stroke="currentColor" y2="6"></line><text fill="currentColor" y="9" dy="0.71em">0x</text></g><g class="tick" opacity="1" transform="translate(129.42022249548944,0)" style="font-size: 13px;"><line stroke="currentColor" y2="6"></line><text fill="currentColor" y="9" dy="0.71em">5,000x</text></g><g class="tick" opacity="1" transform="translate(258.3404449909789,0)" style="font-size: 13px;"><line stroke="currentColor" y2="6"></line><text fill="currentColor" y="9" dy="0.71em">10,000x</text></g><g class="tick" opacity="1" transform="translate(387.2606674864683,0)" style="font-size: 13px;"><line stroke="currentColor" y2="6"></line><text fill="currentColor" y="9" dy="0.71em">15,000x</text></g></g><text transform="translate(400, 30)" style="text-anchor: middle; font-size: 20px; font-weight: bold;">optimizer benchmark</text><rect x="680" y="105" width="200" height="5" fill="gray"></rect><rect x="675" y="35" width="200" height="70" fill="none" stroke="black"></rect><rect x="685" y="45" width="10" height="10" style="fill: #4472c4;"></rect><text x="700" y="55" style="font-size: 12px;">typescript-json</text><rect x="685" y="65" width="10" height="10" style="fill: #ed7d31;"></rect><text x="700" y="75" style="font-size: 12px;">typebox</text><rect x="685" y="85" width="10" height="10" style="fill: #a5a5a5;"></rect><text x="700" y="95" style="font-size: 12px;">ajv</text><g style="font-size: 13px;"><g style="font-size: 13px;"><rect x="150" y="50.091202955437566" width="440.9090909090909" height="12.437081505425995" fill="#4472c4"></rect><rect x="150" y="63.18286769799125" width="0.7073869906901763" height="12.437081505425995" fill="#ed7d31"></rect><rect x="150" y="76.27453244054493" width="0.02578404449909789" height="12.437081505425995" fill="#a5a5a5"></rect><text class="label" x="599.4090909090909" y="58.591202955437566" font-size="10px">17,100x</text><text class="label" x="159.20738699069017" y="71.68286769799124" font-size="10px">27x</text><text class="label" x="158.5257840444991" y="84.77453244054493" font-size="10px">1x</text><text class="label" x="595.9090909090909" y="60.091202955437566" font-size="8px"></text><text class="label" x="155.70738699069017" y="73.18286769799124" font-size="8px"></text><text class="label" x="155.0257840444991" y="86.27453244054493" font-size="8px"></text></g><g style="font-size: 13px;"><rect x="150" y="94.45740013853616" width="132.01842270141697" height="12.437081505425995" fill="#4472c4"></rect><rect x="150" y="107.54906488108983" width="1.6990425173045625" height="12.437081505425995" fill="#ed7d31"></rect><rect x="150" y="120.64072962364352" width="0.02578404449909789" height="12.437081505425995" fill="#a5a5a5"></rect><text class="label" x="290.51842270141697" y="102.95740013853616" font-size="10px">5,120x</text><text class="label" x="160.19904251730458" y="116.04906488108983" font-size="10px">66x</text><text class="label" x="158.5257840444991" y="129.14072962364352" font-size="10px">1x</text><text class="label" x="287.01842270141697" y="104.45740013853616" font-size="8px"></text><text class="label" x="156.69904251730458" y="117.54906488108983" font-size="8px"></text><text class="label" x="155.0257840444991" y="130.64072962364352" font-size="8px"></text></g><g style="font-size: 13px;"><rect x="150" y="138.82359732163474" width="84.55053079023747" height="12.437081505425995" fill="#4472c4"></rect><rect x="150" y="151.91526206418843" width="0.42154742622793984" height="12.437081505425995" fill="#ed7d31"></rect><rect x="150" y="165.00692680674211" width="0.02578404449909789" height="12.437081505425995" fill="#a5a5a5"></rect><text class="label" x="243.05053079023747" y="147.32359732163474" font-size="10px">3,279x</text><text class="label" x="158.92154742622793" y="160.41526206418843" font-size="10px">16x</text><text class="label" x="158.5257840444991" y="173.50692680674211" font-size="10px">1x</text><text class="label" x="239.55053079023747" y="148.82359732163474" font-size="8px"></text><text class="label" x="155.42154742622793" y="161.91526206418843" font-size="8px"></text><text class="label" x="155.0257840444991" y="175.00692680674211" font-size="8px"></text></g><g style="font-size: 13px;"><rect x="150" y="183.18979450473333" width="15.378302791694448" height="12.437081505425995" fill="#4472c4"></rect><rect x="150" y="196.281459247287" width="2.941311401264012" height="12.437081505425995" fill="#ed7d31"></rect><rect x="150" y="209.37312398984068" width="0.02578404449909789" height="12.437081505425995" fill="#a5a5a5"></rect><text class="label" x="173.87830279169444" y="191.68979450473333" font-size="10px">596x</text><text class="label" x="161.44131140126402" y="204.781459247287" font-size="10px">114x</text><text class="label" x="158.5257840444991" y="217.87312398984068" font-size="10px">1x</text><text class="label" x="170.37830279169444" y="193.18979450473333" font-size="8px"></text><text class="label" x="157.94131140126402" y="206.281459247287" font-size="8px"></text><text class="label" x="155.0257840444991" y="219.37312398984068" font-size="8px"></text></g><g style="font-size: 13px;"><rect x="150" y="227.55599168783192" width="10.933406045549654" height="12.437081505425995" fill="#4472c4"></rect><rect x="150" y="240.64765643038558" width="1.614249778161286" height="12.437081505425995" fill="#ed7d31"></rect><rect x="150" y="253.73932117293927" width="0.02578404449909789" height="12.437081505425995" fill="#a5a5a5"></rect><text class="label" x="169.43340604554965" y="236.05599168783192" font-size="10px">424x</text><text class="label" x="160.11424977816128" y="249.14765643038558" font-size="10px">63x</text><text class="label" x="158.5257840444991" y="262.2393211729393" font-size="10px">1x</text><text class="label" x="165.93340604554965" y="237.55599168783192" font-size="8px"></text><text class="label" x="156.61424977816128" y="250.64765643038558" font-size="8px"></text><text class="label" x="155.0257840444991" y="263.7393211729393" font-size="8px"></text></g><g style="font-size: 13px;"><rect x="150" y="271.92218887093054" width="11.702745960562702" height="12.437081505425995" fill="#4472c4"></rect><rect x="150" y="285.0138536134842" width="0.7577846483630416" height="12.437081505425995" fill="#ed7d31"></rect><rect x="150" y="298.10551835603786" width="0.02578404449909789" height="12.437081505425995" fill="#a5a5a5"></rect><text class="label" x="170.2027459605627" y="280.42218887093054" font-size="10px">454x</text><text class="label" x="159.25778464836304" y="293.5138536134842" font-size="10px">29x</text><text class="label" x="158.5257840444991" y="306.60551835603786" font-size="10px">1x</text><text class="label" x="166.7027459605627" y="281.92218887093054" font-size="8px"></text><text class="label" x="155.75778464836304" y="295.0138536134842" font-size="8px"></text><text class="label" x="155.0257840444991" y="308.10551835603786" font-size="8px"></text></g><g style="font-size: 13px;"><rect x="150" y="316.28838605402905" width="14.000634221679384" height="12.437081505425995" fill="#4472c4"></rect><rect x="150" y="329.38005079658274" width="0.28434828512494026" height="12.437081505425995" fill="#ed7d31"></rect><rect x="150" y="342.4717155391364" width="0.02578404449909789" height="12.437081505425995" fill="#a5a5a5"></rect><text class="label" x="172.50063422167938" y="324.78838605402905" font-size="10px">543x</text><text class="label" x="158.78434828512493" y="337.88005079658274" font-size="10px">11x</text><text class="label" x="158.5257840444991" y="350.9717155391364" font-size="10px">1x</text><text class="label" x="169.00063422167938" y="326.28838605402905" font-size="8px"></text><text class="label" x="155.28434828512493" y="339.38005079658274" font-size="8px"></text><text class="label" x="155.0257840444991" y="352.4717155391364" font-size="8px"></text></g></g></svg>