<svg xmlns="http://www.w3.org/2000/svg" xmlns:xlink="http://www.w3.org/1999/xlink" width="800" height="795" style="background-color: white;"><g class="y axis" transform="translate(149,45)" fill="none" font-size="10" font-family="sans-serif" text-anchor="end" style="font-size: 13px;"><path class="domain" stroke="currentColor" d="M0.5,0.5V720.5"></path><g class="tick" opacity="1" transform="translate(0,48.88888888888886)" style="font-size: 13px;"><line stroke="currentColor" x2="0"></line><text fill="currentColor" x="-3" dy="0.32em">object (simple)    </text></g><g class="tick" opacity="1" transform="translate(0,137.77777777777774)" style="font-size: 13px;"><line stroke="currentColor" x2="0"></line><text fill="currentColor" x="-3" dy="0.32em">object (hierarchical)    </text></g><g class="tick" opacity="1" transform="translate(0,226.66666666666663)" style="font-size: 13px;"><line stroke="currentColor" x2="0"></line><text fill="currentColor" x="-3" dy="0.32em">object (recursive)    </text></g><g class="tick" opacity="1" transform="translate(0,315.5555555555555)" style="font-size: 13px;"><line stroke="currentColor" x2="0"></line><text fill="currentColor" x="-3" dy="0.32em">object (union)    </text></g><g class="tick" opacity="1" transform="translate(0,404.4444444444444)" style="font-size: 13px;"><line stroke="currentColor" x2="0"></line><text fill="currentColor" x="-3" dy="0.32em">array (simple)    </text></g><g class="tick" opacity="1" transform="translate(0,493.3333333333333)" style="font-size: 13px;"><line stroke="currentColor" x2="0"></line><text fill="currentColor" x="-3" dy="0.32em">array (hierarchical)    </text></g><g class="tick" opacity="1" transform="translate(0,582.2222222222222)" style="font-size: 13px;"><line stroke="currentColor" x2="0"></line><text fill="currentColor" x="-3" dy="0.32em">array (recursive)    </text></g><g class="tick" opacity="1" transform="translate(0,671.1111111111111)" style="font-size: 13px;"><line stroke="currentColor" x2="0"></line><text fill="currentColor" x="-3" dy="0.32em">array (union)    </text></g></g><g class="x axis" transform="translate(149,765)" fill="none" font-size="10" font-family="sans-serif" text-anchor="middle" style="font-size: 13px;"><path class="domain" stroke="currentColor" d="M0.5,0.5H485.5"></path><g class="tick" opacity="1" transform="translate(0.5,0)" style="font-size: 13px;"><line stroke="currentColor" y2="6"></line><text fill="currentColor" y="9" dy="0.71em">0x</text></g><g class="tick" opacity="1" transform="translate(122.62596271888857,0)" style="font-size: 13px;"><line stroke="currentColor" y2="6"></line><text fill="currentColor" y="9" dy="0.71em">10x</text></g><g class="tick" opacity="1" transform="translate(244.75192543777715,0)" style="font-size: 13px;"><line stroke="currentColor" y2="6"></line><text fill="currentColor" y="9" dy="0.71em">20x</text></g><g class="tick" opacity="1" transform="translate(366.87788815666573,0)" style="font-size: 13px;"><line stroke="currentColor" y2="6"></line><text fill="currentColor" y="9" dy="0.71em">30x</text></g></g><text transform="translate(400, 30)" style="text-anchor: middle; font-size: 20px; font-weight: bold;">stringify benchmark</text><rect x="680" y="165" width="200" height="5" fill="gray"></rect><rect x="675" y="35" width="200" height="130" fill="none" stroke="black"></rect><rect x="685" y="45" width="10" height="10" style="fill: #4472c4;"></rect><text x="700" y="55" style="font-size: 12px;">typia.stringify()</text><rect x="685" y="65" width="10" height="10" style="fill: #ed7d31;"></rect><text x="700" y="75" style="font-size: 12px;">typia.assertStringify()</text><rect x="685" y="85" width="10" height="10" style="fill: #a5a5a5;"></rect><text x="700" y="95" style="font-size: 12px;">typia.isStringify()</text><rect x="685" y="105" width="10" height="10" style="fill: #ffc000;"></rect><text x="700" y="115" style="font-size: 12px;">fast-json-stringify</text><rect x="685" y="125" width="10" height="10" style="fill: #5b9bd5;"></rect><text x="700" y="135" style="font-size: 12px;">class-transformer</text><rect x="685" y="145" width="10" height="10" style="fill: #70ad47;"></rect><text x="700" y="155" style="font-size: 12px;">JSON.stringify</text><g style="font-size: 13px;"><g style="font-size: 13px;"><rect x="150" y="54.55004591368224" width="440.9090909090909" height="12.56198347107438" fill="#4472c4"></rect><rect x="150" y="67.77318640955001" width="349.75163880544744" height="12.56198347107438" fill="#ed7d31"></rect><rect x="150" y="80.99632690541777" width="343.86321793070726" height="12.56198347107438" fill="#a5a5a5"></rect><rect x="150" y="94.21946740128556" width="309.7706859552833" height="12.56198347107438" fill="#ffc000"></rect><rect x="150" y="107.44260789715332" width="12.212596271888858" height="12.56198347107438" fill="#5b9bd5"></rect><rect x="150" y="120.66574839302109" width="125.33577079939366" height="12.56198347107438" fill="#70ad47"></rect><text class="label" x="599.4090909090909" y="63.05004591368224" font-size="10px">36.1x</text><text class="label" x="508.25163880544744" y="76.27318640955001" font-size="10px">28.64x</text><text class="label" x="502.36321793070726" y="89.49632690541777" font-size="10px">28.16x</text><text class="label" x="468.2706859552833" y="102.71946740128556" font-size="10px">25.36x</text><text class="label" x="170.71259627188886" y="115.94260789715332" font-size="10px">1x</text><text class="label" x="283.8357707993937" y="129.1657483930211" font-size="10px">10.26x</text><text class="label" x="595.9090909090909" y="64.55004591368224" font-size="8px"></text><text class="label" x="504.75163880544744" y="77.77318640955001" font-size="8px"></text><text class="label" x="498.86321793070726" y="90.99632690541777" font-size="8px"></text><text class="label" x="464.7706859552833" y="104.21946740128556" font-size="8px"></text><text class="label" x="167.21259627188886" y="117.44260789715332" font-size="8px"></text><text class="label" x="280.3357707993937" y="130.6657483930211" font-size="8px"></text></g><g style="font-size: 13px;"><rect x="150" y="143.4389348025711" width="221.29538730105327" height="12.56198347107438" fill="#4472c4"></rect><rect x="150" y="156.66207529843888" width="201.06521574738676" height="12.56198347107438" fill="#ed7d31"></rect><rect x="150" y="169.88521579430665" width="214.06281090418727" height="12.56198347107438" fill="#a5a5a5"></rect><rect x="150" y="183.10835629017444" width="240.67671888764255" height="12.56198347107438" fill="#ffc000"></rect><rect x="150" y="196.3314967860422" width="12.212596271888858" height="12.56198347107438" fill="#5b9bd5"></rect><rect x="150" y="209.55463728190998" width="93.17232913936441" height="12.56198347107438" fill="#70ad47"></rect><text class="label" x="379.79538730105327" y="151.9389348025711" font-size="10px">18.12x</text><text class="label" x="359.5652157473868" y="165.16207529843888" font-size="10px">16.46x</text><text class="label" x="372.56281090418724" y="178.38521579430665" font-size="10px">17.53x</text><text class="label" x="399.17671888764255" y="191.60835629017444" font-size="10px">19.71x</text><text class="label" x="170.71259627188886" y="204.8314967860422" font-size="10px">1x</text><text class="label" x="251.67232913936442" y="218.05463728190998" font-size="10px">7.63x</text><text class="label" x="376.29538730105327" y="153.4389348025711" font-size="8px"></text><text class="label" x="356.0652157473868" y="166.66207529843888" font-size="8px"></text><text class="label" x="369.06281090418724" y="179.88521579430665" font-size="8px"></text><text class="label" x="395.67671888764255" y="193.10835629017444" font-size="8px"></text><text class="label" x="167.21259627188886" y="206.3314967860422" font-size="8px"></text><text class="label" x="248.17232913936442" y="219.55463728190998" font-size="8px"></text></g><g style="font-size: 13px;"><rect x="150" y="232.32782369146003" width="253.66641288428073" height="12.56198347107438" fill="#4472c4"></rect><rect x="150" y="245.5509641873278" width="228.73721073248495" height="12.56198347107438" fill="#ed7d31"></rect><rect x="150" y="258.77410468319556" width="239.69971190708688" height="12.56198347107438" fill="#a5a5a5"></rect><rect x="150" y="271.9972451790633" width="119.37075036474329" height="12.56198347107438" fill="#ffc000"></rect><rect x="150" y="285.2203856749311" width="12.212596271888858" height="12.56198347107438" fill="#5b9bd5"></rect><rect x="150" y="298.44352617079886" width="119.13435026978773" height="12.56198347107438" fill="#70ad47"></rect><text class="label" x="412.1664128842807" y="240.82782369146003" font-size="10px">20.77x</text><text class="label" x="387.237210732485" y="254.0509641873278" font-size="10px">18.73x</text><text class="label" x="398.1997119070869" y="267.27410468319556" font-size="10px">19.63x</text><text class="label" x="277.8707503647433" y="280.4972451790633" font-size="10px">9.77x</text><text class="label" x="170.71259627188886" y="293.7203856749311" font-size="10px">1x</text><text class="label" x="277.6343502697877" y="306.94352617079886" font-size="10px">9.76x</text><text class="label" x="408.6664128842807" y="242.32782369146003" font-size="8px"></text><text class="label" x="383.737210732485" y="255.5509641873278" font-size="8px"></text><text class="label" x="394.6997119070869" y="268.77410468319556" font-size="8px"></text><text class="label" x="274.3707503647433" y="281.9972451790633" font-size="8px"></text><text class="label" x="167.21259627188886" y="295.2203856749311" font-size="8px"></text><text class="label" x="274.1343502697877" y="308.44352617079886" font-size="8px"></text></g><g style="font-size: 13px;"><rect x="150" y="321.2167125803489" width="258.24624570312534" height="12.56198347107438" fill="#4472c4"></rect><rect x="150" y="334.43985307621665" width="202.7354596521956" height="12.56198347107438" fill="#ed7d31"></rect><rect x="150" y="347.6629935720844" width="239.11689416956048" height="12.56198347107438" fill="#a5a5a5"></rect><rect x="150" y="360.8861340679522" width="278.33800560577015" height="12.56198347107438" fill="#ffc000"></rect><rect x="150" y="374.10927456381995" width="12.212596271888858" height="12.56198347107438" fill="#5b9bd5"></rect><rect x="150" y="387.3324150596877" width="205.4980592526226" height="12.56198347107438" fill="#70ad47"></rect><text class="label" x="416.74624570312534" y="329.7167125803489" font-size="10px">21.15x</text><text class="label" x="361.2354596521956" y="342.93985307621665" font-size="10px">16.6x</text><text class="label" x="397.6168941695605" y="356.1629935720844" font-size="10px">19.58x</text><text class="label" x="436.83800560577015" y="369.3861340679522" font-size="10px">22.79x</text><text class="label" x="170.71259627188886" y="382.60927456381995" font-size="10px">1x</text><text class="label" x="363.9980592526226" y="395.8324150596877" font-size="10px">16.83x</text><text class="label" x="413.24624570312534" y="331.2167125803489" font-size="8px"></text><text class="label" x="357.7354596521956" y="344.43985307621665" font-size="8px"></text><text class="label" x="394.1168941695605" y="357.6629935720844" font-size="8px"></text><text class="label" x="433.33800560577015" y="370.8861340679522" font-size="8px"></text><text class="label" x="167.21259627188886" y="384.10927456381995" font-size="8px"></text><text class="label" x="360.4980592526226" y="397.3324150596877" font-size="8px"></text></g><g style="font-size: 13px;"><rect x="150" y="410.1056014692378" width="13.482347070010231" height="12.56198347107438" fill="#4472c4"></rect><rect x="150" y="423.32874196510556" width="12.212596271888858" height="12.56198347107438" fill="#ed7d31"></rect><rect x="150" y="436.55188246097333" width="13.468050690259016" height="12.56198347107438" fill="#a5a5a5"></rect><rect x="150" y="449.7750229568411" width="19.25202224479147" height="12.56198347107438" fill="#ffc000"></rect><rect x="150" y="462.99816345270887" width="0" height="12.56198347107438" fill="#5b9bd5"></rect><rect x="150" y="476.22130394857663" width="13.439861306836393" height="12.56198347107438" fill="#70ad47"></rect><text class="label" x="171.98234707001023" y="418.6056014692378" font-size="10px">1.1x</text><text class="label" x="170.71259627188886" y="431.82874196510556" font-size="10px">1x</text><text class="label" x="171.96805069025902" y="445.05188246097333" font-size="10px">1.1x</text><text class="label" x="177.75202224479148" y="458.2750229568411" font-size="10px">1.58x</text><text class="label" x="158.5" y="471.49816345270887" font-size="10px"></text><text class="label" x="171.9398613068364" y="484.72130394857663" font-size="10px">1.1x</text><text class="label" x="168.48234707001023" y="420.1056014692378" font-size="8px"></text><text class="label" x="167.21259627188886" y="433.32874196510556" font-size="8px"></text><text class="label" x="168.46805069025902" y="446.55188246097333" font-size="8px"></text><text class="label" x="174.25202224479148" y="459.7750229568411" font-size="8px"></text><text class="label" x="155" y="472.99816345270887" font-size="8px">Failed</text><text class="label" x="168.4398613068364" y="486.22130394857663" font-size="8px"></text></g><g style="font-size: 13px;"><rect x="150" y="498.9944903581267" width="156.127562376612" height="12.56198347107438" fill="#4472c4"></rect><rect x="150" y="512.2176308539945" width="138.0947134614974" height="12.56198347107438" fill="#ed7d31"></rect><rect x="150" y="525.4407713498622" width="149.59920536207073" height="12.56198347107438" fill="#a5a5a5"></rect><rect x="150" y="538.66391184573" width="224.4893114706648" height="12.56198347107438" fill="#ffc000"></rect><rect x="150" y="551.8870523415978" width="12.212596271888858" height="12.56198347107438" fill="#5b9bd5"></rect><rect x="150" y="565.1101928374655" width="128.53998704897236" height="12.56198347107438" fill="#70ad47"></rect><text class="label" x="314.627562376612" y="507.4944903581267" font-size="10px">12.78x</text><text class="label" x="296.5947134614974" y="520.7176308539945" font-size="10px">11.31x</text><text class="label" x="308.09920536207073" y="533.9407713498622" font-size="10px">12.25x</text><text class="label" x="382.9893114706648" y="547.16391184573" font-size="10px">18.38x</text><text class="label" x="170.71259627188886" y="560.3870523415978" font-size="10px">1x</text><text class="label" x="287.03998704897236" y="573.6101928374655" font-size="10px">10.53x</text><text class="label" x="311.127562376612" y="508.9944903581267" font-size="8px"></text><text class="label" x="293.0947134614974" y="522.2176308539945" font-size="8px"></text><text class="label" x="304.59920536207073" y="535.4407713498622" font-size="8px"></text><text class="label" x="379.4893114706648" y="548.66391184573" font-size="8px"></text><text class="label" x="167.21259627188886" y="561.8870523415978" font-size="8px"></text><text class="label" x="283.53998704897236" y="575.1101928374655" font-size="8px"></text></g><g style="font-size: 13px;"><rect x="150" y="587.8833792470156" width="135.8978745674668" height="12.56198347107438" fill="#4472c4"></rect><rect x="150" y="601.1065197428833" width="119.66609640964072" height="12.56198347107438" fill="#ed7d31"></rect><rect x="150" y="614.3296602387511" width="130.14367470030535" height="12.56198347107438" fill="#a5a5a5"></rect><rect x="150" y="627.5528007346188" width="113.36019648844943" height="12.56198347107438" fill="#ffc000"></rect><rect x="150" y="640.7759412304866" width="12.212596271888858" height="12.56198347107438" fill="#5b9bd5"></rect><rect x="150" y="653.9990817263545" width="111.11523238993675" height="12.56198347107438" fill="#70ad47"></rect><text class="label" x="294.39787456746683" y="596.3833792470156" font-size="10px">11.13x</text><text class="label" x="278.1660964096407" y="609.6065197428833" font-size="10px">9.8x</text><text class="label" x="288.6436747003054" y="622.8296602387511" font-size="10px">10.66x</text><text class="label" x="271.86019648844945" y="636.0528007346188" font-size="10px">9.28x</text><text class="label" x="170.71259627188886" y="649.2759412304866" font-size="10px">1x</text><text class="label" x="269.61523238993675" y="662.4990817263545" font-size="10px">9.1x</text><text class="label" x="290.89787456746683" y="597.8833792470156" font-size="8px"></text><text class="label" x="274.6660964096407" y="611.1065197428833" font-size="8px"></text><text class="label" x="285.1436747003054" y="624.3296602387511" font-size="8px"></text><text class="label" x="268.36019648844945" y="637.5528007346188" font-size="8px"></text><text class="label" x="167.21259627188886" y="650.7759412304866" font-size="8px"></text><text class="label" x="266.11523238993675" y="663.9990817263545" font-size="8px"></text></g><g style="font-size: 13px;"><rect x="150" y="676.7722681359045" width="155.39641465368" height="12.56198347107438" fill="#4472c4"></rect><rect x="150" y="689.9954086317722" width="135.30291726428223" height="12.56198347107438" fill="#ed7d31"></rect><rect x="150" y="703.21854912764" width="140.75506702003779" height="12.56198347107438" fill="#a5a5a5"></rect><rect x="150" y="716.4416896235077" width="191.19817762289742" height="12.56198347107438" fill="#ffc000"></rect><rect x="150" y="729.6648301193756" width="12.212596271888858" height="12.56198347107438" fill="#5b9bd5"></rect><rect x="150" y="742.8879706152434" width="211.2331916031744" height="12.56198347107438" fill="#70ad47"></rect><text class="label" x="313.89641465368004" y="685.2722681359045" font-size="10px">12.72x</text><text class="label" x="293.8029172642822" y="698.4954086317722" font-size="10px">11.08x</text><text class="label" x="299.2550670200378" y="711.71854912764" font-size="10px">11.53x</text><text class="label" x="349.69817762289745" y="724.9416896235077" font-size="10px">15.66x</text><text class="label" x="170.71259627188886" y="738.1648301193756" font-size="10px">1x</text><text class="label" x="369.7331916031744" y="751.3879706152434" font-size="10px">17.3x</text><text class="label" x="310.39641465368004" y="686.7722681359045" font-size="8px"></text><text class="label" x="290.3029172642822" y="699.9954086317722" font-size="8px"></text><text class="label" x="295.7550670200378" y="713.21854912764" font-size="8px"></text><text class="label" x="346.19817762289745" y="726.4416896235077" font-size="8px"></text><text class="label" x="167.21259627188886" y="739.6648301193756" font-size="8px"></text><text class="label" x="366.2331916031744" y="752.8879706152434" font-size="8px"></text></g></g></svg>