<svg xmlns="http://www.w3.org/2000/svg" xmlns:xlink="http://www.w3.org/1999/xlink" width="800" height="675" style="background-color: white;"><g class="y axis" transform="translate(149,45)" fill="none" font-size="10" font-family="sans-serif" text-anchor="end" style="font-size: 13px;"><path class="domain" stroke="currentColor" d="M0.5,0.5V600.5"></path><g class="tick" opacity="1" transform="translate(0,40.740740740740726)" style="font-size: 13px;"><line stroke="currentColor" x2="0"></line><text fill="currentColor" x="-3" dy="0.32em">object (simple)    </text></g><g class="tick" opacity="1" transform="translate(0,114.81481481481481)" style="font-size: 13px;"><line stroke="currentColor" x2="0"></line><text fill="currentColor" x="-3" dy="0.32em">object (hierarchical)    </text></g><g class="tick" opacity="1" transform="translate(0,188.88888888888889)" style="font-size: 13px;"><line stroke="currentColor" x2="0"></line><text fill="currentColor" x="-3" dy="0.32em">object (recursive)    </text></g><g class="tick" opacity="1" transform="translate(0,262.96296296296293)" style="font-size: 13px;"><line stroke="currentColor" x2="0"></line><text fill="currentColor" x="-3" dy="0.32em">object (union)    </text></g><g class="tick" opacity="1" transform="translate(0,337.037037037037)" style="font-size: 13px;"><line stroke="currentColor" x2="0"></line><text fill="currentColor" x="-3" dy="0.32em">array (simple)    </text></g><g class="tick" opacity="1" transform="translate(0,411.1111111111111)" style="font-size: 13px;"><line stroke="currentColor" x2="0"></line><text fill="currentColor" x="-3" dy="0.32em">array (hierarchical)    </text></g><g class="tick" opacity="1" transform="translate(0,485.18518518518516)" style="font-size: 13px;"><line stroke="currentColor" x2="0"></line><text fill="currentColor" x="-3" dy="0.32em">array (recursive)    </text></g><g class="tick" opacity="1" transform="translate(0,559.2592592592592)" style="font-size: 13px;"><line stroke="currentColor" x2="0"></line><text fill="currentColor" x="-3" dy="0.32em">array (union)    </text></g></g><g class="x axis" transform="translate(149,645)" fill="none" font-size="10" font-family="sans-serif" text-anchor="middle" style="font-size: 13px;"><path class="domain" stroke="currentColor" d="M0.5,0.5H485.5"></path><g class="tick" opacity="1" transform="translate(0.5,0)" style="font-size: 13px;"><line stroke="currentColor" y2="6"></line><text fill="currentColor" y="9" dy="0.71em">0x</text></g><g class="tick" opacity="1" transform="translate(137.64124425041928,0)" style="font-size: 13px;"><line stroke="currentColor" y2="6"></line><text fill="currentColor" y="9" dy="0.71em">0.5x</text></g><g class="tick" opacity="1" transform="translate(274.78248850083855,0)" style="font-size: 13px;"><line stroke="currentColor" y2="6"></line><text fill="currentColor" y="9" dy="0.71em">1x</text></g><g class="tick" opacity="1" transform="translate(411.9237327512578,0)" style="font-size: 13px;"><line stroke="currentColor" y2="6"></line><text fill="currentColor" y="9" dy="0.71em">1.5x</text></g></g><text transform="translate(400, 30)" style="text-anchor: middle; font-size: 20px; font-weight: bold;">stringify (server) benchmark</text><rect x="680" y="145" width="200" height="5" fill="gray"></rect><rect x="675" y="35" width="200" height="110" fill="none" stroke="black"></rect><rect x="685" y="45" width="10" height="10" style="fill: #4472c4;"></rect><text x="700" y="55" style="font-size: 12px;">express (pure)</text><rect x="685" y="65" width="10" height="10" style="fill: #ed7d31;"></rect><text x="700" y="75" style="font-size: 12px;">express (typia.stringify)</text><rect x="685" y="85" width="10" height="10" style="fill: #a5a5a5;"></rect><text x="700" y="95" style="font-size: 12px;">express (typia.isStringify)</text><rect x="685" y="105" width="10" height="10" style="fill: #ffc000;"></rect><text x="700" y="115" style="font-size: 12px;">express (typia.assertStringify)</text><rect x="685" y="125" width="10" height="10" style="fill: #5b9bd5;"></rect><text x="700" y="135" style="font-size: 12px;">fastify</text><g style="font-size: 13px;"><g style="font-size: 13px;"><rect x="150" y="53.06747341400805" width="274.28248850083855" height="12.541254125412543" fill="#4472c4"></rect><rect x="150" y="66.26879354602124" width="317.8204063914837" height="12.541254125412543" fill="#ed7d31"></rect><rect x="150" y="79.47011367803445" width="311.8033570723204" height="12.541254125412543" fill="#a5a5a5"></rect><rect x="150" y="92.67143381004766" width="292.9297506705266" height="12.541254125412543" fill="#ffc000"></rect><rect x="150" y="105.87275394206085" width="374.3353601188615" height="12.541254125412543" fill="#5b9bd5"></rect><text class="label" x="432.78248850083855" y="61.56747341400805" font-size="10px">1x</text><text class="label" x="476.3204063914837" y="74.76879354602124" font-size="10px">1.16x</text><text class="label" x="470.3033570723204" y="87.97011367803445" font-size="10px">1.14x</text><text class="label" x="451.4297506705266" y="101.17143381004766" font-size="10px">1.07x</text><text class="label" x="532.8353601188614" y="114.37275394206085" font-size="10px">1.36x</text><text class="label" x="429.28248850083855" y="63.06747341400805" font-size="8px"></text><text class="label" x="472.8204063914837" y="76.26879354602124" font-size="8px"></text><text class="label" x="466.8033570723204" y="89.47011367803445" font-size="8px"></text><text class="label" x="447.9297506705266" y="102.67143381004766" font-size="8px"></text><text class="label" x="529.3353601188614" y="115.87275394206085" font-size="8px"></text></g><g style="font-size: 13px;"><rect x="150" y="127.14154748808213" width="294.22586173187557" height="12.541254125412543" fill="#4472c4"></rect><rect x="150" y="140.34286762009532" width="280.5189377466725" height="12.541254125412543" fill="#ed7d31"></rect><rect x="150" y="153.54418775210854" width="277.14582552570255" height="12.541254125412543" fill="#a5a5a5"></rect><rect x="150" y="166.74550788412174" width="274.28248850083855" height="12.541254125412543" fill="#ffc000"></rect><rect x="150" y="179.94682801613493" width="327.9214352937722" height="12.541254125412543" fill="#5b9bd5"></rect><text class="label" x="452.72586173187557" y="135.64154748808213" font-size="10px">1.07x</text><text class="label" x="439.0189377466725" y="148.84286762009532" font-size="10px">1.02x</text><text class="label" x="435.64582552570255" y="162.04418775210854" font-size="10px">1.01x</text><text class="label" x="432.78248850083855" y="175.24550788412174" font-size="10px">1x</text><text class="label" x="486.4214352937722" y="188.44682801613493" font-size="10px">1.2x</text><text class="label" x="449.22586173187557" y="137.14154748808213" font-size="8px"></text><text class="label" x="435.5189377466725" y="150.34286762009532" font-size="8px"></text><text class="label" x="432.14582552570255" y="163.54418775210854" font-size="8px"></text><text class="label" x="429.28248850083855" y="176.74550788412174" font-size="8px"></text><text class="label" x="482.9214352937722" y="189.94682801613493" font-size="8px"></text></g><g style="font-size: 13px;"><rect x="150" y="201.2156215621562" width="274.28248850083855" height="12.541254125412543" fill="#4472c4"></rect><rect x="150" y="214.4169416941694" width="289.27977486458013" height="12.541254125412543" fill="#ed7d31"></rect><rect x="150" y="227.61826182618262" width="287.7404793648468" height="12.541254125412543" fill="#a5a5a5"></rect><rect x="150" y="240.8195819581958" width="275.6970975682372" height="12.541254125412543" fill="#ffc000"></rect><rect x="150" y="254.020902090209" width="319.72549733796905" height="12.541254125412543" fill="#5b9bd5"></rect><text class="label" x="432.78248850083855" y="209.7156215621562" font-size="10px">1x</text><text class="label" x="447.77977486458013" y="222.9169416941694" font-size="10px">1.05x</text><text class="label" x="446.2404793648468" y="236.11826182618262" font-size="10px">1.05x</text><text class="label" x="434.1970975682372" y="249.3195819581958" font-size="10px">1.01x</text><text class="label" x="478.22549733796905" y="262.520902090209" font-size="10px">1.17x</text><text class="label" x="429.28248850083855" y="211.2156215621562" font-size="8px"></text><text class="label" x="444.27977486458013" y="224.4169416941694" font-size="8px"></text><text class="label" x="442.7404793648468" y="237.61826182618262" font-size="8px"></text><text class="label" x="430.6970975682372" y="250.8195819581958" font-size="8px"></text><text class="label" x="474.72549733796905" y="264.020902090209" font-size="8px"></text></g><g style="font-size: 13px;"><rect x="150" y="275.28969563623025" width="347.9176995954742" height="12.541254125412543" fill="#4472c4"></rect><rect x="150" y="288.49101576824347" width="412.46325180038536" height="12.541254125412543" fill="#ed7d31"></rect><rect x="150" y="301.6923359002567" width="391.109104207886" height="12.541254125412543" fill="#a5a5a5"></rect><rect x="150" y="314.89365603226986" width="341.98038776769283" height="12.541254125412543" fill="#ffc000"></rect><rect x="150" y="328.0949761642831" width="274.28248850083855" height="12.541254125412543" fill="#5b9bd5"></rect><text class="label" x="506.4176995954742" y="283.78969563623025" font-size="10px">1.27x</text><text class="label" x="570.9632518003854" y="296.99101576824347" font-size="10px">1.5x</text><text class="label" x="549.609104207886" y="310.1923359002567" font-size="10px">1.43x</text><text class="label" x="500.48038776769283" y="323.39365603226986" font-size="10px">1.25x</text><text class="label" x="432.78248850083855" y="336.5949761642831" font-size="10px">1x</text><text class="label" x="502.9176995954742" y="285.28969563623025" font-size="8px"></text><text class="label" x="567.4632518003854" y="298.49101576824347" font-size="8px"></text><text class="label" x="546.109104207886" y="311.6923359002567" font-size="8px"></text><text class="label" x="496.98038776769283" y="324.89365603226986" font-size="8px"></text><text class="label" x="429.28248850083855" y="338.0949761642831" font-size="8px"></text></g><g style="font-size: 13px;"><rect x="150" y="349.3637697103044" width="357.2488392103046" height="12.541254125412543" fill="#4472c4"></rect><rect x="150" y="362.56508984231755" width="303.1653085422569" height="12.541254125412543" fill="#ed7d31"></rect><rect x="150" y="375.76640997433077" width="297.4388540974167" height="12.541254125412543" fill="#a5a5a5"></rect><rect x="150" y="388.967730106344" width="285.03005003762775" height="12.541254125412543" fill="#ffc000"></rect><rect x="150" y="402.16905023835716" width="274.28248850083855" height="12.541254125412543" fill="#5b9bd5"></rect><text class="label" x="515.7488392103046" y="357.8637697103044" font-size="10px">1.3x</text><text class="label" x="461.6653085422569" y="371.06508984231755" font-size="10px">1.11x</text><text class="label" x="455.9388540974167" y="384.26640997433077" font-size="10px">1.08x</text><text class="label" x="443.53005003762775" y="397.467730106344" font-size="10px">1.04x</text><text class="label" x="432.78248850083855" y="410.66905023835716" font-size="10px">1x</text><text class="label" x="512.2488392103046" y="359.3637697103044" font-size="8px"></text><text class="label" x="458.1653085422569" y="372.56508984231755" font-size="8px"></text><text class="label" x="452.4388540974167" y="385.76640997433077" font-size="8px"></text><text class="label" x="440.03005003762775" y="398.967730106344" font-size="8px"></text><text class="label" x="429.28248850083855" y="412.16905023835716" font-size="8px"></text></g><g style="font-size: 13px;"><rect x="150" y="423.4378437843784" width="426.2790699255397" height="12.541254125412543" fill="#4472c4"></rect><rect x="150" y="436.6391639163916" width="440.9090909090908" height="12.541254125412543" fill="#ed7d31"></rect><rect x="150" y="449.84048404840485" width="428.7299871321345" height="12.541254125412543" fill="#a5a5a5"></rect><rect x="150" y="463.041804180418" width="425.22932086778474" height="12.541254125412543" fill="#ffc000"></rect><rect x="150" y="476.24312431243123" width="274.28248850083855" height="12.541254125412543" fill="#5b9bd5"></rect><text class="label" x="584.7790699255397" y="431.9378437843784" font-size="10px">1.55x</text><text class="label" x="599.4090909090908" y="445.1391639163916" font-size="10px">1.61x</text><text class="label" x="587.2299871321345" y="458.34048404840485" font-size="10px">1.56x</text><text class="label" x="583.7293208677847" y="471.541804180418" font-size="10px">1.55x</text><text class="label" x="432.78248850083855" y="484.74312431243123" font-size="10px">1x</text><text class="label" x="581.2790699255397" y="433.4378437843784" font-size="8px"></text><text class="label" x="595.9090909090908" y="446.6391639163916" font-size="8px"></text><text class="label" x="583.7299871321345" y="459.84048404840485" font-size="8px"></text><text class="label" x="580.2293208677847" y="473.041804180418" font-size="8px"></text><text class="label" x="429.28248850083855" y="486.24312431243123" font-size="8px"></text></g><g style="font-size: 13px;"><rect x="150" y="497.51191785845253" width="274.28248850083855" height="12.541254125412543" fill="#4472c4"></rect><rect x="150" y="510.7132379904657" width="295.4340579623303" height="12.541254125412543" fill="#ed7d31"></rect><rect x="150" y="523.9145581224789" width="291.9903147580686" height="12.541254125412543" fill="#a5a5a5"></rect><rect x="150" y="537.1158782544921" width="278.7216209614707" height="12.541254125412543" fill="#ffc000"></rect><rect x="150" y="550.3171983865053" width="326.82134685524346" height="12.541254125412543" fill="#5b9bd5"></rect><text class="label" x="432.78248850083855" y="506.01191785845253" font-size="10px">1x</text><text class="label" x="453.9340579623303" y="519.2132379904657" font-size="10px">1.08x</text><text class="label" x="450.4903147580686" y="532.4145581224789" font-size="10px">1.06x</text><text class="label" x="437.2216209614707" y="545.6158782544921" font-size="10px">1.02x</text><text class="label" x="485.32134685524346" y="558.8171983865053" font-size="10px">1.19x</text><text class="label" x="429.28248850083855" y="507.51191785845253" font-size="8px"></text><text class="label" x="450.4340579623303" y="520.7132379904657" font-size="8px"></text><text class="label" x="446.9903147580686" y="533.9145581224789" font-size="8px"></text><text class="label" x="433.7216209614707" y="547.1158782544921" font-size="8px"></text><text class="label" x="481.82134685524346" y="560.3171983865053" font-size="8px"></text></g><g style="font-size: 13px;"><rect x="150" y="571.5859919325266" width="392.8422551813393" height="12.541254125412543" fill="#4472c4"></rect><rect x="150" y="584.7873120645397" width="307.41794893099575" height="12.541254125412543" fill="#ed7d31"></rect><rect x="150" y="597.9886321965529" width="278.7360358119471" height="12.541254125412543" fill="#a5a5a5"></rect><rect x="150" y="611.1899523285662" width="274.28248850083855" height="12.541254125412543" fill="#ffc000"></rect><rect x="150" y="624.3912724605793" width="281.30246968944783" height="12.541254125412543" fill="#5b9bd5"></rect><text class="label" x="551.3422551813393" y="580.0859919325266" font-size="10px">1.43x</text><text class="label" x="465.91794893099575" y="593.2873120645397" font-size="10px">1.12x</text><text class="label" x="437.2360358119471" y="606.4886321965529" font-size="10px">1.02x</text><text class="label" x="432.78248850083855" y="619.6899523285662" font-size="10px">1x</text><text class="label" x="439.80246968944783" y="632.8912724605793" font-size="10px">1.03x</text><text class="label" x="547.8422551813393" y="581.5859919325266" font-size="8px"></text><text class="label" x="462.41794893099575" y="594.7873120645397" font-size="8px"></text><text class="label" x="433.7360358119471" y="607.9886321965529" font-size="8px"></text><text class="label" x="429.28248850083855" y="621.1899523285662" font-size="8px"></text><text class="label" x="436.30246968944783" y="634.3912724605793" font-size="8px"></text></g></g></svg>