<svg xmlns="http://www.w3.org/2000/svg" xmlns:xlink="http://www.w3.org/1999/xlink" width="800" height="600" style="background-color: white;"><g class="y axis" transform="translate(149,45)" fill="none" font-size="10" font-family="sans-serif" text-anchor="end" style="font-size: 13px;"><path class="domain" stroke="currentColor" d="M0.5,0.5V525.5"></path><g class="tick" opacity="1" transform="translate(0,40.66901408450705)" style="font-size: 13px;"><line stroke="currentColor" x2="0"></line><text fill="currentColor" x="-3" dy="0.32em">object (simple)    </text></g><g class="tick" opacity="1" transform="translate(0,114.61267605633802)" style="font-size: 13px;"><line stroke="currentColor" x2="0"></line><text fill="currentColor" x="-3" dy="0.32em">object (hierarchical)    </text></g><g class="tick" opacity="1" transform="translate(0,188.556338028169)" style="font-size: 13px;"><line stroke="currentColor" x2="0"></line><text fill="currentColor" x="-3" dy="0.32em">object (recursive)    </text></g><g class="tick" opacity="1" transform="translate(0,262.5)" style="font-size: 13px;"><line stroke="currentColor" x2="0"></line><text fill="currentColor" x="-3" dy="0.32em">object (union)    </text></g><g class="tick" opacity="1" transform="translate(0,336.443661971831)" style="font-size: 13px;"><line stroke="currentColor" x2="0"></line><text fill="currentColor" x="-3" dy="0.32em">array (hierarchical)    </text></g><g class="tick" opacity="1" transform="translate(0,410.38732394366195)" style="font-size: 13px;"><line stroke="currentColor" x2="0"></line><text fill="currentColor" x="-3" dy="0.32em">array (recursive)    </text></g><g class="tick" opacity="1" transform="translate(0,484.33098591549293)" style="font-size: 13px;"><line stroke="currentColor" x2="0"></line><text fill="currentColor" x="-3" dy="0.32em">array (union)    </text></g></g><g class="x axis" transform="translate(149,570)" fill="none" font-size="10" font-family="sans-serif" text-anchor="middle" style="font-size: 13px;"><path class="domain" stroke="currentColor" d="M0.5,0.5H485.5"></path><g class="tick" opacity="1" transform="translate(0.5,0)" style="font-size: 13px;"><line stroke="currentColor" y2="6"></line><text fill="currentColor" y="9" dy="0.71em">0x</text></g><g class="tick" opacity="1" transform="translate(116.64350239166014,0)" style="font-size: 13px;"><line stroke="currentColor" y2="6"></line><text fill="currentColor" y="9" dy="0.71em">1x</text></g><g class="tick" opacity="1" transform="translate(232.78700478332027,0)" style="font-size: 13px;"><line stroke="currentColor" y2="6"></line><text fill="currentColor" y="9" dy="0.71em">2x</text></g><g class="tick" opacity="1" transform="translate(348.93050717498045,0)" style="font-size: 13px;"><line stroke="currentColor" y2="6"></line><text fill="currentColor" y="9" dy="0.71em">3x</text></g><g class="tick" opacity="1" transform="translate(465.07400956664054,0)" style="font-size: 13px;"><line stroke="currentColor" y2="6"></line><text fill="currentColor" y="9" dy="0.71em">4x</text></g></g><text transform="translate(400, 30)" style="text-anchor: middle; font-size: 20px; font-weight: bold;">stringify benchmark</text><rect x="680" y="145" width="200" height="5" fill="gray"></rect><rect x="675" y="35" width="200" height="110" fill="none" stroke="black"></rect><rect x="685" y="45" width="10" height="10" style="fill: #4472c4;"></rect><text x="700" y="55" style="font-size: 12px;">TSON.stringify()</text><rect x="685" y="65" width="10" height="10" style="fill: #ed7d31;"></rect><text x="700" y="75" style="font-size: 12px;">TSON.assertStringify()</text><rect x="685" y="85" width="10" height="10" style="fill: #a5a5a5;"></rect><text x="700" y="95" style="font-size: 12px;">TSON.isStringify()</text><rect x="685" y="105" width="10" height="10" style="fill: #ffc000;"></rect><text x="700" y="115" style="font-size: 12px;">JSON.stringify()</text><rect x="685" y="125" width="10" height="10" style="fill: #5b9bd5;"></rect><text x="700" y="135" style="font-size: 12px;">fast-json-stringify</text><g style="font-size: 13px;"><g style="font-size: 13px;"><rect x="150" y="53.05327011574397" width="440.9090909090908" height="12.519174452656534" fill="#4472c4"></rect><rect x="150" y="66.23134848696137" width="363.2363115270437" height="12.519174452656534" fill="#ed7d31"></rect><rect x="150" y="79.40942685817878" width="400.8951411776924" height="12.519174452656534" fill="#a5a5a5"></rect><rect x="150" y="92.58750522939619" width="116.14350239166014" height="12.519174452656534" fill="#ffc000"></rect><rect x="150" y="105.76558360061358" width="305.99939673841027" height="12.519174452656534" fill="#5b9bd5"></rect><text class="label" x="599.4090909090908" y="61.55327011574397" font-size="10px">3.8x</text><text class="label" x="521.7363115270437" y="74.73134848696137" font-size="10px">3.13x</text><text class="label" x="559.3951411776924" y="87.90942685817878" font-size="10px">3.45x</text><text class="label" x="274.64350239166015" y="101.08750522939619" font-size="10px">1x</text><text class="label" x="464.49939673841027" y="114.26558360061358" font-size="10px">2.63x</text><text class="label" x="595.9090909090908" y="63.05327011574397" font-size="8px"></text><text class="label" x="518.2363115270437" y="76.23134848696137" font-size="8px"></text><text class="label" x="555.8951411776924" y="89.40942685817878" font-size="8px"></text><text class="label" x="271.14350239166015" y="102.58750522939619" font-size="8px"></text><text class="label" x="460.99939673841027" y="115.76558360061358" font-size="8px"></text></g><g style="font-size: 13px;"><rect x="150" y="126.99693208757495" width="262.3974924578789" height="12.519174452656534" fill="#4472c4"></rect><rect x="150" y="140.17501045879237" width="231.0206516419219" height="12.519174452656534" fill="#ed7d31"></rect><rect x="150" y="153.35308883000977" width="242.88655155959094" height="12.519174452656534" fill="#a5a5a5"></rect><rect x="150" y="166.53116720122716" width="116.14350239166014" height="12.519174452656534" fill="#ffc000"></rect><rect x="150" y="179.70924557244456" width="244.6037969974486" height="12.519174452656534" fill="#5b9bd5"></rect><text class="label" x="420.8974924578789" y="135.49693208757495" font-size="10px">2.26x</text><text class="label" x="389.52065164192186" y="148.67501045879237" font-size="10px">1.99x</text><text class="label" x="401.38655155959094" y="161.85308883000977" font-size="10px">2.09x</text><text class="label" x="274.64350239166015" y="175.03116720122716" font-size="10px">1x</text><text class="label" x="403.1037969974486" y="188.20924557244456" font-size="10px">2.11x</text><text class="label" x="417.3974924578789" y="136.99693208757495" font-size="8px"></text><text class="label" x="386.02065164192186" y="150.17501045879237" font-size="8px"></text><text class="label" x="397.88655155959094" y="163.35308883000977" font-size="8px"></text><text class="label" x="271.14350239166015" y="176.53116720122716" font-size="8px"></text><text class="label" x="399.6037969974486" y="189.70924557244456" font-size="8px"></text></g><g style="font-size: 13px;"><rect x="150" y="200.94059405940592" width="253.13054007786405" height="12.519174452656534" fill="#4472c4"></rect><rect x="150" y="214.11867243062332" width="225.68682839875783" height="12.519174452656534" fill="#ed7d31"></rect><rect x="150" y="227.29675080184074" width="245.27612381065916" height="12.519174452656534" fill="#a5a5a5"></rect><rect x="150" y="240.47482917305814" width="116.34604606368227" height="12.519174452656534" fill="#ffc000"></rect><rect x="150" y="253.65290754427554" width="116.14350239166014" height="12.519174452656534" fill="#5b9bd5"></rect><text class="label" x="411.63054007786405" y="209.44059405940592" font-size="10px">2.18x</text><text class="label" x="384.1868283987578" y="222.61867243062332" font-size="10px">1.94x</text><text class="label" x="403.77612381065916" y="235.79675080184074" font-size="10px">2.11x</text><text class="label" x="274.84604606368225" y="248.97482917305814" font-size="10px">1x</text><text class="label" x="274.64350239166015" y="262.15290754427554" font-size="10px">1x</text><text class="label" x="408.13054007786405" y="210.94059405940592" font-size="8px"></text><text class="label" x="380.6868283987578" y="224.11867243062332" font-size="8px"></text><text class="label" x="400.27612381065916" y="237.29675080184074" font-size="8px"></text><text class="label" x="271.34604606368225" y="250.47482917305814" font-size="8px"></text><text class="label" x="271.14350239166015" y="263.65290754427554" font-size="8px"></text></g><g style="font-size: 13px;"><rect x="150" y="274.8842560312369" width="160.06620967014862" height="12.519174452656534" fill="#4472c4"></rect><rect x="150" y="288.0623344024543" width="131.10658260371753" height="12.519174452656534" fill="#ed7d31"></rect><rect x="150" y="301.2404127736717" width="152.70000340181" height="12.519174452656534" fill="#a5a5a5"></rect><rect x="150" y="314.4184911448891" width="116.14350239166014" height="12.519174452656534" fill="#ffc000"></rect><rect x="150" y="327.5965695161065" width="155.30098361639114" height="12.519174452656534" fill="#5b9bd5"></rect><text class="label" x="318.5662096701486" y="283.3842560312369" font-size="10px">1.38x</text><text class="label" x="289.6065826037175" y="296.5623344024543" font-size="10px">1.13x</text><text class="label" x="311.20000340181" y="309.7404127736717" font-size="10px">1.31x</text><text class="label" x="274.64350239166015" y="322.9184911448891" font-size="10px">1x</text><text class="label" x="313.80098361639114" y="336.0965695161065" font-size="10px">1.34x</text><text class="label" x="315.0662096701486" y="284.8842560312369" font-size="8px"></text><text class="label" x="286.1065826037175" y="298.0623344024543" font-size="8px"></text><text class="label" x="307.70000340181" y="311.2404127736717" font-size="8px"></text><text class="label" x="271.14350239166015" y="324.4184911448891" font-size="8px"></text><text class="label" x="310.30098361639114" y="337.5965695161065" font-size="8px"></text></g><g style="font-size: 13px;"><rect x="150" y="348.8279180030679" width="146.96230038963154" height="12.519174452656534" fill="#4472c4"></rect><rect x="150" y="362.0059963742853" width="127.52102862474979" height="12.519174452656534" fill="#ed7d31"></rect><rect x="150" y="375.1840747455027" width="140.66875838526985" height="12.519174452656534" fill="#a5a5a5"></rect><rect x="150" y="388.3621531167201" width="116.14350239166014" height="12.519174452656534" fill="#ffc000"></rect><rect x="150" y="401.5402314879375" width="185.760874401912" height="12.519174452656534" fill="#5b9bd5"></rect><text class="label" x="305.46230038963154" y="357.3279180030679" font-size="10px">1.27x</text><text class="label" x="286.02102862474976" y="370.5059963742853" font-size="10px">1.1x</text><text class="label" x="299.1687583852698" y="383.6840747455027" font-size="10px">1.21x</text><text class="label" x="274.64350239166015" y="396.8621531167201" font-size="10px">1x</text><text class="label" x="344.260874401912" y="410.0402314879375" font-size="10px">1.6x</text><text class="label" x="301.96230038963154" y="358.8279180030679" font-size="8px"></text><text class="label" x="282.52102862474976" y="372.0059963742853" font-size="8px"></text><text class="label" x="295.6687583852698" y="385.1840747455027" font-size="8px"></text><text class="label" x="271.14350239166015" y="398.3621531167201" font-size="8px"></text><text class="label" x="340.760874401912" y="411.5402314879375" font-size="8px"></text></g><g style="font-size: 13px;"><rect x="150" y="422.7715799748988" width="158.88352745299764" height="12.519174452656534" fill="#4472c4"></rect><rect x="150" y="435.9496583461163" width="143.7339016796611" height="12.519174452656534" fill="#ed7d31"></rect><rect x="150" y="449.1277367173337" width="156.78482561472987" height="12.519174452656534" fill="#a5a5a5"></rect><rect x="150" y="462.30581508855107" width="118.1185289593728" height="12.519174452656534" fill="#ffc000"></rect><rect x="150" y="475.48389345976847" width="116.14350239166014" height="12.519174452656534" fill="#5b9bd5"></rect><text class="label" x="317.38352745299767" y="431.2715799748988" font-size="10px">1.37x</text><text class="label" x="302.23390167966113" y="444.4496583461163" font-size="10px">1.24x</text><text class="label" x="315.28482561472987" y="457.6277367173337" font-size="10px">1.35x</text><text class="label" x="276.6185289593728" y="470.80581508855107" font-size="10px">1.02x</text><text class="label" x="274.64350239166015" y="483.98389345976847" font-size="10px">1x</text><text class="label" x="313.88352745299767" y="432.7715799748988" font-size="8px"></text><text class="label" x="298.73390167966113" y="445.9496583461163" font-size="8px"></text><text class="label" x="311.78482561472987" y="459.1277367173337" font-size="8px"></text><text class="label" x="273.1185289593728" y="472.30581508855107" font-size="8px"></text><text class="label" x="271.14350239166015" y="485.48389345976847" font-size="8px"></text></g><g style="font-size: 13px;"><rect x="150" y="496.71524194672986" width="141.85003532520562" height="12.519174452656534" fill="#4472c4"></rect><rect x="150" y="509.89332031794726" width="116.14350239166014" height="12.519174452656534" fill="#ed7d31"></rect><rect x="150" y="523.0713986891647" width="123.93052248257243" height="12.519174452656534" fill="#a5a5a5"></rect><rect x="150" y="536.2494770603821" width="153.69360270300717" height="12.519174452656534" fill="#ffc000"></rect><rect x="150" y="549.4275554315994" width="138.99781025009986" height="12.519174452656534" fill="#5b9bd5"></rect><text class="label" x="300.3500353252056" y="505.21524194672986" font-size="10px">1.22x</text><text class="label" x="274.64350239166015" y="518.3933203179472" font-size="10px">1x</text><text class="label" x="282.4305224825724" y="531.5713986891647" font-size="10px">1.07x</text><text class="label" x="312.1936027030072" y="544.7494770603821" font-size="10px">1.32x</text><text class="label" x="297.49781025009986" y="557.9275554315994" font-size="10px">1.2x</text><text class="label" x="296.8500353252056" y="506.71524194672986" font-size="8px"></text><text class="label" x="271.14350239166015" y="519.8933203179472" font-size="8px"></text><text class="label" x="278.9305224825724" y="533.0713986891647" font-size="8px"></text><text class="label" x="308.6936027030072" y="546.2494770603821" font-size="8px"></text><text class="label" x="293.99781025009986" y="559.4275554315994" font-size="8px"></text></g></g></svg>