<svg xmlns="http://www.w3.org/2000/svg" xmlns:xlink="http://www.w3.org/1999/xlink" width="800" height="885" style="background-color: white;"><g class="y axis" transform="translate(149,45)" fill="none" font-size="10" font-family="sans-serif" text-anchor="end" style="font-size: 13px;"><path class="domain" stroke="currentColor" d="M0.5,0.5V810.5"></path><g class="tick" opacity="1" transform="translate(0,48.95604395604397)" style="font-size: 13px;"><line stroke="currentColor" x2="0"></line><text fill="currentColor" x="-3" dy="0.32em">object (simple)    </text></g><g class="tick" opacity="1" transform="translate(0,137.967032967033)" style="font-size: 13px;"><line stroke="currentColor" x2="0"></line><text fill="currentColor" x="-3" dy="0.32em">object (hierarchical)    </text></g><g class="tick" opacity="1" transform="translate(0,226.97802197802199)" style="font-size: 13px;"><line stroke="currentColor" x2="0"></line><text fill="currentColor" x="-3" dy="0.32em">object (recursive)    </text></g><g class="tick" opacity="1" transform="translate(0,315.989010989011)" style="font-size: 13px;"><line stroke="currentColor" x2="0"></line><text fill="currentColor" x="-3" dy="0.32em">object (union, explicit)    </text></g><g class="tick" opacity="1" transform="translate(0,405)" style="font-size: 13px;"><line stroke="currentColor" x2="0"></line><text fill="currentColor" x="-3" dy="0.32em">object (union, implicit)    </text></g><g class="tick" opacity="1" transform="translate(0,494.010989010989)" style="font-size: 13px;"><line stroke="currentColor" x2="0"></line><text fill="currentColor" x="-3" dy="0.32em">array (recursive)    </text></g><g class="tick" opacity="1" transform="translate(0,583.021978021978)" style="font-size: 13px;"><line stroke="currentColor" x2="0"></line><text fill="currentColor" x="-3" dy="0.32em">array (union, explicit)    </text></g><g class="tick" opacity="1" transform="translate(0,672.0329670329671)" style="font-size: 13px;"><line stroke="currentColor" x2="0"></line><text fill="currentColor" x="-3" dy="0.32em">array (union, implicit)    </text></g><g class="tick" opacity="1" transform="translate(0,761.043956043956)" style="font-size: 13px;"><line stroke="currentColor" x2="0"></line><text fill="currentColor" x="-3" dy="0.32em">ultimate union    </text></g></g><g class="x axis" transform="translate(149,855)" fill="none" font-size="10" font-family="sans-serif" text-anchor="middle" style="font-size: 13px;"><path class="domain" stroke="currentColor" d="M0.5,0.5H485.5"></path><g class="tick" opacity="1" transform="translate(0.5,0)" style="font-size: 13px;"><line stroke="currentColor" y2="6"></line><text fill="currentColor" y="9" dy="0.71em">0x</text></g><g class="tick" opacity="1" transform="translate(68.56422056286118,0)" style="font-size: 13px;"><line stroke="currentColor" y2="6"></line><text fill="currentColor" y="9" dy="0.71em">2,000x</text></g><g class="tick" opacity="1" transform="translate(136.62844112572236,0)" style="font-size: 13px;"><line stroke="currentColor" y2="6"></line><text fill="currentColor" y="9" dy="0.71em">4,000x</text></g><g class="tick" opacity="1" transform="translate(204.69266168858354,0)" style="font-size: 13px;"><line stroke="currentColor" y2="6"></line><text fill="currentColor" y="9" dy="0.71em">6,000x</text></g><g class="tick" opacity="1" transform="translate(272.7568822514447,0)" style="font-size: 13px;"><line stroke="currentColor" y2="6"></line><text fill="currentColor" y="9" dy="0.71em">8,000x</text></g><g class="tick" opacity="1" transform="translate(340.8211028143059,0)" style="font-size: 13px;"><line stroke="currentColor" y2="6"></line><text fill="currentColor" y="9" dy="0.71em">10,000x</text></g><g class="tick" opacity="1" transform="translate(408.8853233771671,0)" style="font-size: 13px;"><line stroke="currentColor" y2="6"></line><text fill="currentColor" y="9" dy="0.71em">12,000x</text></g><g class="tick" opacity="1" transform="translate(476.94954394002826,0)" style="font-size: 13px;"><line stroke="currentColor" y2="6"></line><text fill="currentColor" y="9" dy="0.71em">14,000x</text></g></g><text transform="translate(400, 30)" style="text-anchor: middle; font-size: 20px; font-weight: bold;">is benchmark</text><rect x="680" y="165" width="200" height="5" fill="gray"></rect><rect x="675" y="35" width="200" height="130" fill="none" stroke="black"></rect><rect x="685" y="45" width="10" height="10" style="fill: #4472c4;"></rect><text x="700" y="55" style="font-size: 12px;">typescript-json</text><rect x="685" y="65" width="10" height="10" style="fill: #ed7d31;"></rect><text x="700" y="75" style="font-size: 12px;">typebox</text><rect x="685" y="85" width="10" height="10" style="fill: #a5a5a5;"></rect><text x="700" y="95" style="font-size: 12px;">ajv</text><rect x="685" y="105" width="10" height="10" style="fill: #ffc000;"></rect><text x="700" y="115" style="font-size: 12px;">io-ts</text><rect x="685" y="125" width="10" height="10" style="fill: #5b9bd5;"></rect><text x="700" y="135" style="font-size: 12px;">zod</text><rect x="685" y="145" width="10" height="10" style="fill: #70ad47;"></rect><text x="700" y="155" style="font-size: 12px;">class-validator</text><g style="font-size: 13px;"><g style="font-size: 13px;"><rect x="150" y="54.563164108618665" width="440.9090909090909" height="12.579238942875305" fill="#4472c4"></rect><rect x="150" y="67.80446825901373" width="249.7218368645681" height="12.579238942875305" fill="#ed7d31"></rect><rect x="150" y="81.04577240940878" width="101.50184853728011" height="12.579238942875305" fill="#a5a5a5"></rect><rect x="150" y="94.28707655980384" width="7.192355713235118" height="12.579238942875305" fill="#ffc000"></rect><rect x="150" y="107.5283807101989" width="1.181464333629614" height="12.579238942875305" fill="#5b9bd5"></rect><rect x="150" y="120.76968486059396" width="0.03403211028143059" height="12.579238942875305" fill="#70ad47"></rect><text class="label" x="599.4090909090909" y="63.063164108618665" font-size="10px">12,956x</text><text class="label" x="408.2218368645681" y="76.30446825901373" font-size="10px">7,338x</text><text class="label" x="260.0018485372801" y="89.54577240940878" font-size="10px">2,983x</text><text class="label" x="165.69235571323512" y="102.78707655980384" font-size="10px">211x</text><text class="label" x="159.6814643336296" y="116.0283807101989" font-size="10px">35x</text><text class="label" x="158.53403211028143" y="129.26968486059394" font-size="10px">1x</text><text class="label" x="595.9090909090909" y="64.56316410861866" font-size="8px"></text><text class="label" x="404.7218368645681" y="77.80446825901373" font-size="8px"></text><text class="label" x="256.5018485372801" y="91.04577240940878" font-size="8px"></text><text class="label" x="162.19235571323512" y="104.28707655980384" font-size="8px"></text><text class="label" x="156.1814643336296" y="117.5283807101989" font-size="8px"></text><text class="label" x="155.03403211028143" y="130.76968486059394" font-size="8px"></text></g><g style="font-size: 13px;"><rect x="150" y="143.57415311960767" width="144.37472805329438" height="12.579238942875305" fill="#4472c4"></rect><rect x="150" y="156.81545727000272" width="129.96805741124976" height="12.579238942875305" fill="#ed7d31"></rect><rect x="150" y="170.05676142039778" width="48.16551835993818" height="12.579238942875305" fill="#a5a5a5"></rect><rect x="150" y="183.29806557079286" width="6.279423287568808" height="12.579238942875305" fill="#ffc000"></rect><rect x="150" y="196.5393697211879" width="0.5414232617665038" height="12.579238942875305" fill="#5b9bd5"></rect><rect x="150" y="209.78067387158296" width="0.03403211028143059" height="12.579238942875305" fill="#70ad47"></rect><text class="label" x="302.87472805329435" y="152.07415311960767" font-size="10px">4,242x</text><text class="label" x="288.4680574112498" y="165.31545727000272" font-size="10px">3,819x</text><text class="label" x="206.66551835993818" y="178.55676142039778" font-size="10px">1,415x</text><text class="label" x="164.77942328756882" y="191.79806557079286" font-size="10px">185x</text><text class="label" x="159.0414232617665" y="205.0393697211879" font-size="10px">16x</text><text class="label" x="158.53403211028143" y="218.28067387158296" font-size="10px">1x</text><text class="label" x="299.37472805329435" y="153.57415311960767" font-size="8px"></text><text class="label" x="284.9680574112498" y="166.81545727000272" font-size="8px"></text><text class="label" x="203.16551835993818" y="180.05676142039778" font-size="8px"></text><text class="label" x="161.27942328756882" y="193.29806557079286" font-size="8px"></text><text class="label" x="155.5414232617665" y="206.5393697211879" font-size="8px"></text><text class="label" x="155.03403211028143" y="219.78067387158296" font-size="8px"></text></g><g style="font-size: 13px;"><rect x="150" y="232.5851421305967" width="114.34539393727454" height="12.579238942875305" fill="#4472c4"></rect><rect x="150" y="245.82644628099175" width="104.50009760105166" height="12.579238942875305" fill="#ed7d31"></rect><rect x="150" y="259.0677504313868" width="48.89141911697168" height="12.579238942875305" fill="#a5a5a5"></rect><rect x="150" y="272.3090545817819" width="6.698256587396089" height="12.579238942875305" fill="#ffc000"></rect><rect x="150" y="285.5503587321769" width="0.1400130310883331" height="12.579238942875305" fill="#5b9bd5"></rect><rect x="150" y="298.791662882572" width="0.03403211028143059" height="12.579238942875305" fill="#70ad47"></rect><text class="label" x="272.84539393727454" y="241.0851421305967" font-size="10px">3,360x</text><text class="label" x="263.00009760105166" y="254.32644628099175" font-size="10px">3,071x</text><text class="label" x="207.3914191169717" y="267.5677504313868" font-size="10px">1,437x</text><text class="label" x="165.1982565873961" y="280.8090545817819" font-size="10px">197x</text><text class="label" x="158.64001303108833" y="294.0503587321769" font-size="10px">4x</text><text class="label" x="158.53403211028143" y="307.291662882572" font-size="10px">1x</text><text class="label" x="269.34539393727454" y="242.5851421305967" font-size="8px"></text><text class="label" x="259.50009760105166" y="255.82644628099175" font-size="8px"></text><text class="label" x="203.8914191169717" y="269.0677504313868" font-size="8px"></text><text class="label" x="161.6982565873961" y="282.3090545817819" font-size="8px"></text><text class="label" x="155.14001303108833" y="295.5503587321769" font-size="8px"></text><text class="label" x="155.03403211028143" y="308.791662882572" font-size="8px"></text></g><g style="font-size: 13px;"><rect x="150" y="321.59613114158566" width="13.511149520829195" height="12.579238942875305" fill="#4472c4"></rect><rect x="150" y="334.83743529198074" width="7.563191690653476" height="12.579238942875305" fill="#ed7d31"></rect><rect x="150" y="348.07873944237576" width="5.227481451467344" height="12.579238942875305" fill="#a5a5a5"></rect><rect x="150" y="361.32004359277084" width="1.592876136136015" height="12.579238942875305" fill="#ffc000"></rect><rect x="150" y="374.5613477431659" width="0.03403211028143059" height="12.579238942875305" fill="#5b9bd5"></rect><rect x="150" y="387.80265189356095" width="0.05925991925210816" height="12.579238942875305" fill="#70ad47"></rect><text class="label" x="172.0111495208292" y="330.09613114158566" font-size="10px">397x</text><text class="label" x="166.06319169065347" y="343.33743529198074" font-size="10px">222x</text><text class="label" x="163.72748145146736" y="356.57873944237576" font-size="10px">154x</text><text class="label" x="160.09287613613603" y="369.82004359277084" font-size="10px">47x</text><text class="label" x="158.53403211028143" y="383.0613477431659" font-size="10px">1x</text><text class="label" x="158.5592599192521" y="396.30265189356095" font-size="10px">2x</text><text class="label" x="168.5111495208292" y="331.59613114158566" font-size="8px"></text><text class="label" x="162.56319169065347" y="344.83743529198074" font-size="8px"></text><text class="label" x="160.22748145146736" y="358.07873944237576" font-size="8px"></text><text class="label" x="156.59287613613603" y="371.32004359277084" font-size="8px"></text><text class="label" x="155.03403211028143" y="384.5613477431659" font-size="8px"></text><text class="label" x="155.0592599192521" y="397.80265189356095" font-size="8px"></text></g><g style="font-size: 13px;"><rect x="150" y="410.6071201525747" width="485" height="12.579238942875305" fill="#4472c4"></rect><rect x="150" y="423.84842430296976" width="0" height="12.579238942875305" fill="#ed7d31"></rect><rect x="150" y="437.08972845336484" width="0" height="12.579238942875305" fill="#a5a5a5"></rect><rect x="150" y="450.33103260375987" width="0" height="12.579238942875305" fill="#ffc000"></rect><rect x="150" y="463.57233675415495" width="0" height="12.579238942875305" fill="#5b9bd5"></rect><rect x="150" y="476.81364090454997" width="0" height="12.579238942875305" fill="#70ad47"></rect><text class="label" x="643.5" y="419.1071201525747" font-size="10px">Infinity</text><text class="label" x="158.5" y="432.34842430296976" font-size="10px"></text><text class="label" x="158.5" y="445.58972845336484" font-size="10px"></text><text class="label" x="158.5" y="458.83103260375987" font-size="10px"></text><text class="label" x="158.5" y="472.07233675415495" font-size="10px"></text><text class="label" x="158.5" y="485.31364090454997" font-size="10px"></text><text class="label" x="640" y="420.6071201525747" font-size="8px"></text><text class="label" x="155" y="433.84842430296976" font-size="8px">Failed</text><text class="label" x="155" y="447.08972845336484" font-size="8px">Failed</text><text class="label" x="155" y="460.33103260375987" font-size="8px">Failed</text><text class="label" x="155" y="473.57233675415495" font-size="8px">Failed</text><text class="label" x="155" y="486.81364090454997" font-size="8px">Failed</text></g><g style="font-size: 13px;"><rect x="150" y="499.6181091635637" width="114.76981087203916" height="12.579238942875305" fill="#4472c4"></rect><rect x="150" y="512.8594133139588" width="83.00846289118937" height="12.579238942875305" fill="#ed7d31"></rect><rect x="150" y="526.1007174643538" width="27.052701403237712" height="12.579238942875305" fill="#a5a5a5"></rect><rect x="150" y="539.3420216147489" width="6.025449848190196" height="12.579238942875305" fill="#ffc000"></rect><rect x="150" y="552.583325765144" width="0.17447286123256414" height="12.579238942875305" fill="#5b9bd5"></rect><rect x="150" y="565.824629915539" width="0.03403211028143059" height="12.579238942875305" fill="#70ad47"></rect><text class="label" x="273.26981087203916" y="508.1181091635637" font-size="10px">3,372x</text><text class="label" x="241.50846289118937" y="521.3594133139588" font-size="10px">2,439x</text><text class="label" x="185.5527014032377" y="534.6007174643538" font-size="10px">795x</text><text class="label" x="164.5254498481902" y="547.8420216147489" font-size="10px">177x</text><text class="label" x="158.67447286123257" y="561.083325765144" font-size="10px">5x</text><text class="label" x="158.53403211028143" y="574.324629915539" font-size="10px">1x</text><text class="label" x="269.76981087203916" y="509.6181091635637" font-size="8px"></text><text class="label" x="238.00846289118937" y="522.8594133139588" font-size="8px"></text><text class="label" x="182.0527014032377" y="536.1007174643538" font-size="8px"></text><text class="label" x="161.0254498481902" y="549.3420216147489" font-size="8px"></text><text class="label" x="155.17447286123257" y="562.583325765144" font-size="8px"></text><text class="label" x="155.03403211028143" y="575.824629915539" font-size="8px"></text></g><g style="font-size: 13px;"><rect x="150" y="588.6290981745527" width="19.25245095920931" height="12.579238942875305" fill="#4472c4"></rect><rect x="150" y="601.8704023249478" width="8.461436361070879" height="12.579238942875305" fill="#ed7d31"></rect><rect x="150" y="615.1117064753429" width="4.450262865155296" height="12.579238942875305" fill="#a5a5a5"></rect><rect x="150" y="628.353010625738" width="1.8275205393662188" height="12.579238942875305" fill="#ffc000"></rect><rect x="150" y="641.5943147761329" width="0.03403211028143059" height="12.579238942875305" fill="#5b9bd5"></rect><rect x="150" y="654.835618926528" width="0.19733129761081816" height="12.579238942875305" fill="#70ad47"></rect><text class="label" x="177.7524509592093" y="597.1290981745527" font-size="10px">566x</text><text class="label" x="166.96143636107087" y="610.3704023249478" font-size="10px">249x</text><text class="label" x="162.9502628651553" y="623.6117064753429" font-size="10px">131x</text><text class="label" x="160.32752053936622" y="636.853010625738" font-size="10px">54x</text><text class="label" x="158.53403211028143" y="650.0943147761329" font-size="10px">1x</text><text class="label" x="158.69733129761082" y="663.335618926528" font-size="10px">6x</text><text class="label" x="174.2524509592093" y="598.6290981745527" font-size="8px"></text><text class="label" x="163.46143636107087" y="611.8704023249478" font-size="8px"></text><text class="label" x="159.4502628651553" y="625.1117064753429" font-size="8px"></text><text class="label" x="156.82752053936622" y="638.353010625738" font-size="8px"></text><text class="label" x="155.03403211028143" y="651.5943147761329" font-size="8px"></text><text class="label" x="155.19733129761082" y="664.835618926528" font-size="8px"></text></g><g style="font-size: 13px;"><rect x="150" y="677.6400871855418" width="485" height="12.579238942875305" fill="#4472c4"></rect><rect x="150" y="690.8813913359369" width="0" height="12.579238942875305" fill="#ed7d31"></rect><rect x="150" y="704.122695486332" width="0" height="12.579238942875305" fill="#a5a5a5"></rect><rect x="150" y="717.363999636727" width="0" height="12.579238942875305" fill="#ffc000"></rect><rect x="150" y="730.605303787122" width="0" height="12.579238942875305" fill="#5b9bd5"></rect><rect x="150" y="743.8466079375171" width="0" height="12.579238942875305" fill="#70ad47"></rect><text class="label" x="643.5" y="686.1400871855418" font-size="10px">Infinity</text><text class="label" x="158.5" y="699.3813913359369" font-size="10px"></text><text class="label" x="158.5" y="712.622695486332" font-size="10px"></text><text class="label" x="158.5" y="725.863999636727" font-size="10px"></text><text class="label" x="158.5" y="739.105303787122" font-size="10px"></text><text class="label" x="158.5" y="752.3466079375171" font-size="10px"></text><text class="label" x="640" y="687.6400871855418" font-size="8px"></text><text class="label" x="155" y="700.8813913359369" font-size="8px">Failed</text><text class="label" x="155" y="714.122695486332" font-size="8px">Failed</text><text class="label" x="155" y="727.363999636727" font-size="8px">Failed</text><text class="label" x="155" y="740.605303787122" font-size="8px">Failed</text><text class="label" x="155" y="753.8466079375171" font-size="8px">Failed</text></g><g style="font-size: 13px;"><rect x="150" y="766.6510761965307" width="485" height="12.579238942875305" fill="#4472c4"></rect><rect x="150" y="779.8923803469257" width="0" height="12.579238942875305" fill="#ed7d31"></rect><rect x="150" y="793.1336844973208" width="0" height="12.579238942875305" fill="#a5a5a5"></rect><rect x="150" y="806.3749886477159" width="0" height="12.579238942875305" fill="#ffc000"></rect><rect x="150" y="819.6162927981109" width="0" height="12.579238942875305" fill="#5b9bd5"></rect><rect x="150" y="832.8575969485059" width="0" height="12.579238942875305" fill="#70ad47"></rect><text class="label" x="643.5" y="775.1510761965307" font-size="10px">Infinity</text><text class="label" x="158.5" y="788.3923803469257" font-size="10px"></text><text class="label" x="158.5" y="801.6336844973208" font-size="10px"></text><text class="label" x="158.5" y="814.8749886477159" font-size="10px"></text><text class="label" x="158.5" y="828.1162927981109" font-size="10px"></text><text class="label" x="158.5" y="841.3575969485059" font-size="10px"></text><text class="label" x="640" y="776.6510761965307" font-size="8px"></text><text class="label" x="155" y="789.8923803469257" font-size="8px">Failed</text><text class="label" x="155" y="803.1336844973208" font-size="8px">Failed</text><text class="label" x="155" y="816.3749886477159" font-size="8px">Failed</text><text class="label" x="155" y="829.6162927981109" font-size="8px">Failed</text><text class="label" x="155" y="842.8575969485059" font-size="8px">Failed</text></g></g></svg>