<svg xmlns="http://www.w3.org/2000/svg" xmlns:xlink="http://www.w3.org/1999/xlink" width="800" height="390" style="background-color: white;"><g class="y axis" transform="translate(149,45)" fill="none" font-size="10" font-family="sans-serif" text-anchor="end" style="font-size: 13px;"><path class="domain" stroke="currentColor" d="M0.5,0.5V315.5"></path><g class="tick" opacity="1" transform="translate(0,24.40140845070425)" style="font-size: 13px;"><line stroke="currentColor" x2="0"></line><text fill="currentColor" x="-3" dy="0.32em">object (hierarchical)    </text></g><g class="tick" opacity="1" transform="translate(0,68.76760563380283)" style="font-size: 13px;"><line stroke="currentColor" x2="0"></line><text fill="currentColor" x="-3" dy="0.32em">object (recursive)    </text></g><g class="tick" opacity="1" transform="translate(0,113.13380281690142)" style="font-size: 13px;"><line stroke="currentColor" x2="0"></line><text fill="currentColor" x="-3" dy="0.32em">object (union)    </text></g><g class="tick" opacity="1" transform="translate(0,157.5)" style="font-size: 13px;"><line stroke="currentColor" x2="0"></line><text fill="currentColor" x="-3" dy="0.32em">array (hierarchical)    </text></g><g class="tick" opacity="1" transform="translate(0,201.8661971830986)" style="font-size: 13px;"><line stroke="currentColor" x2="0"></line><text fill="currentColor" x="-3" dy="0.32em">array (recursive)    </text></g><g class="tick" opacity="1" transform="translate(0,246.23239436619718)" style="font-size: 13px;"><line stroke="currentColor" x2="0"></line><text fill="currentColor" x="-3" dy="0.32em">array (union)    </text></g><g class="tick" opacity="1" transform="translate(0,290.59859154929575)" style="font-size: 13px;"><line stroke="currentColor" x2="0"></line><text fill="currentColor" x="-3" dy="0.32em">ultimate union    </text></g></g><g class="x axis" transform="translate(149,360)" fill="none" font-size="10" font-family="sans-serif" text-anchor="middle" style="font-size: 13px;"><path class="domain" stroke="currentColor" d="M0.5,0.5H485.5"></path><g class="tick" opacity="1" transform="translate(0.5,0)" style="font-size: 13px;"><line stroke="currentColor" y2="6"></line><text fill="currentColor" y="9" dy="0.71em">0x</text></g><g class="tick" opacity="1" transform="translate(137.85795397669963,0)" style="font-size: 13px;"><line stroke="currentColor" y2="6"></line><text fill="currentColor" y="9" dy="0.71em">5,000x</text></g><g class="tick" opacity="1" transform="translate(275.21590795339927,0)" style="font-size: 13px;"><line stroke="currentColor" y2="6"></line><text fill="currentColor" y="9" dy="0.71em">10,000x</text></g><g class="tick" opacity="1" transform="translate(412.5738619300989,0)" style="font-size: 13px;"><line stroke="currentColor" y2="6"></line><text fill="currentColor" y="9" dy="0.71em">15,000x</text></g></g><text transform="translate(400, 30)" style="text-anchor: middle; font-size: 20px; font-weight: bold;">optimizer benchmark</text><rect x="680" y="105" width="200" height="5" fill="gray"></rect><rect x="675" y="35" width="200" height="70" fill="none" stroke="black"></rect><rect x="685" y="45" width="10" height="10" style="fill: #4472c4;"></rect><text x="700" y="55" style="font-size: 12px;">typescript-json</text><rect x="685" y="65" width="10" height="10" style="fill: #ed7d31;"></rect><text x="700" y="75" style="font-size: 12px;">typebox</text><rect x="685" y="85" width="10" height="10" style="fill: #a5a5a5;"></rect><text x="700" y="95" style="font-size: 12px;">ajv</text><g style="font-size: 13px;"><g style="font-size: 13px;"><rect x="150" y="50.091202955437566" width="440.9090909090908" height="12.437081505425995" fill="#4472c4"></rect><rect x="150" y="63.18286769799125" width="0.7422915404870166" height="12.437081505425995" fill="#ed7d31"></rect><rect x="150" y="76.27453244054493" width="0.027471590795339923" height="12.437081505425995" fill="#a5a5a5"></rect><text class="label" x="599.4090909090908" y="58.591202955437566" font-size="10px">16,050x</text><text class="label" x="159.242291540487" y="71.68286769799124" font-size="10px">27x</text><text class="label" x="158.52747159079533" y="84.77453244054493" font-size="10px">1x</text><text class="label" x="595.9090909090908" y="60.091202955437566" font-size="8px"></text><text class="label" x="155.742291540487" y="73.18286769799124" font-size="8px"></text><text class="label" x="155.02747159079533" y="86.27453244054493" font-size="8px"></text></g><g style="font-size: 13px;"><rect x="150" y="94.45740013853616" width="142.00154601943058" height="12.437081505425995" fill="#4472c4"></rect><rect x="150" y="107.54906488108983" width="1.8372585067487759" height="12.437081505425995" fill="#ed7d31"></rect><rect x="150" y="120.64072962364352" width="0.027471590795339923" height="12.437081505425995" fill="#a5a5a5"></rect><text class="label" x="300.5015460194306" y="102.95740013853616" font-size="10px">5,169x</text><text class="label" x="160.33725850674878" y="116.04906488108983" font-size="10px">67x</text><text class="label" x="158.52747159079533" y="129.14072962364352" font-size="10px">1x</text><text class="label" x="297.0015460194306" y="104.45740013853616" font-size="8px"></text><text class="label" x="156.83725850674878" y="117.54906488108983" font-size="8px"></text><text class="label" x="155.02747159079533" y="130.64072962364352" font-size="8px"></text></g><g style="font-size: 13px;"><rect x="150" y="138.82359732163474" width="92.86310009867942" height="12.437081505425995" fill="#4472c4"></rect><rect x="150" y="151.91526206418843" width="0.4452753760763227" height="12.437081505425995" fill="#ed7d31"></rect><rect x="150" y="165.00692680674211" width="0.027471590795339923" height="12.437081505425995" fill="#a5a5a5"></rect><text class="label" x="251.3631000986794" y="147.32359732163474" font-size="10px">3,380x</text><text class="label" x="158.94527537607632" y="160.41526206418843" font-size="10px">16x</text><text class="label" x="158.52747159079533" y="173.50692680674211" font-size="10px">1x</text><text class="label" x="247.8631000986794" y="148.82359732163474" font-size="8px"></text><text class="label" x="155.44527537607632" y="161.91526206418843" font-size="8px"></text><text class="label" x="155.02747159079533" y="175.00692680674211" font-size="8px"></text></g><g style="font-size: 13px;"><rect x="150" y="183.18979450473333" width="8.565717537812011" height="12.437081505425995" fill="#4472c4"></rect><rect x="150" y="196.281459247287" width="3.075769796936389" height="12.437081505425995" fill="#ed7d31"></rect><rect x="150" y="209.37312398984068" width="0.027471590795339923" height="12.437081505425995" fill="#a5a5a5"></rect><text class="label" x="167.06571753781202" y="191.68979450473333" font-size="10px">312x</text><text class="label" x="161.57576979693638" y="204.781459247287" font-size="10px">112x</text><text class="label" x="158.52747159079533" y="217.87312398984068" font-size="10px">1x</text><text class="label" x="163.56571753781202" y="193.18979450473333" font-size="8px"></text><text class="label" x="158.07576979693638" y="206.281459247287" font-size="8px"></text><text class="label" x="155.02747159079533" y="219.37312398984068" font-size="8px"></text></g><g style="font-size: 13px;"><rect x="150" y="227.55599168783192" width="11.981232527756653" height="12.437081505425995" fill="#4472c4"></rect><rect x="150" y="240.64765643038558" width="1.7377836894220822" height="12.437081505425995" fill="#ed7d31"></rect><rect x="150" y="253.73932117293927" width="0.027471590795339923" height="12.437081505425995" fill="#a5a5a5"></rect><text class="label" x="170.48123252775665" y="236.05599168783192" font-size="10px">436x</text><text class="label" x="160.2377836894221" y="249.14765643038558" font-size="10px">63x</text><text class="label" x="158.52747159079533" y="262.2393211729393" font-size="10px">1x</text><text class="label" x="166.98123252775665" y="237.55599168783192" font-size="8px"></text><text class="label" x="156.7377836894221" y="250.64765643038558" font-size="8px"></text><text class="label" x="155.02747159079533" y="263.7393211729393" font-size="8px"></text></g><g style="font-size: 13px;"><rect x="150" y="271.92218887093054" width="12.584611050082808" height="12.437081505425995" fill="#4472c4"></rect><rect x="150" y="285.0138536134842" width="0.7978559149449889" height="12.437081505425995" fill="#ed7d31"></rect><rect x="150" y="298.10551835603786" width="0.027471590795339923" height="12.437081505425995" fill="#a5a5a5"></rect><text class="label" x="171.0846110500828" y="280.42218887093054" font-size="10px">458x</text><text class="label" x="159.297855914945" y="293.5138536134842" font-size="10px">29x</text><text class="label" x="158.52747159079533" y="306.60551835603786" font-size="10px">1x</text><text class="label" x="167.5846110500828" y="281.92218887093054" font-size="8px"></text><text class="label" x="155.797855914945" y="295.0138536134842" font-size="8px"></text><text class="label" x="155.02747159079533" y="308.10551835603786" font-size="8px"></text></g><g style="font-size: 13px;"><rect x="150" y="316.28838605402905" width="15.841431056727611" height="12.437081505425995" fill="#4472c4"></rect><rect x="150" y="329.38005079658274" width="0.3280864039792817" height="12.437081505425995" fill="#ed7d31"></rect><rect x="150" y="342.4717155391364" width="0.027471590795339923" height="12.437081505425995" fill="#a5a5a5"></rect><text class="label" x="174.3414310567276" y="324.78838605402905" font-size="10px">577x</text><text class="label" x="158.82808640397928" y="337.88005079658274" font-size="10px">12x</text><text class="label" x="158.52747159079533" y="350.9717155391364" font-size="10px">1x</text><text class="label" x="170.8414310567276" y="326.28838605402905" font-size="8px"></text><text class="label" x="155.32808640397928" y="339.38005079658274" font-size="8px"></text><text class="label" x="155.02747159079533" y="352.4717155391364" font-size="8px"></text></g></g></svg>