<svg xmlns="http://www.w3.org/2000/svg" xmlns:xlink="http://www.w3.org/1999/xlink" width="800" height="600" style="background-color: white;"><g class="y axis" transform="translate(149,45)" fill="none" font-size="10" font-family="sans-serif" text-anchor="end" style="font-size: 13px;"><path class="domain" stroke="currentColor" d="M0.5,0.5V525.5"></path><g class="tick" opacity="1" transform="translate(0,40.66901408450705)" style="font-size: 13px;"><line stroke="currentColor" x2="0"></line><text fill="currentColor" x="-3" dy="0.32em">object (simple)    </text></g><g class="tick" opacity="1" transform="translate(0,114.61267605633802)" style="font-size: 13px;"><line stroke="currentColor" x2="0"></line><text fill="currentColor" x="-3" dy="0.32em">object (hierarchical)    </text></g><g class="tick" opacity="1" transform="translate(0,188.556338028169)" style="font-size: 13px;"><line stroke="currentColor" x2="0"></line><text fill="currentColor" x="-3" dy="0.32em">object (recursive)    </text></g><g class="tick" opacity="1" transform="translate(0,262.5)" style="font-size: 13px;"><line stroke="currentColor" x2="0"></line><text fill="currentColor" x="-3" dy="0.32em">object (union)    </text></g><g class="tick" opacity="1" transform="translate(0,336.443661971831)" style="font-size: 13px;"><line stroke="currentColor" x2="0"></line><text fill="currentColor" x="-3" dy="0.32em">array (hierarchical)    </text></g><g class="tick" opacity="1" transform="translate(0,410.38732394366195)" style="font-size: 13px;"><line stroke="currentColor" x2="0"></line><text fill="currentColor" x="-3" dy="0.32em">array (recursive)    </text></g><g class="tick" opacity="1" transform="translate(0,484.33098591549293)" style="font-size: 13px;"><line stroke="currentColor" x2="0"></line><text fill="currentColor" x="-3" dy="0.32em">array (union)    </text></g></g><g class="x axis" transform="translate(149,570)" fill="none" font-size="10" font-family="sans-serif" text-anchor="middle" style="font-size: 13px;"><path class="domain" stroke="currentColor" d="M0.5,0.5H485.5"></path><g class="tick" opacity="1" transform="translate(0.5,0)" style="font-size: 13px;"><line stroke="currentColor" y2="6"></line><text fill="currentColor" y="9" dy="0.71em">0x</text></g><g class="tick" opacity="1" transform="translate(125.57643286817886,0)" style="font-size: 13px;"><line stroke="currentColor" y2="6"></line><text fill="currentColor" y="9" dy="0.71em">1x</text></g><g class="tick" opacity="1" transform="translate(250.6528657363577,0)" style="font-size: 13px;"><line stroke="currentColor" y2="6"></line><text fill="currentColor" y="9" dy="0.71em">2x</text></g><g class="tick" opacity="1" transform="translate(375.7292986045366,0)" style="font-size: 13px;"><line stroke="currentColor" y2="6"></line><text fill="currentColor" y="9" dy="0.71em">3x</text></g></g><text transform="translate(400, 30)" style="text-anchor: middle; font-size: 20px; font-weight: bold;">stringify benchmark</text><rect x="680" y="145" width="200" height="5" fill="gray"></rect><rect x="675" y="35" width="200" height="110" fill="none" stroke="black"></rect><rect x="685" y="45" width="10" height="10" style="fill: #4472c4;"></rect><text x="700" y="55" style="font-size: 12px;">TSON.stringify()</text><rect x="685" y="65" width="10" height="10" style="fill: #ed7d31;"></rect><text x="700" y="75" style="font-size: 12px;">TSON.assertStringify()</text><rect x="685" y="85" width="10" height="10" style="fill: #a5a5a5;"></rect><text x="700" y="95" style="font-size: 12px;">TSON.isStringify()</text><rect x="685" y="105" width="10" height="10" style="fill: #ffc000;"></rect><text x="700" y="115" style="font-size: 12px;">JSON.stringify()</text><rect x="685" y="125" width="10" height="10" style="fill: #5b9bd5;"></rect><text x="700" y="135" style="font-size: 12px;">fast-json-stringify</text><g style="font-size: 13px;"><g style="font-size: 13px;"><rect x="150" y="53.05327011574397" width="440.9090909090908" height="12.519174452656534" fill="#4472c4"></rect><rect x="150" y="66.23134848696137" width="356.9361947599225" height="12.519174452656534" fill="#ed7d31"></rect><rect x="150" y="79.40942685817878" width="402.5084184270287" height="12.519174452656534" fill="#a5a5a5"></rect><rect x="150" y="92.58750522939619" width="125.07643286817886" height="12.519174452656534" fill="#ffc000"></rect><rect x="150" y="105.76558360061358" width="304.3815002436787" height="12.519174452656534" fill="#5b9bd5"></rect><text class="label" x="599.4090909090908" y="61.55327011574397" font-size="10px">3.53x</text><text class="label" x="515.4361947599225" y="74.73134848696137" font-size="10px">2.85x</text><text class="label" x="561.0084184270287" y="87.90942685817878" font-size="10px">3.22x</text><text class="label" x="283.57643286817887" y="101.08750522939619" font-size="10px">1x</text><text class="label" x="462.8815002436787" y="114.26558360061358" font-size="10px">2.43x</text><text class="label" x="595.9090909090908" y="63.05327011574397" font-size="8px"></text><text class="label" x="511.9361947599225" y="76.23134848696137" font-size="8px"></text><text class="label" x="557.5084184270287" y="89.40942685817878" font-size="8px"></text><text class="label" x="280.07643286817887" y="102.58750522939619" font-size="8px"></text><text class="label" x="459.3815002436787" y="115.76558360061358" font-size="8px"></text></g><g style="font-size: 13px;"><rect x="150" y="126.99693208757495" width="281.44572618701505" height="12.519174452656534" fill="#4472c4"></rect><rect x="150" y="140.17501045879237" width="254.38457796599354" height="12.519174452656534" fill="#ed7d31"></rect><rect x="150" y="153.35308883000977" width="264.8993605228036" height="12.519174452656534" fill="#a5a5a5"></rect><rect x="150" y="166.53116720122716" width="125.07643286817886" height="12.519174452656534" fill="#ffc000"></rect><rect x="150" y="179.70924557244456" width="260.8002085782121" height="12.519174452656534" fill="#5b9bd5"></rect><text class="label" x="439.94572618701505" y="135.49693208757495" font-size="10px">2.25x</text><text class="label" x="412.88457796599357" y="148.67501045879237" font-size="10px">2.03x</text><text class="label" x="423.3993605228036" y="161.85308883000977" font-size="10px">2.12x</text><text class="label" x="283.57643286817887" y="175.03116720122716" font-size="10px">1x</text><text class="label" x="419.3002085782121" y="188.20924557244456" font-size="10px">2.09x</text><text class="label" x="436.44572618701505" y="136.99693208757495" font-size="8px"></text><text class="label" x="409.38457796599357" y="150.17501045879237" font-size="8px"></text><text class="label" x="419.8993605228036" y="163.35308883000977" font-size="8px"></text><text class="label" x="280.07643286817887" y="176.53116720122716" font-size="8px"></text><text class="label" x="415.8002085782121" y="189.70924557244456" font-size="8px"></text></g><g style="font-size: 13px;"><rect x="150" y="200.94059405940592" width="269.6441970716711" height="12.519174452656534" fill="#4472c4"></rect><rect x="150" y="214.11867243062332" width="256.43444946539086" height="12.519174452656534" fill="#ed7d31"></rect><rect x="150" y="227.29675080184074" width="264.82016135561264" height="12.519174452656534" fill="#a5a5a5"></rect><rect x="150" y="240.47482917305814" width="125.07643286817886" height="12.519174452656534" fill="#ffc000"></rect><rect x="150" y="253.65290754427554" width="126.04798602777147" height="12.519174452656534" fill="#5b9bd5"></rect><text class="label" x="428.1441970716711" y="209.44059405940592" font-size="10px">2.16x</text><text class="label" x="414.93444946539086" y="222.61867243062332" font-size="10px">2.05x</text><text class="label" x="423.32016135561264" y="235.79675080184074" font-size="10px">2.12x</text><text class="label" x="283.57643286817887" y="248.97482917305814" font-size="10px">1x</text><text class="label" x="284.54798602777146" y="262.15290754427554" font-size="10px">1.01x</text><text class="label" x="424.6441970716711" y="210.94059405940592" font-size="8px"></text><text class="label" x="411.43444946539086" y="224.11867243062332" font-size="8px"></text><text class="label" x="419.82016135561264" y="237.29675080184074" font-size="8px"></text><text class="label" x="280.07643286817887" y="250.47482917305814" font-size="8px"></text><text class="label" x="281.04798602777146" y="263.65290754427554" font-size="8px"></text></g><g style="font-size: 13px;"><rect x="150" y="274.8842560312369" width="168.61925585663315" height="12.519174452656534" fill="#4472c4"></rect><rect x="150" y="288.0623344024543" width="129.4642737403188" height="12.519174452656534" fill="#ed7d31"></rect><rect x="150" y="301.2404127736717" width="153.8453710051852" height="12.519174452656534" fill="#a5a5a5"></rect><rect x="150" y="314.4184911448891" width="125.07643286817886" height="12.519174452656534" fill="#ffc000"></rect><rect x="150" y="327.5965695161065" width="160.04088231620221" height="12.519174452656534" fill="#5b9bd5"></rect><text class="label" x="327.1192558566331" y="283.3842560312369" font-size="10px">1.35x</text><text class="label" x="287.9642737403188" y="296.5623344024543" font-size="10px">1.04x</text><text class="label" x="312.3453710051852" y="309.7404127736717" font-size="10px">1.23x</text><text class="label" x="283.57643286817887" y="322.9184911448891" font-size="10px">1x</text><text class="label" x="318.5408823162022" y="336.0965695161065" font-size="10px">1.28x</text><text class="label" x="323.6192558566331" y="284.8842560312369" font-size="8px"></text><text class="label" x="284.4642737403188" y="298.0623344024543" font-size="8px"></text><text class="label" x="308.8453710051852" y="311.2404127736717" font-size="8px"></text><text class="label" x="280.07643286817887" y="324.4184911448891" font-size="8px"></text><text class="label" x="315.0408823162022" y="337.5965695161065" font-size="8px"></text></g><g style="font-size: 13px;"><rect x="150" y="348.8279180030679" width="149.15557331167417" height="12.519174452656534" fill="#4472c4"></rect><rect x="150" y="362.0059963742853" width="134.56435075657737" height="12.519174452656534" fill="#ed7d31"></rect><rect x="150" y="375.1840747455027" width="147.97885910541584" height="12.519174452656534" fill="#a5a5a5"></rect><rect x="150" y="388.3621531167201" width="125.07643286817886" height="12.519174452656534" fill="#ffc000"></rect><rect x="150" y="401.5402314879375" width="202.71254397905804" height="12.519174452656534" fill="#5b9bd5"></rect><text class="label" x="307.6555733116742" y="357.3279180030679" font-size="10px">1.19x</text><text class="label" x="293.06435075657737" y="370.5059963742853" font-size="10px">1.08x</text><text class="label" x="306.47885910541584" y="383.6840747455027" font-size="10px">1.18x</text><text class="label" x="283.57643286817887" y="396.8621531167201" font-size="10px">1x</text><text class="label" x="361.21254397905807" y="410.0402314879375" font-size="10px">1.62x</text><text class="label" x="304.1555733116742" y="358.8279180030679" font-size="8px"></text><text class="label" x="289.56435075657737" y="372.0059963742853" font-size="8px"></text><text class="label" x="302.97885910541584" y="385.1840747455027" font-size="8px"></text><text class="label" x="280.07643286817887" y="398.3621531167201" font-size="8px"></text><text class="label" x="357.71254397905807" y="411.5402314879375" font-size="8px"></text></g><g style="font-size: 13px;"><rect x="150" y="422.7715799748988" width="166.14803144040567" height="12.519174452656534" fill="#4472c4"></rect><rect x="150" y="435.9496583461163" width="144.6821882314135" height="12.519174452656534" fill="#ed7d31"></rect><rect x="150" y="449.1277367173337" width="161.97418672876734" height="12.519174452656534" fill="#a5a5a5"></rect><rect x="150" y="462.30581508855107" width="125.07643286817886" height="12.519174452656534" fill="#ffc000"></rect><rect x="150" y="475.48389345976847" width="125.0873459743709" height="12.519174452656534" fill="#5b9bd5"></rect><text class="label" x="324.6480314404057" y="431.2715799748988" font-size="10px">1.33x</text><text class="label" x="303.18218823141353" y="444.4496583461163" font-size="10px">1.16x</text><text class="label" x="320.47418672876734" y="457.6277367173337" font-size="10px">1.3x</text><text class="label" x="283.57643286817887" y="470.80581508855107" font-size="10px">1x</text><text class="label" x="283.5873459743709" y="483.98389345976847" font-size="10px">1x</text><text class="label" x="321.1480314404057" y="432.7715799748988" font-size="8px"></text><text class="label" x="299.68218823141353" y="445.9496583461163" font-size="8px"></text><text class="label" x="316.97418672876734" y="459.1277367173337" font-size="8px"></text><text class="label" x="280.07643286817887" y="472.30581508855107" font-size="8px"></text><text class="label" x="280.0873459743709" y="485.48389345976847" font-size="8px"></text></g><g style="font-size: 13px;"><rect x="150" y="496.71524194672986" width="150.49833830300588" height="12.519174452656534" fill="#4472c4"></rect><rect x="150" y="509.89332031794726" width="125.07643286817886" height="12.519174452656534" fill="#ed7d31"></rect><rect x="150" y="523.0713986891647" width="136.40594181410071" height="12.519174452656534" fill="#a5a5a5"></rect><rect x="150" y="536.2494770603821" width="167.2301408956551" height="12.519174452656534" fill="#ffc000"></rect><rect x="150" y="549.4275554315994" width="149.99153341394648" height="12.519174452656534" fill="#5b9bd5"></rect><text class="label" x="308.9983383030059" y="505.21524194672986" font-size="10px">1.2x</text><text class="label" x="283.57643286817887" y="518.3933203179472" font-size="10px">1x</text><text class="label" x="294.90594181410074" y="531.5713986891647" font-size="10px">1.09x</text><text class="label" x="325.7301408956551" y="544.7494770603821" font-size="10px">1.34x</text><text class="label" x="308.4915334139465" y="557.9275554315994" font-size="10px">1.2x</text><text class="label" x="305.4983383030059" y="506.71524194672986" font-size="8px"></text><text class="label" x="280.07643286817887" y="519.8933203179472" font-size="8px"></text><text class="label" x="291.40594181410074" y="533.0713986891647" font-size="8px"></text><text class="label" x="322.2301408956551" y="546.2494770603821" font-size="8px"></text><text class="label" x="304.9915334139465" y="559.4275554315994" font-size="8px"></text></g></g></svg>