<svg xmlns="http://www.w3.org/2000/svg" xmlns:xlink="http://www.w3.org/1999/xlink" width="800" height="600" style="background-color: white;"><g class="y axis" transform="translate(149,45)" fill="none" font-size="10" font-family="sans-serif" text-anchor="end" style="font-size: 13px;"><path class="domain" stroke="currentColor" d="M0.5,0.5V525.5"></path><g class="tick" opacity="1" transform="translate(0,40.66901408450705)" style="font-size: 13px;"><line stroke="currentColor" x2="0"></line><text fill="currentColor" x="-3" dy="0.32em">object (simple)    </text></g><g class="tick" opacity="1" transform="translate(0,114.61267605633802)" style="font-size: 13px;"><line stroke="currentColor" x2="0"></line><text fill="currentColor" x="-3" dy="0.32em">object (hierarchical)    </text></g><g class="tick" opacity="1" transform="translate(0,188.556338028169)" style="font-size: 13px;"><line stroke="currentColor" x2="0"></line><text fill="currentColor" x="-3" dy="0.32em">object (recursive)    </text></g><g class="tick" opacity="1" transform="translate(0,262.5)" style="font-size: 13px;"><line stroke="currentColor" x2="0"></line><text fill="currentColor" x="-3" dy="0.32em">object (union)    </text></g><g class="tick" opacity="1" transform="translate(0,336.443661971831)" style="font-size: 13px;"><line stroke="currentColor" x2="0"></line><text fill="currentColor" x="-3" dy="0.32em">array (hierarchical)    </text></g><g class="tick" opacity="1" transform="translate(0,410.38732394366195)" style="font-size: 13px;"><line stroke="currentColor" x2="0"></line><text fill="currentColor" x="-3" dy="0.32em">array (recursive)    </text></g><g class="tick" opacity="1" transform="translate(0,484.33098591549293)" style="font-size: 13px;"><line stroke="currentColor" x2="0"></line><text fill="currentColor" x="-3" dy="0.32em">array (union)    </text></g></g><g class="x axis" transform="translate(149,570)" fill="none" font-size="10" font-family="sans-serif" text-anchor="middle" style="font-size: 13px;"><path class="domain" stroke="currentColor" d="M0.5,0.5H485.5"></path><g class="tick" opacity="1" transform="translate(0.5,0)" style="font-size: 13px;"><line stroke="currentColor" y2="6"></line><text fill="currentColor" y="9" dy="0.71em">0x</text></g><g class="tick" opacity="1" transform="translate(135.30240596773334,0)" style="font-size: 13px;"><line stroke="currentColor" y2="6"></line><text fill="currentColor" y="9" dy="0.71em">1x</text></g><g class="tick" opacity="1" transform="translate(270.10481193546667,0)" style="font-size: 13px;"><line stroke="currentColor" y2="6"></line><text fill="currentColor" y="9" dy="0.71em">2x</text></g><g class="tick" opacity="1" transform="translate(404.90721790320003,0)" style="font-size: 13px;"><line stroke="currentColor" y2="6"></line><text fill="currentColor" y="9" dy="0.71em">3x</text></g></g><text transform="translate(400, 30)" style="text-anchor: middle; font-size: 20px; font-weight: bold;">stringify benchmark</text><rect x="680" y="145" width="200" height="5" fill="gray"></rect><rect x="675" y="35" width="200" height="110" fill="none" stroke="black"></rect><rect x="685" y="45" width="10" height="10" style="fill: #4472c4;"></rect><text x="700" y="55" style="font-size: 12px;">TSON.stringify()</text><rect x="685" y="65" width="10" height="10" style="fill: #ed7d31;"></rect><text x="700" y="75" style="font-size: 12px;">TSON.assertStringify()</text><rect x="685" y="85" width="10" height="10" style="fill: #a5a5a5;"></rect><text x="700" y="95" style="font-size: 12px;">TSON.isStringify()</text><rect x="685" y="105" width="10" height="10" style="fill: #ffc000;"></rect><text x="700" y="115" style="font-size: 12px;">fast-json-stringify</text><rect x="685" y="125" width="10" height="10" style="fill: #5b9bd5;"></rect><text x="700" y="135" style="font-size: 12px;">JSON.stringify</text><g style="font-size: 13px;"><g style="font-size: 13px;"><rect x="150" y="53.05327011574397" width="440.9090909090909" height="12.519174452656534" fill="#4472c4"></rect><rect x="150" y="66.23134848696137" width="376.6326528846789" height="12.519174452656534" fill="#ed7d31"></rect><rect x="150" y="79.40942685817878" width="416.4586700477175" height="12.519174452656534" fill="#a5a5a5"></rect><rect x="150" y="92.58750522939619" width="284.9430766648655" height="12.519174452656534" fill="#ffc000"></rect><rect x="150" y="105.76558360061358" width="134.80240596773334" height="12.519174452656534" fill="#5b9bd5"></rect><text class="label" x="599.4090909090909" y="61.55327011574397" font-size="10px">3.27x</text><text class="label" x="535.1326528846789" y="74.73134848696137" font-size="10px">2.79x</text><text class="label" x="574.9586700477175" y="87.90942685817878" font-size="10px">3.09x</text><text class="label" x="443.4430766648655" y="101.08750522939619" font-size="10px">2.11x</text><text class="label" x="293.3024059677333" y="114.26558360061358" font-size="10px">1x</text><text class="label" x="595.9090909090909" y="63.05327011574397" font-size="8px"></text><text class="label" x="531.6326528846789" y="76.23134848696137" font-size="8px"></text><text class="label" x="571.4586700477175" y="89.40942685817878" font-size="8px"></text><text class="label" x="439.9430766648655" y="102.58750522939619" font-size="8px"></text><text class="label" x="289.8024059677333" y="115.76558360061358" font-size="8px"></text></g><g style="font-size: 13px;"><rect x="150" y="126.99693208757495" width="286.44259835909475" height="12.519174452656534" fill="#4472c4"></rect><rect x="150" y="140.17501045879237" width="255.73422165326028" height="12.519174452656534" fill="#ed7d31"></rect><rect x="150" y="153.35308883000977" width="274.7195724551926" height="12.519174452656534" fill="#a5a5a5"></rect><rect x="150" y="166.53116720122716" width="293.7504675951202" height="12.519174452656534" fill="#ffc000"></rect><rect x="150" y="179.70924557244456" width="134.80240596773334" height="12.519174452656534" fill="#5b9bd5"></rect><text class="label" x="444.94259835909475" y="135.49693208757495" font-size="10px">2.12x</text><text class="label" x="414.2342216532603" y="148.67501045879237" font-size="10px">1.9x</text><text class="label" x="433.2195724551926" y="161.85308883000977" font-size="10px">2.04x</text><text class="label" x="452.2504675951202" y="175.03116720122716" font-size="10px">2.18x</text><text class="label" x="293.3024059677333" y="188.20924557244456" font-size="10px">1x</text><text class="label" x="441.44259835909475" y="136.99693208757495" font-size="8px"></text><text class="label" x="410.7342216532603" y="150.17501045879237" font-size="8px"></text><text class="label" x="429.7195724551926" y="163.35308883000977" font-size="8px"></text><text class="label" x="448.7504675951202" y="176.53116720122716" font-size="8px"></text><text class="label" x="289.8024059677333" y="189.70924557244456" font-size="8px"></text></g><g style="font-size: 13px;"><rect x="150" y="200.94059405940592" width="267.54598205309964" height="12.519174452656534" fill="#4472c4"></rect><rect x="150" y="214.11867243062332" width="246.97378276210782" height="12.519174452656534" fill="#ed7d31"></rect><rect x="150" y="227.29675080184074" width="256.69173427407605" height="12.519174452656534" fill="#a5a5a5"></rect><rect x="150" y="240.47482917305814" width="138.9033005095093" height="12.519174452656534" fill="#ffc000"></rect><rect x="150" y="253.65290754427554" width="134.80240596773334" height="12.519174452656534" fill="#5b9bd5"></rect><text class="label" x="426.04598205309964" y="209.44059405940592" font-size="10px">1.98x</text><text class="label" x="405.4737827621078" y="222.61867243062332" font-size="10px">1.83x</text><text class="label" x="415.19173427407605" y="235.79675080184074" font-size="10px">1.9x</text><text class="label" x="297.40330050950934" y="248.97482917305814" font-size="10px">1.03x</text><text class="label" x="293.3024059677333" y="262.15290754427554" font-size="10px">1x</text><text class="label" x="422.54598205309964" y="210.94059405940592" font-size="8px"></text><text class="label" x="401.9737827621078" y="224.11867243062332" font-size="8px"></text><text class="label" x="411.69173427407605" y="237.29675080184074" font-size="8px"></text><text class="label" x="293.90330050950934" y="250.47482917305814" font-size="8px"></text><text class="label" x="289.8024059677333" y="263.65290754427554" font-size="8px"></text></g><g style="font-size: 13px;"><rect x="150" y="274.8842560312369" width="161.37100245256462" height="12.519174452656534" fill="#4472c4"></rect><rect x="150" y="288.0623344024543" width="136.1586408194179" height="12.519174452656534" fill="#ed7d31"></rect><rect x="150" y="301.2404127736717" width="157.42001167699271" height="12.519174452656534" fill="#a5a5a5"></rect><rect x="150" y="314.4184911448891" width="159.81837465576132" height="12.519174452656534" fill="#ffc000"></rect><rect x="150" y="327.5965695161065" width="134.80240596773334" height="12.519174452656534" fill="#5b9bd5"></rect><text class="label" x="319.87100245256465" y="283.3842560312369" font-size="10px">1.2x</text><text class="label" x="294.6586408194179" y="296.5623344024543" font-size="10px">1.01x</text><text class="label" x="315.9200116769927" y="309.7404127736717" font-size="10px">1.17x</text><text class="label" x="318.3183746557613" y="322.9184911448891" font-size="10px">1.19x</text><text class="label" x="293.3024059677333" y="336.0965695161065" font-size="10px">1x</text><text class="label" x="316.37100245256465" y="284.8842560312369" font-size="8px"></text><text class="label" x="291.1586408194179" y="298.0623344024543" font-size="8px"></text><text class="label" x="312.4200116769927" y="311.2404127736717" font-size="8px"></text><text class="label" x="314.8183746557613" y="324.4184911448891" font-size="8px"></text><text class="label" x="289.8024059677333" y="337.5965695161065" font-size="8px"></text></g><g style="font-size: 13px;"><rect x="150" y="348.8279180030679" width="164.28737845306398" height="12.519174452656534" fill="#4472c4"></rect><rect x="150" y="362.0059963742853" width="147.46403676494648" height="12.519174452656534" fill="#ed7d31"></rect><rect x="150" y="375.1840747455027" width="157.00009924854993" height="12.519174452656534" fill="#a5a5a5"></rect><rect x="150" y="388.3621531167201" width="185.42850488948417" height="12.519174452656534" fill="#ffc000"></rect><rect x="150" y="401.5402314879375" width="134.80240596773334" height="12.519174452656534" fill="#5b9bd5"></rect><text class="label" x="322.787378453064" y="357.3279180030679" font-size="10px">1.22x</text><text class="label" x="305.9640367649465" y="370.5059963742853" font-size="10px">1.09x</text><text class="label" x="315.50009924854993" y="383.6840747455027" font-size="10px">1.16x</text><text class="label" x="343.9285048894842" y="396.8621531167201" font-size="10px">1.38x</text><text class="label" x="293.3024059677333" y="410.0402314879375" font-size="10px">1x</text><text class="label" x="319.287378453064" y="358.8279180030679" font-size="8px"></text><text class="label" x="302.4640367649465" y="372.0059963742853" font-size="8px"></text><text class="label" x="312.00009924854993" y="385.1840747455027" font-size="8px"></text><text class="label" x="340.4285048894842" y="398.3621531167201" font-size="8px"></text><text class="label" x="289.8024059677333" y="411.5402314879375" font-size="8px"></text></g><g style="font-size: 13px;"><rect x="150" y="422.7715799748988" width="173.2719876148329" height="12.519174452656534" fill="#4472c4"></rect><rect x="150" y="435.9496583461163" width="155.8204357990136" height="12.519174452656534" fill="#ed7d31"></rect><rect x="150" y="449.1277367173337" width="165.47708197448196" height="12.519174452656534" fill="#a5a5a5"></rect><rect x="150" y="462.30581508855107" width="134.80240596773334" height="12.519174452656534" fill="#ffc000"></rect><rect x="150" y="475.48389345976847" width="136.35989491749808" height="12.519174452656534" fill="#5b9bd5"></rect><text class="label" x="331.77198761483294" y="431.2715799748988" font-size="10px">1.29x</text><text class="label" x="314.3204357990136" y="444.4496583461163" font-size="10px">1.16x</text><text class="label" x="323.97708197448196" y="457.6277367173337" font-size="10px">1.23x</text><text class="label" x="293.3024059677333" y="470.80581508855107" font-size="10px">1x</text><text class="label" x="294.8598949174981" y="483.98389345976847" font-size="10px">1.01x</text><text class="label" x="328.27198761483294" y="432.7715799748988" font-size="8px"></text><text class="label" x="310.8204357990136" y="445.9496583461163" font-size="8px"></text><text class="label" x="320.47708197448196" y="459.1277367173337" font-size="8px"></text><text class="label" x="289.8024059677333" y="472.30581508855107" font-size="8px"></text><text class="label" x="291.3598949174981" y="485.48389345976847" font-size="8px"></text></g><g style="font-size: 13px;"><rect x="150" y="496.71524194672986" width="155.88840323239836" height="12.519174452656534" fill="#4472c4"></rect><rect x="150" y="509.89332031794726" width="134.80240596773334" height="12.519174452656534" fill="#ed7d31"></rect><rect x="150" y="523.0713986891647" width="144.12027324922994" height="12.519174452656534" fill="#a5a5a5"></rect><rect x="150" y="536.2494770603821" width="174.79112063411253" height="12.519174452656534" fill="#ffc000"></rect><rect x="150" y="549.4275554315994" width="193.49701168169202" height="12.519174452656534" fill="#5b9bd5"></rect><text class="label" x="314.38840323239833" y="505.21524194672986" font-size="10px">1.16x</text><text class="label" x="293.3024059677333" y="518.3933203179472" font-size="10px">1x</text><text class="label" x="302.62027324922997" y="531.5713986891647" font-size="10px">1.07x</text><text class="label" x="333.29112063411253" y="544.7494770603821" font-size="10px">1.3x</text><text class="label" x="351.997011681692" y="557.9275554315994" font-size="10px">1.44x</text><text class="label" x="310.88840323239833" y="506.71524194672986" font-size="8px"></text><text class="label" x="289.8024059677333" y="519.8933203179472" font-size="8px"></text><text class="label" x="299.12027324922997" y="533.0713986891647" font-size="8px"></text><text class="label" x="329.79112063411253" y="546.2494770603821" font-size="8px"></text><text class="label" x="348.497011681692" y="559.4275554315994" font-size="8px"></text></g></g></svg>