<svg xmlns="http://www.w3.org/2000/svg" xmlns:xlink="http://www.w3.org/1999/xlink" width="800" height="600" style="background-color: white;"><g class="y axis" transform="translate(149,45)" fill="none" font-size="10" font-family="sans-serif" text-anchor="end" style="font-size: 13px;"><path class="domain" stroke="currentColor" d="M0.5,0.5V525.5"></path><g class="tick" opacity="1" transform="translate(0,40.66901408450705)" style="font-size: 13px;"><line stroke="currentColor" x2="0"></line><text fill="currentColor" x="-3" dy="0.32em">object (simple)    </text></g><g class="tick" opacity="1" transform="translate(0,114.61267605633802)" style="font-size: 13px;"><line stroke="currentColor" x2="0"></line><text fill="currentColor" x="-3" dy="0.32em">object (hierarchical)    </text></g><g class="tick" opacity="1" transform="translate(0,188.556338028169)" style="font-size: 13px;"><line stroke="currentColor" x2="0"></line><text fill="currentColor" x="-3" dy="0.32em">object (recursive)    </text></g><g class="tick" opacity="1" transform="translate(0,262.5)" style="font-size: 13px;"><line stroke="currentColor" x2="0"></line><text fill="currentColor" x="-3" dy="0.32em">object (union)    </text></g><g class="tick" opacity="1" transform="translate(0,336.443661971831)" style="font-size: 13px;"><line stroke="currentColor" x2="0"></line><text fill="currentColor" x="-3" dy="0.32em">array (hierarchical)    </text></g><g class="tick" opacity="1" transform="translate(0,410.38732394366195)" style="font-size: 13px;"><line stroke="currentColor" x2="0"></line><text fill="currentColor" x="-3" dy="0.32em">array (recursive)    </text></g><g class="tick" opacity="1" transform="translate(0,484.33098591549293)" style="font-size: 13px;"><line stroke="currentColor" x2="0"></line><text fill="currentColor" x="-3" dy="0.32em">array (union)    </text></g></g><g class="x axis" transform="translate(149,570)" fill="none" font-size="10" font-family="sans-serif" text-anchor="middle" style="font-size: 13px;"><path class="domain" stroke="currentColor" d="M0.5,0.5H485.5"></path><g class="tick" opacity="1" transform="translate(0.5,0)" style="font-size: 13px;"><line stroke="currentColor" y2="6"></line><text fill="currentColor" y="9" dy="0.71em">0x</text></g><g class="tick" opacity="1" transform="translate(122.19902110483987,0)" style="font-size: 13px;"><line stroke="currentColor" y2="6"></line><text fill="currentColor" y="9" dy="0.71em">1x</text></g><g class="tick" opacity="1" transform="translate(243.89804220967974,0)" style="font-size: 13px;"><line stroke="currentColor" y2="6"></line><text fill="currentColor" y="9" dy="0.71em">2x</text></g><g class="tick" opacity="1" transform="translate(365.59706331451963,0)" style="font-size: 13px;"><line stroke="currentColor" y2="6"></line><text fill="currentColor" y="9" dy="0.71em">3x</text></g></g><text transform="translate(400, 30)" style="text-anchor: middle; font-size: 20px; font-weight: bold;">stringify benchmark</text><rect x="680" y="145" width="200" height="5" fill="gray"></rect><rect x="675" y="35" width="200" height="110" fill="none" stroke="black"></rect><rect x="685" y="45" width="10" height="10" style="fill: #4472c4;"></rect><text x="700" y="55" style="font-size: 12px;">TSON.stringify()</text><rect x="685" y="65" width="10" height="10" style="fill: #ed7d31;"></rect><text x="700" y="75" style="font-size: 12px;">TSON.assertStringify()</text><rect x="685" y="85" width="10" height="10" style="fill: #a5a5a5;"></rect><text x="700" y="95" style="font-size: 12px;">TSON.isStringify()</text><rect x="685" y="105" width="10" height="10" style="fill: #ffc000;"></rect><text x="700" y="115" style="font-size: 12px;">JSON.stringify()</text><rect x="685" y="125" width="10" height="10" style="fill: #5b9bd5;"></rect><text x="700" y="135" style="font-size: 12px;">fast-json-stringify</text><g style="font-size: 13px;"><g style="font-size: 13px;"><rect x="150" y="53.05327011574397" width="440.9090909090908" height="12.519174452656534" fill="#4472c4"></rect><rect x="150" y="66.23134848696137" width="362.2400916778547" height="12.519174452656534" fill="#ed7d31"></rect><rect x="150" y="79.40942685817878" width="403.4587581945796" height="12.519174452656534" fill="#a5a5a5"></rect><rect x="150" y="92.58750522939619" width="121.69902110483987" height="12.519174452656534" fill="#ffc000"></rect><rect x="150" y="105.76558360061358" width="309.5105740063765" height="12.519174452656534" fill="#5b9bd5"></rect><text class="label" x="599.4090909090908" y="61.55327011574397" font-size="10px">3.62x</text><text class="label" x="520.7400916778547" y="74.73134848696137" font-size="10px">2.98x</text><text class="label" x="561.9587581945796" y="87.90942685817878" font-size="10px">3.32x</text><text class="label" x="280.19902110483986" y="101.08750522939619" font-size="10px">1x</text><text class="label" x="468.0105740063765" y="114.26558360061358" font-size="10px">2.54x</text><text class="label" x="595.9090909090908" y="63.05327011574397" font-size="8px"></text><text class="label" x="517.2400916778547" y="76.23134848696137" font-size="8px"></text><text class="label" x="558.4587581945796" y="89.40942685817878" font-size="8px"></text><text class="label" x="276.69902110483986" y="102.58750522939619" font-size="8px"></text><text class="label" x="464.5105740063765" y="115.76558360061358" font-size="8px"></text></g><g style="font-size: 13px;"><rect x="150" y="126.99693208757495" width="267.49433123903316" height="12.519174452656534" fill="#4472c4"></rect><rect x="150" y="140.17501045879237" width="241.434245346081" height="12.519174452656534" fill="#ed7d31"></rect><rect x="150" y="153.35308883000977" width="251.63271618806837" height="12.519174452656534" fill="#a5a5a5"></rect><rect x="150" y="166.53116720122716" width="121.69902110483987" height="12.519174452656534" fill="#ffc000"></rect><rect x="150" y="179.70924557244456" width="248.48077595468786" height="12.519174452656534" fill="#5b9bd5"></rect><text class="label" x="425.99433123903316" y="135.49693208757495" font-size="10px">2.2x</text><text class="label" x="399.934245346081" y="148.67501045879237" font-size="10px">1.98x</text><text class="label" x="410.13271618806834" y="161.85308883000977" font-size="10px">2.07x</text><text class="label" x="280.19902110483986" y="175.03116720122716" font-size="10px">1x</text><text class="label" x="406.98077595468783" y="188.20924557244456" font-size="10px">2.04x</text><text class="label" x="422.49433123903316" y="136.99693208757495" font-size="8px"></text><text class="label" x="396.434245346081" y="150.17501045879237" font-size="8px"></text><text class="label" x="406.63271618806834" y="163.35308883000977" font-size="8px"></text><text class="label" x="276.69902110483986" y="176.53116720122716" font-size="8px"></text><text class="label" x="403.48077595468783" y="189.70924557244456" font-size="8px"></text></g><g style="font-size: 13px;"><rect x="150" y="200.94059405940592" width="264.04427240669725" height="12.519174452656534" fill="#4472c4"></rect><rect x="150" y="214.11867243062332" width="245.06663385070934" height="12.519174452656534" fill="#ed7d31"></rect><rect x="150" y="227.29675080184074" width="266.79159499420183" height="12.519174452656534" fill="#a5a5a5"></rect><rect x="150" y="240.47482917305814" width="127.18278246117696" height="12.519174452656534" fill="#ffc000"></rect><rect x="150" y="253.65290754427554" width="121.69902110483987" height="12.519174452656534" fill="#5b9bd5"></rect><text class="label" x="422.54427240669725" y="209.44059405940592" font-size="10px">2.17x</text><text class="label" x="403.5666338507093" y="222.61867243062332" font-size="10px">2.01x</text><text class="label" x="425.29159499420183" y="235.79675080184074" font-size="10px">2.19x</text><text class="label" x="285.68278246117694" y="248.97482917305814" font-size="10px">1.05x</text><text class="label" x="280.19902110483986" y="262.15290754427554" font-size="10px">1x</text><text class="label" x="419.04427240669725" y="210.94059405940592" font-size="8px"></text><text class="label" x="400.0666338507093" y="224.11867243062332" font-size="8px"></text><text class="label" x="421.79159499420183" y="237.29675080184074" font-size="8px"></text><text class="label" x="282.18278246117694" y="250.47482917305814" font-size="8px"></text><text class="label" x="276.69902110483986" y="263.65290754427554" font-size="8px"></text></g><g style="font-size: 13px;"><rect x="150" y="274.8842560312369" width="165.89605514378664" height="12.519174452656534" fill="#4472c4"></rect><rect x="150" y="288.0623344024543" width="128.66944662835797" height="12.519174452656534" fill="#ed7d31"></rect><rect x="150" y="301.2404127736717" width="149.51796399883835" height="12.519174452656534" fill="#a5a5a5"></rect><rect x="150" y="314.4184911448891" width="121.69902110483987" height="12.519174452656534" fill="#ffc000"></rect><rect x="150" y="327.5965695161065" width="159.58673644198416" height="12.519174452656534" fill="#5b9bd5"></rect><text class="label" x="324.3960551437866" y="283.3842560312369" font-size="10px">1.36x</text><text class="label" x="287.16944662835795" y="296.5623344024543" font-size="10px">1.06x</text><text class="label" x="308.01796399883835" y="309.7404127736717" font-size="10px">1.23x</text><text class="label" x="280.19902110483986" y="322.9184911448891" font-size="10px">1x</text><text class="label" x="318.08673644198416" y="336.0965695161065" font-size="10px">1.31x</text><text class="label" x="320.8960551437866" y="284.8842560312369" font-size="8px"></text><text class="label" x="283.66944662835795" y="298.0623344024543" font-size="8px"></text><text class="label" x="304.51796399883835" y="311.2404127736717" font-size="8px"></text><text class="label" x="276.69902110483986" y="324.4184911448891" font-size="8px"></text><text class="label" x="314.58673644198416" y="337.5965695161065" font-size="8px"></text></g><g style="font-size: 13px;"><rect x="150" y="348.8279180030679" width="149.04494630337382" height="12.519174452656534" fill="#4472c4"></rect><rect x="150" y="362.0059963742853" width="130.8861569539935" height="12.519174452656534" fill="#ed7d31"></rect><rect x="150" y="375.1840747455027" width="145.33389731960688" height="12.519174452656534" fill="#a5a5a5"></rect><rect x="150" y="388.3621531167201" width="121.69902110483987" height="12.519174452656534" fill="#ffc000"></rect><rect x="150" y="401.5402314879375" width="207.93754198324586" height="12.519174452656534" fill="#5b9bd5"></rect><text class="label" x="307.5449463033738" y="357.3279180030679" font-size="10px">1.22x</text><text class="label" x="289.38615695399346" y="370.5059963742853" font-size="10px">1.08x</text><text class="label" x="303.8338973196069" y="383.6840747455027" font-size="10px">1.19x</text><text class="label" x="280.19902110483986" y="396.8621531167201" font-size="10px">1x</text><text class="label" x="366.43754198324586" y="410.0402314879375" font-size="10px">1.71x</text><text class="label" x="304.0449463033738" y="358.8279180030679" font-size="8px"></text><text class="label" x="285.88615695399346" y="372.0059963742853" font-size="8px"></text><text class="label" x="300.3338973196069" y="385.1840747455027" font-size="8px"></text><text class="label" x="276.69902110483986" y="398.3621531167201" font-size="8px"></text><text class="label" x="362.93754198324586" y="411.5402314879375" font-size="8px"></text></g><g style="font-size: 13px;"><rect x="150" y="422.7715799748988" width="161.3532880339662" height="12.519174452656534" fill="#4472c4"></rect><rect x="150" y="435.9496583461163" width="146.2702342486537" height="12.519174452656534" fill="#ed7d31"></rect><rect x="150" y="449.1277367173337" width="155.48195823826845" height="12.519174452656534" fill="#a5a5a5"></rect><rect x="150" y="462.30581508855107" width="123.12842577989113" height="12.519174452656534" fill="#ffc000"></rect><rect x="150" y="475.48389345976847" width="121.69902110483987" height="12.519174452656534" fill="#5b9bd5"></rect><text class="label" x="319.85328803396624" y="431.2715799748988" font-size="10px">1.33x</text><text class="label" x="304.7702342486537" y="444.4496583461163" font-size="10px">1.2x</text><text class="label" x="313.9819582382685" y="457.6277367173337" font-size="10px">1.28x</text><text class="label" x="281.62842577989113" y="470.80581508855107" font-size="10px">1.01x</text><text class="label" x="280.19902110483986" y="483.98389345976847" font-size="10px">1x</text><text class="label" x="316.35328803396624" y="432.7715799748988" font-size="8px"></text><text class="label" x="301.2702342486537" y="445.9496583461163" font-size="8px"></text><text class="label" x="310.4819582382685" y="459.1277367173337" font-size="8px"></text><text class="label" x="278.12842577989113" y="472.30581508855107" font-size="8px"></text><text class="label" x="276.69902110483986" y="485.48389345976847" font-size="8px"></text></g><g style="font-size: 13px;"><rect x="150" y="496.71524194672986" width="141.2490470485163" height="12.519174452656534" fill="#4472c4"></rect><rect x="150" y="509.89332031794726" width="121.69902110483987" height="12.519174452656534" fill="#ed7d31"></rect><rect x="150" y="523.0713986891647" width="131.1767718500687" height="12.519174452656534" fill="#a5a5a5"></rect><rect x="150" y="536.2494770603821" width="159.73941266969746" height="12.519174452656534" fill="#ffc000"></rect><rect x="150" y="549.4275554315994" width="143.39992743091702" height="12.519174452656534" fill="#5b9bd5"></rect><text class="label" x="299.74904704851633" y="505.21524194672986" font-size="10px">1.16x</text><text class="label" x="280.19902110483986" y="518.3933203179472" font-size="10px">1x</text><text class="label" x="289.6767718500687" y="531.5713986891647" font-size="10px">1.08x</text><text class="label" x="318.23941266969746" y="544.7494770603821" font-size="10px">1.31x</text><text class="label" x="301.89992743091705" y="557.9275554315994" font-size="10px">1.18x</text><text class="label" x="296.24904704851633" y="506.71524194672986" font-size="8px"></text><text class="label" x="276.69902110483986" y="519.8933203179472" font-size="8px"></text><text class="label" x="286.1767718500687" y="533.0713986891647" font-size="8px"></text><text class="label" x="314.73941266969746" y="546.2494770603821" font-size="8px"></text><text class="label" x="298.39992743091705" y="559.4275554315994" font-size="8px"></text></g></g></svg>