<svg xmlns="http://www.w3.org/2000/svg" xmlns:xlink="http://www.w3.org/1999/xlink" width="800" height="914" style="background-color: white;"><g class="y axis" transform="translate(149,45)" fill="none" font-size="10" font-family="sans-serif" text-anchor="end" style="font-size: 13px;"><path class="domain" stroke="currentColor" d="M0.5,0.5V720.5"></path><g class="tick" opacity="1" transform="translate(0,48.88888888888886)" style="font-size: 13px;"><line stroke="currentColor" x2="0"></line><text fill="currentColor" x="-3" dy="0.32em">object (simple)    </text></g><g class="tick" opacity="1" transform="translate(0,137.77777777777774)" style="font-size: 13px;"><line stroke="currentColor" x2="0"></line><text fill="currentColor" x="-3" dy="0.32em">object (hierarchical)    </text></g><g class="tick" opacity="1" transform="translate(0,226.66666666666663)" style="font-size: 13px;"><line stroke="currentColor" x2="0"></line><text fill="currentColor" x="-3" dy="0.32em">object (recursive)    </text></g><g class="tick" opacity="1" transform="translate(0,315.5555555555555)" style="font-size: 13px;"><line stroke="currentColor" x2="0"></line><text fill="currentColor" x="-3" dy="0.32em">object (union, explicit)    </text></g><g class="tick" opacity="1" transform="translate(0,404.4444444444444)" style="font-size: 13px;"><line stroke="currentColor" x2="0"></line><text fill="currentColor" x="-3" dy="0.32em">array (simple)    </text></g><g class="tick" opacity="1" transform="translate(0,493.3333333333333)" style="font-size: 13px;"><line stroke="currentColor" x2="0"></line><text fill="currentColor" x="-3" dy="0.32em">array (hierarchical)    </text></g><g class="tick" opacity="1" transform="translate(0,582.2222222222222)" style="font-size: 13px;"><line stroke="currentColor" x2="0"></line><text fill="currentColor" x="-3" dy="0.32em">array (recursive)    </text></g><g class="tick" opacity="1" transform="translate(0,671.1111111111111)" style="font-size: 13px;"><line stroke="currentColor" x2="0"></line><text fill="currentColor" x="-3" dy="0.32em">array (union, explicit)    </text></g></g><g class="x axis" transform="translate(149,765)" fill="none" font-size="10" font-family="sans-serif" text-anchor="middle" style="font-size: 13px;"><path class="domain" stroke="currentColor" d="M0.5,0.5H485.5"></path><g class="tick" opacity="1" transform="translate(0.5,0)" style="font-size: 13px;"><line stroke="currentColor" y2="6"></line><text fill="currentColor" y="9" dy="0.71em">0x</text></g><g class="tick" opacity="1" transform="translate(107.57152672372803,0)" style="font-size: 13px;"><line stroke="currentColor" y2="6"></line><text fill="currentColor" y="9" dy="0.71em">50x</text></g><g class="tick" opacity="1" transform="translate(214.64305344745605,0)" style="font-size: 13px;"><line stroke="currentColor" y2="6"></line><text fill="currentColor" y="9" dy="0.71em">100x</text></g><g class="tick" opacity="1" transform="translate(321.7145801711841,0)" style="font-size: 13px;"><line stroke="currentColor" y2="6"></line><text fill="currentColor" y="9" dy="0.71em">150x</text></g><g class="tick" opacity="1" transform="translate(428.7861068949121,0)" style="font-size: 13px;"><line stroke="currentColor" y2="6"></line><text fill="currentColor" y="9" dy="0.71em">200x</text></g></g><text transform="translate(400, 30)" style="text-anchor: middle; font-size: 20px; font-weight: bold;">stringify benchmark</text><rect x="650" y="165" width="230" height="5" fill="gray"></rect><rect x="645" y="35" width="230" height="130" fill="none" stroke="black"></rect><rect x="655" y="45" width="10" height="10" style="fill: #4472c4;"></rect><text x="670" y="55" style="font-size: 12px;">typia.stringify</text><rect x="655" y="65" width="10" height="10" style="fill: #ed7d31;"></rect><text x="670" y="75" style="font-size: 12px;">typia.isStringify</text><rect x="655" y="85" width="10" height="10" style="fill: #a5a5a5;"></rect><text x="670" y="95" style="font-size: 12px;">typia.assertStringify</text><rect x="655" y="105" width="10" height="10" style="fill: #ffc000;"></rect><text x="670" y="115" style="font-size: 12px;">fast-json-stringify</text><rect x="655" y="125" width="10" height="10" style="fill: #5b9bd5;"></rect><text x="670" y="135" style="font-size: 12px;">JSON.stringify</text><rect x="655" y="145" width="10" height="10" style="fill: #70ad47;"></rect><text x="670" y="155" style="font-size: 12px;">class-transformer</text><text x="20" y="829" style="font-size: 12px;">  - CPU: Intel(R) Xeon(R) Platinum 8272CL CPU @ 2.60GHz</text><text x="20" y="846" style="font-size: 12px;">  - OS: linux</text><text x="20" y="863" style="font-size: 12px;">  - RAM: 4 GB</text><text x="20" y="880" style="font-size: 12px;">  - NodeJS version: v19.9.0</text><text x="20" y="897" style="font-size: 12px;">  - Typia version: v3.8.6</text><g style="font-size: 13px;"><g style="font-size: 13px;"><rect x="150" y="54.55004591368224" width="440.9090909090909" height="12.56198347107438" fill="#4472c4"></rect><rect x="150" y="67.77318640955001" width="281.4725915427447" height="12.56198347107438" fill="#ed7d31"></rect><rect x="150" y="80.99632690541777" width="241.773080209788" height="12.56198347107438" fill="#a5a5a5"></rect><rect x="150" y="94.21946740128556" width="141.9079391700223" height="12.56198347107438" fill="#ffc000"></rect><rect x="150" y="107.44260789715332" width="46.0358512261049" height="12.56198347107438" fill="#5b9bd5"></rect><rect x="150" y="120.66574839302109" width="2.1414305344745603" height="12.56198347107438" fill="#70ad47"></rect><text class="label" x="599.4090909090909" y="63.05004591368224" font-size="10px">206x</text><text class="label" x="439.9725915427447" y="76.27318640955001" font-size="10px">131x</text><text class="label" x="400.27308020978796" y="89.49632690541777" font-size="10px">113x</text><text class="label" x="300.4079391700223" y="102.71946740128556" font-size="10px">66x</text><text class="label" x="204.5358512261049" y="115.94260789715332" font-size="10px">21x</text><text class="label" x="160.64143053447455" y="129.1657483930211" font-size="10px">1x</text><text class="label" x="595.9090909090909" y="64.55004591368224" font-size="8px"></text><text class="label" x="436.4725915427447" y="77.77318640955001" font-size="8px"></text><text class="label" x="396.77308020978796" y="90.99632690541777" font-size="8px"></text><text class="label" x="296.9079391700223" y="104.21946740128556" font-size="8px"></text><text class="label" x="201.0358512261049" y="117.44260789715332" font-size="8px"></text><text class="label" x="157.14143053447455" y="130.6657483930211" font-size="8px"></text></g><g style="font-size: 13px;"><rect x="150" y="143.4389348025711" width="77.42870763573332" height="12.56198347107438" fill="#4472c4"></rect><rect x="150" y="156.66207529843888" width="81.24918971942711" height="12.56198347107438" fill="#ed7d31"></rect><rect x="150" y="169.88521579430665" width="69.44699716096616" height="12.56198347107438" fill="#a5a5a5"></rect><rect x="150" y="183.10835629017444" width="59.02271827708638" height="12.56198347107438" fill="#ffc000"></rect><rect x="150" y="196.3314967860422" width="38.279786019985124" height="12.56198347107438" fill="#5b9bd5"></rect><rect x="150" y="209.55463728190998" width="2.1414305344745603" height="12.56198347107438" fill="#70ad47"></rect><text class="label" x="235.9287076357333" y="151.9389348025711" font-size="10px">36x</text><text class="label" x="239.7491897194271" y="165.16207529843888" font-size="10px">38x</text><text class="label" x="227.94699716096616" y="178.38521579430665" font-size="10px">32x</text><text class="label" x="217.52271827708637" y="191.60835629017444" font-size="10px">28x</text><text class="label" x="196.77978601998512" y="204.8314967860422" font-size="10px">18x</text><text class="label" x="160.64143053447455" y="218.05463728190998" font-size="10px">1x</text><text class="label" x="232.4287076357333" y="153.4389348025711" font-size="8px"></text><text class="label" x="236.2491897194271" y="166.66207529843888" font-size="8px"></text><text class="label" x="224.44699716096616" y="179.88521579430665" font-size="8px"></text><text class="label" x="214.02271827708637" y="193.10835629017444" font-size="8px"></text><text class="label" x="193.27978601998512" y="206.3314967860422" font-size="8px"></text><text class="label" x="157.14143053447455" y="219.55463728190998" font-size="8px"></text></g><g style="font-size: 13px;"><rect x="150" y="232.32782369146003" width="71.98275346777278" height="12.56198347107438" fill="#4472c4"></rect><rect x="150" y="245.5509641873278" width="70.83461445113657" height="12.56198347107438" fill="#ed7d31"></rect><rect x="150" y="258.77410468319556" width="70.13171467165819" height="12.56198347107438" fill="#a5a5a5"></rect><rect x="150" y="271.9972451790633" width="44.799751078695216" height="12.56198347107438" fill="#ffc000"></rect><rect x="150" y="285.2203856749311" width="46.61635713705065" height="12.56198347107438" fill="#5b9bd5"></rect><rect x="150" y="298.44352617079886" width="2.1414305344745603" height="12.56198347107438" fill="#70ad47"></rect><text class="label" x="230.4827534677728" y="240.82782369146003" font-size="10px">34x</text><text class="label" x="229.3346144511366" y="254.0509641873278" font-size="10px">33x</text><text class="label" x="228.6317146716582" y="267.27410468319556" font-size="10px">33x</text><text class="label" x="203.2997510786952" y="280.4972451790633" font-size="10px">21x</text><text class="label" x="205.11635713705064" y="293.7203856749311" font-size="10px">22x</text><text class="label" x="160.64143053447455" y="306.94352617079886" font-size="10px">1x</text><text class="label" x="226.9827534677728" y="242.32782369146003" font-size="8px"></text><text class="label" x="225.8346144511366" y="255.5509641873278" font-size="8px"></text><text class="label" x="225.1317146716582" y="268.77410468319556" font-size="8px"></text><text class="label" x="199.7997510786952" y="281.9972451790633" font-size="8px"></text><text class="label" x="201.61635713705064" y="295.2203856749311" font-size="8px"></text><text class="label" x="157.14143053447455" y="308.44352617079886" font-size="8px"></text></g><g style="font-size: 13px;"><rect x="150" y="321.2167125803489" width="90.64631140532816" height="12.56198347107438" fill="#4472c4"></rect><rect x="150" y="334.43985307621665" width="75.65549585274366" height="12.56198347107438" fill="#ed7d31"></rect><rect x="150" y="347.6629935720844" width="78.98408322040679" height="12.56198347107438" fill="#a5a5a5"></rect><rect x="150" y="360.8861340679522" width="65.17554177598356" height="12.56198347107438" fill="#ffc000"></rect><rect x="150" y="374.10927456381995" width="57.93300062839559" height="12.56198347107438" fill="#5b9bd5"></rect><rect x="150" y="387.3324150596877" width="2.1414305344745603" height="12.56198347107438" fill="#70ad47"></rect><text class="label" x="249.14631140532816" y="329.7167125803489" font-size="10px">42x</text><text class="label" x="234.15549585274366" y="342.93985307621665" font-size="10px">35x</text><text class="label" x="237.48408322040677" y="356.1629935720844" font-size="10px">37x</text><text class="label" x="223.67554177598356" y="369.3861340679522" font-size="10px">30x</text><text class="label" x="216.43300062839558" y="382.60927456381995" font-size="10px">27x</text><text class="label" x="160.64143053447455" y="395.8324150596877" font-size="10px">1x</text><text class="label" x="245.64631140532816" y="331.2167125803489" font-size="8px"></text><text class="label" x="230.65549585274366" y="344.43985307621665" font-size="8px"></text><text class="label" x="233.98408322040677" y="357.6629935720844" font-size="8px"></text><text class="label" x="220.17554177598356" y="370.8861340679522" font-size="8px"></text><text class="label" x="212.93300062839558" y="384.10927456381995" font-size="8px"></text><text class="label" x="157.14143053447455" y="397.3324150596877" font-size="8px"></text></g><g style="font-size: 13px;"><rect x="150" y="410.1056014692378" width="26.05730157329041" height="12.56198347107438" fill="#4472c4"></rect><rect x="150" y="423.32874196510556" width="25.79520378943239" height="12.56198347107438" fill="#ed7d31"></rect><rect x="150" y="436.55188246097333" width="24.254215105120775" height="12.56198347107438" fill="#a5a5a5"></rect><rect x="150" y="449.7750229568411" width="30.32907318354493" height="12.56198347107438" fill="#ffc000"></rect><rect x="150" y="462.99816345270887" width="40.979813059174546" height="12.56198347107438" fill="#5b9bd5"></rect><rect x="150" y="476.22130394857663" width="2.1414305344745603" height="12.56198347107438" fill="#70ad47"></rect><text class="label" x="184.5573015732904" y="418.6056014692378" font-size="10px">12x</text><text class="label" x="184.29520378943238" y="431.82874196510556" font-size="10px">12x</text><text class="label" x="182.75421510512078" y="445.05188246097333" font-size="10px">11x</text><text class="label" x="188.82907318354492" y="458.2750229568411" font-size="10px">14x</text><text class="label" x="199.47981305917455" y="471.49816345270887" font-size="10px">19x</text><text class="label" x="160.64143053447455" y="484.72130394857663" font-size="10px">1x</text><text class="label" x="181.0573015732904" y="420.1056014692378" font-size="8px"></text><text class="label" x="180.79520378943238" y="433.32874196510556" font-size="8px"></text><text class="label" x="179.25421510512078" y="446.55188246097333" font-size="8px"></text><text class="label" x="185.32907318354492" y="459.7750229568411" font-size="8px"></text><text class="label" x="195.97981305917455" y="472.99816345270887" font-size="8px"></text><text class="label" x="157.14143053447455" y="486.22130394857663" font-size="8px"></text></g><g style="font-size: 13px;"><rect x="150" y="498.9944903581267" width="59.87192506175512" height="12.56198347107438" fill="#4472c4"></rect><rect x="150" y="512.2176308539945" width="58.16110088064152" height="12.56198347107438" fill="#ed7d31"></rect><rect x="150" y="525.4407713498622" width="56.12184252130884" height="12.56198347107438" fill="#a5a5a5"></rect><rect x="150" y="538.66391184573" width="82.63722649580498" height="12.56198347107438" fill="#ffc000"></rect><rect x="150" y="551.8870523415978" width="57.14156595053114" height="12.56198347107438" fill="#5b9bd5"></rect><rect x="150" y="565.1101928374655" width="2.1414305344745603" height="12.56198347107438" fill="#70ad47"></rect><text class="label" x="218.37192506175512" y="507.4944903581267" font-size="10px">28x</text><text class="label" x="216.66110088064153" y="520.7176308539945" font-size="10px">27x</text><text class="label" x="214.62184252130885" y="533.9407713498622" font-size="10px">26x</text><text class="label" x="241.13722649580498" y="547.16391184573" font-size="10px">39x</text><text class="label" x="215.64156595053115" y="560.3870523415978" font-size="10px">27x</text><text class="label" x="160.64143053447455" y="573.6101928374655" font-size="10px">1x</text><text class="label" x="214.87192506175512" y="508.9944903581267" font-size="8px"></text><text class="label" x="213.16110088064153" y="522.2176308539945" font-size="8px"></text><text class="label" x="211.12184252130885" y="535.4407713498622" font-size="8px"></text><text class="label" x="237.63722649580498" y="548.66391184573" font-size="8px"></text><text class="label" x="212.14156595053115" y="561.8870523415978" font-size="8px"></text><text class="label" x="157.14143053447455" y="575.1101928374655" font-size="8px"></text></g><g style="font-size: 13px;"><rect x="150" y="587.8833792470156" width="49.07564215414657" height="12.56198347107438" fill="#4472c4"></rect><rect x="150" y="601.1065197428833" width="45.61536989272958" height="12.56198347107438" fill="#ed7d31"></rect><rect x="150" y="614.3296602387511" width="46.31924875550033" height="12.56198347107438" fill="#a5a5a5"></rect><rect x="150" y="627.5528007346188" width="53.297153142093435" height="12.56198347107438" fill="#ffc000"></rect><rect x="150" y="640.7759412304866" width="47.46003011038008" height="12.56198347107438" fill="#5b9bd5"></rect><rect x="150" y="653.9990817263545" width="2.1414305344745603" height="12.56198347107438" fill="#70ad47"></rect><text class="label" x="207.57564215414658" y="596.3833792470156" font-size="10px">23x</text><text class="label" x="204.11536989272957" y="609.6065197428833" font-size="10px">21x</text><text class="label" x="204.81924875550033" y="622.8296602387511" font-size="10px">22x</text><text class="label" x="211.79715314209344" y="636.0528007346188" font-size="10px">25x</text><text class="label" x="205.96003011038007" y="649.2759412304866" font-size="10px">22x</text><text class="label" x="160.64143053447455" y="662.4990817263545" font-size="10px">1x</text><text class="label" x="204.07564215414658" y="597.8833792470156" font-size="8px"></text><text class="label" x="200.61536989272957" y="611.1065197428833" font-size="8px"></text><text class="label" x="201.31924875550033" y="624.3296602387511" font-size="8px"></text><text class="label" x="208.29715314209344" y="637.5528007346188" font-size="8px"></text><text class="label" x="202.46003011038007" y="650.7759412304866" font-size="8px"></text><text class="label" x="157.14143053447455" y="663.9990817263545" font-size="8px"></text></g><g style="font-size: 13px;"><rect x="150" y="676.7722681359045" width="36.76257013629053" height="12.56198347107438" fill="#4472c4"></rect><rect x="150" y="689.9954086317722" width="37.179960569205775" height="12.56198347107438" fill="#ed7d31"></rect><rect x="150" y="703.21854912764" width="35.80816973194071" height="12.56198347107438" fill="#a5a5a5"></rect><rect x="150" y="716.4416896235077" width="57.711456984628285" height="12.56198347107438" fill="#ffc000"></rect><rect x="150" y="729.6648301193756" width="62.594882556371275" height="12.56198347107438" fill="#5b9bd5"></rect><rect x="150" y="742.8879706152434" width="2.1414305344745603" height="12.56198347107438" fill="#70ad47"></rect><text class="label" x="195.26257013629052" y="685.2722681359045" font-size="10px">17x</text><text class="label" x="195.67996056920578" y="698.4954086317722" font-size="10px">17x</text><text class="label" x="194.30816973194072" y="711.71854912764" font-size="10px">17x</text><text class="label" x="216.21145698462828" y="724.9416896235077" font-size="10px">27x</text><text class="label" x="221.09488255637126" y="738.1648301193756" font-size="10px">29x</text><text class="label" x="160.64143053447455" y="751.3879706152434" font-size="10px">1x</text><text class="label" x="191.76257013629052" y="686.7722681359045" font-size="8px"></text><text class="label" x="192.17996056920578" y="699.9954086317722" font-size="8px"></text><text class="label" x="190.80816973194072" y="713.21854912764" font-size="8px"></text><text class="label" x="212.71145698462828" y="726.4416896235077" font-size="8px"></text><text class="label" x="217.59488255637126" y="739.6648301193756" font-size="8px"></text><text class="label" x="157.14143053447455" y="752.8879706152434" font-size="8px"></text></g></g></svg>