<svg xmlns="http://www.w3.org/2000/svg" xmlns:xlink="http://www.w3.org/1999/xlink" width="800" height="794" style="background-color: white;"><g class="y axis" transform="translate(149,45)" fill="none" font-size="10" font-family="sans-serif" text-anchor="end" style="font-size: 13px;"><path class="domain" stroke="currentColor" d="M0.5,0.5V600.5"></path><g class="tick" opacity="1" transform="translate(0,40.740740740740726)" style="font-size: 13px;"><line stroke="currentColor" x2="0"></line><text fill="currentColor" x="-3" dy="0.32em">object (simple)    </text></g><g class="tick" opacity="1" transform="translate(0,114.81481481481481)" style="font-size: 13px;"><line stroke="currentColor" x2="0"></line><text fill="currentColor" x="-3" dy="0.32em">object (hierarchical)    </text></g><g class="tick" opacity="1" transform="translate(0,188.88888888888889)" style="font-size: 13px;"><line stroke="currentColor" x2="0"></line><text fill="currentColor" x="-3" dy="0.32em">object (recursive)    </text></g><g class="tick" opacity="1" transform="translate(0,262.96296296296293)" style="font-size: 13px;"><line stroke="currentColor" x2="0"></line><text fill="currentColor" x="-3" dy="0.32em">object (union, explicit)    </text></g><g class="tick" opacity="1" transform="translate(0,337.037037037037)" style="font-size: 13px;"><line stroke="currentColor" x2="0"></line><text fill="currentColor" x="-3" dy="0.32em">array (simple)    </text></g><g class="tick" opacity="1" transform="translate(0,411.1111111111111)" style="font-size: 13px;"><line stroke="currentColor" x2="0"></line><text fill="currentColor" x="-3" dy="0.32em">array (hierarchical)    </text></g><g class="tick" opacity="1" transform="translate(0,485.18518518518516)" style="font-size: 13px;"><line stroke="currentColor" x2="0"></line><text fill="currentColor" x="-3" dy="0.32em">array (recursive)    </text></g><g class="tick" opacity="1" transform="translate(0,559.2592592592592)" style="font-size: 13px;"><line stroke="currentColor" x2="0"></line><text fill="currentColor" x="-3" dy="0.32em">array (union, explicit)    </text></g></g><g class="x axis" transform="translate(149,645)" fill="none" font-size="10" font-family="sans-serif" text-anchor="middle" style="font-size: 13px;"><path class="domain" stroke="currentColor" d="M0.5,0.5H485.5"></path><g class="tick" opacity="1" transform="translate(0.5,0)" style="font-size: 13px;"><line stroke="currentColor" y2="6"></line><text fill="currentColor" y="9" dy="0.71em">0x</text></g><g class="tick" opacity="1" transform="translate(140.25095027315845,0)" style="font-size: 13px;"><line stroke="currentColor" y2="6"></line><text fill="currentColor" y="9" dy="0.71em">5x</text></g><g class="tick" opacity="1" transform="translate(280.0019005463169,0)" style="font-size: 13px;"><line stroke="currentColor" y2="6"></line><text fill="currentColor" y="9" dy="0.71em">10x</text></g><g class="tick" opacity="1" transform="translate(419.7528508194753,0)" style="font-size: 13px;"><line stroke="currentColor" y2="6"></line><text fill="currentColor" y="9" dy="0.71em">15x</text></g></g><text transform="translate(400, 30)" style="text-anchor: middle; font-size: 20px; font-weight: bold;">assert benchmark</text><rect x="650" y="145" width="230" height="5" fill="gray"></rect><rect x="645" y="35" width="230" height="110" fill="none" stroke="black"></rect><rect x="655" y="45" width="10" height="10" style="fill: #4472c4;"></rect><text x="670" y="55" style="font-size: 12px;">nestia-express</text><rect x="655" y="65" width="10" height="10" style="fill: #ed7d31;"></rect><text x="670" y="75" style="font-size: 12px;">nestia-fastify</text><rect x="655" y="85" width="10" height="10" style="fill: #a5a5a5;"></rect><text x="670" y="95" style="font-size: 12px;">fastify</text><rect x="655" y="105" width="10" height="10" style="fill: #ffc000;"></rect><text x="670" y="115" style="font-size: 12px;">NestJS-express</text><rect x="655" y="125" width="10" height="10" style="fill: #5b9bd5;"></rect><text x="670" y="135" style="font-size: 12px;">NestJS-fastify</text><text x="20" y="709" style="font-size: 12px;">  - CPU: AMD Ryzen 9 7940HS w/ Radeon 780M Graphics</text><text x="20" y="726" style="font-size: 12px;">  - OS: win32</text><text x="20" y="743" style="font-size: 12px;">  - RAM: 31 GB</text><text x="20" y="760" style="font-size: 12px;">  - NodeJS version: v20.10.0</text><text x="20" y="777" style="font-size: 12px;">  - nestia version: v2.4.3</text><g style="font-size: 13px;"><g style="font-size: 13px;"><rect x="150" y="53.06747341400805" width="230.52841604190297" height="12.541254125412543" fill="#4472c4"></rect><rect x="150" y="66.26879354602124" width="365.6170420044656" height="12.541254125412543" fill="#ed7d31"></rect><rect x="150" y="79.47011367803445" width="360.98925677913616" height="12.541254125412543" fill="#a5a5a5"></rect><rect x="150" y="92.67143381004766" width="27.950190054631687" height="12.541254125412543" fill="#ffc000"></rect><rect x="150" y="105.87275394206085" width="30.483779148658503" height="12.541254125412543" fill="#5b9bd5"></rect><text class="label" x="389.028416041903" y="61.56747341400805" font-size="10px">8.25x</text><text class="label" x="524.1170420044656" y="74.76879354602124" font-size="10px">13.08x</text><text class="label" x="519.4892567791362" y="87.97011367803445" font-size="10px">12.92x</text><text class="label" x="186.4501900546317" y="101.17143381004766" font-size="10px">1x</text><text class="label" x="188.9837791486585" y="114.37275394206085" font-size="10px">1.09x</text><text class="label" x="385.528416041903" y="63.06747341400805" font-size="8px"></text><text class="label" x="520.6170420044656" y="76.26879354602124" font-size="8px"></text><text class="label" x="515.9892567791362" y="89.47011367803445" font-size="8px"></text><text class="label" x="182.9501900546317" y="102.67143381004766" font-size="8px"></text><text class="label" x="185.4837791486585" y="115.87275394206085" font-size="8px"></text></g><g style="font-size: 13px;"><rect x="150" y="127.14154748808213" width="330.49562742016764" height="12.541254125412543" fill="#4472c4"></rect><rect x="150" y="140.34286762009532" width="416.94732972142987" height="12.541254125412543" fill="#ed7d31"></rect><rect x="150" y="153.54418775210854" width="409.0156906817392" height="12.541254125412543" fill="#a5a5a5"></rect><rect x="150" y="166.74550788412174" width="27.950190054631687" height="12.541254125412543" fill="#ffc000"></rect><rect x="150" y="179.94682801613493" width="29.477626569780135" height="12.541254125412543" fill="#5b9bd5"></rect><text class="label" x="488.99562742016764" y="135.64154748808213" font-size="10px">11.82x</text><text class="label" x="575.4473297214299" y="148.84286762009532" font-size="10px">14.92x</text><text class="label" x="567.5156906817392" y="162.04418775210854" font-size="10px">14.63x</text><text class="label" x="186.4501900546317" y="175.24550788412174" font-size="10px">1x</text><text class="label" x="187.97762656978014" y="188.44682801613493" font-size="10px">1.05x</text><text class="label" x="485.49562742016764" y="137.14154748808213" font-size="8px"></text><text class="label" x="571.9473297214299" y="150.34286762009532" font-size="8px"></text><text class="label" x="564.0156906817392" y="163.54418775210854" font-size="8px"></text><text class="label" x="182.9501900546317" y="176.74550788412174" font-size="8px"></text><text class="label" x="184.47762656978014" y="189.94682801613493" font-size="8px"></text></g><g style="font-size: 13px;"><rect x="150" y="201.2156215621562" width="359.6489179284115" height="12.541254125412543" fill="#4472c4"></rect><rect x="150" y="214.4169416941694" width="428.8329652902881" height="12.541254125412543" fill="#ed7d31"></rect><rect x="150" y="227.61826182618262" width="400.29752324320305" height="12.541254125412543" fill="#a5a5a5"></rect><rect x="150" y="240.8195819581958" width="27.950190054631687" height="12.541254125412543" fill="#ffc000"></rect><rect x="150" y="254.020902090209" width="28.584755296403543" height="12.541254125412543" fill="#5b9bd5"></rect><text class="label" x="518.1489179284115" y="209.7156215621562" font-size="10px">12.87x</text><text class="label" x="587.332965290288" y="222.9169416941694" font-size="10px">15.34x</text><text class="label" x="558.797523243203" y="236.11826182618262" font-size="10px">14.32x</text><text class="label" x="186.4501900546317" y="249.3195819581958" font-size="10px">1x</text><text class="label" x="187.08475529640356" y="262.520902090209" font-size="10px">1.02x</text><text class="label" x="514.6489179284115" y="211.2156215621562" font-size="8px"></text><text class="label" x="583.832965290288" y="224.4169416941694" font-size="8px"></text><text class="label" x="555.297523243203" y="237.61826182618262" font-size="8px"></text><text class="label" x="182.9501900546317" y="250.8195819581958" font-size="8px"></text><text class="label" x="183.58475529640356" y="264.020902090209" font-size="8px"></text></g><g style="font-size: 13px;"><rect x="150" y="275.28969563623025" width="197.52191479461285" height="12.541254125412543" fill="#4472c4"></rect><rect x="150" y="288.49101576824347" width="250.94081455581932" height="12.541254125412543" fill="#ed7d31"></rect><rect x="150" y="301.6923359002567" width="168.87798885520135" height="12.541254125412543" fill="#a5a5a5"></rect><rect x="150" y="314.89365603226986" width="27.950190054631687" height="12.541254125412543" fill="#ffc000"></rect><rect x="150" y="328.0949761642831" width="30.56352765613819" height="12.541254125412543" fill="#5b9bd5"></rect><text class="label" x="356.0219147946128" y="283.78969563623025" font-size="10px">7.07x</text><text class="label" x="409.4408145558193" y="296.99101576824347" font-size="10px">8.98x</text><text class="label" x="327.37798885520135" y="310.1923359002567" font-size="10px">6.04x</text><text class="label" x="186.4501900546317" y="323.39365603226986" font-size="10px">1x</text><text class="label" x="189.0635276561382" y="336.5949761642831" font-size="10px">1.09x</text><text class="label" x="352.5219147946128" y="285.28969563623025" font-size="8px"></text><text class="label" x="405.9408145558193" y="298.49101576824347" font-size="8px"></text><text class="label" x="323.87798885520135" y="311.6923359002567" font-size="8px"></text><text class="label" x="182.9501900546317" y="324.89365603226986" font-size="8px"></text><text class="label" x="185.5635276561382" y="338.0949761642831" font-size="8px"></text></g><g style="font-size: 13px;"><rect x="150" y="349.3637697103044" width="150.1657889550979" height="12.541254125412543" fill="#4472c4"></rect><rect x="150" y="362.56508984231755" width="177.39479837804365" height="12.541254125412543" fill="#ed7d31"></rect><rect x="150" y="375.76640997433077" width="170.692232132493" height="12.541254125412543" fill="#a5a5a5"></rect><rect x="150" y="388.967730106344" width="28.35624945029648" height="12.541254125412543" fill="#ffc000"></rect><rect x="150" y="402.16905023835716" width="27.950190054631687" height="12.541254125412543" fill="#5b9bd5"></rect><text class="label" x="308.6657889550979" y="357.8637697103044" font-size="10px">5.37x</text><text class="label" x="335.8947983780437" y="371.06508984231755" font-size="10px">6.35x</text><text class="label" x="329.192232132493" y="384.26640997433077" font-size="10px">6.11x</text><text class="label" x="186.85624945029647" y="397.467730106344" font-size="10px">1.01x</text><text class="label" x="186.4501900546317" y="410.66905023835716" font-size="10px">1x</text><text class="label" x="305.1657889550979" y="359.3637697103044" font-size="8px"></text><text class="label" x="332.3947983780437" y="372.56508984231755" font-size="8px"></text><text class="label" x="325.692232132493" y="385.76640997433077" font-size="8px"></text><text class="label" x="183.35624945029647" y="398.967730106344" font-size="8px"></text><text class="label" x="182.9501900546317" y="412.16905023835716" font-size="8px"></text></g><g style="font-size: 13px;"><rect x="150" y="423.4378437843784" width="156.6839136360795" height="12.541254125412543" fill="#4472c4"></rect><rect x="150" y="436.6391639163916" width="178.66148206325596" height="12.541254125412543" fill="#ed7d31"></rect><rect x="150" y="449.84048404840485" width="173.41119497840725" height="12.541254125412543" fill="#a5a5a5"></rect><rect x="150" y="463.041804180418" width="27.950190054631687" height="12.541254125412543" fill="#ffc000"></rect><rect x="150" y="476.24312431243123" width="29.57390497162687" height="12.541254125412543" fill="#5b9bd5"></rect><text class="label" x="315.1839136360795" y="431.9378437843784" font-size="10px">5.61x</text><text class="label" x="337.16148206325596" y="445.1391639163916" font-size="10px">6.39x</text><text class="label" x="331.91119497840725" y="458.34048404840485" font-size="10px">6.2x</text><text class="label" x="186.4501900546317" y="471.541804180418" font-size="10px">1x</text><text class="label" x="188.07390497162686" y="484.74312431243123" font-size="10px">1.06x</text><text class="label" x="311.6839136360795" y="433.4378437843784" font-size="8px"></text><text class="label" x="333.66148206325596" y="446.6391639163916" font-size="8px"></text><text class="label" x="328.41119497840725" y="459.84048404840485" font-size="8px"></text><text class="label" x="182.9501900546317" y="473.041804180418" font-size="8px"></text><text class="label" x="184.57390497162686" y="486.24312431243123" font-size="8px"></text></g><g style="font-size: 13px;"><rect x="150" y="497.51191785845253" width="384.3873530470173" height="12.541254125412543" fill="#4472c4"></rect><rect x="150" y="510.7132379904657" width="440.9090909090909" height="12.541254125412543" fill="#ed7d31"></rect><rect x="150" y="523.9145581224789" width="435.9323366771317" height="12.541254125412543" fill="#a5a5a5"></rect><rect x="150" y="537.1158782544921" width="27.950190054631687" height="12.541254125412543" fill="#ffc000"></rect><rect x="150" y="550.3171983865053" width="28.330801050065066" height="12.541254125412543" fill="#5b9bd5"></rect><text class="label" x="542.8873530470173" y="506.01191785845253" font-size="10px">13.75x</text><text class="label" x="599.4090909090909" y="519.2132379904657" font-size="10px">15.77x</text><text class="label" x="594.4323366771316" y="532.4145581224789" font-size="10px">15.6x</text><text class="label" x="186.4501900546317" y="545.6158782544921" font-size="10px">1x</text><text class="label" x="186.83080105006508" y="558.8171983865053" font-size="10px">1.01x</text><text class="label" x="539.3873530470173" y="507.51191785845253" font-size="8px"></text><text class="label" x="595.9090909090909" y="520.7132379904657" font-size="8px"></text><text class="label" x="590.9323366771316" y="533.9145581224789" font-size="8px"></text><text class="label" x="182.9501900546317" y="547.1158782544921" font-size="8px"></text><text class="label" x="183.33080105006508" y="560.3171983865053" font-size="8px"></text></g><g style="font-size: 13px;"><rect x="150" y="571.5859919325266" width="136.01942304746154" height="12.541254125412543" fill="#4472c4"></rect><rect x="150" y="584.7873120645397" width="147.95244806965908" height="12.541254125412543" fill="#ed7d31"></rect><rect x="150" y="597.9886321965529" width="101.61688966763457" height="12.541254125412543" fill="#a5a5a5"></rect><rect x="150" y="611.1899523285662" width="27.950190054631687" height="12.541254125412543" fill="#ffc000"></rect><rect x="150" y="624.3912724605793" width="28.144106668462943" height="12.541254125412543" fill="#5b9bd5"></rect><text class="label" x="294.51942304746154" y="580.0859919325266" font-size="10px">4.87x</text><text class="label" x="306.4524480696591" y="593.2873120645397" font-size="10px">5.29x</text><text class="label" x="260.11688966763455" y="606.4886321965529" font-size="10px">3.64x</text><text class="label" x="186.4501900546317" y="619.6899523285662" font-size="10px">1x</text><text class="label" x="186.64410666846294" y="632.8912724605793" font-size="10px">1.01x</text><text class="label" x="291.01942304746154" y="581.5859919325266" font-size="8px"></text><text class="label" x="302.9524480696591" y="594.7873120645397" font-size="8px"></text><text class="label" x="256.61688966763455" y="607.9886321965529" font-size="8px"></text><text class="label" x="182.9501900546317" y="621.1899523285662" font-size="8px"></text><text class="label" x="183.14410666846294" y="634.3912724605793" font-size="8px"></text></g></g></svg>