<svg xmlns="http://www.w3.org/2000/svg" xmlns:xlink="http://www.w3.org/1999/xlink" width="800" height="914" style="background-color: white;"><g class="y axis" transform="translate(149,45)" fill="none" font-size="10" font-family="sans-serif" text-anchor="end" style="font-size: 13px;"><path class="domain" stroke="currentColor" d="M0.5,0.5V720.5"></path><g class="tick" opacity="1" transform="translate(0,48.88888888888886)" style="font-size: 13px;"><line stroke="currentColor" x2="0"></line><text fill="currentColor" x="-3" dy="0.32em">object (simple)    </text></g><g class="tick" opacity="1" transform="translate(0,137.77777777777774)" style="font-size: 13px;"><line stroke="currentColor" x2="0"></line><text fill="currentColor" x="-3" dy="0.32em">object (hierarchical)    </text></g><g class="tick" opacity="1" transform="translate(0,226.66666666666663)" style="font-size: 13px;"><line stroke="currentColor" x2="0"></line><text fill="currentColor" x="-3" dy="0.32em">object (recursive)    </text></g><g class="tick" opacity="1" transform="translate(0,315.5555555555555)" style="font-size: 13px;"><line stroke="currentColor" x2="0"></line><text fill="currentColor" x="-3" dy="0.32em">object (union, explicit)    </text></g><g class="tick" opacity="1" transform="translate(0,404.4444444444444)" style="font-size: 13px;"><line stroke="currentColor" x2="0"></line><text fill="currentColor" x="-3" dy="0.32em">array (simple)    </text></g><g class="tick" opacity="1" transform="translate(0,493.3333333333333)" style="font-size: 13px;"><line stroke="currentColor" x2="0"></line><text fill="currentColor" x="-3" dy="0.32em">array (hierarchical)    </text></g><g class="tick" opacity="1" transform="translate(0,582.2222222222222)" style="font-size: 13px;"><line stroke="currentColor" x2="0"></line><text fill="currentColor" x="-3" dy="0.32em">array (recursive)    </text></g><g class="tick" opacity="1" transform="translate(0,671.1111111111111)" style="font-size: 13px;"><line stroke="currentColor" x2="0"></line><text fill="currentColor" x="-3" dy="0.32em">array (union, explicit)    </text></g></g><g class="x axis" transform="translate(149,765)" fill="none" font-size="10" font-family="sans-serif" text-anchor="middle" style="font-size: 13px;"><path class="domain" stroke="currentColor" d="M0.5,0.5H485.5"></path><g class="tick" opacity="1" transform="translate(0.5,0)" style="font-size: 13px;"><line stroke="currentColor" y2="6"></line><text fill="currentColor" y="9" dy="0.71em">0x</text></g><g class="tick" opacity="1" transform="translate(111.82168006714662,0)" style="font-size: 13px;"><line stroke="currentColor" y2="6"></line><text fill="currentColor" y="9" dy="0.71em">50x</text></g><g class="tick" opacity="1" transform="translate(223.14336013429323,0)" style="font-size: 13px;"><line stroke="currentColor" y2="6"></line><text fill="currentColor" y="9" dy="0.71em">100x</text></g><g class="tick" opacity="1" transform="translate(334.4650402014399,0)" style="font-size: 13px;"><line stroke="currentColor" y2="6"></line><text fill="currentColor" y="9" dy="0.71em">150x</text></g><g class="tick" opacity="1" transform="translate(445.78672026858646,0)" style="font-size: 13px;"><line stroke="currentColor" y2="6"></line><text fill="currentColor" y="9" dy="0.71em">200x</text></g></g><text transform="translate(400, 30)" style="text-anchor: middle; font-size: 20px; font-weight: bold;">stringify benchmark</text><rect x="650" y="165" width="230" height="5" fill="gray"></rect><rect x="645" y="35" width="230" height="130" fill="none" stroke="black"></rect><rect x="655" y="45" width="10" height="10" style="fill: #4472c4;"></rect><text x="670" y="55" style="font-size: 12px;">typia.stringify</text><rect x="655" y="65" width="10" height="10" style="fill: #ed7d31;"></rect><text x="670" y="75" style="font-size: 12px;">typia.isStringify</text><rect x="655" y="85" width="10" height="10" style="fill: #a5a5a5;"></rect><text x="670" y="95" style="font-size: 12px;">typia.assertStringify</text><rect x="655" y="105" width="10" height="10" style="fill: #ffc000;"></rect><text x="670" y="115" style="font-size: 12px;">fast-json-stringify</text><rect x="655" y="125" width="10" height="10" style="fill: #5b9bd5;"></rect><text x="670" y="135" style="font-size: 12px;">JSON.stringify</text><rect x="655" y="145" width="10" height="10" style="fill: #70ad47;"></rect><text x="670" y="155" style="font-size: 12px;">class-transformer</text><text x="20" y="829" style="font-size: 12px;">  - CPU: AMD Ryzen 9 7940HS w/ Radeon 780M Graphics</text><text x="20" y="846" style="font-size: 12px;">  - OS: win32</text><text x="20" y="863" style="font-size: 12px;">  - RAM: 31 GB</text><text x="20" y="880" style="font-size: 12px;">  - NodeJS version: v20.10.0</text><text x="20" y="897" style="font-size: 12px;">  - Typia version: v6.7.0-dev.20240803-5</text><g style="font-size: 13px;"><g style="font-size: 13px;"><rect x="150" y="54.55004591368224" width="440.9090909090908" height="12.56198347107438" fill="#4472c4"></rect><rect x="150" y="67.77318640955001" width="229.28304286203613" height="12.56198347107438" fill="#ed7d31"></rect><rect x="150" y="80.99632690541777" width="238.3159189685076" height="12.56198347107438" fill="#a5a5a5"></rect><rect x="150" y="94.21946740128556" width="156.93597833822326" height="12.56198347107438" fill="#ffc000"></rect><rect x="150" y="107.44260789715332" width="26.79706140600285" height="12.56198347107438" fill="#5b9bd5"></rect><rect x="150" y="120.66574839302109" width="2.2264336013429324" height="12.56198347107438" fill="#70ad47"></rect><text class="label" x="599.4090909090908" y="63.05004591368224" font-size="10px">198x</text><text class="label" x="387.78304286203615" y="76.27318640955001" font-size="10px">103x</text><text class="label" x="396.8159189685076" y="89.49632690541777" font-size="10px">107x</text><text class="label" x="315.43597833822326" y="102.71946740128556" font-size="10px">70x</text><text class="label" x="185.29706140600285" y="115.94260789715332" font-size="10px">12x</text><text class="label" x="160.72643360134293" y="129.1657483930211" font-size="10px">1x</text><text class="label" x="595.9090909090908" y="64.55004591368224" font-size="8px"></text><text class="label" x="384.28304286203615" y="77.77318640955001" font-size="8px"></text><text class="label" x="393.3159189685076" y="90.99632690541777" font-size="8px"></text><text class="label" x="311.93597833822326" y="104.21946740128556" font-size="8px"></text><text class="label" x="181.79706140600285" y="117.44260789715332" font-size="8px"></text><text class="label" x="157.22643360134293" y="130.6657483930211" font-size="8px"></text></g><g style="font-size: 13px;"><rect x="150" y="143.4389348025711" width="98.66284471656094" height="12.56198347107438" fill="#4472c4"></rect><rect x="150" y="156.66207529843888" width="93.41264150934826" height="12.56198347107438" fill="#ed7d31"></rect><rect x="150" y="169.88521579430665" width="99.56301112447832" height="12.56198347107438" fill="#a5a5a5"></rect><rect x="150" y="183.10835629017444" width="90.33449753974821" height="12.56198347107438" fill="#ffc000"></rect><rect x="150" y="196.3314967860422" width="20.96480708891351" height="12.56198347107438" fill="#5b9bd5"></rect><rect x="150" y="209.55463728190998" width="2.2264336013429324" height="12.56198347107438" fill="#70ad47"></rect><text class="label" x="257.1628447165609" y="151.9389348025711" font-size="10px">44x</text><text class="label" x="251.91264150934825" y="165.16207529843888" font-size="10px">42x</text><text class="label" x="258.0630111244783" y="178.38521579430665" font-size="10px">45x</text><text class="label" x="248.8344975397482" y="191.60835629017444" font-size="10px">41x</text><text class="label" x="179.46480708891352" y="204.8314967860422" font-size="10px">9x</text><text class="label" x="160.72643360134293" y="218.05463728190998" font-size="10px">1x</text><text class="label" x="253.66284471656093" y="153.4389348025711" font-size="8px"></text><text class="label" x="248.41264150934825" y="166.66207529843888" font-size="8px"></text><text class="label" x="254.56301112447832" y="179.88521579430665" font-size="8px"></text><text class="label" x="245.3344975397482" y="193.10835629017444" font-size="8px"></text><text class="label" x="175.96480708891352" y="206.3314967860422" font-size="8px"></text><text class="label" x="157.22643360134293" y="219.55463728190998" font-size="8px"></text></g><g style="font-size: 13px;"><rect x="150" y="232.32782369146003" width="131.98488203313462" height="12.56198347107438" fill="#4472c4"></rect><rect x="150" y="245.5509641873278" width="124.63118294823384" height="12.56198347107438" fill="#ed7d31"></rect><rect x="150" y="258.77410468319556" width="125.93901251613616" height="12.56198347107438" fill="#a5a5a5"></rect><rect x="150" y="271.9972451790633" width="105.83782407852073" height="12.56198347107438" fill="#ffc000"></rect><rect x="150" y="285.2203856749311" width="24.12131783225144" height="12.56198347107438" fill="#5b9bd5"></rect><rect x="150" y="298.44352617079886" width="2.2264336013429324" height="12.56198347107438" fill="#70ad47"></rect><text class="label" x="290.4848820331346" y="240.82782369146003" font-size="10px">59x</text><text class="label" x="283.13118294823386" y="254.0509641873278" font-size="10px">56x</text><text class="label" x="284.43901251613613" y="267.27410468319556" font-size="10px">57x</text><text class="label" x="264.3378240785207" y="280.4972451790633" font-size="10px">48x</text><text class="label" x="182.62131783225144" y="293.7203856749311" font-size="10px">11x</text><text class="label" x="160.72643360134293" y="306.94352617079886" font-size="10px">1x</text><text class="label" x="286.9848820331346" y="242.32782369146003" font-size="8px"></text><text class="label" x="279.63118294823386" y="255.5509641873278" font-size="8px"></text><text class="label" x="280.93901251613613" y="268.77410468319556" font-size="8px"></text><text class="label" x="260.8378240785207" y="281.9972451790633" font-size="8px"></text><text class="label" x="179.12131783225144" y="295.2203856749311" font-size="8px"></text><text class="label" x="157.22643360134293" y="308.44352617079886" font-size="8px"></text></g><g style="font-size: 13px;"><rect x="150" y="321.2167125803489" width="93.26971999757919" height="12.56198347107438" fill="#4472c4"></rect><rect x="150" y="334.43985307621665" width="87.13591630593172" height="12.56198347107438" fill="#ed7d31"></rect><rect x="150" y="347.6629935720844" width="90.98340937079418" height="12.56198347107438" fill="#a5a5a5"></rect><rect x="150" y="360.8861340679522" width="65.54765837909383" height="12.56198347107438" fill="#ffc000"></rect><rect x="150" y="374.10927456381995" width="36.63581937385831" height="12.56198347107438" fill="#5b9bd5"></rect><rect x="150" y="387.3324150596877" width="2.2264336013429324" height="12.56198347107438" fill="#70ad47"></rect><text class="label" x="251.7697199975792" y="329.7167125803489" font-size="10px">42x</text><text class="label" x="245.63591630593172" y="342.93985307621665" font-size="10px">39x</text><text class="label" x="249.48340937079416" y="356.1629935720844" font-size="10px">41x</text><text class="label" x="224.04765837909383" y="369.3861340679522" font-size="10px">29x</text><text class="label" x="195.1358193738583" y="382.60927456381995" font-size="10px">16x</text><text class="label" x="160.72643360134293" y="395.8324150596877" font-size="10px">1x</text><text class="label" x="248.2697199975792" y="331.2167125803489" font-size="8px"></text><text class="label" x="242.13591630593172" y="344.43985307621665" font-size="8px"></text><text class="label" x="245.98340937079416" y="357.6629935720844" font-size="8px"></text><text class="label" x="220.54765837909383" y="370.8861340679522" font-size="8px"></text><text class="label" x="191.6358193738583" y="384.10927456381995" font-size="8px"></text><text class="label" x="157.22643360134293" y="397.3324150596877" font-size="8px"></text></g><g style="font-size: 13px;"><rect x="150" y="410.1056014692378" width="45.917361190070466" height="12.56198347107438" fill="#4472c4"></rect><rect x="150" y="423.32874196510556" width="45.306747459824166" height="12.56198347107438" fill="#ed7d31"></rect><rect x="150" y="436.55188246097333" width="46.62674685010417" height="12.56198347107438" fill="#a5a5a5"></rect><rect x="150" y="449.7750229568411" width="70.76313116541763" height="12.56198347107438" fill="#ffc000"></rect><rect x="150" y="462.99816345270887" width="28.157008030450378" height="12.56198347107438" fill="#5b9bd5"></rect><rect x="150" y="476.22130394857663" width="2.2264336013429324" height="12.56198347107438" fill="#70ad47"></rect><text class="label" x="204.41736119007047" y="418.6056014692378" font-size="10px">21x</text><text class="label" x="203.80674745982418" y="431.82874196510556" font-size="10px">20x</text><text class="label" x="205.12674685010415" y="445.05188246097333" font-size="10px">21x</text><text class="label" x="229.26313116541763" y="458.2750229568411" font-size="10px">32x</text><text class="label" x="186.65700803045038" y="471.49816345270887" font-size="10px">13x</text><text class="label" x="160.72643360134293" y="484.72130394857663" font-size="10px">1x</text><text class="label" x="200.91736119007047" y="420.1056014692378" font-size="8px"></text><text class="label" x="200.30674745982418" y="433.32874196510556" font-size="8px"></text><text class="label" x="201.62674685010415" y="446.55188246097333" font-size="8px"></text><text class="label" x="225.76313116541763" y="459.7750229568411" font-size="8px"></text><text class="label" x="183.15700803045038" y="472.99816345270887" font-size="8px"></text><text class="label" x="157.22643360134293" y="486.22130394857663" font-size="8px"></text></g><g style="font-size: 13px;"><rect x="150" y="498.9944903581267" width="76.08005469844453" height="12.56198347107438" fill="#4472c4"></rect><rect x="150" y="512.2176308539945" width="72.71366544264471" height="12.56198347107438" fill="#ed7d31"></rect><rect x="150" y="525.4407713498622" width="72.7175357144702" height="12.56198347107438" fill="#a5a5a5"></rect><rect x="150" y="538.66391184573" width="124.99614462971716" height="12.56198347107438" fill="#ffc000"></rect><rect x="150" y="551.8870523415978" width="30.732398243168735" height="12.56198347107438" fill="#5b9bd5"></rect><rect x="150" y="565.1101928374655" width="2.2264336013429324" height="12.56198347107438" fill="#70ad47"></rect><text class="label" x="234.58005469844454" y="507.4944903581267" font-size="10px">34x</text><text class="label" x="231.2136654426447" y="520.7176308539945" font-size="10px">33x</text><text class="label" x="231.21753571447022" y="533.9407713498622" font-size="10px">33x</text><text class="label" x="283.49614462971715" y="547.16391184573" font-size="10px">56x</text><text class="label" x="189.23239824316875" y="560.3870523415978" font-size="10px">14x</text><text class="label" x="160.72643360134293" y="573.6101928374655" font-size="10px">1x</text><text class="label" x="231.08005469844454" y="508.9944903581267" font-size="8px"></text><text class="label" x="227.7136654426447" y="522.2176308539945" font-size="8px"></text><text class="label" x="227.71753571447022" y="535.4407713498622" font-size="8px"></text><text class="label" x="279.99614462971715" y="548.66391184573" font-size="8px"></text><text class="label" x="185.73239824316875" y="561.8870523415978" font-size="8px"></text><text class="label" x="157.22643360134293" y="575.1101928374655" font-size="8px"></text></g><g style="font-size: 13px;"><rect x="150" y="587.8833792470156" width="56.20440211888268" height="12.56198347107438" fill="#4472c4"></rect><rect x="150" y="601.1065197428833" width="54.189773785165634" height="12.56198347107438" fill="#ed7d31"></rect><rect x="150" y="614.3296602387511" width="54.634454665568946" height="12.56198347107438" fill="#a5a5a5"></rect><rect x="150" y="627.5528007346188" width="109.89020940520082" height="12.56198347107438" fill="#ffc000"></rect><rect x="150" y="640.7759412304866" width="26.67830379894252" height="12.56198347107438" fill="#5b9bd5"></rect><rect x="150" y="653.9990817263545" width="2.2264336013429324" height="12.56198347107438" fill="#70ad47"></rect><text class="label" x="214.70440211888268" y="596.3833792470156" font-size="10px">25x</text><text class="label" x="212.68977378516564" y="609.6065197428833" font-size="10px">24x</text><text class="label" x="213.13445466556894" y="622.8296602387511" font-size="10px">25x</text><text class="label" x="268.39020940520084" y="636.0528007346188" font-size="10px">49x</text><text class="label" x="185.17830379894252" y="649.2759412304866" font-size="10px">12x</text><text class="label" x="160.72643360134293" y="662.4990817263545" font-size="10px">1x</text><text class="label" x="211.20440211888268" y="597.8833792470156" font-size="8px"></text><text class="label" x="209.18977378516564" y="611.1065197428833" font-size="8px"></text><text class="label" x="209.63445466556894" y="624.3296602387511" font-size="8px"></text><text class="label" x="264.89020940520084" y="637.5528007346188" font-size="8px"></text><text class="label" x="181.67830379894252" y="650.7759412304866" font-size="8px"></text><text class="label" x="157.22643360134293" y="663.9990817263545" font-size="8px"></text></g><g style="font-size: 13px;"><rect x="150" y="676.7722681359045" width="51.58610343736613" height="12.56198347107438" fill="#4472c4"></rect><rect x="150" y="689.9954086317722" width="47.64316828468651" height="12.56198347107438" fill="#ed7d31"></rect><rect x="150" y="703.21854912764" width="47.55146736617748" height="12.56198347107438" fill="#a5a5a5"></rect><rect x="150" y="716.4416896235077" width="11.175907473698627" height="12.56198347107438" fill="#ffc000"></rect><rect x="150" y="729.6648301193756" width="34.59626969502896" height="12.56198347107438" fill="#5b9bd5"></rect><rect x="150" y="742.8879706152434" width="2.2264336013429324" height="12.56198347107438" fill="#70ad47"></rect><text class="label" x="210.08610343736612" y="685.2722681359045" font-size="10px">23x</text><text class="label" x="206.1431682846865" y="698.4954086317722" font-size="10px">21x</text><text class="label" x="206.05146736617746" y="711.71854912764" font-size="10px">21x</text><text class="label" x="169.67590747369863" y="724.9416896235077" font-size="10px">5x</text><text class="label" x="193.09626969502895" y="738.1648301193756" font-size="10px">16x</text><text class="label" x="160.72643360134293" y="751.3879706152434" font-size="10px">1x</text><text class="label" x="206.58610343736612" y="686.7722681359045" font-size="8px"></text><text class="label" x="202.6431682846865" y="699.9954086317722" font-size="8px"></text><text class="label" x="202.55146736617746" y="713.21854912764" font-size="8px"></text><text class="label" x="166.17590747369863" y="726.4416896235077" font-size="8px"></text><text class="label" x="189.59626969502895" y="739.6648301193756" font-size="8px"></text><text class="label" x="157.22643360134293" y="752.8879706152434" font-size="8px"></text></g></g></svg>