<svg xmlns="http://www.w3.org/2000/svg" xmlns:xlink="http://www.w3.org/1999/xlink" width="800" height="885" style="background-color: white;"><g class="y axis" transform="translate(149,45)" fill="none" font-size="10" font-family="sans-serif" text-anchor="end" style="font-size: 13px;"><path class="domain" stroke="currentColor" d="M0.5,0.5V810.5"></path><g class="tick" opacity="1" transform="translate(0,48.95604395604397)" style="font-size: 13px;"><line stroke="currentColor" x2="0"></line><text fill="currentColor" x="-3" dy="0.32em">object (simple)    </text></g><g class="tick" opacity="1" transform="translate(0,137.967032967033)" style="font-size: 13px;"><line stroke="currentColor" x2="0"></line><text fill="currentColor" x="-3" dy="0.32em">object (hierarchical)    </text></g><g class="tick" opacity="1" transform="translate(0,226.97802197802199)" style="font-size: 13px;"><line stroke="currentColor" x2="0"></line><text fill="currentColor" x="-3" dy="0.32em">object (recursive)    </text></g><g class="tick" opacity="1" transform="translate(0,315.989010989011)" style="font-size: 13px;"><line stroke="currentColor" x2="0"></line><text fill="currentColor" x="-3" dy="0.32em">object (union, explicit)    </text></g><g class="tick" opacity="1" transform="translate(0,405)" style="font-size: 13px;"><line stroke="currentColor" x2="0"></line><text fill="currentColor" x="-3" dy="0.32em">object (union, implicit)    </text></g><g class="tick" opacity="1" transform="translate(0,494.010989010989)" style="font-size: 13px;"><line stroke="currentColor" x2="0"></line><text fill="currentColor" x="-3" dy="0.32em">array (recursive)    </text></g><g class="tick" opacity="1" transform="translate(0,583.021978021978)" style="font-size: 13px;"><line stroke="currentColor" x2="0"></line><text fill="currentColor" x="-3" dy="0.32em">array (union, explicit)    </text></g><g class="tick" opacity="1" transform="translate(0,672.0329670329671)" style="font-size: 13px;"><line stroke="currentColor" x2="0"></line><text fill="currentColor" x="-3" dy="0.32em">array (union, implicit)    </text></g><g class="tick" opacity="1" transform="translate(0,761.043956043956)" style="font-size: 13px;"><line stroke="currentColor" x2="0"></line><text fill="currentColor" x="-3" dy="0.32em">ultimate union    </text></g></g><g class="x axis" transform="translate(149,855)" fill="none" font-size="10" font-family="sans-serif" text-anchor="middle" style="font-size: 13px;"><path class="domain" stroke="currentColor" d="M0.5,0.5H485.5"></path><g class="tick" opacity="1" transform="translate(0.5,0)" style="font-size: 13px;"><line stroke="currentColor" y2="6"></line><text fill="currentColor" y="9" dy="0.71em">0x</text></g><g class="tick" opacity="1" transform="translate(74.50671638335727,0)" style="font-size: 13px;"><line stroke="currentColor" y2="6"></line><text fill="currentColor" y="9" dy="0.71em">2,000x</text></g><g class="tick" opacity="1" transform="translate(148.51343276671454,0)" style="font-size: 13px;"><line stroke="currentColor" y2="6"></line><text fill="currentColor" y="9" dy="0.71em">4,000x</text></g><g class="tick" opacity="1" transform="translate(222.52014915007183,0)" style="font-size: 13px;"><line stroke="currentColor" y2="6"></line><text fill="currentColor" y="9" dy="0.71em">6,000x</text></g><g class="tick" opacity="1" transform="translate(296.5268655334291,0)" style="font-size: 13px;"><line stroke="currentColor" y2="6"></line><text fill="currentColor" y="9" dy="0.71em">8,000x</text></g><g class="tick" opacity="1" transform="translate(370.5335819167864,0)" style="font-size: 13px;"><line stroke="currentColor" y2="6"></line><text fill="currentColor" y="9" dy="0.71em">10,000x</text></g><g class="tick" opacity="1" transform="translate(444.54029830014366,0)" style="font-size: 13px;"><line stroke="currentColor" y2="6"></line><text fill="currentColor" y="9" dy="0.71em">12,000x</text></g></g><text transform="translate(400, 30)" style="text-anchor: middle; font-size: 20px; font-weight: bold;">is benchmark</text><rect x="680" y="165" width="200" height="5" fill="gray"></rect><rect x="675" y="35" width="200" height="130" fill="none" stroke="black"></rect><rect x="685" y="45" width="10" height="10" style="fill: #4472c4;"></rect><text x="700" y="55" style="font-size: 12px;">typescript-json</text><rect x="685" y="65" width="10" height="10" style="fill: #ed7d31;"></rect><text x="700" y="75" style="font-size: 12px;">typebox</text><rect x="685" y="85" width="10" height="10" style="fill: #a5a5a5;"></rect><text x="700" y="95" style="font-size: 12px;">ajv</text><rect x="685" y="105" width="10" height="10" style="fill: #ffc000;"></rect><text x="700" y="115" style="font-size: 12px;">io-ts</text><rect x="685" y="125" width="10" height="10" style="fill: #5b9bd5;"></rect><text x="700" y="135" style="font-size: 12px;">zod</text><rect x="685" y="145" width="10" height="10" style="fill: #70ad47;"></rect><text x="700" y="155" style="font-size: 12px;">class-validator</text><g style="font-size: 13px;"><g style="font-size: 13px;"><rect x="150" y="54.563164108618665" width="277.1542266584389" height="12.579238942875305" fill="#4472c4"></rect><rect x="150" y="67.80446825901373" width="440.9090909090908" height="12.579238942875305" fill="#ed7d31"></rect><rect x="150" y="81.04577240940878" width="152.50629062637307" height="12.579238942875305" fill="#a5a5a5"></rect><rect x="150" y="94.28707655980384" width="12.232875964528416" height="12.579238942875305" fill="#ffc000"></rect><rect x="150" y="107.5283807101989" width="1.08807590971746" height="12.579238942875305" fill="#5b9bd5"></rect><rect x="150" y="120.76968486059396" width="0.03700335819167864" height="12.579238942875305" fill="#70ad47"></rect><text class="label" x="435.6542266584389" y="63.063164108618665" font-size="10px">7,490x</text><text class="label" x="599.4090909090908" y="76.30446825901373" font-size="10px">11,915x</text><text class="label" x="311.0062906263731" y="89.54577240940878" font-size="10px">4,121x</text><text class="label" x="170.7328759645284" y="102.78707655980384" font-size="10px">331x</text><text class="label" x="159.58807590971745" y="116.0283807101989" font-size="10px">29x</text><text class="label" x="158.53700335819167" y="129.26968486059394" font-size="10px">1x</text><text class="label" x="432.1542266584389" y="64.56316410861866" font-size="8px"></text><text class="label" x="595.9090909090908" y="77.80446825901373" font-size="8px"></text><text class="label" x="307.5062906263731" y="91.04577240940878" font-size="8px"></text><text class="label" x="167.2328759645284" y="104.28707655980384" font-size="8px"></text><text class="label" x="156.08807590971745" y="117.5283807101989" font-size="8px"></text><text class="label" x="155.03700335819167" y="130.76968486059394" font-size="8px"></text></g><g style="font-size: 13px;"><rect x="150" y="143.57415311960767" width="109.55971960876329" height="12.579238942875305" fill="#4472c4"></rect><rect x="150" y="156.81545727000272" width="155.43624372825442" height="12.579238942875305" fill="#ed7d31"></rect><rect x="150" y="170.05676142039778" width="38.012776286574876" height="12.579238942875305" fill="#a5a5a5"></rect><rect x="150" y="183.29806557079286" width="8.174273308300384" height="12.579238942875305" fill="#ffc000"></rect><rect x="150" y="196.5393697211879" width="0.37278530316133257" height="12.579238942875305" fill="#5b9bd5"></rect><rect x="150" y="209.78067387158296" width="0.03700335819167864" height="12.579238942875305" fill="#70ad47"></rect><text class="label" x="268.0597196087633" y="152.07415311960767" font-size="10px">2,961x</text><text class="label" x="313.93624372825445" y="165.31545727000272" font-size="10px">4,201x</text><text class="label" x="196.51277628657488" y="178.55676142039778" font-size="10px">1,027x</text><text class="label" x="166.67427330830037" y="191.79806557079286" font-size="10px">221x</text><text class="label" x="158.87278530316132" y="205.0393697211879" font-size="10px">10x</text><text class="label" x="158.53700335819167" y="218.28067387158296" font-size="10px">1x</text><text class="label" x="264.5597196087633" y="153.57415311960767" font-size="8px"></text><text class="label" x="310.43624372825445" y="166.81545727000272" font-size="8px"></text><text class="label" x="193.01277628657488" y="180.05676142039778" font-size="8px"></text><text class="label" x="163.17427330830037" y="193.29806557079286" font-size="8px"></text><text class="label" x="155.37278530316132" y="206.5393697211879" font-size="8px"></text><text class="label" x="155.03700335819167" y="219.78067387158296" font-size="8px"></text></g><g style="font-size: 13px;"><rect x="150" y="232.5851421305967" width="117.74554518722951" height="12.579238942875305" fill="#4472c4"></rect><rect x="150" y="245.82644628099175" width="118.65171122639443" height="12.579238942875305" fill="#ed7d31"></rect><rect x="150" y="259.0677504313868" width="52.373037923070086" height="12.579238942875305" fill="#a5a5a5"></rect><rect x="150" y="272.3090545817819" width="8.151295361754682" height="12.579238942875305" fill="#ffc000"></rect><rect x="150" y="285.5503587321769" width="0.11100796646191884" height="12.579238942875305" fill="#5b9bd5"></rect><rect x="150" y="298.791662882572" width="0.03700335819167864" height="12.579238942875305" fill="#70ad47"></rect><text class="label" x="276.2455451872295" y="241.0851421305967" font-size="10px">3,182x</text><text class="label" x="277.1517112263944" y="254.32644628099175" font-size="10px">3,207x</text><text class="label" x="210.8730379230701" y="267.5677504313868" font-size="10px">1,415x</text><text class="label" x="166.65129536175468" y="280.8090545817819" font-size="10px">220x</text><text class="label" x="158.61100796646193" y="294.0503587321769" font-size="10px">3x</text><text class="label" x="158.53700335819167" y="307.291662882572" font-size="10px">1x</text><text class="label" x="272.7455451872295" y="242.5851421305967" font-size="8px"></text><text class="label" x="273.6517112263944" y="255.82644628099175" font-size="8px"></text><text class="label" x="207.3730379230701" y="269.0677504313868" font-size="8px"></text><text class="label" x="163.15129536175468" y="282.3090545817819" font-size="8px"></text><text class="label" x="155.11100796646193" y="295.5503587321769" font-size="8px"></text><text class="label" x="155.03700335819167" y="308.791662882572" font-size="8px"></text></g><g style="font-size: 13px;"><rect x="150" y="321.59613114158566" width="18.53194857775554" height="12.579238942875305" fill="#4472c4"></rect><rect x="150" y="334.83743529198074" width="13.109134924920564" height="12.579238942875305" fill="#ed7d31"></rect><rect x="150" y="348.07873944237576" width="5.926409550527884" height="12.579238942875305" fill="#a5a5a5"></rect><rect x="150" y="361.32004359277084" width="3.828346606092458" height="12.579238942875305" fill="#ffc000"></rect><rect x="150" y="374.5613477431659" width="0.03700335819167864" height="12.579238942875305" fill="#5b9bd5"></rect><rect x="150" y="387.80265189356095" width="0.09681211650763184" height="12.579238942875305" fill="#70ad47"></rect><text class="label" x="177.03194857775554" y="330.09613114158566" font-size="10px">501x</text><text class="label" x="171.60913492492057" y="343.33743529198074" font-size="10px">354x</text><text class="label" x="164.4264095505279" y="356.57873944237576" font-size="10px">160x</text><text class="label" x="162.32834660609245" y="369.82004359277084" font-size="10px">103x</text><text class="label" x="158.53700335819167" y="383.0613477431659" font-size="10px">1x</text><text class="label" x="158.59681211650764" y="396.30265189356095" font-size="10px">3x</text><text class="label" x="173.53194857775554" y="331.59613114158566" font-size="8px"></text><text class="label" x="168.10913492492057" y="344.83743529198074" font-size="8px"></text><text class="label" x="160.9264095505279" y="358.07873944237576" font-size="8px"></text><text class="label" x="158.82834660609245" y="371.32004359277084" font-size="8px"></text><text class="label" x="155.03700335819167" y="384.5613477431659" font-size="8px"></text><text class="label" x="155.09681211650764" y="397.80265189356095" font-size="8px"></text></g><g style="font-size: 13px;"><rect x="150" y="410.6071201525747" width="485" height="12.579238942875305" fill="#4472c4"></rect><rect x="150" y="423.84842430296976" width="0" height="12.579238942875305" fill="#ed7d31"></rect><rect x="150" y="437.08972845336484" width="0" height="12.579238942875305" fill="#a5a5a5"></rect><rect x="150" y="450.33103260375987" width="0" height="12.579238942875305" fill="#ffc000"></rect><rect x="150" y="463.57233675415495" width="0" height="12.579238942875305" fill="#5b9bd5"></rect><rect x="150" y="476.81364090454997" width="0" height="12.579238942875305" fill="#70ad47"></rect><text class="label" x="643.5" y="419.1071201525747" font-size="10px">Infinity</text><text class="label" x="158.5" y="432.34842430296976" font-size="10px"></text><text class="label" x="158.5" y="445.58972845336484" font-size="10px"></text><text class="label" x="158.5" y="458.83103260375987" font-size="10px"></text><text class="label" x="158.5" y="472.07233675415495" font-size="10px"></text><text class="label" x="158.5" y="485.31364090454997" font-size="10px"></text><text class="label" x="640" y="420.6071201525747" font-size="8px"></text><text class="label" x="155" y="433.84842430296976" font-size="8px">Failed</text><text class="label" x="155" y="447.08972845336484" font-size="8px">Failed</text><text class="label" x="155" y="460.33103260375987" font-size="8px">Failed</text><text class="label" x="155" y="473.57233675415495" font-size="8px">Failed</text><text class="label" x="155" y="486.81364090454997" font-size="8px">Failed</text></g><g style="font-size: 13px;"><rect x="150" y="499.6181091635637" width="91.44572364096967" height="12.579238942875305" fill="#4472c4"></rect><rect x="150" y="512.8594133139588" width="87.31093399441642" height="12.579238942875305" fill="#ed7d31"></rect><rect x="150" y="526.1007174643538" width="25.221136074610108" height="12.579238942875305" fill="#a5a5a5"></rect><rect x="150" y="539.3420216147489" width="7.017613532416682" height="12.579238942875305" fill="#ffc000"></rect><rect x="150" y="552.583325765144" width="0.12705923684972242" height="12.579238942875305" fill="#5b9bd5"></rect><rect x="150" y="565.824629915539" width="0.03700335819167864" height="12.579238942875305" fill="#70ad47"></rect><text class="label" x="249.94572364096967" y="508.1181091635637" font-size="10px">2,471x</text><text class="label" x="245.81093399441642" y="521.3594133139588" font-size="10px">2,360x</text><text class="label" x="183.72113607461011" y="534.6007174643538" font-size="10px">682x</text><text class="label" x="165.51761353241668" y="547.8420216147489" font-size="10px">190x</text><text class="label" x="158.62705923684973" y="561.083325765144" font-size="10px">3x</text><text class="label" x="158.53700335819167" y="574.324629915539" font-size="10px">1x</text><text class="label" x="246.44572364096967" y="509.6181091635637" font-size="8px"></text><text class="label" x="242.31093399441642" y="522.8594133139588" font-size="8px"></text><text class="label" x="180.22113607461011" y="536.1007174643538" font-size="8px"></text><text class="label" x="162.01761353241668" y="549.3420216147489" font-size="8px"></text><text class="label" x="155.12705923684973" y="562.583325765144" font-size="8px"></text><text class="label" x="155.03700335819167" y="575.824629915539" font-size="8px"></text></g><g style="font-size: 13px;"><rect x="150" y="588.6290981745527" width="38.31094098125294" height="12.579238942875305" fill="#4472c4"></rect><rect x="150" y="601.8704023249478" width="21.86892287018987" height="12.579238942875305" fill="#ed7d31"></rect><rect x="150" y="615.1117064753429" width="7.82217457666589" height="12.579238942875305" fill="#a5a5a5"></rect><rect x="150" y="628.353010625738" width="3.742653047795445" height="12.579238942875305" fill="#ffc000"></rect><rect x="150" y="641.5943147761329" width="0.03700335819167864" height="12.579238942875305" fill="#5b9bd5"></rect><rect x="150" y="654.835618926528" width="0.34308952266081505" height="12.579238942875305" fill="#70ad47"></rect><text class="label" x="196.81094098125294" y="597.1290981745527" font-size="10px">1,035x</text><text class="label" x="180.36892287018986" y="610.3704023249478" font-size="10px">591x</text><text class="label" x="166.3221745766659" y="623.6117064753429" font-size="10px">211x</text><text class="label" x="162.24265304779544" y="636.853010625738" font-size="10px">101x</text><text class="label" x="158.53700335819167" y="650.0943147761329" font-size="10px">1x</text><text class="label" x="158.84308952266082" y="663.335618926528" font-size="10px">9x</text><text class="label" x="193.31094098125294" y="598.6290981745527" font-size="8px"></text><text class="label" x="176.86892287018986" y="611.8704023249478" font-size="8px"></text><text class="label" x="162.8221745766659" y="625.1117064753429" font-size="8px"></text><text class="label" x="158.74265304779544" y="638.353010625738" font-size="8px"></text><text class="label" x="155.03700335819167" y="651.5943147761329" font-size="8px"></text><text class="label" x="155.34308952266082" y="664.835618926528" font-size="8px"></text></g><g style="font-size: 13px;"><rect x="150" y="677.6400871855418" width="485" height="12.579238942875305" fill="#4472c4"></rect><rect x="150" y="690.8813913359369" width="0" height="12.579238942875305" fill="#ed7d31"></rect><rect x="150" y="704.122695486332" width="0" height="12.579238942875305" fill="#a5a5a5"></rect><rect x="150" y="717.363999636727" width="0" height="12.579238942875305" fill="#ffc000"></rect><rect x="150" y="730.605303787122" width="0" height="12.579238942875305" fill="#5b9bd5"></rect><rect x="150" y="743.8466079375171" width="0" height="12.579238942875305" fill="#70ad47"></rect><text class="label" x="643.5" y="686.1400871855418" font-size="10px">Infinity</text><text class="label" x="158.5" y="699.3813913359369" font-size="10px"></text><text class="label" x="158.5" y="712.622695486332" font-size="10px"></text><text class="label" x="158.5" y="725.863999636727" font-size="10px"></text><text class="label" x="158.5" y="739.105303787122" font-size="10px"></text><text class="label" x="158.5" y="752.3466079375171" font-size="10px"></text><text class="label" x="640" y="687.6400871855418" font-size="8px"></text><text class="label" x="155" y="700.8813913359369" font-size="8px">Failed</text><text class="label" x="155" y="714.122695486332" font-size="8px">Failed</text><text class="label" x="155" y="727.363999636727" font-size="8px">Failed</text><text class="label" x="155" y="740.605303787122" font-size="8px">Failed</text><text class="label" x="155" y="753.8466079375171" font-size="8px">Failed</text></g><g style="font-size: 13px;"><rect x="150" y="766.6510761965307" width="485" height="12.579238942875305" fill="#4472c4"></rect><rect x="150" y="779.8923803469257" width="0" height="12.579238942875305" fill="#ed7d31"></rect><rect x="150" y="793.1336844973208" width="0" height="12.579238942875305" fill="#a5a5a5"></rect><rect x="150" y="806.3749886477159" width="0" height="12.579238942875305" fill="#ffc000"></rect><rect x="150" y="819.6162927981109" width="0" height="12.579238942875305" fill="#5b9bd5"></rect><rect x="150" y="832.8575969485059" width="0" height="12.579238942875305" fill="#70ad47"></rect><text class="label" x="643.5" y="775.1510761965307" font-size="10px">Infinity</text><text class="label" x="158.5" y="788.3923803469257" font-size="10px"></text><text class="label" x="158.5" y="801.6336844973208" font-size="10px"></text><text class="label" x="158.5" y="814.8749886477159" font-size="10px"></text><text class="label" x="158.5" y="828.1162927981109" font-size="10px"></text><text class="label" x="158.5" y="841.3575969485059" font-size="10px"></text><text class="label" x="640" y="776.6510761965307" font-size="8px"></text><text class="label" x="155" y="789.8923803469257" font-size="8px">Failed</text><text class="label" x="155" y="803.1336844973208" font-size="8px">Failed</text><text class="label" x="155" y="816.3749886477159" font-size="8px">Failed</text><text class="label" x="155" y="829.6162927981109" font-size="8px">Failed</text><text class="label" x="155" y="842.8575969485059" font-size="8px">Failed</text></g></g></svg>