<svg xmlns="http://www.w3.org/2000/svg" xmlns:xlink="http://www.w3.org/1999/xlink" width="800" height="600" style="background-color: white;"><g class="y axis" transform="translate(149,45)" fill="none" font-size="10" font-family="sans-serif" text-anchor="end" style="font-size: 13px;"><path class="domain" stroke="currentColor" d="M0.5,0.5V525.5"></path><g class="tick" opacity="1" transform="translate(0,40.66901408450705)" style="font-size: 13px;"><line stroke="currentColor" x2="0"></line><text fill="currentColor" x="-3" dy="0.32em">object (simple)    </text></g><g class="tick" opacity="1" transform="translate(0,114.61267605633802)" style="font-size: 13px;"><line stroke="currentColor" x2="0"></line><text fill="currentColor" x="-3" dy="0.32em">object (hierarchical)    </text></g><g class="tick" opacity="1" transform="translate(0,188.556338028169)" style="font-size: 13px;"><line stroke="currentColor" x2="0"></line><text fill="currentColor" x="-3" dy="0.32em">object (recursive)    </text></g><g class="tick" opacity="1" transform="translate(0,262.5)" style="font-size: 13px;"><line stroke="currentColor" x2="0"></line><text fill="currentColor" x="-3" dy="0.32em">object (union)    </text></g><g class="tick" opacity="1" transform="translate(0,336.443661971831)" style="font-size: 13px;"><line stroke="currentColor" x2="0"></line><text fill="currentColor" x="-3" dy="0.32em">array (hierarchical)    </text></g><g class="tick" opacity="1" transform="translate(0,410.38732394366195)" style="font-size: 13px;"><line stroke="currentColor" x2="0"></line><text fill="currentColor" x="-3" dy="0.32em">array (recursive)    </text></g><g class="tick" opacity="1" transform="translate(0,484.33098591549293)" style="font-size: 13px;"><line stroke="currentColor" x2="0"></line><text fill="currentColor" x="-3" dy="0.32em">array (union)    </text></g></g><g class="x axis" transform="translate(149,570)" fill="none" font-size="10" font-family="sans-serif" text-anchor="middle" style="font-size: 13px;"><path class="domain" stroke="currentColor" d="M0.5,0.5H485.5"></path><g class="tick" opacity="1" transform="translate(0.5,0)" style="font-size: 13px;"><line stroke="currentColor" y2="6"></line><text fill="currentColor" y="9" dy="0.71em">0x</text></g><g class="tick" opacity="1" transform="translate(77.79899441142021,0)" style="font-size: 13px;"><line stroke="currentColor" y2="6"></line><text fill="currentColor" y="9" dy="0.71em">0.5x</text></g><g class="tick" opacity="1" transform="translate(155.09798882284042,0)" style="font-size: 13px;"><line stroke="currentColor" y2="6"></line><text fill="currentColor" y="9" dy="0.71em">1x</text></g><g class="tick" opacity="1" transform="translate(232.39698323426063,0)" style="font-size: 13px;"><line stroke="currentColor" y2="6"></line><text fill="currentColor" y="9" dy="0.71em">1.5x</text></g><g class="tick" opacity="1" transform="translate(309.69597764568084,0)" style="font-size: 13px;"><line stroke="currentColor" y2="6"></line><text fill="currentColor" y="9" dy="0.71em">2x</text></g><g class="tick" opacity="1" transform="translate(386.994972057101,0)" style="font-size: 13px;"><line stroke="currentColor" y2="6"></line><text fill="currentColor" y="9" dy="0.71em">2.5x</text></g><g class="tick" opacity="1" transform="translate(464.29396646852126,0)" style="font-size: 13px;"><line stroke="currentColor" y2="6"></line><text fill="currentColor" y="9" dy="0.71em">3x</text></g></g><text transform="translate(400, 30)" style="text-anchor: middle; font-size: 20px; font-weight: bold;">stringify benchmark</text><rect x="680" y="145" width="200" height="5" fill="gray"></rect><rect x="675" y="35" width="200" height="110" fill="none" stroke="black"></rect><rect x="685" y="45" width="10" height="10" style="fill: #4472c4;"></rect><text x="700" y="55" style="font-size: 12px;">TSON.stringify()</text><rect x="685" y="65" width="10" height="10" style="fill: #ed7d31;"></rect><text x="700" y="75" style="font-size: 12px;">TSON.assertStringify()</text><rect x="685" y="85" width="10" height="10" style="fill: #a5a5a5;"></rect><text x="700" y="95" style="font-size: 12px;">TSON.isStringify()</text><rect x="685" y="105" width="10" height="10" style="fill: #ffc000;"></rect><text x="700" y="115" style="font-size: 12px;">JSON.stringify()</text><rect x="685" y="125" width="10" height="10" style="fill: #5b9bd5;"></rect><text x="700" y="135" style="font-size: 12px;">fast-json-stringify</text><g style="font-size: 13px;"><g style="font-size: 13px;"><rect x="150" y="53.05327011574397" width="440.9090909090908" height="12.519174452656534" fill="#4472c4"></rect><rect x="150" y="66.23134848696137" width="381.7818719595525" height="12.519174452656534" fill="#ed7d31"></rect><rect x="150" y="79.40942685817878" width="394.653713120053" height="12.519174452656534" fill="#a5a5a5"></rect><rect x="150" y="92.58750522939619" width="154.59798882284042" height="12.519174452656534" fill="#ffc000"></rect><rect x="150" y="105.76558360061358" width="328.6440619531004" height="12.519174452656534" fill="#5b9bd5"></rect><text class="label" x="599.4090909090908" y="61.55327011574397" font-size="10px">2.85x</text><text class="label" x="540.2818719595525" y="74.73134848696137" font-size="10px">2.47x</text><text class="label" x="553.153713120053" y="87.90942685817878" font-size="10px">2.55x</text><text class="label" x="313.0979888228404" y="101.08750522939619" font-size="10px">1x</text><text class="label" x="487.1440619531004" y="114.26558360061358" font-size="10px">2.13x</text><text class="label" x="595.9090909090908" y="63.05327011574397" font-size="8px"></text><text class="label" x="536.7818719595525" y="76.23134848696137" font-size="8px"></text><text class="label" x="549.653713120053" y="89.40942685817878" font-size="8px"></text><text class="label" x="309.5979888228404" y="102.58750522939619" font-size="8px"></text><text class="label" x="483.6440619531004" y="115.76558360061358" font-size="8px"></text></g><g style="font-size: 13px;"><rect x="150" y="126.99693208757495" width="268.8065040974065" height="12.519174452656534" fill="#4472c4"></rect><rect x="150" y="140.17501045879237" width="238.27093864150288" height="12.519174452656534" fill="#ed7d31"></rect><rect x="150" y="153.35308883000977" width="244.40870570944801" height="12.519174452656534" fill="#a5a5a5"></rect><rect x="150" y="166.53116720122716" width="154.59798882284042" height="12.519174452656534" fill="#ffc000"></rect><rect x="150" y="179.70924557244456" width="246.46961560980048" height="12.519174452656534" fill="#5b9bd5"></rect><text class="label" x="427.3065040974065" y="135.49693208757495" font-size="10px">1.74x</text><text class="label" x="396.7709386415029" y="148.67501045879237" font-size="10px">1.54x</text><text class="label" x="402.908705709448" y="161.85308883000977" font-size="10px">1.58x</text><text class="label" x="313.0979888228404" y="175.03116720122716" font-size="10px">1x</text><text class="label" x="404.9696156098005" y="188.20924557244456" font-size="10px">1.59x</text><text class="label" x="423.8065040974065" y="136.99693208757495" font-size="8px"></text><text class="label" x="393.2709386415029" y="150.17501045879237" font-size="8px"></text><text class="label" x="399.408705709448" y="163.35308883000977" font-size="8px"></text><text class="label" x="309.5979888228404" y="176.53116720122716" font-size="8px"></text><text class="label" x="401.4696156098005" y="189.70924557244456" font-size="8px"></text></g><g style="font-size: 13px;"><rect x="150" y="200.94059405940592" width="299.8602782077242" height="12.519174452656534" fill="#4472c4"></rect><rect x="150" y="214.11867243062332" width="272.2599184026721" height="12.519174452656534" fill="#ed7d31"></rect><rect x="150" y="227.29675080184074" width="277.7827244628871" height="12.519174452656534" fill="#a5a5a5"></rect><rect x="150" y="240.47482917305814" width="154.59798882284042" height="12.519174452656534" fill="#ffc000"></rect><rect x="150" y="253.65290754427554" width="164.98508429968174" height="12.519174452656534" fill="#5b9bd5"></rect><text class="label" x="458.3602782077242" y="209.44059405940592" font-size="10px">1.94x</text><text class="label" x="430.7599184026721" y="222.61867243062332" font-size="10px">1.76x</text><text class="label" x="436.2827244628871" y="235.79675080184074" font-size="10px">1.8x</text><text class="label" x="313.0979888228404" y="248.97482917305814" font-size="10px">1x</text><text class="label" x="323.4850842996817" y="262.15290754427554" font-size="10px">1.07x</text><text class="label" x="454.8602782077242" y="210.94059405940592" font-size="8px"></text><text class="label" x="427.2599184026721" y="224.11867243062332" font-size="8px"></text><text class="label" x="432.7827244628871" y="237.29675080184074" font-size="8px"></text><text class="label" x="309.5979888228404" y="250.47482917305814" font-size="8px"></text><text class="label" x="319.9850842996817" y="263.65290754427554" font-size="8px"></text></g><g style="font-size: 13px;"><rect x="150" y="274.8842560312369" width="207.3221870607763" height="12.519174452656534" fill="#4472c4"></rect><rect x="150" y="288.0623344024543" width="154.59798882284042" height="12.519174452656534" fill="#ed7d31"></rect><rect x="150" y="301.2404127736717" width="189.23541651762284" height="12.519174452656534" fill="#a5a5a5"></rect><rect x="150" y="314.4184911448891" width="188.62607652981896" height="12.519174452656534" fill="#ffc000"></rect><rect x="150" y="327.5965695161065" width="195.94029700126498" height="12.519174452656534" fill="#5b9bd5"></rect><text class="label" x="365.8221870607763" y="283.3842560312369" font-size="10px">1.34x</text><text class="label" x="313.0979888228404" y="296.5623344024543" font-size="10px">1x</text><text class="label" x="347.73541651762287" y="309.7404127736717" font-size="10px">1.22x</text><text class="label" x="347.126076529819" y="322.9184911448891" font-size="10px">1.22x</text><text class="label" x="354.440297001265" y="336.0965695161065" font-size="10px">1.27x</text><text class="label" x="362.3221870607763" y="284.8842560312369" font-size="8px"></text><text class="label" x="309.5979888228404" y="298.0623344024543" font-size="8px"></text><text class="label" x="344.23541651762287" y="311.2404127736717" font-size="8px"></text><text class="label" x="343.626076529819" y="324.4184911448891" font-size="8px"></text><text class="label" x="350.940297001265" y="337.5965695161065" font-size="8px"></text></g><g style="font-size: 13px;"><rect x="150" y="348.8279180030679" width="164.4118210334354" height="12.519174452656534" fill="#4472c4"></rect><rect x="150" y="362.0059963742853" width="154.59798882284042" height="12.519174452656534" fill="#ed7d31"></rect><rect x="150" y="375.1840747455027" width="165.62928720243855" height="12.519174452656534" fill="#a5a5a5"></rect><rect x="150" y="388.3621531167201" width="156.26308472743372" height="12.519174452656534" fill="#ffc000"></rect><rect x="150" y="401.5402314879375" width="229.48513027138677" height="12.519174452656534" fill="#5b9bd5"></rect><text class="label" x="322.9118210334354" y="357.3279180030679" font-size="10px">1.06x</text><text class="label" x="313.0979888228404" y="370.5059963742853" font-size="10px">1x</text><text class="label" x="324.12928720243855" y="383.6840747455027" font-size="10px">1.07x</text><text class="label" x="314.7630847274337" y="396.8621531167201" font-size="10px">1.01x</text><text class="label" x="387.98513027138677" y="410.0402314879375" font-size="10px">1.48x</text><text class="label" x="319.4118210334354" y="358.8279180030679" font-size="8px"></text><text class="label" x="309.5979888228404" y="372.0059963742853" font-size="8px"></text><text class="label" x="320.62928720243855" y="385.1840747455027" font-size="8px"></text><text class="label" x="311.2630847274337" y="398.3621531167201" font-size="8px"></text><text class="label" x="384.48513027138677" y="411.5402314879375" font-size="8px"></text></g><g style="font-size: 13px;"><rect x="150" y="422.7715799748988" width="171.08132688299392" height="12.519174452656534" fill="#4472c4"></rect><rect x="150" y="435.9496583461163" width="154.59798882284042" height="12.519174452656534" fill="#ed7d31"></rect><rect x="150" y="449.1277367173337" width="164.31554249623824" height="12.519174452656534" fill="#a5a5a5"></rect><rect x="150" y="462.30581508855107" width="164.38167543078416" height="12.519174452656534" fill="#ffc000"></rect><rect x="150" y="475.48389345976847" width="168.64802212309996" height="12.519174452656534" fill="#5b9bd5"></rect><text class="label" x="329.58132688299395" y="431.2715799748988" font-size="10px">1.11x</text><text class="label" x="313.0979888228404" y="444.4496583461163" font-size="10px">1x</text><text class="label" x="322.8155424962382" y="457.6277367173337" font-size="10px">1.06x</text><text class="label" x="322.8816754307842" y="470.80581508855107" font-size="10px">1.06x</text><text class="label" x="327.14802212309996" y="483.98389345976847" font-size="10px">1.09x</text><text class="label" x="326.08132688299395" y="432.7715799748988" font-size="8px"></text><text class="label" x="309.5979888228404" y="445.9496583461163" font-size="8px"></text><text class="label" x="319.3155424962382" y="459.1277367173337" font-size="8px"></text><text class="label" x="319.3816754307842" y="472.30581508855107" font-size="8px"></text><text class="label" x="323.64802212309996" y="485.48389345976847" font-size="8px"></text></g><g style="font-size: 13px;"><rect x="150" y="496.71524194672986" width="184.8597414032182" height="12.519174452656534" fill="#4472c4"></rect><rect x="150" y="509.89332031794726" width="154.59798882284042" height="12.519174452656534" fill="#ed7d31"></rect><rect x="150" y="523.0713986891647" width="168.78444671785059" height="12.519174452656534" fill="#a5a5a5"></rect><rect x="150" y="536.2494770603821" width="335.6268982349407" height="12.519174452656534" fill="#ffc000"></rect><rect x="150" y="549.4275554315994" width="279.04503501447795" height="12.519174452656534" fill="#5b9bd5"></rect><text class="label" x="343.3597414032182" y="505.21524194672986" font-size="10px">1.2x</text><text class="label" x="313.0979888228404" y="518.3933203179472" font-size="10px">1x</text><text class="label" x="327.2844467178506" y="531.5713986891647" font-size="10px">1.09x</text><text class="label" x="494.1268982349407" y="544.7494770603821" font-size="10px">2.17x</text><text class="label" x="437.54503501447795" y="557.9275554315994" font-size="10px">1.8x</text><text class="label" x="339.8597414032182" y="506.71524194672986" font-size="8px"></text><text class="label" x="309.5979888228404" y="519.8933203179472" font-size="8px"></text><text class="label" x="323.7844467178506" y="533.0713986891647" font-size="8px"></text><text class="label" x="490.6268982349407" y="546.2494770603821" font-size="8px"></text><text class="label" x="434.04503501447795" y="559.4275554315994" font-size="8px"></text></g></g></svg>