<svg xmlns="http://www.w3.org/2000/svg" xmlns:xlink="http://www.w3.org/1999/xlink" width="800" height="794" style="background-color: white;"><g class="y axis" transform="translate(149,45)" fill="none" font-size="10" font-family="sans-serif" text-anchor="end" style="font-size: 13px;"><path class="domain" stroke="currentColor" d="M0.5,0.5V600.5"></path><g class="tick" opacity="1" transform="translate(0,40.740740740740726)" style="font-size: 13px;"><line stroke="currentColor" x2="0"></line><text fill="currentColor" x="-3" dy="0.32em">object (simple)    </text></g><g class="tick" opacity="1" transform="translate(0,114.81481481481481)" style="font-size: 13px;"><line stroke="currentColor" x2="0"></line><text fill="currentColor" x="-3" dy="0.32em">object (hierarchical)    </text></g><g class="tick" opacity="1" transform="translate(0,188.88888888888889)" style="font-size: 13px;"><line stroke="currentColor" x2="0"></line><text fill="currentColor" x="-3" dy="0.32em">object (recursive)    </text></g><g class="tick" opacity="1" transform="translate(0,262.96296296296293)" style="font-size: 13px;"><line stroke="currentColor" x2="0"></line><text fill="currentColor" x="-3" dy="0.32em">object (union, explicit)    </text></g><g class="tick" opacity="1" transform="translate(0,337.037037037037)" style="font-size: 13px;"><line stroke="currentColor" x2="0"></line><text fill="currentColor" x="-3" dy="0.32em">array (simple)    </text></g><g class="tick" opacity="1" transform="translate(0,411.1111111111111)" style="font-size: 13px;"><line stroke="currentColor" x2="0"></line><text fill="currentColor" x="-3" dy="0.32em">array (hierarchical)    </text></g><g class="tick" opacity="1" transform="translate(0,485.18518518518516)" style="font-size: 13px;"><line stroke="currentColor" x2="0"></line><text fill="currentColor" x="-3" dy="0.32em">array (recursive)    </text></g><g class="tick" opacity="1" transform="translate(0,559.2592592592592)" style="font-size: 13px;"><line stroke="currentColor" x2="0"></line><text fill="currentColor" x="-3" dy="0.32em">array (union, explicit)    </text></g></g><g class="x axis" transform="translate(149,645)" fill="none" font-size="10" font-family="sans-serif" text-anchor="middle" style="font-size: 13px;"><path class="domain" stroke="currentColor" d="M0.5,0.5H485.5"></path><g class="tick" opacity="1" transform="translate(0.5,0)" style="font-size: 13px;"><line stroke="currentColor" y2="6"></line><text fill="currentColor" y="9" dy="0.71em">0x</text></g><g class="tick" opacity="1" transform="translate(73.79357314231162,0)" style="font-size: 13px;"><line stroke="currentColor" y2="6"></line><text fill="currentColor" y="9" dy="0.71em">5x</text></g><g class="tick" opacity="1" transform="translate(147.08714628462323,0)" style="font-size: 13px;"><line stroke="currentColor" y2="6"></line><text fill="currentColor" y="9" dy="0.71em">10x</text></g><g class="tick" opacity="1" transform="translate(220.38071942693483,0)" style="font-size: 13px;"><line stroke="currentColor" y2="6"></line><text fill="currentColor" y="9" dy="0.71em">15x</text></g><g class="tick" opacity="1" transform="translate(293.67429256924646,0)" style="font-size: 13px;"><line stroke="currentColor" y2="6"></line><text fill="currentColor" y="9" dy="0.71em">20x</text></g><g class="tick" opacity="1" transform="translate(366.9678657115581,0)" style="font-size: 13px;"><line stroke="currentColor" y2="6"></line><text fill="currentColor" y="9" dy="0.71em">25x</text></g><g class="tick" opacity="1" transform="translate(440.26143885386966,0)" style="font-size: 13px;"><line stroke="currentColor" y2="6"></line><text fill="currentColor" y="9" dy="0.71em">30x</text></g></g><text transform="translate(400, 30)" style="text-anchor: middle; font-size: 20px; font-weight: bold;">server-performance benchmark</text><rect x="650" y="145" width="230" height="5" fill="gray"></rect><rect x="645" y="35" width="230" height="110" fill="none" stroke="black"></rect><rect x="655" y="45" width="10" height="10" style="fill: #4472c4;"></rect><text x="670" y="55" style="font-size: 12px;">fastify-typia</text><rect x="655" y="65" width="10" height="10" style="fill: #ed7d31;"></rect><text x="670" y="75" style="font-size: 12px;">fastify-pure</text><rect x="655" y="85" width="10" height="10" style="fill: #a5a5a5;"></rect><text x="670" y="95" style="font-size: 12px;">fastify-class-transformer</text><rect x="655" y="105" width="10" height="10" style="fill: #ffc000;"></rect><text x="670" y="115" style="font-size: 12px;">express-typia</text><rect x="655" y="125" width="10" height="10" style="fill: #5b9bd5;"></rect><text x="670" y="135" style="font-size: 12px;">express-class-transformer</text><text x="20" y="709" style="font-size: 12px;">  - CPU: 12th Gen Intel(R) Core(TM) i5-1235U</text><text x="20" y="726" style="font-size: 12px;">  - OS: win32</text><text x="20" y="743" style="font-size: 12px;">  - RAM: 16 GB</text><text x="20" y="760" style="font-size: 12px;">  - NodeJS version: v20.6.1</text><text x="20" y="777" style="font-size: 12px;">  - Typia version: v5.0.3</text><g style="font-size: 13px;"><g style="font-size: 13px;"><rect x="150" y="53.06747341400805" width="186.05490509290527" height="12.541254125412543" fill="#4472c4"></rect><rect x="150" y="66.26879354602124" width="178.50342172648337" height="12.541254125412543" fill="#ed7d31"></rect><rect x="150" y="79.47011367803445" width="14.658714628462324" height="12.541254125412543" fill="#a5a5a5"></rect><rect x="150" y="92.67143381004766" width="122.52209691562581" height="12.541254125412543" fill="#ffc000"></rect><rect x="150" y="105.87275394206085" width="20.90352356882717" height="12.541254125412543" fill="#5b9bd5"></rect><text class="label" x="344.5549050929053" y="61.56747341400805" font-size="10px">12.69x</text><text class="label" x="337.00342172648334" y="74.76879354602124" font-size="10px">12.18x</text><text class="label" x="173.15871462846232" y="87.97011367803445" font-size="10px">1x</text><text class="label" x="281.0220969156258" y="101.17143381004766" font-size="10px">8.36x</text><text class="label" x="179.40352356882715" y="114.37275394206085" font-size="10px">1.43x</text><text class="label" x="341.0549050929053" y="63.06747341400805" font-size="8px"></text><text class="label" x="333.50342172648334" y="76.26879354602124" font-size="8px"></text><text class="label" x="169.65871462846232" y="89.47011367803445" font-size="8px"></text><text class="label" x="277.5220969156258" y="102.67143381004766" font-size="8px"></text><text class="label" x="175.90352356882715" y="115.87275394206085" font-size="8px"></text></g><g style="font-size: 13px;"><rect x="150" y="127.14154748808213" width="154.77371522571158" height="12.541254125412543" fill="#4472c4"></rect><rect x="150" y="140.34286762009532" width="134.65729683753855" height="12.541254125412543" fill="#ed7d31"></rect><rect x="150" y="153.54418775210854" width="14.658714628462324" height="12.541254125412543" fill="#a5a5a5"></rect><rect x="150" y="166.74550788412174" width="124.03215539890529" height="12.541254125412543" fill="#ffc000"></rect><rect x="150" y="179.94682801613493" width="21.793529188910114" height="12.541254125412543" fill="#5b9bd5"></rect><text class="label" x="313.2737152257116" y="135.64154748808213" font-size="10px">10.56x</text><text class="label" x="293.1572968375385" y="148.84286762009532" font-size="10px">9.19x</text><text class="label" x="173.15871462846232" y="162.04418775210854" font-size="10px">1x</text><text class="label" x="282.5321553989053" y="175.24550788412174" font-size="10px">8.46x</text><text class="label" x="180.2935291889101" y="188.44682801613493" font-size="10px">1.49x</text><text class="label" x="309.7737152257116" y="137.14154748808213" font-size="8px"></text><text class="label" x="289.6572968375385" y="150.34286762009532" font-size="8px"></text><text class="label" x="169.65871462846232" y="163.54418775210854" font-size="8px"></text><text class="label" x="279.0321553989053" y="176.74550788412174" font-size="8px"></text><text class="label" x="176.7935291889101" y="189.94682801613493" font-size="8px"></text></g><g style="font-size: 13px;"><rect x="150" y="201.2156215621562" width="167.9336449955288" height="12.541254125412543" fill="#4472c4"></rect><rect x="150" y="214.4169416941694" width="107.27052155884368" height="12.541254125412543" fill="#ed7d31"></rect><rect x="150" y="227.61826182618262" width="14.658714628462324" height="12.541254125412543" fill="#a5a5a5"></rect><rect x="150" y="240.8195819581958" width="138.15995735608158" height="12.541254125412543" fill="#ffc000"></rect><rect x="150" y="254.020902090209" width="18.723731123089905" height="12.541254125412543" fill="#5b9bd5"></rect><text class="label" x="326.43364499552877" y="209.7156215621562" font-size="10px">11.46x</text><text class="label" x="265.7705215588437" y="222.9169416941694" font-size="10px">7.32x</text><text class="label" x="173.15871462846232" y="236.11826182618262" font-size="10px">1x</text><text class="label" x="296.6599573560816" y="249.3195819581958" font-size="10px">9.43x</text><text class="label" x="177.22373112308992" y="262.520902090209" font-size="10px">1.28x</text><text class="label" x="322.93364499552877" y="211.2156215621562" font-size="8px"></text><text class="label" x="262.2705215588437" y="224.4169416941694" font-size="8px"></text><text class="label" x="169.65871462846232" y="237.61826182618262" font-size="8px"></text><text class="label" x="293.1599573560816" y="250.8195819581958" font-size="8px"></text><text class="label" x="173.72373112308992" y="264.020902090209" font-size="8px"></text></g><g style="font-size: 13px;"><rect x="150" y="275.28969563623025" width="440.9090909090908" height="12.541254125412543" fill="#4472c4"></rect><rect x="150" y="288.49101576824347" width="276.52743045261514" height="12.541254125412543" fill="#ed7d31"></rect><rect x="150" y="301.6923359002567" width="14.658714628462324" height="12.541254125412543" fill="#a5a5a5"></rect><rect x="150" y="314.89365603226986" width="362.6640715784939" height="12.541254125412543" fill="#ffc000"></rect><rect x="150" y="328.0949761642831" width="14.72332592089451" height="12.541254125412543" fill="#5b9bd5"></rect><text class="label" x="599.4090909090908" y="283.78969563623025" font-size="10px">30.08x</text><text class="label" x="435.02743045261514" y="296.99101576824347" font-size="10px">18.86x</text><text class="label" x="173.15871462846232" y="310.1923359002567" font-size="10px">1x</text><text class="label" x="521.1640715784939" y="323.39365603226986" font-size="10px">24.74x</text><text class="label" x="173.22332592089452" y="336.5949761642831" font-size="10px">1x</text><text class="label" x="595.9090909090908" y="285.28969563623025" font-size="8px"></text><text class="label" x="431.52743045261514" y="298.49101576824347" font-size="8px"></text><text class="label" x="169.65871462846232" y="311.6923359002567" font-size="8px"></text><text class="label" x="517.6640715784939" y="324.89365603226986" font-size="8px"></text><text class="label" x="169.72332592089452" y="338.0949761642831" font-size="8px"></text></g><g style="font-size: 13px;"><rect x="150" y="349.3637697103044" width="233.34840836380008" height="12.541254125412543" fill="#4472c4"></rect><rect x="150" y="362.56508984231755" width="219.136002441936" height="12.541254125412543" fill="#ed7d31"></rect><rect x="150" y="375.76640997433077" width="14.658714628462324" height="12.541254125412543" fill="#a5a5a5"></rect><rect x="150" y="388.967730106344" width="201.6177439324326" height="12.541254125412543" fill="#ffc000"></rect><rect x="150" y="402.16905023835716" width="18.286079306146156" height="12.541254125412543" fill="#5b9bd5"></rect><text class="label" x="391.8484083638001" y="357.8637697103044" font-size="10px">15.92x</text><text class="label" x="377.636002441936" y="371.06508984231755" font-size="10px">14.95x</text><text class="label" x="173.15871462846232" y="384.26640997433077" font-size="10px">1x</text><text class="label" x="360.11774393243263" y="397.467730106344" font-size="10px">13.75x</text><text class="label" x="176.78607930614615" y="410.66905023835716" font-size="10px">1.25x</text><text class="label" x="388.3484083638001" y="359.3637697103044" font-size="8px"></text><text class="label" x="374.136002441936" y="372.56508984231755" font-size="8px"></text><text class="label" x="169.65871462846232" y="385.76640997433077" font-size="8px"></text><text class="label" x="356.61774393243263" y="398.967730106344" font-size="8px"></text><text class="label" x="173.28607930614615" y="412.16905023835716" font-size="8px"></text></g><g style="font-size: 13px;"><rect x="150" y="423.4378437843784" width="385.7650655886229" height="12.541254125412543" fill="#4472c4"></rect><rect x="150" y="436.6391639163916" width="296.1646376242008" height="12.541254125412543" fill="#ed7d31"></rect><rect x="150" y="449.84048404840485" width="17.15293972329778" height="12.541254125412543" fill="#a5a5a5"></rect><rect x="150" y="463.041804180418" width="318.799180925409" height="12.541254125412543" fill="#ffc000"></rect><rect x="150" y="476.24312431243123" width="14.658714628462324" height="12.541254125412543" fill="#5b9bd5"></rect><text class="label" x="544.265065588623" y="431.9378437843784" font-size="10px">26.32x</text><text class="label" x="454.6646376242008" y="445.1391639163916" font-size="10px">20.2x</text><text class="label" x="175.65293972329778" y="458.34048404840485" font-size="10px">1.17x</text><text class="label" x="477.299180925409" y="471.541804180418" font-size="10px">21.75x</text><text class="label" x="173.15871462846232" y="484.74312431243123" font-size="10px">1x</text><text class="label" x="540.765065588623" y="433.4378437843784" font-size="8px"></text><text class="label" x="451.1646376242008" y="446.6391639163916" font-size="8px"></text><text class="label" x="172.15293972329778" y="459.84048404840485" font-size="8px"></text><text class="label" x="473.799180925409" y="473.041804180418" font-size="8px"></text><text class="label" x="169.65871462846232" y="486.24312431243123" font-size="8px"></text></g><g style="font-size: 13px;"><rect x="150" y="497.51191785845253" width="171.47623339752874" height="12.541254125412543" fill="#4472c4"></rect><rect x="150" y="510.7132379904657" width="183.2748332504177" height="12.541254125412543" fill="#ed7d31"></rect><rect x="150" y="523.9145581224789" width="14.658714628462324" height="12.541254125412543" fill="#a5a5a5"></rect><rect x="150" y="537.1158782544921" width="179.41865706230186" height="12.541254125412543" fill="#ffc000"></rect><rect x="150" y="550.3171983865053" width="21.616525019484985" height="12.541254125412543" fill="#5b9bd5"></rect><text class="label" x="329.97623339752874" y="506.01191785845253" font-size="10px">11.7x</text><text class="label" x="341.7748332504177" y="519.2132379904657" font-size="10px">12.5x</text><text class="label" x="173.15871462846232" y="532.4145581224789" font-size="10px">1x</text><text class="label" x="337.91865706230186" y="545.6158782544921" font-size="10px">12.24x</text><text class="label" x="180.11652501948498" y="558.8171983865053" font-size="10px">1.47x</text><text class="label" x="326.47623339752874" y="507.51191785845253" font-size="8px"></text><text class="label" x="338.2748332504177" y="520.7132379904657" font-size="8px"></text><text class="label" x="169.65871462846232" y="533.9145581224789" font-size="8px"></text><text class="label" x="334.41865706230186" y="547.1158782544921" font-size="8px"></text><text class="label" x="176.61652501948498" y="560.3171983865053" font-size="8px"></text></g><g style="font-size: 13px;"><rect x="150" y="571.5859919325266" width="289.0428672178266" height="12.541254125412543" fill="#4472c4"></rect><rect x="150" y="584.7873120645397" width="110.2999082771233" height="12.541254125412543" fill="#ed7d31"></rect><rect x="150" y="597.9886321965529" width="14.658714628462324" height="12.541254125412543" fill="#a5a5a5"></rect><rect x="150" y="611.1899523285662" width="264.8952988208219" height="12.541254125412543" fill="#ffc000"></rect><rect x="150" y="624.3912724605793" width="14.898862381897734" height="12.541254125412543" fill="#5b9bd5"></rect><text class="label" x="447.5428672178266" y="580.0859919325266" font-size="10px">19.72x</text><text class="label" x="268.7999082771233" y="593.2873120645397" font-size="10px">7.52x</text><text class="label" x="173.15871462846232" y="606.4886321965529" font-size="10px">1x</text><text class="label" x="423.3952988208219" y="619.6899523285662" font-size="10px">18.07x</text><text class="label" x="173.39886238189774" y="632.8912724605793" font-size="10px">1.02x</text><text class="label" x="444.0428672178266" y="581.5859919325266" font-size="8px"></text><text class="label" x="265.2999082771233" y="594.7873120645397" font-size="8px"></text><text class="label" x="169.65871462846232" y="607.9886321965529" font-size="8px"></text><text class="label" x="419.8952988208219" y="621.1899523285662" font-size="8px"></text><text class="label" x="169.89886238189774" y="634.3912724605793" font-size="8px"></text></g></g></svg>