<svg xmlns="http://www.w3.org/2000/svg" xmlns:xlink="http://www.w3.org/1999/xlink" width="800" height="914" style="background-color: white;"><g class="y axis" transform="translate(149,45)" fill="none" font-size="10" font-family="sans-serif" text-anchor="end" style="font-size: 13px;"><path class="domain" stroke="currentColor" d="M0.5,0.5V720.5"></path><g class="tick" opacity="1" transform="translate(0,48.88888888888886)" style="font-size: 13px;"><line stroke="currentColor" x2="0"></line><text fill="currentColor" x="-3" dy="0.32em">object (simple)    </text></g><g class="tick" opacity="1" transform="translate(0,137.77777777777774)" style="font-size: 13px;"><line stroke="currentColor" x2="0"></line><text fill="currentColor" x="-3" dy="0.32em">object (hierarchical)    </text></g><g class="tick" opacity="1" transform="translate(0,226.66666666666663)" style="font-size: 13px;"><line stroke="currentColor" x2="0"></line><text fill="currentColor" x="-3" dy="0.32em">object (recursive)    </text></g><g class="tick" opacity="1" transform="translate(0,315.5555555555555)" style="font-size: 13px;"><line stroke="currentColor" x2="0"></line><text fill="currentColor" x="-3" dy="0.32em">object (union, explicit)    </text></g><g class="tick" opacity="1" transform="translate(0,404.4444444444444)" style="font-size: 13px;"><line stroke="currentColor" x2="0"></line><text fill="currentColor" x="-3" dy="0.32em">array (simple)    </text></g><g class="tick" opacity="1" transform="translate(0,493.3333333333333)" style="font-size: 13px;"><line stroke="currentColor" x2="0"></line><text fill="currentColor" x="-3" dy="0.32em">array (hierarchical)    </text></g><g class="tick" opacity="1" transform="translate(0,582.2222222222222)" style="font-size: 13px;"><line stroke="currentColor" x2="0"></line><text fill="currentColor" x="-3" dy="0.32em">array (recursive)    </text></g><g class="tick" opacity="1" transform="translate(0,671.1111111111111)" style="font-size: 13px;"><line stroke="currentColor" x2="0"></line><text fill="currentColor" x="-3" dy="0.32em">array (union, explicit)    </text></g></g><g class="x axis" transform="translate(149,765)" fill="none" font-size="10" font-family="sans-serif" text-anchor="middle" style="font-size: 13px;"><path class="domain" stroke="currentColor" d="M0.5,0.5H485.5"></path><g class="tick" opacity="1" transform="translate(0.5,0)" style="font-size: 13px;"><line stroke="currentColor" y2="6"></line><text fill="currentColor" y="9" dy="0.71em">0x</text></g><g class="tick" opacity="1" transform="translate(117.82721964644861,0)" style="font-size: 13px;"><line stroke="currentColor" y2="6"></line><text fill="currentColor" y="9" dy="0.71em">50x</text></g><g class="tick" opacity="1" transform="translate(235.15443929289722,0)" style="font-size: 13px;"><line stroke="currentColor" y2="6"></line><text fill="currentColor" y="9" dy="0.71em">100x</text></g><g class="tick" opacity="1" transform="translate(352.4816589393458,0)" style="font-size: 13px;"><line stroke="currentColor" y2="6"></line><text fill="currentColor" y="9" dy="0.71em">150x</text></g><g class="tick" opacity="1" transform="translate(469.80887858579445,0)" style="font-size: 13px;"><line stroke="currentColor" y2="6"></line><text fill="currentColor" y="9" dy="0.71em">200x</text></g></g><text transform="translate(400, 30)" style="text-anchor: middle; font-size: 20px; font-weight: bold;">stringify benchmark</text><rect x="650" y="165" width="230" height="5" fill="gray"></rect><rect x="645" y="35" width="230" height="130" fill="none" stroke="black"></rect><rect x="655" y="45" width="10" height="10" style="fill: #4472c4;"></rect><text x="670" y="55" style="font-size: 12px;">typia.stringify</text><rect x="655" y="65" width="10" height="10" style="fill: #ed7d31;"></rect><text x="670" y="75" style="font-size: 12px;">typia.isStringify</text><rect x="655" y="85" width="10" height="10" style="fill: #a5a5a5;"></rect><text x="670" y="95" style="font-size: 12px;">typia.assertStringify</text><rect x="655" y="105" width="10" height="10" style="fill: #ffc000;"></rect><text x="670" y="115" style="font-size: 12px;">fast-json-stringify</text><rect x="655" y="125" width="10" height="10" style="fill: #5b9bd5;"></rect><text x="670" y="135" style="font-size: 12px;">JSON.stringify</text><rect x="655" y="145" width="10" height="10" style="fill: #70ad47;"></rect><text x="670" y="155" style="font-size: 12px;">class-transformer</text><text x="20" y="829" style="font-size: 12px;">  - CPU: 12th Gen Intel(R) Core(TM) i5-1235U</text><text x="20" y="846" style="font-size: 12px;">  - OS: win32</text><text x="20" y="863" style="font-size: 12px;">  - RAM: 16 GB</text><text x="20" y="880" style="font-size: 12px;">  - NodeJS version: v20.6.1</text><text x="20" y="897" style="font-size: 12px;">  - Typia version: v5.0.3</text><g style="font-size: 13px;"><g style="font-size: 13px;"><rect x="150" y="54.55004591368224" width="440.9090909090909" height="12.56198347107438" fill="#4472c4"></rect><rect x="150" y="67.77318640955001" width="383.9698160216132" height="12.56198347107438" fill="#ed7d31"></rect><rect x="150" y="80.99632690541777" width="351.5635360400075" height="12.56198347107438" fill="#a5a5a5"></rect><rect x="150" y="94.21946740128556" width="145.56529746548074" height="12.56198347107438" fill="#ffc000"></rect><rect x="150" y="107.44260789715332" width="27.549224319754156" height="12.56198347107438" fill="#5b9bd5"></rect><rect x="150" y="120.66574839302109" width="2.3465443929289718" height="12.56198347107438" fill="#70ad47"></rect><text class="label" x="599.4090909090909" y="63.05004591368224" font-size="10px">188x</text><text class="label" x="542.4698160216133" y="76.27318640955001" font-size="10px">164x</text><text class="label" x="510.0635360400075" y="89.49632690541777" font-size="10px">150x</text><text class="label" x="304.06529746548074" y="102.71946740128556" font-size="10px">62x</text><text class="label" x="186.04922431975416" y="115.94260789715332" font-size="10px">12x</text><text class="label" x="160.84654439292896" y="129.1657483930211" font-size="10px">1x</text><text class="label" x="595.9090909090909" y="64.55004591368224" font-size="8px"></text><text class="label" x="538.9698160216133" y="77.77318640955001" font-size="8px"></text><text class="label" x="506.5635360400075" y="90.99632690541777" font-size="8px"></text><text class="label" x="300.56529746548074" y="104.21946740128556" font-size="8px"></text><text class="label" x="182.54922431975416" y="117.44260789715332" font-size="8px"></text><text class="label" x="157.34654439292896" y="130.6657483930211" font-size="8px"></text></g><g style="font-size: 13px;"><rect x="150" y="143.4389348025711" width="172.23116738718457" height="12.56198347107438" fill="#4472c4"></rect><rect x="150" y="156.66207529843888" width="157.25542725181336" height="12.56198347107438" fill="#ed7d31"></rect><rect x="150" y="169.88521579430665" width="158.1818202900638" height="12.56198347107438" fill="#a5a5a5"></rect><rect x="150" y="183.10835629017444" width="100.52719654880403" height="12.56198347107438" fill="#ffc000"></rect><rect x="150" y="196.3314967860422" width="39.839031346140125" height="12.56198347107438" fill="#5b9bd5"></rect><rect x="150" y="209.55463728190998" width="2.3465443929289718" height="12.56198347107438" fill="#70ad47"></rect><text class="label" x="330.73116738718454" y="151.9389348025711" font-size="10px">73x</text><text class="label" x="315.75542725181333" y="165.16207529843888" font-size="10px">67x</text><text class="label" x="316.6818202900638" y="178.38521579430665" font-size="10px">67x</text><text class="label" x="259.027196548804" y="191.60835629017444" font-size="10px">43x</text><text class="label" x="198.33903134614013" y="204.8314967860422" font-size="10px">17x</text><text class="label" x="160.84654439292896" y="218.05463728190998" font-size="10px">1x</text><text class="label" x="327.23116738718454" y="153.4389348025711" font-size="8px"></text><text class="label" x="312.25542725181333" y="166.66207529843888" font-size="8px"></text><text class="label" x="313.1818202900638" y="179.88521579430665" font-size="8px"></text><text class="label" x="255.52719654880403" y="193.10835629017444" font-size="8px"></text><text class="label" x="194.83903134614013" y="206.3314967860422" font-size="8px"></text><text class="label" x="157.34654439292896" y="219.55463728190998" font-size="8px"></text></g><g style="font-size: 13px;"><rect x="150" y="232.32782369146003" width="115.47159783387119" height="12.56198347107438" fill="#4472c4"></rect><rect x="150" y="245.5509641873278" width="109.32382739477303" height="12.56198347107438" fill="#ed7d31"></rect><rect x="150" y="258.77410468319556" width="110.55894773639862" height="12.56198347107438" fill="#a5a5a5"></rect><rect x="150" y="271.9972451790633" width="32.59793548237225" height="12.56198347107438" fill="#ffc000"></rect><rect x="150" y="285.2203856749311" width="28.124031875996163" height="12.56198347107438" fill="#5b9bd5"></rect><rect x="150" y="298.44352617079886" width="2.3465443929289718" height="12.56198347107438" fill="#70ad47"></rect><text class="label" x="273.9715978338712" y="240.82782369146003" font-size="10px">49x</text><text class="label" x="267.82382739477305" y="254.0509641873278" font-size="10px">47x</text><text class="label" x="269.05894773639864" y="267.27410468319556" font-size="10px">47x</text><text class="label" x="191.09793548237224" y="280.4972451790633" font-size="10px">14x</text><text class="label" x="186.62403187599617" y="293.7203856749311" font-size="10px">12x</text><text class="label" x="160.84654439292896" y="306.94352617079886" font-size="10px">1x</text><text class="label" x="270.4715978338712" y="242.32782369146003" font-size="8px"></text><text class="label" x="264.32382739477305" y="255.5509641873278" font-size="8px"></text><text class="label" x="265.55894773639864" y="268.77410468319556" font-size="8px"></text><text class="label" x="187.59793548237224" y="281.9972451790633" font-size="8px"></text><text class="label" x="183.12403187599617" y="295.2203856749311" font-size="8px"></text><text class="label" x="157.34654439292896" y="308.44352617079886" font-size="8px"></text></g><g style="font-size: 13px;"><rect x="150" y="321.2167125803489" width="87.25501362556079" height="12.56198347107438" fill="#4472c4"></rect><rect x="150" y="334.43985307621665" width="78.02585787979011" height="12.56198347107438" fill="#ed7d31"></rect><rect x="150" y="347.6629935720844" width="79.14634273780804" height="12.56198347107438" fill="#a5a5a5"></rect><rect x="150" y="360.8861340679522" width="64.25786028603254" height="12.56198347107438" fill="#ffc000"></rect><rect x="150" y="374.10927456381995" width="41.753290013438956" height="12.56198347107438" fill="#5b9bd5"></rect><rect x="150" y="387.3324150596877" width="2.3465443929289718" height="12.56198347107438" fill="#70ad47"></rect><text class="label" x="245.7550136255608" y="329.7167125803489" font-size="10px">37x</text><text class="label" x="236.52585787979012" y="342.93985307621665" font-size="10px">33x</text><text class="label" x="237.64634273780803" y="356.1629935720844" font-size="10px">34x</text><text class="label" x="222.75786028603255" y="369.3861340679522" font-size="10px">27x</text><text class="label" x="200.25329001343897" y="382.60927456381995" font-size="10px">18x</text><text class="label" x="160.84654439292896" y="395.8324150596877" font-size="10px">1x</text><text class="label" x="242.2550136255608" y="331.2167125803489" font-size="8px"></text><text class="label" x="233.02585787979012" y="344.43985307621665" font-size="8px"></text><text class="label" x="234.14634273780803" y="357.6629935720844" font-size="8px"></text><text class="label" x="219.25786028603255" y="370.8861340679522" font-size="8px"></text><text class="label" x="196.75329001343897" y="384.10927456381995" font-size="8px"></text><text class="label" x="157.34654439292896" y="397.3324150596877" font-size="8px"></text></g><g style="font-size: 13px;"><rect x="150" y="410.1056014692378" width="41.43708638136411" height="12.56198347107438" fill="#4472c4"></rect><rect x="150" y="423.32874196510556" width="40.471247406227384" height="12.56198347107438" fill="#ed7d31"></rect><rect x="150" y="436.55188246097333" width="41.05927869005118" height="12.56198347107438" fill="#a5a5a5"></rect><rect x="150" y="449.7750229568411" width="65.12593028071497" height="12.56198347107438" fill="#ffc000"></rect><rect x="150" y="462.99816345270887" width="28.556578753237183" height="12.56198347107438" fill="#5b9bd5"></rect><rect x="150" y="476.22130394857663" width="2.3465443929289718" height="12.56198347107438" fill="#70ad47"></rect><text class="label" x="199.9370863813641" y="418.6056014692378" font-size="10px">18x</text><text class="label" x="198.97124740622738" y="431.82874196510556" font-size="10px">17x</text><text class="label" x="199.55927869005117" y="445.05188246097333" font-size="10px">17x</text><text class="label" x="223.62593028071495" y="458.2750229568411" font-size="10px">28x</text><text class="label" x="187.05657875323718" y="471.49816345270887" font-size="10px">12x</text><text class="label" x="160.84654439292896" y="484.72130394857663" font-size="10px">1x</text><text class="label" x="196.4370863813641" y="420.1056014692378" font-size="8px"></text><text class="label" x="195.47124740622738" y="433.32874196510556" font-size="8px"></text><text class="label" x="196.05927869005117" y="446.55188246097333" font-size="8px"></text><text class="label" x="220.12593028071495" y="459.7750229568411" font-size="8px"></text><text class="label" x="183.55657875323718" y="472.99816345270887" font-size="8px"></text><text class="label" x="157.34654439292896" y="486.22130394857663" font-size="8px"></text></g><g style="font-size: 13px;"><rect x="150" y="498.9944903581267" width="67.90068414016301" height="12.56198347107438" fill="#4472c4"></rect><rect x="150" y="512.2176308539945" width="67.256143360582" height="12.56198347107438" fill="#ed7d31"></rect><rect x="150" y="525.4407713498622" width="66.63118965293327" height="12.56198347107438" fill="#a5a5a5"></rect><rect x="150" y="538.66391184573" width="98.63468585801229" height="12.56198347107438" fill="#ffc000"></rect><rect x="150" y="551.8870523415978" width="33.61153279347582" height="12.56198347107438" fill="#5b9bd5"></rect><rect x="150" y="565.1101928374655" width="2.3465443929289718" height="12.56198347107438" fill="#70ad47"></rect><text class="label" x="226.400684140163" y="507.4944903581267" font-size="10px">29x</text><text class="label" x="225.756143360582" y="520.7176308539945" font-size="10px">29x</text><text class="label" x="225.13118965293327" y="533.9407713498622" font-size="10px">28x</text><text class="label" x="257.1346858580123" y="547.16391184573" font-size="10px">42x</text><text class="label" x="192.11153279347582" y="560.3870523415978" font-size="10px">14x</text><text class="label" x="160.84654439292896" y="573.6101928374655" font-size="10px">1x</text><text class="label" x="222.900684140163" y="508.9944903581267" font-size="8px"></text><text class="label" x="222.256143360582" y="522.2176308539945" font-size="8px"></text><text class="label" x="221.63118965293327" y="535.4407713498622" font-size="8px"></text><text class="label" x="253.6346858580123" y="548.66391184573" font-size="8px"></text><text class="label" x="188.61153279347582" y="561.8870523415978" font-size="8px"></text><text class="label" x="157.34654439292896" y="575.1101928374655" font-size="8px"></text></g><g style="font-size: 13px;"><rect x="150" y="587.8833792470156" width="57.38746419664315" height="12.56198347107438" fill="#4472c4"></rect><rect x="150" y="601.1065197428833" width="54.520223266671366" height="12.56198347107438" fill="#ed7d31"></rect><rect x="150" y="614.3296602387511" width="55.24877742180781" height="12.56198347107438" fill="#a5a5a5"></rect><rect x="150" y="627.5528007346188" width="99.42882448611282" height="12.56198347107438" fill="#ffc000"></rect><rect x="150" y="640.7759412304866" width="29.57893519982642" height="12.56198347107438" fill="#5b9bd5"></rect><rect x="150" y="653.9990817263545" width="2.3465443929289718" height="12.56198347107438" fill="#70ad47"></rect><text class="label" x="215.88746419664315" y="596.3833792470156" font-size="10px">24x</text><text class="label" x="213.02022326667137" y="609.6065197428833" font-size="10px">23x</text><text class="label" x="213.7487774218078" y="622.8296602387511" font-size="10px">24x</text><text class="label" x="257.92882448611283" y="636.0528007346188" font-size="10px">42x</text><text class="label" x="188.07893519982642" y="649.2759412304866" font-size="10px">13x</text><text class="label" x="160.84654439292896" y="662.4990817263545" font-size="10px">1x</text><text class="label" x="212.38746419664315" y="597.8833792470156" font-size="8px"></text><text class="label" x="209.52022326667137" y="611.1065197428833" font-size="8px"></text><text class="label" x="210.2487774218078" y="624.3296602387511" font-size="8px"></text><text class="label" x="254.42882448611283" y="637.5528007346188" font-size="8px"></text><text class="label" x="184.57893519982642" y="650.7759412304866" font-size="8px"></text><text class="label" x="157.34654439292896" y="663.9990817263545" font-size="8px"></text></g><g style="font-size: 13px;"><rect x="150" y="676.7722681359045" width="51.18752152393187" height="12.56198347107438" fill="#4472c4"></rect><rect x="150" y="689.9954086317722" width="48.566283765533356" height="12.56198347107438" fill="#ed7d31"></rect><rect x="150" y="703.21854912764" width="49.38668652748167" height="12.56198347107438" fill="#a5a5a5"></rect><rect x="150" y="716.4416896235077" width="12.4723012668618" height="12.56198347107438" fill="#ffc000"></rect><rect x="150" y="729.6648301193756" width="41.44877909096759" height="12.56198347107438" fill="#5b9bd5"></rect><rect x="150" y="742.8879706152434" width="2.3465443929289718" height="12.56198347107438" fill="#70ad47"></rect><text class="label" x="209.68752152393188" y="685.2722681359045" font-size="10px">22x</text><text class="label" x="207.06628376553334" y="698.4954086317722" font-size="10px">21x</text><text class="label" x="207.8866865274817" y="711.71854912764" font-size="10px">21x</text><text class="label" x="170.9723012668618" y="724.9416896235077" font-size="10px">5x</text><text class="label" x="199.9487790909676" y="738.1648301193756" font-size="10px">18x</text><text class="label" x="160.84654439292896" y="751.3879706152434" font-size="10px">1x</text><text class="label" x="206.18752152393188" y="686.7722681359045" font-size="8px"></text><text class="label" x="203.56628376553334" y="699.9954086317722" font-size="8px"></text><text class="label" x="204.3866865274817" y="713.21854912764" font-size="8px"></text><text class="label" x="167.4723012668618" y="726.4416896235077" font-size="8px"></text><text class="label" x="196.4487790909676" y="739.6648301193756" font-size="8px"></text><text class="label" x="157.34654439292896" y="752.8879706152434" font-size="8px"></text></g></g></svg>