<svg xmlns="http://www.w3.org/2000/svg" xmlns:xlink="http://www.w3.org/1999/xlink" width="800" height="674" style="background-color: white;"><g class="y axis" transform="translate(149,45)" fill="none" font-size="10" font-family="sans-serif" text-anchor="end" style="font-size: 13px;"><path class="domain" stroke="currentColor" d="M0.5,0.5V480.5"></path><g class="tick" opacity="1" transform="translate(0,32.592592592592595)" style="font-size: 13px;"><line stroke="currentColor" x2="0"></line><text fill="currentColor" x="-3" dy="0.32em">object (simple)    </text></g><g class="tick" opacity="1" transform="translate(0,91.85185185185186)" style="font-size: 13px;"><line stroke="currentColor" x2="0"></line><text fill="currentColor" x="-3" dy="0.32em">object (hierarchical)    </text></g><g class="tick" opacity="1" transform="translate(0,151.11111111111111)" style="font-size: 13px;"><line stroke="currentColor" x2="0"></line><text fill="currentColor" x="-3" dy="0.32em">object (recursive)    </text></g><g class="tick" opacity="1" transform="translate(0,210.37037037037035)" style="font-size: 13px;"><line stroke="currentColor" x2="0"></line><text fill="currentColor" x="-3" dy="0.32em">object (union, explicit)    </text></g><g class="tick" opacity="1" transform="translate(0,269.6296296296296)" style="font-size: 13px;"><line stroke="currentColor" x2="0"></line><text fill="currentColor" x="-3" dy="0.32em">array (simple)    </text></g><g class="tick" opacity="1" transform="translate(0,328.8888888888889)" style="font-size: 13px;"><line stroke="currentColor" x2="0"></line><text fill="currentColor" x="-3" dy="0.32em">array (hierarchical)    </text></g><g class="tick" opacity="1" transform="translate(0,388.14814814814815)" style="font-size: 13px;"><line stroke="currentColor" x2="0"></line><text fill="currentColor" x="-3" dy="0.32em">array (recursive)    </text></g><g class="tick" opacity="1" transform="translate(0,447.40740740740745)" style="font-size: 13px;"><line stroke="currentColor" x2="0"></line><text fill="currentColor" x="-3" dy="0.32em">array (union, explicit)    </text></g></g><g class="x axis" transform="translate(149,525)" fill="none" font-size="10" font-family="sans-serif" text-anchor="middle" style="font-size: 13px;"><path class="domain" stroke="currentColor" d="M0.5,0.5H485.5"></path><g class="tick" opacity="1" transform="translate(0.5,0)" style="font-size: 13px;"><line stroke="currentColor" y2="6"></line><text fill="currentColor" y="9" dy="0.71em">0x</text></g><g class="tick" opacity="1" transform="translate(126.52232975958039,0)" style="font-size: 13px;"><line stroke="currentColor" y2="6"></line><text fill="currentColor" y="9" dy="0.71em">2,000,000x</text></g><g class="tick" opacity="1" transform="translate(252.54465951916077,0)" style="font-size: 13px;"><line stroke="currentColor" y2="6"></line><text fill="currentColor" y="9" dy="0.71em">4,000,000x</text></g><g class="tick" opacity="1" transform="translate(378.5669892787412,0)" style="font-size: 13px;"><line stroke="currentColor" y2="6"></line><text fill="currentColor" y="9" dy="0.71em">6,000,000x</text></g></g><text transform="translate(400, 30)" style="text-anchor: middle; font-size: 20px; font-weight: bold;">optimizer benchmark</text><rect x="650" y="125" width="230" height="5" fill="gray"></rect><rect x="645" y="35" width="230" height="90" fill="none" stroke="black"></rect><rect x="655" y="45" width="10" height="10" style="fill: #4472c4;"></rect><text x="670" y="55" style="font-size: 12px;">typia</text><rect x="655" y="65" width="10" height="10" style="fill: #ed7d31;"></rect><text x="670" y="75" style="font-size: 12px;">typebox</text><rect x="655" y="85" width="10" height="10" style="fill: #a5a5a5;"></rect><text x="670" y="95" style="font-size: 12px;">ajv</text><rect x="655" y="105" width="10" height="10" style="fill: #ffc000;"></rect><text x="670" y="115" style="font-size: 12px;">class-validator</text><text x="20" y="589" style="font-size: 12px;">  - CPU: 11th Gen Intel(R) Core(TM) i5-1135G7 @ 2.40GHz</text><text x="20" y="606" style="font-size: 12px;">  - OS: win32</text><text x="20" y="623" style="font-size: 12px;">  - RAM: 16 GB</text><text x="20" y="640" style="font-size: 12px;">  - NodeJS version: v16.20.0</text><text x="20" y="657" style="font-size: 12px;">  - Typia version: v4.1.8</text><g style="font-size: 13px;"><g style="font-size: 13px;"><rect x="150" y="51.584362139917694" width="440.9090909090909" height="12.510288065843621" fill="#4472c4"></rect><rect x="150" y="64.75308641975309" width="0.017790494738833224" height="12.510288065843621" fill="#ed7d31"></rect><rect x="150" y="77.92181069958848" width="0.00006301116487979018" height="12.510288065843621" fill="#a5a5a5"></rect><rect x="150" y="91.09053497942386" width="0.015176167328379599" height="12.510288065843621" fill="#ffc000"></rect><text class="label" x="599.4090909090909" y="60.084362139917694" font-size="10px">6,997,317x</text><text class="label" x="158.51779049473885" y="73.25308641975309" font-size="10px">282x</text><text class="label" x="158.50006301116488" y="86.42181069958848" font-size="10px">1x</text><text class="label" x="158.51517616732838" y="99.59053497942386" font-size="10px">241x</text><text class="label" x="595.9090909090909" y="61.584362139917694" font-size="8px"></text><text class="label" x="155.01779049473885" y="74.75308641975309" font-size="8px"></text><text class="label" x="155.00006301116488" y="87.92181069958848" font-size="8px"></text><text class="label" x="155.01517616732838" y="101.09053497942386" font-size="8px"></text></g><g style="font-size: 13px;"><rect x="150" y="110.84362139917695" width="18.32776262198759" height="12.510288065843621" fill="#4472c4"></rect><rect x="150" y="124.01234567901236" width="0.007348626017457214" height="12.510288065843621" fill="#ed7d31"></rect><rect x="150" y="137.18106995884773" width="0.00006301116487979018" height="12.510288065843621" fill="#a5a5a5"></rect><rect x="150" y="150.34979423868313" width="0.007958375294222478" height="12.510288065843621" fill="#ffc000"></rect><text class="label" x="176.82776262198757" y="119.34362139917695" font-size="10px">290,865x</text><text class="label" x="158.50734862601746" y="132.51234567901236" font-size="10px">117x</text><text class="label" x="158.50006301116488" y="145.68106995884773" font-size="10px">1x</text><text class="label" x="158.5079583752942" y="158.84979423868313" font-size="10px">126x</text><text class="label" x="173.32776262198757" y="120.84362139917695" font-size="8px"></text><text class="label" x="155.00734862601746" y="134.01234567901236" font-size="8px"></text><text class="label" x="155.00006301116488" y="147.18106995884773" font-size="8px"></text><text class="label" x="155.0079583752942" y="160.34979423868313" font-size="8px"></text></g><g style="font-size: 13px;"><rect x="150" y="170.10288065843622" width="5.036961491634952" height="12.510288065843621" fill="#4472c4"></rect><rect x="150" y="183.2716049382716" width="0.014832386302323473" height="12.510288065843621" fill="#ed7d31"></rect><rect x="150" y="196.440329218107" width="0.00006301116487979018" height="12.510288065843621" fill="#a5a5a5"></rect><rect x="150" y="209.6090534979424" width="0.002934240099144567" height="12.510288065843621" fill="#ffc000"></rect><text class="label" x="163.53696149163494" y="178.60288065843622" font-size="10px">79,938x</text><text class="label" x="158.51483238630232" y="191.7716049382716" font-size="10px">235x</text><text class="label" x="158.50006301116488" y="204.940329218107" font-size="10px">1x</text><text class="label" x="158.50293424009914" y="218.1090534979424" font-size="10px">47x</text><text class="label" x="160.03696149163494" y="180.10288065843622" font-size="8px"></text><text class="label" x="155.01483238630232" y="193.2716049382716" font-size="8px"></text><text class="label" x="155.00006301116488" y="206.440329218107" font-size="8px"></text><text class="label" x="155.00293424009914" y="219.6090534979424" font-size="8px"></text></g><g style="font-size: 13px;"><rect x="150" y="229.36213991769546" width="1.552802144304194" height="12.510288065843621" fill="#4472c4"></rect><rect x="150" y="242.53086419753086" width="0.008938097915413154" height="12.510288065843621" fill="#ed7d31"></rect><rect x="150" y="255.69958847736626" width="0.00006301116487979018" height="12.510288065843621" fill="#a5a5a5"></rect><rect x="150" y="268.86831275720164" width="0.005423836689858931" height="12.510288065843621" fill="#ffc000"></rect><text class="label" x="160.0528021443042" y="237.86213991769546" font-size="10px">24,643x</text><text class="label" x="158.5089380979154" y="251.03086419753086" font-size="10px">142x</text><text class="label" x="158.50006301116488" y="264.19958847736626" font-size="10px">1x</text><text class="label" x="158.50542383668986" y="277.36831275720164" font-size="10px">86x</text><text class="label" x="156.5528021443042" y="239.36213991769546" font-size="8px"></text><text class="label" x="155.0089380979154" y="252.53086419753086" font-size="8px"></text><text class="label" x="155.00006301116488" y="265.69958847736626" font-size="8px"></text><text class="label" x="155.00542383668986" y="278.86831275720164" font-size="8px"></text></g><g style="font-size: 13px;"><rect x="150" y="288.6213991769547" width="1.113377210505245" height="12.510288065843621" fill="#4472c4"></rect><rect x="150" y="301.7901234567901" width="0.01430177955202803" height="12.510288065843621" fill="#ed7d31"></rect><rect x="150" y="314.9588477366255" width="0.00006301116487979018" height="12.510288065843621" fill="#a5a5a5"></rect><rect x="150" y="328.12757201646093" width="0.00201645622917752" height="12.510288065843621" fill="#ffc000"></rect><text class="label" x="159.61337721050523" y="297.1213991769547" font-size="10px">17,670x</text><text class="label" x="158.51430177955203" y="310.2901234567901" font-size="10px">227x</text><text class="label" x="158.50006301116488" y="323.4588477366255" font-size="10px">1x</text><text class="label" x="158.50201645622917" y="336.62757201646093" font-size="10px">32x</text><text class="label" x="156.11337721050523" y="298.6213991769547" font-size="8px"></text><text class="label" x="155.01430177955203" y="311.7901234567901" font-size="8px"></text><text class="label" x="155.00006301116488" y="324.9588477366255" font-size="8px"></text><text class="label" x="155.00201645622917" y="338.12757201646093" font-size="8px"></text></g><g style="font-size: 13px;"><rect x="150" y="347.880658436214" width="0.37768297217657854" height="12.510288065843621" fill="#4472c4"></rect><rect x="150" y="361.04938271604937" width="0.014111564313133842" height="12.510288065843621" fill="#ed7d31"></rect><rect x="150" y="374.2181069958848" width="0.00006301116487979018" height="12.510288065843621" fill="#a5a5a5"></rect><rect x="150" y="387.38683127572017" width="0.00023532644126358625" height="12.510288065843621" fill="#ffc000"></rect><text class="label" x="158.8776829721766" y="356.380658436214" font-size="10px">5,994x</text><text class="label" x="158.51411156431314" y="369.54938271604937" font-size="10px">224x</text><text class="label" x="158.50006301116488" y="382.7181069958848" font-size="10px">1x</text><text class="label" x="158.50023532644127" y="395.88683127572017" font-size="10px">4x</text><text class="label" x="155.3776829721766" y="357.880658436214" font-size="8px"></text><text class="label" x="155.01411156431314" y="371.04938271604937" font-size="8px"></text><text class="label" x="155.00006301116488" y="384.2181069958848" font-size="8px"></text><text class="label" x="155.00023532644127" y="397.38683127572017" font-size="8px"></text></g><g style="font-size: 13px;"><rect x="150" y="407.13991769547323" width="0.3514387751866025" height="12.510288065843621" fill="#4472c4"></rect><rect x="150" y="420.3086419753086" width="0.017056675496072995" height="12.510288065843621" fill="#ed7d31"></rect><rect x="150" y="433.47736625514403" width="0.00006301116487979018" height="12.510288065843621" fill="#a5a5a5"></rect><rect x="150" y="446.6460905349794" width="0.000276135674386762" height="12.510288065843621" fill="#ffc000"></rect><text class="label" x="158.8514387751866" y="415.63991769547323" font-size="10px">5,577x</text><text class="label" x="158.51705667549606" y="428.8086419753086" font-size="10px">271x</text><text class="label" x="158.50006301116488" y="441.97736625514403" font-size="10px">1x</text><text class="label" x="158.5002761356744" y="455.1460905349794" font-size="10px">4x</text><text class="label" x="155.3514387751866" y="417.13991769547323" font-size="8px"></text><text class="label" x="155.01705667549606" y="430.3086419753086" font-size="8px"></text><text class="label" x="155.00006301116488" y="443.47736625514403" font-size="8px"></text><text class="label" x="155.0002761356744" y="456.6460905349794" font-size="8px"></text></g><g style="font-size: 13px;"><rect x="150" y="466.3991769547325" width="0.4072224187443434" height="12.510288065843621" fill="#4472c4"></rect><rect x="150" y="479.5679012345679" width="0.012379008574792605" height="12.510288065843621" fill="#ed7d31"></rect><rect x="150" y="492.73662551440333" width="0.00006301116487979018" height="12.510288065843621" fill="#a5a5a5"></rect><rect x="150" y="505.9053497942387" width="0.0018925139597575854" height="12.510288065843621" fill="#ffc000"></rect><text class="label" x="158.90722241874434" y="474.8991769547325" font-size="10px">6,463x</text><text class="label" x="158.51237900857478" y="488.0679012345679" font-size="10px">196x</text><text class="label" x="158.50006301116488" y="501.23662551440333" font-size="10px">1x</text><text class="label" x="158.50189251395975" y="514.4053497942386" font-size="10px">30x</text><text class="label" x="155.40722241874434" y="476.3991769547325" font-size="8px"></text><text class="label" x="155.01237900857478" y="489.5679012345679" font-size="8px"></text><text class="label" x="155.00006301116488" y="502.73662551440333" font-size="8px"></text><text class="label" x="155.00189251395975" y="515.9053497942386" font-size="8px"></text></g></g></svg>