<svg xmlns="http://www.w3.org/2000/svg" xmlns:xlink="http://www.w3.org/1999/xlink" width="800" height="1004" style="background-color: white;"><g class="y axis" transform="translate(149,45)" fill="none" font-size="10" font-family="sans-serif" text-anchor="end" style="font-size: 13px;"><path class="domain" stroke="currentColor" d="M0.5,0.5V810.5"></path><g class="tick" opacity="1" transform="translate(0,48.95604395604397)" style="font-size: 13px;"><line stroke="currentColor" x2="0"></line><text fill="currentColor" x="-3" dy="0.32em">object (simple)    </text></g><g class="tick" opacity="1" transform="translate(0,137.967032967033)" style="font-size: 13px;"><line stroke="currentColor" x2="0"></line><text fill="currentColor" x="-3" dy="0.32em">object (hierarchical)    </text></g><g class="tick" opacity="1" transform="translate(0,226.97802197802199)" style="font-size: 13px;"><line stroke="currentColor" x2="0"></line><text fill="currentColor" x="-3" dy="0.32em">object (recursive)    </text></g><g class="tick" opacity="1" transform="translate(0,315.989010989011)" style="font-size: 13px;"><line stroke="currentColor" x2="0"></line><text fill="currentColor" x="-3" dy="0.32em">object (union, explicit)    </text></g><g class="tick" opacity="1" transform="translate(0,405)" style="font-size: 13px;"><line stroke="currentColor" x2="0"></line><text fill="currentColor" x="-3" dy="0.32em">object (union, implicit)    </text></g><g class="tick" opacity="1" transform="translate(0,494.010989010989)" style="font-size: 13px;"><line stroke="currentColor" x2="0"></line><text fill="currentColor" x="-3" dy="0.32em">array (recursive)    </text></g><g class="tick" opacity="1" transform="translate(0,583.021978021978)" style="font-size: 13px;"><line stroke="currentColor" x2="0"></line><text fill="currentColor" x="-3" dy="0.32em">array (union, explicit)    </text></g><g class="tick" opacity="1" transform="translate(0,672.0329670329671)" style="font-size: 13px;"><line stroke="currentColor" x2="0"></line><text fill="currentColor" x="-3" dy="0.32em">array (union, implicit)    </text></g><g class="tick" opacity="1" transform="translate(0,761.043956043956)" style="font-size: 13px;"><line stroke="currentColor" x2="0"></line><text fill="currentColor" x="-3" dy="0.32em">ultimate union    </text></g></g><g class="x axis" transform="translate(149,855)" fill="none" font-size="10" font-family="sans-serif" text-anchor="middle" style="font-size: 13px;"><path class="domain" stroke="currentColor" d="M0.5,0.5H485.5"></path><g class="tick" opacity="1" transform="translate(0.5,0)" style="font-size: 13px;"><line stroke="currentColor" y2="6"></line><text fill="currentColor" y="9" dy="0.71em">0x</text></g><g class="tick" opacity="1" transform="translate(109.87930352044908,0)" style="font-size: 13px;"><line stroke="currentColor" y2="6"></line><text fill="currentColor" y="9" dy="0.71em">5,000x</text></g><g class="tick" opacity="1" transform="translate(219.25860704089817,0)" style="font-size: 13px;"><line stroke="currentColor" y2="6"></line><text fill="currentColor" y="9" dy="0.71em">10,000x</text></g><g class="tick" opacity="1" transform="translate(328.63791056134727,0)" style="font-size: 13px;"><line stroke="currentColor" y2="6"></line><text fill="currentColor" y="9" dy="0.71em">15,000x</text></g><g class="tick" opacity="1" transform="translate(438.01721408179634,0)" style="font-size: 13px;"><line stroke="currentColor" y2="6"></line><text fill="currentColor" y="9" dy="0.71em">20,000x</text></g></g><text transform="translate(400, 30)" style="text-anchor: middle; font-size: 20px; font-weight: bold;">assert benchmark</text><rect x="650" y="165" width="230" height="5" fill="gray"></rect><rect x="645" y="35" width="230" height="130" fill="none" stroke="black"></rect><rect x="655" y="45" width="10" height="10" style="fill: #4472c4;"></rect><text x="670" y="55" style="font-size: 12px;">typia</text><rect x="655" y="65" width="10" height="10" style="fill: #ed7d31;"></rect><text x="670" y="75" style="font-size: 12px;">typebox</text><rect x="655" y="85" width="10" height="10" style="fill: #a5a5a5;"></rect><text x="670" y="95" style="font-size: 12px;">ajv</text><rect x="655" y="105" width="10" height="10" style="fill: #ffc000;"></rect><text x="670" y="115" style="font-size: 12px;">io-ts</text><rect x="655" y="125" width="10" height="10" style="fill: #5b9bd5;"></rect><text x="670" y="135" style="font-size: 12px;">zod</text><rect x="655" y="145" width="10" height="10" style="fill: #70ad47;"></rect><text x="670" y="155" style="font-size: 12px;">class-validator</text><text x="20" y="919" style="font-size: 12px;">  - CPU: AMD Ryzen 9 7940HS w/ Radeon 780M Graphics</text><text x="20" y="936" style="font-size: 12px;">  - OS: win32</text><text x="20" y="953" style="font-size: 12px;">  - RAM: 31 GB</text><text x="20" y="970" style="font-size: 12px;">  - NodeJS version: v20.10.0</text><text x="20" y="987" style="font-size: 12px;">  - Typia version: v6.7.0-dev.20240803-5</text><g style="font-size: 13px;"><g style="font-size: 13px;"><rect x="150" y="54.563164108618665" width="430.8169586085297" height="12.579238942875305" fill="#4472c4"></rect><rect x="150" y="67.80446825901373" width="440.9090909090909" height="12.579238942875305" fill="#ed7d31"></rect><rect x="150" y="81.04577240940878" width="16.73734398035395" height="12.579238942875305" fill="#a5a5a5"></rect><rect x="150" y="94.28707655980384" width="1.7759431107648613" height="12.579238942875305" fill="#ffc000"></rect><rect x="150" y="107.5283807101989" width="0.2533353889709648" height="12.579238942875305" fill="#5b9bd5"></rect><rect x="150" y="120.76968486059396" width="0.021875860704089815" height="12.579238942875305" fill="#70ad47"></rect><text class="label" x="589.3169586085297" y="63.063164108618665" font-size="10px">19,694x</text><text class="label" x="599.4090909090909" y="76.30446825901373" font-size="10px">20,155x</text><text class="label" x="175.23734398035396" y="89.54577240940878" font-size="10px">765x</text><text class="label" x="160.27594311076487" y="102.78707655980384" font-size="10px">81x</text><text class="label" x="158.75333538897095" y="116.0283807101989" font-size="10px">12x</text><text class="label" x="158.52187586070409" y="129.26968486059394" font-size="10px">1x</text><text class="label" x="585.8169586085297" y="64.56316410861866" font-size="8px"></text><text class="label" x="595.9090909090909" y="77.80446825901373" font-size="8px"></text><text class="label" x="171.73734398035396" y="91.04577240940878" font-size="8px"></text><text class="label" x="156.77594311076487" y="104.28707655980384" font-size="8px"></text><text class="label" x="155.25333538897095" y="117.5283807101989" font-size="8px"></text><text class="label" x="155.02187586070409" y="130.76968486059394" font-size="8px"></text></g><g style="font-size: 13px;"><rect x="150" y="143.57415311960767" width="229.61531226888326" height="12.579238942875305" fill="#4472c4"></rect><rect x="150" y="156.81545727000272" width="39.995153727883206" height="12.579238942875305" fill="#ed7d31"></rect><rect x="150" y="170.05676142039778" width="12.495170805866456" height="12.579238942875305" fill="#a5a5a5"></rect><rect x="150" y="183.29806557079286" width="1.3794966380972429" height="12.579238942875305" fill="#ffc000"></rect><rect x="150" y="196.5393697211879" width="0.06827092111786788" height="12.579238942875305" fill="#5b9bd5"></rect><rect x="150" y="209.78067387158296" width="0.021875860704089815" height="12.579238942875305" fill="#70ad47"></rect><text class="label" x="388.11531226888326" y="152.07415311960767" font-size="10px">10,496x</text><text class="label" x="198.4951537278832" y="165.31545727000272" font-size="10px">1,828x</text><text class="label" x="170.99517080586645" y="178.55676142039778" font-size="10px">571x</text><text class="label" x="159.87949663809724" y="191.79806557079286" font-size="10px">63x</text><text class="label" x="158.56827092111786" y="205.0393697211879" font-size="10px">3x</text><text class="label" x="158.52187586070409" y="218.28067387158296" font-size="10px">1x</text><text class="label" x="384.61531226888326" y="153.57415311960767" font-size="8px"></text><text class="label" x="194.9951537278832" y="166.81545727000272" font-size="8px"></text><text class="label" x="167.49517080586645" y="180.05676142039778" font-size="8px"></text><text class="label" x="156.37949663809724" y="193.29806557079286" font-size="8px"></text><text class="label" x="155.06827092111786" y="206.5393697211879" font-size="8px"></text><text class="label" x="155.02187586070409" y="219.78067387158296" font-size="8px"></text></g><g style="font-size: 13px;"><rect x="150" y="232.5851421305967" width="48.21204334202054" height="12.579238942875305" fill="#4472c4"></rect><rect x="150" y="245.82644628099175" width="42.11333943414324" height="12.579238942875305" fill="#ed7d31"></rect><rect x="150" y="259.0677504313868" width="16.234727623085558" height="12.579238942875305" fill="#a5a5a5"></rect><rect x="150" y="272.3090545817819" width="2.308729452106296" height="12.579238942875305" fill="#ffc000"></rect><rect x="150" y="285.5503587321769" width="0.021875860704089815" height="12.579238942875305" fill="#5b9bd5"></rect><rect x="150" y="298.791662882572" width="0.035442106149635166" height="12.579238942875305" fill="#70ad47"></rect><text class="label" x="206.71204334202054" y="241.0851421305967" font-size="10px">2,204x</text><text class="label" x="200.61333943414326" y="254.32644628099175" font-size="10px">1,925x</text><text class="label" x="174.73472762308555" y="267.5677504313868" font-size="10px">742x</text><text class="label" x="160.8087294521063" y="280.8090545817819" font-size="10px">106x</text><text class="label" x="158.52187586070409" y="294.0503587321769" font-size="10px">1x</text><text class="label" x="158.53544210614965" y="307.291662882572" font-size="10px">2x</text><text class="label" x="203.21204334202054" y="242.5851421305967" font-size="8px"></text><text class="label" x="197.11333943414326" y="255.82644628099175" font-size="8px"></text><text class="label" x="171.23472762308555" y="269.0677504313868" font-size="8px"></text><text class="label" x="157.3087294521063" y="282.3090545817819" font-size="8px"></text><text class="label" x="155.02187586070409" y="295.5503587321769" font-size="8px"></text><text class="label" x="155.03544210614965" y="308.791662882572" font-size="8px"></text></g><g style="font-size: 13px;"><rect x="150" y="321.59613114158566" width="21.156181719399843" height="12.579238942875305" fill="#4472c4"></rect><rect x="150" y="334.83743529198074" width="9.753269050421808" height="12.579238942875305" fill="#ed7d31"></rect><rect x="150" y="348.07873944237576" width="0.7818025866533997" height="12.579238942875305" fill="#a5a5a5"></rect><rect x="150" y="361.32004359277084" width="2.318384098910382" height="12.579238942875305" fill="#ffc000"></rect><rect x="150" y="374.5613477431659" width="0.021875860704089815" height="12.579238942875305" fill="#5b9bd5"></rect><rect x="150" y="387.80265189356095" width="0" height="12.579238942875305" fill="#70ad47"></rect><text class="label" x="179.65618171939985" y="330.09613114158566" font-size="10px">967x</text><text class="label" x="168.2532690504218" y="343.33743529198074" font-size="10px">446x</text><text class="label" x="159.2818025866534" y="356.57873944237576" font-size="10px">36x</text><text class="label" x="160.81838409891037" y="369.82004359277084" font-size="10px">106x</text><text class="label" x="158.52187586070409" y="383.0613477431659" font-size="10px">1x</text><text class="label" x="158.5" y="396.30265189356095" font-size="10px"></text><text class="label" x="176.15618171939985" y="331.59613114158566" font-size="8px"></text><text class="label" x="164.7532690504218" y="344.83743529198074" font-size="8px"></text><text class="label" x="155.7818025866534" y="358.07873944237576" font-size="8px"></text><text class="label" x="157.31838409891037" y="371.32004359277084" font-size="8px"></text><text class="label" x="155.02187586070409" y="384.5613477431659" font-size="8px"></text><text class="label" x="155" y="397.80265189356095" font-size="8px">Failed</text></g><g style="font-size: 13px;"><rect x="150" y="410.6071201525747" width="485" height="12.579238942875305" fill="#4472c4"></rect><rect x="150" y="423.84842430296976" width="0" height="12.579238942875305" fill="#ed7d31"></rect><rect x="150" y="437.08972845336484" width="0" height="12.579238942875305" fill="#a5a5a5"></rect><rect x="150" y="450.33103260375987" width="0" height="12.579238942875305" fill="#ffc000"></rect><rect x="150" y="463.57233675415495" width="0" height="12.579238942875305" fill="#5b9bd5"></rect><rect x="150" y="476.81364090454997" width="0" height="12.579238942875305" fill="#70ad47"></rect><text class="label" x="643.5" y="419.1071201525747" font-size="10px">Infinity</text><text class="label" x="158.5" y="432.34842430296976" font-size="10px"></text><text class="label" x="158.5" y="445.58972845336484" font-size="10px"></text><text class="label" x="158.5" y="458.83103260375987" font-size="10px"></text><text class="label" x="158.5" y="472.07233675415495" font-size="10px"></text><text class="label" x="158.5" y="485.31364090454997" font-size="10px"></text><text class="label" x="640" y="420.6071201525747" font-size="8px"></text><text class="label" x="155" y="433.84842430296976" font-size="8px">Failed</text><text class="label" x="155" y="447.08972845336484" font-size="8px">Failed</text><text class="label" x="155" y="460.33103260375987" font-size="8px">Failed</text><text class="label" x="155" y="473.57233675415495" font-size="8px">Failed</text><text class="label" x="155" y="486.81364090454997" font-size="8px">Failed</text></g><g style="font-size: 13px;"><rect x="150" y="499.6181091635637" width="16.454558793023658" height="12.579238942875305" fill="#4472c4"></rect><rect x="150" y="512.8594133139588" width="14.71613532149791" height="12.579238942875305" fill="#ed7d31"></rect><rect x="150" y="526.1007174643538" width="6.102831749654638" height="12.579238942875305" fill="#a5a5a5"></rect><rect x="150" y="539.3420216147489" width="1.9037172214358544" height="12.579238942875305" fill="#ffc000"></rect><rect x="150" y="552.583325765144" width="0.023808855132345215" height="12.579238942875305" fill="#5b9bd5"></rect><rect x="150" y="565.824629915539" width="0.021875860704089815" height="12.579238942875305" fill="#70ad47"></rect><text class="label" x="174.95455879302366" y="508.1181091635637" font-size="10px">752x</text><text class="label" x="173.21613532149792" y="521.3594133139588" font-size="10px">673x</text><text class="label" x="164.60283174965463" y="534.6007174643538" font-size="10px">279x</text><text class="label" x="160.40371722143584" y="547.8420216147489" font-size="10px">87x</text><text class="label" x="158.52380885513236" y="561.083325765144" font-size="10px">1x</text><text class="label" x="158.52187586070409" y="574.324629915539" font-size="10px">1x</text><text class="label" x="171.45455879302366" y="509.6181091635637" font-size="8px"></text><text class="label" x="169.71613532149792" y="522.8594133139588" font-size="8px"></text><text class="label" x="161.10283174965463" y="536.1007174643538" font-size="8px"></text><text class="label" x="156.90371722143584" y="549.3420216147489" font-size="8px"></text><text class="label" x="155.02380885513236" y="562.583325765144" font-size="8px"></text><text class="label" x="155.02187586070409" y="575.824629915539" font-size="8px"></text></g><g style="font-size: 13px;"><rect x="150" y="588.6290981745527" width="33.51686544966456" height="12.579238942875305" fill="#4472c4"></rect><rect x="150" y="601.8704023249478" width="19.54120951304723" height="12.579238942875305" fill="#ed7d31"></rect><rect x="150" y="615.1117064753429" width="3.059566522693035" height="12.579238942875305" fill="#a5a5a5"></rect><rect x="150" y="628.353010625738" width="3.5178237198199005" height="12.579238942875305" fill="#ffc000"></rect><rect x="150" y="641.5943147761329" width="0.021875860704089815" height="12.579238942875305" fill="#5b9bd5"></rect><rect x="150" y="654.835618926528" width="0" height="12.579238942875305" fill="#70ad47"></rect><text class="label" x="192.01686544966455" y="597.1290981745527" font-size="10px">1,532x</text><text class="label" x="178.04120951304722" y="610.3704023249478" font-size="10px">893x</text><text class="label" x="161.55956652269305" y="623.6117064753429" font-size="10px">140x</text><text class="label" x="162.0178237198199" y="636.853010625738" font-size="10px">161x</text><text class="label" x="158.52187586070409" y="650.0943147761329" font-size="10px">1x</text><text class="label" x="158.5" y="663.335618926528" font-size="10px"></text><text class="label" x="188.51686544966455" y="598.6290981745527" font-size="8px"></text><text class="label" x="174.54120951304722" y="611.8704023249478" font-size="8px"></text><text class="label" x="158.05956652269305" y="625.1117064753429" font-size="8px"></text><text class="label" x="158.5178237198199" y="638.353010625738" font-size="8px"></text><text class="label" x="155.02187586070409" y="651.5943147761329" font-size="8px"></text><text class="label" x="155" y="664.835618926528" font-size="8px">Failed</text></g><g style="font-size: 13px;"><rect x="150" y="677.6400871855418" width="485" height="12.579238942875305" fill="#4472c4"></rect><rect x="150" y="690.8813913359369" width="0" height="12.579238942875305" fill="#ed7d31"></rect><rect x="150" y="704.122695486332" width="0" height="12.579238942875305" fill="#a5a5a5"></rect><rect x="150" y="717.363999636727" width="0" height="12.579238942875305" fill="#ffc000"></rect><rect x="150" y="730.605303787122" width="0" height="12.579238942875305" fill="#5b9bd5"></rect><rect x="150" y="743.8466079375171" width="0" height="12.579238942875305" fill="#70ad47"></rect><text class="label" x="643.5" y="686.1400871855418" font-size="10px">Infinity</text><text class="label" x="158.5" y="699.3813913359369" font-size="10px"></text><text class="label" x="158.5" y="712.622695486332" font-size="10px"></text><text class="label" x="158.5" y="725.863999636727" font-size="10px"></text><text class="label" x="158.5" y="739.105303787122" font-size="10px"></text><text class="label" x="158.5" y="752.3466079375171" font-size="10px"></text><text class="label" x="640" y="687.6400871855418" font-size="8px"></text><text class="label" x="155" y="700.8813913359369" font-size="8px">Failed</text><text class="label" x="155" y="714.122695486332" font-size="8px">Failed</text><text class="label" x="155" y="727.363999636727" font-size="8px">Failed</text><text class="label" x="155" y="740.605303787122" font-size="8px">Failed</text><text class="label" x="155" y="753.8466079375171" font-size="8px">Failed</text></g><g style="font-size: 13px;"><rect x="150" y="766.6510761965307" width="485" height="12.579238942875305" fill="#4472c4"></rect><rect x="150" y="779.8923803469257" width="0" height="12.579238942875305" fill="#ed7d31"></rect><rect x="150" y="793.1336844973208" width="0" height="12.579238942875305" fill="#a5a5a5"></rect><rect x="150" y="806.3749886477159" width="0" height="12.579238942875305" fill="#ffc000"></rect><rect x="150" y="819.6162927981109" width="0" height="12.579238942875305" fill="#5b9bd5"></rect><rect x="150" y="832.8575969485059" width="0" height="12.579238942875305" fill="#70ad47"></rect><text class="label" x="643.5" y="775.1510761965307" font-size="10px">Infinity</text><text class="label" x="158.5" y="788.3923803469257" font-size="10px"></text><text class="label" x="158.5" y="801.6336844973208" font-size="10px"></text><text class="label" x="158.5" y="814.8749886477159" font-size="10px"></text><text class="label" x="158.5" y="828.1162927981109" font-size="10px"></text><text class="label" x="158.5" y="841.3575969485059" font-size="10px"></text><text class="label" x="640" y="776.6510761965307" font-size="8px"></text><text class="label" x="155" y="789.8923803469257" font-size="8px">Failed</text><text class="label" x="155" y="803.1336844973208" font-size="8px">Failed</text><text class="label" x="155" y="816.3749886477159" font-size="8px">Failed</text><text class="label" x="155" y="829.6162927981109" font-size="8px">Failed</text><text class="label" x="155" y="842.8575969485059" font-size="8px">Failed</text></g></g></svg>