<svg xmlns="http://www.w3.org/2000/svg" xmlns:xlink="http://www.w3.org/1999/xlink" width="800" height="674" style="background-color: white;"><g class="y axis" transform="translate(149,45)" fill="none" font-size="10" font-family="sans-serif" text-anchor="end" style="font-size: 13px;"><path class="domain" stroke="currentColor" d="M0.5,0.5V480.5"></path><g class="tick" opacity="1" transform="translate(0,32.592592592592595)" style="font-size: 13px;"><line stroke="currentColor" x2="0"></line><text fill="currentColor" x="-3" dy="0.32em">object (simple)    </text></g><g class="tick" opacity="1" transform="translate(0,91.85185185185186)" style="font-size: 13px;"><line stroke="currentColor" x2="0"></line><text fill="currentColor" x="-3" dy="0.32em">object (hierarchical)    </text></g><g class="tick" opacity="1" transform="translate(0,151.11111111111111)" style="font-size: 13px;"><line stroke="currentColor" x2="0"></line><text fill="currentColor" x="-3" dy="0.32em">object (recursive)    </text></g><g class="tick" opacity="1" transform="translate(0,210.37037037037035)" style="font-size: 13px;"><line stroke="currentColor" x2="0"></line><text fill="currentColor" x="-3" dy="0.32em">object (union, explicit)    </text></g><g class="tick" opacity="1" transform="translate(0,269.6296296296296)" style="font-size: 13px;"><line stroke="currentColor" x2="0"></line><text fill="currentColor" x="-3" dy="0.32em">array (simple)    </text></g><g class="tick" opacity="1" transform="translate(0,328.8888888888889)" style="font-size: 13px;"><line stroke="currentColor" x2="0"></line><text fill="currentColor" x="-3" dy="0.32em">array (hierarchical)    </text></g><g class="tick" opacity="1" transform="translate(0,388.14814814814815)" style="font-size: 13px;"><line stroke="currentColor" x2="0"></line><text fill="currentColor" x="-3" dy="0.32em">array (recursive)    </text></g><g class="tick" opacity="1" transform="translate(0,447.40740740740745)" style="font-size: 13px;"><line stroke="currentColor" x2="0"></line><text fill="currentColor" x="-3" dy="0.32em">array (union, explicit)    </text></g></g><g class="x axis" transform="translate(149,525)" fill="none" font-size="10" font-family="sans-serif" text-anchor="middle" style="font-size: 13px;"><path class="domain" stroke="currentColor" d="M0.5,0.5H485.5"></path><g class="tick" opacity="1" transform="translate(0.5,0)" style="font-size: 13px;"><line stroke="currentColor" y2="6"></line><text fill="currentColor" y="9" dy="0.71em">0x</text></g><g class="tick" opacity="1" transform="translate(77.22582118733355,0)" style="font-size: 13px;"><line stroke="currentColor" y2="6"></line><text fill="currentColor" y="9" dy="0.71em">1,000,000x</text></g><g class="tick" opacity="1" transform="translate(153.9516423746671,0)" style="font-size: 13px;"><line stroke="currentColor" y2="6"></line><text fill="currentColor" y="9" dy="0.71em">2,000,000x</text></g><g class="tick" opacity="1" transform="translate(230.67746356200067,0)" style="font-size: 13px;"><line stroke="currentColor" y2="6"></line><text fill="currentColor" y="9" dy="0.71em">3,000,000x</text></g><g class="tick" opacity="1" transform="translate(307.4032847493342,0)" style="font-size: 13px;"><line stroke="currentColor" y2="6"></line><text fill="currentColor" y="9" dy="0.71em">4,000,000x</text></g><g class="tick" opacity="1" transform="translate(384.1291059366678,0)" style="font-size: 13px;"><line stroke="currentColor" y2="6"></line><text fill="currentColor" y="9" dy="0.71em">5,000,000x</text></g><g class="tick" opacity="1" transform="translate(460.85492712400134,0)" style="font-size: 13px;"><line stroke="currentColor" y2="6"></line><text fill="currentColor" y="9" dy="0.71em">6,000,000x</text></g></g><text transform="translate(400, 30)" style="text-anchor: middle; font-size: 20px; font-weight: bold;">optimizer benchmark</text><rect x="650" y="125" width="230" height="5" fill="gray"></rect><rect x="645" y="35" width="230" height="90" fill="none" stroke="black"></rect><rect x="655" y="45" width="10" height="10" style="fill: #4472c4;"></rect><text x="670" y="55" style="font-size: 12px;">typia</text><rect x="655" y="65" width="10" height="10" style="fill: #ed7d31;"></rect><text x="670" y="75" style="font-size: 12px;">typebox</text><rect x="655" y="85" width="10" height="10" style="fill: #a5a5a5;"></rect><text x="670" y="95" style="font-size: 12px;">ajv</text><rect x="655" y="105" width="10" height="10" style="fill: #ffc000;"></rect><text x="670" y="115" style="font-size: 12px;">class-validator</text><text x="20" y="589" style="font-size: 12px;">  - CPU: AMD Ryzen 9 7940HS w/ Radeon 780M Graphics</text><text x="20" y="606" style="font-size: 12px;">  - OS: win32</text><text x="20" y="623" style="font-size: 12px;">  - RAM: 31 GB</text><text x="20" y="640" style="font-size: 12px;">  - NodeJS version: v20.10.0</text><text x="20" y="657" style="font-size: 12px;">  - Typia version: v6.0.0-dev.20240118</text><g style="font-size: 13px;"><g style="font-size: 13px;"><rect x="150" y="51.584362139917694" width="440.9090909090908" height="12.510288065843621" fill="#4472c4"></rect><rect x="150" y="64.75308641975309" width="0.019455463052116168" height="12.510288065843621" fill="#ed7d31"></rect><rect x="150" y="77.92181069958848" width="0.00007672582118733355" height="12.510288065843621" fill="#a5a5a5"></rect><rect x="150" y="91.09053497942386" width="0.023519222554369" height="12.510288065843621" fill="#ffc000"></rect><text class="label" x="599.4090909090908" y="60.084362139917694" font-size="10px">5,746,554x</text><text class="label" x="158.5194554630521" y="73.25308641975309" font-size="10px">254x</text><text class="label" x="158.50007672582117" y="86.42181069958848" font-size="10px">1x</text><text class="label" x="158.52351922255437" y="99.59053497942386" font-size="10px">307x</text><text class="label" x="595.9090909090908" y="61.584362139917694" font-size="8px"></text><text class="label" x="155.0194554630521" y="74.75308641975309" font-size="8px"></text><text class="label" x="155.00007672582117" y="87.92181069958848" font-size="8px"></text><text class="label" x="155.02351922255437" y="101.09053497942386" font-size="8px"></text></g><g style="font-size: 13px;"><rect x="150" y="110.84362139917695" width="25.067706751889563" height="12.510288065843621" fill="#4472c4"></rect><rect x="150" y="124.01234567901236" width="0.00867866384655535" height="12.510288065843621" fill="#ed7d31"></rect><rect x="150" y="137.18106995884773" width="0.00007672582118733355" height="12.510288065843621" fill="#a5a5a5"></rect><rect x="150" y="150.34979423868313" width="0.010028873937732118" height="12.510288065843621" fill="#ffc000"></rect><text class="label" x="183.56770675188957" y="119.34362139917695" font-size="10px">326,718x</text><text class="label" x="158.50867866384655" y="132.51234567901236" font-size="10px">113x</text><text class="label" x="158.50007672582117" y="145.68106995884773" font-size="10px">1x</text><text class="label" x="158.51002887393773" y="158.84979423868313" font-size="10px">131x</text><text class="label" x="180.06770675188957" y="120.84362139917695" font-size="8px"></text><text class="label" x="155.00867866384655" y="134.01234567901236" font-size="8px"></text><text class="label" x="155.00007672582117" y="147.18106995884773" font-size="8px"></text><text class="label" x="155.01002887393773" y="160.34979423868313" font-size="8px"></text></g><g style="font-size: 13px;"><rect x="150" y="170.10288065843622" width="5.596648618119722" height="12.510288065843621" fill="#4472c4"></rect><rect x="150" y="183.2716049382716" width="0.022811683270013625" height="12.510288065843621" fill="#ed7d31"></rect><rect x="150" y="196.440329218107" width="0.00007672582118733355" height="12.510288065843621" fill="#a5a5a5"></rect><rect x="150" y="209.6090534979424" width="0.004559463109240984" height="12.510288065843621" fill="#ffc000"></rect><text class="label" x="164.09664861811973" y="178.60288065843622" font-size="10px">72,943x</text><text class="label" x="158.52281168327002" y="191.7716049382716" font-size="10px">297x</text><text class="label" x="158.50007672582117" y="204.940329218107" font-size="10px">1x</text><text class="label" x="158.50455946310925" y="218.1090534979424" font-size="10px">59x</text><text class="label" x="160.59664861811973" y="180.10288065843622" font-size="8px"></text><text class="label" x="155.02281168327002" y="193.2716049382716" font-size="8px"></text><text class="label" x="155.00007672582117" y="206.440329218107" font-size="8px"></text><text class="label" x="155.00455946310925" y="219.6090534979424" font-size="8px"></text></g><g style="font-size: 13px;"><rect x="150" y="229.36213991769546" width="2.1979273301504874" height="12.510288065843621" fill="#4472c4"></rect><rect x="150" y="242.53086419753086" width="0.009690891589955362" height="12.510288065843621" fill="#ed7d31"></rect><rect x="150" y="255.69958847736626" width="0.00007672582118733355" height="12.510288065843621" fill="#a5a5a5"></rect><rect x="150" y="268.86831275720164" width="0.009279806653402018" height="12.510288065843621" fill="#ffc000"></rect><text class="label" x="160.6979273301505" y="237.86213991769546" font-size="10px">28,647x</text><text class="label" x="158.50969089158997" y="251.03086419753086" font-size="10px">126x</text><text class="label" x="158.50007672582117" y="264.19958847736626" font-size="10px">1x</text><text class="label" x="158.5092798066534" y="277.36831275720164" font-size="10px">121x</text><text class="label" x="157.1979273301505" y="239.36213991769546" font-size="8px"></text><text class="label" x="155.00969089158997" y="252.53086419753086" font-size="8px"></text><text class="label" x="155.00007672582117" y="265.69958847736626" font-size="8px"></text><text class="label" x="155.0092798066534" y="278.86831275720164" font-size="8px"></text></g><g style="font-size: 13px;"><rect x="150" y="288.6213991769547" width="5.766658440625572" height="12.510288065843621" fill="#4472c4"></rect><rect x="150" y="301.7901234567901" width="0.06416607676311424" height="12.510288065843621" fill="#ed7d31"></rect><rect x="150" y="314.9588477366255" width="0.00007672582118733355" height="12.510288065843621" fill="#a5a5a5"></rect><rect x="150" y="328.12757201646093" width="0.014272404500824683" height="12.510288065843621" fill="#ffc000"></rect><text class="label" x="164.26665844062558" y="297.1213991769547" font-size="10px">75,159x</text><text class="label" x="158.56416607676312" y="310.2901234567901" font-size="10px">836x</text><text class="label" x="158.50007672582117" y="323.4588477366255" font-size="10px">1x</text><text class="label" x="158.51427240450082" y="336.62757201646093" font-size="10px">186x</text><text class="label" x="160.76665844062558" y="298.6213991769547" font-size="8px"></text><text class="label" x="155.06416607676312" y="311.7901234567901" font-size="8px"></text><text class="label" x="155.00007672582117" y="324.9588477366255" font-size="8px"></text><text class="label" x="155.01427240450082" y="338.12757201646093" font-size="8px"></text></g><g style="font-size: 13px;"><rect x="150" y="347.880658436214" width="0.34187198310071865" height="12.510288065843621" fill="#4472c4"></rect><rect x="150" y="361.04938271604937" width="0.020857405082987796" height="12.510288065843621" fill="#ed7d31"></rect><rect x="150" y="374.2181069958848" width="0.00007672582118733355" height="12.510288065843621" fill="#a5a5a5"></rect><rect x="150" y="387.38683127572017" width="0.0003351403724757487" height="12.510288065843621" fill="#ffc000"></rect><text class="label" x="158.84187198310073" y="356.380658436214" font-size="10px">4,456x</text><text class="label" x="158.52085740508298" y="369.54938271604937" font-size="10px">272x</text><text class="label" x="158.50007672582117" y="382.7181069958848" font-size="10px">1x</text><text class="label" x="158.50033514037247" y="395.88683127572017" font-size="10px">4x</text><text class="label" x="155.34187198310073" y="357.880658436214" font-size="8px"></text><text class="label" x="155.02085740508298" y="371.04938271604937" font-size="8px"></text><text class="label" x="155.00007672582117" y="384.2181069958848" font-size="8px"></text><text class="label" x="155.00033514037247" y="397.38683127572017" font-size="8px"></text></g><g style="font-size: 13px;"><rect x="150" y="407.13991769547323" width="0.28744611338256315" height="12.510288065843621" fill="#4472c4"></rect><rect x="150" y="420.3086419753086" width="0.02313453658340964" height="12.510288065843621" fill="#ed7d31"></rect><rect x="150" y="433.47736625514403" width="0.00007672582118733355" height="12.510288065843621" fill="#a5a5a5"></rect><rect x="150" y="446.6460905349794" width="0.0003471032685345658" height="12.510288065843621" fill="#ffc000"></rect><text class="label" x="158.78744611338257" y="415.63991769547323" font-size="10px">3,746x</text><text class="label" x="158.5231345365834" y="428.8086419753086" font-size="10px">302x</text><text class="label" x="158.50007672582117" y="441.97736625514403" font-size="10px">1x</text><text class="label" x="158.50034710326852" y="455.1460905349794" font-size="10px">5x</text><text class="label" x="155.28744611338257" y="417.13991769547323" font-size="8px"></text><text class="label" x="155.0231345365834" y="430.3086419753086" font-size="8px"></text><text class="label" x="155.00007672582117" y="443.47736625514403" font-size="8px"></text><text class="label" x="155.00034710326852" y="456.6460905349794" font-size="8px"></text></g><g style="font-size: 13px;"><rect x="150" y="466.3991769547325" width="0.5667532569612753" height="12.510288065843621" fill="#4472c4"></rect><rect x="150" y="479.5679012345679" width="0.014769580250879872" height="12.510288065843621" fill="#ed7d31"></rect><rect x="150" y="492.73662551440333" width="0.00007672582118733355" height="12.510288065843621" fill="#a5a5a5"></rect><rect x="150" y="505.9053497942387" width="0.003949284489074459" height="12.510288065843621" fill="#ffc000"></rect><text class="label" x="159.06675325696128" y="474.8991769547325" font-size="10px">7,387x</text><text class="label" x="158.51476958025088" y="488.0679012345679" font-size="10px">192x</text><text class="label" x="158.50007672582117" y="501.23662551440333" font-size="10px">1x</text><text class="label" x="158.50394928448907" y="514.4053497942386" font-size="10px">51x</text><text class="label" x="155.56675325696128" y="476.3991769547325" font-size="8px"></text><text class="label" x="155.01476958025088" y="489.5679012345679" font-size="8px"></text><text class="label" x="155.00007672582117" y="502.73662551440333" font-size="8px"></text><text class="label" x="155.00394928448907" y="515.9053497942386" font-size="8px"></text></g></g></svg>