<svg xmlns="http://www.w3.org/2000/svg" xmlns:xlink="http://www.w3.org/1999/xlink" width="800" height="674" style="background-color: white;"><g class="y axis" transform="translate(149,45)" fill="none" font-size="10" font-family="sans-serif" text-anchor="end" style="font-size: 13px;"><path class="domain" stroke="currentColor" d="M0.5,0.5V480.5"></path><g class="tick" opacity="1" transform="translate(0,32.592592592592595)" style="font-size: 13px;"><line stroke="currentColor" x2="0"></line><text fill="currentColor" x="-3" dy="0.32em">object (simple)    </text></g><g class="tick" opacity="1" transform="translate(0,91.85185185185186)" style="font-size: 13px;"><line stroke="currentColor" x2="0"></line><text fill="currentColor" x="-3" dy="0.32em">object (hierarchical)    </text></g><g class="tick" opacity="1" transform="translate(0,151.11111111111111)" style="font-size: 13px;"><line stroke="currentColor" x2="0"></line><text fill="currentColor" x="-3" dy="0.32em">object (recursive)    </text></g><g class="tick" opacity="1" transform="translate(0,210.37037037037035)" style="font-size: 13px;"><line stroke="currentColor" x2="0"></line><text fill="currentColor" x="-3" dy="0.32em">object (union, explicit)    </text></g><g class="tick" opacity="1" transform="translate(0,269.6296296296296)" style="font-size: 13px;"><line stroke="currentColor" x2="0"></line><text fill="currentColor" x="-3" dy="0.32em">array (simple)    </text></g><g class="tick" opacity="1" transform="translate(0,328.8888888888889)" style="font-size: 13px;"><line stroke="currentColor" x2="0"></line><text fill="currentColor" x="-3" dy="0.32em">array (hierarchical)    </text></g><g class="tick" opacity="1" transform="translate(0,388.14814814814815)" style="font-size: 13px;"><line stroke="currentColor" x2="0"></line><text fill="currentColor" x="-3" dy="0.32em">array (recursive)    </text></g><g class="tick" opacity="1" transform="translate(0,447.40740740740745)" style="font-size: 13px;"><line stroke="currentColor" x2="0"></line><text fill="currentColor" x="-3" dy="0.32em">array (union, explicit)    </text></g></g><g class="x axis" transform="translate(149,525)" fill="none" font-size="10" font-family="sans-serif" text-anchor="middle" style="font-size: 13px;"><path class="domain" stroke="currentColor" d="M0.5,0.5H485.5"></path><g class="tick" opacity="1" transform="translate(0.5,0)" style="font-size: 13px;"><line stroke="currentColor" y2="6"></line><text fill="currentColor" y="9" dy="0.71em">0x</text></g><g class="tick" opacity="1" transform="translate(76.02207514937656,0)" style="font-size: 13px;"><line stroke="currentColor" y2="6"></line><text fill="currentColor" y="9" dy="0.71em">1,000,000x</text></g><g class="tick" opacity="1" transform="translate(151.54415029875312,0)" style="font-size: 13px;"><line stroke="currentColor" y2="6"></line><text fill="currentColor" y="9" dy="0.71em">2,000,000x</text></g><g class="tick" opacity="1" transform="translate(227.06622544812964,0)" style="font-size: 13px;"><line stroke="currentColor" y2="6"></line><text fill="currentColor" y="9" dy="0.71em">3,000,000x</text></g><g class="tick" opacity="1" transform="translate(302.58830059750625,0)" style="font-size: 13px;"><line stroke="currentColor" y2="6"></line><text fill="currentColor" y="9" dy="0.71em">4,000,000x</text></g><g class="tick" opacity="1" transform="translate(378.11037574688277,0)" style="font-size: 13px;"><line stroke="currentColor" y2="6"></line><text fill="currentColor" y="9" dy="0.71em">5,000,000x</text></g><g class="tick" opacity="1" transform="translate(453.6324508962593,0)" style="font-size: 13px;"><line stroke="currentColor" y2="6"></line><text fill="currentColor" y="9" dy="0.71em">6,000,000x</text></g></g><text transform="translate(400, 30)" style="text-anchor: middle; font-size: 20px; font-weight: bold;">optimizer benchmark</text><rect x="650" y="125" width="230" height="5" fill="gray"></rect><rect x="645" y="35" width="230" height="90" fill="none" stroke="black"></rect><rect x="655" y="45" width="10" height="10" style="fill: #4472c4;"></rect><text x="670" y="55" style="font-size: 12px;">typia</text><rect x="655" y="65" width="10" height="10" style="fill: #ed7d31;"></rect><text x="670" y="75" style="font-size: 12px;">typebox</text><rect x="655" y="85" width="10" height="10" style="fill: #a5a5a5;"></rect><text x="670" y="95" style="font-size: 12px;">ajv</text><rect x="655" y="105" width="10" height="10" style="fill: #ffc000;"></rect><text x="670" y="115" style="font-size: 12px;">class-validator</text><text x="20" y="589" style="font-size: 12px;">  - CPU: AMD Ryzen 9 7940HS w/ Radeon 780M Graphics</text><text x="20" y="606" style="font-size: 12px;">  - OS: win32</text><text x="20" y="623" style="font-size: 12px;">  - RAM: 31 GB</text><text x="20" y="640" style="font-size: 12px;">  - NodeJS version: v20.10.0</text><text x="20" y="657" style="font-size: 12px;">  - Typia version: v6.0.1</text><g style="font-size: 13px;"><g style="font-size: 13px;"><rect x="150" y="51.584362139917694" width="440.9090909090909" height="12.510288065843621" fill="#4472c4"></rect><rect x="150" y="64.75308641975309" width="0.019227088228880963" height="12.510288065843621" fill="#ed7d31"></rect><rect x="150" y="77.92181069958848" width="0.00007552207514937655" height="12.510288065843621" fill="#a5a5a5"></rect><rect x="150" y="91.09053497942386" width="0.022371119349811435" height="12.510288065843621" fill="#ffc000"></rect><text class="label" x="599.4090909090909" y="60.084362139917694" font-size="10px">5,838,149x</text><text class="label" x="158.5192270882289" y="73.25308641975309" font-size="10px">255x</text><text class="label" x="158.50007552207515" y="86.42181069958848" font-size="10px">1x</text><text class="label" x="158.5223711193498" y="99.59053497942386" font-size="10px">296x</text><text class="label" x="595.9090909090909" y="61.584362139917694" font-size="8px"></text><text class="label" x="155.0192270882289" y="74.75308641975309" font-size="8px"></text><text class="label" x="155.00007552207515" y="87.92181069958848" font-size="8px"></text><text class="label" x="155.0223711193498" y="101.09053497942386" font-size="8px"></text></g><g style="font-size: 13px;"><rect x="150" y="110.84362139917695" width="24.474817318233047" height="12.510288065843621" fill="#4472c4"></rect><rect x="150" y="124.01234567901236" width="0.008670083410245999" height="12.510288065843621" fill="#ed7d31"></rect><rect x="150" y="137.18106995884773" width="0.00007552207514937655" height="12.510288065843621" fill="#a5a5a5"></rect><rect x="150" y="150.34979423868313" width="0.009864788375096946" height="12.510288065843621" fill="#ffc000"></rect><text class="label" x="182.97481731823305" y="119.34362139917695" font-size="10px">324,075x</text><text class="label" x="158.50867008341024" y="132.51234567901236" font-size="10px">115x</text><text class="label" x="158.50007552207515" y="145.68106995884773" font-size="10px">1x</text><text class="label" x="158.5098647883751" y="158.84979423868313" font-size="10px">131x</text><text class="label" x="179.47481731823305" y="120.84362139917695" font-size="8px"></text><text class="label" x="155.00867008341024" y="134.01234567901236" font-size="8px"></text><text class="label" x="155.00007552207515" y="147.18106995884773" font-size="8px"></text><text class="label" x="155.0098647883751" y="160.34979423868313" font-size="8px"></text></g><g style="font-size: 13px;"><rect x="150" y="170.10288065843622" width="5.329619955319111" height="12.510288065843621" fill="#4472c4"></rect><rect x="150" y="183.2716049382716" width="0.021942085382268762" height="12.510288065843621" fill="#ed7d31"></rect><rect x="150" y="196.440329218107" width="0.00007552207514937655" height="12.510288065843621" fill="#a5a5a5"></rect><rect x="150" y="209.6090534979424" width="0.0043179578458160455" height="12.510288065843621" fill="#ffc000"></rect><text class="label" x="163.82961995531912" y="178.60288065843622" font-size="10px">70,570x</text><text class="label" x="158.52194208538228" y="191.7716049382716" font-size="10px">291x</text><text class="label" x="158.50007552207515" y="204.940329218107" font-size="10px">1x</text><text class="label" x="158.5043179578458" y="218.1090534979424" font-size="10px">57x</text><text class="label" x="160.32961995531912" y="180.10288065843622" font-size="8px"></text><text class="label" x="155.02194208538228" y="193.2716049382716" font-size="8px"></text><text class="label" x="155.00007552207515" y="206.440329218107" font-size="8px"></text><text class="label" x="155.0043179578458" y="219.6090534979424" font-size="8px"></text></g><g style="font-size: 13px;"><rect x="150" y="229.36213991769546" width="2.127362394953572" height="12.510288065843621" fill="#4472c4"></rect><rect x="150" y="242.53086419753086" width="0.0090223226403005" height="12.510288065843621" fill="#ed7d31"></rect><rect x="150" y="255.69958847736626" width="0.00007552207514937655" height="12.510288065843621" fill="#a5a5a5"></rect><rect x="150" y="268.86831275720164" width="0.008820036913810454" height="12.510288065843621" fill="#ffc000"></rect><text class="label" x="160.62736239495356" y="237.86213991769546" font-size="10px">28,169x</text><text class="label" x="158.5090223226403" y="251.03086419753086" font-size="10px">119x</text><text class="label" x="158.50007552207515" y="264.19958847736626" font-size="10px">1x</text><text class="label" x="158.50882003691382" y="277.36831275720164" font-size="10px">117x</text><text class="label" x="157.12736239495356" y="239.36213991769546" font-size="8px"></text><text class="label" x="155.0090223226403" y="252.53086419753086" font-size="8px"></text><text class="label" x="155.00007552207515" y="265.69958847736626" font-size="8px"></text><text class="label" x="155.00882003691382" y="278.86831275720164" font-size="8px"></text></g><g style="font-size: 13px;"><rect x="150" y="288.6213991769547" width="2.4282305208333694" height="12.510288065843621" fill="#4472c4"></rect><rect x="150" y="301.7901234567901" width="0.03346814613580954" height="12.510288065843621" fill="#ed7d31"></rect><rect x="150" y="314.9588477366255" width="0.00007552207514937655" height="12.510288065843621" fill="#a5a5a5"></rect><rect x="150" y="328.12757201646093" width="0.006411224884562103" height="12.510288065843621" fill="#ffc000"></rect><text class="label" x="160.92823052083338" y="297.1213991769547" font-size="10px">32,153x</text><text class="label" x="158.53346814613582" y="310.2901234567901" font-size="10px">443x</text><text class="label" x="158.50007552207515" y="323.4588477366255" font-size="10px">1x</text><text class="label" x="158.50641122488457" y="336.62757201646093" font-size="10px">85x</text><text class="label" x="157.42823052083338" y="298.6213991769547" font-size="8px"></text><text class="label" x="155.03346814613582" y="311.7901234567901" font-size="8px"></text><text class="label" x="155.00007552207515" y="324.9588477366255" font-size="8px"></text><text class="label" x="155.00641122488457" y="338.12757201646093" font-size="8px"></text></g><g style="font-size: 13px;"><rect x="150" y="347.880658436214" width="0.32335327501701644" height="12.510288065843621" fill="#4472c4"></rect><rect x="150" y="361.04938271604937" width="0.013582303470698599" height="12.510288065843621" fill="#ed7d31"></rect><rect x="150" y="374.2181069958848" width="0.00007552207514937655" height="12.510288065843621" fill="#a5a5a5"></rect><rect x="150" y="387.38683127572017" width="0.0003402692781458942" height="12.510288065843621" fill="#ffc000"></rect><text class="label" x="158.823353275017" y="356.380658436214" font-size="10px">4,282x</text><text class="label" x="158.51358230347068" y="369.54938271604937" font-size="10px">180x</text><text class="label" x="158.50007552207515" y="382.7181069958848" font-size="10px">1x</text><text class="label" x="158.50034026927815" y="395.88683127572017" font-size="10px">5x</text><text class="label" x="155.323353275017" y="357.880658436214" font-size="8px"></text><text class="label" x="155.01358230347068" y="371.04938271604937" font-size="8px"></text><text class="label" x="155.00007552207515" y="384.2181069958848" font-size="8px"></text><text class="label" x="155.00034026927815" y="397.38683127572017" font-size="8px"></text></g><g style="font-size: 13px;"><rect x="150" y="407.13991769547323" width="0.2367682638099358" height="12.510288065843621" fill="#4472c4"></rect><rect x="150" y="420.3086419753086" width="0.02061661110274765" height="12.510288065843621" fill="#ed7d31"></rect><rect x="150" y="433.47736625514403" width="0.00007552207514937655" height="12.510288065843621" fill="#a5a5a5"></rect><rect x="150" y="446.6460905349794" width="0.0003261394719337908" height="12.510288065843621" fill="#ffc000"></rect><text class="label" x="158.73676826380995" y="415.63991769547323" font-size="10px">3,135x</text><text class="label" x="158.52061661110275" y="428.8086419753086" font-size="10px">273x</text><text class="label" x="158.50007552207515" y="441.97736625514403" font-size="10px">1x</text><text class="label" x="158.50032613947192" y="455.1460905349794" font-size="10px">4x</text><text class="label" x="155.23676826380995" y="417.13991769547323" font-size="8px"></text><text class="label" x="155.02061661110275" y="430.3086419753086" font-size="8px"></text><text class="label" x="155.00007552207515" y="443.47736625514403" font-size="8px"></text><text class="label" x="155.00032613947192" y="456.6460905349794" font-size="8px"></text></g><g style="font-size: 13px;"><rect x="150" y="466.3991769547325" width="0.49493279805292645" height="12.510288065843621" fill="#4472c4"></rect><rect x="150" y="479.5679012345679" width="0.013957542035217842" height="12.510288065843621" fill="#ed7d31"></rect><rect x="150" y="492.73662551440333" width="0.00007552207514937655" height="12.510288065843621" fill="#a5a5a5"></rect><rect x="150" y="505.9053497942387" width="0.003776415718128962" height="12.510288065843621" fill="#ffc000"></rect><text class="label" x="158.99493279805293" y="474.8991769547325" font-size="10px">6,553x</text><text class="label" x="158.51395754203523" y="488.0679012345679" font-size="10px">185x</text><text class="label" x="158.50007552207515" y="501.23662551440333" font-size="10px">1x</text><text class="label" x="158.50377641571814" y="514.4053497942386" font-size="10px">50x</text><text class="label" x="155.49493279805293" y="476.3991769547325" font-size="8px"></text><text class="label" x="155.01395754203523" y="489.5679012345679" font-size="8px"></text><text class="label" x="155.00007552207515" y="502.73662551440333" font-size="8px"></text><text class="label" x="155.00377641571814" y="515.9053497942386" font-size="8px"></text></g></g></svg>