<svg xmlns="http://www.w3.org/2000/svg" xmlns:xlink="http://www.w3.org/1999/xlink" width="800" height="674" style="background-color: white;"><g class="y axis" transform="translate(149,45)" fill="none" font-size="10" font-family="sans-serif" text-anchor="end" style="font-size: 13px;"><path class="domain" stroke="currentColor" d="M0.5,0.5V480.5"></path><g class="tick" opacity="1" transform="translate(0,32.592592592592595)" style="font-size: 13px;"><line stroke="currentColor" x2="0"></line><text fill="currentColor" x="-3" dy="0.32em">object (simple)    </text></g><g class="tick" opacity="1" transform="translate(0,91.85185185185186)" style="font-size: 13px;"><line stroke="currentColor" x2="0"></line><text fill="currentColor" x="-3" dy="0.32em">object (hierarchical)    </text></g><g class="tick" opacity="1" transform="translate(0,151.11111111111111)" style="font-size: 13px;"><line stroke="currentColor" x2="0"></line><text fill="currentColor" x="-3" dy="0.32em">object (recursive)    </text></g><g class="tick" opacity="1" transform="translate(0,210.37037037037035)" style="font-size: 13px;"><line stroke="currentColor" x2="0"></line><text fill="currentColor" x="-3" dy="0.32em">object (union, explicit)    </text></g><g class="tick" opacity="1" transform="translate(0,269.6296296296296)" style="font-size: 13px;"><line stroke="currentColor" x2="0"></line><text fill="currentColor" x="-3" dy="0.32em">array (simple)    </text></g><g class="tick" opacity="1" transform="translate(0,328.8888888888889)" style="font-size: 13px;"><line stroke="currentColor" x2="0"></line><text fill="currentColor" x="-3" dy="0.32em">array (hierarchical)    </text></g><g class="tick" opacity="1" transform="translate(0,388.14814814814815)" style="font-size: 13px;"><line stroke="currentColor" x2="0"></line><text fill="currentColor" x="-3" dy="0.32em">array (recursive)    </text></g><g class="tick" opacity="1" transform="translate(0,447.40740740740745)" style="font-size: 13px;"><line stroke="currentColor" x2="0"></line><text fill="currentColor" x="-3" dy="0.32em">array (union, explicit)    </text></g></g><g class="x axis" transform="translate(149,525)" fill="none" font-size="10" font-family="sans-serif" text-anchor="middle" style="font-size: 13px;"><path class="domain" stroke="currentColor" d="M0.5,0.5H485.5"></path><g class="tick" opacity="1" transform="translate(0.5,0)" style="font-size: 13px;"><line stroke="currentColor" y2="6"></line><text fill="currentColor" y="9" dy="0.71em">0x</text></g><g class="tick" opacity="1" transform="translate(78.59794601594588,0)" style="font-size: 13px;"><line stroke="currentColor" y2="6"></line><text fill="currentColor" y="9" dy="0.71em">1,000,000x</text></g><g class="tick" opacity="1" transform="translate(156.69589203189176,0)" style="font-size: 13px;"><line stroke="currentColor" y2="6"></line><text fill="currentColor" y="9" dy="0.71em">2,000,000x</text></g><g class="tick" opacity="1" transform="translate(234.79383804783768,0)" style="font-size: 13px;"><line stroke="currentColor" y2="6"></line><text fill="currentColor" y="9" dy="0.71em">3,000,000x</text></g><g class="tick" opacity="1" transform="translate(312.8917840637835,0)" style="font-size: 13px;"><line stroke="currentColor" y2="6"></line><text fill="currentColor" y="9" dy="0.71em">4,000,000x</text></g><g class="tick" opacity="1" transform="translate(390.9897300797295,0)" style="font-size: 13px;"><line stroke="currentColor" y2="6"></line><text fill="currentColor" y="9" dy="0.71em">5,000,000x</text></g><g class="tick" opacity="1" transform="translate(469.08767609567536,0)" style="font-size: 13px;"><line stroke="currentColor" y2="6"></line><text fill="currentColor" y="9" dy="0.71em">6,000,000x</text></g></g><text transform="translate(400, 30)" style="text-anchor: middle; font-size: 20px; font-weight: bold;">optimizer benchmark</text><rect x="650" y="125" width="230" height="5" fill="gray"></rect><rect x="645" y="35" width="230" height="90" fill="none" stroke="black"></rect><rect x="655" y="45" width="10" height="10" style="fill: #4472c4;"></rect><text x="670" y="55" style="font-size: 12px;">typia</text><rect x="655" y="65" width="10" height="10" style="fill: #ed7d31;"></rect><text x="670" y="75" style="font-size: 12px;">typebox</text><rect x="655" y="85" width="10" height="10" style="fill: #a5a5a5;"></rect><text x="670" y="95" style="font-size: 12px;">ajv</text><rect x="655" y="105" width="10" height="10" style="fill: #ffc000;"></rect><text x="670" y="115" style="font-size: 12px;">class-validator</text><text x="20" y="589" style="font-size: 12px;">  - CPU: AMD Ryzen 9 7940HS w/ Radeon 780M Graphics</text><text x="20" y="606" style="font-size: 12px;">  - OS: win32</text><text x="20" y="623" style="font-size: 12px;">  - RAM: 31 GB</text><text x="20" y="640" style="font-size: 12px;">  - NodeJS version: v20.10.0</text><text x="20" y="657" style="font-size: 12px;">  - Typia version: v6.7.0-dev.20240803-5</text><g style="font-size: 13px;"><g style="font-size: 13px;"><rect x="150" y="51.584362139917694" width="440.9090909090908" height="12.510288065843621" fill="#4472c4"></rect><rect x="150" y="64.75308641975309" width="0.018378596296226176" height="12.510288065843621" fill="#ed7d31"></rect><rect x="150" y="77.92181069958848" width="0.00007809794601594589" height="12.510288065843621" fill="#a5a5a5"></rect><rect x="150" y="91.09053497942386" width="0.022444566108950143" height="12.510288065843621" fill="#ffc000"></rect><text class="label" x="599.4090909090908" y="60.084362139917694" font-size="10px">5,645,591x</text><text class="label" x="158.51837859629623" y="73.25308641975309" font-size="10px">235x</text><text class="label" x="158.50007809794602" y="86.42181069958848" font-size="10px">1x</text><text class="label" x="158.52244456610896" y="99.59053497942386" font-size="10px">287x</text><text class="label" x="595.9090909090908" y="61.584362139917694" font-size="8px"></text><text class="label" x="155.01837859629623" y="74.75308641975309" font-size="8px"></text><text class="label" x="155.00007809794602" y="87.92181069958848" font-size="8px"></text><text class="label" x="155.02244456610896" y="101.09053497942386" font-size="8px"></text></g><g style="font-size: 13px;"><rect x="150" y="110.84362139917695" width="42.63427892742658" height="12.510288065843621" fill="#4472c4"></rect><rect x="150" y="124.01234567901236" width="0.00858818148057241" height="12.510288065843621" fill="#ed7d31"></rect><rect x="150" y="137.18106995884773" width="0.00007809794601594589" height="12.510288065843621" fill="#a5a5a5"></rect><rect x="150" y="150.34979423868313" width="0.009703744055097753" height="12.510288065843621" fill="#ffc000"></rect><text class="label" x="201.13427892742658" y="119.34362139917695" font-size="10px">545,908x</text><text class="label" x="158.50858818148058" y="132.51234567901236" font-size="10px">110x</text><text class="label" x="158.50007809794602" y="145.68106995884773" font-size="10px">1x</text><text class="label" x="158.5097037440551" y="158.84979423868313" font-size="10px">124x</text><text class="label" x="197.63427892742658" y="120.84362139917695" font-size="8px"></text><text class="label" x="155.00858818148058" y="134.01234567901236" font-size="8px"></text><text class="label" x="155.00007809794602" y="147.18106995884773" font-size="8px"></text><text class="label" x="155.0097037440551" y="160.34979423868313" font-size="8px"></text></g><g style="font-size: 13px;"><rect x="150" y="170.10288065843622" width="6.768505739120384" height="12.510288065843621" fill="#4472c4"></rect><rect x="150" y="183.2716049382716" width="0.02048909999430449" height="12.510288065843621" fill="#ed7d31"></rect><rect x="150" y="196.440329218107" width="0.00007809794601594589" height="12.510288065843621" fill="#a5a5a5"></rect><rect x="150" y="209.6090534979424" width="0.004211107424445431" height="12.510288065843621" fill="#ffc000"></rect><text class="label" x="165.26850573912037" y="178.60288065843622" font-size="10px">86,667x</text><text class="label" x="158.5204890999943" y="191.7716049382716" font-size="10px">262x</text><text class="label" x="158.50007809794602" y="204.940329218107" font-size="10px">1x</text><text class="label" x="158.50421110742445" y="218.1090534979424" font-size="10px">54x</text><text class="label" x="161.76850573912037" y="180.10288065843622" font-size="8px"></text><text class="label" x="155.0204890999943" y="193.2716049382716" font-size="8px"></text><text class="label" x="155.00007809794602" y="206.440329218107" font-size="8px"></text><text class="label" x="155.00421110742445" y="219.6090534979424" font-size="8px"></text></g><g style="font-size: 13px;"><rect x="150" y="229.36213991769546" width="3.0573796741020662" height="12.510288065843621" fill="#4472c4"></rect><rect x="150" y="242.53086419753086" width="0.008517015755170351" height="12.510288065843621" fill="#ed7d31"></rect><rect x="150" y="255.69958847736626" width="0.00007809794601594589" height="12.510288065843621" fill="#a5a5a5"></rect><rect x="150" y="268.86831275720164" width="0.008977500321085777" height="12.510288065843621" fill="#ffc000"></rect><text class="label" x="161.55737967410207" y="237.86213991769546" font-size="10px">39,148x</text><text class="label" x="158.50851701575516" y="251.03086419753086" font-size="10px">109x</text><text class="label" x="158.50007809794602" y="264.19958847736626" font-size="10px">1x</text><text class="label" x="158.5089775003211" y="277.36831275720164" font-size="10px">115x</text><text class="label" x="158.05737967410207" y="239.36213991769546" font-size="8px"></text><text class="label" x="155.00851701575516" y="252.53086419753086" font-size="8px"></text><text class="label" x="155.00007809794602" y="265.69958847736626" font-size="8px"></text><text class="label" x="155.0089775003211" y="278.86831275720164" font-size="8px"></text></g><g style="font-size: 13px;"><rect x="150" y="288.6213991769547" width="5.196613219445815" height="12.510288065843621" fill="#4472c4"></rect><rect x="150" y="301.7901234567901" width="0.028098666740507316" height="12.510288065843621" fill="#ed7d31"></rect><rect x="150" y="314.9588477366255" width="0.00007809794601594589" height="12.510288065843621" fill="#a5a5a5"></rect><rect x="150" y="328.12757201646093" width="0.009168943179413875" height="12.510288065843621" fill="#ffc000"></rect><text class="label" x="163.69661321944582" y="297.1213991769547" font-size="10px">66,540x</text><text class="label" x="158.5280986667405" y="310.2901234567901" font-size="10px">360x</text><text class="label" x="158.50007809794602" y="323.4588477366255" font-size="10px">1x</text><text class="label" x="158.50916894317942" y="336.62757201646093" font-size="10px">117x</text><text class="label" x="160.19661321944582" y="298.6213991769547" font-size="8px"></text><text class="label" x="155.0280986667405" y="311.7901234567901" font-size="8px"></text><text class="label" x="155.00007809794602" y="324.9588477366255" font-size="8px"></text><text class="label" x="155.00916894317942" y="338.12757201646093" font-size="8px"></text></g><g style="font-size: 13px;"><rect x="150" y="347.880658436214" width="0.3878270169335808" height="12.510288065843621" fill="#4472c4"></rect><rect x="150" y="361.04938271604937" width="0.009089664432196009" height="12.510288065843621" fill="#ed7d31"></rect><rect x="150" y="374.2181069958848" width="0.00007809794601594589" height="12.510288065843621" fill="#a5a5a5"></rect><rect x="150" y="387.38683127572017" width="0.00033392890248184034" height="12.510288065843621" fill="#ffc000"></rect><text class="label" x="158.88782701693358" y="356.380658436214" font-size="10px">4,966x</text><text class="label" x="158.5090896644322" y="369.54938271604937" font-size="10px">116x</text><text class="label" x="158.50007809794602" y="382.7181069958848" font-size="10px">1x</text><text class="label" x="158.50033392890248" y="395.88683127572017" font-size="10px">4x</text><text class="label" x="155.38782701693358" y="357.880658436214" font-size="8px"></text><text class="label" x="155.0090896644322" y="371.04938271604937" font-size="8px"></text><text class="label" x="155.00007809794602" y="384.2181069958848" font-size="8px"></text><text class="label" x="155.00033392890248" y="397.38683127572017" font-size="8px"></text></g><g style="font-size: 13px;"><rect x="150" y="407.13991769547323" width="0.2802506651156596" height="12.510288065843621" fill="#4472c4"></rect><rect x="150" y="420.3086419753086" width="0.022194677918285593" height="12.510288065843621" fill="#ed7d31"></rect><rect x="150" y="433.47736625514403" width="0.00007809794601594589" height="12.510288065843621" fill="#a5a5a5"></rect><rect x="150" y="446.6460905349794" width="0.0003380015959523822" height="12.510288065843621" fill="#ffc000"></rect><text class="label" x="158.78025066511566" y="415.63991769547323" font-size="10px">3,588x</text><text class="label" x="158.5221946779183" y="428.8086419753086" font-size="10px">284x</text><text class="label" x="158.50007809794602" y="441.97736625514403" font-size="10px">1x</text><text class="label" x="158.50033800159596" y="455.1460905349794" font-size="10px">4x</text><text class="label" x="155.28025066511566" y="417.13991769547323" font-size="8px"></text><text class="label" x="155.0221946779183" y="430.3086419753086" font-size="8px"></text><text class="label" x="155.00007809794602" y="443.47736625514403" font-size="8px"></text><text class="label" x="155.00033800159596" y="456.6460905349794" font-size="8px"></text></g><g style="font-size: 13px;"><rect x="150" y="466.3991769547325" width="0.5898322399847017" height="12.510288065843621" fill="#4472c4"></rect><rect x="150" y="479.5679012345679" width="0.013991760110073914" height="12.510288065843621" fill="#ed7d31"></rect><rect x="150" y="492.73662551440333" width="0.00007809794601594589" height="12.510288065843621" fill="#a5a5a5"></rect><rect x="150" y="505.9053497942387" width="0.00368181278636513" height="12.510288065843621" fill="#ffc000"></rect><text class="label" x="159.0898322399847" y="474.8991769547325" font-size="10px">7,552x</text><text class="label" x="158.5139917601101" y="488.0679012345679" font-size="10px">179x</text><text class="label" x="158.50007809794602" y="501.23662551440333" font-size="10px">1x</text><text class="label" x="158.50368181278637" y="514.4053497942386" font-size="10px">47x</text><text class="label" x="155.5898322399847" y="476.3991769547325" font-size="8px"></text><text class="label" x="155.0139917601101" y="489.5679012345679" font-size="8px"></text><text class="label" x="155.00007809794602" y="502.73662551440333" font-size="8px"></text><text class="label" x="155.00368181278637" y="515.9053497942386" font-size="8px"></text></g></g></svg>