<svg xmlns="http://www.w3.org/2000/svg" xmlns:xlink="http://www.w3.org/1999/xlink" width="800" height="674" style="background-color: white;"><g class="y axis" transform="translate(149,45)" fill="none" font-size="10" font-family="sans-serif" text-anchor="end" style="font-size: 13px;"><path class="domain" stroke="currentColor" d="M0.5,0.5V480.5"></path><g class="tick" opacity="1" transform="translate(0,32.592592592592595)" style="font-size: 13px;"><line stroke="currentColor" x2="0"></line><text fill="currentColor" x="-3" dy="0.32em">object (simple)    </text></g><g class="tick" opacity="1" transform="translate(0,91.85185185185186)" style="font-size: 13px;"><line stroke="currentColor" x2="0"></line><text fill="currentColor" x="-3" dy="0.32em">object (hierarchical)    </text></g><g class="tick" opacity="1" transform="translate(0,151.11111111111111)" style="font-size: 13px;"><line stroke="currentColor" x2="0"></line><text fill="currentColor" x="-3" dy="0.32em">object (recursive)    </text></g><g class="tick" opacity="1" transform="translate(0,210.37037037037035)" style="font-size: 13px;"><line stroke="currentColor" x2="0"></line><text fill="currentColor" x="-3" dy="0.32em">object (union, explicit)    </text></g><g class="tick" opacity="1" transform="translate(0,269.6296296296296)" style="font-size: 13px;"><line stroke="currentColor" x2="0"></line><text fill="currentColor" x="-3" dy="0.32em">array (simple)    </text></g><g class="tick" opacity="1" transform="translate(0,328.8888888888889)" style="font-size: 13px;"><line stroke="currentColor" x2="0"></line><text fill="currentColor" x="-3" dy="0.32em">array (hierarchical)    </text></g><g class="tick" opacity="1" transform="translate(0,388.14814814814815)" style="font-size: 13px;"><line stroke="currentColor" x2="0"></line><text fill="currentColor" x="-3" dy="0.32em">array (recursive)    </text></g><g class="tick" opacity="1" transform="translate(0,447.40740740740745)" style="font-size: 13px;"><line stroke="currentColor" x2="0"></line><text fill="currentColor" x="-3" dy="0.32em">array (union, explicit)    </text></g></g><g class="x axis" transform="translate(149,525)" fill="none" font-size="10" font-family="sans-serif" text-anchor="middle" style="font-size: 13px;"><path class="domain" stroke="currentColor" d="M0.5,0.5H485.5"></path><g class="tick" opacity="1" transform="translate(0.5,0)" style="font-size: 13px;"><line stroke="currentColor" y2="6"></line><text fill="currentColor" y="9" dy="0.71em">0x</text></g><g class="tick" opacity="1" transform="translate(75.43603008090506,0)" style="font-size: 13px;"><line stroke="currentColor" y2="6"></line><text fill="currentColor" y="9" dy="0.71em">1,000,000x</text></g><g class="tick" opacity="1" transform="translate(150.3720601618101,0)" style="font-size: 13px;"><line stroke="currentColor" y2="6"></line><text fill="currentColor" y="9" dy="0.71em">2,000,000x</text></g><g class="tick" opacity="1" transform="translate(225.30809024271517,0)" style="font-size: 13px;"><line stroke="currentColor" y2="6"></line><text fill="currentColor" y="9" dy="0.71em">3,000,000x</text></g><g class="tick" opacity="1" transform="translate(300.2441203236202,0)" style="font-size: 13px;"><line stroke="currentColor" y2="6"></line><text fill="currentColor" y="9" dy="0.71em">4,000,000x</text></g><g class="tick" opacity="1" transform="translate(375.1801504045253,0)" style="font-size: 13px;"><line stroke="currentColor" y2="6"></line><text fill="currentColor" y="9" dy="0.71em">5,000,000x</text></g><g class="tick" opacity="1" transform="translate(450.11618048543033,0)" style="font-size: 13px;"><line stroke="currentColor" y2="6"></line><text fill="currentColor" y="9" dy="0.71em">6,000,000x</text></g></g><text transform="translate(400, 30)" style="text-anchor: middle; font-size: 20px; font-weight: bold;">optimizer benchmark</text><rect x="650" y="125" width="230" height="5" fill="gray"></rect><rect x="645" y="35" width="230" height="90" fill="none" stroke="black"></rect><rect x="655" y="45" width="10" height="10" style="fill: #4472c4;"></rect><text x="670" y="55" style="font-size: 12px;">typia</text><rect x="655" y="65" width="10" height="10" style="fill: #ed7d31;"></rect><text x="670" y="75" style="font-size: 12px;">typebox</text><rect x="655" y="85" width="10" height="10" style="fill: #a5a5a5;"></rect><text x="670" y="95" style="font-size: 12px;">ajv</text><rect x="655" y="105" width="10" height="10" style="fill: #ffc000;"></rect><text x="670" y="115" style="font-size: 12px;">class-validator</text><text x="20" y="589" style="font-size: 12px;">  - CPU: AMD Ryzen 9 7940HS w/ Radeon 780M Graphics</text><text x="20" y="606" style="font-size: 12px;">  - OS: win32</text><text x="20" y="623" style="font-size: 12px;">  - RAM: 31 GB</text><text x="20" y="640" style="font-size: 12px;">  - NodeJS version: v20.10.0</text><text x="20" y="657" style="font-size: 12px;">  - Typia version: v5.5.7</text><g style="font-size: 13px;"><g style="font-size: 13px;"><rect x="150" y="51.584362139917694" width="440.9090909090909" height="12.510288065843621" fill="#4472c4"></rect><rect x="150" y="64.75308641975309" width="0.01934271008582365" height="12.510288065843621" fill="#ed7d31"></rect><rect x="150" y="77.92181069958848" width="0.00007493603008090507" height="12.510288065843621" fill="#a5a5a5"></rect><rect x="150" y="91.09053497942386" width="0.02173840271264211" height="12.510288065843621" fill="#ffc000"></rect><text class="label" x="599.4090909090909" y="60.084362139917694" font-size="10px">5,883,806x</text><text class="label" x="158.51934271008582" y="73.25308641975309" font-size="10px">258x</text><text class="label" x="158.50007493603007" y="86.42181069958848" font-size="10px">1x</text><text class="label" x="158.52173840271263" y="99.59053497942386" font-size="10px">290x</text><text class="label" x="595.9090909090909" y="61.584362139917694" font-size="8px"></text><text class="label" x="155.01934271008582" y="74.75308641975309" font-size="8px"></text><text class="label" x="155.00007493603007" y="87.92181069958848" font-size="8px"></text><text class="label" x="155.02173840271263" y="101.09053497942386" font-size="8px"></text></g><g style="font-size: 13px;"><rect x="150" y="110.84362139917695" width="19.056511586184477" height="12.510288065843621" fill="#4472c4"></rect><rect x="150" y="124.01234567901236" width="0.00783555860964574" height="12.510288065843621" fill="#ed7d31"></rect><rect x="150" y="137.18106995884773" width="0.00007493603008090507" height="12.510288065843621" fill="#a5a5a5"></rect><rect x="150" y="150.34979423868313" width="0.009163400275822653" height="12.510288065843621" fill="#ffc000"></rect><text class="label" x="177.55651158618448" y="119.34362139917695" font-size="10px">254,304x</text><text class="label" x="158.50783555860966" y="132.51234567901236" font-size="10px">105x</text><text class="label" x="158.50007493603007" y="145.68106995884773" font-size="10px">1x</text><text class="label" x="158.5091634002758" y="158.84979423868313" font-size="10px">122x</text><text class="label" x="174.05651158618448" y="120.84362139917695" font-size="8px"></text><text class="label" x="155.00783555860966" y="134.01234567901236" font-size="8px"></text><text class="label" x="155.00007493603007" y="147.18106995884773" font-size="8px"></text><text class="label" x="155.0091634002758" y="160.34979423868313" font-size="8px"></text></g><g style="font-size: 13px;"><rect x="150" y="170.10288065843622" width="5.125783111949723" height="12.510288065843621" fill="#4472c4"></rect><rect x="150" y="183.2716049382716" width="0.021231274588248177" height="12.510288065843621" fill="#ed7d31"></rect><rect x="150" y="196.440329218107" width="0.00007493603008090507" height="12.510288065843621" fill="#a5a5a5"></rect><rect x="150" y="209.6090534979424" width="0.004092930774265428" height="12.510288065843621" fill="#ffc000"></rect><text class="label" x="163.62578311194972" y="178.60288065843622" font-size="10px">68,402x</text><text class="label" x="158.52123127458825" y="191.7716049382716" font-size="10px">283x</text><text class="label" x="158.50007493603007" y="204.940329218107" font-size="10px">1x</text><text class="label" x="158.50409293077428" y="218.1090534979424" font-size="10px">55x</text><text class="label" x="160.12578311194972" y="180.10288065843622" font-size="8px"></text><text class="label" x="155.02123127458825" y="193.2716049382716" font-size="8px"></text><text class="label" x="155.00007493603007" y="206.440329218107" font-size="8px"></text><text class="label" x="155.00409293077428" y="219.6090534979424" font-size="8px"></text></g><g style="font-size: 13px;"><rect x="150" y="229.36213991769546" width="1.911129088923277" height="12.510288065843621" fill="#4472c4"></rect><rect x="150" y="242.53086419753086" width="0.008253770396719783" height="12.510288065843621" fill="#ed7d31"></rect><rect x="150" y="255.69958847736626" width="0.00007493603008090507" height="12.510288065843621" fill="#a5a5a5"></rect><rect x="150" y="268.86831275720164" width="0.008546369994209985" height="12.510288065843621" fill="#ffc000"></rect><text class="label" x="160.41112908892327" y="237.86213991769546" font-size="10px">25,503x</text><text class="label" x="158.50825377039672" y="251.03086419753086" font-size="10px">110x</text><text class="label" x="158.50007493603007" y="264.19958847736626" font-size="10px">1x</text><text class="label" x="158.5085463699942" y="277.36831275720164" font-size="10px">114x</text><text class="label" x="156.91112908892327" y="239.36213991769546" font-size="8px"></text><text class="label" x="155.00825377039672" y="252.53086419753086" font-size="8px"></text><text class="label" x="155.00007493603007" y="265.69958847736626" font-size="8px"></text><text class="label" x="155.0085463699942" y="278.86831275720164" font-size="8px"></text></g><g style="font-size: 13px;"><rect x="150" y="288.6213991769547" width="7.307690943538126" height="12.510288065843621" fill="#4472c4"></rect><rect x="150" y="301.7901234567901" width="0.043515071016442766" height="12.510288065843621" fill="#ed7d31"></rect><rect x="150" y="314.9588477366255" width="0.00007493603008090507" height="12.510288065843621" fill="#a5a5a5"></rect><rect x="150" y="328.12757201646093" width="0.019559490353176327" height="12.510288065843621" fill="#ffc000"></rect><text class="label" x="165.80769094353812" y="297.1213991769547" font-size="10px">97,519x</text><text class="label" x="158.54351507101643" y="310.2901234567901" font-size="10px">581x</text><text class="label" x="158.50007493603007" y="323.4588477366255" font-size="10px">1x</text><text class="label" x="158.51955949035317" y="336.62757201646093" font-size="10px">261x</text><text class="label" x="162.30769094353812" y="298.6213991769547" font-size="8px"></text><text class="label" x="155.04351507101643" y="311.7901234567901" font-size="8px"></text><text class="label" x="155.00007493603007" y="324.9588477366255" font-size="8px"></text><text class="label" x="155.01955949035317" y="338.12757201646093" font-size="8px"></text></g><g style="font-size: 13px;"><rect x="150" y="347.880658436214" width="0.25103365903787506" height="12.510288065843621" fill="#4472c4"></rect><rect x="150" y="361.04938271604937" width="0.014125837608928857" height="12.510288065843621" fill="#ed7d31"></rect><rect x="150" y="374.2181069958848" width="0.00007493603008090507" height="12.510288065843621" fill="#a5a5a5"></rect><rect x="150" y="387.38683127572017" width="0.0003101088643972682" height="12.510288065843621" fill="#ffc000"></rect><text class="label" x="158.7510336590379" y="356.380658436214" font-size="10px">3,350x</text><text class="label" x="158.51412583760893" y="369.54938271604937" font-size="10px">189x</text><text class="label" x="158.50007493603007" y="382.7181069958848" font-size="10px">1x</text><text class="label" x="158.5003101088644" y="395.88683127572017" font-size="10px">4x</text><text class="label" x="155.2510336590379" y="357.880658436214" font-size="8px"></text><text class="label" x="155.01412583760893" y="371.04938271604937" font-size="8px"></text><text class="label" x="155.00007493603007" y="384.2181069958848" font-size="8px"></text><text class="label" x="155.0003101088644" y="397.38683127572017" font-size="8px"></text></g><g style="font-size: 13px;"><rect x="150" y="407.13991769547323" width="0.22256669585598232" height="12.510288065843621" fill="#4472c4"></rect><rect x="150" y="420.3086419753086" width="0.021455191892258706" height="12.510288065843621" fill="#ed7d31"></rect><rect x="150" y="433.47736625514403" width="0.00007493603008090507" height="12.510288065843621" fill="#a5a5a5"></rect><rect x="150" y="446.6460905349794" width="0.0002198230582138486" height="12.510288065843621" fill="#ffc000"></rect><text class="label" x="158.722566695856" y="415.63991769547323" font-size="10px">2,970x</text><text class="label" x="158.52145519189227" y="428.8086419753086" font-size="10px">286x</text><text class="label" x="158.50007493603007" y="441.97736625514403" font-size="10px">1x</text><text class="label" x="158.50021982305822" y="455.1460905349794" font-size="10px">3x</text><text class="label" x="155.222566695856" y="417.13991769547323" font-size="8px"></text><text class="label" x="155.02145519189227" y="430.3086419753086" font-size="8px"></text><text class="label" x="155.00007493603007" y="443.47736625514403" font-size="8px"></text><text class="label" x="155.00021982305822" y="456.6460905349794" font-size="8px"></text></g><g style="font-size: 13px;"><rect x="150" y="466.3991769547325" width="0.5086101539182679" height="12.510288065843621" fill="#4472c4"></rect><rect x="150" y="479.5679012345679" width="0.013055556477383944" height="12.510288065843621" fill="#ed7d31"></rect><rect x="150" y="492.73662551440333" width="0.00007493603008090507" height="12.510288065843621" fill="#a5a5a5"></rect><rect x="150" y="505.9053497942387" width="0.0017969896020140527" height="12.510288065843621" fill="#ffc000"></rect><text class="label" x="159.00861015391826" y="474.8991769547325" font-size="10px">6,787x</text><text class="label" x="158.51305555647738" y="488.0679012345679" font-size="10px">174x</text><text class="label" x="158.50007493603007" y="501.23662551440333" font-size="10px">1x</text><text class="label" x="158.501796989602" y="514.4053497942386" font-size="10px">24x</text><text class="label" x="155.50861015391826" y="476.3991769547325" font-size="8px"></text><text class="label" x="155.01305555647738" y="489.5679012345679" font-size="8px"></text><text class="label" x="155.00007493603007" y="502.73662551440333" font-size="8px"></text><text class="label" x="155.001796989602" y="515.9053497942386" font-size="8px"></text></g></g></svg>