<svg xmlns="http://www.w3.org/2000/svg" xmlns:xlink="http://www.w3.org/1999/xlink" width="800" height="794" style="background-color: white;"><g class="y axis" transform="translate(149,45)" fill="none" font-size="10" font-family="sans-serif" text-anchor="end" style="font-size: 13px;"><path class="domain" stroke="currentColor" d="M0.5,0.5V600.5"></path><g class="tick" opacity="1" transform="translate(0,40.740740740740726)" style="font-size: 13px;"><line stroke="currentColor" x2="0"></line><text fill="currentColor" x="-3" dy="0.32em">object (simple)    </text></g><g class="tick" opacity="1" transform="translate(0,114.81481481481481)" style="font-size: 13px;"><line stroke="currentColor" x2="0"></line><text fill="currentColor" x="-3" dy="0.32em">object (hierarchical)    </text></g><g class="tick" opacity="1" transform="translate(0,188.88888888888889)" style="font-size: 13px;"><line stroke="currentColor" x2="0"></line><text fill="currentColor" x="-3" dy="0.32em">object (recursive)    </text></g><g class="tick" opacity="1" transform="translate(0,262.96296296296293)" style="font-size: 13px;"><line stroke="currentColor" x2="0"></line><text fill="currentColor" x="-3" dy="0.32em">object (union, explicit)    </text></g><g class="tick" opacity="1" transform="translate(0,337.037037037037)" style="font-size: 13px;"><line stroke="currentColor" x2="0"></line><text fill="currentColor" x="-3" dy="0.32em">array (simple)    </text></g><g class="tick" opacity="1" transform="translate(0,411.1111111111111)" style="font-size: 13px;"><line stroke="currentColor" x2="0"></line><text fill="currentColor" x="-3" dy="0.32em">array (hierarchical)    </text></g><g class="tick" opacity="1" transform="translate(0,485.18518518518516)" style="font-size: 13px;"><line stroke="currentColor" x2="0"></line><text fill="currentColor" x="-3" dy="0.32em">array (recursive)    </text></g><g class="tick" opacity="1" transform="translate(0,559.2592592592592)" style="font-size: 13px;"><line stroke="currentColor" x2="0"></line><text fill="currentColor" x="-3" dy="0.32em">array (union, explicit)    </text></g></g><g class="x axis" transform="translate(149,645)" fill="none" font-size="10" font-family="sans-serif" text-anchor="middle" style="font-size: 13px;"><path class="domain" stroke="currentColor" d="M0.5,0.5H485.5"></path><g class="tick" opacity="1" transform="translate(0.5,0)" style="font-size: 13px;"><line stroke="currentColor" y2="6"></line><text fill="currentColor" y="9" dy="0.71em">0x</text></g><g class="tick" opacity="1" transform="translate(93.95338855588547,0)" style="font-size: 13px;"><line stroke="currentColor" y2="6"></line><text fill="currentColor" y="9" dy="0.71em">5x</text></g><g class="tick" opacity="1" transform="translate(187.40677711177094,0)" style="font-size: 13px;"><line stroke="currentColor" y2="6"></line><text fill="currentColor" y="9" dy="0.71em">10x</text></g><g class="tick" opacity="1" transform="translate(280.8601656676564,0)" style="font-size: 13px;"><line stroke="currentColor" y2="6"></line><text fill="currentColor" y="9" dy="0.71em">15x</text></g><g class="tick" opacity="1" transform="translate(374.31355422354187,0)" style="font-size: 13px;"><line stroke="currentColor" y2="6"></line><text fill="currentColor" y="9" dy="0.71em">20x</text></g><g class="tick" opacity="1" transform="translate(467.7669427794274,0)" style="font-size: 13px;"><line stroke="currentColor" y2="6"></line><text fill="currentColor" y="9" dy="0.71em">25x</text></g></g><text transform="translate(400, 30)" style="text-anchor: middle; font-size: 20px; font-weight: bold;">server-assert benchmark</text><rect x="650" y="145" width="230" height="5" fill="gray"></rect><rect x="645" y="35" width="230" height="110" fill="none" stroke="black"></rect><rect x="655" y="45" width="10" height="10" style="fill: #4472c4;"></rect><text x="670" y="55" style="font-size: 12px;">fastify-typia</text><rect x="655" y="65" width="10" height="10" style="fill: #ed7d31;"></rect><text x="670" y="75" style="font-size: 12px;">fastify-pure</text><rect x="655" y="85" width="10" height="10" style="fill: #a5a5a5;"></rect><text x="670" y="95" style="font-size: 12px;">fastify-class-transformer</text><rect x="655" y="105" width="10" height="10" style="fill: #ffc000;"></rect><text x="670" y="115" style="font-size: 12px;">express-typia</text><rect x="655" y="125" width="10" height="10" style="fill: #5b9bd5;"></rect><text x="670" y="135" style="font-size: 12px;">express-class-transformer</text><text x="20" y="709" style="font-size: 12px;">  - CPU: AMD Ryzen 9 7940HS w/ Radeon 780M Graphics</text><text x="20" y="726" style="font-size: 12px;">  - OS: win32</text><text x="20" y="743" style="font-size: 12px;">  - RAM: 31 GB</text><text x="20" y="760" style="font-size: 12px;">  - NodeJS version: v20.10.0</text><text x="20" y="777" style="font-size: 12px;">  - Typia version: v6.0.0-dev.20240118</text><g style="font-size: 13px;"><g style="font-size: 13px;"><rect x="150" y="53.06747341400805" width="246.77962732694732" height="12.541254125412543" fill="#4472c4"></rect><rect x="150" y="66.26879354602124" width="253.8427898771541" height="12.541254125412543" fill="#ed7d31"></rect><rect x="150" y="79.47011367803445" width="19.317001757405777" height="12.541254125412543" fill="#a5a5a5"></rect><rect x="150" y="92.67143381004766" width="158.68317349557532" height="12.541254125412543" fill="#ffc000"></rect><rect x="150" y="105.87275394206085" width="18.690677711177095" height="12.541254125412543" fill="#5b9bd5"></rect><text class="label" x="405.2796273269473" y="61.56747341400805" font-size="10px">13.2x</text><text class="label" x="412.34278987715413" y="74.76879354602124" font-size="10px">13.58x</text><text class="label" x="177.81700175740576" y="87.97011367803445" font-size="10px">1.03x</text><text class="label" x="317.1831734955753" y="101.17143381004766" font-size="10px">8.49x</text><text class="label" x="177.1906777111771" y="114.37275394206085" font-size="10px">1x</text><text class="label" x="401.7796273269473" y="63.06747341400805" font-size="8px"></text><text class="label" x="408.84278987715413" y="76.26879354602124" font-size="8px"></text><text class="label" x="174.31700175740576" y="89.47011367803445" font-size="8px"></text><text class="label" x="313.6831734955753" y="102.67143381004766" font-size="8px"></text><text class="label" x="173.6906777111771" y="115.87275394206085" font-size="8px"></text></g><g style="font-size: 13px;"><rect x="150" y="127.14154748808213" width="270.37927100038496" height="12.541254125412543" fill="#4472c4"></rect><rect x="150" y="140.34286762009532" width="255.4003706488834" height="12.541254125412543" fill="#ed7d31"></rect><rect x="150" y="153.54418775210854" width="19.980378731616206" height="12.541254125412543" fill="#a5a5a5"></rect><rect x="150" y="166.74550788412174" width="210.6756619119498" height="12.541254125412543" fill="#ffc000"></rect><rect x="150" y="179.94682801613493" width="18.690677711177095" height="12.541254125412543" fill="#5b9bd5"></rect><text class="label" x="428.87927100038496" y="135.64154748808213" font-size="10px">14.47x</text><text class="label" x="413.9003706488834" y="148.84286762009532" font-size="10px">13.66x</text><text class="label" x="178.4803787316162" y="162.04418775210854" font-size="10px">1.07x</text><text class="label" x="369.17566191194976" y="175.24550788412174" font-size="10px">11.27x</text><text class="label" x="177.1906777111771" y="188.44682801613493" font-size="10px">1x</text><text class="label" x="425.37927100038496" y="137.14154748808213" font-size="8px"></text><text class="label" x="410.4003706488834" y="150.34286762009532" font-size="8px"></text><text class="label" x="174.9803787316162" y="163.54418775210854" font-size="8px"></text><text class="label" x="365.67566191194976" y="176.74550788412174" font-size="8px"></text><text class="label" x="173.6906777111771" y="189.94682801613493" font-size="8px"></text></g><g style="font-size: 13px;"><rect x="150" y="201.2156215621562" width="273.1960130044195" height="12.541254125412543" fill="#4472c4"></rect><rect x="150" y="214.4169416941694" width="260.3249391075881" height="12.541254125412543" fill="#ed7d31"></rect><rect x="150" y="227.61826182618262" width="18.690677711177095" height="12.541254125412543" fill="#a5a5a5"></rect><rect x="150" y="240.8195819581958" width="232.59765165923898" height="12.541254125412543" fill="#ffc000"></rect><rect x="150" y="254.020902090209" width="19.235822615838288" height="12.541254125412543" fill="#5b9bd5"></rect><text class="label" x="431.6960130044195" y="209.7156215621562" font-size="10px">14.62x</text><text class="label" x="418.8249391075881" y="222.9169416941694" font-size="10px">13.93x</text><text class="label" x="177.1906777111771" y="236.11826182618262" font-size="10px">1x</text><text class="label" x="391.097651659239" y="249.3195819581958" font-size="10px">12.44x</text><text class="label" x="177.7358226158383" y="262.520902090209" font-size="10px">1.03x</text><text class="label" x="428.1960130044195" y="211.2156215621562" font-size="8px"></text><text class="label" x="415.3249391075881" y="224.4169416941694" font-size="8px"></text><text class="label" x="173.6906777111771" y="237.61826182618262" font-size="8px"></text><text class="label" x="387.597651659239" y="250.8195819581958" font-size="8px"></text><text class="label" x="174.2358226158383" y="264.020902090209" font-size="8px"></text></g><g style="font-size: 13px;"><rect x="150" y="275.28969563623025" width="440.9090909090908" height="12.541254125412543" fill="#4472c4"></rect><rect x="150" y="288.49101576824347" width="283.2465616482529" height="12.541254125412543" fill="#ed7d31"></rect><rect x="150" y="301.6923359002567" width="19.51478973109253" height="12.541254125412543" fill="#a5a5a5"></rect><rect x="150" y="314.89365603226986" width="354.0503098841839" height="12.541254125412543" fill="#ffc000"></rect><rect x="150" y="328.0949761642831" width="18.690677711177095" height="12.541254125412543" fill="#5b9bd5"></rect><text class="label" x="599.4090909090908" y="283.78969563623025" font-size="10px">23.59x</text><text class="label" x="441.7465616482529" y="296.99101576824347" font-size="10px">15.15x</text><text class="label" x="178.01478973109252" y="310.1923359002567" font-size="10px">1.04x</text><text class="label" x="512.5503098841839" y="323.39365603226986" font-size="10px">18.94x</text><text class="label" x="177.1906777111771" y="336.5949761642831" font-size="10px">1x</text><text class="label" x="595.9090909090908" y="285.28969563623025" font-size="8px"></text><text class="label" x="438.2465616482529" y="298.49101576824347" font-size="8px"></text><text class="label" x="174.51478973109252" y="311.6923359002567" font-size="8px"></text><text class="label" x="509.0503098841839" y="324.89365603226986" font-size="8px"></text><text class="label" x="173.6906777111771" y="338.0949761642831" font-size="8px"></text></g><g style="font-size: 13px;"><rect x="150" y="349.3637697103044" width="261.26452237182536" height="12.541254125412543" fill="#4472c4"></rect><rect x="150" y="362.56508984231755" width="265.75991609371346" height="12.541254125412543" fill="#ed7d31"></rect><rect x="150" y="375.76640997433077" width="18.690677711177095" height="12.541254125412543" fill="#a5a5a5"></rect><rect x="150" y="388.967730106344" width="224.57159504339594" height="12.541254125412543" fill="#ffc000"></rect><rect x="150" y="402.16905023835716" width="18.799205381762576" height="12.541254125412543" fill="#5b9bd5"></rect><text class="label" x="419.76452237182536" y="357.8637697103044" font-size="10px">13.98x</text><text class="label" x="424.25991609371346" y="371.06508984231755" font-size="10px">14.22x</text><text class="label" x="177.1906777111771" y="384.26640997433077" font-size="10px">1x</text><text class="label" x="383.071595043396" y="397.467730106344" font-size="10px">12.02x</text><text class="label" x="177.2992053817626" y="410.66905023835716" font-size="10px">1.01x</text><text class="label" x="416.26452237182536" y="359.3637697103044" font-size="8px"></text><text class="label" x="420.75991609371346" y="372.56508984231755" font-size="8px"></text><text class="label" x="173.6906777111771" y="385.76640997433077" font-size="8px"></text><text class="label" x="379.571595043396" y="398.967730106344" font-size="8px"></text><text class="label" x="173.7992053817626" y="412.16905023835716" font-size="8px"></text></g><g style="font-size: 13px;"><rect x="150" y="423.4378437843784" width="319.53407257660297" height="12.541254125412543" fill="#4472c4"></rect><rect x="150" y="436.6391639163916" width="433.7131633370057" height="12.541254125412543" fill="#ed7d31"></rect><rect x="150" y="449.84048404840485" width="22.03604174612434" height="12.541254125412543" fill="#a5a5a5"></rect><rect x="150" y="463.041804180418" width="323.212988193906" height="12.541254125412543" fill="#ffc000"></rect><rect x="150" y="476.24312431243123" width="18.690677711177095" height="12.541254125412543" fill="#5b9bd5"></rect><text class="label" x="478.03407257660297" y="431.9378437843784" font-size="10px">17.1x</text><text class="label" x="592.2131633370057" y="445.1391639163916" font-size="10px">23.2x</text><text class="label" x="180.53604174612434" y="458.34048404840485" font-size="10px">1.18x</text><text class="label" x="481.712988193906" y="471.541804180418" font-size="10px">17.29x</text><text class="label" x="177.1906777111771" y="484.74312431243123" font-size="10px">1x</text><text class="label" x="474.53407257660297" y="433.4378437843784" font-size="8px"></text><text class="label" x="588.7131633370057" y="446.6391639163916" font-size="8px"></text><text class="label" x="177.03604174612434" y="459.84048404840485" font-size="8px"></text><text class="label" x="478.212988193906" y="473.041804180418" font-size="8px"></text><text class="label" x="173.6906777111771" y="486.24312431243123" font-size="8px"></text></g><g style="font-size: 13px;"><rect x="150" y="497.51191785845253" width="283.3083744621438" height="12.541254125412543" fill="#4472c4"></rect><rect x="150" y="510.7132379904657" width="277.8463382413786" height="12.541254125412543" fill="#ed7d31"></rect><rect x="150" y="523.9145581224789" width="19.155276472274732" height="12.541254125412543" fill="#a5a5a5"></rect><rect x="150" y="537.1158782544921" width="258.6287793952793" height="12.541254125412543" fill="#ffc000"></rect><rect x="150" y="550.3171983865053" width="18.690677711177095" height="12.541254125412543" fill="#5b9bd5"></rect><text class="label" x="441.8083744621438" y="506.01191785845253" font-size="10px">15.16x</text><text class="label" x="436.3463382413786" y="519.2132379904657" font-size="10px">14.87x</text><text class="label" x="177.65527647227472" y="532.4145581224789" font-size="10px">1.02x</text><text class="label" x="417.1287793952793" y="545.6158782544921" font-size="10px">13.84x</text><text class="label" x="177.1906777111771" y="558.8171983865053" font-size="10px">1x</text><text class="label" x="438.3083744621438" y="507.51191785845253" font-size="8px"></text><text class="label" x="432.8463382413786" y="520.7132379904657" font-size="8px"></text><text class="label" x="174.15527647227472" y="533.9145581224789" font-size="8px"></text><text class="label" x="413.6287793952793" y="547.1158782544921" font-size="8px"></text><text class="label" x="173.6906777111771" y="560.3171983865053" font-size="8px"></text></g><g style="font-size: 13px;"><rect x="150" y="571.5859919325266" width="347.86051357865165" height="12.541254125412543" fill="#4472c4"></rect><rect x="150" y="584.7873120645397" width="216.6561831920589" height="12.541254125412543" fill="#ed7d31"></rect><rect x="150" y="597.9886321965529" width="18.690677711177095" height="12.541254125412543" fill="#a5a5a5"></rect><rect x="150" y="611.1899523285662" width="337.91420037271956" height="12.541254125412543" fill="#ffc000"></rect><rect x="150" y="624.3912724605793" width="19.299131943364483" height="12.541254125412543" fill="#5b9bd5"></rect><text class="label" x="506.36051357865165" y="580.0859919325266" font-size="10px">18.61x</text><text class="label" x="375.1561831920589" y="593.2873120645397" font-size="10px">11.59x</text><text class="label" x="177.1906777111771" y="606.4886321965529" font-size="10px">1x</text><text class="label" x="496.41420037271956" y="619.6899523285662" font-size="10px">18.08x</text><text class="label" x="177.79913194336447" y="632.8912724605793" font-size="10px">1.03x</text><text class="label" x="502.86051357865165" y="581.5859919325266" font-size="8px"></text><text class="label" x="371.6561831920589" y="594.7873120645397" font-size="8px"></text><text class="label" x="173.6906777111771" y="607.9886321965529" font-size="8px"></text><text class="label" x="492.91420037271956" y="621.1899523285662" font-size="8px"></text><text class="label" x="174.29913194336447" y="634.3912724605793" font-size="8px"></text></g></g></svg>