<svg xmlns="http://www.w3.org/2000/svg" xmlns:xlink="http://www.w3.org/1999/xlink" width="800" height="794" style="background-color: white;"><g class="y axis" transform="translate(149,45)" fill="none" font-size="10" font-family="sans-serif" text-anchor="end" style="font-size: 13px;"><path class="domain" stroke="currentColor" d="M0.5,0.5V600.5"></path><g class="tick" opacity="1" transform="translate(0,40.740740740740726)" style="font-size: 13px;"><line stroke="currentColor" x2="0"></line><text fill="currentColor" x="-3" dy="0.32em">object (simple)    </text></g><g class="tick" opacity="1" transform="translate(0,114.81481481481481)" style="font-size: 13px;"><line stroke="currentColor" x2="0"></line><text fill="currentColor" x="-3" dy="0.32em">object (hierarchical)    </text></g><g class="tick" opacity="1" transform="translate(0,188.88888888888889)" style="font-size: 13px;"><line stroke="currentColor" x2="0"></line><text fill="currentColor" x="-3" dy="0.32em">object (recursive)    </text></g><g class="tick" opacity="1" transform="translate(0,262.96296296296293)" style="font-size: 13px;"><line stroke="currentColor" x2="0"></line><text fill="currentColor" x="-3" dy="0.32em">object (union, explicit)    </text></g><g class="tick" opacity="1" transform="translate(0,337.037037037037)" style="font-size: 13px;"><line stroke="currentColor" x2="0"></line><text fill="currentColor" x="-3" dy="0.32em">array (simple)    </text></g><g class="tick" opacity="1" transform="translate(0,411.1111111111111)" style="font-size: 13px;"><line stroke="currentColor" x2="0"></line><text fill="currentColor" x="-3" dy="0.32em">array (hierarchical)    </text></g><g class="tick" opacity="1" transform="translate(0,485.18518518518516)" style="font-size: 13px;"><line stroke="currentColor" x2="0"></line><text fill="currentColor" x="-3" dy="0.32em">array (recursive)    </text></g><g class="tick" opacity="1" transform="translate(0,559.2592592592592)" style="font-size: 13px;"><line stroke="currentColor" x2="0"></line><text fill="currentColor" x="-3" dy="0.32em">array (union, explicit)    </text></g></g><g class="x axis" transform="translate(149,645)" fill="none" font-size="10" font-family="sans-serif" text-anchor="middle" style="font-size: 13px;"><path class="domain" stroke="currentColor" d="M0.5,0.5H485.5"></path><g class="tick" opacity="1" transform="translate(0.5,0)" style="font-size: 13px;"><line stroke="currentColor" y2="6"></line><text fill="currentColor" y="9" dy="0.71em">0x</text></g><g class="tick" opacity="1" transform="translate(72.36720208625374,0)" style="font-size: 13px;"><line stroke="currentColor" y2="6"></line><text fill="currentColor" y="9" dy="0.71em">5x</text></g><g class="tick" opacity="1" transform="translate(144.23440417250748,0)" style="font-size: 13px;"><line stroke="currentColor" y2="6"></line><text fill="currentColor" y="9" dy="0.71em">10x</text></g><g class="tick" opacity="1" transform="translate(216.1016062587612,0)" style="font-size: 13px;"><line stroke="currentColor" y2="6"></line><text fill="currentColor" y="9" dy="0.71em">15x</text></g><g class="tick" opacity="1" transform="translate(287.96880834501496,0)" style="font-size: 13px;"><line stroke="currentColor" y2="6"></line><text fill="currentColor" y="9" dy="0.71em">20x</text></g><g class="tick" opacity="1" transform="translate(359.8360104312687,0)" style="font-size: 13px;"><line stroke="currentColor" y2="6"></line><text fill="currentColor" y="9" dy="0.71em">25x</text></g><g class="tick" opacity="1" transform="translate(431.7032125175224,0)" style="font-size: 13px;"><line stroke="currentColor" y2="6"></line><text fill="currentColor" y="9" dy="0.71em">30x</text></g></g><text transform="translate(400, 30)" style="text-anchor: middle; font-size: 20px; font-weight: bold;">server-performance benchmark</text><rect x="650" y="145" width="230" height="5" fill="gray"></rect><rect x="645" y="35" width="230" height="110" fill="none" stroke="black"></rect><rect x="655" y="45" width="10" height="10" style="fill: #4472c4;"></rect><text x="670" y="55" style="font-size: 12px;">fastify-typia</text><rect x="655" y="65" width="10" height="10" style="fill: #ed7d31;"></rect><text x="670" y="75" style="font-size: 12px;">fastify-pure</text><rect x="655" y="85" width="10" height="10" style="fill: #a5a5a5;"></rect><text x="670" y="95" style="font-size: 12px;">fastify-class-transformer</text><rect x="655" y="105" width="10" height="10" style="fill: #ffc000;"></rect><text x="670" y="115" style="font-size: 12px;">express-typia</text><rect x="655" y="125" width="10" height="10" style="fill: #5b9bd5;"></rect><text x="670" y="135" style="font-size: 12px;">express-class-transformer</text><text x="20" y="709" style="font-size: 12px;">  - CPU: AMD Ryzen 9 7940HS w/ Radeon 780M Graphics</text><text x="20" y="726" style="font-size: 12px;">  - OS: win32</text><text x="20" y="743" style="font-size: 12px;">  - RAM: 31 GB</text><text x="20" y="760" style="font-size: 12px;">  - NodeJS version: v20.10.0</text><text x="20" y="777" style="font-size: 12px;">  - Typia version: v5.5.7</text><g style="font-size: 13px;"><g style="font-size: 13px;"><rect x="150" y="53.06747341400805" width="189.7442796207202" height="12.541254125412543" fill="#4472c4"></rect><rect x="150" y="66.26879354602124" width="178.2299036653362" height="12.541254125412543" fill="#ed7d31"></rect><rect x="150" y="79.47011367803445" width="14.373440417250748" height="12.541254125412543" fill="#a5a5a5"></rect><rect x="150" y="92.67143381004766" width="118.54167195661826" height="12.541254125412543" fill="#ffc000"></rect><rect x="150" y="105.87275394206085" width="19.29033298094607" height="12.541254125412543" fill="#5b9bd5"></rect><text class="label" x="348.2442796207202" y="61.56747341400805" font-size="10px">13.2x</text><text class="label" x="336.7299036653362" y="74.76879354602124" font-size="10px">12.4x</text><text class="label" x="172.87344041725075" y="87.97011367803445" font-size="10px">1x</text><text class="label" x="277.04167195661825" y="101.17143381004766" font-size="10px">8.25x</text><text class="label" x="177.79033298094606" y="114.37275394206085" font-size="10px">1.34x</text><text class="label" x="344.7442796207202" y="63.06747341400805" font-size="8px"></text><text class="label" x="333.2299036653362" y="76.26879354602124" font-size="8px"></text><text class="label" x="169.37344041725075" y="89.47011367803445" font-size="8px"></text><text class="label" x="273.54167195661825" y="102.67143381004766" font-size="8px"></text><text class="label" x="174.29033298094606" y="115.87275394206085" font-size="8px"></text></g><g style="font-size: 13px;"><rect x="150" y="127.14154748808213" width="160.050459749899" height="12.541254125412543" fill="#4472c4"></rect><rect x="150" y="140.34286762009532" width="140.66685016944774" height="12.541254125412543" fill="#ed7d31"></rect><rect x="150" y="153.54418775210854" width="14.373440417250748" height="12.541254125412543" fill="#a5a5a5"></rect><rect x="150" y="166.74550788412174" width="128.577306332539" height="12.541254125412543" fill="#ffc000"></rect><rect x="150" y="179.94682801613493" width="20.225014983540856" height="12.541254125412543" fill="#5b9bd5"></rect><text class="label" x="318.550459749899" y="135.64154748808213" font-size="10px">11.14x</text><text class="label" x="299.16685016944774" y="148.84286762009532" font-size="10px">9.79x</text><text class="label" x="172.87344041725075" y="162.04418775210854" font-size="10px">1x</text><text class="label" x="287.077306332539" y="175.24550788412174" font-size="10px">8.95x</text><text class="label" x="178.72501498354086" y="188.44682801613493" font-size="10px">1.41x</text><text class="label" x="315.050459749899" y="137.14154748808213" font-size="8px"></text><text class="label" x="295.66685016944774" y="150.34286762009532" font-size="8px"></text><text class="label" x="169.37344041725075" y="163.54418775210854" font-size="8px"></text><text class="label" x="283.577306332539" y="176.74550788412174" font-size="8px"></text><text class="label" x="175.22501498354086" y="189.94682801613493" font-size="8px"></text></g><g style="font-size: 13px;"><rect x="150" y="201.2156215621562" width="187.87815776914653" height="12.541254125412543" fill="#4472c4"></rect><rect x="150" y="214.4169416941694" width="127.65749346372661" height="12.541254125412543" fill="#ed7d31"></rect><rect x="150" y="227.61826182618262" width="14.373440417250748" height="12.541254125412543" fill="#a5a5a5"></rect><rect x="150" y="240.8195819581958" width="161.60126643315672" height="12.541254125412543" fill="#ffc000"></rect><rect x="150" y="254.020902090209" width="20.053861640879152" height="12.541254125412543" fill="#5b9bd5"></rect><text class="label" x="346.3781577691465" y="209.7156215621562" font-size="10px">13.07x</text><text class="label" x="286.1574934637266" y="222.9169416941694" font-size="10px">8.88x</text><text class="label" x="172.87344041725075" y="236.11826182618262" font-size="10px">1x</text><text class="label" x="320.10126643315675" y="249.3195819581958" font-size="10px">11.24x</text><text class="label" x="178.55386164087915" y="262.520902090209" font-size="10px">1.4x</text><text class="label" x="342.8781577691465" y="211.2156215621562" font-size="8px"></text><text class="label" x="282.6574934637266" y="224.4169416941694" font-size="8px"></text><text class="label" x="169.37344041725075" y="237.61826182618262" font-size="8px"></text><text class="label" x="316.60126643315675" y="250.8195819581958" font-size="8px"></text><text class="label" x="175.05386164087915" y="264.020902090209" font-size="8px"></text></g><g style="font-size: 13px;"><rect x="150" y="275.28969563623025" width="440.9090909090908" height="12.541254125412543" fill="#4472c4"></rect><rect x="150" y="288.49101576824347" width="271.1882974629203" height="12.541254125412543" fill="#ed7d31"></rect><rect x="150" y="301.6923359002567" width="14.983573450134728" height="12.541254125412543" fill="#a5a5a5"></rect><rect x="150" y="314.89365603226986" width="362.3429632024596" height="12.541254125412543" fill="#ffc000"></rect><rect x="150" y="328.0949761642831" width="14.373440417250748" height="12.541254125412543" fill="#5b9bd5"></rect><text class="label" x="599.4090909090908" y="283.78969563623025" font-size="10px">30.68x</text><text class="label" x="429.6882974629203" y="296.99101576824347" font-size="10px">18.87x</text><text class="label" x="173.4835734501347" y="310.1923359002567" font-size="10px">1.04x</text><text class="label" x="520.8429632024596" y="323.39365603226986" font-size="10px">25.21x</text><text class="label" x="172.87344041725075" y="336.5949761642831" font-size="10px">1x</text><text class="label" x="595.9090909090908" y="285.28969563623025" font-size="8px"></text><text class="label" x="426.1882974629203" y="298.49101576824347" font-size="8px"></text><text class="label" x="169.9835734501347" y="311.6923359002567" font-size="8px"></text><text class="label" x="517.3429632024596" y="324.89365603226986" font-size="8px"></text><text class="label" x="169.37344041725075" y="338.0949761642831" font-size="8px"></text></g><g style="font-size: 13px;"><rect x="150" y="349.3637697103044" width="232.31104279365567" height="12.541254125412543" fill="#4472c4"></rect><rect x="150" y="362.56508984231755" width="208.57394471321666" height="12.541254125412543" fill="#ed7d31"></rect><rect x="150" y="375.76640997433077" width="15.143951863835722" height="12.541254125412543" fill="#a5a5a5"></rect><rect x="150" y="388.967730106344" width="211.2944100516524" height="12.541254125412543" fill="#ffc000"></rect><rect x="150" y="402.16905023835716" width="14.373440417250748" height="12.541254125412543" fill="#5b9bd5"></rect><text class="label" x="390.8110427936557" y="357.8637697103044" font-size="10px">16.16x</text><text class="label" x="367.07394471321663" y="371.06508984231755" font-size="10px">14.51x</text><text class="label" x="173.64395186383572" y="384.26640997433077" font-size="10px">1.05x</text><text class="label" x="369.7944100516524" y="397.467730106344" font-size="10px">14.7x</text><text class="label" x="172.87344041725075" y="410.66905023835716" font-size="10px">1x</text><text class="label" x="387.3110427936557" y="359.3637697103044" font-size="8px"></text><text class="label" x="363.57394471321663" y="372.56508984231755" font-size="8px"></text><text class="label" x="170.14395186383572" y="385.76640997433077" font-size="8px"></text><text class="label" x="366.2944100516524" y="398.967730106344" font-size="8px"></text><text class="label" x="169.37344041725075" y="412.16905023835716" font-size="8px"></text></g><g style="font-size: 13px;"><rect x="150" y="423.4378437843784" width="315.9823388661864" height="12.541254125412543" fill="#4472c4"></rect><rect x="150" y="436.6391639163916" width="191.3517843721227" height="12.541254125412543" fill="#ed7d31"></rect><rect x="150" y="449.84048404840485" width="14.652324892946021" height="12.541254125412543" fill="#a5a5a5"></rect><rect x="150" y="463.041804180418" width="354.15448140294495" height="12.541254125412543" fill="#ffc000"></rect><rect x="150" y="476.24312431243123" width="14.373440417250748" height="12.541254125412543" fill="#5b9bd5"></rect><text class="label" x="474.4823388661864" y="431.9378437843784" font-size="10px">21.98x</text><text class="label" x="349.85178437212267" y="445.1391639163916" font-size="10px">13.31x</text><text class="label" x="173.152324892946" y="458.34048404840485" font-size="10px">1.02x</text><text class="label" x="512.654481402945" y="471.541804180418" font-size="10px">24.64x</text><text class="label" x="172.87344041725075" y="484.74312431243123" font-size="10px">1x</text><text class="label" x="470.9823388661864" y="433.4378437843784" font-size="8px"></text><text class="label" x="346.35178437212267" y="446.6391639163916" font-size="8px"></text><text class="label" x="169.652324892946" y="459.84048404840485" font-size="8px"></text><text class="label" x="509.15448140294495" y="473.041804180418" font-size="8px"></text><text class="label" x="169.37344041725075" y="486.24312431243123" font-size="8px"></text></g><g style="font-size: 13px;"><rect x="150" y="497.51191785845253" width="172.88089447356774" height="12.541254125412543" fill="#4472c4"></rect><rect x="150" y="510.7132379904657" width="168.95267414032904" height="12.541254125412543" fill="#ed7d31"></rect><rect x="150" y="523.9145581224789" width="14.373440417250748" height="12.541254125412543" fill="#a5a5a5"></rect><rect x="150" y="537.1158782544921" width="163.06826344233573" height="12.541254125412543" fill="#ffc000"></rect><rect x="150" y="550.3171983865053" width="19.999487682154843" height="12.541254125412543" fill="#5b9bd5"></rect><text class="label" x="331.38089447356776" y="506.01191785845253" font-size="10px">12.03x</text><text class="label" x="327.452674140329" y="519.2132379904657" font-size="10px">11.75x</text><text class="label" x="172.87344041725075" y="532.4145581224789" font-size="10px">1x</text><text class="label" x="321.5682634423357" y="545.6158782544921" font-size="10px">11.35x</text><text class="label" x="178.49948768215484" y="558.8171983865053" font-size="10px">1.39x</text><text class="label" x="327.88089447356776" y="507.51191785845253" font-size="8px"></text><text class="label" x="323.952674140329" y="520.7132379904657" font-size="8px"></text><text class="label" x="169.37344041725075" y="533.9145581224789" font-size="8px"></text><text class="label" x="318.0682634423357" y="547.1158782544921" font-size="8px"></text><text class="label" x="174.99948768215484" y="560.3171983865053" font-size="8px"></text></g><g style="font-size: 13px;"><rect x="150" y="571.5859919325266" width="283.9940345348216" height="12.541254125412543" fill="#4472c4"></rect><rect x="150" y="584.7873120645397" width="100.64687504415697" height="12.541254125412543" fill="#ed7d31"></rect><rect x="150" y="597.9886321965529" width="14.703354601550462" height="12.541254125412543" fill="#a5a5a5"></rect><rect x="150" y="611.1899523285662" width="266.4128738180702" height="12.541254125412543" fill="#ffc000"></rect><rect x="150" y="624.3912724605793" width="14.373440417250748" height="12.541254125412543" fill="#5b9bd5"></rect><text class="label" x="442.4940345348216" y="580.0859919325266" font-size="10px">19.76x</text><text class="label" x="259.14687504415696" y="593.2873120645397" font-size="10px">7x</text><text class="label" x="173.20335460155047" y="606.4886321965529" font-size="10px">1.02x</text><text class="label" x="424.9128738180702" y="619.6899523285662" font-size="10px">18.54x</text><text class="label" x="172.87344041725075" y="632.8912724605793" font-size="10px">1x</text><text class="label" x="438.9940345348216" y="581.5859919325266" font-size="8px"></text><text class="label" x="255.64687504415696" y="594.7873120645397" font-size="8px"></text><text class="label" x="169.70335460155047" y="607.9886321965529" font-size="8px"></text><text class="label" x="421.4128738180702" y="621.1899523285662" font-size="8px"></text><text class="label" x="169.37344041725075" y="634.3912724605793" font-size="8px"></text></g></g></svg>