<svg xmlns="http://www.w3.org/2000/svg" xmlns:xlink="http://www.w3.org/1999/xlink" width="800" height="914" style="background-color: white;"><g class="y axis" transform="translate(149,45)" fill="none" font-size="10" font-family="sans-serif" text-anchor="end" style="font-size: 13px;"><path class="domain" stroke="currentColor" d="M0.5,0.5V720.5"></path><g class="tick" opacity="1" transform="translate(0,48.88888888888886)" style="font-size: 13px;"><line stroke="currentColor" x2="0"></line><text fill="currentColor" x="-3" dy="0.32em">object (simple)    </text></g><g class="tick" opacity="1" transform="translate(0,137.77777777777774)" style="font-size: 13px;"><line stroke="currentColor" x2="0"></line><text fill="currentColor" x="-3" dy="0.32em">object (hierarchical)    </text></g><g class="tick" opacity="1" transform="translate(0,226.66666666666663)" style="font-size: 13px;"><line stroke="currentColor" x2="0"></line><text fill="currentColor" x="-3" dy="0.32em">object (recursive)    </text></g><g class="tick" opacity="1" transform="translate(0,315.5555555555555)" style="font-size: 13px;"><line stroke="currentColor" x2="0"></line><text fill="currentColor" x="-3" dy="0.32em">object (union, explicit)    </text></g><g class="tick" opacity="1" transform="translate(0,404.4444444444444)" style="font-size: 13px;"><line stroke="currentColor" x2="0"></line><text fill="currentColor" x="-3" dy="0.32em">array (simple)    </text></g><g class="tick" opacity="1" transform="translate(0,493.3333333333333)" style="font-size: 13px;"><line stroke="currentColor" x2="0"></line><text fill="currentColor" x="-3" dy="0.32em">array (hierarchical)    </text></g><g class="tick" opacity="1" transform="translate(0,582.2222222222222)" style="font-size: 13px;"><line stroke="currentColor" x2="0"></line><text fill="currentColor" x="-3" dy="0.32em">array (recursive)    </text></g><g class="tick" opacity="1" transform="translate(0,671.1111111111111)" style="font-size: 13px;"><line stroke="currentColor" x2="0"></line><text fill="currentColor" x="-3" dy="0.32em">array (union, explicit)    </text></g></g><g class="x axis" transform="translate(149,765)" fill="none" font-size="10" font-family="sans-serif" text-anchor="middle" style="font-size: 13px;"><path class="domain" stroke="currentColor" d="M0.5,0.5H485.5"></path><g class="tick" opacity="1" transform="translate(0.5,0)" style="font-size: 13px;"><line stroke="currentColor" y2="6"></line><text fill="currentColor" y="9" dy="0.71em">0x</text></g><g class="tick" opacity="1" transform="translate(86.89028105065988,0)" style="font-size: 13px;"><line stroke="currentColor" y2="6"></line><text fill="currentColor" y="9" dy="0.71em">5x</text></g><g class="tick" opacity="1" transform="translate(173.28056210131976,0)" style="font-size: 13px;"><line stroke="currentColor" y2="6"></line><text fill="currentColor" y="9" dy="0.71em">10x</text></g><g class="tick" opacity="1" transform="translate(259.6708431519796,0)" style="font-size: 13px;"><line stroke="currentColor" y2="6"></line><text fill="currentColor" y="9" dy="0.71em">15x</text></g><g class="tick" opacity="1" transform="translate(346.0611242026395,0)" style="font-size: 13px;"><line stroke="currentColor" y2="6"></line><text fill="currentColor" y="9" dy="0.71em">20x</text></g><g class="tick" opacity="1" transform="translate(432.4514052532994,0)" style="font-size: 13px;"><line stroke="currentColor" y2="6"></line><text fill="currentColor" y="9" dy="0.71em">25x</text></g></g><text transform="translate(400, 30)" style="text-anchor: middle; font-size: 20px; font-weight: bold;">server-stringify benchmark</text><rect x="650" y="165" width="230" height="5" fill="gray"></rect><rect x="645" y="35" width="230" height="130" fill="none" stroke="black"></rect><rect x="655" y="45" width="10" height="10" style="fill: #4472c4;"></rect><text x="670" y="55" style="font-size: 12px;">fastify-typia</text><rect x="655" y="65" width="10" height="10" style="fill: #ed7d31;"></rect><text x="670" y="75" style="font-size: 12px;">fastify-pure</text><rect x="655" y="85" width="10" height="10" style="fill: #a5a5a5;"></rect><text x="670" y="95" style="font-size: 12px;">fastify-class-transformer</text><rect x="655" y="105" width="10" height="10" style="fill: #ffc000;"></rect><text x="670" y="115" style="font-size: 12px;">express-typia</text><rect x="655" y="125" width="10" height="10" style="fill: #5b9bd5;"></rect><text x="670" y="135" style="font-size: 12px;">express-pure</text><rect x="655" y="145" width="10" height="10" style="fill: #70ad47;"></rect><text x="670" y="155" style="font-size: 12px;">express-class-transformer</text><text x="20" y="829" style="font-size: 12px;">  - CPU: AMD Ryzen 9 7940HS w/ Radeon 780M Graphics</text><text x="20" y="846" style="font-size: 12px;">  - OS: win32</text><text x="20" y="863" style="font-size: 12px;">  - RAM: 31 GB</text><text x="20" y="880" style="font-size: 12px;">  - NodeJS version: v20.10.0</text><text x="20" y="897" style="font-size: 12px;">  - Typia version: v6.0.1</text><g style="font-size: 13px;"><g style="font-size: 13px;"><rect x="150" y="54.55004591368224" width="302.9814538930394" height="12.56198347107438" fill="#4472c4"></rect><rect x="150" y="67.77318640955001" width="283.72851509252246" height="12.56198347107438" fill="#ed7d31"></rect><rect x="150" y="80.99632690541777" width="18.95873861710133" height="12.56198347107438" fill="#a5a5a5"></rect><rect x="150" y="94.21946740128556" width="143.5468133409411" height="12.56198347107438" fill="#ffc000"></rect><rect x="150" y="107.44260789715332" width="120.662211402216" height="12.56198347107438" fill="#5b9bd5"></rect><rect x="150" y="120.66574839302109" width="17.278056210131975" height="12.56198347107438" fill="#70ad47"></rect><text class="label" x="461.4814538930394" y="63.05004591368224" font-size="10px">17.54x</text><text class="label" x="442.22851509252246" y="76.27318640955001" font-size="10px">16.42x</text><text class="label" x="177.45873861710132" y="89.49632690541777" font-size="10px">1.1x</text><text class="label" x="302.04681334094107" y="102.71946740128556" font-size="10px">8.31x</text><text class="label" x="279.16221140221603" y="115.94260789715332" font-size="10px">6.98x</text><text class="label" x="175.77805621013198" y="129.1657483930211" font-size="10px">1x</text><text class="label" x="457.9814538930394" y="64.55004591368224" font-size="8px"></text><text class="label" x="438.72851509252246" y="77.77318640955001" font-size="8px"></text><text class="label" x="173.95873861710132" y="90.99632690541777" font-size="8px"></text><text class="label" x="298.54681334094107" y="104.21946740128556" font-size="8px"></text><text class="label" x="275.66221140221603" y="117.44260789715332" font-size="8px"></text><text class="label" x="172.27805621013198" y="130.6657483930211" font-size="8px"></text></g><g style="font-size: 13px;"><rect x="150" y="143.4389348025711" width="235.63925567761783" height="12.56198347107438" fill="#4472c4"></rect><rect x="150" y="156.66207529843888" width="238.90922882592437" height="12.56198347107438" fill="#ed7d31"></rect><rect x="150" y="169.88521579430665" width="17.72168547038106" height="12.56198347107438" fill="#a5a5a5"></rect><rect x="150" y="183.10835629017444" width="187.17491583567363" height="12.56198347107438" fill="#ffc000"></rect><rect x="150" y="196.3314967860422" width="135.41343533910228" height="12.56198347107438" fill="#5b9bd5"></rect><rect x="150" y="209.55463728190998" width="17.278056210131975" height="12.56198347107438" fill="#70ad47"></rect><text class="label" x="394.1392556776178" y="151.9389348025711" font-size="10px">13.64x</text><text class="label" x="397.4092288259244" y="165.16207529843888" font-size="10px">13.83x</text><text class="label" x="176.22168547038106" y="178.38521579430665" font-size="10px">1.03x</text><text class="label" x="345.67491583567363" y="191.60835629017444" font-size="10px">10.83x</text><text class="label" x="293.9134353391023" y="204.8314967860422" font-size="10px">7.84x</text><text class="label" x="175.77805621013198" y="218.05463728190998" font-size="10px">1x</text><text class="label" x="390.6392556776178" y="153.4389348025711" font-size="8px"></text><text class="label" x="393.9092288259244" y="166.66207529843888" font-size="8px"></text><text class="label" x="172.72168547038106" y="179.88521579430665" font-size="8px"></text><text class="label" x="342.17491583567363" y="193.10835629017444" font-size="8px"></text><text class="label" x="290.4134353391023" y="206.3314967860422" font-size="8px"></text><text class="label" x="172.27805621013198" y="219.55463728190998" font-size="8px"></text></g><g style="font-size: 13px;"><rect x="150" y="232.32782369146003" width="354.073302510227" height="12.56198347107438" fill="#4472c4"></rect><rect x="150" y="245.5509641873278" width="321.04925286908474" height="12.56198347107438" fill="#ed7d31"></rect><rect x="150" y="258.77410468319556" width="17.278056210131975" height="12.56198347107438" fill="#a5a5a5"></rect><rect x="150" y="271.9972451790633" width="292.3542808968755" height="12.56198347107438" fill="#ffc000"></rect><rect x="150" y="285.2203856749311" width="185.61036620509492" height="12.56198347107438" fill="#5b9bd5"></rect><rect x="150" y="298.44352617079886" width="18.816159320102702" height="12.56198347107438" fill="#70ad47"></rect><text class="label" x="512.573302510227" y="240.82782369146003" font-size="10px">20.49x</text><text class="label" x="479.54925286908474" y="254.0509641873278" font-size="10px">18.58x</text><text class="label" x="175.77805621013198" y="267.27410468319556" font-size="10px">1x</text><text class="label" x="450.8542808968755" y="280.4972451790633" font-size="10px">16.92x</text><text class="label" x="344.1103662050949" y="293.7203856749311" font-size="10px">10.74x</text><text class="label" x="177.3161593201027" y="306.94352617079886" font-size="10px">1.09x</text><text class="label" x="509.073302510227" y="242.32782369146003" font-size="8px"></text><text class="label" x="476.04925286908474" y="255.5509641873278" font-size="8px"></text><text class="label" x="172.27805621013198" y="268.77410468319556" font-size="8px"></text><text class="label" x="447.3542808968755" y="281.9972451790633" font-size="8px"></text><text class="label" x="340.6103662050949" y="295.2203856749311" font-size="8px"></text><text class="label" x="173.8161593201027" y="308.44352617079886" font-size="8px"></text></g><g style="font-size: 13px;"><rect x="150" y="321.2167125803489" width="440.9090909090908" height="12.56198347107438" fill="#4472c4"></rect><rect x="150" y="334.43985307621665" width="274.6545328363912" height="12.56198347107438" fill="#ed7d31"></rect><rect x="150" y="347.6629935720844" width="17.578632387486522" height="12.56198347107438" fill="#a5a5a5"></rect><rect x="150" y="360.8861340679522" width="402.5978117908975" height="12.56198347107438" fill="#ffc000"></rect><rect x="150" y="374.10927456381995" width="278.5176337032773" height="12.56198347107438" fill="#5b9bd5"></rect><rect x="150" y="387.3324150596877" width="17.278056210131975" height="12.56198347107438" fill="#70ad47"></rect><text class="label" x="599.4090909090908" y="329.7167125803489" font-size="10px">25.52x</text><text class="label" x="433.1545328363912" y="342.93985307621665" font-size="10px">15.9x</text><text class="label" x="176.07863238748652" y="356.1629935720844" font-size="10px">1.02x</text><text class="label" x="561.0978117908975" y="369.3861340679522" font-size="10px">23.3x</text><text class="label" x="437.0176337032773" y="382.60927456381995" font-size="10px">16.12x</text><text class="label" x="175.77805621013198" y="395.8324150596877" font-size="10px">1x</text><text class="label" x="595.9090909090908" y="331.2167125803489" font-size="8px"></text><text class="label" x="429.6545328363912" y="344.43985307621665" font-size="8px"></text><text class="label" x="172.57863238748652" y="357.6629935720844" font-size="8px"></text><text class="label" x="557.5978117908975" y="370.8861340679522" font-size="8px"></text><text class="label" x="433.5176337032773" y="384.10927456381995" font-size="8px"></text><text class="label" x="172.27805621013198" y="397.3324150596877" font-size="8px"></text></g><g style="font-size: 13px;"><rect x="150" y="410.1056014692378" width="201.14095424014772" height="12.56198347107438" fill="#4472c4"></rect><rect x="150" y="423.32874196510556" width="178.1535345909642" height="12.56198347107438" fill="#ed7d31"></rect><rect x="150" y="436.55188246097333" width="17.31148955449179" height="12.56198347107438" fill="#a5a5a5"></rect><rect x="150" y="449.7750229568411" width="170.24797164218901" height="12.56198347107438" fill="#ffc000"></rect><rect x="150" y="462.99816345270887" width="173.44636823605885" height="12.56198347107438" fill="#5b9bd5"></rect><rect x="150" y="476.22130394857663" width="17.278056210131975" height="12.56198347107438" fill="#70ad47"></rect><text class="label" x="359.6409542401477" y="418.6056014692378" font-size="10px">11.64x</text><text class="label" x="336.6535345909642" y="431.82874196510556" font-size="10px">10.31x</text><text class="label" x="175.8114895544918" y="445.05188246097333" font-size="10px">1x</text><text class="label" x="328.747971642189" y="458.2750229568411" font-size="10px">9.85x</text><text class="label" x="331.94636823605885" y="471.49816345270887" font-size="10px">10.04x</text><text class="label" x="175.77805621013198" y="484.72130394857663" font-size="10px">1x</text><text class="label" x="356.1409542401477" y="420.1056014692378" font-size="8px"></text><text class="label" x="333.1535345909642" y="433.32874196510556" font-size="8px"></text><text class="label" x="172.3114895544918" y="446.55188246097333" font-size="8px"></text><text class="label" x="325.247971642189" y="459.7750229568411" font-size="8px"></text><text class="label" x="328.44636823605885" y="472.99816345270887" font-size="8px"></text><text class="label" x="172.27805621013198" y="486.22130394857663" font-size="8px"></text></g><g style="font-size: 13px;"><rect x="150" y="498.9944903581267" width="246.88009828598393" height="12.56198347107438" fill="#4472c4"></rect><rect x="150" y="512.2176308539945" width="197.34021117774697" height="12.56198347107438" fill="#ed7d31"></rect><rect x="150" y="525.4407713498622" width="17.42728102336961" height="12.56198347107438" fill="#a5a5a5"></rect><rect x="150" y="538.66391184573" width="249.6645635077105" height="12.56198347107438" fill="#ffc000"></rect><rect x="150" y="551.8870523415978" width="191.7462210025843" height="12.56198347107438" fill="#5b9bd5"></rect><rect x="150" y="565.1101928374655" width="17.278056210131975" height="12.56198347107438" fill="#70ad47"></rect><text class="label" x="405.38009828598393" y="507.4944903581267" font-size="10px">14.29x</text><text class="label" x="355.84021117774694" y="520.7176308539945" font-size="10px">11.42x</text><text class="label" x="175.9272810233696" y="533.9407713498622" font-size="10px">1.01x</text><text class="label" x="408.1645635077105" y="547.16391184573" font-size="10px">14.45x</text><text class="label" x="350.2462210025843" y="560.3870523415978" font-size="10px">11.1x</text><text class="label" x="175.77805621013198" y="573.6101928374655" font-size="10px">1x</text><text class="label" x="401.88009828598393" y="508.9944903581267" font-size="8px"></text><text class="label" x="352.34021117774694" y="522.2176308539945" font-size="8px"></text><text class="label" x="172.4272810233696" y="535.4407713498622" font-size="8px"></text><text class="label" x="404.6645635077105" y="548.66391184573" font-size="8px"></text><text class="label" x="346.7462210025843" y="561.8870523415978" font-size="8px"></text><text class="label" x="172.27805621013198" y="575.1101928374655" font-size="8px"></text></g><g style="font-size: 13px;"><rect x="150" y="587.8833792470156" width="267.92281479313493" height="12.56198347107438" fill="#4472c4"></rect><rect x="150" y="601.1065197428833" width="167.4864230420591" height="12.56198347107438" fill="#ed7d31"></rect><rect x="150" y="614.3296602387511" width="22.55402042591249" height="12.56198347107438" fill="#a5a5a5"></rect><rect x="150" y="627.5528007346188" width="273.4422131224584" height="12.56198347107438" fill="#ffc000"></rect><rect x="150" y="640.7759412304866" width="228.1930533649077" height="12.56198347107438" fill="#5b9bd5"></rect><rect x="150" y="653.9990817263545" width="17.278056210131975" height="12.56198347107438" fill="#70ad47"></rect><text class="label" x="426.42281479313493" y="596.3833792470156" font-size="10px">15.51x</text><text class="label" x="325.9864230420591" y="609.6065197428833" font-size="10px">9.69x</text><text class="label" x="181.05402042591248" y="622.8296602387511" font-size="10px">1.31x</text><text class="label" x="431.9422131224584" y="636.0528007346188" font-size="10px">15.83x</text><text class="label" x="386.6930533649077" y="649.2759412304866" font-size="10px">13.21x</text><text class="label" x="175.77805621013198" y="662.4990817263545" font-size="10px">1x</text><text class="label" x="422.92281479313493" y="597.8833792470156" font-size="8px"></text><text class="label" x="322.4864230420591" y="611.1065197428833" font-size="8px"></text><text class="label" x="177.55402042591248" y="624.3296602387511" font-size="8px"></text><text class="label" x="428.4422131224584" y="637.5528007346188" font-size="8px"></text><text class="label" x="383.1930533649077" y="650.7759412304866" font-size="8px"></text><text class="label" x="172.27805621013198" y="663.9990817263545" font-size="8px"></text></g><g style="font-size: 13px;"><rect x="150" y="676.7722681359045" width="195.22590402345034" height="12.56198347107438" fill="#4472c4"></rect><rect x="150" y="689.9954086317722" width="54.3439037206449" height="12.56198347107438" fill="#ed7d31"></rect><rect x="150" y="703.21854912764" width="17.278056210131975" height="12.56198347107438" fill="#a5a5a5"></rect><rect x="150" y="716.4416896235077" width="193.69721966837207" height="12.56198347107438" fill="#ffc000"></rect><rect x="150" y="729.6648301193756" width="213.83319175041677" height="12.56198347107438" fill="#5b9bd5"></rect><rect x="150" y="742.8879706152434" width="17.670228343875426" height="12.56198347107438" fill="#70ad47"></rect><text class="label" x="353.7259040234503" y="685.2722681359045" font-size="10px">11.3x</text><text class="label" x="212.8439037206449" y="698.4954086317722" font-size="10px">3.15x</text><text class="label" x="175.77805621013198" y="711.71854912764" font-size="10px">1x</text><text class="label" x="352.1972196683721" y="724.9416896235077" font-size="10px">11.21x</text><text class="label" x="372.33319175041674" y="738.1648301193756" font-size="10px">12.38x</text><text class="label" x="176.17022834387544" y="751.3879706152434" font-size="10px">1.02x</text><text class="label" x="350.2259040234503" y="686.7722681359045" font-size="8px"></text><text class="label" x="209.3439037206449" y="699.9954086317722" font-size="8px"></text><text class="label" x="172.27805621013198" y="713.21854912764" font-size="8px"></text><text class="label" x="348.6972196683721" y="726.4416896235077" font-size="8px"></text><text class="label" x="368.83319175041674" y="739.6648301193756" font-size="8px"></text><text class="label" x="172.67022834387544" y="752.8879706152434" font-size="8px"></text></g></g></svg>