<svg xmlns="http://www.w3.org/2000/svg" xmlns:xlink="http://www.w3.org/1999/xlink" width="800" height="914" style="background-color: white;"><g class="y axis" transform="translate(149,45)" fill="none" font-size="10" font-family="sans-serif" text-anchor="end" style="font-size: 13px;"><path class="domain" stroke="currentColor" d="M0.5,0.5V720.5"></path><g class="tick" opacity="1" transform="translate(0,48.88888888888886)" style="font-size: 13px;"><line stroke="currentColor" x2="0"></line><text fill="currentColor" x="-3" dy="0.32em">object (simple)    </text></g><g class="tick" opacity="1" transform="translate(0,137.77777777777774)" style="font-size: 13px;"><line stroke="currentColor" x2="0"></line><text fill="currentColor" x="-3" dy="0.32em">object (hierarchical)    </text></g><g class="tick" opacity="1" transform="translate(0,226.66666666666663)" style="font-size: 13px;"><line stroke="currentColor" x2="0"></line><text fill="currentColor" x="-3" dy="0.32em">object (recursive)    </text></g><g class="tick" opacity="1" transform="translate(0,315.5555555555555)" style="font-size: 13px;"><line stroke="currentColor" x2="0"></line><text fill="currentColor" x="-3" dy="0.32em">object (union, explicit)    </text></g><g class="tick" opacity="1" transform="translate(0,404.4444444444444)" style="font-size: 13px;"><line stroke="currentColor" x2="0"></line><text fill="currentColor" x="-3" dy="0.32em">array (simple)    </text></g><g class="tick" opacity="1" transform="translate(0,493.3333333333333)" style="font-size: 13px;"><line stroke="currentColor" x2="0"></line><text fill="currentColor" x="-3" dy="0.32em">array (hierarchical)    </text></g><g class="tick" opacity="1" transform="translate(0,582.2222222222222)" style="font-size: 13px;"><line stroke="currentColor" x2="0"></line><text fill="currentColor" x="-3" dy="0.32em">array (recursive)    </text></g><g class="tick" opacity="1" transform="translate(0,671.1111111111111)" style="font-size: 13px;"><line stroke="currentColor" x2="0"></line><text fill="currentColor" x="-3" dy="0.32em">array (union, explicit)    </text></g></g><g class="x axis" transform="translate(149,765)" fill="none" font-size="10" font-family="sans-serif" text-anchor="middle" style="font-size: 13px;"><path class="domain" stroke="currentColor" d="M0.5,0.5H485.5"></path><g class="tick" opacity="1" transform="translate(0.5,0)" style="font-size: 13px;"><line stroke="currentColor" y2="6"></line><text fill="currentColor" y="9" dy="0.71em">0x</text></g><g class="tick" opacity="1" transform="translate(77.65865814909598,0)" style="font-size: 13px;"><line stroke="currentColor" y2="6"></line><text fill="currentColor" y="9" dy="0.71em">5x</text></g><g class="tick" opacity="1" transform="translate(154.81731629819197,0)" style="font-size: 13px;"><line stroke="currentColor" y2="6"></line><text fill="currentColor" y="9" dy="0.71em">10x</text></g><g class="tick" opacity="1" transform="translate(231.97597444728794,0)" style="font-size: 13px;"><line stroke="currentColor" y2="6"></line><text fill="currentColor" y="9" dy="0.71em">15x</text></g><g class="tick" opacity="1" transform="translate(309.13463259638394,0)" style="font-size: 13px;"><line stroke="currentColor" y2="6"></line><text fill="currentColor" y="9" dy="0.71em">20x</text></g><g class="tick" opacity="1" transform="translate(386.2932907454799,0)" style="font-size: 13px;"><line stroke="currentColor" y2="6"></line><text fill="currentColor" y="9" dy="0.71em">25x</text></g><g class="tick" opacity="1" transform="translate(463.4519488945759,0)" style="font-size: 13px;"><line stroke="currentColor" y2="6"></line><text fill="currentColor" y="9" dy="0.71em">30x</text></g></g><text transform="translate(400, 30)" style="text-anchor: middle; font-size: 20px; font-weight: bold;">server-stringify benchmark</text><rect x="650" y="165" width="230" height="5" fill="gray"></rect><rect x="645" y="35" width="230" height="130" fill="none" stroke="black"></rect><rect x="655" y="45" width="10" height="10" style="fill: #4472c4;"></rect><text x="670" y="55" style="font-size: 12px;">fastify-typia</text><rect x="655" y="65" width="10" height="10" style="fill: #ed7d31;"></rect><text x="670" y="75" style="font-size: 12px;">fastify-pure</text><rect x="655" y="85" width="10" height="10" style="fill: #a5a5a5;"></rect><text x="670" y="95" style="font-size: 12px;">fastify-class-transformer</text><rect x="655" y="105" width="10" height="10" style="fill: #ffc000;"></rect><text x="670" y="115" style="font-size: 12px;">express-typia</text><rect x="655" y="125" width="10" height="10" style="fill: #5b9bd5;"></rect><text x="670" y="135" style="font-size: 12px;">express-pure</text><rect x="655" y="145" width="10" height="10" style="fill: #70ad47;"></rect><text x="670" y="155" style="font-size: 12px;">express-class-transformer</text><text x="20" y="829" style="font-size: 12px;">  - CPU: AMD Ryzen 9 7940HS w/ Radeon 780M Graphics</text><text x="20" y="846" style="font-size: 12px;">  - OS: win32</text><text x="20" y="863" style="font-size: 12px;">  - RAM: 31 GB</text><text x="20" y="880" style="font-size: 12px;">  - NodeJS version: v20.10.0</text><text x="20" y="897" style="font-size: 12px;">  - Typia version: v5.3.5</text><g style="font-size: 13px;"><g style="font-size: 13px;"><rect x="150" y="54.55004591368224" width="293.7030046825508" height="12.56198347107438" fill="#4472c4"></rect><rect x="150" y="67.77318640955001" width="287.76171268218366" height="12.56198347107438" fill="#ed7d31"></rect><rect x="150" y="80.99632690541777" width="18.166081001931" height="12.56198347107438" fill="#a5a5a5"></rect><rect x="150" y="94.21946740128556" width="151.44538738399518" height="12.56198347107438" fill="#ffc000"></rect><rect x="150" y="107.44260789715332" width="111.50050879306507" height="12.56198347107438" fill="#5b9bd5"></rect><rect x="150" y="120.66574839302109" width="15.431731629819195" height="12.56198347107438" fill="#70ad47"></rect><text class="label" x="452.2030046825508" y="63.05004591368224" font-size="10px">19.03x</text><text class="label" x="446.26171268218366" y="76.27318640955001" font-size="10px">18.65x</text><text class="label" x="176.666081001931" y="89.49632690541777" font-size="10px">1.18x</text><text class="label" x="309.9453873839952" y="102.71946740128556" font-size="10px">9.81x</text><text class="label" x="270.0005087930651" y="115.94260789715332" font-size="10px">7.23x</text><text class="label" x="173.93173162981918" y="129.1657483930211" font-size="10px">1x</text><text class="label" x="448.7030046825508" y="64.55004591368224" font-size="8px"></text><text class="label" x="442.76171268218366" y="77.77318640955001" font-size="8px"></text><text class="label" x="173.166081001931" y="90.99632690541777" font-size="8px"></text><text class="label" x="306.4453873839952" y="104.21946740128556" font-size="8px"></text><text class="label" x="266.5005087930651" y="117.44260789715332" font-size="8px"></text><text class="label" x="170.43173162981918" y="130.6657483930211" font-size="8px"></text></g><g style="font-size: 13px;"><rect x="150" y="143.4389348025711" width="199.78247674125583" height="12.56198347107438" fill="#4472c4"></rect><rect x="150" y="156.66207529843888" width="178.9471424997478" height="12.56198347107438" fill="#ed7d31"></rect><rect x="150" y="169.88521579430665" width="16.033028552997585" height="12.56198347107438" fill="#a5a5a5"></rect><rect x="150" y="183.10835629017444" width="176.45990620198125" height="12.56198347107438" fill="#ffc000"></rect><rect x="150" y="196.3314967860422" width="120.31044649759741" height="12.56198347107438" fill="#5b9bd5"></rect><rect x="150" y="209.55463728190998" width="15.431731629819195" height="12.56198347107438" fill="#70ad47"></rect><text class="label" x="358.28247674125583" y="151.9389348025711" font-size="10px">12.95x</text><text class="label" x="337.44714249974777" y="165.16207529843888" font-size="10px">11.6x</text><text class="label" x="174.5330285529976" y="178.38521579430665" font-size="10px">1.04x</text><text class="label" x="334.95990620198125" y="191.60835629017444" font-size="10px">11.43x</text><text class="label" x="278.8104464975974" y="204.8314967860422" font-size="10px">7.8x</text><text class="label" x="173.93173162981918" y="218.05463728190998" font-size="10px">1x</text><text class="label" x="354.78247674125583" y="153.4389348025711" font-size="8px"></text><text class="label" x="333.94714249974777" y="166.66207529843888" font-size="8px"></text><text class="label" x="171.0330285529976" y="179.88521579430665" font-size="8px"></text><text class="label" x="331.45990620198125" y="193.10835629017444" font-size="8px"></text><text class="label" x="275.3104464975974" y="206.3314967860422" font-size="8px"></text><text class="label" x="170.43173162981918" y="219.55463728190998" font-size="8px"></text></g><g style="font-size: 13px;"><rect x="150" y="232.32782369146003" width="316.35149892401444" height="12.56198347107438" fill="#4472c4"></rect><rect x="150" y="245.5509641873278" width="170.1057203027483" height="12.56198347107438" fill="#ed7d31"></rect><rect x="150" y="258.77410468319556" width="19.524970263391605" height="12.56198347107438" fill="#a5a5a5"></rect><rect x="150" y="271.9972451790633" width="259.2459600778667" height="12.56198347107438" fill="#ffc000"></rect><rect x="150" y="285.2203856749311" width="186.77935197949867" height="12.56198347107438" fill="#5b9bd5"></rect><rect x="150" y="298.44352617079886" width="15.431731629819195" height="12.56198347107438" fill="#70ad47"></rect><text class="label" x="474.85149892401444" y="240.82782369146003" font-size="10px">20.5x</text><text class="label" x="328.6057203027483" y="254.0509641873278" font-size="10px">11.02x</text><text class="label" x="178.0249702633916" y="267.27410468319556" font-size="10px">1.27x</text><text class="label" x="417.7459600778667" y="280.4972451790633" font-size="10px">16.8x</text><text class="label" x="345.27935197949864" y="293.7203856749311" font-size="10px">12.1x</text><text class="label" x="173.93173162981918" y="306.94352617079886" font-size="10px">1x</text><text class="label" x="471.35149892401444" y="242.32782369146003" font-size="8px"></text><text class="label" x="325.1057203027483" y="255.5509641873278" font-size="8px"></text><text class="label" x="174.5249702633916" y="268.77410468319556" font-size="8px"></text><text class="label" x="414.2459600778667" y="281.9972451790633" font-size="8px"></text><text class="label" x="341.77935197949864" y="295.2203856749311" font-size="8px"></text><text class="label" x="170.43173162981918" y="308.44352617079886" font-size="8px"></text></g><g style="font-size: 13px;"><rect x="150" y="321.2167125803489" width="440.9090909090909" height="12.56198347107438" fill="#4472c4"></rect><rect x="150" y="334.43985307621665" width="260.57012820204267" height="12.56198347107438" fill="#ed7d31"></rect><rect x="150" y="347.6629935720844" width="15.431731629819195" height="12.56198347107438" fill="#a5a5a5"></rect><rect x="150" y="360.8861340679522" width="378.37508573560865" height="12.56198347107438" fill="#ffc000"></rect><rect x="150" y="374.10927456381995" width="251.66572704251456" height="12.56198347107438" fill="#5b9bd5"></rect><rect x="150" y="387.3324150596877" width="16.230222758673488" height="12.56198347107438" fill="#70ad47"></rect><text class="label" x="599.4090909090909" y="329.7167125803489" font-size="10px">28.57x</text><text class="label" x="419.07012820204267" y="342.93985307621665" font-size="10px">16.89x</text><text class="label" x="173.93173162981918" y="356.1629935720844" font-size="10px">1x</text><text class="label" x="536.8750857356086" y="369.3861340679522" font-size="10px">24.52x</text><text class="label" x="410.16572704251456" y="382.60927456381995" font-size="10px">16.31x</text><text class="label" x="174.73022275867348" y="395.8324150596877" font-size="10px">1.05x</text><text class="label" x="595.9090909090909" y="331.2167125803489" font-size="8px"></text><text class="label" x="415.57012820204267" y="344.43985307621665" font-size="8px"></text><text class="label" x="170.43173162981918" y="357.6629935720844" font-size="8px"></text><text class="label" x="533.3750857356086" y="370.8861340679522" font-size="8px"></text><text class="label" x="406.66572704251456" y="384.10927456381995" font-size="8px"></text><text class="label" x="171.23022275867348" y="397.3324150596877" font-size="8px"></text></g><g style="font-size: 13px;"><rect x="150" y="410.1056014692378" width="177.78019407060972" height="12.56198347107438" fill="#4472c4"></rect><rect x="150" y="423.32874196510556" width="195.37056913117914" height="12.56198347107438" fill="#ed7d31"></rect><rect x="150" y="436.55188246097333" width="16.166808803497727" height="12.56198347107438" fill="#a5a5a5"></rect><rect x="150" y="449.7750229568411" width="175.11546540597962" height="12.56198347107438" fill="#ffc000"></rect><rect x="150" y="462.99816345270887" width="165.03279054558422" height="12.56198347107438" fill="#5b9bd5"></rect><rect x="150" y="476.22130394857663" width="15.431731629819195" height="12.56198347107438" fill="#70ad47"></rect><text class="label" x="336.2801940706097" y="418.6056014692378" font-size="10px">11.52x</text><text class="label" x="353.87056913117914" y="431.82874196510556" font-size="10px">12.66x</text><text class="label" x="174.66680880349773" y="445.05188246097333" font-size="10px">1.05x</text><text class="label" x="333.61546540597965" y="458.2750229568411" font-size="10px">11.35x</text><text class="label" x="323.53279054558425" y="471.49816345270887" font-size="10px">10.69x</text><text class="label" x="173.93173162981918" y="484.72130394857663" font-size="10px">1x</text><text class="label" x="332.7801940706097" y="420.1056014692378" font-size="8px"></text><text class="label" x="350.37056913117914" y="433.32874196510556" font-size="8px"></text><text class="label" x="171.16680880349773" y="446.55188246097333" font-size="8px"></text><text class="label" x="330.11546540597965" y="459.7750229568411" font-size="8px"></text><text class="label" x="320.03279054558425" y="472.99816345270887" font-size="8px"></text><text class="label" x="170.43173162981918" y="486.22130394857663" font-size="8px"></text></g><g style="font-size: 13px;"><rect x="150" y="498.9944903581267" width="230.4873099954177" height="12.56198347107438" fill="#4472c4"></rect><rect x="150" y="512.2176308539945" width="106.37247297073527" height="12.56198347107438" fill="#ed7d31"></rect><rect x="150" y="525.4407713498622" width="16.386943246147656" height="12.56198347107438" fill="#a5a5a5"></rect><rect x="150" y="538.66391184573" width="238.44150878972232" height="12.56198347107438" fill="#ffc000"></rect><rect x="150" y="551.8870523415978" width="180.845931831991" height="12.56198347107438" fill="#5b9bd5"></rect><rect x="150" y="565.1101928374655" width="15.431731629819195" height="12.56198347107438" fill="#70ad47"></rect><text class="label" x="388.9873099954177" y="507.4944903581267" font-size="10px">14.94x</text><text class="label" x="264.87247297073526" y="520.7176308539945" font-size="10px">6.89x</text><text class="label" x="174.88694324614767" y="533.9407713498622" font-size="10px">1.06x</text><text class="label" x="396.9415087897223" y="547.16391184573" font-size="10px">15.45x</text><text class="label" x="339.34593183199104" y="560.3870523415978" font-size="10px">11.72x</text><text class="label" x="173.93173162981918" y="573.6101928374655" font-size="10px">1x</text><text class="label" x="385.4873099954177" y="508.9944903581267" font-size="8px"></text><text class="label" x="261.37247297073526" y="522.2176308539945" font-size="8px"></text><text class="label" x="171.38694324614767" y="535.4407713498622" font-size="8px"></text><text class="label" x="393.4415087897223" y="548.66391184573" font-size="8px"></text><text class="label" x="335.84593183199104" y="561.8870523415978" font-size="8px"></text><text class="label" x="170.43173162981918" y="575.1101928374655" font-size="8px"></text></g><g style="font-size: 13px;"><rect x="150" y="587.8833792470156" width="186.27318063189574" height="12.56198347107438" fill="#4472c4"></rect><rect x="150" y="601.1065197428833" width="115.46878183446807" height="12.56198347107438" fill="#ed7d31"></rect><rect x="150" y="614.3296602387511" width="15.431731629819195" height="12.56198347107438" fill="#a5a5a5"></rect><rect x="150" y="627.5528007346188" width="190.86866584590553" height="12.56198347107438" fill="#ffc000"></rect><rect x="150" y="640.7759412304866" width="167.7443736807663" height="12.56198347107438" fill="#5b9bd5"></rect><rect x="150" y="653.9990817263545" width="15.505901201275337" height="12.56198347107438" fill="#70ad47"></rect><text class="label" x="344.77318063189574" y="596.3833792470156" font-size="10px">12.07x</text><text class="label" x="273.9687818344681" y="609.6065197428833" font-size="10px">7.48x</text><text class="label" x="173.93173162981918" y="622.8296602387511" font-size="10px">1x</text><text class="label" x="349.3686658459055" y="636.0528007346188" font-size="10px">12.37x</text><text class="label" x="326.24437368076633" y="649.2759412304866" font-size="10px">10.87x</text><text class="label" x="174.00590120127535" y="662.4990817263545" font-size="10px">1x</text><text class="label" x="341.27318063189574" y="597.8833792470156" font-size="8px"></text><text class="label" x="270.4687818344681" y="611.1065197428833" font-size="8px"></text><text class="label" x="170.43173162981918" y="624.3296602387511" font-size="8px"></text><text class="label" x="345.8686658459055" y="637.5528007346188" font-size="8px"></text><text class="label" x="322.74437368076633" y="650.7759412304866" font-size="8px"></text><text class="label" x="170.50590120127535" y="663.9990817263545" font-size="8px"></text></g><g style="font-size: 13px;"><rect x="150" y="676.7722681359045" width="192.75992066157454" height="12.56198347107438" fill="#4472c4"></rect><rect x="150" y="689.9954086317722" width="45.35868509456379" height="12.56198347107438" fill="#ed7d31"></rect><rect x="150" y="703.21854912764" width="15.431731629819195" height="12.56198347107438" fill="#a5a5a5"></rect><rect x="150" y="716.4416896235077" width="174.8732176761193" height="12.56198347107438" fill="#ffc000"></rect><rect x="150" y="729.6648301193756" width="193.39750819852674" height="12.56198347107438" fill="#5b9bd5"></rect><rect x="150" y="742.8879706152434" width="15.782319790411591" height="12.56198347107438" fill="#70ad47"></rect><text class="label" x="351.25992066157454" y="685.2722681359045" font-size="10px">12.49x</text><text class="label" x="203.85868509456378" y="698.4954086317722" font-size="10px">2.94x</text><text class="label" x="173.93173162981918" y="711.71854912764" font-size="10px">1x</text><text class="label" x="333.37321767611934" y="724.9416896235077" font-size="10px">11.33x</text><text class="label" x="351.89750819852674" y="738.1648301193756" font-size="10px">12.53x</text><text class="label" x="174.28231979041158" y="751.3879706152434" font-size="10px">1.02x</text><text class="label" x="347.75992066157454" y="686.7722681359045" font-size="8px"></text><text class="label" x="200.35868509456378" y="699.9954086317722" font-size="8px"></text><text class="label" x="170.43173162981918" y="713.21854912764" font-size="8px"></text><text class="label" x="329.87321767611934" y="726.4416896235077" font-size="8px"></text><text class="label" x="348.39750819852674" y="739.6648301193756" font-size="8px"></text><text class="label" x="170.78231979041158" y="752.8879706152434" font-size="8px"></text></g></g></svg>