<svg xmlns="http://www.w3.org/2000/svg" xmlns:xlink="http://www.w3.org/1999/xlink" width="800" height="794" style="background-color: white;"><g class="y axis" transform="translate(149,45)" fill="none" font-size="10" font-family="sans-serif" text-anchor="end" style="font-size: 13px;"><path class="domain" stroke="currentColor" d="M0.5,0.5V600.5"></path><g class="tick" opacity="1" transform="translate(0,40.740740740740726)" style="font-size: 13px;"><line stroke="currentColor" x2="0"></line><text fill="currentColor" x="-3" dy="0.32em">object (simple)    </text></g><g class="tick" opacity="1" transform="translate(0,114.81481481481481)" style="font-size: 13px;"><line stroke="currentColor" x2="0"></line><text fill="currentColor" x="-3" dy="0.32em">object (hierarchical)    </text></g><g class="tick" opacity="1" transform="translate(0,188.88888888888889)" style="font-size: 13px;"><line stroke="currentColor" x2="0"></line><text fill="currentColor" x="-3" dy="0.32em">object (recursive)    </text></g><g class="tick" opacity="1" transform="translate(0,262.96296296296293)" style="font-size: 13px;"><line stroke="currentColor" x2="0"></line><text fill="currentColor" x="-3" dy="0.32em">object (union, explicit)    </text></g><g class="tick" opacity="1" transform="translate(0,337.037037037037)" style="font-size: 13px;"><line stroke="currentColor" x2="0"></line><text fill="currentColor" x="-3" dy="0.32em">array (simple)    </text></g><g class="tick" opacity="1" transform="translate(0,411.1111111111111)" style="font-size: 13px;"><line stroke="currentColor" x2="0"></line><text fill="currentColor" x="-3" dy="0.32em">array (hierarchical)    </text></g><g class="tick" opacity="1" transform="translate(0,485.18518518518516)" style="font-size: 13px;"><line stroke="currentColor" x2="0"></line><text fill="currentColor" x="-3" dy="0.32em">array (recursive)    </text></g><g class="tick" opacity="1" transform="translate(0,559.2592592592592)" style="font-size: 13px;"><line stroke="currentColor" x2="0"></line><text fill="currentColor" x="-3" dy="0.32em">array (union, explicit)    </text></g></g><g class="x axis" transform="translate(149,645)" fill="none" font-size="10" font-family="sans-serif" text-anchor="middle" style="font-size: 13px;"><path class="domain" stroke="currentColor" d="M0.5,0.5H485.5"></path><g class="tick" opacity="1" transform="translate(0.5,0)" style="font-size: 13px;"><line stroke="currentColor" y2="6"></line><text fill="currentColor" y="9" dy="0.71em">0x</text></g><g class="tick" opacity="1" transform="translate(79.34602379496741,0)" style="font-size: 13px;"><line stroke="currentColor" y2="6"></line><text fill="currentColor" y="9" dy="0.71em">5x</text></g><g class="tick" opacity="1" transform="translate(158.19204758993482,0)" style="font-size: 13px;"><line stroke="currentColor" y2="6"></line><text fill="currentColor" y="9" dy="0.71em">10x</text></g><g class="tick" opacity="1" transform="translate(237.03807138490222,0)" style="font-size: 13px;"><line stroke="currentColor" y2="6"></line><text fill="currentColor" y="9" dy="0.71em">15x</text></g><g class="tick" opacity="1" transform="translate(315.88409517986963,0)" style="font-size: 13px;"><line stroke="currentColor" y2="6"></line><text fill="currentColor" y="9" dy="0.71em">20x</text></g><g class="tick" opacity="1" transform="translate(394.730118974837,0)" style="font-size: 13px;"><line stroke="currentColor" y2="6"></line><text fill="currentColor" y="9" dy="0.71em">25x</text></g><g class="tick" opacity="1" transform="translate(473.57614276980445,0)" style="font-size: 13px;"><line stroke="currentColor" y2="6"></line><text fill="currentColor" y="9" dy="0.71em">30x</text></g></g><text transform="translate(400, 30)" style="text-anchor: middle; font-size: 20px; font-weight: bold;">server-performance benchmark</text><rect x="650" y="145" width="230" height="5" fill="gray"></rect><rect x="645" y="35" width="230" height="110" fill="none" stroke="black"></rect><rect x="655" y="45" width="10" height="10" style="fill: #4472c4;"></rect><text x="670" y="55" style="font-size: 12px;">fastify-typia</text><rect x="655" y="65" width="10" height="10" style="fill: #ed7d31;"></rect><text x="670" y="75" style="font-size: 12px;">fastify-pure</text><rect x="655" y="85" width="10" height="10" style="fill: #a5a5a5;"></rect><text x="670" y="95" style="font-size: 12px;">fastify-class-transformer</text><rect x="655" y="105" width="10" height="10" style="fill: #ffc000;"></rect><text x="670" y="115" style="font-size: 12px;">express-typia</text><rect x="655" y="125" width="10" height="10" style="fill: #5b9bd5;"></rect><text x="670" y="135" style="font-size: 12px;">express-class-transformer</text><text x="20" y="709" style="font-size: 12px;">  - CPU: AMD Ryzen 9 7940HS w/ Radeon 780M Graphics</text><text x="20" y="726" style="font-size: 12px;">  - OS: win32</text><text x="20" y="743" style="font-size: 12px;">  - RAM: 31 GB</text><text x="20" y="760" style="font-size: 12px;">  - NodeJS version: v20.10.0</text><text x="20" y="777" style="font-size: 12px;">  - Typia version: v6.0.0-dev.20240118</text><g style="font-size: 13px;"><g style="font-size: 13px;"><rect x="150" y="53.06747341400805" width="215.50039447615336" height="12.541254125412543" fill="#4472c4"></rect><rect x="150" y="66.26879354602124" width="209.12691959421156" height="12.541254125412543" fill="#ed7d31"></rect><rect x="150" y="79.47011367803445" width="15.769204758993482" height="12.541254125412543" fill="#a5a5a5"></rect><rect x="150" y="92.67143381004766" width="134.1182357122702" height="12.541254125412543" fill="#ffc000"></rect><rect x="150" y="105.87275394206085" width="20.715404814179077" height="12.541254125412543" fill="#5b9bd5"></rect><text class="label" x="374.00039447615336" y="61.56747341400805" font-size="10px">13.67x</text><text class="label" x="367.6269195942116" y="74.76879354602124" font-size="10px">13.26x</text><text class="label" x="174.26920475899348" y="87.97011367803445" font-size="10px">1x</text><text class="label" x="292.61823571227023" y="101.17143381004766" font-size="10px">8.51x</text><text class="label" x="179.21540481417907" y="114.37275394206085" font-size="10px">1.31x</text><text class="label" x="370.50039447615336" y="63.06747341400805" font-size="8px"></text><text class="label" x="364.1269195942116" y="76.26879354602124" font-size="8px"></text><text class="label" x="170.76920475899348" y="89.47011367803445" font-size="8px"></text><text class="label" x="289.11823571227023" y="102.67143381004766" font-size="8px"></text><text class="label" x="175.71540481417907" y="115.87275394206085" font-size="8px"></text></g><g style="font-size: 13px;"><rect x="150" y="127.14154748808213" width="195.78314390237006" height="12.541254125412543" fill="#4472c4"></rect><rect x="150" y="140.34286762009532" width="172.3701616212786" height="12.541254125412543" fill="#ed7d31"></rect><rect x="150" y="153.54418775210854" width="15.769204758993482" height="12.541254125412543" fill="#a5a5a5"></rect><rect x="150" y="166.74550788412174" width="159.12924970195706" height="12.541254125412543" fill="#ffc000"></rect><rect x="150" y="179.94682801613493" width="24.29560675963033" height="12.541254125412543" fill="#5b9bd5"></rect><text class="label" x="354.28314390237006" y="135.64154748808213" font-size="10px">12.42x</text><text class="label" x="330.8701616212786" y="148.84286762009532" font-size="10px">10.93x</text><text class="label" x="174.26920475899348" y="162.04418775210854" font-size="10px">1x</text><text class="label" x="317.62924970195706" y="175.24550788412174" font-size="10px">10.09x</text><text class="label" x="182.79560675963035" y="188.44682801613493" font-size="10px">1.54x</text><text class="label" x="350.78314390237006" y="137.14154748808213" font-size="8px"></text><text class="label" x="327.3701616212786" y="150.34286762009532" font-size="8px"></text><text class="label" x="170.76920475899348" y="163.54418775210854" font-size="8px"></text><text class="label" x="314.12924970195706" y="176.74550788412174" font-size="8px"></text><text class="label" x="179.29560675963035" y="189.94682801613493" font-size="8px"></text></g><g style="font-size: 13px;"><rect x="150" y="201.2156215621562" width="192.16576972193803" height="12.541254125412543" fill="#4472c4"></rect><rect x="150" y="214.4169416941694" width="135.23938707309696" height="12.541254125412543" fill="#ed7d31"></rect><rect x="150" y="227.61826182618262" width="15.769204758993482" height="12.541254125412543" fill="#a5a5a5"></rect><rect x="150" y="240.8195819581958" width="163.74508346263866" height="12.541254125412543" fill="#ffc000"></rect><rect x="150" y="254.020902090209" width="22.182022620141677" height="12.541254125412543" fill="#5b9bd5"></rect><text class="label" x="350.66576972193803" y="209.7156215621562" font-size="10px">12.19x</text><text class="label" x="293.73938707309696" y="222.9169416941694" font-size="10px">8.58x</text><text class="label" x="174.26920475899348" y="236.11826182618262" font-size="10px">1x</text><text class="label" x="322.24508346263866" y="249.3195819581958" font-size="10px">10.38x</text><text class="label" x="180.68202262014168" y="262.520902090209" font-size="10px">1.41x</text><text class="label" x="347.16576972193803" y="211.2156215621562" font-size="8px"></text><text class="label" x="290.23938707309696" y="224.4169416941694" font-size="8px"></text><text class="label" x="170.76920475899348" y="237.61826182618262" font-size="8px"></text><text class="label" x="318.74508346263866" y="250.8195819581958" font-size="8px"></text><text class="label" x="177.18202262014168" y="264.020902090209" font-size="8px"></text></g><g style="font-size: 13px;"><rect x="150" y="275.28969563623025" width="392.67246347889983" height="12.541254125412543" fill="#4472c4"></rect><rect x="150" y="288.49101576824347" width="265.8717724023926" height="12.541254125412543" fill="#ed7d31"></rect><rect x="150" y="301.6923359002567" width="15.936915459190459" height="12.541254125412543" fill="#a5a5a5"></rect><rect x="150" y="314.89365603226986" width="387.31941894316617" height="12.541254125412543" fill="#ffc000"></rect><rect x="150" y="328.0949761642831" width="15.769204758993482" height="12.541254125412543" fill="#5b9bd5"></rect><text class="label" x="551.1724634788998" y="283.78969563623025" font-size="10px">24.9x</text><text class="label" x="424.3717724023926" y="296.99101576824347" font-size="10px">16.86x</text><text class="label" x="174.43691545919046" y="310.1923359002567" font-size="10px">1.01x</text><text class="label" x="545.8194189431662" y="323.39365603226986" font-size="10px">24.56x</text><text class="label" x="174.26920475899348" y="336.5949761642831" font-size="10px">1x</text><text class="label" x="547.6724634788998" y="285.28969563623025" font-size="8px"></text><text class="label" x="420.8717724023926" y="298.49101576824347" font-size="8px"></text><text class="label" x="170.93691545919046" y="311.6923359002567" font-size="8px"></text><text class="label" x="542.3194189431662" y="324.89365603226986" font-size="8px"></text><text class="label" x="170.76920475899348" y="338.0949761642831" font-size="8px"></text></g><g style="font-size: 13px;"><rect x="150" y="349.3637697103044" width="193.75929241721792" height="12.541254125412543" fill="#4472c4"></rect><rect x="150" y="362.56508984231755" width="230.98964161098613" height="12.541254125412543" fill="#ed7d31"></rect><rect x="150" y="375.76640997433077" width="16.455736530604344" height="12.541254125412543" fill="#a5a5a5"></rect><rect x="150" y="388.967730106344" width="211.65014955537796" height="12.541254125412543" fill="#ffc000"></rect><rect x="150" y="402.16905023835716" width="15.769204758993482" height="12.541254125412543" fill="#5b9bd5"></rect><text class="label" x="352.2592924172179" y="357.8637697103044" font-size="10px">12.29x</text><text class="label" x="389.48964161098615" y="371.06508984231755" font-size="10px">14.65x</text><text class="label" x="174.95573653060436" y="384.26640997433077" font-size="10px">1.04x</text><text class="label" x="370.150149555378" y="397.467730106344" font-size="10px">13.42x</text><text class="label" x="174.26920475899348" y="410.66905023835716" font-size="10px">1x</text><text class="label" x="348.7592924172179" y="359.3637697103044" font-size="8px"></text><text class="label" x="385.98964161098615" y="372.56508984231755" font-size="8px"></text><text class="label" x="171.45573653060436" y="385.76640997433077" font-size="8px"></text><text class="label" x="366.650149555378" y="398.967730106344" font-size="8px"></text><text class="label" x="170.76920475899348" y="412.16905023835716" font-size="8px"></text></g><g style="font-size: 13px;"><rect x="150" y="423.4378437843784" width="276.5276862500033" height="12.541254125412543" fill="#4472c4"></rect><rect x="150" y="436.6391639163916" width="214.70031062217046" height="12.541254125412543" fill="#ed7d31"></rect><rect x="150" y="449.84048404840485" width="19.034699395718643" height="12.541254125412543" fill="#a5a5a5"></rect><rect x="150" y="463.041804180418" width="440.9090909090909" height="12.541254125412543" fill="#ffc000"></rect><rect x="150" y="476.24312431243123" width="15.769204758993482" height="12.541254125412543" fill="#5b9bd5"></rect><text class="label" x="435.0276862500033" y="431.9378437843784" font-size="10px">17.54x</text><text class="label" x="373.2003106221705" y="445.1391639163916" font-size="10px">13.62x</text><text class="label" x="177.53469939571863" y="458.34048404840485" font-size="10px">1.21x</text><text class="label" x="599.4090909090909" y="471.541804180418" font-size="10px">27.96x</text><text class="label" x="174.26920475899348" y="484.74312431243123" font-size="10px">1x</text><text class="label" x="431.5276862500033" y="433.4378437843784" font-size="8px"></text><text class="label" x="369.7003106221705" y="446.6391639163916" font-size="8px"></text><text class="label" x="174.03469939571863" y="459.84048404840485" font-size="8px"></text><text class="label" x="595.9090909090909" y="473.041804180418" font-size="8px"></text><text class="label" x="170.76920475899348" y="486.24312431243123" font-size="8px"></text></g><g style="font-size: 13px;"><rect x="150" y="497.51191785845253" width="171.97952162070655" height="12.541254125412543" fill="#4472c4"></rect><rect x="150" y="510.7132379904657" width="174.90879246998784" height="12.541254125412543" fill="#ed7d31"></rect><rect x="150" y="523.9145581224789" width="15.769204758993482" height="12.541254125412543" fill="#a5a5a5"></rect><rect x="150" y="537.1158782544921" width="177.04264141718932" height="12.541254125412543" fill="#ffc000"></rect><rect x="150" y="550.3171983865053" width="21.643705336077918" height="12.541254125412543" fill="#5b9bd5"></rect><text class="label" x="330.4795216207066" y="506.01191785845253" font-size="10px">10.91x</text><text class="label" x="333.4087924699878" y="519.2132379904657" font-size="10px">11.09x</text><text class="label" x="174.26920475899348" y="532.4145581224789" font-size="10px">1x</text><text class="label" x="335.5426414171893" y="545.6158782544921" font-size="10px">11.23x</text><text class="label" x="180.14370533607791" y="558.8171983865053" font-size="10px">1.37x</text><text class="label" x="326.9795216207066" y="507.51191785845253" font-size="8px"></text><text class="label" x="329.9087924699878" y="520.7132379904657" font-size="8px"></text><text class="label" x="170.76920475899348" y="533.9145581224789" font-size="8px"></text><text class="label" x="332.0426414171893" y="547.1158782544921" font-size="8px"></text><text class="label" x="176.64370533607791" y="560.3171983865053" font-size="8px"></text></g><g style="font-size: 13px;"><rect x="150" y="571.5859919325266" width="277.7864831886732" height="12.541254125412543" fill="#4472c4"></rect><rect x="150" y="584.7873120645397" width="102.71605664535494" height="12.541254125412543" fill="#ed7d31"></rect><rect x="150" y="597.9886321965529" width="16.043028009586312" height="12.541254125412543" fill="#a5a5a5"></rect><rect x="150" y="611.1899523285662" width="279.51803847104003" height="12.541254125412543" fill="#ffc000"></rect><rect x="150" y="624.3912724605793" width="15.769204758993482" height="12.541254125412543" fill="#5b9bd5"></rect><text class="label" x="436.2864831886732" y="580.0859919325266" font-size="10px">17.62x</text><text class="label" x="261.2160566453549" y="593.2873120645397" font-size="10px">6.51x</text><text class="label" x="174.54302800958632" y="606.4886321965529" font-size="10px">1.02x</text><text class="label" x="438.01803847104003" y="619.6899523285662" font-size="10px">17.73x</text><text class="label" x="174.26920475899348" y="632.8912724605793" font-size="10px">1x</text><text class="label" x="432.7864831886732" y="581.5859919325266" font-size="8px"></text><text class="label" x="257.7160566453549" y="594.7873120645397" font-size="8px"></text><text class="label" x="171.04302800958632" y="607.9886321965529" font-size="8px"></text><text class="label" x="434.51803847104003" y="621.1899523285662" font-size="8px"></text><text class="label" x="170.76920475899348" y="634.3912724605793" font-size="8px"></text></g></g></svg>