<svg xmlns="http://www.w3.org/2000/svg" xmlns:xlink="http://www.w3.org/1999/xlink" width="800" height="914" style="background-color: white;"><g class="y axis" transform="translate(149,45)" fill="none" font-size="10" font-family="sans-serif" text-anchor="end" style="font-size: 13px;"><path class="domain" stroke="currentColor" d="M0.5,0.5V720.5"></path><g class="tick" opacity="1" transform="translate(0,48.88888888888886)" style="font-size: 13px;"><line stroke="currentColor" x2="0"></line><text fill="currentColor" x="-3" dy="0.32em">object (simple)    </text></g><g class="tick" opacity="1" transform="translate(0,137.77777777777774)" style="font-size: 13px;"><line stroke="currentColor" x2="0"></line><text fill="currentColor" x="-3" dy="0.32em">object (hierarchical)    </text></g><g class="tick" opacity="1" transform="translate(0,226.66666666666663)" style="font-size: 13px;"><line stroke="currentColor" x2="0"></line><text fill="currentColor" x="-3" dy="0.32em">object (recursive)    </text></g><g class="tick" opacity="1" transform="translate(0,315.5555555555555)" style="font-size: 13px;"><line stroke="currentColor" x2="0"></line><text fill="currentColor" x="-3" dy="0.32em">object (union, explicit)    </text></g><g class="tick" opacity="1" transform="translate(0,404.4444444444444)" style="font-size: 13px;"><line stroke="currentColor" x2="0"></line><text fill="currentColor" x="-3" dy="0.32em">array (simple)    </text></g><g class="tick" opacity="1" transform="translate(0,493.3333333333333)" style="font-size: 13px;"><line stroke="currentColor" x2="0"></line><text fill="currentColor" x="-3" dy="0.32em">array (hierarchical)    </text></g><g class="tick" opacity="1" transform="translate(0,582.2222222222222)" style="font-size: 13px;"><line stroke="currentColor" x2="0"></line><text fill="currentColor" x="-3" dy="0.32em">array (recursive)    </text></g><g class="tick" opacity="1" transform="translate(0,671.1111111111111)" style="font-size: 13px;"><line stroke="currentColor" x2="0"></line><text fill="currentColor" x="-3" dy="0.32em">array (union, explicit)    </text></g></g><g class="x axis" transform="translate(149,765)" fill="none" font-size="10" font-family="sans-serif" text-anchor="middle" style="font-size: 13px;"><path class="domain" stroke="currentColor" d="M0.5,0.5H485.5"></path><g class="tick" opacity="1" transform="translate(0.5,0)" style="font-size: 13px;"><line stroke="currentColor" y2="6"></line><text fill="currentColor" y="9" dy="0.71em">0x</text></g><g class="tick" opacity="1" transform="translate(73.41994304672589,0)" style="font-size: 13px;"><line stroke="currentColor" y2="6"></line><text fill="currentColor" y="9" dy="0.71em">5x</text></g><g class="tick" opacity="1" transform="translate(146.33988609345178,0)" style="font-size: 13px;"><line stroke="currentColor" y2="6"></line><text fill="currentColor" y="9" dy="0.71em">10x</text></g><g class="tick" opacity="1" transform="translate(219.2598291401777,0)" style="font-size: 13px;"><line stroke="currentColor" y2="6"></line><text fill="currentColor" y="9" dy="0.71em">15x</text></g><g class="tick" opacity="1" transform="translate(292.17977218690356,0)" style="font-size: 13px;"><line stroke="currentColor" y2="6"></line><text fill="currentColor" y="9" dy="0.71em">20x</text></g><g class="tick" opacity="1" transform="translate(365.09971523362947,0)" style="font-size: 13px;"><line stroke="currentColor" y2="6"></line><text fill="currentColor" y="9" dy="0.71em">25x</text></g><g class="tick" opacity="1" transform="translate(438.0196582803554,0)" style="font-size: 13px;"><line stroke="currentColor" y2="6"></line><text fill="currentColor" y="9" dy="0.71em">30x</text></g></g><text transform="translate(400, 30)" style="text-anchor: middle; font-size: 20px; font-weight: bold;">server-stringify benchmark</text><rect x="650" y="165" width="230" height="5" fill="gray"></rect><rect x="645" y="35" width="230" height="130" fill="none" stroke="black"></rect><rect x="655" y="45" width="10" height="10" style="fill: #4472c4;"></rect><text x="670" y="55" style="font-size: 12px;">fastify-typia</text><rect x="655" y="65" width="10" height="10" style="fill: #ed7d31;"></rect><text x="670" y="75" style="font-size: 12px;">fastify-pure</text><rect x="655" y="85" width="10" height="10" style="fill: #a5a5a5;"></rect><text x="670" y="95" style="font-size: 12px;">fastify-class-transformer</text><rect x="655" y="105" width="10" height="10" style="fill: #ffc000;"></rect><text x="670" y="115" style="font-size: 12px;">express-typia</text><rect x="655" y="125" width="10" height="10" style="fill: #5b9bd5;"></rect><text x="670" y="135" style="font-size: 12px;">express-pure</text><rect x="655" y="145" width="10" height="10" style="fill: #70ad47;"></rect><text x="670" y="155" style="font-size: 12px;">express-class-transformer</text><text x="20" y="829" style="font-size: 12px;">  - CPU: AMD Ryzen 9 7940HS w/ Radeon 780M Graphics</text><text x="20" y="846" style="font-size: 12px;">  - OS: win32</text><text x="20" y="863" style="font-size: 12px;">  - RAM: 31 GB</text><text x="20" y="880" style="font-size: 12px;">  - NodeJS version: v20.10.0</text><text x="20" y="897" style="font-size: 12px;">  - Typia version: v6.0.0-dev.20240118</text><g style="font-size: 13px;"><g style="font-size: 13px;"><rect x="150" y="54.55004591368224" width="299.83653381740135" height="12.56198347107438" fill="#4472c4"></rect><rect x="150" y="67.77318640955001" width="285.9600922347777" height="12.56198347107438" fill="#ed7d31"></rect><rect x="150" y="80.99632690541777" width="15.185690260938873" height="12.56198347107438" fill="#a5a5a5"></rect><rect x="150" y="94.21946740128556" width="146.20599490597147" height="12.56198347107438" fill="#ffc000"></rect><rect x="150" y="107.44260789715332" width="105.80760290285465" height="12.56198347107438" fill="#5b9bd5"></rect><rect x="150" y="120.66574839302109" width="14.583988609345178" height="12.56198347107438" fill="#70ad47"></rect><text class="label" x="458.33653381740135" y="63.05004591368224" font-size="10px">20.56x</text><text class="label" x="444.4600922347777" y="76.27318640955001" font-size="10px">19.61x</text><text class="label" x="173.68569026093888" y="89.49632690541777" font-size="10px">1.04x</text><text class="label" x="304.70599490597147" y="102.71946740128556" font-size="10px">10.03x</text><text class="label" x="264.3076029028547" y="115.94260789715332" font-size="10px">7.26x</text><text class="label" x="173.08398860934517" y="129.1657483930211" font-size="10px">1x</text><text class="label" x="454.83653381740135" y="64.55004591368224" font-size="8px"></text><text class="label" x="440.9600922347777" y="77.77318640955001" font-size="8px"></text><text class="label" x="170.18569026093888" y="90.99632690541777" font-size="8px"></text><text class="label" x="301.20599490597147" y="104.21946740128556" font-size="8px"></text><text class="label" x="260.8076029028547" y="117.44260789715332" font-size="8px"></text><text class="label" x="169.58398860934517" y="130.6657483930211" font-size="8px"></text></g><g style="font-size: 13px;"><rect x="150" y="143.4389348025711" width="240.3792346864137" height="12.56198347107438" fill="#4472c4"></rect><rect x="150" y="156.66207529843888" width="177.8595336620826" height="12.56198347107438" fill="#ed7d31"></rect><rect x="150" y="169.88521579430665" width="15.136574451727377" height="12.56198347107438" fill="#a5a5a5"></rect><rect x="150" y="183.10835629017444" width="174.3729895515115" height="12.56198347107438" fill="#ffc000"></rect><rect x="150" y="196.3314967860422" width="113.04667661468375" height="12.56198347107438" fill="#5b9bd5"></rect><rect x="150" y="209.55463728190998" width="14.583988609345178" height="12.56198347107438" fill="#70ad47"></rect><text class="label" x="398.8792346864137" y="151.9389348025711" font-size="10px">16.48x</text><text class="label" x="336.35953366208264" y="165.16207529843888" font-size="10px">12.2x</text><text class="label" x="173.63657445172737" y="178.38521579430665" font-size="10px">1.04x</text><text class="label" x="332.8729895515115" y="191.60835629017444" font-size="10px">11.96x</text><text class="label" x="271.54667661468375" y="204.8314967860422" font-size="10px">7.75x</text><text class="label" x="173.08398860934517" y="218.05463728190998" font-size="10px">1x</text><text class="label" x="395.3792346864137" y="153.4389348025711" font-size="8px"></text><text class="label" x="332.85953366208264" y="166.66207529843888" font-size="8px"></text><text class="label" x="170.13657445172737" y="179.88521579430665" font-size="8px"></text><text class="label" x="329.3729895515115" y="193.10835629017444" font-size="8px"></text><text class="label" x="268.04667661468375" y="206.3314967860422" font-size="8px"></text><text class="label" x="169.58398860934517" y="219.55463728190998" font-size="8px"></text></g><g style="font-size: 13px;"><rect x="150" y="232.32782369146003" width="351.15640923647885" height="12.56198347107438" fill="#4472c4"></rect><rect x="150" y="245.5509641873278" width="178.72453127170886" height="12.56198347107438" fill="#ed7d31"></rect><rect x="150" y="258.77410468319556" width="14.583988609345178" height="12.56198347107438" fill="#a5a5a5"></rect><rect x="150" y="271.9972451790633" width="283.048422620908" height="12.56198347107438" fill="#ffc000"></rect><rect x="150" y="285.2203856749311" width="191.22279258152125" height="12.56198347107438" fill="#5b9bd5"></rect><rect x="150" y="298.44352617079886" width="19.477052740707936" height="12.56198347107438" fill="#70ad47"></rect><text class="label" x="509.65640923647885" y="240.82782369146003" font-size="10px">24.08x</text><text class="label" x="337.2245312717089" y="254.0509641873278" font-size="10px">12.25x</text><text class="label" x="173.08398860934517" y="267.27410468319556" font-size="10px">1x</text><text class="label" x="441.548422620908" y="280.4972451790633" font-size="10px">19.41x</text><text class="label" x="349.7227925815213" y="293.7203856749311" font-size="10px">13.11x</text><text class="label" x="177.97705274070793" y="306.94352617079886" font-size="10px">1.34x</text><text class="label" x="506.15640923647885" y="242.32782369146003" font-size="8px"></text><text class="label" x="333.7245312717089" y="255.5509641873278" font-size="8px"></text><text class="label" x="169.58398860934517" y="268.77410468319556" font-size="8px"></text><text class="label" x="438.048422620908" y="281.9972451790633" font-size="8px"></text><text class="label" x="346.2227925815213" y="295.2203856749311" font-size="8px"></text><text class="label" x="174.47705274070793" y="308.44352617079886" font-size="8px"></text></g><g style="font-size: 13px;"><rect x="150" y="321.2167125803489" width="440.9090909090908" height="12.56198347107438" fill="#4472c4"></rect><rect x="150" y="334.43985307621665" width="272.4821933980699" height="12.56198347107438" fill="#ed7d31"></rect><rect x="150" y="347.6629935720844" width="14.995230679369856" height="12.56198347107438" fill="#a5a5a5"></rect><rect x="150" y="360.8861340679522" width="373.1058752341574" height="12.56198347107438" fill="#ffc000"></rect><rect x="150" y="374.10927456381995" width="230.28454796107738" height="12.56198347107438" fill="#5b9bd5"></rect><rect x="150" y="387.3324150596877" width="14.583988609345178" height="12.56198347107438" fill="#70ad47"></rect><text class="label" x="599.4090909090908" y="329.7167125803489" font-size="10px">30.23x</text><text class="label" x="430.9821933980699" y="342.93985307621665" font-size="10px">18.68x</text><text class="label" x="173.49523067936985" y="356.1629935720844" font-size="10px">1.03x</text><text class="label" x="531.6058752341573" y="369.3861340679522" font-size="10px">25.58x</text><text class="label" x="388.78454796107735" y="382.60927456381995" font-size="10px">15.79x</text><text class="label" x="173.08398860934517" y="395.8324150596877" font-size="10px">1x</text><text class="label" x="595.9090909090908" y="331.2167125803489" font-size="8px"></text><text class="label" x="427.4821933980699" y="344.43985307621665" font-size="8px"></text><text class="label" x="169.99523067936985" y="357.6629935720844" font-size="8px"></text><text class="label" x="528.1058752341573" y="370.8861340679522" font-size="8px"></text><text class="label" x="385.28454796107735" y="384.10927456381995" font-size="8px"></text><text class="label" x="169.58398860934517" y="397.3324150596877" font-size="8px"></text></g><g style="font-size: 13px;"><rect x="150" y="410.1056014692378" width="180.069986448391" height="12.56198347107438" fill="#4472c4"></rect><rect x="150" y="423.32874196510556" width="200.3649174654866" height="12.56198347107438" fill="#ed7d31"></rect><rect x="150" y="436.55188246097333" width="14.932923642175147" height="12.56198347107438" fill="#a5a5a5"></rect><rect x="150" y="449.7750229568411" width="156.57458267689302" height="12.56198347107438" fill="#ffc000"></rect><rect x="150" y="462.99816345270887" width="150.51033510864352" height="12.56198347107438" fill="#5b9bd5"></rect><rect x="150" y="476.22130394857663" width="14.583988609345178" height="12.56198347107438" fill="#70ad47"></rect><text class="label" x="338.569986448391" y="418.6056014692378" font-size="10px">12.35x</text><text class="label" x="358.8649174654866" y="431.82874196510556" font-size="10px">13.74x</text><text class="label" x="173.43292364217515" y="445.05188246097333" font-size="10px">1.02x</text><text class="label" x="315.074582676893" y="458.2750229568411" font-size="10px">10.74x</text><text class="label" x="309.0103351086435" y="471.49816345270887" font-size="10px">10.32x</text><text class="label" x="173.08398860934517" y="484.72130394857663" font-size="10px">1x</text><text class="label" x="335.069986448391" y="420.1056014692378" font-size="8px"></text><text class="label" x="355.3649174654866" y="433.32874196510556" font-size="8px"></text><text class="label" x="169.93292364217515" y="446.55188246097333" font-size="8px"></text><text class="label" x="311.574582676893" y="459.7750229568411" font-size="8px"></text><text class="label" x="305.5103351086435" y="472.99816345270887" font-size="8px"></text><text class="label" x="169.58398860934517" y="486.22130394857663" font-size="8px"></text></g><g style="font-size: 13px;"><rect x="150" y="498.9944903581267" width="245.4979775624286" height="12.56198347107438" fill="#4472c4"></rect><rect x="150" y="512.2176308539945" width="120.51374150860427" height="12.56198347107438" fill="#ed7d31"></rect><rect x="150" y="525.4407713498622" width="14.583988609345178" height="12.56198347107438" fill="#a5a5a5"></rect><rect x="150" y="538.66391184573" width="244.94062014924035" height="12.56198347107438" fill="#ffc000"></rect><rect x="150" y="551.8870523415978" width="173.43051053572034" height="12.56198347107438" fill="#5b9bd5"></rect><rect x="150" y="565.1101928374655" width="15.366605970881084" height="12.56198347107438" fill="#70ad47"></rect><text class="label" x="403.99797756242856" y="507.4944903581267" font-size="10px">16.83x</text><text class="label" x="279.01374150860426" y="520.7176308539945" font-size="10px">8.26x</text><text class="label" x="173.08398860934517" y="533.9407713498622" font-size="10px">1x</text><text class="label" x="403.4406201492403" y="547.16391184573" font-size="10px">16.8x</text><text class="label" x="331.9305105357204" y="560.3870523415978" font-size="10px">11.89x</text><text class="label" x="173.8666059708811" y="573.6101928374655" font-size="10px">1.05x</text><text class="label" x="400.49797756242856" y="508.9944903581267" font-size="8px"></text><text class="label" x="275.51374150860426" y="522.2176308539945" font-size="8px"></text><text class="label" x="169.58398860934517" y="535.4407713498622" font-size="8px"></text><text class="label" x="399.9406201492403" y="548.66391184573" font-size="8px"></text><text class="label" x="328.4305105357204" y="561.8870523415978" font-size="8px"></text><text class="label" x="170.3666059708811" y="575.1101928374655" font-size="8px"></text></g><g style="font-size: 13px;"><rect x="150" y="587.8833792470156" width="191.46475282459974" height="12.56198347107438" fill="#4472c4"></rect><rect x="150" y="601.1065197428833" width="121.24777066486237" height="12.56198347107438" fill="#ed7d31"></rect><rect x="150" y="614.3296602387511" width="14.62546215920404" height="12.56198347107438" fill="#a5a5a5"></rect><rect x="150" y="627.5528007346188" width="201.46815999538995" height="12.56198347107438" fill="#ffc000"></rect><rect x="150" y="640.7759412304866" width="155.50771459244095" height="12.56198347107438" fill="#5b9bd5"></rect><rect x="150" y="653.9990817263545" width="14.583988609345178" height="12.56198347107438" fill="#70ad47"></rect><text class="label" x="349.9647528245997" y="596.3833792470156" font-size="10px">13.13x</text><text class="label" x="279.7477706648624" y="609.6065197428833" font-size="10px">8.31x</text><text class="label" x="173.12546215920403" y="622.8296602387511" font-size="10px">1x</text><text class="label" x="359.96815999538995" y="636.0528007346188" font-size="10px">13.81x</text><text class="label" x="314.00771459244095" y="649.2759412304866" font-size="10px">10.66x</text><text class="label" x="173.08398860934517" y="662.4990817263545" font-size="10px">1x</text><text class="label" x="346.4647528245997" y="597.8833792470156" font-size="8px"></text><text class="label" x="276.2477706648624" y="611.1065197428833" font-size="8px"></text><text class="label" x="169.62546215920403" y="624.3296602387511" font-size="8px"></text><text class="label" x="356.46815999538995" y="637.5528007346188" font-size="8px"></text><text class="label" x="310.50771459244095" y="650.7759412304866" font-size="8px"></text><text class="label" x="169.58398860934517" y="663.9990817263545" font-size="8px"></text></g><g style="font-size: 13px;"><rect x="150" y="676.7722681359045" width="195.07557093289603" height="12.56198347107438" fill="#4472c4"></rect><rect x="150" y="689.9954086317722" width="47.66421798496693" height="12.56198347107438" fill="#ed7d31"></rect><rect x="150" y="703.21854912764" width="14.583988609345178" height="12.56198347107438" fill="#a5a5a5"></rect><rect x="150" y="716.4416896235077" width="185.63175683463217" height="12.56198347107438" fill="#ffc000"></rect><rect x="150" y="729.6648301193756" width="194.6577563744713" height="12.56198347107438" fill="#5b9bd5"></rect><rect x="150" y="742.8879706152434" width="15.250533696919195" height="12.56198347107438" fill="#70ad47"></rect><text class="label" x="353.575570932896" y="685.2722681359045" font-size="10px">13.38x</text><text class="label" x="206.16421798496694" y="698.4954086317722" font-size="10px">3.27x</text><text class="label" x="173.08398860934517" y="711.71854912764" font-size="10px">1x</text><text class="label" x="344.13175683463214" y="724.9416896235077" font-size="10px">12.73x</text><text class="label" x="353.1577563744713" y="738.1648301193756" font-size="10px">13.35x</text><text class="label" x="173.7505336969192" y="751.3879706152434" font-size="10px">1.05x</text><text class="label" x="350.075570932896" y="686.7722681359045" font-size="8px"></text><text class="label" x="202.66421798496694" y="699.9954086317722" font-size="8px"></text><text class="label" x="169.58398860934517" y="713.21854912764" font-size="8px"></text><text class="label" x="340.63175683463214" y="726.4416896235077" font-size="8px"></text><text class="label" x="349.6577563744713" y="739.6648301193756" font-size="8px"></text><text class="label" x="170.2505336969192" y="752.8879706152434" font-size="8px"></text></g></g></svg>