<svg xmlns="http://www.w3.org/2000/svg" xmlns:xlink="http://www.w3.org/1999/xlink" width="800" height="914" style="background-color: white;"><g class="y axis" transform="translate(149,45)" fill="none" font-size="10" font-family="sans-serif" text-anchor="end" style="font-size: 13px;"><path class="domain" stroke="currentColor" d="M0.5,0.5V720.5"></path><g class="tick" opacity="1" transform="translate(0,48.88888888888886)" style="font-size: 13px;"><line stroke="currentColor" x2="0"></line><text fill="currentColor" x="-3" dy="0.32em">object (simple)    </text></g><g class="tick" opacity="1" transform="translate(0,137.77777777777774)" style="font-size: 13px;"><line stroke="currentColor" x2="0"></line><text fill="currentColor" x="-3" dy="0.32em">object (hierarchical)    </text></g><g class="tick" opacity="1" transform="translate(0,226.66666666666663)" style="font-size: 13px;"><line stroke="currentColor" x2="0"></line><text fill="currentColor" x="-3" dy="0.32em">object (recursive)    </text></g><g class="tick" opacity="1" transform="translate(0,315.5555555555555)" style="font-size: 13px;"><line stroke="currentColor" x2="0"></line><text fill="currentColor" x="-3" dy="0.32em">object (union, explicit)    </text></g><g class="tick" opacity="1" transform="translate(0,404.4444444444444)" style="font-size: 13px;"><line stroke="currentColor" x2="0"></line><text fill="currentColor" x="-3" dy="0.32em">array (simple)    </text></g><g class="tick" opacity="1" transform="translate(0,493.3333333333333)" style="font-size: 13px;"><line stroke="currentColor" x2="0"></line><text fill="currentColor" x="-3" dy="0.32em">array (hierarchical)    </text></g><g class="tick" opacity="1" transform="translate(0,582.2222222222222)" style="font-size: 13px;"><line stroke="currentColor" x2="0"></line><text fill="currentColor" x="-3" dy="0.32em">array (recursive)    </text></g><g class="tick" opacity="1" transform="translate(0,671.1111111111111)" style="font-size: 13px;"><line stroke="currentColor" x2="0"></line><text fill="currentColor" x="-3" dy="0.32em">array (union, explicit)    </text></g></g><g class="x axis" transform="translate(149,765)" fill="none" font-size="10" font-family="sans-serif" text-anchor="middle" style="font-size: 13px;"><path class="domain" stroke="currentColor" d="M0.5,0.5H485.5"></path><g class="tick" opacity="1" transform="translate(0.5,0)" style="font-size: 13px;"><line stroke="currentColor" y2="6"></line><text fill="currentColor" y="9" dy="0.71em">0x</text></g><g class="tick" opacity="1" transform="translate(78.49116429027545,0)" style="font-size: 13px;"><line stroke="currentColor" y2="6"></line><text fill="currentColor" y="9" dy="0.71em">5x</text></g><g class="tick" opacity="1" transform="translate(156.4823285805509,0)" style="font-size: 13px;"><line stroke="currentColor" y2="6"></line><text fill="currentColor" y="9" dy="0.71em">10x</text></g><g class="tick" opacity="1" transform="translate(234.47349287082633,0)" style="font-size: 13px;"><line stroke="currentColor" y2="6"></line><text fill="currentColor" y="9" dy="0.71em">15x</text></g><g class="tick" opacity="1" transform="translate(312.4646571611018,0)" style="font-size: 13px;"><line stroke="currentColor" y2="6"></line><text fill="currentColor" y="9" dy="0.71em">20x</text></g><g class="tick" opacity="1" transform="translate(390.4558214513773,0)" style="font-size: 13px;"><line stroke="currentColor" y2="6"></line><text fill="currentColor" y="9" dy="0.71em">25x</text></g><g class="tick" opacity="1" transform="translate(468.44698574165267,0)" style="font-size: 13px;"><line stroke="currentColor" y2="6"></line><text fill="currentColor" y="9" dy="0.71em">30x</text></g></g><text transform="translate(400, 30)" style="text-anchor: middle; font-size: 20px; font-weight: bold;">server-stringify benchmark</text><rect x="650" y="165" width="230" height="5" fill="gray"></rect><rect x="645" y="35" width="230" height="130" fill="none" stroke="black"></rect><rect x="655" y="45" width="10" height="10" style="fill: #4472c4;"></rect><text x="670" y="55" style="font-size: 12px;">fastify-typia</text><rect x="655" y="65" width="10" height="10" style="fill: #ed7d31;"></rect><text x="670" y="75" style="font-size: 12px;">fastify-pure</text><rect x="655" y="85" width="10" height="10" style="fill: #a5a5a5;"></rect><text x="670" y="95" style="font-size: 12px;">fastify-class-transformer</text><rect x="655" y="105" width="10" height="10" style="fill: #ffc000;"></rect><text x="670" y="115" style="font-size: 12px;">express-typia</text><rect x="655" y="125" width="10" height="10" style="fill: #5b9bd5;"></rect><text x="670" y="135" style="font-size: 12px;">express-pure</text><rect x="655" y="145" width="10" height="10" style="fill: #70ad47;"></rect><text x="670" y="155" style="font-size: 12px;">express-class-transformer</text><text x="20" y="829" style="font-size: 12px;">  - CPU: AMD Ryzen 9 7940HS w/ Radeon 780M Graphics</text><text x="20" y="846" style="font-size: 12px;">  - OS: win32</text><text x="20" y="863" style="font-size: 12px;">  - RAM: 31 GB</text><text x="20" y="880" style="font-size: 12px;">  - NodeJS version: v20.10.0</text><text x="20" y="897" style="font-size: 12px;">  - Typia version: v5.5.7</text><g style="font-size: 13px;"><g style="font-size: 13px;"><rect x="150" y="54.55004591368224" width="288.336211063957" height="12.56198347107438" fill="#4472c4"></rect><rect x="150" y="67.77318640955001" width="266.363363196795" height="12.56198347107438" fill="#ed7d31"></rect><rect x="150" y="80.99632690541777" width="16.909587976457786" height="12.56198347107438" fill="#a5a5a5"></rect><rect x="150" y="94.21946740128556" width="149.6417381671907" height="12.56198347107438" fill="#ffc000"></rect><rect x="150" y="107.44260789715332" width="108.84556918475548" height="12.56198347107438" fill="#5b9bd5"></rect><rect x="150" y="120.66574839302109" width="15.598232858055091" height="12.56198347107438" fill="#70ad47"></rect><text class="label" x="446.836211063957" y="63.05004591368224" font-size="10px">18.49x</text><text class="label" x="424.863363196795" y="76.27318640955001" font-size="10px">17.08x</text><text class="label" x="175.40958797645777" y="89.49632690541777" font-size="10px">1.08x</text><text class="label" x="308.14173816719074" y="102.71946740128556" font-size="10px">9.59x</text><text class="label" x="267.3455691847555" y="115.94260789715332" font-size="10px">6.98x</text><text class="label" x="174.0982328580551" y="129.1657483930211" font-size="10px">1x</text><text class="label" x="443.336211063957" y="64.55004591368224" font-size="8px"></text><text class="label" x="421.363363196795" y="77.77318640955001" font-size="8px"></text><text class="label" x="171.90958797645777" y="90.99632690541777" font-size="8px"></text><text class="label" x="304.64173816719074" y="104.21946740128556" font-size="8px"></text><text class="label" x="263.8455691847555" y="117.44260789715332" font-size="8px"></text><text class="label" x="170.5982328580551" y="130.6657483930211" font-size="8px"></text></g><g style="font-size: 13px;"><rect x="150" y="143.4389348025711" width="269.74313727182874" height="12.56198347107438" fill="#4472c4"></rect><rect x="150" y="156.66207529843888" width="216.20212978172003" height="12.56198347107438" fill="#ed7d31"></rect><rect x="150" y="169.88521579430665" width="15.598232858055091" height="12.56198347107438" fill="#a5a5a5"></rect><rect x="150" y="183.10835629017444" width="211.34090699570615" height="12.56198347107438" fill="#ffc000"></rect><rect x="150" y="196.3314967860422" width="148.32929618331082" height="12.56198347107438" fill="#5b9bd5"></rect><rect x="150" y="209.55463728190998" width="19.05374954969848" height="12.56198347107438" fill="#70ad47"></rect><text class="label" x="428.24313727182874" y="151.9389348025711" font-size="10px">17.29x</text><text class="label" x="374.70212978172003" y="165.16207529843888" font-size="10px">13.86x</text><text class="label" x="174.0982328580551" y="178.38521579430665" font-size="10px">1x</text><text class="label" x="369.8409069957062" y="191.60835629017444" font-size="10px">13.55x</text><text class="label" x="306.8292961833108" y="204.8314967860422" font-size="10px">9.51x</text><text class="label" x="177.55374954969847" y="218.05463728190998" font-size="10px">1.22x</text><text class="label" x="424.74313727182874" y="153.4389348025711" font-size="8px"></text><text class="label" x="371.20212978172003" y="166.66207529843888" font-size="8px"></text><text class="label" x="170.5982328580551" y="179.88521579430665" font-size="8px"></text><text class="label" x="366.3409069957062" y="193.10835629017444" font-size="8px"></text><text class="label" x="303.3292961833108" y="206.3314967860422" font-size="8px"></text><text class="label" x="174.05374954969847" y="219.55463728190998" font-size="8px"></text></g><g style="font-size: 13px;"><rect x="150" y="232.32782369146003" width="262.49262860787707" height="12.56198347107438" fill="#4472c4"></rect><rect x="150" y="245.5509641873278" width="133.46038018732597" height="12.56198347107438" fill="#ed7d31"></rect><rect x="150" y="258.77410468319556" width="15.993634821688643" height="12.56198347107438" fill="#a5a5a5"></rect><rect x="150" y="271.9972451790633" width="217.7900343678826" height="12.56198347107438" fill="#ffc000"></rect><rect x="150" y="285.2203856749311" width="153.09238910870246" height="12.56198347107438" fill="#5b9bd5"></rect><rect x="150" y="298.44352617079886" width="15.598232858055091" height="12.56198347107438" fill="#70ad47"></rect><text class="label" x="420.99262860787707" y="240.82782369146003" font-size="10px">16.83x</text><text class="label" x="291.960380187326" y="254.0509641873278" font-size="10px">8.56x</text><text class="label" x="174.49363482168863" y="267.27410468319556" font-size="10px">1.03x</text><text class="label" x="376.29003436788264" y="280.4972451790633" font-size="10px">13.96x</text><text class="label" x="311.5923891087025" y="293.7203856749311" font-size="10px">9.81x</text><text class="label" x="174.0982328580551" y="306.94352617079886" font-size="10px">1x</text><text class="label" x="417.49262860787707" y="242.32782369146003" font-size="8px"></text><text class="label" x="288.460380187326" y="255.5509641873278" font-size="8px"></text><text class="label" x="170.99363482168863" y="268.77410468319556" font-size="8px"></text><text class="label" x="372.79003436788264" y="281.9972451790633" font-size="8px"></text><text class="label" x="308.0923891087025" y="295.2203856749311" font-size="8px"></text><text class="label" x="170.5982328580551" y="308.44352617079886" font-size="8px"></text></g><g style="font-size: 13px;"><rect x="150" y="321.2167125803489" width="440.9090909090908" height="12.56198347107438" fill="#4472c4"></rect><rect x="150" y="334.43985307621665" width="259.1167882347898" height="12.56198347107438" fill="#ed7d31"></rect><rect x="150" y="347.6629935720844" width="15.598232858055091" height="12.56198347107438" fill="#a5a5a5"></rect><rect x="150" y="360.8861340679522" width="377.8728558680452" height="12.56198347107438" fill="#ffc000"></rect><rect x="150" y="374.10927456381995" width="235.9198217137864" height="12.56198347107438" fill="#5b9bd5"></rect><rect x="150" y="387.3324150596877" width="15.680412437024062" height="12.56198347107438" fill="#70ad47"></rect><text class="label" x="599.4090909090908" y="329.7167125803489" font-size="10px">28.27x</text><text class="label" x="417.6167882347898" y="342.93985307621665" font-size="10px">16.61x</text><text class="label" x="174.0982328580551" y="356.1629935720844" font-size="10px">1x</text><text class="label" x="536.3728558680452" y="369.3861340679522" font-size="10px">24.23x</text><text class="label" x="394.4198217137864" y="382.60927456381995" font-size="10px">15.12x</text><text class="label" x="174.18041243702407" y="395.8324150596877" font-size="10px">1.01x</text><text class="label" x="595.9090909090908" y="331.2167125803489" font-size="8px"></text><text class="label" x="414.1167882347898" y="344.43985307621665" font-size="8px"></text><text class="label" x="170.5982328580551" y="357.6629935720844" font-size="8px"></text><text class="label" x="532.8728558680452" y="370.8861340679522" font-size="8px"></text><text class="label" x="390.9198217137864" y="384.10927456381995" font-size="8px"></text><text class="label" x="170.68041243702407" y="397.3324150596877" font-size="8px"></text></g><g style="font-size: 13px;"><rect x="150" y="410.1056014692378" width="177.0166495293757" height="12.56198347107438" fill="#4472c4"></rect><rect x="150" y="423.32874196510556" width="182.7737781644359" height="12.56198347107438" fill="#ed7d31"></rect><rect x="150" y="436.55188246097333" width="15.598232858055091" height="12.56198347107438" fill="#a5a5a5"></rect><rect x="150" y="449.7750229568411" width="160.21061774944437" height="12.56198347107438" fill="#ffc000"></rect><rect x="150" y="462.99816345270887" width="153.19722601433574" height="12.56198347107438" fill="#5b9bd5"></rect><rect x="150" y="476.22130394857663" width="15.773432288633206" height="12.56198347107438" fill="#70ad47"></rect><text class="label" x="335.51664952937574" y="418.6056014692378" font-size="10px">11.35x</text><text class="label" x="341.2737781644359" y="431.82874196510556" font-size="10px">11.72x</text><text class="label" x="174.0982328580551" y="445.05188246097333" font-size="10px">1x</text><text class="label" x="318.7106177494444" y="458.2750229568411" font-size="10px">10.27x</text><text class="label" x="311.69722601433574" y="471.49816345270887" font-size="10px">9.82x</text><text class="label" x="174.27343228863322" y="484.72130394857663" font-size="10px">1.01x</text><text class="label" x="332.01664952937574" y="420.1056014692378" font-size="8px"></text><text class="label" x="337.7737781644359" y="433.32874196510556" font-size="8px"></text><text class="label" x="170.5982328580551" y="446.55188246097333" font-size="8px"></text><text class="label" x="315.2106177494444" y="459.7750229568411" font-size="8px"></text><text class="label" x="308.19722601433574" y="472.99816345270887" font-size="8px"></text><text class="label" x="170.77343228863322" y="486.22130394857663" font-size="8px"></text></g><g style="font-size: 13px;"><rect x="150" y="498.9944903581267" width="228.46069378767214" height="12.56198347107438" fill="#4472c4"></rect><rect x="150" y="512.2176308539945" width="106.29862066442442" height="12.56198347107438" fill="#ed7d31"></rect><rect x="150" y="525.4407713498622" width="15.82660751538669" height="12.56198347107438" fill="#a5a5a5"></rect><rect x="150" y="538.66391184573" width="234.2543585860862" height="12.56198347107438" fill="#ffc000"></rect><rect x="150" y="551.8870523415978" width="171.23107092748708" height="12.56198347107438" fill="#5b9bd5"></rect><rect x="150" y="565.1101928374655" width="15.598232858055091" height="12.56198347107438" fill="#70ad47"></rect><text class="label" x="386.96069378767214" y="507.4944903581267" font-size="10px">14.65x</text><text class="label" x="264.79862066442445" y="520.7176308539945" font-size="10px">6.81x</text><text class="label" x="174.32660751538668" y="533.9407713498622" font-size="10px">1.01x</text><text class="label" x="392.7543585860862" y="547.16391184573" font-size="10px">15.02x</text><text class="label" x="329.73107092748705" y="560.3870523415978" font-size="10px">10.98x</text><text class="label" x="174.0982328580551" y="573.6101928374655" font-size="10px">1x</text><text class="label" x="383.46069378767214" y="508.9944903581267" font-size="8px"></text><text class="label" x="261.29862066442445" y="522.2176308539945" font-size="8px"></text><text class="label" x="170.82660751538668" y="535.4407713498622" font-size="8px"></text><text class="label" x="389.2543585860862" y="548.66391184573" font-size="8px"></text><text class="label" x="326.23107092748705" y="561.8870523415978" font-size="8px"></text><text class="label" x="170.5982328580551" y="575.1101928374655" font-size="8px"></text></g><g style="font-size: 13px;"><rect x="150" y="587.8833792470156" width="192.02438754185164" height="12.56198347107438" fill="#4472c4"></rect><rect x="150" y="601.1065197428833" width="118.1899520509879" height="12.56198347107438" fill="#ed7d31"></rect><rect x="150" y="614.3296602387511" width="15.598232858055091" height="12.56198347107438" fill="#a5a5a5"></rect><rect x="150" y="627.5528007346188" width="190.1354056653415" height="12.56198347107438" fill="#ffc000"></rect><rect x="150" y="640.7759412304866" width="154.15903637532472" height="12.56198347107438" fill="#5b9bd5"></rect><rect x="150" y="653.9990817263545" width="15.711632953832403" height="12.56198347107438" fill="#70ad47"></rect><text class="label" x="350.52438754185164" y="596.3833792470156" font-size="10px">12.31x</text><text class="label" x="276.6899520509879" y="609.6065197428833" font-size="10px">7.58x</text><text class="label" x="174.0982328580551" y="622.8296602387511" font-size="10px">1x</text><text class="label" x="348.6354056653415" y="636.0528007346188" font-size="10px">12.19x</text><text class="label" x="312.6590363753247" y="649.2759412304866" font-size="10px">9.88x</text><text class="label" x="174.2116329538324" y="662.4990817263545" font-size="10px">1.01x</text><text class="label" x="347.02438754185164" y="597.8833792470156" font-size="8px"></text><text class="label" x="273.1899520509879" y="611.1065197428833" font-size="8px"></text><text class="label" x="170.5982328580551" y="624.3296602387511" font-size="8px"></text><text class="label" x="345.1354056653415" y="637.5528007346188" font-size="8px"></text><text class="label" x="309.1590363753247" y="650.7759412304866" font-size="8px"></text><text class="label" x="170.7116329538324" y="663.9990817263545" font-size="8px"></text></g><g style="font-size: 13px;"><rect x="150" y="676.7722681359045" width="183.21234352407572" height="12.56198347107438" fill="#4472c4"></rect><rect x="150" y="689.9954086317722" width="46.658322331681646" height="12.56198347107438" fill="#ed7d31"></rect><rect x="150" y="703.21854912764" width="15.618328580502212" height="12.56198347107438" fill="#a5a5a5"></rect><rect x="150" y="716.4416896235077" width="183.6432989330917" height="12.56198347107438" fill="#ffc000"></rect><rect x="150" y="729.6648301193756" width="188.7955894371646" height="12.56198347107438" fill="#5b9bd5"></rect><rect x="150" y="742.8879706152434" width="15.598232858055091" height="12.56198347107438" fill="#70ad47"></rect><text class="label" x="341.7123435240757" y="685.2722681359045" font-size="10px">11.75x</text><text class="label" x="205.15832233168163" y="698.4954086317722" font-size="10px">2.99x</text><text class="label" x="174.1183285805022" y="711.71854912764" font-size="10px">1x</text><text class="label" x="342.1432989330917" y="724.9416896235077" font-size="10px">11.77x</text><text class="label" x="347.2955894371646" y="738.1648301193756" font-size="10px">12.1x</text><text class="label" x="174.0982328580551" y="751.3879706152434" font-size="10px">1x</text><text class="label" x="338.2123435240757" y="686.7722681359045" font-size="8px"></text><text class="label" x="201.65832233168163" y="699.9954086317722" font-size="8px"></text><text class="label" x="170.6183285805022" y="713.21854912764" font-size="8px"></text><text class="label" x="338.6432989330917" y="726.4416896235077" font-size="8px"></text><text class="label" x="343.7955894371646" y="739.6648301193756" font-size="8px"></text><text class="label" x="170.5982328580551" y="752.8879706152434" font-size="8px"></text></g></g></svg>