<svg xmlns="http://www.w3.org/2000/svg" xmlns:xlink="http://www.w3.org/1999/xlink" width="800" height="794" style="background-color: white;"><g class="y axis" transform="translate(149,45)" fill="none" font-size="10" font-family="sans-serif" text-anchor="end" style="font-size: 13px;"><path class="domain" stroke="currentColor" d="M0.5,0.5V600.5"></path><g class="tick" opacity="1" transform="translate(0,40.740740740740726)" style="font-size: 13px;"><line stroke="currentColor" x2="0"></line><text fill="currentColor" x="-3" dy="0.32em">object (simple)    </text></g><g class="tick" opacity="1" transform="translate(0,114.81481481481481)" style="font-size: 13px;"><line stroke="currentColor" x2="0"></line><text fill="currentColor" x="-3" dy="0.32em">object (hierarchical)    </text></g><g class="tick" opacity="1" transform="translate(0,188.88888888888889)" style="font-size: 13px;"><line stroke="currentColor" x2="0"></line><text fill="currentColor" x="-3" dy="0.32em">object (recursive)    </text></g><g class="tick" opacity="1" transform="translate(0,262.96296296296293)" style="font-size: 13px;"><line stroke="currentColor" x2="0"></line><text fill="currentColor" x="-3" dy="0.32em">object (union, explicit)    </text></g><g class="tick" opacity="1" transform="translate(0,337.037037037037)" style="font-size: 13px;"><line stroke="currentColor" x2="0"></line><text fill="currentColor" x="-3" dy="0.32em">array (simple)    </text></g><g class="tick" opacity="1" transform="translate(0,411.1111111111111)" style="font-size: 13px;"><line stroke="currentColor" x2="0"></line><text fill="currentColor" x="-3" dy="0.32em">array (hierarchical)    </text></g><g class="tick" opacity="1" transform="translate(0,485.18518518518516)" style="font-size: 13px;"><line stroke="currentColor" x2="0"></line><text fill="currentColor" x="-3" dy="0.32em">array (recursive)    </text></g><g class="tick" opacity="1" transform="translate(0,559.2592592592592)" style="font-size: 13px;"><line stroke="currentColor" x2="0"></line><text fill="currentColor" x="-3" dy="0.32em">array (union, explicit)    </text></g></g><g class="x axis" transform="translate(149,645)" fill="none" font-size="10" font-family="sans-serif" text-anchor="middle" style="font-size: 13px;"><path class="domain" stroke="currentColor" d="M0.5,0.5H485.5"></path><g class="tick" opacity="1" transform="translate(0.5,0)" style="font-size: 13px;"><line stroke="currentColor" y2="6"></line><text fill="currentColor" y="9" dy="0.71em">0x</text></g><g class="tick" opacity="1" transform="translate(73.46492996593632,0)" style="font-size: 13px;"><line stroke="currentColor" y2="6"></line><text fill="currentColor" y="9" dy="0.71em">5x</text></g><g class="tick" opacity="1" transform="translate(146.42985993187264,0)" style="font-size: 13px;"><line stroke="currentColor" y2="6"></line><text fill="currentColor" y="9" dy="0.71em">10x</text></g><g class="tick" opacity="1" transform="translate(219.39478989780895,0)" style="font-size: 13px;"><line stroke="currentColor" y2="6"></line><text fill="currentColor" y="9" dy="0.71em">15x</text></g><g class="tick" opacity="1" transform="translate(292.3597198637453,0)" style="font-size: 13px;"><line stroke="currentColor" y2="6"></line><text fill="currentColor" y="9" dy="0.71em">20x</text></g><g class="tick" opacity="1" transform="translate(365.3246498296816,0)" style="font-size: 13px;"><line stroke="currentColor" y2="6"></line><text fill="currentColor" y="9" dy="0.71em">25x</text></g><g class="tick" opacity="1" transform="translate(438.2895797956179,0)" style="font-size: 13px;"><line stroke="currentColor" y2="6"></line><text fill="currentColor" y="9" dy="0.71em">30x</text></g></g><text transform="translate(400, 30)" style="text-anchor: middle; font-size: 20px; font-weight: bold;">server-performance benchmark</text><rect x="650" y="145" width="230" height="5" fill="gray"></rect><rect x="645" y="35" width="230" height="110" fill="none" stroke="black"></rect><rect x="655" y="45" width="10" height="10" style="fill: #4472c4;"></rect><text x="670" y="55" style="font-size: 12px;">fastify-typia</text><rect x="655" y="65" width="10" height="10" style="fill: #ed7d31;"></rect><text x="670" y="75" style="font-size: 12px;">fastify-pure</text><rect x="655" y="85" width="10" height="10" style="fill: #a5a5a5;"></rect><text x="670" y="95" style="font-size: 12px;">fastify-class-transformer</text><rect x="655" y="105" width="10" height="10" style="fill: #ffc000;"></rect><text x="670" y="115" style="font-size: 12px;">express-typia</text><rect x="655" y="125" width="10" height="10" style="fill: #5b9bd5;"></rect><text x="670" y="135" style="font-size: 12px;">express-class-transformer</text><text x="20" y="709" style="font-size: 12px;">  - CPU: AMD Ryzen 9 7940HS w/ Radeon 780M Graphics</text><text x="20" y="726" style="font-size: 12px;">  - OS: win32</text><text x="20" y="743" style="font-size: 12px;">  - RAM: 31 GB</text><text x="20" y="760" style="font-size: 12px;">  - NodeJS version: v20.10.0</text><text x="20" y="777" style="font-size: 12px;">  - Typia version: v5.3.5</text><g style="font-size: 13px;"><g style="font-size: 13px;"><rect x="150" y="53.06747341400805" width="196.6701180774302" height="12.541254125412543" fill="#4472c4"></rect><rect x="150" y="66.26879354602124" width="183.9601562463257" height="12.541254125412543" fill="#ed7d31"></rect><rect x="150" y="79.47011367803445" width="14.592985993187265" height="12.541254125412543" fill="#a5a5a5"></rect><rect x="150" y="92.67143381004766" width="121.45427334034319" height="12.541254125412543" fill="#ffc000"></rect><rect x="150" y="105.87275394206085" width="19.259660440502042" height="12.541254125412543" fill="#5b9bd5"></rect><text class="label" x="355.1701180774302" y="61.56747341400805" font-size="10px">13.48x</text><text class="label" x="342.4601562463257" y="74.76879354602124" font-size="10px">12.61x</text><text class="label" x="173.09298599318726" y="87.97011367803445" font-size="10px">1x</text><text class="label" x="279.9542733403432" y="101.17143381004766" font-size="10px">8.32x</text><text class="label" x="177.75966044050205" y="114.37275394206085" font-size="10px">1.32x</text><text class="label" x="351.6701180774302" y="63.06747341400805" font-size="8px"></text><text class="label" x="338.9601562463257" y="76.26879354602124" font-size="8px"></text><text class="label" x="169.59298599318726" y="89.47011367803445" font-size="8px"></text><text class="label" x="276.4542733403432" y="102.67143381004766" font-size="8px"></text><text class="label" x="174.25966044050205" y="115.87275394206085" font-size="8px"></text></g><g style="font-size: 13px;"><rect x="150" y="127.14154748808213" width="166.09986367961653" height="12.541254125412543" fill="#4472c4"></rect><rect x="150" y="140.34286762009532" width="147.5332349232155" height="12.541254125412543" fill="#ed7d31"></rect><rect x="150" y="153.54418775210854" width="14.592985993187265" height="12.541254125412543" fill="#a5a5a5"></rect><rect x="150" y="166.74550788412174" width="133.39184427130348" height="12.541254125412543" fill="#ffc000"></rect><rect x="150" y="179.94682801613493" width="19.627754081638326" height="12.541254125412543" fill="#5b9bd5"></rect><text class="label" x="324.59986367961653" y="135.64154748808213" font-size="10px">11.38x</text><text class="label" x="306.0332349232155" y="148.84286762009532" font-size="10px">10.11x</text><text class="label" x="173.09298599318726" y="162.04418775210854" font-size="10px">1x</text><text class="label" x="291.8918442713035" y="175.24550788412174" font-size="10px">9.14x</text><text class="label" x="178.12775408163833" y="188.44682801613493" font-size="10px">1.35x</text><text class="label" x="321.09986367961653" y="137.14154748808213" font-size="8px"></text><text class="label" x="302.5332349232155" y="150.34286762009532" font-size="8px"></text><text class="label" x="169.59298599318726" y="163.54418775210854" font-size="8px"></text><text class="label" x="288.3918442713035" y="176.74550788412174" font-size="8px"></text><text class="label" x="174.62775408163833" y="189.94682801613493" font-size="8px"></text></g><g style="font-size: 13px;"><rect x="150" y="201.2156215621562" width="181.28569957966283" height="12.541254125412543" fill="#4472c4"></rect><rect x="150" y="214.4169416941694" width="126.53234490233068" height="12.541254125412543" fill="#ed7d31"></rect><rect x="150" y="227.61826182618262" width="14.592985993187265" height="12.541254125412543" fill="#a5a5a5"></rect><rect x="150" y="240.8195819581958" width="154.93929129081226" height="12.541254125412543" fill="#ffc000"></rect><rect x="150" y="254.020902090209" width="21.79195408770882" height="12.541254125412543" fill="#5b9bd5"></rect><text class="label" x="339.78569957966283" y="209.7156215621562" font-size="10px">12.42x</text><text class="label" x="285.0323449023307" y="222.9169416941694" font-size="10px">8.67x</text><text class="label" x="173.09298599318726" y="236.11826182618262" font-size="10px">1x</text><text class="label" x="313.43929129081226" y="249.3195819581958" font-size="10px">10.62x</text><text class="label" x="180.29195408770883" y="262.520902090209" font-size="10px">1.49x</text><text class="label" x="336.28569957966283" y="211.2156215621562" font-size="8px"></text><text class="label" x="281.5323449023307" y="224.4169416941694" font-size="8px"></text><text class="label" x="169.59298599318726" y="237.61826182618262" font-size="8px"></text><text class="label" x="309.93929129081226" y="250.8195819581958" font-size="8px"></text><text class="label" x="176.79195408770883" y="264.020902090209" font-size="8px"></text></g><g style="font-size: 13px;"><rect x="150" y="275.28969563623025" width="440.9090909090909" height="12.541254125412543" fill="#4472c4"></rect><rect x="150" y="288.49101576824347" width="266.64133087409243" height="12.541254125412543" fill="#ed7d31"></rect><rect x="150" y="301.6923359002567" width="14.61083096251647" height="12.541254125412543" fill="#a5a5a5"></rect><rect x="150" y="314.89365603226986" width="363.2506273644576" height="12.541254125412543" fill="#ffc000"></rect><rect x="150" y="328.0949761642831" width="14.592985993187265" height="12.541254125412543" fill="#5b9bd5"></rect><text class="label" x="599.4090909090909" y="283.78969563623025" font-size="10px">30.21x</text><text class="label" x="425.14133087409243" y="296.99101576824347" font-size="10px">18.27x</text><text class="label" x="173.11083096251647" y="310.1923359002567" font-size="10px">1x</text><text class="label" x="521.7506273644576" y="323.39365603226986" font-size="10px">24.89x</text><text class="label" x="173.09298599318726" y="336.5949761642831" font-size="10px">1x</text><text class="label" x="595.9090909090909" y="285.28969563623025" font-size="8px"></text><text class="label" x="421.64133087409243" y="298.49101576824347" font-size="8px"></text><text class="label" x="169.61083096251647" y="311.6923359002567" font-size="8px"></text><text class="label" x="518.2506273644576" y="324.89365603226986" font-size="8px"></text><text class="label" x="169.59298599318726" y="338.0949761642831" font-size="8px"></text></g><g style="font-size: 13px;"><rect x="150" y="349.3637697103044" width="210.85216118131555" height="12.541254125412543" fill="#4472c4"></rect><rect x="150" y="362.56508984231755" width="206.27827357309667" height="12.541254125412543" fill="#ed7d31"></rect><rect x="150" y="375.76640997433077" width="14.857894136546388" height="12.541254125412543" fill="#a5a5a5"></rect><rect x="150" y="388.967730106344" width="188.61236217998592" height="12.541254125412543" fill="#ffc000"></rect><rect x="150" y="402.16905023835716" width="14.592985993187265" height="12.541254125412543" fill="#5b9bd5"></rect><text class="label" x="369.3521611813155" y="357.8637697103044" font-size="10px">14.45x</text><text class="label" x="364.77827357309667" y="371.06508984231755" font-size="10px">14.14x</text><text class="label" x="173.35789413654638" y="384.26640997433077" font-size="10px">1.02x</text><text class="label" x="347.1123621799859" y="397.467730106344" font-size="10px">12.92x</text><text class="label" x="173.09298599318726" y="410.66905023835716" font-size="10px">1x</text><text class="label" x="365.8521611813155" y="359.3637697103044" font-size="8px"></text><text class="label" x="361.27827357309667" y="372.56508984231755" font-size="8px"></text><text class="label" x="169.85789413654638" y="385.76640997433077" font-size="8px"></text><text class="label" x="343.6123621799859" y="398.967730106344" font-size="8px"></text><text class="label" x="169.59298599318726" y="412.16905023835716" font-size="8px"></text></g><g style="font-size: 13px;"><rect x="150" y="423.4378437843784" width="332.88070402139357" height="12.541254125412543" fill="#4472c4"></rect><rect x="150" y="436.6391639163916" width="240.86624084756374" height="12.541254125412543" fill="#ed7d31"></rect><rect x="150" y="449.84048404840485" width="18.208664200455786" height="12.541254125412543" fill="#a5a5a5"></rect><rect x="150" y="463.041804180418" width="336.5525263671412" height="12.541254125412543" fill="#ffc000"></rect><rect x="150" y="476.24312431243123" width="14.592985993187265" height="12.541254125412543" fill="#5b9bd5"></rect><text class="label" x="491.38070402139357" y="431.9378437843784" font-size="10px">22.81x</text><text class="label" x="399.36624084756374" y="445.1391639163916" font-size="10px">16.51x</text><text class="label" x="176.7086642004558" y="458.34048404840485" font-size="10px">1.25x</text><text class="label" x="495.0525263671412" y="471.541804180418" font-size="10px">23.06x</text><text class="label" x="173.09298599318726" y="484.74312431243123" font-size="10px">1x</text><text class="label" x="487.88070402139357" y="433.4378437843784" font-size="8px"></text><text class="label" x="395.86624084756374" y="446.6391639163916" font-size="8px"></text><text class="label" x="173.2086642004558" y="459.84048404840485" font-size="8px"></text><text class="label" x="491.5525263671412" y="473.041804180418" font-size="8px"></text><text class="label" x="169.59298599318726" y="486.24312431243123" font-size="8px"></text></g><g style="font-size: 13px;"><rect x="150" y="497.51191785845253" width="180.99989222315452" height="12.541254125412543" fill="#4472c4"></rect><rect x="150" y="510.7132379904657" width="180.75731976638508" height="12.541254125412543" fill="#ed7d31"></rect><rect x="150" y="523.9145581224789" width="14.592985993187265" height="12.541254125412543" fill="#a5a5a5"></rect><rect x="150" y="537.1158782544921" width="178.0212787429825" height="12.541254125412543" fill="#ffc000"></rect><rect x="150" y="550.3171983865053" width="22.418106829679104" height="12.541254125412543" fill="#5b9bd5"></rect><text class="label" x="339.4998922231545" y="506.01191785845253" font-size="10px">12.4x</text><text class="label" x="339.2573197663851" y="519.2132379904657" font-size="10px">12.39x</text><text class="label" x="173.09298599318726" y="532.4145581224789" font-size="10px">1x</text><text class="label" x="336.52127874298253" y="545.6158782544921" font-size="10px">12.2x</text><text class="label" x="180.91810682967912" y="558.8171983865053" font-size="10px">1.54x</text><text class="label" x="335.9998922231545" y="507.51191785845253" font-size="8px"></text><text class="label" x="335.7573197663851" y="520.7132379904657" font-size="8px"></text><text class="label" x="169.59298599318726" y="533.9145581224789" font-size="8px"></text><text class="label" x="333.02127874298253" y="547.1158782544921" font-size="8px"></text><text class="label" x="177.41810682967912" y="560.3171983865053" font-size="8px"></text></g><g style="font-size: 13px;"><rect x="150" y="571.5859919325266" width="276.94538449760955" height="12.541254125412543" fill="#4472c4"></rect><rect x="150" y="584.7873120645397" width="99.88011642479847" height="12.541254125412543" fill="#ed7d31"></rect><rect x="150" y="597.9886321965529" width="14.865801738035005" height="12.541254125412543" fill="#a5a5a5"></rect><rect x="150" y="611.1899523285662" width="248.85970608090608" height="12.541254125412543" fill="#ffc000"></rect><rect x="150" y="624.3912724605793" width="14.592985993187265" height="12.541254125412543" fill="#5b9bd5"></rect><text class="label" x="435.44538449760955" y="580.0859919325266" font-size="10px">18.98x</text><text class="label" x="258.3801164247985" y="593.2873120645397" font-size="10px">6.84x</text><text class="label" x="173.365801738035" y="606.4886321965529" font-size="10px">1.02x</text><text class="label" x="407.3597060809061" y="619.6899523285662" font-size="10px">17.05x</text><text class="label" x="173.09298599318726" y="632.8912724605793" font-size="10px">1x</text><text class="label" x="431.94538449760955" y="581.5859919325266" font-size="8px"></text><text class="label" x="254.88011642479847" y="594.7873120645397" font-size="8px"></text><text class="label" x="169.865801738035" y="607.9886321965529" font-size="8px"></text><text class="label" x="403.8597060809061" y="621.1899523285662" font-size="8px"></text><text class="label" x="169.59298599318726" y="634.3912724605793" font-size="8px"></text></g></g></svg>