<svg xmlns="http://www.w3.org/2000/svg" xmlns:xlink="http://www.w3.org/1999/xlink" width="800" height="794" style="background-color: white;"><g class="y axis" transform="translate(149,45)" fill="none" font-size="10" font-family="sans-serif" text-anchor="end" style="font-size: 13px;"><path class="domain" stroke="currentColor" d="M0.5,0.5V600.5"></path><g class="tick" opacity="1" transform="translate(0,40.740740740740726)" style="font-size: 13px;"><line stroke="currentColor" x2="0"></line><text fill="currentColor" x="-3" dy="0.32em">object (simple)    </text></g><g class="tick" opacity="1" transform="translate(0,114.81481481481481)" style="font-size: 13px;"><line stroke="currentColor" x2="0"></line><text fill="currentColor" x="-3" dy="0.32em">object (hierarchical)    </text></g><g class="tick" opacity="1" transform="translate(0,188.88888888888889)" style="font-size: 13px;"><line stroke="currentColor" x2="0"></line><text fill="currentColor" x="-3" dy="0.32em">object (recursive)    </text></g><g class="tick" opacity="1" transform="translate(0,262.96296296296293)" style="font-size: 13px;"><line stroke="currentColor" x2="0"></line><text fill="currentColor" x="-3" dy="0.32em">object (union, explicit)    </text></g><g class="tick" opacity="1" transform="translate(0,337.037037037037)" style="font-size: 13px;"><line stroke="currentColor" x2="0"></line><text fill="currentColor" x="-3" dy="0.32em">array (simple)    </text></g><g class="tick" opacity="1" transform="translate(0,411.1111111111111)" style="font-size: 13px;"><line stroke="currentColor" x2="0"></line><text fill="currentColor" x="-3" dy="0.32em">array (hierarchical)    </text></g><g class="tick" opacity="1" transform="translate(0,485.18518518518516)" style="font-size: 13px;"><line stroke="currentColor" x2="0"></line><text fill="currentColor" x="-3" dy="0.32em">array (recursive)    </text></g><g class="tick" opacity="1" transform="translate(0,559.2592592592592)" style="font-size: 13px;"><line stroke="currentColor" x2="0"></line><text fill="currentColor" x="-3" dy="0.32em">array (union, explicit)    </text></g></g><g class="x axis" transform="translate(149,645)" fill="none" font-size="10" font-family="sans-serif" text-anchor="middle" style="font-size: 13px;"><path class="domain" stroke="currentColor" d="M0.5,0.5H485.5"></path><g class="tick" opacity="1" transform="translate(0.5,0)" style="font-size: 13px;"><line stroke="currentColor" y2="6"></line><text fill="currentColor" y="9" dy="0.71em">0x</text></g><g class="tick" opacity="1" transform="translate(90.77454269263008,0)" style="font-size: 13px;"><line stroke="currentColor" y2="6"></line><text fill="currentColor" y="9" dy="0.71em">5x</text></g><g class="tick" opacity="1" transform="translate(181.04908538526016,0)" style="font-size: 13px;"><line stroke="currentColor" y2="6"></line><text fill="currentColor" y="9" dy="0.71em">10x</text></g><g class="tick" opacity="1" transform="translate(271.3236280778902,0)" style="font-size: 13px;"><line stroke="currentColor" y2="6"></line><text fill="currentColor" y="9" dy="0.71em">15x</text></g><g class="tick" opacity="1" transform="translate(361.5981707705203,0)" style="font-size: 13px;"><line stroke="currentColor" y2="6"></line><text fill="currentColor" y="9" dy="0.71em">20x</text></g><g class="tick" opacity="1" transform="translate(451.8727134631504,0)" style="font-size: 13px;"><line stroke="currentColor" y2="6"></line><text fill="currentColor" y="9" dy="0.71em">25x</text></g></g><text transform="translate(400, 30)" style="text-anchor: middle; font-size: 20px; font-weight: bold;">server-assert benchmark</text><rect x="650" y="145" width="230" height="5" fill="gray"></rect><rect x="645" y="35" width="230" height="110" fill="none" stroke="black"></rect><rect x="655" y="45" width="10" height="10" style="fill: #4472c4;"></rect><text x="670" y="55" style="font-size: 12px;">fastify-typia</text><rect x="655" y="65" width="10" height="10" style="fill: #ed7d31;"></rect><text x="670" y="75" style="font-size: 12px;">fastify-pure</text><rect x="655" y="85" width="10" height="10" style="fill: #a5a5a5;"></rect><text x="670" y="95" style="font-size: 12px;">fastify-class-transformer</text><rect x="655" y="105" width="10" height="10" style="fill: #ffc000;"></rect><text x="670" y="115" style="font-size: 12px;">express-typia</text><rect x="655" y="125" width="10" height="10" style="fill: #5b9bd5;"></rect><text x="670" y="135" style="font-size: 12px;">express-class-transformer</text><text x="20" y="709" style="font-size: 12px;">  - CPU: AMD Ryzen 9 7940HS w/ Radeon 780M Graphics</text><text x="20" y="726" style="font-size: 12px;">  - OS: win32</text><text x="20" y="743" style="font-size: 12px;">  - RAM: 31 GB</text><text x="20" y="760" style="font-size: 12px;">  - NodeJS version: v20.10.0</text><text x="20" y="777" style="font-size: 12px;">  - Typia version: v6.0.1</text><g style="font-size: 13px;"><g style="font-size: 13px;"><rect x="150" y="53.06747341400805" width="242.05467835264395" height="12.541254125412543" fill="#4472c4"></rect><rect x="150" y="66.26879354602124" width="235.8142085373174" height="12.541254125412543" fill="#ed7d31"></rect><rect x="150" y="79.47011367803445" width="19.91256270897773" height="12.541254125412543" fill="#a5a5a5"></rect><rect x="150" y="92.67143381004766" width="149.0897706682764" height="12.541254125412543" fill="#ffc000"></rect><rect x="150" y="105.87275394206085" width="18.054908538526014" height="12.541254125412543" fill="#5b9bd5"></rect><text class="label" x="400.5546783526439" y="61.56747341400805" font-size="10px">13.41x</text><text class="label" x="394.3142085373174" y="74.76879354602124" font-size="10px">13.06x</text><text class="label" x="178.41256270897773" y="87.97011367803445" font-size="10px">1.1x</text><text class="label" x="307.5897706682764" y="101.17143381004766" font-size="10px">8.26x</text><text class="label" x="176.554908538526" y="114.37275394206085" font-size="10px">1x</text><text class="label" x="397.0546783526439" y="63.06747341400805" font-size="8px"></text><text class="label" x="390.8142085373174" y="76.26879354602124" font-size="8px"></text><text class="label" x="174.91256270897773" y="89.47011367803445" font-size="8px"></text><text class="label" x="304.0897706682764" y="102.67143381004766" font-size="8px"></text><text class="label" x="173.054908538526" y="115.87275394206085" font-size="8px"></text></g><g style="font-size: 13px;"><rect x="150" y="127.14154748808213" width="238.62389817341878" height="12.541254125412543" fill="#4472c4"></rect><rect x="150" y="140.34286762009532" width="228.14781910919805" height="12.541254125412543" fill="#ed7d31"></rect><rect x="150" y="153.54418775210854" width="18.083570349020167" height="12.541254125412543" fill="#a5a5a5"></rect><rect x="150" y="166.74550788412174" width="180.2759893545049" height="12.541254125412543" fill="#ffc000"></rect><rect x="150" y="179.94682801613493" width="18.054908538526014" height="12.541254125412543" fill="#5b9bd5"></rect><text class="label" x="397.12389817341875" y="135.64154748808213" font-size="10px">13.22x</text><text class="label" x="386.64781910919805" y="148.84286762009532" font-size="10px">12.64x</text><text class="label" x="176.58357034902016" y="162.04418775210854" font-size="10px">1x</text><text class="label" x="338.7759893545049" y="175.24550788412174" font-size="10px">9.98x</text><text class="label" x="176.554908538526" y="188.44682801613493" font-size="10px">1x</text><text class="label" x="393.62389817341875" y="137.14154748808213" font-size="8px"></text><text class="label" x="383.14781910919805" y="150.34286762009532" font-size="8px"></text><text class="label" x="173.08357034902016" y="163.54418775210854" font-size="8px"></text><text class="label" x="335.2759893545049" y="176.74550788412174" font-size="8px"></text><text class="label" x="173.054908538526" y="189.94682801613493" font-size="8px"></text></g><g style="font-size: 13px;"><rect x="150" y="201.2156215621562" width="278.7567165980189" height="12.541254125412543" fill="#4472c4"></rect><rect x="150" y="214.4169416941694" width="266.0788669523338" height="12.541254125412543" fill="#ed7d31"></rect><rect x="150" y="227.61826182618262" width="18.054908538526014" height="12.541254125412543" fill="#a5a5a5"></rect><rect x="150" y="240.8195819581958" width="223.53884740510486" height="12.541254125412543" fill="#ffc000"></rect><rect x="150" y="254.020902090209" width="18.06405107650046" height="12.541254125412543" fill="#5b9bd5"></rect><text class="label" x="437.2567165980189" y="209.7156215621562" font-size="10px">15.44x</text><text class="label" x="424.5788669523338" y="222.9169416941694" font-size="10px">14.74x</text><text class="label" x="176.554908538526" y="236.11826182618262" font-size="10px">1x</text><text class="label" x="382.0388474051049" y="249.3195819581958" font-size="10px">12.38x</text><text class="label" x="176.56405107650045" y="262.520902090209" font-size="10px">1x</text><text class="label" x="433.7567165980189" y="211.2156215621562" font-size="8px"></text><text class="label" x="421.0788669523338" y="224.4169416941694" font-size="8px"></text><text class="label" x="173.054908538526" y="237.61826182618262" font-size="8px"></text><text class="label" x="378.5388474051049" y="250.8195819581958" font-size="8px"></text><text class="label" x="173.06405107650045" y="264.020902090209" font-size="8px"></text></g><g style="font-size: 13px;"><rect x="150" y="275.28969563623025" width="440.9090909090909" height="12.541254125412543" fill="#4472c4"></rect><rect x="150" y="288.49101576824347" width="290.7397617746338" height="12.541254125412543" fill="#ed7d31"></rect><rect x="150" y="301.6923359002567" width="18.76249353209053" height="12.541254125412543" fill="#a5a5a5"></rect><rect x="150" y="314.89365603226986" width="326.533517461362" height="12.541254125412543" fill="#ffc000"></rect><rect x="150" y="328.0949761642831" width="18.054908538526014" height="12.541254125412543" fill="#5b9bd5"></rect><text class="label" x="599.4090909090909" y="283.78969563623025" font-size="10px">24.42x</text><text class="label" x="449.2397617746338" y="296.99101576824347" font-size="10px">16.1x</text><text class="label" x="177.26249353209053" y="310.1923359002567" font-size="10px">1.04x</text><text class="label" x="485.033517461362" y="323.39365603226986" font-size="10px">18.09x</text><text class="label" x="176.554908538526" y="336.5949761642831" font-size="10px">1x</text><text class="label" x="595.9090909090909" y="285.28969563623025" font-size="8px"></text><text class="label" x="445.7397617746338" y="298.49101576824347" font-size="8px"></text><text class="label" x="173.76249353209053" y="311.6923359002567" font-size="8px"></text><text class="label" x="481.533517461362" y="324.89365603226986" font-size="8px"></text><text class="label" x="173.054908538526" y="338.0949761642831" font-size="8px"></text></g><g style="font-size: 13px;"><rect x="150" y="349.3637697103044" width="282.18253831287313" height="12.541254125412543" fill="#4472c4"></rect><rect x="150" y="362.56508984231755" width="282.05250505677907" height="12.541254125412543" fill="#ed7d31"></rect><rect x="150" y="375.76640997433077" width="18.88330150477099" height="12.541254125412543" fill="#a5a5a5"></rect><rect x="150" y="388.967730106344" width="224.59740257295414" height="12.541254125412543" fill="#ffc000"></rect><rect x="150" y="402.16905023835716" width="18.054908538526014" height="12.541254125412543" fill="#5b9bd5"></rect><text class="label" x="440.68253831287313" y="357.8637697103044" font-size="10px">15.63x</text><text class="label" x="440.55250505677907" y="371.06508984231755" font-size="10px">15.62x</text><text class="label" x="177.383301504771" y="384.26640997433077" font-size="10px">1.05x</text><text class="label" x="383.09740257295414" y="397.467730106344" font-size="10px">12.44x</text><text class="label" x="176.554908538526" y="410.66905023835716" font-size="10px">1x</text><text class="label" x="437.18253831287313" y="359.3637697103044" font-size="8px"></text><text class="label" x="437.05250505677907" y="372.56508984231755" font-size="8px"></text><text class="label" x="173.883301504771" y="385.76640997433077" font-size="8px"></text><text class="label" x="379.59740257295414" y="398.967730106344" font-size="8px"></text><text class="label" x="173.054908538526" y="412.16905023835716" font-size="8px"></text></g><g style="font-size: 13px;"><rect x="150" y="423.4378437843784" width="259.285167333205" height="12.541254125412543" fill="#4472c4"></rect><rect x="150" y="436.6391639163916" width="263.7445243133261" height="12.541254125412543" fill="#ed7d31"></rect><rect x="150" y="449.84048404840485" width="23.626396466529872" height="12.541254125412543" fill="#a5a5a5"></rect><rect x="150" y="463.041804180418" width="248.99367528448778" height="12.541254125412543" fill="#ffc000"></rect><rect x="150" y="476.24312431243123" width="18.054908538526014" height="12.541254125412543" fill="#5b9bd5"></rect><text class="label" x="417.785167333205" y="431.9378437843784" font-size="10px">14.36x</text><text class="label" x="422.2445243133261" y="445.1391639163916" font-size="10px">14.61x</text><text class="label" x="182.12639646652988" y="458.34048404840485" font-size="10px">1.31x</text><text class="label" x="407.4936752844878" y="471.541804180418" font-size="10px">13.79x</text><text class="label" x="176.554908538526" y="484.74312431243123" font-size="10px">1x</text><text class="label" x="414.285167333205" y="433.4378437843784" font-size="8px"></text><text class="label" x="418.7445243133261" y="446.6391639163916" font-size="8px"></text><text class="label" x="178.62639646652988" y="459.84048404840485" font-size="8px"></text><text class="label" x="403.9936752844878" y="473.041804180418" font-size="8px"></text><text class="label" x="173.054908538526" y="486.24312431243123" font-size="8px"></text></g><g style="font-size: 13px;"><rect x="150" y="497.51191785845253" width="357.0627086946648" height="12.541254125412543" fill="#4472c4"></rect><rect x="150" y="510.7132379904657" width="273.79761537136346" height="12.541254125412543" fill="#ed7d31"></rect><rect x="150" y="523.9145581224789" width="22.259457363723246" height="12.541254125412543" fill="#a5a5a5"></rect><rect x="150" y="537.1158782544921" width="287.70864948716684" height="12.541254125412543" fill="#ffc000"></rect><rect x="150" y="550.3171983865053" width="18.054908538526014" height="12.541254125412543" fill="#5b9bd5"></rect><text class="label" x="515.5627086946648" y="506.01191785845253" font-size="10px">19.78x</text><text class="label" x="432.29761537136346" y="519.2132379904657" font-size="10px">15.16x</text><text class="label" x="180.75945736372324" y="532.4145581224789" font-size="10px">1.23x</text><text class="label" x="446.20864948716684" y="545.6158782544921" font-size="10px">15.94x</text><text class="label" x="176.554908538526" y="558.8171983865053" font-size="10px">1x</text><text class="label" x="512.0627086946648" y="507.51191785845253" font-size="8px"></text><text class="label" x="428.79761537136346" y="520.7132379904657" font-size="8px"></text><text class="label" x="177.25945736372324" y="533.9145581224789" font-size="8px"></text><text class="label" x="442.70864948716684" y="547.1158782544921" font-size="8px"></text><text class="label" x="173.054908538526" y="560.3171983865053" font-size="8px"></text></g><g style="font-size: 13px;"><rect x="150" y="571.5859919325266" width="348.2163362633664" height="12.541254125412543" fill="#4472c4"></rect><rect x="150" y="584.7873120645397" width="232.5891898704707" height="12.541254125412543" fill="#ed7d31"></rect><rect x="150" y="597.9886321965529" width="18.493793401676832" height="12.541254125412543" fill="#a5a5a5"></rect><rect x="150" y="611.1899523285662" width="317.1237573549782" height="12.541254125412543" fill="#ffc000"></rect><rect x="150" y="624.3912724605793" width="18.054908538526014" height="12.541254125412543" fill="#5b9bd5"></rect><text class="label" x="506.7163362633664" y="580.0859919325266" font-size="10px">19.29x</text><text class="label" x="391.0891898704707" y="593.2873120645397" font-size="10px">12.88x</text><text class="label" x="176.99379340167684" y="606.4886321965529" font-size="10px">1.02x</text><text class="label" x="475.6237573549782" y="619.6899523285662" font-size="10px">17.56x</text><text class="label" x="176.554908538526" y="632.8912724605793" font-size="10px">1x</text><text class="label" x="503.2163362633664" y="581.5859919325266" font-size="8px"></text><text class="label" x="387.5891898704707" y="594.7873120645397" font-size="8px"></text><text class="label" x="173.49379340167684" y="607.9886321965529" font-size="8px"></text><text class="label" x="472.1237573549782" y="621.1899523285662" font-size="8px"></text><text class="label" x="173.054908538526" y="634.3912724605793" font-size="8px"></text></g></g></svg>