<svg xmlns="http://www.w3.org/2000/svg" xmlns:xlink="http://www.w3.org/1999/xlink" width="800" height="794" style="background-color: white;"><g class="y axis" transform="translate(149,45)" fill="none" font-size="10" font-family="sans-serif" text-anchor="end" style="font-size: 13px;"><path class="domain" stroke="currentColor" d="M0.5,0.5V600.5"></path><g class="tick" opacity="1" transform="translate(0,40.740740740740726)" style="font-size: 13px;"><line stroke="currentColor" x2="0"></line><text fill="currentColor" x="-3" dy="0.32em">object (simple)    </text></g><g class="tick" opacity="1" transform="translate(0,114.81481481481481)" style="font-size: 13px;"><line stroke="currentColor" x2="0"></line><text fill="currentColor" x="-3" dy="0.32em">object (hierarchical)    </text></g><g class="tick" opacity="1" transform="translate(0,188.88888888888889)" style="font-size: 13px;"><line stroke="currentColor" x2="0"></line><text fill="currentColor" x="-3" dy="0.32em">object (recursive)    </text></g><g class="tick" opacity="1" transform="translate(0,262.96296296296293)" style="font-size: 13px;"><line stroke="currentColor" x2="0"></line><text fill="currentColor" x="-3" dy="0.32em">object (union, explicit)    </text></g><g class="tick" opacity="1" transform="translate(0,337.037037037037)" style="font-size: 13px;"><line stroke="currentColor" x2="0"></line><text fill="currentColor" x="-3" dy="0.32em">array (simple)    </text></g><g class="tick" opacity="1" transform="translate(0,411.1111111111111)" style="font-size: 13px;"><line stroke="currentColor" x2="0"></line><text fill="currentColor" x="-3" dy="0.32em">array (hierarchical)    </text></g><g class="tick" opacity="1" transform="translate(0,485.18518518518516)" style="font-size: 13px;"><line stroke="currentColor" x2="0"></line><text fill="currentColor" x="-3" dy="0.32em">array (recursive)    </text></g><g class="tick" opacity="1" transform="translate(0,559.2592592592592)" style="font-size: 13px;"><line stroke="currentColor" x2="0"></line><text fill="currentColor" x="-3" dy="0.32em">array (union, explicit)    </text></g></g><g class="x axis" transform="translate(149,645)" fill="none" font-size="10" font-family="sans-serif" text-anchor="middle" style="font-size: 13px;"><path class="domain" stroke="currentColor" d="M0.5,0.5H485.5"></path><g class="tick" opacity="1" transform="translate(0.5,0)" style="font-size: 13px;"><line stroke="currentColor" y2="6"></line><text fill="currentColor" y="9" dy="0.71em">0x</text></g><g class="tick" opacity="1" transform="translate(73.5706789690673,0)" style="font-size: 13px;"><line stroke="currentColor" y2="6"></line><text fill="currentColor" y="9" dy="0.71em">5x</text></g><g class="tick" opacity="1" transform="translate(146.6413579381346,0)" style="font-size: 13px;"><line stroke="currentColor" y2="6"></line><text fill="currentColor" y="9" dy="0.71em">10x</text></g><g class="tick" opacity="1" transform="translate(219.71203690720188,0)" style="font-size: 13px;"><line stroke="currentColor" y2="6"></line><text fill="currentColor" y="9" dy="0.71em">15x</text></g><g class="tick" opacity="1" transform="translate(292.7827158762692,0)" style="font-size: 13px;"><line stroke="currentColor" y2="6"></line><text fill="currentColor" y="9" dy="0.71em">20x</text></g><g class="tick" opacity="1" transform="translate(365.85339484533654,0)" style="font-size: 13px;"><line stroke="currentColor" y2="6"></line><text fill="currentColor" y="9" dy="0.71em">25x</text></g><g class="tick" opacity="1" transform="translate(438.92407381440376,0)" style="font-size: 13px;"><line stroke="currentColor" y2="6"></line><text fill="currentColor" y="9" dy="0.71em">30x</text></g></g><text transform="translate(400, 30)" style="text-anchor: middle; font-size: 20px; font-weight: bold;">server-performance benchmark</text><rect x="650" y="145" width="230" height="5" fill="gray"></rect><rect x="645" y="35" width="230" height="110" fill="none" stroke="black"></rect><rect x="655" y="45" width="10" height="10" style="fill: #4472c4;"></rect><text x="670" y="55" style="font-size: 12px;">fastify-typia</text><rect x="655" y="65" width="10" height="10" style="fill: #ed7d31;"></rect><text x="670" y="75" style="font-size: 12px;">fastify-pure</text><rect x="655" y="85" width="10" height="10" style="fill: #a5a5a5;"></rect><text x="670" y="95" style="font-size: 12px;">fastify-class-transformer</text><rect x="655" y="105" width="10" height="10" style="fill: #ffc000;"></rect><text x="670" y="115" style="font-size: 12px;">express-typia</text><rect x="655" y="125" width="10" height="10" style="fill: #5b9bd5;"></rect><text x="670" y="135" style="font-size: 12px;">express-class-transformer</text><text x="20" y="709" style="font-size: 12px;">  - CPU: AMD Ryzen 9 7940HS w/ Radeon 780M Graphics</text><text x="20" y="726" style="font-size: 12px;">  - OS: win32</text><text x="20" y="743" style="font-size: 12px;">  - RAM: 31 GB</text><text x="20" y="760" style="font-size: 12px;">  - NodeJS version: v20.10.0</text><text x="20" y="777" style="font-size: 12px;">  - Typia version: v6.0.1</text><g style="font-size: 13px;"><g style="font-size: 13px;"><rect x="150" y="53.06747341400805" width="181.19682675216293" height="12.541254125412543" fill="#4472c4"></rect><rect x="150" y="66.26879354602124" width="197.16487782080202" height="12.541254125412543" fill="#ed7d31"></rect><rect x="150" y="79.47011367803445" width="14.61413579381346" height="12.541254125412543" fill="#a5a5a5"></rect><rect x="150" y="92.67143381004766" width="127.60489101735294" height="12.541254125412543" fill="#ffc000"></rect><rect x="150" y="105.87275394206085" width="20.715178197785992" height="12.541254125412543" fill="#5b9bd5"></rect><text class="label" x="339.6968267521629" y="61.56747341400805" font-size="10px">12.4x</text><text class="label" x="355.664877820802" y="74.76879354602124" font-size="10px">13.49x</text><text class="label" x="173.11413579381346" y="87.97011367803445" font-size="10px">1x</text><text class="label" x="286.10489101735294" y="101.17143381004766" font-size="10px">8.73x</text><text class="label" x="179.215178197786" y="114.37275394206085" font-size="10px">1.42x</text><text class="label" x="336.1968267521629" y="63.06747341400805" font-size="8px"></text><text class="label" x="352.164877820802" y="76.26879354602124" font-size="8px"></text><text class="label" x="169.61413579381346" y="89.47011367803445" font-size="8px"></text><text class="label" x="282.60489101735294" y="102.67143381004766" font-size="8px"></text><text class="label" x="175.715178197786" y="115.87275394206085" font-size="8px"></text></g><g style="font-size: 13px;"><rect x="150" y="127.14154748808213" width="172.5598005755883" height="12.541254125412543" fill="#4472c4"></rect><rect x="150" y="140.34286762009532" width="163.68734260986744" height="12.541254125412543" fill="#ed7d31"></rect><rect x="150" y="153.54418775210854" width="14.61413579381346" height="12.541254125412543" fill="#a5a5a5"></rect><rect x="150" y="166.74550788412174" width="135.2033207029654" height="12.541254125412543" fill="#ffc000"></rect><rect x="150" y="179.94682801613493" width="21.640050405419252" height="12.541254125412543" fill="#5b9bd5"></rect><text class="label" x="331.05980057558827" y="135.64154748808213" font-size="10px">11.81x</text><text class="label" x="322.1873426098674" y="148.84286762009532" font-size="10px">11.2x</text><text class="label" x="173.11413579381346" y="162.04418775210854" font-size="10px">1x</text><text class="label" x="293.7033207029654" y="175.24550788412174" font-size="10px">9.25x</text><text class="label" x="180.14005040541926" y="188.44682801613493" font-size="10px">1.48x</text><text class="label" x="327.55980057558827" y="137.14154748808213" font-size="8px"></text><text class="label" x="318.6873426098674" y="150.34286762009532" font-size="8px"></text><text class="label" x="169.61413579381346" y="163.54418775210854" font-size="8px"></text><text class="label" x="290.2033207029654" y="176.74550788412174" font-size="8px"></text><text class="label" x="176.64005040541926" y="189.94682801613493" font-size="8px"></text></g><g style="font-size: 13px;"><rect x="150" y="201.2156215621562" width="193.2137245636157" height="12.541254125412543" fill="#4472c4"></rect><rect x="150" y="214.4169416941694" width="184.87452476517538" height="12.541254125412543" fill="#ed7d31"></rect><rect x="150" y="227.61826182618262" width="14.61413579381346" height="12.541254125412543" fill="#a5a5a5"></rect><rect x="150" y="240.8195819581958" width="161.3743212191363" height="12.541254125412543" fill="#ffc000"></rect><rect x="150" y="254.020902090209" width="20.274981142097143" height="12.541254125412543" fill="#5b9bd5"></rect><text class="label" x="351.7137245636157" y="209.7156215621562" font-size="10px">13.22x</text><text class="label" x="343.37452476517535" y="222.9169416941694" font-size="10px">12.65x</text><text class="label" x="173.11413579381346" y="236.11826182618262" font-size="10px">1x</text><text class="label" x="319.8743212191363" y="249.3195819581958" font-size="10px">11.04x</text><text class="label" x="178.77498114209715" y="262.520902090209" font-size="10px">1.39x</text><text class="label" x="348.2137245636157" y="211.2156215621562" font-size="8px"></text><text class="label" x="339.87452476517535" y="224.4169416941694" font-size="8px"></text><text class="label" x="169.61413579381346" y="237.61826182618262" font-size="8px"></text><text class="label" x="316.3743212191363" y="250.8195819581958" font-size="8px"></text><text class="label" x="175.27498114209715" y="264.020902090209" font-size="8px"></text></g><g style="font-size: 13px;"><rect x="150" y="275.28969563623025" width="440.9090909090908" height="12.541254125412543" fill="#4472c4"></rect><rect x="150" y="288.49101576824347" width="278.85511044720175" height="12.541254125412543" fill="#ed7d31"></rect><rect x="150" y="301.6923359002567" width="15.28234255431086" height="12.541254125412543" fill="#a5a5a5"></rect><rect x="150" y="314.89365603226986" width="360.5968138516288" height="12.541254125412543" fill="#ffc000"></rect><rect x="150" y="328.0949761642831" width="14.61413579381346" height="12.541254125412543" fill="#5b9bd5"></rect><text class="label" x="599.4090909090908" y="283.78969563623025" font-size="10px">30.17x</text><text class="label" x="437.35511044720175" y="296.99101576824347" font-size="10px">19.08x</text><text class="label" x="173.78234255431087" y="310.1923359002567" font-size="10px">1.05x</text><text class="label" x="519.0968138516288" y="323.39365603226986" font-size="10px">24.67x</text><text class="label" x="173.11413579381346" y="336.5949761642831" font-size="10px">1x</text><text class="label" x="595.9090909090908" y="285.28969563623025" font-size="8px"></text><text class="label" x="433.85511044720175" y="298.49101576824347" font-size="8px"></text><text class="label" x="170.28234255431087" y="311.6923359002567" font-size="8px"></text><text class="label" x="515.5968138516288" y="324.89365603226986" font-size="8px"></text><text class="label" x="169.61413579381346" y="338.0949761642831" font-size="8px"></text></g><g style="font-size: 13px;"><rect x="150" y="349.3637697103044" width="251.48614850912887" height="12.541254125412543" fill="#4472c4"></rect><rect x="150" y="362.56508984231755" width="211.9340421472987" height="12.541254125412543" fill="#ed7d31"></rect><rect x="150" y="375.76640997433077" width="14.61413579381346" height="12.541254125412543" fill="#a5a5a5"></rect><rect x="150" y="388.967730106344" width="199.34160364083823" height="12.541254125412543" fill="#ffc000"></rect><rect x="150" y="402.16905023835716" width="14.94608160903769" height="12.541254125412543" fill="#5b9bd5"></rect><text class="label" x="409.98614850912884" y="357.8637697103044" font-size="10px">17.21x</text><text class="label" x="370.43404214729867" y="371.06508984231755" font-size="10px">14.5x</text><text class="label" x="173.11413579381346" y="384.26640997433077" font-size="10px">1x</text><text class="label" x="357.84160364083823" y="397.467730106344" font-size="10px">13.64x</text><text class="label" x="173.4460816090377" y="410.66905023835716" font-size="10px">1.02x</text><text class="label" x="406.48614850912884" y="359.3637697103044" font-size="8px"></text><text class="label" x="366.93404214729867" y="372.56508984231755" font-size="8px"></text><text class="label" x="169.61413579381346" y="385.76640997433077" font-size="8px"></text><text class="label" x="354.34160364083823" y="398.967730106344" font-size="8px"></text><text class="label" x="169.9460816090377" y="412.16905023835716" font-size="8px"></text></g><g style="font-size: 13px;"><rect x="150" y="423.4378437843784" width="306.66770486144475" height="12.541254125412543" fill="#4472c4"></rect><rect x="150" y="436.6391639163916" width="132.22804047285297" height="12.541254125412543" fill="#ed7d31"></rect><rect x="150" y="449.84048404840485" width="14.61413579381346" height="12.541254125412543" fill="#a5a5a5"></rect><rect x="150" y="463.041804180418" width="258.8345120679669" height="12.541254125412543" fill="#ffc000"></rect><rect x="150" y="476.24312431243123" width="17.159459280412385" height="12.541254125412543" fill="#5b9bd5"></rect><text class="label" x="465.16770486144475" y="431.9378437843784" font-size="10px">20.98x</text><text class="label" x="290.72804047285297" y="445.1391639163916" font-size="10px">9.05x</text><text class="label" x="173.11413579381346" y="458.34048404840485" font-size="10px">1x</text><text class="label" x="417.3345120679669" y="471.541804180418" font-size="10px">17.71x</text><text class="label" x="175.6594592804124" y="484.74312431243123" font-size="10px">1.17x</text><text class="label" x="461.66770486144475" y="433.4378437843784" font-size="8px"></text><text class="label" x="287.22804047285297" y="446.6391639163916" font-size="8px"></text><text class="label" x="169.61413579381346" y="459.84048404840485" font-size="8px"></text><text class="label" x="413.8345120679669" y="473.041804180418" font-size="8px"></text><text class="label" x="172.1594592804124" y="486.24312431243123" font-size="8px"></text></g><g style="font-size: 13px;"><rect x="150" y="497.51191785845253" width="174.2130225394926" height="12.541254125412543" fill="#4472c4"></rect><rect x="150" y="510.7132379904657" width="170.42085796132082" height="12.541254125412543" fill="#ed7d31"></rect><rect x="150" y="523.9145581224789" width="14.61413579381346" height="12.541254125412543" fill="#a5a5a5"></rect><rect x="150" y="537.1158782544921" width="161.5909104361699" height="12.541254125412543" fill="#ffc000"></rect><rect x="150" y="550.3171983865053" width="20.439037951275985" height="12.541254125412543" fill="#5b9bd5"></rect><text class="label" x="332.7130225394926" y="506.01191785845253" font-size="10px">11.92x</text><text class="label" x="328.92085796132085" y="519.2132379904657" font-size="10px">11.66x</text><text class="label" x="173.11413579381346" y="532.4145581224789" font-size="10px">1x</text><text class="label" x="320.0909104361699" y="545.6158782544921" font-size="10px">11.06x</text><text class="label" x="178.939037951276" y="558.8171983865053" font-size="10px">1.4x</text><text class="label" x="329.2130225394926" y="507.51191785845253" font-size="8px"></text><text class="label" x="325.42085796132085" y="520.7132379904657" font-size="8px"></text><text class="label" x="169.61413579381346" y="533.9145581224789" font-size="8px"></text><text class="label" x="316.5909104361699" y="547.1158782544921" font-size="8px"></text><text class="label" x="175.439037951276" y="560.3171983865053" font-size="8px"></text></g><g style="font-size: 13px;"><rect x="150" y="571.5859919325266" width="239.3141012146715" height="12.541254125412543" fill="#4472c4"></rect><rect x="150" y="584.7873120645397" width="90.4546777909791" height="12.541254125412543" fill="#ed7d31"></rect><rect x="150" y="597.9886321965529" width="14.955920156073159" height="12.541254125412543" fill="#a5a5a5"></rect><rect x="150" y="611.1899523285662" width="273.8829822677858" height="12.541254125412543" fill="#ffc000"></rect><rect x="150" y="624.3912724605793" width="14.61413579381346" height="12.541254125412543" fill="#5b9bd5"></rect><text class="label" x="397.8141012146715" y="580.0859919325266" font-size="10px">16.38x</text><text class="label" x="248.9546777909791" y="593.2873120645397" font-size="10px">6.19x</text><text class="label" x="173.45592015607315" y="606.4886321965529" font-size="10px">1.02x</text><text class="label" x="432.3829822677858" y="619.6899523285662" font-size="10px">18.74x</text><text class="label" x="173.11413579381346" y="632.8912724605793" font-size="10px">1x</text><text class="label" x="394.3141012146715" y="581.5859919325266" font-size="8px"></text><text class="label" x="245.4546777909791" y="594.7873120645397" font-size="8px"></text><text class="label" x="169.95592015607315" y="607.9886321965529" font-size="8px"></text><text class="label" x="428.8829822677858" y="621.1899523285662" font-size="8px"></text><text class="label" x="169.61413579381346" y="634.3912724605793" font-size="8px"></text></g></g></svg>