<svg xmlns="http://www.w3.org/2000/svg" xmlns:xlink="http://www.w3.org/1999/xlink" width="800" height="914" style="background-color: white;"><g class="y axis" transform="translate(149,45)" fill="none" font-size="10" font-family="sans-serif" text-anchor="end" style="font-size: 13px;"><path class="domain" stroke="currentColor" d="M0.5,0.5V720.5"></path><g class="tick" opacity="1" transform="translate(0,48.88888888888886)" style="font-size: 13px;"><line stroke="currentColor" x2="0"></line><text fill="currentColor" x="-3" dy="0.32em">object (simple)    </text></g><g class="tick" opacity="1" transform="translate(0,137.77777777777774)" style="font-size: 13px;"><line stroke="currentColor" x2="0"></line><text fill="currentColor" x="-3" dy="0.32em">object (hierarchical)    </text></g><g class="tick" opacity="1" transform="translate(0,226.66666666666663)" style="font-size: 13px;"><line stroke="currentColor" x2="0"></line><text fill="currentColor" x="-3" dy="0.32em">object (recursive)    </text></g><g class="tick" opacity="1" transform="translate(0,315.5555555555555)" style="font-size: 13px;"><line stroke="currentColor" x2="0"></line><text fill="currentColor" x="-3" dy="0.32em">object (union, explicit)    </text></g><g class="tick" opacity="1" transform="translate(0,404.4444444444444)" style="font-size: 13px;"><line stroke="currentColor" x2="0"></line><text fill="currentColor" x="-3" dy="0.32em">array (simple)    </text></g><g class="tick" opacity="1" transform="translate(0,493.3333333333333)" style="font-size: 13px;"><line stroke="currentColor" x2="0"></line><text fill="currentColor" x="-3" dy="0.32em">array (hierarchical)    </text></g><g class="tick" opacity="1" transform="translate(0,582.2222222222222)" style="font-size: 13px;"><line stroke="currentColor" x2="0"></line><text fill="currentColor" x="-3" dy="0.32em">array (recursive)    </text></g><g class="tick" opacity="1" transform="translate(0,671.1111111111111)" style="font-size: 13px;"><line stroke="currentColor" x2="0"></line><text fill="currentColor" x="-3" dy="0.32em">array (union, explicit)    </text></g></g><g class="x axis" transform="translate(149,765)" fill="none" font-size="10" font-family="sans-serif" text-anchor="middle" style="font-size: 13px;"><path class="domain" stroke="currentColor" d="M0.5,0.5H485.5"></path><g class="tick" opacity="1" transform="translate(0.5,0)" style="font-size: 13px;"><line stroke="currentColor" y2="6"></line><text fill="currentColor" y="9" dy="0.71em">0x</text></g><g class="tick" opacity="1" transform="translate(99.69539147011724,0)" style="font-size: 13px;"><line stroke="currentColor" y2="6"></line><text fill="currentColor" y="9" dy="0.71em">50x</text></g><g class="tick" opacity="1" transform="translate(198.8907829402345,0)" style="font-size: 13px;"><line stroke="currentColor" y2="6"></line><text fill="currentColor" y="9" dy="0.71em">100x</text></g><g class="tick" opacity="1" transform="translate(298.08617441035176,0)" style="font-size: 13px;"><line stroke="currentColor" y2="6"></line><text fill="currentColor" y="9" dy="0.71em">150x</text></g><g class="tick" opacity="1" transform="translate(397.281565880469,0)" style="font-size: 13px;"><line stroke="currentColor" y2="6"></line><text fill="currentColor" y="9" dy="0.71em">200x</text></g></g><text transform="translate(400, 30)" style="text-anchor: middle; font-size: 20px; font-weight: bold;">stringify benchmark</text><rect x="650" y="165" width="230" height="5" fill="gray"></rect><rect x="645" y="35" width="230" height="130" fill="none" stroke="black"></rect><rect x="655" y="45" width="10" height="10" style="fill: #4472c4;"></rect><text x="670" y="55" style="font-size: 12px;">typia.stringify</text><rect x="655" y="65" width="10" height="10" style="fill: #ed7d31;"></rect><text x="670" y="75" style="font-size: 12px;">typia.isStringify</text><rect x="655" y="85" width="10" height="10" style="fill: #a5a5a5;"></rect><text x="670" y="95" style="font-size: 12px;">typia.assertStringify</text><rect x="655" y="105" width="10" height="10" style="fill: #ffc000;"></rect><text x="670" y="115" style="font-size: 12px;">fast-json-stringify</text><rect x="655" y="125" width="10" height="10" style="fill: #5b9bd5;"></rect><text x="670" y="135" style="font-size: 12px;">JSON.stringify</text><rect x="655" y="145" width="10" height="10" style="fill: #70ad47;"></rect><text x="670" y="155" style="font-size: 12px;">class-transformer</text><text x="20" y="829" style="font-size: 12px;">  - CPU: AMD Ryzen 9 7940HS w/ Radeon 780M Graphics</text><text x="20" y="846" style="font-size: 12px;">  - OS: win32</text><text x="20" y="863" style="font-size: 12px;">  - RAM: 31 GB</text><text x="20" y="880" style="font-size: 12px;">  - NodeJS version: v20.10.0</text><text x="20" y="897" style="font-size: 12px;">  - Typia version: v5.5.7</text><g style="font-size: 13px;"><g style="font-size: 13px;"><rect x="150" y="54.55004591368224" width="440.9090909090909" height="12.56198347107438" fill="#4472c4"></rect><rect x="150" y="67.77318640955001" width="377.9742776819684" height="12.56198347107438" fill="#ed7d31"></rect><rect x="150" y="80.99632690541777" width="356.7737404202174" height="12.56198347107438" fill="#a5a5a5"></rect><rect x="150" y="94.21946740128556" width="144.44541752851075" height="12.56198347107438" fill="#ffc000"></rect><rect x="150" y="107.44260789715332" width="24.800487822762285" height="12.56198347107438" fill="#5b9bd5"></rect><rect x="150" y="120.66574839302109" width="1.9839078294023451" height="12.56198347107438" fill="#70ad47"></rect><text class="label" x="599.4090909090909" y="63.05004591368224" font-size="10px">222x</text><text class="label" x="536.4742776819684" y="76.27318640955001" font-size="10px">191x</text><text class="label" x="515.2737404202173" y="89.49632690541777" font-size="10px">180x</text><text class="label" x="302.94541752851075" y="102.71946740128556" font-size="10px">73x</text><text class="label" x="183.30048782276228" y="115.94260789715332" font-size="10px">13x</text><text class="label" x="160.48390782940234" y="129.1657483930211" font-size="10px">1x</text><text class="label" x="595.9090909090909" y="64.55004591368224" font-size="8px"></text><text class="label" x="532.9742776819684" y="77.77318640955001" font-size="8px"></text><text class="label" x="511.7737404202174" y="90.99632690541777" font-size="8px"></text><text class="label" x="299.44541752851075" y="104.21946740128556" font-size="8px"></text><text class="label" x="179.80048782276228" y="117.44260789715332" font-size="8px"></text><text class="label" x="156.98390782940234" y="130.6657483930211" font-size="8px"></text></g><g style="font-size: 13px;"><rect x="150" y="143.4389348025711" width="87.32256479372563" height="12.56198347107438" fill="#4472c4"></rect><rect x="150" y="156.66207529843888" width="81.51019281835451" height="12.56198347107438" fill="#ed7d31"></rect><rect x="150" y="169.88521579430665" width="81.02397178685078" height="12.56198347107438" fill="#a5a5a5"></rect><rect x="150" y="183.10835629017444" width="49.24332382581212" height="12.56198347107438" fill="#ffc000"></rect><rect x="150" y="196.3314967860422" width="19.421615320428522" height="12.56198347107438" fill="#5b9bd5"></rect><rect x="150" y="209.55463728190998" width="1.9839078294023451" height="12.56198347107438" fill="#70ad47"></rect><text class="label" x="245.82256479372563" y="151.9389348025711" font-size="10px">44x</text><text class="label" x="240.0101928183545" y="165.16207529843888" font-size="10px">41x</text><text class="label" x="239.52397178685078" y="178.38521579430665" font-size="10px">41x</text><text class="label" x="207.74332382581213" y="191.60835629017444" font-size="10px">25x</text><text class="label" x="177.92161532042851" y="204.8314967860422" font-size="10px">10x</text><text class="label" x="160.48390782940234" y="218.05463728190998" font-size="10px">1x</text><text class="label" x="242.32256479372563" y="153.4389348025711" font-size="8px"></text><text class="label" x="236.5101928183545" y="166.66207529843888" font-size="8px"></text><text class="label" x="236.02397178685078" y="179.88521579430665" font-size="8px"></text><text class="label" x="204.24332382581213" y="193.10835629017444" font-size="8px"></text><text class="label" x="174.42161532042851" y="206.3314967860422" font-size="8px"></text><text class="label" x="156.98390782940234" y="219.55463728190998" font-size="8px"></text></g><g style="font-size: 13px;"><rect x="150" y="232.32782369146003" width="112.04006218633782" height="12.56198347107438" fill="#4472c4"></rect><rect x="150" y="245.5509641873278" width="110.26036892777165" height="12.56198347107438" fill="#ed7d31"></rect><rect x="150" y="258.77410468319556" width="106.58397278912223" height="12.56198347107438" fill="#a5a5a5"></rect><rect x="150" y="271.9972451790633" width="29.256858077647923" height="12.56198347107438" fill="#ffc000"></rect><rect x="150" y="285.2203856749311" width="21.58910488214865" height="12.56198347107438" fill="#5b9bd5"></rect><rect x="150" y="298.44352617079886" width="1.9839078294023451" height="12.56198347107438" fill="#70ad47"></rect><text class="label" x="270.5400621863378" y="240.82782369146003" font-size="10px">56x</text><text class="label" x="268.76036892777165" y="254.0509641873278" font-size="10px">56x</text><text class="label" x="265.08397278912224" y="267.27410468319556" font-size="10px">54x</text><text class="label" x="187.75685807764793" y="280.4972451790633" font-size="10px">15x</text><text class="label" x="180.08910488214866" y="293.7203856749311" font-size="10px">11x</text><text class="label" x="160.48390782940234" y="306.94352617079886" font-size="10px">1x</text><text class="label" x="267.0400621863378" y="242.32782369146003" font-size="8px"></text><text class="label" x="265.26036892777165" y="255.5509641873278" font-size="8px"></text><text class="label" x="261.58397278912224" y="268.77410468319556" font-size="8px"></text><text class="label" x="184.25685807764793" y="281.9972451790633" font-size="8px"></text><text class="label" x="176.58910488214866" y="295.2203856749311" font-size="8px"></text><text class="label" x="156.98390782940234" y="308.44352617079886" font-size="8px"></text></g><g style="font-size: 13px;"><rect x="150" y="321.2167125803489" width="77.93408028573529" height="12.56198347107438" fill="#4472c4"></rect><rect x="150" y="334.43985307621665" width="70.51206795653145" height="12.56198347107438" fill="#ed7d31"></rect><rect x="150" y="347.6629935720844" width="66.81874812805205" height="12.56198347107438" fill="#a5a5a5"></rect><rect x="150" y="360.8861340679522" width="55.933190955276004" height="12.56198347107438" fill="#ffc000"></rect><rect x="150" y="374.10927456381995" width="31.321332205429908" height="12.56198347107438" fill="#5b9bd5"></rect><rect x="150" y="387.3324150596877" width="1.9839078294023451" height="12.56198347107438" fill="#70ad47"></rect><text class="label" x="236.4340802857353" y="329.7167125803489" font-size="10px">39x</text><text class="label" x="229.01206795653144" y="342.93985307621665" font-size="10px">36x</text><text class="label" x="225.31874812805205" y="356.1629935720844" font-size="10px">34x</text><text class="label" x="214.43319095527602" y="369.3861340679522" font-size="10px">28x</text><text class="label" x="189.8213322054299" y="382.60927456381995" font-size="10px">16x</text><text class="label" x="160.48390782940234" y="395.8324150596877" font-size="10px">1x</text><text class="label" x="232.9340802857353" y="331.2167125803489" font-size="8px"></text><text class="label" x="225.51206795653144" y="344.43985307621665" font-size="8px"></text><text class="label" x="221.81874812805205" y="357.6629935720844" font-size="8px"></text><text class="label" x="210.93319095527602" y="370.8861340679522" font-size="8px"></text><text class="label" x="186.3213322054299" y="384.10927456381995" font-size="8px"></text><text class="label" x="156.98390782940234" y="397.3324150596877" font-size="8px"></text></g><g style="font-size: 13px;"><rect x="150" y="410.1056014692378" width="40.391705896023105" height="12.56198347107438" fill="#4472c4"></rect><rect x="150" y="423.32874196510556" width="38.75166428826302" height="12.56198347107438" fill="#ed7d31"></rect><rect x="150" y="436.55188246097333" width="36.85183497810452" height="12.56198347107438" fill="#a5a5a5"></rect><rect x="150" y="449.7750229568411" width="62.93352719980337" height="12.56198347107438" fill="#ffc000"></rect><rect x="150" y="462.99816345270887" width="24.308197904036284" height="12.56198347107438" fill="#5b9bd5"></rect><rect x="150" y="476.22130394857663" width="1.9839078294023451" height="12.56198347107438" fill="#70ad47"></rect><text class="label" x="198.8917058960231" y="418.6056014692378" font-size="10px">20x</text><text class="label" x="197.25166428826302" y="431.82874196510556" font-size="10px">20x</text><text class="label" x="195.35183497810453" y="445.05188246097333" font-size="10px">19x</text><text class="label" x="221.43352719980336" y="458.2750229568411" font-size="10px">32x</text><text class="label" x="182.8081979040363" y="471.49816345270887" font-size="10px">12x</text><text class="label" x="160.48390782940234" y="484.72130394857663" font-size="10px">1x</text><text class="label" x="195.3917058960231" y="420.1056014692378" font-size="8px"></text><text class="label" x="193.75166428826302" y="433.32874196510556" font-size="8px"></text><text class="label" x="191.85183497810453" y="446.55188246097333" font-size="8px"></text><text class="label" x="217.93352719980336" y="459.7750229568411" font-size="8px"></text><text class="label" x="179.3081979040363" y="472.99816345270887" font-size="8px"></text><text class="label" x="156.98390782940234" y="486.22130394857663" font-size="8px"></text></g><g style="font-size: 13px;"><rect x="150" y="498.9944903581267" width="66.64726918355353" height="12.56198347107438" fill="#4472c4"></rect><rect x="150" y="512.2176308539945" width="63.72192396387257" height="12.56198347107438" fill="#ed7d31"></rect><rect x="150" y="525.4407713498622" width="63.26125180677126" height="12.56198347107438" fill="#a5a5a5"></rect><rect x="150" y="538.66391184573" width="105.40721925300909" height="12.56198347107438" fill="#ffc000"></rect><rect x="150" y="551.8870523415978" width="27.265961718171003" height="12.56198347107438" fill="#5b9bd5"></rect><rect x="150" y="565.1101928374655" width="1.9839078294023451" height="12.56198347107438" fill="#70ad47"></rect><text class="label" x="225.14726918355353" y="507.4944903581267" font-size="10px">34x</text><text class="label" x="222.22192396387257" y="520.7176308539945" font-size="10px">32x</text><text class="label" x="221.76125180677127" y="533.9407713498622" font-size="10px">32x</text><text class="label" x="263.9072192530091" y="547.16391184573" font-size="10px">53x</text><text class="label" x="185.765961718171" y="560.3870523415978" font-size="10px">14x</text><text class="label" x="160.48390782940234" y="573.6101928374655" font-size="10px">1x</text><text class="label" x="221.64726918355353" y="508.9944903581267" font-size="8px"></text><text class="label" x="218.72192396387257" y="522.2176308539945" font-size="8px"></text><text class="label" x="218.26125180677127" y="535.4407713498622" font-size="8px"></text><text class="label" x="260.4072192530091" y="548.66391184573" font-size="8px"></text><text class="label" x="182.265961718171" y="561.8870523415978" font-size="8px"></text><text class="label" x="156.98390782940234" y="575.1101928374655" font-size="8px"></text></g><g style="font-size: 13px;"><rect x="150" y="587.8833792470156" width="50.81558293355285" height="12.56198347107438" fill="#4472c4"></rect><rect x="150" y="601.1065197428833" width="50.118123249042064" height="12.56198347107438" fill="#ed7d31"></rect><rect x="150" y="614.3296602387511" width="49.23187747732097" height="12.56198347107438" fill="#a5a5a5"></rect><rect x="150" y="627.5528007346188" width="105.55719191784034" height="12.56198347107438" fill="#ffc000"></rect><rect x="150" y="640.7759412304866" width="24.283786443886175" height="12.56198347107438" fill="#5b9bd5"></rect><rect x="150" y="653.9990817263545" width="1.9839078294023451" height="12.56198347107438" fill="#70ad47"></rect><text class="label" x="209.31558293355283" y="596.3833792470156" font-size="10px">26x</text><text class="label" x="208.61812324904207" y="609.6065197428833" font-size="10px">25x</text><text class="label" x="207.73187747732098" y="622.8296602387511" font-size="10px">25x</text><text class="label" x="264.0571919178403" y="636.0528007346188" font-size="10px">53x</text><text class="label" x="182.78378644388619" y="649.2759412304866" font-size="10px">12x</text><text class="label" x="160.48390782940234" y="662.4990817263545" font-size="10px">1x</text><text class="label" x="205.81558293355283" y="597.8833792470156" font-size="8px"></text><text class="label" x="205.11812324904207" y="611.1065197428833" font-size="8px"></text><text class="label" x="204.23187747732098" y="624.3296602387511" font-size="8px"></text><text class="label" x="260.5571919178403" y="637.5528007346188" font-size="8px"></text><text class="label" x="179.28378644388619" y="650.7759412304866" font-size="8px"></text><text class="label" x="156.98390782940234" y="663.9990817263545" font-size="8px"></text></g><g style="font-size: 13px;"><rect x="150" y="676.7722681359045" width="44.787654755592484" height="12.56198347107438" fill="#4472c4"></rect><rect x="150" y="689.9954086317722" width="40.68269185954651" height="12.56198347107438" fill="#ed7d31"></rect><rect x="150" y="703.21854912764" width="41.60769272285839" height="12.56198347107438" fill="#a5a5a5"></rect><rect x="150" y="716.4416896235077" width="10.236503222433488" height="12.56198347107438" fill="#ffc000"></rect><rect x="150" y="729.6648301193756" width="33.245067037852856" height="12.56198347107438" fill="#5b9bd5"></rect><rect x="150" y="742.8879706152434" width="1.9839078294023451" height="12.56198347107438" fill="#70ad47"></rect><text class="label" x="203.28765475559248" y="685.2722681359045" font-size="10px">23x</text><text class="label" x="199.1826918595465" y="698.4954086317722" font-size="10px">21x</text><text class="label" x="200.1076927228584" y="711.71854912764" font-size="10px">21x</text><text class="label" x="168.7365032224335" y="724.9416896235077" font-size="10px">5x</text><text class="label" x="191.74506703785286" y="738.1648301193756" font-size="10px">17x</text><text class="label" x="160.48390782940234" y="751.3879706152434" font-size="10px">1x</text><text class="label" x="199.78765475559248" y="686.7722681359045" font-size="8px"></text><text class="label" x="195.6826918595465" y="699.9954086317722" font-size="8px"></text><text class="label" x="196.6076927228584" y="713.21854912764" font-size="8px"></text><text class="label" x="165.2365032224335" y="726.4416896235077" font-size="8px"></text><text class="label" x="188.24506703785286" y="739.6648301193756" font-size="8px"></text><text class="label" x="156.98390782940234" y="752.8879706152434" font-size="8px"></text></g></g></svg>