<svg xmlns="http://www.w3.org/2000/svg" xmlns:xlink="http://www.w3.org/1999/xlink" width="800" height="914" style="background-color: white;"><g class="y axis" transform="translate(149,45)" fill="none" font-size="10" font-family="sans-serif" text-anchor="end" style="font-size: 13px;"><path class="domain" stroke="currentColor" d="M0.5,0.5V720.5"></path><g class="tick" opacity="1" transform="translate(0,48.88888888888886)" style="font-size: 13px;"><line stroke="currentColor" x2="0"></line><text fill="currentColor" x="-3" dy="0.32em">object (simple)    </text></g><g class="tick" opacity="1" transform="translate(0,137.77777777777774)" style="font-size: 13px;"><line stroke="currentColor" x2="0"></line><text fill="currentColor" x="-3" dy="0.32em">object (hierarchical)    </text></g><g class="tick" opacity="1" transform="translate(0,226.66666666666663)" style="font-size: 13px;"><line stroke="currentColor" x2="0"></line><text fill="currentColor" x="-3" dy="0.32em">object (recursive)    </text></g><g class="tick" opacity="1" transform="translate(0,315.5555555555555)" style="font-size: 13px;"><line stroke="currentColor" x2="0"></line><text fill="currentColor" x="-3" dy="0.32em">object (union, explicit)    </text></g><g class="tick" opacity="1" transform="translate(0,404.4444444444444)" style="font-size: 13px;"><line stroke="currentColor" x2="0"></line><text fill="currentColor" x="-3" dy="0.32em">array (simple)    </text></g><g class="tick" opacity="1" transform="translate(0,493.3333333333333)" style="font-size: 13px;"><line stroke="currentColor" x2="0"></line><text fill="currentColor" x="-3" dy="0.32em">array (hierarchical)    </text></g><g class="tick" opacity="1" transform="translate(0,582.2222222222222)" style="font-size: 13px;"><line stroke="currentColor" x2="0"></line><text fill="currentColor" x="-3" dy="0.32em">array (recursive)    </text></g><g class="tick" opacity="1" transform="translate(0,671.1111111111111)" style="font-size: 13px;"><line stroke="currentColor" x2="0"></line><text fill="currentColor" x="-3" dy="0.32em">array (union, explicit)    </text></g></g><g class="x axis" transform="translate(149,765)" fill="none" font-size="10" font-family="sans-serif" text-anchor="middle" style="font-size: 13px;"><path class="domain" stroke="currentColor" d="M0.5,0.5H485.5"></path><g class="tick" opacity="1" transform="translate(0.5,0)" style="font-size: 13px;"><line stroke="currentColor" y2="6"></line><text fill="currentColor" y="9" dy="0.71em">0x</text></g><g class="tick" opacity="1" transform="translate(93.67158229255496,0)" style="font-size: 13px;"><line stroke="currentColor" y2="6"></line><text fill="currentColor" y="9" dy="0.71em">50x</text></g><g class="tick" opacity="1" transform="translate(186.84316458510992,0)" style="font-size: 13px;"><line stroke="currentColor" y2="6"></line><text fill="currentColor" y="9" dy="0.71em">100x</text></g><g class="tick" opacity="1" transform="translate(280.0147468776649,0)" style="font-size: 13px;"><line stroke="currentColor" y2="6"></line><text fill="currentColor" y="9" dy="0.71em">150x</text></g><g class="tick" opacity="1" transform="translate(373.18632917021984,0)" style="font-size: 13px;"><line stroke="currentColor" y2="6"></line><text fill="currentColor" y="9" dy="0.71em">200x</text></g><g class="tick" opacity="1" transform="translate(466.35791146277484,0)" style="font-size: 13px;"><line stroke="currentColor" y2="6"></line><text fill="currentColor" y="9" dy="0.71em">250x</text></g></g><text transform="translate(400, 30)" style="text-anchor: middle; font-size: 20px; font-weight: bold;">stringify benchmark</text><rect x="650" y="165" width="230" height="5" fill="gray"></rect><rect x="645" y="35" width="230" height="130" fill="none" stroke="black"></rect><rect x="655" y="45" width="10" height="10" style="fill: #4472c4;"></rect><text x="670" y="55" style="font-size: 12px;">typia.stringify</text><rect x="655" y="65" width="10" height="10" style="fill: #ed7d31;"></rect><text x="670" y="75" style="font-size: 12px;">typia.isStringify</text><rect x="655" y="85" width="10" height="10" style="fill: #a5a5a5;"></rect><text x="670" y="95" style="font-size: 12px;">typia.assertStringify</text><rect x="655" y="105" width="10" height="10" style="fill: #ffc000;"></rect><text x="670" y="115" style="font-size: 12px;">fast-json-stringify</text><rect x="655" y="125" width="10" height="10" style="fill: #5b9bd5;"></rect><text x="670" y="135" style="font-size: 12px;">JSON.stringify</text><rect x="655" y="145" width="10" height="10" style="fill: #70ad47;"></rect><text x="670" y="155" style="font-size: 12px;">class-transformer</text><text x="20" y="829" style="font-size: 12px;">  - CPU: AMD Ryzen 9 7940HS w/ Radeon 780M Graphics</text><text x="20" y="846" style="font-size: 12px;">  - OS: win32</text><text x="20" y="863" style="font-size: 12px;">  - RAM: 31 GB</text><text x="20" y="880" style="font-size: 12px;">  - NodeJS version: v20.10.0</text><text x="20" y="897" style="font-size: 12px;">  - Typia version: v6.0.0-dev.20240118</text><g style="font-size: 13px;"><g style="font-size: 13px;"><rect x="150" y="54.55004591368224" width="440.9090909090908" height="12.56198347107438" fill="#4472c4"></rect><rect x="150" y="67.77318640955001" width="378.2578828986929" height="12.56198347107438" fill="#ed7d31"></rect><rect x="150" y="80.99632690541777" width="327.4190394079056" height="12.56198347107438" fill="#a5a5a5"></rect><rect x="150" y="94.21946740128556" width="137.949374284128" height="12.56198347107438" fill="#ffc000"></rect><rect x="150" y="107.44260789715332" width="23.87808398292418" height="12.56198347107438" fill="#5b9bd5"></rect><rect x="150" y="120.66574839302109" width="1.8634316458510993" height="12.56198347107438" fill="#70ad47"></rect><text class="label" x="599.4090909090908" y="63.05004591368224" font-size="10px">237x</text><text class="label" x="536.757882898693" y="76.27318640955001" font-size="10px">203x</text><text class="label" x="485.9190394079056" y="89.49632690541777" font-size="10px">176x</text><text class="label" x="296.449374284128" y="102.71946740128556" font-size="10px">74x</text><text class="label" x="182.37808398292418" y="115.94260789715332" font-size="10px">13x</text><text class="label" x="160.3634316458511" y="129.1657483930211" font-size="10px">1x</text><text class="label" x="595.9090909090908" y="64.55004591368224" font-size="8px"></text><text class="label" x="533.257882898693" y="77.77318640955001" font-size="8px"></text><text class="label" x="482.4190394079056" y="90.99632690541777" font-size="8px"></text><text class="label" x="292.949374284128" y="104.21946740128556" font-size="8px"></text><text class="label" x="178.87808398292418" y="117.44260789715332" font-size="8px"></text><text class="label" x="156.8634316458511" y="130.6657483930211" font-size="8px"></text></g><g style="font-size: 13px;"><rect x="150" y="143.4389348025711" width="108.77978593231987" height="12.56198347107438" fill="#4472c4"></rect><rect x="150" y="156.66207529843888" width="105.33950936697796" height="12.56198347107438" fill="#ed7d31"></rect><rect x="150" y="169.88521579430665" width="103.39404726788209" height="12.56198347107438" fill="#a5a5a5"></rect><rect x="150" y="183.10835629017444" width="85.48771957099615" height="12.56198347107438" fill="#ffc000"></rect><rect x="150" y="196.3314967860422" width="31.80182362482894" height="12.56198347107438" fill="#5b9bd5"></rect><rect x="150" y="209.55463728190998" width="1.8634316458510993" height="12.56198347107438" fill="#70ad47"></rect><text class="label" x="267.2797859323199" y="151.9389348025711" font-size="10px">58x</text><text class="label" x="263.83950936697795" y="165.16207529843888" font-size="10px">57x</text><text class="label" x="261.8940472678821" y="178.38521579430665" font-size="10px">55x</text><text class="label" x="243.98771957099615" y="191.60835629017444" font-size="10px">46x</text><text class="label" x="190.30182362482896" y="204.8314967860422" font-size="10px">17x</text><text class="label" x="160.3634316458511" y="218.05463728190998" font-size="10px">1x</text><text class="label" x="263.7797859323199" y="153.4389348025711" font-size="8px"></text><text class="label" x="260.33950936697795" y="166.66207529843888" font-size="8px"></text><text class="label" x="258.3940472678821" y="179.88521579430665" font-size="8px"></text><text class="label" x="240.48771957099615" y="193.10835629017444" font-size="8px"></text><text class="label" x="186.80182362482896" y="206.3314967860422" font-size="8px"></text><text class="label" x="156.8634316458511" y="219.55463728190998" font-size="8px"></text></g><g style="font-size: 13px;"><rect x="150" y="232.32782369146003" width="79.3738378910132" height="12.56198347107438" fill="#4472c4"></rect><rect x="150" y="245.5509641873278" width="77.62578556359607" height="12.56198347107438" fill="#ed7d31"></rect><rect x="150" y="258.77410468319556" width="77.13063715465319" height="12.56198347107438" fill="#a5a5a5"></rect><rect x="150" y="271.9972451790633" width="29.976710779734706" height="12.56198347107438" fill="#ffc000"></rect><rect x="150" y="285.2203856749311" width="20.79299394552285" height="12.56198347107438" fill="#5b9bd5"></rect><rect x="150" y="298.44352617079886" width="1.8634316458510993" height="12.56198347107438" fill="#70ad47"></rect><text class="label" x="237.87383789101318" y="240.82782369146003" font-size="10px">43x</text><text class="label" x="236.12578556359608" y="254.0509641873278" font-size="10px">42x</text><text class="label" x="235.6306371546532" y="267.27410468319556" font-size="10px">41x</text><text class="label" x="188.4767107797347" y="280.4972451790633" font-size="10px">16x</text><text class="label" x="179.29299394552285" y="293.7203856749311" font-size="10px">11x</text><text class="label" x="160.3634316458511" y="306.94352617079886" font-size="10px">1x</text><text class="label" x="234.37383789101318" y="242.32782369146003" font-size="8px"></text><text class="label" x="232.62578556359608" y="255.5509641873278" font-size="8px"></text><text class="label" x="232.1306371546532" y="268.77410468319556" font-size="8px"></text><text class="label" x="184.9767107797347" y="281.9972451790633" font-size="8px"></text><text class="label" x="175.79299394552285" y="295.2203856749311" font-size="8px"></text><text class="label" x="156.8634316458511" y="308.44352617079886" font-size="8px"></text></g><g style="font-size: 13px;"><rect x="150" y="321.2167125803489" width="64.5139525369942" height="12.56198347107438" fill="#4472c4"></rect><rect x="150" y="334.43985307621665" width="56.50699608448343" height="12.56198347107438" fill="#ed7d31"></rect><rect x="150" y="347.6629935720844" width="56.81826506405073" height="12.56198347107438" fill="#a5a5a5"></rect><rect x="150" y="360.8861340679522" width="57.41063326374387" height="12.56198347107438" fill="#ffc000"></rect><rect x="150" y="374.10927456381995" width="30.877802509382192" height="12.56198347107438" fill="#5b9bd5"></rect><rect x="150" y="387.3324150596877" width="1.8634316458510993" height="12.56198347107438" fill="#70ad47"></rect><text class="label" x="223.0139525369942" y="329.7167125803489" font-size="10px">35x</text><text class="label" x="215.00699608448343" y="342.93985307621665" font-size="10px">30x</text><text class="label" x="215.31826506405073" y="356.1629935720844" font-size="10px">30x</text><text class="label" x="215.91063326374388" y="369.3861340679522" font-size="10px">31x</text><text class="label" x="189.3778025093822" y="382.60927456381995" font-size="10px">17x</text><text class="label" x="160.3634316458511" y="395.8324150596877" font-size="10px">1x</text><text class="label" x="219.5139525369942" y="331.2167125803489" font-size="8px"></text><text class="label" x="211.50699608448343" y="344.43985307621665" font-size="8px"></text><text class="label" x="211.81826506405073" y="357.6629935720844" font-size="8px"></text><text class="label" x="212.41063326374388" y="370.8861340679522" font-size="8px"></text><text class="label" x="185.8778025093822" y="384.10927456381995" font-size="8px"></text><text class="label" x="156.8634316458511" y="397.3324150596877" font-size="8px"></text></g><g style="font-size: 13px;"><rect x="150" y="410.1056014692378" width="31.586561039593246" height="12.56198347107438" fill="#4472c4"></rect><rect x="150" y="423.32874196510556" width="32.68844173704092" height="12.56198347107438" fill="#ed7d31"></rect><rect x="150" y="436.55188246097333" width="33.197655393365785" height="12.56198347107438" fill="#a5a5a5"></rect><rect x="150" y="449.7750229568411" width="62.30221609015224" height="12.56198347107438" fill="#ffc000"></rect><rect x="150" y="462.99816345270887" width="24.407375439539653" height="12.56198347107438" fill="#5b9bd5"></rect><rect x="150" y="476.22130394857663" width="1.8634316458510993" height="12.56198347107438" fill="#70ad47"></rect><text class="label" x="190.08656103959325" y="418.6056014692378" font-size="10px">17x</text><text class="label" x="191.18844173704093" y="431.82874196510556" font-size="10px">18x</text><text class="label" x="191.69765539336578" y="445.05188246097333" font-size="10px">18x</text><text class="label" x="220.80221609015223" y="458.2750229568411" font-size="10px">33x</text><text class="label" x="182.90737543953966" y="471.49816345270887" font-size="10px">13x</text><text class="label" x="160.3634316458511" y="484.72130394857663" font-size="10px">1x</text><text class="label" x="186.58656103959325" y="420.1056014692378" font-size="8px"></text><text class="label" x="187.68844173704093" y="433.32874196510556" font-size="8px"></text><text class="label" x="188.19765539336578" y="446.55188246097333" font-size="8px"></text><text class="label" x="217.30221609015223" y="459.7750229568411" font-size="8px"></text><text class="label" x="179.40737543953966" y="472.99816345270887" font-size="8px"></text><text class="label" x="156.8634316458511" y="486.22130394857663" font-size="8px"></text></g><g style="font-size: 13px;"><rect x="150" y="498.9944903581267" width="58.85147687705182" height="12.56198347107438" fill="#4472c4"></rect><rect x="150" y="512.2176308539945" width="62.006973479875604" height="12.56198347107438" fill="#ed7d31"></rect><rect x="150" y="525.4407713498622" width="61.5072966714185" height="12.56198347107438" fill="#a5a5a5"></rect><rect x="150" y="538.66391184573" width="96.91846420872946" height="12.56198347107438" fill="#ffc000"></rect><rect x="150" y="551.8870523415978" width="26.558004563637343" height="12.56198347107438" fill="#5b9bd5"></rect><rect x="150" y="565.1101928374655" width="1.8634316458510993" height="12.56198347107438" fill="#70ad47"></rect><text class="label" x="217.35147687705182" y="507.4944903581267" font-size="10px">32x</text><text class="label" x="220.5069734798756" y="520.7176308539945" font-size="10px">33x</text><text class="label" x="220.0072966714185" y="533.9407713498622" font-size="10px">33x</text><text class="label" x="255.41846420872946" y="547.16391184573" font-size="10px">52x</text><text class="label" x="185.05800456363735" y="560.3870523415978" font-size="10px">14x</text><text class="label" x="160.3634316458511" y="573.6101928374655" font-size="10px">1x</text><text class="label" x="213.85147687705182" y="508.9944903581267" font-size="8px"></text><text class="label" x="217.0069734798756" y="522.2176308539945" font-size="8px"></text><text class="label" x="216.5072966714185" y="535.4407713498622" font-size="8px"></text><text class="label" x="251.91846420872946" y="548.66391184573" font-size="8px"></text><text class="label" x="181.55800456363735" y="561.8870523415978" font-size="8px"></text><text class="label" x="156.8634316458511" y="575.1101928374655" font-size="8px"></text></g><g style="font-size: 13px;"><rect x="150" y="587.8833792470156" width="50.7080311932462" height="12.56198347107438" fill="#4472c4"></rect><rect x="150" y="601.1065197428833" width="50.67645309277743" height="12.56198347107438" fill="#ed7d31"></rect><rect x="150" y="614.3296602387511" width="50.435411061585384" height="12.56198347107438" fill="#a5a5a5"></rect><rect x="150" y="627.5528007346188" width="105.5342715712235" height="12.56198347107438" fill="#ffc000"></rect><rect x="150" y="640.7759412304866" width="24.1102668744582" height="12.56198347107438" fill="#5b9bd5"></rect><rect x="150" y="653.9990817263545" width="1.8634316458510993" height="12.56198347107438" fill="#70ad47"></rect><text class="label" x="209.2080311932462" y="596.3833792470156" font-size="10px">27x</text><text class="label" x="209.17645309277742" y="609.6065197428833" font-size="10px">27x</text><text class="label" x="208.9354110615854" y="622.8296602387511" font-size="10px">27x</text><text class="label" x="264.0342715712235" y="636.0528007346188" font-size="10px">57x</text><text class="label" x="182.6102668744582" y="649.2759412304866" font-size="10px">13x</text><text class="label" x="160.3634316458511" y="662.4990817263545" font-size="10px">1x</text><text class="label" x="205.7080311932462" y="597.8833792470156" font-size="8px"></text><text class="label" x="205.67645309277742" y="611.1065197428833" font-size="8px"></text><text class="label" x="205.4354110615854" y="624.3296602387511" font-size="8px"></text><text class="label" x="260.5342715712235" y="637.5528007346188" font-size="8px"></text><text class="label" x="179.1102668744582" y="650.7759412304866" font-size="8px"></text><text class="label" x="156.8634316458511" y="663.9990817263545" font-size="8px"></text></g><g style="font-size: 13px;"><rect x="150" y="676.7722681359045" width="39.41881054221968" height="12.56198347107438" fill="#4472c4"></rect><rect x="150" y="689.9954086317722" width="36.60722657902167" height="12.56198347107438" fill="#ed7d31"></rect><rect x="150" y="703.21854912764" width="36.37044987631842" height="12.56198347107438" fill="#a5a5a5"></rect><rect x="150" y="716.4416896235077" width="9.836783329124614" height="12.56198347107438" fill="#ffc000"></rect><rect x="150" y="729.6648301193756" width="30.77770927702079" height="12.56198347107438" fill="#5b9bd5"></rect><rect x="150" y="742.8879706152434" width="1.8634316458510993" height="12.56198347107438" fill="#70ad47"></rect><text class="label" x="197.9188105422197" y="685.2722681359045" font-size="10px">21x</text><text class="label" x="195.10722657902167" y="698.4954086317722" font-size="10px">20x</text><text class="label" x="194.87044987631842" y="711.71854912764" font-size="10px">20x</text><text class="label" x="168.33678332912461" y="724.9416896235077" font-size="10px">5x</text><text class="label" x="189.2777092770208" y="738.1648301193756" font-size="10px">17x</text><text class="label" x="160.3634316458511" y="751.3879706152434" font-size="10px">1x</text><text class="label" x="194.4188105422197" y="686.7722681359045" font-size="8px"></text><text class="label" x="191.60722657902167" y="699.9954086317722" font-size="8px"></text><text class="label" x="191.37044987631842" y="713.21854912764" font-size="8px"></text><text class="label" x="164.83678332912461" y="726.4416896235077" font-size="8px"></text><text class="label" x="185.7777092770208" y="739.6648301193756" font-size="8px"></text><text class="label" x="156.8634316458511" y="752.8879706152434" font-size="8px"></text></g></g></svg>